<svg width="104" height="85" viewBox="0 0 104 85" fill="none" xmlns="http://www.w3.org/2000/svg">
<path d="M8.80567 36.1797C9.33377 37.3564 9.68585 38.5331 10.2609 39.6157C10.8359 40.6983 11.364 41.7927 11.8687 42.9106C12.8936 45.1699 13.8911 47.4331 14.8613 49.7003C16.9267 54.5484 19.3677 59.22 21.4567 64.0445C21.844 64.9388 22.0787 65.8449 22.4073 66.7392C22.865 67.916 21.9378 66.5627 22.5481 66.8216C22.7593 66.7157 22.8063 66.6804 22.6889 66.6922H22.2078C21.0705 66.6317 19.9335 66.8157 18.8729 67.2317C17.8124 67.6477 16.8527 68.2862 16.0583 69.1044C14.4935 70.5484 12.796 71.8407 10.9885 72.9641C9.01691 74.1408 6.97492 75.2352 4.94466 76.3296L9.00519 80.2245C10.1191 77.9998 11.7473 76.0744 13.754 74.6088C15.7608 73.1432 18.0879 72.1798 20.5413 71.7992C20.9726 71.7878 21.3966 71.6842 21.7847 71.4952C22.1728 71.3062 22.5162 71.0361 22.7917 70.7032C23.0673 70.3703 23.2688 69.9822 23.3825 69.5649C23.4963 69.1475 23.5199 68.7106 23.4515 68.2834C23.3832 67.8563 23.2246 67.4487 22.9863 67.0879C22.7481 66.7272 22.4357 66.4217 22.0701 66.1919C21.7045 65.9621 21.2942 65.8134 20.8666 65.7555C20.4389 65.6977 20.0039 65.7322 19.5907 65.8567C16.2936 66.5122 13.1812 67.8886 10.4753 69.888C7.76929 71.8873 5.53632 74.4604 3.9354 77.4239C2.48018 80.1186 5.50798 82.5662 7.99593 81.2953C10.3858 80.1795 12.7094 78.9262 14.9551 77.5416C16.8932 76.0637 18.7391 74.4682 20.4826 72.7641C21.1985 72.1639 21.8792 72.2699 22.8297 72.1757C24.2161 72.1053 25.5298 71.5324 26.5265 70.5636C28.1577 68.8221 28.0403 66.1979 27.2893 64.0798C26.2704 61.5283 25.1227 59.0305 23.8507 56.5959C22.5011 53.7835 21.2102 50.9358 19.7785 48.1587C18.6049 45.8053 17.4313 43.3695 15.9761 41.0984C15.2368 39.9217 14.4388 38.7449 13.629 37.5682C12.7513 36.5116 11.755 35.56 10.6599 34.7323C10.4505 34.5795 10.1966 34.5003 9.93774 34.5073C9.67885 34.5142 9.42952 34.6068 9.2286 34.7707C9.02768 34.9345 8.88648 35.1604 8.82696 35.4131C8.76744 35.6659 8.79296 35.9313 8.89956 36.1679L8.80567 36.1797Z" fill="#FFD447"/>
<path d="M4.77992 79.0476C4.48653 79.3771 4.19314 79.7066 3.86454 80.0126L4.41612 80.5421C5.54469 79.3321 6.54375 78.007 7.39695 76.5883C7.96026 75.7293 6.98621 74.8938 6.22339 75.0585C5.19066 75.2586 4.41611 76.6118 3.87627 77.412C3.33644 78.2121 2.55015 79.4595 3.08999 80.4597C3.99363 82.1071 7.10357 81.8129 8.6644 82.0953C11.0914 82.5462 13.5543 82.7747 16.0226 82.7779C20.9868 82.719 25.7867 81.3775 30.5278 80.0714C32.7718 79.3558 35.0668 78.8129 37.3932 78.4475C38.3437 78.3298 38.9422 79.0123 39.7403 79.4006C40.8565 79.9479 42.0405 80.3436 43.261 80.5774L43.836 75.3998C41.6845 75.5645 39.5447 75.7999 37.4166 76.1058C35.2187 76.2727 33.0439 76.667 30.9268 77.2825C28.2629 78.271 28.6384 82.6602 31.7483 82.4601C33.8373 82.3189 35.9145 81.707 37.9917 81.3658C40.0689 81.0245 41.97 80.8127 43.9651 80.6244C44.5963 80.5977 45.1972 80.346 45.6598 79.9146C46.1224 79.4831 46.4161 78.9003 46.4882 78.271C46.5621 77.6403 46.4054 77.0042 46.0472 76.4805C45.689 75.9569 45.1535 75.5813 44.5401 75.4233C43.5828 75.2984 42.6517 75.0203 41.7823 74.5996C41.0418 74.1285 40.2554 73.7342 39.4352 73.4229C37.5222 72.9169 35.3864 73.5759 33.5674 74.023C29.6125 74.9879 25.7749 76.3765 21.8317 77.2943C17.8886 78.2122 13.7107 78.1651 9.63846 78.6711C8.64093 78.8005 7.65515 78.9064 6.65762 78.9652H5.84786C5.44885 78.8358 5.29629 78.9652 5.39018 79.2947C5.21414 79.4359 5.27281 79.5772 5.47232 79.3889C5.78512 78.9276 6.04866 78.4346 6.2586 77.918C6.41116 77.6944 6.59894 77.4826 6.73976 77.2472C6.88059 77.0119 7.22092 76.906 6.88058 77.0119L5.70702 75.4822C5.09677 76.6589 2.93742 79.1653 4.04057 80.4715C4.08435 80.5089 4.1357 80.5365 4.19108 80.5521C4.24646 80.5678 4.30456 80.5713 4.36141 80.5624C4.41827 80.5534 4.47253 80.5323 4.52046 80.5003C4.56839 80.4684 4.60886 80.4264 4.6391 80.3773C4.86207 79.989 5.09679 79.636 5.35497 79.2594C5.61315 78.8829 5.14372 78.7534 4.94422 78.9652L4.77992 79.0476Z" fill="#FFD447"/>
<path d="M16.0462 80.6943C17.2582 80.2 18.4346 79.622 19.5669 78.9646L20.1537 78.7175L20.8226 78.4351C21.3859 78.2115 21.9962 77.9997 22.5243 77.7996C23.6274 77.4113 24.754 77.0818 25.8924 76.7994C26.9221 76.4443 28.0079 76.2808 29.0962 76.3169C29.7375 76.2864 30.3416 76.0062 30.7799 75.5359C31.2183 75.0656 31.4563 74.4423 31.4433 73.7988C31.3989 73.1609 31.1151 72.5635 30.6492 72.1269C30.1832 71.6902 29.5697 71.4467 28.9319 71.4453C27.4929 71.4915 26.0689 71.7533 24.7071 72.222C23.5335 72.5632 22.36 72.9751 21.1864 73.3987C20.0128 73.8223 18.6632 74.4577 17.4427 75.0696C16.1665 75.6133 14.9796 76.3473 13.922 77.2466C13.6175 77.5866 13.4308 78.0163 13.3899 78.4715C13.349 78.9267 13.456 79.383 13.6949 79.7722C13.9339 80.1614 14.292 80.4626 14.7158 80.6309C15.1395 80.7993 15.6062 80.8256 16.0462 80.7061V80.6943Z" fill="#FFD447"/>
<path d="M19.1446 75.5165C19.8654 75.2821 20.6088 75.1243 21.3626 75.0458C21.9494 74.9281 22.5362 74.8105 23.1347 74.7163C24.5822 74.5279 26.0454 74.4924 27.5003 74.6104C28.8499 74.7046 30.1878 74.8928 31.5256 75.1164C32.1162 75.2135 32.7002 75.3472 33.2743 75.5165C33.6467 75.6227 33.9756 75.8453 34.2131 76.1519C34.4659 76.393 34.7635 76.5818 35.089 76.7075C35.4145 76.8333 35.7615 76.8935 36.1103 76.8847C36.459 76.876 36.8026 76.7985 37.1214 76.6566C37.4403 76.5147 37.7281 76.3112 37.9685 76.0578C38.2089 75.8044 38.3972 75.5059 38.5226 75.1796C38.648 74.8532 38.7081 74.5052 38.6993 74.1556C38.6906 73.8059 38.6133 73.4613 38.4718 73.1416C38.3303 72.8219 38.1274 72.5333 37.8746 72.2923C35.152 69.9388 31.068 70.1742 27.6881 70.3036C25.9517 70.358 24.2253 70.5906 22.5362 70.9979C21.6634 71.2164 20.823 71.5487 20.0365 71.9863C19.3184 72.4686 18.6431 73.0119 18.0179 73.6102C17.8517 73.799 17.7502 74.0364 17.7285 74.2873C17.7068 74.5383 17.766 74.7897 17.8974 75.0044C18.0287 75.2191 18.2254 75.3859 18.4583 75.4802C18.6913 75.5745 18.9483 75.5913 19.1915 75.5283L19.1446 75.5165Z" fill="#FFD447"/>
<path d="M14.1685 80.3067C14.1685 79.9773 14.2272 79.6595 14.2507 79.33V79.5183L14.3211 79.3536L13.7695 79.9302C13.9293 79.8878 14.079 79.814 14.21 79.7129C14.341 79.6119 14.4505 79.4857 14.5324 79.3418C14.5589 79.298 14.5787 79.2504 14.591 79.2006C14.6732 79.0241 14.7436 78.8476 14.814 78.6593C14.8903 78.3263 14.8903 77.9802 14.814 77.6472L11.9505 78.1062L11.8918 77.7178C11.9449 78.0366 11.9684 78.3597 11.9622 78.6828V79.0476C11.9736 79.2684 12.0295 79.4846 12.1265 79.6831C12.1924 79.8761 12.3101 80.0472 12.4669 80.1773L12.7837 80.4126C13.1027 80.5763 13.4711 80.614 13.8165 80.5186H13.8752C14.0696 80.4665 14.2474 80.3652 14.3915 80.2244C14.5066 80.1581 14.6003 80.0601 14.6614 79.942C14.8009 79.7757 14.8976 79.5777 14.9431 79.3653C15.0133 79.0237 15.0133 78.6714 14.9431 78.3298C14.8881 77.9313 14.8018 77.5378 14.6849 77.153C14.572 76.7885 14.3243 76.4811 13.9925 76.294C13.8151 76.1959 13.62 76.134 13.4186 76.1118C13.2172 76.0896 13.0134 76.1075 12.819 76.1645C12.4516 76.2773 12.1437 76.5311 11.9622 76.8706C11.8645 77.0486 11.8037 77.2447 11.7836 77.4469C11.7634 77.6492 11.7843 77.8534 11.8449 78.0473C11.9066 78.3722 12.0174 78.6857 12.1735 78.977L12.3495 79.2124L12.4317 79.3418C12.6217 79.6203 12.9119 79.8143 13.2414 79.8831L12.6664 79.33L12.7368 79.4948V79.3065C12.7544 79.569 12.7544 79.8324 12.7368 80.0949C12.7394 80.2812 12.8154 80.4588 12.948 80.5892C13.0647 80.6963 13.213 80.7624 13.3705 80.7774C13.5405 80.7995 13.7126 80.7575 13.8535 80.6597C13.9944 80.5619 14.0941 80.4152 14.1333 80.2479L14.1685 80.3067Z" fill="#FFD447"/>
<path d="M10.9997 37.7682C11.2579 37.827 11.5278 38.1329 11.7742 38.2506C12.0207 38.3683 12.6192 38.6154 13.0299 38.7919C13.2881 38.9349 13.5718 39.0254 13.8648 39.0584C14.1579 39.0914 14.4545 39.0662 14.7379 38.9843C15.0212 38.9023 15.2856 38.7652 15.5161 38.5808C15.7466 38.3964 15.9386 38.1682 16.0812 37.9094C16.2238 37.6505 16.3141 37.3661 16.347 37.0722C16.3799 36.7784 16.3548 36.4809 16.273 36.1968C16.1913 35.9127 16.0546 35.6475 15.8706 35.4164C15.6867 35.1853 15.4592 34.9928 15.201 34.8499C14.6729 34.4733 14.1331 34.1203 13.5932 33.7673L11.8212 38.1683C14.5673 39.192 17.4777 40.0745 20.306 40.8747C23.1343 41.6749 25.7631 40.8747 28.6852 40.404C31.6074 39.9333 34.5531 40.6864 37.4048 40.2511C40.0453 39.8627 42.4394 38.5918 44.9391 37.6975C45.2765 37.5843 45.5742 37.3762 45.7969 37.098C46.0195 36.8197 46.1576 36.4831 46.1948 36.1284C46.2319 35.7736 46.1664 35.4156 46.0062 35.0971C45.846 34.7786 45.5978 34.513 45.2911 34.3321C42.6154 32.9553 40.2096 34.2497 37.6043 35.0381C34.999 35.8266 32.1003 35.1911 29.3894 35.4265C26.6785 35.6618 24.1318 36.9915 21.4561 36.2973C18.5809 35.5441 15.8465 34.3203 12.983 33.5319C10.4129 32.8259 8.81685 36.7326 11.2579 37.9447C11.8329 38.2271 12.4314 38.5213 12.9947 38.7919L14.0275 34.5675C12.7164 34.5187 11.4244 34.8941 10.3425 35.6383C10.188 35.8011 10.0788 36.0018 10.026 36.2202C9.97319 36.4387 9.97854 36.6672 10.0415 36.8829C10.1045 37.0986 10.2229 37.2939 10.3849 37.4493C10.5469 37.6047 10.7468 37.7146 10.9645 37.7682H10.9997Z" fill="#FFD447"/>
<path d="M44.2116 33.9076C43.0461 37.3356 42.2936 40.891 41.9701 44.4982C41.5593 48.1225 41.1955 51.7703 41.0782 55.4182C40.8881 62.6784 41.5379 69.9362 43.0145 77.0464C43.5661 79.8823 48.1782 78.5997 47.3567 75.7285C45.4673 69.1035 45.2912 61.8784 45.5025 55.0298C45.6042 51.5703 45.792 48.1146 46.0658 44.6629C46.4751 41.1475 46.538 37.6002 46.2536 34.0724C46.2355 33.8283 46.1328 33.5983 45.9632 33.4223C45.7937 33.2462 45.568 33.1353 45.3253 33.1087C45.0827 33.0822 44.8384 33.1416 44.635 33.2768C44.4315 33.412 44.2817 33.6144 44.2116 33.8488V33.9076Z" fill="#FFD447"/>
<path d="M13.5347 38.0619C13.628 39.5517 14.0276 41.0059 14.7083 42.3334C15.2833 43.7102 15.8818 45.0517 16.5273 46.4049C17.8534 49.2996 19.2969 52.112 20.7169 54.9479C22.1369 57.7838 23.4044 60.3255 24.5897 63.0908C25.1764 64.4558 25.7632 65.8326 26.2092 67.2329C26.4695 67.8779 26.6775 68.5429 26.8312 69.2215C26.8312 69.3863 26.8312 69.6922 26.9016 69.8452C26.972 69.9982 26.9016 70.0923 27.0189 69.7393C27.1363 69.3863 27.1832 69.351 26.9016 69.7393C24.8713 71.8927 27.5705 74.6698 29.9646 73.5283C33.3327 71.928 32.1005 67.6447 31.1381 64.9618C29.8946 61.5393 28.396 58.2155 26.6551 55.0185C24.9652 51.9472 23.2283 48.8878 21.3154 45.9577C20.3648 44.4868 19.4142 43.0159 18.4989 41.5215C17.7221 39.928 16.6691 38.4857 15.3889 37.2617C15.2218 37.1378 15.0248 37.0607 14.8182 37.0381C14.6115 37.0156 14.4026 37.0485 14.2128 37.1335C14.023 37.2185 13.8591 37.3525 13.7379 37.5218C13.6167 37.6911 13.5425 37.8897 13.5229 38.0972L13.5347 38.0619Z" fill="#FFD447"/>
<path d="M17.6893 40.5798C18.4756 41.886 19.168 43.251 19.9543 44.5572C20.7405 45.8634 21.5973 46.9106 22.3718 48.0874C23.9412 50.6012 25.2731 53.2564 26.3502 56.0185C27.4299 58.7132 28.4626 61.4315 29.4718 64.1615C29.9765 65.5265 30.4694 66.8915 30.8449 68.3035C31.2204 69.7156 31.42 71.4925 32.0185 73.0105C32.2059 73.5653 32.5607 74.0479 33.0338 74.3916C33.5069 74.7352 34.0748 74.9229 34.659 74.9285H34.8467L32.9221 73.8812C33.2298 74.3777 33.721 74.7319 34.2883 74.8664C34.8557 75.0009 35.453 74.9048 35.9499 74.599C36.4356 74.2823 36.781 73.7902 36.9143 73.2248C37.0476 72.6595 36.9586 72.0644 36.6658 71.5631L36.3958 74.2343L36.5367 74.0813C36.8591 73.7335 37.0859 73.3078 37.1949 72.8457C37.304 72.3837 37.2915 71.9012 37.1586 71.4454C36.654 69.9863 36.5719 68.4448 36.1611 66.9621C35.7154 65.4781 35.1864 64.0206 34.5768 62.5964C33.4033 59.7017 32.2297 56.7834 30.8332 53.9828C29.4949 51.304 27.9241 48.7485 26.1389 46.3458C25.2353 45.1691 24.273 43.9923 23.2754 42.8156C22.2779 41.6389 20.9283 40.521 19.8956 39.156C19.6994 38.8917 19.4115 38.7107 19.0888 38.6486C18.7661 38.5865 18.4319 38.6479 18.152 38.8207C17.8722 38.9935 17.6671 39.2651 17.5771 39.582C17.4871 39.8989 17.5188 40.2381 17.6658 40.5328L17.6893 40.5798Z" fill="#FFD447"/>
<path d="M19.8955 40.8156C20.4876 41.4856 20.9851 42.2339 21.3742 43.0396C21.738 43.6633 22.2309 44.2163 22.6299 44.84C23.4983 46.1815 24.4372 47.4759 25.2587 48.8527C26.9639 51.8566 28.5036 54.9522 29.8708 58.1253C32.8164 64.6561 35.7386 71.1752 38.6372 77.7531C38.8666 78.4405 39.3488 79.0143 39.9856 79.3576C40.6223 79.7009 41.3656 79.7878 42.064 79.6005C42.7596 79.3859 43.3423 78.9042 43.6852 78.2606C44.0282 77.617 44.1035 76.8635 43.8948 76.1645C41.1017 68.9864 37.7101 62.0438 34.2481 55.1952C32.7203 51.977 30.8724 48.9216 28.7324 46.0756C27.6662 44.6538 26.4372 43.3623 25.0709 42.2277C24.4711 41.7073 23.8227 41.2463 23.1345 40.8509C22.3229 40.4931 21.5384 40.0762 20.7874 39.6036C20.0715 39.1094 19.3205 40.239 19.9072 40.7803L19.8955 40.8156Z" fill="#FFD447"/>
<path d="M43.8477 77.2116C44.2937 73.6814 42.8619 69.963 41.5006 66.7505C39.9867 63.3027 38.9657 59.6313 37.2054 56.3012C35.4361 53.2524 33.2782 50.4478 30.786 47.9582C29.6946 46.7815 28.568 45.6048 27.5822 44.3457C27.1145 43.754 26.6909 43.1287 26.3147 42.4747C25.9763 41.6649 25.5842 40.8787 25.1412 40.1213C24.809 39.6204 24.3254 39.2395 23.7614 39.0345C23.1974 38.8296 22.5827 38.8113 22.0076 38.9825C21.4325 39.1536 20.9273 39.5051 20.5661 39.9854C20.2049 40.4657 20.0069 41.0495 20.001 41.651C19.8954 43.3572 21.0337 45.1811 22.0078 46.5226C23.0217 47.8786 24.1699 49.1284 25.4346 50.2528C28.0138 52.4303 30.3262 54.907 32.3234 57.6309C34.3067 60.5727 35.3864 63.9735 36.912 67.1506C37.6983 68.8098 38.6254 70.3748 39.4469 72.0105C40.2684 73.6461 40.9373 75.5406 41.6766 77.3175C42.0522 78.2236 43.7304 78.4942 43.8829 77.2587L43.8477 77.2116Z" fill="#FFD447"/>
<path d="M23.405 41.2279C23.7453 41.4632 24.0622 42.0869 24.4494 42.4046C24.8367 42.7223 25.3179 43.1459 25.7286 43.5813C26.5596 44.4069 27.3433 45.2791 28.0758 46.1937C29.7017 48.3429 31.124 50.6396 32.324 53.054C34.918 57.8262 37.2072 62.7587 39.1777 67.8219L44.5995 65.3625L44.4118 65.1036C42.804 62.8443 38.9664 63.6798 39.0486 66.704V67.0217C39.0529 67.455 39.1504 67.8822 39.3345 68.2742C39.5185 68.6663 39.7847 69.0139 40.1149 69.2933C40.4452 69.5728 40.8316 69.7776 41.248 69.8937C41.6643 70.0097 42.1007 70.0344 42.5274 69.9659C42.9541 69.8975 43.361 69.7375 43.7205 69.497C44.0799 69.2565 44.3834 68.941 44.6101 68.5722C44.8369 68.2033 44.9816 67.7898 45.0345 67.3598C45.0873 66.9297 45.0471 66.4933 44.9164 66.0803C44.0443 63.1132 42.8643 60.2459 41.3957 57.5255C40.0344 54.8073 38.673 52.0891 37.0652 49.512C35.5689 46.9996 33.7235 44.7134 31.5847 42.7223C30.5773 41.8213 29.4755 41.0322 28.2987 40.3689C27.6748 40.009 27.0279 39.6906 26.3623 39.4158C25.6601 39.24 24.9464 39.1142 24.2265 39.0392C22.8182 38.6509 22.2666 40.5454 23.3463 41.2867L23.405 41.2279Z" fill="#FFD447"/>
<path d="M41.1607 63.8566C44.6813 59.4438 43.2848 53.266 40.3509 48.9475C38.852 46.8292 37.1067 44.8975 35.152 43.1933C33.2123 41.6937 31.4936 39.9269 30.047 37.9451L26.7963 42.4166C31.3659 43.3875 35.3996 46.0572 38.0859 49.8888C38.4009 50.3832 38.853 50.7746 39.3867 51.015C39.9204 51.2554 40.5125 51.3343 41.0903 51.2421C41.6647 51.1552 42.2007 50.8999 42.6309 50.5084C43.061 50.1169 43.3661 49.6065 43.5078 49.0416C43.9881 46.7785 43.7294 44.4205 42.7699 42.3162C41.8104 40.2119 40.2011 38.473 38.1798 37.3567C34.8704 35.6269 32.312 40.4044 35.4102 42.3931C38.5084 44.3818 41.8413 43.0638 44.6931 41.4988L40.6443 37.6391C39.4692 39.5477 38.9921 41.8064 39.2947 44.0287C39.3337 44.7957 39.6646 45.5185 40.2191 46.0482C40.7736 46.578 41.5096 46.8744 42.2755 46.8764C43.0455 46.8518 43.7748 46.5246 44.3062 45.9654C44.8376 45.4061 45.1283 44.6598 45.1156 43.8875C44.8683 42.7052 45.078 41.4729 45.7023 40.4397C47.2397 37.8392 44.0711 35.215 41.6536 36.5683C40.5856 37.1684 39.3064 38.0863 38.1329 37.3567L35.3633 42.3931C36.3083 42.8672 37.0623 43.6523 37.4992 44.6171C37.4992 44.6877 37.6869 45.1584 37.7456 45.3702C37.8043 45.582 37.8278 45.6879 37.863 45.8527C37.863 45.6879 37.863 45.7115 37.863 45.8527C37.9483 46.4224 37.8752 47.0046 37.6517 47.5354L43.0853 46.6881C41.4175 44.0933 39.2437 41.8633 36.6946 40.1324C34.1454 38.4014 31.2735 37.2051 28.2515 36.6154C27.6184 36.4759 26.9574 36.5455 26.367 36.8137C25.7766 37.0819 25.2886 37.5343 24.9757 38.1035C24.6629 38.6727 24.542 39.328 24.6311 39.9718C24.7202 40.6155 25.0145 41.2131 25.4702 41.6753C28.5566 44.9936 32.5115 47.453 35.3985 50.889C38.2623 54.3019 39.6817 58.7024 39.3534 63.1505C39.3638 63.3571 39.4336 63.5563 39.5545 63.724C39.6753 63.8916 39.842 64.0206 40.0344 64.0953C40.2269 64.17 40.4367 64.1871 40.6387 64.1448C40.8406 64.1024 41.026 64.0023 41.1724 63.8566H41.1607Z" fill="#FFD447"/>
<path d="M93.7478 34.7908C92.646 35.6329 91.6492 36.6048 90.7787 37.6855C89.9455 38.8622 89.1358 39.9801 88.4316 41.2157C87.0233 43.4868 85.8263 45.9226 84.6058 48.276C83.1858 51.0531 81.8949 53.9008 80.5453 56.7131C79.2692 59.1463 78.1291 61.6488 77.1302 64.2089C76.3792 66.3623 76.3557 68.9158 78.0222 70.6691C79.0418 71.6099 80.3687 72.1455 81.7541 72.1753C82.5651 72.1182 83.3682 72.3657 84.0073 72.8696C84.8053 73.5403 85.4508 74.364 86.2253 75.0701C87.2733 76.0024 88.3915 76.8521 89.57 77.6118C91.8143 78.9988 94.138 80.2522 96.5292 81.3655C97.089 81.6592 97.7288 81.7622 98.3522 81.659C98.9755 81.5558 99.5484 81.2521 99.9844 80.7937C100.42 80.3352 100.696 79.747 100.769 79.1178C100.842 78.4886 100.709 77.8526 100.39 77.3058C98.7629 74.3423 96.5016 71.7767 93.7685 69.7931C91.0354 67.8094 87.8983 66.457 84.5823 65.8328C83.8069 65.6559 82.9932 65.786 82.311 66.196C81.6289 66.6059 81.1309 67.2641 80.9209 68.0333C80.7322 68.8147 80.8579 69.6392 81.2707 70.3285C81.6836 71.0177 82.3505 71.5163 83.1271 71.7164C85.7228 72.0314 88.2005 72.9848 90.3401 74.4916C92.4796 75.9985 94.2146 78.0121 95.3908 80.3535L99.2518 76.2939C97.2216 75.1995 95.1913 74.1169 93.208 72.9284C91.4163 71.7847 89.7313 70.4811 88.1734 69.0335C87.3736 68.2126 86.4048 67.5768 85.3346 67.1703C84.2643 66.7638 83.1185 66.5965 81.977 66.68H81.5546C81.2964 66.5506 81.4137 66.68 81.9066 66.9742C81.9066 66.9742 81.848 66.7624 81.9066 66.6094C82.254 65.778 82.5595 64.9297 82.822 64.0677C84.9696 59.2313 87.3754 54.5127 89.4526 49.641C90.4149 47.3582 91.4359 45.0989 92.4569 42.8396C92.9616 41.6629 93.5366 40.6155 94.0764 39.5094C94.6163 38.4033 94.9918 37.2266 95.5082 36.1087C95.6063 35.8664 95.6211 35.5982 95.5503 35.3465C95.4795 35.0948 95.3271 34.874 95.1172 34.7188C94.9073 34.5636 94.6518 34.483 94.391 34.4896C94.1303 34.4963 93.8792 34.5898 93.6774 34.7554L93.7478 34.7908Z" fill="#FFD447"/>
<path d="M99.1813 79.3661C99.4277 79.7426 99.6742 80.1074 99.8971 80.5428C99.9335 80.5871 99.9791 80.6229 100.031 80.6474C100.083 80.6719 100.139 80.6846 100.196 80.6846C100.254 80.6846 100.31 80.6719 100.362 80.6474C100.414 80.6229 100.459 80.5871 100.496 80.5428C101.587 79.2601 99.3925 76.6949 98.794 75.5181L97.6204 77.1185C97.3857 77.0361 98.0546 77.801 98.2189 78.0599C98.3832 78.3188 98.6884 78.9895 98.9583 79.4249C99.3573 80.0721 99.0404 79.1307 98.9583 79.0719C98.471 79.0205 97.9801 79.0126 97.4913 79.0483C96.4704 78.9777 95.4728 78.8483 94.4636 78.7306C90.3796 78.2599 86.2486 78.2599 82.2703 77.3068C78.2919 76.3536 74.6539 75.0357 70.7811 74.0943C68.9856 73.6589 66.9319 73.0235 65.0777 73.4942C64.1737 73.818 63.3079 74.2402 62.4958 74.7533C61.6147 75.1491 60.6823 75.4184 59.7262 75.5534C59.1189 75.7344 58.5992 76.133 58.2659 76.6733C57.9327 77.2135 57.8092 77.8578 57.9189 78.4835C58.0268 79.1038 58.3497 79.6659 58.8307 80.0707C59.3117 80.4754 59.9198 80.6968 60.5477 80.6958C62.5428 80.8958 64.5378 81.1547 66.5211 81.4842C68.5834 81.938 70.6671 82.2875 72.7644 82.5315C73.3995 82.5171 74.0071 82.2695 74.4722 81.8357C74.9373 81.4019 75.2274 80.812 75.2876 80.178C75.3462 79.5482 75.182 78.9178 74.8237 78.3971C74.4654 77.8765 73.9358 77.4989 73.3278 77.3303C71.2627 76.7149 69.1385 76.3204 66.9905 76.1536C64.8077 75.8633 62.6171 75.628 60.4186 75.4475L61.2401 80.6016C62.4615 80.3715 63.646 79.9756 64.7608 79.4249C65.641 79.0013 66.1456 78.4482 66.8967 78.5188C69.2259 78.858 71.5224 79.3934 73.762 80.1192C78.597 81.4489 83.4556 82.8139 88.5136 82.861C90.9745 82.8435 93.4291 82.6072 95.8484 82.1549C97.3857 81.9078 100.449 82.1549 101.341 80.5428C101.892 79.5308 101.059 78.2717 100.519 77.448C99.9793 76.6243 99.2165 75.3416 98.172 75.0945C97.9668 75.0475 97.7524 75.0616 97.5551 75.1351C97.3578 75.2087 97.1862 75.3385 97.0615 75.5086C96.9368 75.6786 96.8644 75.8815 96.8532 76.0923C96.842 76.303 96.8925 76.5125 96.9985 76.6949C97.851 78.0964 98.8459 79.4057 99.9675 80.6016L100.496 80.0486C100.167 79.7426 99.8737 79.4249 99.5803 79.0954C99.5398 79.0439 99.4806 79.0106 99.4157 79.0029C99.3508 78.9952 99.2854 79.0137 99.2341 79.0542C99.1827 79.0948 99.1495 79.1542 99.1418 79.2193C99.1341 79.2844 99.1526 79.3499 99.193 79.4014L99.1813 79.3661Z" fill="#FFD447"/>
<path d="M90.3679 77.1761C89.2904 76.2808 88.0835 75.5547 86.7886 75.0227C85.615 74.4343 84.4414 73.9166 83.1857 73.4341C81.968 72.9474 80.7263 72.5232 79.4655 72.1632C78.1009 71.6947 76.6712 71.4445 75.229 71.4219C74.5785 71.4375 73.9608 71.7116 73.5118 72.1838C73.0628 72.6561 72.8194 73.2878 72.8349 73.9401C72.8505 74.5924 73.1238 75.2117 73.5948 75.6619C74.0658 76.1121 74.6958 76.3562 75.3464 76.3406C75.4402 76.3406 76.3673 76.3406 75.9214 76.3406C76.2452 76.3813 76.5665 76.4402 76.8837 76.5171C77.447 76.623 77.9986 76.7525 78.5502 76.8937C79.7237 77.1761 80.8034 77.5056 81.9066 77.8939C82.9105 78.2282 83.894 78.6211 84.8522 79.0706C85.9849 79.7205 87.1613 80.2906 88.3729 80.7769C90.4501 81.3888 91.7527 78.6352 90.3327 77.2467L90.3679 77.1761Z" fill="#FFD447"/>
<path d="M86.577 73.728C85.9406 73.1235 85.2622 72.5651 84.5467 72.0571C83.8091 71.6268 83.0206 71.2907 82.1996 71.0569C80.4242 70.5911 78.6007 70.3344 76.766 70.292C73.2453 70.1391 69.2435 69.9861 66.4387 72.3631C66.1983 72.6165 66.01 72.9149 65.8846 73.2413C65.7592 73.5677 65.6991 73.9156 65.7079 74.2653C65.7255 74.9714 66.0221 75.6417 66.5326 76.1285C67.043 76.6154 67.7255 76.8789 68.4297 76.8613C69.134 76.8436 69.8024 76.5462 70.288 76.0344C70.3925 75.912 70.5062 75.7979 70.6283 75.6931C70.4288 75.8579 70.4523 75.8579 70.6987 75.6931C70.9452 75.5284 70.9921 75.5402 70.7691 75.6931L71.2503 75.5166C71.8192 75.3456 72.3997 75.2159 72.9872 75.1283H73.1867L73.7734 75.046L74.947 74.893C75.6394 74.8106 76.3201 74.74 77.0125 74.6929C78.3924 74.5732 79.7811 74.6008 81.1552 74.7753C81.8123 74.8812 82.4695 75.0224 83.1267 75.1401C83.8705 75.2156 84.603 75.3776 85.3095 75.6225C86.3892 76.1167 87.6567 74.6694 86.624 73.8222L86.577 73.728Z" fill="#FFD447"/>
<path d="M91.5528 80.1301C91.5352 79.8676 91.5352 79.6042 91.5528 79.3417L91.4589 79.7183L91.5293 79.5653L91.0482 79.9419C91.1908 79.9211 91.3271 79.8689 91.4472 79.7889C91.6178 79.685 91.7592 79.5392 91.8579 79.3653L91.9284 79.2594C91.9791 79.1716 92.0381 79.0889 92.1044 79.0123L91.8931 79.2947C92.0734 79.0914 92.2058 78.8501 92.2804 78.5886C92.2857 78.5299 92.2857 78.4708 92.2804 78.4121L92.386 78.0591C92.4372 77.8612 92.4481 77.6549 92.4178 77.4527C92.3876 77.2505 92.3169 77.0565 92.21 76.8824C92.0091 76.5552 91.6893 76.3189 91.3181 76.2235C91.1207 76.1721 90.915 76.1613 90.7134 76.1916C90.5117 76.2219 90.3182 76.2928 90.1446 76.4L89.8512 76.6353C89.6778 76.8199 89.5564 77.0473 89.4991 77.2943C89.3407 77.8648 89.2656 78.4554 89.2761 79.0476C89.2735 79.3323 89.3473 79.6125 89.4898 79.8589C89.6322 80.1052 89.8381 80.3086 90.0859 80.4478L90.5084 80.6243C90.8 80.6941 91.1067 80.6609 91.3768 80.5302L91.5998 80.4361L91.2594 80.589C91.5209 80.5059 91.7585 80.3605 91.9518 80.1654C92.2426 79.8433 92.4018 79.4232 92.3978 78.9887V78.6593C92.3802 78.4321 92.3802 78.2039 92.3978 77.9767V78.3768C92.3913 78.2553 92.3913 78.1335 92.3978 78.012L89.5578 77.2943C89.5578 77.5296 89.4874 77.7649 89.4639 78.0003C89.4112 78.2128 89.4112 78.435 89.4639 78.6475C89.4939 78.7435 89.5292 78.8377 89.5695 78.9299L89.6399 79.0946C89.6997 79.2854 89.8044 79.4589 89.9451 79.6006C90.0565 79.7051 90.1884 79.7852 90.3323 79.836L89.9568 79.3653C89.9568 79.3653 89.9568 79.4712 89.9568 79.53V79.33C89.9568 79.6006 89.9568 79.8595 89.9568 80.1184C89.9688 80.3082 90.0478 80.4876 90.1798 80.6243C90.3178 80.7495 90.4984 80.8169 90.6844 80.8126C90.7779 80.8111 90.8701 80.7909 90.9557 80.7533C91.0414 80.7157 91.1187 80.6613 91.1831 80.5934C91.2476 80.5255 91.2979 80.4454 91.3312 80.3577C91.3644 80.2701 91.3799 80.1768 91.3768 80.0831L91.5528 80.1301Z" fill="#FFD447"/>
<path d="M93.9706 35.6034C92.9496 34.6856 91.5179 34.7209 90.2152 34.5797L90.9194 38.9924C91.6939 38.6394 92.445 38.2746 93.2078 37.8981C95.684 36.7213 93.7829 32.8852 91.2597 33.5795C88.408 34.3679 85.6736 35.6152 82.7983 36.3448C80.1578 37.0155 77.4939 35.6623 74.8533 35.4505C72.2128 35.2387 69.2907 35.827 66.6384 35.0151C63.9862 34.2031 61.7095 33.0146 58.9985 34.3914C57.4612 35.1798 58.177 37.2626 59.5266 37.7451C61.9794 38.6041 64.35 39.9338 66.9553 40.2868C69.854 40.6751 72.8231 40.0044 75.6748 40.428C78.5266 40.8516 81.1671 41.7224 84.1831 40.8634C86.9997 40.0632 89.9218 39.1807 92.668 38.1569L90.7316 33.8383C90.1918 34.1914 89.6402 34.5444 89.1121 34.9209C87.1757 36.2977 88.4549 40.0397 90.9428 38.9924C91.4709 38.7688 92.0342 38.5688 92.5389 38.3099C92.8431 38.108 93.1607 37.9272 93.4895 37.7686C93.7025 37.7007 93.8942 37.5784 94.0459 37.4138C94.1977 37.2492 94.3042 37.048 94.355 36.8298C94.4059 36.6115 94.3994 36.3837 94.3361 36.1688C94.2728 35.9538 94.155 35.759 93.9941 35.6034H93.9706Z" fill="#FFD447"/>
<path d="M58.3533 33.5078C58.0662 36.9513 58.1015 40.4143 58.4589 43.8512C58.7171 47.3814 58.9518 50.9116 59.0692 54.5123C59.2922 61.455 59.0692 68.7625 57.1797 75.4934C56.3817 78.3175 61.0173 79.4589 61.5924 76.5877C63.0398 69.474 63.6659 62.2168 63.4583 54.9595C63.341 51.4293 63.0006 47.8991 62.5899 44.369C62.2697 40.6737 61.5052 37.0308 60.3132 33.5196C59.9963 32.6723 58.4472 32.4487 58.3181 33.5196L58.3533 33.5078Z" fill="#FFD447"/>
<path d="M89.1473 37.109C87.9479 38.1874 86.9539 39.4753 86.2134 40.9098C85.2393 42.4749 84.2653 44.0399 83.256 45.6167C81.2962 48.6291 79.4889 51.7475 77.7637 54.9011C76.0668 58.0231 74.596 61.2636 73.3629 64.5973C72.3067 67.4214 70.8632 71.8812 74.466 73.5992C74.9884 73.8702 75.5901 73.9449 76.1626 73.81C76.7351 73.675 77.2406 73.3392 77.5878 72.8632C77.935 72.3872 78.1009 71.8024 78.0557 71.2145C78.0105 70.6265 77.7571 70.0742 77.3413 69.6572C77.2356 69.5513 77.4352 69.9396 77.4352 69.9396C77.4412 69.734 77.4648 69.5293 77.5056 69.3277C77.6381 68.6695 77.8265 68.0239 78.0689 67.3979C78.5383 66.0446 79.0664 64.7267 79.6297 63.4088C80.8854 60.5258 82.2702 57.6899 83.6785 54.8775C85.0868 52.0651 86.4716 49.4058 87.7507 46.6404C88.3727 45.2872 89.0064 43.9222 89.5815 42.5455C90.3037 41.1629 90.7275 39.6433 90.8255 38.0857C90.8015 37.9005 90.7339 37.7237 90.6283 37.5699C90.5226 37.4161 90.382 37.2897 90.2181 37.2012C90.0541 37.1127 89.8715 37.0645 89.6853 37.0608C89.4991 37.057 89.3147 37.0978 89.1473 37.1796V37.109Z" fill="#FFD447"/>
<path d="M84.5825 39.0393C83.5042 40.3477 82.3564 41.5968 81.144 42.7813C80.0705 43.9791 79.0599 45.2321 78.1162 46.5351C76.1577 49.2411 74.449 52.1202 73.0112 55.1369C71.5559 58.114 70.3354 61.2559 69.1501 64.3507C68.5343 65.8689 68.0742 67.446 67.777 69.0576C67.4367 71.0462 66.6035 72.7054 68.0587 74.4234L67.648 71.764C66.4744 74.3411 70.3237 76.4709 71.509 73.8939L69.643 75.0706H69.866C70.4474 75.0386 71.0044 74.8252 71.4589 74.4601C71.9134 74.0951 72.2427 73.5969 72.4009 73.0349C72.929 71.5875 73.0816 70.0578 73.4688 68.5633C73.8561 67.0689 74.3138 65.7863 74.8184 64.4213C75.8394 61.656 76.8839 58.8789 77.9988 56.1842C79.0637 53.4861 80.3636 50.8873 81.8833 48.4178C82.6461 47.2411 83.538 46.0644 84.3008 44.8876C85.0637 43.7109 85.8734 42.0753 86.648 40.7103C87.4225 39.3453 85.4744 37.9567 84.559 39.1687L84.5825 39.0393Z" fill="#FFD447"/>
<path d="M83.5495 39.6384C82.1764 40.5798 80.6978 41.1211 79.3834 42.1684C78.0257 43.2785 76.8045 44.5465 75.7453 45.9457C73.5383 48.8867 71.6278 52.0401 70.0418 55.3594C66.5211 62.2315 63.2234 69.1624 60.4303 76.3405C59.2568 79.2234 64.2679 81.2003 65.5001 78.3409C68.3988 71.6571 71.3679 65.0203 74.4075 58.3366C75.7923 55.2535 77.2123 52.1588 78.8905 49.2287C79.7354 47.7578 80.7212 46.3928 81.6483 44.969C82.0473 44.3453 82.5168 43.7923 82.9158 43.1333C83.3364 42.284 83.865 41.493 84.4883 40.7799C84.6072 40.6449 84.6747 40.4722 84.6791 40.2922C84.6834 40.1122 84.6243 39.9365 84.5121 39.7959C84.4 39.6553 84.2419 39.5588 84.0658 39.5236C83.8898 39.4883 83.7069 39.5165 83.5495 39.6031V39.6384Z" fill="#FFD447"/>
<path d="M62.6249 77.5056C63.3407 75.7876 63.951 74.0343 64.7608 72.3634C65.5705 70.6924 66.439 69.3039 67.2018 67.7388C68.8213 64.4087 69.9479 60.8079 72.0016 57.7013C73.9747 54.9507 76.2852 52.46 78.8787 50.2879C81.2258 48.1934 84.6174 44.8868 84.3827 41.486C84.2418 39.3208 81.1671 37.5911 79.6063 39.6386C78.6087 40.9447 78.1745 42.5568 77.177 43.8865C76.1795 45.2162 75.0998 46.3459 74.0084 47.5344C71.4702 50.0786 69.2406 52.9145 67.3661 55.9833C65.5823 59.1722 64.6317 62.773 63.1764 66.1149C61.7212 69.4568 60.0196 73.3282 60.4773 76.9761C60.6064 77.9646 62.1437 78.6706 62.6249 77.5056Z" fill="#FFD447"/>
<path d="M80.0169 39.0384C79.3039 39.1077 78.5975 39.2337 77.9044 39.415C77.2942 39.6739 76.7309 39.9798 76.0972 40.2975C74.9104 40.9566 73.8004 41.7459 72.7877 42.651C70.5831 44.6838 68.689 47.0311 67.1663 49.6172C65.6055 52.1236 64.2676 54.7713 62.9415 57.4189C61.4566 60.2096 60.2762 63.1527 59.4208 66.1973C59.3025 66.6164 59.2765 67.0563 59.3448 67.4865C59.4131 67.9167 59.5741 68.3268 59.8164 68.6883C60.0587 69.0499 60.3766 69.3542 60.748 69.5801C61.1194 69.8061 61.5354 69.9482 61.9671 69.9967C62.3989 70.0452 62.8359 69.9988 63.248 69.8609C63.6601 69.7229 64.0372 69.4967 64.3533 69.1978C64.6693 68.899 64.9167 68.5347 65.0783 68.1304C65.2398 67.726 65.3116 67.2913 65.2886 66.8563V66.5385C65.2678 65.905 65.0427 65.2953 64.647 64.8009C64.2513 64.3066 63.7064 63.9543 63.0941 63.7968C62.473 63.6637 61.8261 63.7282 61.2434 63.9813C60.6606 64.2344 60.1712 64.6635 59.8433 65.2088L59.6555 65.4795L65.1947 67.6564C67.1609 62.6868 69.4342 57.845 72.0014 53.1592C73.1002 50.9404 74.3839 48.8186 75.839 46.8166C76.5807 45.8256 77.3884 44.886 78.2565 44.0042C78.688 43.542 79.1465 43.1058 79.6296 42.698C79.8526 42.5098 80.099 42.3451 80.2985 42.145C80.498 41.945 80.7562 41.4272 81.0026 41.2625C81.2937 41.1314 81.5208 40.8897 81.6342 40.5907C81.7475 40.2917 81.7378 39.9598 81.607 39.668C81.4763 39.3762 81.2353 39.1484 80.9371 39.0347C80.6389 38.9211 80.3079 38.9309 80.0169 39.062V39.0384Z" fill="#FFD447"/>
<path d="M65.0074 63.1147C64.6848 58.637 66.1401 54.2128 69.0562 50.8062C72.0253 47.3819 75.898 44.9226 78.9845 41.5807C79.4292 41.0963 79.7069 40.4814 79.7767 39.8268C79.8464 39.1721 79.7044 38.5123 79.3718 37.9447C79.0079 37.4026 78.4846 36.9877 77.8746 36.7578C77.2646 36.5279 76.5983 36.4944 75.9685 36.662C72.9291 37.265 70.0441 38.4827 67.4896 40.2408C64.9352 41.9989 62.7649 44.2606 61.1112 46.8877L66.58 47.4643C66.3307 46.4538 66.4418 45.3877 66.8941 44.4507C67.3463 43.5137 68.1112 42.7648 69.0562 42.3338L66.0402 37.4387C65.0192 38.1094 63.5522 37.0739 62.5195 36.5091C61.9632 36.2559 61.3416 36.1846 60.7427 36.3053C60.1438 36.426 59.598 36.7327 59.1826 37.1818C58.7672 37.6309 58.5032 38.1996 58.4281 38.8075C58.353 39.4154 58.4705 40.0316 58.7641 40.5687C59.2709 41.3697 59.4865 42.3215 59.3744 43.2634C59.2082 44.0112 59.3347 44.7944 59.7278 45.4513C60.1209 46.1082 60.7505 46.5887 61.4868 46.7936C62.2349 46.9721 63.023 46.8489 63.6815 46.4505C64.3399 46.0522 64.8161 45.4106 65.0074 44.6637C65.4324 42.199 64.9575 39.6632 63.6696 37.521L59.8086 41.5807C62.7073 43.1693 66.0754 44.2754 69.1031 42.3221C69.7505 41.921 70.2125 41.2786 70.3875 40.536C70.5625 39.7934 70.4361 39.0115 70.0361 38.3624C69.6362 37.7132 68.9954 37.25 68.2548 37.0746C67.5142 36.8991 66.7345 37.0259 66.0871 37.4269C61.8036 39.6627 60.055 44.6167 60.9117 49.1941C61.3107 51.2887 64.6436 52.1241 65.9345 50.3708C69.021 46.217 72.6356 43.4164 77.7405 42.3691L74.2199 38.0623C72.8105 39.9814 71.1395 41.6925 69.2557 43.1457C67.3045 44.8448 65.5595 46.7682 64.0568 48.8764C61.1464 53.0773 59.5621 59.3374 63.0476 63.6795C63.6578 64.4209 65.0661 64.2444 65.0074 63.0912V63.1147Z" fill="#FFD447"/>
<path d="M60.171 34.977C60.2516 34.977 60.2401 34.8613 60.171 34.8613C60.1019 34.8613 60.1019 34.977 60.171 34.977Z" fill="#2E2221"/>
<path d="M58.3766 31.8612C60.3651 34.2783 63.1194 35.9395 66.1808 36.568C69.466 37.2714 72.8095 37.6653 76.1678 37.7447C83.0984 38.1869 90.0406 37.0817 96.4938 34.5088C98.3715 33.7086 97.4327 30.5903 95.5667 31.4376C89.6222 33.9083 83.2217 35.0836 76.7898 34.8853C73.7501 34.9036 70.7147 34.6555 67.7181 34.144C64.5734 33.6438 61.5026 32.7544 58.5761 31.4964C58.537 31.4772 58.4925 31.4722 58.4502 31.4822C58.4078 31.4923 58.3703 31.5168 58.3439 31.5515C58.3176 31.5863 58.3041 31.6291 58.3058 31.6727C58.3075 31.7163 58.3242 31.758 58.3531 31.7906L58.3766 31.8612Z" fill="#2E2221"/>
<path d="M46.4531 31.5656C43.6498 32.766 40.7152 33.631 37.7101 34.1427C34.6435 34.7005 31.532 34.9724 28.4155 34.9546C22.0465 35.188 15.7012 34.0567 9.80282 31.6362C7.91338 30.789 6.36429 33.6367 8.25373 34.4486C14.7411 37.0874 21.7307 38.2528 28.7206 37.8612C32.0001 37.7647 35.2642 37.3709 38.4729 36.6844C41.6932 36.1063 44.6043 34.4007 46.6878 31.8716C46.7252 31.8419 46.7492 31.7986 46.7547 31.7512C46.7602 31.7037 46.7467 31.656 46.7171 31.6186C46.6876 31.5811 46.6444 31.557 46.597 31.5515C46.5497 31.546 46.5022 31.5595 46.4648 31.5892L46.4531 31.5656Z" fill="#2E2221"/>
<path d="M0.613963 79.8712C0.445137 79.9631 0.30137 80.095 0.195277 80.2556C0.0891838 80.4161 0.024017 80.6003 0.00547927 80.792C-0.0130585 80.9837 0.0156076 81.177 0.0889623 81.355C0.162317 81.533 0.278104 81.6902 0.426189 81.8128C1.04488 82.3709 1.80362 82.7492 2.62076 82.9072C5.72347 83.595 8.89034 83.95 12.0679 83.9663C20.6701 84.2369 29.3076 83.8015 37.8863 83.5073C40.8789 83.4132 44.2 83.6721 46.911 82.1541C47.1364 82.0032 47.3141 81.7907 47.423 81.5418C47.5319 81.2929 47.5674 81.018 47.5255 80.7494C47.4835 80.4809 47.3658 80.2301 47.1862 80.0265C47.0066 79.8229 46.7726 79.6751 46.512 79.6006C44.2676 79.0711 41.9386 79.011 39.6701 79.4241C35.9264 79.8006 32.1593 80.0242 28.3922 80.2478C20.811 80.7067 13.1359 81.1421 5.48425 80.8832C4.37523 80.8607 3.26924 80.7584 2.1748 80.5773L1.62323 80.4596C1.69364 80.4596 1.38852 80.3537 1.55282 80.4596C1.43546 80.389 1.55282 80.4596 1.55282 80.5184C1.55282 80.5773 1.49413 80.389 1.36504 80.2242C1.01297 79.8006 1.52935 80.742 1.55282 80.6126C1.57801 80.4849 1.56631 80.3528 1.51908 80.2316C1.47185 80.1104 1.39106 80.0053 1.28623 79.9286C1.1814 79.852 1.05689 79.8069 0.927392 79.7988C0.797891 79.7908 0.668783 79.8199 0.555282 79.883L0.613963 79.8712Z" fill="#2E2221"/>
<path d="M102.373 81.0119C102.373 80.8472 102.584 80.8354 102.69 80.4823C102.69 80.6589 102.009 81.1413 102.444 80.7765C102.537 80.7059 102.444 80.8589 102.35 80.7765C102.491 80.7765 102.174 80.7765 102.033 80.8589C101.141 81.0189 100.239 81.1172 99.3337 81.1531C96.0477 81.3531 92.7382 81.1531 89.4523 81.1531C81.4251 81.0237 73.3276 80.6706 65.3356 79.8822C62.7068 79.6116 59.949 79.1409 57.3789 79.9646C57.1198 80.0499 56.8908 80.2082 56.7191 80.4206C56.5473 80.633 56.4403 80.8904 56.4106 81.1622C56.3809 81.434 56.4298 81.7085 56.5516 81.9532C56.6733 82.1978 56.8627 82.4021 57.0972 82.5416C59.4443 83.8125 62.1904 83.7184 64.7371 83.8243C68.8445 83.9184 72.952 84.1185 77.0477 84.2126C84.8167 84.3891 92.8556 84.8833 100.519 83.4124C101.578 83.2924 102.584 82.8856 103.429 82.2357C103.697 82.009 103.879 81.6977 103.946 81.3531C103.999 81.1148 103.966 80.8653 103.852 80.6495C103.738 80.4337 103.55 80.2659 103.324 80.1764C102.784 79.8469 102.256 80.4235 102.361 80.953L102.373 81.0119Z" fill="#2E2221"/>
<path d="M84.1482 60.3611C83.4792 61.9967 82.822 63.6324 82.2235 65.3034C81.4138 67.6568 85.1691 69.0924 86.2253 66.8802C89.2062 60.6553 91.6119 54.1009 94.1703 47.6877C96.0714 42.9181 97.9296 38.1327 99.7447 33.3317C98.4276 32.5389 96.9366 32.0823 95.4025 32.002C91.8114 41.5334 88.0209 50.9708 84.1482 60.3611Z" fill="#2E2221"/>
<path d="M22.2664 65.2323C20.0014 58.7721 17.1379 52.4884 14.5796 46.1341C12.9718 42.1332 11.3992 38.0735 9.88535 33.9902C8.55466 34.7454 7.09314 35.2405 5.57837 35.4494C8.98169 44.3454 12.5376 53.1826 16.1404 61.9846C16.8445 63.679 17.5604 65.35 18.3467 67.0092C19.4146 69.2214 23.0761 67.5387 22.2664 65.2323Z" fill="#2E2221"/>
<path d="M58.0595 17.8575C59.8683 38.4486 60.3465 59.1355 59.4913 79.7885V79.8944C59.4913 80.3298 59.4913 80.7652 59.4913 81.1889L59.3974 82.8363L58.0009 82.7774C57.8011 82.7805 57.6027 82.7436 57.4173 82.6688C57.2319 82.594 57.0632 82.4829 56.9212 82.342C56.6277 82.0653 56.4512 81.6863 56.4283 81.283C56.6395 75.3405 56.7921 69.398 56.8508 63.4438C56.9759 52.9239 56.796 42.4157 56.3109 31.9193C56.0645 26.73 55.6889 21.5288 55.5012 16.3395C55.3134 11.1501 55.1491 5.74895 54.8674 0.453683C54.8674 0.00652743 55.5951 -0.12292 55.6655 0.336003C56.5222 6.09019 57.5901 11.9738 58.0595 17.8575Z" fill="#2E2221"/>
<path d="M48.8121 18.0928C47.4977 39.0974 47.263 60.0902 47.9671 81.1182C47.9733 81.3197 47.9391 81.5204 47.8665 81.7084C47.794 81.8964 47.6845 82.0678 47.5446 82.2126C47.2659 82.5031 46.8894 82.6792 46.4884 82.7068L45.0449 82.7657L44.8689 79.7297C44.6185 74.2854 44.4973 68.8411 44.5051 63.3968C44.4582 52.8768 44.7203 42.3687 45.2914 31.8723C45.573 26.5535 45.8782 21.1876 46.465 15.963C47.0517 10.7383 47.8967 5.5136 48.7299 0.30071C48.8003 -0.158213 49.5397 -0.0640544 49.5397 0.394869C49.2463 6.25496 49.1876 12.1974 48.8121 18.0928Z" fill="#2E2221"/>
</svg>
