<svg width="121" height="80" viewBox="0 0 121 80" fill="none" xmlns="http://www.w3.org/2000/svg">
<path d="M80.8001 66.4369C83.0561 68.1787 86.4401 67.3983 89.0909 67.0251C92.9599 66.4483 96.8289 65.6679 100.653 64.8535L97.2688 61.664C97.1109 62.4444 96.9417 63.2135 96.7725 63.9939L101.657 62.5688C96.5243 56.71 86.2371 56.3481 79.8752 60.171C76.1189 62.4331 78.0027 68.3371 82.2778 68.2692C85.9099 68.2014 89.5308 68.1222 93.1629 68.2692C96.2649 68.405 99.0511 68.8348 101.341 66.3691C104.251 63.2587 101.747 58.8477 97.9005 58.5875C94.9377 58.3764 91.9673 58.2407 88.9894 58.1804C82.5824 58.0447 82.8192 68.5746 89.2262 68.1674C92.1929 67.9639 95.1595 67.8508 98.1261 67.8055L94.7421 60.0127C95.7348 58.7459 93.9074 59.4585 93.005 59.5037C91.7981 59.5037 90.5911 59.6281 89.3842 59.6394C86.959 59.6394 84.5338 59.5489 82.1199 59.5037L84.5225 67.6019C87.7599 65.7809 95.1031 65.1023 98.2615 67.2852C100.145 68.5746 102.694 66.6971 102.627 64.6273C102.627 63.8243 102.627 63.0325 102.559 62.2295C102.543 61.8258 102.436 61.431 102.247 61.0745C102.057 60.7181 101.79 60.4092 101.464 60.171C101.139 59.9328 100.764 59.7714 100.367 59.699C99.971 59.6265 99.5635 59.6448 99.1751 59.7525C95.7218 61.1632 92.156 62.2793 88.5156 63.0891C85.9212 63.6659 82.8756 63.8808 80.834 65.6792C80.7842 65.7276 80.7446 65.7857 80.7175 65.8498C80.6905 65.9139 80.6766 65.9828 80.6766 66.0524C80.6766 66.122 80.6905 66.1909 80.7175 66.255C80.7446 66.3191 80.7842 66.3772 80.834 66.4256L80.8001 66.4369Z" fill="#E24B4B"/>
<path d="M5.29218 6.52606C4.72819 10.4621 4.00627 14.3415 3.47611 18.2775C3.25052 19.9967 3.98372 22.1117 5.96898 22.4397C13.2333 23.5708 20.3058 21.2408 27.4008 20.0646C35.4321 18.7413 43.565 18.4811 51.506 20.4491L52.5325 11.1746C45.7646 10.4847 38.9966 11.6723 32.2286 11.333C24.9418 10.9823 17.7339 8.98042 10.6953 7.17076L14.0792 11.3782L13.9439 9.35365L11.9699 13.1426C20.2945 8.09821 32.9618 13.3915 41.8504 15.2464C51.6301 17.3048 61.5113 20.3813 71.4602 21.4331C80.3375 22.3832 89.5081 21.2522 98.408 21.5123C105.92 21.7272 112.429 20.2455 115.328 12.5884C116.456 9.61379 113.41 6.72965 110.658 6.74096C101.634 6.74096 93.0274 8.46014 84.1276 9.27449C76.367 9.97573 67.9296 7.57794 60.4397 10.1115C54.1343 12.2491 57.2588 22.3945 63.4176 20.008C66.9934 18.6282 70.4112 19.1597 74.1336 19.3407C78.2274 19.4805 82.3257 19.2686 86.3836 18.7073C94.5389 17.6668 102.604 15.7666 110.872 16.1512L106.642 9.1727C104.916 13.1539 98.611 11.6723 95.1481 11.5818C91.0873 11.4687 87.0378 11.5139 82.977 11.661C73.9531 11.989 65.7864 10.5299 56.943 8.75421C41.5459 5.6891 23.78 -0.373254 8.43927 5.3611C7.55038 5.66211 6.77719 6.23349 6.22728 6.99571C5.67737 7.75793 5.3781 8.67308 5.37113 9.6138L5.28091 11.6384C5.32061 12.6095 5.67116 13.5419 6.28064 14.2977C6.89012 15.0535 7.72614 15.5923 8.66489 15.8345C15.7458 18.1789 23.0547 19.7636 30.469 20.5622C37.9363 21.1956 45.3698 19.8497 52.8258 20.6301C58.1838 21.1843 58.838 12.5997 53.8523 11.3556C46.26 9.54789 38.3792 9.31696 30.6946 10.677C22.9227 11.9098 14.553 16.0946 6.73601 15.7214L10.2441 19.1145C10.2598 14.8852 9.83254 10.6659 8.96943 6.52606C8.61975 4.71641 5.58547 4.80689 5.31475 6.61655L5.29218 6.52606Z" fill="#E24B4B"/>
<path d="M4.95409 9.659C5.25423 9.66878 5.55114 9.59435 5.81137 9.4441C6.08656 9.34703 6.33156 9.17935 6.522 8.95777C6.7327 8.75549 6.88807 8.50234 6.9732 8.22258C7.10889 7.95358 7.16746 7.6521 7.14239 7.3517L7.04088 6.75225C6.92789 6.38207 6.72205 6.04716 6.44305 5.77956L5.98057 5.44025C5.63841 5.2419 5.24757 5.14392 4.85258 5.15749C4.55294 5.15226 4.25724 5.22638 3.99531 5.37239C3.71744 5.4705 3.46901 5.63785 3.2734 5.85873C3.06213 6.05856 2.90989 6.31295 2.83347 6.59391C2.69888 6.86329 2.64038 7.16445 2.66427 7.46479L2.75451 8.06424C2.8675 8.43442 3.07334 8.76934 3.35235 9.03693L3.81483 9.37624C4.1583 9.57129 4.54821 9.66903 4.94282 9.659H4.95409Z" fill="#E24B4B"/>
<path d="M78.2509 28.1178C79.7962 33.1169 78.9954 39.4281 79.221 44.6422C79.4466 50.2069 79.785 55.8055 80.2587 61.3476C80.5971 65.2496 86.3386 67.4212 88.2562 63.3156C90.6701 58.1128 92.9261 53.0005 92.881 47.1418C92.881 40.5931 89.8693 34.3272 91.2003 27.7445L88.5044 30.5834C87.8501 30.7191 88.572 45.4791 88.6848 46.9269C88.983 52.0924 89.7955 57.215 91.11 62.2185C92.238 66.1545 98.6338 66.2789 99.4121 62.0036C101.567 50.0938 102.864 36.3178 98.9947 24.6794C97.2915 19.5671 89.2263 21.9876 90.9747 27.1112C94.3587 37.0303 93.6932 49.8676 91.0536 59.9112L99.5362 60.8499C98.239 51.6094 97.4945 42.7534 96.9982 33.4676C96.6598 27.1111 93.3435 21.3542 86.2258 22.9942C85.5664 23.1827 84.969 23.5441 84.4951 24.0411C84.0213 24.5381 83.6881 25.1527 83.5299 25.8218C82.6162 30.9114 83.4284 35.4582 84.2969 40.5252C85.5265 47.5263 84.8722 53.2267 80.7889 59.1986L88.7751 61.1666C88.7497 54.4566 88.1383 47.7617 86.9477 41.1586C85.9889 35.707 84.9963 30.4816 81.2175 26.2742C79.9767 24.8943 77.732 26.4552 78.2396 28.1178H78.2509Z" fill="#E24B4B"/>
<path d="M81.6352 29.4072C81.3984 29.4072 81.263 29.2263 81.1502 29.0679C81.0374 28.9096 81.1502 28.9774 81.1502 29.0679C81.1502 28.7852 81.1502 28.7965 81.1502 29.0679C81.1502 29.3394 81.2066 29.3959 81.1502 29.0679C81.1502 29.1697 81.1502 29.2715 81.1502 29.362V29.8257C81.1502 31.2282 81.7255 32.7777 83.2934 33.0831C83.693 33.1756 84.1097 33.162 84.5025 33.0436C84.8952 32.9253 85.2504 32.7062 85.5328 32.4081C85.8153 32.11 86.0154 31.7432 86.1132 31.3439C86.2111 30.9445 86.2033 30.5265 86.0908 30.1311C86.0214 29.8864 85.9229 29.651 85.7975 29.4298C85.6447 29.1619 85.4276 28.9364 85.1658 28.7738L85.0418 28.6834C85.3914 28.8756 84.9402 28.5137 85.1658 28.7852C85.3914 29.0566 85.1658 28.7851 85.1658 28.706C84.8815 28.1648 84.4989 27.6815 84.0379 27.2809C83.5823 26.8798 82.9929 26.6652 82.3869 26.6799C81.7808 26.6946 81.2024 26.9374 80.7667 27.3601C80.6036 27.5215 80.4934 27.729 80.4508 27.9549C80.4082 28.1808 80.4353 28.4143 80.5284 28.6243C80.6215 28.8344 80.7762 29.011 80.9719 29.1306C81.1677 29.2503 81.3951 29.3073 81.624 29.2941L81.6352 29.4072Z" fill="#E24B4B"/>
<path d="M78.7358 61.4487C81.1046 62.5232 83.3268 61.7541 85.7858 61.313C89.8145 60.4081 93.9622 60.1599 98.0696 60.5778C100.698 60.951 101.69 56.868 99.0735 56.5513C95.8255 56.1062 92.5296 56.1481 89.2938 56.6757C85.673 57.2978 82.2213 59.2318 78.8261 60.5665C78.4764 60.7022 78.3185 61.2677 78.7358 61.4487Z" fill="#FCD13A"/>
<path d="M81.5899 61.0533C84.5629 60.3822 87.5778 59.9137 90.6138 59.6508C93.2872 59.4811 96.0282 59.8431 98.6226 59.1645C100.597 58.6442 101.036 55.5225 99.0963 54.6403C93.4 52.0163 85.1093 54.3236 79.8528 57.1512C77.5968 58.384 79.3678 61.5057 81.6125 61.0646L81.5899 61.0533Z" fill="#FCD13A"/>
<path d="M78.7695 58.3843C80.5066 60.3636 83.9583 59.8094 86.2933 59.5153C89.5645 59.1308 92.768 58.2372 96.073 58.701C96.6101 58.8096 97.1638 58.805 97.6989 58.6874C98.2341 58.5698 98.739 58.3419 99.1815 58.018C99.624 57.6941 99.9944 57.2815 100.269 56.8062C100.544 56.331 100.717 55.8037 100.778 55.2577C100.838 54.7117 100.785 54.1591 100.621 53.635C100.457 53.1109 100.185 52.6268 99.8247 52.2134C99.4639 51.8001 99.0212 51.4665 98.5248 51.234C98.0285 51.0015 97.4893 50.8751 96.9416 50.8629C92.3174 50.5877 87.6908 51.3608 83.4056 53.125C81.9618 53.6905 76.5699 55.9073 78.7131 58.3617L78.7695 58.3843Z" fill="#FCD13A"/>
<path d="M81.4882 45.7616C86.8461 44.7323 92.565 45.1961 97.9907 44.721C98.948 44.697 99.8566 44.2927 100.517 43.597C101.177 42.9012 101.534 41.9711 101.51 41.0112C101.486 40.0513 101.083 39.1403 100.389 38.4785C99.6951 37.8167 98.7675 37.4584 97.8102 37.4824C91.9221 37.3467 84.6804 38.3759 79.5818 41.5315C77.2018 43.0019 78.9953 46.2366 81.4882 45.7616Z" fill="#FCD13A"/>
<path d="M77.5625 42.9682C80.7309 43.3811 83.9355 43.4381 87.1166 43.1379C90.6133 42.9908 94.0876 43.3867 97.5505 43.2396C98.1576 43.2046 98.7326 42.955 99.1736 42.5351C99.6145 42.1152 99.8929 41.5523 99.9591 40.9462C100.025 40.34 99.8753 39.73 99.5356 39.2243C99.1958 38.7186 98.6883 38.35 98.1032 38.1839C92.2941 36.329 82.9994 37.9917 77.4948 40.446C76.3668 40.921 76.1299 42.7081 77.5625 43.0021V42.9682Z" fill="#FCD13A"/>
<path d="M78.6684 32.5851C81.2628 34.621 85.1769 33.3882 88.2789 33.2298C90.2528 33.128 92.2381 33.128 94.2121 33.1393C96.1861 33.1506 98.4082 33.6144 100.213 32.8792C102.018 32.144 103.698 30.0742 102.864 27.914L102.785 27.7104C102.579 27.0768 102.214 26.5068 101.726 26.0552C101.237 25.6035 100.641 25.2852 99.9945 25.1308C99.348 24.9764 98.6728 24.9911 98.0336 25.1734C97.3944 25.3558 96.8126 25.6997 96.344 26.1722L96.1861 26.3192L98.9609 25.0864C95.0251 25.3918 91.1114 25.9357 87.2411 26.7151C84.3196 27.4276 79.6949 28.1402 78.4654 31.2392C78.3488 31.463 78.3057 31.718 78.3422 31.9678C78.3787 32.2176 78.4928 32.4495 78.6684 32.6304V32.5851Z" fill="#FCD13A"/>
<path d="M78.0478 31.7256C81.4318 33.309 85.1767 32.5173 88.854 32.3363C92.2379 32.1667 96.0054 33.1281 99.2653 31.8047C100.012 31.5559 100.646 31.0488 101.055 30.3741C101.463 29.6995 101.619 28.9012 101.494 28.122C101.369 27.3428 100.972 26.6335 100.374 26.1209C99.7753 25.6083 99.0146 25.3258 98.2276 25.3239C94.9396 25.0917 91.638 25.1371 88.3576 25.4597C84.8834 25.9799 80.7888 26.2174 77.9689 28.4569C76.9649 29.2486 76.6266 31.0696 78.0478 31.7256Z" fill="#FCD13A"/>
<path d="M112.384 7.77023C110.388 7.77023 108.549 9.89657 107.398 11.3895C105.932 13.1583 104.939 15.2716 104.511 17.5311C103.8 21.5915 109.936 23.1862 110.76 19.0919C111.169 17.3707 111.814 15.7149 112.677 14.1719C113.512 12.5658 114.595 10.9711 114.245 9.12747C114.123 8.72978 113.876 8.38251 113.54 8.13778C113.205 7.89305 112.799 7.76408 112.384 7.77023Z" fill="#FCD13A"/>
<path d="M108.199 6.49266C106.823 7.86122 106.349 10.1572 105.943 12.0234C105.367 14.2363 105.188 16.534 105.413 18.8097C105.808 21.3884 109.383 22.2028 110.184 19.3413C110.622 17.2772 110.853 15.1742 110.872 13.064C111.008 11.2091 111.38 8.86785 110.635 7.13736C110.557 6.89686 110.418 6.68053 110.233 6.509C110.047 6.33748 109.821 6.21646 109.575 6.15749C109.33 6.09852 109.074 6.10357 108.831 6.17214C108.588 6.24071 108.366 6.37053 108.188 6.54922L108.199 6.49266Z" fill="#FCD13A"/>
<path d="M72.2841 12.1811C71.4341 13.4118 70.9314 14.8499 70.829 16.3433C70.6823 17.8024 70.547 19.1936 71.4945 20.4264C71.7685 20.8073 72.154 21.0932 72.5974 21.2445C73.0408 21.3958 73.5202 21.405 73.9691 21.2707C74.4179 21.1364 74.814 20.8654 75.1022 20.4952C75.3905 20.125 75.5567 19.6741 75.5778 19.2049C75.5778 16.8749 75.2169 14.6242 75.1153 12.3168C75.0138 10.0095 71.0546 10.0548 71.4155 12.4073C71.6315 14.5137 71.5709 16.6393 71.235 18.7298L75.2507 18.0965C74.7769 17.3839 74.9461 15.9927 74.7995 15.1671C74.5726 14.0751 74.1064 13.0475 73.4346 12.1585C73.3729 12.0652 73.2891 11.9886 73.1907 11.9357C73.0923 11.8827 72.9823 11.855 72.8706 11.855C72.7589 11.855 72.649 11.8827 72.5506 11.9357C72.4522 11.9886 72.3684 12.0652 72.3066 12.1585L72.2841 12.1811Z" fill="#FCD13A"/>
<path d="M69.6328 12.0911C68.4279 14.7113 68.1687 17.67 68.8996 20.4607C69.0878 21.0034 69.4607 21.4622 69.9528 21.7566C70.4449 22.0509 71.0247 22.1619 71.5904 22.0701C72.156 21.9782 72.6712 21.6895 73.0456 21.2545C73.4199 20.8195 73.6294 20.2661 73.6372 19.6916C73.472 17.0334 72.7819 14.4345 71.6068 12.0459C71.5092 11.8691 71.3663 11.7217 71.1927 11.6191C71.0191 11.5165 70.8213 11.4624 70.6198 11.4624C70.4183 11.4624 70.2205 11.5165 70.0469 11.6191C69.8733 11.7217 69.7304 11.8691 69.6328 12.0459V12.0911Z" fill="#FCD13A"/>
<path d="M57.011 10.507C56.5293 11.9948 56.2375 13.5377 56.1425 15.099C55.883 16.8069 55.6236 18.4921 55.4544 20.2113L60.316 18.051C59.8648 17.6212 58.9737 17.1462 58.6353 16.7277C59.1203 17.3385 58.6353 16.1509 58.6353 15.9473C58.4887 14.4543 58.9173 12.8709 58.8948 11.4232C58.8948 9.1611 55.2401 8.62952 54.8227 10.9708C54.552 12.475 54.3038 13.968 54.1008 15.4949C53.9429 16.7503 53.1082 20.4715 54.1008 21.331C56.7177 23.5931 60.4175 19.4761 57.7442 17.4968C55.9958 16.2075 53.4804 15.9699 52.2734 18.1641C52.0162 18.6197 51.8677 19.1288 51.8393 19.6516C51.811 20.1743 51.9037 20.6965 52.1102 21.1774C52.3166 21.6582 52.6313 22.0847 53.0294 22.4233C53.4276 22.762 53.8985 23.0036 54.4053 23.1294C56.808 23.6836 58.4548 21.7382 58.5338 19.4988C58.6128 16.8069 58.6128 14.1264 58.8948 11.4345L54.755 11.5363C54.9242 13.5721 54.755 15.6193 54.834 17.6439C54.834 18.0058 54.9693 18.3677 54.9693 18.7749C54.9693 17.9719 54.8453 19.2047 54.8453 19.3743C54.8765 19.9489 55.026 20.5107 55.2841 21.0245C55.5423 21.5384 55.9037 21.9931 56.3455 22.3603C57.7555 23.7741 60.8575 23.152 61.1282 20.9691C61.523 17.8022 61.6132 13.3572 59.8197 10.5523C59.6679 10.3125 59.4566 10.1164 59.2065 9.9831C58.9564 9.84982 58.6761 9.78394 58.3929 9.79192C58.1098 9.7999 57.8336 9.88147 57.5914 10.0286C57.3491 10.1758 57.1492 10.3835 57.011 10.6314V10.507Z" fill="#FCD13A"/>
<path d="M55.6343 18.7979C56.2547 15.9364 56.4577 12.9731 56.9766 10.0889C57.0439 9.489 56.8708 8.88682 56.4953 8.41488C56.1198 7.94293 55.5728 7.63988 54.9744 7.57238C54.3761 7.50489 53.7755 7.6785 53.3049 8.05499C52.8342 8.43149 52.5319 8.98004 52.4646 9.57998C52.1653 12.6715 52.2221 15.7873 52.6338 18.8658C52.8933 20.4266 55.3298 20.223 55.6343 18.7979Z" fill="#FCD13A"/>
<path d="M41.1397 8.24517C39.8737 12.0992 39.3718 16.1643 39.6621 20.2115L41.715 18.0512C40.023 18.0512 41.027 15.1106 41.1285 13.889C41.2413 12.4526 40.9705 9.88517 41.715 8.62972C41.9643 8.18069 42.0909 7.67363 42.082 7.15981C42.073 6.64598 41.9289 6.14363 41.6643 5.70356C41.3996 5.26349 41.0237 4.90131 40.5746 4.65365C40.1255 4.406 39.6192 4.28167 39.1068 4.29322C38.5944 4.30476 38.0941 4.45178 37.6566 4.71941C37.2191 4.98704 36.8598 5.36578 36.6151 5.81732C36.3704 6.26887 36.249 6.77721 36.2631 7.29092C36.2772 7.80462 36.4263 8.30548 36.6955 8.74283C37.2707 9.65897 37.1467 11.4686 37.2595 12.5431C37.4399 14.1266 37.7219 15.7439 37.7445 17.3387C37.6029 18.2286 37.6923 19.1401 38.0039 19.9853C38.5003 20.8449 39.6621 20.9919 40.2599 21.6819C41.6586 23.1522 43.6439 21.7497 43.8018 20.1097C44.1647 16.2594 44.1269 12.3817 43.689 8.53924C43.6698 8.22581 43.541 7.92921 43.3252 7.70161C43.1095 7.47401 42.8206 7.32997 42.5094 7.29485C42.1981 7.25973 41.8845 7.33578 41.6237 7.5096C41.3629 7.68341 41.1716 7.94387 41.0833 8.24517H41.1397Z" fill="#FCD13A"/>
<path d="M37.4739 6.35671C36.1992 10.0778 37.0453 14.5454 37.5529 18.3683C38.0604 22.1912 43.6215 21.2072 42.6401 17.5539C41.6588 13.9007 41.3768 9.55753 39.7186 6.00609C39.2223 4.94292 37.7784 5.4745 37.4626 6.35671H37.4739Z" fill="#FCD13A"/>
<path d="M36.8307 6.02833C36.1382 9.26701 35.8764 12.5834 36.0524 15.891C36.1764 17.9268 36.2215 21.9081 39.2333 21.7724C41.9856 21.6366 41.7149 18.3001 41.4893 16.4678C40.9374 12.9165 40.1345 9.40895 39.0866 5.97177C39.0792 5.6718 38.9531 5.3871 38.7363 5.18029C38.5195 4.97349 38.2296 4.86151 37.9304 4.86901C37.6313 4.87651 37.3474 5.00287 37.1411 5.22028C36.9349 5.43769 36.8232 5.72836 36.8307 6.02833Z" fill="#FCD13A"/>
<path d="M35.2629 4.28712C34.8504 5.43428 34.6926 6.65787 34.8004 7.87249C34.6786 9.13312 34.7624 10.4052 35.0486 11.6388C35.7141 13.6068 38.9966 13.9009 39.3801 11.537C39.4944 10.2278 39.3877 8.90861 39.0643 7.63499C39.0061 6.45131 38.6945 5.29407 38.1506 4.24189C37.9937 3.9973 37.7768 3.79722 37.5206 3.66089C37.2645 3.52456 36.9777 3.45654 36.6877 3.46336C36.3978 3.47017 36.1145 3.5516 35.865 3.69981C35.6155 3.84803 35.4081 4.05806 35.2629 4.30975V4.28712Z" fill="#FCD13A"/>
<path d="M35.6692 5.73442C33.9997 7.40835 34.1013 10.1568 34.169 12.3962C34.2592 15.1786 34.3607 18.549 35.4436 21.1278C36.1542 22.8244 39.3239 23.3899 39.6059 21.026C39.9443 18.1532 39.3465 15.1446 39.0306 12.2718C38.7825 10.0097 38.6358 7.26131 36.8536 5.70049C36.6954 5.54506 36.4828 5.45801 36.2614 5.45801C36.0399 5.45801 35.8273 5.54506 35.6692 5.70049V5.73442Z" fill="#FCD13A"/>
<path d="M23.3293 3.3818C22.1062 6.09166 21.4902 9.03734 21.5245 12.0116C21.4117 14.9975 20.7237 18.549 22.5397 21.0599C22.8001 21.466 23.1602 21.7981 23.5855 22.0245C24.0108 22.2508 24.487 22.3637 24.9684 22.3524C25.4497 22.341 25.9201 22.2058 26.3343 21.9596C26.7485 21.7135 27.0926 21.3647 27.3337 20.9468C28.8677 18.3341 28.0443 15.2916 27.8864 12.4075C27.7285 9.52332 27.5593 6.35643 26.3975 3.70981C26.2921 3.40275 26.1016 3.13217 25.8483 2.9298C25.595 2.72744 25.2895 2.60167 24.9674 2.56724C24.6454 2.53282 24.3203 2.59115 24.0301 2.73543C23.74 2.8797 23.4969 3.10392 23.3293 3.3818Z" fill="#FCD13A"/>
<path d="M23.3626 21.3993C23.7236 21.1844 25.314 19.9968 23.701 21.0713L20.317 19.2504C20.317 18.583 20.3734 20.3814 20.4749 20.7094C20.9487 22.3268 23.3964 23.1638 24.5357 21.6821C25.675 20.2004 25.4494 18.0967 25.6637 16.4341C26.1036 13.7535 26.5887 11.0729 26.9609 8.38107L25.1561 10.858C27.1865 9.62521 27.5249 7.90603 27.6264 5.71182C27.9197 -0.135654 18.3769 -0.0225364 18.4784 5.93804C18.4013 6.93306 18.6021 7.92995 19.0583 8.81694C19.5146 9.70394 20.2082 10.446 21.0615 10.9599L19.0311 7.48756C19.2229 9.91929 19.4372 12.351 19.6966 14.7828C19.8094 15.7894 19.9109 16.8073 20.0463 17.8139C20.0709 18.2837 20.1427 18.7498 20.2606 19.2051C20.5201 19.8724 19.9899 20.585 20.6892 18.8432L24.9079 18.7979C25.314 19.4313 24.4116 17.8818 24.1184 17.6669C23.7945 17.3853 23.3974 17.202 22.9735 17.1385C22.5495 17.075 22.1163 17.134 21.7245 17.3084C21.3328 17.4829 20.9987 17.7656 20.7614 18.1236C20.5241 18.4815 20.3935 18.8998 20.3847 19.3295C20.3057 20.7773 22.0428 22.2928 23.419 21.4785L23.3626 21.3993Z" fill="#FCD13A"/>
<path d="M7.98803 4.37706C7.40148 9.68162 8.56331 14.7826 8.81147 20.1098C8.95811 23.1862 13.7972 23.0505 13.5716 19.9967C13.143 14.251 12.4436 8.68631 8.64227 4.16216C8.59093 4.11781 8.52931 4.08705 8.46306 4.07268C8.39682 4.05831 8.32805 4.0608 8.26301 4.07991C8.19797 4.09903 8.13873 4.13416 8.0907 4.18212C8.04267 4.23007 8.00738 4.28931 7.98803 4.35444V4.37706Z" fill="#FCD13A"/>
<path d="M2.55128 6.52611C2.74304 8.94652 3.31831 11.2425 3.67927 13.629C4.11918 16.5471 4.01768 19.2842 6.03678 21.6254C6.41216 21.984 6.8647 22.2513 7.35946 22.4067C7.85423 22.5621 8.37798 22.6015 8.89031 22.5217C9.40264 22.4419 9.88984 22.2451 10.3143 21.9466C10.7387 21.648 11.0891 21.2557 11.3383 20.7998C12.9175 17.3501 11.2481 13.5725 9.86065 10.2698C8.90186 8.00778 7.60467 4.34321 4.6155 4.35452C4.05697 4.37513 3.52857 4.61372 3.14295 5.01939C2.75734 5.42506 2.54502 5.96572 2.55128 6.52611Z" fill="#FCD13A"/>
<path d="M5.28088 4.68256C5.00562 5.21138 4.82973 5.78647 4.762 6.37911C4.65399 6.86603 4.6708 7.37244 4.81085 7.85108C4.9509 8.32972 5.20963 8.76498 5.56288 9.11621C5.87793 9.4077 6.25442 9.62428 6.6644 9.74986C7.07438 9.87544 7.50731 9.9068 7.93103 9.8416C8.35476 9.77641 8.7584 9.61633 9.11197 9.37327C9.46553 9.1302 9.75992 8.81038 9.97331 8.43758C10.2092 7.99529 10.3269 7.49933 10.3151 6.9979C10.3032 6.49648 10.1622 6.00665 9.90563 5.57607C9.63464 5.03792 9.27631 4.54868 8.84532 4.12835C8.58536 3.89674 8.27794 3.72508 7.9447 3.62543C7.61145 3.52577 7.26048 3.50054 6.91647 3.55153C6.57583 3.60237 6.25131 3.73072 5.96781 3.92677C5.6843 4.12282 5.44933 4.38136 5.28088 4.68256Z" fill="#FCD13A"/>
<path d="M18.5234 2.8388C18.6042 2.8388 18.6817 2.80662 18.7388 2.74935C18.7959 2.69207 18.828 2.6144 18.828 2.5334C18.828 2.45241 18.7959 2.37473 18.7388 2.31746C18.6817 2.26019 18.6042 2.22803 18.5234 2.22803C18.4426 2.22803 18.3652 2.26019 18.3081 2.31746C18.2509 2.37473 18.2189 2.45241 18.2189 2.5334C18.2189 2.6144 18.2509 2.69207 18.3081 2.74935C18.3652 2.80662 18.4426 2.8388 18.5234 2.8388Z" fill="#FCD13A"/>
<path d="M18.2645 3.09924C18.3048 3.65188 18.407 4.19821 18.5691 4.72794C18.6819 5.28215 18.806 5.85898 18.9188 6.37926C19.0316 6.89954 19.1218 7.5103 19.2008 8.07582C19.2797 8.64134 19.3136 9.20684 19.4151 9.79498C19.5166 10.3831 20.2498 10.1343 20.2272 9.67057C20.1736 9.09531 20.0794 8.5246 19.9452 7.96271C19.8437 7.38588 19.7196 6.83167 19.573 6.25485C19.4264 5.67802 19.2797 5.1238 19.0879 4.56959C18.9482 4.03201 18.7236 3.52034 18.4224 3.05401C18.4146 3.03987 18.4032 3.02808 18.3893 3.01987C18.3754 3.01166 18.3596 3.00732 18.3435 3.00732C18.3274 3.00732 18.3115 3.01166 18.2977 3.01987C18.2838 3.02808 18.2723 3.03987 18.2645 3.05401V3.09924Z" fill="#FCD13A"/>
<path d="M18.0387 3.39334C18.1176 4.52437 18.3996 5.73457 18.5575 6.88822C18.6365 7.46504 18.7155 8.01924 18.7831 8.59606L18.8959 9.55744C18.9202 9.88566 18.9731 10.2111 19.0538 10.5301C19.1111 10.6452 19.2038 10.7387 19.3181 10.7969C19.4325 10.8551 19.5625 10.8749 19.6889 10.8534C19.8154 10.8318 19.9316 10.7701 20.0203 10.6773C20.1091 10.5844 20.1657 10.4654 20.1818 10.3379C20.1717 10.0089 20.1224 9.6824 20.0352 9.36517L19.866 8.41511L19.5276 6.66201C19.3507 5.48997 19.0128 4.34811 18.5237 3.26893C18.4932 3.21107 18.4437 3.16558 18.3836 3.14024C18.3234 3.11489 18.2563 3.11126 18.1938 3.12993C18.1313 3.14861 18.0771 3.18845 18.0406 3.24266C18.0041 3.29688 17.9875 3.36213 17.9935 3.42727L18.0387 3.39334Z" fill="#FCD13A"/>
<path d="M18.4334 3.12135C18.3712 3.73419 18.4093 4.35309 18.5462 4.95361C18.6251 5.66616 18.7041 6.37871 18.7379 7.09127C18.7943 8.4485 18.7379 9.79445 18.8282 11.1517C19.0425 13.9793 19.7419 16.8973 19.3809 19.7362C19.354 19.9747 19.4226 20.2141 19.5718 20.4018C19.7209 20.5896 19.9383 20.7102 20.1761 20.7372C20.414 20.7642 20.6528 20.6953 20.84 20.5458C21.0272 20.3963 21.1475 20.1783 21.1744 19.9398C21.0789 16.9271 20.7622 13.9255 20.2269 10.9594C20.0577 9.53431 20.069 8.09788 19.8434 6.68409C19.6742 5.60961 19.4824 3.8339 18.7154 3.05349C18.6969 3.03731 18.6748 3.02601 18.6508 3.02064C18.6269 3.01527 18.6021 3.016 18.5785 3.02275C18.5549 3.0295 18.5335 3.04206 18.516 3.05928C18.4985 3.07651 18.4856 3.09784 18.4785 3.12135H18.4334Z" fill="#FCD13A"/>
<path d="M16.8094 2.96343C16.659 4.38558 16.7467 5.82293 17.0688 7.21611C17.3057 8.78825 17.5538 10.3604 17.7682 11.9325C17.9825 13.5047 18.1742 15.0203 18.366 16.5585C18.4562 17.3389 18.5578 18.108 18.648 18.8884C18.6366 19.5735 18.8463 20.244 19.2458 20.7998C19.3405 20.8886 19.454 20.9546 19.5778 20.9931C19.7016 21.0315 19.8325 21.0413 19.9606 21.0217C20.0887 21.0021 20.2107 20.9536 20.3174 20.8799C20.4242 20.8063 20.5129 20.7092 20.5768 20.5962C20.8262 19.9258 20.8578 19.1934 20.6671 18.5038C20.5768 17.7234 20.4866 16.9543 20.3738 16.1852C20.1595 14.6583 19.9001 13.1427 19.6406 11.6611C19.3812 10.1794 19.0766 8.60729 18.7495 7.13695C18.5368 5.67487 18.059 4.2642 17.3395 2.97473C17.3091 2.92672 17.2654 2.8886 17.2138 2.86497C17.1622 2.84134 17.1049 2.83321 17.0488 2.84159C16.9927 2.84996 16.9402 2.87449 16.8977 2.91217C16.8552 2.94986 16.8245 2.9991 16.8094 3.05391V2.96343Z" fill="#E24B4B"/>
<path d="M28.6197 3.18924L28.3603 3.04222C28.3082 3.01246 28.25 2.99534 28.1901 2.99222C28.1303 2.9891 28.0706 3.00006 28.0158 3.02425C27.961 3.04844 27.9125 3.08518 27.8744 3.13151C27.8363 3.17784 27.8095 3.23246 27.7963 3.29103C27.1028 6.25403 26.9159 9.31357 27.2435 12.3393C27.4015 15.2121 27.4353 18.3903 28.4956 21.1161C28.5527 21.2864 28.6573 21.4366 28.797 21.5491C28.9367 21.6615 29.1056 21.7314 29.2838 21.7505C29.4619 21.7695 29.6417 21.7369 29.8019 21.6566C29.9622 21.5762 30.096 21.4514 30.1876 21.2971C30.339 21.0125 30.3754 20.6804 30.2892 20.3696C30.2406 20.2224 30.1505 20.0924 30.0298 19.9954C29.9091 19.8984 29.763 19.8385 29.6091 19.823C29.4553 19.8074 29.3002 19.8369 29.1626 19.9078C29.0251 19.9787 28.9109 20.0881 28.834 20.2226L28.7551 20.347L29.477 19.9059H29.3529L30.2666 20.5619C29.5036 17.804 29.0421 14.9711 28.8904 12.1131C28.6423 9.1724 28.5859 6.26566 28.5633 3.32497L28.2813 3.70952L28.5746 3.61904C28.6203 3.59855 28.6592 3.56521 28.6864 3.52306C28.7137 3.48091 28.7282 3.43175 28.7282 3.38151C28.7282 3.33127 28.7137 3.28213 28.6864 3.23998C28.6592 3.19783 28.6203 3.16449 28.5746 3.144L28.6197 3.18924Z" fill="#E24B4B"/>
<path d="M34.6426 5.03289C34.0801 6.22047 33.6998 7.48642 33.5146 8.78792C33.2552 10.0434 33.0747 11.3214 32.9393 12.5995C32.6892 15.2761 32.6251 17.9669 32.7476 20.6525C32.7476 21.8514 34.7215 21.7835 34.5636 20.6525C34.2291 18.08 34.1648 15.4795 34.3719 12.8936C34.4508 11.5929 34.5975 10.2922 34.7779 9.00282C35.0521 7.77034 35.2331 6.51889 35.3194 5.2591C35.3153 5.17694 35.2851 5.09825 35.2331 5.03458C35.1812 4.97092 35.1102 4.92564 35.0307 4.90539C34.9512 4.88514 34.8673 4.89099 34.7914 4.92208C34.7154 4.95317 34.6514 5.00786 34.6087 5.07813L34.6426 5.03289Z" fill="#E24B4B"/>
<path d="M45.0765 7.83789C44.3997 8.38079 44.3546 9.73804 44.208 10.5411C43.9937 11.6721 43.8583 12.8031 43.7455 13.9342C43.6327 15.0652 43.5425 16.1397 43.4635 17.2368C43.296 18.1962 43.4676 19.1842 43.9485 20.0305C44.0633 20.2148 44.2418 20.3503 44.4499 20.4108C44.6581 20.4713 44.8812 20.4527 45.0765 20.3585C45.2727 20.2776 45.4315 20.1258 45.5214 19.933C45.6112 19.7403 45.6255 19.5208 45.5615 19.3179C45.3702 18.9624 45.2297 18.5817 45.1442 18.1869C45.1104 17.7653 45.1104 17.3417 45.1442 16.9201C45.1442 15.8683 45.2231 14.8277 45.2682 13.7758C45.3134 12.724 45.3698 11.6834 45.4374 10.6429C45.4374 10.1226 45.5164 9.61362 45.5502 9.09335C45.6315 8.68564 45.5842 8.26267 45.4149 7.88315C45.3833 7.8404 45.3378 7.81016 45.2862 7.79775C45.2346 7.78534 45.1803 7.79154 45.1329 7.81527L45.0765 7.83789Z" fill="#E24B4B"/>
<path d="M45.2685 8.75446C45.281 8.64997 45.3242 8.55156 45.3926 8.4717C45.8212 8.12108 45.1218 7.43115 44.7609 7.87225C44.4796 8.2899 44.2946 8.76515 44.2194 9.26344C44.0954 9.72716 43.9713 10.2022 43.8698 10.6885C43.6442 11.7065 43.4862 12.747 43.3622 13.7876C43.2381 14.8281 43.1591 15.88 43.1253 16.9432C43.0914 18.0063 42.9561 19.0017 43.6667 19.7029C43.8096 19.8307 43.9896 19.9089 44.1803 19.926C44.3709 19.9432 44.562 19.8983 44.7253 19.7981C44.8885 19.6978 45.0152 19.5476 45.0866 19.3695C45.1581 19.1914 45.1704 18.995 45.1218 18.8094C44.8733 17.9856 44.7815 17.1223 44.8511 16.2645C44.8511 15.3597 44.8511 14.4436 44.9188 13.5388C44.9865 12.6339 45.0767 11.7178 45.1895 10.8016C45.2572 10.3153 45.3249 9.82895 45.4038 9.3426C45.5177 8.92286 45.5484 8.4848 45.4941 8.05322L44.7834 8.48302C44.856 8.56291 44.9065 8.66036 44.9301 8.76578C44.9429 8.80041 44.966 8.83027 44.9962 8.85136C45.0265 8.87246 45.0624 8.88377 45.0993 8.88377C45.1361 8.88377 45.1721 8.87246 45.2023 8.85136C45.2326 8.83027 45.2557 8.80041 45.2685 8.76578V8.75446Z" fill="#E24B4B"/>
<path d="M44.084 7.93971C43.5925 8.95078 43.3379 10.061 43.3395 11.1858C43.2154 12.3168 43.1139 13.4479 43.0575 14.5789C42.9898 15.6345 43.0124 16.6941 43.1252 17.7458C43.1519 18.8562 43.4585 19.9418 44.0163 20.9014C44.1344 21.0811 44.3125 21.2127 44.5186 21.2726C44.7248 21.3325 44.9455 21.3168 45.1411 21.2282C45.3367 21.1397 45.4944 20.9841 45.586 20.7895C45.6776 20.5949 45.6969 20.3739 45.6407 20.1662C45.5504 19.6799 45.3022 19.2162 45.1669 18.7298C45.0331 18.252 44.9388 17.764 44.8849 17.2708C44.7891 16.286 44.7439 15.2969 44.7495 14.3075C44.7495 13.2443 44.7495 12.1811 44.8059 11.1179C44.9685 10.0732 44.9379 9.00731 44.7157 7.97364C44.6943 7.91011 44.6553 7.85404 44.6032 7.81207C44.551 7.7701 44.488 7.744 44.4215 7.73686C44.355 7.72972 44.2879 7.74183 44.2281 7.77177C44.1683 7.80171 44.1182 7.84822 44.084 7.90578V7.93971Z" fill="#E24B4B"/>
<path d="M61.5452 10.711C61.0753 11.3209 60.7685 12.0412 60.6541 12.8034C60.4664 13.546 60.3382 14.3024 60.2706 15.0655C60.1192 16.6239 60.1838 18.1959 60.4624 19.7367C60.5259 19.9618 60.671 20.155 60.8692 20.2784C61.0675 20.4019 61.3045 20.4466 61.534 20.404C61.7631 20.3642 61.9711 20.2451 62.1216 20.0673C62.272 19.8895 62.3555 19.6644 62.3574 19.4313C62.3625 19.2355 62.3136 19.0422 62.216 18.8725C62.1185 18.7029 61.9762 18.5636 61.8047 18.4699C61.6547 18.3857 61.481 18.3544 61.3112 18.3811C61.1414 18.4078 60.9855 18.4908 60.8684 18.6169C61.0038 18.4473 60.7331 18.7414 60.6879 18.7866L62.3123 19.1711C62.0421 17.8088 61.9285 16.4198 61.9739 15.0315C61.9739 14.3529 62.0528 13.6743 62.1318 12.9957C62.3123 12.3062 62.3771 11.5914 62.3235 10.8806C62.301 10.8023 62.2583 10.7314 62.1997 10.6749C62.1411 10.6184 62.0687 10.5784 61.9898 10.5589C61.9109 10.5394 61.8283 10.5411 61.7502 10.5638C61.6722 10.5865 61.6015 10.6295 61.5452 10.6883V10.711Z" fill="#E24B4B"/>
<path d="M60.7672 10.8804C60.4356 11.4787 60.2068 12.1287 60.0904 12.8032C59.9161 13.4887 59.7805 14.1835 59.6843 14.8843C59.5884 15.5849 59.5544 16.2927 59.5828 16.9994C59.5961 17.3325 59.6262 17.6646 59.6731 17.9947C59.678 18.4173 59.7948 18.8311 60.0114 19.1936C60.0999 19.3305 60.2253 19.4393 60.3731 19.5074C60.5209 19.5755 60.685 19.6001 60.8462 19.5781C61.0059 19.553 61.1548 19.4819 61.275 19.3734C61.3951 19.265 61.4813 19.124 61.523 18.9674C61.5546 18.5859 61.5125 18.2018 61.3989 17.8363C61.3433 17.5334 61.3056 17.2275 61.2861 16.9202C61.2466 16.295 61.2466 15.6679 61.2861 15.0426C61.2861 14.4206 61.3763 13.8098 61.4553 13.1877C61.4553 12.8371 61.5568 12.4865 61.5794 12.1359C61.6131 11.8012 61.6131 11.4639 61.5794 11.1292C61.5718 11.0312 61.5335 10.9382 61.4697 10.8635C61.406 10.7888 61.3203 10.7363 61.2249 10.7137C61.1295 10.691 61.0294 10.6993 60.939 10.7374C60.8486 10.7755 60.7727 10.8414 60.7221 10.9256L60.7672 10.8804Z" fill="#E24B4B"/>
<path d="M68.4152 11.6271C67.9527 14.1267 67.4677 16.6488 66.836 19.1145C66.5202 20.3473 68.5167 20.8337 68.7311 19.5895C68.9454 18.3454 69.1597 16.9542 69.2725 15.6196C69.3571 14.3203 69.3571 13.0169 69.2725 11.7176C69.262 11.6109 69.215 11.5112 69.1395 11.4354C69.064 11.3595 68.9646 11.3123 68.8582 11.3016C68.7519 11.291 68.6452 11.3176 68.5562 11.3769C68.4672 11.4362 68.4014 11.5246 68.3701 11.6271H68.4152Z" fill="#E24B4B"/>
<path d="M68.2567 11.1519C68.0621 11.8427 67.9971 12.5636 68.0649 13.2782C68.0649 13.9568 67.986 14.6355 67.9296 15.3254C67.8274 16.7157 67.5817 18.0916 67.1964 19.431C66.858 20.5621 68.7643 21.0145 68.9447 19.8721C69.1968 18.4046 69.37 16.9246 69.4636 15.4385C69.5032 14.7076 69.5032 13.9751 69.4636 13.2443C69.4636 12.871 69.4636 12.4978 69.3621 12.1133C69.3461 11.7641 69.2495 11.4234 69.0801 11.118C69.0382 11.0526 68.9807 10.9988 68.9127 10.9615C68.8447 10.9243 68.7684 10.9048 68.691 10.9048C68.6135 10.9048 68.5372 10.9243 68.4692 10.9615C68.4012 10.9988 68.3437 11.0526 68.3018 11.118L68.2567 11.1519Z" fill="#E24B4B"/>
<path d="M79.8642 35.2996C80.2388 35.1165 80.6638 35.0647 81.0712 35.1526C81.6013 35.2544 82.1202 35.3562 82.6616 35.4353C83.7896 35.605 84.9966 35.8425 86.1584 36.0913C86.4014 36.1368 86.6525 36.0887 86.8616 35.9566C87.0707 35.8245 87.2224 35.6182 87.2864 35.3788C87.335 35.1364 87.2897 34.8847 87.1598 34.6746C87.0299 34.4645 86.8251 34.3119 86.587 34.2478C85.2185 34.05 83.8404 33.9254 82.4586 33.8745C81.4773 33.8745 79.9545 33.8745 79.3566 34.768C79.1874 35.0395 79.492 35.4806 79.8191 35.3449L79.8642 35.2996Z" fill="#E24B4B"/>
<path d="M79.4351 34.8357C79.8091 34.8874 80.1857 34.9176 80.5631 34.9262L81.6347 35.1411C82.5261 35.3086 83.4261 35.4257 84.3306 35.4917C86.1129 35.6727 87.9064 35.7632 89.6886 35.8423C89.8368 35.8386 89.9827 35.8057 90.1182 35.7454C90.2536 35.6851 90.3759 35.5987 90.478 35.4911C90.5801 35.3834 90.6601 35.2566 90.7134 35.118C90.7666 34.9793 90.7922 34.8315 90.7884 34.683C90.7847 34.5345 90.7519 34.3881 90.6918 34.2523C90.6317 34.1165 90.5455 33.9939 90.4381 33.8915C90.3308 33.7891 90.2043 33.7089 90.0661 33.6555C89.9278 33.6021 89.7804 33.5765 89.6323 33.5802C87.7711 33.5124 85.8873 33.4445 83.9923 33.4897C83.0682 33.4933 82.1453 33.5537 81.2286 33.6707C80.5744 33.7612 79.593 33.8969 79.2208 34.4964C79.2001 34.5302 79.1877 34.5685 79.1848 34.608C79.1818 34.6476 79.1883 34.6873 79.2038 34.7238C79.2193 34.7604 79.2432 34.7926 79.2736 34.818C79.3041 34.8434 79.3401 34.8611 79.3787 34.8696L79.4351 34.8357Z" fill="#E24B4B"/>
<path d="M81.1275 53.2833C84.0152 53.0797 86.9029 52.8083 89.8018 52.6612C91.2569 52.5934 92.7233 52.5708 94.1784 52.5594C95.6335 52.5481 97.1112 52.7178 98.5663 52.6386C99.6943 52.5707 100.067 50.6706 98.8032 50.4783C97.2524 50.3088 95.6899 50.2748 94.1333 50.3765C92.6669 50.3765 91.2118 50.5349 89.7567 50.7046C86.7773 51.0008 83.8452 51.6617 81.026 52.6725C80.7215 52.7856 80.7553 53.3059 81.1275 53.2833Z" fill="#E24B4B"/>
<path d="M81.308 63.4854C82.7763 63.2955 84.2335 63.0275 85.6733 62.6824C90.0527 61.8953 94.5367 61.8953 98.916 62.6824C100.303 62.9538 100.834 60.7935 99.4461 60.5447C96.3185 59.9668 93.1266 59.8221 89.9597 60.1149C88.441 60.2695 86.9338 60.5227 85.4477 60.8727C83.8783 61.166 82.371 61.7284 80.9922 62.5353C80.901 62.5941 80.8315 62.6812 80.7943 62.7833C80.7571 62.8854 80.7543 62.9969 80.7862 63.1008C80.8182 63.2046 80.8832 63.2952 80.9713 63.3585C81.0594 63.4218 81.1658 63.4545 81.2742 63.4515L81.308 63.4854Z" fill="#E24B4B"/>
<path d="M0.216416 8.10932C2.56264 12.5203 2.0212 18.5148 0.949604 23.2538C0.0472101 27.2351 6.58957 27.8345 6.3527 23.8533C6.0143 17.6778 6.81517 11.6268 3.26199 6.2205C2.99917 5.84465 2.60296 5.58381 2.15453 5.49141C1.70611 5.39901 1.23941 5.48203 0.850068 5.7235C0.460726 5.96496 0.178217 6.34658 0.0604082 6.79015C-0.0574011 7.23373 -0.00159073 7.70568 0.216416 8.10932Z" fill="#2E2221"/>
<path d="M117.403 5.63249C114.519 7.6624 112.263 10.4669 110.897 13.724C109.53 16.981 109.107 20.5586 109.676 24.0457C110.094 26.862 114.391 27.9478 115.08 24.6339C115.689 21.7045 115.215 18.6959 115.632 15.7213C116.072 12.5431 118.046 11.0615 119.851 8.64105C121.047 7.01236 119.4 4.24132 117.403 5.63249Z" fill="#2E2221"/>
<path d="M6.33006 25.2108C23.7801 21.7159 42.956 23.322 60.7106 23.65C78.0027 23.944 95.2835 24.6566 112.531 25.912C116.557 26.2061 116.4 19.861 112.373 19.6009C93.6479 18.3794 74.8894 17.8402 56.0971 17.9835C46.4302 18.0627 36.752 18.549 27.1077 19.2616C21.0616 19.7027 9.93963 18.8544 5.37126 23.65C5.23811 23.8046 5.15756 23.9977 5.14126 24.2014C5.12496 24.405 5.17378 24.6085 5.28062 24.7825C5.38747 24.9564 5.54678 25.0917 5.73548 25.1687C5.92417 25.2457 6.13244 25.2605 6.33006 25.2108Z" fill="#2E2221"/>
<path d="M1.06224 6.35642C4.24318 7.48746 8.0558 5.53076 11.2819 4.95393C15.9629 3.95274 20.7774 3.7387 25.5284 4.32055C36.0413 5.97187 46.0353 9.97575 56.5821 11.5592C65.8767 12.9617 75.4646 13.7195 84.7819 12.3057C95.8362 10.6317 105.706 7.44221 116.941 9.72691C120.404 10.4282 121.34 5.76828 118.227 4.53545C108.56 0.746478 97.6523 4.20745 87.9515 6.14152C76.367 8.4036 64.4103 7.81546 52.8146 5.7909C42.9446 4.06042 32.9055 0.135724 22.8438 0C18.3156 0.0832362 13.8253 0.84571 9.52219 2.26207C6.58941 3.12166 2.83318 3.608 0.983276 6.20938C0.983276 6.26593 0.983291 6.34511 1.05097 6.36773L1.06224 6.35642Z" fill="#2E2221"/>
<path d="M17.5086 11.7399C15.7254 10.9921 13.7546 10.8182 11.8686 11.2422C10.8196 11.4232 9.8044 11.7286 8.76664 11.9095C7.47452 11.9579 6.19188 12.1514 4.94275 12.4863C3.81475 12.9501 3.55531 14.8728 5.01042 15.133C6.93929 15.461 8.3944 14.5448 10.312 14.0019C12.5391 13.3835 14.8509 13.1277 17.1589 13.2441C17.3361 13.2351 17.5057 13.1689 17.6423 13.0554C17.779 12.9419 17.8754 12.7871 17.9172 12.6142C17.9591 12.4413 17.9441 12.2595 17.8745 12.0959C17.805 11.9322 17.6845 11.7954 17.5312 11.7059L17.5086 11.7399Z" fill="#2E2221"/>
<path d="M96.1976 14.0025C98.7474 13.9893 101.296 14.1063 103.834 14.3532C104.511 14.455 109.395 14.9752 109.643 15.4842C109.813 15.7484 110.077 15.937 110.382 16.0107C110.687 16.0845 111.008 16.0377 111.279 15.8801L111.572 15.7443C113.016 15.077 112.102 12.9733 110.749 12.962C105.91 12.962 100.8 11.7292 96.0171 12.962C95.3854 13.1203 95.5998 14.0138 96.1976 14.093V14.0025Z" fill="#2E2221"/>
<path d="M100.484 20.6297C99.7505 12.7124 95.7349 4.88566 87.1057 3.34745C83.9699 2.78193 79.9768 4.86305 78.0818 7.36264C77.0234 8.9995 76.5209 10.9355 76.6492 12.8821C76.304 15.0854 76.4309 17.3371 77.0215 19.4873C77.0024 20.3018 76.9042 21.1124 76.7282 21.9078C75.3972 27.5629 82.9209 30.1983 85.9552 25.5384C86.6094 24.5205 91.347 26.6016 92.5539 26.9522C94.3996 26.9901 96.2001 26.3783 97.6426 25.2232C99.0851 24.0682 100.078 22.4428 100.45 20.6297H100.484Z" fill="#E24B4B"/>
<path d="M79.4805 27.6992C86.0325 29.5123 92.9179 29.7564 99.5813 28.4117C101.905 27.9819 101.285 23.9893 98.9158 24.2608C92.4975 24.9733 86.0679 25.324 79.6609 26.0478C79.4574 26.0508 79.2619 26.1282 79.1113 26.2655C78.9606 26.4028 78.8653 26.5906 78.8431 26.7935C78.8209 26.9965 78.8735 27.2005 78.9909 27.3673C79.1082 27.5341 79.2824 27.6521 79.4805 27.6992Z" fill="#FCD13A"/>
<path d="M95.6674 11.8198C92.3653 11.9027 89.0722 12.2011 85.8088 12.7133C82.8986 13.1544 79.5485 13.392 76.7849 14.5682C76.4717 14.678 76.196 14.8749 75.9902 15.1358C75.7844 15.3968 75.657 15.7111 75.6227 16.042C75.5883 16.3729 75.6487 16.7067 75.7965 17.0045C75.9444 17.3024 76.1737 17.5519 76.4577 17.7239C76.8496 17.9526 77.2611 18.1456 77.6873 18.3007V18.3685C79.9432 20.1669 83.1242 19.7371 85.8426 19.7823C89.5784 19.9731 93.3228 19.6612 96.9759 18.8549C97.5645 18.7009 98.083 18.3502 98.446 17.8608C98.809 17.3714 98.9947 16.7725 98.9724 16.163C99.1064 15.6535 99.1226 15.12 99.0197 14.6033C98.9169 14.0865 98.6977 13.6001 98.3789 13.1812C98.0601 12.7623 97.6502 12.4219 97.1803 12.1859C96.7104 11.95 96.1929 11.8248 95.6674 11.8198Z" fill="#FCD13A"/>
<path d="M74.3481 10.7561C76.5252 21.0712 76.7395 31.9178 77.0553 42.4251C77.2133 47.6392 77.3035 52.8646 77.4614 58.0899C77.5855 62.4218 77.2133 67.421 78.5894 71.5832C79.0181 72.9178 81.353 73.1101 81.5673 71.5153C82.1652 66.8668 81.2628 61.845 81.071 57.1625C80.8567 51.6317 80.6988 46.0897 80.4506 40.5589C79.9882 30.3004 79.2098 20.0645 76.1642 10.2019C76.0924 9.96642 75.9303 9.76921 75.7134 9.65361C75.4966 9.53801 75.2429 9.5135 75.008 9.58549C74.7732 9.65748 74.5765 9.82007 74.4612 10.0375C74.3459 10.2549 74.3215 10.5093 74.3933 10.7448L74.3481 10.7561Z" fill="#2E2221"/>
<path d="M76.5029 12.0116C77.1233 6.29983 82.3572 4.78425 87.2076 5.37238C92.4076 6.00576 94.8103 9.52328 96.13 14.1718C98.0476 20.9015 97.9235 28.5247 98.0476 35.4805C98.1604 41.803 98.0476 48.1481 98.5439 54.4706C98.9162 59.7186 98.9951 66.3351 101.849 70.8706C102.059 71.2132 102.375 71.4771 102.75 71.6215C103.124 71.7659 103.535 71.7829 103.92 71.6697C104.305 71.5565 104.642 71.3195 104.879 70.9952C105.117 70.6709 105.241 70.2774 105.233 69.8753C105.639 64.4689 103.767 58.7685 103.394 53.2943C103.067 48.3856 102.988 43.4543 102.853 38.5343C102.605 29.3164 103.191 17.5875 98.9274 9.12741C95.8142 2.94065 90.287 0.622036 83.5191 1.76438C78.5785 2.59004 72.3745 6.52603 74.8561 12.3282C74.9138 12.5304 75.0434 12.7043 75.2204 12.8171C75.3974 12.9298 75.6095 12.9736 75.8165 12.9402C76.0236 12.9068 76.2112 12.7984 76.3439 12.6356C76.4767 12.4728 76.5453 12.2669 76.5368 12.0568L76.5029 12.0116Z" fill="#2E2221"/>
<path d="M79.2206 69.1179C79.3447 70.1698 79.4462 71.233 79.5139 72.2961C79.5206 72.4367 79.5589 72.574 79.6257 72.6978C79.6926 72.8216 79.7863 72.9287 79.9001 73.0113C80.0138 73.0938 80.1446 73.1497 80.2828 73.1747C80.4209 73.1997 80.5629 73.1932 80.6983 73.1557C87.6016 71.38 95.3058 65.3855 102.13 71.2669C103.901 72.7825 106.405 70.1359 104.623 68.6429C97.7986 62.9878 85.4471 65.1028 79.7507 71.6401L81.1946 71.7985L80.0666 68.9822C79.9651 68.5298 79.198 68.6429 79.2544 69.1179H79.2206Z" fill="#2E2221"/>
<path d="M84.0489 79.4889C84.0489 78.2221 83.6203 76.9554 83.5187 75.6773C83.5211 74.4601 83.4495 73.2439 83.3044 72.0354C83.2409 71.8302 83.1136 71.6508 82.9411 71.5233C82.7686 71.3959 82.5599 71.3271 82.3456 71.3271C82.1314 71.3271 81.9227 71.3959 81.7502 71.5233C81.5777 71.6508 81.4504 71.8302 81.3869 72.0354C81.2221 73.3402 81.3296 74.6652 81.7027 75.9261C81.8717 77.2805 82.3253 78.5835 83.0337 79.7491C83.099 79.8491 83.1947 79.9252 83.3067 79.9662C83.4187 80.0071 83.5409 80.0107 83.655 79.9764C83.7692 79.942 83.8692 79.8716 83.9402 79.7756C84.0112 79.6796 84.0493 79.5632 84.0489 79.4437V79.4889Z" fill="#2E2221"/>
<path d="M85.4251 77.046C86.2147 76.4014 85.7748 75.2138 85.6958 74.309C85.696 72.8175 85.5866 71.3281 85.3687 69.8527C85.3255 69.7442 85.2536 69.6495 85.1608 69.5788C85.068 69.508 84.9578 69.4639 84.8419 69.4511C84.7261 69.4384 84.6089 69.4574 84.503 69.5062C84.3971 69.555 84.3065 69.6318 84.2407 69.7283C83.5188 70.8594 83.8347 72.5333 84.0828 73.8339C84.2633 74.7501 84.252 76.6502 85.2108 77.046C85.2464 77.0681 85.2874 77.0797 85.3292 77.0797C85.3711 77.0797 85.4121 77.0681 85.4477 77.046H85.4251Z" fill="#2E2221"/>
<path d="M88.7979 76.684C88.9107 75.3782 88.9107 74.0651 88.7979 72.7593C88.9533 71.4489 88.9153 70.1226 88.6851 68.8233C88.6452 68.6945 88.5727 68.5784 88.4748 68.4861C88.3768 68.3937 88.2566 68.3285 88.126 68.2966C87.9953 68.2647 87.8587 68.2673 87.7293 68.3041C87.6 68.3409 87.4824 68.4106 87.3879 68.5066C86.384 69.4906 86.6547 71.0967 86.8352 72.3973C86.951 73.9225 87.3327 75.4155 87.9632 76.8084C88.0113 76.8837 88.08 76.9435 88.1612 76.9805C88.2424 77.0175 88.3325 77.0302 88.4207 77.0171C88.5089 77.0039 88.5915 76.9655 88.6584 76.9064C88.7253 76.8473 88.7738 76.77 88.7979 76.684Z" fill="#2E2221"/>
<path d="M92.757 75.2589C92.4637 73.0986 91.4824 70.7347 91.7756 68.5405C91.911 67.5905 90.9409 66.6065 89.9934 67.2398C88.4819 68.2578 88.7639 69.6829 89.1474 71.2776C89.5038 72.965 90.2279 74.5524 91.268 75.9262C91.3962 76.0425 91.5554 76.1189 91.7261 76.1461C91.8968 76.1733 92.0717 76.1501 92.2295 76.0794C92.3873 76.0086 92.5212 75.8934 92.6149 75.7477C92.7085 75.6021 92.7579 75.4322 92.757 75.2589Z" fill="#2E2221"/>
<path d="M95.9718 75.3489C96.4682 73.9012 96.0282 72.3856 96.141 70.8927C96.2538 69.3997 96.7953 68.0877 96.8968 66.6626C96.8901 66.4385 96.8324 66.2189 96.728 66.0206C96.6237 65.8223 96.4755 65.6506 96.2948 65.5185C96.1141 65.3864 95.9057 65.2975 95.6855 65.2586C95.4653 65.2197 95.2392 65.2318 95.0243 65.294C91.4599 66.6852 93.7272 72.7476 94.4039 75.3942C94.6183 76.2311 95.735 76.0615 95.9718 75.3942V75.3489Z" fill="#2E2221"/>
<path d="M99.1863 74.8401C99.4909 73.5846 99.5586 72.2952 99.9082 71.0284C100.258 69.7617 101.036 68.5967 100.867 67.3752C100.856 67.1482 100.786 66.928 100.665 66.7358C100.544 66.5436 100.375 66.3859 100.176 66.2779C99.9764 66.17 99.7525 66.1154 99.5258 66.1193C99.2992 66.1233 99.0774 66.1858 98.8818 66.3007C96.6258 67.6806 96.3776 72.6345 97.1447 74.8966C97.2358 75.0909 97.3801 75.2552 97.5609 75.3703C97.7417 75.4854 97.9514 75.5465 98.1655 75.5465C98.3796 75.5465 98.5893 75.4854 98.7701 75.3703C98.9509 75.2552 99.0952 75.0909 99.1863 74.8966V74.8401Z" fill="#2E2221"/>
<path d="M103.45 76.2885C104.454 75.689 104.127 74.2978 104.093 73.3025C104.037 71.8774 104.353 70.1809 103.879 68.7784C103.802 68.5874 103.675 68.4211 103.511 68.2973C103.347 68.1736 103.152 68.0971 102.948 68.0762C102.743 68.0552 102.537 68.0906 102.351 68.1785C102.166 68.2663 102.007 68.4034 101.894 68.5748C101.16 70.1922 101.634 72.3864 101.837 74.1056C101.916 74.7389 102.232 76.9784 103.45 76.2432V76.2885Z" fill="#2E2221"/>
<path d="M82.8194 63.0554C85.6732 62.1393 87.9743 60.6123 91.065 60.4653C93.1969 60.3748 95.3514 61.0874 97.4607 60.8159C97.9796 60.7481 98.1375 59.9903 97.5735 59.8545C92.2381 58.5878 86.632 58.2032 82.3456 62.2863C82.2808 62.3628 82.2417 62.458 82.2341 62.5581C82.2266 62.6582 82.2508 62.7582 82.3035 62.8437C82.3561 62.9291 82.4344 62.9956 82.5271 63.0337C82.6198 63.0717 82.7221 63.0793 82.8194 63.0554Z" fill="#2E2221"/>
</svg>
