<svg width="178" height="120" viewBox="0 0 178 120" fill="none" xmlns="http://www.w3.org/2000/svg">
	<path d="M150.456 107.79C150.37 108.188 150.213 108.567 149.994 108.91C150.125 109.46 150.128 110.032 150.004 110.583C149.879 111.134 149.631 111.65 149.277 112.091C148.924 112.531 148.474 112.885 147.963 113.126C147.451 113.366 146.892 113.487 146.327 113.478C125.727 113.478 105.369 116.618 84.8358 116.135C73.8552 115.85 63.0503 116.135 52.1357 116.333C47.1725 116.465 41.8359 117.189 36.8947 116.838C34.8962 116.706 32.1291 116.443 31.6899 114.027C31.6241 113.628 31.6578 113.218 31.7881 112.835C31.9183 112.452 32.1411 112.107 32.4366 111.831C28.8349 105.704 28.8349 95.7992 28.1761 89.167C27.3052 79.9397 27.1584 70.6584 27.7369 61.4081C28.1784 52.6927 29.3613 44.0307 31.2726 35.516C32.3946 31.2572 33.7509 27.0635 35.3354 22.9543C36.8288 18.7816 37.6413 14.4333 39.2006 10.2827C39.2867 10.059 39.3972 9.8454 39.53 9.64582C39.53 8.8113 41.1551 3.62848 41.9896 3.56259C47.0627 3.07945 56.44 9.73366 60.7664 11.9957C65.7735 14.631 69.8363 18.1008 74.9313 20.6044C80.4655 23.3715 82.1126 26.8414 87.9542 28.9277L89.6892 29.6085C89.6882 29.4175 89.7334 29.2292 89.8209 29.0594C89.8474 28.8677 89.923 28.6861 90.0405 28.5324C90.1375 28.3699 90.2734 28.2341 90.4358 28.1371C90.6335 27.9328 90.8846 27.7882 91.1605 27.7198H91.7535H92.3465L92.8735 27.9175C93.01 28.0464 93.157 28.1639 93.3127 28.2688C93.4226 28.4006 93.5543 28.5324 93.6641 28.6861C96.1897 26.7755 98.5395 24.6672 101.285 22.9543C105.106 20.5605 109.344 19.5942 113.385 17.7055C121.05 14.1478 127.023 5.93439 135.522 4.15554C140.968 2.9916 143.933 12.1055 140.902 15.1361C143.795 20.6953 146.204 26.4923 148.106 32.4634C150.848 40.2357 152.381 48.383 152.652 56.6206C153.486 73.5087 154.65 91.0776 150.456 107.79Z" fill="#FFD400"/>
	<path d="M40.101 2.33286L39.7935 2.17913H39.53C38.8053 1.89364 37.7072 1.5203 36.7849 1.125C36.7849 1.125 36.7849 1.125 36.6092 1.125L35.6209 1.89364L35.3135 2.11325C34.6766 2.61836 33.8201 3.27719 32.8319 4.00191C32.5933 3.88214 32.3301 3.81977 32.0632 3.81977C31.7963 3.81977 31.5331 3.88214 31.2946 4.00191L29.6914 4.85839L28.0004 5.82468C27.3933 5.5871 26.7189 5.5871 26.1118 5.82468C25.4706 6.09224 24.8471 6.40032 24.2451 6.74704C21.6742 8.47426 19.1964 10.3362 16.8222 12.3252C15.3416 13.1884 13.9251 14.1572 12.5837 15.224C12.1003 15.6087 11.7349 16.1216 11.5291 16.7041C11.3233 17.2866 11.2854 17.9152 11.4198 18.5182H11.2221L10.9806 18.8476L10.5853 18.9574C9.81254 19.0613 9.11108 19.4633 8.63073 20.0774H8.41112C8.22426 20.0306 8.02767 20.0408 7.84661 20.1065C7.66554 20.1723 7.50826 20.2907 7.39496 20.4464C7.28166 20.6022 7.21751 20.7883 7.21074 20.9809C7.20397 21.1734 7.2549 21.3635 7.35699 21.5269C7.34978 21.5779 7.34978 21.6296 7.35699 21.6806C7.53888 22.068 7.75963 22.4359 8.01582 22.7787C8.17009 23.4161 8.47638 24.0067 8.90853 24.5001C9.34068 24.9934 9.88584 25.3748 10.4974 25.6116C11.5076 26.556 12.6935 27.4783 13.6379 28.4007C14.6425 29.2745 15.5957 30.2058 16.4928 31.1898L17.2175 32.0682C18.6509 33.7995 19.9434 35.6428 21.0827 37.5804C22.2247 39.4911 23.2788 41.4456 24.3329 43.4001C24.3436 43.4656 24.3436 43.5323 24.3329 43.5978C24.2913 43.944 24.3549 44.2946 24.5155 44.6041C24.6762 44.9136 24.9263 45.1675 25.2333 45.3327C25.6131 45.5172 26.0299 45.6131 26.4522 45.6131C26.8744 45.6131 27.2912 45.5172 27.671 45.3327L28.1542 45.0911C28.6074 44.8133 28.9564 44.3937 29.147 43.8974C29.3376 43.4011 29.3591 42.8558 29.2083 42.346C28.9667 41.6872 28.7251 41.0503 28.4397 40.4354C28.1542 39.8205 28.0663 39.6228 27.8687 39.2275C28.6258 37.776 29.2576 36.2625 29.7573 34.7035C30.0648 33.7812 30.3503 32.8149 30.6138 31.8266C31.1189 30.0258 31.5581 28.1591 32.0193 26.3803C32.2609 25.5018 32.4805 24.6234 32.744 23.7669C33.5786 21.3073 35.1378 17.5519 36.697 13.7966C38.178 10.4056 39.3397 6.88386 40.1669 3.27719C40.1669 2.96973 40.2108 2.68424 40.2986 2.42071L40.101 2.33286ZM18.8207 22.6908H18.9305H18.8207Z" fill="#FFD400"/>
	<path d="M167.102 28.8397C165.697 27.1268 173.163 22.4051 171.494 20.802C168.641 18.3709 165.601 16.168 162.402 14.2136C160.207 13.1935 158.185 11.8376 156.407 10.1947C155.039 8.54765 153.161 7.40386 151.07 6.9445C149.709 4.74839 149.116 6.65901 147.381 4.74839C147.381 0.6197 147.117 7.38372 147.381 6.9445C147.645 6.50528 146.393 5.58291 145.756 5.14369C144.943 4.37505 143.955 0.905195 142.747 1.10284C141.539 1.30049 139.804 2.17894 138.728 2.39855C137.652 2.61816 139.409 6.79077 140.31 7.09823L141.078 7.38372C140.971 7.74185 140.971 8.12364 141.078 8.48178C141.479 9.76076 141.956 11.0148 142.506 12.2371C142.829 16.254 143.8 20.1921 145.383 23.8985C147.337 29.7621 149.621 35.5159 151.663 41.4674C151.828 41.8932 152.107 42.2652 152.47 42.5427C152.832 42.8201 153.265 42.9921 153.719 43.0398C154.173 43.0875 154.631 43.009 155.043 42.8129C155.456 42.6168 155.806 42.3108 156.056 41.9285C157.343 39.699 159.105 37.7797 161.217 36.3065C161.786 36.2201 162.317 35.9646 162.74 35.573C163.163 35.1815 163.458 34.6719 163.588 34.1104C164.818 32.9245 167.959 29.8939 167.102 28.8397Z" fill="#FFD400"/>
	<path d="M96.8265 48.2974L96.4751 48.0338C96.2804 47.9031 96.0508 47.8342 95.8163 47.8362C95.6656 47.7929 95.5058 47.7929 95.3551 47.8362C95.1264 47.8642 94.9079 47.947 94.7182 48.0778L94.3449 48.3852C94.1731 48.5488 94.0448 48.7526 93.9716 48.9782C93.9286 49.1364 93.9286 49.3031 93.9716 49.4613C93.9278 49.6268 93.9278 49.8009 93.9716 49.9664C93.9985 50.209 94.0812 50.442 94.2131 50.6472L94.5206 51.0206L94.9159 51.3061C95.1185 51.4373 95.3553 51.5061 95.5967 51.5037C95.7605 51.5589 95.9379 51.5589 96.1018 51.5037C96.2653 51.5072 96.426 51.4613 96.563 51.3719C96.7913 51.2933 96.9955 51.1572 97.1559 50.9766L97.4414 50.5813L97.6171 50.1421V49.637C97.638 49.3898 97.5762 49.1426 97.4414 48.9343C97.3887 48.7912 97.3069 48.6608 97.201 48.5511C97.0951 48.4415 96.9676 48.3551 96.8265 48.2974Z" fill="#362C1A"/>
	<path d="M96.8265 56.729L96.4751 56.4654C96.2804 56.3347 96.0508 56.2658 95.8163 56.2678C95.6658 56.2232 95.5056 56.2232 95.3551 56.2678C95.1264 56.2957 94.9079 56.3786 94.7182 56.5094L94.3449 56.8168C94.1684 56.9764 94.0392 57.1816 93.9716 57.4098C93.9286 57.5679 93.9286 57.7347 93.9716 57.8929C93.9275 58.0509 93.9275 58.218 93.9716 58.376C93.9951 58.6262 94.0779 58.8671 94.2131 59.0788L94.5206 59.4521L94.9159 59.7157C95.1166 59.8535 95.3532 59.9299 95.5967 59.9353C95.7622 59.979 95.9363 59.979 96.1018 59.9353C96.2653 59.9388 96.426 59.8928 96.563 59.8035C96.7913 59.7249 96.9955 59.5887 97.1559 59.4082L97.4414 59.0129L97.6171 58.5737V58.0686C97.638 57.8144 97.5764 57.5603 97.4414 57.3439C97.3851 57.2056 97.3017 57.0799 97.1961 56.9743C97.0905 56.8687 96.9648 56.7853 96.8265 56.729Z" fill="#362C1A"/>
	<path d="M156.451 69.9287C156.191 68.4762 156.191 66.989 156.451 65.5365C156.349 65.4803 156.237 65.4431 156.121 65.4267C156.121 65.1192 156.121 64.7898 156.121 64.4823C156.121 63.9333 156.121 63.3843 156.121 62.8133C156.121 62.2862 156.121 61.7591 156.012 61.2321C155.902 60.705 156.012 59.6289 155.836 58.8383L155.638 56.4885C155.638 55.6759 155.485 54.8414 155.397 54.0069C155.243 52.7771 155.045 51.5253 154.87 50.2735C154.353 49.3978 153.968 48.4506 153.728 47.4625C153.37 45.6104 153.296 43.7147 153.508 41.8404C153.442 41.9155 153.384 41.9964 153.332 42.082C153.332 41.5988 153.113 41.1157 153.025 40.6545V40.3471C153.023 40.3105 153.023 40.2738 153.025 40.2373C152.849 39.4027 152.674 38.5463 152.476 37.6898C151.513 33.4303 150.333 29.2229 148.94 25.0841C148.56 23.986 148.164 22.888 147.754 21.7899C147.359 20.7138 146.942 19.5938 146.503 18.5836C145.75 15.9175 144.78 13.3174 143.604 10.8094C142.374 7.93247 141.408 4.96772 139.826 2.20062C139.826 2.20062 139.717 2.00297 139.673 1.91513C139.594 1.74328 139.477 1.59158 139.331 1.47142C139.184 1.35127 139.013 1.26579 138.829 1.22141C138.645 1.17702 138.454 1.17489 138.269 1.21516C138.084 1.25544 137.911 1.33708 137.762 1.45394C137.571 1.37113 137.366 1.32839 137.158 1.32839C136.95 1.32839 136.745 1.37113 136.554 1.45394C133.891 2.42987 131.337 3.68112 128.934 5.18733C127.309 6.13166 125.727 7.11991 124.146 8.02032C119.249 10.6117 114.483 13.4447 109.806 16.2997C108.18 17.2879 106.533 18.342 104.908 19.3962C100.038 22.7794 94.896 25.7543 89.5354 28.2904C86.4765 26.879 83.5385 25.219 80.751 23.3272C77.0615 20.9115 73.4819 18.2762 69.9461 15.9922C64.9829 12.9396 60.1734 9.88701 55.2761 6.94422L55.0345 6.76853L53.2557 5.69244C49.9346 3.43176 46.369 1.55317 42.6265 0.0923553C42.3855 0.0054903 42.1268 -0.0206437 41.8732 0.0162644C41.6197 0.0531725 41.3792 0.151985 41.1729 0.303965C40.9667 0.455944 40.801 0.656407 40.6907 0.887625C40.5803 1.11884 40.5286 1.37369 40.5402 1.62963C40.3811 1.8557 40.2345 2.0903 40.101 2.33239C39.9253 2.57396 39.7716 2.83749 39.5959 3.10103C36.799 7.76057 34.5863 12.7466 33.0075 17.9467L32.9417 18.4958C32.4585 19.6597 31.9973 20.8017 31.5581 21.9656C30.4381 24.9084 29.4938 27.8951 28.6373 30.9038L28.1761 32.5728C27.3855 35.4497 26.7267 38.3486 26.1337 41.3573C25.8702 42.7189 25.6066 44.0805 25.387 45.442C25.387 45.8154 25.2553 46.1887 25.2113 46.5621V46.4083C22.5966 39.7722 18.7267 33.7026 13.8135 28.532C11.7492 26.1821 9.61896 23.9421 7.53266 21.8119C8.58679 20.6699 9.77269 19.7475 10.9806 18.8471L11.4417 18.5177C12.2763 17.8809 13.1327 17.244 13.9892 16.651C17.3259 14.2265 20.7858 11.9762 24.3549 9.90897C24.4197 9.85236 24.494 9.80774 24.5745 9.7772C26.3972 8.67915 28.1761 7.58109 30.0428 6.41715L30.7455 6.04382C32.3926 5.07753 33.9958 4.1332 35.5989 3.10103C35.7437 2.98924 35.8509 2.83604 35.9064 2.6618C35.9394 2.547 35.9394 2.42524 35.9064 2.31043C35.9136 2.25944 35.9136 2.20769 35.9064 2.1567C35.8841 2.105 35.851 2.05866 35.8093 2.02079C35.7677 1.98292 35.7184 1.95438 35.6648 1.93709C35.495 1.87302 35.3076 1.87302 35.1378 1.93709L33.4907 2.17866C31.4703 2.81553 29.4938 3.54025 27.5392 4.37477L26.3533 4.74811L24.86 5.4289L23.6741 5.99989L23.2129 6.24147L22.7078 6.57088C19.5454 8.21259 16.4738 10.0233 13.5061 11.9953C11.5955 13.1592 9.75073 14.4988 7.94992 15.8165C6.91775 16.5632 5.90754 17.3099 4.91929 18.0126C3.11848 19.484 1.71297 20.604 0 22.0754C1.21191 22.9547 2.34366 23.9395 3.38201 25.0182C5.31459 27.368 7.44481 29.63 9.597 31.914C15.3728 37.9972 21.3242 44.1244 24.2011 51.9206V52.0523C24.2011 52.2719 24.2011 52.4916 24.2011 52.7112C24.2011 52.7112 23.6741 59.6289 23.5643 60.0681C23.1036 68.6781 23.1036 77.3064 23.5643 85.9164C23.5643 86.136 23.5643 86.3775 23.5643 86.5972C24.4067 97.6354 26.073 108.595 28.5494 119.385C30.1494 119.045 31.8029 119.045 33.4028 119.385C33.4028 119.385 33.4028 119.385 33.4028 119.253C50.2909 118.397 67.179 119.868 84.0671 120C87.9323 120 91.8194 120 95.7065 119.846L98.5395 119.715C114.242 118.836 130.295 116.332 146.019 117.848C147.004 117.811 147.989 117.922 148.94 118.177C149.567 118.358 150.177 118.593 150.763 118.88C150.763 118.463 150.939 118.067 151.048 117.65C151.422 115.893 151.773 114.136 152.125 112.358C152.278 111.479 152.454 110.601 152.608 109.722C152.761 108.844 152.937 107.943 153.091 107.065C153.684 103.507 154.211 99.9495 154.65 96.3918C154.64 96.3559 154.64 96.3179 154.65 96.282C154.826 94.7008 155.023 93.0976 155.177 91.4945C155.887 84.7987 156.202 78.067 156.121 71.3342L156.407 71.5318C156.385 71.1515 156.385 70.7702 156.407 70.3899C156.407 70.3899 156.451 69.9946 156.451 69.9287ZM93.3786 28.3563L95.0037 27.5657C99.2642 25.3696 103.415 22.8441 107.522 20.5162L109.366 19.484L110.464 18.8691L118.744 14.4769L124.519 11.4023C128.648 9.20621 133.304 7.4054 137.235 4.96772C138.343 9.2098 139.722 13.3764 141.364 17.4416C135.236 23.0198 128.78 28.4222 122.17 33.4293C117.338 37.2066 112.441 40.8522 107.544 44.4099C102.317 38.9855 95.9481 34.7909 90.3919 29.7179C91.468 29.2347 92.4343 28.7955 93.3786 28.3563ZM39.9692 11.2486C40.8696 8.8768 41.9237 6.57088 42.8461 4.19908C46.6234 6.39519 50.7741 8.15208 54.5733 10.2603C59.6464 13.0714 64.6535 15.9922 69.6826 19.0448C72.6913 20.8017 75.7658 22.8221 78.8623 24.7327C81.9468 26.6851 85.1859 28.3818 88.5472 29.8057C82.9691 34.9666 76.9298 39.7102 71.6591 45.1785C69.7046 43.7291 67.75 42.2796 65.7955 40.7863C56.1106 33.5391 46.5136 26.0065 37.5974 17.8809C38.4539 15.6628 39.1567 13.4227 39.9692 11.2486ZM150.609 86.8607C150.287 90.9162 149.855 94.9643 149.314 99.0052C148.94 101.772 148.545 104.517 148.084 107.263C147.732 109.305 147.359 111.369 146.964 113.412C146.974 113.499 146.974 113.588 146.964 113.675C146.634 113.675 146.261 113.543 145.888 113.478C139.585 112.511 132.711 113.346 126.452 113.697C120.962 114.005 115.471 114.444 109.959 114.883C106.511 115.147 103.085 115.432 99.6375 115.652C95.2453 115.937 90.8531 116.091 86.4609 116.157C81.9808 116.157 77.4934 116.157 72.9987 116.157H66.8935H66.652C55.8032 115.981 44.9544 115.805 34.1056 116.53H32.9636L32.8319 115.849C32.5903 114.598 32.3267 113.368 32.1071 112.116C32.1071 111.611 31.9095 111.106 31.8216 110.579C31.2946 107.57 30.7895 104.561 30.3722 101.553C29.9549 98.544 29.5816 95.7549 29.2742 92.7682L29.1424 91.4066C28.3748 83.7235 28.0668 76.0014 28.22 68.2816C28.22 64.8996 28.4177 61.5176 28.6373 58.1356C28.6373 56.9497 28.8349 55.7857 28.9228 54.5998C29.5766 47.5407 30.7065 40.5338 32.3048 33.627C32.9197 30.9038 33.6225 28.1806 34.5009 25.4794C34.4988 25.4428 34.4988 25.4062 34.5009 25.3696C34.5008 25.3042 34.5008 25.3042 34.5008 25.2393C34.8303 24.1178 35.1597 23.0417 35.5111 21.8778H35.6648C41.8798 27.1924 48.4023 32.1336 55.1224 36.8113C56.44 37.7117 57.7357 38.6341 59.0754 39.5345L64.5876 43.202C66.7837 44.6514 68.9798 46.0789 71.1759 47.4844C71.3939 47.615 71.6517 47.6625 71.9019 47.6181C72.1521 47.5737 72.3778 47.4405 72.5375 47.2429C72.8682 47.2393 73.184 47.1051 73.416 46.8695C78.5109 42.0161 83.7157 37.2286 88.5691 32.1336C88.0461 43.3734 88.112 54.6329 88.7668 65.8659C88.7668 66.093 88.857 66.3109 89.0176 66.4715C89.1783 66.6321 89.3961 66.7224 89.6233 66.7224C89.8504 66.7224 90.0683 66.6321 90.2289 66.4715C90.3895 66.3109 90.4798 66.093 90.4798 65.8659C91.1275 54.75 91.1935 43.6078 90.6774 32.485C95.5308 37.3384 100.955 41.6208 106.05 46.3424C106.274 46.5614 106.572 46.6871 106.885 46.6938C107.052 46.8969 107.291 47.0281 107.553 47.0608C107.814 47.0935 108.078 47.025 108.29 46.8695C113.737 43.4655 119.139 39.9298 124.41 36.2184L128.363 33.4293C133.633 29.5934 138.758 25.5819 143.735 21.3946C143.797 21.5449 143.848 21.6989 143.889 21.8558V22.1413C144.043 22.5586 144.175 22.9758 144.306 23.3931C144.899 25.4135 145.47 27.4339 145.997 29.4763C146.059 29.6712 146.11 29.8691 146.151 30.0693C146.349 30.772 146.524 31.4967 146.678 32.2654C147.03 33.7148 147.359 35.1642 147.666 36.6576C147.842 37.4189 147.996 38.151 148.128 38.8537C148.852 42.4993 149.423 46.1887 149.885 49.8343C150.346 53.4798 150.631 57.1693 150.851 60.8148C151.027 63.8015 151.136 66.8102 151.158 69.8189C151.246 75.558 151.063 81.2386 150.609 86.8607Z" fill="#362C1A"/>
	<path d="M172.878 18.1001C171.868 17.3095 170.879 16.5629 169.847 15.904C168.024 14.5864 166.18 13.3126 164.291 12.0828C161.315 10.0855 158.236 8.2456 155.067 6.57055L154.496 6.2631L154.035 6.02152L152.849 5.45053L151.356 4.76974L150.368 4.37444C148.413 3.56188 146.415 2.83716 144.394 2.17833L142.945 1.69518C142.768 1.6296 142.573 1.6296 142.396 1.69518C142.291 1.73648 142.205 1.81459 142.154 1.9148C142.147 1.96579 142.147 2.01753 142.154 2.06852C142.132 2.18462 142.132 2.30381 142.154 2.4199C142.218 2.5957 142.333 2.74857 142.484 2.85912C144.065 3.8913 145.69 4.83562 147.315 5.80191L147.952 6.17525C149.797 7.27331 151.576 8.37136 153.42 9.5353C153.498 9.57101 153.572 9.6152 153.64 9.66707C157.198 11.7314 160.646 14.0593 164.006 16.4091C164.862 17.0021 165.719 17.6389 166.553 18.2758L166.992 18.6052C168.2 19.5056 169.386 20.428 170.528 21.3723C168.464 23.5684 166.311 25.7646 164.269 28.0924C159.409 33.2623 155.585 39.3156 153.003 45.9249C153.006 45.9761 153.006 46.0274 153.003 46.0786V45.815C152.687 46.6552 152.267 47.4521 151.751 48.1868C151.751 48.5821 151.751 48.9994 151.751 49.4606C152.621 49.7677 153.459 50.1574 154.255 50.6245C157.242 43.2676 163.039 37.4479 168.486 31.5184C170.682 29.3223 172.878 26.9724 174.701 24.6226C175.696 23.6941 176.761 22.8425 177.885 22.0751C176.062 20.6037 174.657 19.4837 172.878 18.1001Z" fill="#362C1A"/>
</svg>