<svg width="140" height="56" viewBox="0 0 140 56" fill="none" xmlns="http://www.w3.org/2000/svg">
<path d="M30.5441 55.8922C45.5025 55.8922 58.4152 45.939 58.4152 30.9403C58.4152 15.9415 34.0555 2.99414 19.0971 2.99414C4.1387 2.99414 3.17085 12.1588 3.17085 27.1575C1.17998 41.9191 15.5857 55.8922 30.5441 55.8922Z" fill="url(#paint0_linear)"/>
<path d="M109.493 55.8922C94.5346 55.8922 81.6219 45.939 81.6219 30.9403C81.6219 15.9415 105.982 2.99414 120.94 2.99414C135.898 2.99414 136.866 12.1588 136.866 27.1575C138.857 41.9191 124.451 55.8922 109.493 55.8922Z" fill="url(#paint1_linear)"/>
<path d="M109.493 55.8922C94.5346 55.8922 81.6219 45.939 81.6219 30.9403C81.6219 15.9415 105.982 2.99414 120.94 2.99414C135.898 2.99414 136.866 12.1588 136.866 27.1575C138.857 41.9191 124.451 55.8922 109.493 55.8922Z" fill="url(#paint2_linear)"/>
<path d="M30.5441 54.8941C45.5025 54.8941 58.4152 44.941 58.4152 29.9422C58.4152 14.9435 34.0555 1.99609 19.0971 1.99609C4.1387 1.99609 3.17085 11.1608 3.17085 26.1595C1.17998 40.9211 15.5857 54.8941 30.5441 54.8941Z" fill="url(#paint3_linear)"/>
<path d="M30.5441 54.8941C45.5025 54.8941 58.4152 44.941 58.4152 29.9422C58.4152 14.9435 34.0555 1.99609 19.0971 1.99609C4.1387 1.99609 3.17085 11.1608 3.17085 26.1595C1.17998 40.9211 15.5857 54.8941 30.5441 54.8941Z" fill="url(#paint4_linear)"/>
<path opacity="0.25" d="M33.7537 49.7241C38.6519 49.7241 42.6227 45.7427 42.6227 40.8313C42.6227 35.9199 38.6519 31.9385 33.7537 31.9385C28.8555 31.9385 24.8848 35.9199 24.8848 40.8313C24.8848 45.7427 28.8555 49.7241 33.7537 49.7241Z" fill="white"/>
<path opacity="0.25" d="M112.389 49.7241C117.288 49.7241 121.258 45.7427 121.258 40.8313C121.258 35.9199 117.288 31.9385 112.389 31.9385C107.491 31.9385 103.521 35.9199 103.521 40.8313C103.521 45.7427 107.491 49.7241 112.389 49.7241Z" fill="white"/>
<mask id="path-8-inside-1" fill="white">
<path d="M82.6415 23.3552C84.3934 21.1295 86.3443 18.9736 88.2654 16.8877C90.8877 14.2019 93.8691 11.8943 97.1244 10.0309C103.119 6.14489 110.04 3.93611 117.172 3.63321C121.014 3.51344 124.856 3.80289 128.678 4.06239C131.197 4.24204 131.157 0.139945 128.589 0.0700798C121.621 -0.0696509 114.653 -0.159478 107.964 1.99637C104.195 3.25481 100.587 4.95322 97.214 7.05661C93.7998 9.15257 90.2463 11.4481 87.5288 14.4623C85.1854 16.871 83.137 19.5515 81.4271 22.4469C81.0389 23.1855 82.094 24.0439 82.6415 23.3352V23.3552Z"/>
</mask>
<path d="M82.6415 23.3552H73.6415V49.3407L89.7135 28.9217L82.6415 23.3552ZM88.2654 16.8877L81.8258 10.6003L81.7341 10.6942L81.6452 10.7907L88.2654 16.8877ZM97.1244 10.0309L101.596 17.8417L101.811 17.7181L102.02 17.5828L97.1244 10.0309ZM117.172 3.63321L116.891 -5.36242L116.84 -5.36084L116.79 -5.35868L117.172 3.63321ZM128.678 4.06239L129.319 -4.9148L129.303 -4.9159L129.288 -4.91694L128.678 4.06239ZM128.589 0.0700798L128.833 -8.92659L128.801 -8.92747L128.769 -8.92811L128.589 0.0700798ZM107.964 1.99637L105.203 -6.56972L105.159 -6.55525L105.114 -6.54031L107.964 1.99637ZM97.214 7.05661L101.923 14.7266L101.949 14.7102L101.976 14.6936L97.214 7.05661ZM87.5288 14.4623L93.9796 20.7383L94.0989 20.6157L94.2134 20.4887L87.5288 14.4623ZM81.4271 22.4469L73.6776 17.8704L73.5642 18.0623L73.4605 18.2596L81.4271 22.4469ZM82.6415 23.3352H91.6415V-3.03542L75.5194 17.8329L82.6415 23.3352ZM89.7135 28.9217C91.2309 26.9939 92.974 25.0604 94.8857 22.9846L81.6452 10.7907C79.7147 12.8869 77.5558 15.2651 75.5694 17.7887L89.7135 28.9217ZM94.705 23.1751C96.7453 21.0854 99.0644 19.2906 101.596 17.8417L92.6532 2.22008C88.6739 4.49799 85.0301 7.31846 81.8258 10.6003L94.705 23.1751ZM102.02 17.5828C106.667 14.5706 112.029 12.8597 117.553 12.6251L116.79 -5.35868C108.05 -4.9875 99.5708 -2.28083 92.2286 2.47896L102.02 17.5828ZM117.452 12.6288C120.754 12.5259 124.103 12.7725 128.069 13.0417L129.288 -4.91694C125.609 -5.16673 121.274 -5.49903 116.891 -5.36242L117.452 12.6288ZM128.038 13.0396C131.375 13.2776 134.658 12.0104 136.908 9.39624C138.928 7.05037 139.576 4.2724 139.54 2.01595C139.47 -2.31887 136.302 -8.72342 128.833 -8.92659L128.344 9.06675C126.355 9.01266 124.422 8.06884 123.119 6.50192C121.968 5.11715 121.562 3.57643 121.542 2.30365C121.522 1.05901 121.868 -0.722757 123.267 -2.34784C124.897 -4.24116 127.241 -5.06301 129.319 -4.9148L128.038 13.0396ZM128.769 -8.92811C121.998 -9.06391 113.543 -9.25748 105.203 -6.56972L110.725 10.5625C115.764 8.93853 121.244 8.9246 128.408 9.06827L128.769 -8.92811ZM105.114 -6.54031C100.674 -5.05793 96.4245 -3.05746 92.4519 -0.580321L101.976 14.6936C104.75 12.9639 107.717 11.5676 110.815 10.533L105.114 -6.54031ZM92.5054 -0.613399C89.1271 1.46054 84.5307 4.34698 80.8443 8.43597L94.2134 20.4887C95.9618 18.5493 98.4725 16.8446 101.923 14.7266L92.5054 -0.613399ZM81.0781 8.18639C78.2354 11.1082 75.7511 14.3593 73.6776 17.8704L89.1766 27.0235C90.523 24.7438 92.1354 22.6338 93.9796 20.7383L81.0781 8.18639ZM73.4605 18.2596C70.6701 23.5687 73.4933 28.4873 76.1943 30.5661C77.6823 31.7112 79.8887 32.7108 82.5707 32.5902C85.5244 32.4573 88.0973 30.9944 89.7636 28.8375L75.5194 17.8329C76.9119 16.0304 79.1477 14.726 81.7617 14.6084C84.104 14.503 85.9683 15.3747 87.1725 16.3015C89.3062 17.9436 91.796 22.0638 89.3937 26.6343L73.4605 18.2596ZM73.6415 23.3352V23.3552H91.6415V23.3352H73.6415Z" fill="#5887ff" mask="url(#path-8-inside-1)"/>
<mask id="path-10-inside-2" fill="white">
<path d="M81.4967 22.7869C79.5059 30.3523 79.7747 39.2551 84.0449 46.082C88.5142 53.2282 98.06 54.9549 105.804 55.5537C114.205 56.1925 123.184 55.9729 129.972 50.2939C136.99 44.4252 139.847 34.5642 139.379 25.6813C139.071 20.8419 138.082 16.0705 136.442 11.5086C135.154 7.99838 133.294 4.72682 130.938 1.82727C130.603 1.31768 130.086 0.956085 129.494 0.816848C128.901 0.677612 128.278 0.771324 127.753 1.07871C127.232 1.40405 126.862 1.92267 126.722 2.52117C126.582 3.11966 126.684 3.74935 127.006 4.27256C128.839 6.38648 130.382 8.73604 131.595 11.2591C133.09 14.7835 134.182 18.4666 134.85 22.2379C136.343 30.2225 135.059 39.2052 129.793 45.6528C127.361 48.5486 124.125 50.6539 120.496 51.7011C116.813 52.839 112.742 52.799 108.92 52.6992C105.102 52.6509 101.3 52.2094 97.5723 51.3818C93.9292 50.5134 90.1367 49.1261 87.489 46.3914C85.3413 43.9027 83.8765 40.8965 83.2387 37.6682C82.2491 32.8274 82.0775 27.8543 82.731 22.9565C82.8007 22.2379 81.6759 22.1681 81.4967 22.8268V22.7869Z"/>
</mask>
<path d="M81.4967 22.7869H90.4967L72.793 20.4966L81.4967 22.7869ZM84.0449 46.082L91.6755 41.3097L91.6752 41.3092L84.0449 46.082ZM105.804 55.5537L105.11 64.5269L105.122 64.5278L105.804 55.5537ZM129.972 50.2939L124.199 43.3899L124.197 43.3908L129.972 50.2939ZM139.379 25.6813L148.366 25.208L148.364 25.159L148.361 25.11L139.379 25.6813ZM136.442 11.5086L144.912 8.46388L144.902 8.43604L144.891 8.40826L136.442 11.5086ZM130.938 1.82727L123.415 6.76825L123.666 7.14939L123.953 7.50328L130.938 1.82727ZM127.753 1.07871L123.21 -6.69052L123.094 -6.6228L122.98 -6.55167L127.753 1.07871ZM127.006 4.27256L119.34 8.98771L119.725 9.61309L120.206 10.1679L127.006 4.27256ZM131.595 11.2591L139.88 7.74311L139.797 7.54926L139.706 7.35947L131.595 11.2591ZM134.85 22.2379L125.987 23.806L125.995 23.8491L126.003 23.8922L134.85 22.2379ZM129.793 45.6528L136.685 51.4415L136.725 51.3938L136.764 51.3457L129.793 45.6528ZM120.496 51.7011L118 43.0541L117.92 43.0774L117.84 43.1022L120.496 51.7011ZM108.92 52.6992L109.155 43.7023L109.094 43.7007L109.034 43.6999L108.92 52.6992ZM97.5723 51.3818L95.4856 60.1365L95.5534 60.1527L95.6215 60.1678L97.5723 51.3818ZM87.489 46.3914L80.6754 52.2714L80.8437 52.4665L81.023 52.6517L87.489 46.3914ZM83.2387 37.6682L92.0679 35.9236L92.0622 35.8946L92.0563 35.8657L83.2387 37.6682ZM82.731 22.9565L91.6519 24.1469L91.6734 23.9863L91.689 23.8251L82.731 22.9565ZM81.4967 22.8268H72.4967L90.1812 25.1889L81.4967 22.8268ZM72.793 20.4966C70.3971 29.6015 70.4195 41.2702 76.4147 50.8547L91.6752 41.3092C89.1299 37.2401 88.6147 31.1031 90.2004 25.0772L72.793 20.4966ZM76.4143 50.8542C80.0735 56.705 85.5812 59.9286 90.6651 61.7472C95.7026 63.5492 100.962 64.2062 105.11 64.5269L106.498 46.5805C102.902 46.3024 99.5167 45.7966 96.7278 44.799C93.9854 43.818 92.4857 42.6052 91.6755 41.3097L76.4143 50.8542ZM105.122 64.5278C113.636 65.1752 125.969 65.3765 135.747 57.1969L124.197 43.3908C120.398 46.5694 114.774 47.2098 106.487 46.5796L105.122 64.5278ZM135.746 57.1978C145.597 48.9596 148.931 35.93 148.366 25.208L130.391 26.1546C130.762 33.1984 128.383 39.8908 124.199 43.3899L135.746 57.1978ZM148.361 25.11C147.999 19.4264 146.838 13.8223 144.912 8.46388L127.973 14.5533C129.327 18.3187 130.143 22.2575 130.397 26.2526L148.361 25.11ZM144.891 8.40826C143.261 3.96518 140.906 -0.176855 137.922 -3.84874L123.953 7.50328C125.682 9.63049 127.047 12.0316 127.993 14.609L144.891 8.40826ZM138.46 -3.11371C136.863 -5.54544 134.393 -7.27708 131.553 -7.94447L127.435 9.57816C125.78 9.18925 124.343 8.18081 123.415 6.76825L138.46 -3.11371ZM131.553 -7.94447C128.712 -8.61197 125.726 -8.16205 123.21 -6.69052L132.296 8.84794C130.83 9.7047 129.09 9.96719 127.435 9.57816L131.553 -7.94447ZM122.98 -6.55167C120.44 -4.96328 118.638 -2.4359 117.958 0.472683L135.486 4.56965C135.086 6.28124 134.024 7.77139 132.525 8.70909L122.98 -6.55167ZM117.958 0.472683C117.278 3.38086 117.774 6.44165 119.34 8.98771L134.672 -0.442586C135.594 1.05704 135.886 2.85847 135.486 4.56965L117.958 0.472683ZM120.206 10.1679C121.514 11.6773 122.617 13.3557 123.483 15.1587L139.706 7.35947C138.147 4.11642 136.163 1.09565 133.806 -1.62274L120.206 10.1679ZM123.31 14.7751C124.54 17.6738 125.438 20.7035 125.987 23.806L143.712 20.6699C142.926 16.2298 141.641 11.8931 139.88 7.74311L123.31 14.7751ZM126.003 23.8922C127.155 30.0533 125.966 36.111 122.822 39.9599L136.764 51.3457C144.152 42.2994 145.53 30.3918 143.696 20.5836L126.003 23.8922ZM122.902 39.8641C121.617 41.394 119.91 42.503 118 43.0541L122.992 60.3482C128.339 58.8048 133.105 55.7032 136.685 51.4415L122.902 39.8641ZM117.84 43.1022C115.768 43.7421 113.128 43.806 109.155 43.7023L108.685 61.6962C112.357 61.792 117.858 61.9358 123.153 60.3001L117.84 43.1022ZM109.034 43.6999C105.834 43.6594 102.647 43.2894 99.5231 42.5957L95.6215 60.1678C99.9523 61.1294 104.37 61.6423 108.806 61.6985L109.034 43.6999ZM99.659 42.627C96.4702 41.867 94.7679 40.9708 93.9549 40.1311L81.023 52.6517C85.5055 57.2815 91.3882 59.1599 95.4856 60.1365L99.659 42.627ZM94.3026 40.5114C93.1749 39.2046 92.4039 37.6238 92.0679 35.9236L74.4094 39.4128C75.3492 44.1692 77.5078 48.6009 80.6754 52.2714L94.3026 40.5114ZM92.0563 35.8657C91.2681 32.0098 91.1314 28.0483 91.6519 24.1469L73.8101 21.7662C73.0236 27.6603 73.2301 33.645 74.421 39.4707L92.0563 35.8657ZM91.689 23.8251C91.9565 21.0659 91.0256 18.2212 88.9196 16.1396C87.0287 14.2706 84.7601 13.559 82.966 13.4072C79.7557 13.1356 74.378 14.7081 72.8122 20.4647L90.1812 25.1889C88.7946 30.2868 84.0689 31.5648 81.4484 31.3431C79.9492 31.2163 77.9599 30.6157 76.2659 28.9413C74.3568 27.0543 73.5403 24.4879 73.773 22.088L91.689 23.8251ZM90.4967 22.8268V22.7869H72.4967V22.8268H90.4967Z" fill="#5887ff" mask="url(#path-10-inside-2)"/>
<mask id="path-12-inside-3" fill="white">
<path d="M57.9359 22.4377C56.4101 19.8488 54.5969 17.4414 52.5309 15.2616C49.9311 12.4476 46.9488 10.015 43.6719 8.03548C37.3568 3.7431 30.0861 1.07309 22.4999 0.260472C18.5743 -0.0156477 14.6364 -0.0722912 10.7045 0.0908009C8.14639 0.140705 8.25587 4.2428 10.8041 4.0831C17.2741 3.63397 23.8338 3.08503 30.2043 4.7119C33.9091 5.68249 37.4581 7.17446 40.7455 9.14335C44.2021 10.9674 47.3909 13.2613 50.2216 15.9602C52.4822 18.2863 54.625 20.7247 56.6419 23.2661C56.6941 23.3513 56.7627 23.4254 56.8435 23.484C56.9243 23.5426 57.0159 23.5848 57.1129 23.6079C57.21 23.6311 57.3106 23.6349 57.4091 23.619C57.5076 23.6032 57.6021 23.5681 57.687 23.5156C57.772 23.4632 57.8458 23.3945 57.9043 23.3135C57.9628 23.2324 58.0048 23.1406 58.0279 23.0433C58.051 22.946 58.0548 22.8451 58.039 22.7463C58.0232 22.6475 57.9882 22.5529 57.9359 22.4677V22.4377Z"/>
</mask>
<path d="M57.9359 22.4377H66.9359V19.9829L65.6895 17.8681L57.9359 22.4377ZM52.5309 15.2616L45.9204 21.369L45.9592 21.411L45.9986 21.4526L52.5309 15.2616ZM43.6719 8.03548L38.6127 15.4789L38.812 15.6144L39.0184 15.739L43.6719 8.03548ZM22.4999 0.260472L23.4585 -8.68833L23.2952 -8.70582L23.1314 -8.71735L22.4999 0.260472ZM10.7045 0.0908009L10.8801 9.08909L10.9788 9.08716L11.0775 9.08307L10.7045 0.0908009ZM10.8041 4.0831L11.367 13.0655L11.3972 13.0636L11.4273 13.0615L10.8041 4.0831ZM30.2043 4.7119L32.4851 -3.99429L32.4582 -4.00135L32.4312 -4.00825L30.2043 4.7119ZM40.7455 9.14335L36.1211 16.8645L36.3299 16.9895L36.5452 17.1031L40.7455 9.14335ZM50.2216 15.9602L56.6757 9.68771L56.5562 9.56474L56.4321 9.44642L50.2216 15.9602ZM56.6419 23.2661L64.3124 18.5585L64.0288 18.0963L63.6917 17.6715L56.6419 23.2661ZM57.9359 22.4677H48.9359V25.0092L50.2653 27.1753L57.9359 22.4677ZM65.6895 17.8681C63.8192 14.6947 61.5964 11.7434 59.0632 9.07054L45.9986 21.4526C47.5973 23.1395 49.0009 25.0029 50.1823 27.0074L65.6895 17.8681ZM59.1414 9.15412C55.968 5.71923 52.327 2.74917 48.3255 0.331949L39.0184 15.739C41.5706 17.2808 43.8942 19.1759 45.9204 21.369L59.1414 9.15412ZM48.7311 0.592087C41.1945 -4.53052 32.5157 -7.71814 23.4585 -8.68833L21.5413 9.20928C27.6565 9.86432 33.519 12.0167 38.6127 15.4789L48.7311 0.592087ZM23.1314 -8.71735C18.8715 -9.01698 14.5983 -9.07845 10.3316 -8.90147L11.0775 9.08307C14.6746 8.93386 18.2771 8.98568 21.8684 9.23829L23.1314 -8.71735ZM10.529 -8.90749C7.22914 -8.84311 4.2316 -7.34818 2.24049 -4.84632C0.419782 -2.55857 -0.216646 0.110271 -0.157576 2.39787C-0.0986662 4.67926 0.67462 7.35754 2.68269 9.57496C4.89245 12.0151 8.06109 13.2727 11.367 13.0655L10.2412 -4.89928C12.273 -5.02661 14.4723 -4.22191 16.0248 -2.50757C17.3756 -1.01594 17.8036 0.663636 17.8364 1.93323C17.8694 3.20903 17.526 4.85298 16.3246 6.36253C14.9528 8.08621 12.9009 9.04967 10.8801 9.08909L10.529 -8.90749ZM11.4273 13.0615C18.2833 12.5856 23.2853 12.2338 27.9774 13.432L32.4312 -4.00825C24.3822 -6.06374 16.2649 -5.31763 10.1808 -4.89529L11.4273 13.0615ZM27.9234 13.4181C30.8039 14.1727 33.564 15.3329 36.1211 16.8645L45.3698 1.42224C41.3522 -0.983994 37.0142 -2.80775 32.4851 -3.99429L27.9234 13.4181ZM36.5452 17.1031C39.2678 18.5398 41.7802 20.347 44.0111 22.474L56.4321 9.44642C53.0016 6.17563 49.1364 3.39495 44.9457 1.18359L36.5452 17.1031ZM43.7675 22.2327C45.8182 24.3429 47.7622 26.555 49.592 28.8608L63.6917 17.6715C61.4878 14.8943 59.1462 12.2297 56.6757 9.68771L43.7675 22.2327ZM48.9713 27.9738C49.6413 29.0655 50.52 30.0153 51.5578 30.7683L62.1292 16.1997C63.0054 16.8354 63.747 17.6371 64.3124 18.5585L48.9713 27.9738ZM51.5578 30.7683C52.5961 31.5217 53.7735 32.0636 55.023 32.3619L59.2028 14.8539C60.2582 15.1059 61.2526 15.5636 62.1292 16.1997L51.5578 30.7683ZM55.023 32.3619C56.2722 32.6601 57.5685 32.7089 58.8375 32.505L55.9808 14.7331C57.0527 14.5608 58.1477 14.602 59.2028 14.8539L55.023 32.3619ZM58.8375 32.505C60.1059 32.3011 61.3209 31.8488 62.4131 31.1749L52.9609 15.8564C53.8832 15.2873 54.9094 14.9053 55.9808 14.7331L58.8375 32.505ZM62.4131 31.1749C63.5056 30.5008 64.4529 29.6187 65.2021 28.5805L50.6065 18.0464C51.2388 17.1704 52.0383 16.4257 52.9609 15.8564L62.4131 31.1749ZM65.2021 28.5805C65.9514 27.5424 66.4889 26.3674 66.7844 25.1226L49.2714 20.964C49.5208 19.9139 49.9742 18.9225 50.6065 18.0464L65.2021 28.5805ZM66.7844 25.1226C67.08 23.8778 67.1279 22.5876 66.9261 21.3255L49.1519 24.1672C48.9816 23.1026 49.022 22.0143 49.2714 20.964L66.7844 25.1226ZM66.9261 21.3255C66.7243 20.063 66.2763 18.8514 65.6065 17.76L50.2653 27.1753C49.7 26.2543 49.3221 25.232 49.1519 24.1672L66.9261 21.3255ZM66.9359 22.4677V22.4377H48.9359V22.4677H66.9359Z" fill="#5887ff" mask="url(#path-12-inside-3)"/>
<mask id="path-14-inside-4" fill="white">
<path d="M56.6617 22.9468C57.3884 30.1829 57.3486 38.2972 53.2674 44.615C49.1863 50.9329 39.9889 52.1505 33.1207 52.5996C25.6752 53.0488 17.4433 52.9889 11.5407 47.729C5.36923 42.2197 3.33863 33.1272 4.12499 25.1626C4.61175 20.848 5.66261 16.6164 7.25052 12.5768C8.42964 9.70479 10.0632 7.04232 12.0881 4.69204C12.4969 4.23868 12.7166 3.64528 12.7017 3.03427C12.6869 2.42327 12.4388 1.84128 12.0085 1.40837C11.5609 0.989114 10.9671 0.76262 10.3548 0.777549C9.74246 0.792479 9.16041 1.04764 8.73366 1.48822C6.6408 4.01496 4.91187 6.82364 3.59744 9.83213C2.01331 13.8014 0.923413 17.9515 0.352453 22.1883C-0.871879 31.4504 1.00941 41.2515 7.32019 48.3678C10.1746 51.436 13.8192 53.6535 17.8514 54.7754C21.833 55.9631 26.3023 55.9132 30.4232 55.7735C38.3864 55.494 48.3403 54.4161 53.9244 47.9985C56.1409 45.2252 57.6448 41.9488 58.3041 38.4569C59.4197 33.2798 59.2591 27.9079 57.8363 22.8071C57.6571 22.1384 56.5423 22.2881 56.6219 22.9967L56.6617 22.9468Z"/>
</mask>
<path d="M56.6617 22.9468L65.6167 22.0476L63.4089 0.0620077L49.627 17.3333L56.6617 22.9468ZM33.1207 52.5996L33.6627 61.5833L33.6853 61.5819L33.708 61.5805L33.1207 52.5996ZM11.5407 47.729L5.54701 54.4429L5.55309 54.4483L11.5407 47.729ZM4.12499 25.1626L-4.81827 24.1536L-4.8253 24.2159L-4.83146 24.2783L4.12499 25.1626ZM7.25052 12.5768L-1.07514 9.15874L-1.10084 9.22133L-1.12559 9.28431L7.25052 12.5768ZM12.0881 4.69204L5.40412 -1.3349L5.3361 -1.25947L5.2698 -1.18252L12.0881 4.69204ZM12.0085 1.40837L18.3917 -4.93627L18.2784 -5.05025L18.1611 -5.16012L12.0085 1.40837ZM8.73366 1.48822L2.26903 -4.77345L2.02564 -4.52217L1.80249 -4.25276L8.73366 1.48822ZM3.59744 9.83213L-4.64977 6.22885L-4.70776 6.36159L-4.76146 6.49613L3.59744 9.83213ZM0.352453 22.1883L-8.56692 20.9863L-8.56844 20.9976L-8.56993 21.0089L0.352453 22.1883ZM7.32019 48.3678L0.586559 54.3392L0.657771 54.4195L0.730878 54.4981L7.32019 48.3678ZM17.8514 54.7754L20.4241 46.151L20.3443 46.1272L20.264 46.1048L17.8514 54.7754ZM30.4232 55.7735L30.7282 64.7683L30.7389 64.768L30.4232 55.7735ZM53.9244 47.9985L60.714 53.9063L60.8374 53.7644L60.9549 53.6175L53.9244 47.9985ZM58.3041 38.4569L49.5061 36.5611L49.4818 36.6738L49.4604 36.7871L58.3041 38.4569ZM57.8363 22.8071L49.1429 25.1364L49.1548 25.1809L49.1672 25.2252L57.8363 22.8071ZM56.6219 22.9967L47.6782 24.0018L50.1045 45.5936L63.6567 28.6103L56.6219 22.9967ZM47.7068 23.8461C48.411 30.859 47.9888 36.2 45.7076 39.7316L60.8273 49.4985C66.7083 40.3944 66.3657 29.5067 65.6167 22.0476L47.7068 23.8461ZM45.7076 39.7316C45.2517 40.4373 44.1623 41.4001 41.5462 42.2205C38.9439 43.0365 35.8106 43.4045 32.5335 43.6188L33.708 61.5805C37.2991 61.3456 42.1986 60.8802 46.9323 59.3957C51.6522 57.9156 57.2021 55.1106 60.8273 49.4985L45.7076 39.7316ZM32.5788 43.616C24.8816 44.0803 20.3378 43.5133 17.5282 41.0097L5.55309 54.4483C14.5488 62.4644 26.4688 62.0173 33.6627 61.5833L32.5788 43.616ZM17.5343 41.0151C14.2619 38.0938 12.4607 32.3342 13.0814 26.0468L-4.83146 24.2783C-5.78342 33.9202 -3.52344 46.3455 5.54701 54.4429L17.5343 41.0151ZM13.0683 26.1715C13.4667 22.6394 14.327 19.1756 15.6266 15.8694L-1.12559 9.28431C-3.00177 14.0573 -4.24324 19.0566 -4.81827 24.1536L13.0683 26.1715ZM15.5762 15.9949C16.3884 14.0167 17.5131 12.1838 18.9064 10.5666L5.2698 -1.18252C2.61321 1.90086 0.470918 5.39292 -1.07514 9.15874L15.5762 15.9949ZM18.7721 10.719C20.7244 8.55392 21.7696 5.72482 21.6991 2.81608L3.70438 3.25247C3.66348 1.56574 4.26947 -0.0765554 5.40412 -1.3349L18.7721 10.719ZM21.6991 2.81608C21.6285 -0.0927362 20.4473 -2.8682 18.3917 -4.93627L5.62527 7.75302C4.43027 6.55075 3.74529 4.93927 3.70438 3.25247L21.6991 2.81608ZM18.1611 -5.16012C15.9928 -7.19121 13.1114 -8.29234 10.1354 -8.21978L10.5742 9.77488C8.82284 9.81758 7.12903 9.16943 5.85586 7.97687L18.1611 -5.16012ZM10.1354 -8.21978C7.15939 -8.14722 4.33559 -6.90699 2.26903 -4.77345L15.1983 7.7499C13.9852 9.00228 12.3255 9.73217 10.5742 9.77488L10.1354 -8.21978ZM1.80249 -4.25276C-0.827114 -1.078 -2.9989 2.45033 -4.64977 6.22885L11.8446 13.4354C12.8226 11.1969 14.1087 9.10792 15.6648 7.2292L1.80249 -4.25276ZM-4.76146 6.49613C-6.61931 11.1513 -7.8974 16.0181 -8.56692 20.9863L9.27183 23.3903C9.74422 19.8849 10.6459 16.4516 11.9563 13.1681L-4.76146 6.49613ZM-8.56993 21.0089C-10.0339 32.0842 -7.91537 44.7521 0.586559 54.3392L14.0538 42.3963C9.93419 37.7509 8.29019 30.8167 9.27484 23.3677L-8.56993 21.0089ZM0.730878 54.4981C4.71503 58.7806 9.80454 61.8783 15.4388 63.446L20.264 46.1048C17.8339 45.4286 15.6342 44.0913 13.9095 42.2375L0.730878 54.4981ZM15.2787 63.3999C20.8493 65.0616 26.7086 64.9046 30.7282 64.7683L30.1182 46.7787C25.896 46.9218 22.8167 46.8647 20.4241 46.151L15.2787 63.3999ZM30.7389 64.768C34.9046 64.6218 40.193 64.2578 45.3683 62.8884C50.5471 61.5179 56.3186 58.9577 60.714 53.9063L47.1348 42.0907C45.9461 43.4569 43.9485 44.6445 40.7636 45.4873C37.5751 46.331 33.905 46.6458 30.1076 46.779L30.7389 64.768ZM60.9549 53.6175C64.0902 49.6945 66.216 45.0619 67.1479 40.1267L49.4604 36.7871C49.0736 38.8358 48.1916 40.7559 46.894 42.3796L60.9549 53.6175ZM67.1022 40.3527C68.5253 33.7485 68.3204 26.8962 66.5054 20.389L49.1672 25.2252C50.1978 28.9197 50.3141 32.811 49.5061 36.5611L67.1022 40.3527ZM66.5297 20.4778C64.9054 14.4157 59.1463 12.9969 55.8345 13.4794C54.0227 13.7434 51.888 14.5916 50.1658 16.4414C48.2693 18.4784 47.367 21.2321 47.6782 24.0018L65.5656 21.9917C65.837 24.4071 65.0442 26.8763 63.34 28.7068C61.81 30.3501 59.9503 31.0698 58.4296 31.2914C55.7001 31.6891 50.588 30.5298 49.1429 25.1364L66.5297 20.4778ZM63.6567 28.6103L63.6965 28.5604L49.627 17.3333L49.5871 17.3832L63.6567 28.6103Z" fill="#5887ff" mask="url(#path-14-inside-4)"/>
<mask id="path-16-inside-5" fill="white">
<path d="M58.543 30.6519C60.1004 29.4931 61.7674 28.4903 63.52 27.6577C65.2218 26.9684 67.0309 26.5833 68.8652 26.5199C72.9097 26.4664 76.8603 27.7424 80.1131 30.1529C81.7555 31.3306 83.2884 28.546 81.6361 27.3882C77.8124 24.6237 73.138 23.3017 68.4372 23.6554C64.3959 24.0446 59.4787 25.8212 57.1594 29.3744C56.612 30.2028 57.7268 31.1809 58.5132 30.6719L58.543 30.6519Z"/>
</mask>
<path d="M58.543 30.6519L63.5455 38.1335L63.7337 38.0077L63.9154 37.8725L58.543 30.6519ZM63.52 27.6577L60.1413 19.316L59.8965 19.4151L59.658 19.5284L63.52 27.6577ZM68.8652 26.5199L68.7462 17.5207L68.6502 17.5219L68.5543 17.5252L68.8652 26.5199ZM80.1131 30.1529L74.7548 37.3839L74.8113 37.4258L74.8685 37.4668L80.1131 30.1529ZM81.6361 27.3882L76.3629 34.6816L76.417 34.7207L76.4716 34.7589L81.6361 27.3882ZM68.4372 23.6554L67.7619 14.6808L67.6681 14.6878L67.5743 14.6969L68.4372 23.6554ZM57.1594 29.3744L64.6679 34.3365L64.682 34.3151L64.696 34.2937L57.1594 29.3744ZM58.5132 30.6719L63.4038 38.2271L63.46 38.1907L63.5157 38.1535L58.5132 30.6719ZM63.9154 37.8725C65.0005 37.0652 66.1616 36.3667 67.382 35.787L59.658 19.5284C57.3732 20.6138 55.2004 21.9211 53.1707 23.4312L63.9154 37.8725ZM66.8987 35.9994C67.6244 35.7054 68.3952 35.5415 69.1762 35.5145L68.5543 17.5252C65.6666 17.6251 62.8192 18.2313 60.1413 19.316L66.8987 35.9994ZM68.9842 35.5191C71.0565 35.4917 73.0833 36.1453 74.7548 37.3839L85.4715 22.9218C80.6373 19.3395 74.7628 17.4411 68.7462 17.5207L68.9842 35.5191ZM74.8685 37.4668C77.3864 39.2723 80.7439 40.0184 84.0616 38.9387C87.0317 37.9721 88.9509 35.8817 89.9939 33.9877C91.9938 30.3558 92.3267 23.8895 86.8006 20.0175L76.4716 34.7589C72.5978 32.0447 72.9905 27.5495 74.2264 25.305C74.8874 24.1046 76.2188 22.5619 78.4912 21.8224C81.1111 20.9697 83.6611 21.6223 85.3578 22.8389L74.8685 37.4668ZM86.9093 20.0948C81.3652 16.0864 74.584 14.1674 67.7619 14.6808L69.1125 32.63C71.6921 32.4359 74.2597 33.1609 76.3629 34.6816L86.9093 20.0948ZM67.5743 14.6969C62.4447 15.1909 54.1492 17.5206 49.6229 24.455L64.696 34.2937C64.656 34.355 64.9044 33.972 65.9328 33.496C66.923 33.0377 68.1573 32.724 69.3001 32.6139L67.5743 14.6969ZM49.651 24.4122C46.3192 29.4538 48.5911 34.7038 51.236 37.142C53.705 39.4179 58.6695 41.2917 63.4038 38.2271L53.6226 23.1166C57.5705 20.5611 61.5844 22.2003 63.4362 23.9073C65.464 25.7766 67.4523 30.1233 64.6679 34.3365L49.651 24.4122ZM63.5157 38.1535L63.5455 38.1335L53.5405 23.1702L53.5107 23.1902L63.5157 38.1535Z" fill="#5887ff" mask="url(#path-16-inside-5)"/>
<defs>
<linearGradient id="paint0_linear" x1="13826.6" y1="9007.65" x2="13826.6" y2="6051.27" gradientUnits="userSpaceOnUse">
<stop stop-color="white" stop-opacity="0.6"/>
<stop offset="1" stop-color="white" stop-opacity="0.1"/>
</linearGradient>
<linearGradient id="paint1_linear" x1="-13686.6" y1="9007.65" x2="-13686.6" y2="6051.27" gradientUnits="userSpaceOnUse">
<stop stop-color="white" stop-opacity="0.6"/>
<stop offset="1" stop-color="white" stop-opacity="0.1"/>
</linearGradient>
<linearGradient id="paint2_linear" x1="-13686.6" y1="9007.65" x2="-13686.6" y2="6051.27" gradientUnits="userSpaceOnUse">
<stop stop-color="white" stop-opacity="0.6"/>
<stop offset="1" stop-color="white" stop-opacity="0.1"/>
</linearGradient>
<linearGradient id="paint3_linear" x1="13826.6" y1="9006.65" x2="13826.6" y2="6050.27" gradientUnits="userSpaceOnUse">
<stop stop-color="white" stop-opacity="0.6"/>
<stop offset="1" stop-color="white" stop-opacity="0.1"/>
</linearGradient>
<linearGradient id="paint4_linear" x1="13826.6" y1="9006.65" x2="13826.6" y2="6050.27" gradientUnits="userSpaceOnUse">
<stop stop-color="#F4F4F4"/>
<stop offset="1" stop-color="white" stop-opacity="0.1"/>
</linearGradient>
</defs>
</svg>
