<svg width="195" height="112" viewBox="0 0 206 112" fill="none" xmlns="http://www.w3.org/2000/svg">
<path d="M202.967 92.8218C200.869 91.0553 198.464 89.7007 195.877 88.8274C196.189 87.6513 196.068 86.4001 195.536 85.308C192.439 78.1163 188.266 71.4524 183.165 65.5517C178.523 60.1106 173.242 53.6115 167.344 49.5523C164.789 47.825 163.213 45.5147 160.786 43.6578C157.377 41.2 153.773 39.0334 150.011 37.1803C142.785 33.7846 135.11 31.4717 127.228 30.3142L123.139 29.4937C123.464 29.5367 123.793 29.5091 124.106 29.4127C124.419 29.3163 124.708 29.1533 124.954 28.9347C125.2 28.716 125.397 28.4467 125.532 28.1447C125.667 27.8428 125.737 27.515 125.737 27.1834C125.776 26.2462 125.605 25.3123 125.236 24.4521C124.867 23.5918 124.31 22.8277 123.608 22.2174C123.09 21.7912 122.534 21.4153 121.947 21.0946C122.096 20.8355 122.203 20.4253 122.352 20.1446C123.285 18.4862 123.584 16.5372 123.192 14.6695C122.799 12.8018 121.742 11.1461 120.222 10.0181C118.744 8.99406 116.956 8.53499 115.176 8.72265L113.6 8.91697H112.706V8.48514C112.764 7.57883 112.619 6.67091 112.281 5.82979C111.943 4.98866 111.421 4.23625 110.755 3.62925C110.089 3.02224 109.295 2.57647 108.435 2.3255C107.574 2.07454 106.668 2.02492 105.786 2.1804C103.083 2.58459 100.609 3.94615 98.8014 6.0237C97.5797 4.64733 96.0446 3.59476 94.3299 2.9577C93.0579 2.4935 91.6821 2.40535 90.3626 2.70352C89.0432 3.00169 87.8345 3.6739 86.8773 4.64184C85.5738 6.19385 84.6777 8.05433 84.272 10.0509C83.8663 12.0475 83.9641 14.1157 84.5563 16.0638C83.3321 15.76 82.0455 15.8434 80.8694 16.3027C79.6932 16.762 78.6838 17.5752 77.9768 18.6332C77.3565 19.3181 76.9101 20.1459 76.6764 21.0451C76.4426 21.9442 76.4285 22.8876 76.6353 23.7936C76.7888 24.2454 76.9738 24.6855 77.1889 25.1107C77.2146 25.2955 77.28 25.4724 77.3806 25.6288C78.1684 26.9675 78.9562 28.263 79.7867 29.5585C79.9175 29.7869 80.1141 29.9693 80.3501 30.0812C80.586 30.1931 80.8501 30.2292 81.1068 30.1847C81.4591 30.5557 81.8604 30.8754 82.2993 31.1347C80.17 31.329 77.8703 31.5233 75.6558 31.7824C75.6628 31.7179 75.6628 31.6527 75.6558 31.5881V30.9188C75.7094 30.7651 75.7094 30.5974 75.6558 30.4438C75.5834 30.3379 75.4794 30.2583 75.3592 30.2166C75.239 30.1749 75.1088 30.1731 74.9876 30.2117C74.8664 30.2503 74.7605 30.3271 74.6853 30.431C74.6102 30.5349 74.5697 30.6604 74.5699 30.7892V31.4586C74.5719 31.5367 74.59 31.6136 74.623 31.6842C74.656 31.7549 74.7031 31.8177 74.7615 31.8688C69.8213 32.3609 64.9589 33.4631 60.2822 35.1507C52.407 38.3706 44.9027 42.4541 37.9031 47.3284C30.2163 52.4888 25.1273 60.0026 19.6123 67.3654C16.7152 71.0802 14.0074 74.9429 11.4997 78.9384C10.0091 81.4862 9.37035 84.0772 11.7126 86.258C9.77492 86.7546 7.85853 87.2512 5.89957 87.7046C5.13238 87.9316 4.43837 88.361 3.88844 88.949C3.33851 89.537 2.95236 90.2625 2.76948 91.0513C2.64172 91.6559 2.55655 92.282 2.42879 92.8866C2.33998 93.1587 2.2898 93.4422 2.27974 93.7287C1.96034 95.6287 1.64095 97.5288 1.34284 99.4288C1.19563 100.478 1.34324 101.548 1.76871 102.516C1.80679 103.156 1.99455 103.778 2.31648 104.329C2.6384 104.881 3.08522 105.347 3.61998 105.689C4.15474 106.031 4.76207 106.238 5.39174 106.295C6.02141 106.352 6.65532 106.255 7.24103 106.014C17.4404 101.696 29.1091 99.9902 39.8621 97.3776C46.25 95.8015 52.638 94.4196 59.0259 93.4048C63.0788 94.503 67.3098 94.7528 71.4611 94.1389C76.8056 93.7503 82.1076 93.0809 87.4522 92.8218C98.3543 92.282 109.299 91.9797 120.18 92.1525C131.19 92.1965 142.176 93.2079 153.014 95.1753C158.168 96.1905 163.265 97.4879 168.281 99.0618C173.455 100.703 178.331 103.553 183.804 103.834C184.404 103.87 185.005 103.782 185.571 103.574C185.83 103.838 186.123 104.063 186.444 104.244C188.1 104.838 189.803 105.293 191.533 105.604C193.662 106.446 195.792 107.461 197.921 108.433C198.615 108.795 199.39 108.971 200.17 108.943C200.95 108.914 201.711 108.683 202.378 108.271C203.045 107.859 203.596 107.281 203.979 106.591C204.362 105.9 204.563 105.122 204.564 104.33C204.692 100.66 205.863 95.5639 202.967 92.8218ZM92.4135 23.5777C92.6051 23.5777 92.5838 23.7072 92.4135 23.5777V23.5777ZM94.7983 9.32721C94.7983 9.32721 94.7983 9.19766 94.7983 9.21925C94.8065 9.25476 94.8065 9.2917 94.7983 9.32721ZM151.332 79.1328C149.692 78.7873 148.052 78.4418 146.413 78.1395C148.542 78.3555 150.671 78.5714 152.673 78.8305C153.589 78.8305 154.504 79.068 155.399 79.2191L151.332 79.1328ZM61.2404 45.1692H61.0061L61.6449 44.9317L61.2404 45.1692ZM112.727 9.78064C114.26 11.5727 112.876 10.0613 112.727 9.78064V9.78064Z" fill="#FF6B3D"/>
<path d="M202.329 90.5116C202.212 92.0851 202.298 93.6674 202.584 95.2185C202.733 96.989 202.818 98.7379 202.797 100.508C202.808 102.165 202.68 103.819 202.414 105.453C202.297 106.181 202.14 106.902 201.945 107.612C201.622 108.411 201.421 109.256 201.349 110.117C201.366 110.389 201.46 110.65 201.619 110.87C201.779 111.09 201.997 111.259 202.248 111.356C202.499 111.454 202.772 111.477 203.036 111.422C203.299 111.366 203.542 111.236 203.734 111.045C204.731 109.644 205.301 107.978 205.373 106.252C205.647 104.394 205.761 102.516 205.714 100.638C205.685 98.8178 205.55 97.0009 205.31 95.1969C205.259 93.4407 204.876 91.7107 204.181 90.1013C204.074 89.9308 203.92 89.7957 203.738 89.7129C203.556 89.6301 203.354 89.6031 203.157 89.6352C202.96 89.6674 202.777 89.7572 202.629 89.8938C202.482 90.0303 202.378 90.2075 202.329 90.4036V90.5116Z" fill="#2D2615"/>
<path d="M2.9398 108.972C26.6603 99.7308 52.2121 95.6285 77.6361 94.5705C105.609 93.3697 133.627 95.3396 161.169 100.443C175.151 102.985 188.903 106.69 202.286 111.52C204.224 112.232 205.544 108.842 203.606 108.065C179.268 98.3274 152.971 93.7716 126.951 91.8715C98.5863 89.8087 70.0811 91.1058 42.0127 95.7364C28.3687 97.7574 15.0368 101.545 2.3436 107.007C1.19377 107.525 1.68351 109.447 2.9398 108.972Z" fill="#2D2615"/>
<path d="M2.9398 90.3591C26.6603 81.1179 52.2121 77.0155 77.6361 75.9575C105.611 74.771 133.629 76.7554 161.169 81.8736C175.151 84.4157 188.903 88.1203 202.286 92.9501C204.224 93.641 205.544 90.2727 203.606 89.4954C179.268 79.7576 152.971 75.2018 126.951 73.3018C98.5879 71.2247 70.0828 72.5072 42.0127 77.1235C28.3706 79.1306 15.0388 82.9039 2.3436 88.3511C1.19377 88.8693 1.68351 90.7909 2.9398 90.3159V90.3591Z" fill="#2D2615"/>
<path d="M1.74741 88.8691C1.40273 89.5469 1.1656 90.2755 1.04475 91.0282C0.845637 91.8688 0.689279 92.7192 0.576297 93.576C0.31473 95.2717 0.137065 96.9795 0.0439704 98.6932C-0.0532983 100.301 0.0109117 101.914 0.235608 103.508C0.277027 105.283 0.856968 107.002 1.89647 108.431C2.09841 108.614 2.34827 108.734 2.61595 108.777C2.88363 108.819 3.15772 108.782 3.40522 108.671C3.65271 108.559 3.86306 108.377 4.01094 108.147C4.15882 107.916 4.23792 107.648 4.23871 107.373C4.17627 106.569 3.98197 105.781 3.66379 105.041C3.47277 104.331 3.32346 103.61 3.21664 102.882C3.01487 101.38 2.92943 99.8636 2.96112 98.3478C2.99982 96.8315 3.11353 95.3182 3.30181 93.8135C3.65155 92.242 3.75929 90.6251 3.62121 89.0202C3.42957 88.0918 2.17328 88.135 1.74741 88.8259V88.8691Z" fill="#2D2615"/>
<path d="M91.2424 72.5254C88.453 73.605 87.7929 78.2904 87.367 80.8598C86.7069 84.811 85.983 92.0442 90.2416 93.9874C90.5418 94.1444 90.8726 94.2317 91.2101 94.243C91.5476 94.2544 91.8834 94.1895 92.1931 94.0532C92.5029 93.9168 92.7789 93.7123 93.0011 93.4544C93.2234 93.1966 93.3863 92.8919 93.4781 92.5624C94.2021 90.4032 93.2652 88.9998 92.9671 86.9054C92.6903 85.0881 92.6903 83.2385 92.9671 81.4212C93.4219 79.1089 93.6783 76.761 93.7337 74.4039C93.7018 74.1019 93.6074 73.8102 93.4568 73.5478C93.3062 73.2853 93.1026 73.058 92.8595 72.8807C92.6163 72.7034 92.3391 72.5802 92.0457 72.5189C91.7524 72.4577 91.4496 72.4599 91.1572 72.5254H91.2424Z" fill="#2D2615"/>
<path d="M68.1819 74.4893C65.2861 75.2882 64.4982 80.4054 64.1362 82.8884C63.5826 86.6453 63.2206 93.8353 67.7135 95.1092C68.1903 95.225 68.6914 95.1802 69.1409 94.9815C69.5904 94.7828 69.9638 94.4411 70.2048 94.0081C71.1842 92.1512 70.5667 90.9637 70.2048 89.0636C69.7766 87.2472 69.6756 85.3673 69.9067 83.5146C70.3765 81.1563 70.6895 78.7686 70.8436 76.3678C70.8117 76.0658 70.7173 75.7741 70.5667 75.5116C70.4161 75.2491 70.2125 75.0219 69.9694 74.8446C69.7262 74.6673 69.4489 74.544 69.1556 74.4828C68.8623 74.4216 68.5595 74.4238 68.2671 74.4893H68.1819Z" fill="#2D2615"/>
<path d="M43.6948 77.3181C40.7564 78.3329 40.6286 83.191 40.4157 85.7388C40.1389 89.1718 39.8834 96.6425 44.3762 97.2903C44.85 97.4009 45.3463 97.3535 45.7914 97.1551C46.2364 96.9567 46.6064 96.6179 46.8462 96.1891C47.7405 94.3538 47.2082 93.447 46.6546 91.5901C46.1867 89.759 46.0141 87.8632 46.1436 85.9763C46.1436 84.4649 46.3352 82.9319 46.3991 81.4205C46.4523 80.8315 46.4523 80.2389 46.3991 79.6499C46.3991 79.4772 45.9732 77.901 46.1436 78.6783C45.9906 78.1728 45.6491 77.7478 45.1917 77.4937C44.7344 77.2397 44.1973 77.1767 43.6948 77.3181Z" fill="#2D2615"/>
<path d="M20.6557 82.1983C18.2496 83.062 17.9302 86.5166 17.6746 88.6758C17.0404 92.3949 17.3258 96.2155 18.5051 99.7954C18.6469 100.311 18.9173 100.78 19.2903 101.158C19.6633 101.537 20.1263 101.811 20.6344 101.955H21.2945C21.7713 102.063 22.2698 102.015 22.7177 101.817C23.1657 101.619 23.5398 101.282 23.7858 100.853C24.7014 99.0397 24.1478 98.1545 23.6154 96.3192C23.2001 94.5309 23.0494 92.6898 23.1683 90.8565C23.1683 89.3235 23.3173 87.7905 23.3599 86.2359C23.4132 85.647 23.4132 85.0544 23.3599 84.4654C23.3599 84.2927 22.9128 82.7165 23.1044 83.4722C22.9255 82.9754 22.573 82.5625 22.1138 82.3118C21.6546 82.0611 21.1206 81.99 20.6131 82.1119L20.6557 82.1983Z" fill="#2D2615"/>
<path d="M111.364 74.5762C111.455 76.9687 111.726 79.3506 112.174 81.7014C112.408 83.37 112.408 85.0637 112.174 86.7323C111.875 88.8914 110.832 90.5108 111.641 92.7347C111.75 93.0583 111.928 93.3533 112.163 93.5985C112.398 93.8437 112.683 94.0331 112.999 94.1529C113.315 94.2727 113.653 94.3199 113.989 94.2912C114.325 94.2626 114.65 94.1587 114.942 93.987C119.2 92.0438 118.37 84.6595 117.688 80.7946C117.22 78.0957 116.624 73.6694 113.749 72.5682C112.408 72.05 111.364 73.4319 111.258 74.5762H111.364Z" fill="#2D2615"/>
<path d="M136.469 77.2315C136.559 79.624 136.829 82.0061 137.278 84.3567C137.502 86.026 137.502 87.7183 137.278 89.3876C136.98 91.5467 135.937 93.1661 136.724 95.39C136.836 95.7142 137.016 96.0094 137.253 96.2547C137.49 96.4999 137.777 96.6891 138.095 96.8087C138.412 96.9283 138.751 96.9754 139.089 96.9467C139.426 96.9179 139.753 96.814 140.046 96.6423C144.305 94.6991 143.453 87.3148 142.793 83.4499C142.325 80.7509 141.728 76.3462 138.832 75.2235C137.512 74.7053 136.469 76.0871 136.362 77.2315H136.469Z" fill="#2D2615"/>
<path d="M162.574 80.579C162.259 83.0338 162.159 85.5122 162.276 87.9849C162.307 89.8197 162.055 91.6481 161.531 93.4044C160.85 95.5636 159.87 96.7295 160.339 99.1262C160.515 99.6985 160.907 100.177 161.429 100.46C161.95 100.743 162.56 100.806 163.128 100.638C167.621 99.4069 168.089 92.2817 168.004 88.2872C168.004 85.7178 168.004 80.7518 165.47 79.2835C165.198 79.1595 164.903 79.0948 164.605 79.0938C164.306 79.0927 164.011 79.1553 163.738 79.2775C163.465 79.3996 163.22 79.5786 163.02 79.8028C162.819 80.0271 162.667 80.2915 162.574 80.579Z" fill="#2D2615"/>
<path d="M184.038 85.5231C183.734 87.9861 183.634 90.4707 183.74 92.9506C183.767 94.7837 183.523 96.6104 183.016 98.3701C182.313 100.529 181.334 101.695 181.802 104.092C181.984 104.661 182.376 105.136 182.896 105.418C183.416 105.7 184.024 105.767 184.591 105.603C189.084 104.351 189.574 97.2474 189.489 93.2313C189.489 90.6619 189.489 85.7175 186.934 84.2492C186.663 84.1247 186.369 84.0592 186.072 84.0567C185.775 84.0543 185.48 84.115 185.207 84.235C184.934 84.355 184.689 84.5316 184.488 84.7535C184.287 84.9754 184.133 85.2375 184.038 85.5231Z" fill="#2D2615"/>
<path d="M10.222 87.2508C12.692 84.2711 13.416 80.5142 15.0769 77.038C16.7777 73.5451 18.75 70.195 20.9751 67.0195C25.4169 60.72 30.8224 55.1803 36.9875 50.6099C45.9961 44.0232 56.019 38.9962 66.6488 35.7333C79.6761 31.8236 93.2582 30.1595 106.829 30.8104C124.311 31.415 143.453 34.3946 158.231 44.4779C173.008 54.5611 188.041 69.7184 193.002 87.661C193.174 88.2337 193.564 88.7135 194.085 88.9949C194.606 89.2763 195.216 89.3363 195.781 89.1616C196.346 88.987 196.819 88.592 197.096 88.0636C197.374 87.5351 197.433 86.9166 197.261 86.3439C192.555 69.3729 179.864 55.468 166.194 45.1688C152.013 34.5026 136.384 29.8172 118.732 27.8955C91.1785 24.808 61.5598 29.2342 37.9244 44.7154C30.9527 49.1947 24.7283 54.7702 19.4846 61.2329C16.7087 64.6851 14.3032 68.4271 12.3088 72.3958C10.1795 76.4766 7.43266 81.637 8.05016 86.3223C8.17791 87.3371 9.47679 88.136 10.1795 87.186L10.222 87.2508Z" fill="#2D2615"/>
<path d="M80.8513 30.3568C79.4926 29.1266 78.4679 27.5635 77.8751 25.817C77.2823 24.0705 77.1414 22.199 77.4657 20.3815C77.5693 19.6858 77.8116 19.0188 78.1776 18.4212C78.5437 17.8235 79.026 17.3077 79.595 16.9052C80.4888 16.293 81.5677 16.0221 82.6399 16.1407C83.7121 16.2593 84.7081 16.7597 85.4506 17.553C85.6099 17.6881 85.8105 17.7628 86.0181 17.7643C86.2257 17.7659 86.4274 17.6941 86.5886 17.5613C86.7497 17.4286 86.8603 17.2431 86.9013 17.0367C86.9423 16.8303 86.9112 16.6159 86.8134 16.4302C85.7207 14.6222 85.2825 12.485 85.5739 10.3852C85.8652 8.28545 86.8681 6.35389 88.4104 4.92188C89.0202 4.48111 89.7133 4.17301 90.4462 4.01695C91.1791 3.86088 91.9359 3.86023 92.669 4.01504C95.2242 4.51165 96.6082 6.99468 97.8858 9.06747C98.0134 9.2566 98.1914 9.40508 98.399 9.49561C98.6066 9.58613 98.8353 9.61497 99.0584 9.57877C99.2816 9.54256 99.49 9.44281 99.6593 9.29112C99.8287 9.13943 99.9521 8.94206 100.015 8.722C101.08 5.93669 103.081 2.24453 106.403 2.39567C109.725 2.54681 111.194 6.34693 110.236 9.2402C109.895 10.2766 111.13 10.8812 111.918 10.4925C115.346 8.78678 120.116 9.47771 121.713 13.4074C122.008 14.0452 122.145 14.7465 122.112 15.4503C122.078 16.1541 121.876 16.8389 121.521 17.445C120.875 18.3471 120.164 19.1988 119.392 19.9928C119.205 20.1923 119.073 20.4377 119.009 20.7049C118.945 20.972 118.951 21.2515 119.026 21.5156C119.102 21.7797 119.244 22.0192 119.439 22.2104C119.634 22.4016 119.874 22.5377 120.137 22.6054C121.258 22.833 122.31 23.329 123.203 24.052C123.721 24.4151 124.086 24.9622 124.225 25.585C124.225 26.5135 123.246 27.7442 122.565 28.4351C121.159 29.9465 123.31 31.8466 124.694 30.5943C127.313 28.4351 128.399 24.8941 125.652 22.2815C124.228 21.0452 122.568 20.1192 120.776 19.561L121.542 22.1736C122.835 21.1965 123.933 19.9804 124.779 18.5893C125.293 17.4736 125.54 16.2506 125.499 15.0199C125.458 13.7892 125.131 12.5856 124.545 11.5073C124.008 10.4195 123.238 9.46711 122.291 8.71995C121.344 7.97279 120.244 7.44972 119.072 7.189C116.29 6.84204 113.468 7.28296 110.917 8.4629L112.237 10.1039C112.7 9.13683 112.94 8.07601 112.939 7.0013C112.939 5.92659 112.698 4.866 112.235 3.8994C111.771 2.9328 111.098 2.0854 110.265 1.42101C109.432 0.756619 108.461 0.29256 107.425 0.0637816C102.549 -0.605557 99.355 4.123 97.8858 8.16062L100.015 7.81516C98.3969 5.31053 96.6082 2.54681 93.4994 1.89907C92.4654 1.64294 91.3887 1.61843 90.3443 1.82725C89.2999 2.03606 88.313 2.47319 87.4522 3.10819C85.5585 4.89271 84.317 7.27529 83.9303 9.86724C83.5436 12.4592 84.0345 15.1075 85.3229 17.3802L86.6856 16.2575C85.8108 15.3782 84.6973 14.7832 83.4875 14.5486C82.2776 14.314 81.0262 14.4504 79.8931 14.9404C78.9887 15.3285 78.1821 15.9182 77.5333 16.6658C76.8845 17.4134 76.4102 18.2997 76.1455 19.2587C75.5482 21.4419 75.606 23.756 76.3114 25.9057C77.0168 28.0555 78.3379 29.9433 80.1061 31.3284C80.6597 31.7386 81.4049 31.0045 80.8726 30.5295L80.8513 30.3568Z" fill="#2D2615"/>
<path d="M84.6841 16.3434C84.782 16.4535 84.9069 16.5355 85.0461 16.5809H85.4294C85.6683 16.6438 85.8926 16.7538 86.0895 16.9048C86.5125 17.1859 86.8866 17.5361 87.1967 17.9412C87.5287 18.3056 87.8018 18.721 88.0058 19.1719C88.0816 19.3376 88.1387 19.5115 88.1762 19.6901C88.1762 19.8629 88.1762 19.6901 88.1762 19.6901V19.906V20.1004C88.1762 19.9708 88.1762 20.1004 88.1762 20.1004C88.1762 20.1004 88.3039 20.1004 88.1762 20.1004C88.0697 20.1004 88.1762 20.1004 88.1762 20.1004H88.0484L87.8568 19.9924C87.729 19.8629 87.8568 19.9924 87.8568 19.9924C87.7878 19.907 87.7306 19.8126 87.6864 19.7117C87.6864 19.7117 87.6864 19.8413 87.6864 19.7117C87.6651 19.6562 87.6651 19.5945 87.6864 19.539C87.6721 19.4315 87.6721 19.3226 87.6864 19.2151C87.6864 18.8912 87.6864 18.5458 87.6864 18.2219C87.6864 17.898 87.6864 17.5741 87.6864 17.2503C87.6864 16.9264 87.6864 16.3866 87.3883 16.1059C87.2899 16.0134 87.1606 15.9619 87.0263 15.9619C86.8921 15.9619 86.7628 16.0134 86.6644 16.1059C86.4597 16.465 86.3987 16.8901 86.494 17.2935C86.494 17.6173 86.494 17.9628 86.494 18.2867C86.4844 18.9595 86.6075 19.6275 86.856 20.2515C87.012 20.6813 87.3082 21.0441 87.6955 21.2797C88.0828 21.5154 88.5379 21.6097 88.9853 21.547C89.1775 21.4814 89.355 21.3778 89.5075 21.2421C89.66 21.1064 89.7843 20.9414 89.8735 20.7567C89.9626 20.5719 90.0147 20.3711 90.0267 20.1657C90.0387 19.9604 90.0104 19.7547 89.9435 19.5606C89.5567 18.4191 88.8079 17.4397 87.8142 16.7753C87.4545 16.4651 87.0333 16.2369 86.5792 16.1059C86.2478 16.0515 85.9098 16.0515 85.5784 16.1059C85.5564 16.1194 85.5381 16.1383 85.5255 16.1611C85.5128 16.1838 85.5061 16.2094 85.5061 16.2355C85.5061 16.2616 85.5128 16.2872 85.5255 16.3099C85.5381 16.3326 85.5564 16.3516 85.5784 16.365L84.6841 16.3434Z" fill="#2D2615"/>
<path d="M97.2257 6.84338C98.0217 8.09582 98.7331 9.4015 99.355 10.7514C99.8661 11.8094 100.462 13.2777 99.355 14.2277C99.1863 14.3847 98.9813 14.4961 98.7588 14.5516C98.6795 14.5641 98.5984 14.5591 98.5212 14.5367C98.444 14.5143 98.3725 14.4752 98.3117 14.422C98.3117 14.422 98.0987 14.1845 98.1839 14.2925L98.0349 14.055C98.0349 13.9038 98.0349 14.2061 98.0349 14.055C97.8981 13.5351 97.8808 12.9903 97.9841 12.4625C98.0875 11.9347 98.3088 11.438 98.6311 11.0105C98.9931 10.406 99.3976 9.8446 99.7596 9.24004C100.122 8.63548 100.824 7.70704 100.547 7.08088C100.516 6.9865 100.465 6.90031 100.397 6.82858C100.329 6.75685 100.246 6.70139 100.154 6.66624C100.063 6.63108 99.9644 6.61711 99.8666 6.62534C99.7688 6.63357 99.6741 6.6638 99.5893 6.71383C99.1634 6.92974 99.0782 7.36157 98.8653 7.77181C98.6524 8.18205 98.5033 8.46274 98.2904 8.80821C98.0775 9.15367 97.5026 10.0389 97.1619 10.6651C96.7388 11.2903 96.4764 12.0127 96.3983 12.7667C96.3202 13.5208 96.429 14.2827 96.7147 14.9834C96.8337 15.2832 97.0129 15.5546 97.2409 15.7804C97.4688 16.0062 97.7406 16.1816 98.0389 16.2953C98.3372 16.4089 98.6556 16.4585 98.9738 16.4408C99.292 16.4231 99.6031 16.3386 99.8874 16.1925C100.611 15.762 101.145 15.0665 101.378 14.2493C101.571 13.4089 101.481 12.5272 101.122 11.7447C100.744 10.8364 100.265 9.97449 99.6957 9.17527C99.157 8.35703 98.4961 7.62863 97.7368 7.01611C97.5025 6.82178 97.1193 7.01611 97.3109 7.36157L97.2257 6.84338Z" fill="#2D2615"/>
<path d="M111.279 7.57777C111.115 8.56385 110.784 9.51359 110.3 10.3847C110.082 10.8094 109.818 11.2077 109.512 11.5722C109.238 11.9768 108.873 12.3097 108.447 12.5438C108.31 12.597 108.158 12.597 108.021 12.5438C108.021 12.5438 108.021 12.5438 107.894 12.3495C107.883 12.2418 107.883 12.1333 107.894 12.0256C107.937 11.8664 108.026 11.7238 108.149 11.6154C108.474 11.3085 108.858 11.0733 109.278 10.9245C109.789 10.6654 110.321 10.4494 110.853 10.2119L112.621 9.49942C113.312 9.32636 113.962 9.01833 114.537 8.59257C114.62 8.50384 114.676 8.39225 114.698 8.27165C114.719 8.15104 114.705 8.02672 114.657 7.91409C114.61 7.80145 114.531 7.70546 114.43 7.638C114.329 7.57054 114.211 7.53459 114.09 7.53459C113.728 7.52247 113.369 7.60422 113.047 7.77209L111.982 8.22552L109.98 9.08918C108.873 9.58579 107.383 10.0176 106.765 11.2483C106.601 11.5015 106.503 11.7922 106.478 12.0939C106.454 12.3957 106.504 12.6988 106.625 12.9757C106.746 13.2526 106.933 13.4945 107.169 13.6793C107.406 13.8641 107.684 13.9859 107.979 14.0336C109.342 14.0336 110.3 12.7597 110.917 11.7449C111.646 10.5363 112.07 9.16453 112.152 7.7505C112.152 7.23231 111.343 7.14594 111.279 7.64254V7.57777Z" fill="#2D2615"/>
<path d="M122.053 18.3523C121.271 18.7593 120.553 19.2834 119.924 19.9069L117.987 21.5479C117.433 22.1003 116.802 22.5661 116.113 22.9297C115.793 23.0809 115.005 23.232 114.856 22.7138L115.176 22.4763C115.453 22.3215 115.756 22.2191 116.07 22.174C116.774 22.0396 117.496 22.0396 118.199 22.174C119.843 22.5777 121.506 22.8948 123.182 23.124C123.37 23.1148 123.548 23.038 123.684 22.9074C123.821 22.7767 123.907 22.6009 123.927 22.4115C123.94 22.2259 123.89 22.0414 123.785 21.8884C123.681 21.7353 123.528 21.6229 123.352 21.5695C122.551 21.3327 121.732 21.1595 120.904 21.0513L118.519 20.5978C117.085 20.233 115.568 20.4176 114.26 21.116C113.954 21.2818 113.699 21.5317 113.526 21.8372C113.353 22.1426 113.268 22.4913 113.281 22.8434C113.32 23.1906 113.449 23.5212 113.655 23.8017C113.86 24.0823 114.135 24.3028 114.452 24.4411C115.942 25.1105 117.39 24.0525 118.455 23.0809C119.158 22.4331 119.86 21.7854 120.584 21.0944L121.628 20.0796C122.002 19.7574 122.325 19.3787 122.586 18.9569C122.756 18.6546 122.437 18.1796 122.075 18.3307L122.053 18.3523Z" fill="#2D2615"/>
</svg>
