<svg width="192" height="154" viewBox="0 0 192 154" fill="none" xmlns="http://www.w3.org/2000/svg">
<path d="M35.0644 96.7888L34.3646 96.7155C34.2223 96.6882 34.0749 96.7103 33.9468 96.7783C33.8236 96.8586 33.7343 96.9816 33.6961 97.1239C33.6642 97.264 33.6878 97.411 33.7618 97.5341C33.8358 97.6571 33.9546 97.7466 34.093 97.7837L34.7615 97.9826C34.839 98.0031 34.9197 98.0079 34.9991 97.9968C35.0785 97.9857 35.1549 97.9589 35.2238 97.918C35.2928 97.877 35.353 97.8228 35.4009 97.7584C35.4488 97.694 35.4835 97.6207 35.503 97.5428C35.5416 97.3846 35.5174 97.2176 35.4356 97.0769C35.3538 96.9363 35.2207 96.833 35.0644 96.7888Z" fill="#72CE52"/>
<path d="M35.7115 95.0716C33.8733 91.689 31.189 90.1181 28.181 87.9502C24.4732 85.2692 22.2381 86.2641 17.9036 87.1124L22.7394 93.1132C24.9119 88.0863 28.3586 89.9191 32.6513 89.3012C37.1651 88.5868 41.6147 87.5116 45.9576 86.086C50.8666 84.5361 49.3208 77.8964 44.5998 77.5508C38.9807 77.1528 33.0273 76.6397 27.4499 77.6241C22.0814 78.5666 17.0053 81.5932 12.5977 84.6827C4.79566 90.1495 0.0642897 101.722 1.46386 111.252C2.2472 116.583 4.87921 121.725 7.14568 126.553C9.10926 130.742 11.4384 134.418 15.1671 137.224C22.541 142.806 34.1762 144.754 41.4978 138.146C43.8269 136.051 43.5867 131.642 41.2889 129.653C36.5993 125.6 30.4161 124.552 25.6743 120.803C22.7812 118.51 21.9143 114.739 21.9978 111.189C22.0147 109.697 22.2325 108.214 22.6454 106.78C23.0214 105.482 25.4028 102.989 23.9823 102.35L21.6532 99.4597C21.9665 98.1611 21.8307 98.5172 21.2458 100.507C20.7868 101.64 20.3893 102.797 20.0551 103.973C19.6474 105.584 19.4923 107.248 19.5956 108.906C19.8982 112.467 21.1262 115.887 23.1572 118.824C27.1052 124.489 34.8446 127.401 40.6309 130.721C46.7619 134.24 52.1826 124.238 45.9054 121.159C41.7276 119.065 36.8918 117.399 33.1108 114.624C32.0255 113.838 31.1403 112.806 30.5269 111.612C29.9136 110.419 29.5894 109.097 29.5806 107.754C29.5179 105.021 31.1159 102.769 31.4293 100.109C32.6304 90.1914 20.5147 92.2335 16.0758 97.1871C10.3939 103.534 9.60016 114.593 12.6082 122.238C14.2467 126.389 17.2302 129.868 21.0787 132.114C24.9328 134.418 29.5701 135.392 33.0168 138.397L32.808 129.904C29.8104 132.606 22.0605 128.626 19.8672 125.914C16.3787 121.589 11.9711 112.592 12.6918 107.063C13.6631 99.732 16.5145 94.9041 22.8021 90.9977C29.497 86.8087 37.1111 86.5154 44.8087 86.2746L43.4405 77.7498C37.9378 79.6696 32.2599 81.0412 26.489 81.8446C24.4181 82.1604 22.4314 82.8894 20.6464 83.9885C18.8614 85.0876 17.3143 86.5344 16.0967 88.2434C13.6526 91.4795 16.034 96.1713 20.2745 95.1031C21.5386 94.5744 22.9303 94.4323 24.2748 94.6946L21.1414 93.4903C23.7316 96.3284 27.6066 96.6949 30.0819 99.6063C32.8602 102.863 37.508 98.5067 35.6489 95.0821L35.7115 95.0716Z" fill="#72CE52"/>
<path d="M19.93 89.982C18.4454 90.729 17.1161 91.7526 16.0133 92.9982C14.6764 94.5272 13.1619 96.6113 13.2455 98.7372C13.2685 99.3978 13.4311 100.046 13.7225 100.639C14.014 101.232 14.4275 101.756 14.936 102.176C15.4444 102.597 16.0361 102.905 16.6719 103.079C17.3077 103.254 17.9733 103.291 18.6244 103.188C21.2043 102.78 23.3454 99.9416 22.3427 97.2815L22.4263 99.0723L22.4889 98.7477C22.4889 98.7477 22.8232 97.7004 22.5934 98.3497C22.3636 98.999 22.6665 98.2241 22.7187 98.1193C22.8353 97.8721 22.9643 97.6309 23.1052 97.3967C23.2096 97.2082 23.335 97.0302 23.4498 96.8521C23.2618 97.1558 23.1574 97.2082 23.4498 96.9045C23.7423 96.6008 24.1914 96.1085 24.5988 95.742C25.2222 95.0845 25.5843 94.2212 25.617 93.3146C25.6497 92.408 25.3507 91.5207 24.7763 90.8198C24.2001 90.1281 23.3976 89.6641 22.5118 89.5106C21.6261 89.3571 20.7147 89.5242 19.9405 89.982H19.93Z" fill="#72CE52"/>
<path d="M16.3578 137.811L16.4727 138.994L22.9483 135.056C21.8394 134.402 20.8122 133.618 19.888 132.721L14.906 139.528C20.4103 141.884 24.3061 146.461 30.0715 148.514C35.6489 150.503 41.5604 152.975 47.5869 152.336C50.1071 152.06 52.5435 151.266 54.7447 150.005C56.9458 148.744 58.8645 147.042 60.3815 145.005C63.2433 141.13 63.3686 133.171 67.6927 130.899L61.1753 128.385L59.7862 129.809L66.3558 134.637C68.0569 131.907 69.3715 128.954 70.262 125.861C71.0141 123.683 72.2883 117.839 74.4399 116.436C78.4401 113.776 74.7741 108.058 70.5858 110.152C63.8491 113.503 63.2747 125.002 59.2013 130.658C56.3917 134.522 62.6166 138.732 65.7709 135.486C68.1434 133.278 69.5792 130.241 69.7816 127.003C70.074 123.976 66.5856 122.321 64.1311 122.908C54.5221 125.212 57.2273 138.491 49.2163 142.544C44.5685 144.901 39.1791 142.544 34.5939 141.12C29.309 139.507 23.7107 136.837 19.9089 132.647C16.2429 128.615 10.2268 134.868 14.06 138.816C15.4705 140.271 17.0442 141.557 18.7496 142.649C23.1885 145.55 26.8754 139.141 23.8674 135.643L23.0945 134.752C20.8803 132.187 16.0445 134.417 16.3787 137.737L16.3578 137.811Z" fill="#72CE52"/>
<path d="M32.6722 144.418C39.9834 146.712 51.1695 147.822 57.1542 141.894C63.139 135.967 65.019 127.086 69.7817 120.404C71.8706 117.419 72.8211 117.189 76.2678 116.896C78.3985 116.768 80.5153 116.467 82.5972 115.995C86.3154 114.922 89.9 113.429 93.2819 111.544C101.638 107.167 102.682 98.4429 101.846 89.7401C101.262 83.226 91.005 83.4564 91.6944 89.9914C92.0704 93.5207 92.8746 99.1446 90.1799 101.826C88.0074 103.983 83.4327 105.554 80.5918 106.413C77.1242 107.46 73.5 106.643 70.095 107.753C67.181 108.706 64.9668 111.01 63.1599 113.367C58.982 118.854 56.6947 125.379 53.0182 131.17C48.3704 138.501 40.1714 137.119 32.5155 138.375C29.215 138.909 30.0506 143.612 32.6722 144.408V144.418Z" fill="#72CE52"/>
<path d="M93.8668 86.0853C89.2921 88.6511 84.9472 91.4997 80.6441 94.4635C78.8918 95.5842 77.2728 96.9018 75.8187 98.3908C74.44 99.9198 73.5104 102.391 71.7766 103.491C68.6955 105.428 69.0924 111.052 73.0509 111.712C81.6154 113.147 90.3679 106.392 95.2664 99.8884C98.6818 95.3537 92.7284 89.2062 88.7073 93.6048C85.9708 96.6104 79.8607 103.543 75.2338 102.915L76.5185 111.147C80.3516 108.549 82.0854 104.214 85.9186 101.449C90.2321 98.307 94.4517 95.1652 98.452 91.6882C101.732 88.8606 97.3449 84.0641 93.8564 86.0225L93.8668 86.0853Z" fill="#72CE52"/>
<path d="M25.0683 101.889C27.0215 108.11 32.1393 113.409 36.2544 118.268C38.7298 121.222 41.1738 124.186 43.5656 127.233C44.2341 128.102 46.1037 129.694 46.1663 130.7C46.2394 131.946 43.9312 132.627 42.5316 133.59L48.0881 134.166L47.451 133.58C46.7303 132.924 45.7853 132.572 44.8127 132.598C43.84 132.623 42.9145 133.024 42.2287 133.716L41.6752 134.323C38.876 137.465 41.8736 143.853 46.3125 141.884C50.1457 140.177 54.3444 138.303 55.7962 133.988C57.3315 129.422 54.4384 125.61 51.7333 122.196C48.5999 118.342 45.1532 114.865 41.7274 111.273C37.8629 107.251 34.1864 102.434 29.7893 99.0196C27.7004 97.4068 24.2432 99.0196 25.1519 101.889H25.0683Z" fill="#72CE52"/>
<path d="M49.0179 132.836C49.0179 132.469 48.9135 132.103 48.8299 131.736L48.7255 132.783C49.2513 132.261 49.5967 131.584 49.7114 130.851C49.826 130.118 49.7038 129.368 49.3626 128.71C49.1161 128.129 48.7419 127.612 48.2681 127.196C47.7942 126.781 47.2329 126.479 46.6261 126.311C45.0364 125.993 43.3855 126.304 42.0201 127.181C41.3376 127.622 40.7984 128.253 40.4682 128.997C40.138 129.741 40.0312 130.566 40.1609 131.37C40.2949 132.158 40.6514 132.892 41.1881 133.484C41.7249 134.076 42.4195 134.502 43.1899 134.71C43.8493 134.896 44.542 134.931 45.2165 134.811C45.8911 134.692 46.53 134.421 47.0857 134.019L47.587 133.684C47.9108 133.443 48.2242 133.192 48.527 132.92C48.8299 132.647 48.6315 132.742 47.9213 133.464L46.177 132.197C46.177 132.448 46.177 132.689 46.177 132.941C46.177 134.794 49.2373 134.637 48.997 132.867L49.0179 132.836Z" fill="#72CE52"/>
<path d="M34.9595 109.534C34.7416 108.961 34.3988 108.443 33.9561 108.019C33.5134 107.595 32.982 107.276 32.4005 107.084C31.6421 106.918 30.8494 107.041 30.176 107.428C29.5026 107.815 28.9963 108.438 28.7554 109.178C28.4568 110.629 28.6787 112.138 29.3821 113.441C29.9622 114.881 30.6391 116.281 31.4083 117.63C31.634 118.025 31.9425 118.366 32.3127 118.629C32.6828 118.893 33.1057 119.073 33.552 119.157C33.9983 119.24 34.4573 119.225 34.8974 119.114C35.3375 119.002 35.7481 118.795 36.1007 118.508C36.4534 118.222 36.7397 117.862 36.9398 117.453C37.1399 117.044 37.2491 116.597 37.2598 116.142C37.2704 115.687 37.1823 115.235 37.0015 114.817C36.8208 114.4 36.5516 114.026 36.2128 113.723C35.6592 113.105 35.1684 112.477 34.6566 111.807C34.3955 111.43 34.1343 111.053 33.8837 110.665L33.633 110.267C33.3719 109.66 33.2674 109.754 33.3092 110.571L32.505 111.43C32.9228 111.116 32.6094 111.252 33.0794 111.482C33.3512 111.62 33.6601 111.667 33.9605 111.616C34.2608 111.564 34.5368 111.417 34.7475 111.197C34.9582 110.976 35.0926 110.693 35.1308 110.39C35.1689 110.087 35.1089 109.78 34.9595 109.513V109.534Z" fill="#72CE52"/>
<path d="M42.4171 105.345L42.2813 104.381C42.2881 103.997 42.1945 103.618 42.0097 103.282C41.8861 102.927 41.6697 102.613 41.3831 102.371C41.1295 102.094 40.8039 101.895 40.4431 101.795C40.1011 101.621 39.7181 101.545 39.336 101.575C38.574 101.597 37.8507 101.916 37.3201 102.465L36.8815 103.062C36.6394 103.512 36.5171 104.017 36.5264 104.528L36.6622 105.481C36.6601 105.869 36.7571 106.251 36.9441 106.591C37.0649 106.944 37.2776 107.259 37.5604 107.502C37.8195 107.772 38.1431 107.97 38.5004 108.078C38.8443 108.246 39.2257 108.322 39.6075 108.298C39.986 108.288 40.3589 108.203 40.7048 108.049C41.0506 107.894 41.3628 107.673 41.6233 107.398L42.062 106.801C42.3088 106.356 42.4314 105.853 42.4171 105.345Z" fill="#72CE52"/>
<path d="M39.9941 98.9147C39.9539 97.8861 39.5627 96.9026 38.8858 96.1286C38.209 95.3546 37.2876 94.8371 36.2758 94.6628C35.3557 94.4407 34.3866 94.5602 33.5475 94.9991C32.7085 95.4381 32.0563 96.1668 31.7116 97.0506C31.3653 97.8592 31.3172 98.765 31.5758 99.6059C31.9141 100.565 32.5704 101.378 33.4349 101.91C34.0313 102.344 34.7296 102.616 35.4618 102.698C36.1941 102.781 36.9352 102.672 37.6127 102.381C38.301 102.099 38.891 101.62 39.309 101.003C39.727 100.387 39.9544 99.6602 39.9628 98.9147H39.9941Z" fill="#72CE52"/>
<path d="M29.4969 104.413C34.3537 106.424 37.1528 113.461 40.2444 117.409C43.5971 121.672 48.3285 124.918 51.3783 129.327C57.0601 137.528 68.9878 127.495 61.8228 120.813C57.3421 116.624 51.8692 113.88 47.5347 109.482C43.4509 105.355 38.2913 101.826 34.573 97.4381C30.3952 92.5264 23.5226 101.952 29.476 104.413H29.4969Z" fill="#72CE52"/>
<path d="M27.9197 89.6359C30.0086 92.7777 33.7687 93.0814 36.056 96.1185C38.6776 99.6164 39.4609 104.277 40.9754 108.298C43.8163 115.86 48.6313 122.614 56.9451 124.374C65.259 126.133 68.4863 113.001 60.1516 111.513C51.8168 110.026 50.5531 97.4067 46.4066 91.4372C42.9494 86.4522 34.0611 78.87 28.4002 84.9337C27.8233 85.5597 27.4646 86.3566 27.378 87.2045C27.2914 88.0524 27.4814 88.9056 27.9197 89.6359Z" fill="#72CE52"/>
<path d="M40.6099 88.8402C43.0331 94.1394 41.8319 99.1035 42.3124 104.549C42.7032 108.109 43.9899 111.511 46.0515 114.436C50.4069 120.855 61.4886 123.484 67.0451 117.179C68.8415 115.148 68.8206 111.095 65.9275 109.848C62.7941 108.508 60.9246 109.231 57.6867 109.063C54.8563 108.916 53.1329 106.455 52.1511 103.827C51.1694 101.198 51.4096 98.2133 50.8874 95.4485C50.2293 91.9925 48.6 88.8716 47.9106 85.4366C46.8662 80.1269 37.9779 83.0069 40.5995 88.7355L40.6099 88.8402Z" fill="#72CE52"/>
<path d="M46.6361 106.728C53.6549 110.362 56.5376 120.426 66.0943 116.792C72.7475 114.247 69.5932 103.533 62.867 106.099C61.7285 106.361 61.6763 106.508 62.7103 106.55C62.1373 106.266 61.5858 105.94 61.0601 105.576C59.7649 104.769 58.522 103.869 57.2582 103.02C54.8142 101.387 52.5477 99.7527 49.7068 98.9149C45.1112 97.5535 42.3957 104.528 46.6361 106.728Z" fill="#72CE52"/>
<path d="M47.2841 95.8251C50.1041 95.7204 51.4619 92.6833 52.7466 90.5888C53.5246 89.345 54.3902 88.1586 55.3368 87.0385C56.5066 85.6457 57.6033 84.8288 58.1464 82.9752C59.1387 79.5192 55.2846 77.5922 52.5586 78.8803C50.313 79.9276 48.9448 83.0694 47.8167 85.2477C46.8976 87.0071 46.3754 89.2587 45.0594 90.7668C44.6719 91.1984 44.4174 91.7334 44.3268 92.307C44.2361 92.8806 44.3131 93.4682 44.5484 93.9988C44.7837 94.5295 45.1673 94.9804 45.6528 95.297C46.1383 95.6137 46.7049 95.7826 47.2841 95.7832V95.8251Z" fill="#72CE52"/>
<path d="M47.5872 89.1019C49.8955 86.3581 53.6346 84.9757 56.6218 83.1848C59.5141 81.5103 62.0625 79.2997 64.1314 76.6708C65.907 74.3563 67.1708 70.5966 69.5939 68.9524C67.4632 69.2805 67.505 69.689 69.7192 70.1777L70.9726 70.6699C73.1644 71.3216 75.434 71.6739 77.7198 71.7172C79.069 71.6734 80.3471 71.1001 81.2789 70.1207C82.2107 69.1413 82.7217 67.8342 82.7018 66.4808C82.3467 59.3175 75.9129 58.9614 70.2519 58.3644C64.7999 57.778 63.9852 66.7426 69.2075 67.9156L71.9962 68.5125C73.8483 69.3085 74.0154 68.715 72.4975 66.7322L77.4795 61.4958C73.0511 61.2235 69.7715 57.3067 65.1759 59.2861C61.3427 60.8989 58.9822 64.9937 56.7575 68.3031C52.2037 75.0475 43.8899 78.6815 43.3781 87.4682C43.2632 89.5627 46.2712 90.6728 47.5559 89.1019H47.5872Z" fill="#72CE52"/>
<path d="M57.1022 83.1117C58.742 84.2532 62.7004 84.6512 64.5491 83.7401C65.6667 83.206 66.0009 82.2111 66.8887 81.4675C67.7831 80.9342 68.732 80.4988 69.7192 80.1689C74.1999 77.9487 69.1343 70.5759 65.1758 74.566C63.7971 75.9484 62.314 76.6606 61.4367 78.5561C61.3218 78.8075 60.7473 80.3469 61.4367 79.1426C62.0529 78.6294 61.938 78.5561 61.0815 78.9122L60.3504 79.0693C59.1978 79.1769 58.0769 79.5076 57.0499 80.0432C56.7923 80.2106 56.5818 80.4414 56.4384 80.7136C56.295 80.9858 56.2235 81.2903 56.2309 81.598C56.2382 81.9057 56.324 82.2064 56.4802 82.4714C56.6364 82.7364 56.8577 82.9569 57.1231 83.1117H57.1022Z" fill="#72CE52"/>
<path d="M61.8439 83.9281C64.9773 82.8808 67.4944 80.3778 70.1996 78.5765C73.218 76.5658 76.4663 74.9425 79.4952 72.9213C83.0777 70.523 80.6023 63.8205 76.2261 65.6532C72.4247 67.3005 68.988 69.6892 66.1157 72.6804C63.5777 75.2253 60.4548 78.3775 59.9012 82.1058C59.8397 82.369 59.8479 82.6437 59.9251 82.9028C60.0022 83.1618 60.1455 83.3961 60.3408 83.5824C60.5361 83.7687 60.7766 83.9006 61.0385 83.9649C61.3003 84.0292 61.5744 84.0238 61.8335 83.949L61.8439 83.9281Z" fill="#72CE52"/>
<path d="M67.7767 75.7698C69.2624 74.5361 70.8177 73.3892 72.435 72.3348C73.147 71.8565 73.6463 71.1201 73.8279 70.2803C74.0095 69.4405 73.8593 68.5628 73.4089 67.8318C72.9585 67.1008 72.2429 66.5733 71.4126 66.3604C70.5824 66.1475 69.7021 66.2656 68.957 66.69C66.8914 68.0819 64.9264 69.6182 63.0767 71.2875C62.4927 71.9169 62.1778 72.7504 62.1993 73.6098C62.2207 74.4691 62.5769 75.2858 63.1916 75.885C63.824 76.4607 64.6533 76.7699 65.5072 76.7484C66.361 76.727 67.1738 76.3765 67.7767 75.7698Z" fill="#72CE52"/>
<path d="M72.278 79.079C74.7139 76.9682 77.4489 75.2317 80.3935 73.9264C83.6208 72.6592 86.7438 70.8474 86.5036 66.8678C86.4796 66.333 86.3354 65.8105 86.0816 65.3395C85.8279 64.8685 85.4712 64.4611 85.0382 64.1478C84.6053 63.8346 84.1072 63.6235 83.5814 63.5305C83.0556 63.4375 82.5157 63.465 82.0019 63.6108C76.4559 64.9723 71.5573 69.2661 67.3795 73.0362C64.1417 76 68.7582 81.8543 72.278 79.0895V79.079Z" fill="#72CE52"/>
<path d="M160.44 30.2138C161.422 30.6432 161.652 30.5489 161.15 29.9205C160.944 29.4912 160.665 29.1014 160.325 28.7685C159.897 28.1668 159.396 27.6214 158.832 27.1453C157.265 25.7419 156.743 26.5797 158.477 25.1554C159.572 24.3551 160.736 23.6541 161.955 23.0609C164.67 21.5109 167.428 20.0238 170.154 18.5053C170.561 18.2853 176.995 14.0648 176.911 14.0439C180.285 14.976 182.624 10.4936 180.149 8.13727C180.911 8.85989 179.648 6.48258 179.219 6.04272C178.762 5.53654 178.191 5.14706 177.553 4.90663C176.916 4.66621 176.23 4.58177 175.553 4.66033C173.702 4.94137 171.937 5.63474 170.388 6.6895C168.839 7.74426 167.546 9.1336 166.602 10.7554C166.377 11.1926 166.267 11.6807 166.284 12.1727C166.3 12.6647 166.443 13.1441 166.698 13.5649C166.953 13.9856 167.311 14.3335 167.739 14.5752C168.167 14.8168 168.649 14.944 169.14 14.9445C172.66 15.2587 174.029 12.9652 177.225 11.9284L174.331 11.6142C173.13 10.9859 174.958 12.7348 175.376 13.2165L178.614 7.30993C173.141 6.55589 168.169 10.7345 163.688 13.4469C159.208 16.1594 152.064 19.1755 150.037 24.2653C148.293 28.6324 151.291 31.7428 154.758 33.7431C158.602 35.9528 160.607 37.4295 164.451 34.0887C167.125 31.7637 163.114 27.9726 160.461 30.2871L160.44 30.2138Z" fill="#72CE52"/>
<path d="M174.415 10.9651C175.459 15.4788 178.415 19.4061 179.637 23.7732L181.726 18.1808C179.888 19.647 176.984 20.2229 174.843 21.1969C172.43 22.2696 170.077 23.4722 167.793 24.7995C163.678 27.1978 158.633 29.8264 156.304 34.1098C155.949 34.7952 155.802 35.5694 155.879 36.3377C155.957 37.106 156.256 37.8349 156.74 38.4352C157.225 39.0355 157.873 39.481 158.607 39.7172C159.34 39.9534 160.126 39.9701 160.868 39.7651C165.443 38.7178 169.516 34.8533 173.684 32.6436C177.851 30.4339 183.345 29.3447 186.865 26.5275C187.75 25.9294 188.427 25.069 188.802 24.0665C189.176 23.064 189.229 21.9693 188.954 20.9351C187.627 16.1595 183.251 11.0488 179.804 7.60332C177.36 5.16317 173.611 7.87562 174.363 10.9651H174.415Z" fill="#72CE52"/>
<path d="M167.198 37.3769C167.58 36.422 167.718 35.387 167.602 34.365C167.485 33.343 167.117 32.3662 166.53 31.5226C165.86 30.4386 165.021 29.4697 164.044 28.6531C163.49 28.1818 161.819 27.4592 161.579 27.166L162.864 31.5854C164.274 25.3542 174.687 24.9981 178.583 20.8299C181.653 17.531 178.322 12.4518 174.112 13.499C169.959 14.7149 165.976 16.4532 162.258 18.6726C159.181 20.3485 156.644 22.8698 154.947 25.9406C153.422 28.9254 153.192 32.9888 156.712 34.6749C158.237 35.408 159.845 34.9681 161.36 35.5022C162.874 36.0364 163.835 37.2093 165.141 37.9214C165.317 38.0198 165.511 38.0825 165.711 38.1057C165.911 38.129 166.114 38.1124 166.308 38.057C166.502 38.0015 166.684 37.9083 166.842 37.7826C167 37.657 167.131 37.5013 167.229 37.3245L167.198 37.3769Z" fill="#72CE52"/>
<path d="M161.433 40.1422C163.971 40.5926 166.551 39.273 168.848 38.299C171.379 37.3886 173.806 36.2089 176.087 34.7802C179.22 32.5391 175.878 27.4493 172.953 29.7638C171.353 30.9302 169.634 31.9236 167.825 32.7276C166.864 33.2198 165.903 33.712 164.963 34.2461C164.023 34.7802 162.874 35.8903 161.83 35.9113C159.48 35.9636 158.926 39.7129 161.36 40.1003L161.433 40.1422Z" fill="#72CE52"/>
<path d="M70.0636 81.8445C71.1603 84.2427 72.8836 86.4001 74.1578 88.7251C75.4321 91.05 76.2467 93.8776 78.7117 95.1972C82.3881 97.1242 85.626 93.1027 83.9339 89.699C82.6546 87.4979 81.1532 85.4344 79.4532 83.541C77.8765 81.37 75.9615 79.4676 73.7818 77.9067C71.1498 76.2311 69.0191 79.5719 70.0531 81.8445H70.0636Z" fill="#72CE52"/>
<path d="M77.1763 82.2318C84.1219 79.8964 90.3782 75.435 96.6659 71.7591C103.549 67.7375 110.369 63.6008 117.189 59.485C130.318 51.5467 143.301 43.3047 155.051 33.4289C158.853 30.2347 153.495 23.5217 149.547 26.6216C137.429 35.9281 124.757 44.4862 111.602 52.2484C105.053 56.1966 98.4101 60.0087 91.9763 64.1559C85.8975 68.0727 79.0772 71.9895 74.2205 77.4772C72.3927 79.5717 74.2936 83.1848 77.1345 82.2318H77.1763Z" fill="#72CE52"/>
<path d="M82.315 85.4471C88.446 82.808 93.8041 78.4723 99.3606 74.8278C105.836 70.5863 112.354 66.4496 118.861 62.2605C131.122 54.3432 142.883 45.5984 155.51 38.2466C160.534 35.3247 155.876 28.0357 150.81 30.6225C137.838 37.2517 125.827 45.9126 114.004 54.385C107.967 58.7208 101.909 63.025 95.8825 67.3817C90.2634 71.4556 83.7877 75.3724 79.5159 80.9962C78.0641 82.8918 79.5159 86.7562 82.315 85.5414V85.4471Z" fill="#72CE52"/>
<path d="M85.2921 89.7304C89.7832 84.1275 96.7811 80.6192 102.808 76.9013C109.461 72.8065 116.187 68.8164 122.882 64.7844C135.76 57.0241 150.038 48.9811 160.681 38.257C164.566 34.3506 159.218 27.5643 154.56 30.6957C147.855 35.1989 141.672 40.5505 134.987 45.1376C128.303 49.7246 121.597 54.3536 114.84 58.8882C108.082 63.4229 101.262 67.9157 94.6399 72.5866C89.1357 76.451 83.6836 80.085 79.9027 85.7717C77.8138 88.9136 82.8898 92.7152 85.2921 89.7304Z" fill="#72CE52"/>
<path d="M75.8601 94.5056C76.3928 90.8192 75.7243 87.6983 72.8521 85.1848C70.3748 83.2417 67.2953 82.2334 64.1518 82.3363C58.5117 82.3363 52.3285 84.9125 50.7201 90.7144C49.8989 93.349 49.7659 96.1508 50.3336 98.8517C51.1901 101.91 53.467 103.743 56.2139 104.936C58.8042 106.047 61.5197 107.24 64.392 107.178C66.8778 107.115 69.1756 106.13 71.4734 105.292C75.2857 103.91 78.1057 99.6896 76.6957 95.5738C75.3588 91.7617 71.0974 88.8922 67.0031 90.3374L64.8307 91.1229L63.4102 91.6151C63.73 91.5891 64.0513 91.5891 64.3711 91.6151C65.2067 91.3114 62.9402 90.9867 63.5355 91.2276C64.1309 91.4685 63.8489 91.3323 63.0655 91.0077C62.0629 90.491 62.136 90.6062 63.2849 91.3533L65.3738 94.7464C65.52 96.2964 65.5931 96.4326 65.6036 95.1758V95.5843C66.1362 93.5735 65.4573 94.3275 63.5669 97.8673C62.9402 98.1396 62.888 98.192 63.4102 98.0139C63.9324 97.8359 63.8698 97.8464 63.1178 98.0139C63.4645 97.974 63.8132 97.953 64.1622 97.9511C64.7367 97.9511 64.6531 97.9511 63.9011 97.8778C66.2198 98.5411 65.238 97.3786 60.9557 94.3904L60.8513 90.2013L60.7782 90.7249C60.2037 94.7465 62.042 99.2811 66.4391 100.15C70.2201 100.915 75.2439 98.7889 75.8392 94.4741L75.8601 94.5056Z" fill="#B07A2D"/>
<path d="M158.842 25.3332L159.375 25.2494L159.845 25.04L160.242 24.7153C160.435 24.5387 160.573 24.3094 160.639 24.0555C160.722 23.9011 160.765 23.7283 160.764 23.5528C160.774 23.4624 160.774 23.371 160.764 23.2805C160.768 23.0124 160.699 22.7483 160.566 22.516C160.482 22.2689 160.334 22.0484 160.137 21.8772L159.887 21.563C159.566 21.3894 159.206 21.3027 158.842 21.3117L158.31 21.3954L157.798 21.563L157.401 21.8877L157.798 21.563L158.268 21.3431C158.015 21.4054 157.784 21.5358 157.599 21.7201C157.391 21.8642 157.222 22.0587 157.108 22.2856L156.92 22.7674C156.848 23.0277 156.848 23.303 156.92 23.5633C156.926 23.7406 156.976 23.9135 157.067 24.066C157.153 24.3087 157.301 24.5251 157.495 24.6944L157.902 24.9981C158.223 25.1717 158.583 25.2584 158.947 25.2494L158.842 25.3332Z" fill="#B07A2D"/>
<path d="M165.391 21.27L165.924 21.1862L166.394 20.9768L166.791 20.6521C166.982 20.4737 167.119 20.2451 167.188 19.9924C167.272 19.8349 167.316 19.6582 167.313 19.4792C167.323 19.3922 167.323 19.3043 167.313 19.2174C167.346 18.9465 167.307 18.6717 167.198 18.4215C167.111 18.1787 166.964 17.9624 166.77 17.7931L166.363 17.4894C166.045 17.3078 165.683 17.2206 165.318 17.238L164.785 17.3218L164.305 17.5417L163.908 17.8664L164.305 17.5417L164.785 17.3323C164.535 17.3949 164.305 17.5211 164.117 17.6988C163.906 17.8444 163.737 18.043 163.626 18.2748L163.428 18.7566C163.36 19.0176 163.36 19.2915 163.428 19.5525C163.429 19.7304 163.48 19.9044 163.574 20.0552C163.661 20.2979 163.808 20.5143 164.002 20.6836L164.409 20.9873C164.73 21.1606 165.09 21.2438 165.454 21.2281L165.391 21.27Z" fill="#B07A2D"/>
<path d="M172.243 16.7352L172.765 16.6514L173.246 16.4419L173.643 16.1173C173.841 15.9445 173.979 15.7137 174.039 15.4575C174.133 15.3036 174.177 15.1243 174.165 14.9443C174.185 14.8583 174.185 14.7686 174.165 14.6825C174.167 14.4126 174.102 14.1463 173.977 13.9076C173.89 13.6648 173.743 13.4485 173.549 13.2792L173.131 12.9755C172.814 12.7928 172.451 12.7055 172.086 12.7241L171.554 12.8079L171.084 13.0279L170.687 13.3525L171.084 13.0279L171.554 12.8184C171.302 12.8787 171.072 13.0053 170.885 13.1849C170.674 13.3329 170.501 13.5307 170.384 13.7609L170.196 14.2427C170.123 14.5029 170.123 14.7784 170.196 15.0386C170.197 15.2165 170.248 15.3905 170.342 15.5413C170.429 15.784 170.576 16.0004 170.77 16.1697L171.178 16.4734C171.497 16.6477 171.859 16.731 172.222 16.7142L172.243 16.7352Z" fill="#B07A2D"/>
<path d="M164.305 32.4131L164.837 32.3294L165.307 32.1199L165.704 31.7953C165.901 31.62 166.043 31.3906 166.112 31.1355C166.196 30.978 166.24 30.8013 166.237 30.6223C166.252 30.5357 166.252 30.4471 166.237 30.3605C166.249 30.0895 166.184 29.8206 166.049 29.5855C165.962 29.3428 165.815 29.1264 165.621 28.9571L165.213 28.6534C164.895 28.4739 164.534 28.3869 164.169 28.4021L163.636 28.4859L163.166 28.7058L162.769 29.0305L163.166 28.7058L163.636 28.4963C163.385 28.5567 163.154 28.6832 162.968 28.8629C162.756 29.0109 162.584 29.2087 162.466 29.4389L162.278 29.9206C162.211 30.1816 162.211 30.4556 162.278 30.7166C162.28 30.8944 162.331 31.0684 162.425 31.2193C162.511 31.462 162.659 31.6783 162.853 31.8476L163.26 32.1513C163.58 32.3256 163.941 32.4089 164.305 32.3922V32.4131Z" fill="#B07A2D"/>
<path d="M170.864 28.36L171.397 28.2762L171.877 28.0562L172.274 27.7316C172.471 27.5563 172.613 27.3269 172.682 27.0718C172.766 26.9145 172.806 26.737 172.796 26.5586C172.817 26.4691 172.817 26.3759 172.796 26.2863C172.808 26.0187 172.743 25.7535 172.608 25.5218C172.522 25.276 172.375 25.0561 172.18 24.883L171.762 24.5898C171.446 24.407 171.083 24.3198 170.718 24.3384L170.185 24.4222L169.715 24.6316L169.318 24.9563L169.715 24.6316L170.185 24.4222C169.698 24.596 169.285 24.9325 169.015 25.3752L168.827 25.857C168.754 26.1172 168.754 26.3927 168.827 26.6529C168.828 26.8277 168.878 26.9987 168.974 27.1451C169.058 27.3923 169.205 27.6127 169.402 27.784L169.809 28.0772C170.126 28.2599 170.489 28.3472 170.854 28.3285L170.864 28.36Z" fill="#B07A2D"/>
<path d="M177.705 23.8255L178.228 23.7417L178.708 23.5218L179.105 23.1971C179.3 23.0217 179.438 22.792 179.502 22.5373C179.589 22.3809 179.633 22.2035 179.627 22.0242C179.648 21.9346 179.648 21.8414 179.627 21.7519C179.628 21.4854 179.563 21.2229 179.439 20.9874C179.351 20.7453 179.204 20.5292 179.011 20.359L178.593 20.0553C178.276 19.8737 177.914 19.7865 177.549 19.8039L177.016 19.8877L176.546 20.0972L176.149 20.4218L176.536 20.0972L177.006 19.8877C176.755 19.9559 176.525 20.0855 176.337 20.2647C176.12 20.4069 175.947 20.6062 175.836 20.8407L175.648 21.3225C175.58 21.5834 175.58 21.8575 175.648 22.1184C175.658 22.2916 175.708 22.4601 175.794 22.6107C175.882 22.8559 176.029 23.0755 176.222 23.2495L176.64 23.5427C176.957 23.726 177.319 23.8133 177.684 23.7941L177.705 23.8255Z" fill="#B07A2D"/>
<path d="M66.5023 84.5043C69.9073 82.5983 73.1764 80.399 76.4664 78.3149C82.9734 74.2096 89.2923 69.8006 95.674 65.5068C109.659 56.0813 123.686 46.792 137.389 36.9791C139.781 35.2616 142.204 33.5859 144.565 31.8265C145.4 31.1982 146.194 30.507 147.009 29.8472L147.698 29.2712C147.938 29.0617 148.231 28.8628 147.834 29.1455C149.401 28.0145 147.834 25.4277 146.246 26.5692C146.434 26.4331 146.633 26.3493 146.1 26.6635L145.881 26.7892L145.223 27.1766C144.554 27.5537 143.886 27.9307 143.228 28.3182C141.139 29.533 139.155 30.9573 137.139 32.2768C130.872 36.3926 124.543 40.5189 118.339 44.7813C104.332 54.3848 90.2637 63.9045 76.2575 73.5079C72.3826 76.1575 68.6748 79.0794 64.7059 81.5824C64.3381 81.8298 64.0802 82.2104 63.9862 82.6444C63.8923 83.0784 63.9697 83.532 64.2021 83.91C64.4345 84.288 64.8039 84.5611 65.2328 84.6719C65.6617 84.7827 66.1167 84.7226 66.5023 84.5043Z" fill="#2E2221"/>
<path d="M77.0093 97.8255C80.4142 95.9195 83.6834 93.7202 86.9839 91.6361C93.4804 87.5308 99.7993 83.1218 106.181 78.828C120.166 69.4026 134.193 60.1133 147.896 50.3004C150.288 48.5829 152.711 46.9072 155.072 45.1478C155.907 44.5194 156.701 43.8283 157.516 43.1685L158.205 42.5925C158.445 42.383 158.738 42.184 158.341 42.4668C159.908 41.3357 158.341 38.749 156.753 39.8905C156.941 39.7544 157.14 39.6706 156.607 39.9848L156.388 40.1104L155.73 40.4979C155.061 40.8749 154.393 41.252 153.735 41.6394C151.646 42.8543 149.662 44.2786 147.646 45.5981C141.379 49.7139 135.05 53.8402 128.846 58.1025C114.839 67.706 100.771 77.2257 86.7645 86.8292C82.8896 89.4788 79.1818 92.4006 75.2128 94.9036C74.845 95.151 74.5871 95.5316 74.4932 95.9656C74.3993 96.3996 74.4766 96.8532 74.709 97.2313C74.9415 97.6093 75.3109 97.8823 75.7398 97.9931C76.1686 98.1039 76.6236 98.0439 77.0093 97.8255Z" fill="#2E2221"/>
<path d="M78.0746 95.1863C78.0774 92.2782 77.1844 89.4402 75.5177 87.0602C73.851 84.6802 71.4919 82.8744 68.7629 81.8897C66.034 80.9049 63.0683 80.7893 60.2713 81.5585C57.4743 82.3277 54.9825 83.9443 53.1364 86.1873C51.2904 88.4302 50.1802 91.1901 49.9577 94.0896C49.7351 96.9892 50.411 99.8869 51.893 102.387C53.375 104.886 55.5908 106.866 58.2375 108.056C60.8842 109.245 63.8325 109.586 66.6796 109.031C69.8705 108.376 72.7414 106.645 74.8146 104.126C76.8878 101.607 78.0383 98.452 78.0746 95.1863C78.0746 92.6624 74.1893 92.6624 74.1579 95.1863C74.1572 97.2766 73.5147 99.3161 72.3177 101.028C71.1207 102.739 69.4273 104.039 67.4676 104.752C65.5078 105.465 63.3767 105.555 61.3638 105.011C59.3509 104.467 57.5539 103.315 56.2168 101.712C54.8797 100.108 54.0675 98.1301 53.8904 96.0473C53.7134 93.9645 54.1801 91.8776 55.2271 90.07C56.2742 88.2625 57.8508 86.822 59.7428 85.9442C61.6348 85.0664 63.7505 84.794 65.8023 85.1639C68.1364 85.6072 70.2449 86.8484 71.7686 88.676C73.2922 90.5036 74.1366 92.8044 74.1579 95.1863C74.2415 97.7102 78.106 97.7207 78.0746 95.1863Z" fill="#2E2221"/>
<path d="M24.3795 106.947C25.0327 106.681 25.6475 106.329 26.2073 105.9L28.1395 104.685C29.184 104.015 30.2284 103.365 31.2729 102.674C31.5169 102.517 31.691 102.271 31.7591 101.988C31.8272 101.705 31.784 101.407 31.6384 101.156C31.4814 100.908 31.2337 100.732 30.9485 100.665C30.6634 100.598 30.3636 100.647 30.1135 100.799C29.0691 101.553 28.0246 102.255 26.9802 102.978L25.0897 104.339L24.2855 104.957C24.1139 105.071 23.9531 105.201 23.805 105.345C23.6725 105.502 23.5537 105.67 23.4499 105.847C23.3892 105.977 23.3669 106.122 23.3856 106.265C23.4042 106.407 23.4631 106.542 23.5553 106.652C23.6475 106.762 23.7692 106.843 23.9059 106.886C24.0427 106.929 24.1889 106.932 24.3273 106.895L24.3795 106.947Z" fill="#2E2221"/>
<path d="M39.6389 128.919C40.291 128.651 40.9055 128.299 41.4667 127.872L43.3885 126.657C44.4329 125.987 45.4774 125.338 46.5218 124.646C46.7493 124.482 46.9064 124.238 46.9614 123.963C47.0164 123.687 46.9652 123.401 46.8181 123.162C46.6711 122.923 46.4391 122.749 46.169 122.674C45.8989 122.6 45.6107 122.631 45.3625 122.761C44.318 123.526 43.2736 124.227 42.2291 124.95C41.6025 125.4 40.9653 125.851 40.3491 126.312L39.5344 126.929C39.3631 127.04 39.2022 127.166 39.054 127.306C38.9272 127.469 38.812 127.641 38.7093 127.82C38.6486 127.95 38.6263 128.095 38.645 128.237C38.6636 128.38 38.7225 128.514 38.8147 128.624C38.9069 128.734 39.0286 128.815 39.1653 128.858C39.3021 128.901 39.4483 128.904 39.5867 128.867L39.6389 128.919Z" fill="#2E2221"/>
<path d="M30.4578 101.376C29.6849 102.067 31.2621 104.015 31.659 104.612C32.787 106.309 33.922 107.995 35.0639 109.67C37.6193 113.454 40.2026 117.221 42.8138 120.97L44.2969 123.065C44.7042 123.651 45.0802 124.395 45.8322 124.531C46.2709 124.604 46.8767 124.374 46.9498 123.861C47.096 122.583 45.7173 121.305 45.0176 120.321L41.2993 115.085C38.6812 111.384 36.084 107.694 33.5076 104.015C33.0899 103.408 31.4919 100.517 30.5101 101.376H30.4578Z" fill="#2E2221"/>
<path d="M23.7213 105.628C22.9484 106.309 24.5255 108.256 24.9224 108.853C26.0504 110.55 27.1854 112.24 28.3273 113.922C30.8897 117.692 33.4695 121.456 36.0667 125.212L37.5603 127.306C37.9676 127.893 38.3332 128.636 39.0956 128.773C39.5343 128.846 40.1401 128.615 40.2027 128.102C40.349 126.825 38.9807 125.547 38.281 124.563L34.5627 119.326C31.9411 115.619 29.3404 111.911 26.7188 108.194C26.2906 107.586 24.7031 104.696 23.7213 105.565V105.628Z" fill="#2E2221"/>
<path d="M88.0387 65.6223C85.9064 63.5031 83.5042 61.6755 80.8947 60.1869C78.6224 58.7233 76.163 57.5748 73.5835 56.7728C68.8416 55.4952 62.8256 55.8827 59.3162 59.7261C57.7614 61.5279 56.4126 63.4986 55.2951 65.6013C53.9582 67.9472 53.0495 70.5131 51.6395 72.8275C50.501 74.6917 49.467 75.917 47.3259 76.3883C45.2995 76.7511 43.2329 76.8321 41.1845 76.6291C36.5053 76.3254 31.9619 75.5818 27.2515 76.1788C22.3173 76.7445 17.5732 78.4161 13.3707 81.0696C9.95537 83.3227 7.04277 86.2609 4.81657 89.6991C2.84486 92.3913 1.46376 95.4714 0.764075 98.737C-0.668939 106.68 -0.079781 114.857 2.47698 122.51C5.83651 132.599 12.5464 141.227 21.4861 146.953C29.2882 152.022 39.4611 155.436 48.7463 152.944C54.1384 151.32 59.0752 148.451 63.1598 144.566C67.1881 140.702 70.3189 135.997 72.3301 130.784C73.2388 128.595 74.0117 126.343 74.8159 124.112C75.5157 122.185 75.8604 120.206 76.9048 118.677C79.1504 115.273 84.4876 115.116 88.3939 114.54C90.9331 114.27 93.4066 113.561 95.705 112.446C98.126 111.089 100.158 109.131 101.606 106.759C104.74 101.942 105.032 95.8152 103.841 90.3379C103.133 87.2585 101.997 84.2938 100.468 81.5304C99.2457 79.2473 95.1724 80.9963 96.2899 83.4259C98.5042 88.3795 100.228 93.9719 98.8697 99.4073C97.8253 103.544 95.1619 107.388 90.9319 108.592C86.4512 109.87 81.6571 109.639 77.354 111.734C75.372 112.718 73.6909 114.219 72.4868 116.08C71.5187 117.892 70.7951 119.826 70.3352 121.829C69.1016 126.244 67.4145 130.519 65.3009 134.585C62.7334 139.068 59.0755 142.826 54.6684 145.508C50.8919 148.038 46.4671 149.42 41.926 149.488C37.6277 149.366 33.3947 148.402 29.4657 146.65C20.6167 143.127 13.2826 136.599 8.74371 128.207C4.56236 120.27 2.82481 111.268 3.75122 102.34C3.89009 100.224 4.34425 98.1414 5.09857 96.1608C6.65682 92.6659 8.85311 89.494 11.5742 86.8086C18.2169 80.4307 27.5648 78.6504 36.4427 79.4044C40.3489 79.7291 44.4327 80.2317 48.3077 79.4044C50.047 79.1148 51.6194 78.1942 52.7257 76.8176C54.2332 74.6807 55.4946 72.3795 56.4858 69.958C57.569 67.7695 58.8745 65.6989 60.3816 63.7791C61.4503 62.138 63.0178 60.8858 64.8518 60.2079C67.1853 59.5473 69.6354 59.4114 72.0272 59.8099C74.6789 60.3227 77.2117 61.3279 79.4951 62.7737C81.9614 64.0491 84.3011 65.557 86.4825 67.277C86.7055 67.4894 87.0035 67.6044 87.3111 67.5966C87.6186 67.5887 87.9104 67.4587 88.1223 67.2351C88.3342 67.0115 88.4488 66.7126 88.441 66.4043C88.4332 66.0959 88.3035 65.8033 88.0805 65.5909L88.0387 65.6223Z" fill="#2E2221"/>
<path d="M145.014 30.9153C146.205 30.4814 147.338 29.901 148.387 29.1873C149.167 28.5459 149.837 27.782 150.372 26.9252C151.087 25.6905 151.582 24.3403 151.834 22.9351C151.834 22.6943 151.939 22.4534 152.001 22.223C152.116 21.8355 152.116 22.0764 152.148 21.846C152.221 21.4166 152.033 21.9402 152.148 21.846C152.262 21.7517 152.388 21.5946 152.524 21.469C153.295 20.8061 154.1 20.1839 154.936 19.6048C160.785 15.3236 166.873 11.3829 173.172 7.80207C173.789 7.44599 174.415 7.1004 175.042 6.7548C175.303 6.60818 175.585 6.49298 175.836 6.34636C176.086 6.19974 175.773 6.15785 175.94 6.23116C176.137 6.35283 176.31 6.50891 176.452 6.69196C177.359 7.63842 178.174 8.66941 178.886 9.77094C180.975 12.7661 182.844 15.8975 184.693 19.0393C185.351 20.1703 185.998 21.2909 186.625 22.4325C186.773 22.753 186.941 23.0642 187.126 23.3645C187.429 23.7625 186.897 22.7676 186.98 22.7676C187.064 22.7676 186.447 23.6892 186.416 23.7415C185.759 24.4425 185.01 25.0519 184.191 25.5533L180.358 28.3286C176.953 30.7897 173.538 33.2612 170.008 35.5443C168.483 36.5287 166.874 38.2777 165.015 38.5814C163.574 38.8223 162.112 38.5081 160.67 38.7175C159.213 38.9384 157.801 39.3983 156.492 40.079C156.218 40.2681 156.019 40.5479 155.929 40.8693C155.84 41.1907 155.866 41.5335 156.003 41.8377C156.139 42.142 156.378 42.3884 156.678 42.534C156.977 42.6796 157.318 42.7151 157.641 42.6343C159.03 42.184 160.085 42.6343 161.475 42.7705C162.921 42.9432 164.383 42.9432 165.83 42.7705C168.107 42.4458 169.893 40.9901 171.794 39.7962C175.105 37.7017 178.301 35.4081 181.486 33.1251C183.784 31.4809 186.134 29.8786 188.369 28.161C190.145 26.7891 192.14 24.2442 191.45 21.8774C191.092 20.9082 190.622 19.9839 190.051 19.1231C188.289 15.9813 186.409 12.8988 184.411 9.87566C183.419 8.37806 182.385 6.90142 181.277 5.49807C180.17 4.09473 178.718 2.22011 176.713 1.86404C174.708 1.50797 172.661 3.02651 171.01 4.01095C169.36 4.99538 167.793 5.97981 166.206 7.01661C162.815 9.22287 159.483 11.5269 156.21 13.9286C153.954 15.5833 151.228 17.3218 149.484 19.5525C148.586 20.694 148.544 22.1497 148.22 23.5111C148.038 24.3126 147.701 25.0705 147.228 25.7418C146.331 26.9674 145.278 28.0694 144.095 29.0198C143.27 29.69 143.74 31.4704 144.962 30.9363L145.014 30.9153Z" fill="#2E2221"/>
<path d="M84.916 88.2221C83.681 85.9163 82.2849 83.701 80.7382 81.5928C80.1316 80.6916 79.4761 79.8246 78.7746 78.9955C78.1136 78.1616 77.3563 77.4093 76.5186 76.7544C76.3886 76.6979 76.2455 76.6789 76.1054 76.6994C75.9653 76.7199 75.8336 76.7792 75.7252 76.8705C75.6167 76.9618 75.5358 77.0817 75.4915 77.2165C75.4471 77.3514 75.4411 77.496 75.4741 77.6341C75.9094 78.5804 76.4415 79.4789 77.0617 80.3151C77.6361 81.1948 78.315 81.9908 78.9313 82.8286C80.498 84.9231 81.9289 87.0805 83.5478 89.1123C83.6754 89.2858 83.8636 89.4048 84.0747 89.4456C84.2859 89.4864 84.5046 89.4461 84.6875 89.3327C84.8704 89.2192 85.004 89.0409 85.0618 88.8332C85.1196 88.6255 85.0974 88.4036 84.9995 88.2116L84.916 88.2221Z" fill="#2E2221"/>
<path d="M87.6419 85.4993C86.3899 83.1922 84.9763 80.9769 83.4119 78.8701C82.8079 77.9637 82.1523 77.0931 81.4483 76.2624C80.7843 75.4343 80.0273 74.6858 79.1923 74.0317C79.0623 73.9753 78.9192 73.9563 78.7791 73.9768C78.639 73.9973 78.5073 74.0565 78.3989 74.1479C78.2904 74.2392 78.2095 74.359 78.1652 74.4939C78.1208 74.6288 78.1148 74.7733 78.1478 74.9114C78.5828 75.8601 79.1186 76.7589 79.7458 77.5924C80.3098 78.4617 80.9887 79.2681 81.6154 80.1059C83.1716 82.2004 84.613 84.3578 86.2215 86.3895C86.3406 86.5839 86.5318 86.723 86.7532 86.776C86.9745 86.829 87.2078 86.7917 87.4017 86.6723C87.5956 86.5529 87.7342 86.3611 87.7871 86.1391C87.84 85.9172 87.8028 85.6833 87.6837 85.4889L87.6419 85.4993Z" fill="#2E2221"/>
<path d="M98.765 79.8968C97.53 77.5911 96.1339 75.3758 94.5872 73.2676C93.9804 72.3638 93.3213 71.4966 92.6131 70.6704C91.9559 69.8367 91.2021 69.0843 90.3676 68.4292C90.2376 68.3727 90.0946 68.3537 89.9544 68.3742C89.8143 68.3947 89.6826 68.454 89.5742 68.5453C89.4657 68.6367 89.3848 68.7565 89.3405 68.8913C89.2961 69.0262 89.2901 69.1708 89.3231 69.3089C89.7584 70.2552 90.2905 71.1537 90.9107 71.9899C91.4851 72.8696 92.1536 73.6655 92.7803 74.5033C94.3365 76.5979 95.7779 78.7553 97.3863 80.787C97.5054 80.9814 97.6967 81.1204 97.918 81.1735C98.1394 81.2265 98.3726 81.1892 98.5665 81.0698C98.7605 80.9503 98.8991 80.7585 98.952 80.5366C99.0049 80.3147 98.9677 80.0808 98.8486 79.8863L98.765 79.8968Z" fill="#2E2221"/>
<path d="M101.961 76.6703C100.726 74.3645 99.3301 72.1493 97.7834 70.041C97.1768 69.1399 96.5213 68.2728 95.8198 67.4438C95.1588 66.6099 94.4015 65.8576 93.5637 65.2026C93.4338 65.1462 93.2907 65.1272 93.1506 65.1477C93.0105 65.1682 92.8788 65.2274 92.7703 65.3188C92.6619 65.4101 92.581 65.5299 92.5366 65.6648C92.4923 65.7997 92.4863 65.9442 92.5193 66.0823C92.9546 67.0286 93.4867 67.9271 94.1069 68.7634C94.6813 69.6431 95.3602 70.439 95.9765 71.2768C97.5431 73.3714 98.9741 75.5288 100.593 77.5605C100.721 77.734 100.909 77.853 101.12 77.8938C101.331 77.9346 101.55 77.8943 101.733 77.7809C101.916 77.6674 102.049 77.4891 102.107 77.2814C102.165 77.0737 102.143 76.8518 102.045 76.6598L101.961 76.6703Z" fill="#2E2221"/>
<path d="M112.239 71.0365C110.998 68.7378 109.602 66.5264 108.061 64.4178C107.454 63.5112 106.795 62.6406 106.087 61.8101C105.423 60.982 104.666 60.2335 103.831 59.5794C103.309 59.2024 102.515 59.8621 102.787 60.4591C103.23 61.4035 103.765 62.3016 104.385 63.1401C104.949 64.0093 105.628 64.8157 106.254 65.6535C107.81 67.7481 109.252 69.9055 110.86 71.9372C110.92 72.0334 110.998 72.117 111.09 72.183C111.182 72.2491 111.286 72.2963 111.396 72.3221C111.506 72.3479 111.62 72.3516 111.731 72.3332C111.843 72.3148 111.95 72.2745 112.046 72.2147C112.142 72.1549 112.225 72.0766 112.291 71.9845C112.357 71.8924 112.404 71.7882 112.43 71.6778C112.455 71.5675 112.459 71.4531 112.441 71.3413C112.422 71.2294 112.382 71.1223 112.323 71.026L112.239 71.0365Z" fill="#2E2221"/>
<path d="M115.623 67.0675C114.386 64.7665 112.99 62.5549 111.445 60.4487C110.841 59.5423 110.186 58.6717 109.482 57.841C108.818 57.0129 108.061 56.2644 107.226 55.6103C107.096 55.5539 106.953 55.5349 106.812 55.5554C106.672 55.5759 106.541 55.6351 106.432 55.7265C106.324 55.8178 106.243 55.9376 106.198 56.0725C106.154 56.2074 106.148 56.3519 106.181 56.49C106.616 57.4363 107.149 58.3348 107.769 59.1711C108.343 60.0403 109.022 60.8467 109.638 61.6845C111.205 63.779 112.636 65.9364 114.255 67.9681C114.377 68.1575 114.569 68.2911 114.788 68.34C115.008 68.3889 115.238 68.3493 115.428 68.2296C115.619 68.11 115.755 67.9199 115.807 67.7005C115.859 67.4811 115.823 67.25 115.707 67.057L115.623 67.0675Z" fill="#2E2221"/>
<path d="M125.671 60.6263C124.433 58.3219 123.037 56.1068 121.493 53.997C120.886 53.0959 120.231 52.2289 119.529 51.3998C118.868 50.5659 118.111 49.8136 117.273 49.1587C117.143 49.1022 117 49.0832 116.86 49.1037C116.72 49.1242 116.588 49.1835 116.48 49.2748C116.371 49.3662 116.291 49.486 116.246 49.6208C116.202 49.7557 116.196 49.9003 116.229 50.0384C116.664 50.988 117.196 51.8899 117.816 52.7298C118.391 53.5991 119.07 54.4055 119.686 55.2328C121.253 57.3274 122.684 59.4847 124.302 61.5164C124.43 61.6899 124.618 61.8089 124.829 61.8498C125.041 61.8906 125.259 61.8503 125.442 61.7368C125.625 61.6234 125.759 61.4451 125.816 61.2374C125.874 61.0297 125.852 60.8078 125.754 60.6158L125.671 60.6263Z" fill="#2E2221"/>
<path d="M129.044 57.9036C127.809 55.5979 126.413 53.3826 124.866 51.2744C124.26 50.3698 123.604 49.4993 122.903 48.6667C122.239 47.8386 121.482 47.0901 120.647 46.436C120.517 46.3796 120.374 46.3606 120.233 46.3811C120.093 46.4016 119.962 46.4608 119.853 46.5522C119.745 46.6435 119.664 46.7633 119.62 46.8982C119.575 47.033 119.569 47.1776 119.602 47.3157C120.037 48.2644 120.573 49.1632 121.2 49.9967C121.764 50.866 122.443 51.6724 123.07 52.5102C124.626 54.6047 126.057 56.7621 127.676 58.7938C127.803 58.9673 127.992 59.0863 128.203 59.1271C128.414 59.1679 128.633 59.1276 128.816 59.0142C128.998 58.9007 129.132 58.7225 129.19 58.5148C129.248 58.3071 129.225 58.0852 129.128 57.8932L129.044 57.9036Z" fill="#2E2221"/>
<path d="M139.75 52.2694C138.493 49.9651 137.079 47.7501 135.52 45.6401C134.913 44.739 134.258 43.8719 133.556 43.0429C132.895 42.209 132.138 41.4567 131.3 40.8017C131.17 40.7453 131.027 40.7263 130.887 40.7468C130.747 40.7673 130.615 40.8266 130.507 40.9179C130.398 41.0092 130.317 41.129 130.273 41.2639C130.229 41.3988 130.223 41.5434 130.256 41.6815C130.691 42.6333 131.227 43.5356 131.854 44.3729C132.418 45.2422 133.097 46.0486 133.723 46.8759C135.279 48.9705 136.721 51.1278 138.329 53.1595C138.448 53.354 138.64 53.493 138.861 53.546C139.082 53.599 139.316 53.5617 139.509 53.4423C139.703 53.3229 139.842 53.1311 139.895 52.9092C139.948 52.6872 139.911 52.4533 139.791 52.2589L139.75 52.2694Z" fill="#2E2221"/>
<path d="M143.53 48.4781C142.29 46.1753 140.894 43.9604 139.352 41.8489C138.746 40.9477 138.09 40.0807 137.389 39.2517C136.725 38.4203 135.968 37.6683 135.133 37.0105C135.002 36.953 134.857 36.9336 134.716 36.9544C134.575 36.9752 134.442 37.0355 134.333 37.1283C134.224 37.2211 134.144 37.3427 134.1 37.4793C134.057 37.6159 134.053 37.7619 134.088 37.9007C134.526 38.8481 135.061 39.7467 135.686 40.5817C136.25 41.4509 136.929 42.2573 137.556 43.0847C139.112 45.1792 140.554 47.3366 142.162 49.3683C142.281 49.5627 142.472 49.7018 142.694 49.7548C142.915 49.8078 143.148 49.7705 143.342 49.6511C143.536 49.5316 143.675 49.3398 143.728 49.1179C143.781 48.896 143.743 48.6621 143.624 48.4677L143.53 48.4781Z" fill="#2E2221"/>
<path d="M152.827 42.5716C151.592 40.2659 150.196 38.0506 148.649 35.9424C148.042 35.0412 147.387 34.1742 146.685 33.3451C146.024 32.5113 145.267 31.7589 144.429 31.104C144.299 31.0475 144.156 31.0285 144.016 31.049C143.876 31.0696 143.744 31.1288 143.636 31.2201C143.527 31.3115 143.446 31.4313 143.402 31.5662C143.358 31.701 143.352 31.8456 143.385 31.9837C143.82 32.9355 144.356 33.8378 144.983 34.6752C145.547 35.5444 146.226 36.3508 146.852 37.1782C148.409 39.2727 149.839 41.4301 151.458 43.4618C151.586 43.6353 151.774 43.7543 151.985 43.7951C152.197 43.8359 152.415 43.7956 152.598 43.6822C152.781 43.5687 152.915 43.3904 152.972 43.1827C153.03 42.9751 153.008 42.7531 152.91 42.5611L152.827 42.5716Z" fill="#2E2221"/>
<path d="M156.513 40.4142C155.273 38.1113 153.877 35.8963 152.335 33.785C151.729 32.8838 151.073 32.0168 150.372 31.1877C149.708 30.3563 148.951 29.6043 148.116 28.9466C147.985 28.8891 147.84 28.8696 147.699 28.8904C147.558 28.9113 147.425 28.9715 147.316 29.0643C147.207 29.1571 147.126 29.2788 147.083 29.4153C147.04 29.5519 147.036 29.6979 147.071 29.8367C147.509 30.7841 148.044 31.6828 148.669 32.5178C149.233 33.387 149.912 34.1934 150.539 35.0207C152.095 37.1153 153.526 39.2832 155.145 41.3044C155.267 41.4938 155.459 41.6273 155.678 41.6763C155.898 41.7252 156.128 41.6855 156.318 41.5659C156.509 41.4462 156.645 41.2562 156.697 41.0368C156.749 40.8173 156.713 40.5862 156.597 40.3932L156.513 40.4142Z" fill="#2E2221"/>
<path d="M158.373 16.2328C158.229 15.8727 158.062 15.5228 157.871 15.1855C157.704 14.9027 157.495 14.6409 157.318 14.3791C156.973 13.8974 156.628 13.4261 156.273 12.9653C155.951 12.4787 155.58 12.026 155.166 11.6143L154.602 11.1326L154.32 10.8917C154.137 10.7504 153.922 10.6569 153.693 10.6194C153.581 10.5944 153.464 10.595 153.351 10.6212C153.239 10.6474 153.134 10.6986 153.043 10.7709C152.953 10.8432 152.88 10.9349 152.83 11.0392C152.78 11.1434 152.754 11.2577 152.753 11.3734C152.751 11.567 152.786 11.7592 152.858 11.939C152.921 12.0751 153.004 12.2008 153.077 12.3369L153.453 12.9653C153.766 13.4451 154.116 13.9002 154.498 14.3267C154.675 14.5362 154.842 14.7561 155.02 14.9551L155.145 15.1122L155.459 15.5102C155.647 15.751 155.835 16.0024 156.033 16.2432C156.302 16.5689 156.599 16.8703 156.921 17.1439C157.058 17.2742 157.234 17.3555 157.421 17.3751C157.609 17.3947 157.798 17.3517 157.959 17.2525C158.12 17.1534 158.243 17.0038 158.311 16.827C158.378 16.6501 158.385 16.456 158.331 16.2747L158.373 16.2328Z" fill="#2E2221"/>
<path d="M155.312 7.81246C154.934 7.95219 154.568 8.12024 154.215 8.31516C153.944 8.48272 153.683 8.6817 153.421 8.87021C152.941 9.20533 152.471 9.55093 152.001 9.91748C151.513 10.2414 151.061 10.6171 150.654 11.038L150.184 11.5931C150.098 11.6861 150.018 11.784 149.943 11.8863C149.797 12.0665 149.703 12.2841 149.672 12.5147C149.647 12.6272 149.647 12.744 149.673 12.8563C149.7 12.9686 149.751 13.0735 149.823 13.1631C149.895 13.2528 149.987 13.3249 150.091 13.374C150.195 13.4231 150.309 13.448 150.424 13.4468C150.616 13.4565 150.809 13.4244 150.988 13.3525C151.124 13.2897 151.249 13.2059 151.374 13.1326L152.001 12.7556C152.486 12.4305 152.94 12.0625 153.359 11.6559C153.568 11.4884 153.797 11.3208 153.996 11.1323C153.902 11.2266 153.891 11.2266 153.996 11.1323L154.153 11.0066L154.539 10.6924C154.779 10.4935 155.03 10.305 155.281 10.1165C155.603 9.8439 155.903 9.54624 156.179 9.22628C156.308 9.08718 156.388 8.90945 156.407 8.7203C156.426 8.53115 156.383 8.341 156.283 8.17901C156.184 8.01973 156.035 7.89762 155.859 7.83141C155.684 7.76519 155.492 7.75853 155.312 7.81246Z" fill="#2E2221"/>
<path d="M169.203 8.55622C169.088 8.16293 168.938 7.78088 168.754 7.4147C168.597 7.12147 168.42 6.8387 168.253 6.55594C167.95 6.06372 167.647 5.56103 167.323 5.07928C167.028 4.57393 166.678 4.10323 166.279 3.67595L165.756 3.16278C165.52 2.90319 165.216 2.71465 164.879 2.61821C164.766 2.59108 164.649 2.59017 164.535 2.61556C164.422 2.64094 164.316 2.69196 164.225 2.7647C164.134 2.83744 164.062 2.92998 164.012 3.03527C163.962 3.14056 163.937 3.25582 163.939 3.37224C164.007 3.96748 164.223 4.53621 164.566 5.02693C164.816 5.46885 165.103 5.8892 165.422 6.28365C165.756 6.74445 166.08 7.21572 166.404 7.68699C166.582 7.93833 166.749 8.21062 166.926 8.47244C167.182 8.80955 167.461 9.12802 167.762 9.42546C167.901 9.54728 168.076 9.62128 168.26 9.63665C168.444 9.65202 168.628 9.60795 168.786 9.51089C168.943 9.41382 169.065 9.26883 169.135 9.09708C169.204 8.92534 169.217 8.73584 169.172 8.55622H169.203Z" fill="#2E2221"/>
<path d="M166.718 0C166.326 0.117277 165.945 0.267927 165.579 0.450316C165.287 0.607406 165.005 0.785453 164.723 0.953015C164.232 1.25672 163.741 1.56043 163.25 1.88508C162.746 2.18077 162.277 2.53204 161.851 2.93235L161.339 3.45598C161.08 3.69304 160.892 3.99762 160.796 4.33568C160.769 4.44891 160.768 4.56684 160.793 4.68048C160.818 4.79411 160.869 4.90045 160.942 4.99137C161.014 5.08229 161.107 5.15539 161.212 5.2051C161.317 5.25481 161.432 5.27982 161.548 5.27821C162.141 5.20962 162.708 4.99365 163.198 4.64986C163.639 4.39883 164.058 4.11159 164.451 3.7911C164.911 3.45597 165.381 3.13132 165.851 2.80666L166.634 2.28303C166.97 2.02668 167.288 1.7467 167.585 1.44522C167.706 1.30555 167.78 1.13061 167.795 0.94592C167.811 0.761229 167.767 0.576457 167.67 0.41858C167.573 0.260703 167.428 0.137983 167.257 0.0683305C167.086 -0.00132183 166.897 -0.0142493 166.718 0.0314167V0Z" fill="#2E2221"/>
<path d="M181.653 29.9416C181.794 30.2673 181.958 30.5823 182.144 30.8841L182.708 31.6801C183.032 32.1514 183.356 32.6226 183.659 33.1044C183.946 33.5956 184.275 34.0615 184.64 34.4972L185.131 35.0314C185.204 35.1151 185.278 35.2094 185.361 35.2932C185.539 35.4372 185.745 35.5408 185.967 35.5969C186.479 35.7749 186.855 35.2827 186.896 34.8428C186.872 34.3127 186.714 33.7975 186.437 33.3452C186.307 33.0516 186.15 32.7711 185.967 32.5074C185.821 32.2875 185.664 32.078 185.507 31.8686C185.184 31.4078 184.839 30.9575 184.463 30.5176L183.868 29.7531C183.59 29.4277 183.282 29.1296 182.948 28.8629C182.791 28.728 182.591 28.6538 182.384 28.6538C182.178 28.6538 181.977 28.728 181.82 28.8629C181.66 28.9959 181.552 29.1815 181.516 29.3867C181.48 29.5919 181.517 29.8034 181.622 29.9835L181.653 29.9416Z" fill="#2E2221"/>
<path d="M188.849 32.8945C188.52 33.0334 188.202 33.1979 187.899 33.3867L187.115 33.9418C186.645 34.2769 186.175 34.5911 185.695 34.9053C185.205 35.1936 184.74 35.5229 184.306 35.8897L183.763 36.3714C183.674 36.4427 183.591 36.5197 183.512 36.6018C183.366 36.7786 183.263 36.9863 183.209 37.2093C183.032 37.7329 183.522 38.1099 183.961 38.1518C184.486 38.1254 184.996 37.9669 185.444 37.691C185.742 37.5632 186.025 37.4053 186.29 37.2197L186.927 36.7589L188.275 35.7117L189.037 35.1042C189.362 34.8261 189.659 34.5175 189.925 34.1826C190.053 34.0312 190.125 33.8397 190.129 33.641C190.132 33.4423 190.066 33.2486 189.943 33.093C189.82 32.9373 189.647 32.8293 189.453 32.7874C189.259 32.7455 189.057 32.7722 188.881 32.8631L188.849 32.8945Z" fill="#2E2221"/>
<path d="M170.331 37.3457C170.472 37.6714 170.636 37.9864 170.822 38.2883L171.386 39.0842C171.71 39.545 172.023 40.0268 172.336 40.498C172.626 40.9909 172.955 41.4602 173.318 41.9014L173.799 42.4355C173.882 42.5193 173.955 42.6135 174.028 42.6973C174.208 42.8372 174.414 42.9404 174.634 43.001C175.156 43.179 175.532 42.6868 175.574 42.247C175.549 41.7169 175.391 41.2016 175.115 40.7494C174.985 40.4524 174.827 40.1684 174.645 39.9011L174.185 39.2727C173.851 38.8119 173.517 38.3616 173.14 37.9217L172.535 37.1468C172.257 36.8248 171.949 36.5302 171.616 36.267C171.46 36.1329 171.262 36.0591 171.057 36.0591C170.852 36.0591 170.653 36.1329 170.498 36.267C170.338 36.4 170.23 36.5856 170.194 36.7908C170.157 36.996 170.195 37.2075 170.3 37.3876L170.331 37.3457Z" fill="#2E2221"/>
<path d="M177.475 40.3515C177.144 40.4862 176.826 40.651 176.525 40.8437L175.742 41.3988C175.272 41.7234 174.802 42.0481 174.321 42.3623C173.83 42.6494 173.362 42.9751 172.922 43.3362L172.389 43.8284C172.3 43.8997 172.217 43.9766 172.138 44.0588C171.993 44.2356 171.889 44.4433 171.835 44.6662C171.647 45.1794 172.138 45.5669 172.577 45.6088C173.106 45.5841 173.619 45.4256 174.07 45.148C174.369 45.0184 174.653 44.8569 174.916 44.6662L175.554 44.2159L176.901 43.1687L177.663 42.5613C177.985 42.2829 178.278 41.9743 178.541 41.6397C178.669 41.4882 178.741 41.2968 178.744 41.0981C178.747 40.8993 178.682 40.7057 178.559 40.55C178.435 40.3943 178.262 40.2863 178.068 40.2444C177.875 40.2025 177.672 40.2293 177.496 40.3201L177.475 40.3515Z" fill="#2E2221"/>
</svg>
