<svg width="93" height="59" viewBox="0 0 93 59" fill="none" xmlns="http://www.w3.org/2000/svg">
<path d="M13.2628 24.2688C23.3443 28.1991 34.4857 26.721 45.005 26.2512C50.6506 25.9991 56.2963 25.8577 61.9419 25.8272C64.7608 25.8272 67.5837 25.8272 70.4103 25.8272C73.2422 26.0242 76.0877 25.7807 78.8442 25.1053C82.3007 24.0397 80.7107 18.5854 77.185 19.6625C74.732 20.203 72.2094 20.3615 69.7075 20.1323C66.8808 20.1323 64.058 20.1323 61.2391 20.1323C55.7778 20.1781 50.3204 20.3194 44.8668 20.5562C34.8199 21.0031 24.266 22.4927 14.6454 18.7458C13.9109 18.572 13.1372 18.6919 12.4907 19.0798C11.8443 19.4677 11.3768 20.0925 11.1889 20.8198C11.0291 21.5493 11.1562 22.3119 11.544 22.9512C11.9318 23.5905 12.5509 24.0578 13.2743 24.2574L13.2628 24.2688Z" fill="#5887FF"/>
<path d="M74.4314 21.8859C70.0992 27.936 65.9706 34.1236 62.0456 40.4488C61.6789 41.1098 61.5912 41.8885 61.8019 42.6138C62.0126 43.3391 62.5043 43.9514 63.1689 44.316C63.8336 44.6807 64.6166 44.7679 65.3459 44.5584C66.0751 44.3489 66.6908 43.8598 67.0575 43.1988C70.9749 36.8737 75.1035 30.6861 79.4433 24.636C79.8009 23.971 79.8806 23.1927 79.6649 22.4698C79.4492 21.7469 78.9556 21.1377 78.2911 20.7744C77.6202 20.4306 76.8417 20.3579 76.1182 20.5714C75.3947 20.7849 74.7821 21.2682 74.4083 21.9203L74.4314 21.8859Z" fill="#5887FF"/>
<path d="M14.0233 26.4351C14.2191 26.5497 14.2883 26.6184 14.0233 26.4351C14.1814 26.5714 14.3315 26.7168 14.4726 26.8705C14.7722 27.1799 14.2652 26.5497 14.4726 26.8705L14.7607 27.3059C15.1639 27.9476 15.498 28.6352 15.8437 29.2998C16.8057 30.9173 17.9042 32.4507 19.1274 33.8832C20.2567 35.3345 21.2772 36.8664 22.1806 38.4666C23.061 40.0052 23.8087 41.6151 24.4158 43.2792C24.6358 44.001 25.1351 44.6063 25.8039 44.9619C26.4726 45.3175 27.256 45.3944 27.9818 45.1756C28.7075 44.9568 29.3161 44.4602 29.6737 43.7951C30.0313 43.13 30.1086 42.3509 29.8886 41.6292C28.4298 37.6597 26.3707 33.9348 23.7821 30.5831C22.5244 29.0877 21.4133 27.4762 20.4639 25.7705C19.6689 23.9655 18.3641 22.429 16.7078 21.3475C16.0432 20.9843 15.2607 20.8986 14.5326 21.1092C13.8044 21.3198 13.1902 21.8094 12.825 22.4704C12.4599 23.1314 12.3737 23.9096 12.5854 24.6338C12.7972 25.3579 13.2895 25.9688 13.9541 26.3319L14.0233 26.4351Z" fill="#5887FF"/>
<path d="M73.4636 22.86L47.7933 23.2152C39.5553 23.3298 31.0178 22.734 22.9065 24.3611C22.1842 24.5835 21.5789 25.0794 21.221 25.7418C20.8632 26.4043 20.7816 27.1801 20.9939 27.9018C21.2275 28.6133 21.7278 29.2079 22.3908 29.5621C23.0538 29.9164 23.8286 30.0029 24.5541 29.8039C28.3826 29.165 32.2643 28.8964 36.1449 29.0018C40.2697 29.0018 44.3867 28.9598 48.4961 28.8757L73.6018 28.532C77.2772 28.532 77.139 22.8027 73.4636 22.8027V22.86Z" fill="#5887FF"/>
<path d="M19.3116 28.9788C22.2846 31.5415 25.802 33.4022 29.6005 34.4216C33.7352 35.3991 38.0367 35.45 42.1937 34.5706C46.5143 33.8029 50.7658 33.058 55.144 32.7028C59.5223 32.3476 64.2462 32.1987 68.8087 32.0497C72.4842 31.9351 72.3459 26.2517 68.6705 26.3204C60.139 26.4124 51.6284 27.1787 43.2191 28.6121C39.6128 29.3111 36.0065 29.9528 32.3542 29.2194C28.9926 28.5684 25.8572 27.0646 23.252 24.8537C20.4638 22.4818 16.4773 26.561 19.3116 28.9788Z" fill="#5887FF"/>
<path d="M70.007 26.7561C58.9769 26.9929 47.9584 26.8249 36.9514 26.252C36.1955 26.2759 35.4794 26.5946 34.9577 27.1391C34.436 27.6837 34.1506 28.4104 34.1631 29.1624C34.1959 29.9112 34.519 30.6183 35.0646 31.1353C35.6102 31.6523 36.336 31.9391 37.0896 31.9354C48.0967 32.5083 59.1152 32.6764 70.1453 32.4396C73.8207 32.3594 73.6824 26.7103 70.007 26.7103V26.7561Z" fill="#5887FF"/>
<path d="M31.8011 32.1649H33.7944C34.1963 32.1779 34.5944 32.0829 34.9466 31.8898C35.2982 31.7702 35.6121 31.5608 35.8568 31.2825C36.1215 31.0261 36.3158 30.7066 36.4213 30.3544C36.6 30.0001 36.6758 29.6033 36.6402 29.2085L36.525 28.4522C36.3822 27.9792 36.1158 27.5522 35.7531 27.2147L35.1655 26.7908C34.7233 26.5426 34.2212 26.4197 33.7137 26.4355H31.7205C31.3189 26.411 30.9188 26.5025 30.5683 26.6991C30.2161 26.8233 29.9024 27.0366 29.6581 27.3178C29.3896 27.5712 29.1946 27.8918 29.0936 28.246C28.9149 28.6003 28.8391 28.9971 28.8746 29.3919L28.9899 30.1481C29.1356 30.6166 29.4016 31.0393 29.7618 31.3742L30.3494 31.8096C30.7935 32.053 31.2942 32.1756 31.8011 32.1649Z" fill="#5887FF"/>
<path d="M34.1285 32.1648C37.8155 32.1648 37.6657 26.4355 33.9903 26.4355C30.3149 26.4355 30.4531 32.1648 34.1285 32.1648Z" fill="#5887FF"/>
<path d="M26.6396 37.1826C40.2236 36.9305 53.7731 35.2232 67.3687 35.693C71.0556 35.8191 70.8943 30.1356 67.2304 29.9637C53.6233 29.4939 40.0854 31.2127 26.4898 31.4533C22.8144 31.5221 22.9526 37.1826 26.6396 37.1826Z" fill="#5887FF"/>
<path d="M64.2462 34.1002L44.3483 33.6992C37.9998 33.5731 31.444 33.0575 25.2569 34.845C21.7312 35.8649 23.3788 41.3192 26.916 40.2879C32.6768 38.6035 39.0829 39.2795 45.0511 39.3941L64.3844 39.7837C68.0599 39.8524 67.9101 34.169 64.2462 34.0544V34.1002Z" fill="#5887FF"/>
<path d="M29.0475 44.0354C40.94 42.7888 52.9065 42.3829 64.8568 42.8208C68.5322 42.9583 68.3825 37.2748 64.7186 37.0915C52.7683 36.6534 40.8018 37.0593 28.9092 38.3061C28.1573 38.3415 27.4479 38.6636 26.9287 39.2057C26.4094 39.7477 26.1201 40.4679 26.121 41.2166C26.1451 41.9683 26.4655 42.6805 27.013 43.1993C27.5606 43.7181 28.2913 44.002 29.0475 43.9895V44.0354Z" fill="#5887FF"/>
<path d="M63.3821 40.5062C52.7515 40.277 42.1208 39.937 31.4901 39.4863C30.7352 39.5132 30.0209 39.8328 29.4998 40.3767C28.9788 40.9206 28.6924 41.6456 28.7019 42.3968C28.7346 43.1456 29.0577 43.8527 29.6034 44.3697C30.149 44.8867 30.8748 45.1734 31.6284 45.1698C42.2667 45.6128 52.8974 45.9528 63.5204 46.1896C67.1958 46.2698 67.046 40.5864 63.3821 40.4603V40.5062Z" fill="#5887FF"/>
<path d="M50.2934 53.6375C55.5934 54.1302 60.9049 54.623 66.2394 54.7146C71.3781 54.8178 76.5398 54.7146 81.5863 55.7917C85.1695 56.5824 86.5637 51.0594 82.9689 50.2687C77.5998 49.1229 72.1155 49.1229 66.6427 49.0426C61.1699 48.9624 55.6395 48.4697 50.1552 47.9541C49.3983 47.9751 48.6804 48.2928 48.1581 48.838C47.6358 49.3832 47.3514 50.1117 47.3669 50.8645C47.4025 51.6124 47.7265 52.3178 48.2715 52.8342C48.8165 53.3506 49.5407 53.6384 50.2934 53.6375Z" fill="#5887FF"/>
<path d="M49.0376 49.2948C56.8525 49.36 64.6442 50.1503 72.3114 51.6552C73.0453 51.82 73.8149 51.6961 74.4591 51.3096C75.1033 50.9231 75.5723 50.3037 75.7679 49.5812C75.9427 48.8508 75.822 48.0813 75.432 47.4383C75.042 46.7954 74.4137 46.3305 73.6825 46.1437C65.4995 44.5329 57.1832 43.6852 48.8417 43.6113C45.1663 43.6113 45.3161 49.2719 48.9915 49.3406L49.0376 49.2948Z" fill="#5887FF"/>
<path d="M65.5827 47.8508C69.2466 48.9432 72.8951 50.089 76.5283 51.2884C77.2628 51.4622 78.0365 51.3422 78.683 50.9543C79.3294 50.5664 79.7969 49.9416 79.9848 49.2144C80.1446 48.4849 80.0175 47.7222 79.6297 47.083C79.2419 46.4437 78.6228 45.9763 77.8994 45.7768C74.2662 44.5622 70.6177 43.4163 66.9538 42.3392C66.2195 42.1685 65.4471 42.2897 64.8014 42.6772C64.1557 43.0646 63.6878 43.6876 63.4973 44.4132C63.3375 45.1427 63.4645 45.9054 63.8523 46.5446C64.2401 47.1839 64.8593 47.6512 65.5827 47.8508Z" fill="#5887FF"/>
<path d="M68.348 45.3414C68.1329 45.2497 68.179 45.2726 68.4862 45.4101L69.0277 45.6736L69.961 46.1893L72.058 47.3351C73.3714 48.0685 74.6734 48.8019 75.9753 49.5581C78.6714 51.0859 81.3598 52.6557 84.0405 54.2676C84.7051 54.6323 85.4882 54.7194 86.2174 54.5099C86.9467 54.3004 87.5624 53.8113 87.929 53.1504C88.2957 52.4894 88.3834 51.7106 88.1727 50.9854C87.962 50.2601 87.4703 49.6478 86.8057 49.2831C84.0405 47.6331 81.2753 46.0174 78.4755 44.4132C75.6989 42.6512 72.7818 41.1183 69.7536 39.8298C69.0191 39.656 68.2454 39.7759 67.5989 40.1638C66.9525 40.5517 66.485 41.1765 66.2971 41.9038C66.1402 42.6331 66.2685 43.3944 66.6559 44.0329C67.0433 44.6715 67.6607 45.1394 68.3825 45.3414H68.348Z" fill="#5887FF"/>
<path d="M25.0725 41.1484L23.5978 41.2515L25.7754 46.0412C26.0734 45.702 26.3468 45.342 26.5934 44.9641L26.8354 44.6204C26.4551 45.1818 26.651 44.8495 26.8354 44.7235C28.748 42.7755 26.6741 38.9942 23.9434 40.0484C20.3491 41.4007 16.8795 43.0608 13.5739 45.01C11.5961 46.2384 9.71977 47.6216 7.96286 49.1465L6.707 50.2122L6.08483 50.7507L5.83136 50.9684C6.03875 50.808 6.08483 50.7736 5.9581 50.8538C5.22587 51.324 4.60797 51.9502 4.14918 52.6872C3.78844 53.3515 3.70715 54.1309 3.92311 54.8547C4.13906 55.5785 4.63466 56.1877 5.30135 56.5488C5.97279 56.8896 6.7503 56.9608 7.47301 56.7475C8.19573 56.5342 8.80836 56.0528 9.18416 55.4029C8.89612 55.781 9.38003 55.2998 8.91917 55.655C8.4583 56.0102 8.7233 55.8154 8.83851 55.7466C9.22268 55.5222 9.57852 55.2529 9.89851 54.9445L12.1337 53.031C13.6204 51.7718 15.2123 50.6409 16.8922 49.6507C18.3093 48.8371 19.7841 48.1152 21.2243 47.3589C21.5354 47.1985 21.881 47.0496 22.1921 46.8662C22.5032 46.6829 21.6737 47.0496 22.1921 46.8662C22.408 46.7941 22.6195 46.71 22.8258 46.6141C23.7821 46.236 24.7039 45.8006 25.6602 45.4683L22.7682 40.7817C22.4729 41.1192 22.1997 41.4751 21.9502 41.8474L21.7082 42.1912C22.0884 41.6297 21.8926 41.962 21.7082 42.0995C21.3349 42.5115 21.0894 43.0222 21.0012 43.5698C20.9131 44.1175 20.986 44.6788 21.2113 45.1862C21.4365 45.6936 21.8045 46.1254 22.2708 46.4296C22.7372 46.7338 23.282 46.8973 23.8397 46.9006L25.3145 46.7975C26.0784 46.7793 26.8038 46.46 27.331 45.9098C27.8582 45.3597 28.1441 44.6238 28.1258 43.8641C28.1075 43.1043 27.7864 42.3829 27.2333 41.8586C26.6801 41.3343 25.9402 41.05 25.1762 41.0682L25.0725 41.1484Z" fill="#5887FF"/>
<path d="M10.9584 56.1128C17.1047 56.3663 23.2607 56.2515 29.3931 55.769C32.3542 55.5284 35.3152 55.2076 38.2533 54.7951C41.1913 54.3826 44.5786 54.1534 47.2978 52.6294C50.5008 50.8304 47.4936 45.9949 44.2906 47.7939C43.1486 48.3133 41.9244 48.6312 40.6728 48.7335C39.2672 48.9627 37.8615 49.1574 36.4559 49.3408C33.6907 49.6998 30.9178 49.9748 28.1372 50.1658C22.3861 50.5802 16.6159 50.6681 10.8547 50.4293C10.0908 50.4476 9.36542 50.7669 8.8382 51.317C8.31098 51.8671 8.0251 52.603 8.04343 53.3628C8.06177 54.1225 8.38282 54.8439 8.93597 55.3682C9.48912 55.8925 10.229 56.1769 10.993 56.1586L10.9584 56.1128Z" fill="#5887FF"/>
<path d="M42.9887 45.4559L42.8734 45.7882L43.5878 44.5163C43.8297 44.2757 43.7145 44.2757 43.2306 44.5163C42.7467 44.7569 42.5854 44.7225 42.2628 44.8142C41.6226 45.0019 40.9726 45.1549 40.3156 45.2725C39.2437 45.4424 38.1626 45.5495 37.078 45.5934C34.4396 45.7309 31.7896 45.5934 29.1511 45.5934C23.7027 45.4792 18.2672 46.1665 13.0208 47.633C9.49516 48.6414 11.1312 54.0842 14.6799 53.0759C20.3686 51.6217 26.2463 51.0344 32.1122 51.3341C34.9058 51.4411 37.7036 51.3184 40.4769 50.9675C43.4034 50.532 47.4706 49.9935 48.5421 46.8195C48.7255 46.0871 48.6087 45.3122 48.2176 44.6654C47.8266 44.0186 47.1931 43.5528 46.4567 43.3704C45.7202 43.1881 44.9411 43.3041 44.2908 43.6931C43.6404 44.0821 43.172 44.712 42.9887 45.4444V45.4559Z" fill="#5887FF"/>
<path d="M28.8977 49.0887H40.1544C40.9093 49.0619 41.6236 48.7423 42.1447 48.1984C42.6657 47.6545 42.9521 46.9294 42.9426 46.1782C42.9101 45.4354 42.5919 44.7333 42.0536 44.2172C41.5154 43.7011 40.7983 43.4104 40.0507 43.4053H28.7595C28.0036 43.4292 27.2875 43.7479 26.7658 44.2924C26.2441 44.837 25.9587 45.5637 25.9712 46.3157C26.004 47.0645 26.3271 47.7716 26.8727 48.2887C27.4183 48.8057 28.1441 49.0924 28.8977 49.0887Z" fill="#5887FF"/>
<path d="M47.1941 22.126C49.9571 22.4622 52.7434 22.5695 55.5242 22.4468C58.4392 22.4468 61.3542 22.3552 64.2807 22.2635C69.8918 22.0916 75.5259 22.0343 81.1484 21.9312C84.3745 21.9312 84.2132 16.7061 81.0217 16.9696C75.5028 17.4165 69.9839 17.9092 64.4651 18.2873C61.6423 18.4707 58.8194 18.654 55.9966 18.7686C53.1738 18.8832 50.328 18.7686 47.5282 19.0436C45.8921 19.2155 45.316 21.8281 47.1941 22.126Z" fill="#242D2C"/>
<path d="M45.8115 55.2071C47.1826 56.2957 49.0607 56.353 50.7543 56.5593C52.448 56.7655 54.4643 56.8916 56.3193 57.0978C60.1215 57.5218 63.9351 57.8885 67.7603 58.0833C75.493 58.6714 83.2706 58.0371 90.8037 56.204C93.5458 55.4707 92.2785 51.3342 89.5248 51.9988C82.4379 53.6652 75.1679 54.4351 67.8871 54.2905C64.3154 54.2905 60.7436 54.0842 57.1719 53.8321C55.3861 53.7061 53.6002 53.5342 51.8259 53.3394C50.0515 53.1446 48.3694 52.5029 46.7678 52.6519C45.6157 52.755 44.6594 54.3592 45.7655 55.2301L45.8115 55.2071Z" fill="#242D2C"/>
<path d="M47.0905 19.0431C44.0948 18.7567 41.0416 18.8942 38.0344 18.7796C35.0273 18.665 31.8127 18.4817 28.7019 18.2869C22.6184 17.9202 16.5465 17.416 10.4631 16.9691C7.29462 16.7285 7.32918 21.8734 10.5783 21.9307C16.6617 22.0338 22.7337 22.0911 28.8056 22.263C31.8127 22.3432 34.8314 22.4234 37.8501 22.4349C40.9593 22.588 44.0757 22.4999 47.1711 22.1713C47.5652 22.1292 47.929 21.9411 48.19 21.6444C48.4511 21.3478 48.5904 20.9643 48.5802 20.5703C48.5701 20.1762 48.4112 19.8003 48.1352 19.5174C47.8592 19.2344 47.4862 19.0652 47.0905 19.0431Z" fill="#242D2C"/>
<path d="M46.7794 52.5945C45.8635 52.6049 44.953 52.7359 44.0718 52.9841C43.2422 53.1216 42.4011 53.2018 41.56 53.282C39.7742 53.4653 37.9768 53.6487 36.1794 53.7633C32.4234 54.0153 28.6673 54.1987 24.9112 54.2331C17.4519 54.3713 10.0035 53.6017 2.73201 51.9413C2.16517 51.8015 1.56571 51.8914 1.0655 52.1912C0.565293 52.491 0.205304 52.9761 0.0647402 53.5398C-0.0758237 54.1036 0.0145459 54.6997 0.315968 55.1972C0.61739 55.6947 1.10518 56.0527 1.67202 56.1925C9.30766 57.9961 17.1754 58.6299 25.0034 58.0717C28.9438 57.8769 32.8727 57.5331 36.7901 57.1092C38.5644 56.9144 40.3503 56.7654 42.1361 56.5935C43.922 56.4216 46.1918 56.4331 47.6089 55.3675C47.8804 55.1884 48.0869 54.9273 48.198 54.6227C48.3091 54.3182 48.3189 53.9862 48.226 53.6757C48.1331 53.3651 47.9424 53.0924 47.682 52.8978C47.4215 52.7032 47.1051 52.5968 46.7794 52.5945Z" fill="#242D2C"/>
<path d="M47.8624 0.973872C47.6888 1.36569 47.5387 1.76744 47.4131 2.17701C47.3209 2.58952 47.2518 3.00204 47.1827 3.40309C47.0213 4.2281 46.8831 5.04164 46.7679 5.88958C46.5259 7.58545 46.3531 9.32718 46.2724 11.0001C46.1918 12.6731 46.1918 14.4377 46.1918 16.1336C46.1918 16.993 46.1918 17.8523 46.1918 18.7117C46.1918 19.1013 46.1918 19.4909 46.2609 19.8576C46.2609 20.0639 46.2609 20.2816 46.3416 20.4993C46.4166 20.7498 46.509 20.9948 46.6181 21.2326C46.7314 22.0142 46.7585 22.8057 46.6987 23.5931C46.6987 24.464 46.6987 25.3234 46.6987 26.1828C46.6987 27.913 46.6987 29.6203 46.7794 31.362V33.8256C46.7794 34.7308 47.0329 35.6246 47.0559 36.5528C47.0559 38.2601 46.9868 39.9903 46.9061 41.6977C46.9061 42.6373 46.9061 43.5884 46.8024 44.5165C46.6987 45.4446 46.6066 46.3842 46.5144 47.3353C46.4222 48.2864 46.284 49.1228 46.0996 50.0281C46.0074 50.5208 45.9383 51.025 45.8807 51.5177C45.8807 51.6552 45.8231 51.8843 45.8807 51.6895C45.6871 52.0204 45.4715 52.3382 45.2355 52.6406C45.0799 52.934 44.997 53.26 44.9935 53.5917C44.9928 53.9275 45.076 54.2582 45.2355 54.5542C45.3865 54.8513 45.6129 55.1041 45.8922 55.2876C46.1684 55.4801 46.4898 55.5985 46.8255 55.6313C47.1546 55.6666 47.4873 55.6193 47.7933 55.4938C48.1067 55.3697 48.3838 55.1693 48.5992 54.9111C48.8146 54.6528 48.9614 54.3449 49.0261 54.0156C49.1121 53.6927 49.1121 53.3531 49.0261 53.0302C48.9398 52.7303 48.8359 52.4357 48.715 52.1479C48.715 52.0448 48.715 51.85 48.715 52.0791C48.6997 51.6581 48.719 51.2366 48.7726 50.8187C48.7726 49.9708 48.7726 49.1343 48.7726 48.2863C48.7726 46.5905 48.7726 44.8488 48.7726 43.1987C48.7726 41.5487 48.7726 39.7612 48.6805 38.0538C48.6228 37.1954 48.6228 36.3341 48.6805 35.4757C48.7497 34.6138 48.7497 33.7478 48.6805 32.886C48.5307 29.4484 48.3118 26.0109 48.2426 22.5733C48.1966 22.1429 48.1966 21.7089 48.2426 21.2785C48.3446 20.978 48.4292 20.6719 48.4961 20.3618C48.5768 19.4565 48.5768 18.5628 48.5883 17.6461V12.5012C48.5883 10.6335 48.5883 8.75422 48.5883 6.88647V2.5895C48.5771 2.08657 48.5309 1.58502 48.45 1.08843C48.447 1.00148 48.4097 0.919224 48.3463 0.859279C48.2896 0.797929 48.2111 0.760947 48.1274 0.756156C48.0429 0.746804 47.9578 0.766794 47.8864 0.812735C47.815 0.858676 47.7617 0.927745 47.7357 1.00825L47.8624 0.973872Z" fill="#242D2C"/>
<path d="M25.568 41.3192C25.5328 41.1967 25.4652 41.0859 25.3722 40.9983C19.0605 33.6038 13.5136 25.5958 8.81551 17.0957H5.35901C6.89523 19.5249 8.48907 21.9045 10.1405 24.2344C13.597 29.0699 17.2033 33.8023 20.9478 38.3972C21.9617 39.6233 22.9526 40.8837 23.9319 42.1213C24.0022 42.2254 24.0922 42.315 24.1969 42.3848C24.3024 42.452 24.4197 42.4986 24.5426 42.5223C24.6683 42.5451 24.7971 42.5451 24.9228 42.5223C25.0439 42.486 25.1572 42.4277 25.2569 42.3505C25.3519 42.2709 25.4302 42.1736 25.4874 42.064C25.5444 41.9533 25.5796 41.8327 25.5911 41.7088C25.6093 41.5787 25.6014 41.4463 25.568 41.3192Z" fill="#242D2C"/>
<path d="M77.669 24.2691C76.3094 26.5608 74.9499 28.8526 73.4751 31.1443C72.0003 33.436 70.4334 35.7277 68.8664 37.9278C68.0484 39.0736 67.1958 40.2194 66.3317 41.2966C66.2428 41.3874 66.1758 41.4971 66.1358 41.6174C66.1069 41.738 66.1069 41.8635 66.1358 41.9841C66.1457 42.1083 66.181 42.2291 66.2395 42.3393C66.3049 42.45 66.3909 42.5472 66.493 42.6258C66.5968 42.6983 66.7144 42.749 66.8386 42.7747C66.9604 42.7977 67.0855 42.7977 67.2073 42.7747C67.3315 42.749 67.4491 42.6983 67.553 42.6258C67.6549 42.5516 67.741 42.4582 67.8064 42.3508C71.021 37.7673 74.3047 33.3099 77.4386 28.7036C80.2959 24.5098 83.1994 20.3274 85.7687 15.9502H82.3122C80.8259 18.7575 79.2935 21.542 77.669 24.2691Z" fill="#242D2C"/>
</svg>
