<svg width="112" height="73" viewBox="0 0 112 73" fill="none" xmlns="http://www.w3.org/2000/svg">
<path d="M74.3985 60.0423C76.3373 61.78 79.7189 61.0401 82.0523 60.7038C85.6368 60.1881 89.21 59.493 92.7495 58.7868L89.3678 55.6143C89.21 56.3205 89.0522 57.0267 88.8832 57.733L93.764 56.3205C88.9959 50.805 79.3695 50.4463 73.3953 54C69.6417 56.242 71.5128 62.1051 75.7962 62.0266C79.1779 61.9705 82.4581 61.8921 85.8059 62.0266C88.7704 62.1611 91.3743 62.5199 93.5836 60.1993C96.5256 57.1052 93.9669 52.7556 90.1456 52.4753C87.4178 52.2735 84.6787 52.1503 81.9508 52.083C75.5483 51.926 75.785 62.4077 82.1875 61.9705C84.9154 61.7912 87.6432 61.6716 90.3711 61.6118L86.9331 53.8991C87.9363 52.6099 86.8429 53.2713 85.5917 53.3273C84.3405 53.3834 83.3373 53.4619 82.2101 53.4731C79.9556 53.4731 77.7576 53.3722 75.537 53.3273L77.9379 61.3652C79.9444 60.2442 81.9621 60.2442 84.1827 60.2442C86.4033 60.2442 88.3534 59.7285 90.2696 61.0065C92.1859 62.2844 94.7785 60.4571 94.6319 58.372C94.6319 57.6545 94.5643 56.9259 94.553 56.1972C94.4967 54.6277 92.7608 53.0583 91.1714 53.7421C88.0054 55.0483 84.7319 56.0798 81.3872 56.825C79.0426 57.3519 76.1119 57.5312 74.3309 59.3025C74.2324 59.403 74.1773 59.5377 74.1773 59.678C74.1773 59.8183 74.2324 59.9531 74.3309 60.0536L74.3985 60.0423Z" fill="#E24B4B"/>
<path d="M4.83831 5.57129C4.26344 9.12498 3.55329 12.6338 3.05732 16.2099C2.82061 17.9139 3.56456 19.999 5.53718 20.3241C11.8496 21.3779 17.835 19.5282 24.0347 18.4856C31.8575 17.1628 39.6804 16.7592 47.4356 18.6202L48.4613 9.42766C42.1715 8.8223 35.938 9.90969 29.6595 9.57338C23.0428 9.19223 16.4937 7.44342 10.1249 5.82912L13.5066 9.99938L13.3826 8.16088L11.3423 11.9163C19.0524 7.20799 31.0121 12.3311 39.2069 14.0351C47.9879 15.8624 56.8478 18.6089 65.7753 19.5394C74.4323 20.4474 83.6416 19.7076 92.3549 19.6851C98.904 19.6851 104.146 17.5776 106.535 11.1989C107.662 8.26177 104.619 5.3807 101.869 5.40312C93.6625 5.48159 85.7269 6.92773 77.5772 7.6452C70.3179 8.30661 62.5853 6.18786 55.5853 8.40751C49.2504 10.4254 52.3615 20.5147 58.5724 18.2278C61.8075 17.0283 64.9412 17.4767 68.3115 17.6112C72.1925 17.7333 76.0769 17.5233 79.9218 16.9834C87.305 16.0194 94.5755 14.3602 102.094 14.7414L97.867 7.81336C96.4128 11.1765 91.2389 9.88727 88.2406 9.79759C84.239 9.67427 80.2486 9.71913 76.2471 9.86486C67.8268 10.1563 60.3083 8.74382 52.091 7.14073C37.8768 4.37177 21.9606 -0.908323 7.82541 4.15877C6.93714 4.45712 6.16447 5.02345 5.61495 5.77893C5.06542 6.53441 4.76636 7.44147 4.7594 8.37388L4.65796 10.2124C4.69763 11.1749 5.04794 12.0992 5.657 12.8482C6.26606 13.5973 7.10149 14.1314 8.03959 14.3714C14.4479 16.4773 21.0587 17.9162 27.7658 18.665C34.7545 19.2928 41.7094 18.0596 48.6755 18.7547C54.0298 19.2928 54.7061 10.7841 49.7013 9.56218C42.8283 7.94234 35.6975 7.71739 28.7352 8.90077C21.4196 10.0218 13.6193 13.9342 6.26987 13.6316L9.77549 16.9947C9.75654 13.1368 9.32196 9.29215 8.4792 5.52644C8.35288 5.1376 8.10354 4.7998 7.76838 4.56344C7.43321 4.32707 7.0302 4.20481 6.61945 4.21489C6.20869 4.22498 5.81223 4.36686 5.4892 4.61939C5.16617 4.87192 4.9339 5.22156 4.82704 5.61612L4.83831 5.57129Z" fill="#E24B4B"/>
<path d="M4.66929 8.64313C4.97376 8.64858 5.27392 8.57105 5.53724 8.41893C5.8019 8.31314 6.04001 8.1509 6.23477 7.94365C6.42953 7.73639 6.5762 7.48918 6.66445 7.21943C6.79816 6.94789 6.86023 6.64698 6.84481 6.34502L6.74335 5.76207C6.6322 5.39113 6.42638 5.05514 6.14593 4.78677L5.68378 4.45046C5.33912 4.26069 4.95048 4.16406 4.55657 4.1702C3.96359 4.20549 3.40328 4.45226 2.97848 4.86524C2.76999 5.0654 2.61834 5.31676 2.53887 5.5939C2.40608 5.86176 2.34402 6.15882 2.35851 6.45711L2.45996 7.05126C2.57111 7.4222 2.77693 7.75821 3.05738 8.02658L3.51953 8.36287C3.86602 8.54798 4.25343 8.6443 4.64674 8.64313H4.66929Z" fill="#E24B4B"/>
<path d="M71.9525 25.2461C73.2375 29.7302 72.4484 35.3354 72.6401 39.9429C72.843 45.0996 73.1473 50.2676 73.5982 55.3908C73.9251 59.2471 79.6851 61.4332 81.5788 57.3414C83.6529 52.8573 85.7157 48.3731 85.8735 43.3732C86.0539 37.1403 83.0555 31.1988 84.2954 24.9546L81.6127 27.7572C80.2487 28.0375 81.2181 40.8173 81.3309 42.2186C81.6065 46.9678 82.3618 51.6775 83.5853 56.2764C84.7125 60.1664 91.1263 60.3121 91.8815 56.0746C93.8091 45.1557 95.0715 32.6561 91.4757 21.9951C89.7737 16.928 81.7141 19.3158 83.4725 24.3941C86.5386 33.3624 85.9411 44.9539 83.5289 54.0007L92.0055 54.9311C91.3968 50.6039 90.5063 46.3664 90.1231 42.0056C89.7398 37.6447 90.0104 33.4409 89.6384 29.1921C89.1424 23.4076 85.5353 18.8337 79.3244 20.2238C78.6661 20.4133 78.0705 20.774 77.599 21.2686C77.1274 21.7631 76.797 22.3738 76.6417 23.0376C75.8075 27.7908 76.574 32.0059 77.3969 36.7031C78.5241 42.9361 77.8252 47.9135 74.128 53.2272L82.1086 55.1666C82.1086 45.4696 82.0523 30.9073 74.9283 23.4076C73.6545 22.0623 71.4678 23.5757 71.9525 25.2236V25.2461Z" fill="#E24B4B"/>
<path d="M75.1988 26.4792C74.8606 26.4792 74.8268 26.2998 74.6352 26.1204C74.4436 25.9411 74.5788 26.0195 74.6352 26.1204C74.5788 25.8177 74.5788 25.8177 74.6352 26.1204C74.6915 26.4231 74.6352 26.4455 74.6352 26.1204C74.6352 26.2101 74.6352 26.2998 74.6352 26.3895C74.6352 26.4791 74.6352 26.6697 74.6352 26.8042C74.6352 28.1271 75.1988 29.7414 76.7318 29.9544C77.1321 30.0533 77.5516 30.0449 77.9476 29.9301C78.3436 29.8153 78.7019 29.5981 78.986 29.3008C79.2701 29.0034 79.4699 28.6364 79.565 28.2373C79.6601 27.8381 79.6471 27.421 79.5273 27.0285C79.4598 26.7906 79.3652 26.5612 79.2455 26.3446C79.0916 26.0762 78.8702 25.8521 78.603 25.6944C78.3099 25.4702 78.2761 25.4478 78.4902 25.6159C78.7044 25.7841 78.4113 25.4366 78.6368 25.7505C78.8622 26.0644 78.6368 25.7505 78.6368 25.7505C78.3421 25.2439 77.9606 24.7924 77.5096 24.4164C77.0619 24.039 76.4882 23.8422 75.9017 23.8651C75.3153 23.8879 74.7588 24.1287 74.3421 24.5398C74.1934 24.7091 74.0955 24.9166 74.0596 25.1386C74.0237 25.3606 74.0513 25.5882 74.1392 25.7953C74.2287 25.9994 74.3773 26.1724 74.566 26.2922C74.7547 26.412 74.975 26.4731 75.1988 26.4679V26.4792Z" fill="#E24B4B"/>
<path d="M72.516 55.5142C74.669 56.6353 76.7769 55.8618 79.0538 55.5142C82.738 54.7351 86.5207 54.5233 90.2696 54.8865C92.9072 55.2564 93.8992 51.2094 91.2728 50.8956C88.255 50.4882 85.193 50.5297 82.1875 51.0189C78.896 51.5794 75.6496 53.3618 72.6062 54.6622C72.5181 54.6937 72.4407 54.7493 72.383 54.8227C72.3254 54.896 72.2898 54.9841 72.2804 55.0768C72.2709 55.1694 72.288 55.2628 72.3297 55.3462C72.3714 55.4296 72.436 55.4995 72.516 55.5479V55.5142Z" fill="#5887FF"/>
<path d="M75.2101 55.2896C77.9254 54.7185 80.6734 54.3142 83.4387 54.0789C85.9073 53.9332 88.4773 54.3031 90.8557 53.5969C91.3096 53.4473 91.7106 53.171 92.0109 52.801C92.3111 52.4309 92.4979 51.9827 92.5491 51.51C92.6002 51.0372 92.5134 50.5597 92.2991 50.1347C92.0847 49.7096 91.752 49.3548 91.3404 49.1127C86.144 46.5456 78.231 48.7989 73.4516 51.4221C71.1408 52.6777 72.9669 55.7044 75.2101 55.3009V55.2896Z" fill="#5887FF"/>
<path d="M72.2793 52.4753C74.6802 56.6792 84.5433 52.7331 88.3984 53.2825C88.935 53.3901 89.4883 53.3856 90.0231 53.269C90.5579 53.1525 91.0624 52.9265 91.5046 52.6055C91.9468 52.2845 92.317 51.8755 92.5916 51.4045C92.8663 50.9335 93.0393 50.4108 93.0998 49.8696C93.1602 49.3285 93.1068 48.7808 92.9428 48.2613C92.7789 47.7418 92.508 47.2619 92.1474 46.8522C91.7869 46.4425 91.3445 46.1119 90.8485 45.8815C90.3525 45.651 89.8137 45.5258 89.2663 45.5137C86.685 45.3119 69.3485 47.3297 72.2793 52.4753Z" fill="#5887FF"/>
<path d="M75.1086 41.4227C80.0458 40.5707 85.2535 41.0415 90.247 40.5931C91.1728 40.524 92.0364 40.1037 92.6593 39.419C93.2822 38.7344 93.6166 37.8379 93.5935 36.9149C93.5703 35.9919 93.1913 35.113 92.5348 34.4602C91.8784 33.8073 90.9947 33.4303 90.0666 33.4073C84.6222 33.2615 77.8815 34.2593 73.1585 37.2188C70.7801 38.7322 72.5724 41.8487 75.0522 41.4227H75.1086Z" fill="#5887FF"/>
<path d="M71.4227 38.7992C74.3393 39.2434 77.2996 39.33 80.2375 39.0571C83.45 38.9337 86.6738 39.3373 89.8413 39.1467C90.4517 39.1201 91.0323 38.8772 91.4783 38.4619C91.9243 38.0466 92.2061 37.4863 92.2728 36.8823C92.3395 36.2783 92.1868 35.6705 91.8421 35.1688C91.4974 34.6671 90.9836 34.3046 90.3936 34.1469C84.9492 32.3308 76.1682 34.0124 71.0507 36.389C70.8347 36.5276 70.6638 36.7254 70.5586 36.9586C70.4533 37.1918 70.4182 37.4503 70.4576 37.7029C70.4969 37.9555 70.609 38.1914 70.7803 38.3819C70.9516 38.5725 71.1747 38.7097 71.4227 38.7768V38.7992Z" fill="#5887FF"/>
<path d="M72.4145 29.3707C74.4886 31.5007 78.6029 30.2788 81.3195 30.1555C83.1343 30.077 84.9604 30.0994 86.7752 30.1555C88.59 30.2115 90.7092 30.6151 92.4113 29.9089C94.1134 29.2026 96.0071 27.1062 95.0602 24.9875L94.9813 24.8193C94.7687 24.1954 94.4003 23.6354 93.9106 23.1918C93.4209 22.7483 92.826 22.4356 92.1815 22.2832C91.5371 22.1309 90.8643 22.1437 90.2263 22.3206C89.5883 22.4976 89.0058 22.8327 88.5337 23.2947L88.3871 23.418L91.1601 22.1849C86.3469 22.6782 81.6464 23.0369 77.0474 24.6848C75.9765 25.066 70.1489 27.0614 72.4484 29.4044L72.4145 29.3707Z" fill="#5887FF"/>
<path d="M71.8284 28.6313C74.9282 30.2568 78.4677 29.4833 81.838 29.3264C85.0167 29.1918 88.4998 30.0887 91.4869 28.8219C94.8686 27.3982 94.3388 22.5441 90.4499 22.3983C87.2199 22.1327 83.9709 22.2041 80.7559 22.6113C77.4306 23.1943 73.9926 23.3848 71.3775 25.683C71.1816 25.8932 71.0358 26.1446 70.9511 26.4185C70.8664 26.6925 70.8449 26.9819 70.8882 27.2653C70.9316 27.5486 71.0386 27.8186 71.2014 28.0551C71.3642 28.2916 71.5785 28.4886 71.8284 28.6313Z" fill="#5887FF"/>
<path d="M103.469 6.58068C101.666 6.41252 99.7495 8.54249 98.7124 9.8429C97.3242 11.4753 96.3845 13.4372 95.9846 15.5378C95.2744 19.5623 101.395 21.1429 102.241 17.0848C102.603 15.5405 103.179 14.054 103.954 12.6679C104.675 11.2554 105.859 9.52901 105.329 7.91471C105.196 7.52823 104.946 7.19233 104.613 6.95337C104.279 6.71442 103.88 6.5842 103.469 6.58068Z" fill="#5887FF"/>
<path d="M99.5465 5.49322C98.1375 6.71515 97.6415 9.17022 97.2921 10.9302C96.7939 13.0344 96.6869 15.2114 96.9765 17.3538C97.4161 19.8761 101.012 19.282 101.643 17.2305C102.115 15.2207 102.346 13.1623 102.331 11.0984C102.41 9.29353 102.646 7.35414 101.823 5.72864C101.704 5.54847 101.546 5.39684 101.361 5.28472C101.176 5.17259 100.968 5.10275 100.752 5.08023C100.537 5.05771 100.319 5.08307 100.114 5.15449C99.9094 5.22591 99.7233 5.3416 99.5691 5.49322H99.5465Z" fill="#5887FF"/>
<path d="M66.6658 10.5826C65.8002 11.6163 65.2696 12.8866 65.1441 14.226C64.975 15.6833 64.7608 17.0734 65.7302 18.3178C66.0034 18.6947 66.3876 18.978 66.8298 19.1283C67.2719 19.2786 67.75 19.2886 68.1981 19.1569C68.6462 19.0252 69.0421 18.7583 69.3309 18.3931C69.6198 18.0278 69.7875 17.5824 69.8107 17.1183C69.8107 14.9995 69.4387 12.948 69.3598 10.8517C69.2471 8.25087 65.3019 8.73292 65.7302 11.4346C65.8803 13.1722 65.7931 14.9219 65.471 16.6362L69.4838 16.0196C69.201 15.1894 69.06 14.3179 69.0668 13.4413C68.8715 12.4162 68.4001 11.463 67.7028 10.6835C67.6485 10.5998 67.5758 10.5294 67.4903 10.4775C67.4048 10.4256 67.3085 10.3937 67.2088 10.384C67.1091 10.3743 67.0085 10.3871 66.9144 10.4215C66.8204 10.4559 66.7354 10.511 66.6658 10.5826Z" fill="#5887FF"/>
<path d="M64.0732 10.6158C62.8716 12.9969 62.5947 15.7348 63.2954 18.3062C63.4773 18.8512 63.848 19.3141 64.3414 19.6124C64.8348 19.9107 65.4187 20.025 65.9889 19.9347C66.5591 19.8445 67.0785 19.5556 67.4544 19.1197C67.8303 18.6838 68.0382 18.1293 68.041 17.5551C67.9034 15.1104 67.2261 12.7259 66.0571 10.571C65.9605 10.393 65.8173 10.2444 65.6427 10.1408C65.4681 10.0371 65.2685 9.98242 65.0651 9.98242C64.8618 9.98242 64.6622 10.0371 64.4876 10.1408C64.313 10.2444 64.1698 10.393 64.0732 10.571V10.6158Z" fill="#5887FF"/>
<path d="M52.4405 9.19242C51.9396 10.5393 51.6396 11.9518 51.55 13.3851C51.2907 14.9546 51.0427 16.4904 50.8962 18.0822L55.7545 15.9411C55.2052 15.3783 54.5553 14.9222 53.8382 14.5958C54.5935 14.9209 54.2891 15.0554 54.1989 14.2035C54.2126 12.8136 54.2992 11.4253 54.4582 10.0444C54.4582 7.80233 50.806 7.27545 50.3777 9.596C50.1297 10.9525 49.893 12.3201 49.7014 13.6878C49.6225 14.3156 49.5436 14.9433 49.4759 15.5711L49.3745 16.524C49.149 17.5666 49.3745 17.432 50.1748 16.1092H51.5049L52.7223 17.5554L52.4067 18.8445L51.6064 19.4723H50.2199L50.6031 19.5732L49.4759 18.9342L49.7803 19.1921C52.6208 21.6471 55.9912 17.2527 52.8688 14.9994C52.4704 14.6981 52.0084 14.4909 51.5176 14.3932C51.0269 14.2956 50.5202 14.3102 50.0359 14.4359C49.5517 14.5616 49.1024 14.7951 48.7222 15.1187C48.342 15.4424 48.0407 15.8478 47.8411 16.3042C47.6415 16.7607 47.5489 17.2563 47.5701 17.7535C47.5914 18.2508 47.726 18.7368 47.9638 19.1748C48.2016 19.6128 48.5364 19.9912 48.9428 20.2817C49.3493 20.5721 49.8168 20.7668 50.3101 20.8512C52.8463 21.2884 54.0975 19.1809 54.1426 17.006C54.1426 14.6519 54.2215 12.3313 54.4695 9.99957L50.3326 10.1005C50.4791 11.939 50.3326 13.7999 50.4002 15.6496C50.4002 15.9747 50.5355 16.3334 50.5242 16.6697C50.5242 15.6832 50.3777 16.8939 50.3664 16.9836C50.3536 17.5671 50.4761 18.1456 50.7243 18.6744C50.9726 19.2032 51.34 19.668 51.798 20.0328C53.1957 21.4454 56.3068 20.8288 56.5661 18.654C56.8027 16.9694 56.8027 15.2603 56.5661 13.5757C56.4977 11.9999 56.0534 10.4628 55.2698 9.09153C55.117 8.8561 54.9059 8.66361 54.6569 8.53254C54.4078 8.40146 54.1291 8.33617 53.8474 8.34292C53.5658 8.34967 53.2905 8.42824 53.0481 8.57109C52.8057 8.71395 52.6043 8.91631 52.463 9.15879L52.4405 9.19242Z" fill="#5887FF"/>
<path d="M51.4372 16.7258C52.0346 14.1362 52.2375 11.4457 52.7222 8.87857C52.7555 8.58414 52.7302 8.28606 52.6476 8.00136C52.5651 7.71666 52.427 7.45092 52.2412 7.21931C52.0554 6.98769 51.8256 6.79473 51.5648 6.65145C51.3041 6.50817 51.0175 6.41738 50.7214 6.38426C50.4253 6.35113 50.1256 6.37634 49.8394 6.45841C49.5531 6.54048 49.2859 6.67783 49.053 6.8626C48.8201 7.04738 48.6261 7.27595 48.482 7.5353C48.338 7.79464 48.2467 8.07968 48.2134 8.37411C47.9406 11.1974 48.0125 14.0431 48.4275 16.8491C48.7206 18.3962 51.1103 18.172 51.4372 16.7707V16.7258Z" fill="#5887FF"/>
<path d="M37.9106 7.14077C36.6818 10.6316 36.1981 14.3389 36.4903 18.0261L38.5306 15.8961C38.0815 15.887 37.641 15.7717 37.2456 15.5598L38.0346 16.5351C37.6176 15.1002 38.0346 13.3065 38.1812 11.8491C38.2939 10.672 38.091 8.59813 38.7448 7.62282C40.0072 5.7619 38.1812 3.2956 36.1296 3.34045C34.0781 3.38529 32.4099 5.93006 33.7287 7.74614C34.2697 8.49724 34.1683 10.134 34.2923 11.1093C34.4614 12.5442 34.7319 14.0127 34.7657 15.4589C34.6314 16.2921 34.7169 17.1458 35.0137 17.9364C35.4871 18.7211 36.5467 18.8556 37.1329 19.5283C38.4968 21.0641 40.5145 19.5283 40.6836 17.9588C41.0331 14.4626 40.9763 10.938 40.5145 7.45466C40.4932 7.14475 40.3628 6.85219 40.1464 6.62825C39.9299 6.4043 39.6411 6.26325 39.3306 6.22982C39.0201 6.1964 38.7076 6.27273 38.448 6.44544C38.1884 6.61814 37.9981 6.8762 37.9106 7.1744V7.14077Z" fill="#5887FF"/>
<path d="M34.5291 5.38087C33.2553 8.74399 34.0444 12.847 34.5291 16.311C35.0138 20.0665 40.6273 19.1024 39.6128 15.5039C38.6547 12.0735 38.4856 8.18346 36.8173 5.03334C36.2763 3.97956 34.9123 4.49525 34.5629 5.38087H34.5291Z" fill="#5887FF"/>
<path d="M33.8979 5.13471C32.8714 9.24458 32.7369 13.5247 33.5034 17.6903C33.6305 18.1284 33.8731 18.5247 34.2061 18.8381C34.539 19.1515 34.9503 19.3707 35.3971 19.4728C36.0891 19.6245 36.8131 19.5125 37.4261 19.1589C37.8147 18.9279 38.1351 18.5989 38.3548 18.2052C38.5745 17.8115 38.6858 17.367 38.6773 16.9168C38.3604 12.8919 37.4958 8.92839 36.1072 5.13471C36.1072 4.83739 35.9885 4.55225 35.7771 4.34202C35.5657 4.13178 35.279 4.01367 34.98 4.01367C34.6811 4.01367 34.3943 4.13178 34.183 4.34202C33.9716 4.55225 33.8528 4.83739 33.8528 5.13471H33.8979Z" fill="#5887FF"/>
<path d="M32.4324 3.50845C31.9974 4.57331 31.8348 5.72883 31.959 6.87156C31.8241 8.03404 31.9005 9.21117 32.1844 10.3468C32.8946 12.2862 36.0733 12.5889 36.5129 10.2459C36.6348 9.02377 36.5356 7.78981 36.2198 6.60252C36.1681 5.50436 35.8593 4.43337 35.3181 3.47482C35.1604 3.23293 34.9428 3.03544 34.6863 2.90126C34.4298 2.76709 34.1428 2.70076 33.8531 2.70864C33.5633 2.71652 33.2805 2.79834 33.0317 2.94625C32.7829 3.09417 32.5766 3.30321 32.4324 3.5533V3.50845Z" fill="#5887FF"/>
<path d="M32.872 4.83159C31.1925 6.21047 31.2939 8.94579 31.3503 10.93C31.4292 13.4524 31.4968 16.6137 32.5451 18.9118C33.3004 20.5821 36.3664 21.1539 36.7045 18.8109C37.0991 16.1204 36.5355 13.0263 36.1635 10.3247C35.8704 8.27316 35.6562 5.95262 33.9091 4.71948C33.7448 4.63665 33.5584 4.60723 33.3764 4.63539C33.1944 4.66355 33.0258 4.74787 32.8946 4.87643L32.872 4.83159Z" fill="#5887FF"/>
<path d="M21.4534 2.67951C20.2444 5.1189 19.6304 7.80731 19.6612 10.5268C19.5485 13.2397 18.8383 16.6476 20.6644 18.8897C20.9281 19.2865 21.2889 19.61 21.713 19.8298C22.1371 20.0496 22.6104 20.1585 23.0885 20.1461C23.5665 20.1338 24.0335 20.0007 24.4456 19.7593C24.8576 19.5179 25.2011 19.1762 25.4438 18.7664C27.067 16.3674 26.1426 13.1612 25.9848 10.3698C25.9703 7.67199 25.4146 5.00415 24.3504 2.52256C24.1942 2.27757 23.977 2.07691 23.7199 1.94008C23.4627 1.80325 23.1744 1.7349 22.8828 1.74167C22.5912 1.74844 22.3064 1.8301 22.0559 1.97872C21.8055 2.12734 21.5979 2.33785 21.4534 2.58982V2.67951Z" fill="#5887FF"/>
<path d="M21.2956 19.3831C21.6563 19.2822 23.7642 17.9257 22.0058 18.9683L18.6242 17.1634C18.6242 16.4572 18.6241 18.1724 18.7707 18.5423C18.8977 18.9403 19.126 19.2989 19.4336 19.5833C19.7411 19.8676 20.1173 20.068 20.5257 20.165C20.9341 20.262 21.3607 20.2524 21.7643 20.137C22.1678 20.0216 22.5345 19.8044 22.8286 19.5064C23.8657 18.206 23.7191 16.2666 23.9559 14.6635C24.3955 12.2309 24.8689 9.80942 25.2296 7.36555L22.5243 10.3139L22.6821 10.2466C23.6106 9.92547 24.4176 9.32864 24.9942 8.53674C25.5707 7.74485 25.8889 6.79606 25.9059 5.81853C25.9059 5.51585 25.9059 5.21315 25.9059 4.91047C26.2103 -0.885296 16.6403 -0.773178 16.7643 5.1347C16.7643 5.43738 16.7643 5.74005 16.7643 6.04273C16.782 6.8303 17.0081 7.5993 17.4196 8.27236C17.8312 8.94541 18.4139 9.49876 19.1089 9.87669L19.323 9.97757L17.2264 6.5472C17.4293 8.78928 17.6435 10.9529 17.914 13.1613C18.0267 14.0806 18.1395 14.9998 18.2747 15.9079C18.3168 16.3567 18.3883 16.8023 18.4889 17.2419C18.6241 17.7239 18.3424 18.1724 18.6805 17.3204L23.0766 16.6365C22.8847 16.2209 22.6215 15.8415 22.2989 15.5155C22.0131 15.2601 21.6664 15.0817 21.2917 14.997C20.9171 14.9123 20.5269 14.9243 20.1582 15.0317C19.7895 15.1392 19.4545 15.3386 19.1851 15.611C18.9156 15.8833 18.7206 16.2197 18.6186 16.5881C18.5166 16.9565 18.511 17.3447 18.6023 17.7158C18.6935 18.087 18.8786 18.4288 19.1401 18.7088C19.4015 18.9889 19.7305 19.1978 20.0959 19.3158C20.4614 19.4338 20.851 19.457 21.228 19.3831H21.2956Z" fill="#5887FF"/>
<path d="M7.39709 3.64301C6.6644 8.45226 7.78034 13.0933 8.00578 17.9474C8.14105 20.9854 12.988 20.8621 12.7513 17.8241C12.3568 12.5889 11.7594 7.39849 8.06214 3.45244C8.01088 3.40583 7.94847 3.37307 7.88085 3.35731C7.81323 3.34156 7.74267 3.34334 7.67594 3.36246C7.6092 3.38159 7.54852 3.41741 7.49969 3.46653C7.45087 3.51565 7.41554 3.57643 7.39709 3.64301Z" fill="#5887FF"/>
<path d="M2.31335 5.61669C2.41884 7.86958 2.64839 10.115 3.00095 12.3429C3.21512 15.0446 3.00095 18.0939 5.09757 20.0669C5.47531 20.4155 5.92704 20.6753 6.41934 20.8269C6.91164 20.9785 7.43191 21.0181 7.94167 20.9427C8.45143 20.8674 8.93763 20.679 9.36432 20.3916C9.79101 20.1042 10.1473 19.725 10.4067 19.2822C12.199 16.3899 10.4067 12.186 9.38097 9.24886C8.63701 7.21978 7.19418 3.19524 4.36488 3.53155C3.81259 3.56019 3.29228 3.79802 2.91077 4.19621C2.52925 4.5944 2.31548 5.12273 2.31335 5.67274V5.61669Z" fill="#5887FF"/>
<path d="M5.15398 3.37425C4.8747 3.7034 4.66396 4.08445 4.53401 4.49528C4.49879 4.59458 4.46869 4.69561 4.44383 4.79797C4.37539 5.00297 4.32263 5.21283 4.28603 5.42575C4.17343 5.90731 4.18684 6.40954 4.32497 6.88448C4.46311 7.35943 4.72137 7.79123 5.07508 8.13865C5.38882 8.43599 5.76902 8.65504 6.18444 8.77782C6.59987 8.9006 7.03866 8.92359 7.46476 8.84491C7.91883 8.76998 8.34753 8.58558 8.71339 8.30782C9.07925 8.03007 9.37113 7.6674 9.56352 7.25155C9.75591 6.8357 9.84295 6.37932 9.81703 5.92229C9.79111 5.46526 9.65303 5.0215 9.41484 4.6298C9.30212 4.43923 9.16685 4.27108 9.04286 4.09171L8.83996 3.82267C8.5848 3.47957 8.26751 3.18682 7.90437 2.95947C7.46195 2.7152 6.94775 2.63194 6.45027 2.72404C5.95256 2.78332 5.49269 3.01798 5.15398 3.38547V3.37425Z" fill="#5887FF"/>
<path d="M17.1587 2.28653C17.2308 2.27279 17.2958 2.2345 17.3426 2.17823C17.3894 2.12196 17.415 2.05124 17.415 1.97823C17.415 1.90523 17.3894 1.83449 17.3426 1.77822C17.2958 1.72195 17.2308 1.68366 17.1587 1.66992C17.0866 1.68366 17.0216 1.72195 16.9748 1.77822C16.928 1.83449 16.9025 1.90523 16.9025 1.97823C16.9025 2.05124 16.928 2.12196 16.9748 2.17823C17.0216 2.2345 17.0866 2.27279 17.1587 2.28653Z" fill="#5887FF"/>
<path d="M16.9108 2.46587C16.934 2.9726 17.025 3.474 17.1813 3.95687C17.2715 4.46134 17.3955 4.95459 17.4969 5.45906C17.5984 5.96354 17.6773 6.47921 17.7449 6.99489C17.8125 7.51058 17.8463 8.04869 17.9365 8.56437C18.0267 9.08005 18.7707 8.88948 18.7481 8.42985C18.7011 7.9047 18.6145 7.38379 18.4889 6.87158C18.3874 6.33348 18.2634 5.75054 18.1281 5.26849C18.0016 4.75243 17.8473 4.24349 17.666 3.74386C17.5392 3.2651 17.3335 2.81053 17.0573 2.39861C17.0442 2.38818 17.0285 2.38159 17.0118 2.37957C16.9952 2.37755 16.9783 2.38016 16.9631 2.38715C16.9479 2.39413 16.9349 2.4052 16.9257 2.4191C16.9164 2.43301 16.9113 2.44921 16.9108 2.46587Z" fill="#5887FF"/>
<path d="M16.674 2.75792C16.7189 3.31153 16.798 3.86188 16.9107 4.40585C17.0009 4.91031 17.0798 5.426 17.1474 5.94168L17.3503 7.4887L17.4518 8.3519C17.4658 8.65913 17.5149 8.96378 17.5983 9.25994C17.6555 9.37398 17.7481 9.46669 17.8624 9.52439C17.9767 9.58208 18.1066 9.6017 18.233 9.58034C18.3593 9.55898 18.4754 9.49777 18.5641 9.40576C18.6528 9.31375 18.7094 9.19581 18.7255 9.06936C18.7145 8.76631 18.6691 8.46547 18.5903 8.17253L18.4212 7.30934C18.3197 6.78246 18.2183 6.24434 18.1056 5.71746C17.9542 4.63749 17.6388 3.58667 17.17 2.60098C17.136 2.54738 17.0855 2.50625 17.0259 2.48379C16.9663 2.46133 16.9011 2.45876 16.8399 2.4765C16.7788 2.49424 16.7251 2.5313 16.687 2.58208C16.649 2.63285 16.6286 2.69458 16.6289 2.75792H16.674Z" fill="#5887FF"/>
<path d="M17.0573 2.46609C16.9781 3.02287 17.0048 3.5895 17.1362 4.13644C17.2039 4.77543 17.2828 5.42563 17.3053 6.07583C17.3053 7.29776 17.3053 8.53089 17.3729 9.76403C17.5646 12.32 18.2071 14.9769 17.8689 17.544C17.8405 17.669 17.839 17.7986 17.8645 17.9242C17.89 18.0498 17.942 18.1687 18.017 18.2729C18.092 18.3771 18.1884 18.4643 18.2997 18.5289C18.411 18.5934 18.5348 18.6338 18.663 18.6473C18.7911 18.6608 18.9207 18.6472 19.0432 18.6074C19.1657 18.5676 19.2783 18.5024 19.3736 18.4162C19.469 18.33 19.5449 18.2247 19.5964 18.1072C19.6479 17.9898 19.6738 17.8628 19.6724 17.7346C19.5672 15.0006 19.2696 12.2773 18.7819 9.58468C18.6241 8.28428 18.6241 6.98387 18.41 5.69468C18.3218 5.07151 18.1824 4.45661 17.9929 3.85618C17.9008 3.31519 17.6588 2.81048 17.294 2.39883C17.2772 2.37919 17.255 2.36478 17.2302 2.35732C17.2053 2.34985 17.1789 2.34964 17.1539 2.35673C17.129 2.36382 17.1066 2.3779 17.0895 2.39729C17.0723 2.41668 17.0612 2.44057 17.0573 2.46609Z" fill="#5887FF"/>
<path d="M15.5469 2.3318C15.3838 3.63024 15.4525 4.9471 15.7497 6.2218C15.9752 7.6343 16.1894 9.05801 16.3923 10.4817C16.5952 11.9054 16.753 13.2843 16.922 14.6856L17.1926 16.7932C17.1587 17.4407 17.363 18.0783 17.7674 18.5868C17.863 18.6728 17.9765 18.7365 18.0999 18.7734C18.2233 18.8103 18.3533 18.8194 18.4807 18.8001C18.608 18.7808 18.7295 18.7335 18.8362 18.6617C18.9429 18.5899 19.0321 18.4954 19.0976 18.385C19.3607 17.7713 19.4005 17.0855 19.2103 16.4457C19.1314 15.7394 19.0412 15.0331 18.9397 14.3381C18.7368 12.948 18.5001 11.5691 18.2521 10.1903C18.0042 8.81139 17.7336 7.41008 17.4293 6.03121C17.2351 4.69509 16.7752 3.41082 16.0766 2.25332C16.0462 2.20573 16.0026 2.16793 15.951 2.14451C15.8995 2.12108 15.8422 2.11304 15.7861 2.12134C15.73 2.12965 15.6776 2.15395 15.6351 2.19131C15.5926 2.22866 15.562 2.27746 15.5469 2.3318Z" fill="#E24B4B"/>
<path d="M26.4582 2.55587L26.2215 2.41013C26.1687 2.38078 26.1098 2.36393 26.0493 2.36086C25.9889 2.35779 25.9285 2.3686 25.8729 2.39244C25.8174 2.41628 25.768 2.45252 25.7288 2.49836C25.6896 2.54419 25.6615 2.59839 25.6467 2.65676C24.982 5.35432 24.7989 8.14702 25.1056 10.9076C25.2521 13.5196 25.2634 16.4343 26.2328 18.9006C26.4921 19.562 27.5742 19.8647 27.9236 19.08C28.0657 18.8069 28.0979 18.4902 28.0138 18.1943C27.9665 18.0477 27.8776 17.9179 27.7576 17.8206C27.6377 17.7232 27.4919 17.6626 27.338 17.646C27.1841 17.6294 27.0287 17.6575 26.8905 17.727C26.7524 17.7965 26.6375 17.9043 26.5597 18.0374L26.4808 18.1495L27.2022 17.7123H27.0895L27.9912 18.3625C26.4582 13.3514 26.5033 7.92563 26.4019 2.72401L26.1201 3.10518L26.3793 3.0155C26.4216 2.99223 26.4569 2.95811 26.4814 2.91671C26.506 2.87531 26.5189 2.82813 26.5189 2.78007C26.5189 2.73201 26.506 2.68483 26.4814 2.64343C26.4569 2.60203 26.4216 2.56793 26.3793 2.54466L26.4582 2.55587Z" fill="#E24B4B"/>
<path d="M31.9478 4.23771C31.435 5.3 31.089 6.43422 30.922 7.60082C30.6795 8.74881 30.4989 9.90886 30.3809 11.076C30.1593 13.5058 30.0953 15.9472 30.1893 18.3852C30.1893 19.5735 32.1732 19.5062 32.0041 18.3852C31.6927 16.0516 31.6285 13.692 31.8125 11.3451C31.8914 10.224 32.0154 8.9909 32.1845 7.82503C32.4368 6.70024 32.5952 5.55662 32.6579 4.40586C32.6517 4.32533 32.62 4.24882 32.5673 4.18739C32.5145 4.12596 32.4435 4.08278 32.3645 4.06407C32.2855 4.04537 32.2026 4.05211 32.1277 4.08332C32.0528 4.11453 31.9898 4.16859 31.9478 4.23771Z" fill="#E24B4B"/>
<path d="M41.5741 6.78223C41.2531 7.07228 41.0556 7.47325 41.0218 7.90327C40.8978 8.35168 40.8189 8.82251 40.7287 9.29334C40.5258 10.3247 40.3906 11.3561 40.2891 12.3986C40.1877 13.4412 40.0975 14.4053 40.0299 15.403C39.8672 16.2848 40.0272 17.1954 40.4808 17.9702C40.5954 18.1529 40.7738 18.2872 40.9818 18.3472C41.1898 18.4072 41.4128 18.3887 41.608 18.2953C41.8024 18.2131 41.9595 18.0623 42.0489 17.8719C42.1384 17.6816 42.154 17.465 42.0927 17.2639C41.9176 16.9553 41.7885 16.623 41.7094 16.2774C41.678 15.9044 41.678 15.5294 41.7094 15.1564C41.7094 14.2035 41.777 13.2618 41.8221 12.3089C41.8672 11.3561 41.901 10.4144 41.9574 9.46151C41.9574 8.99067 42.0363 8.51983 42.0588 8.04899C42.139 7.66843 42.0832 7.27197 41.901 6.92795C41.8731 6.88448 41.8295 6.85329 41.7792 6.84078C41.7289 6.82827 41.6757 6.83539 41.6305 6.86069L41.5741 6.78223Z" fill="#E24B4B"/>
<path d="M41.7657 7.63436C41.7657 7.5671 41.8446 7.51106 41.7657 7.46622C42.3068 7.1299 41.653 6.34516 41.2247 6.80479C40.9517 7.17932 40.7738 7.61392 40.7061 8.07157C40.5821 8.49756 40.4807 8.93477 40.3792 9.37198C40.1704 10.3007 40.0123 11.24 39.9058 12.1858C39.7931 13.1387 39.7029 14.1028 39.6804 15.0669C39.6578 16.031 39.5113 16.9838 40.1989 17.6228C40.3399 17.7533 40.52 17.8341 40.7116 17.8529C40.9033 17.8717 41.0958 17.8274 41.2596 17.7268C41.4235 17.6262 41.5496 17.4749 41.6187 17.2962C41.6877 17.1174 41.6958 16.921 41.6417 16.7372C41.4326 16.0092 41.3525 15.2505 41.405 14.4951C41.405 13.6655 41.405 12.836 41.4614 12.0176C41.5177 11.1993 41.5966 10.3697 41.6981 9.54013C41.6981 9.10292 41.8221 8.65451 41.8897 8.21731C41.9968 7.82664 42.0198 7.41791 41.9573 7.01779L41.3374 7.52225C41.3191 7.54434 41.309 7.5721 41.309 7.60073C41.309 7.62937 41.3191 7.65711 41.3374 7.6792C41.3473 7.71778 41.3699 7.75199 41.4015 7.77641C41.4331 7.80083 41.4721 7.81408 41.5121 7.81408C41.5521 7.81408 41.591 7.80083 41.6227 7.77641C41.6543 7.75199 41.6769 7.71778 41.6868 7.6792L41.7657 7.63436Z" fill="#E24B4B"/>
<path d="M40.661 6.80445C40.1726 7.67129 39.9128 8.64701 39.9058 9.64067C39.7818 10.7057 39.6916 11.7818 39.624 12.8468C39.5394 13.839 39.5394 14.8366 39.624 15.8288C39.651 16.8512 39.9379 17.8501 40.4581 18.7323C40.5761 18.9104 40.7541 19.0408 40.9601 19.1002C41.1661 19.1595 41.3866 19.144 41.5821 19.0562C41.7776 18.9685 41.9352 18.8143 42.0267 18.6214C42.1182 18.4285 42.1375 18.2094 42.0813 18.0036C41.9657 17.5581 41.8227 17.12 41.653 16.692C41.5331 16.2658 41.4464 15.831 41.3937 15.3916C41.2923 14.4948 41.2697 13.5979 41.2585 12.7011C41.2472 11.8043 41.2585 10.7617 41.2585 9.79761C41.4603 8.86018 41.4718 7.8921 41.2923 6.95019C41.2021 6.73719 40.8865 6.58025 40.7174 6.81567L40.661 6.80445Z" fill="#E24B4B"/>
<path d="M56.69 9.37209C56.2383 9.92285 55.9461 10.5856 55.8446 11.2891C55.6651 11.977 55.5407 12.6779 55.4726 13.3854C55.3372 14.8065 55.394 16.2393 55.6417 17.6453C55.7181 17.8604 55.868 18.042 56.0652 18.1586C56.2624 18.2752 56.4944 18.3193 56.7209 18.2833C56.9475 18.2473 57.1541 18.1335 57.305 17.9616C57.4559 17.7898 57.5414 17.5707 57.5466 17.3427C57.5501 17.1519 57.5003 16.964 57.4028 16.7997C57.3053 16.6355 57.1639 16.5013 56.9943 16.4122C56.8435 16.3325 56.6708 16.3037 56.5021 16.33C56.3334 16.3562 56.1778 16.4362 56.0587 16.5579C56.2391 16.3786 55.9122 16.67 55.8671 16.7037L57.5016 17.0848C57.2498 15.8533 57.1438 14.5966 57.1859 13.3406C57.1859 12.7128 57.2536 12.085 57.3212 11.4572C57.4909 10.8408 57.5444 10.1985 57.479 9.56266C57.4522 9.48706 57.4068 9.41932 57.3469 9.36557C57.2871 9.31182 57.2147 9.27375 57.1364 9.25483C57.058 9.23591 56.9762 9.23671 56.8982 9.25719C56.8203 9.27766 56.7487 9.31716 56.69 9.37209Z" fill="#E24B4B"/>
<path d="M55.946 9.52892C55.7736 9.81631 55.6409 10.1255 55.5515 10.4482C55.439 10.7639 55.3449 11.0858 55.2697 11.4123C55.1196 12.0145 55.003 12.6245 54.9203 13.2395C54.8283 13.8779 54.7981 14.5236 54.8301 15.1677C54.7749 15.9172 54.9647 16.6642 55.3711 17.2977C55.4764 17.3955 55.6054 17.4645 55.7455 17.498C55.8856 17.5315 56.032 17.5283 56.1705 17.4888C56.3089 17.4493 56.4348 17.3748 56.5357 17.2725C56.6366 17.1703 56.7092 17.0438 56.7464 16.9053C56.7916 16.528 56.7531 16.1453 56.6336 15.7843C56.5825 15.5139 56.5486 15.2406 56.5322 14.9659C56.4983 14.376 56.4983 13.7846 56.5322 13.1947C56.5322 12.6118 56.6224 12.0737 56.7013 11.4683C56.8248 10.8523 56.8589 10.2218 56.8027 9.59618C56.7125 9.15898 56.1602 9.22624 55.9573 9.5065L55.946 9.52892Z" fill="#E24B4B"/>
<path d="M63.0136 10.2239C62.5627 12.4659 62.1006 14.7753 61.5144 17.0174C61.4684 17.1456 61.4499 17.2819 61.4601 17.4176C61.4703 17.5533 61.5089 17.6854 61.5735 17.8054C61.6381 17.9254 61.7272 18.0306 61.8352 18.1143C61.9431 18.198 62.0675 18.2583 62.2002 18.2913C62.333 18.3243 62.4712 18.3293 62.6061 18.306C62.7409 18.2826 62.8693 18.2315 62.9831 18.1559C63.0968 18.0802 63.1934 17.9818 63.2666 17.8668C63.3398 17.7518 63.388 17.6228 63.4081 17.4882C63.632 16.2865 63.7938 15.0742 63.8928 13.856C63.9717 12.6803 63.9717 11.5005 63.8928 10.3248C63.8928 9.8315 63.0925 9.69698 62.9911 10.2239H63.0136Z" fill="#E24B4B"/>
<path d="M62.8672 9.78688C62.7433 10.085 62.6857 10.4062 62.6981 10.7285C62.6981 11.0649 62.6981 11.4012 62.6981 11.7375C62.6981 12.3541 62.6192 12.9706 62.5628 13.5872C62.4629 14.8472 62.2363 16.094 61.8865 17.309C61.537 18.4301 63.4533 18.8673 63.6224 17.7462C63.8586 16.4075 64.0166 15.0562 64.0958 13.6993C64.1297 13.0346 64.1297 12.3686 64.0958 11.7039C64.0794 11.3623 64.0455 11.0218 63.9944 10.6837C63.9786 10.3623 63.8816 10.05 63.7126 9.77567C63.6721 9.71078 63.6157 9.65723 63.5486 9.6201C63.4816 9.58296 63.4061 9.56348 63.3293 9.56348C63.2526 9.56348 63.1771 9.58296 63.11 9.6201C63.0429 9.65723 62.9865 9.71078 62.9461 9.77567L62.8672 9.78688Z" fill="#E24B4B"/>
<path d="M73.5756 31.7592C73.9297 31.6032 74.3247 31.5639 74.7028 31.6471C75.1875 31.748 75.6722 31.8489 76.1569 31.9161C77.2841 32.0843 78.3099 32.3085 79.3808 32.5327C79.6233 32.5751 79.873 32.5263 80.0813 32.3958C80.2897 32.2653 80.4417 32.0623 80.508 31.8265C80.5533 31.585 80.5053 31.3354 80.3737 31.1276C80.242 30.9198 80.0364 30.769 79.7978 30.7054C78.5354 30.5261 77.2616 30.4252 75.9879 30.3691C75.0861 30.3691 73.632 30.3691 73.1022 31.2323C72.9331 31.5126 73.2375 31.9386 73.5644 31.8041L73.5756 31.7592Z" fill="#E24B4B"/>
<path d="M73.1698 31.322C73.5191 31.3913 73.8735 31.4326 74.2294 31.4453C74.5676 31.4453 74.8945 31.591 75.2214 31.6583C76.0411 31.8158 76.869 31.9281 77.7012 31.9946C79.3357 32.1627 80.9927 32.2412 82.6384 32.3085C82.7864 32.3048 82.9323 32.2721 83.0676 32.2124C83.203 32.1527 83.3252 32.067 83.4272 31.9603C83.5293 31.8536 83.6092 31.728 83.6624 31.5906C83.7156 31.4531 83.7411 31.3066 83.7374 31.1594C83.7337 31.0122 83.7009 30.8672 83.6408 30.7326C83.5808 30.598 83.4947 30.4764 83.3874 30.3749C83.2801 30.2734 83.1537 30.194 83.0156 30.141C82.8774 30.0881 82.7301 30.0627 82.5821 30.0664C80.8687 29.9879 79.1328 29.9207 77.4194 29.9767C76.5674 29.9859 75.7167 30.0458 74.8719 30.1561C74.2858 30.2458 73.3164 30.3915 73.012 30.952C72.9913 30.9855 72.979 31.0235 72.976 31.0627C72.9731 31.1019 72.9796 31.1412 72.995 31.1775C73.0105 31.2137 73.0344 31.2457 73.0648 31.2708C73.0952 31.296 73.1312 31.3135 73.1698 31.322Z" fill="#E24B4B"/>
<path d="M74.7254 48.0812C77.3857 47.9355 80.0459 47.7113 82.7061 47.5767C84.0475 47.5207 85.4001 47.5095 86.7415 47.4983C88.0829 47.4871 89.4355 47.644 90.7656 47.5655C92.0957 47.4871 92.2761 45.6261 91.0024 45.4244C89.5693 45.2617 88.1243 45.2279 86.6851 45.3235C85.3438 45.3235 84.0024 45.4804 82.661 45.6374C79.9178 45.9138 77.221 46.5353 74.6353 47.4871C74.3196 47.5992 74.3647 48.1036 74.7254 48.0812Z" fill="#E24B4B"/>
<path d="M74.9283 57.3972C76.2883 57.2555 77.6367 57.0195 78.9637 56.691C80.2763 56.4666 81.6013 56.3206 82.9315 56.2538C85.6623 56.0961 88.4023 56.2654 91.0925 56.7582C92.4902 57.0161 93.02 54.8749 91.6335 54.6283C87.3649 53.8189 82.9714 53.9298 78.7495 54.9534C77.302 55.2098 75.9147 55.7305 74.6578 56.4892C74.5675 56.5469 74.4985 56.6322 74.4612 56.7323C74.4238 56.8323 74.4201 56.9418 74.4506 57.0441C74.4811 57.1464 74.5441 57.2361 74.6303 57.2998C74.7164 57.3635 74.821 57.3977 74.9283 57.3972Z" fill="#E24B4B"/>
<path d="M0.194238 7.11879C2.5952 11.6029 2.30212 16.6476 1.08474 21.4232C0.104062 25.3132 6.72078 25.9971 6.49534 22.0062C6.17972 15.9526 6.79969 10.5828 3.2377 5.25789C2.97157 4.89686 2.57858 4.64863 2.13686 4.56256C1.69514 4.47649 1.23703 4.55887 0.853578 4.79333C0.47013 5.02779 0.189428 5.39715 0.0672688 5.828C-0.0548908 6.25886 -0.00956605 6.71965 0.194238 7.11879Z" fill="#242D2C"/>
<path d="M107.967 4.70807C102.41 8.28417 97.8895 17.0394 102.793 22.8128C104.653 25.0548 107.989 22.4653 107.302 20.055C106.558 17.4094 105.96 15.201 106.896 12.4432C107.595 10.3805 109.455 9.08011 110.683 7.28645C111.912 5.49279 109.556 3.71035 107.956 4.70807H107.967Z" fill="#242D2C"/>
<path d="M3.51953 24.1583C5.77395 23.6539 7.74657 22.4656 9.93336 21.8266C12.7131 21.1988 15.5603 20.9164 18.41 20.9858C25.4889 20.7055 32.5565 20.5262 39.6241 20.5374C53.7931 20.5374 67.9621 20.8849 82.1199 21.4006C86.0351 21.5351 89.9465 21.6808 93.8541 21.8378C97.1118 21.9611 100.336 22.4431 103.593 22.6449C106.558 22.8243 106.445 18.1608 103.481 18.0487C100.516 17.9366 97.743 17.4433 94.8574 17.3312C91.3179 17.1967 87.7785 17.107 84.239 16.9949C76.9798 16.7856 69.7131 16.6287 62.4388 16.524C48.0894 16.3447 33.7626 16.7034 19.4583 17.8917C16.1668 18.172 12.695 18.2729 9.58393 19.3491C7.32951 20.1114 4.25222 21.0643 2.82067 23.0037C2.73074 23.1189 2.67889 23.2589 2.67224 23.4046C2.66559 23.5504 2.70446 23.6946 2.78351 23.8174C2.86257 23.9403 2.97794 24.0357 3.11376 24.0908C3.24958 24.1458 3.39921 24.1576 3.54208 24.1247L3.51953 24.1583Z" fill="#242D2C"/>
<path d="M1.09598 5.39219C2.26243 5.71186 3.50224 5.64094 4.62416 5.1904C6.26988 4.7644 7.91561 4.38325 9.57261 4.06936C12.8194 3.39946 16.1207 3.02424 19.4357 2.94832C22.8296 3.03564 26.1979 3.55943 29.4566 4.50658C33.1088 5.3922 36.7271 6.42355 40.3793 7.35401C47.5096 9.16411 54.7918 10.3199 62.1344 10.8068C65.9711 11.1094 69.8244 11.1432 73.6658 10.9077C77.3017 10.5734 80.9124 10.008 84.4757 9.21494C88.2871 8.3248 92.144 7.63996 96.0296 7.16344C98.0095 6.9469 100.004 6.89814 101.993 7.0177C103.95 7.23279 105.89 7.58493 107.798 8.07147C109.917 8.51989 111.405 5.36977 109.252 4.40567C102.658 1.46855 94.5981 2.93711 87.8348 4.31599C84.2277 5.04466 80.6432 5.90786 76.991 6.43475C73.1138 6.95012 69.2 7.14138 65.2906 7.00649C57.5582 6.74501 49.8672 5.76545 42.3181 4.08058C38.6434 3.28464 34.9912 2.3766 31.3052 1.56945C27.9048 0.690378 24.4219 0.16442 20.9123 0C17.2441 0.0704635 13.6015 0.624608 10.0798 1.64793C8.27631 2.11876 6.5066 2.66806 4.73688 3.251C3.29405 3.73305 1.95267 4.02452 1.0509 5.30251C1.0509 5.30251 1.0509 5.4034 1.0509 5.42582L1.09598 5.39219Z" fill="#242D2C"/>
<path d="M16.2569 10.3136C14.6 9.59428 12.754 9.42525 10.9929 9.83154C10.0347 9.98848 9.08788 10.2687 8.12976 10.4257C6.93975 10.443 5.75724 10.6163 4.61286 10.9414C3.48565 11.4346 3.21512 13.2731 4.68049 13.5646C6.48402 13.9233 7.87049 13.0265 9.6064 12.5557C11.6515 12.0053 13.7674 11.7597 15.885 11.827C16.0631 11.8225 16.2348 11.7598 16.3736 11.6486C16.5124 11.5375 16.6105 11.3839 16.6529 11.2117C16.6952 11.0396 16.6793 10.8583 16.6078 10.696C16.5362 10.5337 16.4129 10.3993 16.2569 10.3136Z" fill="#242D2C"/>
<path d="M88.6351 12.4325C92.4656 12.5859 96.2808 13.0017 100.054 13.6769C101.35 13.9235 102.5 14.7979 103.864 14.5177C104.162 14.4197 104.41 14.2111 104.557 13.9354C104.704 13.6597 104.738 13.3382 104.653 13.0379C104.348 11.3675 101.497 11.446 100.313 11.3563C96.4241 11.0649 92.2422 10.4259 88.4097 11.3563C87.7897 11.5133 87.9926 12.3989 88.59 12.4213L88.6351 12.4325Z" fill="#242D2C"/>
<path d="M92.5127 18.4078C91.8364 11.1996 88.1391 4.11461 80.2036 2.71332C77.3292 2.20885 73.6545 4.09219 71.9637 6.36789C70.9608 7.86163 70.4813 9.6427 70.5997 11.435C70.2833 13.4354 70.3986 15.4799 70.9379 17.4325C70.9197 18.1676 70.8329 18.8994 70.6787 19.6186C69.45 24.809 76.3147 27.1631 79.1553 22.9256C79.764 21.9951 84.115 23.8897 85.2309 24.2036C86.1214 24.523 87.0964 24.5218 87.9861 24.2003C88.8758 23.8787 89.624 23.2571 90.1005 22.4436C90.8787 22.1093 91.531 21.5392 91.9642 20.8144C92.3973 20.0897 92.5893 19.2475 92.5127 18.4078Z" fill="#E24B4B"/>
<path d="M73.1924 24.8874C79.2232 26.6388 85.5938 26.8929 91.7462 25.6273C94.0796 25.2013 93.4596 21.2664 91.0924 21.5131C85.1971 22.1409 79.2455 22.4884 73.384 23.2507C73.1897 23.2671 73.0072 23.3498 72.8672 23.4848C72.7272 23.6197 72.6385 23.7986 72.6159 23.9912C72.5934 24.1838 72.6384 24.3782 72.7435 24.5415C72.8485 24.7048 73.0071 24.827 73.1924 24.8874Z" fill="#5887FF"/>
<path d="M88.1053 10.4142C85.0662 10.4863 82.035 10.7559 79.0313 11.2213C76.3598 11.6249 73.2712 11.8379 70.7914 12.9029C70.5032 13.0014 70.2492 13.1797 70.0594 13.4168C69.8696 13.6539 69.7517 13.94 69.7198 14.2414C69.6878 14.5428 69.743 14.847 69.879 15.1183C70.0149 15.3896 70.2258 15.6166 70.487 15.7727C70.8436 15.9833 71.2214 16.1561 71.6142 16.2884C71.6142 16.2884 71.6142 16.2884 71.6142 16.3557C73.6432 17.9924 76.6078 17.6 79.1102 17.6337C82.5475 17.8075 85.9928 17.5285 89.3565 16.8041C89.8951 16.6642 90.3695 16.3457 90.7015 15.9014C91.0335 15.4571 91.2032 14.9134 91.1826 14.3602C91.3076 13.8932 91.3224 13.4037 91.226 12.93C91.1296 12.4564 90.9244 12.0112 90.6266 11.6293C90.3288 11.2474 89.9463 10.939 89.509 10.7283C89.0716 10.5175 88.5913 10.41 88.1053 10.4142Z" fill="#5887FF"/>
<path d="M68.4243 9.46112C70.3856 18.8778 70.566 28.7654 70.859 38.3615C70.9943 42.9465 71.0619 47.5316 71.1972 52.1278C71.3212 56.186 70.983 60.8159 72.2342 64.7283C72.6626 66.0511 75.0072 66.2305 75.2101 64.6498C75.7398 60.5692 74.9733 56.1524 74.8043 52.0381C74.5901 46.8589 74.4436 41.6909 74.2068 36.5118C73.7672 27.1847 73.0796 17.8913 70.194 8.93423C70.1168 8.70912 69.955 8.52252 69.7424 8.4136C69.5298 8.30468 69.2831 8.28193 69.054 8.35014C68.8249 8.41834 68.6313 8.57219 68.5139 8.77935C68.3965 8.98652 68.3643 9.23089 68.4243 9.46112Z" fill="#242D2C"/>
<path d="M70.5208 10.8402C71.1746 5.90768 75.6722 4.11402 80.305 4.7418C84.4983 5.33595 86.7752 7.88071 88.0941 11.7371C90.1343 17.7571 89.9652 24.9765 90.0892 31.2656C90.2132 37.1622 90.0892 43.0701 90.5288 48.9667C90.8783 53.9105 90.9572 59.8744 93.6738 64.1456C93.8836 64.4852 94.1999 64.7468 94.574 64.8899C94.948 65.033 95.3591 65.0498 95.7437 64.9376C96.1283 64.8254 96.465 64.5904 96.7021 64.269C96.9392 63.9476 97.0633 63.5576 97.0554 63.1591C97.4499 58.1256 95.7365 52.8904 95.4097 47.8121C95.0828 42.7338 95.0151 37.3976 94.846 32.1848C94.5868 24.3376 94.925 14.5397 91.0474 7.39865C88.0715 1.91678 82.582 0.0222423 76.5514 1.17691C71.8735 2.06253 66.5982 5.85163 68.9991 11.0869C69.0905 11.227 69.2207 11.3378 69.374 11.4057C69.5274 11.4737 69.6973 11.496 69.8631 11.4699C70.029 11.4438 70.1836 11.3704 70.3084 11.2587C70.4331 11.1469 70.5226 11.0016 70.5659 10.8402H70.5208Z" fill="#242D2C"/>
<path d="M72.9443 62.4423C73.0571 63.3989 73.136 64.363 73.181 65.3346C73.1892 65.4676 73.2263 65.5973 73.2898 65.7147C73.3534 65.8321 73.4419 65.9343 73.5491 66.0143C73.6563 66.0943 73.7798 66.1501 73.9109 66.1779C74.0419 66.2057 74.1775 66.2048 74.3083 66.1753C80.6883 64.8077 87.6093 59.1352 93.9104 64.505C95.6802 66.0072 98.1939 63.384 96.4016 61.9042C90.1681 56.7586 78.4339 58.5411 73.384 64.6844L74.8155 64.8301L73.6883 62.3078C73.6563 62.2149 73.5922 62.1363 73.5074 62.086C73.4226 62.0358 73.3226 62.017 73.2252 62.0332C73.1278 62.0493 73.0394 62.0993 72.9755 62.1742C72.9117 62.2491 72.8767 62.3441 72.8767 62.4423H72.9443Z" fill="#242D2C"/>
<path d="M77.4646 71.8585C77.3764 70.6961 77.2221 69.5395 77.0024 68.3945C77.0276 67.2698 76.9597 66.145 76.7995 65.0314C76.7395 64.8263 76.6143 64.6461 76.4425 64.5178C76.2707 64.3896 76.0618 64.3203 75.847 64.3203C75.6322 64.3203 75.4233 64.3896 75.2515 64.5178C75.0797 64.6461 74.9545 64.8263 74.8945 65.0314C74.7216 66.2302 74.8217 67.4523 75.1876 68.6075C75.3448 69.8445 75.776 71.0314 76.4501 72.0827C76.5153 72.1818 76.611 72.2573 76.7229 72.2979C76.8348 72.3385 76.9568 72.3421 77.0709 72.308C77.185 72.274 77.285 72.2042 77.3559 72.109C77.4269 72.0139 77.465 71.8984 77.4646 71.78V71.8585Z" fill="#242D2C"/>
<path d="M79.5386 69.1004C79.2683 68.0851 79.0538 67.056 78.8961 66.0175C78.9158 65.034 78.8441 64.0508 78.6819 63.0804C78.6348 62.9763 78.5608 62.8863 78.4676 62.8197C78.3744 62.753 78.2651 62.7119 78.1509 62.7005C78.0366 62.6891 77.9214 62.7079 77.8167 62.7549C77.712 62.8019 77.6217 62.8755 77.5547 62.9683C76.3148 64.7956 77.6674 67.6655 78.3776 69.4591C78.4345 69.607 78.5456 69.728 78.6884 69.7978C78.8313 69.8677 78.9954 69.8813 79.1479 69.836C79.3004 69.7906 79.4301 69.6896 79.5109 69.5532C79.5917 69.4168 79.6177 69.2551 79.5837 69.1004H79.5386Z" fill="#242D2C"/>
<path d="M81.8718 69.3136C81.9847 68.128 81.9847 66.9344 81.8718 65.7487C81.8718 64.6277 82.1762 63.1815 81.7478 62.1502C81.7084 62.0235 81.6364 61.9092 81.539 61.8186C81.4415 61.7281 81.322 61.6644 81.1923 61.6338C81.0625 61.6032 80.9269 61.6069 80.799 61.6444C80.6711 61.6818 80.5552 61.7519 80.4628 61.8475C79.4709 62.6995 79.7414 64.2465 79.9105 65.4348C80.043 66.8287 80.4247 68.1878 81.0377 69.4481C81.0883 69.5218 81.159 69.5796 81.2414 69.6149C81.3239 69.6501 81.4147 69.6614 81.5033 69.6473C81.5919 69.6332 81.6746 69.5943 81.7418 69.5352C81.8091 69.4762 81.8581 69.3993 81.8831 69.3136H81.8718Z" fill="#242D2C"/>
<path d="M85.4902 68.0137C85.2535 65.8949 84.4419 63.7873 84.6561 61.6237C84.7463 60.6933 83.5289 60.2224 82.8413 60.6484C81.3534 61.5453 81.6239 62.9578 81.9959 64.4375C82.3313 65.9858 83.0218 67.436 84.0136 68.6751C84.1403 68.7919 84.2988 68.8689 84.4693 68.8967C84.6398 68.9244 84.8148 68.9016 84.9723 68.831C85.1298 68.7604 85.263 68.6453 85.3551 68.4999C85.4472 68.3546 85.4942 68.1854 85.4902 68.0137Z" fill="#242D2C"/>
<path d="M88.4886 68.103C89.0635 66.6232 88.5675 64.8856 88.8267 63.3274C89.1603 62.2875 89.2223 61.1803 89.0071 60.11C88.9401 59.9001 88.8261 59.7081 88.6737 59.5483C88.5214 59.3885 88.3345 59.2651 88.1273 59.1874C87.9201 59.1097 87.6979 59.0798 87.4774 59.0998C87.2569 59.1198 87.0438 59.1892 86.8541 59.3029C85.4676 60.0988 85.648 61.3432 85.7269 62.722C85.9054 64.562 86.2834 66.3774 86.8541 68.1366C86.9074 68.3016 87.012 68.4455 87.1528 68.5476C87.2936 68.6496 87.4633 68.7046 87.6375 68.7046C87.8118 68.7046 87.9815 68.6496 88.1223 68.5476C88.2631 68.4455 88.3676 68.3016 88.4209 68.1366L88.4886 68.103Z" fill="#242D2C"/>
<path d="M91.4194 67.655C91.7463 66.4555 91.8139 65.2 92.1746 63.9892C92.5353 62.7785 93.2116 61.7471 92.9298 60.514C92.8694 60.3264 92.7672 60.1547 92.6309 60.0117C92.4946 59.8687 92.3277 59.7581 92.1425 59.6881C91.9573 59.6181 91.7586 59.5905 91.5612 59.6073C91.3639 59.6242 91.1728 59.685 91.0023 59.7853C89.7511 60.4467 89.4129 62.1843 89.21 63.4848C88.9304 64.8877 88.9923 66.3368 89.3904 67.7111C89.4619 67.9263 89.6013 68.1127 89.7878 68.2429C89.9743 68.3731 90.1981 68.44 90.4258 68.4337C90.6536 68.4274 90.8733 68.3482 91.0523 68.208C91.2312 68.0677 91.36 67.8738 91.4194 67.655Z" fill="#242D2C"/>
<path d="M95.1391 69.0674H95.218C95.3881 69.019 95.5418 68.9256 95.6628 68.7973C95.7839 68.6691 95.8678 68.5106 95.9056 68.3388C95.9902 67.3316 95.9902 66.3191 95.9056 65.312C96.0277 64.2631 95.9666 63.2013 95.7253 62.1731C95.6486 61.9857 95.5224 61.8224 95.36 61.7006C95.1976 61.5788 95.0051 61.503 94.8029 61.4812C94.6007 61.4593 94.3963 61.4923 94.2114 61.5766C94.0265 61.6609 93.868 61.7934 93.7527 61.9601C93.356 62.9694 93.2621 64.0713 93.4821 65.1326C93.5117 66.2339 93.6668 67.3283 93.9443 68.3948C93.9932 68.562 94.0857 68.7133 94.2124 68.8334C94.3391 68.9535 94.4955 69.0381 94.6657 69.0787C94.8181 69.1104 94.9755 69.1104 95.1279 69.0787L95.1391 69.0674Z" fill="#242D2C"/>
<path d="M76.3035 56.9711C78.9299 56.1976 81.0378 54.7851 83.8784 54.6506C85.8284 54.5609 87.8236 55.2223 89.7511 54.942C89.8714 54.9443 89.9883 54.902 90.079 54.8233C90.1696 54.7447 90.2276 54.6353 90.2417 54.5164C90.2558 54.3976 90.2249 54.2777 90.155 54.1803C90.0852 54.0828 89.9814 54.0147 89.8638 53.9891C85.0281 52.7672 79.6626 52.4421 75.8301 56.2312C75.7652 56.3071 75.7262 56.4014 75.7186 56.5006C75.7111 56.5999 75.7353 56.699 75.7879 56.7837C75.8405 56.8684 75.9188 56.9343 76.0114 56.972C76.104 57.0097 76.2063 57.0173 76.3035 56.9936V56.9711Z" fill="#242D2C"/>
</svg>
