<svg width="205" height="157" viewBox="0 0 205 157" fill="none" xmlns="http://www.w3.org/2000/svg">
<path d="M45.1906 48.9356L42.1021 47.2428C39.9153 46.0545 36.7253 48.2293 37.7172 50.7741C38.6077 53.0162 39.6109 55.2582 40.5803 57.5003L45.8557 54.2829L39.4306 48.801C36.7591 46.559 31.9234 49.81 34.3469 52.9153C36.0063 55.0222 37.513 57.2437 38.8557 59.563L43.8267 55.5497C41.5047 53.4758 39.3179 51.3234 37.0634 49.1934C34.1327 46.4245 30.3002 50.0903 31.8783 53.3749C34.1633 58.1371 36.0484 63.079 37.5143 68.1502C38.6415 71.9953 45.0892 71.1994 44.6947 67.0291C43.7478 57.0967 37.5031 49.1934 30.6609 42.2878L27.9105 49.384C35.4515 49.3279 41.7414 42.5457 47.4112 38.3081L41.2229 33.824C39.9717 40.1242 35.1021 43.9806 37.0071 50.9086L44.6383 47.4782C43.707 45.3902 42.0097 43.7343 39.8927 42.8483C34.8316 40.4045 31.1569 47.3325 35.7221 50.3593C37.8224 51.7501 40.1267 52.8089 42.553 53.4982L43.4886 45.0904L43.094 45.1577L46.8476 47.1755C47.8734 49.0589 47.4901 49.0253 48.5046 46.7383C48.8826 45.9564 49.1772 45.1374 49.3839 44.2945C49.7404 43.235 49.76 42.092 49.4402 41.021C48.6399 39.3843 48.1214 40.4605 48.437 41.7385C48.7526 43.0165 52.4724 45.3146 53.6447 46.0209C55.9794 47.389 58.5226 48.3697 61.1745 48.9244C66.2695 50.0454 68.5464 43.4537 64.4096 40.752L58.007 36.5257C53.4982 33.5774 48.4934 40.5278 52.4611 44.0479C63.3838 53.7673 78.5899 55.7066 91.2034 62.3992L92.1953 53.0049C89.0278 53.6551 84.8572 52.1417 81.7686 51.4579C78.1012 50.7359 74.5062 49.6892 71.0263 48.3302C64.6012 45.6734 59.3371 40.9762 53.2615 37.6692C52.1408 37.078 50.8327 36.9441 49.6145 37.2956C48.3962 37.6472 47.3634 38.4566 46.7349 39.5525C43.3533 46.8168 42.4628 55.7403 41.5047 63.6324C40.3264 72.0256 40.8786 80.5695 43.1278 88.7436C45.6077 97.1514 53.5545 96.0976 61.1632 96.8936C70.3049 97.8577 79.3338 98.7769 88.5431 98.8778C106.094 99.0572 125.256 99.6289 142.243 94.6179C150.946 92.0507 153.042 86.4119 153.222 77.8023C153.191 73.7925 152.859 69.7905 152.231 65.8296C151.971 63.823 151.678 61.8163 151.487 59.7984C151.419 59.1482 151.103 53.0722 150.506 53.7336L145.231 55.2582L146.358 55.6282L143.089 53.2516C143.946 54.8322 143.765 56.9398 143.698 58.6438C143.506 63.9351 151.07 65.37 153.493 61.0316C156.966 54.7919 159.882 48.2611 162.206 41.5143C163.108 38.9583 160.989 35.9652 158.509 35.3934C154.553 34.463 150.709 33.1514 146.764 32.2545C145.773 32.0371 144.741 32.1112 143.793 32.4678C142.844 32.8245 142.021 33.4482 141.423 34.2627C140.825 35.0773 140.479 36.0474 140.426 37.0545C140.374 38.0616 140.617 39.062 141.128 39.9336L141.736 41.5704C142.942 46.9401 151.813 45.5276 151.385 40.0233C151.342 38.5543 151.025 37.106 150.45 35.7522L144.272 42.2093C148.129 43.4485 152.059 44.4481 156.04 45.2025L152.343 39.0704C150.292 44.983 147.613 50.6613 144.351 56.0093L154.136 58.3971C154.496 53.5879 154.023 47.6015 149.176 45.2362C147.564 44.4514 145.197 44.1151 143.664 45.3707C136.269 51.2673 140.485 64.0023 141.004 72.1186C141.333 74.8834 141.306 77.6786 140.925 80.4367C140.35 83.2505 139.797 82.6788 136.652 83.4187C131.099 84.7147 125.441 85.5175 119.744 85.8177C108.19 86.6361 96.5689 87.1854 84.9924 87.2526C79.1535 87.2526 73.3145 87.3759 67.4869 87.2526C62.0086 87.1742 55.4595 87.3535 50.2405 85.6159L53.2276 87.7795C49.97 81.7932 50.3758 72.1971 50.9056 65.639C51.4466 58.9128 52.2019 50.3369 55.2566 44.16L48.6963 46.0433C56.3049 50.3929 62.6511 55.9757 71.0488 58.9352C78.2743 61.48 87.6414 64.5404 95.2839 62.7692C99.5785 61.7714 100.12 55.3031 96.2758 53.3861C84.1245 47.2989 70.0907 45.5388 59.0779 37.1983L53.4982 44.7653L60.1036 48.4535L63.3387 40.27C58.0859 39.3955 56.0231 35.9652 51.7623 33.5437C50.4203 32.7307 48.8685 32.3261 47.2981 32.3799C45.7277 32.4337 44.2075 32.9435 42.9249 33.8464C39.0248 36.7275 41.3581 39.4516 40.6705 43.308C40.0731 46.8056 37.5369 47.8594 39.5433 51.6149C39.9265 52.2578 40.4781 52.7852 41.1392 53.1406C41.8004 53.496 42.5461 53.6661 43.2969 53.6327L43.6914 53.5767C48.3468 52.9041 49.4966 46.6711 44.627 45.1689C42.9336 44.6539 41.3349 43.8703 39.8927 42.8483L35.7221 50.3593L37.4129 51.9175C39.6673 56.1999 46.4306 52.9713 45.0554 48.4984C43.838 44.6196 48.437 39.7431 49.2148 35.8307C49.846 32.6357 46.1149 29.026 43.0264 31.3465C39.0812 34.2948 32.8815 41.1556 27.6738 41.1892C23.9765 41.1892 22.4661 45.8191 24.9234 48.2854C30.3453 53.7673 36.3759 59.1594 37.3227 67.2533L44.503 66.1323C42.6823 60.5363 40.3506 55.1178 37.5369 49.9445L32.3517 54.0587C34.6963 56.099 37.0747 58.1057 39.363 60.2132C42.1134 62.7355 46.1262 59.3724 44.3452 56.1999C43.0493 53.8577 41.5878 51.61 39.9717 49.4737L34.8767 53.5767L41.437 58.9016C44.3678 61.2782 47.8847 58.1841 46.3742 54.9219C45.3372 52.6798 44.334 50.4938 43.218 48.319L39.1601 52.5565L42.4741 53.8569C45.743 55.1349 48.4708 50.7404 45.1906 48.9468V48.9356Z" fill="#FCD13A"/>
<path d="M159.276 44.261C159.576 44.2707 159.872 44.1969 160.132 44.048C160.412 43.9545 160.661 43.788 160.854 43.5659C161.064 43.3654 161.22 43.1145 161.305 42.8372C161.439 42.5662 161.497 42.2641 161.474 41.9628L161.383 41.3687C161.266 40.998 161.057 40.6627 160.775 40.3934L160.313 40.0459C159.965 39.8625 159.578 39.7663 159.185 39.7656C158.59 39.8145 158.03 40.0636 157.596 40.4719C157.385 40.6699 157.233 40.9221 157.156 41.2005C157.017 41.4702 156.955 41.7726 156.976 42.0749L157.078 42.6691C157.189 43.04 157.394 43.376 157.675 43.6444L158.148 43.9807C158.491 44.1762 158.881 44.2732 159.276 44.261Z" fill="#FCD13A"/>
<path d="M159.614 44.2167C163.187 44.2167 163.052 38.7012 159.478 38.7012C155.905 38.7012 156.04 44.2167 159.614 44.2167Z" fill="#FCD13A"/>
<path d="M163.007 40.9097C166.174 40.9097 166.05 36.0107 162.883 36.0107C159.715 36.0107 159.828 40.9097 163.007 40.9097Z" fill="#FCD13A"/>
<path d="M143.202 30.2707C135.785 32.2213 131.355 39.5305 124.298 42.4788C116.115 45.898 107.604 50.1915 99.1276 52.7251C92.3644 54.7317 97.7299 65.0565 102.893 61.032C110.276 55.3595 119.801 52.4785 128.165 48.7006C135.345 45.4496 140 39.609 145.839 34.5643C147.913 32.7706 145.524 29.699 143.202 30.3043V30.2707Z" fill="#FCD13A"/>
<path d="M141.116 37.8714C135.83 38.9925 131.107 41.9072 126.327 44.3286C121.131 46.9743 115.889 49.4966 110.546 51.8395C106.826 53.4763 100.864 54.7206 98.5528 58.3528C95.994 62.3661 96.1631 69.4174 95.3966 74.0473C94.7315 77.9597 92.7927 83.2062 95.2838 86.8496C97.775 90.4929 101.483 90.5266 105.305 90.2127C111.054 89.7418 116.577 89.5401 122.393 89.6297C127.454 89.7082 133.045 90.0333 137.971 88.632C147.846 85.807 145.862 74.9441 145.411 67.0632C145.107 61.3796 145.997 45.5954 137.194 45.5169C135.243 45.5169 133.316 46.6379 131.49 47.1088C129.134 47.7477 126.688 48.0168 124.31 48.5213C119.474 49.5623 114.789 51.2044 110.366 53.409C106.454 55.3484 103.715 57.0748 102.475 61.4356C100.965 67.0408 100.537 73.1393 99.7138 78.8453C99.5387 79.6349 99.5437 80.4534 99.7283 81.2407C99.9129 82.0281 100.272 82.7644 100.781 83.3955C101.289 84.0266 101.932 84.5365 102.665 84.8879C103.397 85.2392 104.199 85.4231 105.012 85.4259C110.388 85.807 115.664 84.2263 121.052 84.2263C125.752 84.2263 131.028 86.0088 135.48 83.9573C139.177 82.2533 140.62 78.5763 140.97 74.7536C141.511 68.6439 141.375 62.4221 141.567 56.2564C141.646 53.5771 138.805 50.6512 136.01 51.01C124.546 52.6019 104.132 55.8529 108.833 72.1303C110.727 78.6884 118.268 78.8005 124.039 78.8005C132.595 78.8005 133.338 73.7446 134.623 66.3234C135.153 63.2741 132.966 58.9806 129.168 59.5971C125.575 60.0855 122.098 61.2053 118.899 62.9042C112.575 66.2673 118.493 75.9418 124.772 72.3657C126.661 71.2878 128.737 70.5729 130.892 70.2582L123.994 63.7225C123.717 66.3506 123.181 68.9453 122.393 71.4689L124.839 68.1058C126.586 67.691 126.226 67.5901 123.712 67.7807C122.087 67.7508 120.465 67.6311 118.854 67.422C119.169 67.8368 121.424 65.8189 122.235 65.4265C126.564 63.2966 131.501 62.5118 136.235 61.7944L130.69 56.5367L130.385 69.2941C130.385 70.6281 130.859 73.2514 130.205 74.3051C130.295 75.3589 130.024 75.3589 129.382 74.3051L126.62 73.98C119.181 73.2177 112.034 75.3926 104.707 74.8657L110.005 81.4462C110.651 77.0891 111.324 72.7319 112.023 68.3748C112.023 68.3748 112.857 63.6217 112.451 64.227C113.105 63.2629 117.152 61.7271 118.087 61.346C124.524 58.6218 131.975 57.2429 138.738 55.5838L134.759 55.1578C133.057 54.0368 134.297 57.5232 134.387 58.1958C134.612 59.8774 134.68 61.559 134.747 63.2854C134.883 66.4131 134.939 69.5632 135.029 72.7021C135.029 73.8231 135.593 76.3791 135.142 77.3544C134.533 78.6324 134.105 78.2736 132.741 78.6211C129.427 79.4507 125.459 79.1929 122.055 79.2713C118.843 79.3386 115.63 79.361 112.417 79.518C110.715 79.5964 104.38 81.3228 103.186 80.4709C104.978 81.7376 104.696 78.6548 104.876 77.5786C105.181 75.7737 105.496 73.98 105.801 72.1752C106.376 68.8121 106.669 65.2696 107.796 62.0858L105.541 65.1463C117.839 57.5232 134.195 54.1825 144.272 43.23C144.737 42.7117 145.021 42.0582 145.083 41.3664C145.145 40.6747 144.981 39.9816 144.615 39.39C144.249 38.7984 143.701 38.3399 143.053 38.0825C142.404 37.8251 141.69 37.7825 141.015 37.9611L141.116 37.8714Z" fill="#FCD13A"/>
<path d="M52.0666 56.1107C59.6978 59.8326 67.7461 62.6464 75.5239 66.0544C82.3773 69.0475 88.5431 71.6595 96.1292 70.2022L90.0874 64.4849C87.9674 71.4695 87.0005 78.7499 87.2243 86.0425L93.1872 81.3005C80.4159 78.0719 65.7284 80.2691 52.6753 80.5382L57.8154 85.4483C58.0024 77.7509 58.7558 70.0774 60.0698 62.4894L52.5626 65.7405C57.7365 68.3413 62.8653 71.1551 68.2533 73.3075C70.2485 74.1034 82.5013 76.6706 82.3435 78.3297L87.5512 72.8815C78.207 72.2104 68.8144 72.8024 59.6302 74.6415L66.6076 79.6525C66.3334 76.7349 66.2731 73.8012 66.4273 70.8748L58.4466 75.6953L67.9377 81.5359C73.7992 85.1457 78.8491 75.9307 73.0891 72.2649L63.6543 66.3234C59.912 63.958 55.9104 67.4444 55.6624 71.1439C55.467 74.0683 55.5085 77.0037 55.7864 79.9216C55.8278 80.7426 56.054 81.544 56.4483 82.2665C56.8425 82.989 57.3948 83.6143 58.0645 84.0963C58.7341 84.5783 59.5039 84.9047 60.3173 85.0514C61.1306 85.198 61.9667 85.1613 62.7638 84.9438C71.0097 83.3465 79.4347 82.8639 87.8104 83.5089C90.9328 83.7331 92.7927 80.6951 93.0294 78.0607C93.6832 70.9309 87.0101 67.6687 81.1148 66.1216C72.6607 63.8795 65.4015 60.5949 57.5561 56.7497C54.8057 55.4045 50.6125 56.5703 50.0489 60.0007C48.6503 68.4982 47.8742 77.0856 47.7269 85.695C47.7768 87.0143 48.3436 88.2618 49.3062 89.171C50.2688 90.0802 51.5508 90.5788 52.8782 90.5603L71.8491 89.9325C78.1841 89.7307 84.643 89.0917 90.8652 90.5827C91.5815 90.7517 92.3273 90.7559 93.0455 90.5948C93.7637 90.4337 94.4354 90.1117 95.0095 89.6532C95.5836 89.1947 96.0448 88.612 96.358 87.9493C96.6712 87.2867 96.8282 86.5616 96.8168 85.8295C96.6294 79.3796 97.5013 72.9425 99.3982 66.7718C100.525 62.9939 96.6929 60.3707 93.3563 61.0433C86.9087 62.3549 79.9312 57.8932 74.1036 55.6511C67.7544 53.0909 61.115 51.3102 54.3323 50.3486C51.1085 49.9562 48.5948 54.4067 52.0779 56.0883L52.0666 56.1107Z" fill="#FCD13A"/>
<path d="M97.7074 54.7653C104.831 50.9987 112.293 47.8373 119.575 44.4181C127.387 40.7411 136.596 37.322 143.326 31.8401C145.084 30.4052 142.739 28.0286 140.958 28.9366C132.944 33.0172 125.335 38.0955 117.355 42.3106C110.49 45.9315 103.467 49.3171 96.783 53.2743C95.8024 53.8573 96.7154 55.2922 97.7074 54.7653Z" fill="#242D2C"/>
<path d="M97.6735 53.252C90.234 49.4853 82.6253 46.0325 75.1293 42.4564C66.788 38.4991 58.5819 33.6338 50.0489 30.125C49.8313 30.005 49.5921 29.9288 49.3449 29.9008C49.0977 29.8728 48.8473 29.8934 48.6082 29.9616C48.369 30.0298 48.1457 30.1442 47.9509 30.2982C47.7562 30.4522 47.5939 30.6429 47.4732 30.8593C47.3526 31.0757 47.276 31.3136 47.2478 31.5595C47.2196 31.8053 47.2404 32.0543 47.309 32.2921C47.3775 32.53 47.4925 32.7521 47.6474 32.9458C47.8023 33.1394 47.994 33.3009 48.2116 33.4208C55.854 38.3758 65.3564 41.4363 73.7203 44.9563C81.453 48.1961 89.2307 51.3126 96.8619 54.7542C97.8877 55.2138 98.7444 53.7341 97.7186 53.2184L97.6735 53.252Z" fill="#242D2C"/>
<path d="M96.5802 54.7206C100.356 59.2047 104.989 62.8593 109.137 66.9623C110.445 68.2627 112.248 66.2673 111.076 64.9332C107.221 60.5276 102.137 57.355 97.9103 53.3193C96.9972 52.4449 95.8024 53.7901 96.5802 54.7206Z" fill="#242D2C"/>
<path d="M110.783 67.0301C123.182 58.925 136.607 52.5127 148.973 44.3628C151.622 42.6252 148.973 38.3764 146.369 40.1925C134.263 48.7236 121.108 55.7189 109.43 64.8553C108.179 65.8418 109.374 67.9381 110.783 67.0189V67.0301Z" fill="#242D2C"/>
<path d="M95.6558 54.508C91.7219 58.2523 87.089 61.38 83.5158 65.5054C83.2572 65.7745 83.1167 66.1347 83.1251 66.5068C83.1336 66.8789 83.2903 67.2325 83.5609 67.4896C83.8314 67.7468 84.1936 67.8866 84.5678 67.8782C84.942 67.8697 85.2974 67.7139 85.556 67.4448C89.4224 63.6109 93.5818 60.0235 97.0648 55.8309C97.231 55.6433 97.3174 55.3989 97.3058 55.1492C97.2943 54.8995 97.1857 54.6641 97.0029 54.4925C96.8201 54.3209 96.5775 54.2267 96.3262 54.2296C96.0749 54.2325 95.8345 54.3323 95.6558 54.508Z" fill="#242D2C"/>
<path d="M85.1502 65.3589C72.6607 56.6597 59.1342 49.4178 46.7349 40.6625C44.1649 38.8576 41.7076 43.2073 44.3565 44.9561C57.0602 53.3302 70.8121 59.9668 83.9554 67.5898C85.4095 68.4306 86.5029 66.2782 85.1841 65.3478L85.1502 65.3589Z" fill="#242D2C"/>
<path d="M96.6929 55.6067C95.3966 65.8081 96.2983 76.3683 96.6929 86.6258C96.7181 86.8535 96.827 87.064 96.9986 87.2169C97.1702 87.3698 97.3924 87.4543 97.6228 87.4543C97.8532 87.4543 98.0755 87.3698 98.2471 87.2169C98.4187 87.064 98.5275 86.8535 98.5528 86.6258C98.9135 76.458 99.8378 65.9651 98.5528 55.8421C98.4288 54.9116 96.8619 54.5305 96.7267 55.6516L96.6929 55.6067Z" fill="#242D2C"/>
<path d="M104.223 70.1354C104.043 70.1189 103.862 70.1189 103.682 70.1354L103.141 70.2139C102.884 70.2776 102.651 70.4093 102.464 70.5951C102.251 70.7505 102.075 70.9506 101.949 71.1811C101.822 71.4116 101.748 71.667 101.732 71.9291C101.659 72.1895 101.659 72.4646 101.732 72.725C101.841 73.0542 102.027 73.3535 102.273 73.5995L102.69 73.9022C103.007 74.0763 103.364 74.1651 103.727 74.16L104.256 74.0703C104.593 73.9738 104.897 73.7877 105.136 73.5322L105.451 73.1174C105.623 72.8051 105.709 72.4531 105.699 72.0973C105.705 71.8271 105.639 71.5601 105.508 71.3237C105.417 71.0774 105.266 70.8576 105.068 70.6847C104.815 70.4464 104.504 70.2766 104.166 70.1915L104.223 70.1354Z" fill="#242D2C"/>
<path d="M104.223 77.3099C104.044 77.2802 103.863 77.2615 103.682 77.2539L103.141 77.3436C102.887 77.4075 102.654 77.5349 102.464 77.7135C102.252 77.8662 102.078 78.0657 101.957 78.2965C101.816 78.5226 101.738 78.7818 101.732 79.0476C101.659 79.3118 101.659 79.5906 101.732 79.8547C101.841 80.1839 102.027 80.4832 102.273 80.7292L102.69 81.0318C103.006 81.2077 103.365 81.2931 103.727 81.2785L104.256 81.2C104.593 81.1034 104.897 80.9174 105.136 80.6619L105.451 80.2471C105.623 79.9307 105.708 79.5751 105.699 79.2157C105.704 78.9493 105.638 78.6863 105.508 78.4534C105.42 78.2057 105.269 77.9852 105.068 77.8144C104.815 77.5728 104.505 77.3992 104.166 77.3099H104.223Z" fill="#242D2C"/>
<path d="M43.6802 97.1969C63.3274 99.3044 83.5271 103.116 103.355 102.298C111.561 101.95 119.778 101.098 127.917 100.056C134.68 99.2259 142.57 98.8448 148.804 96.0198C151.058 94.9884 149.311 91.5356 147.045 92.141C132.504 95.9301 117.005 97.4883 101.957 98.1049C82.5238 98.9121 62.8878 95.8628 43.5675 94.271C41.685 94.114 41.8203 96.9615 43.6351 97.1633L43.6802 97.1969Z" fill="#242D2C"/>
<path d="M164.619 36.515C161.755 38.7571 160.392 43.2412 158.892 46.5146C156.638 51.2005 154.654 55.9089 152.693 60.6957C152.508 61.0515 152.47 61.4648 152.588 61.8478C152.705 62.2307 152.968 62.553 153.321 62.7459C153.673 62.9388 154.088 62.9872 154.476 62.8806C154.864 62.7741 155.195 62.5211 155.398 62.1755C157.845 57.8885 160.025 53.4558 161.925 48.9024C163.446 45.4721 165.926 41.7278 166.738 38.0396C166.963 36.9186 165.611 35.6966 164.619 36.515Z" fill="#242D2C"/>
<path d="M34.7978 62.3218C34.0876 59.0372 31.8445 56.2794 29.9508 53.6001C27.933 50.7415 26.0168 47.7147 23.9653 44.9009C22.8381 43.3426 19.8735 43.7798 20.0539 46.0219C20.2906 49.0823 23.7173 52.2997 25.6899 54.4633C28.0909 57.1314 31.6077 59.7883 33.3211 62.9384C33.7833 63.8128 35.0006 63.1401 34.809 62.2769L34.7978 62.3218Z" fill="#242D2C"/>
<path d="M47.1069 28.2753C43.7253 35.1809 41.7865 42.8488 40.3436 50.3373C38.8725 58.1211 38.2639 66.0419 38.5288 73.9576C38.8195 82.3515 40.1214 90.6805 42.4064 98.7662C44.9871 107.83 48.575 116.579 53.1037 124.853C55.6647 129.501 58.5028 133.993 61.6028 138.305C64.9844 143.036 68.5126 147.677 72.176 152.172C73.168 153.372 74.1374 154.594 75.0955 155.816C75.1642 155.918 75.2523 156.005 75.3548 156.074C75.4561 156.141 75.572 156.183 75.6929 156.197C75.8154 156.225 75.9425 156.225 76.0649 156.197C76.1834 156.161 76.2942 156.104 76.3918 156.029C76.4816 155.948 76.5577 155.853 76.6173 155.748C76.6732 155.636 76.7076 155.515 76.7187 155.39C76.7349 155.271 76.7349 155.15 76.7187 155.031C76.6726 154.917 76.6035 154.814 76.5158 154.728C69.0762 146.231 63.0795 136.556 57.7139 126.702C53.197 118.517 49.5767 109.873 46.9153 100.919C45.718 96.8449 44.762 92.7049 44.0522 88.5199C44.0522 88.3965 44.0522 88.2732 44.0522 88.1499C44.0522 87.8248 44.0522 88.4302 44.0522 88.1499C44.0522 87.8697 43.9732 87.6567 43.9394 87.41C43.8493 86.8831 43.7816 86.3563 43.7027 85.8294C43.5787 84.8541 43.4547 83.8676 43.3533 82.8923C43.1391 80.8856 42.9362 78.9014 42.8235 76.8723C42.5887 72.9715 42.5624 69.061 42.7446 65.1574C42.8348 63.2517 42.9475 61.3459 43.1166 59.4626L43.2518 58.0725L43.3195 57.3774C43.3195 57.299 43.3195 56.9963 43.3195 57.3774V56.9402C43.4209 55.9874 43.5449 55.0233 43.6802 54.0928C44.1987 50.3485 44.8074 46.6155 45.5739 42.8824C46.3404 39.1494 47.2985 35.4051 47.941 31.672C48.1101 30.764 48.2679 29.8448 48.4145 28.9255C48.5272 28.2192 47.524 27.7036 47.1633 28.4322L47.1069 28.2753Z" fill="#242D2C"/>
<path d="M141.646 28.8918C142.469 30.6407 143.202 32.4343 144.058 34.1607C144.915 35.8871 145.501 37.5238 146.177 39.2278C147.577 42.752 148.667 46.3903 149.435 50.1019C149.627 51.066 149.83 52.0301 149.999 53.0054C149.999 53.2296 150.078 53.4426 150.111 53.6668C150.145 53.891 150.179 54.0479 150.111 53.7228C150.106 53.8199 150.106 53.9172 150.111 54.0143C150.19 54.5187 150.258 55.0232 150.326 55.5389C150.585 57.4559 150.754 59.4065 150.867 61.3459C151.079 65.3471 151.026 69.3579 150.709 73.3522L150.574 74.888C150.564 75.1287 150.538 75.3684 150.495 75.6055V75.9194C150.495 75.5943 150.495 76.0427 150.495 76.0987C150.371 77.1413 150.235 78.1726 150.078 79.204C149.773 81.3003 149.424 83.4079 149.007 85.493C148.148 89.8304 147.057 94.1189 145.738 98.3401C142.842 107.392 139.176 116.183 134.781 124.617C132.471 129.18 130.081 133.686 127.488 138.07C126.158 140.312 124.828 142.554 123.385 144.796C121.942 147.038 120.409 149.28 118.876 151.432C118.076 152.554 117.242 153.675 116.396 154.717C116.312 154.808 116.247 154.915 116.205 155.031C116.177 155.153 116.177 155.279 116.205 155.401C116.216 155.522 116.25 155.64 116.306 155.748C116.374 155.851 116.457 155.942 116.554 156.018C116.656 156.088 116.771 156.138 116.892 156.163C117.01 156.197 117.135 156.197 117.253 156.163C117.376 156.143 117.492 156.093 117.591 156.018C117.696 155.951 117.781 155.858 117.839 155.748C120.984 151.264 124.197 146.903 127.263 142.397C130.329 137.89 133.192 133.754 135.785 129.169C140.739 120.585 144.918 111.581 148.274 102.264C151.352 93.8819 153.44 85.1729 154.496 76.3117C155.462 68.0936 155.162 59.777 153.606 51.6489C152.837 47.8617 151.704 44.1565 150.224 40.5843C148.806 36.9092 146.879 33.4491 144.498 30.3043C143.923 29.542 143.28 28.8021 142.627 28.0623C141.973 27.3224 141.285 28.2753 141.59 28.903L141.646 28.8918Z" fill="#242D2C"/>
<path d="M47.4338 27.7148C47.0054 27.8942 46.5658 28.04 46.1375 28.2305C46.1375 28.2305 45.7204 28.3763 46.0248 28.2978C45.7472 28.3518 45.478 28.4423 45.2244 28.5668L44.379 29.0153C43.3871 29.5309 42.3726 30.069 41.1778 30.7192C38.6303 32.0645 36.0602 33.3649 33.5015 34.6765C27.8654 37.5576 22.297 40.5732 17.0104 43.9811C12.6481 46.7949 8.06033 49.8778 4.98305 54.1265C2.72863 57.3439 0.564385 60.9985 0.0909569 64.9445C-0.131149 66.8962 0.0545725 68.8726 0.636483 70.7496C1.21839 72.6266 2.18394 74.3637 3.47258 75.8522C9.49189 83.1053 19.772 83.4528 28.4628 82.982C28.1021 82.3766 27.7301 81.7825 27.3356 81.1772C24.153 86.7706 23.2839 93.3762 24.9121 99.5958C24.9552 99.7385 25.0371 99.8665 25.1488 99.9658C25.2602 100.069 25.3959 100.142 25.5434 100.179C25.688 100.212 25.8384 100.212 25.983 100.179C26.1298 100.136 26.2622 100.055 26.3662 99.9433C29.2543 96.0617 31.3107 91.6319 32.4081 86.9281C32.5884 86.1321 31.4725 85.381 30.9089 86.1097C29.3841 88.0905 28.3701 90.4124 27.9555 92.8726C27.5409 95.3329 27.7383 97.8567 28.5305 100.224C28.5761 100.368 28.6575 100.499 28.7672 100.605C28.8807 100.705 29.0176 100.774 29.1653 100.808C29.3131 100.841 29.4669 100.837 29.6126 100.795C29.7582 100.756 29.8905 100.679 29.9958 100.571C33.0205 97.2681 35.2724 93.3402 36.59 89.0693C36.652 88.8798 36.652 88.6757 36.59 88.4863C36.5051 88.3012 36.3629 88.148 36.1842 88.0491C36.0089 87.9538 35.8069 87.9184 35.6093 87.9482C35.4085 87.9797 35.223 88.074 35.0796 88.2173C33.6142 89.7867 31.867 91.7485 32.1263 94.0691C32.3292 95.9188 33.7945 97.9031 35.8573 97.7237C37.9201 97.5443 39.1037 95.3807 39.6448 93.531C40.2291 91.4271 40.6363 89.2785 40.8621 87.1075C41.8487 78.3253 40.1809 69.45 36.0715 61.615C34.9323 59.4456 33.5886 57.3887 32.0586 55.4718C31.2583 54.474 30.4354 53.4987 29.545 52.5683C29.1441 52.1155 28.7109 51.6921 28.2487 51.3015C27.7414 50.9091 27.1215 50.5952 26.6593 50.1805C25.2616 48.9697 23.2777 51.0437 24.6754 52.2544C25.3968 52.871 25.9266 53.7341 26.6029 54.4068C27.2793 55.0794 27.933 55.7856 28.5643 56.5143C29.7626 57.9356 30.8659 59.4335 31.867 60.9985C33.9105 64.1788 35.5606 67.5928 36.7816 71.1663C37.988 74.7661 38.6749 78.5178 38.8219 82.3094C39.0557 86.0871 38.648 89.8769 37.6158 93.5198C37.4427 94.4126 36.9452 95.2107 36.218 95.7619C36.0495 95.846 35.8654 95.895 35.6772 95.9059C35.4889 95.9168 35.3004 95.8895 35.1231 95.8255C34.9459 95.7615 34.7836 95.6622 34.6462 95.5336C34.5089 95.4051 34.3994 95.2501 34.3243 95.078C33.0393 93.0602 35.1359 90.8965 36.4435 89.4728L34.8767 88.6208C33.6487 92.5828 31.5937 96.2424 28.8461 99.3604L30.3002 99.7079C29.5812 97.6349 29.3912 95.4167 29.7473 93.2526C30.1034 91.0885 30.9945 89.0462 32.3404 87.3092L30.8412 86.4909C29.7753 90.9792 27.7957 95.2027 25.0248 98.9008L26.6142 99.0689C25.7773 96.2906 25.5889 93.3591 26.0636 90.4975C26.5383 87.6359 27.6634 84.9197 29.3533 82.556C29.5098 82.3779 29.615 82.161 29.6577 81.9282C29.6923 81.6917 29.6571 81.4502 29.5562 81.2332C29.4655 81.0147 29.3077 80.8303 29.1053 80.7063C28.9042 80.5741 28.67 80.5004 28.429 80.4933C26.3549 80.3588 24.2809 80.3252 22.2068 80.1234C20.2871 79.9319 18.3843 79.5984 16.5144 79.1256C13.2081 78.3969 10.1714 76.7665 7.74471 74.4173C7.44036 74.1146 7.15856 73.8119 6.88803 73.498C6.88803 73.498 6.45969 72.9599 6.68514 73.2626L6.43715 72.9375C5.91032 72.2339 5.44997 71.4833 5.06195 70.6954C5.20849 70.9981 5.06195 70.6954 5.06195 70.6282C5.06195 70.5609 4.91541 70.2582 4.84778 70.0564C4.71076 69.6894 4.5941 69.3152 4.49835 68.9354C4.49835 68.7336 4.40817 68.5319 4.37435 68.3301C4.44198 68.7224 4.37435 68.274 4.37435 68.1843C4.31621 67.6933 4.29736 67.1985 4.31799 66.7045C4.33691 65.9461 4.4505 65.193 4.65615 64.4625C4.86837 63.5858 5.17054 62.733 5.55793 61.9177C6.3887 60.1741 7.36925 58.505 8.48867 56.9291C8.60139 56.7497 8.72539 56.5928 8.83811 56.4246C9.07482 56.0659 8.49994 56.8394 8.78175 56.5031L9.15372 56.0323C9.48062 55.6287 9.83005 55.2475 10.1795 54.9112C10.9796 54.0836 11.8224 53.2978 12.7044 52.5571L13.0651 52.2656C13.4709 51.9293 12.7946 52.4674 13.0651 52.2656C13.3357 52.0638 13.5386 51.8957 13.764 51.6939L15.3759 50.4943C16.5031 49.6648 17.698 48.8688 18.8928 48.0953C23.9427 44.8107 29.2068 41.896 34.3581 38.8131C37.0522 37.21 39.7349 35.6182 42.3726 33.9366C43.4998 33.1967 44.7848 32.3896 45.6753 31.6945L46.4531 31.1228L46.78 30.8986C46.9303 30.8094 47.0577 30.6865 47.152 30.5399C47.276 30.3829 47.2872 30.3493 47.152 30.4614C47.5127 30.0354 47.9072 29.643 48.2792 29.2283C48.7977 28.6229 48.2792 27.457 47.4 27.8045L47.4338 27.7148Z" fill="#242D2C"/>
<path d="M144.656 32.7597C147.881 34.44 151.283 35.7596 154.801 36.6945C158.235 37.6396 161.814 37.9587 165.363 37.6362C171.142 36.9859 176.475 34.2303 180.332 29.901C182.52 27.3936 184.067 24.3977 184.841 21.1682C184.903 20.9444 184.903 20.7081 184.841 20.4843C184.783 20.2606 184.662 20.0582 184.491 19.9014C181.324 17.4351 178.325 14.6886 174.662 12.9397C174.549 13.7357 174.448 14.5316 174.346 15.3275C177.506 14.3064 180.936 14.5106 183.95 15.8993C184.179 16.0184 184.436 16.0727 184.694 16.0562C184.953 16.0326 185.2 15.9353 185.404 15.776C185.606 15.6188 185.759 15.4078 185.844 15.1676C185.93 14.9275 185.946 14.668 185.889 14.4195C184.803 10.1849 185.047 5.72117 186.588 1.62846L184.187 1.94235C186.064 5.26053 187.217 8.93539 187.569 12.7267C187.647 13.7021 189.045 14.6325 189.823 13.646L197.116 4.43106L194.862 3.50059L194.726 13.489C194.732 13.746 194.814 13.9957 194.96 14.2074C195.107 14.4192 195.312 14.5839 195.551 14.6814C195.791 14.7789 196.053 14.805 196.307 14.7565C196.561 14.708 196.795 14.587 196.981 14.4083L204.037 6.06778L201.783 4.801C200.858 11.247 199.359 17.592 197.95 23.9483C197.274 26.9863 196.631 30.0019 195.786 32.9951C194.996 35.9056 194.04 38.7689 192.923 41.571C191.91 44.1899 190.545 46.66 188.865 48.9138C187.308 50.8936 185.526 52.6879 183.556 54.2612C179.708 57.3221 175.258 59.5449 170.491 60.7856C165.125 62.1863 159.515 62.4006 154.057 61.4134C153.719 61.3297 153.362 61.3785 153.06 61.5497C152.758 61.7209 152.533 62.0013 152.433 62.3327C152.387 62.4983 152.375 62.6714 152.396 62.8418C152.418 63.0123 152.473 63.1768 152.559 63.3259C152.645 63.475 152.76 63.6056 152.897 63.7103C153.034 63.815 153.191 63.8916 153.358 63.9357C163.74 65.9001 174.483 63.6997 183.24 57.8149C187.815 54.6998 191.529 50.49 194.039 45.5731C196.733 39.8964 198.695 33.9037 199.878 27.7374C201.456 20.361 203.259 13.0406 204.387 5.56332C204.458 5.28796 204.438 4.99705 204.33 4.73374C204.223 4.47216 204.038 4.24926 203.8 4.09474C203.548 3.94929 203.255 3.89026 202.966 3.92671C202.677 3.96317 202.407 4.09311 202.2 4.29654L195.098 12.581L197.353 13.5115C197.405 10.1708 197.454 6.84129 197.499 3.52302C197.499 2.48046 195.978 1.67332 195.245 2.60378L187.952 11.8187L190.206 12.7492C189.85 8.49137 188.59 4.35714 186.509 0.619537C186.372 0.404856 186.176 0.233543 185.945 0.125781C185.713 0.0180198 185.456 -0.0217052 185.202 0.0112757C184.949 0.0442567 184.71 0.148571 184.514 0.311942C184.318 0.475314 184.174 0.690942 184.097 0.933426C182.429 5.48134 182.181 10.4243 183.387 15.1145L185.325 13.6348C181.696 11.8963 177.537 11.5958 173.693 12.794C173.448 12.8681 173.231 13.0105 173.066 13.2043C172.901 13.3981 172.795 13.6351 172.762 13.8869C172.729 14.1387 172.769 14.3947 172.878 14.6243C172.987 14.8539 173.16 15.0475 173.377 15.1818C176.849 16.8297 179.678 19.3969 182.676 21.7287L182.338 20.4507C181.714 22.9468 180.582 25.2894 179.013 27.3339C177.44 29.3718 175.47 31.0725 173.219 32.3337C170.932 33.6433 168.421 34.5212 165.813 34.9233C162.73 35.3131 159.601 35.1384 156.582 34.4076C152.893 33.552 149.329 32.2336 145.974 30.484C144.475 29.7329 143.123 31.9862 144.656 32.7597Z" fill="#242D2C"/>
</svg>
