<svg width="134" height="46" viewBox="0 0 134 46" fill="none" xmlns="http://www.w3.org/2000/svg">
<path d="M130.219 24.014C130.219 11.6826 128.55 1.30176 113.93 1.30176C99.3104 1.30176 77.6567 11.1445 77.6567 23.5095C77.6567 35.8745 85.1978 45.2913 102.771 44.9101C122.486 44.4729 132.157 36.1772 130.219 24.014Z" fill="url(#paint0_linear)"/>
<path opacity="0.25" d="M110.346 29.3492C110.353 27.9044 109.928 26.4901 109.126 25.2855C108.323 24.081 107.18 23.1403 105.839 22.5828C104.499 22.0253 103.023 21.876 101.597 22.1537C100.171 22.4315 98.8606 23.1239 97.831 24.1432C96.8013 25.1625 96.0991 26.4628 95.8132 27.8794C95.5273 29.2959 95.6706 30.765 96.225 32.1005C96.7794 33.436 97.7199 34.5778 98.9274 35.3812C100.135 36.1846 101.555 36.6135 103.008 36.6135C104.949 36.6165 106.812 35.8532 108.188 34.4912C109.564 33.1292 110.34 31.2798 110.346 29.3492Z" fill="white"/>
<path d="M29.9419 44.9101C47.5151 45.2913 55.0561 35.8745 55.0561 23.5095C55.0561 11.1445 33.3799 1.30176 18.7487 1.30176C4.11751 1.30176 2.46052 11.6489 2.46052 24.014C0.521716 36.1772 10.1932 44.4729 29.9419 44.9101Z" fill="url(#paint1_linear)"/>
<path d="M78.8516 19.294C80.5762 17.433 82.4699 15.6618 84.3411 13.9466C86.95 11.708 89.8459 9.82316 92.953 8.34143C98.8131 5.22927 105.327 3.53189 111.969 3.38644C115.576 3.31918 119.172 3.56581 122.756 3.79002C125.169 3.94696 125.124 0.0681677 122.666 0.0345366C116.128 -0.0551464 109.557 -0.0999789 103.199 1.63763C99.6852 2.62178 96.2849 3.9707 93.0544 5.66215C89.6554 7.23983 86.4919 9.27695 83.6535 11.7157C81.3802 13.7001 79.3656 15.9598 77.6567 18.442C77.2171 19.137 78.2541 19.8769 78.7839 19.2827L78.8516 19.294Z" fill="#F2B800"/>
<path d="M77.7694 18.7332C76.4993 22.658 76.3009 26.848 77.1945 30.8741C77.7637 33.5992 78.9554 36.1575 80.6776 38.3514C82.932 41.1204 86.3136 42.7122 89.6953 43.7324C93.5054 44.8018 97.4287 45.4226 101.384 45.5821C108.79 46.0417 116.737 46.0193 123.185 41.8603C129.869 37.5443 133.33 29.4167 133.003 21.6816C132.763 17.5194 131.81 13.4285 130.185 9.58557C128.831 6.46478 126.921 3.61271 124.549 1.16658C122.644 -0.918556 119.544 2.28761 121.505 4.35032C123.244 6.04259 124.701 7.9989 125.822 10.1461C127.209 13.0128 128.202 16.0519 128.776 19.1816C129.473 22.5234 129.314 25.9856 128.316 29.2508C127.317 32.5159 125.51 35.4794 123.061 37.8694C118.011 42.5441 110.763 42.9589 104.248 42.8468C100.783 42.8279 97.3263 42.528 93.911 41.9499C90.5039 41.5013 87.235 40.3233 84.3298 38.4971C78.3781 34.2933 78.1076 25.5155 78.9079 19.0471C78.9118 18.9127 78.8698 18.7808 78.7886 18.6732C78.7074 18.5656 78.592 18.4886 78.461 18.4547C78.3301 18.4209 78.1915 18.4322 78.0679 18.4869C77.9444 18.5415 77.8431 18.6363 77.7807 18.7557L77.7694 18.7332Z" fill="#F2B800"/>
<path d="M55.2928 18.4195C53.7714 16.2225 51.9972 14.2096 50.0062 12.422C47.4236 10.0657 44.5301 8.07057 41.4056 6.49169C35.2788 3.03788 28.4798 0.927931 21.4652 0.303562C17.7342 -0.010328 13.9918 0.0569362 10.1931 0.112988C7.75835 0.112988 7.8598 4.0254 10.2833 3.86845C16.483 3.47609 22.7502 3.02769 28.871 4.30567C32.2655 5.04262 35.5528 6.2027 38.6552 7.75845C41.9679 9.20641 45.0694 11.0918 47.8758 13.3636C50.0613 15.2608 52.1457 17.2702 54.1205 19.3836C54.6841 19.989 55.6648 19.1706 55.2477 18.4868L55.2928 18.4195Z" fill="#F2B800"/>
<path d="M54.0755 18.8906C54.8194 24.8881 54.6954 32.0964 50.4346 36.8944C48.2478 39.3383 45.0014 40.5266 41.9016 41.3786C38.4704 42.1843 34.9653 42.6388 31.4411 42.735C24.6778 43.0601 17.5088 43.0826 11.6811 39.2486C5.85342 35.4146 3.37356 28.1391 3.86953 21.4914C4.23445 17.881 5.19412 14.355 6.7101 11.0545C7.8813 8.50908 9.51713 6.20182 11.5346 4.24981C13.4959 2.1871 10.2495 -0.873333 8.34456 1.22301C6.29079 3.31919 4.58951 5.73033 3.30593 8.36401C1.77342 11.7141 0.736901 15.2673 0.228642 18.913C-0.785847 26.7602 1.54747 35.1232 7.79222 40.3808C13.7552 45.3807 21.5893 45.986 29.0514 45.7058C36.243 45.4816 44.8323 44.8089 50.6262 40.0333C53.0155 37.894 54.7106 35.096 55.4958 31.9955C56.7081 27.6344 56.6062 23.0152 55.2027 18.7112C55.0111 18.0946 53.9515 18.2067 54.0755 18.8906Z" fill="#F2B800"/>
<path d="M55.879 21.5252C57.3963 20.5942 58.9916 19.7953 60.6471 19.1374C62.3438 18.5661 64.1201 18.2635 65.9112 18.2406C69.64 18.2089 73.3017 19.2272 76.4732 21.1777C78.1189 22.1866 79.5843 19.5522 77.9273 18.5657C74.2479 16.3275 69.9692 15.2597 65.6632 15.5052C63.6343 15.6279 61.6373 16.0667 59.7454 16.8057C57.8098 17.4562 56.0774 18.5958 54.718 20.1127C54.5796 20.2749 54.502 20.4798 54.4984 20.6925C54.4949 20.9052 54.5656 21.1125 54.6986 21.2792C54.8316 21.4458 55.0185 21.5614 55.2276 21.6063C55.4367 21.6511 55.655 21.6225 55.8452 21.5252H55.879Z" fill="#F2B800"/>
<path opacity="0.25" d="M25.1625 36.177C26.6057 36.1704 28.0145 35.7387 29.2113 34.9364C30.408 34.1342 31.339 32.9973 31.8866 31.6694C32.4343 30.3414 32.5741 28.8819 32.2885 27.475C32.0028 26.0681 31.3045 24.7768 30.2817 23.7643C29.2588 22.7517 27.9572 22.0632 26.5413 21.7856C25.1253 21.508 23.6584 21.6538 22.3257 22.2046C20.9929 22.7554 19.8542 23.6865 19.053 24.8804C18.2519 26.0742 17.8244 27.4774 17.8243 28.9127C17.8258 29.8691 18.0169 30.8158 18.3866 31.6987C18.7563 32.5815 19.2974 33.3833 19.979 34.058C20.6605 34.7327 21.4692 35.2671 22.3586 35.6307C23.248 35.9943 24.2008 36.18 25.1625 36.177Z" fill="white"/>
<defs>
<linearGradient id="paint0_linear" x1="104.033" y1="7426.83" x2="104.033" y2="4988.9" gradientUnits="userSpaceOnUse">
<stop stop-color="#F4F4F4"/>
<stop offset="1" stop-color="white" stop-opacity="0.1"/>
</linearGradient>
<linearGradient id="paint1_linear" x1="4520.51" y1="280439" x2="4520.51" y2="185579" gradientUnits="userSpaceOnUse">
<stop stop-color="#F4F4F4"/>
<stop offset="1" stop-color="white" stop-opacity="0.1"/>
</linearGradient>
</defs>
</svg>
