<svg width="131" height="83" viewBox="0 0 131 83" fill="none" xmlns="http://www.w3.org/2000/svg">
<path d="M128.006 68.6035C126.743 67.3331 125.231 66.3335 123.565 65.6664C123.756 64.8013 123.682 63.8991 123.351 63.0768C121.464 57.9097 118.854 53.0336 115.596 48.593C112.687 44.5797 109.373 39.8265 105.676 36.8557C104.075 35.5777 103.084 33.8849 101.573 32.5173C99.4607 30.7583 97.1977 29.1866 94.8098 27.8201C90.3009 25.096 85.4089 23.8517 80.5168 22.7643L77.9806 22.1813C78.871 22.271 79.5586 21.576 79.615 20.4773C79.6851 19.1401 79.2189 17.8298 78.3187 16.834C77.9979 16.5267 77.6467 16.2525 77.2704 16.0156C77.3648 15.7882 77.4476 15.5563 77.5184 15.3206C78.6456 12.6973 78.2849 9.6369 76.177 7.88808C75.7446 7.5222 75.2416 7.24797 74.6989 7.0822C74.1562 6.91642 73.5852 6.86258 73.0208 6.92399L72.0289 7.08093H71.4766C71.4766 6.93519 71.4766 6.80067 71.4766 6.75583C71.4766 3.81871 69.6392 1.72237 67.1481 2.12594C65.3714 2.47621 63.7978 3.49147 62.7519 4.96217C62.0313 3.98648 61.0679 3.21386 59.9565 2.72009C59.1492 2.3837 58.2527 2.32224 57.4066 2.54527C56.5605 2.76831 55.8123 3.26332 55.2785 3.95323C54.4463 5.16575 53.8857 6.54197 53.6349 7.9887C53.384 9.43543 53.4486 10.9189 53.8244 12.3386C53.0288 12.1169 52.1804 12.1781 51.4253 12.5117C50.6702 12.8452 50.0556 13.4302 49.6876 14.1659C49.2849 14.6997 49.0012 15.3128 48.8554 15.9642C48.7097 16.6156 48.7051 17.2905 48.8422 17.9438C48.9385 18.2757 49.0552 18.6014 49.1916 18.9191C49.2043 19.0522 49.2425 19.1816 49.3043 19.3002C49.789 20.2643 50.2963 21.2284 50.8261 22.1813C50.8923 22.3374 51.0096 22.4666 51.159 22.548C51.3084 22.6294 51.481 22.6582 51.6489 22.6297C51.8654 22.8959 52.1155 23.1333 52.3929 23.336C51.0064 23.4705 49.6087 23.6162 48.2222 23.8068C48.2559 23.7642 48.279 23.7142 48.2898 23.6611V23.1678C48.3237 23.0583 48.3237 22.9411 48.2898 22.8315C48.2656 22.7779 48.2281 22.7312 48.1808 22.6959C48.1334 22.6606 48.0779 22.6378 48.0193 22.6297C47.9625 22.6277 47.906 22.638 47.8536 22.6597C47.8011 22.6815 47.7541 22.7142 47.7155 22.7557C47.677 22.7972 47.6479 22.8465 47.6303 22.9002C47.6127 22.954 47.607 23.0108 47.6135 23.0669V23.5714C47.6187 23.6824 47.6672 23.787 47.7488 23.8629C44.6198 24.2356 41.5605 25.051 38.6635 26.2843C33.5997 28.6984 28.8464 31.7095 24.5057 35.2526C19.6925 39.0417 16.4574 44.546 13.042 49.9606C11.3061 52.7072 9.45745 55.4873 7.96953 58.4469C7.02267 60.3078 6.58306 62.2136 8.09352 63.8167C6.88741 64.1754 5.68129 64.5341 4.46391 64.8704C3.94841 65.0731 3.49516 65.4063 3.14913 65.8369C2.8031 66.2676 2.57631 66.7808 2.49129 67.3255C2.41238 67.7739 2.35603 68.2336 2.27712 68.682C2.22036 68.8827 2.19005 69.09 2.18694 69.2985C1.98404 70.6886 1.79242 72.0787 1.6008 73.4688C1.50857 74.2269 1.60136 74.996 1.87132 75.7109C2.14185 77.5718 3.50578 79.1861 5.25295 78.278C11.6442 75.0495 18.9486 73.8612 25.7006 71.8881C29.6313 70.7164 33.6192 69.7436 37.649 68.9734C40.1176 70.0272 42.8341 69.7245 45.438 69.5115C48.8196 69.2313 52.1111 68.7492 55.4702 68.5474C62.2334 68.1551 69.1545 67.9309 75.9854 68.0542C82.9022 68.0899 89.7965 68.8413 96.557 70.2963C99.8074 71.0314 103.005 71.9826 106.127 73.1437C109.373 74.3432 112.428 76.4395 115.855 76.6525C116.241 76.6754 116.628 76.6062 116.982 76.4507C117.143 76.635 117.325 76.8005 117.523 76.944C118.526 77.6166 119.665 77.4709 120.713 77.9417C122.088 78.5583 123.441 79.3094 124.782 80.0157C126.777 81.0582 128.852 79.6681 128.942 77.0113C129.032 74.3544 129.832 70.6101 128.006 68.6035ZM58.7165 17.8429C58.8293 17.8429 58.818 17.9214 58.7165 17.8429V17.8429ZM60.1932 7.32756C60.1932 7.32756 60.1932 7.22667 60.1932 7.24909C60.1992 7.26131 60.2023 7.27473 60.2023 7.28833C60.2023 7.30192 60.1992 7.31533 60.1932 7.32756ZM95.6327 58.5478L92.5554 57.8191C93.8629 57.9761 95.1705 58.1442 96.4781 58.3348C97.0529 58.4133 97.6053 58.5029 98.1914 58.6038L95.6327 58.5478ZM39.1594 33.6159H39.0242L39.43 33.4477L39.1594 33.6159ZM71.4427 7.65266C72.4121 8.96428 71.5329 7.86566 71.4427 7.65266V7.65266Z" fill="#5887FF"/>
<path d="M127.217 66.5965C126.89 67.8301 126.844 69.1207 127.082 70.3744C127.172 71.6823 127.206 72.9939 127.183 74.3092C127.162 75.4942 127.071 76.677 126.913 77.8517C126.833 78.4515 126.72 79.0466 126.575 79.6342C126.281 80.3438 126.207 81.1243 126.36 81.8762C126.433 82.1023 126.556 82.3089 126.721 82.4807C126.886 82.6525 127.087 82.7849 127.311 82.868C127.534 82.9511 127.774 82.9827 128.012 82.9604C128.249 82.9382 128.478 82.8626 128.682 82.7394C129.9 81.9547 130.069 80.1386 130.249 78.8046C130.439 77.3741 130.51 75.9307 130.463 74.4886C130.463 73.1321 130.317 71.7757 130.159 70.4304C130.001 69.0852 129.911 67.3924 129.032 66.3498C128.907 66.226 128.755 66.1331 128.587 66.0784C128.42 66.0237 128.242 66.0089 128.068 66.035C127.893 66.0612 127.728 66.1276 127.584 66.229C127.44 66.3305 127.322 66.464 127.24 66.6189L127.217 66.5965Z" fill="#38241E"/>
<path d="M2.76184 80.8117C9.63672 77.8924 16.7487 75.5597 24.021 73.8388C32.2456 71.8788 40.6486 70.752 49.1014 70.4757C66.6311 69.7159 84.1858 71.2232 101.325 74.9599C110.057 76.8006 118.603 79.4272 126.856 82.8071C129.269 83.8273 131.286 80.3857 128.863 79.2086C113.555 71.821 96.3428 68.4018 79.4685 67.1238C61.7186 65.8675 43.8795 66.9684 26.422 70.3973C22.0026 71.218 17.6363 72.2998 13.3463 73.637C9.35522 74.9729 5.50146 76.6846 1.83753 78.749C0.710316 79.3543 1.56699 81.3274 2.76184 80.8005V80.8117Z" fill="#242D2C"/>
<path d="M2.76184 67.1565C9.63672 64.2372 16.7487 61.9046 24.021 60.1837C32.2466 58.229 40.649 57.1023 49.1014 56.8206C66.6312 56.0551 84.1866 57.5625 101.325 61.3047C110.06 63.1351 118.606 65.762 126.856 69.152C129.269 70.1609 131.286 66.7193 128.863 65.5422C113.555 58.1658 96.3428 54.7466 79.4685 53.4574C61.7181 52.2104 43.8798 53.315 26.422 56.7421C22.0019 57.5738 17.6356 58.6669 13.3463 60.0155C9.35553 61.3475 5.50176 63.0555 1.83753 65.1162C0.710316 65.7328 1.56699 67.7058 2.76184 67.179V67.1565Z" fill="#242D2C"/>
<path d="M1.60079 65.285C0.777928 66.1482 0.665207 67.7625 0.473581 68.906C0.270683 70.2512 0.112872 71.6189 0.0452391 72.9754C-0.0413411 74.2092 -0.003581 75.4485 0.157959 76.6748C0.338312 78.0313 0.473581 79.9594 1.78115 80.7105C1.99149 80.8151 2.2224 80.8722 2.45747 80.8779C2.69253 80.8836 2.92598 80.8378 3.1412 80.7436C3.35643 80.6494 3.54815 80.5092 3.70272 80.333C3.8573 80.1568 3.97094 79.9489 4.03557 79.724C4.18051 79.0189 4.10173 78.2864 3.81013 77.6277C3.6832 77.1444 3.58533 76.654 3.51705 76.1591C3.37661 75.0023 3.30884 73.8379 3.31415 72.6727C3.31415 71.4844 3.38178 70.2961 3.48323 69.119C3.76103 67.9101 3.71438 66.6498 3.34797 65.4644C3.25777 65.3138 3.13332 65.1863 2.9846 65.0922C2.83589 64.9981 2.66706 64.94 2.49166 64.9226C2.31627 64.9051 2.13921 64.9288 1.9747 64.9918C1.8102 65.0547 1.66282 65.1552 1.54443 65.285H1.60079Z" fill="#242D2C"/>
<path d="M58.0177 54.0518C57.6318 54.2595 57.3002 54.5543 57.0497 54.9125C56.7991 55.2708 56.6365 55.6824 56.5748 56.1145C56.2291 57.214 55.969 58.3383 55.7971 59.4776C55.5647 60.7724 55.4553 62.086 55.4702 63.4012C55.4036 65.2243 55.7583 67.0384 56.5072 68.7037C56.7241 69.0459 57.0577 69.2989 57.447 69.4162C57.8362 69.5336 58.2549 69.5075 58.6264 69.3427C58.9948 69.1717 59.29 68.8759 59.4593 68.5083C59.6287 68.1407 59.661 67.7252 59.5507 67.3361C59.3929 66.6074 59.111 65.9123 58.9645 65.1612C58.8499 64.4793 58.7859 63.7899 58.7729 63.0985C58.739 62.5273 58.739 61.9546 58.7729 61.3834V61.047C58.7729 61.047 58.7729 60.6098 58.7729 60.8116C58.7729 61.0134 58.7729 60.5538 58.7729 60.565C58.7729 60.5762 58.7729 60.3072 58.7729 60.1726C58.8405 59.657 58.9307 59.1413 59.0096 58.6256C59.0885 58.1099 59.0885 57.9305 59.1223 57.583C59.1223 57.583 59.1223 57.157 59.1223 57.3364C59.1223 57.5158 59.1223 57.101 59.1223 57.101C59.1223 56.7198 59.2238 56.3499 59.2801 55.9799C59.3532 55.6892 59.3532 55.3851 59.2801 55.0943C59.2801 54.9486 59.2801 55.4194 59.2801 55.2401C59.2801 55.0607 59.2801 55.1504 59.2801 55.4419C59.3276 55.2507 59.3236 55.0504 59.2685 54.8613C59.2135 54.6721 59.1093 54.5007 58.9664 54.3644C58.8236 54.228 58.6471 54.1314 58.4549 54.0844C58.2626 54.0374 58.0613 54.0416 57.8711 54.0966L58.0177 54.0518Z" fill="#242D2C"/>
<path d="M43.5556 55.4873C42.6651 55.7788 42.3607 56.6756 42.0789 57.4715C41.7264 58.4706 41.4624 59.4984 41.2899 60.5432C41.0705 61.8278 40.9799 63.1308 41.0193 64.4332C41.0109 66.1234 41.3604 67.7964 42.0451 69.3433C42.2645 69.6713 42.5927 69.9122 42.9724 70.0241C43.3522 70.136 43.7594 70.1118 44.123 69.9557C44.4866 69.7995 44.7836 69.5214 44.9621 69.1698C45.1406 68.8182 45.1894 68.4154 45.0998 68.0317C44.9533 67.4039 44.7053 66.7986 44.5701 66.1596C44.439 65.5469 44.3598 64.9245 44.3333 64.2987C44.2939 63.679 44.2939 63.0574 44.3333 62.4377C44.3333 62.2247 44.3333 62.0118 44.3333 61.7988C44.3333 61.3167 44.3333 61.9781 44.3333 61.6979C44.3333 61.4176 44.3333 61.4288 44.3333 61.2943C44.4686 60.3638 44.6151 59.4222 44.7504 58.4917C44.8068 58.0769 44.897 57.6733 44.942 57.2698C45.0041 57.0232 45.0041 56.7652 44.942 56.5187C44.942 56.5187 44.942 56.8438 44.942 56.698C44.942 56.5523 44.942 56.698 44.942 56.8886C44.9905 56.6962 44.9868 56.4945 44.9312 56.3041C44.8757 56.1136 44.7704 55.9412 44.626 55.8044C44.4816 55.6677 44.3033 55.5715 44.1093 55.5256C43.9153 55.4797 43.7126 55.4859 43.5218 55.5434L43.5556 55.4873Z" fill="#242D2C"/>
<path d="M28.2142 57.5724C27.8396 57.7656 27.5202 58.0498 27.2857 58.3987C27.0511 58.7476 26.9091 59.1497 26.8729 59.5678C26.6059 60.6957 26.4288 61.8427 26.3431 62.9982C26.2529 64.1773 26.2529 65.3616 26.3431 66.5407C26.3336 68.1059 26.7213 69.6482 27.4703 71.0248C27.6915 71.3592 28.0254 71.6041 28.4119 71.7156C28.7984 71.827 29.2122 71.7977 29.579 71.6329C29.9457 71.4681 30.2413 71.1786 30.4127 70.8165C30.584 70.4543 30.6198 70.0432 30.5137 69.6572C30.3447 69.063 30.0516 68.5361 29.8938 67.8859C29.8938 67.7402 29.8261 67.5945 29.8036 67.4487C29.7811 67.303 29.7247 67.0452 29.8036 67.2582C29.8036 66.9555 29.736 66.6416 29.7021 66.3277C29.612 65.2877 29.5894 64.2429 29.6345 63.2C29.6345 62.2359 29.7585 61.2718 29.7923 60.3077C29.7923 59.949 29.86 59.5791 29.7923 59.1867C29.7892 58.9855 29.7589 58.7857 29.7021 58.5925C29.5894 58.2226 29.7021 58.8168 29.7021 58.9401C29.8036 58.189 29.1724 57.2473 28.2931 57.606L28.2142 57.5724Z" fill="#242D2C"/>
<path d="M13.7296 61.1596C13.3518 61.3563 13.0311 61.6462 12.7982 62.0014C12.5653 62.3567 12.428 62.7655 12.3995 63.1887C12.1426 64.3319 11.9805 65.4942 11.9148 66.6639C11.8415 67.8137 11.8415 68.9669 11.9148 70.1167C11.9089 71.6387 12.2971 73.1367 13.042 74.4663C13.2632 74.8007 13.5971 75.0456 13.9836 75.1571C14.3701 75.2685 14.784 75.2392 15.1507 75.0744C15.5174 74.9096 15.8131 74.6201 15.9844 74.2579C16.1557 73.8958 16.1916 73.4847 16.0855 73.0987C15.9389 72.5269 15.6571 71.9776 15.5106 71.4283C15.5106 71.2714 15.4317 71.1032 15.3979 70.9463C15.364 70.7893 15.3979 70.7108 15.3979 70.9463C15.3979 70.666 15.3302 70.3745 15.3077 70.0831C15.2232 69.0128 15.2006 67.9385 15.24 66.8657C15.24 65.8904 15.3415 64.9151 15.364 63.9285C15.364 63.5698 15.364 63.1999 15.364 62.8075C15.3737 62.5945 15.3432 62.3815 15.2739 62.1797C15.1611 61.8658 15.2739 61.8883 15.2739 62.5272C15.364 61.7762 14.7441 60.8457 13.8536 61.1932L13.7296 61.1596Z" fill="#242D2C"/>
<path d="M70.7664 55.4982C70.7664 55.2291 70.7664 55.1507 70.7664 55.2516C70.7664 55.3525 70.7664 55.2516 70.7664 55.1507C70.7664 55.0498 70.7664 55.0386 70.7664 55.1507C70.6932 55.4528 70.6932 55.7678 70.7664 56.0699C70.7664 56.3165 70.7664 55.8457 70.7664 56.0699C70.7601 56.1632 70.7601 56.2569 70.7664 56.3502C70.7664 56.5632 70.7664 56.7762 70.8453 56.9892C70.9129 57.5609 70.958 58.1102 71.0482 58.6931V58.8389L71.1158 59.2425C71.1158 59.5115 71.1947 59.7806 71.2286 60.0496C71.3732 61.1082 71.4335 62.1765 71.4089 63.2446C71.3884 63.9401 71.3168 64.6333 71.1947 65.3185C71.0482 66.0584 70.7664 66.7534 70.6086 67.4933C70.5297 67.8808 70.5906 68.2836 70.7806 68.6308C70.9707 68.9781 71.2777 69.2477 71.6477 69.3922C72.0177 69.5367 72.4271 69.5469 72.804 69.4211C73.1809 69.2952 73.5011 69.0414 73.7084 68.704C74.4404 67.0343 74.7833 65.2216 74.7116 63.4015C74.7138 62.0821 74.5969 60.7652 74.3622 59.4667C74.1878 58.3289 73.9316 57.2049 73.5957 56.1036C73.528 55.6748 73.3574 55.2686 73.0984 54.9193C72.8394 54.57 72.4996 54.2879 72.1078 54.0969C71.2624 53.7718 70.5748 54.7807 70.7664 55.5094V55.4982Z" fill="#242D2C"/>
<path d="M86.5023 57.4484C86.5023 57.1793 86.5023 57.1009 86.5023 57.2018C86.5023 57.3027 86.5023 57.2018 86.5023 57.1009C86.5023 57 86.5023 56.9888 86.5023 57.1009C86.4291 57.403 86.4291 57.718 86.5023 58.0201C86.5023 58.2668 86.5023 57.7959 86.5023 58.0201V58.3004C86.5023 58.5134 86.5586 58.7264 86.5924 58.9394C86.6601 59.5111 86.7052 60.0604 86.7953 60.6434V60.7891L86.863 61.1927C86.863 61.4617 86.9419 61.7308 86.9757 61.9998C87.1203 63.0584 87.1806 64.1267 87.156 65.1948C87.1373 65.891 87.062 66.5846 86.9306 67.2687C86.7953 68.0086 86.5135 68.7036 86.3557 69.4435C86.2768 69.831 86.3377 70.2338 86.5278 70.581C86.7178 70.9283 87.0248 71.1979 87.3948 71.3424C87.7649 71.4869 88.1743 71.4972 88.5511 71.3713C88.928 71.2455 89.2482 70.9915 89.4555 70.6542C90.1875 68.9845 90.5305 67.1718 90.4588 65.3517C90.461 64.0323 90.344 62.7154 90.1093 61.4169C89.9349 60.2791 89.6787 59.1552 89.3428 58.0538C89.2751 57.625 89.1045 57.2188 88.8455 56.8695C88.5865 56.5202 88.2467 56.2381 87.8549 56.0471C87.0095 55.722 86.3219 56.7309 86.5135 57.4596L86.5023 57.4484Z" fill="#242D2C"/>
<path d="M102.779 59.9939C102.779 59.9042 102.869 59.6576 102.779 59.8818C102.693 60.0758 102.651 60.2863 102.655 60.4983C102.655 60.8683 102.655 61.2382 102.655 61.6194C102.655 62.6844 102.655 63.7493 102.655 64.8143C102.719 66.5787 102.482 68.341 101.956 70.0271C101.72 70.767 101.325 71.4284 101.077 72.1683C100.57 73.7042 102.914 75.0494 103.929 73.7266C104.909 72.2206 105.508 70.5015 105.676 68.7155C105.862 67.3976 105.93 66.0658 105.879 64.7359C105.832 63.5175 105.701 62.3038 105.484 61.1037C105.479 60.6958 105.38 60.2944 105.197 59.9295C105.013 59.5646 104.749 59.2456 104.425 58.9961C104.251 58.9016 104.056 58.8542 103.858 58.8587C103.66 58.8632 103.467 58.9193 103.298 59.0216C103.129 59.1239 102.99 59.2686 102.895 59.4412C102.8 59.6139 102.752 59.8083 102.757 60.0051L102.779 59.9939Z" fill="#242D2C"/>
<path d="M116.238 63.6369C116.238 63.5472 116.328 63.2894 116.238 63.5136C116.163 63.7111 116.122 63.9193 116.114 64.1302C116.114 64.5001 116.114 64.8813 116.114 65.2512C116.114 66.3162 116.114 67.3812 116.114 68.4462C116.179 70.2069 115.943 71.9658 115.415 73.6478C115.178 74.3877 114.784 75.0603 114.536 75.8002C114.017 77.3248 116.373 78.6812 117.377 77.3472C118.366 75.8494 118.97 74.1323 119.135 72.3474C119.321 71.0294 119.388 69.6976 119.338 68.3677C119.291 67.1457 119.159 65.9283 118.943 64.7243C118.935 64.3185 118.835 63.9196 118.652 63.5569C118.469 63.1942 118.206 62.8768 117.884 62.628C117.71 62.5334 117.515 62.4861 117.317 62.4905C117.119 62.495 116.926 62.5512 116.757 62.6534C116.588 62.7557 116.449 62.9004 116.354 63.073C116.259 63.2457 116.211 63.4402 116.216 63.6369H116.238Z" fill="#242D2C"/>
<path d="M7.39466 64.6011C8.01818 64.0611 8.51462 63.3914 8.84876 62.6393C9.09675 61.9891 9.22074 61.2828 9.41237 60.6102C9.83681 59.2223 10.3411 57.8599 10.9228 56.5296C12.0133 53.998 13.2788 51.5445 14.7103 49.1868C17.2482 45.0126 20.3934 41.2348 24.0436 37.9764C29.4429 33.1903 35.6985 29.456 42.4847 26.9679C50.7397 24.025 59.5119 22.7891 68.264 23.3357C75.725 23.6405 83.0921 25.1043 90.0981 27.6741C93.8647 29.1037 97.3542 31.1707 100.412 33.7838C104.979 37.607 109.059 41.9702 112.563 46.7766C116.696 52.1586 119.669 58.3291 121.299 64.9038C121.829 67.2467 125.436 66.1593 124.895 63.7827C122.19 51.9782 114.435 41.5974 105.451 33.6829C102.394 30.8096 98.9858 28.3313 95.3058 26.3064C88.9145 23.0891 81.3735 21.4411 74.3059 20.6228C56.8341 18.6049 38.4155 22.338 24.3028 33.1336C19.7401 36.6 15.7571 40.7618 12.5009 45.465C10.6687 48.1031 9.12684 50.9294 7.90191 53.8952C7.22559 55.5319 6.63944 57.191 6.0871 58.8726C5.83912 59.6573 5.53477 60.4533 5.34315 61.2604C5.13879 62.2083 5.22115 63.1952 5.57986 64.0966C5.64284 64.2724 5.74895 64.4298 5.88857 64.5544C6.02818 64.6791 6.19688 64.7671 6.37936 64.8106C6.56185 64.854 6.75234 64.8514 6.93358 64.8031C7.11481 64.7548 7.28105 64.6622 7.41721 64.5338L7.39466 64.6011Z" fill="#242D2C"/>
<path d="M51.6376 22.607C50.849 21.6644 50.268 20.5677 49.9321 19.3879C49.5962 18.2081 49.5129 16.9713 49.6876 15.7574C49.7706 14.8779 50.1294 14.0465 50.7133 13.3808C51.8405 12.2598 53.0579 12.5512 54.095 13.605C54.9404 14.4682 56.1127 13.3248 55.6392 12.3607C55.0128 11.1622 54.7387 9.8124 54.8483 8.46607C54.958 7.11974 55.447 5.83141 56.2592 4.74884C56.5238 4.39583 56.8789 4.12008 57.2874 3.95046C57.696 3.78085 58.1429 3.72361 58.5813 3.78474C60.2495 4.00895 61.0498 6.02681 61.7374 7.37206C62.301 8.4931 63.8002 7.97742 64.1271 6.99091C64.6344 5.49993 65.4911 2.92154 67.3848 2.69734C69.5716 2.45071 69.8421 5.75777 69.5152 7.18149C69.4587 7.42101 69.4743 7.67174 69.5599 7.90256C69.6455 8.13337 69.7974 8.33409 69.9967 8.47978C70.196 8.62547 70.434 8.70971 70.6811 8.72205C70.9281 8.73438 71.1734 8.67426 71.3864 8.54915C71.8627 8.25504 72.4052 8.08335 72.9649 8.04954C73.5245 8.01573 74.0839 8.12085 74.5926 8.35545C75.1012 8.59005 75.5433 8.94676 75.8789 9.39348C76.2145 9.8402 76.4332 10.3629 76.5152 10.9145C76.7219 11.7188 76.6046 12.5716 76.1883 13.2911C75.9628 13.6723 75.7036 14.0422 75.4556 14.4122L75.1963 14.7709C74.9932 14.995 74.8511 15.267 74.7833 15.561C74.7155 15.8551 74.7244 16.1615 74.809 16.4512C74.8937 16.7409 75.0514 17.0043 75.2671 17.2164C75.4829 17.4285 75.7495 17.5823 76.0417 17.6632C76.6111 17.7779 77.1331 18.0589 77.5409 18.4703C78.4878 19.3559 77.5973 20.4097 76.9322 21.329C75.7261 23.0105 78.3525 24.6248 79.7164 23.3581C81.6665 21.5532 82.309 18.8066 80.4604 16.6318C79.5903 15.664 78.5166 14.8985 77.3155 14.3898L77.7326 17.1251C78.7898 16.2441 79.6271 15.1313 80.1786 13.8741C80.4682 13.002 80.5815 12.0815 80.5118 11.1657C80.4422 10.2499 80.191 9.35679 79.7728 8.53794C79.4278 7.72392 78.9016 6.99834 78.2339 6.41581C77.5661 5.83328 76.7742 5.40897 75.9177 5.17483C73.9789 4.74883 71.7922 5.55598 70.0675 6.36312L71.9387 7.71958C73.0659 4.70399 71.6907 0.432836 68.0611 0.0292624C64.4315 -0.374311 62.425 3.48206 61.5796 6.31828L63.9693 5.94835C62.8421 4.04258 61.7149 1.87898 59.3703 1.38573C58.6037 1.21217 57.8054 1.23311 57.0491 1.44664C56.2927 1.66016 55.6025 2.05941 55.0418 2.60765C52.5507 5.32056 52.2914 10.1971 53.9146 13.3584L55.4589 12.1253C54.095 10.78 52.562 10.1859 50.7584 11.0042C50.1182 11.3112 49.5527 11.7529 49.1012 12.2988C48.6496 12.8446 48.3228 13.4816 48.1433 14.1655C47.6842 15.8045 47.6875 17.5374 48.1527 19.1747C48.618 20.8119 49.5273 22.2902 50.781 23.4477C50.9028 23.5446 51.0569 23.5922 51.2124 23.5811C51.368 23.57 51.5137 23.501 51.6203 23.3878C51.727 23.2746 51.7869 23.1257 51.788 22.9705C51.7891 22.8154 51.7314 22.6656 51.6264 22.5509L51.6376 22.607Z" fill="#242D2C"/>
<path d="M53.7794 12.4953C53.7794 12.4953 53.8695 12.5962 53.7794 12.4953C53.7969 12.5381 53.8229 12.5771 53.8558 12.6098C53.8887 12.6425 53.9279 12.6684 53.971 12.6859L54.2077 12.7755H54.3091H54.4106C54.9141 13.2177 55.3011 13.7758 55.5378 14.401C55.5428 14.4682 55.5428 14.5357 55.5378 14.6028C55.5378 14.6028 55.5378 14.6813 55.5378 14.7149C55.5378 14.7486 55.5378 14.5916 55.5378 14.7149C55.5439 14.7671 55.5439 14.8197 55.5378 14.8719V14.9616C55.5378 15.0849 55.5378 14.9616 55.5378 14.9616C55.5326 15.01 55.5326 15.0589 55.5378 15.1073C55.5378 15.2418 55.5942 15.0176 55.5378 15.1073C55.4814 15.197 55.6054 15.1073 55.5378 15.1073C55.4702 15.1073 55.628 15.1073 55.5378 15.1073C55.5378 15.1073 55.6956 15.1073 55.628 15.1073H55.5604C55.5604 15.1073 55.6956 15.1858 55.6167 15.1073C55.5907 15.1015 55.5638 15.1015 55.5378 15.1073C55.5378 15.1073 55.6618 15.2082 55.5378 15.1073C55.4138 15.0064 55.5378 15.1073 55.5378 15.1073C55.5378 15.1073 55.4589 15.0064 55.4138 14.984C55.3687 14.9616 55.4815 15.0737 55.4138 14.984L55.3575 14.9055V14.8158C55.3575 14.7037 55.3575 14.9391 55.3575 14.8158C55.3262 14.7429 55.2998 14.668 55.2786 14.5916C55.2732 14.5507 55.2732 14.5092 55.2786 14.4683C55.2786 14.4683 55.2786 14.4123 55.2786 14.3898C55.2786 14.3674 55.2786 14.4683 55.2786 14.3898C55.2786 14.1656 55.2786 13.9414 55.2786 13.7172C55.2786 13.493 55.2786 13.2688 55.2786 13.0446C55.292 12.7694 55.2655 12.4938 55.1996 12.2262C55.1547 12.0922 55.0684 11.9757 54.9531 11.8932C54.8377 11.8107 54.6992 11.7664 54.5571 11.7666C54.4167 11.7756 54.2826 11.828 54.1735 11.9164C54.0643 12.0048 53.9857 12.1249 53.9484 12.2599C53.909 12.5312 53.909 12.8068 53.9484 13.0782C53.9484 13.3248 53.9484 13.5715 53.9484 13.8181C53.9435 14.2726 54.0198 14.7243 54.1739 15.1521C54.4444 15.8248 55.1095 16.5086 55.9098 16.2732C56.225 16.1389 56.4772 15.8905 56.6153 15.5784C56.7535 15.2662 56.7672 14.9135 56.6538 14.5916C56.3953 13.7465 55.8841 12.9996 55.1884 12.4504C54.9622 12.2303 54.6826 12.0719 54.3768 11.9908H54.0273C53.9484 11.9908 54.095 11.9908 54.0273 11.9908H53.9034H53.7906H53.7005C53.6748 12.0004 53.6515 12.0152 53.6322 12.0345C53.6128 12.0537 53.5978 12.0769 53.5882 12.1024C53.5786 12.1279 53.5746 12.1551 53.5764 12.1823C53.5783 12.2095 53.586 12.2359 53.599 12.2599L53.7794 12.4953Z" fill="#242D2C"/>
<path d="M61.5797 5.47767C61.9742 6.39692 62.3236 7.32738 62.7069 8.24663C62.9129 8.70971 63.0642 9.195 63.1577 9.69277C63.1577 9.84971 63.1577 9.60309 63.1577 9.74882V10.0515C63.1577 9.96182 63.1577 10.0515 63.1577 10.0515C63.1279 10.2428 63.0588 10.426 62.9548 10.5896C62.9194 10.6361 62.8777 10.6776 62.8309 10.7129C62.8309 10.7129 62.6731 10.8811 62.7407 10.7914C62.8083 10.7017 62.7407 10.7914 62.7407 10.7914C62.921 10.7914 62.8196 10.7914 62.7407 10.7914C62.921 10.7914 62.8534 10.7914 62.7407 10.7914C62.628 10.7914 62.8421 10.8811 62.7407 10.7914C62.6392 10.7017 62.8309 10.9147 62.7407 10.7914C62.6505 10.6681 62.7407 10.7914 62.673 10.7914C62.6497 10.7625 62.6232 10.7362 62.5941 10.7129C62.5941 10.7129 62.7069 10.8699 62.5941 10.7129L62.4814 10.556C62.4875 10.5264 62.4875 10.4959 62.4814 10.4663C62.4814 10.3878 62.5491 10.6569 62.4814 10.5223L62.4138 10.3205V10.1524C62.4138 10.0067 62.4138 10.2645 62.4138 10.1524C62.4078 10.0553 62.4078 9.95799 62.4138 9.86092C62.4138 9.86092 62.4138 9.76003 62.4138 9.70398C62.4138 9.64793 62.4138 9.70398 62.4138 9.70398C62.4451 9.50571 62.4941 9.31061 62.5603 9.12104C62.5603 9.12104 62.5603 8.98651 62.5603 9.12104C62.5603 9.25556 62.5603 9.05378 62.5603 9.03136C62.5603 9.00894 62.6618 8.80715 62.7181 8.69505C62.9436 8.24663 63.2028 7.82064 63.4283 7.38343C63.6537 6.94623 64.1948 6.10545 64.0257 5.47767C63.9877 5.35772 63.9228 5.24794 63.8358 5.15663C63.7489 5.06531 63.6422 4.99485 63.5238 4.95057C63.4055 4.9063 63.2785 4.88936 63.1526 4.90105C63.0267 4.91274 62.9051 4.95275 62.797 5.01805C62.5618 5.17448 62.3901 5.40886 62.3123 5.67945C62.3075 5.7354 62.3075 5.79166 62.3123 5.84761C62.3123 5.74672 62.3123 5.84761 62.3123 5.84761C62.1883 6.12787 62.0531 6.39692 61.9178 6.66597C61.6811 7.13681 61.4218 7.58522 61.2077 8.06727C60.9498 8.55076 60.7939 9.08147 60.7493 9.62696C60.7047 10.1724 60.7725 10.7212 60.9484 11.2398C61.1331 11.7198 61.4852 12.1176 61.9404 12.3608C62.2314 12.5014 62.5585 12.551 62.8785 12.5029C63.1984 12.4549 63.4962 12.3115 63.7326 12.0918C64.2051 11.6823 64.5133 11.1171 64.6006 10.4999C64.7212 9.87036 64.6706 9.22018 64.454 8.61657C64.193 7.96055 63.8643 7.33316 63.4734 6.74444C63.1315 6.13747 62.6807 5.59794 62.1433 5.15257C61.9291 4.99563 61.5007 5.15257 61.636 5.45525L61.5797 5.47767Z" fill="#242D2C"/>
<path d="M70.3155 6.00409C70.1857 6.6688 69.9776 7.31599 69.6956 7.93228C69.544 8.25456 69.3628 8.56228 69.1545 8.85153C69.1579 8.88132 69.1579 8.91142 69.1545 8.94121C69.2221 8.85153 69.1545 8.94121 69.1545 8.94121L69.008 9.12058L68.8502 9.29995L68.7487 9.38963C68.6585 9.47931 68.7487 9.38963 68.7487 9.38963C68.7226 9.3845 68.6958 9.3845 68.6698 9.38963C68.8276 9.27753 68.6698 9.38963 68.6698 9.38963C68.6698 9.38963 68.8614 9.38963 68.6698 9.38963C68.6698 9.38963 68.76 9.38963 68.7825 9.38963C68.7825 9.38963 68.8614 9.38963 68.7825 9.38963C68.9065 9.50173 68.8614 9.47931 68.7825 9.38963C68.7036 9.29995 68.7825 9.52416 68.7825 9.38963C68.7825 9.25511 68.7825 9.50173 68.7825 9.38963C68.7881 9.35247 68.7881 9.31468 68.7825 9.27752C68.7825 9.16542 68.7825 9.27752 68.7825 9.27752C68.7825 9.27752 68.7825 9.12058 68.7825 9.08695C68.7825 9.05331 68.7825 9.16542 68.7825 9.15421C68.8007 9.11087 68.8233 9.06954 68.8502 9.0309C68.8502 9.0309 68.9403 8.89637 68.8502 9.0309C68.76 9.16542 68.8502 9.0309 68.8502 9.0309L69.0305 8.85153C68.9178 8.95242 69.0305 8.85153 69.1094 8.85153L69.3123 8.717C69.6617 8.52642 70.0112 8.33585 70.3606 8.16769C70.71 7.99954 71.1722 7.78654 71.578 7.59596L71.7696 7.51749L72.0627 7.38297C72.2349 7.33762 72.3958 7.25748 72.5354 7.14754C72.675 7.0376 72.7904 6.90022 72.8743 6.74398C72.9236 6.6506 72.9512 6.54742 72.9551 6.44204C72.9591 6.33665 72.9392 6.23172 72.8971 6.13496C72.8549 6.03819 72.7915 5.95205 72.7115 5.88284C72.6315 5.81364 72.5369 5.76314 72.4347 5.73504C72.258 5.69346 72.0745 5.68893 71.896 5.72174C71.7174 5.75455 71.5477 5.82399 71.3976 5.92562L70.71 6.26193L69.425 6.93455C68.6473 7.33813 67.7004 7.70807 67.3397 8.57127C67.138 9.00719 67.1019 9.50104 67.2382 9.96135C67.3226 10.2416 67.4952 10.4876 67.7305 10.6632C67.9659 10.8387 68.2516 10.9346 68.5458 10.9367C69.5716 10.9367 70.2028 9.81562 70.5861 9.00847C71.0327 8.08518 71.2638 7.0735 71.2624 6.04893C71.2643 5.92653 71.2204 5.80779 71.1393 5.71577C71.0581 5.62376 70.9454 5.56506 70.8231 5.55108C70.7008 5.5371 70.5777 5.56884 70.4776 5.64013C70.3776 5.71143 70.3077 5.81718 70.2817 5.93683L70.3155 6.00409Z" fill="#242D2C"/>
<path d="M77.2253 13.7843C76.9207 13.884 76.6457 14.0573 76.425 14.2887L75.7599 14.8941C75.3429 15.2753 74.9258 15.6564 74.5313 16.0151C74.3284 16.2169 74.1368 16.4187 73.9226 16.6093C73.7731 16.7542 73.6109 16.8855 73.4379 17.0017C73.2913 17.0914 73.4379 17.0017 73.3252 17.0017H73.1674C73.2575 17.0017 73.2575 17.0017 73.1674 17.0017C73.2688 17.0017 73.2575 17.0017 73.1674 17.0017C73.2208 17.0099 73.2691 17.0379 73.3026 17.0801L73.1786 16.9792C73.2463 17.0577 73.2463 17.0465 73.1786 16.9792C73.1786 17.0689 73.1786 17.0689 73.1786 16.9792C73.1949 17.0265 73.1949 17.0778 73.1786 17.125C73.1874 17.1542 73.1874 17.1854 73.1786 17.2147C73.2171 17.1708 73.2585 17.1296 73.3026 17.0913C73.1899 17.181 73.4266 17.0241 73.4492 17.0129C73.4717 17.0017 73.4492 17.0129 73.4492 17.0129H73.6182C73.6182 17.0129 73.9677 16.9456 73.7986 17.0129H74.148C74.148 17.0129 74.5087 17.0129 74.3509 17.0129H74.7004C75.1963 17.1138 75.6923 17.2483 76.177 17.3716C76.7919 17.5668 77.4273 17.6909 78.0707 17.7415C78.2595 17.7324 78.4403 17.663 78.5864 17.5437C78.7324 17.4243 78.8359 17.2613 78.8814 17.0789C78.9269 16.8964 78.9122 16.7042 78.8392 16.5308C78.7663 16.3574 78.6391 16.2119 78.4765 16.116C77.9169 15.8826 77.3299 15.7206 76.7293 15.634C76.2221 15.5219 75.7036 15.3874 75.1738 15.2977C74.6716 15.1649 74.1469 15.1392 73.634 15.2223C73.1212 15.3053 72.6318 15.4953 72.198 15.7797C71.9187 15.9734 71.7033 16.2449 71.5789 16.5601C71.4545 16.8753 71.4268 17.2201 71.4991 17.551C71.5738 17.8443 71.7229 18.1138 71.932 18.3336C72.1412 18.5534 72.4035 18.7162 72.6939 18.8065C73.8211 19.1765 74.8243 18.2348 75.5119 17.4613C75.9403 16.9905 76.3574 16.5084 76.7631 16.0151L77.3718 15.2753C77.6155 15.0166 77.7967 14.706 77.9016 14.3672C77.9196 14.2834 77.9157 14.1965 77.8905 14.1146C77.8653 14.0326 77.8195 13.9585 77.7575 13.899C77.6954 13.8396 77.6192 13.7968 77.536 13.7748C77.4527 13.7528 77.3652 13.7522 77.2817 13.7731L77.2253 13.7843Z" fill="#242D2C"/>
</svg>
