<svg width="32" height="110" viewBox="0 0 32 110" fill="none" xmlns="http://www.w3.org/2000/svg">
<path d="M30.7672 93.6922C30.7021 93.2465 30.6118 92.8049 30.4967 92.3694C30.5608 92.2524 30.5944 92.1214 30.5944 91.9882C30.5944 91.855 30.5608 91.724 30.4967 91.6071C30.4065 91.4277 30.2825 91.2707 30.1811 91.1026C30.3858 91.007 30.5481 90.8402 30.6375 90.6336C30.7268 90.427 30.7369 90.195 30.6658 89.9815C30.21 89.0669 29.6583 88.2026 29.0201 87.4032C28.4644 86.5697 27.8465 85.779 27.1714 85.0378C25.9369 83.6584 24.3344 82.6556 22.5499 82.1455C22.4379 82.1086 22.3176 82.1048 22.2035 82.1347C22.0895 82.1645 21.9866 82.2267 21.9074 82.3136C20.4833 81.6055 18.9117 81.2407 17.3196 81.2486C16.7065 81.2019 16.0943 81.3511 15.5725 81.6746C14.984 81.6127 14.3894 81.6994 13.8436 81.9267C13.2978 82.154 12.8185 82.5146 12.4501 82.9751L12.3937 83.0535C11.2802 83.4586 10.2655 84.0936 9.41652 84.9167C8.5675 85.7398 7.90337 86.7324 7.46783 87.8291C6.99664 88.9187 6.70729 90.0774 6.61115 91.2595C6.18281 91.5286 6.13772 92.19 6.18281 92.7169C6.25044 93.6922 6.39698 94.6563 6.55479 95.6204C6.55479 95.923 6.65624 96.2145 6.7126 96.506C6.71933 99.1082 7.46993 101.655 8.87684 103.849C9.48643 104.88 10.3003 105.778 11.2691 106.487C12.2379 107.196 13.3415 107.702 14.5129 107.974C14.6274 107.987 14.7432 107.974 14.8522 107.937C14.9613 107.9 15.0609 107.84 15.1441 107.761C15.4397 107.8 15.7391 107.8 16.0346 107.761C17.4541 107.959 18.8848 108.068 20.318 108.086C21.6566 108.175 22.9948 107.908 24.1956 107.313C26.4977 106.021 28.2753 103.971 29.223 101.517C30.4592 99.1023 30.994 96.3925 30.7672 93.6922ZM23.4967 88.8381C24.6948 90.0174 25.5888 91.4668 26.103 93.0633C26.6172 94.6598 26.7362 96.3561 26.45 98.0082C26.1613 98.7161 25.9092 99.4382 25.6948 100.172C25.6384 100.374 25.5595 100.564 25.4919 100.766C25.2109 101.039 24.8824 101.259 24.5225 101.416H24.4549C23.5945 101.382 22.7506 101.657 22.0765 102.19L21.9525 102.268C20.9309 102.486 19.8827 102.554 18.8414 102.47C18.0327 101.866 17.3284 101.135 16.756 100.306C16.8518 100.207 16.9182 100.083 16.948 99.9487C16.9778 99.8143 16.9699 99.6743 16.9251 99.544C16.7724 99.1506 16.5153 98.8058 16.1812 98.5463C15.9106 98.3109 15.6401 98.0867 15.3808 97.84L15.1441 97.6046C15.2944 97.4986 15.4085 97.3494 15.4709 97.1771C15.5334 97.0047 15.5413 96.8175 15.4936 96.6405C15.2767 95.9562 15.2151 95.2326 15.3132 94.5217C15.5098 93.8576 15.7982 93.2238 16.1699 92.6384C16.8118 91.3735 17.6067 90.1914 18.537 89.1184C18.8253 88.8598 19.1 88.5867 19.3599 88.3C19.7023 88.4902 20.0335 88.6998 20.3518 88.9278C20.8148 89.2542 21.372 89.422 21.9394 89.4059C22.5067 89.3897 23.0533 89.1904 23.4967 88.8381Z" fill="#FCD13A"/>
<path d="M25.2551 91.0576C24.5635 89.8572 23.5165 88.8982 22.2568 88.3111C22.1224 88.282 21.9824 88.2923 21.8538 88.3408C21.7252 88.3893 21.6136 88.4739 21.5324 88.5843C21.4512 88.6947 21.404 88.8262 21.3966 88.9628C21.3891 89.0993 21.4216 89.2351 21.4903 89.3537C22.1553 90.1944 23.0233 90.8222 23.632 91.7303C24.2629 92.6094 24.6515 93.6374 24.7592 94.7122C24.8448 95.77 24.5966 96.8281 24.049 97.739C23.7153 98.2346 23.3381 98.6998 22.9218 99.1291C22.6077 99.5434 22.2268 99.9033 21.7946 100.194C21.1521 100.586 21.4114 101.764 22.2342 101.674C23.6883 101.517 24.6126 100.239 25.3791 99.1179C26.1962 97.8929 26.5917 96.4375 26.5063 94.9701C26.4458 93.5786 26.0139 92.2282 25.2551 91.0576Z" fill="#FFD447"/>
<path d="M22.8091 92.5042C22.8196 92.4411 22.8196 92.3767 22.8091 92.3136C22.5824 91.4557 22.0894 90.6907 21.4001 90.1276C21.0127 89.8375 20.5365 89.6892 20.0519 89.7076C19.5673 89.726 19.104 89.9099 18.7399 90.2285C18.0731 90.8602 17.547 91.624 17.1956 92.4706C16.7615 93.3503 16.4686 94.2921 16.3277 95.262C16.1805 96.1646 16.2323 97.0882 16.4795 97.9689C16.7267 98.8496 17.1633 99.6664 17.7592 100.363C17.9075 100.564 18.0962 100.733 18.3135 100.859C18.5308 100.984 18.772 101.063 19.0217 101.091C19.4941 101.072 19.9529 100.929 20.3518 100.677C20.9497 100.326 21.4649 99.8523 21.8623 99.2865C21.9513 99.3258 22.0468 99.3486 22.1441 99.3538C22.3934 99.3493 22.6372 99.2796 22.8509 99.1517C23.0647 99.0238 23.2407 98.8422 23.3614 98.6251C23.4661 98.4536 23.5157 98.2544 23.5037 98.0541C23.4916 97.8538 23.4184 97.6619 23.2938 97.5041C23.4253 96.7287 23.5119 95.9464 23.5531 95.1611C23.6325 94.6911 23.607 94.2094 23.4784 93.7503C23.3498 93.2912 23.1213 92.8658 22.8091 92.5042Z" fill="#FFF148"/>
<path d="M23.1585 97.3913C23.3032 97.0923 23.4202 96.7809 23.508 96.4608C23.5756 96.1581 23.632 95.8442 23.6771 95.5416C23.7217 95.4145 23.7217 95.2762 23.6771 95.1492C23.6376 95.085 23.5832 95.0311 23.5185 94.9921C23.4538 94.9531 23.3806 94.9301 23.3051 94.925C23.2339 94.9171 23.1618 94.9243 23.0936 94.946C23.0254 94.9678 22.9626 95.0037 22.9094 95.0514C22.8561 95.099 22.8137 95.1574 22.7847 95.2225C22.7558 95.2877 22.741 95.3582 22.7415 95.4294C22.764 95.728 22.764 96.0278 22.7415 96.3263C22.7415 96.2142 22.7415 96.3263 22.7415 96.3263V96.4384V96.7523C22.7471 96.8194 22.7471 96.8869 22.7415 96.9541V97.1222C22.7202 97.1951 22.7283 97.2733 22.7641 97.3402C22.7999 97.4072 22.8605 97.4577 22.9331 97.481C23.0041 97.5101 23.0833 97.5125 23.1559 97.4877C23.2285 97.463 23.2896 97.4127 23.3276 97.3464L23.1585 97.3913Z" fill="#FFF148"/>
<path d="M9.27133 83.3897C7.20049 84.6966 5.56943 86.5889 4.58733 88.824C3.60524 91.059 3.31689 93.5349 3.75928 95.9341C4.26756 98.8361 5.26205 101.633 6.7013 104.207C7.32912 105.407 8.20495 106.462 9.27133 107.301C10.1731 107.974 11.4018 108.736 12.4839 108.109C12.6663 107.993 12.7965 107.812 12.847 107.602C12.8974 107.393 12.8643 107.173 12.7544 106.988C12.1795 106.147 11.0974 106.046 10.3196 105.396C9.49373 104.638 8.82376 103.728 8.34703 102.716C7.13893 100.444 6.29824 97.996 5.85589 95.4633C5.63488 93.4053 5.89192 91.3243 6.6072 89.3807C7.32247 87.4371 8.47688 85.6828 9.98148 84.2529C10.4324 83.8045 9.82367 83.0758 9.27133 83.3897Z" fill="#E24B4B"/>
<path d="M11.3116 106.046C9.85754 106.237 9.12484 105.25 8.11035 104.353C7.06184 103.554 6.21638 102.521 5.64177 101.338C4.55334 98.9743 3.96259 96.4144 3.90585 93.8156C3.90585 93.4905 3.90585 93.1093 3.90585 92.6945C3.97545 92.7408 4.05946 92.7607 4.14257 92.7506C4.21067 92.7491 4.27781 92.7343 4.34016 92.707C4.40252 92.6798 4.45885 92.6405 4.50595 92.5916C4.55306 92.5427 4.59001 92.485 4.61469 92.4219C4.63938 92.3588 4.65131 92.2914 4.64981 92.2237C4.62332 91.7178 4.64975 91.2107 4.72871 90.7103C4.72871 90.4524 4.83016 90.1946 4.88652 89.948C4.92106 89.8188 4.96245 89.6916 5.01051 89.5668C5.01533 89.5109 5.01533 89.4546 5.01051 89.3987V89.309C5.07846 89.1687 5.09538 89.0093 5.05838 88.8581C5.02138 88.7068 4.93276 88.573 4.80762 88.4794C5.24724 87.8292 5.72066 87.2014 6.13772 86.5736C6.8167 85.5626 7.744 84.7407 8.83176 84.1858C9.85807 83.7565 10.8428 83.235 11.7738 82.6276C11.8778 82.5209 11.9359 82.3782 11.9359 82.2296C11.9359 82.0811 11.8778 81.9383 11.7738 81.8317C10.7367 80.89 9.13611 81.6411 8.04272 82.1456C6.64057 82.7572 5.42691 83.7282 4.52582 84.9593C4.34447 85.0779 4.17465 85.213 4.01858 85.3629C3.74572 85.6397 3.49332 85.9357 3.26335 86.2486C2.74397 86.9405 2.31238 87.6936 1.97833 88.4906C1.89197 88.688 1.86457 88.906 1.89941 89.1184V89.1857C1.68795 89.7273 1.56245 90.2984 1.52743 90.8784C1.16681 91.6557 0.949204 92.491 0.884931 93.3447C0.815965 94.7363 0.975876 96.1298 1.35836 97.4701C1.75035 98.8417 2.25167 100.18 2.85755 101.472C3.15063 102.122 3.45497 102.784 3.77059 103.423C3.98833 104.031 4.41558 104.544 4.9767 104.869L5.20215 104.925C6.03543 105.768 6.92819 106.551 7.87364 107.268C9.00085 108.142 10.6015 109.006 11.8978 108.019C12.6079 107.425 12.4501 105.9 11.3116 106.046Z" fill="#FCD13A"/>
<path d="M12.0105 106.673C11.0943 106.026 10.2581 105.273 9.51934 104.431C8.80538 103.507 8.23189 102.483 7.81726 101.393C6.94599 99.1241 6.43637 96.7336 6.30681 94.3082C6.25821 92.1519 6.55888 90.0019 7.19729 87.9407C7.27948 87.5127 7.46088 87.1097 7.72708 86.7636C8.27413 86.2819 8.76903 85.7446 9.20373 85.1605C9.2531 85.0732 9.27904 84.9748 9.27904 84.8746C9.27904 84.7745 9.2531 84.676 9.20373 84.5888C10.0984 83.8011 11.0688 83.1027 12.1007 82.5036C12.4726 82.2906 12.1908 81.7974 11.8189 81.8646C6.48716 82.9857 4.09747 87.8286 3.65786 92.7611C3.12807 98.5345 4.63853 105.249 10.1393 108.187C10.262 108.253 10.3996 108.288 10.5395 108.288C10.6793 108.288 10.8169 108.253 10.9396 108.187C11.8189 108.568 12.9123 107.413 12.0105 106.673Z" fill="#FF9D00"/>
<path d="M7.19729 102.47C7.82172 103.844 8.73564 105.068 9.8772 106.06C11.0188 107.052 12.3613 107.789 13.814 108.221C15.5739 108.766 17.4263 108.953 19.2605 108.77C21.0946 108.587 22.8728 108.038 24.4887 107.156C26.9094 105.567 28.8561 103.36 30.1247 100.766C30.6421 99.6877 31.0499 98.561 31.3421 97.4025C31.7539 96.1489 31.8085 94.8063 31.4999 93.5237C31.4574 93.3997 31.3769 93.2921 31.2698 93.2158C31.1627 93.1396 31.0343 93.0986 30.9025 93.0986C30.7708 93.0986 30.6424 93.1396 30.5353 93.2158C30.4281 93.2921 30.3476 93.3997 30.3051 93.5237C30.1135 94.6447 30.1022 95.5191 29.8317 96.629C29.5783 97.7076 29.2 98.7534 28.7045 99.7455C28.1728 100.775 27.5098 101.732 26.7319 102.593C25.9061 103.444 24.983 104.197 23.9815 104.835C19.0668 108.366 11.6385 106.83 8.20051 102.01C7.82853 101.494 6.83658 101.842 7.0733 102.503L7.19729 102.47Z" fill="#FF9D00"/>
<path d="M15.7754 83.1653C15.3079 83.2111 14.849 83.3204 14.4114 83.4904C13.962 83.6692 13.5346 83.8987 13.1377 84.1743C12.7303 84.4571 12.3527 84.7801 12.0105 85.1383C11.8624 85.291 11.7232 85.452 11.5934 85.6204C11.3575 85.8452 11.2131 86.1484 11.1876 86.4724C11.1906 86.569 11.2192 86.6631 11.2705 86.7452C11.3218 86.8273 11.394 86.8945 11.4798 86.94C11.5655 86.9855 11.6619 87.0077 11.759 87.0043C11.8561 87.0009 11.9507 86.9721 12.033 86.9208C12.2414 86.7655 12.4079 86.5614 12.5177 86.3266C12.566 86.2357 12.6226 86.1494 12.6868 86.0688L12.8221 85.9006C13.0821 85.594 13.3815 85.3227 13.7126 85.0935C14.0477 84.8457 14.402 84.6245 14.7721 84.4321C15.1334 84.2367 15.5104 84.0717 15.8994 83.9388C15.9906 83.9106 16.0688 83.8513 16.1204 83.7713C16.1719 83.6913 16.1934 83.5958 16.1812 83.5016C16.1673 83.4056 16.1182 83.3181 16.0432 83.256C15.9683 83.1938 15.8728 83.1616 15.7754 83.1653Z" fill="white"/>
<path d="M10.1281 87.728C9.96963 87.7884 9.83246 87.8936 9.73353 88.0307C9.6659 88.1092 9.58699 88.1877 9.51936 88.2773C9.36038 88.4745 9.22426 88.6888 9.11356 88.9163C9.05769 89.0567 9.05769 89.2131 9.11356 89.3535C9.13562 89.4378 9.17793 89.5155 9.23683 89.5799C9.29573 89.6444 9.36947 89.6936 9.45173 89.7235C9.52828 89.7549 9.61075 89.7695 9.6935 89.7663C9.77626 89.7631 9.85735 89.7422 9.93121 89.7049C10.0051 89.6677 10.07 89.615 10.1215 89.5504C10.1729 89.4859 10.2098 89.4111 10.2295 89.3311C10.274 89.1666 10.3305 89.0054 10.3986 88.8491V88.9724C10.3986 88.8603 10.5 88.737 10.5564 88.6249L10.6466 88.4791C10.6466 88.4791 10.6466 88.4231 10.6466 88.3894C10.7011 88.3104 10.7288 88.2161 10.7255 88.1204C10.7238 88.0558 10.7065 87.9926 10.6751 87.936C10.6437 87.8794 10.5992 87.8312 10.5451 87.7953C10.4931 87.7595 10.4341 87.7351 10.372 87.7235C10.3098 87.7119 10.2459 87.7135 10.1844 87.728H10.1281Z" fill="white"/>
<path d="M26.7093 91.6742C26.4195 90.9491 25.9876 90.2887 25.4388 89.7311C24.89 89.1736 24.2352 88.7302 23.5125 88.4266C22.7898 88.1231 22.0136 87.9654 21.2291 87.9629C20.4446 87.9604 19.6675 88.113 18.9428 88.4119C12.5515 91.3939 14.1296 104.106 22.1328 102.739C23.1277 102.572 24.0594 102.143 24.8307 101.496C25.602 100.85 26.1846 100.009 26.5177 99.0618C27.0875 98.0338 27.3678 96.8719 27.3292 95.6987C27.3781 94.3304 27.1678 92.9652 26.7093 91.6742ZM16.9815 98.2322C15.967 95.6314 16.4179 92.1338 18.7174 90.3177C19.1778 89.9582 19.7131 89.7055 20.2842 89.5778C21.2851 90.0272 22.0868 90.8244 22.5386 91.8199C23.1621 92.9041 23.5463 94.1079 23.6658 95.3512C23.7528 96.6634 23.3153 97.9566 22.4484 98.9497C22.0166 99.4711 21.5332 99.948 21.0056 100.373C20.6674 100.642 20.2053 100.822 19.8784 101.068C19.6224 100.993 19.3735 100.895 19.1344 100.777C18.1085 100.243 17.3351 99.3288 16.9815 98.2322ZM23.012 100.844C22.6739 100.996 22.3179 101.106 21.9524 101.169C22.5174 100.735 23.0316 100.238 23.4855 99.6896C24.0121 99.0737 24.4116 98.3608 24.6611 97.5914C24.9106 96.822 25.0052 96.0112 24.9396 95.2054C24.7507 93.6814 24.1896 92.2265 23.3051 90.9679C22.9385 90.4129 22.4678 89.9333 21.9186 89.5554C22.6322 89.654 23.3116 89.9213 23.9 90.3348C24.4884 90.7483 24.9685 91.296 25.3003 91.932C26.1411 93.7083 26.3555 95.7145 25.909 97.6269C25.3814 99.0216 24.3479 100.169 23.012 100.844Z" fill="#242D2C"/>
<path d="M20.3744 32.7749C20.3744 29.1576 20.3744 25.5367 20.3744 21.912C20.3744 17.7193 20.5773 13.4706 20.2955 9.2779C20.3413 9.24505 20.3797 9.20304 20.4082 9.15459C21.1299 7.86215 21.4699 6.39325 21.3889 4.91707C21.3889 4.76841 21.3295 4.62585 21.2238 4.52073C21.1181 4.41561 20.9747 4.35655 20.8253 4.35655C20.6758 4.35655 20.5324 4.41561 20.4267 4.52073C20.321 4.62585 20.2617 4.76841 20.2617 4.91707C20.3068 6.06364 20.119 7.20749 19.7093 8.28018C19.4952 8.03355 19.2472 7.80936 19.0105 7.57394C18.6929 7.28629 18.4058 6.96698 18.1538 6.62105C17.6345 5.91329 17.3118 5.082 17.2182 4.21083C17.1266 3.39942 17.3349 2.58258 17.8043 1.9127C18.0002 1.63029 18.2585 1.39634 18.5596 1.22886C18.6912 1.1504 18.8365 1.09716 18.9879 1.07192C19.1743 1.03876 19.3651 1.03876 19.5515 1.07192C19.946 1.22886 20.1489 0.612297 19.8108 0.41051C19.4726 0.208723 19.4501 0.0966065 19.1457 0.0293443C18.9182 -0.00978144 18.6856 -0.00978144 18.4581 0.0293443C17.9463 0.0963258 17.4628 0.301852 17.0604 0.623493C16.6046 1.00694 16.2406 1.48669 15.9949 2.02777C15.7492 2.56884 15.628 3.15762 15.6401 3.7512C15.6075 4.95757 15.9329 6.14677 16.5757 7.17036C16.8932 7.6912 17.2716 8.17286 17.7029 8.60529C18.0943 9.08591 18.6198 9.44081 19.2134 9.62544C18.9203 13.6388 19.0443 17.7081 19.0105 21.7326C19.0105 25.4321 19.0105 29.1203 18.9541 32.8197C18.9541 40.0728 18.9541 72.1121 18.9541 79.3764H20.442C20.3293 72.0896 20.3744 40.0392 20.3744 32.7749Z" fill="#242D2C"/>
<path d="M29.2455 86.3942C28.2986 84.8478 27.0074 83.5382 25.4713 82.5664C23.9352 81.5946 22.1953 80.9865 20.3856 80.789C20.3932 80.7369 20.3932 80.6841 20.3856 80.6321C20.3856 80.2173 20.3856 79.8025 20.3856 79.3877H18.8977C18.8977 79.8025 18.8977 80.2173 18.8977 80.6321C17.3835 80.5364 15.8634 80.6687 14.3889 81.0244C14.1972 81.0244 14.0056 81.1365 13.814 81.1926C12.0582 80.8248 10.24 80.8737 8.5068 81.3353C6.77359 81.7969 5.17415 82.6582 3.83818 83.8494C1.52233 86.2185 0.158992 89.349 0.00566854 92.6496C-0.0542665 95.3683 0.361471 98.0767 1.23432 100.654C1.90535 102.804 3.13846 104.738 4.80758 106.259C7.37762 108.714 10.7254 109.028 14.1071 108.501C15.0859 108.741 16.0802 108.913 17.0829 109.017C18.8653 109.296 20.6886 109.156 22.4071 108.609C24.1256 108.062 25.6916 107.123 26.9798 105.867C27.0375 105.806 27.08 105.733 27.1038 105.654C29.597 103.277 31.1659 100.101 31.5337 96.6853C31.8645 93.1018 31.0647 89.5048 29.2455 86.3942ZM5.12319 104.701C4.24382 103.815 3.50973 102.797 2.94769 101.685C2.42719 100.33 2.04943 98.925 1.82048 97.4925C0.976433 94.2351 1.26647 90.7895 2.64334 87.717C3.51565 85.991 4.85156 84.5389 6.50297 83.5218C8.15438 82.5047 10.0568 81.9624 11.9992 81.9549C9.73109 83.1559 7.8755 85.0035 6.67046 87.2605C5.46542 89.5176 4.96589 92.0813 5.23592 94.6226C5.61917 98.8714 6.74639 103.131 9.86876 106.192C10.4462 106.748 11.1033 107.217 11.8188 107.582C10.5625 107.592 9.318 107.341 8.16497 106.845C7.01195 106.349 5.97588 105.618 5.12319 104.701ZM26.5402 105.048C26.4658 105.07 26.3993 105.113 26.3486 105.172C25.2009 106.209 23.8408 106.987 22.3619 107.451C20.883 107.916 19.3204 108.056 17.7818 107.862C15.467 107.797 13.2187 107.078 11.3003 105.788C8.43719 103.546 7.41143 100.183 6.79146 96.7077C5.81079 91.6406 7.18599 85.7664 12.1119 83.1992C15.0293 81.7474 18.376 81.3931 21.5354 82.2015C23.7489 82.7647 25.7477 83.9613 27.2842 85.6431C28.3138 86.8783 29.0807 88.3085 29.5386 89.847C30.2158 91.5024 30.5972 93.2627 30.6658 95.0486C30.6737 96.9034 30.3133 98.7415 29.6054 100.457C28.8974 102.173 27.8558 103.734 26.5402 105.048Z" fill="#242D2C"/>
</svg>
