<svg width="83" height="83" viewBox="0 0 83 83" fill="none" xmlns="http://www.w3.org/2000/svg">
<rect x="-1.5" y="1.5" width="80" height="80" rx="40" transform="matrix(-1 0 0 1 80 0)" fill="#FAB500"/>
<path d="M20.9341 43.6213C19.7626 42.4497 19.7626 40.5503 20.9341 39.3787L40.026 20.2868C41.1976 19.1152 43.0971 19.1152 44.2687 20.2868C45.4402 21.4584 45.4402 23.3579 44.2687 24.5294L27.2981 41.5L44.2687 58.4706C45.4402 59.6421 45.4402 61.5416 44.2687 62.7132C43.0971 63.8848 41.1976 63.8848 40.026 62.7132L20.9341 43.6213ZM59.9443 44.5L23.0555 44.5V38.5L59.9443 38.5V44.5Z" fill="#010112"/>
<rect x="-1.5" y="1.5" width="80" height="80" rx="40" transform="matrix(-1 0 0 1 80 0)" stroke="#010112" stroke-width="3"/>
</svg>
