<svg width="75" height="75" viewBox="0 0 75 75" fill="none" xmlns="http://www.w3.org/2000/svg">
	<path d="M37.5 75C58.2107 75 75 58.2107 75 37.5C75 16.7893 58.2107 0 37.5 0C16.7893 0 0 16.7893 0 37.5C0 58.2107 16.7893 75 37.5 75Z" fill="#303688"/>
	<path d="M14.4466 48.1133C13.8753 48.1108 13.3096 48 12.7796 47.7867V49.3879C12.7796 49.7488 12.6362 50.0949 12.381 50.3501C12.1258 50.6053 11.7797 50.7487 11.4188 50.7487H11.2986C10.9616 50.7322 10.6436 50.5875 10.4098 50.3442C10.176 50.1009 10.0441 49.7774 10.041 49.44V40.7264C10.0434 40.3846 10.1802 40.0575 10.4219 39.8158C10.6637 39.574 10.9908 39.4372 11.3326 39.4348C11.5134 39.432 11.6927 39.4674 11.8588 39.5387C12.0249 39.6101 12.1741 39.7157 12.2965 39.8487C12.9579 39.4891 13.6983 39.2997 14.4511 39.2976C15.6201 39.2976 16.7413 39.762 17.5679 40.5886C18.3945 41.4153 18.8589 42.5364 18.8589 43.7054C18.8589 44.8745 18.3945 45.9956 17.5679 46.8222C16.7413 47.6489 15.6201 48.1133 14.4511 48.1133H14.4466ZM14.4466 42.0351C14.1162 42.0351 13.7933 42.133 13.5186 42.3166C13.2439 42.5001 13.0298 42.761 12.9034 43.0662C12.7769 43.3714 12.7438 43.7073 12.8083 44.0313C12.8728 44.3553 13.0318 44.653 13.2654 44.8866C13.4991 45.1202 13.7967 45.2793 14.1207 45.3437C14.4447 45.4082 14.7806 45.3751 15.0858 45.2487C15.391 45.1222 15.6519 44.9081 15.8354 44.6334C16.019 44.3588 16.1169 44.0358 16.1169 43.7054C16.118 43.4858 16.0755 43.2682 15.9919 43.0651C15.9083 42.8621 15.7853 42.6776 15.63 42.5224C15.4746 42.3671 15.2901 42.2442 15.087 42.1608C14.8838 42.0773 14.6662 42.035 14.4466 42.0362V42.0351Z" fill="#0CA440"/>
	<path d="M32.9644 40.6584V46.6855C32.962 47.0272 32.8254 47.3541 32.5839 47.5958C32.3424 47.8375 32.0156 47.9745 31.6739 47.9772C31.3105 47.9715 30.9639 47.8233 30.7089 47.5644C30.0473 47.9231 29.307 48.1121 28.5543 48.1144C27.3853 48.1144 26.2641 47.65 25.4375 46.8233C24.6109 45.9967 24.1465 44.8756 24.1465 43.7065C24.1465 42.5375 24.6109 41.4164 25.4375 40.5897C26.2641 39.7631 27.3853 39.2987 28.5543 39.2987C29.295 39.3056 30.0225 39.4949 30.6726 39.8498C30.7894 39.6965 30.9408 39.5729 31.1144 39.4891C31.288 39.4054 31.4789 39.3638 31.6717 39.3679C32.0135 39.37 32.3408 39.5065 32.5827 39.748C32.8246 39.9895 32.9617 40.3165 32.9644 40.6584ZM30.227 43.7054C30.227 43.375 30.129 43.0521 29.9454 42.7774C29.7619 42.5027 29.501 42.2886 29.1958 42.1622C28.8906 42.0358 28.5547 42.0027 28.2307 42.0671C27.9067 42.1316 27.6091 42.2907 27.3755 42.5243C27.1418 42.7579 26.9828 43.0555 26.9183 43.3795C26.8539 43.7035 26.8869 44.0394 27.0134 44.3446C27.1398 44.6498 27.3539 44.9107 27.6286 45.0943C27.9033 45.2778 28.2262 45.3758 28.5566 45.3758C28.7765 45.3773 28.9945 45.3351 29.1979 45.2517C29.4014 45.1684 29.5863 45.0454 29.7419 44.89C29.8975 44.7346 30.0207 44.5499 30.1043 44.3466C30.188 44.1432 30.2304 43.9253 30.2292 43.7054H30.227Z" fill="#0CA440"/>
	<path d="M41.8216 43.0852V46.6334C41.8216 46.9943 41.6782 47.3404 41.423 47.5956C41.1678 47.8508 40.8217 47.9942 40.4608 47.9942C40.0985 47.9939 39.7509 47.851 39.4932 47.5963C39.2356 47.3416 39.0886 46.9957 39.0841 46.6334V43.0852C39.0849 42.947 39.0582 42.8101 39.0056 42.6823C38.953 42.5546 38.8756 42.4385 38.7778 42.3409C38.68 42.2434 38.5638 42.1662 38.4359 42.1139C38.308 42.0616 38.1711 42.0352 38.0329 42.0362C37.8939 42.035 37.756 42.0612 37.6271 42.1134C37.4982 42.1655 37.3808 42.2425 37.2817 42.3401C37.1826 42.4376 37.1037 42.5537 37.0495 42.6817C36.9953 42.8098 36.9669 42.9472 36.9658 43.0863V46.6345C36.9658 46.9955 36.8224 47.3416 36.5673 47.5968C36.3121 47.852 35.9659 47.9953 35.605 47.9953C35.2441 47.9953 34.898 47.852 34.6428 47.5968C34.3876 47.3416 34.2442 46.9955 34.2442 46.6345V40.6924C34.2421 40.5214 34.274 40.3517 34.3379 40.1931C34.4019 40.0345 34.4967 39.8902 34.6168 39.7684C34.7369 39.6467 34.88 39.5501 35.0378 39.484C35.1956 39.418 35.3648 39.3839 35.5359 39.3838C35.8356 39.3885 36.1256 39.4913 36.3614 39.6764C36.8825 39.4258 37.4535 39.2963 38.0318 39.2976C38.5293 39.2973 39.0221 39.3951 39.4819 39.5853C39.9417 39.7755 40.3595 40.0544 40.7114 40.4062C41.0634 40.7579 41.3426 41.1755 41.5331 41.6352C41.7235 42.0949 41.8216 42.5876 41.8216 43.0852Z" fill="#1091D1"/>
	<path d="M50.284 44.7044H45.7038C46.4613 45.8577 47.8913 46.0301 48.9924 45.4279C49.1244 45.3486 49.2708 45.2964 49.4232 45.2743C49.5756 45.2521 49.7308 45.2605 49.88 45.2989C50.0291 45.3373 50.169 45.405 50.2918 45.498C50.4145 45.591 50.5174 45.7075 50.5947 45.8407C50.7516 46.1109 50.7961 46.4318 50.7187 46.7344C50.6412 47.0371 50.4481 47.2972 50.1808 47.4589C49.4326 47.8913 48.583 48.1171 47.7189 48.1132C45.7378 48.1132 44.1888 46.994 43.5005 45.5651C42.9663 44.4629 42.9833 43.1032 43.4483 41.984C43.8238 41.0922 44.4833 40.3495 45.3245 39.8713C46.1656 39.3931 47.1412 39.2062 48.0995 39.3397C49.0578 39.4732 49.9452 39.9195 50.6237 40.6094C51.3021 41.2992 51.7337 42.1939 51.8512 43.1543C51.9544 44.1907 51.266 44.7044 50.284 44.7044ZM49.2339 42.7415C49.0786 42.0872 48.3562 41.4692 47.4785 41.4692C46.6178 41.4692 45.8773 42.0895 45.7219 42.7438L49.2339 42.7415Z" fill="#1091D1"/>
	<path d="M58.2521 52.6955C58.2515 53.0605 58.1063 53.4104 57.8483 53.6686C57.5903 53.9269 57.2405 54.0724 56.8754 54.0733H56.6191C54.587 54.0733 53.1412 52.4721 53.1412 50.4751V40.6751C53.1359 40.491 53.1676 40.3076 53.2345 40.1359C53.3013 39.9641 53.4019 39.8076 53.5303 39.6754C53.6587 39.5433 53.8123 39.4382 53.9821 39.3665C54.1518 39.2948 54.3342 39.2578 54.5184 39.2578C54.7027 39.2578 54.8851 39.2948 55.0548 39.3665C55.2245 39.4382 55.3781 39.5433 55.5066 39.6754C55.635 39.8076 55.7356 39.9641 55.8024 40.1359C55.8692 40.3076 55.9009 40.491 55.8957 40.6751V42.0359H57.1533C57.3135 42.031 57.4732 42.0583 57.6227 42.1162C57.7722 42.1742 57.9086 42.2615 58.0237 42.3732C58.1389 42.4848 58.2304 42.6184 58.2929 42.7661C58.3554 42.9138 58.3876 43.0725 58.3876 43.2329C58.3876 43.3932 58.3554 43.5519 58.2929 43.6996C58.2304 43.8473 58.1389 43.9809 58.0237 44.0925C57.9086 44.2042 57.7722 44.2915 57.6227 44.3495C57.4732 44.4074 57.3135 44.4347 57.1533 44.4298H55.8957V50.4728C55.8957 50.9026 56.1225 51.3165 56.6191 51.3165H56.8777C57.2425 51.318 57.5919 51.4639 57.8495 51.7223C58.107 51.9807 58.2518 52.3306 58.2521 52.6955Z" fill="#1091D1"/>
	<path d="M21.5032 47.9759C21.1342 47.9685 20.7831 47.8154 20.5264 47.55C20.2698 47.2847 20.1285 46.9287 20.1334 46.5596V22.3454C20.1281 22.1623 20.1596 21.98 20.2261 21.8092C20.2925 21.6385 20.3925 21.4828 20.5202 21.3514C20.6479 21.22 20.8006 21.1156 20.9694 21.0442C21.1381 20.9729 21.3195 20.9362 21.5027 20.9362C21.6859 20.9362 21.8672 20.9729 22.036 21.0442C22.2047 21.1156 22.3575 21.22 22.4851 21.3514C22.6128 21.4828 22.7128 21.6385 22.7793 21.8092C22.8457 21.98 22.8772 22.1623 22.872 22.3454V46.5596C22.8771 46.9286 22.7361 47.2846 22.4797 47.55C22.2232 47.8153 21.8722 47.9685 21.5032 47.9759Z" fill="#FAB50D"/>
	<path d="M25.5319 34.573C25.1655 34.5721 24.8143 34.4263 24.555 34.1672C24.2958 33.9082 24.1496 33.5572 24.1484 33.1907V27.2112C24.1587 26.8512 24.309 26.5095 24.5672 26.2586C24.8254 26.0077 25.1713 25.8673 25.5313 25.8673C25.8914 25.8673 26.2373 26.0077 26.4955 26.2586C26.7537 26.5095 26.9039 26.8512 26.9142 27.2112V33.1907C26.9131 33.557 26.767 33.9079 26.508 34.1668C26.2491 34.4258 25.8982 34.5718 25.5319 34.573ZM26.7067 24.2537C26.7085 24.4886 26.6404 24.7188 26.511 24.9148C26.3816 25.1109 26.1968 25.2641 25.9801 25.3548C25.7634 25.4455 25.5246 25.4697 25.2941 25.4243C25.0636 25.3789 24.8519 25.266 24.6857 25.0999C24.5196 24.9338 24.4067 24.722 24.3613 24.4915C24.3159 24.261 24.3401 24.0222 24.4308 23.8055C24.5216 23.5888 24.6747 23.404 24.8708 23.2746C25.0669 23.1452 25.297 23.0771 25.5319 23.0789C25.8426 23.083 26.1394 23.2084 26.3589 23.4283C26.5784 23.6483 26.7032 23.9453 26.7067 24.256V24.2537Z" fill="#FAB50D"/>
	<path d="M35.7993 29.6483V33.2079C35.7972 33.5682 35.6532 33.9131 35.3984 34.1678C35.1437 34.4226 34.7988 34.5666 34.4385 34.5687C34.0755 34.5688 33.727 34.4261 33.4682 34.1716C33.2094 33.917 33.061 33.5709 33.055 33.2079V29.6483C33.0561 29.5096 33.0296 29.3721 32.977 29.2438C32.9245 29.1154 32.8469 28.9988 32.7489 28.9006C32.6509 28.8025 32.5343 28.7249 32.406 28.6722C32.2777 28.6195 32.1403 28.5928 32.0016 28.5937C31.8619 28.5925 31.7234 28.6188 31.594 28.6712C31.4645 28.7236 31.3467 28.8009 31.2472 28.8989C31.1476 28.9968 31.0684 29.1134 31.014 29.242C30.9595 29.3706 30.931 29.5087 30.9299 29.6483V33.2079C30.9299 33.57 30.7861 33.9173 30.53 34.1734C30.274 34.4294 29.9267 34.5733 29.5646 34.5733C29.2025 34.5733 28.8552 34.4294 28.5992 34.1734C28.3431 33.9173 28.1993 33.57 28.1993 33.2079V27.2454C28.1975 27.0744 28.2295 26.9047 28.2934 26.7462C28.3574 26.5876 28.452 26.4432 28.5719 26.3213C28.6919 26.1994 28.8347 26.1023 28.9922 26.0358C29.1497 25.9692 29.3188 25.9344 29.4898 25.9334C29.791 25.9385 30.0824 26.0416 30.3199 26.2271C30.8428 25.9759 31.4157 25.8461 31.9959 25.8472C32.4952 25.847 32.9897 25.9452 33.4511 26.1362C33.9124 26.3271 34.3317 26.6071 34.6848 26.96C35.038 27.313 35.3182 27.7321 35.5094 28.1933C35.7007 28.6546 35.7992 29.149 35.7993 29.6483Z" fill="#FAB50D"/>
	<path d="M45.9241 27.1941V33.7781C45.9184 34.9435 45.4518 36.0593 44.6261 36.8818C43.8004 37.7043 42.6828 38.1666 41.5174 38.1678C40.8732 38.17 40.2366 38.0282 39.6542 37.7527C39.49 37.6841 39.3413 37.5829 39.2172 37.4553C39.0931 37.3276 38.9962 37.1762 38.9323 37.01C38.8684 36.8439 38.8388 36.6665 38.8453 36.4886C38.8518 36.3107 38.8943 36.136 38.9702 35.9749C39.0461 35.8139 39.1539 35.6699 39.2869 35.5517C39.42 35.4335 39.5757 35.3434 39.7445 35.287C39.9134 35.2306 40.0919 35.209 40.2694 35.2235C40.4468 35.238 40.6194 35.2883 40.7769 35.3714C40.998 35.4749 41.2381 35.5314 41.4821 35.5373C41.7261 35.5432 41.9687 35.4985 42.1946 35.4059C42.4204 35.3133 42.6246 35.1748 42.7942 34.9992C42.9638 34.8237 43.0951 34.6148 43.1798 34.3859C42.6467 34.601 42.0775 34.7126 41.5026 34.7148C40.3297 34.7148 39.2048 34.2488 38.3754 33.4194C37.546 32.59 37.0801 31.4651 37.0801 30.2922C37.0801 29.1193 37.546 27.9944 38.3754 27.165C39.2048 26.3356 40.3297 25.8696 41.5026 25.8696C42.2194 25.8694 42.9251 26.0471 43.5563 26.3867C43.727 26.1718 43.9601 26.015 44.2236 25.9379C44.487 25.8609 44.7679 25.8674 45.0275 25.9566C45.2871 26.0457 45.5127 26.2131 45.6733 26.4358C45.8338 26.6584 45.9215 26.9253 45.9241 27.1998V27.1941ZM43.1413 30.2865C43.1431 29.9592 43.0475 29.6387 42.8668 29.3658C42.6861 29.0929 42.4283 28.8799 42.1262 28.7538C41.8242 28.6277 41.4914 28.5943 41.1703 28.6577C40.8492 28.7211 40.5542 28.8785 40.3227 29.11C40.0912 29.3414 39.9338 29.6365 39.8704 29.9576C39.807 30.2787 39.8404 30.6114 39.9665 30.9135C40.0926 31.2156 40.3056 31.4733 40.5786 31.6541C40.8515 31.8348 41.1719 31.9303 41.4992 31.9285C41.9335 31.9247 42.349 31.7505 42.6561 31.4434C42.9632 31.1363 43.1374 30.7208 43.1413 30.2865Z" fill="#E30C31"/>
	<path d="M51.0166 34.6296C50.0035 34.6293 49.0321 34.2267 48.3158 33.5102C47.5996 32.7938 47.1973 31.8222 47.1973 30.8092V27.2144C47.2075 26.8569 47.3568 26.5175 47.6133 26.2682C47.8698 26.019 48.2134 25.8795 48.5711 25.8795C48.9288 25.8795 49.2724 26.019 49.5289 26.2682C49.7854 26.5175 49.9347 26.8569 49.9449 27.2144V30.8092C49.9449 31.0934 50.0578 31.366 50.2588 31.5669C50.4598 31.7679 50.7323 31.8808 51.0166 31.8808C51.3008 31.8808 51.5733 31.7679 51.7743 31.5669C51.9753 31.366 52.0882 31.0934 52.0882 30.8092V27.2144C52.0984 26.8569 52.2477 26.5175 52.5042 26.2682C52.7607 26.019 53.1043 25.8795 53.462 25.8795C53.8197 25.8795 54.1633 26.019 54.4198 26.2682C54.6763 26.5175 54.8256 26.8569 54.8358 27.2144V30.8092C54.8358 31.8222 54.4335 32.7938 53.7173 33.5102C53.001 34.2267 52.0296 34.6293 51.0166 34.6296Z" fill="#E30C31"/>
	<path d="M64.9615 27.2202V33.2678C64.9591 33.6108 64.8218 33.9392 64.5793 34.1817C64.3367 34.4243 64.0084 34.5616 63.6654 34.564C63.3011 34.5585 62.9535 34.4098 62.6981 34.1501C62.0347 34.5098 61.2925 34.6995 60.5378 34.7023C59.957 34.7023 59.3819 34.5879 58.8454 34.3657C58.3088 34.1434 57.8213 33.8177 57.4106 33.407C56.9999 32.9963 56.6741 32.5088 56.4519 31.9722C56.2296 31.4356 56.1152 30.8605 56.1152 30.2797C56.1152 29.699 56.2296 29.1239 56.4519 28.5873C56.6741 28.0507 56.9999 27.5632 57.4106 27.1525C57.8213 26.7418 58.3088 26.4161 58.8454 26.1938C59.3819 25.9716 59.957 25.8572 60.5378 25.8572C61.2808 25.8639 62.0107 26.0536 62.6629 26.4094C62.7802 26.2557 62.9321 26.1318 63.1063 26.0478C63.2805 25.9639 63.472 25.9223 63.6654 25.9264C64.008 25.9287 64.336 26.0657 64.5785 26.3078C64.821 26.5499 64.9585 26.8776 64.9615 27.2202ZM62.2139 30.282C62.2141 29.9502 62.1159 29.6258 61.9317 29.3498C61.7475 29.0738 61.4855 28.8587 61.179 28.7316C60.8725 28.6045 60.5352 28.5712 60.2098 28.6359C59.8843 28.7006 59.5854 28.8603 59.3507 29.0949C59.1161 29.3296 58.9563 29.6285 58.8917 29.954C58.827 30.2794 58.8603 30.6167 58.9874 30.9232C59.1145 31.2297 59.3296 31.4917 59.6056 31.6759C59.8816 31.8601 60.206 31.9583 60.5378 31.9581C60.7586 31.9594 60.9774 31.9169 61.1816 31.8329C61.3858 31.749 61.5712 31.6253 61.7272 31.469C61.8831 31.3127 62.0065 31.127 62.09 30.9227C62.1736 30.7183 62.2157 30.4994 62.2139 30.2786V30.282Z" fill="#E30C31"/>
	<path d="M61.6996 11.0779C63.0881 11.0779 64.2137 9.95234 64.2137 8.56387C64.2137 7.17539 63.0881 6.0498 61.6996 6.0498C60.3111 6.0498 59.1855 7.17539 59.1855 8.56387C59.1855 9.95234 60.3111 11.0779 61.6996 11.0779Z" fill="#0CA440"/>
	<path d="M14.5666 70.1954C16.3778 70.1954 17.8461 68.7271 17.8461 66.9159C17.8461 65.1046 16.3778 63.6364 14.5666 63.6364C12.7554 63.6364 11.2871 65.1046 11.2871 66.9159C11.2871 68.7271 12.7554 70.1954 14.5666 70.1954Z" fill="#1091D1"/>
	<path d="M46.0245 61.8164C47.3303 61.8164 48.3889 60.7578 48.3889 59.452C48.3889 58.1462 47.3303 57.0876 46.0245 57.0876C44.7187 57.0876 43.6602 58.1462 43.6602 59.452C43.6602 60.7578 44.7187 61.8164 46.0245 61.8164Z" fill="#FAB50D"/>
	<path d="M12.8816 29.765C14.5744 29.765 15.9468 28.3927 15.9468 26.6998C15.9468 25.007 14.5744 23.6346 12.8816 23.6346C11.1887 23.6346 9.81641 25.007 9.81641 26.6998C9.81641 28.3927 11.1887 29.765 12.8816 29.765Z" fill="#E30C31"/>
</svg>
