<svg width="87" height="80" viewBox="0 0 87 80" fill="none" xmlns="http://www.w3.org/2000/svg">
<path d="M50.7064 7.88379C50.6393 7.91905 50.5568 7.96376 50.506 7.99558L50.4785 8.00848C50.5477 7.95561 50.6246 7.91357 50.7064 7.88379Z" fill="#E4032F"/>
<path d="M86.1658 20.6412L86.1245 20.3789C86.0748 20.2152 85.9836 20.067 85.8597 19.949L85.6559 19.7993C85.5027 19.7146 85.3296 19.6724 85.1546 19.6772C85.1258 19.6767 85.0971 19.6781 85.0686 19.6815C85.0287 19.6388 84.9862 19.5986 84.9413 19.5611C83.9286 18.7172 82.9675 17.8133 82.0632 16.8541C81.1439 15.8773 80.3382 14.8084 79.4456 13.8083C79.0155 13.3271 78.5464 12.8821 78.0431 12.4781C77.7138 12.2132 77.3698 11.9664 77.0275 11.7188L77.0207 11.7136L77.0129 11.7084L76.9631 11.6732L76.9226 11.6431L76.9846 11.6869C76.939 11.6508 76.8925 11.6164 76.8478 11.582C76.7025 11.4694 76.5589 11.3542 76.4179 11.2381C75.3636 10.3429 74.5209 9.22158 73.4641 8.33673L71.5628 6.74503C71.1999 6.44148 70.8465 6.11472 70.4544 5.85072C70.1207 5.62543 69.7501 5.44571 69.3984 5.24879C69.2302 5.16017 69.0352 5.1366 68.8507 5.18257C68.8154 5.17225 68.7801 5.16022 68.744 5.15248C66.5203 4.65459 64.3473 3.92538 62.182 3.22456C61.1622 2.89435 60.1183 2.67335 59.1053 2.30531C58.5773 2.11355 58.2849 2.01294 57.7905 1.79538C57.2444 1.55547 56.7397 1.24074 56.1446 1.14615C55.971 1.11591 55.7924 1.13437 55.6287 1.19946C55.5815 1.17425 55.533 1.15157 55.4833 1.13153C55.4243 1.10913 55.3637 1.09131 55.3019 1.07822C55.2666 0.712756 55.0095 0.366211 54.5374 0.366211C53.9355 0.366211 53.7128 0.923433 53.8426 1.37059C53.8327 1.38546 53.8238 1.40098 53.816 1.41702C53.7668 1.49639 53.74 1.58763 53.7386 1.68102C53.7261 1.74664 53.7261 1.81403 53.7386 1.87966C53.571 2.30694 53.4695 2.75725 53.4376 3.2151C53.4144 3.53412 53.3877 3.85229 53.3516 4.1696C53.3465 4.21087 53.3413 4.25559 53.337 4.29429C52.803 4.38888 52.6946 5.05101 52.9879 5.41217C52.2458 6.24628 51.5054 7.07266 50.7272 7.87667L50.7177 7.88699L50.7039 7.90075C50.6764 7.91709 50.618 7.94805 50.5173 7.99878C50.5027 8.00695 50.4889 8.01645 50.4761 8.02716C50.4802 8.02158 50.4848 8.0164 50.4898 8.01168C50.3961 8.05812 50.2688 8.12003 50.0986 8.19914C49.967 8.26105 49.8406 8.32383 49.7099 8.39434C49.0701 8.7469 48.4862 9.19922 47.9239 9.66271L47.248 10.2088C47.0456 10.1389 46.8358 10.093 46.6228 10.072C45.9211 9.99722 45.2091 10.4899 44.6639 10.8984L44.492 11.0265L44.2159 10.9964C43.5176 10.9171 42.8251 10.793 42.1427 10.625C41.7677 10.5298 41.3951 10.4217 41.0248 10.3008C40.8482 10.2434 40.6728 10.1824 40.4985 10.1176C40.3867 10.017 40.1098 9.95594 39.974 9.89489C39.7974 9.81463 39.6228 9.7315 39.4503 9.64551C39.1063 9.47353 38.7624 9.28607 38.4287 9.10119C38.0951 8.91631 37.7674 8.72197 37.4501 8.51129C37.4123 8.48635 37.3745 8.45969 37.3366 8.4339C37.2893 8.35565 37.0322 8.21118 36.9703 8.16217C35.9062 7.31174 34.9094 6.38026 33.989 5.37605C33.7181 5.07699 33.48 4.74979 33.2787 4.40005C33.2537 4.17227 33.1909 3.95024 33.093 3.74308C33.1102 3.76974 32.9846 3.45415 32.9881 3.46275C32.9528 3.363 32.9193 3.26239 32.8883 3.16178C32.8023 2.88661 32.743 2.61316 32.6407 2.34401C32.6226 2.29757 32.6071 2.24942 32.5916 2.2004C33.2435 1.71971 33.0216 0.394588 31.9811 0.394588C31.7903 0.387422 31.6023 0.44311 31.4462 0.553098C31.2901 0.663085 31.1744 0.821288 31.1169 1.00341C30.8757 0.867906 30.6088 0.784297 30.3333 0.757939C30.0579 0.731581 29.78 0.763054 29.5175 0.850341C27.5397 1.51505 25.684 2.51341 23.7113 3.20478C22.7491 3.54186 21.7731 3.83423 20.7876 4.10338C19.8374 4.36136 18.9208 4.68898 17.9946 5.01919C17.2818 4.93922 16.5543 5.19633 15.9395 5.73206C14.8302 6.69774 14.0244 7.96783 12.9435 8.97392C11.8454 9.99292 10.7078 10.9689 9.5701 11.9406C9.30639 12.1659 9.04097 12.3892 8.77382 12.6105C8.65057 12.7125 8.52703 12.8143 8.4032 12.9158L8.28625 13.0121L8.19424 13.0834C7.63358 13.534 7.0669 13.9769 6.50194 14.4232C5.34106 15.3407 4.1389 16.3726 3.17064 17.4982C2.61795 18.1422 2.12195 18.8327 1.68815 19.562C1.64237 19.6401 1.60297 19.7218 1.57035 19.8062L1.38976 19.789C0.865218 19.7426 0.502336 20.3686 0.644221 20.8209C0.739671 21.1262 0.823943 21.416 1.0114 21.6808C1.21652 21.9708 1.43848 22.2484 1.67611 22.5124C2.08027 22.9595 2.57128 23.3439 3.00984 23.7592C3.89555 24.5997 4.75144 25.4702 5.57753 26.3708C5.99144 26.8197 6.39703 27.2754 6.79431 27.738C6.99323 27.9674 7.19015 28.2007 7.38506 28.438C7.46819 28.5378 7.55074 28.6381 7.63272 28.739L7.80986 28.9591C8.5597 29.8964 9.3147 30.8423 10.0138 31.8226C10.1739 32.0469 10.3826 32.2321 10.6244 32.3644C10.6524 32.4577 10.7046 32.5419 10.7757 32.6086L10.8918 32.6946C10.9794 32.7427 11.0782 32.7667 11.1781 32.7642C11.2539 32.7656 11.3286 32.7469 11.3948 32.71C11.4637 32.6859 11.5251 32.6441 11.5728 32.5888C11.5827 32.5797 11.5919 32.5699 11.6003 32.5596C11.8094 32.531 12.0088 32.4539 12.1825 32.3343C12.2308 32.3015 12.2773 32.2662 12.3218 32.2285C12.6117 32.1213 12.8863 31.9768 13.1387 31.7985C13.5609 31.5019 13.984 31.0874 14.3658 30.7821C14.4472 30.8178 14.5349 30.8371 14.6238 30.8389C14.7457 30.8629 14.8718 30.8543 14.9893 30.8139C15.2134 30.7355 15.4033 30.5817 15.5267 30.3788C15.5951 30.2453 15.6344 30.0987 15.6419 29.9489C16.2363 29.6339 16.8494 29.3556 17.4778 29.1156C17.5572 29.0832 17.6342 29.0452 17.7083 29.0021C17.7281 29.5636 17.7823 30.1252 17.827 30.6781C17.874 31.2559 17.9339 31.8324 18.0067 32.4074C18.0763 32.9568 18.1632 33.4908 18.447 33.9199C18.4409 34.0661 18.4358 34.2123 18.4298 34.3585C18.3077 37.3166 18.2793 40.2738 18.3893 43.2319L18.4074 43.6825C18.3347 43.699 18.267 43.7329 18.2102 43.7812C18.1535 43.8296 18.1093 43.8911 18.0815 43.9603C17.9095 44.398 17.7238 44.8202 17.6515 45.2854C17.5759 45.7755 17.5068 46.2663 17.4443 46.7576C17.3149 47.7353 17.2457 48.72 17.2371 49.7062C17.231 51.6341 17.2973 53.562 17.397 55.4865C17.5982 59.3467 17.9706 63.1965 18.1606 67.0575C18.2207 68.12 18.2235 69.1849 18.1692 70.2477C18.1374 70.8067 18.0712 71.3656 18.0652 71.9289C18.0652 72.2857 18.072 72.6443 18.0815 73.002C17.9172 73.0935 17.7826 73.2302 17.6937 73.3959C17.4357 73.8774 17.4589 74.4183 17.4357 74.9523C17.4176 75.4003 17.3815 75.8612 17.4357 76.3084C17.5079 76.8914 17.9026 77.3902 18.508 77.4263C18.5235 77.4435 18.5381 77.4607 18.5545 77.4762L18.7101 77.5905C18.8267 77.6553 18.9586 77.6874 19.0919 77.6834C19.1154 77.6851 19.1389 77.6851 19.1624 77.6834C19.1945 77.7027 19.2293 77.7172 19.2656 77.7264C19.3828 77.7546 19.5064 77.7355 19.6096 77.6731C19.6154 77.6696 19.6208 77.6655 19.6259 77.661C20.0404 77.8597 20.509 77.919 20.9562 78.005C21.8642 78.1882 22.8007 78.1839 23.7234 78.2312C25.2615 78.3108 26.799 78.4011 28.3359 78.502C31.4316 78.6998 34.5393 78.7849 37.6393 78.8735C40.7651 78.9595 43.8935 78.9973 47.0192 78.9002C50.0994 78.8047 53.1633 78.5278 56.2323 78.2656C57.9435 78.1194 59.6505 77.9336 61.3643 77.8287C62.207 77.7771 63.042 77.6567 63.8829 77.5802C64.3301 77.5372 64.7778 77.5011 65.2261 77.4719C65.421 77.4593 65.6168 77.4478 65.8135 77.4375C65.9255 77.4408 66.0377 77.4351 66.1488 77.4203C66.1613 77.4178 66.1737 77.4147 66.1858 77.4108L66.2365 77.4177C66.768 77.4822 67.2099 77.4564 67.6812 77.1924C68.1902 76.9069 68.4835 76.3574 68.5411 75.7968C68.5885 75.405 68.5086 75.0083 68.3131 74.6655C68.1177 74.3226 67.8171 74.0518 67.4559 73.8929C67.6189 73.6155 67.6868 73.2924 67.6494 72.9728C67.6279 72.8077 67.6098 72.6426 67.5883 72.4775C67.5694 72.3623 67.5513 72.2462 67.5324 72.1335C67.523 72.0927 67.5164 72.0514 67.5126 72.0097C67.5126 71.9968 67.5126 71.9839 67.5066 71.971C67.5066 71.9822 67.5066 71.9942 67.5126 72.0063C67.5126 71.971 67.5058 71.9358 67.5015 71.9031L67.4911 71.8171C67.584 71.3278 67.6769 70.8385 67.7646 70.3484C67.897 69.608 67.946 68.8478 68.0269 68.1005C68.1031 67.3851 68.1799 66.6699 68.2573 65.9551C68.3364 65.219 68.4835 64.4631 68.4069 63.7253C68.3545 63.2094 68.063 62.7639 67.5935 62.5954C67.7517 60.6305 67.8351 58.6587 67.8841 56.6895C67.9555 53.8785 67.7912 51.0717 67.5608 48.2684C67.839 48.0116 68.0352 47.6784 68.1249 47.3105C68.302 46.5976 68.1086 45.7042 68.0647 44.9801C67.9048 42.3729 67.8256 39.7627 67.8274 37.1498C67.8274 34.476 67.8506 31.8023 67.897 29.1285C67.9429 29.1174 67.9878 29.1024 68.0312 29.0838C68.1624 29.0873 68.2929 29.0639 68.4147 29.015L68.4697 28.9961C68.7977 29.3322 69.1577 29.6355 69.5446 29.9016C70.0984 30.2748 70.6719 30.6153 71.2171 31.0014L71.4889 31.1966C71.5955 31.2749 71.9833 31.5578 72.0452 31.6016C72.294 31.7855 72.5608 31.9437 72.8415 32.0737C73.3521 32.2907 73.8885 32.441 74.4375 32.5209C74.4813 32.7562 74.6076 32.9681 74.7938 33.1185C74.98 33.269 75.2138 33.3479 75.4531 33.3412C76.1633 33.3412 76.4849 32.7659 76.4445 32.2156C76.6653 32.0266 76.8166 31.7694 76.8745 31.4847C77.1223 31.3537 77.355 31.196 77.5684 31.0143C77.9157 30.7179 78.2432 30.399 78.5487 30.0598C78.9301 29.6568 79.2862 29.2306 79.615 28.7837L79.6838 28.69L79.707 28.659L79.7156 28.647C79.7569 28.5937 79.8016 28.5403 79.8412 28.487C80.0029 28.288 80.1752 28.0977 80.3571 27.9169C81.0984 27.1843 81.9497 26.5729 82.6419 25.7886C82.9859 25.3965 83.3152 24.988 83.6282 24.5684C83.8337 24.2915 84.0375 24.0138 84.2302 23.73C84.5303 23.294 84.6464 22.9268 84.6997 22.386C84.8105 22.31 84.9113 22.2204 84.9998 22.1194C85.1229 21.9764 85.2248 21.8166 85.3025 21.6447C85.4002 21.635 85.4949 21.6058 85.5811 21.5587C85.6995 21.5116 85.8063 21.4394 85.8942 21.347C85.9821 21.2547 86.0489 21.1445 86.0901 21.0239C86.1494 20.9055 86.1756 20.7732 86.1658 20.6412ZM50.6807 7.91451C50.5148 8.08649 50.5879 7.9962 50.6807 7.91451V7.91451ZM50.7065 7.89301L50.7134 7.88699C50.7134 7.88699 50.7117 7.88699 50.7065 7.88957V7.89301ZM50.7203 7.88097C50.7607 7.84916 50.7977 7.82594 50.814 7.83282L50.7203 7.88097Z" fill="#E4032F"/>
<path d="M67.53 72.1318C67.53 72.1378 67.53 72.1439 67.53 72.149C67.5214 72.1007 67.5136 72.0523 67.5059 72.0039C67.5171 72.0488 67.5231 72.0903 67.53 72.1318Z" fill="#E4032F"/>
<path d="M32.8409 1.61298C32.9596 2.45741 33.0602 3.32764 33.3775 4.12306C33.7207 4.99679 34.1475 5.83537 34.6519 6.62712C35.1446 7.39588 35.6717 8.16206 36.4147 8.70724C37.2161 9.29628 38.1766 9.58091 39.1217 9.85436C40.0767 10.1405 41.0593 10.325 42.0531 10.4047C43.0575 10.4761 44.0834 10.311 45.0542 10.0607C46.8076 9.61359 48.5798 8.9076 50.1208 7.9574C50.966 7.44049 51.7426 6.81903 52.4322 6.10773C53.2388 5.26588 53.7445 4.3303 54.1366 3.24165C54.4229 2.44795 53.821 1.5459 53.1047 1.26385C52.7234 1.11517 52.3013 1.10868 51.9155 1.24557C51.5298 1.38246 51.2062 1.65359 51.0039 2.0094C50.9085 2.17106 50.801 2.32412 50.7038 2.48493C50.8758 2.2003 50.6884 2.50298 50.5929 2.61821C50.3693 2.88822 50.1629 3.16942 49.9273 3.43169C49.6939 3.69509 49.4449 3.94434 49.1818 4.17809C49.1293 4.22539 49.0752 4.27096 49.0227 4.3174C48.7647 4.54011 49.0227 4.33202 49.0554 4.2916C48.9359 4.42489 48.7424 4.52807 48.5945 4.63556C48.2866 4.84968 47.9667 5.04746 47.6408 5.23234C47.4878 5.31833 47.3336 5.40117 47.1782 5.48086C47.0922 5.52729 46.9993 5.57201 46.9099 5.61586C46.8686 5.6365 46.4928 5.81622 46.7138 5.71217C46.9065 5.62618 46.6786 5.72765 46.6511 5.73969L46.3733 5.8575C46.2117 5.92457 46.0486 5.98992 45.884 6.05356C45.4996 6.20146 45.1101 6.34163 44.7197 6.46889C44.3646 6.58498 44.006 6.68903 43.6422 6.77416C43.4608 6.8163 43.2785 6.85585 43.0953 6.88509C43.4393 6.83006 43.1564 6.87391 43.0893 6.87735C42.9569 6.88595 42.8245 6.90229 42.692 6.90917C42.5046 6.91949 42.3163 6.92121 42.1288 6.91519C42.0204 6.91089 41.913 6.90315 41.8055 6.89627C41.8768 6.90057 42.1374 6.94529 41.7874 6.89627C41.385 6.8378 40.986 6.75782 40.5904 6.66151C40.1949 6.5652 39.8165 6.4603 39.4261 6.34937C39.2627 6.30207 39.0993 6.25392 38.9377 6.19974L38.7313 6.12837C39.0641 6.24618 38.7493 6.12837 38.6788 6.09225C38.5275 6.01744 38.389 5.92887 38.2489 5.8403C38.6487 6.08795 38.0597 5.70271 38.0279 5.67778C38.0795 5.71905 38.2798 5.89017 38.052 5.67778C37.7802 5.4284 37.5205 5.17215 37.272 4.89784C36.9974 4.59457 36.73 4.28501 36.4697 3.96913C36.6469 4.18153 36.2539 3.706 36.2762 3.7318C36.1903 3.63635 36.1043 3.54778 36.0183 3.45749C35.8784 3.31245 35.7399 3.16598 35.6029 3.01807C35.007 2.38002 34.3492 1.82623 33.7189 1.22344C33.4205 0.937947 32.773 1.14862 32.8409 1.61298Z" fill="#E4032F"/>
<path d="M33.3353 2.32269L33.411 2.4362L33.2855 2.01484C33.3087 2.85842 34.2133 3.4036 34.8402 3.82066C35.3818 4.18429 35.943 4.51786 36.5213 4.81987C37.8206 5.50996 39.2262 5.9779 40.6798 6.20433C42.253 6.43107 43.8508 6.42818 45.4231 6.19573C46.9469 5.98161 48.468 5.75288 49.9901 5.53188C50.5164 5.45449 50.9308 5.31518 51.3161 4.9437C51.746 4.52836 51.8888 3.91181 51.7985 3.33911C51.7641 3.09626 51.6804 2.86301 51.5525 2.65374C51.4246 2.44448 51.2551 2.26363 51.0547 2.12233C50.5327 1.73881 50.015 1.71302 49.395 1.82394C47.9618 2.08134 46.5312 2.33932 45.1032 2.59786C44.908 2.63312 44.7137 2.66752 44.5185 2.69933C44.8427 2.64602 44.4213 2.71309 44.325 2.72599C43.9879 2.77243 43.65 2.81198 43.3103 2.83176C42.6134 2.87566 41.9141 2.86013 41.2199 2.78532C41.6051 2.8266 41.078 2.76211 41.0479 2.75695C40.8879 2.73373 40.7288 2.70621 40.5689 2.68042C40.2413 2.62624 39.9128 2.58325 39.5852 2.52735C38.9669 2.42158 38.3503 2.28486 37.7407 2.13953C37.1117 1.98949 36.4916 1.80461 35.8832 1.58575C35.3363 1.38883 34.5005 0.914158 33.8865 1.19105L34.3328 1.17987L34.1901 1.15837C33.5658 1.0655 32.9277 1.71302 33.3388 2.32441L33.3353 2.32269Z" fill="#E4032F"/>
<path d="M36.811 4.78848C37.2092 5.5624 38.1344 5.98117 38.8628 6.39307C39.6888 6.84752 40.5518 7.23126 41.4425 7.54019C42.2565 7.83543 43.0835 8.0934 43.9233 8.31411C44.3547 8.42191 44.7912 8.50801 45.2313 8.57209C45.8667 8.67098 46.5211 8.81114 47.1489 8.6426C48.3863 8.31067 48.6374 6.39995 47.4464 5.82897C46.8986 5.571 46.3225 5.55724 45.7266 5.5022C45.8986 5.51854 45.7747 5.50822 45.675 5.49618C45.5443 5.48071 45.417 5.46437 45.2837 5.44717C44.9913 5.40847 44.699 5.37666 44.4057 5.34742C44.38 5.34742 44.097 5.31474 44.2174 5.3285C44.3378 5.34226 44.0523 5.30786 44.0257 5.30442C43.817 5.27748 43.6083 5.24882 43.3997 5.21843C42.9577 5.15308 42.5174 5.07683 42.0788 4.9897C41.2585 4.82631 40.445 4.64573 39.6229 4.46859C38.7862 4.29059 37.9298 3.93717 37.0698 4.11517C36.7586 4.17966 36.6898 4.55544 36.8119 4.79536L36.811 4.78848Z" fill="#E4032F"/>
<path d="M30.7318 0.811549C30.5211 2.37487 30.872 4.07921 31.3664 5.56686C31.7525 6.72774 32.2461 7.874 32.9143 8.90159C33.6366 10.0092 34.6178 10.9017 35.6823 11.6722C36.7864 12.4711 38.1442 13.2201 39.4831 13.5081C40.7343 13.7807 42.0629 13.8031 43.3347 13.7661C44.6744 13.7274 46.0245 13.6001 47.3161 13.2287C49.3148 12.6493 51.1225 11.5464 52.5521 10.0341C54.6657 7.79059 56.0227 4.70265 56.0123 1.58977C56.0072 0.0728858 53.6269 -0.233243 53.3251 1.2931C53.0809 2.52449 52.9579 3.73439 52.5426 4.92966C52.4566 5.18764 52.6037 4.79982 52.4979 5.04833C52.4411 5.18076 52.3835 5.31318 52.3259 5.44303C52.1929 5.72967 52.0467 6.00685 51.8873 6.27456C51.7337 6.53598 51.5683 6.79051 51.3912 7.03817C51.5219 6.85415 51.2777 7.18349 51.2381 7.23251C51.1235 7.37926 51.0034 7.52258 50.8778 7.66246C50.6714 7.89894 50.4582 8.12853 50.2337 8.35039C50.1237 8.45788 50.011 8.56365 49.8967 8.66598L49.7006 8.83796C49.4426 9.06498 49.8347 8.74079 49.6714 8.86204C49.3126 9.13494 48.9394 9.3884 48.5535 9.62134C48.354 9.73829 48.1519 9.8475 47.9447 9.94983C47.8784 9.98336 47.8105 10.0135 47.7443 10.047C47.7572 10.0401 47.9739 9.94897 47.8217 10.0126C47.6695 10.0762 47.5319 10.1347 47.3849 10.1915C46.7974 10.4105 46.1936 10.583 45.579 10.7074C45.5386 10.716 45.3021 10.7573 45.5412 10.7186C45.4698 10.7306 45.3985 10.7392 45.3271 10.7495C45.1551 10.7719 44.9831 10.7908 44.8111 10.8063C44.5755 10.8278 44.3399 10.8441 44.1034 10.857C43.5663 10.8874 43.0283 10.9006 42.4894 10.8966C42.2027 10.8966 41.9161 10.8888 41.6295 10.8734C41.4873 10.8665 41.344 10.8579 41.1995 10.8476C41.0851 10.839 40.6672 10.79 40.9966 10.833C40.7386 10.8003 40.4892 10.7642 40.239 10.7108C40.1255 10.6868 40.0128 10.6593 39.9019 10.6249C39.8409 10.6077 39.5098 10.4907 39.6663 10.5526C39.846 10.6231 39.6216 10.5311 39.5992 10.5208C39.5132 10.4812 39.4221 10.4443 39.3344 10.4047C39.2037 10.3474 39.0741 10.2863 38.9457 10.2216C38.6292 10.0673 38.3194 9.9011 38.0161 9.72281C37.7392 9.55943 37.4701 9.384 37.2061 9.20084L37.0393 9.08303C37.2327 9.22234 37.0444 9.08303 37.0117 9.05982C36.8699 8.94717 36.728 8.83538 36.5912 8.71585C36.351 8.51119 36.1217 8.29564 35.9033 8.0692C35.801 7.96429 35.7055 7.85336 35.6041 7.74759C35.4029 7.53863 35.8019 8.01846 35.611 7.75877C35.3243 7.37106 35.0641 6.96456 34.8319 6.542C34.6891 6.28402 34.5576 6.02003 34.4286 5.75432C34.3589 5.61157 34.2867 5.46969 34.2179 5.32436C34.1921 5.26933 34.1654 5.21343 34.1396 5.15754C34.0313 4.92794 34.1672 5.22633 34.1035 5.07843C33.8094 4.3948 33.5738 3.68795 33.2797 3.00518C32.9358 2.19945 32.6941 1.34383 32.3003 0.563895C31.9821 -0.0647001 30.8341 0.0866439 30.737 0.808109L30.7318 0.811549Z" fill="#9B002C"/>
<path d="M74.6794 33.1017C75.019 33.1181 75.2736 32.8808 75.535 32.689C75.824 32.4761 76.1002 32.2464 76.3622 32.0011C76.8481 31.5513 77.3477 31.1308 77.8585 30.7112C78.8904 29.865 79.8999 28.9768 80.7633 27.9595C82.4693 25.9499 84.0197 23.8138 85.6493 21.7432C86.0964 21.1748 86.1652 20.3802 85.6028 19.8514C85.1118 19.3836 84.1642 19.3354 83.711 19.8978C82.0531 21.9547 80.5715 24.1432 78.9119 26.1984C78.0666 27.2458 77.3012 28.2819 76.4181 29.3422C75.9924 29.8698 75.5993 30.4229 75.2409 30.9984C75.0509 31.2925 74.8711 31.5874 74.6949 31.8901C74.5289 32.1739 74.3079 32.4164 74.3182 32.7595C74.3229 32.8524 74.363 32.9399 74.4304 33.0039C74.4978 33.0679 74.5873 33.1036 74.6802 33.1035L74.6794 33.1017Z" fill="#9B002C"/>
<path d="M12.4045 32.7355C12.414 32.3975 12.1775 32.1396 12.0133 31.8584C11.849 31.5772 11.6805 31.2977 11.5033 31.0225C11.1295 30.4235 10.7176 29.8491 10.2702 29.3027C9.4748 28.3568 8.63037 27.2166 7.92868 26.3463C6.28969 24.3126 4.82354 22.1465 3.18369 20.1128C2.72966 19.5496 2.00905 19.2624 1.33832 19.6769C0.776798 20.0208 0.452612 20.9495 0.903205 21.5222C2.58863 23.6626 4.1958 25.8665 5.95604 27.9475C6.82885 28.9794 7.84785 29.8978 8.8978 30.7439C9.41374 31.1558 9.90303 31.5789 10.3863 32.0252C10.6477 32.2668 10.9234 32.4925 11.2118 32.7011C11.4775 32.8937 11.7149 33.1156 12.0606 33.0984C12.1535 33.0939 12.2411 33.0538 12.3052 32.9864C12.3693 32.9189 12.4048 32.8294 12.4045 32.7363V32.7355Z" fill="#9B002C"/>
<path d="M16.4864 76.7803C17.1744 77.2713 17.8081 77.5104 18.6448 77.6402C19.5047 77.7718 20.356 77.826 21.2246 77.8733C22.8825 77.9653 24.5404 78.0126 26.1991 78.0564C29.5362 78.143 32.8738 78.2026 36.2119 78.2353C42.9192 78.3006 49.6265 78.2232 56.339 78.1157C58.1907 78.0865 60.0421 78.0484 61.8932 78.0014C62.7961 77.9785 63.6987 77.9532 64.601 77.9257C65.0757 77.912 65.5504 77.897 66.0251 77.881C66.4903 77.8655 66.885 77.8285 67.2117 77.8741C68.1353 78.004 69.0476 77.4356 69.0227 76.4234C68.9986 75.444 68.0579 74.8489 67.1429 75.0631C66.5728 75.1964 65.6811 75.1878 64.9313 75.2247C64.1097 75.2649 63.2885 75.3033 62.4676 75.34C60.8085 75.4145 59.1492 75.4816 57.4896 75.5412C54.1523 75.6616 50.8124 75.7243 47.4725 75.7682C40.7652 75.8565 34.0579 75.8378 27.3506 75.7123C25.5017 75.677 23.6529 75.6134 21.8041 75.5988C20.9047 75.5911 19.9983 75.5481 19.104 75.6194C18.607 75.659 18.1014 75.6693 17.6198 75.8043C17.1967 75.923 16.8459 76.1319 16.477 76.3564C16.305 76.4613 16.3428 76.6788 16.4873 76.7863L16.4864 76.7803Z" fill="#9B002C"/>
<path d="M66.9565 20.911C67.0545 20.2816 66.9935 19.6366 67.0029 19.0003C67.0124 18.364 67.0416 17.7388 67.0889 17.1085C67.1837 15.832 67.3578 14.5626 67.61 13.3077C67.8569 12.0729 68.1741 10.8533 68.5602 9.65478C68.7537 9.05284 68.9489 8.4509 69.1673 7.86358C69.4253 7.17565 69.7022 6.60639 69.5921 5.85569C69.5276 5.418 69.0332 4.976 68.5877 5.31137C68.2687 5.55214 67.991 5.77486 67.8138 6.1429C67.6642 6.44645 67.573 6.79471 67.4699 7.11546C67.2635 7.73632 67.0709 8.36405 66.9092 8.99781C66.5836 10.2994 66.3429 11.6207 66.1886 12.9534C66.0289 14.2637 65.945 15.5821 65.9375 16.9021C65.9375 17.5837 65.9567 18.2651 65.9951 18.9461C66.0347 19.6014 66.0372 20.3013 66.2385 20.9291C66.3451 21.2593 66.904 21.2954 66.9642 20.911H66.9565Z" fill="#9B002C"/>
<path d="M20.1542 20.9114C20.3546 20.2716 20.3529 19.5501 20.3899 18.8828C20.4248 18.2304 20.4409 17.5772 20.438 16.9231C20.4329 15.5514 20.3468 14.1812 20.18 12.8196C20.0155 11.435 19.7695 10.0614 19.4431 8.70579C19.2883 8.07289 19.0991 7.44602 18.9014 6.82602C18.664 6.08994 18.4645 5.45016 17.8351 4.95571C17.4911 4.68828 16.8126 4.73214 16.7421 5.27388C16.6914 5.66084 16.6432 6.00308 16.7499 6.39176C16.8281 6.67639 16.9614 6.94985 17.0654 7.22588C17.2933 7.83727 17.4954 8.45555 17.6949 9.07727C18.1052 10.3581 18.4471 11.6598 18.719 12.977C18.979 14.265 19.1633 15.5671 19.2711 16.8767C19.3244 17.5285 19.3591 18.1809 19.3752 18.8338C19.3898 19.4942 19.3193 20.1779 19.4156 20.8305C19.4766 21.239 20.0227 21.3396 20.1568 20.9122L20.1542 20.9114Z" fill="#9B002C"/>
<path d="M32.921 1.30741C33.2953 1.77572 33.7886 2.13479 34.3493 2.34705C34.8928 2.5603 35.462 2.68413 36.0304 2.8114C37.4304 3.1244 38.8226 3.39012 40.2621 3.41334C43.0585 3.45289 45.8962 3.38668 48.6797 3.09947C50.2677 2.94377 51.842 2.67043 53.3895 2.28169C54.2812 2.05296 53.8676 0.682257 52.975 0.911853C49.6815 1.75887 46.2754 1.90677 42.8908 1.96524C41.171 1.99534 39.4512 2.05124 37.7494 1.77091C36.9841 1.64536 36.2153 1.50519 35.4586 1.32977C34.7707 1.16983 34.0114 0.997845 33.3682 0.698596C32.9563 0.506836 32.6458 0.979786 32.9193 1.31085L32.921 1.30741Z" fill="#9B002C"/>
<path d="M33.6618 1.21298C33.8467 1.73581 34.4074 2.02044 34.87 2.26122C35.436 2.55656 36.0285 2.79811 36.6397 2.98268C37.9485 3.37738 39.3209 3.51583 40.6813 3.5786C43.4528 3.70759 46.2974 3.71361 49.056 3.39114C50.5866 3.21314 52.1009 2.90701 53.5507 2.37988C54.2911 2.11073 53.9411 0.930073 53.1956 1.20267C50.0414 2.35667 46.6817 2.38762 43.3659 2.4504C41.6461 2.48307 39.9108 2.53037 38.2065 2.27153C37.4153 2.15651 36.6336 1.98408 35.8675 1.75559C35.4751 1.63032 35.0897 1.4845 34.7126 1.31875C34.4108 1.19063 34.0961 1.06078 33.7624 1.07884C33.7463 1.0792 33.7304 1.08323 33.7161 1.09061C33.7017 1.09799 33.6892 1.10854 33.6795 1.12146C33.6698 1.13438 33.6632 1.14933 33.6601 1.16519C33.6571 1.18104 33.6577 1.19738 33.6618 1.21298Z" fill="#9B002C"/>
<path d="M32.4282 0.302734C32.1324 0.302734 32.0266 0.587366 32.0068 0.83674C31.9936 0.930144 32.0073 1.02538 32.0463 1.11128C32.0853 1.19717 32.148 1.27018 32.227 1.32173C32.4325 1.43954 32.7429 1.36988 32.8461 1.14201C32.8897 1.05942 32.9024 0.963983 32.8819 0.872866C32.8614 0.78175 32.8091 0.70094 32.7343 0.644979C32.6589 0.589211 32.5658 0.562741 32.4723 0.570492C32.3788 0.578242 32.2913 0.619686 32.2261 0.687115L32.2132 0.700874L32.3852 0.596824L32.6174 0.619182L32.7034 0.705173C32.6967 0.69129 32.6883 0.678292 32.6784 0.666477C32.6707 0.654438 32.6647 0.64154 32.6569 0.630361C32.6251 0.580486 32.6681 0.678516 32.6569 0.640679C32.6545 0.62669 32.6501 0.613096 32.644 0.600264C32.6268 0.569307 32.6492 0.654438 32.644 0.620902C32.644 0.613163 32.6329 0.491915 32.6346 0.554688C32.6392 0.583753 32.6357 0.613545 32.6243 0.640679C32.6429 0.605684 32.6521 0.566447 32.651 0.526816C32.6499 0.487185 32.6385 0.448522 32.618 0.414618C32.5974 0.380713 32.5684 0.352733 32.5338 0.33342C32.4991 0.314108 32.4601 0.304126 32.4205 0.304455L32.4282 0.302734Z" fill="#9B002C"/>
<path d="M32.7447 0.109686C31.9243 4.89423 35.6795 9.37179 40.0883 10.7081C41.0222 10.991 42.0446 11.0701 43.012 11.0951C44.2804 11.1277 45.5917 11.0091 46.8051 10.6161C49.046 9.88688 51.0909 8.40181 52.4151 6.44981C53.5777 4.73601 54.208 2.58021 54.2003 0.508685C54.2003 -0.0321995 53.2948 -0.162046 53.2269 0.401196C53.0282 2.04879 52.7316 3.6594 51.9164 5.13071C50.912 6.93652 49.2816 8.27798 47.4053 9.11468C45.4189 10.0012 43.0739 10.0804 40.9611 9.63664C40.0075 9.43112 39.1011 8.99085 38.2687 8.48522C37.3098 7.91938 36.4243 7.23749 35.6322 6.45497C33.97 4.77212 33.3965 2.35061 32.9777 0.101087C32.9562 -0.015861 32.7636 -0.00640205 32.7447 0.107106V0.109686Z" fill="#221F20"/>
<path d="M75.8743 33.7774C76.7678 32.6862 77.6526 31.6018 78.5891 30.5458C79.5255 29.4899 80.4447 28.4554 81.376 27.4132C82.3219 26.352 83.2678 25.2866 84.1673 24.1859C84.5973 23.6614 85.016 23.1291 85.4211 22.5865C85.7857 22.0981 86.44 21.4557 86.4048 20.8082C86.3902 20.5502 86.127 20.318 85.8596 20.4135C85.2413 20.6336 84.8862 21.4316 84.5138 21.9338C84.1097 22.4799 83.6892 23.013 83.261 23.5401C82.3641 24.6443 81.4259 25.714 80.4843 26.7803C79.559 27.8259 78.6366 28.8765 77.7171 29.9319C76.8082 30.9706 75.8511 32.0576 75.1855 33.2718C74.9568 33.6888 75.557 34.1661 75.8735 33.7774H75.8743Z" fill="#221F20"/>
<path d="M53.5527 0.355263C54.6964 0.96408 55.8951 1.39403 57.1076 1.84291C58.3751 2.31156 59.6607 2.71658 60.954 3.10698C63.5913 3.9024 66.2347 4.66342 68.9047 5.33845C69.6666 5.53107 69.9598 4.34869 69.1997 4.15607C66.5339 3.4819 63.882 2.73464 61.23 2.00629C59.9565 1.65459 58.6976 1.26505 57.4326 0.888407C56.1677 0.511766 54.9527 0.116207 53.637 0.0112983C53.4504 -0.00332021 53.4014 0.274431 53.551 0.355263H53.5527Z" fill="#221F20"/>
<path d="M86.4058 20.7709C85.9818 19.8198 85.177 19.039 84.4753 18.2857C83.323 17.0475 82.0787 15.8909 80.8636 14.718C78.1541 12.1124 75.3929 9.5585 72.6223 7.0209C71.6471 6.1266 70.6978 5.18499 69.6366 4.39216C69.1405 4.02153 68.5119 4.63465 68.9599 5.10416C69.7278 5.9099 70.5722 6.63824 71.3926 7.39067C72.675 8.5653 73.9522 9.7451 75.2243 10.9301C77.9485 13.4642 80.6203 16.0603 83.3634 18.5747C84.2646 19.4002 85.1537 20.2842 86.1727 20.9618C86.2854 21.0366 86.4668 20.9007 86.4092 20.7709H86.4058Z" fill="#221F20"/>
<path d="M67.572 28.6522C68.75 29.7443 70.1078 30.6352 71.4166 31.5613C72.1487 32.0773 72.896 32.5746 73.6584 33.0533C73.9628 33.2433 74.2698 33.429 74.5837 33.6036C74.8975 33.7782 75.2475 34.0232 75.6285 33.9175C75.9578 33.8263 76.0395 33.4634 75.9045 33.1891C75.7592 32.8942 75.3473 32.7764 75.0738 32.6293C74.7402 32.4496 74.4126 32.257 74.0884 32.0609C73.3342 31.6043 72.5999 31.115 71.8526 30.6412C70.5412 29.8019 69.2557 28.7984 67.7818 28.2636C67.5591 28.1836 67.4094 28.5052 67.5677 28.6522H67.572Z" fill="#221F20"/>
<path d="M11.2101 33.2497C10.5437 32.0338 9.58147 30.9494 8.67082 29.9098C7.76018 28.8701 6.83233 27.8099 5.90277 26.7616C4.95687 25.6911 4.01096 24.6179 3.1158 23.5086C2.68928 22.9812 2.27452 22.4455 1.87151 21.9014C1.49573 21.3898 1.1509 20.6322 0.526605 20.4069C0.247994 20.3072 0.010659 20.5789 0.00119997 20.8283C-0.0323366 21.468 0.645273 22.137 1.00644 22.6177C1.41145 23.156 1.83109 23.6832 2.25847 24.2043C3.15879 25.305 4.10212 26.3704 5.04888 27.4315C5.97988 28.4737 6.90858 29.5179 7.83499 30.5642C8.77143 31.6184 9.65542 32.7011 10.5471 33.7914C10.8696 34.1861 11.4337 33.6607 11.2101 33.2531V33.2497Z" fill="#221F20"/>
<path d="M32.7603 0.0122834C31.4704 0.114613 30.2665 0.492973 29.0283 0.864455C27.7384 1.25313 26.4485 1.65041 25.1492 2.00986C22.4964 2.74336 19.8461 3.49062 17.177 4.16565C16.4177 4.35741 16.7694 5.52431 17.5304 5.33169C20.1961 4.65666 22.8429 3.89564 25.4785 3.09592C27.9723 2.3435 30.552 1.57388 32.8609 0.344209C33.02 0.258218 32.9383 -0.00921434 32.7603 0.000244685V0.0122834Z" fill="#221F20"/>
<path d="M0.243451 20.9583C1.11196 20.383 1.86696 19.6417 2.6383 18.9418C3.89549 17.8015 5.10625 16.6097 6.34624 15.4497C9.08878 12.8826 11.8405 10.324 14.6014 7.77411C15.5662 6.8884 16.568 6.03537 17.4718 5.08775C17.8441 4.69649 17.3161 3.98878 16.8569 4.33103C15.9394 5.01896 15.1139 5.81266 14.2695 6.58572C12.9893 7.75634 11.7135 8.93155 10.442 10.1114C7.7178 12.6395 4.93857 15.1496 2.35883 17.8282C1.52988 18.6881 0.509164 19.6297 0.0164349 20.7381C-0.0454787 20.8783 0.102426 21.0546 0.246031 20.9565L0.243451 20.9583Z" fill="#221F20"/>
<path d="M17.8641 28.7855C16.4985 29.3015 15.3058 30.225 14.0805 30.9938C13.445 31.3911 12.8164 31.7978 12.1689 32.1753C11.8714 32.3473 11.5669 32.5193 11.2643 32.6766C10.9968 32.8151 10.6185 32.9131 10.4903 33.2098C10.3605 33.5193 10.4783 33.8117 10.8008 33.9243C11.1232 34.037 11.4612 33.8005 11.7467 33.65C12.0322 33.4996 12.3065 33.3405 12.5816 33.1754C13.2541 32.7721 13.9171 32.3464 14.5594 31.8967C15.7702 31.0505 17.0704 30.2327 18.0988 29.163C18.251 29.0048 18.0859 28.703 17.8658 28.7855H17.8641Z" fill="#221F20"/>
<path d="M17.5146 29.144C17.3426 30.4416 17.3426 31.7771 17.3211 33.0859C17.2936 34.6807 17.2718 36.2764 17.2558 37.873C17.2145 41.6113 17.1887 45.3499 17.1784 49.0888C17.1641 52.9739 17.1489 56.8587 17.1328 60.7432C17.1156 64.0599 17.0967 67.3765 17.0468 70.6932C17.0176 72.7742 17.0004 74.8604 16.8491 76.9362C16.8387 77.0738 16.8267 77.2105 16.8147 77.3481C16.7854 77.692 17.1457 77.9655 17.4587 77.9612C17.8294 77.956 18.0435 77.6542 18.0718 77.3171C18.2301 75.4537 18.1922 73.561 18.2189 71.6933C18.2653 68.4953 18.2808 65.2964 18.2928 62.0976C18.3078 58.2624 18.3166 54.4271 18.3195 50.5919C18.327 46.7946 18.3356 42.9975 18.3453 39.2007C18.3556 36.1712 18.3883 33.1426 18.39 30.114C18.39 29.8182 18.3745 29.531 18.3505 29.236C18.3126 28.7889 17.5765 28.641 17.5112 29.144H17.5146Z" fill="#221F20"/>
<path d="M67.2838 28.7088C67.1789 30.0047 67.2365 31.3332 67.2511 32.6351C67.2683 34.234 67.2801 35.8326 67.2864 37.4308C67.3044 41.2145 67.3087 45.0041 67.319 48.7911C67.3288 52.7123 67.3394 56.6335 67.3509 60.5547C67.3629 63.917 67.3784 67.2792 67.4205 70.6415C67.4472 72.7405 67.4455 74.8482 67.5581 76.9446C67.5658 77.0788 67.5727 77.2138 67.5839 77.3488C67.6518 78.1511 68.9099 78.1227 68.8411 77.3178C68.682 75.4415 68.6545 73.554 68.6227 71.6725C68.5685 68.416 68.5461 65.1595 68.5272 61.9031C68.5043 58.0128 68.4862 54.1226 68.473 50.2323C68.4576 46.404 68.4329 42.5766 68.3991 38.7499C68.3673 35.6826 68.3509 32.6145 68.2168 29.5489C68.2039 29.2565 68.1738 28.9762 68.1308 28.689C68.1139 28.5867 68.0606 28.494 67.9808 28.4278C67.9009 28.3617 67.7998 28.3267 67.6962 28.3292C67.5925 28.3317 67.4933 28.3716 67.4167 28.4415C67.3401 28.5114 67.2914 28.6066 67.2795 28.7096L67.2838 28.7088Z" fill="#221F20"/>
<path d="M17.5071 77.9714C19.2115 78.6697 21.007 78.87 22.8334 78.9767C24.4372 79.0704 26.0435 79.1289 27.6489 79.1856C30.9854 79.3031 34.3233 79.3736 37.6626 79.3971C44.4381 79.4482 51.2125 79.2905 57.9857 78.9242C61.4409 78.7385 64.914 78.5484 68.3494 78.1236C69.0218 78.0376 69.0227 76.9997 68.3227 77.0496C65.2993 77.2663 62.2819 77.532 59.255 77.7031C55.9735 77.8894 52.6895 78.0233 49.403 78.1047C42.6819 78.2767 35.9574 78.2864 29.2294 78.1339C25.4235 78.0428 21.5074 78.0978 17.7686 77.3067C17.3893 77.2259 17.1133 77.8098 17.5106 77.9714H17.5071Z" fill="#221F20"/>
<path d="M33.0597 0.541764C35.3814 1.77832 38.0325 2.20827 40.6269 2.4714C43.5643 2.77323 46.4794 2.59007 49.3868 2.09476C50.2759 1.94342 51.1588 1.7614 52.0353 1.54872C52.6373 1.40254 53.4653 1.29763 53.9546 0.916686C54.3356 0.620876 54.1662 0.105789 53.6967 0.0567745C53.1661 0.000880286 52.5994 0.350864 52.0878 0.48673C51.3697 0.671611 50.6457 0.830694 49.9174 0.97086C48.383 1.26464 46.8324 1.46565 45.2738 1.5728C42.5952 1.75854 39.902 1.54012 37.2672 1.03535C35.9189 0.77738 34.5378 0.543484 33.2351 0.10149C32.9719 0.0154985 32.8206 0.421376 33.0588 0.548643L33.0597 0.541764Z" fill="#221F20"/>
</svg>
