<svg width="118" height="165" viewBox="0 0 118 165" fill="none" xmlns="http://www.w3.org/2000/svg">
<path d="M32.4162 163.401L28.5795 164.078L0.0241476 2.24814C0.00730879 2.15001 -0.000753824 2.05057 5.53628e-05 1.95101C-0.0012995 1.47648 0.170826 1.01783 0.484039 0.661353C0.797252 0.30488 1.22995 0.0751745 1.70071 0.0154667C2.17146 -0.0442412 2.64781 0.0701659 3.0401 0.337157C3.43239 0.604147 3.71357 1.00531 3.83072 1.46515L3.84277 1.53341C3.84277 1.5575 3.84277 1.57557 3.85481 1.59966L4.74823 6.66907L18.3142 83.4992L32.4162 163.401Z" fill="white"/>
<path d="M50.4053 85.0171C45.3982 86.6353 40.2264 87.7496 35.9098 87.5729C26.6464 87.1834 18.443 84.2462 18.2844 83.3568L4.73047 6.53064C5.04969 6.80168 15.5258 15.6877 27.3189 15.4227C30.2441 15.3544 33.6733 14.9167 37.3574 14.2823C37.4417 15.3183 38.3913 26.3846 39.4012 30.3438C40.4673 34.4937 43.1696 46.6502 44.5188 51.7678C45.8178 56.7007 49.4637 77.669 50.4053 85.0171Z" fill="#FE0000"/>
<path d="M117.634 72.5212C117.634 72.5212 106.925 66.444 96.9853 67.1205C92.6748 67.4157 87.483 68.9435 82.4216 70.8769C81.6386 64.2997 78.6592 50.9306 77.31 45.825C75.9609 40.7195 73.2585 28.5589 72.1924 24.401C71.1263 20.2431 70.1426 7.78139 70.1426 7.78139C70.524 7.73722 70.8995 7.70108 71.2689 7.66896C82.6986 6.7153 98.2181 9.03017 105.841 14.475C105.841 14.475 106.347 21.8573 107.405 26.0092C108.463 30.1611 111.168 42.3156 112.523 47.4332C113.878 52.5508 116.863 65.9641 117.634 72.5212Z" fill="#FE0000"/>
<path d="M82.44 70.877C75.8327 73.4026 69.4342 76.623 65.4449 78.6969C60.6085 81.2034 55.5793 83.3189 50.4054 85.0231C49.4638 77.675 45.8178 56.7148 44.5188 51.7678C43.1697 46.6502 40.4673 34.5017 39.4012 30.3438C38.3974 26.3907 37.4417 15.3243 37.3574 14.2823C48.2933 12.3871 61.4717 8.715 70.161 7.77942C70.161 7.77942 71.1528 20.2512 72.2129 24.4011C73.2729 28.5509 75.9813 40.7075 77.3284 45.8251C78.6756 50.9427 81.659 64.2938 82.44 70.877Z" fill="#FE0000"/>
<path d="M75.7493 42.5685C71.6757 43.8012 67.6162 45.0781 63.5526 46.3449C63.4055 46.4017 63.2626 46.4688 63.125 46.5457L63.2133 47.3628C63.649 51.3922 64.0766 55.4237 64.5324 59.4511C64.5906 59.957 64.4741 60.1799 63.9702 60.3525C62.2577 60.9388 60.5571 61.5893 58.7683 62.2478L57.2947 48.6477C52.8336 50.2318 48.515 51.7416 43.9456 52.7595L43.4958 48.6076C43.2951 46.7244 43.3192 46.8187 45.1582 46.2706C48.8162 45.1784 52.4381 43.9738 56.078 42.8295C56.5317 42.6849 56.6 42.4279 56.5518 42.0003C56.1021 38.0197 55.6671 34.0371 55.2468 30.0525C55.1123 28.7917 54.9958 29.0788 56.1322 28.6472C57.7183 28.0449 59.3144 27.4807 60.9868 26.8704L62.4604 40.4704C66.8452 38.8964 71.1718 37.4007 75.7112 36.3788C75.7634 36.6217 75.8196 36.8124 75.8417 37.0072C76.0143 38.5591 76.1589 40.1131 76.3616 41.661C76.444 42.2151 76.2934 42.4058 75.7493 42.5685Z" fill="white"/>
</svg>
