<svg width="55" height="54" viewBox="0 0 50 49" fill="none" xmlns="http://www.w3.org/2000/svg">
<g clip-path="url(#clip0)">
<rect width="51" height="49" rx="12" fill="#31348B"/>
<mask id="path-2-inside-1" fill="white">
<path fill-rule="evenodd" clip-rule="evenodd" d="M20.6966 24.557L-0.474311 44.8977L4.50708 49.6837L25.678 29.343L48.0942 50.8802L53.0756 46.0942L30.6594 24.557L51.8304 4.21628L46.849 -0.569772L25.678 19.771L3.26166 -1.76632L-1.71974 3.01973L20.6966 24.557Z"/>
</mask>
<path fill-rule="evenodd" clip-rule="evenodd" d="M20.6966 24.557L-0.474311 44.8977L4.50708 49.6837L25.678 29.343L48.0942 50.8802L53.0756 46.0942L30.6594 24.557L51.8304 4.21628L46.849 -0.569772L25.678 19.771L3.26166 -1.76632L-1.71974 3.01973L20.6966 24.557Z" fill="#E4032F"/>
<path d="M-0.474311 44.8977L-1.85996 43.4555L-3.36104 44.8977L-1.85996 46.3399L-0.474311 44.8977ZM20.6966 24.557L22.0823 25.9992L23.5833 24.557L22.0823 23.1148L20.6966 24.557ZM4.50708 49.6837L3.12143 51.1259L4.50708 52.4573L5.89274 51.1259L4.50708 49.6837ZM25.678 29.343L27.0637 27.9008L25.678 26.5695L24.2923 27.9008L25.678 29.343ZM48.0942 50.8802L46.7086 52.3224L48.0942 53.6537L49.4799 52.3224L48.0942 50.8802ZM53.0756 46.0942L54.4613 47.5364L55.9624 46.0942L54.4613 44.652L53.0756 46.0942ZM30.6594 24.557L29.2737 23.1148L27.7727 24.557L29.2737 25.9992L30.6594 24.557ZM51.8304 4.21628L53.216 5.65848L54.7171 4.21628L53.216 2.77407L51.8304 4.21628ZM46.849 -0.569772L48.2346 -2.01198L46.849 -3.34329L45.4633 -2.01198L46.849 -0.569772ZM25.678 19.771L24.2923 21.2132L25.678 22.5445L27.0637 21.2132L25.678 19.771ZM3.26166 -1.76632L4.64731 -3.20853L3.26166 -4.53984L1.87601 -3.20853L3.26166 -1.76632ZM-1.71974 3.01973L-3.10539 1.57752L-4.60647 3.01973L-3.10539 4.46194L-1.71974 3.01973ZM0.911345 46.3399L22.0823 25.9992L19.3109 23.1148L-1.85996 43.4555L0.911345 46.3399ZM5.89274 48.2415L0.911343 43.4555L-1.85996 46.3399L3.12143 51.1259L5.89274 48.2415ZM24.2923 27.9008L3.12143 48.2415L5.89274 51.1259L27.0637 30.7853L24.2923 27.9008ZM49.4799 49.438L27.0637 27.9008L24.2923 30.7853L46.7086 52.3224L49.4799 49.438ZM51.69 44.652L46.7086 49.438L49.4799 52.3224L54.4613 47.5364L51.69 44.652ZM29.2737 25.9992L51.69 47.5364L54.4613 44.652L32.045 23.1148L29.2737 25.9992ZM50.4447 2.77407L29.2737 23.1148L32.045 25.9992L53.216 5.65848L50.4447 2.77407ZM45.4633 0.872437L50.4447 5.65849L53.216 2.77407L48.2346 -2.01198L45.4633 0.872437ZM27.0637 21.2132L48.2346 0.872438L45.4633 -2.01198L24.2923 18.3287L27.0637 21.2132ZM1.87601 -0.324111L24.2923 21.2132L27.0637 18.3287L4.64731 -3.20853L1.87601 -0.324111ZM-0.334089 4.46194L4.64731 -0.324111L1.87601 -3.20853L-3.10539 1.57752L-0.334089 4.46194ZM22.0823 23.1148L-0.334089 1.57752L-3.10539 4.46194L19.311 25.9992L22.0823 23.1148Z" fill="white" mask="url(#path-2-inside-1)"/>
<mask id="path-4-inside-2" fill="white">
<path fill-rule="evenodd" clip-rule="evenodd" d="M19.5868 30.0186V65.0565H31.2439V30.0186H67.7119V18.8186H31.2439V-16.1814H19.5868V18.8186H-16.8418V30.0186H19.5868Z"/>
</mask>
<path fill-rule="evenodd" clip-rule="evenodd" d="M19.5868 30.0186V65.0565H31.2439V30.0186H67.7119V18.8186H31.2439V-16.1814H19.5868V18.8186H-16.8418V30.0186H19.5868Z" fill="#E4032F"/>
<path d="M19.5868 65.0565H16.5868V68.0565H19.5868V65.0565ZM19.5868 30.0186H22.5868V27.0186H19.5868V30.0186ZM31.2439 65.0565V68.0565H34.2439V65.0565H31.2439ZM31.2439 30.0186V27.0186H28.2439V30.0186H31.2439ZM67.7119 30.0186V33.0186H70.7119V30.0186H67.7119ZM67.7119 18.8186H70.7119V15.8186H67.7119V18.8186ZM31.2439 18.8186H28.2439V21.8186H31.2439V18.8186ZM31.2439 -16.1814H34.2439V-19.1814H31.2439V-16.1814ZM19.5868 -16.1814V-19.1814H16.5868V-16.1814H19.5868ZM19.5868 18.8186V21.8186H22.5868V18.8186H19.5868ZM-16.8418 18.8186V15.8186H-19.8418V18.8186H-16.8418ZM-16.8418 30.0186H-19.8418V33.0186H-16.8418V30.0186ZM22.5868 65.0565V30.0186H16.5868V65.0565H22.5868ZM31.2439 62.0565H19.5868V68.0565H31.2439V62.0565ZM28.2439 30.0186V65.0565H34.2439V30.0186H28.2439ZM67.7119 27.0186H31.2439V33.0186H67.7119V27.0186ZM64.7119 18.8186V30.0186H70.7119V18.8186H64.7119ZM31.2439 21.8186H67.7119V15.8186H31.2439V21.8186ZM28.2439 -16.1814V18.8186H34.2439V-16.1814H28.2439ZM19.5868 -13.1814H31.2439V-19.1814H19.5868V-13.1814ZM22.5868 18.8186V-16.1814H16.5868V18.8186H22.5868ZM-16.8418 21.8186H19.5868V15.8186H-16.8418V21.8186ZM-13.8418 30.0186V18.8186H-19.8418V30.0186H-13.8418ZM19.5868 27.0186H-16.8418V33.0186H19.5868V27.0186Z" fill="white" mask="url(#path-4-inside-2)"/>
</g>
<defs>
<clipPath id="clip0">
<rect width="51" height="49" rx="12" fill="white"/>
</clipPath>
</defs>
</svg>
