<svg width="1289" height="946" viewBox="0 0 1289 946" fill="none" xmlns="http://www.w3.org/2000/svg">
<path d="M1272.29 340.55C1278.03 340.55 1277.84 331.639 1272.07 331.639C1266.31 331.639 1266.53 340.55 1272.29 340.55Z" fill="white"/>
<path d="M1272.35 582.994C1281.09 582.994 1280.75 569.412 1272.01 569.412C1263.28 569.412 1263.62 582.994 1272.35 582.994Z" fill="white"/>
<path d="M328.347 161.162C333.502 161.162 333.308 153.166 328.153 153.166C322.997 153.166 323.191 161.162 328.347 161.162Z" fill="white"/>
<path d="M125.575 266.143C129.552 266.143 129.4 259.962 125.422 259.962C121.445 259.962 121.598 266.143 125.575 266.143Z" fill="white"/>
<path d="M175.201 439.986C182.573 439.986 182.282 428.553 174.91 428.553C167.537 428.553 167.828 439.986 175.201 439.986Z" fill="white"/>
<path d="M265.223 650.624C268.23 650.624 268.106 645.968 265.112 645.968C262.119 645.968 262.23 650.624 265.223 650.624Z" fill="white"/>
<path d="M661.718 235.071C661.995 234.98 662.236 234.803 662.407 234.567C662.579 234.33 662.671 234.046 662.671 233.754C662.671 233.462 662.579 233.178 662.407 232.941C662.236 232.705 661.995 232.529 661.718 232.438C661.44 232.529 661.199 232.705 661.028 232.941C660.857 233.178 660.765 233.462 660.765 233.754C660.765 234.046 660.857 234.33 661.028 234.567C661.199 234.803 661.44 234.98 661.718 235.071Z" fill="white"/>
<path d="M668.48 132.101C671.016 132.101 670.919 128.151 668.383 128.151C665.847 128.151 665.93 132.101 668.48 132.101Z" fill="white"/>
<path d="M923.178 360.659C932.879 360.659 932.463 345.664 922.804 345.664C913.145 345.664 913.533 360.659 923.178 360.659Z" fill="white"/>
<path d="M778.888 391.993C782.463 391.993 782.325 386.449 778.749 386.449C775.174 386.449 775.299 391.993 778.888 391.993Z" fill="white"/>
<path d="M666.263 812.106C671.224 812.106 671.03 804.4 666.083 804.4C661.135 804.4 661.315 812.106 666.263 812.106Z" fill="white"/>
<path d="M668.536 695.818C674.606 695.818 674.37 686.394 668.314 686.394C662.258 686.394 662.48 695.818 668.536 695.818Z" fill="white"/>
<path d="M143.659 660.727C150.963 660.727 150.686 649.377 143.382 649.377C136.079 649.377 136.356 660.727 143.659 660.727Z" fill="white"/>
<path d="M420.725 835.333C426.601 835.333 426.365 826.228 420.503 826.228C414.641 826.228 414.863 835.333 420.725 835.333Z" fill="white"/>
<path d="M609.944 597.823C614.572 597.823 614.392 590.63 609.764 590.63C605.135 590.63 605.315 597.823 609.944 597.823Z" fill="white"/>
<path d="M1105.59 128.221C1111.86 128.221 1111.61 118.52 1105.36 118.52C1099.11 118.52 1099.33 128.221 1105.59 128.221Z" fill="white"/>
<path d="M1056.06 12.3481C1064.02 12.3481 1063.71 0 1055.76 0C1047.8 0 1048.11 12.3481 1056.06 12.3481Z" fill="white"/>
<path d="M1146.09 443.659C1149.48 443.659 1149.34 438.393 1145.96 438.393C1142.58 438.393 1142.69 443.659 1146.09 443.659Z" fill="white"/>
<path d="M974.911 587.899C978.376 587.899 978.237 582.536 974.786 582.536C971.336 582.536 971.46 587.899 974.911 587.899Z" fill="white"/>
<path d="M1206.95 945.481C1212.49 945.481 1212.29 936.875 1206.74 936.875C1201.2 936.875 1201.41 945.481 1206.95 945.481Z" fill="white"/>
<path d="M812.48 543.136C816.333 543.136 816.18 537.149 812.341 537.149C808.503 537.149 808.641 543.136 812.48 543.136Z" fill="white"/>
<path d="M1272.26 170.683C1276.3 170.683 1276.15 164.405 1272.1 164.405C1268.05 164.405 1268.22 170.683 1272.26 170.683Z" fill="white"/>
<path d="M603.805 286.542C603.999 286.848 604.227 287.131 604.484 287.387C605.043 288.215 605.807 288.883 606.701 289.327L607.117 289.535C608.975 290.561 611.164 290.806 613.203 290.218C615.242 289.629 616.963 288.254 617.989 286.396C619.014 284.538 619.259 282.349 618.671 280.31C618.082 278.271 616.708 276.55 614.85 275.524C613.605 274.835 612.197 274.495 610.775 274.54C609.357 274.565 607.972 274.977 606.77 275.732C605.461 276.471 604.375 277.548 603.625 278.85C602.964 280.031 602.632 281.368 602.664 282.721C602.696 284.073 603.09 285.393 603.805 286.542Z" fill="white"/>
<path d="M1249.72 716.369C1253.18 716.369 1253.04 711.006 1249.59 711.006C1246.14 711.006 1246.27 716.369 1249.72 716.369Z" fill="white"/>
<path d="M938.797 730.977C939.188 730.932 939.549 730.743 939.808 730.446C940.067 730.149 940.206 729.766 940.198 729.372C940.189 728.978 940.033 728.602 939.761 728.317C939.489 728.031 939.12 727.858 938.727 727.831C938.336 727.876 937.975 728.065 937.716 728.362C937.456 728.659 937.317 729.042 937.326 729.436C937.335 729.83 937.49 730.206 937.763 730.491C938.035 730.777 938.403 730.95 938.797 730.977Z" fill="white"/>
<path d="M862.175 905.195C862.258 905.195 862.245 905.07 862.175 905.07C862.106 905.07 862.175 905.195 862.175 905.195Z" fill="white"/>
<path d="M1040.46 421.997C1040.89 421.986 1041.3 421.805 1041.59 421.493C1041.89 421.181 1042.05 420.764 1042.04 420.334C1042.03 419.904 1041.85 419.496 1041.54 419.2C1041.22 418.904 1040.81 418.743 1040.38 418.754C1039.95 418.765 1039.54 418.947 1039.24 419.259C1038.95 419.571 1038.79 419.987 1038.8 420.417C1038.81 420.848 1038.99 421.256 1039.3 421.552C1039.61 421.848 1040.03 422.008 1040.46 421.997Z" fill="white"/>
<path d="M1123.07 616.241C1127.23 616.241 1127.09 609.769 1122.9 609.769C1118.72 609.769 1118.9 616.241 1123.07 616.241Z" fill="white"/>
<path d="M1287.63 831.84C1287.89 831.81 1288.13 831.686 1288.31 831.49C1288.48 831.295 1288.58 831.042 1288.58 830.78C1288.58 830.518 1288.48 830.265 1288.31 830.07C1288.13 829.874 1287.89 829.75 1287.63 829.72C1287.37 829.75 1287.13 829.874 1286.96 830.07C1286.78 830.265 1286.69 830.518 1286.69 830.78C1286.69 831.042 1286.78 831.295 1286.96 831.49C1287.13 831.686 1287.37 831.81 1287.63 831.84Z" fill="white"/>
<path d="M3.45712 633.356C7.96101 633.356 7.79471 626.427 3.29082 626.427C-1.21307 626.427 -1.03291 633.356 3.45712 633.356Z" fill="white"/>
<path d="M212.922 880.374C215.86 880.374 215.694 875.814 212.811 875.814C209.929 875.814 210.04 880.374 212.922 880.374Z" fill="white"/>
<path d="M1287.63 41.576C1287.91 41.5453 1288.16 41.4146 1288.35 41.2088C1288.53 41.003 1288.63 40.7365 1288.63 40.4604C1288.63 40.1842 1288.53 39.9177 1288.35 39.7119C1288.16 39.5061 1287.91 39.3754 1287.63 39.3447C1287.36 39.3754 1287.11 39.5061 1286.92 39.7119C1286.74 39.9177 1286.64 40.1842 1286.64 40.4604C1286.64 40.7365 1286.74 41.003 1286.92 41.2088C1287.11 41.4146 1287.36 41.5453 1287.63 41.576Z" fill="white"/>
<path d="M58.6122 496.308L38.4902 502.642L55.3694 504.485L48.7175 523.887L61.4393 508.074L76.4615 524.455C74.6137 518.043 72.7383 511.622 70.8351 505.192C77.6766 504.678 84.4124 503.209 90.8462 500.826C83.2118 498.457 75.3625 496.846 67.4121 496.017C67.0211 490.252 65.7111 484.586 63.5318 479.234C61.9243 484.667 60.3214 490.104 58.7231 495.546" fill="white"/>
<path d="M89.3776 780.841L75.3394 789.073L88.3521 787.548L86.6891 803.32L93.5351 789.239L107.656 798.94L100.104 785.414C105.173 783.867 110.001 781.619 114.447 778.734C108.296 778.263 102.114 778.389 95.9879 779.109C94.6946 774.841 92.7349 770.804 90.1814 767.148C89.9227 771.519 89.6502 775.884 89.3638 780.245" fill="white"/>
<path d="M531.451 495.892H519.367L527.793 500.41L519.644 511.344L530.107 503.902C531.438 508.346 532.759 512.79 534.071 517.234L535.734 503.958C539.487 505.002 543.388 505.419 547.277 505.191C543.89 502.197 540.17 499.603 536.191 497.458C537.351 493.775 538.013 489.953 538.159 486.094C536.025 489.217 533.881 492.326 531.729 495.421" fill="white"/>
<path d="M656.978 36.6568L648.774 45.5125L657.81 42.4081C658.641 46.8799 659.468 51.347 660.29 55.8095L661.953 43.0872L674.426 49.2405L665.875 38.9989C669.197 36.9551 672.156 34.3747 674.634 31.3628C670.125 31.8218 665.684 32.7983 661.399 34.2731C659.486 30.9165 657.132 27.831 654.401 25.0986C655.232 28.785 656.05 32.4715 656.881 36.1856" fill="white"/>
<path d="M1093.7 257.162L1081.62 256.857L1089.93 261.583L1081.52 272.309L1092.16 265.131C1093.37 269.602 1094.58 274.079 1095.8 278.56C1096.45 274.153 1097.11 269.746 1097.78 265.339C1101.51 266.469 1105.4 266.979 1109.29 266.849C1105.97 263.767 1102.3 261.083 1098.36 258.853C1099.61 255.201 1100.37 251.397 1100.62 247.544C1098.4 250.593 1096.17 253.642 1093.95 256.705" fill="white"/>
<path d="M924.135 78.2458L918.245 82.1263L923.788 81.6274L923.331 89.5684L926.103 82.639L932.325 87.8638C931.175 85.5216 930.011 83.1934 928.86 80.9344C931.027 80.2323 933.064 79.1789 934.889 77.8162C932.267 77.4474 929.612 77.3823 926.976 77.6222C926.356 75.4569 925.452 73.3832 924.287 71.4551C924.287 73.6586 924.19 75.8621 924.149 78.0657" fill="white"/>
<path d="M1101.3 826.45L1095.41 830.331L1100.95 829.832L1100.49 837.773L1103.26 830.843L1109.47 836.054L1106.02 829.056C1108.19 828.359 1110.23 827.305 1112.05 825.937C1109.43 825.573 1106.77 825.513 1104.14 825.757C1103.5 823.58 1102.57 821.501 1101.37 819.576L1101.24 826.201" fill="white"/>
<path d="M307.518 263.384L299.3 272.24L308.336 269.136L310.83 282.537C311.366 278.296 311.916 274.051 312.479 269.801L324.952 275.954L316.346 265.726C319.66 263.673 322.614 261.089 325.09 258.076C320.581 258.542 316.141 259.523 311.856 261.001C309.963 257.649 307.633 254.563 304.927 251.826C305.74 255.522 306.562 259.217 307.393 262.913" fill="white"/>
<path d="M26.9189 65.4404L14.8485 65.1355L23.1633 69.8613L14.7515 80.5879L25.3945 73.4091C26.6048 77.8809 27.815 82.3572 29.0253 86.8382C29.672 82.4311 30.3326 78.0241 31.007 73.617C34.7372 74.7473 38.6276 75.2576 42.5231 75.1276C39.1988 72.0457 35.5298 69.3578 31.5891 67.1173C32.8437 63.4655 33.6034 59.6621 33.8479 55.8086L27.1683 65.0108" fill="white"/>
<path d="M872.916 822.763L860.845 822.459L869.16 827.184L860.748 837.911L871.391 830.746C872.601 835.209 873.812 839.68 875.022 844.161C875.687 839.754 876.408 835.347 877.004 830.94C880.734 832.069 884.624 832.58 888.52 832.451C885.199 829.369 881.529 826.685 877.586 824.454C878.839 820.802 879.599 816.999 879.845 813.146L873.179 822.306" fill="white"/>
</svg>
