<svg width="114" height="158" viewBox="0 0 114 158" fill="none" xmlns="http://www.w3.org/2000/svg">
<path d="M32.4858 160.336L28.7211 161L0.701429 2.20598C0.684906 2.10968 0.676995 2.01211 0.677789 1.91441C0.676459 1.44879 0.845356 0.998733 1.15269 0.648947C1.46003 0.299161 1.88462 0.0737644 2.34654 0.0151765C2.80846 -0.0434114 3.27588 0.0688498 3.66081 0.330832C4.04574 0.592815 4.32164 0.986453 4.4366 1.43766L4.44842 1.50465C4.44842 1.52829 4.44842 1.54602 4.46024 1.56966L5.31326 6.4041C5.31326 6.4041 5.31326 6.45335 5.3369 6.54397L6.81836 14.9501V14.9777L7.54924 19.0871L7.59061 19.3393C7.59561 19.3883 7.6035 19.437 7.61425 19.4851C7.70487 20.0229 7.7955 20.5193 7.88021 20.9902C7.92355 21.2187 7.95901 21.4492 8.00235 21.6718C8.04569 21.8944 8.08115 22.1072 8.11661 22.3259C8.20723 22.8519 8.29785 23.3582 8.38847 23.8546C8.39479 23.9207 8.40465 23.9865 8.41803 24.0516C8.43773 24.1363 8.44955 24.221 8.46728 24.3057C8.46728 24.3589 8.48501 24.4082 8.49092 24.4555C8.61306 25.1509 8.73323 25.8345 8.86522 26.5831L8.98145 27.2352C9.02282 27.4598 9.06025 27.6824 9.10162 27.9188L9.18043 28.366C9.20998 28.5177 9.23362 28.6733 9.26514 28.8309C9.29666 28.9885 9.33212 29.1993 9.36167 29.3923C9.39122 29.5322 9.41486 29.676 9.44047 29.8218L10.1536 33.8761V33.8998V33.9195V33.9313V33.9668L10.2147 34.3292L10.2442 34.4868L10.914 38.2988V38.3244L12.2931 46.1494L13.0358 50.3672L13.0476 50.4027L13.0653 50.511L13.6938 54.0748L16.0144 67.2366L17.7126 76.8739L18.3174 80.29L18.5775 81.7695C18.5775 81.7695 18.5775 81.7813 18.5775 81.7931C18.5775 81.8049 18.5775 81.7931 18.5775 81.8049L18.5952 81.8955V81.9152L32.4858 160.336Z" fill="white"/>
<path d="M18.0472 79.9309L5.26666 7.48797C6.41033 8.35753 8.42653 9.78277 11.0261 11.1805C15.0343 13.3356 20.4728 15.4489 26.2607 15.3189L26.2612 15.3189C28.9638 15.2558 32.0955 14.8694 35.4429 14.3074C35.5376 15.4003 35.7558 17.806 36.0466 20.4413C36.4053 23.6922 36.8791 27.3376 37.3745 29.2798L37.3747 29.2807C37.8273 31.0426 38.5891 34.3165 39.4116 37.8514C39.5165 38.3022 39.6223 38.7572 39.7287 39.2138C40.6673 43.2444 41.6424 47.4021 42.2929 49.8694C43.5094 54.4896 46.9017 73.9477 47.8827 81.3412C43.2189 82.8195 38.4734 83.8079 34.5251 83.6464C30.118 83.4611 25.9602 82.6692 22.8891 81.8187C21.3528 81.3932 20.0984 80.9558 19.2264 80.5771C18.7884 80.3869 18.461 80.2175 18.2459 80.0788C18.1465 80.0146 18.0834 79.9648 18.0472 79.9309ZM18.019 79.9008C18.0192 79.9008 18.0207 79.9027 18.0233 79.9063C18.0201 79.9027 18.0188 79.9008 18.019 79.9008Z" fill="#002654" stroke="white"/>
<path d="M93.1762 63.9895C89.1289 64.2665 84.3237 65.6485 79.6317 67.4054C78.7733 60.8642 76.0432 48.6543 74.7864 43.8984C74.1405 41.4543 73.1692 37.3149 72.2295 33.2784C72.1104 32.7667 71.9918 32.2566 71.8744 31.7518C71.0676 28.2823 70.3198 25.0664 69.872 23.3164C69.3716 21.3613 68.8818 17.4076 68.5157 13.9046C68.3335 12.1613 68.1831 10.5421 68.0783 9.35874C68.026 8.76711 67.985 8.28455 67.9571 7.95003C67.9561 7.93816 67.9551 7.92648 67.9541 7.91499C68.1514 7.89518 68.3462 7.87712 68.5389 7.86141L68.5389 7.86141L68.5398 7.86134C73.9854 7.40706 80.4154 7.73114 86.3918 8.81835C92.2732 9.88827 97.6607 11.6875 101.238 14.1677C101.24 14.1919 101.242 14.2179 101.244 14.2455C101.259 14.4486 101.282 14.7428 101.313 15.1081C101.375 15.8387 101.468 16.8544 101.593 17.9956C101.842 20.27 102.22 23.0709 102.738 25.1014C103.174 26.8105 103.902 29.9416 104.696 33.3536C104.825 33.9087 104.956 34.4714 105.088 35.0365C106.027 39.0677 107.004 43.2259 107.656 45.6934C108.892 50.3653 111.547 62.2439 112.432 68.7831C112.176 68.6518 111.867 68.497 111.51 68.3248C110.384 67.7818 108.784 67.0652 106.883 66.369C103.089 64.9802 98.0527 63.6565 93.1763 63.9895L93.1762 63.9895Z" fill="#CE1126" stroke="white"/>
<path d="M62.6529 75.1733C58.2082 77.4768 53.5932 79.4348 48.8487 81.0302C47.8339 73.4838 44.4816 54.2697 43.2593 49.6149L43.2592 49.6144C42.6133 47.1643 41.6419 43.0248 40.702 38.9898C40.5912 38.5139 40.4807 38.0394 40.3714 37.5694C39.555 34.0615 38.7961 30.8004 38.3429 29.0325C37.8707 27.1729 37.4031 23.6011 37.0421 20.3358C36.7438 17.638 36.5214 15.1802 36.4312 14.1368C40.7722 13.3692 45.4594 12.3248 50.035 11.3053C50.8855 11.1158 51.7322 10.9272 52.5721 10.7413C57.875 9.56791 62.9007 8.50741 66.9584 8.02936C66.9586 8.03259 66.9589 8.03584 66.9592 8.0391C66.9873 8.37531 67.0286 8.85986 67.0813 9.4537C67.1867 10.6412 67.3379 12.2665 67.521 14.0171C67.8856 17.5018 68.3815 21.5336 68.9016 23.5697C69.3455 25.3073 70.0921 28.5148 70.9016 31.9927C71.0178 32.492 71.1353 32.9967 71.2534 33.5036C72.1925 37.5343 73.1685 41.6918 73.818 44.1589C75.0845 48.9703 77.8563 61.3617 78.6692 67.7767C72.4236 70.1918 66.4168 73.2165 62.6529 75.1733Z" fill="white" stroke="white"/>
<path d="M79.2207 68.1405C79.2207 68.1282 79.2207 68.1099 79.2207 68.0977" stroke="white" stroke-width="3.07" stroke-miterlimit="10"/>
<path d="M35.8959 13.7205C35.8941 13.6983 35.8941 13.6761 35.8959 13.6539" stroke="white" stroke-width="3.07" stroke-miterlimit="10"/>
</svg>
