<svg width="74" height="47" viewBox="0 0 74 47" fill="none" xmlns="http://www.w3.org/2000/svg">
<path d="M18.2623 10.5452L12.2015 0.958008C12.2015 0.958008 8.42341 16.0865 7.995 23.5355L18.2623 10.5452Z" fill="#F29E38"/>
<path d="M56.1758 10.5452L62.2325 0.958008C62.2325 0.958008 66.0106 16.0865 66.4377 23.5355L56.1758 10.5452Z" fill="#F29E38"/>
<path d="M58.504 12.7531L61.3798 8.20117C61.3798 8.20117 63.1724 15.3812 63.3746 18.9116L58.504 12.7531Z" fill="#FFCA85"/>
<path d="M15.9342 12.7531L13.0584 8.20117C13.0584 8.20117 11.2671 15.3812 11.0636 18.9116L15.9342 12.7531Z" fill="#FFCA85"/>
<path d="M66.7002 26.7629C66.7002 45.5449 50.1473 46.9306 37.1127 46.9306C24.0781 46.9306 7.99646 44.6988 7.99646 25.5753C7.99646 16.1663 15.0988 11.3278 22.3216 8.84034C24.8551 7.98528 27.4556 7.34354 30.096 6.92184C30.7654 6.81072 31.4054 6.71701 32.0092 6.63936C34.419 6.32608 36.2492 6.23772 36.9842 6.21897H37.0083C37.2225 6.21228 37.3363 6.21094 37.3363 6.21094L37.5947 6.22299H37.6094C38.6041 6.26985 40.133 6.36356 41.9832 6.58313C42.1586 6.60455 42.338 6.62463 42.5188 6.64873C45.3228 6.99646 48.0924 7.58093 50.7979 8.39586C58.6178 10.8084 66.7002 15.9039 66.7002 26.7629Z" fill="#F29E38"/>
<path d="M24.4115 28.6927C27.6131 28.6927 30.2085 26.0972 30.2085 22.8956C30.2085 19.694 27.6131 17.0986 24.4115 17.0986C21.2099 17.0986 18.6145 19.694 18.6145 22.8956C18.6145 26.0972 21.2099 28.6927 24.4115 28.6927Z" fill="white"/>
<path d="M25.042 26.5552C27.4761 26.5552 29.4493 24.7312 29.4493 22.4812C29.4493 20.2312 27.4761 18.4072 25.042 18.4072C22.6079 18.4072 20.6346 20.2312 20.6346 22.4812C20.6346 24.7312 22.6079 26.5552 25.042 26.5552Z" fill="#098C60"/>
<path d="M34.9331 27.4502C34.9702 27.7122 35.0678 27.9619 35.2181 28.1797C35.3685 28.3974 35.5675 28.5771 35.7993 28.7046C36.0091 28.8068 36.238 28.8636 36.4712 28.8714C36.7044 28.8793 36.9367 28.838 37.1528 28.7502C37.3109 28.6782 37.4526 28.5748 37.5695 28.4464C37.6865 28.318 37.7761 28.1672 37.833 28.0031C37.9062 27.8121 37.9434 27.6092 37.9427 27.4047C37.9427 27.3603 37.9251 27.3177 37.8937 27.2863C37.8623 27.2549 37.8198 27.2373 37.7754 27.2373C37.731 27.2373 37.6884 27.2549 37.657 27.2863C37.6257 27.3177 37.608 27.3603 37.608 27.4047C37.608 27.4448 37.608 27.4836 37.608 27.5238C37.6063 27.5544 37.6023 27.5848 37.596 27.6148C37.5853 27.6724 37.5732 27.7286 37.5572 27.7849C37.4977 28.0335 37.3454 28.25 37.1314 28.39C36.9624 28.4801 36.7754 28.5312 36.5841 28.5398C36.3928 28.5484 36.202 28.5141 36.0256 28.4395C35.7538 28.3155 35.5357 28.0979 35.4111 27.8264C35.3367 27.68 35.286 27.5227 35.2611 27.3605C35.2492 27.318 35.221 27.2819 35.1827 27.2601C35.1443 27.2383 35.0989 27.2325 35.0563 27.244C35.0138 27.2565 34.9778 27.2849 34.9559 27.3234C34.9339 27.3618 34.9277 27.4072 34.9385 27.4502H34.9331Z" fill="#221F20"/>
<path d="M16.2729 29.632C17.4641 29.632 18.4297 28.6663 18.4297 27.4752C18.4297 26.284 17.4641 25.3184 16.2729 25.3184C15.0817 25.3184 14.1161 26.284 14.1161 27.4752C14.1161 28.6663 15.0817 29.632 16.2729 29.632Z" fill="#FED5EE"/>
<path d="M57.4062 29.632C58.5974 29.632 59.563 28.6663 59.563 27.4752C59.563 26.284 58.5974 25.3184 57.4062 25.3184C56.215 25.3184 55.2494 26.284 55.2494 27.4752C55.2494 28.6663 56.215 29.632 57.4062 29.632Z" fill="#FED5EE"/>
<path d="M26.508 21.8926C27.115 21.8926 27.6071 21.4005 27.6071 20.7935C27.6071 20.1864 27.115 19.6943 26.508 19.6943C25.9009 19.6943 25.4088 20.1864 25.4088 20.7935C25.4088 21.4005 25.9009 21.8926 26.508 21.8926Z" fill="white"/>
<path d="M48.9663 28.6927C52.1679 28.6927 54.7633 26.0972 54.7633 22.8956C54.7633 19.694 52.1679 17.0986 48.9663 17.0986C45.7647 17.0986 43.1693 19.694 43.1693 22.8956C43.1693 26.0972 45.7647 28.6927 48.9663 28.6927Z" fill="white"/>
<path d="M49.5982 26.5552C52.0323 26.5552 54.0056 24.7312 54.0056 22.4812C54.0056 20.2312 52.0323 18.4072 49.5982 18.4072C47.1641 18.4072 45.1909 20.2312 45.1909 22.4812C45.1909 24.7312 47.1641 26.5552 49.5982 26.5552Z" fill="#098C60"/>
<path d="M51.0644 21.8926C51.6714 21.8926 52.1635 21.4005 52.1635 20.7935C52.1635 20.1864 51.6714 19.6943 51.0644 19.6943C50.4573 19.6943 49.9652 20.1864 49.9652 20.7935C49.9652 21.4005 50.4573 21.8926 51.0644 21.8926Z" fill="white"/>
<path d="M36.3308 23.7012C36.3308 23.7012 34.7242 23.8243 34.7242 24.6865C34.7242 25.5487 36.063 26.0253 36.4299 26.0253C36.7967 26.0253 38.1342 25.3412 38.1342 24.8686C38.1342 24.396 37.8088 23.7012 36.3308 23.7012Z" fill="#FED5EE"/>
<path d="M72.1117 23.2129L69.8986 23.814L66.3736 24.7726L65.5703 24.9921C65.1552 25.1059 65.332 25.7512 65.7483 25.6374L67.9547 25.0403L71.4797 24.0804L72.283 23.8608C72.6981 23.747 72.5213 23.1017 72.105 23.2155L72.1117 23.2129Z" fill="#F29E38"/>
<path d="M65.5636 30.6762L67.7766 31.2773L71.303 32.2372L72.1063 32.4568C72.5227 32.5706 72.6994 31.9213 72.2844 31.8115L70.0713 31.2104L66.5462 30.2505L65.743 30.0309C65.3266 29.9171 65.1499 30.5664 65.5649 30.6762H65.5636Z" fill="#F29E38"/>
<path d="M73.6565 27.3799H65.2796C64.8485 27.3799 64.8472 28.0493 65.2796 28.0493H73.6565C74.0876 28.0493 74.0876 27.3799 73.6565 27.3799Z" fill="#F29E38"/>
<path d="M2.27973 24.1927L4.49277 24.7938L8.01783 25.7537L8.82781 25.9773C9.24284 26.0911 9.4209 25.4418 9.00453 25.332L6.79283 24.7309L3.26643 23.771L2.46315 23.5514C2.04678 23.4376 1.86872 24.0869 2.28509 24.1967L2.27973 24.1927Z" fill="#F29E38"/>
<path d="M8.82772 30.3669L6.61468 30.968L3.08828 31.928L2.285 32.1475C1.86997 32.26 2.04669 32.9066 2.46306 32.7928L4.66405 32.1917L8.19045 31.2318L8.99373 31.0122C9.41009 30.8984 9.23337 30.2531 8.81701 30.3669H8.82772Z" fill="#F29E38"/>
<path d="M0.915497 28.3872H9.29237C9.72347 28.3872 9.72347 27.7178 9.29237 27.7178H0.915497C0.484404 27.7178 0.483065 28.3872 0.915497 28.3872Z" fill="#F29E38"/>
<path d="M30.9944 6.84296L36.4353 17.0995L41.9859 6.58591C41.9859 6.58591 36.4446 5.60859 30.9944 6.84296Z" fill="#F1B257"/>
<path d="M50.8005 8.39752C49.5834 8.95004 48.466 9.70007 47.4937 10.6172C45.6193 12.442 43.978 15.0085 43.978 15.0085L43.5857 12.7553L42.8427 8.49124L42.5214 6.65039C45.3254 6.99813 48.095 7.58259 50.8005 8.39752Z" fill="#F1B257"/>
<path d="M30.0907 6.9209L29.7721 8.75104L29.183 12.1355L28.6823 15.0086C25.4156 10.5718 22.3163 8.84074 22.3163 8.84074C24.8497 7.98522 27.4502 7.34303 30.0907 6.9209Z" fill="#F1B257"/>
</svg>
