<svg width="93" height="93" viewBox="0 0 93 93" fill="none" xmlns="http://www.w3.org/2000/svg">
<rect x="1.5" y="1.5" width="90" height="90" rx="45" fill="#FECC2C"/>
<path d="M40.8545 59.7803V54.1099C40.8545 52.6624 42.0365 51.4889 43.4946 51.4889H48.8247C49.5249 51.4889 50.1964 51.7651 50.6915 52.2566C51.1866 52.7481 51.4648 53.4148 51.4648 54.1099V59.7803C51.4604 60.3821 51.6981 60.9607 52.1252 61.3878C52.5523 61.8149 53.1334 62.0551 53.7396 62.0551H57.376C59.0744 62.0595 60.7046 61.3928 61.9071 60.2021C63.1096 59.0115 63.7854 57.3948 63.7854 55.7088V39.5546C63.7853 38.1927 63.1772 36.9009 62.1249 36.0271L49.7545 26.2192C47.6027 24.4995 44.5195 24.5551 42.4319 26.3511L30.3438 36.0271C29.2418 36.8751 28.5831 38.1708 28.5505 39.5546V55.6923C28.5505 59.2064 31.4201 62.0551 34.9599 62.0551H38.5133C39.7723 62.0551 40.7956 61.0467 40.8047 59.7968L40.8545 59.7803Z" fill="#010112"/>
<rect x="1.5" y="1.5" width="90" height="90" rx="45" stroke="#010112" stroke-width="3"/>
</svg>
