<svg width="115" height="159" viewBox="0 0 115 159" fill="none" xmlns="http://www.w3.org/2000/svg">
<path d="M32.0712 158.344L28.3532 159L0.681603 2.17857C0.665286 2.08348 0.657473 1.98711 0.658257 1.89063C0.656944 1.43079 0.823743 0.986327 1.12726 0.640886C1.43078 0.295445 1.85009 0.0728481 2.30628 0.014988C2.76246 -0.0428721 3.22407 0.0679945 3.60422 0.326723C3.98437 0.585451 4.25685 0.974199 4.37038 1.41981L4.38205 1.48595C4.38205 1.5093 4.38205 1.52681 4.39372 1.55016L5.25949 6.46268L18.4056 80.9152L32.0712 158.344Z" fill="white"/>
<path d="M49.5094 82.3861C44.6572 83.9542 39.6455 85.034 35.4625 84.8628C26.4857 84.4853 18.5362 81.639 18.3825 80.7771L5.24805 6.32849C5.55739 6.59114 15.7093 15.2022 27.1375 14.9454C29.9722 14.8792 33.2952 14.4551 36.8653 13.8403C36.947 14.8442 37.8672 25.5681 38.8458 29.4047C39.8789 33.4262 42.4976 45.2065 43.8051 50.1657C45.0638 54.946 48.597 75.2653 49.5094 82.3861Z" fill="#006847"/>
<path d="M114.669 70.2711C114.669 70.2711 104.291 64.38 94.6605 65.0376C90.4814 65.3236 85.4522 66.8041 80.5455 68.6777C79.7887 62.3041 76.8995 49.3486 75.5921 44.4011C74.2847 39.4535 71.666 27.6693 70.6348 23.6401C69.6037 19.6108 68.6465 7.53282 68.6465 7.53282C69.0161 7.49196 69.38 7.455 69.7379 7.42581C80.8159 6.50168 95.8551 8.7449 103.242 14.0135C103.242 14.0135 103.733 21.1692 104.758 25.1907C105.783 29.2121 108.406 40.9944 109.717 45.9536C111.028 50.9128 113.925 63.915 114.669 70.2711Z" fill="#CE1126"/>
<path d="M80.5468 68.6836C74.144 71.1311 67.9435 74.2518 64.0777 76.2615C59.3909 78.6905 54.5173 80.7405 49.5035 82.392C48.5911 75.2712 45.0579 54.9596 43.7992 50.1658C42.4918 45.2066 39.873 33.434 38.8399 29.4048C37.8672 25.574 36.9411 14.8501 36.8594 13.8403C47.4568 12.0037 60.2274 8.44532 68.6478 7.5387C68.6478 7.5387 69.6089 19.6245 70.6361 23.6459C71.6634 27.6674 74.288 39.4477 75.5934 44.407C76.8989 49.3662 79.79 62.3041 80.5468 68.6836Z" fill="white"/>
<path d="M80.5508 68.7241C80.5508 68.7109 80.5508 68.6911 80.5508 68.6779" stroke="white" stroke-width="3.07" stroke-miterlimit="10"/>
<path d="M36.8608 13.8371C36.8589 13.8148 36.8589 13.7924 36.8608 13.7701" stroke="white" stroke-width="3.07" stroke-miterlimit="10"/>
<path d="M67.1977 41.8111C66.1957 42.2002 66.2463 42.9648 66.7716 43.8909C66.33 44.4006 66.3689 43.4298 66.0303 43.5154C66.112 43.9804 66.1938 44.4006 66.258 44.8189C66.291 45.0368 66.4175 45.4648 66.2463 45.4259C65.1256 45.171 65.5537 46.0757 65.363 46.5466C65.2035 46.9493 65.0673 47.4687 64.4175 47.3929L64.3494 46.9687C65.2949 46.5971 65.2793 46.0816 64.3319 45.3987C63.9313 45.1058 63.654 44.6745 63.5536 44.1885C62.5964 43.5485 61.9427 42.6029 61.1314 41.8227C61.1587 41.5834 60.8474 41.2527 61.2131 41.1068C61.5886 41.243 61.3921 40.9258 61.4388 40.8013C61.7871 41.2994 61.8941 40.8986 62.0672 40.743C62.8046 41.5562 63.1743 42.5076 63.5264 43.4667L63.7677 44.1788C64.1431 44.5212 64.2151 44.2625 64.2871 43.9998C64.8144 43.9512 64.6607 44.3889 64.7774 44.6166C64.8708 44.8111 64.7774 45.1244 65.0926 45.1516C65.4564 45.1808 65.4078 44.8636 65.3766 44.6029C65.8358 42.5893 65.5984 40.5951 64.3085 38.56C63.3357 37.0153 61.9739 35.9725 60.4349 35.0872L59.6742 34.6787C58.2228 33.6086 56.824 34.3168 55.394 34.095C55.1411 34.0561 54.7539 34.451 55.2092 34.9296C55.3259 35.2448 55.3629 35.4919 54.8959 35.3188C54.429 35.1456 53.9231 34.8654 53.4309 34.7701C53.0418 34.6962 52.5048 34.6884 52.5204 35.2448C52.536 35.8013 53.0301 35.6067 53.3278 35.7098C53.5224 35.7779 53.6994 35.8518 53.9407 35.9452C52.0223 36.4452 51.5418 37.8013 52.6683 39.3713C52.7694 39.6379 52.8628 39.9044 52.9718 40.171C52.9543 40.5601 52.9348 40.9492 52.9173 41.3383C52.2422 41.7566 51.7402 41.2294 51.2908 40.7352C50.9017 40.3033 50.6429 39.8072 51.0107 39.3208C51.7422 39.7624 51.3998 40.9978 52.5827 41.0095C52.464 40.4258 52.1002 39.9414 51.8044 39.4297C51.5554 38.9997 51.2714 38.6748 50.7616 38.8169C50.2519 38.9589 50.2597 39.3538 50.3317 39.8033C50.4931 40.8188 51.4542 41.7936 52.5866 42.0893C53.9348 42.0893 53.3959 40.9706 53.4873 40.2274L53.6819 40.0037C53.7325 39.9531 53.7831 39.9044 53.8298 39.8519C54.0671 39.5678 54.2928 39.0445 54.7675 39.4414C55.3726 39.9511 54.6916 40.1009 54.4679 40.3383C53.9971 40.8402 53.8531 41.3344 54.3356 42.1263C54.6255 42.6049 55.0885 43.1399 54.9699 43.7488C54.5807 43.494 54.2267 43.0874 53.7247 43.2391C53.68 42.9842 53.5691 42.7527 53.2772 42.7955C53.0652 42.8228 53.0399 43.0426 53.1021 43.2411C53.287 43.8247 53.7403 44.2333 54.1916 44.638C55.0613 44.3831 55.8862 44.0971 55.359 42.8364L55.6955 42.8189C55.8901 43.5854 56.6333 43.5621 57.1411 43.8208C57.2676 43.885 57.6644 43.459 57.5652 43.027C57.8123 42.9103 57.645 42.494 57.9543 42.4317C58.1722 42.8442 57.9796 43.5387 58.8182 43.5193C58.8565 43.8661 59.0189 44.1874 59.2754 44.424C58.9952 44.8695 59.001 45.5699 58.2481 45.5913C57.4543 45.4765 56.7228 45.5329 56.1489 46.0135C55.8064 46.1108 56.0243 46.7781 55.4699 46.6594C55.394 46.5932 55.3181 46.531 55.2422 46.4648C55.2214 46.3985 55.2084 46.3299 55.2033 46.2606L55.3162 46.0349C55.2792 45.6847 55.4018 45.5115 55.7773 45.4668C56.0282 45.4376 56.4426 45.4668 56.3415 44.994C56.3084 44.8442 56.2675 44.6885 56.0691 44.6457C55.9295 44.5976 55.7771 44.6019 55.6404 44.6577C55.5037 44.7135 55.3919 44.8171 55.3259 44.9493C55.2675 45.0485 55.0808 45.064 54.9523 45.1205C54.7208 44.959 54.5107 44.6983 54.2091 44.8422C54.23 44.9149 54.2346 44.9913 54.2228 45.066C53.8512 45.1146 53.5749 44.815 53.25 44.6769C52.9563 44.1754 52.5677 43.736 52.106 43.3831C51.7811 43.1185 51.464 42.6574 51.1196 43.1885C50.6001 43.8539 50.7305 44.0368 52.0574 44.4298C52.0773 44.4681 52.0895 44.51 52.0933 44.553C52.097 44.5961 52.0923 44.6394 52.0792 44.6806C52.0662 44.7218 52.0452 44.76 52.0174 44.7931C51.9897 44.8262 51.9556 44.8535 51.9173 44.8734C52.2655 45.3442 52.4562 45.9882 53.1897 46.0407C53.4387 46.4298 53.8239 46.1302 54.1138 46.3559L53.7733 46.7022C53.464 47.1341 53.7072 47.4532 54.1722 47.675C54.9348 48.0349 55.5905 47.9804 56.0885 47.4318L57.1917 47.4454C57.1907 47.4622 57.1907 47.4791 57.1917 47.496C56.8376 47.8656 56.1314 47.78 55.9212 48.3306C55.5321 48.7411 54.9582 48.6088 54.427 48.603C54.3609 48.5583 54.2597 48.5213 54.2325 48.4629C53.894 47.6983 53.3823 47.7022 52.8356 47.8442C52.7908 47.854 52.748 47.8676 52.7033 47.8793C52.9776 47.0174 52.7422 46.2781 51.7967 45.7489C51.2986 45.4707 51.3511 45.0349 51.2344 44.6438C51.0048 44.5251 50.9756 44.1632 50.6507 44.1516C50.6342 44.1271 50.6138 44.1054 50.5904 44.0874C50.1157 43.5582 50.071 42.92 49.9153 42.3189C49.7363 41.6126 49.3316 41.9764 48.9756 41.9298C48.3122 41.8325 48.711 42.2858 48.7285 42.5017C48.7869 43.2488 49.6488 43.529 49.9328 44.1555C48.7285 44.35 49.248 44.8286 49.8939 45.4318C50.2713 45.7858 50.7052 45.9901 51.3511 46.2761C50.4678 46.2761 50.2986 46.5038 50.855 47.0427C51.178 47.3578 51.5398 47.638 51.8842 47.9318C52.1274 48.1964 52.3375 48.5816 52.6196 48.71C53.3648 49.0271 53.9134 50.3365 54.8959 49.5622L54.9523 49.5485C54.9913 49.7334 54.7169 49.9629 55.1236 50.0991C54.9718 50.1808 54.75 50.2198 54.6955 50.3521C54.6411 50.4844 54.8765 50.6244 55.0029 50.6283C55.5146 50.6517 56.0983 50.9163 56.4796 50.4746C56.7072 50.498 57.0166 50.4882 56.7948 50.8307C56.7131 50.961 56.4251 51.1322 56.6605 51.2042C57.2734 51.3988 57.9329 51.6439 58.5263 51.5019C58.752 51.4494 58.861 51.1128 59.0205 50.8988C59.9602 51.1595 60.861 50.8015 61.8377 51.2879C62.0656 51.3846 62.3162 51.4149 62.5606 51.3753C62.805 51.3357 63.0333 51.2278 63.219 51.0641C64.2735 49.9707 65.3844 48.9357 66.3611 47.7567C67.3377 46.5777 67.293 45.1477 67.544 43.7411L67.1043 44.1632C67.1315 43.3558 67.7599 42.7099 67.1977 41.8111ZM59.8415 44.4648C59.8688 44.4181 59.8941 44.3714 59.9232 44.3247C60.61 44.3072 60.4602 44.9084 60.6489 45.2333C60.8492 45.6249 61.0221 46.0299 61.1664 46.4454L61.075 46.6049L61.0303 46.6886C60.466 46.8987 60.5283 46.0504 60.0906 46.0465C59.4524 45.4765 59.5594 44.9629 59.8415 44.4648ZM59.4291 50.496C59.3919 50.4276 59.3489 50.3625 59.3007 50.3015C59.245 50.3322 59.1911 50.366 59.1392 50.4026C58.9332 50.3318 58.7479 50.2114 58.5996 50.0519C58.4513 49.8924 58.3446 49.6988 58.289 49.4882L58.4193 49.461L58.5186 49.4396H59.4485L60.3026 49.5038L60.4271 49.5135C60.7462 50.4824 60.0711 50.4746 59.4291 50.498V50.496ZM63.6743 48.5972L63.2657 48.5855L62.2443 48.5583C62.1801 48.5583 62.1178 48.5583 62.0497 48.5583C61.8824 48.0388 61.4952 47.7684 61.0011 47.6224C61.039 47.5883 61.0801 47.5577 61.1236 47.531C61.6703 47.1964 62.2209 47.8754 62.7715 47.9337C62.8 47.9357 62.8286 47.9357 62.8571 47.9337C63.1023 48.0291 63.3455 48.1283 63.5906 48.2139C63.9778 48.3384 63.9175 48.4629 63.6743 48.5991V48.5972Z" fill="#FEFEFE"/>
<path d="M67.5353 43.6987C67.2843 45.1053 67.3407 46.5217 66.3524 47.7143C65.364 48.9069 64.2648 49.9342 63.2103 51.0218C63.0246 51.1855 62.7963 51.2934 62.5519 51.3329C62.3075 51.3725 62.0569 51.3422 61.829 51.2455C60.8562 50.765 59.9515 51.1229 59.0118 50.8564C58.9877 50.8179 58.9717 50.7749 58.9648 50.7301C58.9579 50.6852 58.9603 50.6394 58.9718 50.5955C58.9832 50.5515 59.0036 50.5104 59.0316 50.4747C59.0595 50.4389 59.0945 50.4092 59.1344 50.3875C59.1863 50.3508 59.2402 50.3171 59.2958 50.2863C59.3441 50.3474 59.3871 50.4125 59.4243 50.4809C60.0663 50.4576 60.7414 50.4653 60.4223 49.4945L60.2978 49.4848C60.3173 49.4459 60.3348 49.407 60.3523 49.3642C60.7507 49.0884 61.2308 48.9561 61.7142 48.9887C61.7939 49.0003 61.8737 49.0081 61.9535 49.014C62.0332 49.0198 62.0858 49.0237 62.148 49.0237C62.4485 49.0445 62.7477 48.9688 63.0021 48.8077C63.0975 48.7427 63.1816 48.6625 63.2512 48.5704L63.6597 48.582C63.9029 48.4458 63.9632 48.3213 63.58 48.1929C63.3348 48.1112 63.0916 47.9984 62.8465 47.9128C62.818 47.9147 62.7894 47.9147 62.7609 47.9128C62.7534 47.8955 62.7488 47.8771 62.7473 47.8583C62.7462 47.8505 62.7462 47.8427 62.7473 47.8349C62.7417 47.7492 62.7579 47.6634 62.7943 47.5855C62.8307 47.5077 62.8861 47.4402 62.9554 47.3894C62.9753 47.3721 62.9961 47.3559 63.0177 47.3408C63.0212 47.3363 63.0259 47.3329 63.0313 47.331L63.0605 47.3077C63.0733 47.2969 63.087 47.2871 63.1014 47.2785C63.5021 47.0061 63.936 47.0567 64.3971 47.3758C65.0469 47.4517 65.1753 46.9322 65.3426 46.5295C65.5372 46.0587 65.1053 45.154 66.2259 45.4088C66.3971 45.4477 66.2707 45.0197 66.2376 44.8018C66.1734 44.3835 66.0917 43.9633 66.01 43.4983C66.3485 43.4127 66.3096 44.3835 66.7512 43.8738C66.8816 43.9166 66.8952 44.1481 67.0839 44.1073L67.5353 43.6987Z" fill="#2A6806"/>
<path d="M64.3456 46.9652C63.9992 47.2259 63.5284 47.043 63.1237 47.0994H63.1121L62.9837 47.0839C62.865 47.0839 62.7444 47.0722 62.6218 47.0683C62.2886 47.0761 61.9563 47.0307 61.6373 46.9341H61.6276C61.4555 46.8708 61.2951 46.7794 61.1529 46.6636L61.0848 46.6053L61.1762 46.4457C61.0319 46.0302 60.859 45.6253 60.6587 45.2336C60.4642 44.9087 60.6198 44.3076 59.933 44.3251C59.9038 44.3718 59.8786 44.4185 59.8513 44.4652C59.8299 44.4418 59.8064 44.4203 59.7813 44.4009L59.7307 44.3562C59.7022 44.3309 59.6755 44.3036 59.6509 44.2745C59.6256 44.2472 59.6023 44.22 59.577 44.1889C59.5463 44.1496 59.5177 44.1087 59.4914 44.0663C59.2035 43.397 59.1879 42.79 59.5926 42.2764C59.6068 42.2755 59.6211 42.2755 59.6354 42.2764L59.6957 42.2647C60.3727 42.185 60.4739 43.0605 60.9895 43.2375C61.0206 43.2492 61.0751 43.2492 61.0867 43.2375C61.1008 43.2137 61.1097 43.1871 61.1127 43.1596C61.1157 43.1321 61.1129 43.1043 61.1043 43.078C61.1018 43.0573 61.0966 43.037 61.0887 43.0177C61.0576 42.9107 61.0264 42.8036 61.0031 42.6986C60.9303 42.4475 60.9391 42.1797 61.0284 41.934C61.057 41.8979 61.0928 41.8681 61.1334 41.8464C61.9447 42.6247 62.5984 43.5721 63.5557 44.2122C63.656 44.6982 63.9333 45.1295 64.3339 45.4224C65.2755 46.078 65.2911 46.5936 64.3456 46.9652Z" fill="#2C1005"/>
<path d="M57.4385 36.1423C57.6428 36.3368 57.6331 36.6014 57.5806 36.8582C57.5806 36.9049 57.5592 36.9497 57.5494 36.9944C57.5397 37.0392 57.528 37.082 57.5164 37.1248C57.4258 37.4686 57.2835 37.7966 57.0942 38.0975C56.9152 38.366 56.7051 38.6598 56.2829 38.3427C56.1304 38.2499 56.019 38.1025 55.9713 37.9304C55.9236 37.7584 55.9432 37.5747 56.0261 37.4166C56.1477 37.1366 56.3198 36.8814 56.5339 36.6637C56.0572 37.0275 55.9016 37.5625 55.2731 37.3835C55.2644 37.3788 55.2553 37.3749 55.2459 37.3719L55.1817 37.3427C54.6486 37.0995 54.1467 36.8855 54.5494 37.8621C54.6605 38.0875 54.696 38.3427 54.6506 38.5898C54.6482 38.6049 54.645 38.6198 54.6408 38.6345C54.5779 38.7798 54.4641 38.8969 54.3207 38.964C54.1773 39.031 54.0144 39.0432 53.8626 38.9983C53.7923 38.9547 53.7118 38.9299 53.6291 38.9264C53.6045 38.9243 53.5798 38.9243 53.5552 38.9264C53.2245 38.9964 53.1155 39.5509 52.6583 39.3446C51.5318 37.7746 52.0124 36.4263 53.9307 35.9185C53.6895 35.8251 53.5046 35.7512 53.3179 35.6831C53.0202 35.58 52.526 35.7862 52.5104 35.2181C52.4949 34.65 53.0299 34.6695 53.421 34.7434C53.9112 34.8387 54.3937 35.1033 54.886 35.2921C55.3782 35.4808 55.3159 35.224 55.1992 34.9029C55.7206 34.3193 56.4074 34.15 57.2751 34.4516C57.2448 34.4914 57.2169 34.533 57.1915 34.5761C57.1739 34.6033 57.1584 34.6306 57.1428 34.6598C56.8879 35.1306 56.8393 35.5819 57.4385 36.1423Z" fill="#5D230B"/>
<path d="M65.3703 44.5918C64.7867 44.0587 64.6699 43.3641 64.4248 42.7143C64.0824 41.8116 63.7458 40.901 62.917 40.2337L62.8547 40.1831C62.8392 40.1656 62.8255 40.1462 62.808 40.1287C62.3528 39.5761 61.8041 39.0839 61.5298 38.4146C61.5139 38.3258 61.5192 38.2345 61.5454 38.1481C61.56 38.0944 61.5851 38.0442 61.6193 38.0002C61.6587 37.9466 61.7067 37.9 61.7613 37.8621H61.8255H61.8722C62.3761 37.8621 62.7205 38.3504 63.1738 38.5314C63.1057 37.9263 62.6563 37.5741 62.2477 37.2006C62.1738 37.1325 62.1018 37.0644 62.0337 36.9924C61.9987 36.9574 61.9675 36.9243 61.9364 36.8874C61.343 36.1909 60.4559 36.2278 59.7769 35.7512C59.7535 35.7356 59.7282 35.7161 59.7068 35.6986C59.6647 35.6666 59.6257 35.6308 59.5901 35.5916C59.5355 35.5337 59.4896 35.4682 59.4539 35.3971L59.4422 35.3737C59.4411 35.3699 59.4411 35.3659 59.4422 35.3621C59.4986 34.6772 60.1504 35.2979 60.4247 35.0858C61.9559 35.971 63.3197 37.0138 64.2983 38.5586C65.5921 40.5839 65.8373 42.5781 65.3703 44.5918Z" fill="#9F3F03"/>
<path d="M59.4105 44.4185L59.4222 44.4749C59.4172 44.5999 59.4016 44.7242 59.3755 44.8465C59.3672 44.8733 59.3607 44.9006 59.356 44.9282C59.3042 45.1389 59.1946 45.3311 59.0396 45.483C58.8846 45.6349 58.6903 45.7405 58.4786 45.7882L58.393 45.8096H58.3521C57.891 45.8543 57.4124 45.8446 56.9902 45.9788C56.9237 46.0018 56.8587 46.0291 56.7957 46.0605C56.716 46.0954 56.6398 46.1377 56.5681 46.187C56.2412 46.3699 56.1459 46.8465 55.6673 46.8349H55.6264C55.5794 46.8243 55.5338 46.8086 55.4902 46.7882C55.3733 46.7343 55.2706 46.6536 55.1906 46.5528C55.1906 46.5528 55.1906 46.5528 55.1906 46.5411C55.1711 46.5061 55.1536 46.471 55.1381 46.438C55.1126 46.3755 55.0949 46.3102 55.0855 46.2434C55.0835 46.226 55.0835 46.2083 55.0855 46.1909C55.0816 46.1573 55.0816 46.1233 55.0855 46.0897C55.092 45.9925 55.1077 45.8961 55.1322 45.8018C55.1314 45.796 55.1314 45.7901 55.1322 45.7843C55.1428 45.7143 55.1694 45.6477 55.2101 45.5897C55.3423 45.3952 55.5992 45.3154 55.7606 45.1228C55.5174 45.1111 55.3521 45.2609 55.14 45.2804C55.0987 45.2862 55.0568 45.2862 55.0155 45.2804H55.0019C54.7047 45.2283 54.4349 45.0742 54.2392 44.8446C54.5408 44.7006 54.7509 44.9613 54.9824 45.1228C55.1108 45.0664 55.2976 45.0508 55.356 44.9516C55.422 44.8195 55.5338 44.7158 55.6705 44.66C55.8072 44.6042 55.9596 44.5999 56.0992 44.6481C56.2937 44.6909 56.3385 44.8426 56.3715 44.9963C56.4727 45.4652 56.0583 45.4399 55.8073 45.4691C55.4318 45.5138 55.3093 45.687 55.3462 46.0372L55.2334 46.2629C55.2385 46.3322 55.2515 46.4008 55.2723 46.4672C55.3482 46.5294 55.4241 46.5917 55.4999 46.6617C56.0544 46.7804 55.8365 46.1131 56.1789 46.0158C56.7529 45.5352 57.4844 45.4788 58.2782 45.5936C59.0311 45.5664 59.0253 44.866 59.3054 44.4263C59.049 44.1897 58.8866 43.8684 58.8482 43.5216C58.0097 43.541 58.2023 42.8465 57.9844 42.434C57.6653 42.4963 57.8327 42.9126 57.5953 43.0294C57.6945 43.4613 57.2976 43.8873 57.1712 43.8231C56.6634 43.5644 55.9221 43.5877 55.7256 42.8212L55.389 42.8387C55.9104 44.0994 55.0855 44.3951 54.2217 44.6403C54.1186 44.4691 54.1653 44.3231 54.3073 44.2842C54.9766 44.0897 55.4143 43.7531 55.2334 42.9224C55.1925 42.7278 55.4279 42.6714 55.6381 42.6792L55.677 42.6908L55.7276 42.7083C56.0097 42.8017 56.2237 43.0371 56.4747 43.1967C56.9961 43.5313 57.2762 43.3912 57.4007 42.9087C57.4007 42.8873 57.4183 42.8659 57.4241 42.8445C57.5136 42.615 57.57 42.3542 57.8541 42.3017C57.8882 42.2963 57.9226 42.293 57.9572 42.292C57.9716 42.3013 57.9853 42.3117 57.998 42.3231C58.3696 42.5916 58.4241 43.1013 58.7626 43.3932C58.8048 43.4323 58.8519 43.4656 58.9027 43.4924C58.9337 43.5131 58.967 43.5301 59.0019 43.543C59.2013 43.7782 59.3432 44.0567 59.4163 44.3562C59.4156 44.3771 59.4137 44.3979 59.4105 44.4185Z" fill="#F9F9F9"/>
<path d="M55.8628 39.8232C55.8787 39.9159 55.8885 40.0095 55.8919 40.1034C55.84 40.1473 55.7913 40.1947 55.746 40.2454C55.7243 40.2682 55.7048 40.293 55.6877 40.3193C55.1857 40.9847 55.6682 41.8758 55.7013 42.6754C55.7013 42.7163 55.7013 42.7552 55.7013 42.796L55.3647 42.8135C55.8861 44.0743 55.0612 44.37 54.1974 44.6151C53.746 44.2105 53.2927 43.8019 53.1078 43.2182C53.0456 43.0237 53.0709 42.7999 53.2829 42.7727C53.5748 42.7299 53.6857 42.9672 53.7304 43.2163C54.0651 43.6852 54.5086 43.7591 54.9756 43.726C55.0943 43.1171 54.6312 42.582 54.3413 42.1034C53.8588 41.3116 54.0028 40.8174 54.4736 40.3155C54.6974 40.0781 55.3783 39.9263 54.7732 39.4186C54.2985 39.0294 54.0728 39.545 53.8355 39.8291C53.7888 39.8816 53.7382 39.9302 53.6876 39.9808C53.1682 39.5392 53.2129 39.2026 53.5612 38.9322C53.611 38.8936 53.6629 38.8579 53.7168 38.8252C53.866 38.8392 54.0164 38.8233 54.1594 38.7785C54.3023 38.7338 54.435 38.661 54.5495 38.5645C54.5826 38.5645 54.6156 38.5761 54.6468 38.582C54.9343 38.6282 55.2036 38.7527 55.425 38.9419C55.6728 39.173 55.8284 39.4861 55.8628 39.8232Z" fill="#1F3B0D"/>
<path d="M59.426 50.4945L59.0232 50.868C58.8637 51.0781 58.7548 51.4186 58.5291 51.4711C57.9357 51.6132 57.2761 51.3602 56.6633 51.1735C56.4279 51.1015 56.7158 50.9303 56.7975 50.7999C57.0193 50.4575 56.71 50.4672 56.4824 50.4439C56.0213 50.3855 55.4882 50.9711 55.1205 50.0684C54.7138 49.9322 54.9882 49.7026 54.9493 49.5178C55.066 48.6909 55.6069 48.7396 56.2956 49.0703C56.4551 49.1443 56.6322 49.5684 56.815 49.2649C56.8253 49.2467 56.8344 49.2278 56.8423 49.2085C56.8483 49.1992 56.8535 49.1894 56.8578 49.1793C57.3559 49.1092 57.8501 48.9847 58.3618 49.3738V49.3836L58.4143 49.4497L58.2839 49.477C58.3396 49.6875 58.4463 49.8811 58.5946 50.0406C58.7429 50.2001 58.9282 50.3206 59.1341 50.3914C59.1861 50.3547 59.24 50.3209 59.2956 50.2902C59.3451 50.3543 59.3887 50.4226 59.426 50.4945Z" fill="#19340C"/>
<path d="M52.697 47.8661C52.7418 47.8544 52.7846 47.8408 52.8293 47.8311C52.8001 47.8642 52.769 47.8953 52.7359 47.9284C52.7029 47.9614 52.6815 47.979 52.6523 48.0043C52.4013 48.0879 52.1367 47.9439 51.874 47.9089C51.5297 47.6151 51.1678 47.335 50.8448 47.0198C50.2884 46.4809 50.4557 46.2416 51.341 46.2533C50.695 45.9673 50.2612 45.763 49.8837 45.4089C49.2378 44.8058 48.7164 44.3252 49.9227 44.1326C50.2806 44.9439 50.3293 43.8913 50.5803 44.0703C50.6036 44.0884 50.624 44.1101 50.6406 44.1345C50.9596 44.1462 50.9888 44.5081 51.2242 44.6268C51.341 45.0159 51.2884 45.4536 51.7865 45.7318C52.7359 46.2649 52.9713 47.0042 52.697 47.8661Z" fill="#102B07"/>
<path d="M57.1876 47.4769C57.2051 48.1092 56.3783 48.0042 56.1798 48.4497C56.1762 48.456 56.1729 48.4625 56.1701 48.4692C56.1137 48.5103 56.0552 48.5486 55.995 48.5839C55.5879 48.8338 55.1012 48.92 54.6331 48.8252C54.5767 48.8252 54.5183 48.8038 54.4599 48.7882H54.4405C54.2938 48.7166 54.1581 48.6243 54.0378 48.5139C53.4541 47.973 53.4541 47.9828 52.958 48.0917C52.8899 48.1092 52.8043 48.0178 52.7401 47.9283L52.7012 47.866C52.7459 47.8544 52.7887 47.8407 52.8335 47.831C53.3802 47.689 53.8918 47.6851 54.2304 48.4497C54.2557 48.5081 54.3568 48.545 54.4249 48.5898C54.9561 48.5898 55.5319 48.7279 55.9191 48.3174C56.1273 47.7668 56.8335 47.8524 57.1876 47.4769Z" fill="white"/>
<path d="M57.1652 47.3115C57.175 47.3543 57.1789 47.3952 57.1847 47.4322L56.0816 47.4185C55.5835 47.9672 54.9278 48.0217 54.1652 47.6617C53.7002 47.4419 53.457 47.1228 53.7663 46.689L54.1418 46.3485C53.852 46.1228 53.4667 46.4166 53.2177 46.0333C52.4842 45.9788 52.2936 45.3348 51.9453 44.866C52.4803 45.0994 52.7877 45.7103 53.3772 45.8563H53.3889L53.5037 45.901C53.5698 45.9243 53.6399 45.9438 53.708 45.9652C54.0271 46.0644 54.3364 46.1714 54.2683 46.5489C54.2615 46.5981 54.2491 46.6464 54.2313 46.6928C54.2119 46.7395 54.1905 46.7901 54.1632 46.8427C54.2469 47.6209 54.7917 47.5294 55.2605 47.5197C55.4772 47.5004 55.687 47.434 55.8753 47.3251C55.924 47.2999 55.9726 47.2804 56.0232 47.259C56.0738 47.2376 56.103 47.2279 56.1458 47.2142C56.3135 47.1612 56.4902 47.1425 56.6654 47.1593C56.8405 47.176 57.0105 47.2278 57.1652 47.3115Z" fill="white"/>
<path d="M63.7565 44.1696L63.5152 43.4576C63.1631 42.4965 62.7934 41.5451 62.0561 40.7338C61.8829 40.8894 61.7759 41.2902 61.4276 40.7922C61.3809 40.9167 61.5775 41.2338 61.202 41.0976C60.8362 41.2435 61.1475 41.5743 61.1202 41.8136C61.0043 41.7354 60.923 41.6155 60.8933 41.4789C60.8635 41.3422 60.8877 41.1994 60.9607 41.0801C60.9782 41.047 60.9977 41.0178 61.0171 40.9867C61.0366 40.9556 61.0346 40.9614 61.0463 40.9478C61.1197 40.8335 61.2157 40.7355 61.3284 40.6599L61.344 40.6482C61.3612 40.6639 61.3801 40.6776 61.4004 40.6891C61.595 40.8077 61.7564 40.7007 61.9335 40.6618H61.9957C62.079 40.6517 62.163 40.6732 62.2312 40.7221C62.5814 41.0156 62.872 41.3736 63.0872 41.7766C63.2302 42.0483 63.3569 42.3284 63.4666 42.6151C63.4919 42.6852 63.5191 42.7552 63.5464 42.8272V42.8428C63.6028 42.9906 63.6572 43.1424 63.7137 43.2922C63.7253 43.3194 63.7351 43.3486 63.7467 43.3759C63.7993 43.6424 64.0074 43.944 63.7565 44.1696Z" fill="#F7F7F7"/>
<path d="M52.5828 42.0745C51.4505 41.7788 50.4894 40.8041 50.3279 39.7885C50.256 39.3391 50.2754 38.9383 50.7579 38.8021C51.2404 38.6659 51.5517 38.985 51.8007 39.4149C52.0945 39.9266 52.4583 40.4149 52.579 40.9947C51.4116 40.983 51.7385 39.7476 51.0069 39.306C50.6392 39.7924 50.8902 40.2885 51.2871 40.7204C51.7365 41.2146 52.2385 41.7418 52.9136 41.3235C53.3844 41.8955 52.828 41.8975 52.5828 42.0745Z" fill="#293614"/>
<path d="M54.8848 49.5314C53.9023 50.3096 53.3536 48.9963 52.6085 48.6792C52.3264 48.5586 52.1162 48.1734 51.873 47.901L52.6921 47.8582C52.7369 47.8465 52.7797 47.8329 52.8244 47.8232C53.3711 47.6811 53.8828 47.6772 54.2213 48.4418C54.2466 48.5002 54.3478 48.5372 54.4159 48.5819C54.484 48.6617 54.5579 48.7395 54.626 48.8212C54.7207 48.9118 54.7933 49.023 54.8382 49.1461C54.8831 49.2692 54.899 49.4011 54.8848 49.5314Z" fill="#213918"/>
<path d="M65.3679 44.5917C65.399 44.8524 65.4476 45.1754 65.0838 45.1403C64.7725 45.1131 64.862 44.796 64.7686 44.6053C64.6519 44.3738 64.8056 43.9399 64.2784 43.9886C63.8445 42.9905 63.7394 41.9049 63.0643 40.971C63.0235 40.9127 62.9807 40.8562 62.932 40.7979L62.8445 40.6967C62.7977 40.61 62.77 40.5142 62.7633 40.4159C62.7566 40.3176 62.771 40.2189 62.8056 40.1267C62.8221 40.0868 62.8451 40.05 62.8737 40.0177C64.1383 40.4749 64.257 41.6461 64.7083 42.5781C65.0157 43.222 65.1539 43.9166 65.3679 44.5917Z" fill="#4E1E08"/>
<path d="M59.6659 34.6674C59.5336 35.0565 59.2126 35.1596 58.8391 35.1791C58.7865 35.1791 58.7321 35.1791 58.6776 35.1791H58.6231C58.404 35.1605 58.1875 35.1188 57.9772 35.0546C57.8935 35.0254 57.8138 34.9982 57.7301 34.9651L57.6036 34.9125C57.488 34.8565 57.3869 34.7746 57.3079 34.6732C57.2724 34.6454 57.2353 34.6194 57.197 34.5954C56.3371 34.0351 55.948 35.0838 55.2048 34.9223C54.7495 34.4437 55.1367 34.0487 55.3896 34.0876C56.8157 34.3055 58.2145 33.5974 59.6659 34.6674Z" fill="#71300D"/>
<path d="M50.6566 44.1383C50.4912 44.3134 50.3219 44.4846 50.1527 44.6578C50.0787 44.4827 50.0048 44.3076 49.9328 44.1325C49.6488 43.506 48.7869 43.2259 48.7285 42.4788C48.711 42.2628 48.3122 41.8095 48.9756 41.9068C49.3297 41.9593 49.7363 41.5955 49.9153 42.2959C50.071 42.899 50.1099 43.5352 50.5904 44.0644C50.6105 44.0908 50.6326 44.1155 50.6566 44.1383Z" fill="#142A0A"/>
<path d="M64.2738 43.9904C64.2019 44.253 64.1299 44.5118 63.7544 44.1694L63.5131 43.4573C63.5622 43.3614 63.5908 43.2564 63.5971 43.1489C63.6035 43.0414 63.5875 42.9338 63.5501 42.8328V42.8172C63.5267 42.7472 63.5014 42.6752 63.4703 42.6052C63.4061 42.4592 63.3322 42.3133 63.2758 42.1674C63.2193 42.0215 63.1532 41.9028 63.0909 41.7666C62.9353 41.4475 62.7952 41.1246 62.9333 40.7938C62.951 40.7521 62.9718 40.7118 62.9956 40.6732C64.091 41.6402 64.3127 42.7841 64.2738 43.9904Z" fill="#764425"/>
<path d="M67.1021 44.121C66.7947 44.3525 66.8473 44.014 66.7694 43.8875C66.2441 42.9615 66.1858 42.2007 67.1955 41.8077C67.7617 42.7066 67.1332 43.3525 67.1021 44.121Z" fill="#396F22"/>
<path d="M53.277 44.6655C53.1583 44.9885 52.9034 44.9612 52.6136 44.8503L52.5571 44.8289C52.3798 44.7205 52.2214 44.5838 52.0883 44.4242C50.7692 44.0351 50.631 43.8406 51.1505 43.183C51.4754 43.3133 51.8003 43.5721 52.1369 43.3775C52.5966 43.7291 52.9838 44.1665 53.277 44.6655Z" fill="#2D541B"/>
<path d="M56.8889 49.2884C56.9005 49.4732 56.9959 49.767 56.9064 49.8195C56.6943 49.9577 56.671 49.625 56.5309 49.5218C55.92 49.0822 55.3441 48.7281 54.953 49.5218L54.8966 49.5355C54.7175 49.3109 54.5714 49.062 54.4627 48.7962C54.4438 48.7327 54.4315 48.6675 54.4258 48.6016C54.9569 48.6016 55.5328 48.7397 55.92 48.3292C56.0117 48.366 56.0997 48.4116 56.1826 48.4654C56.4634 48.6584 56.6915 48.9186 56.8461 49.2222C56.8597 49.2281 56.8733 49.2631 56.8889 49.2884Z" fill="#81A0AB"/>
<path d="M54.0613 45.901C54.0051 45.9252 53.9472 45.9454 53.8881 45.9613L53.8239 45.9749C53.7889 45.9768 53.7539 45.9768 53.7189 45.9749C53.6525 45.9654 53.5874 45.9491 53.5243 45.9263C53.5034 45.9218 53.4831 45.9146 53.464 45.9049L53.4076 45.8679H53.3959C52.9718 45.6072 52.4037 45.4243 52.5768 44.8407C52.5926 44.7844 52.6134 44.7297 52.6391 44.6772H53.2967C53.6158 44.8232 53.892 45.1228 54.2695 45.0664C54.4874 45.5177 54.3765 45.7648 54.0613 45.901Z" fill="#62B131"/>
<path d="M53.4867 40.2124C53.3953 40.9556 53.9342 42.0704 52.5859 42.0743C52.7571 41.8583 53.0645 41.7163 52.9147 41.3233C52.9322 40.9342 52.9517 40.5451 52.9692 40.156C53.1287 39.9945 53.2824 39.7435 53.4867 40.2124Z" fill="#715229"/>
<path d="M55.3296 46.0295L55.2168 46.2552C55.1676 46.2262 55.1154 46.2028 55.0611 46.1852C54.672 46.0509 54.2459 46.2163 53.8802 45.9614C53.8131 45.9149 53.7529 45.8592 53.7012 45.7961C54.1467 45.7611 54.1778 45.407 54.2381 45.0626C54.25 44.9879 54.2454 44.9116 54.2245 44.8389C54.5261 44.6949 54.7362 44.9556 54.9677 45.1171C55.0334 45.1563 55.0877 45.212 55.1253 45.2786C55.1741 45.3742 55.1982 45.4806 55.1954 45.5879C55.1847 45.7466 55.2325 45.9036 55.3296 46.0295Z" fill="#427522"/>
<path d="M53.5095 45.9067C53.5104 45.9119 53.5104 45.9171 53.5095 45.9223C53.529 46.076 53.4726 46.1518 53.2177 46.0351C52.4842 45.9806 52.2936 45.3367 51.9453 44.8678C51.9836 44.8479 52.0177 44.8206 52.0455 44.7875C52.0733 44.7544 52.0943 44.7162 52.1073 44.675C52.1203 44.6338 52.1251 44.5905 52.1213 44.5474C52.1175 44.5044 52.1053 44.4625 52.0854 44.4242L52.6204 44.6674C52.6099 44.7285 52.6099 44.7911 52.6204 44.8522C52.6768 45.3153 53.3053 45.397 53.4842 45.7783C53.492 45.823 53.5037 45.8658 53.5095 45.9067Z" fill="#427522"/>
<path d="M53.633 38.9322C53.4112 39.2396 53.4384 39.5917 53.6855 39.9886L53.4909 40.2124C53.3178 40.1929 53.1446 40.1735 52.9734 40.1579C52.8742 39.8913 52.7789 39.6248 52.6699 39.3583C53.0474 39.2279 53.1369 38.6384 53.7225 38.833C53.6907 38.8643 53.6609 38.8974 53.633 38.9322Z" fill="#D8C505"/>
<path d="M60.43 35.076C60.3366 35.6208 59.6654 34.9379 59.5156 35.3601C59.4963 35.3708 59.4761 35.3799 59.4553 35.3873C59.109 35.5585 58.821 35.5138 58.6245 35.1792C58.5756 35.0948 58.5358 35.0055 58.5059 34.9126C58.9114 34.9632 59.3222 34.8769 59.6732 34.6675L60.43 35.076Z" fill="#8C3704"/>
<path d="M52.1368 43.3718C52.1232 43.578 52.2321 43.9068 51.8994 43.8621C51.7158 43.8506 51.5415 43.7769 51.4053 43.6532C51.2691 43.5294 51.1792 43.3629 51.1504 43.1811C51.4948 42.6461 51.8119 43.1072 52.1368 43.3718Z" fill="#5DA72E"/>
<path d="M64.3483 46.9653L64.4164 47.3894C64.0428 47.4828 63.5876 47.1948 63.2491 47.4341C63.2132 47.467 63.1663 47.4852 63.1177 47.4852C63.0691 47.4852 63.0223 47.467 62.9864 47.4341C62.9832 47.4242 62.9793 47.4144 62.9747 47.405C62.9636 47.3771 62.9545 47.3485 62.9475 47.3194C62.9426 47.295 62.9393 47.2703 62.9378 47.2454C62.9352 47.1882 62.9509 47.1317 62.9825 47.0839C63.0207 47.0283 63.0713 46.9823 63.1304 46.9497C63.4923 46.6987 63.9475 47.0042 64.3483 46.9653Z" fill="#B4BFA6"/>
<path d="M54.9717 43.7336C54.4075 44.1228 53.9853 43.9846 53.7266 43.2239C54.2285 43.0722 54.5807 43.4788 54.9717 43.7336Z" fill="#3E5830"/>
<path d="M56.4752 50.444C56.0861 50.8856 55.5024 50.621 54.9985 50.5977C54.8721 50.5977 54.6308 50.4634 54.6912 50.3214C54.7515 50.1794 54.9674 50.1502 55.1192 50.0685C55.5239 50.6152 56.02 50.3253 56.4752 50.444Z" fill="#131813"/>
<path d="M62.2434 48.5569C62.2463 48.599 62.2463 48.6413 62.2434 48.6834C62.242 48.8064 62.2128 48.9274 62.1578 49.0375C62.1259 49.1011 62.0846 49.1594 62.0352 49.2106C61.4982 49.3118 60.9606 49.411 60.4223 49.5083L60.2978 49.4986L59.4437 49.4344H59.3678C59.351 49.4126 59.3354 49.3898 59.3211 49.3663C59.1655 49.1114 59.2122 48.8507 59.2511 48.588C59.2511 48.5336 59.2686 48.4771 59.2744 48.4207C59.2765 48.4085 59.2765 48.396 59.2744 48.3838C59.4087 47.6989 59.9612 47.6055 60.5391 47.5491L60.72 47.5297L60.8037 47.518C60.8881 47.5069 60.9734 47.5036 61.0585 47.5083H61.0916H61.1149C61.0714 47.5349 61.0303 47.5655 60.9924 47.5997C61.4865 47.7456 61.8737 48.016 62.041 48.5355C62.1169 48.553 62.1792 48.553 62.2434 48.5569Z" fill="#4F2A14"/>
<path d="M63.2607 48.5839L62.2393 48.5566C62.1751 48.5566 62.1129 48.5566 62.0448 48.5566C62.1056 48.6064 62.1707 48.6506 62.2393 48.6889C62.4697 48.8282 62.7434 48.8774 63.0078 48.8271C63.2352 48.7783 63.456 48.7025 63.6654 48.6014L63.2607 48.5839ZM62.7549 47.8485C61.8911 47.1597 61.5623 47.0858 61.0973 47.5158L60.998 47.615C61.036 47.5808 61.077 47.5502 61.1206 47.5235C61.6673 47.1889 62.2179 47.8679 62.7685 47.9263C62.797 47.9282 62.8256 47.9282 62.8541 47.9263L62.7549 47.8485Z" fill="#EFEFEF"/>
<path d="M63.2416 47.4343L62.8525 47.9304C62.824 47.9324 62.7954 47.9324 62.7669 47.9304C62.2163 47.872 61.6657 47.193 61.119 47.5277C61.0754 47.5543 61.0344 47.585 60.9964 47.6191L60.9458 47.6444C60.8049 47.664 60.6617 47.6315 60.5431 47.553C60.4917 47.5064 60.451 47.4492 60.4238 47.3854C60.3966 47.3216 60.3835 47.2527 60.3855 47.1833C60.3845 47.1697 60.3845 47.1561 60.3855 47.1425V47.1016C60.418 47.0307 60.4649 46.9672 60.5231 46.9153C60.5814 46.8634 60.6498 46.8242 60.724 46.8C60.8022 46.7734 60.8846 46.7608 60.9672 46.7631H61.045C61.0696 46.7613 61.0944 46.7613 61.119 46.7631C61.2701 46.8465 61.4359 46.9 61.6073 46.9207H61.617C61.9439 46.9674 62.2824 46.9421 62.6015 47.0549C62.7158 47.097 62.8228 47.1568 62.9186 47.232C62.9581 47.2635 62.9958 47.2973 63.0314 47.3331L63.0567 47.3584C63.1253 47.3617 63.1905 47.3885 63.2416 47.4343Z" fill="#264111"/>
<path d="M63.6736 48.5957C63.3312 49.1793 62.8526 49.5101 62.0393 49.2104C62.0033 49.1547 61.9782 49.0927 61.9654 49.0276C61.9603 48.8644 61.9895 48.7021 62.051 48.5509C62.1172 48.5509 62.1794 48.5509 62.2456 48.5509L63.267 48.5781L63.6736 48.5957Z" fill="#77A6B3"/>
<path d="M61.5193 43.6968C61.3792 43.8913 61.2061 43.7571 61.029 43.6442C60.494 43.3038 60.2061 42.761 59.8131 42.3077C59.7536 42.2901 59.6932 42.2758 59.6321 42.2649C58.7138 42.0995 59.1963 43.1151 58.885 43.4653C58.8729 43.4797 58.8592 43.4927 58.8442 43.5042C58.0056 43.5236 58.1983 42.8291 57.9803 42.4166C57.9317 42.368 57.8811 42.3213 57.8364 42.2726C57.5815 42.01 57.3714 41.7395 57.5776 41.3777C57.6543 41.3651 57.7297 41.3462 57.8033 41.3213C57.8344 41.312 57.8649 41.3009 57.8947 41.2882C58.1986 41.1581 58.4732 40.9682 58.7021 40.7298L58.9278 40.51C58.9862 40.4516 59.0465 40.3971 59.1049 40.3407C59.7313 40.4088 60.352 40.4963 60.636 41.2337C60.6467 41.2512 60.6546 41.2702 60.6594 41.2901C60.6594 41.316 60.6512 41.3412 60.636 41.3621C60.5096 41.5567 59.9648 41.6073 60.566 42.0372C60.7677 42.2054 60.9186 42.4263 61.0018 42.6754C61.0801 42.8872 61.2051 43.0787 61.3676 43.2357C61.5952 43.3641 61.6458 43.5256 61.5193 43.6968Z" fill="#752D08"/>
<path d="M59.6647 44.1092C59.6696 44.164 59.6623 44.2191 59.6433 44.2707C59.6279 44.318 59.5966 44.3586 59.5548 44.3855C59.513 44.4125 59.4631 44.4241 59.4137 44.4186C59.3746 44.4178 59.3356 44.4146 59.2969 44.4088C59.0405 44.1722 58.8781 43.851 58.8397 43.5041C58.8029 43.461 58.7697 43.4147 58.7405 43.366C58.4312 42.8582 58.6802 42.3037 58.7658 42.0041C58.9312 41.4029 59.3339 42.0489 59.6899 42.257C59.7269 42.2816 59.7677 42.3 59.8106 42.3115C59.474 42.8349 59.5304 43.4633 59.6647 44.1092Z" fill="#4D2515"/>
<path d="M61.0764 46.6014L61.0316 46.685C60.4674 46.8951 60.5297 46.0469 60.0919 46.043C59.4538 45.4729 59.5608 44.9593 59.8429 44.4612C59.8701 44.4146 59.8954 44.3679 59.9246 44.3212C59.8725 44.3433 59.8218 44.3687 59.7728 44.397C59.5888 44.4895 59.4489 44.6511 59.3837 44.8465C59.3754 44.8732 59.3689 44.9005 59.3643 44.9282C59.3176 45.255 59.5141 45.6422 59.802 46.0508C59.8907 46.13 59.9751 46.2137 60.055 46.3017C60.0841 46.3329 60.1094 46.3621 60.1406 46.3932C60.2937 46.5837 60.5014 46.7229 60.7359 46.792C60.8125 46.8092 60.8912 46.8144 60.9694 46.8076C61.0006 46.7988 61.0301 46.785 61.0569 46.7667C61.0963 46.7416 61.1269 46.7049 61.1445 46.6617C61.1717 46.5924 61.1797 46.5172 61.1678 46.4438L61.0764 46.6014Z" fill="#F5F5F5"/>
<path d="M61.1229 41.8116V41.8232C61.2007 42.296 61.2805 42.7707 61.3583 43.2435C61.2647 43.1914 61.1762 43.1308 61.0937 43.0626C60.51 42.5723 60.2746 41.7571 59.5703 41.2804C59.9127 41.3135 60.2551 41.3466 60.5995 41.3758C60.6112 41.3252 60.6209 41.2765 60.6306 41.2357C60.7299 40.8154 60.8116 40.7454 61.047 40.9497C61.0898 40.9886 61.1423 41.0392 61.2026 41.0995C60.8388 41.2512 61.1501 41.5723 61.1229 41.8116Z" fill="#502518"/>
<path d="M59.8396 44.4614C59.5575 44.9595 59.4505 45.4731 60.0886 46.0432C60.1374 46.1537 60.1523 46.2763 60.1314 46.3953C60.0944 46.5082 59.9816 46.551 59.7618 46.4537C59.3863 46.2922 59.001 46.1716 58.6236 46.0101H58.5983L58.5419 45.9868C58.5419 45.9868 58.5205 45.9751 58.5127 45.9673C58.4496 45.9285 58.3942 45.8783 58.3493 45.8194C58.2971 45.7534 58.2677 45.6721 58.2656 45.5879C59.0186 45.5607 59.0127 44.8603 59.2929 44.4206L59.3902 44.3408L59.5653 44.1968L59.6606 44.121L59.9213 44.333C59.8921 44.3642 59.8668 44.4148 59.8396 44.4614Z" fill="#D6C40C"/>
<path d="M63.1248 46.9477C63.1248 46.9964 63.1131 47.0489 63.1053 47.0975C63.0975 47.1462 63.0878 47.2473 63.0781 47.3213V47.3699C63.0658 47.3631 63.0527 47.3578 63.0392 47.3544L62.9497 47.3174C62.3388 47.0975 61.7065 47.3174 61.1033 46.9283C61.0275 46.8894 60.9827 46.8505 60.973 46.8077C60.9673 46.7913 60.9673 46.7735 60.973 46.7571C60.9855 46.7282 61.0049 46.7029 61.0294 46.6831L61.0741 46.5995L61.1656 46.4399C61.7784 47.0392 62.4963 46.5353 63.1248 46.9477Z" fill="#426B23"/>
<path d="M61.43 40.7901C61.3834 40.9146 61.5799 41.2317 61.2044 41.0956C61.1479 41.0506 61.0858 41.0133 61.0195 40.9847C60.7549 40.8874 60.7802 41.2648 60.6304 41.3602C60.6229 41.3673 60.6134 41.372 60.6032 41.3738C60.1946 40.7901 59.5973 40.6539 59.0039 40.5061C58.9078 40.586 58.8064 40.6595 58.7004 40.7259C58.4118 40.8821 58.1411 41.0694 57.893 41.2843C57.8588 41.3156 57.8269 41.3494 57.7977 41.3854C57.5059 41.687 57.9261 41.9886 57.9786 42.2901C57.9864 42.3306 57.9864 42.3722 57.9786 42.4127C57.6596 42.475 57.8269 42.8913 57.5895 43.008C57.5195 42.9652 57.4553 42.9244 57.395 42.8796C57.0292 42.6516 56.7125 42.353 56.4633 42.0012C56.2141 41.6495 56.0374 41.2517 55.9436 40.831C55.9377 40.8133 55.9337 40.795 55.9319 40.7765C55.9455 40.7278 55.9553 40.6831 55.9669 40.6364C56.0123 40.3635 55.9841 40.0835 55.8852 39.8251C55.801 39.598 55.6948 39.3797 55.5681 39.1734C55.5253 39.0994 55.4844 39.0255 55.4455 38.9516C55.1656 38.4654 55.0781 37.892 55.2004 37.3445C55.2071 37.3054 55.2175 37.2669 55.2315 37.2297C56.0097 37.3115 55.9008 36.3134 56.6051 36.29C56.8969 36.6791 56.6868 36.969 56.4669 37.2473C56.2471 37.5255 55.8833 37.8582 56.393 38.1656C56.9027 38.473 56.8385 37.7978 57.0525 37.5819C57.1868 37.4457 57.2043 37.1928 57.2763 36.9982C57.3175 36.9541 57.3676 36.9192 57.4233 36.8957C57.4789 36.8723 57.5389 36.8608 57.5993 36.862C57.6403 36.8616 57.6813 36.8648 57.7218 36.8718H57.7413C57.7802 36.8854 57.823 36.899 57.86 36.9146C58.2592 37.0414 58.6027 37.3018 58.8327 37.6519C58.8327 37.6694 58.8522 37.6831 58.8619 37.6986C58.8716 37.7142 58.8716 37.7356 58.8755 37.757C58.9359 38.0936 58.681 38.3543 58.7608 38.6714C58.8755 39.152 58.9728 39.7453 59.7238 39.5508C60.1401 39.4438 60.4475 39.4165 60.6966 39.508C60.8182 39.5604 60.9277 39.6374 61.0181 39.7341C61.1085 39.8309 61.1779 39.9453 61.2219 40.0703C61.308 40.2691 61.3776 40.4747 61.43 40.685C61.4125 40.7201 61.4223 40.7551 61.43 40.7901Z" fill="#2B1007"/>
<path d="M55.2122 37.2297C55.4788 38.3445 55.7122 39.4632 56.3796 40.51C56.5741 40.831 56.3387 40.8991 56.1033 40.9282C55.7648 40.7668 55.5663 40.5586 55.7395 40.2162C55.7492 39.4263 55.1753 38.9866 54.5585 38.5722C54.4729 38.3523 54.397 38.1286 54.2978 37.9107C54.1033 37.4729 53.7939 36.9204 54.1616 36.6558C54.5527 36.3718 54.8542 37.0196 55.2122 37.2297Z" fill="#421809"/>
<path d="M57.6938 36.9945H57.2541C57.3962 36.6054 57.4253 36.2494 56.9856 35.87C56.7055 35.6287 56.186 35.4342 56.3378 34.9731C56.472 34.5626 56.9487 34.7065 57.3106 34.6735C57.3857 34.6866 57.4619 34.6931 57.5382 34.6929C58.0479 34.9342 58.1705 35.3388 58.1666 35.796C58.081 36.2338 58.223 36.7883 57.6938 36.9945Z" fill="#30130A"/>
<path d="M53.6358 36.691C54.056 37.551 53.7895 38.0004 53.2 38.265C52.9665 38.3681 52.8517 38.1405 52.8011 37.9401C52.6163 37.193 52.9412 36.8156 53.6358 36.691Z" fill="#512C15"/>
<path d="M63.7227 43.2823C63.6659 43.3527 63.5966 43.412 63.5184 43.4574C63.1662 42.4963 62.7966 41.5449 62.0592 40.7336C62.0198 40.7136 61.9815 40.6915 61.9444 40.6674C61.6746 40.5037 61.4257 40.3077 61.2032 40.0838C61.0183 39.9048 60.8471 39.7141 60.6779 39.5215C60.4047 39.1975 60.1124 38.8902 59.8024 38.6013C59.5056 38.307 59.1925 38.0297 58.8646 37.7705C58.8315 37.7452 58.8004 37.7238 58.7673 37.7024L57.7012 37.0059C57.7109 36.967 57.7187 36.9242 57.7284 36.8853C57.8101 36.539 57.8938 36.1927 57.9755 35.8464C58.0374 35.8182 58.1029 35.7985 58.1701 35.788C58.6175 35.716 59.1428 35.9825 59.5592 35.7471L59.5806 35.7316L59.6506 35.7783C60.1584 36.1265 60.5397 36.6304 61.1078 36.9456C61.5475 37.1829 61.5942 37.6032 61.6254 38.0176C61.6351 38.146 61.6429 38.2783 61.6623 38.4067C62.0514 38.9631 62.6643 39.3795 62.8822 40.0429L62.923 40.2569C62.9483 40.4067 62.9756 40.5546 63.0028 40.7025C63.0262 40.8017 63.0476 40.897 63.0728 40.9962C63.1777 41.4666 63.3612 41.9158 63.6157 42.3251C63.8472 42.6733 63.9425 43.0177 63.7227 43.2823Z" fill="#6F2C05"/>
<path d="M61.6512 38.3854C61.301 37.7025 61.2174 36.8289 60.1473 36.685C59.7776 36.6305 59.8496 36.0857 59.5792 35.8387C59.4994 35.6441 59.5169 35.5196 59.7738 35.6032C60.552 35.9787 61.5384 35.7978 62.0753 36.79C62.4761 37.3562 62.087 37.615 61.8069 37.9165L61.6512 38.3854Z" fill="#8C3704"/>
<path d="M61.8145 37.9165L62.0829 36.79C62.8203 37.3251 63.5791 37.8484 63.3612 38.9496L61.8145 37.9165Z" fill="#6E2C04"/>
<path d="M59.7803 35.6091C59.7161 35.6889 59.65 35.7667 59.5858 35.8446C59.1441 36.4049 58.543 36.0391 57.971 35.8446C57.9184 35.4457 57.8503 35.0488 57.5371 34.7045L58.5099 34.9243C58.6403 35.0619 58.7967 35.1722 58.97 35.249C59.1433 35.3258 59.3301 35.3676 59.5196 35.3718L59.7803 35.6091Z" fill="#64361A"/>
<path d="M60.9533 47.6404C60.5895 48.0801 59.6945 47.6521 59.4786 48.3389C59.4114 48.4276 59.3372 48.5109 59.2568 48.5879C59.0619 48.7872 58.8012 48.9089 58.5233 48.9303C58.4916 48.9323 58.4597 48.9323 58.428 48.9303H58.4046C57.5836 48.7202 57.5544 47.9751 57.2373 47.4284H57.1887L56.0855 47.4147L55.891 47.3097C55.675 47.1871 55.4921 47.0451 55.4824 46.7863C55.4825 46.7393 55.4871 46.6924 55.496 46.6462C56.0505 46.7649 55.8326 46.0976 56.175 46.0003C56.4278 45.8858 56.7152 45.8739 56.9766 45.9672L56.9902 45.9789C57.0933 46.0645 57.1848 46.1521 57.2879 46.2435C57.391 46.335 57.4474 46.3836 57.5291 46.4497C57.6621 46.5606 57.8077 46.6553 57.963 46.7318L58.0155 46.7571L58.0486 46.7844C58.2685 46.9614 58.4669 46.8058 58.6809 46.833H58.6945C58.8571 46.8548 59.0208 46.8671 59.1848 46.87C59.3268 46.87 59.4689 46.8797 59.6089 46.8894C59.7445 46.8977 59.8791 46.9166 60.0117 46.9459C60.0538 46.9519 60.0954 46.961 60.1362 46.9731C60.2298 47.0087 60.3152 47.063 60.3872 47.1326C60.403 47.1466 60.418 47.1615 60.4319 47.1774L60.8113 47.512L60.9533 47.6404Z" fill="#43490C"/>
<path d="M57.5741 43.012C57.6733 43.4439 57.2764 43.8699 57.15 43.8057C56.6422 43.547 55.9009 43.5703 55.7044 42.8038C55.6869 42.7571 55.6694 42.7123 55.65 42.6656C55.2725 41.7765 54.4612 40.8096 55.7297 40.2162C55.7348 40.2282 55.7406 40.2399 55.7472 40.2512C55.8134 40.3796 55.8776 40.51 55.9418 40.6403L56.0897 40.9302C56.4599 41.6012 56.8973 42.2328 57.3951 42.8154L57.5741 43.012Z" fill="#512610"/>
<path d="M56.0824 47.4186C55.5843 47.9673 54.9287 48.0217 54.166 47.6618C53.701 47.442 53.4578 47.1229 53.7672 46.689C53.9403 46.6482 54.1096 46.5898 54.2788 46.5431C54.5483 46.4516 54.8336 46.4158 55.1174 46.4381C55.1663 46.4418 55.2151 46.4483 55.2633 46.4575C55.3392 46.5198 55.415 46.582 55.4909 46.6521C55.5357 46.7245 55.5908 46.79 55.6543 46.8466C55.8051 46.9581 55.9337 47.0966 56.0337 47.2552C56.0594 47.3064 56.0759 47.3617 56.0824 47.4186Z" fill="#4F892C"/>
<path d="M58.6233 46.0118C58.6307 46.069 58.6176 46.1269 58.5863 46.1752C58.4191 46.2799 58.2393 46.3629 58.0513 46.4223C57.8796 46.4767 57.697 46.4874 57.5201 46.4535C57.3428 46.4143 57.1754 46.3395 57.0279 46.2336C56.9592 46.1586 56.8739 46.1006 56.7789 46.0644C56.5792 46.0113 56.3722 45.991 56.166 46.004C56.74 45.5235 57.4715 45.4671 58.2653 45.5819L58.4754 45.7881C58.5085 45.8231 58.5454 45.8581 58.5824 45.8931C58.605 45.929 58.619 45.9696 58.6233 46.0118Z" fill="#35300B"/>
<path d="M56.3579 44.9886C56.459 45.4575 56.0446 45.4322 55.7937 45.4613C55.4182 45.5061 55.2956 45.6792 55.3326 46.0294C55.24 45.9723 55.1642 45.8918 55.1127 45.796C55.0474 45.6308 55.01 45.4559 55.0018 45.2785C54.9966 45.2242 54.9855 45.1707 54.9688 45.1189C55.0972 45.0625 55.2839 45.0469 55.3423 44.9477C55.4083 44.8156 55.5201 44.712 55.6568 44.6562C55.7935 44.6003 55.9459 44.5961 56.0855 44.6442C56.2839 44.6831 56.3248 44.8388 56.3579 44.9886Z" fill="#2B4F1A"/>
<path d="M55.2616 46.4594C55.2338 46.4908 55.2025 46.5189 55.1682 46.543C54.9075 46.7473 54.5728 46.7123 54.2402 46.689C54.0824 46.6714 53.9232 46.6714 53.7654 46.689L54.1409 46.3485C53.851 46.1228 53.4658 46.4166 53.2168 46.0333L53.3919 45.8621L53.4775 45.7765C53.5544 45.7773 53.6311 45.7838 53.7071 45.7959C53.8151 45.8569 53.9355 45.8928 54.0592 45.901C54.3958 45.9302 54.7596 45.8212 55.0651 46.0839C55.123 46.1346 55.1746 46.192 55.2188 46.2551C55.2251 46.3246 55.2395 46.3932 55.2616 46.4594Z" fill="#2A440E"/>
<path d="M58.597 49.2707C58.5796 49.3286 58.5526 49.3832 58.5172 49.4322L58.418 49.4536L58.2876 49.4808C57.811 49.1812 57.3518 49.3952 56.8829 49.2862L56.8129 49.2648C56.6332 49.2221 56.4657 49.1386 56.3234 49.0209C56.181 48.9032 56.0676 48.7543 55.9919 48.5858C55.9562 48.4988 55.9301 48.4081 55.9141 48.3154C56.1242 47.7648 56.8304 47.8504 57.1845 47.4808C57.2015 47.4653 57.2171 47.4484 57.2312 47.4302C57.9822 47.6033 57.669 48.5975 58.3985 48.7921C58.443 48.8329 58.4828 48.8786 58.5172 48.9283C58.5565 48.9751 58.5841 49.0305 58.598 49.0899C58.6118 49.1494 58.6115 49.2113 58.597 49.2707Z" fill="#5F341D"/>
<path d="M62.0603 40.7319C61.8872 40.8875 61.7802 41.2883 61.4319 40.7903L61.3327 40.658L60.4572 39.5004C59.8152 39.3992 59.9299 40.584 59.1712 39.9478C58.3482 39.2552 58.105 38.4498 58.7607 37.691L58.8151 37.654C59.1459 37.4595 59.4338 37.6715 59.6303 37.9789C60.2724 38.9965 61.2977 39.691 62 40.6521C62.0218 40.6774 62.042 40.704 62.0603 40.7319Z" fill="#452111"/>
<path d="M59.4802 48.339L59.451 49.4343H58.521L58.4977 49.3059C58.4763 49.1814 58.4549 49.0569 58.4296 48.9324L58.4062 48.7923L59.2817 48.4188L59.4802 48.339Z" fill="#5D2E19"/>
<path d="M61.0924 46.9321L60.4328 47.1831H60.39L60.1663 47.1714C60.0067 47.0329 59.8146 46.9372 59.6079 46.8932C59.4686 46.8684 59.3267 46.8618 59.1857 46.8737C58.9911 46.8932 58.7966 46.9341 58.5884 46.9613C58.3802 46.9885 58.2674 47.1928 58.0631 46.9282C58.0232 46.8671 57.9899 46.8019 57.9639 46.7337C57.9386 46.6787 57.9345 46.6162 57.9524 46.5584C57.9704 46.5005 58.0091 46.4514 58.0612 46.4204C58.2557 46.2862 58.6195 46.2609 58.6079 46.0021C58.6076 45.9739 58.6036 45.9458 58.5962 45.9185V45.8912C59.0009 45.9652 59.39 45.7084 59.8063 46.2628C59.9834 46.5021 60.034 46.4302 60.0573 46.3017C60.0748 46.2142 60.0768 46.1072 60.0982 46.043C60.5359 46.043 60.4737 46.8951 61.0379 46.685C61.0379 46.7103 61.0515 46.7356 61.0593 46.7628C61.0632 46.8212 61.0787 46.8757 61.0924 46.9321Z" fill="#322804"/>
<path d="M57.793 41.3893C57.8144 40.6306 58.3513 40.5002 59.0031 40.508C58.9934 41.2823 58.5323 41.5061 57.793 41.3893Z" fill="#A24101"/>
<path d="M58.5916 45.9204C58.897 46.5605 57.8931 46.3796 58.0565 46.9302C57.6071 46.8776 57.1811 46.7862 57.0293 46.2317C57.5702 46.3046 58.1199 46.1951 58.5916 45.9204Z" fill="#556303"/>
<path d="M58.5781 46.9632C59.0781 46.3348 59.6015 46.2862 60.1657 47.1695C59.6346 47.0372 59.1248 47.4029 58.5781 46.9632Z" fill="#698100"/>
</svg>
