<svg width="77" height="43" viewBox="0 0 77 43" fill="none" xmlns="http://www.w3.org/2000/svg">
<path d="M38.6179 2.04688C38.6179 2.04688 10.3724 2.28303 10.3724 20.608C10.3724 38.9329 25.8495 41.0771 38.4006 41.0771C50.9518 41.0771 66.8881 39.7488 66.8881 21.7474C66.8881 3.74595 43.6218 2.26885 38.6179 2.04688Z" fill="#BE9B72"/>
<path d="M35.2514 0.927734C35.2514 0.927734 35.0011 17.772 32.544 21.7676C30.0869 25.7632 23.326 32.0341 10.2612 31.9727L3.59009 8.12193L35.2514 0.927734Z" fill="#845F41"/>
<path d="M41.899 0.394531C41.899 0.394531 42.1494 17.2388 44.6065 21.2356C47.0636 25.2324 53.8232 31.5021 66.888 31.4407L73.5592 7.58991L41.899 0.394531Z" fill="#845F41"/>
<path d="M26.4255 23.7124C29.3691 23.7124 31.7553 21.3261 31.7553 18.3826C31.7553 15.439 29.3691 13.0527 26.4255 13.0527C23.4819 13.0527 21.0957 15.439 21.0957 18.3826C21.0957 21.3261 23.4819 23.7124 26.4255 23.7124Z" fill="white"/>
<path d="M27.0065 21.7468C29.2445 21.7468 31.0588 20.0695 31.0588 18.0004C31.0588 15.9313 29.2445 14.2539 27.0065 14.2539C24.7685 14.2539 22.9542 15.9313 22.9542 18.0004C22.9542 20.0695 24.7685 21.7468 27.0065 21.7468Z" fill="#28653D"/>
<path d="M38.3202 16.6299C38.3202 16.6299 33.5796 16.6299 33.5796 19.7187C33.5796 22.8075 38.3202 22.595 38.3202 22.595C38.3202 22.595 43.2203 22.6517 43.2203 19.6136C43.2203 16.5756 38.3202 16.6299 38.3202 16.6299Z" fill="#221F20"/>
<path d="M39.4054 17.46C39.836 17.4601 40.2619 17.5485 40.657 17.7197C40.8545 17.8081 41.0405 17.9203 41.2107 18.0539C41.3783 18.19 41.5198 18.3552 41.6287 18.5415C41.487 18.3864 41.3286 18.2474 41.1564 18.1271C40.9833 18.0117 40.8004 17.9117 40.6097 17.8284C40.4174 17.7455 40.2202 17.6742 40.0194 17.6146C39.8175 17.5568 39.6144 17.5013 39.4054 17.46Z" fill="white"/>
<path d="M37.2434 25.0694C37.2768 25.3095 37.3658 25.5386 37.5033 25.7382C37.6409 25.9379 37.8232 26.1027 38.0357 26.2194C38.2277 26.3128 38.4371 26.3649 38.6505 26.3722C38.8638 26.3795 39.0764 26.342 39.2743 26.2619C39.4187 26.1957 39.5482 26.101 39.6551 25.9835C39.762 25.866 39.8441 25.7282 39.8965 25.5783C39.9639 25.4035 39.9979 25.2177 39.9969 25.0304C39.9969 24.9913 39.9813 24.9537 39.9537 24.926C39.926 24.8984 39.8884 24.8828 39.8493 24.8828C39.8102 24.8828 39.7726 24.8984 39.7449 24.926C39.7173 24.9537 39.7017 24.9913 39.7017 25.0304C39.7058 25.1505 39.6886 25.2705 39.6509 25.3846C39.5951 25.6147 39.4542 25.8151 39.2566 25.9455C39.1001 26.0289 38.927 26.0762 38.7498 26.084C38.5727 26.0917 38.396 26.0597 38.2329 25.9903C37.982 25.8764 37.7805 25.6761 37.665 25.426C37.5967 25.2905 37.5504 25.145 37.528 24.995C37.5175 24.9572 37.4924 24.9252 37.4583 24.906C37.4242 24.8867 37.3839 24.8818 37.3462 24.8923C37.3084 24.9028 37.2764 24.9278 37.2571 24.9619C37.2379 24.996 37.2329 25.0364 37.2434 25.0741V25.0694Z" fill="#221F20"/>
<path d="M18.9432 24.5747C20.0388 24.5747 20.9269 23.6866 20.9269 22.591C20.9269 21.4955 20.0388 20.6074 18.9432 20.6074C17.8477 20.6074 16.9596 21.4955 16.9596 22.591C16.9596 23.6866 17.8477 24.5747 18.9432 24.5747Z" fill="#FED5EE"/>
<path d="M57.696 24.5747C58.7916 24.5747 59.6796 23.6866 59.6796 22.591C59.6796 21.4955 58.7916 20.6074 57.696 20.6074C56.6005 20.6074 55.7124 21.4955 55.7124 22.591C55.7124 23.6866 56.6005 24.5747 57.696 24.5747Z" fill="#FED5EE"/>
<path d="M28.3536 17.4609C28.9118 17.4609 29.3643 17.0084 29.3643 16.4502C29.3643 15.892 28.9118 15.4395 28.3536 15.4395C27.7954 15.4395 27.3429 15.892 27.3429 16.4502C27.3429 17.0084 27.7954 17.4609 28.3536 17.4609Z" fill="white"/>
<path d="M49.9361 23.7124C52.8797 23.7124 55.266 21.3261 55.266 18.3826C55.266 15.439 52.8797 13.0527 49.9361 13.0527C46.9926 13.0527 44.6063 15.439 44.6063 18.3826C44.6063 21.3261 46.9926 23.7124 49.9361 23.7124Z" fill="white"/>
<path d="M50.5172 21.7468C52.7552 21.7468 54.5695 20.0695 54.5695 18.0004C54.5695 15.9313 52.7552 14.2539 50.5172 14.2539C48.2792 14.2539 46.465 15.9313 46.465 18.0004C46.465 20.0695 48.2792 21.7468 50.5172 21.7468Z" fill="#28653D"/>
<path d="M51.8645 17.4609C52.4227 17.4609 52.8752 17.0084 52.8752 16.4502C52.8752 15.892 52.4227 15.4395 51.8645 15.4395C51.3063 15.4395 50.8538 15.892 50.8538 16.4502C50.8538 17.0084 51.3063 17.4609 51.8645 17.4609Z" fill="white"/>
<path d="M68.9283 14.7365C69.7819 15.4744 70.638 16.2089 71.4893 16.9503C72.9121 18.1889 74.2191 19.5361 75.3078 21.0829C75.5038 21.4206 75.7005 21.7583 75.8981 22.096C76.0008 22.3392 76.1036 22.5813 76.2075 22.8245C76.3944 23.3969 76.5415 23.9816 76.6479 24.5743L76.6302 26.3171C76.4727 26.8941 76.3153 27.4711 76.1579 28.048L75.8533 28.8521C75.6579 29.1476 75.4971 29.4646 75.3739 29.7967L74.349 31.5548C74.2616 31.6178 74.2019 31.7121 74.1825 31.8181C73.8511 32.3101 73.5197 32.8021 73.1883 33.294C71.8577 35.1076 70.4727 36.874 68.9117 38.5022C67.8459 39.5698 66.6874 40.5406 65.4498 41.4033L64.2927 42.0255L63.7024 42.2451C63.1392 42.412 62.5539 42.4916 61.9667 42.4813C61.2193 42.3632 60.5498 42.0739 60.0149 41.5202C59.6607 41.153 59.4057 40.7137 59.1447 40.2804L58.5544 38.7159L58.3654 37.9544L58.2899 37.8363C58.291 37.6784 58.2815 37.5206 58.2615 37.364C58.0157 36.0428 57.8845 34.7028 57.8695 33.359C57.8341 30.9385 57.7833 28.518 58.023 26.0986C58.108 25.2497 58.1128 24.3925 58.2249 23.5495C58.4272 22.1491 58.5592 20.7395 58.6205 19.326C58.689 17.0117 58.7268 14.6881 58.2875 12.3939C58.0455 11.1258 57.7526 9.87069 57.0596 8.7549C56.54 7.91894 55.9969 7.09597 55.4845 6.25647C55.3522 6.0404 55.1468 5.8503 55.148 5.56575L55.2401 5.4642C55.7265 5.28945 56.2047 5.08873 56.7148 4.98246C57.2971 4.91 57.8868 4.92153 58.4658 5.0167C58.7645 5.11943 59.0668 5.2127 59.3632 5.32605C60.3467 5.70389 61.1413 6.37809 61.9608 7.0145L62.067 7.11014L63.602 8.69704L63.7567 8.86825L66.2197 11.9252C66.3044 12.0785 66.4207 12.2122 66.5609 12.3172L66.6648 12.4541C66.7833 12.6734 66.9438 12.8672 67.1371 13.0244C67.2245 13.185 67.3107 13.3491 67.4913 13.4235C67.6778 13.7023 67.9188 13.9404 68.1998 14.1237C68.411 14.3628 68.6565 14.5693 68.9283 14.7365Z" fill="#392517"/>
<path d="M21.6307 5.75868C21.143 5.58393 20.666 5.38085 20.1559 5.27458C19.5736 5.20327 18.984 5.2148 18.4049 5.30882C17.0577 5.65241 15.9608 6.43524 14.9123 7.30308L14.8025 7.40107L13.2675 8.9868L13.1129 9.16036L11.9628 10.5572L11.7468 10.8771L11.4362 11.19L11.1859 11.5242L11.147 11.6423L10.9108 11.8784C10.738 12.1599 10.5314 12.4193 10.2957 12.6506C10.1208 12.9118 9.91726 13.1526 9.68875 13.3685L9.33453 13.7853C8.94726 14.2859 8.44072 14.6531 7.94836 15.0369C7.84209 15.1349 7.74055 15.2376 7.62956 15.3309C5.43104 17.1681 3.22189 18.9911 1.56533 21.3786C1.3709 21.7163 1.17411 22.0539 0.974963 22.3916C0.871058 22.6278 0.767153 22.8769 0.66443 23.119C0.476789 23.6914 0.330399 24.2766 0.22638 24.87C0.218115 25.027 0.200403 25.1852 0.203946 25.3423C0.214572 25.7662 0.0646196 26.1948 0.24291 26.6128C0.391682 27.1945 0.540847 27.7766 0.690406 28.3591C0.789587 28.6259 0.976143 28.8573 1.02101 29.1478C1.2163 29.4433 1.37714 29.7603 1.50039 30.0924L2.45678 31.7277C2.56634 31.8362 2.64745 31.97 2.69292 32.1173L3.68474 33.5885C4.73559 34.9759 5.76046 36.3845 6.93647 37.6727C7.27888 38.0481 7.62169 38.4228 7.96489 38.7967C9.03044 39.8646 10.189 40.8354 11.4268 41.6978L12.5815 42.3188L13.1719 42.5385C13.7334 42.7111 14.3192 42.7909 14.9064 42.7746C16.2796 42.5939 17.1144 41.7249 17.7283 40.5737C17.9251 40.0518 18.1219 39.5299 18.3187 39.0081C18.3431 38.7698 18.4019 38.5363 18.4935 38.315C19.1228 35.1778 19.0579 31.9981 18.9929 28.8278C18.9563 27.0827 18.8075 25.3376 18.6009 23.5983C18.4698 22.4955 18.3648 21.3857 18.2927 20.2746C18.2015 18.8111 18.1857 17.3439 18.2455 15.8787C18.3175 13.7333 18.5903 11.6068 19.4876 9.62085C19.8702 8.77191 20.5184 8.08 20.947 7.25939C21.1914 6.7871 21.5929 6.40218 21.718 5.86495L21.6307 5.75868ZM11.5331 11.5714C11.5496 11.5561 11.5661 11.5407 11.5815 11.5242C11.5661 11.5348 11.5496 11.5502 11.5331 11.5714Z" fill="#392517"/>
</svg>
