<svg width="700" height="500" viewBox="0 0 1068 673" preserveAspectRatio="none" fill="none" xmlns="http://www.w3.org/2000/svg">
	<g filter="url(#filter0_d)">
		<g clip-path="url(#clip0)">
			<rect x="8" y="4" width="1052" height="657" rx="8" fill="#31348B"/>
			<g style="mix-blend-mode:screen" opacity="0.1">
				<path d="M757.65 18.3159C772.894 32.8485 780.513 53.9903 793.31 70.7142C817.625 102.491 854.58 120.609 891.311 126.78C935.801 134.226 980.448 124.836 1022.32 111.302C1044.11 104.246 1066.02 97.0535 1087.09 87.9624C1108.16 78.8713 1126.91 67.1972 1145.87 54.4095C1167.16 40.1234 1190.04 28.6243 1214.04 20.146C1226.19 15.7874 1238.57 11.5994 1250.95 8.01903C1258.42 5.96383 1265.52 2.80733 1272.72 0.0229246L1267.45 -19.0701C1262.47 -19.2364 1257.49 -19.1306 1252.53 -18.7533C1240.19 -17.5526 1227.95 -15.6234 1215.87 -12.9744C1193.82 -8.39445 1172.45 -1.03834 1152.21 8.94363C1132.38 18.8088 1114.73 32.7918 1095.12 43.0826C1074.58 53.882 1052.28 60.6354 1030.26 67.5004C988.983 80.366 946.337 93.6294 902.212 88.4212C870.065 84.6337 835.707 68.6021 816.698 38.7981C805.737 21.6108 796.906 3.9 782.515 -9.16092L735 3.92665C743.265 7.19919 750.948 12.08 757.65 18.3159Z" fill="white"/>
			</g>
			<g style="mix-blend-mode:screen" opacity="0.1">
				<path d="M1366.21 510.222C1273.36 483.253 1181.7 450.575 1091.55 412.312C1102.89 393.036 1123.74 386.405 1143.06 383.661C1209.62 374.241 1276.2 394.865 1342.53 406.527C1350.35 407.883 1358.24 409.08 1366.21 410.117V346.436C1249.58 356.926 1132.33 348.135 1017.64 320.301C940.654 301.597 857.044 275.233 786.893 318.243C767.483 330.133 748.017 355.057 755.729 379.866C758.003 386.253 761.256 392.05 765.312 396.946C821.8 471.533 913.308 481.366 995.233 498.926C1119.51 525.587 1240.37 580.807 1366.21 587.027V510.222Z" fill="white"/>
			</g>
			<g style="mix-blend-mode:screen" opacity="0.1">
				<path d="M21.8809 24.5373C21.8809 24.5373 73.4476 116.053 206.098 71.88C338.749 27.7066 378.206 8.8484 473.951 39.1478C569.695 69.4471 699.4 25.7471 715.178 -40.9141H27.9421L21.8809 24.5373Z" fill="white"/>
			</g>
			<g style="mix-blend-mode:screen" opacity="0.1">
				<path d="M1105.29 788.405C1105.29 788.405 792.132 821.871 570.361 687.187C569.199 686.504 568.323 685.425 567.895 684.149C567.467 682.873 567.515 681.486 568.031 680.243C568.547 679 569.495 677.985 570.702 677.384C571.909 676.784 573.293 676.639 574.598 676.975C659.735 698.375 886.003 737.58 1096.07 620.527L1105.29 788.405Z" fill="white"/>
			</g>
			<g style="mix-blend-mode:screen" opacity="0.1">
				<path d="M-186.43 437.486C-133.282 436.317 -80.4024 436.414 -27.6931 428.497C20.6631 421.196 67.9258 407.924 113.011 388.984C136.053 379.415 158.497 368.465 180.22 356.194C199.301 345.329 218.942 333.417 232.88 316.096C267.24 273.392 245.308 221.601 211.923 185.864C180.244 152.027 137.624 129.834 96.1482 110.638C48.404 88.7129 -0.702911 69.8837 -50.8677 54.2673C-79.4927 45.1726 -108.361 36.8412 -137.474 29.2731C-164.572 22.2085 -192.181 16.8248 -219.06 8.90756C-232.868 4.94177 -246.247 -0.386975 -259 -7V27.5192C-223.641 45.8872 -182.531 54.316 -144.955 65.3514C-93.7808 80.455 -43.289 98.0923 6.47168 117.532C52.2847 135.437 98.4144 155.584 139.768 182.478C157.947 194.317 175.468 208.203 188.773 225.523C199.958 240.14 212.996 261.699 203.833 280.213C195.109 297.85 173.908 308.252 157.533 317.388C136.702 329.128 115.121 339.488 92.9315 348.399C48.1125 366.408 1.24985 378.844 -46.6032 385.427C-99.2394 392.394 -152.46 390.445 -205.389 392.321C-222.447 392.93 -240.699 393.564 -259 395.245V440.531C-234.436 437.949 -209.312 437.973 -186.43 437.486Z" fill="white"/>
			</g>
			<g style="mix-blend-mode:screen" opacity="0.1">
				<path d="M718.03 20.1382C747.256 38.6698 783.474 44.5881 816.245 48.7365C853.777 53.4918 888.324 47.7072 922.44 32.3868C957.168 16.8137 988.623 -5.40452 1022.88 -21.9024C1042.99 -31.5537 1063.75 -39.6678 1085.02 -46.1861C1093.37 -48.7379 1101.8 -50.996 1110.26 -53.1364L1105.99 -68.5941C1085.46 -64.907 1065.34 -59.3084 1045.86 -51.8611C1012.94 -39.8216 982.779 -22.0076 952.208 -4.83921C921.097 12.6258 888.3 29.6273 852.024 31.1874C835.357 31.9415 818.698 29.8268 802.109 27.3343C785.974 24.8643 769.762 22.6055 753.902 18.0992C737.005 13.2886 720.617 5.80804 707.534 -7.26236C705.222 -9.5381 703.034 -11.9554 700.983 -14.5012L687 -10.6499C695.29 1.75203 705.865 12.2441 718.03 20.1382Z" fill="white"/>
			</g>
			<g style="mix-blend-mode:screen" opacity="0.1">
				<path d="M186.512 660.375C213.007 659.719 243.325 657.944 263.27 638.13C281.802 619.725 283.336 591.742 273.498 568.646C262.198 542.146 237.578 525.857 212.131 514.479C182.858 501.629 152.928 490.325 122.466 480.612C86.7663 468.943 50.4331 459.194 14.0512 449.906C-1.26159 446.286 -16.3127 441.64 -31 436V445.482C-1.63147 459.194 32.8023 465.515 62.0247 476.017C93.6823 487.371 124.853 499.94 155.707 513.361C181.861 524.739 211.717 535.46 233.146 554.813C249.803 569.789 264.317 600.568 244.153 619.045C224.38 637.182 186.877 633.048 162.452 632.903C97.9926 632.465 33.2406 625.609 -31 633.51V661.591C-29.0518 661.323 -27.0793 661.032 -25.1068 660.813C45.1975 652.765 116.013 662.15 186.512 660.375Z" fill="white"/>
			</g>
			<g style="mix-blend-mode:screen" opacity="0.1">
				<path d="M64.6028 568.209C43.5656 575.815 19.3069 577.066 -4 577.802V583.47C10.9785 584.978 26.0753 584.855 41.0275 583.102C55.3533 581.213 74.0476 578.931 84.1514 567.203C94.6456 554.935 81.7108 548.384 71.7535 542.422C55.1581 532.608 37.0494 523.578 17.745 521.027C14.133 520.561 12.864 526.326 15.9146 527.897C28.7029 534.276 42.2965 538.913 55.1092 545.317C61.6231 548.385 67.9183 551.902 73.95 555.843C78.1965 558.812 78.4894 557.266 75.3411 561.609C72.9006 564.995 68.1904 566.884 64.6028 568.209Z" fill="white"/>
			</g>
		</g>
	</g>
	<defs>
		<filter id="filter0_d" x="0" y="0" width="1068" height="673" filterUnits="userSpaceOnUse" color-interpolation-filters="sRGB">
			<feFlood flood-opacity="0" result="BackgroundImageFix"/>
			<feColorMatrix in="SourceAlpha" type="matrix" values="0 0 0 0 0 0 0 0 0 0 0 0 0 0 0 0 0 0 127 0" result="hardAlpha"/>
			<feOffset dy="4"/>
			<feGaussianBlur stdDeviation="4"/>
			<feColorMatrix type="matrix" values="0 0 0 0 0 0 0 0 0 0 0 0 0 0 0 0 0 0 0.1 0"/>
			<feBlend mode="normal" in2="BackgroundImageFix" result="effect1_dropShadow"/>
			<feBlend mode="normal" in="SourceGraphic" in2="effect1_dropShadow" result="shape"/>
		</filter>
		<linearGradient id="paint0_linear" x1="42638.2" y1="38327.3" x2="42638.2" y2="34804.6" gradientUnits="userSpaceOnUse">
			<stop stop-color="white" stop-opacity="0.6"/>
			<stop offset="1" stop-color="white" stop-opacity="0.1"/>
		</linearGradient>
		<linearGradient id="paint1_linear" x1="47573.7" y1="38327.3" x2="47573.7" y2="34804.6" gradientUnits="userSpaceOnUse">
			<stop stop-color="white" stop-opacity="0.6"/>
			<stop offset="1" stop-color="white" stop-opacity="0.1"/>
		</linearGradient>
		<clipPath id="clip0">
			<rect x="8" y="4" width="1052" height="657" rx="8" fill="white"/>
		</clipPath>
	</defs>
</svg>