<svg width="117" height="161" viewBox="0 0 117 161" fill="none" xmlns="http://www.w3.org/2000/svg">
<path d="M32.4858 160.336L28.7211 161L0.701429 2.20598C0.684906 2.10968 0.676995 2.01211 0.677789 1.91441C0.676459 1.44879 0.845356 0.998733 1.15269 0.648947C1.46003 0.299161 1.88462 0.0737644 2.34654 0.0151765C2.80846 -0.0434114 3.27588 0.0688498 3.66081 0.330832C4.04574 0.592815 4.32164 0.986453 4.4366 1.43766L4.44842 1.50465C4.44842 1.52829 4.44842 1.54602 4.46024 1.56966L5.31326 6.4041C5.31326 6.4041 5.31326 6.45335 5.3369 6.54397L6.81836 14.9501V14.9777L7.54924 19.0871L7.59061 19.3393C7.59561 19.3883 7.6035 19.437 7.61425 19.4851C7.70487 20.0229 7.7955 20.5193 7.88021 20.9902C7.92355 21.2187 7.95901 21.4492 8.00235 21.6718C8.04569 21.8944 8.08115 22.1072 8.11661 22.3259C8.20723 22.8519 8.29785 23.3582 8.38847 23.8546C8.39479 23.9207 8.40465 23.9865 8.41803 24.0516C8.43773 24.1363 8.44955 24.221 8.46728 24.3057C8.46728 24.3589 8.48501 24.4082 8.49092 24.4555C8.61306 25.1509 8.73323 25.8345 8.86522 26.5831L8.98145 27.2352C9.02282 27.4598 9.06025 27.6824 9.10162 27.9188L9.18043 28.366C9.20998 28.5177 9.23362 28.6733 9.26514 28.8309C9.29666 28.9885 9.33212 29.1993 9.36167 29.3923C9.39122 29.5322 9.41486 29.676 9.44047 29.8218L10.1536 33.8761V33.8998V33.9195V33.9313V33.9668L10.2147 34.3292L10.2442 34.4868L10.914 38.2988V38.3244L12.2931 46.1494L13.0358 50.3672L13.0476 50.4027L13.0653 50.511L13.6938 54.0748L16.0144 67.2366L17.7126 76.8739L18.3174 80.29L18.5775 81.7695C18.5775 81.7695 18.5775 81.7813 18.5775 81.7931C18.5775 81.8049 18.5775 81.7931 18.5775 81.8049L18.5952 81.8955V81.9152L32.4858 160.336Z" fill="white"/>
<path d="M9.44952 29.814L7.92669 21.1558L6.82742 14.9777L5.43658 7.09764C5.42476 7.03657 5.41294 6.98338 5.40703 6.92822L5.35778 6.64453C5.32823 6.49284 5.31641 6.40222 5.31641 6.40222C8.72888 9.17562 12.5448 11.4118 16.6322 13.0333C16.6322 13.0333 16.6322 13.0333 16.6441 13.0333C19.8946 14.2961 23.612 15.2004 27.4792 15.1235C30.3495 15.0585 33.7143 14.6291 37.3293 14.0065C39.4806 13.6322 41.7225 13.1909 44.0018 12.7142C44.0056 12.7126 44.0096 12.7117 44.0136 12.7117C44.0177 12.7117 44.0217 12.7126 44.0255 12.7142C45.3493 12.4364 46.685 12.1468 48.0187 11.8513C48.2669 11.8021 48.5093 11.7489 48.7575 11.6937L48.0246 11.8572C48.0916 11.8986 48.1527 11.9538 48.2216 12.003C48.2216 12.003 48.2925 13.2047 48.4442 14.9383C48.4416 14.9487 48.4416 14.9595 48.4442 14.9699C49.4411 20.6002 50.56 26.922 51.5864 32.7001C47.9301 33.1709 44.2816 33.6241 40.8557 33.9688C37.2407 34.3313 33.8759 34.5854 31.0056 34.6229C20.9368 34.7509 11.8411 30.9133 9.44952 29.814Z" fill="white"/>
<path d="M10.9499 38.2911V38.3167V38.2911V38.2674L10.2683 34.481L10.2447 34.3293L10.1836 33.9669V33.9314L10.3589 34.5224C10.3356 34.5104 10.3112 34.5005 10.286 34.4929L10.9499 38.2911Z" fill="white"/>
<path d="M12.3341 46.1532L12.3282 46.1473L10.9492 38.3164L10.9551 38.3223V38.3282L12.3341 46.1532Z" fill="white"/>
<path d="M60.1722 79.504C59.1871 79.9433 58.1588 80.3984 57.0969 80.8377L55.8046 81.3677C55.6411 81.4347 55.4776 81.5016 55.316 81.5647C53.6415 82.2246 51.902 82.859 50.1368 83.4264C45.2236 85.0162 40.1488 86.1095 35.9132 85.9342C32.0056 85.7585 28.1281 85.1641 24.3472 84.1612L24.2369 84.1257C23.9355 84.0528 23.6459 83.9681 23.3622 83.8893C22.8185 83.7337 22.3102 83.5702 21.8512 83.4126C21.729 83.3712 21.603 83.3338 21.471 83.2865C20.7637 83.0323 20.1648 82.79 19.6979 82.5733C19.588 82.5248 19.4808 82.4702 19.3768 82.4098C19.248 82.342 19.123 82.267 19.0025 82.1852C18.9538 82.1572 18.9077 82.1249 18.8646 82.0887C18.7849 82.0259 18.7116 81.9553 18.646 81.8779C18.646 81.8779 18.646 81.8779 18.646 81.8661C18.646 81.8543 18.646 81.8405 18.6341 81.8346C18.6223 81.8287 18.6341 81.8346 18.6341 81.8228C18.6341 81.8109 18.6341 81.805 18.6341 81.7991L18.3741 80.3196L17.7693 76.9036L16.0711 67.2662L13.7288 54.0867L13.1003 50.523L13.0767 50.389V50.3713L12.334 46.1534C12.6236 46.2795 13.0038 46.4489 13.4687 46.644C13.6657 46.7208 13.8805 46.8055 14.105 46.8961C18.485 48.6319 23.0593 49.8299 27.7278 50.4639L27.8302 50.4816C32.1643 50.4993 36.3782 50.5762 40.728 50.5899C41.8404 50.4993 42.9804 50.3962 44.148 50.2806C47.6231 49.9359 51.3208 49.4926 55.0383 49.012C55.0915 49.2543 55.1466 49.5123 55.1998 49.7862C55.2431 49.9595 55.2786 50.1349 55.316 50.3161C55.3633 50.5643 55.4185 50.8244 55.4717 51.0903C55.4855 51.1455 55.4973 51.2046 55.5091 51.2598C55.5879 51.6715 55.6726 52.099 55.7632 52.5462C55.7987 52.7156 55.8283 52.885 55.8657 53.0604C55.9681 53.5857 56.0706 54.1294 56.173 54.6915C56.2951 55.3259 56.4153 55.9799 56.5414 56.6497C56.8251 58.1962 57.1226 59.8412 57.4181 61.5137C57.5205 62.1304 57.6288 62.7588 57.7392 63.3813C57.7983 63.7202 57.8593 64.0649 57.9145 64.4018C58.076 65.3691 58.2396 66.3364 58.3972 67.2918C58.7419 69.3643 59.0611 71.3875 59.3329 73.2374C59.3979 73.6846 59.4649 74.1259 59.5299 74.5534C59.5595 74.772 59.589 74.9828 59.6206 75.1897C59.7644 76.1983 59.8924 77.1282 59.9949 77.9615C60.0658 78.5249 60.1249 79.0371 60.1722 79.504Z" fill="white"/>
<path d="M73.0552 30.2434C70.2971 30.4187 67.0604 30.7497 63.5991 31.1673C63.4598 30.4778 63.3206 29.8034 63.1814 29.1441C62.5352 26.0925 61.9679 23.4093 61.6054 21.8136C61.0971 19.6072 60.7169 16.5674 60.4628 14.03C60.1968 11.3725 60.0688 9.26258 60.0688 9.26258L60.0215 9.22712C61.0912 9.00845 62.1294 8.80357 63.146 8.6105C65.4529 8.18104 67.61 7.82249 69.5387 7.62549C69.913 7.58215 70.2814 7.54603 70.6439 7.51714C78.2029 6.8887 87.5861 7.71414 95.1845 9.95209C96.3567 10.2968 97.4796 10.6712 98.5552 11.0868C99.4082 11.4139 100.212 11.7645 100.984 12.127L101.022 12.1447L101.183 12.2176C102.235 12.722 103.249 13.3014 104.217 13.9512C104.357 14.0478 104.471 14.1325 104.562 14.1936C104.562 14.1936 104.69 16.073 104.956 18.4547C105.21 20.7498 105.598 23.5059 106.104 25.5055C106.301 26.2679 106.552 27.3061 106.841 28.5275C106.862 28.5921 106.878 28.6579 106.89 28.7245C107.03 29.3155 107.168 29.8848 107.302 30.4522C107.548 31.5534 107.826 32.7315 108.112 33.9451C108.122 33.9765 108.13 34.0088 108.135 34.0416C108.468 35.4679 108.805 36.9434 109.144 38.3756C109.341 39.2267 109.538 40.0738 109.735 40.8835C109.698 40.8047 109.662 40.7259 109.633 40.653C108.592 38.2791 108.096 34.0554 108.096 34.0554C100.61 30.9368 85.3876 29.613 74.1742 30.1567C73.7979 30.1941 73.4295 30.2197 73.0552 30.2434Z" fill="white"/>
<path d="M116.121 71.1532C116.066 71.1216 116.007 71.0921 115.952 71.0625C115.735 70.9404 115.312 70.7119 114.719 70.4144C112.006 69.0728 105.739 66.3305 99.2323 65.8833C98.2473 65.7986 97.7154 65.8104 97.7154 65.8104C97.0988 65.7986 96.4762 65.8104 95.8596 65.8597C95.0874 65.9129 94.2836 66.0035 93.4483 66.1375C93.2375 66.167 93.009 66.2025 92.7608 66.2517C89.2581 66.8683 85.3889 68.0819 81.571 69.5476C79.735 70.2469 77.9147 71.0034 76.1692 71.7757L75.6196 72.0121C74.3568 72.5736 73.1354 73.137 71.9691 73.6925C71.8549 72.611 71.6795 71.3285 71.4687 69.916C70.6137 64.2088 69.0515 56.3484 67.8301 50.6137C67.5878 49.477 67.3592 48.419 67.1465 47.4892C70.6925 47.0715 73.9687 46.7347 76.7858 46.5593C77.166 46.5337 77.5403 46.516 77.9087 46.4983C89.1497 45.9545 104.364 47.2469 112.039 50.2807C112.057 50.3773 112.081 50.4777 112.104 50.5703C112.104 50.5821 112.104 50.6018 112.104 50.6137C112.376 51.7681 112.674 53.0309 112.963 54.3567L113.017 54.5872C113.659 57.4753 114.323 60.6411 114.884 63.5961C114.957 64.002 115.03 64.3999 115.109 64.8116C115.188 65.2234 115.266 65.6686 115.343 66.0862C115.465 66.7698 115.574 67.4278 115.676 68.0563L115.694 68.1902C115.713 68.2652 115.726 68.3416 115.731 68.4188C115.822 69.0098 115.901 69.5496 115.972 70.0696L116.056 70.7217L116.121 71.1532Z" fill="white"/>
<path d="M81.5781 69.5833C81.5781 69.5714 81.5781 69.5534 81.5781 69.5415" stroke="white" stroke-width="3.07" stroke-miterlimit="10"/>
<path d="M37.3291 14.0083C37.3278 13.986 37.3278 13.9636 37.3291 13.9413" stroke="white" stroke-width="3.07" stroke-miterlimit="10"/>
<path d="M48.446 14.9304C48.2589 13.8863 48.0835 12.8638 47.9082 11.8729C47.9515 11.8729 47.987 11.8552 48.0284 11.8492C48.0954 11.8906 48.1564 11.9458 48.2254 11.995C48.2234 11.995 48.2943 13.2046 48.446 14.9304Z" fill="#C7102E"/>
<path d="M58.4226 9.55823C56.0369 10.0527 53.5586 10.6161 51.0566 11.1717C53.5172 10.6161 55.9088 10.0724 58.4226 9.55823Z" fill="#C7102E"/>
<path d="M63.1698 29.1441C62.5236 26.0925 61.9563 23.4093 61.5938 21.8136C61.0855 19.6072 60.7053 16.5674 60.4512 14.03C61.2845 18.7207 62.2695 24.1402 63.1698 29.1441Z" fill="#C7102E"/>
<path d="M52.4918 37.367H52.4307C52.3165 36.7268 52.1963 36.0747 52.082 35.4088C52.218 36.0688 52.3519 36.7208 52.4918 37.367Z" fill="#C7102E"/>
<path d="M70.532 74.3779C68.2901 75.4969 65.4198 77.0138 62.7012 78.318C63.4892 77.924 64.2181 77.5576 64.8938 77.2069C66.4482 76.409 68.3689 75.4181 70.532 74.3779Z" fill="#C7102E"/>
<path d="M95.1616 9.95235C95.1458 10.0962 75.7351 24.0144 67.3428 29.6526C67.2601 29.7098 67.4788 29.5679 67.3428 29.6526C66.3184 23.843 64.1396 14.3652 63.125 8.61273C72.2226 6.4063 85.7803 6.98746 95.1616 9.95235Z" fill="#012169"/>
<path d="M75.6194 72.004C74.6048 66.2515 72.4476 57.3825 71.4232 51.5709C71.5887 51.6556 71.3188 51.5157 71.4232 51.5709C83.9191 60.6803 93.4481 66.1314 93.4481 66.1314C91.7638 66.3638 88.6491 67.2543 88.6491 67.2543C88.6491 67.2543 83.7182 68.4797 75.6194 72.004Z" fill="#012169"/>
<path d="M44.0206 12.7083C45.0332 18.4529 47.805 26.1458 48.8156 31.8845C48.7033 31.9653 47.0426 31.1438 46.9638 31.0965C36.5345 25.4425 16.6372 13.1003 16.582 12.986C28.3608 16.733 35.1554 13.6893 44.0206 12.7083Z" fill="#012169"/>
<path d="M25.4668 84.5295C25.4924 84.3936 45.5611 64.6184 52.0444 57.8416C53.0688 63.6551 54.7926 75.6132 55.8072 81.3637C45.5591 85.5854 37.811 87.5929 25.4668 84.5295Z" fill="#012169"/>
<path d="M18.647 81.931C18.6845 81.7872 17.6719 76.4149 17.6719 76.4149C17.6719 76.4149 35.2563 61.5491 45.1419 54.9081C45.3645 54.7584 46.4678 54.6973 46.7633 54.6993C48.7471 54.7092 48.7963 54.6047 50.7801 54.6146C50.918 54.6146 51.3318 54.5693 51.4066 54.8293C51.4815 55.0894 51.6036 55.3396 51.312 55.5287C49.9783 56.3975 45.859 59.5101 44.1825 61.0093C38.2764 66.2909 21.9547 83.3179 21.8444 83.4046C20.8673 83.0953 19.5493 82.6304 18.647 81.931Z" fill="#C7102E"/>
<path d="M104.55 14.1897C104.512 14.3335 91.1731 23.4212 81.2777 30.0681C80.7182 30.1252 79.1441 30.0524 77.9976 30.0681C76.0019 30.0583 76.7289 30.0878 74.7628 30.1528C74.6249 30.1528 73.2715 30.2336 73.2715 30.2336L73.567 29.9499C73.567 29.9499 91.6617 17.4855 98.5666 11.0711C98.6612 11.0081 100.734 11.9498 101.017 12.1428C102.268 12.691 103.452 13.3776 104.55 14.1897Z" fill="#C7102E"/>
<path d="M7.55859 19.0854C17.8973 26.7981 26.2896 31.7232 33.3226 34.5482C33.3226 34.5738 32.6173 34.5482 32.6173 34.5777C25.3046 34.5777 21.5241 34.5777 9.45376 29.8162C8.6756 25.4014 8.33675 23.5003 7.55859 19.0854Z" fill="#012169"/>
<path d="M13.5977 53.1431C20.4159 55.3002 25.7882 56.039 30.1301 56.0232C32.1198 56.0232 40.9653 54.9811 40.9653 55.0067C34.4208 59.3959 22.9671 66.3974 16.9428 72.3429C16.1725 67.9242 14.3758 57.5579 13.5977 53.1431Z" fill="#012169"/>
<path d="M108.117 34.0593C103.543 32.4538 103.041 32.0637 97.8476 31.258C95.8165 30.9427 93.2378 30.8305 87.1504 30.3045C93.6929 25.9133 98.4012 22.842 104.944 18.4508C105.669 24.485 107.087 29.3214 108.117 34.0593Z" fill="#012169"/>
<path d="M115.743 68.4362C106.606 62.2582 101.788 59.1062 93.7006 54.7209C93.7006 54.6933 88.0743 51.5984 88.0703 51.5688C96.0706 51.5688 104.554 52.7233 112.973 54.3604C114.02 58.6472 114.912 63.5584 115.743 68.4362Z" fill="#012169"/>
<path d="M116.125 71.1532C105.701 65.6548 97.7189 65.8046 97.7189 65.8046C97.7189 65.8046 85.1364 57.9737 80.6644 54.9812C79.4193 54.1459 75.5325 51.4352 75.3887 51.3623C75.3887 51.3623 81.6711 51.3268 83.2688 51.5593C83.5032 51.5593 88.0717 54.4001 88.2963 54.5143C97.8036 59.6758 116.125 71.1532 116.125 71.1532Z" fill="#C7102E"/>
<path d="M5.31641 6.40613C5.31641 6.40613 10.6138 13.709 29.4236 23.9492C29.5773 24.032 45.1622 33.3049 45.436 33.4585C45.1799 33.4585 42.481 33.8092 41.7836 33.8683C39.6993 34.0456 39.2797 34.1185 38.3084 34.2052C38.0287 34.2052 16.8686 22.3003 6.75453 14.8989C6.49251 13.4115 6.53979 13.6519 6.29157 12.1645C6.27581 12.0778 5.31641 6.40613 5.31641 6.40613Z" fill="#C7102E"/>
<path d="M71.971 73.6843C71.6814 73.8163 71.3977 73.9562 71.114 74.0941L70.5328 74.3778C69.2228 75.0062 68.0073 75.6169 66.9021 76.1863C66.183 76.5488 65.5112 76.8994 64.9005 77.2126C64.2248 77.5633 63.4939 77.9376 62.7079 78.3237C62.3139 78.5207 61.9337 78.7 61.5535 78.8754C61.0885 79.098 60.6295 79.3028 60.1744 79.5038C60.1252 79.0369 60.0661 78.5188 59.9991 77.9613C59.8967 77.1279 59.7686 76.1981 59.6248 75.1894C59.5933 74.9826 59.5637 74.7718 59.5342 74.5531C59.4731 74.1256 59.4061 73.6843 59.3372 73.2371C59.0653 71.3873 58.7462 69.3641 58.4014 67.2916C58.2438 66.3361 58.0803 65.3688 57.9188 64.4016C57.8636 64.0647 57.8025 63.7199 57.7434 63.3811C57.6331 62.7586 57.5248 62.1301 57.4223 61.5135C57.1268 59.8409 56.8313 58.196 56.5457 56.6495C56.4196 55.9797 56.2994 55.3256 56.1773 54.6913C56.0748 54.1305 55.9724 53.5868 55.8699 53.0601C55.8325 52.8848 55.803 52.7154 55.7675 52.5459C55.6828 52.0987 55.5981 51.6712 55.5134 51.2595C55.5015 51.2044 55.4897 51.1452 55.4759 51.0901C55.4227 50.8241 55.3676 50.5641 55.3203 50.3159C55.2829 50.1346 55.2474 49.9593 55.2041 49.7859C55.1509 49.5121 55.0957 49.254 55.0425 49.0117C54.9519 48.5822 54.8613 48.202 54.7825 47.8691C54.6722 47.4101 54.552 46.8841 54.4259 46.3344C54.353 46.0271 54.286 45.706 54.2072 45.3731C54.1166 44.9456 54.0102 44.4984 53.9117 44.0315C53.8507 43.736 53.7856 43.4405 53.7147 43.1312C53.3207 41.3424 52.905 39.3665 52.4874 37.3669C52.3495 36.7207 52.2155 36.0686 52.0776 35.4146C52.0771 35.4047 52.0771 35.3949 52.0776 35.385C51.92 34.5025 51.7624 33.612 51.5989 32.6959C51.1635 30.261 50.7163 27.7295 50.2692 25.1921C50.1194 24.3384 49.9684 23.488 49.816 22.6409C49.751 22.2666 49.6841 21.8923 49.619 21.5239C49.487 20.7733 49.359 20.0306 49.225 19.2939C49.1935 19.0969 49.1581 18.8998 49.1226 18.7028C49.0497 18.2813 48.9709 17.8577 48.898 17.4341C48.7463 16.5949 48.6025 15.7675 48.4567 14.9519C48.4541 14.9416 48.4541 14.9307 48.4567 14.9204C48.305 13.1868 48.2341 11.9851 48.2341 11.9851C48.1671 11.9358 48.1061 11.8806 48.0371 11.8393L48.77 11.6758L49.4043 11.5319L50.8661 11.2049C50.933 11.1872 50.9981 11.1754 51.0631 11.1616C53.565 10.606 56.0433 10.0505 58.429 9.54813C58.823 9.46342 59.217 9.38068 59.611 9.30187C59.745 9.27035 59.877 9.24671 60.005 9.21716L60.0523 9.25262C60.0523 9.25262 60.1804 11.3625 60.4463 14.0201C60.7004 16.5575 61.0807 19.5972 61.5889 21.8037C61.9573 23.3994 62.5247 26.0826 63.1649 29.1341C63.3042 29.7908 63.4434 30.4652 63.5826 31.1574C63.6003 31.2421 63.6181 31.3268 63.6299 31.4056C63.6969 31.707 63.7579 32.0104 63.8269 32.3177L63.8801 32.5718C63.9411 32.8732 64.0022 33.1766 64.0672 33.484C64.1322 33.7913 64.1953 34.0947 64.2642 34.402C64.2791 34.4475 64.2896 34.4944 64.2957 34.5419L64.3135 34.6502C64.32 34.661 64.324 34.6731 64.3253 34.6857C64.3253 34.6995 64.3253 34.7054 64.3253 34.7172C64.3371 34.7842 64.3548 34.8551 64.3686 34.9142C64.4277 35.2156 64.4947 35.5052 64.5558 35.8086C64.5972 36.0056 64.6405 36.1888 64.676 36.376C64.8217 37.0536 64.9596 37.7175 65.0995 38.3716C65.6669 41.0233 66.1929 43.4227 66.5967 45.115C66.6401 45.2844 66.6814 45.4598 66.7189 45.641C66.7563 45.8222 66.7977 45.9601 66.8331 46.1237C66.9297 46.5413 67.0301 46.9885 67.1346 47.4711C67.239 47.9538 67.3532 48.4562 67.4734 48.9822C67.5936 49.5082 67.698 50.0322 67.8182 50.5956C68.2122 52.4199 68.6278 54.4569 69.0514 56.5766C69.0809 56.746 69.1184 56.9155 69.1538 57.0849C69.2326 57.5025 69.3173 57.9182 69.4021 58.3418C69.4316 58.4994 69.4612 58.657 69.4927 58.8126C69.5459 59.0786 69.5951 59.3504 69.6483 59.6164C69.7704 60.2507 69.8906 60.891 70.0108 61.5273C70.0364 61.6829 70.066 61.8346 70.0955 61.9863C70.1448 62.2523 70.1999 62.5241 70.2472 62.7901C70.2846 63.0009 70.3201 63.2058 70.3615 63.4185C70.3671 63.4669 70.3757 63.5149 70.3871 63.5623C70.4343 63.8224 70.4777 64.0824 70.525 64.3365C70.592 64.699 70.6589 65.0615 70.722 65.424C70.785 65.7865 70.85 66.1372 70.919 66.4878C71.0175 67.0841 71.1147 67.6659 71.2105 68.2333C71.3012 68.8026 71.3918 69.3581 71.4706 69.8901C71.5297 70.2841 71.5848 70.6682 71.638 71.0445C71.6696 71.2671 71.6991 71.4917 71.7287 71.7084C71.7543 71.8601 71.772 72.0098 71.7897 72.1556C71.8075 72.3014 71.8272 72.4452 71.8449 72.591C71.8922 72.983 71.9355 73.3455 71.971 73.6843Z" fill="#C7102E"/>
<path d="M111.324 47.3805C110.985 46.5531 110.695 45.8517 110.471 45.3494C109.432 42.9854 108.936 38.7459 108.936 38.7459C108.79 38.6848 108.646 38.6237 108.495 38.5705C108.343 38.5173 108.193 38.4484 108.036 38.3952C107.839 38.3164 107.618 38.2435 107.401 38.1706C107.185 38.0977 106.966 38.0189 106.735 37.948C106.355 37.8318 105.963 37.7116 105.553 37.5973L105.356 37.5422C105.114 37.4693 104.868 37.4102 104.62 37.3452C104.499 37.3156 104.371 37.2841 104.245 37.2486L103.865 37.158L103.091 36.9768C102.831 36.9157 102.565 36.8546 102.303 36.8014C102.041 36.7483 101.765 36.6872 101.487 36.632C101.016 36.5355 100.538 36.4449 100.049 36.3661C99.6867 36.2932 99.3183 36.2341 98.944 36.1691C98.6524 36.1198 98.3529 36.0725 98.0614 36.0292C97.4704 35.9386 96.8695 35.8479 96.2608 35.7691L96.0421 35.7396C95.7289 35.7041 95.4018 35.6608 95.0768 35.6194L94.6828 35.5702C94.2888 35.5288 93.8849 35.4796 93.4811 35.4382C93.1659 35.4008 92.8526 35.3712 92.5374 35.3417C92.0725 35.2924 91.6017 35.251 91.1367 35.2077C90.9496 35.1959 90.7683 35.1781 90.5792 35.1604C90.5319 35.1604 90.4886 35.1604 90.4413 35.1466L89.6789 35.0934C89.4819 35.0757 89.2849 35.0639 89.0761 35.0442C88.755 35.0264 88.4417 35.0028 88.1206 34.9851C87.3602 34.9365 86.5991 34.8958 85.8374 34.8629C85.5163 34.8452 85.1971 34.8334 84.8819 34.8216C84.3677 34.8038 83.8614 34.7841 83.3532 34.7723C83.2684 34.7723 83.1896 34.7723 83.1049 34.7723C82.4588 34.7546 81.8126 34.7487 81.1783 34.7428C79.0447 34.725 76.9663 34.7605 75.014 34.857C74.6516 34.8748 74.2891 34.9004 73.9148 34.924C71.1764 35.0934 67.9869 35.4264 64.567 35.8302C64.5059 35.5347 64.4389 35.2392 64.3798 34.9358C64.3424 34.7664 64.3069 34.5911 64.2695 34.4157C64.2045 34.1084 64.1434 33.7991 64.0725 33.4977C64.0016 33.1963 63.9405 32.8456 63.8755 32.5127C63.8637 32.4457 63.8519 32.3866 63.84 32.3157C63.7731 32.0084 63.712 31.705 63.643 31.4036L63.5898 31.1553C67.0571 30.7377 70.2879 30.4067 73.046 30.2314C73.4203 30.2078 73.7887 30.1822 74.1531 30.1644C85.3665 29.6207 100.595 30.9524 108.075 34.0631C108.075 34.0631 108.571 38.2868 109.612 40.6607C109.641 40.7336 109.677 40.8124 109.714 40.8912C110.24 43.1016 110.723 45.0893 111.093 46.5156L111.324 47.3805Z" fill="white"/>
<path d="M52.4883 37.3668H52.4273C49.6062 37.7293 46.7792 38.08 44.0645 38.3834C43.2765 38.4681 42.4885 38.5508 41.7202 38.6296C38.113 38.9921 34.7482 39.2403 31.87 39.2837C28.589 39.3053 25.3152 38.9751 22.1046 38.2987C18.0586 37.4614 14.1158 36.1865 10.3455 34.4965L10.1702 33.9055V33.8937V33.874V33.8503L9.45703 29.796C9.76436 29.9359 10.1761 30.123 10.6883 30.3397L11.4014 30.6293C11.4344 30.642 11.4666 30.6565 11.498 30.6727L11.8743 30.8165C12.024 30.8776 12.1875 30.9386 12.351 31.0135C12.678 31.1396 13.0287 31.2657 13.3912 31.4075C13.6079 31.4863 13.8246 31.5592 14.0492 31.636C14.2304 31.6971 14.4116 31.7641 14.5929 31.833C14.7741 31.902 14.9672 31.9552 15.1543 32.0143C15.4203 32.1049 15.6922 32.1896 15.9699 32.2743C16.2477 32.359 16.4959 32.4378 16.7678 32.5166C17.5834 32.7589 18.4482 32.9934 19.3544 33.212L19.4451 33.2357C19.9218 33.3499 20.4124 33.4603 20.9127 33.5686C21.1787 33.6218 21.4506 33.6829 21.7224 33.7321C22.146 33.8168 22.5754 33.8937 23.0108 33.9666C23.3122 34.0217 23.6136 34.069 23.9229 34.1124L24.2736 34.1655C24.5455 34.2089 24.8232 34.2443 25.101 34.2818C25.3177 34.3113 25.5364 34.335 25.7531 34.3606C26.1208 34.4026 26.4899 34.4387 26.8603 34.4689C26.9143 34.4697 26.9682 34.4736 27.0218 34.4807C27.3074 34.5044 27.597 34.528 27.8807 34.5477C28.1644 34.5674 28.4008 34.5773 28.6687 34.5891C28.8973 34.6009 29.1278 34.6068 29.3622 34.6127H29.4114C29.9433 34.6265 30.4812 34.6324 31.019 34.6265C31.3756 34.6265 31.7439 34.6127 32.1183 34.6009L32.6088 34.5832H32.6797C32.6797 34.5832 32.6797 34.5832 32.6935 34.5832C32.7073 34.5832 32.6935 34.5832 32.7053 34.5832C32.7171 34.5832 32.7171 34.5832 32.723 34.5832C32.729 34.5832 32.7349 34.5832 32.7408 34.5832H32.8196H32.9713C33.0855 34.5832 33.1998 34.5714 33.316 34.5714C34.8743 34.5044 36.5429 34.3744 38.2943 34.2325L38.4755 34.2148H38.5011C38.5174 34.2178 38.5341 34.2178 38.5504 34.2148H38.5622C38.5622 34.2148 38.5622 34.2148 38.574 34.2148C38.5858 34.2148 38.574 34.2148 38.5858 34.2148C38.6081 34.2178 38.6306 34.2178 38.6528 34.2148C38.6528 34.2148 38.6706 34.2148 38.6765 34.2148H38.6962C38.7198 34.2148 38.7375 34.2148 38.7612 34.2148C38.7848 34.2148 38.7927 34.2148 38.8045 34.2148L38.9621 34.1971C39.5847 34.1439 40.2111 34.0828 40.8533 34.0217C41.1607 33.9922 41.47 33.9626 41.7773 33.9252C41.8009 33.9252 41.8246 33.9252 41.8502 33.9252L42.0078 33.9075L42.3447 33.872C42.52 33.8523 42.7012 33.8346 42.8766 33.8109C42.9081 33.8109 42.9436 33.8109 42.979 33.7991C43.0145 33.7873 43.0401 33.7991 43.0696 33.7991H43.0893C43.129 33.7922 43.1692 33.7882 43.2095 33.7873L44.6043 33.6238C44.7323 33.6061 44.8584 33.5923 44.9806 33.5804C45.0653 33.5686 45.148 33.5627 45.2268 33.545C45.249 33.548 45.2716 33.548 45.2938 33.545H45.3549C45.3791 33.5478 45.4035 33.5478 45.4278 33.545L45.7528 33.5076C46.3281 33.4425 46.9072 33.3696 47.4884 33.3105C48.8477 33.1411 50.2129 32.9678 51.5841 32.7905C51.7476 33.7026 51.9052 34.597 52.0628 35.4796C52.0622 35.4894 52.0622 35.4993 52.0628 35.5091C52.2145 36.0686 52.3485 36.7207 52.4883 37.3668Z" fill="white"/>
<path d="M55.0403 49.0119C51.3228 49.4827 47.6251 49.9358 44.15 50.2806C42.9837 50.3948 41.8437 50.4979 40.73 50.5899C36.3802 50.5761 25.0072 52.0378 14.107 46.8961C13.8884 46.7936 13.6717 46.7207 13.4707 46.6439C13.0058 46.4469 12.6256 46.2794 12.336 46.1534L10.957 38.3284V38.3028L10.2812 34.481C10.3064 34.4886 10.3308 34.4985 10.3541 34.5105C14.1244 36.2005 18.0673 37.4754 22.1132 38.3127C25.3238 38.9891 28.5977 39.3193 31.8787 39.2977C34.749 39.2543 38.1138 39.0061 41.7288 38.6436C42.503 38.5648 43.2812 38.4821 44.0731 38.3974C46.7878 38.094 49.6148 37.7433 52.4359 37.3808H52.497C52.9146 39.3804 53.3382 41.3564 53.7243 43.1451C53.7913 43.4485 53.8563 43.7499 53.9213 44.0454C54.0237 44.5123 54.1183 44.9595 54.2168 45.387C54.2956 45.72 54.3626 46.0411 54.4355 46.3484C54.5616 46.9039 54.6817 47.424 54.792 47.8831C54.8551 48.2022 54.9496 48.5824 55.0403 49.0119Z" fill="#C7102E"/>
<path d="M112.036 50.2805C104.353 47.2466 89.1465 45.9464 77.9055 46.498C77.5371 46.5158 77.1628 46.5335 76.7826 46.5591C73.9654 46.7344 70.6755 47.0713 67.1432 47.489C66.9462 46.5827 66.763 45.7849 66.6054 45.1249C66.2015 43.4327 65.6756 41.0332 65.1082 38.3815C64.9329 37.5462 64.7516 36.6893 64.5645 35.8205C67.9844 35.4166 71.1739 35.0837 73.9122 34.9143C74.2865 34.8906 74.649 34.865 75.0115 34.8473C76.9638 34.7508 79.0422 34.7153 81.1757 34.733C81.8101 34.733 82.4562 34.7449 83.1024 34.7626C83.1871 34.7626 83.2659 34.7626 83.3506 34.7626C83.8589 34.7744 84.3652 34.7941 84.8794 34.8118C85.2005 34.8237 85.5137 34.8355 85.8348 34.8532C86.5953 34.8847 87.3564 34.9254 88.1181 34.9753C88.4392 34.9931 88.7524 35.0167 89.0736 35.0344C89.2706 35.0541 89.4676 35.066 89.6764 35.0837L90.4388 35.1369C90.4861 35.1369 90.5294 35.1369 90.5767 35.1507C90.7737 35.1684 90.9471 35.1861 91.1342 35.198C91.605 35.2413 92.07 35.2827 92.5349 35.3319C92.8501 35.3615 93.1633 35.391 93.4785 35.4285C93.8824 35.4698 94.2823 35.5191 94.6803 35.5604L95.0743 35.6097C95.3993 35.6511 95.7263 35.6944 96.0396 35.7299L96.2582 35.7594C96.867 35.8441 97.4659 35.9288 98.0589 36.0195C98.3544 36.0628 98.6499 36.1101 98.9414 36.1593C99.3157 36.2197 99.6841 36.2854 100.047 36.3563C100.535 36.441 101.014 36.5317 101.485 36.6223C101.763 36.6775 102.034 36.7366 102.3 36.7917C102.566 36.8469 102.838 36.906 103.088 36.967L103.863 37.1483L104.243 37.2389C104.369 37.2744 104.497 37.3059 104.617 37.3354L105.354 37.5324L105.551 37.5876C105.957 37.7019 106.349 37.822 106.733 37.9383C106.963 38.0092 107.18 38.0821 107.399 38.1609C107.617 38.2397 107.822 38.3126 108.033 38.3855C108.191 38.4446 108.34 38.4997 108.492 38.5608C108.644 38.6219 109.083 38.7716 109.225 38.8307C109.225 38.8307 109.907 41.7148 110.502 44.1636C110.63 44.6974 111.093 46.5276 111.321 47.3708C111.32 47.3735 111.319 47.3766 111.319 47.3796C111.319 47.3827 111.32 47.3857 111.321 47.3885C111.54 48.2258 111.784 49.1989 112.036 50.2805Z" fill="#C7102E"/>
<path d="M41.7198 38.6382V38.6003C41.7184 38.6129 41.7184 38.6256 41.7198 38.6382Z" stroke="white" stroke-width="2.34" stroke-miterlimit="10"/>
</svg>
