<svg width="239" height="371" viewBox="0 0 239 371" fill="none" xmlns="http://www.w3.org/2000/svg">
<path d="M213.124 223.021C212.9 222.891 212.639 222.839 212.382 222.872C212.125 222.905 211.886 223.022 211.702 223.205L207.473 228.23C207.498 226.341 207.524 224.447 207.554 222.558C207.554 221.626 206.204 220.908 205.557 221.733C203.926 223.8 202.297 225.871 200.67 227.945C200.134 225.148 199.154 222.454 197.765 219.966C197.256 219.024 195.956 219.35 195.625 220.246C194.389 223.616 194.024 227.243 194.565 230.792C191.888 229.992 189.032 230.013 186.366 230.853C185.48 231.138 185.123 232.533 186.086 232.991C188.975 234.376 191.375 236.474 193.862 238.45C192.593 242.641 189.754 246.181 185.938 248.333C183.904 249.501 181.672 250.286 179.354 250.65C176.611 250.998 173.827 250.841 171.14 250.187C167.858 249.42 164.687 248.242 161.703 246.678C161.533 246.585 161.343 246.536 161.15 246.536C160.956 246.536 160.766 246.585 160.597 246.678L160.429 246.454L160.301 246.291C169.357 242.32 177.627 236.438 181.428 226.942C187.253 212.476 180.042 197.18 176.44 183.152C172.21 166.664 172.501 149.545 174.707 132.783C176.97 115.577 181.005 98.6668 183.772 81.5478C185.183 73.1583 186.136 64.6983 186.626 56.2054C187.013 48.705 187.024 41.169 186.01 33.7195C185.041 26.6316 183.171 19.2585 179.253 13.189C175.782 7.81701 170.702 3.30049 164.607 1.17208C158.767 -0.864683 151.827 -0.304574 146.696 3.30559C142.374 6.36073 139.959 11.1573 138.756 16.1983C137.503 21.3818 137.355 26.764 137.355 32.0748C137.355 40.0488 137.586 48.0261 138.048 56.0068C139.067 73.3193 141.146 90.5554 143.536 107.725C144.484 114.538 145.488 121.346 146.502 128.149C145.962 127.828 145.417 127.523 144.881 127.237C143.505 126.514 142.071 125.903 140.596 125.409C137.786 124.515 134.836 124.144 131.892 124.315C131.999 121.769 131.133 119.223 128.896 117.604C126.154 115.613 122.272 115.623 119.214 116.942L118.852 117.11C118.796 116.993 118.733 116.879 118.664 116.768C117.669 115.29 116.16 114.234 114.429 113.805C112.828 113.406 111.16 113.354 109.537 113.652C108.706 113.779 107.886 113.973 107.086 114.233C106.765 114.34 106.444 114.452 106.138 114.584L105.726 114.772L105.318 114.956C105.09 115.058 104.861 115.165 104.63 115.277C101.535 116.776 98.7798 118.892 96.5327 121.494C95.2786 122.981 94.1886 124.6 93.2816 126.321C92.9052 127.005 92.565 127.709 92.2625 128.429C91.8923 128.41 91.5241 128.493 91.1974 128.668C90.0152 129.239 88.8483 129.809 87.7119 130.456L87.5794 130.532C90.0254 114.136 92.4408 97.7248 94.204 81.2423C96.0741 64.0215 97.2614 46.6937 97.027 29.366C96.9353 22.9298 96.4716 16.1677 93.5517 10.312C92.239 7.58922 90.2627 5.23957 87.8044 3.47884C85.346 1.71812 82.4844 0.602757 79.4823 0.235168C73.403 -0.513342 67.0231 1.52342 62.1872 5.20996C56.8162 9.28348 53.3562 15.3938 51.2516 21.7281C48.9585 28.592 48.1432 35.9243 47.812 43.1141C47.5068 50.7077 47.7605 58.3134 48.5713 65.8698C50.1408 81.3136 53.397 96.5078 56.2557 111.748C59.0737 126.749 61.5604 141.928 61.382 157.239C61.3388 164.774 60.5036 172.283 58.8902 179.643C57.071 187.704 54.0237 195.428 52.2657 203.509C50.6707 210.867 50.1509 218.815 52.6835 226.031C54.9563 232.497 59.5883 237.61 65.1937 241.418C67.2644 242.812 69.4303 244.059 71.6755 245.151L71.3035 245.354C70.4169 245.813 69.5149 246.296 68.455 246.882C66.1874 248.084 63.8994 249.245 61.6164 250.421C56.6328 252.992 51.6542 255.691 46.9457 258.741C43.0678 261.251 38.9912 264.011 36.2446 267.815C34.2062 270.687 32.3157 273.956 31.8928 277.489C31.693 279.235 31.8571 281.003 32.3745 282.682C32.8919 284.361 33.7515 285.915 34.8993 287.245C39.8677 293.239 48.0209 293.967 55.3334 293.712C53.1706 298.326 52.7016 303.554 54.0084 308.479C54.0489 308.606 54.1218 308.721 54.22 308.812C54.3182 308.904 54.4384 308.968 54.5689 308.998C54.6993 309.029 54.8355 309.026 54.9641 308.988C55.0928 308.951 55.2094 308.88 55.3028 308.784C55.7818 308.132 56.2302 307.46 56.6532 306.778C56.7591 307.541 56.9296 308.294 57.1627 309.029C57.2041 309.157 57.2779 309.272 57.3768 309.363C57.4757 309.455 57.5965 309.519 57.7276 309.55C57.8587 309.582 57.9956 309.579 58.1251 309.542C58.2546 309.505 58.3725 309.435 58.4673 309.339C59.4867 308.215 60.4105 307.007 61.2292 305.729C61.5075 306.089 61.8702 306.374 62.2853 306.561C62.7003 306.747 63.1549 306.829 63.6089 306.798C65.5402 306.63 66.5033 304.706 66.9772 303.051C67.2685 302.021 67.5066 300.978 67.6906 299.924C68.19 302.531 68.7947 305.116 69.5047 307.679C71.8012 315.785 74.9939 323.61 79.0236 331.01C81.3012 335.178 83.8282 339.204 86.5909 343.068C89.577 347.299 92.7364 351.444 96.0028 355.467L96.0792 355.558C95.0044 355.803 93.9538 356.144 92.9402 356.577C91.1706 357.276 89.4569 358.108 87.8138 359.067C84.5364 361.028 81.5415 363.427 78.9115 366.195C78.1828 366.964 78.7179 368.584 79.9307 368.436C80.2466 368.395 80.5626 368.334 80.8734 368.273C80.8268 368.447 80.8206 368.629 80.8551 368.805C80.8897 368.982 80.9641 369.148 81.0727 369.291C81.1813 369.435 81.3213 369.552 81.4819 369.633C81.6425 369.714 81.8196 369.757 81.9996 369.76C83.018 369.836 84.0413 369.82 85.057 369.714C85.266 369.714 85.4647 369.653 85.6685 369.612C85.6795 369.853 85.7794 370.081 85.9488 370.252C86.1182 370.423 86.3452 370.525 86.5858 370.539C88.2289 370.689 89.8801 370.73 91.5287 370.661C92.5478 370.625 93.5313 370.412 94.5505 370.381C95.5696 370.35 96.7162 370.284 97.8016 370.269C102.18 370.186 106.551 369.878 110.898 369.347C112.773 369.133 114.664 369.001 116.534 368.741C116.873 368.701 117.193 368.563 117.456 368.344C117.598 368.534 117.778 368.693 117.984 368.81C118.19 368.927 118.418 369.001 118.654 369.027C118.875 369.054 119.1 369.037 119.316 368.977C119.531 368.916 119.732 368.814 119.907 368.675C119.972 368.905 120.099 369.112 120.275 369.273C120.45 369.435 120.667 369.545 120.901 369.592C124.422 370.065 128.035 370.264 131.602 370.452C133.64 370.559 135.714 370.666 137.768 370.63C139.821 370.595 141.763 370.488 143.75 370.549C144.724 370.574 145.666 370.712 146.645 370.692C147.516 370.692 148.382 370.61 149.243 370.524C149.364 370.516 149.482 370.484 149.591 370.43C149.699 370.376 149.795 370.3 149.874 370.208C149.952 370.116 150.011 370.009 150.047 369.893C150.084 369.778 150.096 369.656 150.084 369.536L150.711 369.663C151.751 369.827 152.807 369.861 153.855 369.765C154.03 369.757 154.201 369.709 154.355 369.626C154.51 369.543 154.643 369.426 154.746 369.284C154.849 369.142 154.918 368.979 154.949 368.807C154.98 368.634 154.972 368.457 154.925 368.288C155.144 368.329 155.358 368.365 155.578 368.39C156.862 368.553 157.774 367.173 156.811 366.15C154.178 363.376 151.18 360.975 147.898 359.011C146.285 358.066 144.6 357.25 142.858 356.572C141.595 356.04 140.275 355.652 138.925 355.416C140.963 352.549 143.001 349.682 144.988 346.76C147.618 342.88 150.293 339.025 152.632 334.946C157.038 327.257 160.756 319.194 163.741 310.852C166.489 303.355 168.354 295.565 169.3 287.638C169.703 284.034 169.855 280.406 169.754 276.782C178.452 277.999 187.589 276.125 194.846 271.068C198.918 268.28 202.225 264.514 204.461 260.116C206.948 255.131 208.507 249.586 209.659 244.163C211.06 237.569 212.716 231.021 213.649 224.335C213.709 224.089 213.691 223.83 213.597 223.594C213.503 223.359 213.338 223.158 213.124 223.021Z" fill="#83CE60"/>
<path d="M148.245 287.124C147.159 269.628 126.475 248.695 103.453 261.949C83.3091 273.304 76.1036 310.567 108.151 314.452C130.639 317.222 149.544 302.868 148.245 287.124Z" fill="#E2FAD7"/>
<path d="M89.9948 202.796C68.4855 243.761 155.685 244.692 151.766 215.526C146.573 176.838 100.411 182.963 89.9948 202.796Z" fill="#E2FAD7"/>
<path d="M127.143 197.602C127.043 197.556 126.934 197.532 126.824 197.532C126.714 197.532 126.606 197.556 126.506 197.602C126.26 197.452 126.001 197.326 125.731 197.226C124.206 196.686 122.642 196.262 121.053 195.958C120.488 195.815 119.917 195.708 119.336 195.622L119.199 195.596L118.995 195.561C118.414 195.489 118.139 196.146 118.292 196.62C118.006 196.458 117.691 196.356 117.366 196.32C117.04 196.283 116.71 196.312 116.396 196.406C116.105 196.497 115.838 196.65 115.611 196.854C115.463 196.937 115.325 197.036 115.198 197.149C114.958 197.378 114.766 197.651 114.633 197.955C114.5 198.258 114.429 198.585 114.424 198.916C114.354 199.001 114.304 199.1 114.275 199.206C114.247 199.312 114.241 199.423 114.259 199.531C114.277 199.64 114.318 199.743 114.379 199.835C114.44 199.926 114.519 200.003 114.612 200.062C114.668 200.102 114.724 200.128 114.781 200.164C115.054 200.575 115.438 200.902 115.889 201.107C116.339 201.311 116.838 201.385 117.328 201.319C117.725 201.269 118.103 201.122 118.429 200.892C118.848 201.464 119.457 201.87 120.146 202.037C120.665 202.155 121.207 202.126 121.711 201.956C122.104 201.943 122.49 201.845 122.841 201.669C123.193 201.493 123.503 201.244 123.749 200.937C124.103 201.24 124.553 201.409 125.018 201.413C125.484 201.418 125.937 201.259 126.297 200.963C126.446 200.964 126.593 200.935 126.73 200.876C126.931 200.782 127.109 200.646 127.251 200.476C127.394 200.306 127.498 200.107 127.556 199.894C128.06 199.216 128.024 198.02 127.143 197.602ZM124.152 199.328C124.138 199.237 124.12 199.147 124.096 199.059C124.493 199.237 124.851 199.491 125.15 199.807L125.196 199.858C124.804 200.006 124.457 199.68 124.152 199.328Z" fill="#C89D64"/>
<path d="M81.5154 33.7298C81.1077 29.1115 79.9255 22.4461 74.5443 21.1681C71.813 20.5214 69.0307 21.7893 67.1758 23.7853C65.0611 26.0614 64.2814 29.1165 64.0725 32.1411C63.8381 35.5527 64.1133 39.0254 64.2712 42.437C64.4377 46.0624 64.6551 49.6844 64.9235 53.3031C65.4535 60.4963 66.1737 67.6741 67.0841 74.8367C68.9018 89.1409 71.4788 103.338 74.8042 117.369C74.8399 117.507 74.8756 117.644 74.9061 117.782C74.8603 118.907 74.8246 120.032 74.8246 121.163C74.8259 121.289 74.8587 121.413 74.9202 121.524C74.9818 121.635 75.0699 121.728 75.1768 121.796C75.2836 121.864 75.4057 121.904 75.532 121.912C75.6583 121.921 75.7847 121.898 75.8998 121.845L76.068 122.533C76.3075 123.485 77.7801 123.083 77.5406 122.13C77.167 120.633 76.8018 119.135 76.4451 117.634C76.7202 111.524 77.6273 105.475 78.4324 99.4205C79.3853 92.2001 80.0427 84.9493 80.5013 77.6831C80.9701 70.3202 81.2453 62.9472 81.4746 55.5741C81.709 48.313 82.1625 40.9807 81.5154 33.7298Z" fill="#E2FAD7"/>
<path d="M152.51 33.7298C152.918 29.1115 154.095 22.4461 159.476 21.1681C162.213 20.5214 164.995 21.7893 166.85 23.7853C168.964 26.0614 169.744 29.1165 169.953 32.1411C170.187 35.5527 169.907 39.0254 169.749 42.437C169.579 46.0624 169.364 49.6844 169.102 53.3031C168.555 60.4996 167.835 67.6809 166.941 74.8469C165.121 89.1507 162.544 103.348 159.221 117.38C159.186 117.517 159.15 117.655 159.119 117.792C159.165 118.917 159.196 120.043 159.196 121.173C159.194 121.299 159.161 121.422 159.1 121.532C159.039 121.642 158.951 121.735 158.845 121.803C158.739 121.87 158.618 121.911 158.492 121.92C158.366 121.929 158.241 121.907 158.126 121.855L157.958 122.543C157.718 123.495 156.24 123.093 156.485 122.141C156.857 120.644 157.219 119.147 157.58 117.644C157.305 111.534 156.393 105.485 155.593 99.4307C154.635 92.2103 153.978 84.9595 153.519 77.6933C153.055 70.3304 152.78 62.9573 152.546 55.5843C152.316 48.313 151.868 40.9807 152.51 33.7298Z" fill="#E2FAD7"/>
<path d="M125.925 196.355C124.7 196.216 123.494 195.942 122.328 195.54C121.251 195.204 120.146 194.965 119.026 194.827C117.054 194.639 115.031 195.153 113.833 196.828C112.814 198.229 112.707 200.271 114.088 201.488C114.402 201.793 114.774 202.032 115.182 202.19C115.59 202.349 116.026 202.424 116.463 202.41C116.901 202.397 117.331 202.295 117.729 202.112C118.127 201.929 118.483 201.668 118.778 201.344C119.072 201.02 119.298 200.64 119.442 200.227C119.587 199.814 119.646 199.376 119.618 198.94C119.589 198.503 119.472 198.077 119.275 197.686C119.078 197.295 118.804 196.948 118.47 196.666C118.387 196.589 118.288 196.533 118.18 196.5C118.072 196.468 117.958 196.459 117.847 196.477C117.735 196.494 117.629 196.536 117.536 196.599C117.443 196.663 117.365 196.746 117.308 196.844C116.101 199.11 117.41 202.445 120.101 202.801C122.791 203.158 125.018 199.991 123.724 197.613C123.662 197.51 123.575 197.426 123.471 197.367C123.367 197.308 123.25 197.277 123.13 197.277C123.011 197.277 122.893 197.308 122.789 197.367C122.685 197.426 122.598 197.51 122.537 197.613C121.619 199.7 123.765 202.44 126.053 201.503C127.953 200.724 128.305 197.837 126.71 196.579C126.635 196.509 126.546 196.455 126.448 196.422C126.351 196.389 126.247 196.377 126.145 196.386C126.042 196.396 125.943 196.427 125.854 196.478C125.764 196.529 125.686 196.598 125.625 196.681C125.565 196.764 125.522 196.858 125.5 196.959C125.479 197.06 125.479 197.164 125.501 197.264C125.522 197.365 125.565 197.46 125.626 197.542C125.687 197.625 125.764 197.694 125.854 197.745C126.664 198.254 126.435 199.736 125.66 200.174C124.616 200.765 123.291 199.303 123.739 198.28L122.552 198.31C123.337 199.751 121.691 201.747 120.131 201.365C118.572 200.984 117.864 198.875 118.603 197.526L117.441 197.709C118.409 198.606 118.103 200.53 116.682 200.765C116.358 200.821 116.025 200.786 115.721 200.663C115.416 200.54 115.152 200.335 114.959 200.07C114.765 199.805 114.65 199.491 114.626 199.164C114.601 198.837 114.669 198.509 114.822 198.219C115.612 196.416 117.731 196.126 119.479 196.284C120.529 196.38 121.558 196.63 122.598 196.793C123.699 196.996 124.824 197.033 125.936 196.905C126.014 196.905 126.089 196.874 126.145 196.818C126.2 196.763 126.231 196.688 126.231 196.61C126.231 196.531 126.2 196.456 126.145 196.401C126.089 196.345 126.014 196.314 125.936 196.314L125.925 196.355Z" fill="#1E5405"/>
<path d="M120.845 201.518C120.453 202.017 120.19 202.604 120.08 203.229C119.866 203.967 119.693 204.716 119.525 205.464C119.199 206.92 118.964 208.397 118.776 209.879C118.587 211.361 118.46 212.751 118.414 214.197C118.368 215.643 118.215 217.328 118.552 218.78C118.725 219.513 119.978 219.523 120.08 218.744C120.264 217.333 120.08 215.836 120.08 214.411C120.08 212.985 120.167 211.508 120.289 210.057C120.411 208.606 120.6 207.216 120.799 205.805C120.911 205.082 121.043 204.369 121.176 203.651C121.369 203.005 121.419 202.324 121.324 201.655C121.308 201.605 121.279 201.56 121.241 201.524C121.202 201.488 121.155 201.463 121.103 201.45C121.052 201.438 120.999 201.439 120.948 201.454C120.897 201.468 120.851 201.496 120.814 201.533L120.845 201.518Z" fill="#1E5405"/>
<path d="M110.882 206.692C109.639 208.565 109.863 211.366 110.521 213.398C111.252 215.605 112.746 217.48 114.735 218.688C118.929 221.193 124.621 220.384 127.744 216.575C129.411 214.538 130.598 211.687 129.981 209.049C129.772 208.168 128.606 208.54 128.529 209.283C128.341 211.32 127.969 213.225 126.761 214.925C125.602 216.563 123.887 217.725 121.935 218.194C120 218.648 117.967 218.417 116.183 217.539C114.399 216.661 112.976 215.192 112.156 213.382C111.719 212.368 111.449 211.29 111.356 210.19C111.319 209.073 111.378 207.956 111.535 206.849C111.565 206.478 111.056 206.437 110.882 206.692Z" fill="#1E5405"/>
<path d="M154.247 198.982C159.659 198.982 159.45 190.591 154.044 190.591C148.637 190.591 148.841 198.982 154.247 198.982Z" fill="#1E5405"/>
<path d="M157.692 195.821C157.728 195.815 157.76 195.796 157.782 195.769C157.805 195.741 157.818 195.707 157.818 195.671C157.818 195.635 157.805 195.6 157.782 195.573C157.76 195.545 157.728 195.527 157.692 195.52C157.657 195.527 157.625 195.545 157.602 195.573C157.579 195.6 157.567 195.635 157.567 195.671C157.567 195.707 157.579 195.741 157.602 195.769C157.625 195.796 157.657 195.815 157.692 195.821Z" fill="white"/>
<path d="M158.171 197.215C158.439 197.223 158.703 197.158 158.936 197.027C159.179 196.94 159.397 196.793 159.568 196.599C159.753 196.421 159.888 196.198 159.96 195.952C160.082 195.713 160.135 195.446 160.113 195.178L160.031 194.669C159.933 194.338 159.749 194.039 159.496 193.804L159.109 193.488C158.798 193.316 158.446 193.23 158.09 193.238C157.824 193.236 157.563 193.303 157.331 193.432C157.088 193.517 156.87 193.663 156.699 193.854C156.353 194.248 156.158 194.751 156.148 195.275C156.179 195.453 156.204 195.626 156.235 195.784C156.329 196.111 156.504 196.409 156.745 196.65L157.157 196.95C157.468 197.123 157.821 197.208 158.177 197.195L158.171 197.215Z" fill="white"/>
<path d="M83.8853 191.914V191.884L84.3949 192.968V192.902C84.2424 192.292 83.9312 191.734 83.4929 191.283C83.1417 190.768 82.6646 190.351 82.1069 190.071L80.9399 189.613C80.1001 189.406 79.22 189.428 78.3921 189.679C77.9465 189.795 77.5254 189.99 77.1487 190.254C76.4528 190.683 75.8803 191.285 75.4875 192.001C75.1598 192.536 74.9837 193.151 74.9779 193.778C74.8482 194.409 74.8922 195.064 75.1053 195.672C75.3465 196.459 75.7851 197.17 76.3792 197.74L76.4404 197.785L77.4341 198.514C77.8188 198.703 78.2195 198.858 78.6316 198.977C79.2583 199.163 79.9237 199.177 80.5578 199.018C81.1951 198.975 81.8093 198.762 82.3362 198.402L83.2942 197.622C83.8718 197.018 84.2827 196.274 84.4866 195.463V195.407L83.3553 197.444L83.3859 197.409L84.0738 196.472C84.3944 195.963 84.5705 195.377 84.5834 194.776C84.6931 194.381 84.6931 193.964 84.5834 193.569C84.5391 192.971 84.3388 192.396 84.0025 191.899L83.8853 191.914Z" fill="#1E5405"/>
<path d="M74.1007 193.606L74.0294 193.672L73.795 193.987L73.6472 194.364C73.5912 194.568 73.5912 194.782 73.6472 194.985C73.6524 195.122 73.6928 195.256 73.7644 195.372C73.8035 195.501 73.8755 195.617 73.9733 195.708C74.0417 195.823 74.1405 195.916 74.2587 195.978C74.3548 196.073 74.4745 196.139 74.6052 196.172C74.7915 196.264 74.9992 196.305 75.2065 196.289L75.6193 196.223L75.9861 196.06L76.2919 195.81L76.5263 195.49L76.6741 195.118C76.73 194.915 76.73 194.7 76.6741 194.497C76.6695 194.36 76.6291 194.226 76.5569 194.11C76.4936 193.914 76.3793 193.738 76.2257 193.6L76.1543 193.539C76.0257 193.402 75.8617 193.304 75.6804 193.254C75.5074 193.166 75.3135 193.128 75.1199 193.142L74.7326 193.203C74.4919 193.275 74.2742 193.409 74.1007 193.59V193.606Z" fill="white"/>
<path d="M75.9864 124.747C73.2806 110.526 70.483 96.304 68.3428 81.9754C66.1561 67.7239 64.9846 53.3354 64.8369 38.9182C64.8369 35.6543 64.735 32.2987 65.6879 29.1418C66.437 26.6671 68.0574 24.2383 70.4932 23.1537C72.8525 22.1047 75.4055 22.838 77.2859 24.4878C79.5076 26.438 80.593 29.1468 81.0669 32.0187C81.6224 35.3997 81.5765 38.9386 81.5765 42.3553C81.5765 45.9756 81.5255 49.5959 81.4236 53.2163C81.2147 60.5384 80.8019 67.8555 80.2669 75.1624C79.1866 89.7863 77.5152 104.359 75.8845 118.953C75.6909 120.709 75.482 122.466 75.2424 124.218C75.2112 124.352 75.2087 124.491 75.2351 124.625C75.2615 124.76 75.3161 124.888 75.3955 125C75.4749 125.112 75.5772 125.206 75.6956 125.276C75.814 125.346 75.9459 125.39 76.0825 125.405C76.2192 125.421 76.3575 125.407 76.4884 125.365C76.6193 125.322 76.7398 125.253 76.8419 125.161C76.9441 125.069 77.0255 124.957 77.081 124.831C77.1364 124.705 77.1646 124.569 77.1636 124.432C77.9228 116.88 78.9878 109.365 79.7981 101.819C80.6032 94.3589 81.3268 86.8941 81.9332 79.4141C82.5396 71.9341 83.0033 64.2963 83.2581 56.7246C83.3872 52.9905 83.4636 49.2446 83.4874 45.4868C83.4874 41.8715 83.6199 38.2308 83.4568 34.6156C83.304 31.3516 82.7689 27.9248 80.9803 25.1293C79.4516 22.7107 76.9342 20.6739 74.0246 20.2615C72.581 20.089 71.1171 20.2653 69.756 20.7757C68.3948 21.2861 67.1762 22.1156 66.2025 23.1944C63.94 25.552 62.9056 28.6988 62.5387 31.8863C62.1259 35.4506 62.2788 39.1321 62.3705 42.7321C62.4724 46.4593 62.6916 50.1815 62.9922 53.8935C63.5833 61.2513 64.4904 68.5786 65.6012 75.8753C67.8383 90.5654 70.9008 105.103 74.2131 119.584C74.6157 121.361 75.0284 123.149 75.4361 124.915C75.5176 125.267 76.0323 125.099 75.9457 124.752L75.9864 124.747Z" fill="#1E5405"/>
<path d="M149.636 131.998C147.149 115.302 144.657 98.6006 142.823 81.8177C140.994 65.6744 140.019 49.446 139.903 33.2002C139.903 28.1083 139.903 22.9247 140.963 17.9244C141.956 13.1686 143.949 8.29565 148.097 5.434C153.193 1.92059 159.924 1.75765 165.468 4.25777C171.242 6.85464 175.869 11.748 178.687 17.3643C181.907 23.7852 183.339 31.1125 183.946 38.2004C184.567 45.5327 184.343 52.9313 183.823 60.2636C182.626 77.0109 179.074 93.4679 175.96 109.93C172.903 126.117 170.116 142.544 170.605 159.077C170.807 167.042 171.844 174.964 173.698 182.714C175.451 189.898 178.07 196.844 179.67 204.074C181.23 211.132 181.816 218.596 179.283 225.506C177.071 231.545 172.572 236.331 167.242 239.804C162.054 243.185 156.235 245.461 150.349 247.31C144.305 249.204 137.951 251.052 131.622 251.628C115.897 253.048 99.8397 252.096 84.6849 247.462C72.2206 243.649 58.1562 237.014 54.5127 223.312C50.4361 207.965 58.9002 192.76 61.8456 177.994C64.6941 163.736 64.3119 149.092 62.5335 134.712C60.7092 119.915 57.5295 105.342 54.844 90.6928C52.1585 76.0434 49.9469 61.2565 50.2578 46.3475C50.5278 33.3325 52.0973 17.3949 62.5182 8.18872C66.9363 4.28832 73.0971 2.11917 78.9827 2.70474C85.1741 3.32086 89.9182 7.53187 92.1298 13.2195C94.535 19.4062 94.5299 26.2395 94.5452 32.7775C94.5452 41.1537 94.27 49.5299 93.735 57.8857C92.67 74.5922 90.6775 91.2275 88.3487 107.786C87.2175 115.852 86.02 123.907 84.8174 131.963C84.5779 133.567 87.034 134.254 87.2735 132.64C89.8214 115.521 92.3693 98.3969 94.2445 81.2117C96.1198 64.0266 97.302 46.6632 97.0676 29.3354C96.9759 22.8992 96.5122 16.1372 93.5923 10.2815C92.2723 7.55876 90.2882 5.21156 87.8224 3.45596C85.3566 1.70037 82.4885 0.592781 79.4821 0.235168C73.4028 -0.513342 67.0229 1.52342 62.187 5.20996C56.816 9.28348 53.356 15.3938 51.2514 21.7281C48.9583 28.592 48.143 35.9243 47.8118 43.1141C47.5066 50.7077 47.7604 58.3134 48.5711 65.8698C50.1406 81.3136 53.3968 96.5078 56.2555 111.748C59.0735 126.749 61.5602 141.928 61.3819 157.239C61.3386 164.774 60.5034 172.283 58.89 179.643C57.0708 187.704 54.0236 195.428 52.2655 203.509C50.6705 210.867 50.1508 218.815 52.6834 226.031C54.9561 232.497 59.5881 237.61 65.1935 241.418C70.9517 245.339 77.5763 247.972 84.2262 249.968C92.0702 252.306 100.145 253.786 108.309 254.382C116.456 254.982 124.641 254.87 132.769 254.046C135.57 253.691 138.346 253.159 141.08 252.452C144.713 251.622 148.311 250.619 151.857 249.479C163.883 245.609 176.424 239.366 181.413 226.973C187.237 212.506 180.027 197.21 176.424 183.182C172.195 166.695 172.485 149.576 174.692 132.813C176.954 115.608 180.99 98.6973 183.757 81.5783C185.174 73.1791 186.132 64.7088 186.626 56.2054C187.013 48.705 187.023 41.169 186.004 33.7195C185.041 26.6316 183.171 19.2585 179.252 13.189C175.782 7.81701 170.702 3.30049 164.607 1.17208C158.767 -0.864683 151.827 -0.304574 146.695 3.30559C142.374 6.36073 139.959 11.1573 138.756 16.1983C137.503 21.3818 137.355 26.764 137.355 32.0748C137.355 40.0488 137.588 48.0261 138.053 56.0068C139.072 73.3193 141.146 90.5554 143.536 107.725C144.698 116.061 145.936 124.386 147.18 132.711C147.419 134.325 149.875 133.638 149.636 132.034V131.998Z" fill="#1E5405"/>
<path d="M158.997 124.88C162.324 110.394 165.555 95.8922 167.981 81.2174C170.406 66.5425 172.134 51.7912 172.134 36.9483C172.134 33.5368 172.001 29.9673 170.605 26.7951C170.037 25.4123 169.198 24.1566 168.139 23.1013C167.079 22.0461 165.82 21.2124 164.434 20.6491C163.089 20.181 161.647 20.055 160.241 20.2826C158.834 20.5102 157.507 21.0841 156.378 21.9527C153.83 23.8367 152.301 26.6372 151.598 29.6771C150.793 33.0683 150.895 36.6225 150.915 40.0849C150.915 43.8733 150.915 47.6617 151.017 51.4501C151.175 58.9403 151.527 66.4254 152.072 73.9003C153.137 88.9571 154.767 103.943 156.627 118.933C156.857 120.776 157.076 122.615 157.259 124.458C157.387 125.71 159.379 125.639 159.211 124.412C158.192 117.151 157.524 109.839 156.729 102.552C155.934 95.2659 155.201 87.9641 154.594 80.6573C153.988 73.3504 153.504 66.0435 153.198 58.7213C152.892 51.3992 152.688 44.1432 152.969 36.8567C153.081 33.7048 153.3 30.3747 154.773 27.5181C155.924 25.2828 157.993 23.2562 160.526 22.747C163.058 22.2378 165.382 23.6126 166.885 25.5068C168.801 27.9204 169.367 31.0315 169.535 34.0307C169.724 37.4932 169.611 40.9862 169.51 44.4487C169.397 48.0894 169.25 51.725 169 55.3607C168.531 62.5453 167.772 69.7097 166.804 76.8383C164.852 91.1771 162.11 105.394 159.42 119.61L158.457 124.748C158.449 124.816 158.466 124.884 158.505 124.94C158.544 124.996 158.602 125.036 158.668 125.052C158.735 125.069 158.805 125.06 158.865 125.028C158.926 124.997 158.973 124.944 158.997 124.88Z" fill="#1E5405"/>
<path d="M85.0774 133.975L85.9845 133.929C85.8265 133.929 85.9131 133.959 86.2495 133.975C86.4008 133.956 86.5506 133.927 86.6979 133.888L87.1056 133.791C87.7425 133.639 88.354 133.435 88.9757 133.226C90.2191 132.809 91.4217 132.32 92.6345 131.821C92.8698 131.745 93.0866 131.622 93.2709 131.457C93.4552 131.293 93.6028 131.091 93.7042 130.866C93.8055 130.641 93.8584 130.397 93.8594 130.15C93.8603 129.903 93.8093 129.659 93.7097 129.433C93.6215 129.226 93.4919 129.039 93.329 128.884C93.166 128.729 92.973 128.609 92.7619 128.531C92.5101 128.435 92.2398 128.396 91.9709 128.417C91.702 128.438 91.4412 128.519 91.2077 128.654C90.0254 129.224 88.8585 129.794 87.7221 130.441C87.1514 130.767 86.5909 131.083 86.0507 131.459L85.7093 131.699C85.5848 131.779 85.4672 131.869 85.3577 131.969C85.1437 132.198 85.0927 132.274 85.215 132.193C85.0163 132.417 84.7819 132.625 84.5729 132.839C84.4839 132.937 84.4254 133.059 84.4045 133.19C84.3836 133.321 84.4013 133.455 84.4553 133.576C84.5093 133.697 84.5974 133.799 84.7088 133.871C84.8201 133.943 84.95 133.981 85.0825 133.98L85.0774 133.975Z" fill="#1E5405"/>
<path d="M92.8126 132.324C93.5515 131.005 94.3414 129.712 95.1873 128.444C95.9423 127.273 96.7946 126.167 97.7352 125.139C98.7277 124.066 99.7881 123.057 100.91 122.12C101.185 121.891 101.863 121.376 102.367 121.03C102.989 120.592 103.636 120.185 104.299 119.808C104.63 119.62 104.961 119.441 105.318 119.268L105.827 119.014C105.827 119.014 106.408 118.739 106.051 118.902C106.714 118.606 107.387 118.336 108.09 118.107C108.694 117.917 109.308 117.757 109.929 117.629C110.49 117.506 109.512 117.674 110.082 117.603L110.424 117.562C110.821 117.52 111.221 117.498 111.621 117.496C111.789 117.496 111.963 117.496 112.131 117.496C112.131 117.496 112.691 117.532 112.36 117.496C112.029 117.461 112.564 117.527 112.579 117.532C112.737 117.557 112.9 117.588 113.058 117.624C113.216 117.659 113.369 117.7 113.522 117.746C113.675 117.792 114.103 117.965 113.624 117.746C113.913 117.865 114.192 118.006 114.46 118.168C114.556 118.23 114.913 118.545 114.546 118.219C114.663 118.321 114.786 118.418 114.898 118.53L115.229 118.871C115.3 118.937 115.448 119.161 115.229 118.835C115.336 118.988 115.448 119.136 115.545 119.294C115.545 119.319 115.82 119.869 115.672 119.513C115.744 119.691 115.805 119.872 115.856 120.057C115.856 120.119 115.978 120.628 115.927 120.297C116.065 121.034 116 121.794 115.739 122.497C115.518 123.151 115.172 123.756 114.719 124.279C113.558 125.613 112.1 126.234 110.459 126.825L112.115 128.861C114.353 123.876 118.822 117.583 124.947 118.815C126.102 119.009 127.161 119.576 127.963 120.429C128.815 121.429 129.26 122.712 129.212 124.024C129.212 127.217 127.046 129.778 124.804 131.815C123.596 132.96 122.279 133.983 120.87 134.87C120.483 135.099 119.754 135.481 119.453 134.951C119.365 134.744 119.332 134.517 119.357 134.294C119.382 134.07 119.464 133.856 119.596 133.673C120.396 132.578 122.429 132.757 123.606 132.818C125.11 132.908 126.599 133.166 128.045 133.587C130.802 134.371 133.65 135.995 135.046 138.587C135.61 139.695 135.925 140.912 135.969 142.154C136.013 143.396 135.785 144.632 135.301 145.777C134.032 148.659 131.031 149.972 127.994 149.341C124.356 148.582 121.879 145.731 119.815 142.849C119.615 142.542 119.305 142.323 118.948 142.239C118.591 142.155 118.216 142.211 117.899 142.396C117.588 142.593 117.366 142.904 117.281 143.263C117.196 143.622 117.255 144 117.446 144.315C119.596 147.696 122.72 150.838 126.73 151.811C130.374 152.692 134.476 151.627 136.468 148.246C137.224 146.883 137.667 145.369 137.764 143.814C137.862 142.259 137.613 140.701 137.034 139.254C136.381 137.681 135.421 136.253 134.21 135.055C132.999 133.856 131.562 132.91 129.981 132.273C128.269 131.562 126.454 131.131 124.605 130.995C122.857 130.852 120.799 130.776 119.234 131.703C118.533 132.099 117.998 132.735 117.728 133.493C117.458 134.252 117.472 135.083 117.767 135.832C117.945 136.226 118.224 136.565 118.577 136.815C118.93 137.065 119.344 137.216 119.774 137.253C120.855 137.365 121.854 136.82 122.72 136.234C125.986 134.05 129.533 131.733 131.087 127.95C132.555 124.386 132.254 119.945 128.916 117.522C126.175 115.531 122.292 115.541 119.234 116.86C115.606 118.448 113.17 121.768 111.152 125.048C110.643 125.867 110.133 126.677 109.624 127.476C109.489 127.723 109.432 128.004 109.459 128.284C109.487 128.564 109.597 128.828 109.776 129.045C109.956 129.257 110.192 129.413 110.458 129.496C110.723 129.579 111.006 129.585 111.275 129.513C113.084 129.157 114.786 128.382 116.243 127.252C117.819 126.08 118.96 124.418 119.489 122.527C119.755 121.553 119.82 120.534 119.681 119.534C119.541 118.534 119.201 117.572 118.679 116.707C117.684 115.228 116.175 114.172 114.444 113.744C112.843 113.344 111.175 113.292 109.552 113.591C108.721 113.718 107.901 113.912 107.101 114.171C106.78 114.278 106.459 114.39 106.153 114.523L105.741 114.711L105.333 114.894C105.105 114.996 104.876 115.103 104.645 115.215C101.55 116.715 98.7949 118.83 96.5478 121.432C95.2937 122.92 94.2038 124.538 93.2967 126.259C92.8082 127.13 92.3972 128.041 92.0686 128.984C91.8039 129.889 91.6097 130.813 91.4877 131.749C91.3756 132.528 92.405 133.042 92.8279 132.258L92.8126 132.324Z" fill="#1E5405"/>
<path d="M131.52 125.516C134.239 126.208 136.889 127.143 139.439 128.311C140.73 128.876 141.991 129.508 143.215 130.206C144.489 130.918 145.631 131.799 146.869 132.558C148.535 133.576 150.375 131.092 148.907 129.788C147.672 128.773 146.324 127.902 144.892 127.191C143.515 126.468 142.082 125.856 140.606 125.363C137.707 124.345 134.715 124.172 131.668 124.273C131.517 124.278 131.373 124.337 131.263 124.439C131.152 124.542 131.082 124.68 131.065 124.83C131.048 124.98 131.086 125.131 131.172 125.255C131.257 125.379 131.385 125.468 131.53 125.506L131.52 125.516Z" fill="#1E5405"/>
<path d="M73.7138 244.641C70.6564 250.818 68.9798 257.641 67.6957 264.378C66.3886 271.34 65.8486 278.424 66.0854 285.504C66.3458 293.008 67.5022 300.454 69.5302 307.684C71.8267 315.79 75.0193 323.616 79.0491 331.015C81.3267 335.183 83.8537 339.21 86.6163 343.073C89.6025 347.304 92.7618 351.449 96.0282 355.472C96.9047 356.546 97.7659 357.641 98.622 358.731C98.6821 358.822 98.7609 358.901 98.8531 358.96C98.9453 359.019 99.049 359.059 99.1575 359.076C99.2659 359.093 99.3767 359.087 99.4827 359.058C99.5886 359.03 99.6874 358.979 99.7727 358.91C99.8579 358.841 99.9277 358.755 99.9775 358.657C100.027 358.559 100.056 358.452 100.062 358.343C100.068 358.233 100.051 358.124 100.012 358.021C99.9724 357.919 99.9122 357.826 99.8348 357.748C93.2103 350.146 87.8801 341.5 83.1002 332.645C79.0848 325.31 75.8663 317.567 73.4998 309.548C72.4347 305.904 71.584 302.201 70.9519 298.458C70.9519 298.346 70.9111 298.234 70.8959 298.122C70.85 297.837 70.9315 298.371 70.8959 298.086C70.8602 297.801 70.8245 297.643 70.7939 297.424C70.7226 296.956 70.6564 296.482 70.5901 296.014C70.4729 295.138 70.3659 294.257 70.2742 293.381C70.0856 291.589 69.9073 289.817 69.8003 287.999C69.5939 284.51 69.5735 281.012 69.7391 277.52C69.8155 275.814 69.9175 274.113 70.0703 272.428C70.106 272.01 70.1468 271.598 70.1875 271.18L70.2487 270.559C70.2487 270.493 70.2895 270.218 70.2487 270.559L70.2946 270.167C70.3914 269.317 70.4984 268.461 70.6156 267.621C71.0793 264.276 71.6347 260.941 72.3074 257.631C72.98 254.321 73.8361 250.94 74.4119 247.574C74.5597 246.76 74.6973 245.94 74.8298 245.115C74.9317 244.484 74.0349 244.025 73.7138 244.677V244.641Z" fill="#1E5405"/>
<path d="M157.84 245.252C158.569 246.81 159.221 248.414 159.985 249.957C160.75 251.5 161.264 252.961 161.871 254.489C163.117 257.64 164.086 260.895 164.765 264.215C164.943 265.08 165.122 265.941 165.275 266.811C165.305 267.01 165.341 267.209 165.372 267.407C165.372 267.453 165.428 267.743 165.372 267.458C165.372 267.545 165.402 267.626 165.412 267.713C165.484 268.166 165.545 268.619 165.606 269.077C165.835 270.798 165.988 272.535 166.085 274.271C166.274 277.85 166.227 281.437 165.942 285.01L165.82 286.385C165.82 286.599 165.779 286.812 165.754 287.026L165.723 287.301C165.759 287.011 165.723 287.413 165.723 287.464C165.616 288.396 165.494 289.318 165.356 290.244C165.081 292.123 164.77 294.002 164.403 295.871C163.636 299.747 162.663 303.58 161.489 307.353C158.912 315.451 155.652 323.315 151.745 330.862C149.682 334.936 147.562 338.969 145.253 342.9C144.066 344.937 142.889 346.938 141.6 348.903C140.31 350.869 138.95 352.88 137.579 354.835C136.871 355.854 136.127 356.811 135.368 357.778C135.293 357.86 135.237 357.956 135.202 358.06C135.168 358.165 135.155 358.275 135.166 358.385C135.177 358.494 135.211 358.6 135.266 358.696C135.32 358.791 135.394 358.875 135.483 358.94C135.572 359.005 135.674 359.05 135.781 359.074C135.889 359.097 136 359.097 136.108 359.074C136.216 359.052 136.318 359.007 136.407 358.942C136.496 358.878 136.571 358.795 136.626 358.7C139.424 354.718 142.283 350.792 145.014 346.759C147.638 342.879 150.319 339.025 152.658 334.946C157.064 327.257 160.781 319.194 163.766 310.851C166.506 303.354 168.363 295.564 169.3 287.637C170.161 280.284 169.897 272.843 168.516 265.569C167.839 262.183 166.842 258.869 165.54 255.67C164.276 252.385 162.561 249.292 160.444 246.479C159.934 245.797 159.364 245.14 158.783 244.499C158.273 243.949 157.59 244.682 157.855 245.252H157.84Z" fill="#1E5405"/>
<path d="M111.117 320.587C111.542 321.052 112.089 321.387 112.697 321.555C113.303 321.774 113.879 322.064 114.495 322.252C115.725 322.581 116.982 322.795 118.251 322.894C119.605 323.036 120.967 323.089 122.328 323.052C123.68 323.004 125.023 322.809 126.333 322.471C128.116 322.043 127.622 319.263 125.823 319.319C123.388 319.401 120.962 319.503 118.521 319.482C117.329 319.482 116.146 319.34 114.954 319.294C114.363 319.268 113.787 319.35 113.196 319.294C112.592 319.199 111.974 319.255 111.397 319.457C111.287 319.492 111.188 319.555 111.109 319.64C111.03 319.725 110.975 319.829 110.948 319.942C110.922 320.055 110.924 320.172 110.957 320.284C110.989 320.395 111.049 320.496 111.132 320.577L111.117 320.587Z" fill="#1E5405"/>
<path d="M119.449 322.002C119.208 322.667 119.015 323.347 118.873 324.039C118.735 324.772 118.608 325.506 118.506 326.249C118.307 327.67 118.165 329.106 118.088 330.541C118.012 331.977 118.017 333.515 118.017 334.997C118.017 336.397 117.905 337.981 118.368 339.32C118.521 340.046 118.569 340.79 118.511 341.53C118.511 342.258 118.511 342.986 118.542 343.714C118.567 345.211 118.598 346.708 118.613 348.205C118.613 348.893 118.613 349.585 118.613 350.273C118.613 351.041 118.827 351.8 118.847 352.564C118.883 354.051 118.791 355.553 118.72 357.035C118.644 358.644 118.552 360.227 118.389 361.831C118.307 362.62 118.19 363.359 118.037 364.153C117.95 364.576 117.95 365.019 117.854 365.436C117.722 365.788 117.54 366.119 117.314 366.419C117.176 366.671 117.103 366.952 117.101 367.239C117.099 367.526 117.167 367.808 117.301 368.062C117.434 368.316 117.628 368.533 117.865 368.694C118.103 368.855 118.376 368.955 118.661 368.985C118.947 369.015 119.235 368.974 119.501 368.866C119.766 368.758 120.001 368.586 120.185 368.365C120.368 368.144 120.494 367.882 120.551 367.601C120.609 367.32 120.596 367.03 120.514 366.755C120.437 366.47 120.264 366.164 120.218 365.879C120.203 365.539 120.222 365.198 120.274 364.861C120.31 364.112 120.244 363.333 120.274 362.61C120.31 361.174 120.239 359.744 120.274 358.308C120.31 356.872 120.239 355.339 120.198 353.852C120.153 353.174 120.153 352.494 120.198 351.815C120.278 351.051 120.3 350.282 120.264 349.514C120.132 346.561 119.948 343.607 119.882 340.654C119.845 340.292 119.837 339.928 119.856 339.564C119.902 339.228 120.05 338.928 120.086 338.587C120.157 337.823 120.152 337.059 120.157 336.285C120.157 334.798 120.157 333.311 120.157 331.82C120.157 330.226 120.188 328.632 120.157 327.038C120.157 326.244 120.157 325.455 120.157 324.665C120.157 324.233 120.157 323.8 120.157 323.367C120.139 322.934 120.098 322.502 120.035 322.074C120.032 321.999 120.002 321.928 119.951 321.874C119.901 321.819 119.832 321.785 119.758 321.777C119.683 321.769 119.609 321.788 119.547 321.83C119.486 321.872 119.442 321.935 119.423 322.007L119.449 322.002Z" fill="#1E5405"/>
<path d="M98.4693 355.253C96.5811 355.364 94.727 355.805 92.9913 356.557C91.2217 357.256 89.508 358.088 87.865 359.047C84.5876 361.008 81.5926 363.407 78.9626 366.175C78.2339 366.944 78.769 368.563 79.9818 368.416C83.268 367.974 86.3148 366.455 88.6446 364.098C88.8306 363.901 88.9383 363.643 88.9477 363.372C88.9571 363.101 88.8675 362.836 88.6956 362.626C88.5223 362.421 88.2822 362.284 88.0175 362.238C87.7528 362.193 87.4804 362.242 87.2484 362.377C84.6437 363.594 82.4665 365.567 81.001 368.039C80.9083 368.215 80.8626 368.412 80.8682 368.611C80.8738 368.81 80.9304 369.004 81.0328 369.175C81.1351 369.346 81.2797 369.488 81.4526 369.586C81.6255 369.685 81.8209 369.738 82.0201 369.74C83.0386 369.816 84.0618 369.8 85.0776 369.694C86.0739 369.53 87.0554 369.287 88.0127 368.966C89.9516 368.424 91.8119 367.634 93.5468 366.613C93.6946 366.514 93.8068 366.37 93.8668 366.202C93.9268 366.034 93.9315 365.851 93.8803 365.681C93.829 365.51 93.7245 365.36 93.582 365.253C93.4395 365.146 93.2664 365.087 93.0881 365.086C91.6292 365.104 90.198 365.486 88.9245 366.197C87.651 366.909 86.5756 367.927 85.7961 369.159C85.7242 369.297 85.689 369.45 85.6939 369.605C85.6988 369.76 85.7437 369.911 85.8241 370.044C85.9045 370.177 86.0179 370.286 86.1531 370.362C86.2883 370.438 86.4409 370.478 86.5961 370.478C88.2392 370.628 89.8905 370.669 91.539 370.6C92.5582 370.565 93.5417 370.351 94.5608 370.32C95.58 370.29 96.7265 370.223 97.8119 370.208C102.19 370.125 106.561 369.817 110.908 369.287C112.783 369.073 114.674 368.94 116.544 368.681C116.747 368.673 116.947 368.622 117.129 368.532C117.311 368.442 117.472 368.315 117.602 368.158C117.731 368.001 117.826 367.819 117.88 367.623C117.934 367.427 117.946 367.222 117.915 367.021C117.884 366.819 117.81 366.627 117.699 366.456C117.587 366.285 117.44 366.141 117.267 366.032C117.095 365.924 116.901 365.853 116.699 365.826C116.496 365.799 116.291 365.816 116.096 365.875C112.671 367.178 109.018 367.759 105.394 368.192C103.152 368.462 100.905 368.701 98.6578 368.915C96.6195 369.134 94.4181 369.424 92.39 369.088C90.5606 368.803 88.5733 368.94 86.7847 368.726L87.3452 370.02C87.9566 369.032 88.8058 368.213 89.8151 367.638C90.8245 367.063 91.962 366.749 93.1238 366.725C92.976 366.216 92.8232 365.707 92.6703 365.198C91.0723 366.172 89.317 366.861 87.4828 367.234C86.5891 367.352 85.6886 367.412 84.7871 367.413C83.8386 367.474 82.8871 367.474 81.9386 367.413L82.9577 369.118C84.1442 367.043 85.9411 365.383 88.1045 364.363L86.9936 362.54C85.0438 364.38 82.5307 365.51 79.8595 365.748L80.8532 367.988C83.3526 365.417 86.1634 363.168 89.2204 361.292C90.74 360.343 92.3064 359.472 93.9137 358.68C95.5494 357.901 97.1699 357.153 98.7343 356.256C98.8411 356.196 98.9244 356.101 98.9708 355.988C99.0171 355.874 99.0237 355.748 98.9895 355.63C98.9553 355.513 98.8823 355.41 98.7824 355.339C98.6824 355.267 98.5613 355.232 98.4387 355.238L98.4693 355.253Z" fill="#1E5405"/>
<path d="M137.095 356.261C138.67 357.193 140.295 357.921 141.941 358.705C143.587 359.49 145.106 360.386 146.645 361.318C149.697 363.2 152.504 365.452 155.002 368.024L155.883 365.748C153.217 365.499 150.713 364.356 148.78 362.504L147.475 364.276C149.734 365.306 151.617 367.012 152.861 369.159L153.814 367.402C152.861 367.463 151.914 367.402 150.966 367.443C150.064 367.483 149.162 367.418 148.275 367.25C146.447 366.853 144.7 366.149 143.108 365.167C142.976 365.676 142.848 366.185 142.721 366.735C143.883 366.767 145.018 367.087 146.026 367.665C147.033 368.244 147.882 369.063 148.494 370.05L149.218 368.716C147.628 368.905 146.033 368.981 144.453 369.251C143.541 369.367 142.62 369.405 141.702 369.363C140.683 369.363 139.663 369.332 138.644 369.266C134.705 369.006 130.776 368.757 126.868 368.146C125.062 367.862 123.291 367.391 121.584 366.74C120.86 366.465 120.014 367.102 119.841 367.789C119.753 368.159 119.813 368.549 120.01 368.874C120.206 369.2 120.522 369.436 120.891 369.531C124.412 370.004 128.025 370.203 131.592 370.391C133.63 370.498 135.704 370.605 137.758 370.57C139.811 370.534 141.753 370.427 143.74 370.488C144.713 370.514 145.656 370.651 146.634 370.631C147.506 370.631 148.372 370.549 149.233 370.463C149.386 370.456 149.534 370.409 149.664 370.328C149.793 370.247 149.899 370.134 149.972 370C150.045 369.866 150.082 369.715 150.079 369.562C150.076 369.41 150.034 369.26 149.957 369.129C149.183 367.889 148.107 366.865 146.83 366.153C145.553 365.441 144.117 365.063 142.655 365.055C142.475 365.066 142.303 365.135 142.165 365.251C142.026 365.367 141.929 365.523 141.886 365.699C141.843 365.874 141.858 366.058 141.927 366.224C141.997 366.391 142.118 366.531 142.272 366.623C144.02 367.622 145.891 368.387 147.837 368.899C148.775 369.159 149.743 369.409 150.701 369.597C151.741 369.761 152.797 369.795 153.845 369.699C154.046 369.69 154.242 369.63 154.413 369.523C154.583 369.416 154.723 369.267 154.819 369.09C154.914 368.913 154.962 368.714 154.958 368.513C154.953 368.311 154.896 368.115 154.793 367.942C153.319 365.477 151.134 363.514 148.525 362.31C148.289 362.191 148.019 362.159 147.762 362.221C147.505 362.282 147.278 362.432 147.122 362.644C146.965 362.857 146.889 363.118 146.907 363.382C146.925 363.645 147.036 363.893 147.22 364.082C149.469 366.363 152.398 367.852 155.567 368.324C156.851 368.487 157.764 367.107 156.801 366.084C154.167 363.334 151.172 360.955 147.898 359.011C146.285 358.066 144.6 357.25 142.858 356.572C141.106 355.811 139.232 355.364 137.324 355.253C136.764 355.228 136.642 356.007 137.075 356.271L137.095 356.261Z" fill="#1E5405"/>
<path d="M74.0093 244.199C73.6271 244.356 73.2347 244.489 72.8576 244.652C72.8576 244.652 72.4856 244.784 72.7506 244.713C72.505 244.764 72.2669 244.846 72.0423 244.957L71.2932 245.36C70.4066 245.818 69.5046 246.302 68.4447 246.887C66.1771 248.089 63.8891 249.25 61.6062 250.426C56.6225 252.997 51.6439 255.696 46.9354 258.741C43.0575 261.257 38.9758 264.016 36.2343 267.82C34.196 270.692 32.3003 273.961 31.8774 277.495C31.6777 279.24 31.8417 281.008 32.3591 282.687C32.8765 284.366 33.7362 285.92 34.8839 287.251C40.2345 293.738 49.3865 294.048 57.1219 293.626C56.7957 293.086 56.4696 292.546 56.1384 292.007C53.4172 297.037 52.4083 302.908 53.9778 308.479C54.0182 308.607 54.0911 308.722 54.1893 308.813C54.2875 308.904 54.4078 308.968 54.5382 308.999C54.6686 309.029 54.8048 309.026 54.9334 308.988C55.0621 308.951 55.1788 308.88 55.2721 308.784C57.8418 305.311 59.6699 301.348 60.6431 297.139C60.8061 296.431 59.8175 295.759 59.3131 296.411C57.9578 298.184 57.0563 300.26 56.6869 302.46C56.3174 304.66 56.4912 306.916 57.1932 309.034C57.2346 309.162 57.3083 309.277 57.4073 309.369C57.5062 309.46 57.627 309.524 57.7581 309.556C57.8891 309.587 58.026 309.584 58.1556 309.547C58.2851 309.51 58.403 309.44 58.4977 309.344C61.1771 306.39 63.168 302.879 64.3273 299.064C64.3671 298.889 64.3488 298.706 64.2753 298.543C64.2018 298.379 64.077 298.244 63.9199 298.158C63.7627 298.072 63.5817 298.039 63.4042 298.065C63.2267 298.09 63.0624 298.173 62.9362 298.3C61.6265 299.705 60.0774 301.462 60.3016 303.535C60.4851 305.189 61.7896 306.967 63.6241 306.804C65.5554 306.636 66.5185 304.711 66.9924 303.056C67.5163 301.174 67.881 299.251 68.0829 297.307C68.9577 289.455 67.4729 281.521 63.8177 274.516C62.8022 272.578 61.608 270.738 60.2507 269.022C59.5373 268.131 58.7984 267.255 58.0136 266.425C57.655 266.021 57.2685 265.644 56.8569 265.294C56.4085 264.943 55.8683 264.663 55.4403 264.276C54.202 263.197 52.4287 265.045 53.6771 266.129C54.3141 266.684 54.7931 267.458 55.3893 268.059C55.9855 268.66 56.5766 269.292 57.1372 269.943C58.2046 271.199 59.1868 272.524 60.0774 273.91C61.8946 276.754 63.3609 279.808 64.4445 283.004C65.5242 286.224 66.1368 289.581 66.2637 292.974C66.4739 296.363 66.1104 299.763 65.1885 303.03C64.9745 303.728 64.633 304.629 63.9451 305.001C63.2572 305.373 62.6304 305.001 62.2584 304.39C61.1221 302.582 62.982 300.647 64.1489 299.415L62.7578 298.651C61.6637 302.196 59.8335 305.47 57.3868 308.26L58.6863 308.57C58.0426 306.717 57.8709 304.733 58.1867 302.797C58.5025 300.861 59.2959 299.033 60.4953 297.48L59.1653 296.752C58.2441 300.768 56.5099 304.552 54.0695 307.873L55.4861 308.021C54.0899 303.127 54.7574 297.378 57.9219 293.254C58.0623 293.095 58.154 292.898 58.1861 292.688C58.2182 292.478 58.1893 292.264 58.103 292.07C58.0166 291.876 57.8763 291.71 57.6988 291.594C57.5213 291.477 57.314 291.413 57.1015 291.411C55.2517 291.289 53.402 291.253 51.5573 291.075C49.8488 290.905 48.1556 290.608 46.4921 290.184C43.5509 289.531 40.8496 288.072 38.6904 285.973C38.4255 285.704 38.1707 285.429 37.9261 285.148C37.9261 285.148 37.5439 284.674 37.7477 284.944C37.6764 284.842 37.5999 284.745 37.5286 284.649C37.0539 284.012 36.6442 283.33 36.3056 282.612C36.433 282.887 36.3056 282.612 36.3056 282.556C36.2394 282.388 36.1731 282.22 36.112 282.047C35.99 281.703 35.8879 281.353 35.8062 280.998C35.7655 280.82 35.7247 280.641 35.6941 280.458C35.7553 280.815 35.6941 280.412 35.6941 280.326C35.6448 279.886 35.6261 279.444 35.6381 279.002C35.6553 278.313 35.758 277.629 35.9438 276.965C36.1365 276.182 36.4044 275.42 36.7439 274.689C37.4846 273.129 38.3592 271.637 39.358 270.228C39.4548 270.076 39.5618 269.933 39.6637 269.785C39.8778 269.46 39.3631 270.157 39.6128 269.852C39.7249 269.709 39.8319 269.567 39.944 269.429C40.2396 269.073 40.5453 268.731 40.8612 268.411C41.5728 267.669 42.323 266.965 43.1085 266.303L43.4295 266.038C43.7862 265.742 43.1849 266.226 43.4295 266.038C43.6741 265.849 43.8423 265.712 44.0512 265.529C44.52 265.167 44.999 264.811 45.478 264.459C46.4972 263.716 47.552 263.003 48.6119 262.311C53.1013 259.373 57.7843 256.765 62.3705 254.011C64.7655 252.58 67.1606 251.154 69.5046 249.652C70.5238 248.985 71.6499 248.262 72.4398 247.666L73.1328 247.157L73.4233 246.953C73.5583 246.875 73.672 246.765 73.7545 246.633C73.8717 246.49 73.8819 246.465 73.7902 246.561C74.1061 246.179 74.4628 245.828 74.8093 245.456C75.2679 244.922 74.8093 243.878 74.0297 244.188L74.0093 244.199Z" fill="#1E5405"/>
<path d="M160.521 248.71C163.393 250.21 166.421 251.39 169.55 252.228C172.608 253.072 175.793 253.355 178.952 253.064C184.093 252.482 188.838 250.021 192.272 246.154C194.224 243.908 195.608 241.228 196.308 238.338C196.365 238.139 196.368 237.929 196.315 237.729C196.262 237.529 196.156 237.347 196.008 237.202C193.185 234.997 190.514 232.543 187.258 230.98C187.161 231.693 187.07 232.406 186.978 233.119C189.788 232.2 192.843 232.382 195.524 233.628C195.726 233.736 195.955 233.783 196.184 233.764C196.412 233.745 196.63 233.661 196.812 233.521C196.994 233.381 197.132 233.192 197.209 232.976C197.285 232.76 197.298 232.527 197.246 232.304C196.28 228.517 196.499 224.526 197.873 220.867L195.732 221.142C197.386 224.114 198.394 227.4 198.693 230.786C198.764 231.667 200.003 232.492 200.691 231.616L207.178 223.368L205.175 222.538C205.134 225.518 205.092 228.495 205.048 231.469C205.048 232.421 206.378 233.088 207.045 232.294L213.323 224.839L211.366 223.699C210.551 229.468 209.216 235.145 207.962 240.828C207.361 243.542 206.79 246.24 206.031 248.919C205.328 251.521 204.477 254.081 203.483 256.587C202.581 258.929 201.368 261.138 199.875 263.156C198.486 264.924 196.9 266.528 195.146 267.937C191.714 270.66 187.747 272.631 183.503 273.721C178.727 274.972 173.736 275.165 168.878 274.287C168.579 274.212 168.264 274.255 167.996 274.407C167.729 274.558 167.53 274.807 167.441 275.101C167.359 275.4 167.399 275.72 167.552 275.989C167.704 276.259 167.958 276.458 168.256 276.542C177.388 278.207 187.182 276.415 194.846 271.069C198.918 268.28 202.225 264.514 204.462 260.116C206.948 255.131 208.508 249.586 209.659 244.163C211.061 237.569 212.717 231.021 213.649 224.335C213.71 224.089 213.692 223.83 213.597 223.594C213.503 223.359 213.338 223.158 213.124 223.021C212.9 222.891 212.639 222.839 212.382 222.872C212.125 222.905 211.886 223.022 211.703 223.205L205.399 230.659L207.397 231.489C207.444 228.509 207.488 225.532 207.529 222.558C207.529 221.626 206.179 220.908 205.532 221.733L199.045 229.982L201.042 230.807C200.73 227.002 199.613 223.308 197.766 219.966C197.256 219.019 195.957 219.35 195.625 220.241C194.136 224.31 193.915 228.734 194.994 232.93L196.716 231.606C193.488 230.049 189.787 229.778 186.366 230.848C185.48 231.133 185.123 232.528 186.086 232.986C189.169 234.463 191.691 236.754 194.362 238.842L194.061 237.701C193.501 239.931 192.492 242.024 191.096 243.851C189.699 245.678 187.944 247.202 185.938 248.328C183.904 249.496 181.672 250.281 179.355 250.645C176.611 250.993 173.827 250.836 171.14 250.182C167.859 249.415 164.688 248.237 161.703 246.673C160.358 245.996 159.155 248.012 160.521 248.71Z" fill="#1E5405"/>
<path d="M107.285 206.351C93.699 202.083 79.5516 199.867 65.3107 199.777C51.0674 199.605 36.8671 201.375 23.1023 205.037C15.3829 207.084 7.8338 209.727 0.522946 212.94C0.451008 212.973 0.386365 213.02 0.332708 213.079C0.279051 213.137 0.23743 213.206 0.210221 213.28C0.183013 213.355 0.17075 213.434 0.174134 213.513C0.177517 213.592 0.196479 213.67 0.229939 213.742C0.263398 213.814 0.310699 213.878 0.369141 213.932C0.427582 213.985 0.496021 214.027 0.570547 214.054C0.645074 214.081 0.724231 214.094 0.803497 214.09C0.882763 214.087 0.960586 214.068 1.03252 214.034C13.9594 208.204 27.6462 204.229 41.6867 202.226C55.7067 200.219 69.934 200.116 83.9816 201.921C91.8281 202.945 99.594 204.512 107.223 206.61C107.392 206.656 107.453 206.402 107.29 206.351H107.285Z" fill="#1E5405"/>
<path d="M103.952 208.79C90.4685 208.464 76.8475 208.713 63.4456 210.317C51.3176 211.784 39.261 214.518 28.0554 219.483C21.9116 222.157 16.1368 225.609 10.8724 229.753C10.4392 230.094 10.8724 230.837 11.331 230.496C20.8754 223.413 31.8721 218.479 43.2968 215.322C55.6745 211.901 68.5159 210.536 81.3114 209.92C88.8582 209.553 96.4153 209.482 103.962 209.166C104.012 209.166 104.06 209.146 104.095 209.111C104.131 209.076 104.151 209.028 104.151 208.978C104.151 208.928 104.131 208.88 104.095 208.845C104.06 208.809 104.012 208.79 103.962 208.79H103.952Z" fill="#1E5405"/>
<path d="M106.398 212.567C99.3904 212.561 92.3941 213.129 85.4798 214.268C78.6566 215.335 71.9106 216.847 65.2852 218.795C51.9137 222.72 39.1108 228.369 27.1994 235.598C20.5629 239.629 14.2368 244.15 8.27364 249.122C7.76406 249.555 8.51824 250.273 9.03291 249.845C19.6963 241.025 31.4627 233.629 44.0358 227.843C56.5368 222.088 69.7229 217.954 83.2733 215.541C90.9218 214.249 98.6401 213.411 106.388 213.031C106.443 213.023 106.494 212.995 106.531 212.952C106.567 212.91 106.588 212.855 106.588 212.799C106.588 212.743 106.567 212.689 106.531 212.646C106.494 212.604 106.443 212.576 106.388 212.567H106.398Z" fill="#1E5405"/>
<path d="M131.892 206.605C145.546 202.829 159.629 200.825 173.795 200.642C187.955 200.512 202.067 202.316 215.738 206.004C223.394 208.079 230.87 210.768 238.093 214.044C238.801 214.365 239.387 213.301 238.679 212.99C212.436 201.458 183.526 197.358 155.108 201.136C147.196 202.189 139.392 203.933 131.785 206.35C131.751 206.361 131.723 206.384 131.706 206.415C131.689 206.446 131.686 206.482 131.696 206.516C131.706 206.55 131.729 206.578 131.76 206.595C131.791 206.611 131.828 206.615 131.861 206.605H131.892Z" fill="#1E5405"/>
<path d="M135.158 209.166C148.545 209.726 161.947 209.716 175.272 211.351C187.303 212.832 199.278 215.562 210.402 220.47C216.521 223.142 222.324 226.486 227.703 230.44C228.146 230.771 228.757 230.16 228.309 229.809C218.928 222.349 207.834 217.451 196.323 214.289C183.853 210.862 170.931 209.513 158.043 208.988C150.413 208.672 142.782 208.606 135.148 208.789C135.098 208.789 135.05 208.809 135.015 208.845C134.979 208.88 134.959 208.928 134.959 208.978C134.959 209.028 134.979 209.076 135.015 209.111C135.05 209.146 135.098 209.166 135.148 209.166H135.158Z" fill="#1E5405"/>
<path d="M132.708 213.032C139.672 213.378 146.613 214.085 153.504 215.15C160.277 216.253 166.975 217.784 173.555 219.733C186.758 223.652 199.402 229.25 211.178 236.388C217.804 240.404 224.125 244.904 230.088 249.851C230.598 250.279 231.331 249.525 230.812 249.092C220.112 240.172 208.268 232.718 195.595 226.927C182.938 221.111 169.577 216.97 155.848 214.61C148.208 213.248 140.463 212.566 132.703 212.573C132.402 212.573 132.422 213.021 132.703 213.037L132.708 213.032Z" fill="#1E5405"/>
</svg>
