<svg viewBox="0 0 437 417" fill="none" xmlns="http://www.w3.org/2000/svg">
<path d="M160.916 84.1108C160.813 82.6925 160.587 81.2858 160.241 79.9064C159.973 78.4894 159.746 77.0724 159.566 75.6439C159.199 72.8216 158.868 69.9935 158.687 67.1479C158.309 61.3407 158.105 55.5916 159.194 49.8541C159.816 46.6716 160.678 43.5404 161.772 40.487L161.499 40.6554C163.874 41.231 166.191 42.0261 168.419 43.0306C170.655 44.0352 172.884 45.005 175.032 46.2013C179.26 48.4659 183.243 51.1592 186.918 54.2385C189.017 56.0421 190.994 57.982 192.837 60.0457C193.112 60.3017 193.476 60.4396 193.852 60.4298C194.228 60.4201 194.585 60.2633 194.846 59.9934C195.098 59.7174 195.233 59.3547 195.224 58.9812C195.214 58.6077 195.06 58.2525 194.793 57.99C188.212 50.3305 179.562 44.7205 169.875 41.8285C167.155 41.108 164.393 40.563 161.603 40.1967C161.546 40.184 161.485 40.1938 161.434 40.224C161.383 40.2542 161.346 40.3026 161.33 40.3593C160.353 43.1334 159.548 45.9649 158.92 48.8378C158.291 51.7066 157.651 54.5521 157.273 57.4615C156.806 60.3436 156.533 63.2538 156.458 66.1723C156.471 69.1076 156.712 72.0373 157.18 74.9354C157.441 76.5904 157.826 78.2223 158.245 79.8425C158.561 81.4443 159.115 82.9903 159.886 84.4302C159.959 84.519 160.056 84.5846 160.165 84.6185C160.275 84.6525 160.392 84.6534 160.502 84.6212C160.612 84.5889 160.71 84.5249 160.784 84.4372C160.858 84.3495 160.904 84.242 160.916 84.1282V84.1108Z" fill="#2D2615"/>
<path d="M170.422 75.0109C170.494 74.3927 170.483 73.7676 170.387 73.1526C170.346 72.508 170.265 71.8634 170.212 71.213C170.096 69.8695 170.032 68.5145 170.02 67.1479C170.02 65.8413 170.02 64.5347 170.131 63.2338C170.195 62.2757 170.131 61.1723 170.62 60.2896C171.202 59.163 172.436 59.6392 173.338 60.0979C174.502 60.6787 175.666 61.3581 176.83 61.9911C177.994 62.6241 179.159 63.2803 180.358 63.9307L182.104 64.9063L183.105 65.487C183.437 65.6671 183.961 65.8471 184.141 66.2071C184.229 66.3492 184.353 66.4658 184.5 66.5452C184.647 66.6246 184.812 66.664 184.98 66.6595C185.147 66.655 185.31 66.6067 185.453 66.5195C185.595 66.4323 185.712 66.3092 185.792 66.1626C185.872 66.016 185.912 65.851 185.908 65.6841C185.904 65.5172 185.856 65.3544 185.769 65.2119C185.682 65.0693 185.559 64.9521 185.412 64.872C185.265 64.7919 185.1 64.7516 184.933 64.7553C184.421 64.796 183.716 64.2153 183.286 63.9772L181.539 63.0016C180.492 62.4208 179.438 61.8401 178.402 61.2594L175.276 59.465C174.355 58.8313 173.334 58.3563 172.255 58.0596C170.317 57.7054 169.065 59.1398 168.763 60.9052C168.379 63.0364 168.565 65.3302 168.71 67.4731C168.798 68.7797 168.937 70.0747 169.124 71.3697C169.211 72.0143 169.304 72.6589 169.455 73.2919C169.552 73.9006 169.749 74.4892 170.038 75.0341C170.06 75.0694 170.092 75.0974 170.13 75.1148C170.168 75.1322 170.21 75.1382 170.252 75.132C170.293 75.1259 170.332 75.1079 170.363 75.0801C170.394 75.0524 170.417 75.0163 170.428 74.976L170.422 75.0109Z" fill="#2D2615"/>
<path d="M295.294 64.1513C300.422 57.8969 306.144 52.2813 313.152 48.1698C314.136 47.5891 315.143 47.0432 316.161 46.5264C317.18 46.0095 318.094 45.1733 319.142 44.639L317.977 44.5171C321.889 48.8551 324.229 54.4939 325.434 60.1617C326.664 65.8112 326.602 71.6647 325.253 77.2872C324.453 80.4475 323.169 83.4659 321.447 86.2361C320.411 87.8911 323.303 89.4416 324.078 87.6821C325.39 84.8605 326.384 81.9019 327.04 78.8609C327.664 75.9173 328.028 72.9248 328.129 69.9178C328.271 63.8193 327.079 57.7632 324.636 52.171C323.223 49.0454 321.493 46.0721 319.473 43.2976C319.357 43.1152 319.185 42.9753 318.983 42.8989C318.78 42.8225 318.558 42.8136 318.35 42.8737C317.361 43.2453 316.289 43.3557 315.323 43.8202C314.357 44.2848 313.437 44.8133 312.523 45.3475C310.717 46.3998 308.969 47.5474 307.285 48.7854C303.889 51.28 300.767 54.1259 297.972 57.2755C296.41 59.0797 295.019 61.0237 293.816 63.0827C293.286 63.9712 294.631 64.9991 295.312 64.1745L295.294 64.1513Z" fill="#2D2615"/>
<path d="M305.329 69.5346C306.197 68.7237 307.006 67.8524 307.75 66.9272C308.559 66.0503 309.415 65.185 310.282 64.3836C311.102 63.5517 312.005 62.8063 312.977 62.1595C313.336 61.9053 313.766 61.7711 314.206 61.7762C314.52 61.8256 314.84 61.8256 315.154 61.7762C315.308 61.7405 315.455 61.6817 315.591 61.602C315.754 61.5168 315.707 61.5284 315.451 61.6368L314.869 61.422C315.824 62.1421 316.033 63.4138 316.202 64.523C316.457 66.0588 316.591 67.6121 316.604 69.1688C316.604 72.113 316.394 75.4057 315.067 78.077C314.433 79.3372 316.58 79.9992 316.767 78.7449C317.128 76.2884 317.727 73.8958 317.931 71.4104C318.1 68.9835 317.983 66.5452 317.582 64.1455C317.462 63.1507 317.171 62.184 316.72 61.2884C316.617 61.0845 316.497 60.8902 316.359 60.7077C316.312 60.6246 316.251 60.55 316.179 60.487C315.969 60.3767 316.179 60.6554 316.179 60.5683C316.146 60.2456 316.017 59.9399 315.81 59.6898C315.603 59.4397 315.326 59.2564 315.015 59.163C312.582 58.3383 310.323 60.9516 308.909 62.5428C308.023 63.5268 307.206 64.5707 306.464 65.667C305.655 66.7151 305.03 67.8935 304.619 69.1514C304.601 69.2376 304.612 69.3271 304.649 69.4068C304.687 69.4866 304.749 69.5523 304.826 69.5945C304.903 69.6367 304.992 69.653 305.08 69.6412C305.167 69.6294 305.248 69.59 305.311 69.5288L305.329 69.5346Z" fill="#2D2615"/>
<path d="M204.962 126.248V126.213L205.544 127.45V127.374C205.37 126.679 205.014 126.042 204.514 125.528C204.112 124.942 203.567 124.468 202.931 124.151L201.598 123.629C200.639 123.393 199.634 123.417 198.687 123.698C198.178 123.831 197.697 124.053 197.267 124.355C196.473 124.845 195.82 125.531 195.369 126.347C194.995 126.959 194.794 127.662 194.787 128.379C194.64 129.097 194.691 129.842 194.933 130.534C195.207 131.432 195.71 132.245 196.394 132.891L196.458 132.944L197.593 133.774C198.032 133.992 198.49 134.171 198.961 134.308C199.677 134.519 200.437 134.533 201.161 134.349C201.889 134.302 202.591 134.059 203.193 133.646L204.287 132.764C204.946 132.074 205.416 131.226 205.649 130.301V130.232L204.357 132.554L204.392 132.508L205.177 131.445C205.541 130.862 205.742 130.192 205.759 129.506C205.87 129.052 205.858 128.577 205.725 128.129C205.64 127.446 205.377 126.798 204.962 126.248Z" fill="#2D2615"/>
<path d="M280.079 131.207C286.254 131.207 286.016 121.637 279.84 121.637C273.664 121.637 273.903 131.207 280.079 131.207Z" fill="#2D2615"/>
<path d="M119.438 182.206C244.817 228.96 359.299 180.429 359.299 180.429C358.979 141.95 343.408 103.112 314.479 77.6414C285.55 52.171 243.07 41.7413 206.574 54.1745C181.126 62.8388 159.886 81.7471 145.643 104.5C131.399 127.252 123.792 153.675 120.561 180.301L119.438 182.206Z" fill="#F5B100"/>
<path d="M219.403 137.281C202.954 184 269.636 185.063 266.644 151.799C262.669 107.694 227.366 114.685 219.403 137.281Z" fill="#F3DA99"/>
<path d="M247.576 124.331C246.176 124.17 244.798 123.856 243.466 123.396C242.236 123.014 240.974 122.744 239.694 122.589C237.442 122.369 235.137 122.961 233.763 124.866C232.599 126.468 232.483 128.797 234.054 130.185C234.415 130.521 234.839 130.782 235.301 130.953C235.764 131.124 236.256 131.201 236.748 131.181C237.241 131.161 237.725 131.043 238.172 130.835C238.619 130.627 239.02 130.332 239.352 129.968C239.683 129.604 239.939 129.177 240.105 128.714C240.27 128.25 240.342 127.758 240.315 127.267C240.289 126.776 240.164 126.294 239.95 125.851C239.735 125.408 239.435 125.012 239.066 124.686C238.971 124.598 238.857 124.532 238.733 124.495C238.609 124.457 238.478 124.447 238.35 124.467C238.222 124.486 238.1 124.534 237.993 124.607C237.886 124.68 237.797 124.777 237.733 124.889C236.353 127.473 237.855 131.277 240.923 131.683C243.99 132.09 246.545 128.478 245.061 125.76C244.988 125.645 244.886 125.551 244.765 125.487C244.645 125.423 244.51 125.391 244.373 125.395C244.237 125.398 244.103 125.437 243.986 125.507C243.869 125.577 243.772 125.676 243.705 125.795C242.663 128.17 245.113 131.294 247.721 130.232C249.898 129.343 250.294 126.045 248.472 124.61C248.385 124.538 248.284 124.485 248.176 124.453C248.068 124.421 247.954 124.412 247.842 124.426C247.73 124.44 247.622 124.476 247.524 124.534C247.427 124.591 247.342 124.667 247.276 124.758C247.209 124.849 247.162 124.953 247.137 125.063C247.112 125.173 247.11 125.287 247.131 125.398C247.152 125.508 247.196 125.614 247.259 125.707C247.323 125.8 247.405 125.88 247.5 125.94C248.425 126.521 248.164 128.216 247.279 128.716C246.086 129.384 244.572 127.717 245.084 126.556L243.722 126.585C244.625 128.234 242.739 130.504 240.958 130.069C239.176 129.633 238.373 127.229 239.211 125.696L237.878 125.899C238.99 126.921 238.635 129.122 237.017 129.384C236.648 129.447 236.268 129.407 235.92 129.266C235.573 129.126 235.271 128.892 235.05 128.59C234.829 128.289 234.696 127.931 234.667 127.558C234.638 127.186 234.714 126.812 234.886 126.48C235.795 124.43 238.21 124.093 240.212 124.273C241.412 124.384 242.587 124.674 243.769 124.854C245.027 125.083 246.312 125.124 247.581 124.976C247.663 124.965 247.737 124.926 247.791 124.864C247.845 124.803 247.875 124.724 247.875 124.642C247.875 124.56 247.845 124.482 247.791 124.42C247.737 124.359 247.663 124.319 247.581 124.308L247.576 124.331Z" fill="#2D2615"/>
<path d="M241.778 130.22C241.325 130.786 241.023 131.457 240.899 132.171C240.655 133.007 240.457 133.867 240.265 134.715C239.892 136.376 239.624 138.06 239.415 139.75C239.205 141.439 239.054 143.025 239.002 144.674C238.949 146.323 238.769 148.246 239.159 149.901C239.357 150.731 240.789 150.748 240.905 149.86C241.115 148.246 240.905 146.544 240.905 144.918C240.905 143.292 241.004 141.602 241.144 139.953C241.283 138.304 241.499 136.712 241.726 135.098C241.854 134.279 242.005 133.46 242.156 132.642C242.38 131.904 242.438 131.127 242.325 130.365C242.308 130.307 242.275 130.255 242.231 130.213C242.187 130.172 242.132 130.143 242.073 130.129C242.014 130.116 241.952 130.118 241.894 130.136C241.836 130.154 241.784 130.187 241.743 130.232L241.778 130.22Z" fill="#2D2615"/>
<path d="M230.399 136.12C228.978 138.251 229.205 141.451 229.98 143.768C230.816 146.284 232.522 148.421 234.793 149.796C239.59 152.659 246.086 151.736 249.659 147.392C251.557 145.069 252.919 141.811 252.209 138.809C251.976 137.804 250.637 138.228 250.556 139.076C250.335 141.399 249.916 143.571 248.53 145.51C247.206 147.375 245.25 148.699 243.024 149.239C240.812 149.755 238.489 149.491 236.451 148.49C234.413 147.49 232.786 145.814 231.848 143.751C231.352 142.591 231.045 141.36 230.94 140.104C230.895 138.833 230.961 137.56 231.138 136.3C231.173 135.87 230.591 135.83 230.399 136.12Z" fill="#2D2615"/>
<path d="M266.516 139.337C276.837 136.799 287.285 134.924 297.797 133.344C308.309 131.765 318.752 130.655 329.229 129.982C339.706 129.308 350.323 129.099 360.871 129.337C371.418 129.575 381.924 130.266 392.39 131.428C402.856 132.589 413.31 134.209 423.653 136.288L427.547 137.084C428.636 137.305 429.061 135.644 427.966 135.411C417.611 133.17 407.105 131.521 396.587 130.284C386.069 129.047 375.428 128.269 364.811 127.961C354.194 127.653 343.6 127.821 333.018 128.46C322.436 129.099 311.767 130.202 301.231 131.805C290.8 133.391 280.515 135.603 270.265 138.071C268.973 138.377 267.686 138.694 266.406 139.024C266.196 139.076 266.295 139.384 266.499 139.337H266.516Z" fill="#2D2615"/>
<path d="M264.334 149.117C274.642 148.042 285.009 147.328 295.358 146.794C305.707 146.259 316.109 146.056 326.482 146.12C336.854 146.184 347.244 146.532 357.599 147.189C367.955 147.845 378.368 148.803 388.706 150.057C399.043 151.312 409.27 152.856 419.48 154.703L423.287 155.406C424.375 155.615 424.8 153.937 423.706 153.733C413.446 151.84 403.137 150.245 392.78 148.948C382.423 147.651 372.076 146.668 361.738 145.998C351.381 145.317 341.012 144.93 330.632 144.837C320.252 144.744 309.827 144.994 299.357 145.586C288.932 146.167 278.536 147.049 268.175 148.333C266.895 148.495 265.608 148.646 264.328 148.803C264.159 148.803 264.165 149.088 264.328 149.064L264.334 149.117Z" fill="#2D2615"/>
<path d="M264.287 157.816C274.764 158.234 285.189 158.664 295.626 159.477C306.063 160.29 316.528 161.405 326.918 162.856C337.308 164.308 347.489 166.016 357.687 168.083C367.885 170.15 378.118 172.525 388.217 175.226C398.316 177.926 408.327 180.94 418.24 184.268L421.93 185.534C422.937 185.888 423.339 184.268 422.332 183.925C412.384 180.557 402.349 177.45 392.221 174.68C382.093 171.91 371.965 169.488 361.732 167.363C351.499 165.237 341.092 163.414 330.69 161.921C320.382 160.452 310.015 159.343 299.636 158.536C289.159 157.723 278.682 157.276 268.169 157.258C266.871 157.258 265.573 157.258 264.275 157.311C264.215 157.32 264.16 157.35 264.12 157.397C264.08 157.443 264.058 157.502 264.058 157.563C264.058 157.624 264.08 157.683 264.12 157.73C264.16 157.776 264.215 157.807 264.275 157.816H264.287Z" fill="#2D2615"/>
<path d="M216.993 144.54C208.398 140.845 199.523 137.835 190.451 135.539C181.365 133.232 172.128 131.563 162.808 130.545C144.165 128.491 125.329 128.981 106.818 132.003C97.5184 133.513 88.3346 135.665 79.3329 138.443C78.227 138.784 77.121 139.138 76.0151 139.506C75.043 139.825 75.5028 141.352 76.4749 141.027C85.3071 138.018 94.3448 135.646 103.518 133.931C112.679 132.232 121.946 131.164 131.254 130.737C149.916 129.872 168.61 131.549 186.819 135.719C195.898 137.82 204.84 140.473 213.594 143.664C214.685 144.051 215.769 144.453 216.848 144.871C217.034 144.941 217.162 144.628 216.976 144.546L216.993 144.54Z" fill="#2D2615"/>
<path d="M212.261 151.561C203.309 151.345 194.355 151.389 185.399 151.695C176.47 151.997 167.54 152.543 158.664 153.623C142.709 155.563 126.859 159.169 112.098 165.696C104.044 169.203 96.4716 173.723 89.5658 179.146C88.9837 179.593 89.5658 180.574 90.1479 180.127C102.651 170.836 117.051 164.39 132.016 160.232C148.367 155.685 165.334 153.873 182.244 153.054C192.232 152.572 202.232 152.473 212.226 152.061C212.293 152.061 212.356 152.035 212.403 151.988C212.45 151.941 212.477 151.877 212.477 151.811C212.477 151.745 212.45 151.681 212.403 151.635C212.356 151.588 212.293 151.561 212.226 151.561H212.261Z" fill="#2D2615"/>
<path d="M210.69 160.644C201.514 160.627 192.353 161.359 183.297 162.833C174.251 164.236 165.306 166.23 156.522 168.803C147.757 171.377 139.167 174.511 130.806 178.187C122.421 181.864 114.288 186.085 106.458 190.824C98.607 195.567 91.0886 200.836 83.9546 206.596C83.0873 207.299 82.2083 208.007 81.3643 208.722C80.6775 209.302 81.6845 210.237 82.3655 209.674C89.3511 203.892 96.7088 198.573 104.391 193.751C127.557 179.26 153.304 169.354 180.224 164.575C189.172 162.978 198.212 161.94 207.29 161.468C208.454 161.405 209.572 161.323 210.713 161.254C210.773 161.232 210.825 161.193 210.862 161.141C210.899 161.089 210.919 161.027 210.919 160.963C210.919 160.899 210.899 160.837 210.862 160.785C210.825 160.733 210.773 160.694 210.713 160.673L210.69 160.644Z" fill="#2D2615"/>
<path d="M187.669 201.742C183.961 202.767 180.366 204.158 176.935 205.894C173.529 207.621 170.225 209.542 167.04 211.649C160.569 215.852 154.5 220.64 148.908 225.952C143.542 231.016 137.785 236.776 135.835 244.111C133.972 251.08 137.15 258.414 142.098 263.362C145.06 266.201 148.513 268.482 152.29 270.092C156.349 271.859 160.536 273.315 164.816 274.448C164.624 273.78 164.426 273.112 164.234 272.444C161.153 276.465 159.121 281.186 158.32 286.184C158.152 287.241 159.42 288.135 160.247 287.241C163.099 284.204 166.05 281.3 168.873 278.228C169.811 277.206 168.518 275.487 167.302 276.3C163.512 278.85 161.795 284.024 163.565 288.28C163.615 288.454 163.705 288.614 163.828 288.747C163.951 288.879 164.103 288.982 164.273 289.045C164.443 289.109 164.625 289.133 164.805 289.114C164.985 289.095 165.158 289.034 165.311 288.937C169.346 286.485 172.375 282.681 173.856 278.205C174.252 276.933 172.546 276.149 171.685 277.015C170.12 278.59 168.976 280.532 168.36 282.663C167.744 284.794 167.674 287.045 168.157 289.21C168.214 289.393 168.313 289.561 168.445 289.701C168.576 289.842 168.739 289.95 168.919 290.018C169.099 290.086 169.292 290.113 169.484 290.096C169.676 290.078 169.861 290.018 170.026 289.918C172.445 288.251 174.45 286.054 175.887 283.495C177.325 280.936 178.157 278.083 178.321 275.155C178.484 272.226 177.974 269.299 176.83 266.596C175.686 263.894 173.938 261.489 171.72 259.564C170.617 258.535 169.382 257.658 168.047 256.956L168.128 260.168L173.949 257.113C175.905 256.085 177.913 255.191 179.921 254.279C180.934 253.821 181.126 252.311 180.591 251.451C180.298 250.995 179.839 250.671 179.312 250.546C178.784 250.421 178.228 250.507 177.762 250.783C175.864 251.898 173.984 253.008 172.028 254.006L166.155 257.003C164.933 257.63 165.026 259.634 166.237 260.214C167.296 260.646 168.314 261.171 169.281 261.782C170.123 262.389 170.903 263.078 171.609 263.838C173.107 265.39 174.253 267.246 174.968 269.279C175.688 271.385 175.956 273.618 175.756 275.834C175.555 278.05 174.89 280.199 173.804 282.142C172.572 284.402 170.816 286.333 168.681 287.775L170.55 288.484C170.144 286.748 170.206 284.936 170.729 283.231C171.253 281.527 172.219 279.991 173.53 278.78L171.353 277.584C170.076 281.447 167.507 284.756 164.077 286.956L165.823 287.613C165.184 285.989 165.116 284.197 165.63 282.529C166.144 280.861 167.209 279.417 168.652 278.431L167.081 276.503C164.223 279.523 161.504 282.671 158.658 285.702L160.585 286.759C161.331 282.165 163.206 277.827 166.045 274.134C166.187 273.979 166.286 273.791 166.334 273.586C166.382 273.382 166.377 273.168 166.318 272.967C166.26 272.765 166.151 272.582 166.001 272.434C165.851 272.287 165.665 272.18 165.462 272.125C158.478 270.121 151.044 268.449 145.369 263.606C142.954 261.544 140.672 258.908 139.479 255.934C138.321 252.956 138.179 249.68 139.077 246.614C139.898 243.49 141.912 240.377 143.786 237.967C146.045 235.17 148.475 232.515 151.062 230.017C156.159 224.946 161.671 220.307 167.54 216.149C170.841 213.791 174.24 211.573 177.744 209.529C179.525 208.489 181.237 207.351 183.029 206.3C184.822 205.249 186.586 204.244 188.315 203.118C188.453 203.017 188.554 202.872 188.599 202.707C188.645 202.542 188.633 202.367 188.565 202.209C188.497 202.052 188.378 201.922 188.227 201.842C188.076 201.761 187.901 201.734 187.733 201.765L187.669 201.742Z" fill="#2D2615"/>
<path d="M220.492 332.003C221.795 332.565 223.144 333.012 224.525 333.338C225.899 333.745 227.285 334.14 228.682 334.465C231.463 335.132 234.278 335.645 237.116 336.004C242.933 336.72 248.804 336.897 254.654 336.532C257.984 336.219 261.289 335.685 264.549 334.935C266.505 334.541 265.975 331.329 263.967 331.451C261.15 331.66 258.332 331.591 255.509 331.73C252.686 331.869 249.857 331.939 247.028 331.974C241.446 332.049 235.835 331.776 230.265 331.358C228.716 331.242 227.162 331.126 225.608 330.975C224.034 330.731 222.449 330.569 220.858 330.487C220.685 330.495 220.52 330.559 220.386 330.669C220.252 330.779 220.158 330.929 220.117 331.097C220.075 331.265 220.09 331.441 220.157 331.6C220.225 331.759 220.342 331.892 220.492 331.98V332.003Z" fill="#2D2615"/>
<path d="M291.348 201.678C291.784 202.363 292.192 203.077 292.64 203.745C293.088 204.413 293.746 205.197 294.281 205.923C295.29 207.262 296.289 208.617 297.279 209.988C299.281 212.74 301.26 215.522 303.187 218.327C307.052 223.954 310.795 229.663 314.549 235.365C316.65 238.559 318.624 241.869 320.952 244.889C321.103 245.119 321.303 245.312 321.538 245.455C321.772 245.598 322.037 245.687 322.31 245.716C322.584 245.744 322.861 245.711 323.12 245.619C323.38 245.528 323.615 245.379 323.81 245.185C325.649 243.443 327.838 241.985 329.846 240.435C331.854 238.884 333.985 237.229 336.063 235.65C340.242 232.479 344.41 229.306 348.566 226.132C348.93 225.882 349.189 225.506 349.291 225.077C349.394 224.647 349.332 224.195 349.118 223.809C347.834 220.931 347.55 217.708 348.309 214.651L345.504 215.464C348.221 217.897 350.386 220.881 351.854 224.215C351.922 224.424 352.036 224.615 352.188 224.773C352.34 224.932 352.525 225.055 352.731 225.132C352.937 225.21 353.157 225.24 353.376 225.221C353.595 225.202 353.807 225.134 353.996 225.023C358.926 221.968 365.271 221.672 370.655 223.67L370.585 220.859C366.284 222.566 362.064 224.512 357.739 226.155C357.435 226.263 357.184 226.484 357.038 226.771C356.893 227.059 356.864 227.392 356.957 227.7C357.051 228.009 357.26 228.269 357.541 228.428C357.822 228.587 358.153 228.632 358.467 228.553C362.779 227.487 367.337 228.11 371.202 230.296C371.296 229.453 371.383 228.611 371.476 227.769L364.817 229.453C362.599 230.034 360.434 230.789 358.205 231.271C358.438 232.055 358.676 232.839 358.915 233.629C362.477 232.508 366.883 233.768 369.177 236.765L370.888 234.442C365.512 233.4 359.941 234.127 355.015 236.515C352.557 237.647 350.269 239.115 348.216 240.876C346.069 242.797 344.254 245.057 342.844 247.566C339.898 252.613 338.298 258.315 335.184 263.246C334.823 263.826 334.45 264.407 334.054 264.924C334.188 264.744 333.775 265.278 333.699 265.377C333.467 265.667 333.234 265.958 332.989 266.231C332.553 266.73 332.093 267.212 331.616 267.665C331.4 267.868 331.179 268.06 330.964 268.246C330.446 268.71 331.127 268.124 330.806 268.379C330.667 268.495 330.521 268.6 330.376 268.71C329.853 269.099 329.305 269.452 328.734 269.767C328.484 269.912 328.222 270.04 327.96 270.174C327.337 270.481 328.164 270.092 327.785 270.249L327.168 270.487C326.526 270.728 325.866 270.922 325.195 271.068L324.724 271.161C325.061 271.109 324.561 271.161 324.479 271.161C324.084 271.207 323.688 271.231 323.315 271.242C322.943 271.254 322.518 271.242 322.151 271.242L321.569 271.207C321.196 271.178 321.569 271.207 321.336 271.178C320.496 271.063 319.664 270.894 318.845 270.673C317.342 270.274 315.884 269.72 314.497 269.018C311.376 267.426 308.391 265.581 305.574 263.501C304.596 262.81 302.972 263.379 302.465 264.395C302.191 264.929 302.132 265.547 302.298 266.123C302.465 266.699 302.845 267.19 303.362 267.497C308.35 271.021 313.944 274.663 320.131 275.505C323.203 275.997 326.351 275.634 329.229 274.454C331.914 273.257 334.286 271.458 336.162 269.198C339.939 264.726 341.924 259.256 344.153 253.931C345.265 251.069 346.699 248.341 348.426 245.801C349.891 243.813 351.679 242.084 353.717 240.685C358.373 237.473 364.677 236.457 370.195 237.479C370.494 237.551 370.807 237.534 371.097 237.431C371.386 237.327 371.639 237.142 371.825 236.898C372.015 236.651 372.124 236.351 372.138 236.04C372.153 235.729 372.072 235.42 371.907 235.156C370.345 233.144 368.178 231.684 365.723 230.99C363.269 230.296 360.657 230.405 358.269 231.3C356.808 231.881 357.431 234.105 358.979 233.658C361.179 233.019 363.455 232.676 365.679 232.113L372.337 230.441C373.502 230.145 373.601 228.478 372.605 227.915C370.382 226.647 367.925 225.84 365.382 225.541C362.839 225.242 360.261 225.456 357.803 226.172L358.531 228.571C362.803 226.829 367.198 225.354 371.493 223.67C371.793 223.57 372.053 223.378 372.235 223.12C372.417 222.862 372.511 222.553 372.503 222.238C372.495 221.923 372.386 221.619 372.192 221.371C371.997 221.122 371.728 220.943 371.424 220.859C365.195 218.536 358.304 219.401 352.541 222.601L354.683 223.408C353.254 219.48 350.931 215.935 347.896 213.054C347.681 212.855 347.417 212.715 347.132 212.647C346.846 212.58 346.547 212.587 346.265 212.669C345.983 212.751 345.728 212.904 345.523 213.114C345.318 213.324 345.171 213.584 345.096 213.867C344.076 217.803 344.488 221.972 346.261 225.632C346.447 224.848 346.627 224.07 346.843 223.309C342.652 226.523 338.467 229.74 334.287 232.961C332.215 234.552 330.125 236.126 328.042 237.7C325.958 239.273 323.874 241.074 321.639 242.45L324.136 243.031C322.52 239.967 320.704 237.012 318.699 234.186C316.825 231.38 314.885 228.617 312.879 225.899C308.804 220.313 304.456 214.918 300.073 209.599C298.862 208.127 297.638 206.666 296.4 205.214L294.537 203.048C293.868 202.311 293.161 201.61 292.419 200.946C292.307 200.84 292.161 200.778 292.007 200.772C291.853 200.766 291.702 200.816 291.582 200.913C291.463 201.009 291.382 201.146 291.356 201.298C291.33 201.449 291.36 201.605 291.441 201.736L291.348 201.678Z" fill="#2D2615"/>
<path d="M291.062 214.047C291.189 215.535 291.484 217.004 291.941 218.426C292.407 219.802 292.844 221.19 293.263 222.584C294.113 225.423 294.922 228.275 295.591 231.161C296.954 236.776 297.993 242.465 298.705 248.199C300.091 259.994 300.317 271.895 299.38 283.733C298.411 295.69 296.519 307.554 293.723 319.221C290.824 331.324 287.248 343.255 283.012 354.959C278.845 366.649 274.211 378.188 269.462 389.634C268.85 391.114 268.263 392.589 267.715 394.099C266.976 396.19 270.387 397.514 271.348 395.522C274.06 389.895 276.249 383.977 278.577 378.182C280.952 372.253 283.28 366.3 285.504 360.307C289.875 348.536 293.868 336.591 297.11 324.454C300.354 312.51 302.63 300.326 303.915 288.019C305.179 276.086 305.153 264.052 303.839 252.125C302.442 240.232 299.735 228.548 295.16 217.456C294.566 216.041 293.77 214.719 292.797 213.53C292.291 212.897 290.958 213.019 291.051 214.047H291.062Z" fill="#2D2615"/>
<path d="M242.843 335.307C243.111 340.087 243.286 344.872 243.455 349.657C243.618 354.349 243.967 359.041 244.182 363.734C244.621 373.223 244.788 382.719 244.683 392.224C244.619 397.595 244.479 402.967 244.299 408.339C244.314 408.704 244.47 409.049 244.735 409.301C245 409.554 245.353 409.694 245.719 409.692C255.614 410.122 265.568 410.516 275.475 411.155C276.679 411.231 277.256 409.529 276.4 408.769C274.043 406.695 271.743 404.564 269.275 402.607C268.998 402.344 268.626 402.201 268.243 402.211C267.86 402.221 267.496 402.382 267.232 402.659C266.968 402.937 266.826 403.307 266.835 403.689C266.845 404.072 267.007 404.434 267.285 404.698C270.777 408.844 276.016 411.295 281.482 410.679C281.693 410.669 281.9 410.612 282.087 410.512C282.273 410.411 282.435 410.27 282.559 410.099C282.683 409.927 282.767 409.73 282.804 409.522C282.841 409.314 282.831 409.1 282.774 408.896C281.924 405.751 280.089 402.959 277.535 400.929C277.301 400.717 277.006 400.586 276.691 400.554C276.377 400.521 276.061 400.59 275.789 400.749C275.519 400.914 275.312 401.164 275.2 401.459C275.087 401.754 275.075 402.078 275.166 402.381C276.11 404.626 277.794 406.483 279.939 407.645C282.085 408.806 284.563 409.203 286.965 408.769C287.931 408.6 288.047 407.45 287.727 406.748C286.119 403.244 283.782 400.122 280.87 397.59C277.915 394.953 274.508 392.87 270.812 391.44C269.764 391.051 268.554 391.945 268.303 392.944C268.178 393.475 268.265 394.034 268.547 394.501C268.828 394.969 269.282 395.308 269.811 395.447C273.196 396.131 276.359 397.644 279.014 399.849C281.712 402.146 283.893 404.986 285.416 408.182L286.185 406.161C282.873 406.771 279.171 404.645 277.925 401.556L275.562 403.008C277.757 404.701 279.357 407.045 280.131 409.703L281.429 407.915C277.046 408.443 272.058 406.672 269.526 402.903L267.302 404.703C269.63 406.817 272.087 408.769 274.502 410.778L275.428 408.397C265.533 408.054 255.585 407.468 245.666 406.922L247.093 408.275C247.939 389.19 247.521 370.069 245.841 351.039C245.381 345.743 244.438 340.447 243.594 335.197C243.53 334.779 242.838 334.901 242.861 335.313L242.843 335.307Z" fill="#2D2615"/>
<path d="M188.291 213.356C187.337 214.489 186.552 215.755 185.963 217.113C185.381 218.495 184.834 219.889 184.304 221.288C183.233 224.117 182.319 226.997 181.481 229.9C179.856 235.598 178.623 241.399 177.791 247.264C176.085 259.306 175.705 271.498 176.656 283.623C177.625 295.897 179.639 308.066 182.674 319.999C185.777 332.17 189.497 344.175 193.821 355.969C198.093 367.81 202.808 379.494 207.634 391.126C208.268 392.653 208.926 394.163 209.648 395.656C210.608 397.659 213.937 396.138 213.204 394.059C211.138 388.251 208.547 382.543 206.219 376.794C203.891 371.045 201.621 365.133 199.461 359.25C195.133 347.643 191.412 335.819 188.315 323.826C185.297 312.141 183.166 300.245 181.941 288.24C180.774 276.463 180.708 264.604 181.743 252.816C182.802 241.153 185.226 229.654 188.967 218.553C189.414 217.17 189.708 215.743 189.845 214.297C189.939 213.495 188.926 212.612 188.268 213.431L188.291 213.356Z" fill="#2D2615"/>
<path d="M237.372 335.226C236.615 339.93 235.905 344.645 235.323 349.378C234.741 354.111 234.467 358.966 234.205 363.751C233.701 373.24 233.46 382.729 233.484 392.218C233.484 397.59 233.623 402.961 233.868 408.333C234.322 407.857 234.776 407.386 235.224 406.91C225.329 407.456 215.393 408.043 205.468 408.385L206.505 410.708C208.926 408.705 211.394 406.748 213.711 404.628L211.382 402.938C208.973 406.521 204.025 408.437 199.822 407.932C200.154 408.513 200.492 409.053 200.829 409.61C201.565 407.067 203.074 404.815 205.148 403.164L203.134 401.254C201.825 404.506 198.239 406.771 194.7 406.12L195.562 408.101C197.087 404.909 199.268 402.074 201.964 399.779C204.638 397.578 207.815 396.072 211.214 395.394C211.486 395.327 211.741 395.204 211.965 395.035C212.188 394.866 212.375 394.654 212.513 394.41C212.652 394.167 212.739 393.898 212.771 393.62C212.802 393.342 212.777 393.061 212.696 392.793C212.615 392.525 212.481 392.276 212.301 392.061C212.121 391.847 211.899 391.671 211.649 391.545C211.398 391.418 211.125 391.344 210.845 391.326C210.565 391.307 210.285 391.346 210.02 391.44C206.339 392.884 202.948 394.977 200.009 397.619C197.101 400.154 194.767 403.278 193.163 406.782C193.065 406.966 193.01 407.169 193.002 407.377C192.993 407.585 193.032 407.792 193.116 407.982C193.199 408.173 193.325 408.342 193.483 408.477C193.642 408.612 193.829 408.71 194.031 408.763C198.728 409.593 203.78 407.119 205.672 402.642C205.82 402.361 205.873 402.04 205.825 401.727C205.777 401.413 205.629 401.124 205.404 400.9C205.175 400.681 204.878 400.544 204.562 400.511C204.246 400.479 203.928 400.552 203.658 400.72C200.979 402.789 199.047 405.671 198.152 408.931C198.065 409.287 198.123 409.663 198.313 409.978C198.502 410.292 198.808 410.519 199.165 410.609C201.905 410.937 204.683 410.555 207.232 409.5C209.757 408.421 211.98 406.745 213.711 404.616C213.947 404.361 214.083 404.029 214.095 403.682C214.106 403.334 213.993 402.994 213.775 402.723C213.557 402.45 213.247 402.266 212.902 402.206C212.558 402.146 212.203 402.214 211.906 402.398C209.357 404.43 206.947 406.637 204.496 408.786C203.594 409.581 204.386 411.196 205.538 411.109C215.434 410.47 225.375 410.075 235.294 409.645C235.66 409.629 236.006 409.471 236.259 409.206C236.512 408.941 236.652 408.589 236.65 408.223C235.998 389.221 236.214 370.249 237.413 351.277C237.75 345.94 237.809 340.586 238.1 335.243C238.093 335.156 238.056 335.073 237.994 335.01C237.933 334.946 237.851 334.906 237.764 334.897C237.676 334.887 237.588 334.908 237.514 334.957C237.44 335.005 237.386 335.078 237.36 335.162L237.372 335.226Z" fill="#2D2615"/>
<path d="M284.008 127.601C284.048 127.593 284.084 127.572 284.11 127.541C284.136 127.51 284.151 127.47 284.151 127.43C284.151 127.389 284.136 127.349 284.11 127.318C284.084 127.287 284.048 127.266 284.008 127.258C283.968 127.266 283.931 127.287 283.905 127.318C283.879 127.349 283.865 127.389 283.865 127.43C283.865 127.47 283.879 127.51 283.905 127.541C283.931 127.572 283.968 127.593 284.008 127.601Z" fill="white"/>
<path d="M284.555 129.192C284.86 129.201 285.162 129.127 285.428 128.977C285.706 128.878 285.954 128.71 286.15 128.489C286.361 128.287 286.515 128.032 286.598 127.752C286.737 127.479 286.797 127.174 286.773 126.869L286.679 126.288C286.567 125.911 286.356 125.57 286.068 125.301L285.603 124.959C285.247 124.762 284.845 124.664 284.438 124.674C284.135 124.671 283.836 124.747 283.571 124.895C283.294 124.992 283.045 125.158 282.849 125.377C282.454 125.826 282.232 126.4 282.221 126.997L282.32 127.578C282.425 127.951 282.625 128.291 282.902 128.565L283.367 128.907C283.723 129.105 284.125 129.201 284.532 129.186L284.555 129.192Z" fill="white"/>
<path d="M193.804 128.158L193.722 128.228L193.454 128.594L193.285 129.018C193.222 129.25 193.222 129.494 193.285 129.726C193.291 129.882 193.338 130.034 193.419 130.168C193.465 130.315 193.547 130.449 193.658 130.557C193.74 130.685 193.852 130.79 193.984 130.865C194.094 130.97 194.231 131.045 194.38 131.079C194.592 131.186 194.829 131.235 195.067 131.219L195.538 131.143L195.957 130.952L196.306 130.667L196.574 130.301L196.743 129.877C196.807 129.645 196.807 129.401 196.743 129.169C196.737 129.013 196.691 128.861 196.609 128.727C196.537 128.504 196.406 128.303 196.231 128.147L196.149 128.083C196.001 127.928 195.814 127.814 195.608 127.752C195.409 127.654 195.189 127.61 194.968 127.624L194.525 127.694C194.249 127.776 194 127.93 193.804 128.141V128.158Z" fill="white"/>
<path d="M180.049 291.986C171.213 290.365 161.923 292.566 153.53 295.319C149.112 296.765 144.752 298.391 140.352 299.895C135.862 301.456 131.285 302.753 126.644 303.78C117.494 305.76 108.128 306.852 98.7858 305.656C91.1227 304.735 83.7636 302.114 77.249 297.984C70.7751 293.878 65.7202 287.888 62.767 280.824C59.6704 273.222 58.9253 264.912 59.3968 256.776C59.909 247.909 62.0161 239.018 64.0883 230.296C66.2944 221.004 68.6983 211.573 69.1058 202.003C69.4667 193.635 67.3596 184.366 60.3165 179.059C58.6346 177.763 56.7259 176.79 54.6878 176.19C52.5583 175.635 50.3371 175.524 48.1628 175.865C47.0239 176.01 45.8975 176.239 44.7925 176.55C43.705 176.9 42.6448 177.329 41.6202 177.833C39.6129 178.803 37.6911 179.939 35.8752 181.23C35.0079 181.84 34.1289 182.45 33.2791 183.089C32.4293 183.728 31.5794 184.477 30.6889 185.115C29.5247 185.94 30.6889 187.839 31.853 187.003C32.732 186.381 33.7098 185.841 34.6353 185.29C35.5608 184.738 36.5271 184.128 37.5108 183.629C39.3886 182.618 41.3568 181.784 43.3897 181.138C45.28 180.502 47.257 180.162 49.2512 180.127C49.5015 180.127 49.746 180.127 49.9963 180.127C50.0778 180.127 50.654 180.185 50.3863 180.127C50.9218 180.2 51.4524 180.304 51.9753 180.441C52.4526 180.563 52.9299 180.69 53.4014 180.836C53.6051 180.899 53.8089 180.981 54.0184 181.045C54.228 181.108 53.9719 181.045 53.9311 181.01L54.3269 181.178C55.1805 181.561 55.9969 182.022 56.7658 182.554C56.8939 182.642 57.2897 182.932 56.9521 182.676C57.1267 182.804 57.2955 182.938 57.4643 183.077C57.831 183.373 58.1803 183.687 58.5179 184.012C58.8555 184.337 59.1407 184.628 59.4317 184.953C59.5772 185.11 59.7169 185.278 59.8624 185.446C60.008 185.615 59.8624 185.412 59.8101 185.377L60.0778 185.725C60.6333 186.464 61.1371 187.24 61.5854 188.048C61.8008 188.431 62.0103 188.82 62.2024 189.21L62.3537 189.546L62.3188 189.465L62.6157 190.179C62.9919 191.154 63.3069 192.151 63.5586 193.164C63.6867 193.687 63.8031 194.221 63.902 194.75C63.9777 195.168 64.0301 195.487 64.1058 196.12C64.2396 197.247 64.3095 198.379 64.3386 199.512C64.4725 204.204 63.8904 208.397 63.1279 212.967C62.3537 217.613 61.3817 222.258 60.3339 226.864C58.3316 235.923 56.2594 244.994 55.6773 254.274C55.1767 262.462 55.817 270.911 58.5586 278.664C61.1786 286.196 65.9222 292.814 72.2199 297.723C78.3792 302.403 85.5184 305.635 93.1047 307.177C101.952 309.047 111.015 308.67 119.88 307.113C129.112 305.493 137.983 302.334 146.772 299.169C155.404 296.056 164.164 292.891 173.408 292.328C175.608 292.195 177.814 292.195 180.014 292.328C180.247 292.328 180.288 291.968 180.061 291.927L180.049 291.986Z" fill="#2D2615"/>
<path d="M59.2164 177.125C48.4247 175.638 38.6924 182.613 31.4631 189.843C24.1375 197.245 18.3618 206.027 14.4723 215.679C10.3271 225.875 8.20409 236.778 8.22086 247.781C8.2759 259.572 10.4729 271.255 14.7052 282.264C18.1888 291.484 23.1183 300.093 29.3094 307.769C35.3806 315.343 42.8074 321.726 51.2129 326.596C59.9081 331.576 69.6717 334.408 79.6879 334.854C90.922 335.33 102.139 332.584 112.441 328.269C123.058 323.826 132.814 317.752 142.127 311.085C146.784 307.758 151.44 304.407 156.597 301.887C161.254 299.604 166.493 297.932 171.731 298.925C174.328 299.451 176.818 300.405 179.1 301.747C180.73 302.676 182.133 300.133 180.509 299.204C175.852 296.562 170.835 295.046 165.468 295.801C159.874 296.591 154.647 299.146 149.857 302.032C145.067 304.918 140.59 308.222 135.951 311.323C131.267 314.456 126.409 317.322 121.399 319.906C111.778 324.848 101.341 328.704 90.5494 329.994C80.5727 331.19 70.3282 330.208 61.0732 326.544C52.6154 323.096 44.9361 317.991 38.4887 311.532C31.8956 305.004 26.3932 297.463 22.1906 289.198C17.2466 279.491 13.9986 269.013 12.5864 258.217C11.1004 247.202 11.7146 236.007 14.3967 225.22C16.8654 215.394 21.2353 206.144 27.2605 197.99C30.3209 193.86 33.8223 190.075 37.7029 186.701C41.7134 183.251 46.3351 180.272 51.4806 178.867C53.9612 178.162 56.5423 177.876 59.1174 178.019C59.6238 178.048 59.6995 177.194 59.2164 177.125Z" fill="#2D2615"/>
<path d="M187.709 51.7937C181.647 46.6633 174.52 42.9368 166.842 40.8819C165.922 40.638 165.003 40.4232 164.071 40.2373C163.529 40.113 162.959 40.2032 162.481 40.489C162.004 40.7749 161.656 41.2341 161.51 41.7704C161.423 42.084 161.347 42.3976 161.266 42.7112C159.432 46.4453 158.646 50.7484 158.198 54.8367C157.742 59.2752 157.696 63.7462 158.059 68.1932C158.099 68.774 158.157 69.3547 158.21 69.9354C158.28 71.8228 158.402 73.7101 158.594 75.5916C158.81 77.6663 159.161 79.7245 159.648 81.7531C159.974 84.134 160.282 86.7879 162.983 87.6009C164.31 88.0016 165.649 87.5254 166.871 87.0202C167.93 86.5847 168.984 86.1201 170.032 85.6439C177.627 82.1753 184.579 77.4515 190.596 71.6718C192.048 70.2742 193.441 68.8166 194.776 67.2989C195.579 66.3814 196.522 65.4348 196.842 64.2269C197.238 62.7693 196.598 61.5556 195.759 60.4174C193.419 57.2423 190.718 54.3485 187.709 51.7937Z" fill="#F5B100"/>
<path d="M324.2 54.6565C323.274 51.5148 321.447 48.4718 319.916 45.5856C319.796 45.3972 319.611 45.2604 319.395 45.2023C319.179 45.1443 318.95 45.1691 318.752 45.272C309.522 49.901 301.299 56.303 294.555 64.1106C294.463 64.2206 294.398 64.3502 294.365 64.4893C294.332 64.6284 294.331 64.7733 294.363 64.9126C294.395 65.052 294.459 65.1821 294.55 65.2928C294.641 65.4035 294.756 65.4918 294.887 65.5508C294.866 66.0869 295.035 66.613 295.364 67.0374C296.827 69.3306 298.453 71.5159 300.23 73.5764C303.763 77.6836 307.844 81.2868 312.36 84.2849C314.924 85.9867 317.62 87.482 320.422 88.7564C320.621 88.8553 320.849 88.878 321.064 88.8202C321.279 88.7624 321.464 88.6282 321.586 88.4428C327.198 78.4951 327.454 65.7424 324.2 54.6565Z" fill="#F5B100"/>
<path d="M179.653 64.7669C179.549 64.6914 179.432 64.6275 179.327 64.5636C179.362 64.5636 179.129 64.401 179.095 64.3662C178.85 64.1571 178.606 63.9539 178.355 63.7854C177.773 63.3209 177.191 62.8795 176.557 62.4614C175.474 61.7365 174.333 61.1014 173.146 60.5624C173.016 60.5044 172.879 60.4634 172.738 60.4405C172.524 60.3021 172.272 60.2312 172.016 60.2372C171.663 60.2493 171.329 60.399 171.085 60.6541C170.842 60.9093 170.708 61.2495 170.713 61.6019C170.625 62.4324 170.654 63.286 170.643 64.1223C170.643 64.2268 170.643 64.3313 170.643 64.4358C170.643 65.0166 170.585 65.5973 170.561 66.2129C170.506 67.7481 170.529 69.2851 170.631 70.818C170.643 70.9665 170.706 71.1062 170.81 71.213C170.915 71.3198 171.053 71.387 171.201 71.4028C171.35 71.4187 171.499 71.3822 171.624 71.2998C171.748 71.2174 171.84 71.0942 171.883 70.9516C171.883 70.847 171.929 70.7367 171.952 70.6263C172.162 70.6963 172.384 70.7259 172.604 70.7135C172.732 70.7058 172.858 70.6883 172.983 70.6612C173.332 70.769 173.704 70.781 174.06 70.696C175.124 70.3485 176.138 69.8623 177.075 69.25L179.729 67.775C179.988 67.6186 180.2 67.3963 180.344 67.131C180.489 66.8656 180.559 66.5668 180.55 66.2651C180.539 65.9602 180.452 65.6628 180.295 65.4008C180.138 65.1388 179.917 64.9207 179.653 64.7669Z" fill="#F3DA99"/>
<path d="M316.848 68.7565C316.756 67.6929 316.579 66.6385 316.319 65.6032C316.158 64.3299 315.827 63.0838 315.335 61.8982C315.26 61.6848 315.109 61.507 314.909 61.3996C314.71 61.2921 314.478 61.2628 314.258 61.3174C314.107 61.3688 313.972 61.4559 313.862 61.5712C313.753 61.6865 313.673 61.8266 313.629 61.9795C312.326 62.1246 310.876 63.5126 310.108 64.3024C309.066 65.3824 308.235 66.6467 307.657 68.0306H307.617C307.47 67.9724 307.312 67.9473 307.154 67.9572C306.997 67.967 306.843 68.0115 306.705 68.0875C306.567 68.1635 306.447 68.269 306.354 68.3966C306.261 68.5242 306.198 68.6706 306.169 68.8255C306.14 68.9803 306.145 69.1397 306.185 69.2922C306.224 69.4447 306.297 69.5866 306.398 69.7076C306.5 69.8287 306.626 69.9259 306.769 69.9924C306.913 70.0589 307.069 70.0929 307.227 70.0921C307.326 70.3058 307.503 70.474 307.721 70.5625L308.187 70.9806C308.891 71.6311 309.619 72.2582 310.358 72.868C311.816 74.0551 313.337 75.162 314.916 76.1839C315.032 76.2497 315.161 76.2884 315.294 76.297C315.427 76.3056 315.56 76.2839 315.684 76.2335C315.807 76.1832 315.917 76.1055 316.006 76.0064C316.095 75.9072 316.16 75.7892 316.196 75.6613C316.827 73.4174 317.048 71.0785 316.848 68.7565Z" fill="#F3DA99"/>
<path d="M29.4025 214.825C27.0742 222.374 24.1639 230.505 27.0742 238.054C28.8205 243.28 37.5516 242.7 41.044 238.054C46.2827 231.085 47.4468 223.536 50.3572 215.986C50.3572 221.213 52.1034 227.601 56.76 230.505C58.9894 232.043 61.1198 232.421 63.0406 231.98C64.1 228.744 64.879 225.424 65.3689 222.055C66.4632 213.553 65.5959 205.185 64.2397 196.77C63.2734 190.772 62.7903 182.647 56.8415 179.215C49.3211 174.871 42.2489 181.712 37.3129 186.765C31.0998 193.108 25.8095 200.29 21.5969 208.1C21.4713 208.246 21.3547 208.399 21.2477 208.559C17.4559 214.202 14.8556 220.557 13.605 227.235C13.8163 227.374 14.0382 227.496 14.2686 227.601C21.2535 230.505 27.0742 221.794 29.4025 214.825Z" fill="#F3DA99"/>
<path d="M368.245 228.454C366.886 226.997 365.084 226.023 363.117 225.684C364.163 224.762 365.302 223.95 366.517 223.263C367.413 222.758 366.779 221.492 365.841 221.672C362.029 222.409 357.972 223.222 354.118 222.287C351.109 221.561 348.298 219.773 347.081 216.852C347.013 216.737 346.919 216.64 346.808 216.567C346.696 216.494 346.569 216.447 346.437 216.431C346.304 216.414 346.17 216.427 346.044 216.47C345.917 216.513 345.802 216.584 345.707 216.677C344.351 218.315 345.015 220.226 345.707 222.008C346.092 222.826 346.328 223.705 346.406 224.604C346.406 225.818 345.405 226.346 344.456 226.892C339.181 229.869 334.141 233.243 329.38 236.985C327.44 238.534 325.535 240.129 323.664 241.77L306.243 218.118L296.604 205.017C295.818 203.942 295.032 202.862 294.235 201.794C293.675 200.97 292.992 200.238 292.209 199.622C290.195 198.164 287.71 198.907 285.492 199.355C275.314 201.421 265.007 202.789 254.642 203.449C244.349 204.106 234.023 204.075 223.734 203.356C213.382 202.635 203.093 201.209 192.936 199.087L191.097 198.687C190.713 198.506 190.293 198.414 189.869 198.42L189.141 198.257C189.025 198.23 188.906 198.227 188.789 198.247C188.672 198.268 188.56 198.313 188.461 198.378C188.362 198.443 188.277 198.528 188.212 198.627C188.147 198.726 188.102 198.837 188.082 198.954C178.952 204.047 170.209 209.802 161.923 216.172C153.832 222.421 145.555 229.424 140.171 238.24C134.787 247.055 136.143 256.736 144.246 263.211C147.697 265.987 151.597 267.827 155.567 269.721C157.703 270.737 159.764 271.84 161.813 273.019C162.866 273.6 163.961 274.122 165.037 274.662C164.037 275.786 163.467 277.225 163.425 278.728C163.344 278.809 163.274 278.89 163.186 278.966C162.168 279.889 163.064 281.509 164.188 281.666C164.322 281.908 164.472 282.14 164.636 282.363C164.769 282.537 164.928 282.689 165.107 282.816C164.968 283.292 164.822 283.762 164.694 284.239C164.112 286.318 166.72 287.415 168.14 286.132L169.444 284.97C169.304 286.045 170.649 287.171 171.621 286.393C172.977 285.357 173.88 283.838 174.141 282.154C175.98 280.615 177.178 278.447 177.5 276.074C178.14 271.945 176.202 269.215 173.838 266.091C171.708 263.263 168.501 260.191 172.197 257.264C174.025 255.812 176.207 254.976 178.408 254.146C178.687 267.16 179.682 280.149 181.388 293.054C168.582 288.693 155.666 295.754 143.326 300.522C142.843 300.597 142.366 300.685 141.894 300.801C139.537 301.42 137.237 302.24 135.02 303.251H134.985C134.665 303.328 134.361 303.462 134.089 303.646C128.955 305.075 124.013 306.265 118.669 306.742C117.9 306.808 117.154 307.044 116.487 307.433C110.823 307.752 105.154 308.06 99.4842 308.304C99.2267 308.315 98.9701 308.342 98.7159 308.385C96.1318 308.063 93.5684 307.594 91.0383 306.98C86.1256 305.615 81.3002 303.873 77.15 300.911C72.2315 297.427 68.6634 292.247 66.2361 286.788C63.6168 280.882 62.1034 274.465 60.9392 268.135C59.5481 260.586 58.0289 252.369 59.4841 244.709C60.2873 240.353 61.7541 236.184 63.0522 231.968C61.1313 232.409 58.9777 232.032 56.7716 230.493C52.115 227.589 50.3688 221.201 50.3688 215.975C47.4584 223.524 46.2943 231.074 41.0556 238.042C37.5631 242.688 28.832 243.269 27.0858 238.042C24.1754 230.493 27.0858 222.363 29.4141 214.813C27.0858 221.782 21.2651 230.493 14.2802 227.589C14.0497 227.485 13.8279 227.362 13.6166 227.223C13.57 227.479 13.5177 227.74 13.4711 227.996C13.4263 228.243 13.401 228.494 13.3954 228.745C9.46641 242.194 9.90297 256.619 13.2732 270.133C15.1342 277.445 17.7784 284.535 21.1603 291.283C24.5207 298.156 28.6528 304.626 33.477 310.568C38.0896 316.244 43.7187 321.015 50.0777 324.639C56.2411 328.042 62.9294 330.397 69.8683 331.608C84.4201 334.21 99.589 332.189 113.227 326.538C119.09 324.061 124.671 320.966 129.874 317.305C130.012 317.41 130.177 317.475 130.349 317.492C130.522 317.51 130.696 317.479 130.852 317.404C132.91 316.354 134.888 315.156 136.772 313.821C136.968 313.699 137.109 313.507 137.168 313.285C137.226 313.062 137.197 312.826 137.086 312.624C136.991 312.476 136.856 312.357 136.696 312.282L138.035 311.265C140.141 310.293 142.1 309.033 143.856 307.52C144.601 306.863 145.311 306.19 146.021 305.522C147.302 304.678 148.611 303.882 149.95 303.135C153.227 302.043 156.527 301.027 159.735 300.011C165.916 298.048 173.221 295.702 178.943 300.086C179.425 300.502 180.002 300.793 180.623 300.933C181.245 301.074 181.891 301.061 182.505 300.894C185.911 322.929 191.368 344.601 198.804 365.627C202.296 375.54 206.341 385.214 210.783 394.738C205.577 396.336 201.056 399.623 197.936 404.076L197.907 404.134L197.366 404.593C197.262 404.708 197.189 404.848 197.155 404.999C197.12 405.15 197.125 405.307 197.168 405.456C197.211 405.604 197.291 405.74 197.401 405.849C197.511 405.958 197.647 406.037 197.797 406.08C197.824 406.298 197.922 406.501 198.075 406.659C198.228 406.818 198.429 406.922 198.646 406.957L200.136 407.131C200.338 407.245 200.513 407.402 200.649 407.59C200.769 407.785 200.96 407.927 201.182 407.986C201.404 408.044 201.641 408.015 201.842 407.903C202.099 407.722 202.369 407.561 202.651 407.421C203.088 407.473 203.53 407.514 203.967 407.555C204.801 407.854 205.698 407.94 206.574 407.804C209.865 408.091 213.163 408.3 216.469 408.432C219.473 408.544 222.477 408.586 225.48 408.559C226.912 408.559 228.338 408.525 229.77 408.478C230.992 408.443 232.546 408.623 233.676 408.083C234.805 407.543 235.02 406.376 234.892 405.255C234.735 403.85 234.531 402.45 234.357 401.051C233.99 398.217 233.647 395.377 233.344 392.537C233.158 390.795 232.989 389.053 232.849 387.311C233.051 387.287 233.238 387.189 233.373 387.037C233.508 386.885 233.583 386.689 233.582 386.486C234.009 376.347 234.432 366.205 234.851 356.062C234.863 355.904 234.825 355.747 234.743 355.611C234.66 355.476 234.537 355.37 234.392 355.307C234.566 352.92 234.758 350.534 234.974 348.147C235.179 346.006 235.404 343.863 235.649 341.718C235.754 340.766 235.87 339.814 235.986 338.861C236.103 337.909 236.12 336.834 236.633 336.039C237.494 334.697 239.229 335.22 240.48 335.592C241.811 336.074 243.188 336.419 244.589 336.62C246.397 350.807 247.299 365.094 247.29 379.396C247.29 386.682 247.046 393.966 246.557 401.248C246.452 402.839 246.132 404.535 246.307 406.126C246.464 407.607 247.337 408.664 248.879 408.792C250.659 408.856 252.44 408.831 254.217 408.716L259.706 408.612L284.566 408.135C284.72 408.134 284.87 408.093 285.003 408.016C285.136 407.939 285.246 407.829 285.322 407.696C285.399 407.563 285.439 407.413 285.439 407.26C285.439 407.106 285.399 406.956 285.323 406.823C282.702 402.668 279.301 399.057 275.306 396.19C274.351 395.511 273.344 394.924 272.395 394.274C271.987 394.039 271.644 393.706 271.4 393.304C271.175 392.691 271.195 392.015 271.458 391.416C272.267 388.739 273.204 386.103 274.066 383.437C274.189 383.339 274.285 383.211 274.345 383.066C278.641 372.317 282.937 361.579 286.854 350.667C290.807 339.874 294.192 328.881 296.994 317.735C299.769 306.641 301.593 295.333 302.448 283.931C302.863 278.069 302.991 272.2 302.832 266.323C305.142 268.268 307.735 269.852 310.521 271.021C313.349 272.33 316.35 273.23 319.433 273.693C322.365 274.17 325.367 273.971 328.21 273.112C331.067 272.138 333.556 270.314 335.341 267.885C339.066 262.944 339.829 256.503 342.599 251.074C345.401 245.63 349.624 241.041 354.823 237.792C357.677 235.992 360.787 234.633 364.049 233.762C364.863 233.547 365.795 233.489 366.575 233.182C367.355 232.874 367.518 231.927 367.46 231.23C367.422 230.799 367.291 230.381 367.075 230.005L367.657 229.953C367.828 229.944 367.991 229.887 368.13 229.787C368.268 229.688 368.374 229.551 368.436 229.393C368.498 229.235 368.513 229.062 368.479 228.896C368.446 228.729 368.364 228.576 368.245 228.454Z" fill="#F5B100"/>
<path d="M284.31 263.449C281.243 233.675 253.786 200.731 226.86 226.573C203.268 248.774 198.123 313.507 237.832 315.725C265.696 317.392 287.465 290.197 284.31 263.449Z" fill="#F3DA99"/>
<path d="M248.408 124.953L248.286 124.872C248.141 124.781 247.979 124.72 247.81 124.694C247.64 124.668 247.468 124.677 247.302 124.721C247.104 124.621 246.895 124.547 246.679 124.5C245.893 124.326 245.096 124.215 244.304 124.076L239.549 123.228C239.397 123.204 239.242 123.213 239.094 123.255C238.946 123.297 238.809 123.371 238.693 123.472C237.898 123.655 237.161 124.03 236.545 124.563C235.929 125.097 235.453 125.773 235.16 126.532C234.86 127.158 234.806 127.873 235.009 128.536C235.463 129.877 237.529 129.935 237.867 128.466C237.913 128.263 237.942 128.054 237.989 127.851C237.989 127.804 238.146 127.409 238.053 127.624C238.162 127.355 238.326 127.111 238.536 126.91C238.854 128.364 239.644 129.672 240.783 130.632C241.055 130.885 241.416 131.022 241.788 131.013C242.16 131.004 242.513 130.851 242.774 130.586C243.374 129.901 243.776 129.066 243.938 128.17C243.979 127.926 243.979 127.677 243.938 127.433C244.452 127.606 244.914 127.906 245.282 128.304C245.568 128.492 245.903 128.593 246.246 128.593C246.588 128.593 246.923 128.492 247.209 128.304C247.291 128.331 247.374 128.352 247.459 128.367C247.794 128.442 248.144 128.383 248.436 128.204C248.728 128.025 248.94 127.74 249.025 127.409C249.096 127.189 249.135 126.961 249.141 126.73C249.225 126.394 249.199 126.041 249.067 125.721C248.935 125.401 248.704 125.132 248.408 124.953Z" fill="#C89D64"/>
<path d="M220.294 83.5127C219.485 78.4023 220.206 73.1004 219.229 67.9668C218.728 65.3361 218.117 62.7403 217.68 60.1212C217.156 56.9737 216.761 54.6683 214.572 52.1944C211.865 49.1282 205.724 50.8413 205.119 54.9296C204.345 60.1561 207.744 65.4523 209.63 70.2664C211.551 75.1793 215.102 79.2502 217.226 84.0063C217.861 85.4349 220.602 85.4349 220.294 83.5127Z" fill="#F3DA99"/>
<path d="M236.516 88.501C237.098 85.4986 238.466 82.8854 239.24 79.9469C240.003 77.0531 240.596 74.1175 241.016 71.1548C241.866 65.0689 242.989 58.768 242.843 52.6124C242.797 51.1291 242.215 49.7125 241.204 48.6239C240.193 47.5353 238.822 46.8481 237.343 46.6891C234.595 46.4277 231.068 48.1873 230.678 51.2651C229.898 57.4614 230.189 63.7564 230.416 69.9818C230.527 72.9957 230.882 76.0735 231.295 79.0642C231.726 82.1595 232.861 84.9992 233.152 88.1235C233.327 89.9295 236.12 90.4812 236.516 88.4952V88.501Z" fill="#F3DA99"/>
<path d="M255.637 82.6357C261.871 75.7426 266.196 68.1177 269.974 59.6856C271.481 56.3349 270.457 52.4557 266.807 51.0271C263.07 49.5637 259.904 51.782 258.577 55.2199C255.259 63.832 252.96 72.1653 252.459 81.4104C252.372 83.019 254.613 83.7623 255.637 82.6357Z" fill="#F3DA99"/>
<path d="M300.515 243.553C303.333 242.52 306.336 241.747 308.705 239.808C311.074 237.868 313.88 235.028 313.49 231.811C313.245 229.773 311.278 228.53 309.38 229.587C307.052 230.894 306.231 233.501 304.724 235.557C303.216 237.612 301.872 240.005 299.613 241.521C298.6 242.2 299.281 244.006 300.533 243.553H300.515Z" fill="#F3DA99"/>
<path d="M11.0032 257.659C14.3443 262.026 19.5655 264.628 24.909 265.656C30.4852 266.742 37.0569 266.945 42.1151 264.076C45.0255 262.421 43.7158 257.067 40.1651 257.525C35.3863 258.147 30.9858 259.541 26.0906 259.053C21.3991 258.582 17.016 256.968 12.569 255.522C11.4048 255.15 10.2407 256.683 11.0032 257.659Z" fill="#F3DA99"/>
<path d="M27.3595 287.003C29.8275 287.317 32.2722 287.909 34.7693 287.955C37.6135 287.952 40.4504 287.668 43.2385 287.108C48.7857 286.091 54.3852 284.5 59.2921 281.672C61.1198 280.615 62.2374 277.938 61.4749 275.911C61.1708 275.098 60.7101 274.352 60.1186 273.716C58.6111 271.974 55.8113 272.09 53.9661 273.077C49.6646 275.4 45.5784 277.979 41.0266 279.79C36.5854 281.533 31.923 283.623 27.3071 284.866C26.2943 285.139 26.2303 286.887 27.3595 287.032V287.003Z" fill="#F3DA99"/>
<path d="M44.4899 317.978C51.1663 319.361 57.8776 313.861 59.7112 307.723C60.497 305.098 56.7601 303.002 54.9673 305.127C53.335 307.158 51.5507 309.062 49.6297 310.824C47.767 312.45 45.6192 313.728 43.6983 315.272C42.7379 316.05 43.3782 317.752 44.4899 317.978Z" fill="#F3DA99"/>
<path d="M70.8987 323.942C76.9464 320.011 83.454 315.569 86.0326 308.466C87.6333 304.047 81.0035 302.032 78.7275 305.603C75.3457 310.911 73.6169 317.055 69.0768 321.689C67.9126 322.851 69.5017 324.86 70.9045 323.942H70.8987Z" fill="#F3DA99"/>
<path d="M93.7858 315.563C93.2972 317.786 92.5142 319.934 91.4575 321.951C90.369 324.186 88.9429 326.016 89.5192 328.635C89.7098 329.261 90.1011 329.809 90.633 330.192C91.1649 330.576 91.8082 330.776 92.4645 330.76C99.2515 330.069 99.3446 320.377 97.9884 315.499C97.4063 313.484 94.1816 313.466 93.78 315.598L93.7858 315.563Z" fill="#F3DA99"/>
<path d="M115.823 317.258C116.987 314.744 118.92 312.508 119.496 309.761C120.264 306.091 114.997 304.831 113.867 308.362C113.023 311.022 113.6 313.908 113.39 316.666C113.291 317.944 115.293 318.408 115.823 317.247V317.258Z" fill="#F3DA99"/>
<path d="M128.635 310.121L128.582 311.207C128.576 311.754 128.652 312.298 128.809 312.822C128.977 313.361 129.315 313.832 129.774 314.163C130.233 314.494 130.787 314.667 131.353 314.657C131.917 314.631 132.459 314.428 132.9 314.077C133.341 313.725 133.66 313.243 133.809 312.7C134.001 311.811 134.048 310.897 133.949 309.994C133.955 309.636 133.888 309.281 133.753 308.95C133.618 308.619 133.417 308.319 133.162 308.067C132.908 307.815 132.605 307.617 132.272 307.485C131.939 307.353 131.583 307.289 131.225 307.298C130.867 307.307 130.514 307.387 130.188 307.535C129.862 307.683 129.569 307.895 129.327 308.159C129.085 308.423 128.899 308.733 128.78 309.07C128.661 309.407 128.612 309.765 128.635 310.121Z" fill="#F3DA99"/>
<path d="M179.63 140.888C172.331 137.88 164.124 137.769 156.347 138.164C148.006 138.582 139.543 139.361 131.353 141.068C127.802 141.8 125.887 146.178 126.865 149.424C127.959 153.048 131.708 154.767 135.247 153.902C142.651 152.084 149.973 150.133 157.5 148.838C164.811 147.584 172.442 146.829 179.327 143.954C180.492 143.472 181.126 141.503 179.648 140.899L179.63 140.888Z" fill="#F3DA99"/>
<path d="M177.762 169.18C173.617 168.489 169.549 167.624 165.352 167.293C161.033 166.971 156.697 166.918 152.372 167.136C143.571 167.533 134.814 168.605 126.178 170.342C122.837 171.01 121.05 175.156 121.964 178.187C122.988 181.579 126.516 183.228 129.834 182.392C137.628 180.441 145.515 178.64 153.431 177.247C157.273 176.573 161.132 176.021 164.968 175.307C169.1 174.54 173.198 173.513 177.354 172.868C179.228 172.572 180.061 169.558 177.762 169.18Z" fill="#F3DA99"/>
<path d="M299.497 140.847C303.402 141.079 307.221 142.235 311.068 142.903C314.805 143.553 318.511 144.347 322.186 145.284C329.619 147.171 337.093 148.989 344.444 151.155C353.531 153.826 357.25 139.146 348.012 136.892C339.951 134.924 331.761 133.722 323.443 133.931C319.431 134.035 315.426 134.3 311.429 134.726C307.355 135.162 303.466 136.416 299.398 137.049C297.005 137.415 296.988 140.714 299.497 140.859V140.847Z" fill="#F3DA99"/>
<path d="M300.23 169.163C303.612 171.649 307.943 172.647 311.918 173.884C316.092 175.162 320.277 176.347 324.497 177.467C333.106 179.75 342.023 180.981 350.801 182.438C354.631 183.077 358.536 181.184 359.532 177.212C360.399 173.728 358.158 169.082 354.293 168.501C345.236 167.177 336.15 165.702 327.011 165.063C322.704 164.761 318.391 164.651 314.078 164.593C309.881 164.535 305.166 164.012 301.138 165.388C299.706 165.87 298.81 168.1 300.236 169.163H300.23Z" fill="#F3DA99"/>
<path d="M207.232 352.764C205.556 349.506 201.993 347.868 198.856 346.376C198.385 346.124 197.866 345.973 197.333 345.935C196.799 345.897 196.264 345.972 195.762 346.154C195.26 346.337 194.802 346.623 194.418 346.995C194.034 347.366 193.734 347.814 193.536 348.31C192.651 350.557 193.972 352.59 196.114 353.35C199.426 354.512 203 355.818 206.504 354.703C206.692 354.643 206.864 354.541 207.007 354.405C207.149 354.27 207.26 354.104 207.33 353.92C207.4 353.736 207.427 353.538 207.41 353.342C207.393 353.146 207.332 352.956 207.232 352.787V352.764Z" fill="#F3DA99"/>
<path d="M221.202 371.643C222.532 372.552 223.974 373.285 225.492 373.826C227.319 374.459 229.345 374.361 231.266 374.448C236.848 374.692 236.72 365.487 231.056 365.737C229.2 365.818 227.25 365.737 225.474 366.347C223.933 366.9 222.471 367.654 221.126 368.588C220.869 368.755 220.659 368.985 220.516 369.256C220.373 369.527 220.301 369.83 220.309 370.137C220.317 370.443 220.403 370.742 220.559 371.006C220.715 371.269 220.937 371.489 221.202 371.643Z" fill="#F3DA99"/>
<path d="M260.55 351.178C259.788 348.908 257.797 348.373 255.707 347.653C253.507 346.898 251.173 345.911 248.885 345.516C243.408 344.558 241.243 352.717 246.772 353.972C249.619 354.616 252.873 354.703 255.795 354.79C257.704 354.843 261.516 354.047 260.55 351.178Z" fill="#F3DA99"/>
<path d="M261.423 370.731C262.459 372.595 264.526 373.635 266.342 374.639C268.726 375.912 271.311 376.768 273.984 377.171C276.569 377.566 279.188 376.347 279.857 373.652C280.469 371.207 278.903 368.309 276.33 367.793C273.571 367.241 270.3 366.951 267.535 367.473C265.399 367.88 263.239 368.054 261.545 369.529C261.397 369.689 261.305 369.893 261.283 370.11C261.261 370.326 261.31 370.545 261.423 370.731Z" fill="#F3DA99"/>
<path d="M220.41 385.365C219.386 384.512 217.954 384.663 216.801 384.006C215.206 383.095 214.153 381.759 212.203 381.504C210.404 381.271 208.227 382.363 208.431 384.517C208.827 388.658 212.75 390.121 216.435 389.355C217.695 389.125 218.872 388.566 219.846 387.735C220.364 387.27 221.179 385.993 220.428 385.365H220.41Z" fill="#F3DA99"/>
<path d="M257.349 386.486C255.859 385.383 254.438 385.179 252.611 385.011C250.711 384.753 248.782 384.81 246.9 385.179C246.131 385.416 245.474 385.923 245.051 386.607C244.628 387.29 244.468 388.104 244.601 388.896C244.904 390.638 246.249 391.585 247.954 391.707C249.659 391.829 251.592 391.318 253.239 390.882C254.886 390.447 256.237 390.023 257.401 388.797C257.954 388.217 258.065 387.014 257.349 386.474V386.486Z" fill="#F3DA99"/>
<path d="M322.57 254.587C319.211 258.373 317.809 263.815 316.202 268.524C314.596 273.234 322.238 275.11 323.618 270.371C324.939 265.847 326.837 260.812 326.301 256.045C326.103 254.302 323.909 253.1 322.57 254.604V254.587Z" fill="#F3DA99"/>
<path d="M170.212 234.843C169.537 230.818 166.207 227.874 165.253 224.14C163.722 218.089 154.153 220.911 155.94 226.956C157.447 232.125 162.343 239.819 168.804 237.514C169.336 237.331 169.78 236.955 170.046 236.459C170.311 235.963 170.379 235.386 170.235 234.843H170.212Z" fill="#F3DA99"/>
<path d="M149.473 246.556C152.418 251.986 157.558 256.457 162.034 260.632C166.271 264.581 172.604 257.799 168.198 254.175C163.239 250.11 157.971 245.528 151.935 243.199C149.944 242.433 148.64 245.029 149.473 246.556Z" fill="#F3DA99"/>
<path d="M120.689 180.342C121.894 173.414 123.332 166.561 125.136 159.773C126.883 153.112 128.739 146.451 130.957 139.935C135.483 126.932 141.632 114.549 149.257 103.077C162.645 82.9144 181.906 65.8412 204.805 57.3743C227.704 48.9074 253.117 49.8249 275.952 57.9201C298.95 66.0502 318.792 81.7994 332.826 101.648C347.186 121.974 355.626 146.631 357.483 171.381C357.594 172.897 357.733 174.407 357.861 175.923C357.989 177.438 358.35 178.948 358.368 180.452C358.368 181.649 360.242 181.614 360.23 180.406C360.23 178.832 360.51 177.247 360.521 175.667C360.533 174.088 360.475 172.38 360.364 170.743C360.143 167.595 359.823 164.448 359.421 161.312C358.62 154.952 357.405 148.652 355.783 142.45C352.518 130.078 347.637 118.187 341.266 107.084C334.939 96.0503 327.075 85.7193 317.617 77.1304C308.266 68.6477 297.603 61.7291 286.039 56.6426C274.428 51.5117 262.07 48.2614 249.432 47.0142C224.122 44.3761 198.732 51.2051 178.181 66.178C167.822 73.6034 158.658 82.5603 151.004 92.7402C142.75 103.769 136.123 115.921 131.324 128.826C128.857 135.468 126.764 142.242 125.055 149.117C123.372 156.116 122.138 163.215 121.359 170.371C120.951 173.681 120.625 177.001 120.381 180.33C120.381 180.51 120.66 180.539 120.689 180.365V180.342Z" fill="#2D2615"/>
<path d="M160.916 84.1108C160.813 82.6925 160.587 81.2858 160.241 79.9064C159.973 78.4894 159.746 77.0724 159.566 75.6439C159.199 72.8216 158.868 69.9935 158.687 67.1479C158.309 61.3407 158.105 55.5916 159.194 49.8541C159.816 46.6716 160.678 43.5404 161.772 40.487L161.499 40.6554C163.874 41.231 166.191 42.0261 168.419 43.0306C170.655 44.0352 172.884 45.005 175.032 46.2013C179.26 48.4659 183.243 51.1592 186.918 54.2385C189.017 56.0421 190.994 57.982 192.837 60.0457C193.112 60.3017 193.476 60.4396 193.852 60.4298C194.228 60.4201 194.585 60.2633 194.846 59.9934C195.098 59.7174 195.233 59.3547 195.224 58.9812C195.214 58.6077 195.06 58.2525 194.793 57.99C188.212 50.3305 179.562 44.7205 169.875 41.8285C167.155 41.108 164.393 40.563 161.603 40.1967C161.546 40.184 161.485 40.1938 161.434 40.224C161.383 40.2542 161.346 40.3026 161.33 40.3593C160.353 43.1334 159.548 45.9649 158.92 48.8378C158.291 51.7066 157.651 54.5521 157.273 57.4615C156.806 60.3436 156.533 63.2538 156.458 66.1723C156.471 69.1076 156.712 72.0373 157.18 74.9354C157.441 76.5904 157.826 78.2223 158.245 79.8425C158.561 81.4443 159.115 82.9903 159.886 84.4302C159.959 84.519 160.056 84.5846 160.165 84.6185C160.275 84.6525 160.392 84.6534 160.502 84.6212C160.612 84.5889 160.71 84.5249 160.784 84.4372C160.858 84.3495 160.904 84.242 160.916 84.1282V84.1108Z" fill="#2D2615"/>
<path d="M170.422 75.0109C170.494 74.3927 170.483 73.7676 170.387 73.1526C170.346 72.508 170.265 71.8634 170.212 71.213C170.096 69.8695 170.032 68.5145 170.02 67.1479C170.02 65.8413 170.02 64.5347 170.131 63.2338C170.195 62.2757 170.131 61.1723 170.62 60.2896C171.202 59.163 172.436 59.6392 173.338 60.0979C174.502 60.6787 175.666 61.3581 176.83 61.9911C177.994 62.6241 179.159 63.2803 180.358 63.9307L182.104 64.9063L183.105 65.487C183.437 65.6671 183.961 65.8471 184.141 66.2071C184.229 66.3492 184.353 66.4658 184.5 66.5452C184.647 66.6246 184.812 66.664 184.98 66.6595C185.147 66.655 185.31 66.6067 185.453 66.5195C185.595 66.4323 185.712 66.3092 185.792 66.1626C185.872 66.016 185.912 65.851 185.908 65.6841C185.904 65.5172 185.856 65.3544 185.769 65.2119C185.682 65.0693 185.559 64.9521 185.412 64.872C185.265 64.7919 185.1 64.7516 184.933 64.7553C184.421 64.796 183.716 64.2153 183.286 63.9772L181.539 63.0016C180.492 62.4208 179.438 61.8401 178.402 61.2594L175.276 59.465C174.355 58.8313 173.334 58.3563 172.255 58.0596C170.317 57.7054 169.065 59.1398 168.763 60.9052C168.379 63.0364 168.565 65.3302 168.71 67.4731C168.798 68.7797 168.937 70.0747 169.124 71.3697C169.211 72.0143 169.304 72.6589 169.455 73.2919C169.552 73.9006 169.749 74.4892 170.038 75.0341C170.06 75.0694 170.092 75.0974 170.13 75.1148C170.168 75.1322 170.21 75.1382 170.252 75.132C170.293 75.1259 170.332 75.1079 170.363 75.0801C170.394 75.0524 170.417 75.0163 170.428 74.976L170.422 75.0109Z" fill="#2D2615"/>
<path d="M295.294 64.1513C300.422 57.8969 306.144 52.2813 313.152 48.1698C314.136 47.5891 315.143 47.0432 316.161 46.5264C317.18 46.0095 318.094 45.1733 319.142 44.639L317.977 44.5171C321.889 48.8551 324.229 54.4939 325.434 60.1617C326.664 65.8113 326.602 71.6647 325.253 77.2872C324.461 80.4492 323.174 83.4672 321.441 86.2303C320.376 87.8911 323.321 89.4649 324.083 87.6879C325.385 84.8604 326.376 81.9009 327.04 78.8609C327.664 75.9173 328.028 72.9248 328.129 69.9178C328.271 63.8193 327.079 57.7632 324.636 52.171C323.223 49.0454 321.493 46.0721 319.473 43.2976C319.357 43.1152 319.185 42.9753 318.983 42.8989C318.78 42.8225 318.558 42.8136 318.35 42.8737C317.361 43.2453 316.289 43.3557 315.323 43.8202C314.357 44.2848 313.437 44.8133 312.523 45.3475C310.717 46.3998 308.969 47.5474 307.285 48.7854C303.889 51.28 300.767 54.1259 297.972 57.2755C296.41 59.0798 295.019 61.0237 293.816 63.0827C293.286 63.9712 294.631 64.9991 295.312 64.1745L295.294 64.1513Z" fill="#2D2615"/>
<path d="M305.329 69.5346C306.197 68.7237 307.006 67.8524 307.75 66.9272C308.559 66.0503 309.415 65.185 310.282 64.3836C311.102 63.5517 312.005 62.8063 312.977 62.1595C313.336 61.9053 313.766 61.7711 314.206 61.7762C314.52 61.8256 314.84 61.8256 315.154 61.7762C315.308 61.7405 315.455 61.6817 315.591 61.602C315.754 61.5168 315.707 61.5284 315.451 61.6368L314.869 61.422C315.824 62.1421 316.033 63.4138 316.202 64.523C316.457 66.0588 316.591 67.6121 316.604 69.1688C316.604 72.113 316.394 75.4057 315.067 78.077C314.433 79.3372 316.58 79.9992 316.767 78.7449C317.128 76.2884 317.727 73.8958 317.931 71.4104C318.1 68.9835 317.983 66.5452 317.582 64.1455C317.462 63.1507 317.171 62.184 316.72 61.2884C316.617 61.0845 316.497 60.8902 316.359 60.7077C316.312 60.6246 316.251 60.55 316.179 60.487C315.969 60.3767 316.179 60.6554 316.179 60.5683C316.146 60.2456 316.017 59.9399 315.81 59.6898C315.603 59.4397 315.326 59.2564 315.015 59.163C312.582 58.3383 310.323 60.9516 308.909 62.5428C308.023 63.5268 307.206 64.5707 306.464 65.667C305.655 66.7151 305.03 67.8935 304.619 69.1514C304.601 69.2376 304.612 69.3271 304.649 69.4068C304.687 69.4866 304.749 69.5523 304.826 69.5945C304.903 69.6367 304.992 69.653 305.08 69.6412C305.167 69.6294 305.248 69.59 305.311 69.5288L305.329 69.5346Z" fill="#2D2615"/>
<path d="M204.962 126.248V126.213L205.544 127.45V127.374C205.37 126.679 205.014 126.042 204.514 125.528C204.112 124.942 203.567 124.468 202.931 124.151L201.598 123.629C200.639 123.393 199.634 123.417 198.687 123.698C198.178 123.831 197.697 124.053 197.267 124.355C196.473 124.845 195.82 125.531 195.369 126.347C194.995 126.959 194.794 127.662 194.787 128.379C194.64 129.097 194.691 129.842 194.933 130.534C195.207 131.432 195.71 132.245 196.394 132.891L196.458 132.944L197.593 133.774C198.032 133.992 198.49 134.171 198.961 134.308C199.677 134.519 200.437 134.533 201.161 134.349C201.889 134.302 202.591 134.059 203.193 133.646L204.287 132.764C204.946 132.074 205.416 131.226 205.649 130.301V130.232L204.357 132.554L204.392 132.508L205.177 131.445C205.541 130.862 205.742 130.192 205.759 129.506C205.87 129.052 205.858 128.577 205.725 128.129C205.64 127.446 205.377 126.798 204.962 126.248Z" fill="#2D2615"/>
<path d="M280.079 131.207C286.254 131.207 286.016 121.637 279.84 121.637C273.664 121.637 273.903 131.207 280.079 131.207Z" fill="#2D2615"/>
<path d="M119.31 182.444C133.646 188.571 148.443 194.256 163.437 198.559C178.67 202.926 194.56 205.278 210.323 206.689C226.211 208.165 242.199 208.239 258.1 206.91C273.816 205.534 289.607 202.485 304.939 198.698C322.151 194.448 339.281 189.192 355.242 181.428C356.604 180.766 355.574 178.524 354.148 179.012C339.474 184.198 324.724 189.331 309.52 192.798C294.124 196.283 278.717 198.228 262.995 199.36C232.145 201.59 201.114 200.522 170.649 194.866C161.952 193.251 153.32 191.631 144.694 189.72C136.068 187.81 127.773 185.017 119.508 181.939C119.217 181.834 119.025 182.322 119.31 182.444Z" fill="#2D2615"/>
<path d="M247.576 124.331C246.176 124.17 244.798 123.856 243.466 123.396C242.236 123.014 240.974 122.744 239.694 122.589C237.442 122.369 235.137 122.961 233.763 124.866C232.599 126.468 232.483 128.797 234.054 130.185C234.415 130.521 234.839 130.782 235.301 130.953C235.764 131.124 236.256 131.201 236.748 131.181C237.241 131.161 237.725 131.043 238.172 130.835C238.619 130.627 239.02 130.332 239.352 129.968C239.683 129.604 239.939 129.177 240.105 128.714C240.27 128.25 240.342 127.758 240.315 127.267C240.289 126.776 240.164 126.294 239.95 125.851C239.735 125.408 239.435 125.012 239.066 124.686C238.971 124.598 238.857 124.532 238.733 124.495C238.609 124.457 238.478 124.447 238.35 124.467C238.222 124.486 238.1 124.534 237.993 124.607C237.886 124.68 237.797 124.777 237.733 124.889C236.353 127.473 237.855 131.277 240.923 131.683C243.99 132.09 246.545 128.478 245.061 125.76C244.988 125.645 244.886 125.551 244.765 125.487C244.645 125.423 244.51 125.391 244.373 125.395C244.237 125.398 244.103 125.437 243.986 125.507C243.869 125.577 243.772 125.676 243.705 125.795C242.663 128.17 245.113 131.294 247.721 130.232C249.898 129.343 250.294 126.045 248.472 124.61C248.385 124.538 248.284 124.485 248.176 124.453C248.068 124.421 247.954 124.412 247.842 124.426C247.73 124.44 247.622 124.476 247.524 124.534C247.427 124.591 247.342 124.667 247.276 124.758C247.209 124.849 247.162 124.953 247.137 125.063C247.112 125.173 247.11 125.287 247.131 125.398C247.152 125.508 247.196 125.614 247.259 125.707C247.323 125.8 247.405 125.88 247.5 125.94C248.425 126.521 248.164 128.216 247.279 128.716C246.086 129.384 244.572 127.717 245.084 126.556L243.722 126.585C244.625 128.234 242.739 130.504 240.958 130.069C239.176 129.633 238.373 127.229 239.211 125.696L237.878 125.899C238.99 126.921 238.635 129.122 237.017 129.384C236.648 129.447 236.268 129.407 235.92 129.266C235.573 129.126 235.271 128.892 235.05 128.59C234.829 128.289 234.696 127.931 234.667 127.558C234.638 127.186 234.714 126.812 234.886 126.48C235.795 124.43 238.21 124.093 240.212 124.273C241.412 124.384 242.587 124.674 243.769 124.854C245.027 125.083 246.312 125.124 247.581 124.976C247.663 124.965 247.737 124.926 247.791 124.864C247.845 124.803 247.875 124.724 247.875 124.642C247.875 124.56 247.845 124.482 247.791 124.42C247.737 124.359 247.663 124.319 247.581 124.308L247.576 124.331Z" fill="#2D2615"/>
<path d="M241.778 130.22C241.325 130.786 241.023 131.457 240.899 132.171C240.655 133.007 240.457 133.867 240.265 134.715C239.892 136.376 239.624 138.06 239.415 139.75C239.205 141.439 239.054 143.025 239.002 144.674C238.949 146.323 238.769 148.246 239.159 149.901C239.357 150.731 240.789 150.748 240.905 149.86C241.115 148.246 240.905 146.544 240.905 144.918C240.905 143.292 241.004 141.602 241.144 139.953C241.283 138.304 241.499 136.712 241.726 135.098C241.854 134.279 242.005 133.46 242.156 132.642C242.38 131.904 242.438 131.127 242.325 130.365C242.308 130.307 242.275 130.255 242.231 130.213C242.187 130.172 242.132 130.143 242.073 130.129C242.014 130.116 241.952 130.118 241.894 130.136C241.836 130.154 241.784 130.187 241.743 130.232L241.778 130.22Z" fill="#2D2615"/>
<path d="M230.399 136.12C228.978 138.251 229.205 141.451 229.98 143.768C230.816 146.284 232.522 148.421 234.793 149.796C239.59 152.659 246.086 151.736 249.659 147.392C251.557 145.069 252.919 141.811 252.209 138.809C251.976 137.804 250.637 138.228 250.556 139.076C250.335 141.399 249.916 143.571 248.53 145.51C247.206 147.375 245.25 148.699 243.024 149.239C240.812 149.755 238.489 149.491 236.451 148.49C234.413 147.49 232.786 145.814 231.848 143.751C231.352 142.591 231.045 141.36 230.94 140.104C230.895 138.833 230.961 137.56 231.138 136.3C231.173 135.87 230.591 135.83 230.399 136.12Z" fill="#2D2615"/>
<path d="M266.516 139.337C276.837 136.799 287.285 134.924 297.797 133.344C308.309 131.765 318.752 130.655 329.229 129.982C339.706 129.308 350.323 129.099 360.871 129.337C371.418 129.575 381.924 130.266 392.39 131.434C402.856 132.601 413.31 134.209 423.653 136.294L427.547 137.09C428.641 137.31 429.066 135.644 427.966 135.406C417.611 133.164 407.111 131.515 396.587 130.278C386.063 129.041 375.428 128.263 364.811 127.955C354.194 127.647 343.6 127.81 333.018 128.449C322.436 129.087 311.767 130.191 301.231 131.799C290.8 133.385 280.515 135.597 270.265 138.065C268.973 138.371 267.686 138.689 266.406 139.018C266.196 139.07 266.295 139.378 266.499 139.331L266.516 139.337Z" fill="#2D2615"/>
<path d="M264.334 149.117C274.642 148.042 285.009 147.328 295.358 146.794C305.707 146.259 316.109 146.056 326.482 146.12C336.854 146.184 347.244 146.538 357.599 147.189C367.954 147.839 378.368 148.803 388.7 150.057C399.031 151.312 409.264 152.856 419.474 154.703C420.749 154.93 422.018 155.168 423.286 155.406C424.381 155.609 424.806 153.925 423.705 153.722C413.449 151.829 403.143 150.233 392.786 148.937C382.429 147.64 372.077 146.658 361.732 145.992C351.375 145.315 341.006 144.939 330.626 144.866C320.246 144.792 309.821 145.042 299.351 145.615C288.926 146.196 278.53 147.078 268.169 148.362C266.889 148.524 265.603 148.675 264.322 148.832C264.153 148.832 264.159 149.117 264.322 149.093L264.334 149.117Z" fill="#2D2615"/>
<path d="M216.993 144.541C208.398 140.845 199.523 137.835 190.451 135.539C181.365 133.232 172.128 131.563 162.808 130.545C144.164 128.483 125.324 128.974 106.813 132.003C97.5141 133.511 88.332 135.663 79.3329 138.443C78.2231 138.784 77.1171 139.136 76.0151 139.5C75.0372 139.819 75.5028 141.364 76.4807 141.027C85.3123 138.022 94.3478 135.651 103.518 133.931C112.679 132.233 121.946 131.168 131.254 130.743C149.916 129.88 168.609 131.554 186.819 135.719C195.898 137.82 204.84 140.473 213.594 143.664C214.685 144.051 215.769 144.453 216.848 144.872C217.034 144.941 217.162 144.628 216.976 144.546L216.993 144.541Z" fill="#2D2615"/>
<path d="M212.261 151.562C203.309 151.345 194.355 151.387 185.399 151.689C176.47 151.991 167.54 152.537 158.664 153.617C142.709 155.557 126.859 159.163 112.098 165.69C104.041 169.195 96.4683 173.717 89.5658 179.146C88.9837 179.593 89.5658 180.574 90.1479 180.127C102.668 170.87 117.051 164.395 132.016 160.232C148.367 155.69 165.334 153.879 182.244 153.06C192.232 152.578 202.232 152.479 212.226 152.061C212.293 152.061 212.356 152.035 212.403 151.988C212.45 151.941 212.477 151.877 212.477 151.811C212.477 151.745 212.45 151.681 212.403 151.635C212.356 151.588 212.293 151.562 212.226 151.562H212.261Z" fill="#2D2615"/>
<path d="M210.69 160.644C201.514 160.627 192.353 161.359 183.297 162.833C174.25 164.231 165.305 166.225 156.522 168.803C138.953 173.954 122.127 181.354 106.463 190.818C98.6135 195.562 91.0953 200.831 83.9604 206.59C83.0873 207.293 82.2141 208.002 81.3643 208.722C80.6775 209.302 81.6903 210.243 82.3713 209.68C89.3575 203.896 96.7172 198.577 104.403 193.757C127.567 179.264 153.311 169.357 180.23 164.575C189.176 162.974 198.214 161.937 207.29 161.468C208.454 161.405 209.572 161.323 210.713 161.254C210.773 161.232 210.825 161.193 210.862 161.141C210.899 161.089 210.919 161.027 210.919 160.963C210.919 160.899 210.899 160.837 210.862 160.785C210.825 160.733 210.773 160.694 210.713 160.673L210.69 160.644Z" fill="#2D2615"/>
<path d="M187.669 201.742C183.961 202.767 180.366 204.158 176.935 205.894C173.529 207.621 170.225 209.542 167.04 211.649C160.569 215.852 154.5 220.64 148.908 225.952C143.542 231.016 137.785 236.776 135.835 244.111C133.972 251.08 137.15 258.414 142.098 263.362C145.06 266.201 148.513 268.482 152.29 270.092C156.349 271.859 160.536 273.315 164.816 274.448C164.624 273.78 164.426 273.112 164.234 272.444C161.153 276.465 159.121 281.186 158.32 286.184C158.152 287.241 159.42 288.135 160.247 287.241C163.099 284.204 166.05 281.3 168.873 278.228C169.811 277.206 168.518 275.487 167.302 276.3C163.512 278.85 161.795 284.024 163.565 288.28C163.615 288.454 163.705 288.614 163.828 288.747C163.951 288.879 164.103 288.982 164.273 289.045C164.443 289.109 164.625 289.133 164.805 289.114C164.985 289.095 165.158 289.034 165.311 288.937C169.346 286.485 172.375 282.681 173.856 278.205C174.252 276.933 172.546 276.149 171.685 277.015C170.12 278.59 168.976 280.532 168.36 282.663C167.744 284.794 167.674 287.045 168.157 289.21C168.214 289.393 168.313 289.561 168.445 289.701C168.576 289.842 168.739 289.95 168.919 290.018C169.099 290.086 169.292 290.113 169.484 290.096C169.676 290.078 169.861 290.018 170.026 289.918C172.445 288.251 174.45 286.054 175.887 283.495C177.325 280.936 178.157 278.083 178.321 275.155C178.484 272.226 177.974 269.299 176.83 266.596C175.686 263.894 173.938 261.489 171.72 259.564C170.617 258.535 169.382 257.658 168.047 256.956L168.128 260.168L173.949 257.113C175.905 256.085 177.913 255.191 179.921 254.279C180.934 253.821 181.126 252.311 180.591 251.451C180.298 250.995 179.839 250.671 179.312 250.546C178.784 250.421 178.228 250.507 177.762 250.783C175.864 251.898 173.984 253.008 172.028 254.006L166.155 257.003C164.933 257.63 165.026 259.634 166.237 260.214C167.296 260.646 168.314 261.171 169.281 261.782C170.123 262.389 170.903 263.078 171.609 263.838C173.107 265.39 174.253 267.246 174.968 269.279C175.688 271.385 175.956 273.618 175.756 275.834C175.555 278.05 174.89 280.199 173.804 282.142C172.572 284.402 170.816 286.333 168.681 287.775L170.55 288.484C170.144 286.748 170.206 284.936 170.729 283.231C171.253 281.527 172.219 279.991 173.53 278.78L171.353 277.584C170.076 281.447 167.507 284.756 164.077 286.956L165.823 287.613C165.184 285.989 165.116 284.197 165.63 282.529C166.144 280.861 167.209 279.417 168.652 278.431L167.081 276.503C164.223 279.523 161.504 282.671 158.658 285.702L160.585 286.759C161.331 282.165 163.206 277.827 166.045 274.134C166.187 273.979 166.286 273.791 166.334 273.586C166.382 273.382 166.377 273.168 166.318 272.967C166.26 272.765 166.151 272.582 166.001 272.434C165.851 272.287 165.665 272.18 165.462 272.125C158.478 270.121 151.044 268.449 145.369 263.606C142.954 261.544 140.672 258.908 139.479 255.934C138.321 252.956 138.179 249.68 139.077 246.614C139.898 243.49 141.912 240.377 143.786 237.967C146.045 235.17 148.475 232.515 151.062 230.017C156.159 224.946 161.671 220.307 167.54 216.149C170.841 213.791 174.24 211.573 177.744 209.529C179.525 208.489 181.237 207.351 183.029 206.3C184.822 205.249 186.586 204.244 188.315 203.118C188.453 203.017 188.554 202.872 188.599 202.707C188.645 202.542 188.633 202.367 188.565 202.209C188.497 202.052 188.378 201.922 188.227 201.842C188.076 201.761 187.901 201.734 187.733 201.765L187.669 201.742Z" fill="#2D2615"/>
<path d="M220.492 332.003C221.795 332.565 223.144 333.012 224.525 333.338C225.899 333.745 227.285 334.14 228.682 334.465C231.463 335.132 234.278 335.645 237.116 336.004C242.933 336.72 248.804 336.897 254.654 336.532C257.984 336.219 261.289 335.685 264.549 334.935C266.505 334.541 265.975 331.329 263.967 331.451C261.15 331.66 258.332 331.591 255.509 331.73C252.686 331.869 249.857 331.939 247.028 331.974C241.446 332.049 235.835 331.776 230.265 331.358C228.716 331.242 227.162 331.126 225.608 330.975C224.034 330.731 222.449 330.569 220.858 330.487C220.685 330.495 220.52 330.559 220.386 330.669C220.252 330.779 220.158 330.929 220.117 331.097C220.075 331.265 220.09 331.441 220.157 331.6C220.225 331.759 220.342 331.892 220.492 331.98V332.003Z" fill="#2D2615"/>
<path d="M291.348 201.678C291.784 202.363 292.192 203.077 292.64 203.745C293.088 204.413 293.746 205.197 294.281 205.923C295.29 207.262 296.289 208.617 297.279 209.988C299.281 212.74 301.26 215.522 303.187 218.327C307.052 223.954 310.795 229.663 314.549 235.365C316.65 238.559 318.624 241.869 320.952 244.889C321.103 245.119 321.303 245.312 321.538 245.455C321.772 245.598 322.037 245.687 322.31 245.716C322.584 245.744 322.861 245.711 323.12 245.619C323.38 245.528 323.615 245.379 323.81 245.185C325.649 243.443 327.838 241.985 329.846 240.435C331.854 238.884 333.985 237.229 336.063 235.65C340.242 232.479 344.41 229.306 348.566 226.132C348.93 225.882 349.189 225.506 349.291 225.077C349.394 224.647 349.332 224.195 349.118 223.809C347.834 220.931 347.55 217.708 348.309 214.651L345.504 215.464C348.221 217.897 350.386 220.881 351.854 224.215C351.922 224.424 352.036 224.615 352.188 224.773C352.34 224.932 352.525 225.055 352.731 225.132C352.937 225.21 353.157 225.24 353.376 225.221C353.595 225.202 353.807 225.134 353.996 225.023C358.926 221.968 365.271 221.672 370.655 223.67L370.585 220.859C366.284 222.566 362.064 224.512 357.739 226.155C357.435 226.263 357.184 226.484 357.038 226.771C356.893 227.059 356.864 227.392 356.957 227.7C357.051 228.009 357.26 228.269 357.541 228.428C357.822 228.587 358.153 228.632 358.467 228.553C362.779 227.487 367.337 228.11 371.202 230.296C371.296 229.453 371.383 228.611 371.476 227.769L364.817 229.453C362.599 230.034 360.434 230.789 358.205 231.271C358.438 232.055 358.676 232.839 358.915 233.629C362.477 232.508 366.883 233.768 369.177 236.765L370.888 234.442C365.512 233.4 359.941 234.127 355.015 236.515C352.557 237.647 350.269 239.115 348.216 240.876C346.069 242.797 344.254 245.057 342.844 247.566C339.898 252.613 338.298 258.315 335.184 263.246C334.823 263.826 334.45 264.407 334.054 264.924C334.188 264.744 333.775 265.278 333.699 265.377C333.467 265.667 333.234 265.958 332.989 266.231C332.553 266.73 332.093 267.212 331.616 267.665C331.4 267.868 331.179 268.06 330.964 268.246C330.446 268.71 331.127 268.124 330.806 268.379C330.667 268.495 330.521 268.6 330.376 268.71C329.853 269.099 329.305 269.452 328.734 269.767C328.484 269.912 328.222 270.04 327.96 270.174C327.337 270.481 328.164 270.092 327.785 270.249L327.168 270.487C326.526 270.728 325.866 270.922 325.195 271.068L324.724 271.161C325.061 271.109 324.561 271.161 324.479 271.161C324.084 271.207 323.688 271.231 323.315 271.242C322.943 271.254 322.518 271.242 322.151 271.242L321.569 271.207C321.196 271.178 321.569 271.207 321.336 271.178C320.496 271.063 319.664 270.894 318.845 270.673C317.342 270.274 315.884 269.72 314.497 269.018C311.376 267.426 308.391 265.581 305.574 263.501C304.596 262.81 302.972 263.379 302.465 264.395C302.191 264.929 302.132 265.547 302.298 266.123C302.465 266.699 302.845 267.19 303.362 267.497C308.35 271.021 313.944 274.663 320.131 275.505C323.203 275.997 326.351 275.634 329.229 274.454C331.914 273.257 334.286 271.458 336.162 269.198C339.939 264.726 341.924 259.256 344.153 253.931C345.265 251.069 346.699 248.341 348.426 245.801C349.891 243.813 351.679 242.084 353.717 240.685C358.373 237.473 364.677 236.457 370.195 237.479C370.494 237.551 370.807 237.534 371.097 237.431C371.386 237.327 371.639 237.142 371.825 236.898C372.015 236.651 372.124 236.351 372.138 236.04C372.153 235.729 372.072 235.42 371.907 235.156C370.345 233.144 368.178 231.684 365.723 230.99C363.269 230.296 360.657 230.405 358.269 231.3C356.808 231.881 357.431 234.105 358.979 233.658C361.179 233.019 363.455 232.676 365.679 232.113L372.337 230.441C373.502 230.145 373.601 228.478 372.605 227.915C370.382 226.647 367.925 225.84 365.382 225.541C362.839 225.242 360.261 225.456 357.803 226.172L358.531 228.571C362.803 226.829 367.198 225.354 371.493 223.67C371.793 223.57 372.053 223.378 372.235 223.12C372.417 222.862 372.511 222.553 372.503 222.238C372.495 221.923 372.386 221.619 372.192 221.371C371.997 221.122 371.728 220.943 371.424 220.859C365.195 218.536 358.304 219.401 352.541 222.601L354.683 223.408C353.254 219.48 350.931 215.935 347.896 213.054C347.681 212.855 347.417 212.715 347.132 212.647C346.846 212.58 346.547 212.587 346.265 212.669C345.983 212.751 345.728 212.904 345.523 213.114C345.318 213.324 345.171 213.584 345.096 213.867C344.076 217.803 344.488 221.972 346.261 225.632C346.447 224.848 346.627 224.07 346.843 223.309C342.652 226.523 338.467 229.74 334.287 232.961C332.215 234.552 330.125 236.126 328.042 237.7C325.958 239.273 323.874 241.074 321.639 242.45L324.136 243.031C322.52 239.967 320.704 237.012 318.699 234.186C316.825 231.38 314.885 228.617 312.879 225.899C308.804 220.313 304.456 214.918 300.073 209.599C298.862 208.127 297.638 206.666 296.4 205.214L294.537 203.048C293.868 202.311 293.161 201.61 292.419 200.946C292.307 200.84 292.161 200.778 292.007 200.772C291.853 200.766 291.702 200.816 291.582 200.913C291.463 201.009 291.382 201.146 291.356 201.298C291.33 201.449 291.36 201.605 291.441 201.736L291.348 201.678Z" fill="#2D2615"/>
<path d="M291.062 214.047C291.189 215.535 291.484 217.004 291.941 218.426C292.407 219.802 292.844 221.19 293.263 222.584C294.113 225.423 294.922 228.275 295.591 231.161C296.954 236.776 297.993 242.465 298.705 248.199C300.091 259.994 300.317 271.895 299.38 283.733C298.411 295.69 296.519 307.554 293.723 319.221C290.824 331.324 287.248 343.255 283.012 354.959C278.845 366.649 274.211 378.188 269.462 389.634C268.85 391.114 268.263 392.589 267.715 394.099C266.976 396.19 270.387 397.514 271.348 395.522C274.06 389.895 276.249 383.977 278.577 378.182C280.952 372.253 283.28 366.3 285.504 360.307C289.875 348.536 293.868 336.591 297.11 324.454C300.354 312.51 302.63 300.326 303.915 288.019C305.179 276.086 305.153 264.052 303.839 252.125C302.442 240.232 299.735 228.548 295.16 217.456C294.566 216.041 293.77 214.719 292.797 213.53C292.291 212.897 290.958 213.019 291.051 214.047H291.062Z" fill="#2D2615"/>
<path d="M242.843 335.307C243.111 340.087 243.286 344.872 243.455 349.657C243.618 354.349 243.967 359.041 244.182 363.734C244.621 373.223 244.788 382.719 244.683 392.224C244.619 397.595 244.479 402.967 244.299 408.339C244.314 408.704 244.47 409.049 244.735 409.301C245 409.554 245.353 409.694 245.719 409.692C255.614 410.122 265.568 410.516 275.475 411.155C276.679 411.231 277.256 409.529 276.4 408.769C274.043 406.695 271.743 404.564 269.275 402.607C268.998 402.344 268.626 402.201 268.243 402.211C267.86 402.221 267.496 402.382 267.232 402.659C266.968 402.937 266.826 403.307 266.835 403.689C266.845 404.072 267.007 404.434 267.285 404.698C270.777 408.844 276.016 411.295 281.482 410.679C281.693 410.669 281.9 410.612 282.087 410.512C282.273 410.411 282.435 410.27 282.559 410.099C282.683 409.927 282.767 409.73 282.804 409.522C282.841 409.314 282.831 409.1 282.774 408.896C281.924 405.751 280.089 402.959 277.535 400.929C277.301 400.717 277.006 400.586 276.691 400.554C276.377 400.521 276.061 400.59 275.789 400.749C275.519 400.914 275.312 401.164 275.2 401.459C275.087 401.754 275.075 402.078 275.166 402.381C276.11 404.626 277.794 406.483 279.939 407.645C282.085 408.806 284.563 409.203 286.965 408.769C287.931 408.6 288.047 407.45 287.727 406.748C286.119 403.244 283.782 400.122 280.87 397.59C277.915 394.953 274.508 392.87 270.812 391.44C269.764 391.051 268.554 391.945 268.303 392.944C268.178 393.475 268.265 394.034 268.547 394.501C268.828 394.969 269.282 395.308 269.811 395.447C273.196 396.131 276.359 397.644 279.014 399.849C281.712 402.146 283.893 404.986 285.416 408.182L286.185 406.161C282.873 406.771 279.171 404.645 277.925 401.556L275.562 403.008C277.757 404.701 279.357 407.045 280.131 409.703L281.429 407.915C277.046 408.443 272.058 406.672 269.526 402.903L267.302 404.703C269.63 406.817 272.087 408.769 274.502 410.778L275.428 408.397C265.533 408.054 255.585 407.468 245.666 406.922L247.093 408.275C247.939 389.19 247.521 370.069 245.841 351.039C245.381 345.743 244.438 340.447 243.594 335.197C243.53 334.779 242.838 334.901 242.861 335.313L242.843 335.307Z" fill="#2D2615"/>
<path d="M188.291 213.356C187.337 214.489 186.552 215.755 185.963 217.113C185.381 218.495 184.834 219.889 184.304 221.288C183.233 224.117 182.319 226.997 181.481 229.9C179.856 235.598 178.623 241.399 177.791 247.264C176.085 259.306 175.705 271.498 176.656 283.623C177.625 295.897 179.639 308.066 182.674 319.999C185.777 332.17 189.497 344.175 193.821 355.969C198.093 367.81 202.808 379.494 207.634 391.126C208.268 392.653 208.926 394.163 209.648 395.656C210.608 397.659 213.937 396.138 213.204 394.059C211.138 388.251 208.547 382.543 206.219 376.794C203.891 371.045 201.621 365.133 199.461 359.25C195.133 347.643 191.412 335.819 188.315 323.826C185.297 312.141 183.166 300.245 181.941 288.24C180.774 276.463 180.708 264.604 181.743 252.816C182.802 241.153 185.226 229.654 188.967 218.553C189.414 217.17 189.708 215.743 189.845 214.297C189.939 213.495 188.926 212.612 188.268 213.431L188.291 213.356Z" fill="#2D2615"/>
<path d="M237.372 335.226C236.615 339.93 235.905 344.645 235.323 349.378C234.741 354.111 234.467 358.966 234.205 363.751C233.701 373.24 233.46 382.729 233.484 392.218C233.484 397.59 233.623 402.961 233.868 408.333C234.322 407.857 234.776 407.386 235.224 406.91C225.329 407.456 215.393 408.043 205.468 408.385L206.505 410.708C208.926 408.705 211.394 406.748 213.711 404.628L211.382 402.938C208.973 406.521 204.025 408.437 199.822 407.932C200.154 408.513 200.492 409.053 200.829 409.61C201.565 407.067 203.074 404.815 205.148 403.164L203.134 401.254C201.825 404.506 198.239 406.771 194.7 406.12L195.562 408.101C197.087 404.909 199.268 402.074 201.964 399.779C204.638 397.578 207.815 396.072 211.214 395.394C211.486 395.327 211.741 395.204 211.965 395.035C212.188 394.866 212.375 394.654 212.513 394.41C212.652 394.167 212.739 393.898 212.771 393.62C212.802 393.342 212.777 393.061 212.696 392.793C212.615 392.525 212.481 392.276 212.301 392.061C212.121 391.847 211.899 391.671 211.649 391.545C211.398 391.418 211.125 391.344 210.845 391.326C210.565 391.307 210.285 391.346 210.02 391.44C206.339 392.884 202.948 394.977 200.009 397.619C197.101 400.154 194.767 403.278 193.163 406.782C193.065 406.966 193.01 407.169 193.002 407.377C192.993 407.585 193.032 407.792 193.116 407.982C193.199 408.173 193.325 408.342 193.483 408.477C193.642 408.612 193.829 408.71 194.031 408.763C198.728 409.593 203.78 407.119 205.672 402.642C205.82 402.361 205.873 402.04 205.825 401.727C205.777 401.413 205.629 401.124 205.404 400.9C205.175 400.681 204.878 400.544 204.562 400.511C204.246 400.479 203.928 400.552 203.658 400.72C200.979 402.789 199.047 405.671 198.152 408.931C198.065 409.287 198.123 409.663 198.313 409.978C198.502 410.292 198.808 410.519 199.165 410.609C201.905 410.937 204.683 410.555 207.232 409.5C209.757 408.421 211.98 406.745 213.711 404.616C213.947 404.361 214.083 404.029 214.095 403.682C214.106 403.334 213.993 402.994 213.775 402.723C213.557 402.45 213.247 402.266 212.902 402.206C212.558 402.146 212.203 402.214 211.906 402.398C209.357 404.43 206.947 406.637 204.496 408.786C203.594 409.581 204.386 411.196 205.538 411.109C215.434 410.47 225.375 410.075 235.294 409.645C235.66 409.629 236.006 409.471 236.259 409.206C236.512 408.941 236.652 408.589 236.65 408.223C235.998 389.221 236.214 370.249 237.413 351.277C237.75 345.94 237.809 340.586 238.1 335.243C238.093 335.156 238.056 335.073 237.994 335.01C237.933 334.946 237.851 334.906 237.764 334.897C237.676 334.887 237.588 334.908 237.514 334.957C237.44 335.005 237.386 335.078 237.36 335.162L237.372 335.226Z" fill="#2D2615"/>
<path d="M284.008 127.601C284.048 127.593 284.084 127.572 284.11 127.541C284.136 127.51 284.151 127.47 284.151 127.43C284.151 127.389 284.136 127.349 284.11 127.318C284.084 127.287 284.048 127.266 284.008 127.258C283.968 127.266 283.931 127.287 283.905 127.318C283.879 127.349 283.865 127.389 283.865 127.43C283.865 127.47 283.879 127.51 283.905 127.541C283.931 127.572 283.968 127.593 284.008 127.601Z" fill="white"/>
<path d="M284.555 129.192C284.86 129.201 285.162 129.127 285.428 128.977C285.706 128.878 285.954 128.71 286.15 128.489C286.361 128.287 286.515 128.032 286.598 127.752C286.737 127.479 286.797 127.174 286.773 126.869L286.679 126.288C286.567 125.911 286.356 125.57 286.068 125.301L285.603 124.959C285.247 124.762 284.845 124.664 284.438 124.674C284.135 124.671 283.836 124.747 283.571 124.895C283.294 124.992 283.045 125.158 282.849 125.377C282.454 125.826 282.232 126.4 282.221 126.997L282.32 127.578C282.425 127.951 282.625 128.291 282.902 128.565L283.367 128.907C283.723 129.105 284.125 129.201 284.532 129.186L284.555 129.192Z" fill="white"/>
<path d="M193.792 128.147L193.71 128.222L193.443 128.588L193.274 129.018C193.21 129.25 193.21 129.494 193.274 129.726C193.279 129.884 193.325 130.038 193.408 130.173C193.534 130.455 193.735 130.696 193.99 130.87C194.098 130.98 194.235 131.056 194.386 131.091C194.601 131.195 194.839 131.243 195.078 131.23L195.55 131.155L195.975 130.963L196.33 130.679C196.417 130.551 196.51 130.429 196.598 130.307C196.685 130.185 196.708 130.022 196.766 129.877C196.83 129.645 196.83 129.401 196.766 129.169C196.76 129.011 196.714 128.857 196.632 128.722C196.558 128.498 196.426 128.297 196.248 128.141L196.173 128.071C195.84 127.782 195.415 127.619 194.974 127.612L194.531 127.682C194.255 127.769 194.005 127.922 193.804 128.129L193.792 128.147Z" fill="white"/>
<path d="M180.049 291.986C171.213 290.365 161.923 292.566 153.53 295.319C149.112 296.765 144.752 298.391 140.352 299.895C135.862 301.456 131.285 302.753 126.644 303.78C117.494 305.76 108.128 306.852 98.7857 305.656C91.1227 304.735 83.7636 302.114 77.249 297.984C70.7765 293.877 65.7252 287.884 62.7786 280.818C59.682 273.217 58.9369 264.912 59.4084 256.776C59.9206 247.915 62.0278 239.024 64.0999 230.296C66.306 221.004 68.71 211.579 69.1174 202.003C69.4725 193.635 67.3712 184.361 60.3223 179.053C58.6404 177.758 56.7317 176.787 54.6936 176.19C52.5621 175.635 50.339 175.524 48.1627 175.865C47.024 176.01 45.8976 176.239 44.7925 176.55C43.7017 176.898 42.6393 177.329 41.6144 177.839C39.6058 178.805 37.6854 179.943 35.8752 181.242C35.0079 181.852 34.1289 182.462 33.2791 183.1C32.4293 183.739 31.5794 184.488 30.6889 185.127C29.5247 185.952 30.6889 187.851 31.853 187.014C32.732 186.393 33.7098 185.853 34.6353 185.301C35.5608 184.75 36.5271 184.14 37.5108 183.64C39.3921 182.636 41.362 181.806 43.3956 181.161C45.2839 180.526 47.2589 180.185 49.2512 180.15C49.5015 180.15 49.7518 180.15 49.9963 180.15C50.0836 180.15 50.6598 180.208 50.3804 180.15C50.9179 180.223 51.4505 180.328 51.9753 180.464C52.4468 180.586 52.9241 180.714 53.3956 180.859C53.6051 180.923 53.8089 181.004 54.0126 181.068C54.2163 181.132 53.966 181.068 53.9253 181.027L54.3211 181.196C55.1736 181.583 55.9898 182.046 56.76 182.578C56.888 182.665 57.2838 182.955 56.9462 182.694L57.4585 183.095C57.8194 183.391 58.1744 183.675 58.512 184.029C58.8496 184.384 59.129 184.645 59.4201 184.97C59.5714 185.133 59.7111 185.301 59.8508 185.464C59.9905 185.626 59.8508 185.429 59.7984 185.394L60.0662 185.743C60.6222 186.482 61.1278 187.258 61.5796 188.066C61.7949 188.449 61.9986 188.838 62.1616 189.227L62.3537 189.546C62.3537 189.512 62.214 189.204 62.3188 189.465C62.4236 189.726 62.5225 189.935 62.6156 190.174C62.9796 191.152 63.2809 192.153 63.5179 193.17C64.0163 195.252 64.2779 197.383 64.2978 199.523C64.4317 204.215 63.8496 208.397 63.0929 212.967C62.313 217.613 61.3118 222.258 60.2932 226.869C58.2908 235.923 56.2186 244.999 55.6366 254.279C55.136 262.473 55.7763 270.917 58.5469 278.704C61.1672 286.237 65.9132 292.853 72.2141 297.758C78.3734 302.438 85.5126 305.67 93.0989 307.212C101.946 309.082 111.009 308.704 119.874 307.148C129.106 305.528 137.977 302.369 146.766 299.204C155.398 296.091 164.159 292.926 173.402 292.363C175.602 292.229 177.808 292.229 180.008 292.363C180.241 292.363 180.282 292.003 180.055 291.962L180.049 291.986Z" fill="#2D2615"/>
<path d="M59.2164 177.125C48.4247 175.638 38.6924 182.613 31.4631 189.843C24.1393 197.234 18.3618 206.004 14.4665 215.644C10.3143 225.851 8.19297 236.766 8.22085 247.781C8.27589 259.572 10.4728 271.255 14.7052 282.264C18.1874 291.486 23.117 300.098 29.3094 307.775C35.3781 315.357 42.8027 321.75 51.2071 326.631C59.9046 331.611 69.67 334.442 79.688 334.889C90.922 335.365 102.139 332.619 112.447 328.304C123.064 323.861 132.82 317.787 142.133 311.114C146.79 307.793 151.446 304.442 156.603 301.922C161.26 299.639 166.499 297.967 171.737 298.954C174.334 299.483 176.825 300.435 179.112 301.771C180.742 302.7 182.145 300.156 180.521 299.227C175.864 296.579 170.858 295.052 165.48 295.812C159.88 296.602 154.653 299.157 149.863 302.044C145.072 304.93 140.596 308.24 135.957 311.335C131.282 314.467 126.434 317.333 121.434 319.918C111.818 324.86 101.376 328.716 90.5844 330.005C80.6018 331.202 70.3631 330.22 61.114 326.562C52.6573 323.111 44.9783 318.007 38.5295 311.55C31.9182 305.018 26.4016 297.47 22.1906 289.192C17.2517 279.486 14.0077 269.011 12.5981 258.217C11.112 247.204 11.7262 236.011 14.4083 225.226C16.8728 215.399 21.2387 206.146 27.2605 197.99C30.3209 193.86 33.8223 190.075 37.7029 186.701C41.7134 183.251 46.3351 180.272 51.4806 178.867C53.9612 178.162 56.5423 177.876 59.1174 178.019C59.6238 178.048 59.6995 177.194 59.2164 177.125Z" fill="#2D2615"/>
<path d="M310.807 137.113C310.833 137.113 310.858 137.103 310.877 137.084C310.895 137.066 310.906 137.041 310.906 137.015C310.906 136.988 310.895 136.963 310.877 136.945C310.858 136.926 310.833 136.916 310.807 136.916C310.78 136.916 310.755 136.926 310.736 136.945C310.718 136.963 310.707 136.988 310.707 137.015C310.707 137.041 310.718 137.066 310.736 137.084C310.755 137.103 310.78 137.113 310.807 137.113Z" fill="#2D2615"/>
</svg>
