<svg viewBox="0 0 436 416" fill="none" xmlns="http://www.w3.org/2000/svg">
<path d="M342.413 202.177L336.213 206.59C336.587 204.291 336.966 201.99 337.349 199.687C337.393 199.505 337.382 199.314 337.32 199.138C337.257 198.961 337.145 198.807 336.996 198.693C336.848 198.578 336.67 198.51 336.483 198.495C336.296 198.48 336.109 198.519 335.944 198.608L327.126 203.825C327.262 200.683 327.399 197.539 327.535 194.393C327.528 194.187 327.455 193.988 327.327 193.826C327.198 193.664 327.021 193.548 326.821 193.494C326.622 193.44 326.41 193.452 326.218 193.528C326.026 193.604 325.863 193.739 325.753 193.915C323.942 196.835 322.646 200.044 321.922 203.403C319.059 203.154 316.244 202.509 313.557 201.488C312.772 201.188 312.05 202.222 312.478 202.893C314.305 205.772 316.634 208.301 319.355 210.357C316.405 218.799 308.308 224.405 299.739 226.091C290.027 228.007 280.225 224.265 272.869 217.949C272.23 217.413 271.643 216.858 271.055 216.289C271.209 216.268 271.354 216.21 271.479 216.119C271.604 216.029 271.705 215.909 271.773 215.77C271.841 215.631 271.873 215.477 271.867 215.323C271.861 215.168 271.817 215.018 271.739 214.884C269.67 211.385 267.32 207.675 263.757 205.523C263.298 205.245 262.82 204.999 262.326 204.789C262.312 204.758 262.295 204.728 262.275 204.7C262.221 204.592 262.146 204.496 262.053 204.419C261.96 204.342 261.852 204.286 261.737 204.253C261.621 204.22 261.499 204.211 261.38 204.228C261.26 204.244 261.146 204.285 261.043 204.348C260.883 204.304 260.717 204.272 260.558 204.233C259.869 203.362 258.997 202.654 258.003 202.158C255.756 201.079 253.214 201.245 250.801 201.488C239.339 202.644 227.845 203.467 216.319 203.895C204.793 204.323 193.261 204.368 181.736 204.042C175.989 203.882 170.28 203.506 164.552 203.301C161.792 203.161 159.026 203.424 156.341 204.08C153.794 204.83 151.29 205.714 148.838 206.73C140.537 209.891 131.373 211.238 123.641 215.759C118.868 217.135 114.208 218.875 109.701 220.963C106.272 222.548 102.942 224.337 99.727 226.321C96.7897 228.141 93.5331 230.107 91.809 233.223C88.2907 239.571 92.3837 247.144 96.5087 252.08C101.055 257.49 107.108 261.426 113.896 263.388C109.862 267.912 106.769 273.193 104.797 278.924C104.465 279.901 105.729 280.425 106.4 279.857L107.326 279.058C106.956 280.092 106.701 281.162 106.566 282.251C106.476 282.992 107.441 283.407 108.009 283.075C110.423 281.658 112.681 279.99 114.746 278.101C114.398 279.162 114.123 280.246 113.922 281.344C113.885 281.507 113.889 281.676 113.936 281.835C113.982 281.995 114.069 282.141 114.187 282.258C114.305 282.375 114.452 282.46 114.612 282.504C114.772 282.549 114.941 282.552 115.103 282.513C117.523 282.056 119.813 281.076 121.815 279.642C123.817 278.209 125.481 276.355 126.693 274.212C126.693 274.359 126.744 274.506 126.769 274.652C127.086 270.338 127.666 266.048 128.506 261.805C130.326 254.027 132.561 245.72 135.773 237.917C134.577 239.015 133.432 240.167 132.338 241.371C133.436 240.167 134.581 239.015 135.773 237.917C140.473 226.5 147.267 216.149 157.879 210.083C147.26 216.149 140.473 226.5 135.773 237.917C147.803 226.844 164.546 221.347 180.229 219.022C216.294 214.514 259.306 217.969 283.845 246.046C278.055 231.926 269.283 219.223 258.131 208.805C269.283 219.223 278.055 231.926 283.845 246.046C287.214 249.905 290.154 254.118 292.613 258.612C290.154 254.118 287.214 249.905 283.845 246.046C285.93 251.064 287.65 256.226 288.992 261.492C291.59 261.087 294.151 260.481 296.655 259.678C296.821 258.482 296.959 257.275 297.07 256.058C296.959 257.28 296.821 258.487 296.655 259.678C303.753 257.346 310.344 253.689 316.079 248.9C324.91 241.608 331.602 232.042 336.577 221.794C339.44 215.808 341.856 209.618 343.805 203.276C344.073 202.503 343.096 201.686 342.413 202.177Z" fill="#5A4949"/>
<path d="M191.723 325.653C228.433 333.488 268.144 318.054 286.7 287.704C287 286.542 287.281 285.367 287.53 284.186C289.15 276.768 289.377 269.114 288.201 261.613L288.992 261.485C287.651 256.22 285.931 251.057 283.846 246.039C259.306 217.943 216.294 214.508 180.229 219.016C164.546 221.34 147.803 226.838 135.773 237.91C132.581 245.713 130.326 254.021 128.507 261.798C127.666 266.041 127.086 270.332 126.77 274.646C127.46 278.439 127.832 282.284 127.881 286.14C140.032 309.811 166.468 320.11 191.723 325.653Z" fill="white"/>
<path d="M264.523 329.803C274.07 317.07 282.684 303.22 286.7 287.704C268.144 318.054 228.433 333.487 191.723 325.652C166.468 320.11 140.032 309.81 127.868 286.165C127.868 287.263 127.868 288.368 127.868 289.472C128.877 292.774 130.033 296.037 131.169 299.306C131.514 298.968 131.865 298.636 132.217 298.304C134.445 304.159 137.849 309.472 141.386 314.657C141.266 314.799 141.196 314.976 141.187 315.162C141.178 315.348 141.23 315.531 141.335 315.685C147.645 326.24 154.484 336.47 161.826 346.335C165.376 351.609 168.895 356.916 172.094 362.407C174.47 366.426 176.559 370.609 178.345 374.923C169.903 376.823 162.366 381.555 156.986 388.332C156.884 388.437 156.807 388.563 156.761 388.701C156.714 388.84 156.7 388.987 156.718 389.132C156.737 389.277 156.787 389.416 156.867 389.538C156.946 389.66 157.053 389.763 157.177 389.839C166.87 395.19 178.211 393.926 188.741 392.527C194.468 391.667 200.239 391.122 206.026 390.893C212.335 390.746 218.65 391.065 224.953 391.301L246.663 392.138C246.841 392.134 247.013 392.081 247.162 391.984C247.311 391.888 247.43 391.752 247.506 391.591C247.582 391.431 247.613 391.253 247.593 391.077C247.574 390.9 247.506 390.733 247.398 390.593C248.094 390.869 248.806 391.103 249.53 391.295C250.169 391.467 250.993 390.823 250.712 390.12C250.431 389.418 250.137 388.69 249.843 387.981C251.501 388.327 253.222 388.219 254.824 387.668C255.001 387.612 255.159 387.507 255.278 387.364C255.398 387.221 255.474 387.048 255.498 386.863C255.522 386.679 255.493 386.491 255.415 386.323C255.336 386.154 255.211 386.012 255.054 385.912L233.669 372.503C233.692 372.478 233.711 372.45 233.726 372.42C242.296 357.075 254 343.813 264.523 329.803Z" fill="#5A4949"/>
<path d="M128.507 44.0539C131.699 39.5841 136.169 37.0299 141.916 38.9456C146.335 40.5036 149.189 43.658 151.105 47.4254C160.604 42.3962 170.608 38.3852 180.95 35.4591C174.855 36.6854 168.874 38.4242 163.071 40.6569C162.611 39.4308 162.049 38.2623 161.596 37.0235C161.036 35.4176 160.228 33.9094 159.202 32.5537C156.973 29.7267 154.189 27.3862 151.022 25.6766C144.821 22.1965 137.55 21.1392 130.615 22.7091C123.68 24.2789 117.573 28.3644 113.475 34.1756C109.614 39.8092 107.789 46.5915 108.303 53.4022C108.89 60.3624 112.581 68.2548 118.034 72.8013C122.179 68.6443 125.978 64.1298 130.646 60.5476C126.827 55.3498 124.414 49.539 128.507 44.0539Z" fill="#5A4949"/>
<path d="M141.916 38.9461C136.169 37.0305 131.699 39.5847 128.506 44.0545C124.413 49.5396 126.827 55.3504 130.645 60.5481C137.078 55.6106 143.913 51.2212 151.079 47.426C149.189 43.6586 146.335 40.5042 141.916 38.9461Z" fill="#F5D4D6"/>
<path d="M294.529 48.5236C287.415 41.4102 278.194 46.2759 274.178 54.2195C280.749 58.6893 287.121 63.4784 293.29 68.5867C298.577 62.5142 300.908 54.8963 294.529 48.5236Z" fill="#F5D4D6"/>
<path d="M313.097 44.9732C310.104 38.5985 304.872 33.5472 298.395 30.7812C291.919 28.0152 284.652 27.7278 277.977 29.9737C274.104 31.2297 270.553 33.32 267.575 36.0974C266.132 37.4575 264.937 39.0586 264.044 40.829C263.444 42.1061 262.767 43.3002 262.179 44.5517C258.604 42.8064 254.953 41.2334 251.228 39.8329C263.233 46.9846 274.791 54.6918 286.067 62.8205C282.168 59.8619 278.205 56.9949 274.178 54.2193C278.194 46.2758 287.415 41.4101 294.528 48.5235C300.812 54.8068 298.64 62.2969 293.513 68.3184C298.004 71.6772 302.461 75.1083 306.884 78.6118C310.869 74.9848 313.64 69.8765 314.949 64.7681C316.622 58.1528 315.968 51.1635 313.097 44.9732Z" fill="#5A4949"/>
<path d="M325.383 120.808C323.63 111.98 320.542 103.47 316.226 95.5723C313.191 89.9539 309.67 84.6123 305.703 79.6087C306.105 79.2958 306.495 78.9701 306.878 78.6189C302.455 75.1197 297.998 71.6886 293.507 68.3256C293.43 68.4086 293.36 68.498 293.283 68.5874C290.908 66.6206 288.494 64.7178 286.061 62.8404C274.791 54.6926 263.233 46.9853 251.229 39.8655C249.951 39.3888 248.674 38.9311 247.397 38.4927C242.268 36.6753 236.985 35.3246 231.612 34.4571C229.288 34.1059 226.063 33.8185 223.407 33.5248C220.546 33.2119 217.66 32.9884 214.806 32.8862C212.111 32.7756 209.416 32.7372 206.722 32.7713C205.325 32.798 203.931 32.9046 202.546 33.0906C201.269 33.2502 200.036 33.5248 198.791 33.6397C198.754 33.6061 198.711 33.5802 198.664 33.5638C198.616 33.5473 198.566 33.5406 198.517 33.5439C192.606 33.6711 186.719 34.325 180.925 35.4979C170.592 38.4134 160.597 42.4116 151.104 47.4259C145.963 50.1399 140.988 53.1593 136.207 56.4677C134.802 57.5086 133.391 58.543 131.948 59.5455C131.514 59.8712 131.073 60.1841 130.671 60.5225L130.128 60.9503C126.68 65.2222 122.498 68.8364 118.519 72.5272L118.187 72.8401C117.823 73.3381 117.453 73.8426 117.095 74.3534C117.013 74.4803 116.888 74.5736 116.743 74.6169C116.598 74.6602 116.442 74.6505 116.304 74.5897C113.002 78.5469 109.952 82.7078 107.172 87.0477C104.274 91.5588 101.713 96.2777 99.5099 101.166C98.3669 103.72 97.3197 106.274 96.3682 108.905C96.2725 109.161 96.1767 109.416 96.0873 109.671C96.0873 109.761 95.9723 110.01 95.9787 110.003C95.9085 110.201 95.8319 110.393 95.7616 110.591C95.5573 111.229 95.3593 111.823 95.1614 112.436C94.7783 113.662 94.4207 114.888 94.0823 116.127C91.5281 125.392 90.251 135.143 90.9725 144.747C91.6111 153.482 93.8588 162.192 98.3541 169.765C100.575 173.447 103.307 176.794 106.47 179.707C111.376 184.253 116.808 188.195 122.651 191.45C134.381 198.059 147.439 202.19 160.612 204.77C173.777 207.236 187.135 208.518 200.528 208.601C211.528 208.735 222.527 208.308 233.483 207.324C237.404 206.979 241.32 206.571 245.233 206.098L249.428 205.587C252.548 205.138 255.642 204.516 258.693 203.723C270.825 200.824 282.773 196.546 293.507 190.135C297.999 187.459 302.217 184.347 306.099 180.844C307.861 179.247 309.52 177.541 311.067 175.735C311.411 175.333 311.75 174.924 312.082 174.516L312.618 173.877C312.733 173.73 312.842 173.584 312.95 173.43L313.142 173.2C313.959 172.179 314.713 171.106 315.46 170.008C320.392 163.013 323.828 155.077 325.555 146.694C327.136 138.132 327.078 129.348 325.383 120.808Z" fill="white"/>
<path d="M211.843 128.91C211.718 128.852 211.582 128.822 211.444 128.822C211.306 128.822 211.17 128.852 211.045 128.91C210.737 128.722 210.412 128.564 210.075 128.438C208.17 127.757 206.217 127.221 204.232 126.835C203.525 126.655 202.809 126.514 202.086 126.413H201.908L201.659 126.369C200.924 126.279 200.579 127.103 200.777 127.697C200.42 127.495 200.025 127.367 199.617 127.321C199.209 127.274 198.796 127.311 198.402 127.429C197.869 127.683 197.365 127.996 196.901 128.361C196.304 128.931 195.955 129.713 195.931 130.538C195.843 130.645 195.778 130.769 195.742 130.902C195.706 131.035 195.699 131.174 195.721 131.311C195.744 131.447 195.795 131.577 195.872 131.691C195.949 131.806 196.049 131.903 196.167 131.975C196.233 132.021 196.301 132.064 196.371 132.103C196.714 132.619 197.195 133.029 197.76 133.285C198.324 133.542 198.95 133.634 199.564 133.552C200.063 133.489 200.538 133.305 200.95 133.016C201.475 133.734 202.237 134.243 203.102 134.453C203.752 134.599 204.43 134.564 205.062 134.351C205.555 134.334 206.038 134.212 206.479 133.991C206.919 133.771 207.307 133.458 207.616 133.073C207.922 133.327 208.282 133.506 208.669 133.596C209.056 133.685 209.459 133.684 209.845 133.591C210.194 133.497 210.52 133.332 210.803 133.105C210.99 133.107 211.175 133.068 211.345 132.99C211.598 132.876 211.823 132.707 212.002 132.495C212.181 132.283 212.31 132.033 212.38 131.764C212.999 130.934 212.967 129.434 211.843 128.91ZM208.095 131.075C208.084 130.96 208.062 130.847 208.031 130.736C208.525 130.96 208.972 131.277 209.347 131.669L209.404 131.739C208.919 131.924 208.453 131.515 208.095 131.075Z" fill="#C89D64"/>
<path d="M182.936 101.165C179.826 94.7799 174.252 92.1491 164.629 90.6996C98.7501 80.7319 116.412 160.927 145.568 153.916C168.626 149.523 189.468 117.768 182.936 101.165Z" fill="#5A4949"/>
<path d="M231.53 99.8372C234.633 93.4518 240.207 90.821 249.837 89.3715C315.709 79.4548 298.047 159.612 268.891 152.626C245.833 148.233 224.991 116.491 231.53 99.8372Z" fill="#5A4949"/>
<path d="M211.179 128.036C209.643 127.858 208.132 127.513 206.671 127.008C205.321 126.585 203.936 126.286 202.533 126.114C200.062 125.871 197.527 126.529 196.02 128.623C194.743 130.385 194.615 132.946 196.345 134.472C196.741 134.841 197.206 135.128 197.714 135.316C198.221 135.504 198.761 135.589 199.301 135.567C199.842 135.545 200.373 135.416 200.863 135.187C201.353 134.957 201.793 134.633 202.157 134.233C202.521 133.833 202.802 133.364 202.983 132.854C203.165 132.345 203.243 131.804 203.214 131.264C203.185 130.723 203.049 130.194 202.813 129.707C202.578 129.22 202.248 128.784 201.843 128.425C201.738 128.328 201.613 128.257 201.477 128.215C201.34 128.173 201.196 128.163 201.055 128.184C200.914 128.205 200.78 128.258 200.662 128.339C200.544 128.419 200.446 128.525 200.375 128.649C198.861 131.49 200.509 135.673 203.88 136.126C207.252 136.579 210.049 132.595 208.427 129.606C208.346 129.479 208.233 129.374 208.1 129.303C207.966 129.232 207.817 129.196 207.666 129.2C207.514 129.204 207.367 129.247 207.237 129.325C207.108 129.403 207.001 129.513 206.926 129.645C205.783 132.263 208.471 135.698 211.339 134.53C213.733 133.553 214.167 129.919 212.169 128.342C212.073 128.262 211.962 128.202 211.842 128.167C211.723 128.131 211.597 128.12 211.473 128.135C211.349 128.15 211.229 128.19 211.122 128.253C211.014 128.316 210.92 128.401 210.846 128.501C210.772 128.602 210.72 128.716 210.692 128.838C210.664 128.96 210.661 129.086 210.684 129.209C210.707 129.331 210.755 129.448 210.824 129.552C210.894 129.655 210.984 129.743 211.09 129.811C212.105 130.449 211.817 132.307 210.847 132.85C209.57 133.585 207.89 131.758 208.446 130.481L206.952 130.52C207.929 132.327 205.873 134.823 203.919 134.351C201.965 133.878 201.083 131.228 202.003 129.549L200.541 129.772C201.748 130.89 201.364 133.304 199.589 133.572C199.184 133.644 198.766 133.6 198.385 133.447C198.003 133.293 197.672 133.035 197.429 132.702C197.187 132.369 197.043 131.975 197.014 131.564C196.985 131.153 197.072 130.743 197.265 130.379C198.255 128.125 200.905 127.755 203.101 127.953C204.41 128.074 205.707 128.393 207.003 128.591C208.382 128.846 209.792 128.891 211.185 128.725C211.274 128.713 211.356 128.67 211.415 128.602C211.474 128.535 211.507 128.448 211.507 128.358C211.507 128.268 211.474 128.181 211.415 128.114C211.356 128.046 211.274 128.003 211.185 127.991L211.179 128.036Z" fill="#1E2525"/>
<path d="M204.813 134.511C204.318 135.135 203.987 135.872 203.849 136.656C203.587 137.576 203.363 138.521 203.153 139.453C202.75 141.279 202.45 143.131 202.22 144.989C201.991 146.847 201.825 148.597 201.767 150.404C201.71 152.211 201.512 154.338 201.94 156.151C202.157 157.071 203.734 157.09 203.855 156.106C204.085 154.338 203.855 152.46 203.855 150.672C203.855 148.884 203.964 147.026 204.117 145.213C204.27 143.399 204.506 141.65 204.756 139.881C204.896 138.974 205.062 138.08 205.228 137.18C205.468 136.368 205.529 135.514 205.407 134.677C205.387 134.614 205.351 134.557 205.303 134.512C205.254 134.467 205.195 134.435 205.131 134.42C205.067 134.404 204.999 134.406 204.936 134.424C204.872 134.442 204.815 134.476 204.768 134.523L204.813 134.511Z" fill="#1E2525"/>
<path d="M192.335 140.998C190.771 143.348 191.02 146.86 191.869 149.408C192.787 152.177 194.661 154.529 197.156 156.042C202.412 159.19 209.544 158.175 213.465 153.398C215.553 150.844 217.041 147.262 216.268 143.954C216.006 142.843 214.531 143.316 214.442 144.248C214.199 146.802 213.739 149.19 212.22 151.317C210.771 153.369 208.627 154.826 206.185 155.416C203.761 155.985 201.214 155.695 198.98 154.596C196.745 153.496 194.961 151.656 193.932 149.388C193.383 148.115 193.044 146.76 192.929 145.378C192.883 143.981 192.956 142.581 193.146 141.196C193.185 140.723 192.546 140.679 192.335 140.998Z" fill="#1E2525"/>
<path d="M258.808 131.331C265.583 131.331 265.322 120.807 258.547 120.807C251.772 120.807 252.033 131.331 258.808 131.331Z" fill="#463CBA"/>
<path d="M263.119 127.346C263.163 127.337 263.202 127.314 263.231 127.28C263.26 127.245 263.275 127.202 263.275 127.157C263.275 127.112 263.26 127.069 263.231 127.035C263.202 127 263.163 126.977 263.119 126.969C263.075 126.977 263.035 127 263.006 127.035C262.978 127.069 262.962 127.112 262.962 127.157C262.962 127.202 262.978 127.245 263.006 127.28C263.035 127.314 263.075 127.337 263.119 127.346Z" fill="white"/>
<path d="M263.725 129.127C264.06 129.134 264.39 129.052 264.683 128.891C264.989 128.78 265.261 128.594 265.475 128.348C265.712 128.125 265.886 127.843 265.979 127.531C266.127 127.23 266.193 126.895 266.171 126.56C266.132 126.337 266.101 126.12 266.062 125.922C265.938 125.506 265.707 125.129 265.392 124.83L264.875 124.453C264.483 124.239 264.043 124.131 263.597 124.14C262.939 124.186 262.317 124.461 261.841 124.919C261.604 125.141 261.432 125.424 261.343 125.737C261.191 126.036 261.125 126.372 261.152 126.707C261.184 126.931 261.222 127.154 261.254 127.346C261.384 127.76 261.614 128.135 261.924 128.438L262.442 128.815C262.831 129.032 263.273 129.14 263.719 129.127H263.725Z" fill="white"/>
<path d="M158.499 122.461L159.137 123.821V123.731C158.624 122.252 157.61 120.998 156.27 120.187L154.815 119.613C153.762 119.355 152.66 119.381 151.622 119.689C151.029 119.818 150.465 120.051 149.955 120.379C149.084 120.919 148.365 121.673 147.867 122.569C147.461 123.245 147.241 124.016 147.229 124.804C147.068 125.596 147.125 126.417 147.395 127.179C147.692 128.168 148.242 129.061 148.991 129.772L149.068 129.829L150.313 130.742C150.792 130.981 151.292 131.176 151.807 131.324C152.592 131.557 153.426 131.575 154.221 131.375C155.019 131.321 155.789 131.054 156.449 130.602L157.65 129.625C158.376 128.869 158.891 127.935 159.144 126.918V126.847L157.726 129.402V129.357L158.588 128.182C158.986 127.542 159.207 126.808 159.227 126.056C159.348 125.557 159.335 125.034 159.189 124.542C159.139 123.789 158.888 123.063 158.461 122.441L158.499 122.461Z" fill="#463CBA"/>
<path d="M146.233 124.581L146.143 124.657L145.843 125.06L145.658 125.532C145.588 125.789 145.588 126.06 145.658 126.318C145.659 126.492 145.71 126.663 145.805 126.809C145.85 126.972 145.941 127.118 146.067 127.231C146.154 127.375 146.277 127.493 146.424 127.575C146.549 127.692 146.7 127.775 146.865 127.818C147.098 127.934 147.358 127.985 147.618 127.965L148.142 127.882L148.602 127.671L148.991 127.358L149.285 126.956C149.349 126.796 149.413 126.637 149.47 126.484C149.54 126.226 149.54 125.955 149.47 125.698C149.467 125.526 149.416 125.358 149.323 125.213C149.243 124.966 149.097 124.745 148.902 124.574L148.819 124.504C148.464 124.194 148.013 124.016 147.542 124L147.056 124.076C146.751 124.166 146.476 124.336 146.258 124.568L146.233 124.581Z" fill="white"/>
<path d="M154.131 208.901C149.138 212.318 144.761 216.559 141.188 221.442C137.508 226.347 134.395 231.653 131.91 237.259C126.97 248.53 124.451 260.712 124.516 273.017C124.688 285.578 127.733 297.932 133.417 309.134C139.221 320.787 147.241 331.138 155.325 341.278C159.444 346.45 163.678 351.527 167.777 356.718C171.803 361.899 175.39 367.408 178.498 373.186C179.265 374.578 179.941 376.015 180.593 377.464C180.632 377.614 180.704 377.754 180.803 377.873C180.902 377.992 181.026 378.088 181.166 378.155C181.306 378.221 181.459 378.256 181.614 378.257C181.769 378.259 181.923 378.226 182.064 378.162C182.205 378.098 182.33 378.004 182.432 377.887C182.533 377.769 182.607 377.631 182.649 377.482C182.692 377.333 182.701 377.177 182.677 377.024C182.652 376.871 182.595 376.725 182.508 376.596C176.685 365.013 169.367 354.349 161.749 343.89C154.131 333.43 146.124 323.469 139.936 312.199C136.895 306.795 134.452 301.076 132.651 295.143C131.801 292.293 131.118 289.395 130.607 286.465C130.384 285.188 130.205 283.975 130.026 282.391C129.86 280.935 129.739 279.473 129.643 278.011C129.456 275.084 129.415 272.149 129.522 269.218C129.581 267.711 129.677 266.206 129.809 264.704C129.809 264.333 129.873 263.969 129.911 263.605C129.911 263.439 129.943 263.28 129.962 263.12C129.918 263.529 129.962 263.12 129.962 263.043C130.058 262.232 130.16 261.421 130.275 260.617C131.125 254.745 132.55 248.97 134.528 243.376C135.473 240.713 136.533 238.268 137.823 235.471C139.062 232.811 140.441 230.219 141.954 227.706C143.512 225.107 145.243 222.649 146.96 220.216C148.678 217.783 150.511 215.746 152.318 213.505C153.25 212.368 154.233 211.251 155.172 210.146C155.766 209.469 154.949 208.333 154.144 208.869L154.131 208.901Z" fill="#1E2525"/>
<path d="M197.731 325.653C198.317 326.283 199.063 326.742 199.89 326.981C200.694 327.281 201.467 327.671 202.291 327.926C204.036 328.401 205.824 328.705 207.629 328.833C209.387 329.011 211.155 329.077 212.922 329.031C214.789 328.969 216.643 328.703 218.452 328.239C220.898 327.651 220.221 323.839 217.763 323.916C216.102 323.973 214.455 323.999 212.801 324.088C211.147 324.178 209.487 324.152 207.827 324.133C206.167 324.114 204.634 323.954 203.038 323.878C202.195 323.878 201.371 323.961 200.528 323.878C199.711 323.758 198.876 323.837 198.095 324.107C197.947 324.158 197.813 324.245 197.708 324.361C197.602 324.477 197.527 324.617 197.491 324.77C197.455 324.922 197.458 325.082 197.5 325.233C197.542 325.384 197.621 325.522 197.731 325.634V325.653Z" fill="#1E2525"/>
<path d="M209.097 327.587C208.9 328.041 208.729 328.506 208.586 328.979C208.478 329.458 208.388 329.944 208.299 330.423C208.12 331.393 207.948 332.338 207.814 333.334C207.539 335.327 207.341 337.325 207.233 339.33C207.124 341.335 207.143 343.353 207.143 345.358C207.143 346.367 207.143 347.376 207.207 348.378C207.207 348.838 207.245 349.292 207.303 349.745C207.335 349.994 207.36 350.249 207.399 350.498C207.484 350.794 207.588 351.085 207.712 351.367C207.842 352.282 207.876 353.209 207.814 354.132C207.814 355.147 207.814 356.156 207.858 357.171C207.858 359.195 207.935 361.226 207.954 363.25C207.954 364.214 207.954 365.166 207.954 366.136C207.954 367.203 208.248 368.244 208.267 369.329C208.312 371.341 208.203 373.365 208.101 375.37C208.044 376.474 208.101 377.586 207.98 378.677C207.858 379.769 207.75 380.874 207.641 381.979C207.535 383.051 207.373 384.116 207.156 385.171C207.041 385.746 206.964 386.346 206.901 386.927C206.901 387.087 206.83 387.349 206.901 387.125C206.676 387.512 206.426 387.883 206.153 388.237C205.966 388.582 205.866 388.968 205.863 389.361C205.861 389.754 205.955 390.141 206.138 390.489C206.321 390.837 206.586 391.134 206.912 391.355C207.237 391.575 207.612 391.712 208.002 391.753C208.393 391.794 208.788 391.738 209.152 391.589C209.516 391.441 209.838 391.205 210.089 390.903C210.34 390.601 210.512 390.241 210.591 389.856C210.67 389.471 210.652 389.073 210.54 388.696C210.441 388.342 210.315 387.996 210.164 387.662C210.112 387.54 210.106 387.311 210.132 387.579C210.125 387.086 210.151 386.593 210.208 386.104C210.247 385.114 210.157 384.124 210.208 383.135C210.253 381.142 210.157 379.15 210.208 377.158C210.259 375.165 210.164 373.141 210.1 371.13C210.043 370.121 210.054 369.11 210.132 368.103C210.226 367.095 210.248 366.081 210.195 365.07C210.017 361.022 209.761 356.973 209.672 352.938C209.61 352.433 209.6 351.924 209.64 351.418C209.764 351.069 209.866 350.713 209.946 350.352C210.042 349.285 210.049 348.232 210.055 347.159C210.055 345.147 210.055 343.136 210.055 341.125C210.089 338.928 210.1 336.731 210.087 334.535C210.087 333.449 210.087 332.357 210.087 331.272C210.087 330.678 210.087 330.09 210.087 329.497C210.087 328.903 209.966 328.341 209.921 327.734C209.913 327.635 209.871 327.541 209.801 327.469C209.732 327.398 209.639 327.352 209.54 327.342C209.44 327.331 209.341 327.356 209.257 327.411C209.174 327.466 209.113 327.549 209.084 327.645L209.097 327.587Z" fill="#1E2525"/>
<path d="M180.459 372.943C177.907 373.097 175.401 373.691 173.052 374.699C170.615 375.659 168.254 376.801 165.989 378.116C161.522 380.778 157.44 384.039 153.857 387.809C152.861 388.875 153.595 391.091 155.223 390.893C157.507 390.643 159.718 389.944 161.73 388.837C163.676 387.816 165.469 386.527 167.056 385.006C167.308 384.736 167.454 384.385 167.466 384.016C167.479 383.648 167.358 383.287 167.126 383.001C166.889 382.721 166.562 382.534 166.202 382.471C165.841 382.408 165.47 382.473 165.153 382.656C161.602 384.317 158.634 387.01 156.635 390.382C156.506 390.624 156.443 390.896 156.451 391.17C156.459 391.443 156.538 391.711 156.681 391.945C156.823 392.179 157.023 392.372 157.263 392.506C157.502 392.639 157.772 392.708 158.046 392.706C159.433 392.807 160.826 392.785 162.209 392.643C163.573 392.425 164.917 392.094 166.226 391.653C168.874 390.922 171.415 389.849 173.786 388.46C173.991 388.324 174.146 388.125 174.229 387.894C174.311 387.663 174.317 387.411 174.246 387.175C174.174 386.94 174.029 386.734 173.831 386.589C173.633 386.443 173.393 386.365 173.147 386.366C171.156 386.391 169.202 386.915 167.465 387.89C165.729 388.865 164.264 390.26 163.205 391.947C162.682 392.815 163.448 393.658 164.297 393.747C166.549 393.956 168.813 394.011 171.072 393.913C171.711 393.913 172.349 393.728 172.988 393.652C173.626 393.575 174.412 393.549 175.127 393.53C176.634 393.486 178.134 393.396 179.635 393.377C185.561 393.251 191.478 392.825 197.361 392.1C199.915 391.8 202.527 391.621 205.094 391.276C205.378 391.274 205.659 391.211 205.917 391.09C206.174 390.969 206.402 390.793 206.586 390.576C206.769 390.358 206.903 390.103 206.978 389.829C207.053 389.554 207.068 389.267 207.021 388.986C206.974 388.705 206.867 388.438 206.707 388.203C206.547 387.968 206.338 387.77 206.094 387.624C205.85 387.477 205.577 387.385 205.294 387.354C205.011 387.323 204.725 387.354 204.455 387.445C199.768 389.252 194.756 390.037 189.769 390.638C186.736 391.002 183.696 391.276 180.657 391.621C179.214 391.774 177.77 391.87 176.315 391.934C174.906 392.048 173.49 392.018 172.087 391.844C169.635 391.442 166.807 391.634 164.489 391.359L165.255 393.122C166.09 391.777 167.249 390.664 168.626 389.883C170.002 389.102 171.552 388.679 173.135 388.652C172.93 387.949 172.72 387.253 172.496 386.551C170.316 387.878 167.922 388.818 165.421 389.329C164.206 389.493 162.982 389.574 161.756 389.571C160.461 389.654 159.162 389.654 157.867 389.571L159.278 391.896C160.895 389.063 163.349 386.799 166.302 385.414C165.791 384.563 165.276 383.726 164.757 382.905C163.482 384.184 161.982 385.217 160.332 385.951C158.638 386.629 156.859 387.072 155.045 387.266C155.498 388.288 155.958 389.316 156.411 390.344C159.82 386.846 163.646 383.779 167.803 381.213C169.893 379.901 172.05 378.698 174.265 377.611C176.474 376.558 178.658 375.562 180.778 374.329C180.91 374.24 181.01 374.111 181.064 373.961C181.117 373.811 181.122 373.648 181.076 373.496C181.03 373.343 180.937 373.209 180.81 373.113C180.683 373.017 180.529 372.965 180.369 372.963L180.459 372.943Z" fill="#1E2525"/>
<path d="M258.853 210.197C262.747 214.615 266.372 219.264 269.708 224.118C271.376 226.587 272.908 229.145 274.299 231.78C275.717 234.462 276.853 236.952 277.939 239.545C280.185 245.025 281.881 250.715 283.003 256.53C283.137 257.214 283.264 257.897 283.379 258.58C283.418 258.784 283.45 258.982 283.482 259.187C283.558 259.646 283.399 258.606 283.513 259.378C283.577 259.781 283.635 260.189 283.692 260.591C283.897 262.047 284.063 263.503 284.19 264.972C284.448 267.895 284.552 270.83 284.503 273.765C284.503 275.272 284.407 276.779 284.305 278.279C284.261 278.969 284.216 279.658 284.152 280.348C284.12 280.757 284.075 281.159 284.037 281.561C284.037 281.632 283.986 282.04 284.037 281.644C284.037 281.887 283.98 282.13 283.954 282.372C282.89 291.345 280.255 300.06 276.17 308.118C273.278 313.851 269.979 319.37 266.298 324.631C262.652 329.931 258.7 335.001 254.907 340.193C251.114 345.384 247.244 350.531 243.738 355.92C240.233 361.309 236.606 366.66 233.617 372.414C232.89 373.825 232.123 375.217 231.408 376.641C230.77 377.88 232.73 378.927 233.285 377.675C238.649 365.683 247.072 355.384 255.36 345.314C263.648 335.244 271.962 324.759 278.392 313.252C284.516 302.25 288.5 290.163 289.292 277.551C290.034 265.314 288.168 253.058 283.82 241.595C281.64 235.835 278.823 230.338 275.423 225.203C272.071 220.165 268.099 215.306 263.355 211.519C262.199 210.6 261.024 209.731 259.798 208.908C258.974 208.352 258.265 209.546 258.834 210.223L258.853 210.197Z" fill="#1E2525"/>
<path d="M233.152 374.323C235.272 375.6 237.475 376.57 239.697 377.637C241.919 378.703 244.052 379.955 246.172 381.245C250.331 383.804 254.154 386.874 257.551 390.382C257.959 389.341 258.362 388.294 258.764 387.253C257.902 387.137 257.049 386.967 256.21 386.743C255.333 386.58 254.477 386.323 253.655 385.976C251.976 385.188 250.438 384.129 249.103 382.841L247.327 385.261C250.414 386.67 252.983 389.007 254.677 391.947L255.954 389.552C254.677 389.635 253.362 389.552 252.065 389.61C250.84 389.658 249.612 389.568 248.407 389.341C245.921 388.8 243.546 387.839 241.383 386.5C241.21 387.215 241.038 387.924 240.859 388.639C242.443 388.683 243.991 389.118 245.365 389.907C246.739 390.696 247.896 391.814 248.732 393.16L249.716 391.346C247.545 391.602 245.367 391.717 243.209 392.081C241.959 392.232 240.699 392.281 239.441 392.228C238.092 392.228 236.749 392.185 235.412 392.1C229.985 391.749 224.557 391.417 219.212 390.555C216.771 390.173 214.378 389.531 212.073 388.639C211.084 388.256 209.921 389.131 209.685 390.076C209.449 391.021 210.062 392.323 211.122 392.464C213.376 392.758 215.649 392.86 217.916 393.102C220.528 393.358 223.146 393.505 225.77 393.645C228.573 393.792 231.383 393.933 234.193 393.881C236.874 393.837 239.569 393.696 242.245 393.767C242.966 393.767 243.656 393.926 244.371 393.977C245.086 394.028 245.648 393.977 246.287 393.977C247.455 393.977 248.63 393.862 249.792 393.747C250 393.738 250.202 393.675 250.379 393.564C250.555 393.453 250.7 393.299 250.799 393.116C250.898 392.932 250.947 392.727 250.943 392.519C250.939 392.31 250.882 392.107 250.776 391.928C249.719 390.238 248.252 388.843 246.512 387.873C244.771 386.903 242.813 386.389 240.821 386.379C240.574 386.391 240.337 386.483 240.147 386.641C239.956 386.798 239.821 387.013 239.763 387.253C239.704 387.493 239.724 387.746 239.82 387.974C239.917 388.202 240.084 388.393 240.297 388.518C242.682 389.874 245.232 390.917 247.883 391.621C249.16 391.972 250.482 392.323 251.785 392.572C253.204 392.796 254.645 392.841 256.076 392.707C256.348 392.691 256.611 392.605 256.84 392.458C257.07 392.311 257.258 392.108 257.386 391.868C257.514 391.627 257.578 391.358 257.572 391.085C257.567 390.813 257.491 390.547 257.353 390.312C255.34 386.954 252.36 384.283 248.803 382.649C248.481 382.484 248.111 382.439 247.759 382.522C247.408 382.605 247.097 382.811 246.883 383.103C246.669 383.394 246.566 383.752 246.593 384.113C246.619 384.473 246.773 384.812 247.027 385.07C248.554 386.603 250.323 387.873 252.263 388.831C253.231 389.343 254.229 389.795 255.252 390.184C256.275 390.527 257.333 390.756 258.406 390.868C258.794 390.949 259.198 390.908 259.562 390.75C259.925 390.592 260.231 390.325 260.437 389.986C260.616 389.63 260.679 389.228 260.619 388.834C260.558 388.44 260.376 388.075 260.098 387.79C256.512 384.028 252.43 380.771 247.966 378.109C245.751 376.813 243.436 375.694 241.044 374.763C238.663 373.74 236.122 373.137 233.535 372.982C232.769 372.982 232.603 374.016 233.196 374.361L233.152 374.323Z" fill="#1E2525"/>
<path d="M159.648 202.215L157.899 202.247C157.777 202.247 157.382 202.247 157.714 202.247C157.372 202.218 157.028 202.238 156.692 202.305L155.651 202.49C155.319 202.547 155.013 202.611 154.642 202.662C154.272 202.713 155.281 202.547 154.489 202.662L154.08 202.745L153.518 202.873L151.156 203.403C147.712 204.19 144.281 205.027 140.862 205.912C133.289 207.885 125.742 210.216 118.392 212.936C115.097 214.15 111.828 215.433 108.622 216.87C105.889 218.031 103.248 219.399 100.723 220.963C96.726 223.568 92.8181 226.62 90.3406 230.79C89.1157 232.894 88.3504 235.234 88.0951 237.655C87.8397 240.077 88.1001 242.525 88.8591 244.838C90.3974 249.422 93.2923 253.43 97.1602 256.332C101.189 259.442 105.902 261.44 110.634 263.247C111.77 263.682 112.913 264.09 114.075 264.454C113.845 263.669 113.616 262.883 113.392 262.098C110.373 264.516 107.84 267.484 105.927 270.846C104.029 274.23 102.83 277.96 102.403 281.816C102.313 282.64 103.392 283.093 104.005 282.685C109.003 279.563 113.306 275.449 116.649 270.597C117.287 269.671 116.01 268.681 115.148 269.173C112.543 270.745 110.362 272.928 108.792 275.534C107.223 278.141 106.314 281.091 106.145 284.128C106.1 285.003 107.109 285.322 107.76 285.003C112.57 282.66 116.801 279.279 120.148 275.105C120.327 274.906 120.429 274.65 120.435 274.382C120.442 274.115 120.353 273.854 120.185 273.646C120.016 273.438 119.779 273.298 119.516 273.249C119.253 273.2 118.981 273.247 118.749 273.381C116.438 274.473 113.845 275.833 112.958 278.413C112.268 280.405 112.811 283.1 114.778 284.16C117.332 285.533 119.886 283.521 121.419 281.606C123.072 279.484 124.535 277.221 125.793 274.843C130.943 265.324 133.111 254.475 132.012 243.708C131.692 240.68 131.098 237.688 130.237 234.768C129.811 233.312 129.311 231.88 128.736 230.471C128.455 229.686 128.113 228.924 127.715 228.191C127.319 227.553 126.782 226.914 126.438 226.237C126.19 225.847 125.8 225.569 125.35 225.462C124.9 225.356 124.426 225.43 124.03 225.669C123.645 225.921 123.371 226.311 123.265 226.759C123.159 227.207 123.23 227.679 123.462 228.076C123.646 228.54 123.798 229.016 123.915 229.5C124.101 230.094 124.343 230.643 124.554 231.212C125.014 232.31 125.439 233.423 125.831 234.551C126.579 236.808 127.178 239.112 127.625 241.447C128.457 245.999 128.725 250.636 128.423 255.253C128.1 259.898 127.117 264.473 125.505 268.841C124.719 271.044 123.756 273.179 122.625 275.227C121.521 277.238 120.308 279.435 118.692 281.088C118.009 281.791 116.891 282.698 115.85 282.187C115.499 281.96 115.217 281.639 115.037 281.262C114.856 280.884 114.784 280.464 114.829 280.048C114.899 277.493 117.919 276.216 119.905 275.278L118.507 273.56C115.271 277.553 111.231 280.821 106.649 283.151L108.265 284.026C108.402 281.35 109.207 278.751 110.605 276.466C112.004 274.181 113.952 272.282 116.272 270.942L114.771 269.512C111.626 274.057 107.587 277.914 102.901 280.846L104.504 281.714C105.206 274.799 109.088 267.826 115.167 264.237C115.376 264.105 115.546 263.92 115.662 263.702C115.778 263.484 115.836 263.24 115.829 262.993C115.823 262.746 115.753 262.505 115.625 262.293C115.498 262.082 115.318 261.907 115.103 261.785C113.003 260.732 110.838 259.799 108.718 258.752C106.583 257.681 104.536 256.445 102.594 255.055C100.781 253.796 99.1204 252.33 97.6455 250.687C97.3571 250.368 97.0864 250.033 96.8346 249.685C96.5089 249.244 96.196 248.797 95.9087 248.337C95.6213 247.878 95.3468 247.411 95.0913 246.933C94.9721 246.707 94.8572 246.483 94.7465 246.262L94.5805 245.917C94.5103 245.764 94.5103 245.77 94.5805 245.917L94.4847 245.687C94.0789 244.696 93.7418 243.679 93.4758 242.642C93.412 242.399 93.3609 242.163 93.3098 241.92C93.3098 241.786 93.1949 241.205 93.2523 241.633C93.1809 241.067 93.1382 240.498 93.1246 239.928C93.1246 239.398 93.1246 238.88 93.1246 238.35C93.1246 238.05 93.1246 238.382 93.1246 238.433C93.1246 238.312 93.1565 238.197 93.1693 238.076C93.214 237.795 93.2651 237.514 93.3226 237.239C93.4371 236.716 93.5843 236.2 93.7632 235.694C93.8015 235.579 93.8398 235.458 93.8845 235.343C93.8845 235.394 93.7504 235.669 93.8845 235.394C94.0186 235.119 94.1144 234.864 94.2421 234.609C94.4831 234.129 94.7495 233.662 95.0403 233.21C95.1744 232.999 95.3084 232.795 95.4489 232.572C95.5894 232.348 95.4489 232.572 95.4106 232.616C95.5319 232.45 95.6596 232.291 95.7937 232.131C96.4774 231.288 97.22 230.494 98.0159 229.756C98.3862 229.404 98.7566 229.066 99.1461 228.734L99.4973 228.44L100.2 227.891C101.075 227.221 101.975 226.582 102.888 225.975C105.161 224.485 107.551 223.18 110.033 222.074C110.183 221.981 110.344 221.908 110.512 221.857L110.282 221.959L110.608 221.812L111.687 221.34C112.441 221.02 113.194 220.701 113.948 220.395C115.589 219.724 117.236 219.086 118.896 218.479C122.43 217.155 125.98 215.878 129.547 214.648C133.136 213.428 136.769 212.336 140.364 211.129C143.71 209.999 147.075 208.939 150.434 207.854C151.89 207.387 153.346 206.921 154.802 206.468C154.987 206.41 155.172 206.372 155.351 206.308C155.3 206.308 156.041 206.027 155.728 206.142C155.517 206.219 155.779 206.142 155.804 206.142C156.149 206.04 156.494 205.893 156.832 205.772L157.682 205.478C157.986 205.352 158.275 205.191 158.544 204.999C158.244 205.184 158.71 204.948 158.793 204.91L160.255 204.144C161.206 203.645 160.657 202.19 159.674 202.228L159.648 202.215Z" fill="#1E2525"/>
<path d="M129.72 220.899C130.89 223.017 131.393 225.438 131.163 227.847C131.174 228.021 131.252 228.184 131.38 228.303C131.509 228.422 131.678 228.487 131.852 228.485C132.026 228.472 132.189 228.394 132.307 228.266C132.426 228.138 132.491 227.97 132.491 227.795C132.703 225.165 132.043 222.537 130.614 220.318C130.537 220.202 130.418 220.12 130.282 220.09C130.146 220.06 130.004 220.084 129.885 220.157C129.767 220.23 129.681 220.346 129.647 220.481C129.612 220.616 129.631 220.759 129.7 220.88L129.72 220.899Z" fill="#1E2525"/>
<path d="M258.4 201.417C263.61 210.236 271.056 218.147 280.327 222.719C289.49 227.234 300.761 228.396 310.071 223.645C315.09 221.091 319.01 216.685 320.332 211.142C320.409 210.87 320.412 210.582 320.34 210.308C320.268 210.034 320.124 209.784 319.923 209.584C316.507 206.826 313.704 203.39 310.811 200.108L309.681 202.835C313.706 202.5 317.708 203.702 320.881 206.2C321.897 207.017 323.633 206.57 323.602 205.076C323.515 199.74 325.061 194.504 328.033 190.07L325.115 189.687C326.379 194.145 326.686 198.819 326.015 203.403C325.935 203.74 325.966 204.094 326.102 204.412C326.239 204.73 326.474 204.996 326.773 205.171C327.072 205.345 327.419 205.419 327.763 205.381C328.107 205.344 328.43 205.196 328.684 204.961L339.891 196.06L337.222 194.508L334.227 206.315C333.914 207.541 335.395 208.991 336.57 208.116L347.266 200.204L344.923 198.403C340.925 208.62 336.819 218.888 331.207 228.358C325.651 237.719 318.487 246.237 309.049 251.863C302.753 255.611 295.64 258.005 288.29 258.133C286.234 258.165 286.227 261.358 288.29 261.326C301.157 261.109 313.193 254.615 322.101 245.624C330.147 237.527 335.881 227.451 340.587 217.145C343.269 211.27 345.651 205.268 348 199.265C348.486 197.988 346.723 196.654 345.651 197.465L334.968 205.37L337.305 207.164C338.309 203.227 339.31 199.291 340.306 195.358C340.727 193.697 338.831 192.854 337.637 193.8L326.43 202.694L329.093 204.246C329.888 199.102 329.581 193.848 328.193 188.832C328.102 188.534 327.928 188.27 327.692 188.069C327.455 187.868 327.165 187.74 326.857 187.699C326.549 187.659 326.236 187.708 325.956 187.841C325.675 187.974 325.438 188.185 325.275 188.449C322.011 193.363 320.314 199.152 320.409 205.051L323.135 203.92C319.363 200.824 314.55 199.285 309.681 199.617C309.37 199.627 309.069 199.728 308.813 199.905C308.558 200.082 308.358 200.329 308.239 200.617C308.12 200.904 308.086 201.22 308.142 201.526C308.197 201.832 308.339 202.116 308.551 202.343C311.444 205.625 314.253 209.054 317.663 211.819L317.254 210.293C315.045 219.565 305.167 223.594 296.438 223.505C286.86 223.409 278.035 218.856 271.17 212.413C267.25 208.707 263.879 204.46 261.158 199.802C260.111 198.039 257.327 199.642 258.4 201.417Z" fill="#1E2525"/>
<path d="M198.542 33.4803C185.202 33.8423 172.05 36.7171 159.776 41.9538C148.613 46.6587 138.299 53.1672 129.247 61.2187C120.742 68.7782 113.315 77.469 107.173 87.0479C104.274 91.559 101.713 96.2779 99.5101 101.166C98.3671 103.72 97.3199 106.275 96.3685 108.905C96.2727 109.161 96.1769 109.416 96.0875 109.672C96.0428 109.806 95.8576 110.348 96.0875 109.672C95.979 109.978 95.8576 110.265 95.7555 110.572C95.5511 111.211 95.3532 111.804 95.1552 112.417C94.7721 113.643 94.4145 114.869 94.0761 116.108C91.5219 125.373 90.2448 135.124 90.9664 144.728C91.6049 153.463 93.8526 162.173 98.348 169.746C100.569 173.435 103.304 176.789 106.47 179.707C111.376 184.253 116.808 188.195 122.651 191.45C134.381 198.059 147.439 202.191 160.613 204.77C173.777 207.236 187.135 208.518 200.528 208.602C211.528 208.738 222.527 208.312 233.484 207.325C237.404 206.98 241.321 206.571 245.233 206.098L249.428 205.588C252.549 205.139 255.642 204.516 258.693 203.723C270.826 200.824 282.773 196.546 293.507 190.135C297.999 187.459 302.217 184.347 306.099 180.844C307.861 179.247 309.52 177.541 311.067 175.736C311.412 175.333 311.75 174.925 312.082 174.516L312.619 173.877C312.823 173.616 313.008 173.341 313.212 173.079C312.695 173.718 313.014 173.354 313.142 173.201C313.96 172.179 314.719 171.106 315.46 170.008C320.392 163.013 323.829 155.077 325.556 146.695C327.141 138.135 327.087 129.353 325.396 120.814C323.644 111.984 320.556 103.472 316.239 95.5725C311.601 87.0581 305.905 79.1647 299.286 72.0804C292.365 64.5771 284.543 57.9584 275.998 52.3749C267.085 46.5728 257.487 41.8991 247.423 38.4609C242.294 36.6436 237.01 35.2929 231.638 34.4253C229.314 34.0741 226.089 33.7868 223.433 33.493C220.572 33.1802 217.686 32.9567 214.832 32.8545C212.137 32.7438 209.442 32.7055 206.748 32.7396C205.351 32.7663 203.956 32.8729 202.571 33.0588C201.237 33.2249 199.883 33.5441 198.549 33.6335C198.178 33.6335 198.191 34.2338 198.549 34.2082C200.019 34.171 201.491 34.2265 202.955 34.3742C204.353 34.4509 205.745 34.4892 207.143 34.5083C209.966 34.5466 212.769 34.6999 215.579 34.9681C218.293 35.2363 220.994 35.6066 223.682 36.06C226.236 36.4751 228.892 37.2796 231.478 37.8862C236.708 39.1422 241.863 40.6921 246.919 42.5285L248.668 43.167L249.62 43.5246L250.015 43.6779C250.09 43.7031 250.162 43.733 250.233 43.7673C251.51 44.2653 252.729 44.7762 253.968 45.3125C256.318 46.3342 258.638 47.4261 260.928 48.5883C265.541 50.9417 270.006 53.5731 274.299 56.4679C275.334 57.164 276.362 57.8791 277.377 58.5943C277.869 58.9391 278.348 59.2839 278.833 59.6351L279.223 59.9225C278.769 59.5904 279.223 59.9225 279.293 59.9799L280.219 60.6313C282.185 62.1127 284.101 63.6516 285.966 65.2479C289.728 68.4499 293.296 71.8744 296.649 75.503C297.453 76.3799 298.245 77.2654 299.024 78.1594C299.394 78.5872 299.765 79.015 300.129 79.4365L300.716 80.1516C300.812 80.2666 300.908 80.3879 301.01 80.5028C300.639 80.0558 301.08 80.5922 301.144 80.6816C302.608 82.4951 304.013 84.3533 305.358 86.2561C308.043 90.0462 310.475 94.0095 312.638 98.1203C313.157 99.1037 313.655 100.096 314.132 101.096C314.362 101.575 314.585 102.047 314.809 102.526C314.866 102.66 314.93 102.788 314.988 102.922C315.205 103.382 314.783 102.456 314.988 102.922C315.115 103.203 315.243 103.49 315.364 103.771C316.241 105.781 317.044 107.82 317.772 109.889C319.214 113.96 320.322 118.141 321.086 122.391C321.13 122.615 321.169 122.832 321.207 123.03C321.245 123.228 321.245 123.298 321.271 123.432C321.354 123.924 321.188 122.87 321.271 123.362C321.354 123.854 321.431 124.422 321.501 124.952C321.641 125.991 321.756 127.032 321.846 128.075C322.024 130.111 322.101 132.161 322.082 134.211C322.082 135.258 322.037 136.312 321.98 137.359C321.996 138.363 321.913 139.366 321.731 140.354C321.948 139.575 321.731 140.386 321.692 140.628C321.654 140.871 321.641 141.056 321.609 141.267C321.545 141.778 321.469 142.295 321.386 142.806C321.22 143.834 321.028 144.856 320.805 145.877C320.386 147.83 319.864 149.759 319.24 151.656C319.081 152.154 318.908 152.652 318.729 153.144C318.597 153.653 318.413 154.147 318.18 154.619C318.589 153.98 318.219 154.517 318.123 154.753L317.816 155.481C317.612 155.973 317.395 156.452 317.178 156.937C316.309 158.842 315.332 160.697 314.253 162.492C313.998 162.92 313.736 163.348 313.468 163.769C313.112 164.186 312.811 164.648 312.574 165.142C312.65 165.04 312.721 164.931 312.791 164.829L312.325 165.468C312.251 165.584 312.17 165.694 312.082 165.8C312.67 165.161 312.082 165.8 311.942 165.985C311.59 166.445 311.239 166.898 310.875 167.352C308.029 170.852 304.865 174.081 301.425 177L300.148 178.085C299.694 178.462 300.729 177.619 300.269 177.983L299.905 178.277L299.049 178.947C298.087 179.692 297.108 180.414 296.112 181.112C293.979 182.6 291.808 184.018 289.567 185.333C287.326 186.648 284.842 187.957 282.403 189.12C281.764 189.439 281.068 189.726 280.41 190.052C281.285 189.618 280.327 190.084 280.117 190.18L278.916 190.703C277.569 191.278 276.202 191.827 274.836 192.357C268.722 194.679 262.456 196.58 256.082 198.046C254.379 198.442 252.676 198.813 250.973 199.157C250.673 199.215 249.818 199.228 249.607 199.426C249.735 199.304 250.392 199.324 249.83 199.387L248.917 199.496C247.48 199.675 246.044 199.854 244.601 200.02C235.661 201.073 226.721 201.878 217.711 202.306C205.482 202.939 193.225 202.751 181.021 201.744L178.722 201.527L177.445 201.399L176.806 201.335H176.774C175.088 201.182 173.403 200.945 171.723 200.696C168.454 200.249 165.185 199.726 161.941 199.1C155.419 197.875 148.989 196.207 142.695 194.107C141.163 193.587 139.641 193.042 138.129 192.472L137.542 192.242C136.871 191.98 138.117 192.472 137.446 192.204L136.278 191.731C135.505 191.412 134.732 191.093 133.966 190.754C131.012 189.477 128.123 188.047 125.301 186.463C122.516 184.908 119.817 183.203 117.217 181.355L116.719 180.997C117.306 181.419 116.719 180.997 116.636 180.927L115.819 180.288C115.11 179.746 114.414 179.197 113.724 178.628C112.511 177.632 111.323 176.598 110.174 175.525C109.337 174.739 108.52 173.948 107.741 173.111C107.4 172.749 107.068 172.379 106.745 172L106.343 171.528C106.266 171.432 106.189 171.33 106.106 171.24C106.745 171.923 106.304 171.477 106.164 171.304C104.976 169.803 103.892 168.222 102.92 166.572C102.409 165.721 101.926 164.833 101.47 163.91C101.26 163.495 101.055 163.073 100.864 162.633C100.806 162.518 100.762 162.396 100.704 162.288C101.113 163.067 100.87 162.658 100.787 162.467L100.449 161.828C99.656 159.955 98.9758 158.036 98.4118 156.081C97.8322 154.058 97.3632 152.006 97.007 149.932C96.9687 149.708 96.9368 149.485 96.8921 149.293C97.0837 150.296 96.8921 149.293 96.8602 149.064C96.7835 148.514 96.7069 147.965 96.6431 147.416C96.5153 146.35 96.4132 145.283 96.3366 144.223C96.0225 139.664 96.0951 135.086 96.5537 130.539C96.5537 130.265 96.6111 129.99 96.6367 129.716C96.675 129.345 96.5537 130.431 96.6367 129.888L96.6941 129.435C96.7644 128.834 96.841 128.228 96.924 127.621C97.0943 126.404 97.2901 125.186 97.5115 123.969C97.9393 121.6 98.4629 119.243 99.0631 116.906C99.7017 114.467 100.423 112.041 101.215 109.646C101.619 108.424 102.045 107.213 102.492 106.013C102.709 105.419 102.939 104.825 103.163 104.238C103.386 103.65 103.022 104.576 103.163 104.238C103.22 104.11 103.265 103.982 103.316 103.848L103.756 102.769C103.993 102.201 104.235 101.632 104.478 101.07C104.612 100.758 104.759 100.432 104.887 100.151L105.097 99.6145C105.002 99.8572 104.982 99.9082 105.046 99.755L105.289 99.2186C105.842 97.9798 106.419 96.7517 107.019 95.5342C108.182 93.1716 109.427 90.8515 110.755 88.574C112.126 86.2114 113.582 83.902 115.123 81.6458C116.751 79.181 118.085 77.3739 119.944 75.1071C135.176 56.5424 156.01 43.4082 179.328 37.6691C185.678 36.1521 192.116 35.0367 198.606 34.3295C198.719 34.3211 198.823 34.2682 198.897 34.1826C198.971 34.097 199.007 33.9856 198.999 33.873C198.99 33.7604 198.938 33.6557 198.852 33.5821C198.766 33.5084 198.655 33.4718 198.542 33.4803Z" fill="#1E2525"/>
<path d="M119.267 71.9201C117.02 69.6856 115.116 67.1315 113.616 64.3405C112.162 61.5412 111.183 58.5204 110.717 55.4009C109.823 49.2134 110.985 42.7385 114.765 37.6621C118.426 32.7508 123.547 29.1233 129.394 27.2985C132.324 26.3849 135.404 26.0509 138.462 26.3151C138.462 26.3151 139.209 26.3853 138.8 26.3151L139.26 26.3726C139.643 26.4237 140.026 26.4875 140.403 26.5514C141.239 26.7046 142.063 26.8962 142.88 27.1261C144.261 27.4885 145.604 27.9825 146.89 28.6011C149.995 30.1013 152.829 32.1083 155.274 34.5396C156.552 35.7337 157.746 37.0235 158.984 38.2623C160.122 39.5563 161.025 41.0386 161.654 42.6427C162.139 43.7027 163.786 42.8854 163.48 41.819C162.994 40.1332 162.203 38.6263 161.609 36.998C161.049 35.3921 160.241 33.8839 159.214 32.5282C156.98 29.7091 154.192 27.3773 151.022 25.6766C144.821 22.1965 137.55 21.1392 130.615 22.7091C123.68 24.2789 117.573 28.3644 113.475 34.1756C109.614 39.8092 107.789 46.5915 108.303 53.4022C108.942 60.8094 112.332 68.5741 118.462 73.0184C119.101 73.4973 119.784 72.4565 119.267 71.9201Z" fill="#1E2525"/>
<path d="M130.933 60.2987C127.102 56.8698 125.997 50.1842 128.89 45.8293C131.667 41.6532 137.35 39.7439 141.986 41.8256C143.254 42.3744 144.414 43.1465 145.409 44.1052C146.526 45.1844 147.101 46.5572 148.065 47.7385C148.895 48.7602 150.945 47.8726 150.741 46.5572C150.472 44.8268 149.317 43.3645 148.129 42.0874C147.055 40.9712 145.8 40.0431 144.419 39.3417C141.541 37.8606 138.204 37.5406 135.096 38.4477C129.234 40.2292 125.014 46.1613 125.754 52.3233C126.232 55.6189 127.978 58.5976 130.62 60.6244C130.844 60.7968 131.15 60.4903 130.933 60.2987Z" fill="#1E2525"/>
<path d="M303.64 81.0255C309.426 77.5901 313.308 71.1536 314.949 64.7681C316.622 58.1528 315.968 51.1635 313.097 44.9732C310.105 38.5985 304.872 33.5472 298.396 30.7812C291.919 28.0152 284.652 27.7278 277.977 29.9737C274.104 31.2297 270.553 33.32 267.575 36.0974C266.132 37.4575 264.938 39.0586 264.044 40.829C263.201 42.6042 262.218 44.2644 261.49 46.097C261.069 47.1889 262.805 47.7892 263.355 46.8313C264.081 45.3995 265.029 44.0914 266.164 42.9554C267.326 41.9209 268.533 40.9184 269.734 39.9287C269.485 40.1394 270.072 39.6668 270.034 39.6924L270.404 39.4114L271.33 38.7154C272.026 38.2237 272.716 37.7065 273.424 37.234C274.133 36.7615 274.74 36.3975 275.423 36.0207C275.762 35.8292 276.106 35.6504 276.458 35.478L276.873 35.2673L277.186 35.1204C278.677 34.4491 280.227 33.9147 281.815 33.524C283.241 33.1442 284.703 32.9152 286.176 32.8408C289.212 32.6052 292.263 32.9852 295.148 33.9582C297.972 34.9089 300.629 36.2988 303.021 38.0769C305.415 39.9122 307.524 42.0921 309.279 44.5453C311.086 47.0559 312.372 49.9036 313.06 52.9197C313.747 55.9359 313.823 59.0594 313.283 62.1054C312.71 65.5855 311.5 68.93 309.713 71.9709C307.867 75.0102 305.525 77.719 302.785 79.9847C302.178 80.5019 302.996 81.4278 303.64 81.0383V81.0255Z" fill="#1E2525"/>
<path d="M292.549 67.6351C295.022 66.0446 296.892 63.6735 297.862 60.8985C298.79 58.0032 298.587 54.8637 297.294 52.1121C296.061 49.347 293.933 47.0775 291.253 45.6691C288.398 44.1965 285.087 43.8721 282.001 44.7624C280.311 45.2446 278.733 46.0562 277.358 47.1506C275.954 48.2616 274.281 49.8005 273.84 51.6204C273.767 51.9566 273.804 52.3075 273.947 52.6208C274.089 52.934 274.329 53.1929 274.631 53.3587C274.932 53.5245 275.279 53.5885 275.62 53.5411C275.961 53.4936 276.277 53.3373 276.522 53.0954C276.916 52.6329 277.279 52.1444 277.607 51.6332C278.027 51.0872 278.497 50.5826 279.012 50.1262C279.886 49.3411 280.888 48.7125 281.975 48.268C284.262 47.2857 286.82 47.1299 289.21 47.8274C291.635 48.5503 293.72 50.1199 295.085 52.2504C296.45 54.381 297.005 56.9309 296.649 59.4362C296.17 62.4885 294.855 65.4002 292.313 67.2775C292.083 67.45 292.313 67.8203 292.549 67.6607V67.6351Z" fill="#1E2525"/>
</svg>
