<svg width="341" height="488" viewBox="0 0 341 488" fill="none" xmlns="http://www.w3.org/2000/svg">
<path d="M333.566 236.234L325.436 242.019C325.927 239.005 326.424 235.988 326.927 232.969C326.983 232.73 326.97 232.48 326.888 232.248C326.806 232.017 326.658 231.814 326.464 231.665C326.269 231.515 326.035 231.425 325.791 231.405C325.546 231.386 325.301 231.437 325.085 231.554L313.523 238.394C313.701 234.275 313.88 230.153 314.059 226.028C314.05 225.757 313.954 225.497 313.786 225.284C313.617 225.072 313.385 224.919 313.123 224.849C312.862 224.779 312.584 224.794 312.332 224.894C312.08 224.993 311.866 225.17 311.723 225.4C309.349 229.229 307.649 233.437 306.7 237.841C302.945 237.514 299.254 236.669 295.732 235.33C294.702 234.936 293.756 236.292 294.317 237.171C296.712 240.947 299.767 244.262 303.334 246.958C299.466 258.026 288.85 265.377 277.615 267.587C264.881 270.099 252.03 265.193 242.385 256.913C241.548 256.21 240.778 255.481 240.007 254.736C240.208 254.709 240.399 254.632 240.563 254.514C240.727 254.395 240.86 254.237 240.948 254.055C241.037 253.873 241.079 253.671 241.071 253.469C241.063 253.266 241.006 253.069 240.903 252.894C238.191 248.306 235.11 243.442 230.438 240.621C229.837 240.255 229.21 239.934 228.563 239.658C228.544 239.617 228.521 239.578 228.496 239.541C228.425 239.399 228.326 239.274 228.204 239.173C228.083 239.072 227.941 238.998 227.789 238.955C227.637 238.911 227.478 238.9 227.321 238.922C227.165 238.943 227.014 238.997 226.88 239.08C226.671 239.022 226.453 238.98 226.244 238.93C225.341 237.788 224.197 236.859 222.895 236.209C219.948 234.794 216.616 235.011 213.451 235.33C198.423 236.845 183.353 237.925 168.242 238.486C153.13 239.047 138.01 239.105 122.898 238.678C115.363 238.469 107.879 237.975 100.369 237.707C96.7497 237.524 93.1228 237.868 89.6025 238.729C86.2641 239.711 82.9803 240.871 79.7653 242.203C68.8816 246.347 56.8676 248.114 46.729 254.041C40.4713 255.845 34.3612 258.126 28.4527 260.865C23.957 262.942 19.5901 265.288 15.3755 267.889C11.5243 270.275 7.25451 272.853 4.99404 276.939C0.381013 285.261 5.74753 295.19 11.1559 301.662C17.1172 308.755 25.0523 313.916 33.9531 316.489C28.6636 322.419 24.608 329.344 22.0229 336.858C21.5876 338.139 23.2452 338.826 24.1243 338.08L25.3383 337.034C24.8538 338.389 24.5197 339.792 24.342 341.22C24.2248 342.191 25.489 342.735 26.2341 342.3C29.3989 340.442 32.3593 338.256 35.0666 335.778C34.6106 337.17 34.2498 338.591 33.9866 340.031C33.9378 340.244 33.944 340.465 34.0049 340.675C34.0657 340.885 34.1791 341.075 34.3342 341.229C34.4894 341.382 34.6811 341.493 34.8914 341.552C35.1016 341.611 35.3233 341.614 35.5355 341.563C38.7076 340.964 41.7107 339.679 44.3352 337.8C46.9597 335.92 49.1424 333.49 50.7308 330.679C50.7308 330.872 50.7978 331.065 50.8313 331.257C51.2458 325.601 52.0063 319.976 53.1085 314.412C55.4946 304.215 58.4248 293.323 62.636 283.092C61.0676 284.532 59.5662 286.042 58.1318 287.622C59.5718 286.042 61.0732 284.532 62.636 283.092C68.7979 268.123 77.7058 254.552 91.6202 246.598C77.6974 254.552 68.7979 268.123 62.636 283.092C78.409 268.575 100.361 261.367 120.923 258.319C168.208 252.409 224.603 256.938 256.777 293.75C249.184 275.238 237.684 258.583 223.062 244.924C237.684 258.583 249.184 275.238 256.777 293.75C261.193 298.81 265.048 304.334 268.272 310.226C265.048 304.334 261.193 298.81 256.777 293.75C259.51 300.33 261.765 307.098 263.525 314.002C266.93 313.472 270.289 312.677 273.571 311.625C273.789 310.056 273.97 308.474 274.115 306.878C273.97 308.479 273.789 310.062 273.571 311.625C282.878 308.567 291.52 303.772 299.039 297.492C310.618 287.932 319.392 275.39 325.914 261.953C329.668 254.105 332.836 245.99 335.391 237.674C335.742 236.661 334.461 235.589 333.566 236.234Z" fill="#5A4949"/>
<path d="M135.993 398.125C184.124 408.398 236.19 388.163 260.519 348.37C260.913 346.846 261.281 345.306 261.608 343.757C263.731 334.031 264.029 323.996 262.487 314.162L263.525 313.994C261.766 307.09 259.511 300.322 256.777 293.742C224.603 256.905 168.209 252.401 120.923 258.311C100.361 261.359 78.4095 268.567 62.6365 283.084C58.4504 293.315 55.495 304.207 53.109 314.404C52.0067 319.968 51.2462 325.593 50.8318 331.249C51.7371 336.223 52.2244 341.264 52.2885 346.319C68.2206 377.354 102.881 390.858 135.993 398.125Z" fill="white"/>
<path d="M231.443 403.567C243.96 386.873 255.254 368.713 260.52 348.369C236.19 388.162 184.124 408.397 135.993 398.125C102.881 390.858 68.2208 377.353 52.272 346.352C52.272 347.792 52.272 349.24 52.272 350.688C53.5948 355.017 55.1101 359.295 56.6004 363.581C57.0524 363.138 57.5129 362.702 57.9734 362.267C60.8952 369.944 65.3576 376.91 69.9957 383.708C69.8385 383.894 69.7469 384.127 69.7348 384.371C69.7227 384.614 69.7908 384.855 69.9287 385.056C78.2014 398.895 87.1682 412.308 96.7948 425.242C101.45 432.157 106.063 439.114 110.257 446.314C113.373 451.584 116.112 457.068 118.453 462.724C107.385 465.215 97.5023 471.419 90.4488 480.305C90.3152 480.442 90.2143 480.608 90.1535 480.789C90.0928 480.971 90.0737 481.164 90.0979 481.354C90.122 481.544 90.1887 481.726 90.2929 481.886C90.3972 482.047 90.5363 482.182 90.6999 482.281C103.409 489.297 118.278 487.639 132.083 485.806C139.593 484.678 147.159 483.962 154.747 483.662C163.018 483.47 171.298 483.888 179.561 484.198L208.027 485.295C208.259 485.29 208.486 485.22 208.681 485.093C208.876 484.967 209.032 484.789 209.132 484.579C209.232 484.368 209.271 484.135 209.246 483.904C209.221 483.672 209.132 483.453 208.989 483.269C209.902 483.631 210.836 483.938 211.786 484.19C212.623 484.416 213.703 483.57 213.335 482.649C212.966 481.728 212.581 480.774 212.196 479.845C214.37 480.299 216.626 480.157 218.726 479.435C218.959 479.361 219.165 479.223 219.322 479.036C219.479 478.849 219.579 478.621 219.61 478.379C219.642 478.138 219.604 477.892 219.501 477.671C219.397 477.45 219.233 477.263 219.028 477.132L190.989 459.551C191.019 459.518 191.045 459.481 191.065 459.442C202.3 439.324 217.646 421.935 231.443 403.567Z" fill="#5A4949"/>
<path d="M53.1088 28.9153C57.2948 23.0549 63.1553 19.706 70.6902 22.2176C76.4837 24.2604 80.226 28.3963 82.7376 33.3358C95.1921 26.7419 108.309 21.4829 121.869 17.6465C113.877 19.2544 106.035 21.5341 98.4269 24.4614C97.8242 22.8539 97.0874 21.3218 96.493 19.6976C95.7591 17.5921 94.6997 15.6146 93.3535 13.8372C90.4319 10.1307 86.782 7.062 82.6288 4.82041C74.4988 0.257696 64.9657 -1.12855 55.8729 0.929707C46.7801 2.98796 38.7734 8.34452 33.4008 15.9637C28.3377 23.35 25.9456 32.2424 26.6194 41.1721C27.3897 50.2977 32.2287 60.6456 39.3785 66.6065C44.812 61.1563 49.7934 55.2372 55.9134 50.5405C50.9069 43.7256 47.7422 36.107 53.1088 28.9153Z" fill="#5A4949"/>
<path d="M70.6899 22.2187C63.155 19.7071 57.2945 23.0559 53.1084 28.9164C47.7419 36.108 50.9066 43.7267 55.9131 50.5415C64.3467 44.0678 73.3083 38.3128 82.7038 33.3369C80.2257 28.3973 76.4834 24.2615 70.6899 22.2187Z" fill="#F5D4D6"/>
<path d="M270.783 34.7749C261.457 25.4484 249.368 31.8279 244.102 42.2428C252.716 48.1033 261.072 54.3824 269.159 61.08C276.091 53.1182 279.147 43.1303 270.783 34.7749Z" fill="#F5D4D6"/>
<path d="M295.129 30.1205C291.205 21.7626 284.344 15.1397 275.853 11.5132C267.362 7.88664 257.834 7.50982 249.082 10.4545C244.004 12.1012 239.349 14.8419 235.444 18.4833C233.552 20.2666 231.986 22.3659 230.815 24.687C230.028 26.3615 229.14 27.927 228.37 29.568C223.681 27.2796 218.895 25.2173 214.012 23.381C229.751 32.7577 244.905 42.8629 259.69 53.5206C254.577 49.6415 249.381 45.8824 244.101 42.2433C249.367 31.8284 261.456 25.4489 270.783 34.7754C279.021 43.0136 276.175 52.834 269.452 60.7289C275.34 65.1327 281.184 69.6313 286.983 74.2248C292.207 69.4694 295.841 62.7717 297.557 56.0741C299.75 47.4006 298.893 38.2368 295.129 30.1205Z" fill="#5A4949"/>
<path d="M311.237 129.548C308.939 117.974 304.891 106.817 299.232 96.4618C295.253 89.0955 290.636 82.0919 285.434 75.5316C285.962 75.1213 286.473 74.6944 286.975 74.2339C281.176 69.646 275.332 65.1474 269.444 60.7381C269.343 60.8469 269.251 60.9641 269.151 61.0813C266.036 58.5027 262.872 56.0078 259.682 53.5464C244.905 42.8636 229.752 32.7585 214.012 23.4236C212.338 22.7985 210.663 22.1985 208.989 21.6236C202.263 19.2409 195.337 17.4699 188.293 16.3324C185.245 15.872 181.018 15.4952 177.535 15.1101C173.784 14.6999 170 14.4069 166.257 14.2729C162.724 14.1278 159.191 14.0776 155.658 14.1222C153.827 14.1573 151.999 14.297 150.183 14.5408C148.509 14.7501 146.893 15.1101 145.26 15.2608C145.212 15.2167 145.155 15.1828 145.093 15.1612C145.031 15.1396 144.966 15.1308 144.9 15.1352C137.151 15.302 129.432 16.1594 121.835 17.6971C108.288 21.5197 95.1833 26.7618 82.7374 33.3362C75.9959 36.8945 69.4736 40.8533 63.2052 45.1911C61.3634 46.5557 59.5132 47.912 57.6211 49.2264C57.0518 49.6534 56.4741 50.0636 55.9466 50.5074L55.235 51.0683C50.7141 56.6692 45.2303 61.4078 40.0145 66.2469L39.5792 66.6572C39.102 67.3102 38.6164 67.9716 38.1475 68.6413C38.0393 68.8076 37.8755 68.93 37.6853 68.9868C37.4952 69.0435 37.2911 69.0309 37.1094 68.9511C32.7803 74.1395 28.7818 79.5949 25.1373 85.2851C21.3373 91.1996 17.9794 97.3867 15.0908 103.796C13.5922 107.145 12.2191 110.493 10.9717 113.943C10.8461 114.278 10.7205 114.613 10.6033 114.947C10.6033 115.065 10.4526 115.391 10.461 115.383C10.3689 115.642 10.2684 115.893 10.1763 116.153C9.90844 116.99 9.6489 117.769 9.38937 118.573C8.88704 120.18 8.4182 121.787 7.97448 123.412C4.62564 135.56 2.95122 148.344 3.89727 160.935C4.73448 172.388 7.68146 183.808 13.5754 193.737C16.4871 198.565 20.0699 202.954 24.2164 206.773C30.6484 212.733 37.7707 217.902 45.4313 222.169C60.8108 230.834 77.9318 236.251 95.2034 239.633C112.463 242.866 129.978 244.547 147.537 244.656C161.959 244.831 176.381 244.272 190.746 242.982C195.886 242.53 201.021 241.994 206.151 241.375L211.651 240.705C215.743 240.116 219.798 239.3 223.799 238.26C239.706 234.459 255.37 228.85 269.444 220.444C275.334 216.936 280.864 212.856 285.953 208.263C288.263 206.17 290.439 203.933 292.467 201.565C292.919 201.038 293.363 200.502 293.798 199.966L294.501 199.129C294.652 198.936 294.794 198.744 294.937 198.543L295.188 198.242C296.259 196.902 297.247 195.495 298.227 194.055C304.693 184.885 309.199 174.479 311.463 163.489C313.536 152.263 313.459 140.746 311.237 129.548Z" fill="white"/>
<path d="M162.373 140.172C162.21 140.096 162.031 140.056 161.85 140.056C161.669 140.056 161.491 140.096 161.327 140.172C160.923 139.925 160.497 139.718 160.054 139.552C157.558 138.66 154.997 137.957 152.394 137.451C151.467 137.215 150.528 137.031 149.581 136.898H149.346L149.02 136.84C148.057 136.723 147.605 137.803 147.865 138.581C147.396 138.316 146.878 138.148 146.343 138.088C145.808 138.027 145.266 138.076 144.75 138.23C144.051 138.563 143.391 138.973 142.783 139.452C141.999 140.199 141.542 141.225 141.51 142.307C141.395 142.446 141.31 142.609 141.263 142.783C141.215 142.958 141.206 143.141 141.236 143.319C141.265 143.498 141.332 143.668 141.433 143.818C141.534 143.969 141.666 144.096 141.82 144.191C141.906 144.251 141.996 144.307 142.088 144.358C142.537 145.035 143.168 145.573 143.908 145.909C144.648 146.245 145.468 146.366 146.274 146.258C146.928 146.175 147.551 145.934 148.091 145.555C148.779 146.497 149.779 147.164 150.912 147.439C151.765 147.631 152.654 147.585 153.482 147.305C154.128 147.283 154.762 147.123 155.34 146.834C155.918 146.545 156.426 146.134 156.831 145.631C157.232 145.963 157.705 146.197 158.212 146.315C158.719 146.433 159.247 146.431 159.753 146.309C160.211 146.186 160.639 145.969 161.009 145.672C161.254 145.675 161.497 145.623 161.72 145.522C162.052 145.372 162.346 145.15 162.581 144.872C162.816 144.594 162.985 144.266 163.077 143.914C163.889 142.826 163.847 140.858 162.373 140.172ZM157.459 143.01C157.444 142.86 157.416 142.712 157.375 142.566C158.023 142.86 158.608 143.275 159.1 143.789L159.175 143.881C158.539 144.124 157.928 143.588 157.459 143.01Z" fill="#C89D64"/>
<path d="M124.472 103.796C120.395 95.4235 113.086 91.9742 100.47 90.0737C14.0945 77.0049 37.2517 182.15 75.4788 172.958C105.71 167.198 133.037 125.563 124.472 103.796Z" fill="#5A4949"/>
<path d="M188.184 102.054C192.253 93.6815 199.562 90.2322 212.187 88.3317C298.554 75.3298 275.396 180.425 237.169 171.266C206.938 165.506 179.611 123.888 188.184 102.054Z" fill="#5A4949"/>
<path d="M161.502 139.025C159.489 138.792 157.507 138.34 155.592 137.677C153.822 137.123 152.007 136.731 150.166 136.505C146.926 136.187 143.603 137.049 141.627 139.795C139.953 142.106 139.785 145.463 142.054 147.464C142.573 147.948 143.182 148.324 143.848 148.571C144.513 148.817 145.22 148.929 145.929 148.9C146.638 148.871 147.334 148.701 147.977 148.401C148.62 148.101 149.196 147.676 149.674 147.151C150.151 146.626 150.519 146.011 150.757 145.343C150.995 144.675 151.098 143.966 151.059 143.257C151.021 142.549 150.843 141.855 150.534 141.216C150.226 140.577 149.793 140.006 149.262 139.536C149.125 139.409 148.961 139.315 148.782 139.26C148.603 139.205 148.414 139.192 148.229 139.22C148.044 139.248 147.868 139.317 147.714 139.423C147.559 139.528 147.43 139.667 147.337 139.829C145.353 143.554 147.513 149.038 151.933 149.633C156.353 150.227 160.02 145.003 157.894 141.085C157.788 140.917 157.64 140.78 157.465 140.687C157.29 140.593 157.094 140.547 156.896 140.552C156.698 140.557 156.504 140.614 156.334 140.716C156.165 140.818 156.024 140.962 155.927 141.135C154.428 144.567 157.953 149.072 161.712 147.539C164.851 146.259 165.42 141.495 162.8 139.427C162.675 139.322 162.529 139.243 162.372 139.197C162.215 139.15 162.05 139.136 161.888 139.156C161.725 139.175 161.569 139.228 161.427 139.31C161.286 139.393 161.163 139.504 161.066 139.635C160.969 139.767 160.9 139.918 160.864 140.077C160.827 140.237 160.824 140.402 160.854 140.563C160.884 140.724 160.946 140.877 161.038 141.013C161.129 141.149 161.247 141.264 161.385 141.353C162.716 142.19 162.34 144.626 161.067 145.338C159.393 146.3 157.191 143.906 157.919 142.232L155.96 142.282C157.241 144.651 154.545 147.925 151.983 147.305C149.421 146.686 148.266 143.211 149.472 141.009L147.554 141.302C149.137 142.767 148.634 145.932 146.307 146.284C145.775 146.378 145.228 146.321 144.727 146.12C144.227 145.918 143.793 145.58 143.475 145.143C143.157 144.707 142.969 144.19 142.93 143.651C142.892 143.113 143.006 142.574 143.26 142.098C144.557 139.142 148.032 138.657 150.912 138.916C152.628 139.075 154.327 139.494 156.027 139.753C157.836 140.088 159.684 140.147 161.511 139.929C161.627 139.914 161.735 139.856 161.812 139.768C161.89 139.679 161.933 139.566 161.933 139.448C161.933 139.33 161.89 139.216 161.812 139.128C161.735 139.039 161.627 138.982 161.511 138.966L161.502 139.025Z" fill="#1E2525"/>
<path d="M153.156 147.515C152.507 148.333 152.073 149.3 151.891 150.328C151.548 151.534 151.255 152.773 150.979 153.995C150.451 156.39 150.058 158.818 149.757 161.254C149.455 163.69 149.237 165.984 149.162 168.353C149.087 170.723 148.827 173.511 149.388 175.888C149.673 177.094 151.741 177.119 151.9 175.83C152.201 173.511 151.9 171.049 151.9 168.705C151.9 166.361 152.042 163.925 152.243 161.547C152.444 159.169 152.754 156.875 153.08 154.556C153.264 153.367 153.482 152.195 153.7 151.015C154.014 149.951 154.094 148.831 153.934 147.733C153.908 147.65 153.861 147.576 153.798 147.517C153.734 147.458 153.657 147.416 153.572 147.396C153.488 147.375 153.4 147.377 153.317 147.401C153.233 147.425 153.158 147.47 153.097 147.532L153.156 147.515Z" fill="#1E2525"/>
<path d="M136.796 156.021C134.745 159.102 135.071 163.706 136.185 167.047C137.388 170.678 139.846 173.762 143.117 175.745C150.007 179.873 159.359 178.542 164.499 172.279C167.237 168.93 169.188 164.234 168.175 159.897C167.831 158.44 165.897 159.06 165.78 160.282C165.462 163.631 164.859 166.762 162.867 169.55C160.968 172.241 158.156 174.151 154.955 174.925C151.776 175.67 148.437 175.29 145.508 173.849C142.578 172.408 140.239 169.995 138.889 167.022C138.169 165.352 137.725 163.576 137.575 161.764C137.514 159.931 137.61 158.097 137.859 156.28C137.91 155.661 137.072 155.602 136.796 156.021Z" fill="#1E2525"/>
<path d="M223.95 143.346C232.833 143.346 232.49 129.549 223.607 129.549C214.724 129.549 215.067 143.346 223.95 143.346Z" fill="#463CBA"/>
<path d="M229.601 138.121C229.659 138.11 229.711 138.08 229.749 138.035C229.786 137.989 229.807 137.933 229.807 137.874C229.807 137.815 229.786 137.758 229.749 137.713C229.711 137.668 229.659 137.638 229.601 137.627C229.544 137.638 229.492 137.668 229.454 137.713C229.417 137.758 229.396 137.815 229.396 137.874C229.396 137.933 229.417 137.989 229.454 138.035C229.492 138.08 229.544 138.11 229.601 138.121Z" fill="white"/>
<path d="M230.397 140.456C230.835 140.464 231.268 140.358 231.653 140.147C232.053 140.001 232.411 139.756 232.691 139.435C233.001 139.142 233.229 138.772 233.352 138.363C233.546 137.968 233.632 137.53 233.603 137.091C233.553 136.798 233.511 136.513 233.461 136.253C233.298 135.708 232.995 135.214 232.582 134.822L231.904 134.328C231.391 134.047 230.814 133.906 230.229 133.918C229.366 133.977 228.551 134.339 227.927 134.939C227.616 135.23 227.39 135.601 227.274 136.011C227.074 136.404 226.987 136.844 227.023 137.283C227.065 137.576 227.115 137.869 227.157 138.12C227.327 138.663 227.629 139.155 228.036 139.552L228.714 140.046C229.225 140.331 229.804 140.473 230.388 140.456H230.397Z" fill="white"/>
<path d="M92.4325 131.716L93.2697 133.499V133.382C92.5965 131.442 91.2669 129.799 89.5106 128.736L87.6018 127.982C86.2221 127.644 84.7775 127.679 83.4157 128.082C82.6391 128.251 81.8991 128.557 81.2306 128.987C80.0885 129.695 79.1461 130.684 78.4929 131.858C77.9603 132.744 77.6715 133.755 77.6557 134.789C77.4453 135.827 77.5205 136.904 77.8734 137.903C78.2635 139.199 78.9849 140.37 79.9664 141.302L80.0669 141.377L81.6994 142.575C82.328 142.887 82.9837 143.142 83.6585 143.336C84.6882 143.643 85.7814 143.666 86.8231 143.403C87.8702 143.333 88.8793 142.984 89.745 142.39L91.319 141.109C92.2708 140.118 92.9463 138.894 93.278 137.56V137.468L91.4194 140.816V140.758L92.5497 139.217C93.0714 138.379 93.3604 137.417 93.3869 136.429C93.5462 135.775 93.5288 135.091 93.3366 134.445C93.272 133.458 92.9423 132.506 92.3822 131.691L92.4325 131.716Z" fill="#463CBA"/>
<path d="M76.35 134.496L76.2328 134.597L75.8393 135.124L75.5965 135.744C75.5043 136.081 75.5043 136.436 75.5965 136.773C75.5982 137.002 75.665 137.226 75.7891 137.418C75.8487 137.631 75.9677 137.823 76.1323 137.971C76.2471 138.159 76.4086 138.315 76.6012 138.423C76.7644 138.575 76.9629 138.684 77.1789 138.741C77.4849 138.893 77.8261 138.959 78.1668 138.933L78.8533 138.825L79.4561 138.548L79.9668 138.138L80.3519 137.611C80.4356 137.401 80.5193 137.192 80.5947 136.991C80.6865 136.654 80.6865 136.298 80.5947 135.961C80.5901 135.736 80.5235 135.515 80.4021 135.325C80.297 135.001 80.106 134.712 79.8496 134.488L79.7407 134.396C79.2752 133.989 78.6839 133.756 78.0663 133.734L77.43 133.835C77.03 133.953 76.6688 134.175 76.3835 134.479L76.35 134.496Z" fill="white"/>
<path d="M86.7062 245.049C80.1591 249.529 74.4207 255.089 69.7359 261.492C64.9107 267.923 60.8297 274.88 57.5712 282.229C51.0944 297.007 47.7916 312.979 47.8763 329.113C48.1023 345.581 52.0945 361.779 59.5471 376.466C67.1573 391.745 77.6727 405.316 88.2717 418.611C93.6718 425.392 99.2225 432.048 104.597 438.855C109.876 445.648 114.578 452.87 118.654 460.446C119.659 462.272 120.546 464.155 121.4 466.056C121.452 466.252 121.547 466.435 121.676 466.591C121.806 466.747 121.969 466.873 122.152 466.96C122.336 467.048 122.536 467.094 122.739 467.095C122.943 467.097 123.144 467.055 123.329 466.971C123.514 466.887 123.678 466.764 123.811 466.61C123.944 466.456 124.041 466.275 124.097 466.079C124.152 465.884 124.164 465.678 124.132 465.478C124.1 465.277 124.025 465.086 123.912 464.917C116.276 449.73 106.682 435.749 96.6941 422.035C86.7062 408.322 76.2075 395.261 68.095 380.484C64.1075 373.4 60.9043 365.902 58.5424 358.123C57.4278 354.386 56.5332 350.587 55.8633 346.745C55.5703 345.07 55.3359 343.48 55.1015 341.403C54.8838 339.495 54.7247 337.577 54.5991 335.66C54.3536 331.822 54.3005 327.975 54.4401 324.132C54.5182 322.156 54.6438 320.183 54.8168 318.213C54.8168 317.727 54.9005 317.25 54.9508 316.773C54.9508 316.555 54.9926 316.346 55.0178 316.136C54.9591 316.672 55.0178 316.136 55.0178 316.036C55.1433 314.973 55.2773 313.909 55.428 312.855C56.5425 305.155 58.4101 297.584 61.0038 290.25C62.2429 286.759 63.6326 283.552 65.3238 279.885C66.9479 276.398 68.756 273 70.7406 269.705C72.7834 266.297 75.0522 263.074 77.3043 259.884C79.5564 256.695 81.9592 254.024 84.3285 251.085C85.5508 249.595 86.8401 248.13 88.0708 246.682C88.8494 245.794 87.7778 244.304 86.7229 245.007L86.7062 245.049Z" fill="#1E2525"/>
<path d="M143.871 398.125C144.638 398.952 145.617 399.554 146.701 399.867C147.755 400.26 148.768 400.771 149.848 401.106C152.137 401.728 154.481 402.127 156.848 402.295C159.153 402.528 161.471 402.615 163.788 402.554C166.235 402.473 168.666 402.125 171.038 401.516C174.245 400.746 173.357 395.748 170.134 395.848C167.957 395.923 165.797 395.957 163.629 396.074C161.461 396.191 159.284 396.158 157.107 396.133C154.93 396.108 152.921 395.898 150.828 395.798C149.723 395.798 148.643 395.907 147.538 395.798C146.466 395.641 145.372 395.744 144.348 396.099C144.153 396.165 143.978 396.279 143.84 396.431C143.701 396.583 143.604 396.768 143.556 396.968C143.508 397.168 143.512 397.377 143.567 397.575C143.622 397.773 143.727 397.954 143.871 398.1V398.125Z" fill="#1E2525"/>
<path d="M158.773 400.662C158.514 401.257 158.29 401.866 158.103 402.487C157.961 403.115 157.844 403.751 157.726 404.379C157.492 405.652 157.266 406.891 157.09 408.197C156.73 410.809 156.47 413.429 156.328 416.058C156.186 418.687 156.211 421.333 156.211 423.962C156.211 425.284 156.211 426.607 156.295 427.922C156.295 428.524 156.345 429.119 156.42 429.713C156.462 430.04 156.496 430.375 156.546 430.701C156.657 431.089 156.794 431.47 156.956 431.84C157.127 433.04 157.172 434.255 157.09 435.465C157.09 436.796 157.09 438.119 157.149 439.45C157.149 442.104 157.249 444.766 157.274 447.42C157.274 448.684 157.274 449.932 157.274 451.204C157.274 452.603 157.659 453.967 157.684 455.39C157.743 458.028 157.601 460.682 157.467 463.31C157.391 464.759 157.467 466.216 157.308 467.647C157.149 469.079 157.006 470.527 156.864 471.976C156.724 473.381 156.512 474.778 156.228 476.162C156.077 476.915 155.977 477.702 155.893 478.464C155.893 478.673 155.801 479.017 155.893 478.724C155.598 479.23 155.271 479.717 154.913 480.18C154.667 480.633 154.536 481.139 154.533 481.654C154.529 482.17 154.653 482.678 154.893 483.134C155.132 483.59 155.481 483.979 155.907 484.268C156.334 484.557 156.825 484.737 157.338 484.79C157.85 484.844 158.368 484.771 158.845 484.576C159.322 484.382 159.744 484.073 160.073 483.677C160.402 483.28 160.628 482.809 160.731 482.304C160.835 481.799 160.812 481.277 160.665 480.783C160.535 480.319 160.37 479.866 160.171 479.427C160.104 479.268 160.096 478.966 160.129 479.318C160.121 478.672 160.154 478.026 160.23 477.384C160.28 476.086 160.163 474.789 160.23 473.491C160.288 470.879 160.163 468.267 160.23 465.655C160.297 463.043 160.171 460.389 160.087 457.751C160.013 456.429 160.027 455.103 160.129 453.783C160.253 452.461 160.281 451.132 160.213 449.806C159.978 444.498 159.644 439.19 159.526 433.899C159.446 433.238 159.432 432.571 159.484 431.907C159.647 431.449 159.781 430.982 159.886 430.509C160.012 429.11 160.02 427.729 160.029 426.323C160.029 423.685 160.029 421.048 160.029 418.411C160.073 415.531 160.087 412.651 160.07 409.771C160.07 408.348 160.07 406.916 160.07 405.493C160.07 404.714 160.07 403.944 160.07 403.165C160.07 402.387 159.911 401.65 159.853 400.855C159.843 400.724 159.787 400.601 159.696 400.507C159.605 400.413 159.483 400.354 159.353 400.34C159.223 400.326 159.092 400.358 158.983 400.431C158.874 400.503 158.794 400.612 158.756 400.737L158.773 400.662Z" fill="#1E2525"/>
<path d="M121.224 460.129C117.879 460.33 114.593 461.109 111.513 462.431C108.318 463.69 105.223 465.187 102.253 466.91C96.3958 470.401 91.0438 474.677 86.3461 479.619C85.0401 481.017 86.0029 483.922 88.1378 483.663C91.1313 483.335 94.0305 482.419 96.6689 480.967C99.2208 479.629 101.571 477.938 103.651 475.944C103.982 475.591 104.173 475.13 104.19 474.647C104.207 474.163 104.048 473.69 103.743 473.315C103.433 472.949 103.004 472.703 102.532 472.621C102.059 472.538 101.572 472.624 101.156 472.863C96.5008 475.042 92.6091 478.571 89.988 482.993C89.8199 483.311 89.7372 483.666 89.7477 484.025C89.7583 484.385 89.8619 484.735 90.0483 485.042C90.2348 485.349 90.4977 485.602 90.8115 485.777C91.1252 485.953 91.479 486.043 91.8382 486.041C93.6567 486.172 95.4832 486.144 97.2968 485.957C99.0853 485.672 100.847 485.238 102.563 484.659C106.035 483.701 109.367 482.294 112.475 480.473C112.744 480.295 112.947 480.034 113.056 479.731C113.165 479.427 113.172 479.097 113.078 478.789C112.984 478.48 112.794 478.211 112.534 478.019C112.275 477.828 111.961 477.726 111.638 477.727C109.027 477.76 106.466 478.447 104.189 479.725C101.911 481.004 99.991 482.832 98.6029 485.044C97.9164 486.183 98.921 487.288 100.035 487.405C102.987 487.679 105.955 487.751 108.917 487.623C109.755 487.623 110.592 487.38 111.429 487.28C112.266 487.179 113.296 487.146 114.234 487.121C116.209 487.062 118.177 486.945 120.144 486.92C127.915 486.755 135.672 486.196 143.385 485.245C146.734 484.852 150.158 484.617 153.524 484.165C153.897 484.163 154.265 484.079 154.603 483.921C154.94 483.762 155.24 483.532 155.48 483.247C155.72 482.961 155.895 482.627 155.994 482.267C156.092 481.908 156.112 481.531 156.05 481.163C155.989 480.795 155.849 480.444 155.639 480.136C155.429 479.828 155.155 479.568 154.835 479.376C154.515 479.184 154.157 479.064 153.786 479.023C153.416 478.983 153.04 479.023 152.687 479.142C146.542 481.511 139.969 482.541 133.431 483.328C129.454 483.805 125.469 484.165 121.484 484.617C119.592 484.818 117.7 484.944 115.791 485.028C113.944 485.177 112.087 485.138 110.248 484.91C107.034 484.383 103.325 484.634 100.286 484.274L101.29 486.585C102.386 484.822 103.905 483.363 105.71 482.339C107.514 481.315 109.547 480.76 111.622 480.724C111.354 479.803 111.077 478.891 110.784 477.97C107.926 479.71 104.787 480.942 101.508 481.612C99.9152 481.827 98.3097 481.933 96.7024 481.93C95.0046 482.039 93.3016 482.039 91.6038 481.93L93.454 484.977C95.5745 481.263 98.7911 478.295 102.663 476.48C101.994 475.363 101.318 474.267 100.637 473.189C98.9661 474.867 96.999 476.221 94.8354 477.183C92.6146 478.072 90.2821 478.653 87.9033 478.908C88.4978 480.247 89.1006 481.595 89.695 482.943C94.165 478.356 99.1811 474.335 104.631 470.971C107.371 469.251 110.199 467.674 113.103 466.249C116 464.868 118.863 463.561 121.643 461.946C121.816 461.829 121.947 461.66 122.018 461.463C122.088 461.267 122.094 461.053 122.034 460.853C121.974 460.653 121.852 460.477 121.685 460.351C121.518 460.226 121.316 460.157 121.107 460.154L121.224 460.129Z" fill="#1E2525"/>
<path d="M224.008 246.75C229.115 252.542 233.868 258.637 238.241 265.001C240.427 268.239 242.437 271.593 244.261 275.048C246.119 278.564 247.609 281.829 249.033 285.228C251.978 292.413 254.201 299.873 255.672 307.498C255.848 308.394 256.015 309.29 256.166 310.185C256.216 310.453 256.258 310.713 256.3 310.981C256.4 311.584 256.191 310.219 256.341 311.232C256.425 311.759 256.501 312.295 256.576 312.823C256.844 314.731 257.061 316.64 257.229 318.566C257.567 322.399 257.704 326.247 257.639 330.094C257.639 332.07 257.514 334.046 257.38 336.013C257.321 336.917 257.262 337.822 257.179 338.726C257.137 339.262 257.078 339.789 257.028 340.317C257.028 340.409 256.961 340.944 257.028 340.425C257.028 340.744 256.953 341.062 256.919 341.38C255.524 353.143 252.069 364.57 246.714 375.136C242.922 382.653 238.596 389.888 233.77 396.786C228.99 403.735 223.807 410.383 218.834 417.189C213.861 423.996 208.788 430.744 204.192 437.81C199.595 444.876 194.84 451.892 190.922 459.435C189.967 461.285 188.963 463.11 188.025 464.977C187.188 466.601 189.758 467.974 190.487 466.333C197.519 450.611 208.562 437.106 219.429 423.904C230.296 410.701 241.196 396.954 249.627 381.867C257.656 367.442 262.88 351.594 263.918 335.059C264.89 319.014 262.445 302.945 256.743 287.916C253.885 280.364 250.192 273.156 245.734 266.424C241.339 259.819 236.131 253.448 229.911 248.483C228.395 247.277 226.855 246.139 225.247 245.059C224.167 244.33 223.238 245.896 223.983 246.783L224.008 246.75Z" fill="#1E2525"/>
<path d="M190.311 461.937C193.091 463.611 195.979 464.884 198.893 466.282C201.806 467.68 204.603 469.321 207.382 471.012C212.835 474.368 217.847 478.392 222.301 482.993C222.837 481.628 223.364 480.255 223.892 478.89C222.763 478.738 221.644 478.515 220.543 478.221C219.394 478.007 218.271 477.671 217.194 477.216C214.993 476.182 212.976 474.793 211.225 473.105L208.897 476.278C212.944 478.126 216.312 481.19 218.534 485.044L220.208 481.904C218.534 482.013 216.809 481.904 215.11 481.98C213.502 482.043 211.893 481.925 210.312 481.628C207.053 480.918 203.939 479.658 201.103 477.902C200.877 478.84 200.651 479.769 200.417 480.707C202.493 480.764 204.523 481.336 206.325 482.37C208.126 483.405 209.643 484.87 210.739 486.635L212.029 484.257C209.182 484.592 206.327 484.742 203.497 485.22C201.859 485.418 200.207 485.482 198.558 485.412C196.789 485.412 195.028 485.356 193.275 485.245C186.159 484.784 179.043 484.349 172.035 483.219C168.834 482.718 165.696 481.876 162.675 480.707C161.377 480.205 159.854 481.352 159.544 482.591C159.234 483.83 160.038 485.538 161.428 485.722C164.383 486.107 167.363 486.241 170.336 486.559C173.76 486.894 177.192 487.087 180.633 487.271C184.309 487.463 187.992 487.648 191.676 487.581C195.192 487.522 198.725 487.338 202.233 487.43C203.179 487.43 204.084 487.639 205.021 487.706C205.959 487.773 206.696 487.706 207.533 487.706C209.065 487.706 210.605 487.556 212.129 487.405C212.402 487.392 212.667 487.309 212.898 487.164C213.129 487.019 213.319 486.817 213.448 486.576C213.578 486.336 213.644 486.067 213.638 485.794C213.633 485.521 213.557 485.254 213.418 485.019C212.033 482.804 210.11 480.975 207.828 479.703C205.546 478.431 202.979 477.757 200.366 477.743C200.042 477.76 199.733 477.88 199.483 478.087C199.233 478.293 199.056 478.575 198.979 478.89C198.902 479.205 198.928 479.537 199.055 479.835C199.181 480.134 199.4 480.384 199.68 480.548C202.807 482.326 206.149 483.694 209.626 484.617C211.3 485.077 213.033 485.538 214.741 485.864C216.602 486.157 218.492 486.216 220.367 486.04C220.724 486.019 221.069 485.907 221.37 485.715C221.671 485.522 221.917 485.255 222.085 484.94C222.253 484.625 222.337 484.272 222.33 483.915C222.322 483.558 222.223 483.208 222.042 482.901C219.403 478.498 215.495 474.996 210.831 472.854C210.41 472.638 209.925 472.579 209.464 472.687C209.002 472.796 208.595 473.066 208.315 473.448C208.034 473.83 207.9 474.3 207.934 474.773C207.969 475.245 208.171 475.69 208.504 476.027C210.506 478.037 212.825 479.703 215.369 480.958C216.638 481.629 217.946 482.222 219.287 482.733C220.629 483.183 222.016 483.483 223.423 483.629C223.932 483.736 224.461 483.682 224.938 483.475C225.415 483.268 225.816 482.918 226.085 482.474C226.32 482.007 226.403 481.479 226.324 480.963C226.244 480.447 226.006 479.968 225.642 479.594C220.939 474.661 215.588 470.392 209.735 466.902C206.83 465.202 203.795 463.735 200.659 462.515C197.537 461.173 194.206 460.382 190.814 460.179C189.809 460.179 189.591 461.535 190.37 461.987L190.311 461.937Z" fill="#1E2525"/>
<path d="M93.9396 236.283L91.6456 236.325C91.4866 236.325 90.9675 236.325 91.4028 236.325C90.955 236.287 90.5041 236.313 90.0633 236.4L88.6986 236.643C88.2633 236.719 87.8614 236.802 87.3759 236.869C86.8903 236.936 88.2131 236.719 87.1749 236.869L86.6391 236.978L85.9024 237.146L82.8047 237.84C78.2893 238.873 73.7907 239.97 69.3089 241.131C59.3795 243.718 49.4837 246.773 39.8474 250.34C35.5274 251.931 31.2409 253.613 27.0381 255.497C23.4541 257.019 19.9919 258.813 16.6818 260.864C11.4409 264.28 6.31714 268.281 3.06877 273.748C1.46282 276.507 0.459434 279.575 0.124653 282.75C-0.210128 285.924 0.131293 289.134 1.12644 292.167C3.14333 298.177 6.9389 303.433 12.0102 307.237C17.293 311.314 23.4716 313.934 29.6753 316.304C31.1655 316.873 32.6642 317.409 34.1879 317.886C33.8865 316.856 33.5851 315.827 33.2921 314.797C29.3337 317.967 26.0127 321.859 23.5051 326.267C21.0158 330.703 19.4442 335.594 18.8837 340.65C18.7665 341.73 20.1814 342.324 20.9851 341.788C27.537 337.696 33.179 332.302 37.5618 325.94C38.399 324.726 36.7246 323.428 35.5944 324.073C32.1792 326.133 29.3187 328.996 27.2615 332.413C25.2042 335.831 24.0125 339.698 23.7897 343.681C23.7311 344.828 25.0539 345.246 25.9079 344.828C32.2143 341.755 37.7613 337.323 42.1497 331.851C42.3842 331.59 42.5178 331.254 42.5267 330.903C42.5355 330.553 42.419 330.21 42.198 329.938C41.9771 329.665 41.6662 329.481 41.3212 329.417C40.9763 329.353 40.6199 329.415 40.3163 329.59C37.2856 331.022 33.8865 332.805 32.7228 336.188C31.8186 338.8 32.5302 342.333 35.1088 343.722C38.4577 345.522 41.8065 342.885 43.8158 340.374C45.9831 337.592 47.9021 334.625 49.5507 331.508C56.304 319.027 59.1453 304.803 57.7051 290.685C57.2853 286.716 56.5063 282.793 55.3777 278.964C54.8195 277.055 54.1637 275.177 53.4102 273.33C53.0412 272.301 52.5933 271.301 52.0707 270.341C51.5516 269.504 50.8484 268.666 50.3963 267.779C50.0719 267.267 49.56 266.902 48.97 266.763C48.3801 266.624 47.7591 266.721 47.24 267.034C46.7346 267.364 46.3754 267.876 46.2367 268.463C46.098 269.051 46.1904 269.669 46.4949 270.19C46.7367 270.798 46.9353 271.422 47.0893 272.057C47.3321 272.836 47.6502 273.556 47.9265 274.301C48.5293 275.741 49.0874 277.2 49.6009 278.68C50.5818 281.639 51.3677 284.659 51.9535 287.721C53.0435 293.689 53.395 299.768 53 305.822C52.5755 311.912 51.2873 317.91 49.1739 323.638C48.1425 326.525 46.8798 329.325 45.3981 332.01C43.9498 334.647 42.3591 337.527 40.2409 339.695C39.3451 340.616 37.88 341.805 36.5153 341.135C36.0543 340.838 35.6849 340.418 35.4484 339.923C35.2119 339.428 35.1175 338.876 35.1758 338.331C35.2679 334.982 39.2279 333.308 41.8316 332.077L39.9981 329.825C35.7554 335.061 30.4583 339.345 24.4511 342.4L26.5693 343.547C26.7494 340.038 27.8043 336.631 29.638 333.635C31.4717 330.639 34.0259 328.149 37.0679 326.392L35.1004 324.517C30.9765 330.477 25.6808 335.533 19.5367 339.377L21.6381 340.516C22.559 331.449 27.6493 322.307 35.6195 317.601C35.8927 317.428 36.1163 317.186 36.2684 316.9C36.4205 316.614 36.4961 316.294 36.4876 315.97C36.4792 315.647 36.3871 315.331 36.2203 315.053C36.0535 314.776 35.8177 314.546 35.5358 314.387C32.7814 313.005 29.9432 311.783 27.1637 310.41C24.3651 309.006 21.6807 307.385 19.1348 305.562C16.7576 303.911 14.5802 301.99 12.6465 299.836C12.2683 299.417 11.9134 298.979 11.5832 298.521C11.1562 297.944 10.746 297.358 10.3692 296.755C9.9925 296.152 9.6325 295.541 9.29761 294.913C9.14133 294.617 8.99064 294.324 8.84552 294.034L8.62785 293.582C8.53575 293.381 8.53575 293.389 8.62785 293.582L8.50226 293.28C7.97012 291.981 7.52814 290.647 7.17947 289.287C7.09575 288.969 7.02877 288.659 6.9618 288.341C6.9618 288.165 6.8111 287.403 6.88645 287.964C6.79275 287.222 6.73686 286.476 6.71901 285.729C6.71901 285.034 6.71901 284.356 6.71901 283.661C6.71901 283.267 6.71901 283.703 6.71901 283.77C6.71901 283.611 6.76087 283.46 6.77761 283.301C6.83622 282.933 6.90319 282.564 6.97854 282.204C7.12872 281.517 7.32166 280.841 7.55622 280.178C7.60645 280.027 7.65668 279.868 7.71529 279.718C7.71529 279.785 7.53947 280.145 7.71529 279.785C7.8911 279.425 8.01668 279.09 8.18412 278.755C8.50011 278.126 8.84944 277.514 9.23064 276.921C9.40645 276.645 9.58227 276.377 9.76645 276.084C9.95064 275.791 9.76645 276.084 9.71622 276.143C9.87529 275.925 10.0427 275.716 10.2185 275.507C11.115 274.401 12.0886 273.36 13.132 272.392C13.6176 271.932 14.1032 271.488 14.6139 271.053L15.0744 270.667L15.9953 269.947C17.1423 269.068 18.3227 268.231 19.52 267.436C22.5003 265.482 25.6332 263.771 28.8883 262.32C29.0843 262.199 29.2954 262.103 29.5162 262.036L29.2148 262.17L29.6418 261.977L31.0567 261.358C32.0446 260.939 33.0325 260.52 34.0204 260.119C36.1721 259.24 38.3321 258.402 40.5088 257.607C45.1414 255.871 49.7963 254.197 54.4735 252.584C59.1786 250.985 63.9423 249.553 68.6558 247.971C73.0428 246.489 77.4549 245.099 81.8586 243.676C83.7675 243.065 85.6763 242.453 87.5852 241.859C87.8279 241.784 88.0707 241.733 88.3052 241.65C88.2382 241.65 89.2094 241.281 88.7991 241.432C88.5228 241.533 88.8661 241.432 88.8996 241.432C89.3517 241.298 89.8038 241.106 90.2475 240.946L91.361 240.561C91.7602 240.395 92.1394 240.185 92.4912 239.933C92.0977 240.176 92.7089 239.866 92.8177 239.816L94.7349 238.812C95.9824 238.159 95.2624 236.25 93.9731 236.3L93.9396 236.283Z" fill="#1E2525"/>
<path d="M54.6993 260.781C56.2335 263.557 56.893 266.732 56.5914 269.89C56.6064 270.119 56.7085 270.333 56.8767 270.489C57.0449 270.644 57.2664 270.73 57.4956 270.727C57.7236 270.71 57.9368 270.607 58.0921 270.44C58.2474 270.272 58.3335 270.052 58.3328 269.823C58.6107 266.373 57.7457 262.928 55.8714 260.019C55.7707 259.867 55.6148 259.76 55.4366 259.721C55.2584 259.681 55.0719 259.713 54.9165 259.808C54.7611 259.904 54.6489 260.056 54.6037 260.233C54.5585 260.41 54.5838 260.597 54.6742 260.756L54.6993 260.781Z" fill="#1E2525"/>
<path d="M223.414 235.238C230.246 246.799 240.008 257.173 252.164 263.167C264.178 269.086 278.955 270.61 291.161 264.381C297.742 261.032 302.882 255.255 304.615 247.988C304.716 247.631 304.719 247.253 304.625 246.894C304.531 246.535 304.343 246.207 304.08 245.946C299.6 242.329 295.925 237.825 292.133 233.521L290.651 237.096C295.927 236.656 301.175 238.233 305.335 241.508C306.667 242.58 308.944 241.994 308.902 240.035C308.788 233.038 310.815 226.173 314.712 220.36L310.886 219.858C312.543 225.702 312.946 231.831 312.067 237.841C311.962 238.283 312.002 238.747 312.181 239.164C312.36 239.581 312.668 239.93 313.06 240.159C313.452 240.387 313.907 240.484 314.358 240.435C314.809 240.385 315.233 240.192 315.566 239.884L330.259 228.213L326.76 226.179L322.833 241.659C322.423 243.266 324.365 245.167 325.906 244.02L339.929 233.647L336.856 231.286C331.615 244.681 326.232 258.144 318.873 270.56C311.589 282.833 302.196 294.001 289.822 301.377C281.567 306.292 272.24 309.431 262.604 309.599C259.908 309.641 259.9 313.827 262.604 313.785C279.474 313.5 295.255 304.986 306.934 293.198C317.483 282.582 325.001 269.371 331.172 255.858C334.688 248.156 337.811 240.286 340.892 232.416C341.528 230.742 339.217 228.992 337.811 230.055L323.804 240.42L326.868 242.773C328.186 237.61 329.497 232.45 330.803 227.293C331.356 225.116 328.869 224.011 327.304 225.25L312.611 236.912L316.102 238.946C317.144 232.202 316.742 225.313 314.921 218.736C314.803 218.347 314.575 217.999 314.265 217.736C313.954 217.473 313.574 217.304 313.17 217.251C312.767 217.198 312.356 217.263 311.988 217.437C311.62 217.611 311.31 217.888 311.095 218.234C306.816 224.677 304.592 232.267 304.716 240.001L308.291 238.519C303.344 234.46 297.035 232.442 290.651 232.877C290.243 232.891 289.848 233.022 289.513 233.254C289.178 233.487 288.916 233.811 288.76 234.188C288.604 234.564 288.56 234.978 288.632 235.38C288.704 235.781 288.891 236.153 289.169 236.452C292.961 240.755 296.645 245.251 301.116 248.876L300.58 246.875C297.683 259.031 284.732 264.314 273.287 264.197C260.729 264.071 249.159 258.102 240.159 249.654C235.018 244.795 230.598 239.227 227.031 233.119C225.658 230.809 222.008 232.91 223.414 235.238Z" fill="#1E2525"/>
<path d="M144.934 15.0524C127.444 15.5271 110.2 19.2962 94.1072 26.1621C79.4707 32.3309 65.948 40.8643 54.0802 51.4208C42.9292 61.3322 33.1909 72.7269 25.1379 85.2859C21.3379 91.2004 17.9799 97.3875 15.0913 103.797C13.5927 107.145 12.2197 110.494 10.9723 113.944C10.8467 114.279 10.7211 114.613 10.6039 114.948C10.5453 115.124 10.3025 115.836 10.6039 114.948C10.4616 115.35 10.3025 115.727 10.1685 116.129C9.90063 116.966 9.64109 117.745 9.38156 118.548C8.87923 120.156 8.41039 121.763 7.96667 123.387C4.61783 135.535 2.94341 148.319 3.88946 160.911C4.72667 172.364 7.67365 183.784 13.5676 193.713C16.4799 198.55 20.0656 202.947 24.2169 206.774C30.649 212.734 37.7713 217.902 45.4318 222.17C60.8114 230.835 77.9323 236.252 95.204 239.634C112.464 242.867 129.978 244.548 147.538 244.657C161.96 244.836 176.382 244.277 190.746 242.983C195.887 242.531 201.022 241.995 206.151 241.375L211.652 240.706C215.743 240.117 219.799 239.301 223.799 238.261C239.706 234.46 255.371 228.851 269.444 220.445C275.334 216.937 280.864 212.857 285.954 208.264C288.264 206.171 290.439 203.934 292.467 201.566C292.92 201.039 293.363 200.503 293.799 199.967L294.502 199.13C294.77 198.787 295.013 198.427 295.281 198.083C294.602 198.92 295.021 198.443 295.188 198.242C296.26 196.903 297.256 195.496 298.227 194.056C304.694 184.886 309.2 174.48 311.464 163.49C313.542 152.268 313.471 140.753 311.254 129.558C308.957 117.98 304.909 106.82 299.249 96.4627C293.168 85.2993 285.7 74.9501 277.021 65.6617C267.947 55.824 257.692 47.146 246.488 39.8254C234.802 32.2182 222.218 26.0904 209.023 21.5826C202.297 19.1998 195.371 17.4289 188.327 16.2914C185.279 15.831 181.052 15.4542 177.569 15.0691C173.818 14.6589 170.034 14.3658 166.292 14.2319C162.758 14.0868 159.225 14.0365 155.692 14.0812C153.861 14.1162 152.033 14.256 150.217 14.4998C148.467 14.7175 146.692 15.1361 144.943 15.2533C144.457 15.2533 144.474 16.0403 144.943 16.0068C146.871 15.958 148.8 16.0307 150.719 16.2244C152.553 16.3249 154.378 16.3751 156.212 16.4003C159.912 16.4505 163.587 16.6514 167.271 17.0031C170.829 17.3547 174.371 17.8403 177.895 18.4347C181.244 18.9789 184.727 20.0338 188.118 20.8291C194.975 22.4758 201.733 24.5079 208.361 26.9156L210.655 27.7528L211.903 28.2217L212.422 28.4226C212.519 28.4557 212.614 28.4948 212.706 28.5398C214.381 29.1928 215.98 29.8626 217.604 30.5659C220.685 31.9054 223.727 33.337 226.73 34.8608C232.777 37.9464 238.632 41.3965 244.261 45.1919C245.617 46.1045 246.965 47.0422 248.296 47.9798C248.941 48.4319 249.569 48.884 250.205 49.3445L250.716 49.7212C250.121 49.2859 250.716 49.7212 250.808 49.7966L252.022 50.6505C254.6 52.5929 257.112 54.6105 259.557 56.7036C264.49 60.9017 269.167 65.3916 273.563 70.1492C274.618 71.2989 275.656 72.4599 276.678 73.632C277.163 74.1929 277.649 74.7538 278.126 75.3064L278.896 76.2441C279.022 76.3948 279.147 76.5538 279.281 76.7045C278.796 76.1185 279.374 76.8217 279.457 76.9389C281.377 79.3166 283.219 81.7529 284.983 84.2478C288.503 89.217 291.692 94.4134 294.527 99.8032C295.208 101.092 295.861 102.393 296.486 103.705C296.787 104.332 297.081 104.952 297.374 105.58C297.449 105.756 297.533 105.923 297.608 106.099C297.893 106.702 297.34 105.488 297.608 106.099C297.775 106.467 297.943 106.844 298.102 107.212C299.252 109.847 300.304 112.52 301.258 115.233C303.149 120.57 304.602 126.053 305.603 131.626C305.662 131.919 305.712 132.203 305.762 132.463C305.813 132.722 305.813 132.814 305.846 132.99C305.955 133.635 305.737 132.253 305.846 132.898C305.955 133.543 306.055 134.288 306.147 134.983C306.332 136.345 306.482 137.709 306.6 139.077C306.834 141.747 306.934 144.435 306.909 147.122C306.909 148.495 306.851 149.877 306.775 151.25C306.797 152.566 306.688 153.881 306.449 155.176C306.734 154.155 306.449 155.218 306.399 155.536C306.348 155.854 306.332 156.097 306.29 156.373C306.206 157.043 306.106 157.721 305.997 158.391C305.779 159.739 305.528 161.079 305.235 162.418C304.686 164.978 304.001 167.507 303.184 169.995C302.974 170.648 302.748 171.301 302.514 171.946C302.341 172.613 302.099 173.261 301.794 173.88C302.33 173.042 301.844 173.746 301.719 174.055L301.317 175.01C301.049 175.654 300.764 176.282 300.48 176.919C299.34 179.417 298.06 181.849 296.645 184.202C296.31 184.763 295.967 185.324 295.615 185.877C295.148 186.423 294.754 187.029 294.443 187.677C294.544 187.543 294.636 187.4 294.728 187.267L294.117 188.104C294.02 188.256 293.914 188.401 293.799 188.539C294.569 187.702 293.799 188.539 293.614 188.782C293.154 189.385 292.694 189.979 292.216 190.574C288.484 195.162 284.336 199.397 279.826 203.224L278.151 204.647C277.557 205.141 278.913 204.036 278.31 204.513L277.833 204.898L276.711 205.777C275.45 206.754 274.166 207.7 272.86 208.615C270.064 210.566 267.217 212.425 264.279 214.149C261.34 215.874 258.083 217.59 254.885 219.114C254.048 219.533 253.135 219.909 252.273 220.336C253.42 219.767 252.164 220.378 251.888 220.504L250.314 221.19C248.547 221.944 246.756 222.664 244.964 223.359C236.948 226.404 228.732 228.896 220.375 230.818C218.143 231.337 215.91 231.823 213.678 232.275C213.284 232.35 212.162 232.367 211.886 232.627C212.053 232.468 212.916 232.493 212.179 232.576L210.982 232.719C209.098 232.953 207.214 233.188 205.322 233.405C193.601 234.787 181.88 235.841 170.067 236.402C154.034 237.233 137.962 236.987 121.961 235.666L118.947 235.381L117.273 235.214L116.436 235.13H116.394C114.184 234.929 111.973 234.619 109.771 234.293C105.485 233.707 101.198 233.02 96.9454 232.2C88.3951 230.594 79.9643 228.406 71.7119 225.653C69.7026 224.972 67.7072 224.257 65.7258 223.509L64.9556 223.208C64.0765 222.865 65.7091 223.509 64.83 223.158L63.2979 222.538C62.2849 222.12 61.2719 221.701 60.2672 221.257C56.3937 219.583 52.6067 217.707 48.9063 215.631C45.2545 213.592 41.7163 211.356 38.3072 208.934L37.6541 208.465C38.4244 209.017 37.6541 208.465 37.5453 208.373L36.4737 207.535C35.5444 206.824 34.6318 206.104 33.7276 205.359C32.1369 204.053 30.5797 202.696 29.0727 201.29C27.976 200.26 26.9044 199.222 25.883 198.125C25.4365 197.651 25.0011 197.165 24.5769 196.668L24.0495 196.049C23.949 195.923 23.8485 195.789 23.7397 195.672C24.5769 196.568 23.9992 195.982 23.8151 195.756C22.2573 193.788 20.8363 191.715 19.562 189.552C18.8923 188.436 18.2588 187.272 17.6616 186.061C17.3853 185.517 17.1174 184.964 16.8662 184.387C16.7909 184.236 16.7323 184.077 16.6569 183.934C17.1927 184.956 16.8746 184.42 16.7657 184.169L16.322 183.332C15.2826 180.875 14.3907 178.359 13.6513 175.797C12.8913 173.145 12.2764 170.453 11.8095 167.734C11.7592 167.441 11.7174 167.148 11.6588 166.897C11.9099 168.212 11.6588 166.897 11.6169 166.596C11.5164 165.876 11.416 165.156 11.3323 164.436C11.1648 163.038 11.0309 161.639 10.9304 160.25C10.5186 154.272 10.6139 148.27 11.215 142.308C11.215 141.948 11.2904 141.588 11.3239 141.228C11.3741 140.743 11.215 142.166 11.3239 141.454L11.3992 140.86C11.4913 140.073 11.5918 139.278 11.7006 138.482C11.9239 136.886 12.1806 135.29 12.4709 133.693C13.0318 130.587 13.7183 127.498 14.5053 124.434C15.3425 121.236 16.2885 118.054 17.3267 114.915C17.8569 113.313 18.4151 111.725 19.0011 110.151C19.2858 109.372 19.5871 108.594 19.8802 107.824C20.1732 107.053 19.696 108.267 19.8802 107.824C19.9555 107.656 20.0141 107.489 20.0811 107.313L20.6588 105.898C20.9685 105.153 21.2867 104.408 21.6048 103.671C21.7806 103.261 21.9732 102.834 22.1406 102.465L22.4169 101.762C22.2913 102.08 22.2662 102.147 22.3499 101.946L22.6681 101.243C23.3937 99.619 24.1499 98.0087 24.9369 96.4125C26.4606 93.3148 28.0932 90.2729 29.8346 87.2869C31.6318 84.1892 33.5407 81.1613 35.5611 78.2031C37.696 74.9715 39.4458 72.6022 41.8821 69.6301C61.854 45.2896 89.1694 28.0691 119.743 20.5445C128.067 18.5554 136.509 17.093 145.018 16.1658C145.166 16.1547 145.303 16.0854 145.399 15.9732C145.496 15.8609 145.544 15.7149 145.533 15.5672C145.522 15.4196 145.452 15.2824 145.34 15.1858C145.228 15.0893 145.082 15.0413 144.934 15.0524Z" fill="#1E2525"/>
<path d="M40.9943 65.4512C38.0487 62.5215 35.552 59.1728 33.585 55.5135C31.6794 51.8432 30.395 47.8826 29.7841 43.7925C28.612 35.68 30.1357 27.1907 35.092 20.5348C39.892 14.0956 46.6057 9.33951 54.2725 6.94692C58.1139 5.74909 62.1519 5.31116 66.1609 5.65762C66.1609 5.65762 67.1404 5.74971 66.6046 5.65762L67.2074 5.73297C67.7097 5.79994 68.212 5.88366 68.706 5.96739C69.8027 6.16832 70.8827 6.41948 71.9544 6.72088C73.7647 7.19613 75.5253 7.84374 77.212 8.65483C81.2831 10.6218 84.9982 13.2532 88.2046 16.4409C89.879 18.0065 91.4446 19.6976 93.0688 21.3218C94.5601 23.0184 95.7444 24.9619 96.5683 27.0651C97.2046 28.4549 99.3646 27.3832 98.9628 25.9851C98.3265 23.7748 97.2883 21.799 96.5097 19.6641C95.7758 17.5586 94.7164 15.5812 93.3702 13.8037C90.4404 10.1075 86.7849 7.05031 82.6288 4.82041C74.4988 0.257696 64.9657 -1.12855 55.8729 0.929707C46.7801 2.98796 38.7734 8.34451 33.4008 15.9637C28.3377 23.35 25.9456 32.2424 26.6194 41.1721C27.4566 50.8837 31.9022 61.0642 39.9394 66.8912C40.7766 67.5191 41.6725 66.1544 40.9943 65.4512Z" fill="#1E2525"/>
<path d="M56.29 50.2145C51.2668 45.7187 49.8184 36.9531 53.611 31.2433C57.2528 25.768 64.704 23.2647 70.7822 25.994C72.4449 26.7136 73.9648 27.7259 75.2696 28.9829C76.7347 30.3977 77.4882 32.1977 78.7524 33.7466C79.8408 35.0861 82.5282 33.9224 82.2603 32.1977C81.9087 29.9289 80.3933 28.0117 78.8361 26.3373C77.4274 24.8738 75.7832 23.6569 73.9719 22.7373C70.198 20.7954 65.8228 20.3759 61.7487 21.5652C54.0631 23.901 48.5291 31.6787 49.5003 39.7577C50.1265 44.0786 52.4157 47.9841 55.8798 50.6415C56.1728 50.8675 56.5747 50.4657 56.29 50.2145Z" fill="#1E2525"/>
<path d="M282.73 77.3894C290.316 72.8852 295.406 64.4462 297.557 56.0741C299.75 47.4006 298.893 38.2368 295.129 30.1205C291.206 21.7626 284.345 15.1397 275.854 11.5132C267.362 7.88664 257.834 7.50982 249.083 10.4545C244.004 12.1012 239.349 14.8419 235.445 18.4833C233.553 20.2666 231.986 22.3659 230.815 24.687C229.71 27.0145 228.421 29.1912 227.466 31.594C226.914 33.0257 229.191 33.8126 229.911 32.5568C230.863 30.6795 232.107 28.9644 233.595 27.4749C235.118 26.1187 236.701 24.8042 238.275 23.5066C237.948 23.7829 238.718 23.1633 238.668 23.1968L239.154 22.8284L240.368 21.9159C241.28 21.2712 242.184 20.5931 243.114 19.9735C244.043 19.354 244.838 18.8768 245.734 18.3828C246.178 18.1317 246.63 17.8973 247.09 17.6712L247.635 17.3949L248.045 17.2024C250 16.3222 252.032 15.6216 254.115 15.1094C255.984 14.6114 257.901 14.3111 259.833 14.2135C263.812 13.9046 267.813 14.4029 271.596 15.6787C275.299 16.925 278.783 18.7474 281.918 21.0787C285.057 23.4851 287.822 26.343 290.123 29.5596C292.493 32.8513 294.178 36.5849 295.08 40.5394C295.982 44.494 296.081 48.5893 295.372 52.5829C294.621 57.1457 293.035 61.5308 290.692 65.5178C288.272 69.5027 285.202 73.0542 281.609 76.0248C280.813 76.7029 281.885 77.9169 282.73 77.4062V77.3894Z" fill="#1E2525"/>
<path d="M268.189 59.8332C271.43 57.7478 273.882 54.639 275.154 51.0006C276.371 47.2045 276.105 43.0883 274.409 39.4806C272.793 35.8553 270.003 32.8797 266.489 31.0331C262.746 29.1023 258.405 28.6769 254.358 29.8443C252.143 30.4765 250.074 31.5407 248.272 32.9755C246.43 34.4322 244.236 36.4499 243.658 38.8359C243.563 39.2768 243.612 39.7369 243.798 40.1476C243.985 40.5583 244.3 40.8976 244.695 41.1151C245.09 41.3325 245.545 41.4163 245.992 41.3542C246.439 41.292 246.854 41.087 247.175 40.7699C247.692 40.1635 248.167 39.523 248.598 38.8527C249.148 38.1369 249.764 37.4753 250.44 36.8769C251.585 35.8475 252.899 35.0234 254.325 34.4406C257.323 33.1527 260.677 32.9484 263.81 33.8629C266.99 34.8107 269.723 36.8686 271.513 39.662C273.303 42.4554 274.031 45.7987 273.564 49.0834C272.936 53.0853 271.211 56.9029 267.879 59.3643C267.578 59.5904 267.879 60.076 268.189 59.8667V59.8332Z" fill="#1E2525"/>
</svg>
