<svg viewBox="0 0 437 417" fill="none" xmlns="http://www.w3.org/2000/svg">
<path d="M312.366 165.656C312.366 166.286 312.506 166.935 312.577 167.583C312.577 167.233 312.682 166.865 312.752 166.532C312.893 165.813 313.84 166.076 313.928 166.672C314.051 167.776 314.138 168.862 314.209 169.949C314.209 169.546 314.209 169.143 314.296 168.74C314.296 167.986 315.525 167.969 315.489 168.74C315.261 172.244 314.893 175.749 314.472 179.254C314.472 180.568 314.472 181.865 314.314 183.179C314.314 183.477 314.314 183.775 314.314 184.09C314.434 187.857 314.229 191.627 313.7 195.358C313.69 195.377 313.686 195.398 313.686 195.419C313.686 195.44 313.69 195.461 313.7 195.48C313.693 195.595 313.71 195.711 313.75 195.819C313.789 195.927 313.849 196.027 313.928 196.111C314.005 196.198 314.1 196.267 314.205 196.316C314.311 196.364 314.426 196.39 314.542 196.392H316.911C321.122 196.199 325.333 196.199 329.545 196.251C333.651 195.533 337.792 194.867 341.968 194.499C342.062 194.308 342.138 194.108 342.196 193.903C342.38 192.59 342.38 191.257 342.196 189.943C342.108 187.139 341.933 184.336 341.722 181.549C340.827 170.382 338.966 159.312 336.16 148.465C330.553 126.732 321.329 106.094 308.874 87.4137C302.656 78.066 295.634 69.277 287.888 61.1461C287.794 61.0277 287.665 60.9418 287.52 60.9008L284.659 57.0106L283.765 55.1005C283.273 54.0666 281.694 54.9078 282.185 55.9416L282.343 56.2395C282.317 56.3785 282.317 56.5211 282.343 56.6601C282.376 56.7933 282.436 56.9185 282.519 57.0281L283.133 57.8692L283.747 59.1835C283.664 59.2394 283.593 59.3118 283.538 59.3962C283.484 59.4806 283.448 59.5752 283.431 59.6741C283.395 59.8732 283.433 60.0786 283.536 60.2524L287.835 67.7349C287.899 67.8681 287.995 67.9828 288.116 68.0678C288.238 68.1422 288.377 68.1845 288.52 68.1905C289.239 70.1181 289.941 72.0456 290.643 73.9732C292.187 78.3073 293.655 82.659 295.047 87.0281C297.843 95.7782 300.329 104.616 302.505 113.541C304.681 122.466 306.541 131.497 308.085 140.632C309.477 148.81 310.647 156.987 311.594 165.165C311.686 165.14 311.783 165.14 311.875 165.165C311.968 165.147 312.063 165.147 312.156 165.165C312.242 165.216 312.315 165.288 312.366 165.375C312.397 165.466 312.397 165.565 312.366 165.656Z" fill="#123045"/>
<path d="M316.121 144.593C314.883 131.759 312.06 119.128 307.716 106.987C305.258 100.117 302.417 93.3887 299.206 86.8354C299.13 86.6777 298.999 86.553 298.837 86.4849C297.627 83.1205 296.381 79.756 295.135 76.3915C293.859 72.5556 292.25 68.8382 290.327 65.2816C289.256 63.3937 287.839 61.7234 286.151 60.3576C286.233 60.131 286.233 59.8832 286.151 59.6566C286.094 59.5538 286.017 59.4642 285.923 59.3938C285.827 59.3241 285.72 59.2708 285.607 59.2361C281.694 57.9393 277.711 56.8003 273.693 55.8365C273.679 55.6181 273.585 55.4123 273.429 55.2583C273.273 55.1054 273.068 55.0123 272.85 54.9954L268.832 54.7501C259.684 52.8778 250.376 51.8919 241.038 51.8062C236.768 51.8062 232.51 51.958 228.263 52.2618C228.062 52.2633 227.869 52.3381 227.719 52.472C227.569 52.5984 227.464 52.7708 227.421 52.9627C214.162 52.67 200.898 53.1498 187.695 54.3996C179.179 55.194 170.709 56.3155 162.287 57.7641C162.365 57.5611 162.365 57.3362 162.287 57.1333C162.198 56.9348 162.043 56.7736 161.848 56.6777C161.645 56.5993 161.42 56.5993 161.216 56.6777C161.01 56.7309 160.834 56.8631 160.725 57.0456L160.006 58.2723C159.9 58.3261 159.814 58.412 159.76 58.5176C159.706 58.6208 159.676 58.7345 159.672 58.8506C159.585 58.7406 159.47 58.6559 159.339 58.6052C159.207 58.5703 159.067 58.5703 158.935 58.6052C158.792 58.6113 158.654 58.6535 158.532 58.7279C158.417 58.8047 158.321 58.9065 158.251 59.0258C144.729 82.286 134.679 107.393 128.421 133.553C126.666 140.878 125.222 148.267 124.087 155.72C124.05 155.936 124.087 156.158 124.192 156.351C124.298 156.543 124.474 156.687 124.683 156.754C124.11 160.515 123.619 164.283 123.21 168.056L122.683 167.636C121.823 166.882 120.577 168.126 121.437 168.88C125.789 172.7 131.316 174.558 136.773 176.187C143.09 178.103 149.448 179.855 155.847 181.444C158.409 182.093 160.971 182.706 163.533 183.302C163.65 183.491 163.83 183.633 164.041 183.705C169.182 185.601 174.462 187.095 179.834 188.173C179.995 188.216 180.164 188.216 180.325 188.173C180.482 188.118 180.622 188.021 180.729 187.893C180.835 187.769 180.902 187.617 180.922 187.455C180.966 187.294 180.966 187.125 180.922 186.964C185.431 187.77 189.958 188.506 194.485 189.137L196.503 189.4H192.432C190.239 189.238 188.051 189.778 186.186 190.942C185.427 191.471 184.822 192.19 184.431 193.027C184.06 193.857 183.921 194.771 184.027 195.673C184.248 196.574 184.742 197.385 185.443 197.994C186.144 198.603 187.016 198.98 187.94 199.073C190.335 199.428 192.75 199.628 195.17 199.669C197.819 199.844 200.434 200.001 203.154 200.142C213.723 200.851 224.327 200.851 234.896 200.142C240.062 199.759 245.201 199.068 250.285 198.074C252.864 197.566 255.426 196.987 257.953 196.322C258.934 196.162 259.872 195.804 260.711 195.271C261.549 194.738 262.271 194.04 262.831 193.22C263.117 192.678 263.279 192.08 263.305 191.468C263.342 190.871 263.252 190.274 263.042 189.715H263.199C266.323 189.295 269.44 188.804 272.552 188.243C278.962 187.075 285.303 185.656 291.573 183.985C294.731 183.132 297.89 182.209 301.048 181.216C304.034 180.336 306.964 179.277 309.822 178.045C311.04 177.487 312.213 176.837 313.331 176.1H313.735C314.234 175.921 314.669 175.597 314.982 175.169C315.294 174.74 315.471 174.228 315.489 173.699C315.946 170.498 316.267 167.291 316.455 164.079C316.843 157.584 316.732 151.07 316.121 144.593Z" fill="#8689CB"/>
<path d="M204.013 116.187C187.274 163.71 255.075 164.797 252.04 130.959C248.056 86.0819 212.103 93.1789 204.013 116.187Z" fill="#D8EEFE"/>
<path d="M152.285 64.1776L151.302 66.0526L148.319 69.9078C148.164 69.9503 148.025 70.0353 147.916 70.1531C139.872 77.9215 132.515 86.37 125.929 95.4043C112.744 113.589 102.719 133.86 96.2749 155.369C93.0496 166.098 90.7599 177.085 89.4316 188.208C89.0806 190.977 88.8174 193.763 88.6069 196.567C88.4316 197.881 88.4316 199.213 88.6069 200.527C88.7493 201.15 89.0728 201.717 89.5368 202.157C90.0347 202.584 90.6427 202.863 91.2915 202.963C92.7452 203.159 94.2119 203.241 95.6783 203.208L100.942 203.454L111.155 203.927L116.138 204.154C116.371 204.143 116.591 204.043 116.752 203.874C116.837 203.796 116.903 203.701 116.949 203.595C116.994 203.49 117.017 203.376 117.015 203.261C117.659 194.079 118.624 184.937 119.911 175.837C121.197 166.736 122.753 157.712 124.578 148.763C126.508 139.721 128.743 130.761 131.281 121.882C133.82 113.004 136.645 104.271 139.756 95.6847C141.336 91.3622 142.979 87.069 144.687 82.805C145.436 80.9125 146.225 79.0199 147.056 77.1274C147.197 77.1132 147.334 77.0715 147.459 77.0048C147.588 76.9319 147.692 76.822 147.758 76.6893L152.338 69.3646C152.448 69.1997 152.491 68.9995 152.46 68.8038C152.429 68.6029 152.322 68.4214 152.162 68.2956L152.846 67.0164L153.496 66.1928C153.582 66.0853 153.642 65.9593 153.671 65.8248C153.706 65.6927 153.706 65.5539 153.671 65.4218L153.829 65.1239C154.355 64.0725 152.829 63.1613 152.285 64.1776Z" fill="#123045"/>
<path d="M233.51 109.09C233.389 109.062 233.263 109.062 233.141 109.09C233.02 109.066 232.895 109.066 232.773 109.09C232.489 108.916 232.19 108.769 231.878 108.652C230.105 108.023 228.287 107.53 226.439 107.18C225.787 107.008 225.124 106.879 224.456 106.794H224.28H224.052C223.385 106.794 223.052 107.46 223.227 108.021C222.902 107.824 222.536 107.704 222.157 107.671C221.78 107.618 221.395 107.654 221.034 107.776C220.699 107.882 220.388 108.055 220.122 108.284C219.95 108.381 219.791 108.498 219.648 108.634C219.366 108.897 219.14 109.213 218.981 109.563C218.838 109.921 218.755 110.3 218.735 110.685C218.662 110.785 218.609 110.898 218.577 111.018C218.542 111.144 218.542 111.277 218.577 111.403C218.59 111.531 218.639 111.652 218.718 111.754C218.787 111.858 218.877 111.947 218.981 112.016L219.174 112.122C219.492 112.593 219.933 112.968 220.45 113.206C220.967 113.444 221.539 113.536 222.104 113.471C222.565 113.413 223.004 113.244 223.385 112.98C223.874 113.645 224.583 114.117 225.386 114.312C225.97 114.426 226.574 114.39 227.14 114.207C227.598 114.194 228.048 114.08 228.456 113.874C228.862 113.669 229.22 113.383 229.509 113.033C229.797 113.263 230.133 113.424 230.492 113.506C230.849 113.594 231.222 113.594 231.58 113.506C231.901 113.418 232.201 113.263 232.457 113.05C232.632 113.051 232.805 113.015 232.966 112.945C233.199 112.836 233.408 112.681 233.58 112.49C233.741 112.294 233.86 112.067 233.931 111.824C234.114 111.63 234.251 111.396 234.331 111.142C234.41 110.887 234.43 110.618 234.39 110.354C234.349 110.09 234.249 109.839 234.096 109.62C233.944 109.401 233.743 109.22 233.51 109.09ZM230.001 111.053C230.01 110.954 230.01 110.854 230.001 110.755C230.461 110.951 230.874 111.244 231.211 111.613C230.79 111.964 230.369 111.491 230.036 111.053H230.001Z" fill="#F9D858"/>
<path d="M348.074 211.725L342.319 215.808L343.372 209.412C343.41 209.244 343.399 209.068 343.34 208.907C343.28 208.745 343.176 208.604 343.038 208.5C342.903 208.39 342.738 208.323 342.565 208.308C342.394 208.29 342.222 208.326 342.073 208.413L333.896 213.267C334.037 210.358 334.16 207.449 334.282 204.505C334.28 204.308 334.212 204.117 334.089 203.962C333.97 203.811 333.803 203.706 333.616 203.664C333.435 203.593 333.235 203.593 333.054 203.664C332.878 203.731 332.73 203.854 332.633 204.014C330.978 206.717 329.791 209.679 329.124 212.776C326.475 212.555 323.87 211.965 321.385 211.024C321.215 210.977 321.036 210.982 320.868 211.037C320.701 211.093 320.554 211.196 320.445 211.335C320.337 211.473 320.271 211.64 320.257 211.816C320.244 211.991 320.282 212.167 320.368 212.32C322.069 214.982 324.232 217.32 326.755 219.225C324.035 227.023 316.525 232.209 308.576 233.769C299.574 235.521 290.485 232.017 283.677 226.252C283.08 225.743 282.554 225.235 281.922 224.709C282.068 224.691 282.206 224.637 282.326 224.552C282.436 224.468 282.526 224.36 282.589 224.236C282.63 224.099 282.63 223.953 282.589 223.816C282.59 223.675 282.553 223.536 282.484 223.413C280.767 219.933 278.225 216.925 275.079 214.651C274.649 214.401 274.203 214.179 273.745 213.985C273.707 213.881 273.64 213.79 273.552 213.722C273.463 213.653 273.362 213.6 273.254 213.565C273.143 213.547 273.031 213.547 272.921 213.565C272.812 213.579 272.709 213.621 272.622 213.687C271.591 213.39 270.518 213.266 269.446 213.319C267.064 213.583 264.74 214.234 262.568 215.247C253.919 218.716 244.942 221.305 235.774 222.975C226.567 224.603 217.221 225.307 207.874 225.077C198.532 224.851 189.236 223.677 180.132 221.573L177.991 221.047C177.924 221.099 177.846 221.135 177.763 221.152H177.5L176.096 220.872C176.049 220.996 175.954 221.097 175.833 221.152C175.772 221.178 175.706 221.192 175.64 221.192C175.574 221.192 175.508 221.178 175.447 221.152L174.868 220.994C173.677 220.813 172.503 220.531 171.359 220.153C171.313 220.136 171.263 220.136 171.218 220.153L171.095 220.048L170.657 220.206H170.499C170.55 220.267 170.597 220.331 170.639 220.399C170.768 220.556 170.915 220.697 171.078 220.819C157.708 220.699 144.478 223.554 132.352 229.178C129.185 230.647 126.109 232.303 123.139 234.137C120.42 235.889 117.402 237.642 115.805 240.533C112.541 246.403 116.331 253.413 120.156 258.056C124.362 263.08 129.969 266.74 136.265 268.57C132.532 272.756 129.669 277.64 127.842 282.94C127.526 283.851 128.702 284.342 129.316 283.816L130.176 283.062C129.837 284.022 129.602 285.014 129.474 286.024C129.478 286.178 129.522 286.328 129.602 286.46C129.681 286.591 129.794 286.701 129.928 286.776C130.062 286.852 130.213 286.892 130.367 286.892C130.522 286.892 130.673 286.853 130.807 286.777C133.063 285.402 135.158 283.78 137.054 281.941C136.733 282.921 136.481 283.922 136.3 284.937C136.264 285.087 136.264 285.243 136.3 285.393C136.344 285.543 136.422 285.681 136.528 285.796C136.641 285.905 136.78 285.983 136.931 286.024C137.08 286.068 137.239 286.068 137.388 286.024C139.634 285.601 141.76 284.692 143.617 283.36C145.477 282.034 147.018 280.31 148.126 278.313C149.084 283.4 149.431 288.583 149.162 293.752C144.973 296.561 140.077 298.136 135.033 298.294C129.99 298.452 125.004 297.187 120.648 294.645C118.155 293.193 115.949 291.299 114.138 289.055C114.044 288.953 113.922 288.88 113.787 288.845C113.66 288.811 113.527 288.811 113.401 288.845C113.243 288.844 113.086 288.88 112.945 288.95C112.83 289.027 112.734 289.129 112.664 289.248C110.211 293.325 109.432 298.191 110.488 302.829C111.012 305.067 111.972 307.181 113.313 309.05C114.649 310.928 116.35 312.519 118.314 313.728C122.132 316.136 126.712 317.036 131.158 316.252C135.45 315.304 139.433 313.291 142.739 310.399C146.424 307.437 149.67 303.898 153.127 300.656C155.359 306.019 158.215 311.1 161.637 315.796C161.517 315.918 161.448 316.081 161.444 316.252C161.43 316.424 161.474 316.597 161.567 316.742C167.416 326.497 173.751 335.948 180.571 345.095C183.87 349.984 187.116 354.891 190.081 359.972C192.286 363.684 194.221 367.549 195.872 371.538C188.066 373.312 181.097 377.687 176.114 383.944C176.026 384.047 175.96 384.166 175.921 384.295C175.886 384.427 175.886 384.566 175.921 384.698C175.941 384.83 175.989 384.955 176.062 385.067C176.135 385.179 176.23 385.274 176.342 385.346C185.343 390.288 195.837 389.131 205.593 387.835C210.906 387.029 216.26 386.52 221.631 386.31C227.474 386.17 233.317 386.468 239.178 386.678L259.304 387.449C259.467 387.448 259.625 387.4 259.76 387.309C259.901 387.224 260.016 387.103 260.094 386.958C260.136 386.804 260.136 386.64 260.094 386.485C260.081 386.32 260.02 386.161 259.918 386.03C260.565 386.288 261.227 386.504 261.901 386.678C262.498 386.836 263.252 386.24 262.989 385.592L262.182 383.612C263.717 383.932 265.311 383.835 266.797 383.331C266.961 383.28 267.107 383.183 267.218 383.051C267.323 382.911 267.395 382.749 267.428 382.578C267.444 382.407 267.413 382.236 267.339 382.081C267.265 381.927 267.15 381.796 267.007 381.701L247.197 369.295C255.163 355.066 266.007 342.817 275.763 329.832C285.274 317.18 293.784 303.319 297.065 287.636C298.575 280.773 298.784 273.688 297.679 266.748C307.225 265.296 316.179 261.226 323.544 254.99C331.596 248.084 338.071 239.533 342.529 229.914C345.19 224.377 347.431 218.648 349.232 212.776C349.276 212.609 349.276 212.434 349.232 212.268C349.164 212.104 349.055 211.959 348.917 211.847C348.78 211.743 348.615 211.682 348.443 211.672C348.318 211.66 348.191 211.678 348.074 211.725Z" fill="#8689CB"/>
<path d="M269.85 275.913C268.095 249.873 236.932 218.681 202.189 238.378C171.797 255.235 160.988 310.697 209.383 316.515C243.336 320.703 271.85 299.342 269.85 275.913Z" fill="#D8EEFE"/>
<path d="M271.991 213.179C268.075 208.314 265.1 202.764 263.217 196.812C263.187 196.702 263.133 196.601 263.061 196.513C262.988 196.425 262.898 196.354 262.796 196.304C262.582 196.216 262.343 196.216 262.129 196.304C252.337 198.957 242.369 200.912 232.299 202.157C222.387 203.422 212.346 203.292 202.469 201.771C196.994 200.86 191.634 199.355 186.484 197.285C186.309 196.444 184.835 196.549 184.729 197.566C183.785 205.668 180.662 213.364 175.693 219.838C175.628 219.958 175.587 220.088 175.57 220.223C175.543 220.356 175.543 220.493 175.57 220.626C175.619 220.749 175.697 220.857 175.798 220.942C175.9 221.035 176.019 221.106 176.149 221.152C188.537 223.43 201.61 225.883 214.208 225.726C226.807 225.568 238.774 222.799 251.057 220.241C258.005 218.788 264.865 216.945 271.604 214.721C271.752 214.684 271.887 214.605 271.991 214.493C272.094 214.386 272.166 214.253 272.201 214.108C272.245 213.959 272.245 213.801 272.201 213.652C272.172 213.479 272.1 213.316 271.991 213.179Z" fill="#8689CB"/>
<path d="M232.475 108.249C231.051 108.092 229.65 107.775 228.298 107.303C227.045 106.913 225.759 106.637 224.456 106.479C223.335 106.297 222.185 106.415 221.125 106.822C220.064 107.228 219.131 107.908 218.42 108.792C217.79 109.572 217.471 110.557 217.527 111.557C217.582 112.557 218.006 113.501 218.718 114.207C219.087 114.554 219.522 114.822 219.999 114.995C220.47 115.167 220.971 115.245 221.473 115.223C221.971 115.203 222.46 115.083 222.912 114.873C223.365 114.664 223.77 114.366 224.105 113.997C224.444 113.625 224.706 113.19 224.877 112.717C225.052 112.247 225.123 111.745 225.087 111.245C225.073 110.745 224.947 110.254 224.719 109.809C224.504 109.355 224.199 108.95 223.824 108.617C223.725 108.542 223.611 108.489 223.491 108.459C223.358 108.424 223.219 108.424 223.087 108.459C222.961 108.48 222.841 108.528 222.736 108.599C222.621 108.671 222.53 108.775 222.473 108.897C222.129 109.552 221.941 110.276 221.923 111.015C221.906 111.754 222.059 112.486 222.372 113.156C222.684 113.826 223.147 114.415 223.725 114.877C224.302 115.338 224.979 115.661 225.702 115.819C226.445 115.878 227.192 115.741 227.867 115.423C228.542 115.105 229.122 114.616 229.549 114.005C229.976 113.394 230.236 112.682 230.303 111.94C230.37 111.198 230.242 110.451 229.93 109.773C229.842 109.662 229.735 109.567 229.614 109.493C229.481 109.467 229.344 109.467 229.211 109.493C229.075 109.493 228.942 109.529 228.825 109.598C228.705 109.674 228.603 109.776 228.527 109.896C227.474 112.332 229.965 115.504 232.633 114.417C233.137 114.158 233.571 113.781 233.898 113.318C234.224 112.855 234.434 112.32 234.508 111.758C234.582 111.197 234.519 110.625 234.324 110.094C234.129 109.562 233.807 109.085 233.387 108.705C233.303 108.623 233.201 108.563 233.089 108.529C232.979 108.503 232.865 108.503 232.755 108.529C232.637 108.537 232.523 108.573 232.422 108.634C232.319 108.691 232.229 108.768 232.159 108.862C232.098 108.961 232.051 109.067 232.018 109.178C232.001 109.288 232.001 109.4 232.018 109.511C232.038 109.623 232.079 109.73 232.141 109.826C232.205 109.924 232.289 110.008 232.387 110.071C232.596 110.251 232.76 110.478 232.865 110.733C232.97 110.989 233.013 111.265 232.99 111.54C232.968 111.815 232.881 112.081 232.737 112.316C232.592 112.551 232.394 112.748 232.159 112.893C230.983 113.576 229.421 111.876 229.948 110.685H228.562C228.717 111.11 228.759 111.568 228.685 112.014C228.611 112.461 228.423 112.88 228.139 113.233C227.855 113.585 227.484 113.858 227.064 114.026C226.643 114.194 226.186 114.25 225.737 114.189C225.312 114.033 224.926 113.789 224.603 113.473C224.28 113.157 224.027 112.776 223.862 112.356C223.696 111.936 223.621 111.486 223.642 111.034C223.663 110.583 223.778 110.142 223.982 109.738L222.631 109.949C222.894 110.203 223.086 110.522 223.187 110.874C223.288 111.226 223.295 111.599 223.206 111.954C223.117 112.309 222.936 112.635 222.681 112.898C222.426 113.161 222.106 113.353 221.753 113.453C221.377 113.523 220.988 113.486 220.63 113.348C220.282 113.203 219.979 112.967 219.753 112.665C219.528 112.356 219.395 111.99 219.367 111.61C219.339 111.229 219.418 110.848 219.595 110.509C220.508 108.424 222.982 108.074 225 108.266C226.228 108.372 227.421 108.67 228.614 108.845C229.893 109.087 231.201 109.128 232.492 108.967C232.533 108.965 232.572 108.955 232.608 108.936C232.645 108.918 232.677 108.893 232.703 108.862C232.732 108.832 232.755 108.796 232.77 108.757C232.785 108.718 232.792 108.676 232.791 108.634C232.795 108.592 232.79 108.549 232.775 108.51C232.759 108.47 232.735 108.435 232.703 108.407C232.651 108.341 232.575 108.297 232.492 108.284L232.475 108.249Z" fill="#0B2538"/>
<path d="M226.579 114.242C226.12 114.817 225.812 115.498 225.684 116.222C225.438 117.081 225.228 117.974 225.035 118.815C224.666 120.568 224.385 122.215 224.175 123.932C223.964 125.65 223.806 127.279 223.754 128.962C223.583 130.713 223.636 132.48 223.912 134.219C224.105 135.077 225.666 135.095 225.666 134.219C225.772 132.544 225.772 130.864 225.666 129.189C225.666 127.437 225.772 125.807 225.912 124.125C226.052 122.443 226.281 120.831 226.509 119.201C226.632 118.36 226.789 117.449 226.947 116.695C227.167 115.945 227.22 115.155 227.105 114.382C227.111 114.33 227.111 114.277 227.105 114.224H226.947H226.754H226.596L226.579 114.242Z" fill="#0B2538"/>
<path d="M215.015 120.252C214.39 121.443 214.027 122.753 213.952 124.095C213.876 125.437 214.089 126.78 214.577 128.033C215.435 130.589 217.169 132.76 219.472 134.166C221.879 135.602 224.716 136.144 227.483 135.695C230.251 135.246 232.77 133.836 234.598 131.713C235.657 130.538 236.441 129.142 236.89 127.626C237.339 126.11 237.443 124.512 237.195 122.951C236.949 121.917 235.58 122.32 235.44 123.214C235.361 125.538 234.651 127.797 233.387 129.75C232.049 131.658 230.058 133.011 227.79 133.553C225.553 134.073 223.205 133.806 221.143 132.797C219.081 131.788 217.431 130.099 216.472 128.015C215.962 126.812 215.654 125.533 215.559 124.23C215.515 122.936 215.586 121.64 215.77 120.357C215.805 119.989 215.208 119.954 215.015 120.252Z" fill="#0B2538"/>
<path d="M265.41 111.333C271.71 111.333 271.464 101.537 265.165 101.537C258.865 101.537 259.093 111.333 265.41 111.333Z" fill="#0B2538"/>
<path d="M269.938 109.283C270.394 109.278 270.839 109.135 271.212 108.872C271.585 108.609 271.869 108.239 272.026 107.811C272.153 107.531 272.213 107.225 272.201 106.917L272.096 106.321C271.975 105.939 271.764 105.59 271.482 105.305L270.99 104.972C270.635 104.762 270.227 104.658 269.815 104.674C269.501 104.669 269.192 104.748 268.92 104.902C268.642 105.011 268.391 105.178 268.183 105.393C267.988 105.615 267.834 105.87 267.727 106.146C267.598 106.432 267.538 106.744 267.551 107.057L267.656 107.636C267.777 108.018 267.988 108.367 268.271 108.652L268.762 109.002C269.121 109.2 269.528 109.297 269.938 109.283Z" fill="#D8EEFE"/>
<path d="M183.677 103.08C183.87 103.5 184.063 103.921 184.273 104.341C183.795 102.967 182.852 101.802 181.606 101.047L180.22 100.539C179.238 100.267 178.201 100.267 177.219 100.539C176.706 100.681 176.22 100.906 175.78 101.205C174.966 101.699 174.286 102.385 173.798 103.202C173.173 104.544 173.018 106.056 173.359 107.495C173.643 108.404 174.157 109.225 174.85 109.879L176.044 110.72C176.487 110.944 176.952 111.126 177.43 111.263C178.908 111.565 180.445 111.329 181.764 110.597L182.869 109.686C183.55 108.991 184.029 108.125 184.256 107.18L182.94 109.546L183.747 108.459C184.118 107.864 184.324 107.18 184.343 106.479C184.457 106.019 184.457 105.538 184.343 105.077C184.295 104.379 184.058 103.707 183.659 103.132L183.677 103.08Z" fill="#0B2538"/>
<path d="M172.288 105.06L172.008 105.428L171.832 105.866C171.78 106.108 171.78 106.359 171.832 106.602C171.836 106.764 171.885 106.921 171.973 107.057C172.02 107.205 172.105 107.337 172.218 107.443C172.297 107.577 172.413 107.687 172.552 107.758C172.662 107.87 172.802 107.949 172.955 107.986C173.173 108.094 173.415 108.143 173.657 108.126L174.131 108.039L174.57 107.846L174.921 107.566L175.201 107.18L175.377 106.742C175.43 106.505 175.43 106.26 175.377 106.024C175.373 105.862 175.324 105.704 175.236 105.568C175.163 105.344 175.029 105.144 174.85 104.99C174.698 104.825 174.504 104.704 174.289 104.639C174.079 104.546 173.851 104.504 173.622 104.516H173.183C172.903 104.604 172.65 104.761 172.446 104.972L172.288 105.06Z" fill="#D8EEFE"/>
<path d="M173.517 217.945C168.885 221.103 164.826 225.026 161.515 229.546C158.111 234.088 155.227 238.996 152.917 244.178C148.338 254.606 146.001 265.876 146.056 277.262C146.227 288.888 149.066 300.321 154.355 310.679C159.725 321.456 167.165 331.041 174.64 340.469C178.465 345.253 182.396 349.914 186.186 354.751C189.916 359.538 193.244 364.626 196.135 369.961C196.837 371.258 197.468 372.572 198.065 373.921C198.101 374.057 198.167 374.183 198.258 374.289C198.35 374.406 198.471 374.497 198.609 374.552C198.736 374.608 198.874 374.638 199.013 374.64C199.155 374.642 199.296 374.613 199.427 374.556C199.557 374.498 199.673 374.413 199.767 374.307C199.855 374.192 199.921 374.061 199.96 373.921C199.996 373.783 199.996 373.638 199.96 373.501C199.941 373.361 199.887 373.228 199.802 373.115C194.204 362.52 187.748 352.398 180.5 342.852C173.534 333.127 166.112 323.997 160.321 313.483C157.504 308.484 155.233 303.196 153.548 297.712C152.758 295.077 152.125 292.397 151.653 289.686C151.46 288.512 151.285 287.391 151.127 285.919C150.969 284.447 150.864 283.22 150.776 281.871C150.589 279.165 150.542 276.451 150.636 273.74C150.636 272.338 150.776 270.954 150.899 269.552C150.899 269.219 150.899 268.868 150.986 268.535C150.96 268.391 150.96 268.242 150.986 268.097C150.986 268.465 150.986 268.097 150.986 268.097C151.092 267.344 151.179 266.59 151.285 265.837C152.073 260.424 153.39 255.101 155.215 249.943C156.093 247.472 157.075 245.212 158.268 242.618C159.422 240.161 160.698 237.763 162.094 235.434C163.55 233.033 165.147 230.755 166.744 228.424C168.34 226.094 170.025 224.254 171.709 222.221C172.569 221.17 173.464 220.136 174.359 219.102C174.903 218.489 174.148 217.35 173.394 217.928L173.517 217.945Z" fill="#0B2538"/>
<path d="M213.91 325.942C214.446 326.533 215.14 326.959 215.91 327.169C216.665 327.449 217.384 327.817 218.139 328.045C219.757 328.484 221.414 328.765 223.087 328.886C224.713 329.055 226.348 329.12 227.983 329.079C229.717 329.009 231.44 328.763 233.124 328.343C233.586 328.189 233.979 327.876 234.231 327.459C234.484 327.042 234.579 326.55 234.501 326.069C234.423 325.589 234.176 325.151 233.805 324.836C233.434 324.521 232.962 324.347 232.475 324.347C230.931 324.347 229.421 324.347 227.877 324.505C226.333 324.663 224.807 324.505 223.262 324.505C221.718 324.505 220.315 324.347 218.823 324.277C218.051 324.277 217.279 324.277 216.507 324.277C215.753 324.154 214.979 324.226 214.261 324.488C214.12 324.529 213.992 324.607 213.892 324.715C213.794 324.824 213.727 324.957 213.699 325.101C213.664 325.239 213.664 325.383 213.699 325.521C213.741 325.658 213.813 325.784 213.91 325.889V325.942Z" fill="#0B2538"/>
<path d="M224.456 327.729C224.275 328.159 224.116 328.598 223.982 329.044C223.877 329.482 223.806 329.937 223.719 330.375C223.543 331.269 223.385 332.128 223.263 333.074C222.999 334.826 222.824 336.772 222.719 338.611C222.613 340.451 222.719 342.344 222.719 344.201C222.719 345.13 222.719 346.059 222.719 346.988C222.692 347.408 222.692 347.829 222.719 348.249C222.719 348.477 222.719 348.722 222.806 348.95C222.881 349.225 222.975 349.494 223.087 349.756C223.21 350.603 223.245 351.461 223.192 352.315C223.192 353.243 223.192 354.19 223.192 355.118C223.192 356.993 223.192 358.868 223.192 360.744V363.425C223.192 364.406 223.456 365.37 223.473 366.368C223.473 368.226 223.473 370.101 223.315 371.958C223.315 372.975 223.315 374.009 223.21 375.025L222.894 378.074C222.789 379.09 222.648 380.019 222.455 381.001C222.35 381.526 222.262 382.087 222.21 382.63C222.21 382.77 222.21 383.016 222.21 382.805C221.998 383.165 221.764 383.51 221.508 383.839C221.336 384.157 221.246 384.512 221.246 384.873C221.246 385.234 221.336 385.59 221.508 385.907C221.668 386.237 221.917 386.516 222.227 386.713C222.596 386.972 223.04 387.102 223.491 387.081C223.855 387.116 224.222 387.062 224.561 386.923C224.895 386.787 225.191 386.57 225.421 386.293C225.654 386.014 225.816 385.683 225.895 385.329C225.982 384.978 225.982 384.611 225.895 384.26C225.804 383.93 225.686 383.607 225.544 383.296C225.544 383.191 225.544 382.981 225.544 383.296C225.517 382.841 225.517 382.384 225.544 381.929C225.544 381.018 225.544 380.177 225.544 379.178C225.544 377.426 225.544 375.498 225.544 373.658C225.544 371.818 225.544 369.943 225.456 368.086C225.386 367.153 225.386 366.215 225.456 365.282C225.526 364.349 225.526 363.412 225.456 362.478C225.298 358.728 225.052 354.978 224.982 351.246C224.93 350.78 224.93 350.31 224.982 349.844C225.087 349.511 225.175 349.196 225.263 348.863C225.263 347.864 225.263 346.9 225.368 345.901V340.311C225.368 338.279 225.368 336.246 225.368 334.231V329.569C225.368 329.009 225.368 328.465 225.21 327.922C225.194 327.834 225.158 327.75 225.105 327.677C225.036 327.617 224.95 327.58 224.859 327.572C224.774 327.544 224.682 327.544 224.596 327.572C224.556 327.597 224.521 327.63 224.494 327.669C224.466 327.709 224.448 327.753 224.438 327.8L224.456 327.729Z" fill="#0B2538"/>
<path d="M197.942 369.698C195.571 369.834 193.243 370.385 191.064 371.328C188.807 372.215 186.619 373.269 184.519 374.482C180.378 376.947 176.594 379.966 173.271 383.454C172.341 384.435 173.025 386.485 174.534 386.293C176.654 386.075 178.707 385.431 180.571 384.4C182.369 383.466 184.028 382.286 185.501 380.895C185.731 380.645 185.868 380.323 185.887 379.984C185.893 379.642 185.781 379.308 185.572 379.038C185.348 378.779 185.046 378.6 184.712 378.53C184.374 378.472 184.026 378.534 183.729 378.705C180.438 380.243 177.687 382.734 175.833 385.854C175.712 386.075 175.648 386.322 175.648 386.573C175.648 386.824 175.712 387.071 175.833 387.291C175.959 387.513 176.143 387.696 176.366 387.819C176.589 387.943 176.842 388.003 177.096 387.992C178.381 388.106 179.672 388.106 180.957 387.992C182.219 387.786 183.462 387.481 184.677 387.081C187.132 386.395 189.491 385.4 191.695 384.12C191.881 383.991 192.023 383.807 192.099 383.594C192.169 383.377 192.169 383.145 192.099 382.928C192.025 382.714 191.891 382.526 191.713 382.385C191.529 382.253 191.307 382.186 191.081 382.192C189.234 382.212 187.423 382.7 185.817 383.611C184.214 384.515 182.863 385.804 181.887 387.361C181.791 387.533 181.743 387.728 181.746 387.924C181.75 388.121 181.805 388.313 181.906 388.482C182.007 388.65 182.151 388.79 182.324 388.885C182.496 388.981 182.69 389.029 182.887 389.026C184.981 389.219 187.085 389.272 189.186 389.184C189.775 389.135 190.361 389.053 190.941 388.939C191.52 388.939 192.257 388.939 192.924 388.833C194.31 388.833 195.714 388.711 197.1 388.693C202.591 388.576 208.073 388.179 213.524 387.502C215.893 387.221 218.314 387.064 220.701 386.748C220.962 386.742 221.218 386.683 221.455 386.573C221.695 386.466 221.905 386.304 222.069 386.1C222.244 385.897 222.37 385.657 222.438 385.399C222.5 385.145 222.5 384.881 222.438 384.628C222.399 384.37 222.303 384.125 222.157 383.909C222.005 383.689 221.807 383.504 221.578 383.366C221.356 383.225 221.103 383.141 220.841 383.121C220.58 383.088 220.316 383.118 220.069 383.208C215.668 384.742 211.095 385.731 206.452 386.152C203.645 386.485 200.82 386.748 198.012 387.064C196.679 387.204 195.328 387.291 193.977 387.361C192.673 387.464 191.362 387.434 190.064 387.274C187.8 386.906 185.186 387.081 183.045 386.818L183.747 388.448C184.538 387.144 185.657 386.069 186.993 385.329C188.269 384.61 189.704 384.219 191.169 384.19L190.572 382.245C188.556 383.474 186.342 384.345 184.027 384.821C182.899 384.975 181.762 385.051 180.623 385.048C179.419 385.118 178.212 385.118 177.009 385.048L178.325 387.186C179.844 384.572 182.137 382.49 184.887 381.228L183.448 378.915C182.254 380.133 180.844 381.119 179.29 381.824C177.723 382.454 176.075 382.861 174.394 383.033L175.657 385.889C178.803 382.649 182.339 379.812 186.186 377.443C188.123 376.218 190.126 375.101 192.187 374.096C194.222 373.132 196.258 372.204 198.205 371.065C198.325 370.984 198.417 370.867 198.469 370.732C198.512 370.589 198.512 370.436 198.469 370.294C198.431 370.151 198.344 370.027 198.223 369.943C198.106 369.856 197.965 369.807 197.819 369.803L197.942 369.698Z" fill="#0B2538"/>
<path d="M270.569 219.172C274.183 223.254 277.541 227.556 280.624 232.052C282.167 234.312 283.59 236.652 284.888 239.061C286.204 241.549 287.256 243.845 288.257 246.246C290.35 251.332 291.926 256.615 292.959 262.017C293.082 262.648 293.187 263.278 293.31 263.909C293.31 264.102 293.31 264.277 293.31 264.47C293.31 264.663 293.31 263.927 293.31 264.645C293.31 265.013 293.433 265.399 293.486 265.767C293.661 267.116 293.819 268.465 293.942 269.815C294.184 272.524 294.278 275.244 294.223 277.963C294.223 279.347 294.223 280.749 294.047 282.134C294.047 282.764 293.959 283.413 293.907 284.044L293.801 285.165C293.801 285.165 293.801 285.621 293.801 285.253C293.788 285.477 293.759 285.699 293.714 285.919C292.785 294.215 290.397 302.283 286.66 309.75C283.991 315.061 280.936 320.168 277.518 325.031C274.149 329.937 270.499 334.634 266.99 339.435C263.48 344.236 259.971 348.985 256.637 353.979C253.273 358.897 250.157 363.979 247.302 369.207C246.635 370.522 245.916 371.801 245.266 373.115C244.617 374.429 246.477 375.235 247.021 374.079C251.987 362.987 259.795 353.454 267.481 344.149C275.453 334.905 282.593 324.978 288.818 314.482C294.608 304.36 298.062 293.075 298.925 281.45C299.619 270.118 297.891 258.769 293.854 248.156C291.834 242.828 289.221 237.743 286.063 232.998C283.012 228.226 279.242 223.952 274.886 220.329C273.815 219.487 272.727 218.681 271.587 217.91C270.692 217.437 270.043 218.541 270.569 219.172Z" fill="#0B2538"/>
<path d="M246.74 370.977C248.723 372.169 250.759 373.062 252.812 374.044C254.865 375.025 256.865 376.181 258.813 377.391C262.659 379.76 266.195 382.597 269.341 385.837L270.446 382.945C269.647 382.838 268.856 382.68 268.077 382.472C267.265 382.325 266.471 382.09 265.709 381.771C264.159 381.032 262.737 380.05 261.497 378.863L259.865 381.106C262.719 382.411 265.093 384.574 266.656 387.291C267.06 386.555 267.463 385.819 267.849 385.066C266.656 385.153 265.445 385.066 264.235 385.066C263.1 385.116 261.964 385.033 260.848 384.82C258.542 384.327 256.34 383.437 254.338 382.192C254.163 382.858 254.005 383.506 253.847 384.172C255.313 384.222 256.746 384.625 258.023 385.346C259.298 386.077 260.371 387.113 261.146 388.36C261.445 387.764 261.725 387.239 262.059 386.608C260.041 386.853 258.023 386.958 256.023 387.291C254.859 387.436 253.685 387.482 252.513 387.431C251.267 387.431 250.022 387.431 248.776 387.309C243.757 386.976 238.739 386.678 233.756 385.872C231.5 385.525 229.288 384.938 227.158 384.12C226.693 384.001 226.199 384.072 225.786 384.317C225.373 384.562 225.074 384.96 224.956 385.425C224.837 385.89 224.908 386.383 225.153 386.795C225.398 387.207 225.798 387.506 226.263 387.624C228.369 387.905 230.474 387.992 232.562 388.22C234.984 388.448 237.405 388.588 239.844 388.728C242.283 388.868 245.108 388.991 247.653 388.938C250.197 388.886 252.636 388.763 255.11 388.833C255.777 388.833 256.426 388.974 257.076 389.026C257.725 389.079 258.269 389.026 258.83 389.026C259.918 389.026 260.988 388.921 262.076 388.816C262.269 388.803 262.456 388.743 262.62 388.641C262.779 388.538 262.911 388.4 263.006 388.238C263.096 388.064 263.144 387.872 263.147 387.677C263.149 387.484 263.094 387.295 262.989 387.134C262.009 385.57 260.649 384.279 259.035 383.381C257.421 382.483 255.606 382.008 253.759 381.999C253.532 382.009 253.316 382.096 253.145 382.245C252.958 382.38 252.827 382.58 252.777 382.805C252.707 383.022 252.707 383.255 252.777 383.471C252.869 383.686 253.029 383.864 253.233 383.979C255.445 385.21 257.803 386.158 260.252 386.801C261.427 387.116 262.655 387.449 263.866 387.677C265.178 387.884 266.51 387.925 267.832 387.799C268.087 387.786 268.335 387.707 268.551 387.572C268.759 387.435 268.928 387.248 269.043 387.028C269.17 386.805 269.231 386.549 269.218 386.292C269.217 386.046 269.15 385.804 269.025 385.591C267.146 382.513 264.382 380.071 261.094 378.582C260.797 378.428 260.455 378.384 260.129 378.459C259.805 378.543 259.52 378.735 259.322 379.003C259.117 379.268 259.018 379.598 259.041 379.931C259.076 380.265 259.217 380.578 259.444 380.825C260.857 382.257 262.5 383.442 264.305 384.33C265.198 384.803 266.118 385.225 267.06 385.591C268.011 385.907 268.993 386.119 269.99 386.222C270.353 386.309 270.734 386.279 271.078 386.135C271.419 385.981 271.701 385.724 271.885 385.399C272.065 385.073 272.127 384.696 272.061 384.33C272.007 383.96 271.827 383.619 271.552 383.366C268.226 379.893 264.449 376.881 260.322 374.412C258.299 373.218 256.187 372.181 254.005 371.31C251.779 370.356 249.404 369.798 246.986 369.663C246.284 369.663 246.126 370.627 246.67 370.942L246.74 370.977Z" fill="#0B2538"/>
<path d="M169.797 219.049C169.218 219.049 168.621 219.049 168.042 219.049C167.697 219.032 167.352 219.032 167.007 219.049L165.954 219.172H165.428H164.954L163.936 219.312C163.164 219.435 162.41 219.54 161.637 219.627L152.373 220.819C148.986 221.257 145.687 221.87 142.371 222.571C139.241 223.167 136.148 223.939 133.106 224.885C126.997 226.739 121.448 230.088 116.963 234.628C114.161 237.451 112.456 241.178 112.155 245.142C112.021 248.852 113.011 252.517 114.998 255.656C117.318 259.317 120.53 262.331 124.333 264.417C128.169 266.466 132.18 268.172 136.317 269.517C136.177 268.553 136.019 267.589 135.861 266.625C132.978 268.893 130.582 271.717 128.815 274.93C127.049 278.142 125.948 281.676 125.578 285.323C125.491 286.076 126.491 286.479 127.052 286.129C131.675 283.229 135.657 279.419 138.756 274.931C139.353 274.073 138.16 273.179 137.37 273.617C134.949 275.057 132.923 277.074 131.474 279.487C130.031 281.903 129.2 284.634 129.053 287.443C129.053 288.232 129.93 288.512 130.509 288.232C134.969 286.075 138.895 282.957 142.002 279.102C142.173 278.921 142.273 278.684 142.283 278.436C142.282 278.187 142.195 277.945 142.037 277.753C141.886 277.557 141.667 277.426 141.423 277.385C141.179 277.33 140.923 277.367 140.704 277.49C138.563 278.506 136.159 279.768 135.335 282.151C134.992 283.097 134.979 284.13 135.297 285.084C135.616 286.038 136.247 286.857 137.089 287.408C139.423 288.687 141.827 286.83 143.213 285.042C144.757 283.094 146.114 281.006 147.266 278.804C152.039 270.002 154.056 259.973 153.057 250.013C152.761 247.213 152.214 244.445 151.425 241.742C151.022 240.41 150.548 239.078 150.039 237.782C149.77 237.055 149.453 236.347 149.091 235.661C148.74 235.066 148.214 234.47 147.898 233.909C147.663 233.557 147.307 233.301 146.898 233.191C146.473 233.098 146.029 233.167 145.652 233.383C145.474 233.498 145.32 233.647 145.2 233.822C145.08 233.996 144.995 234.193 144.95 234.4C144.857 234.816 144.92 235.252 145.126 235.626C145.292 236.054 145.427 236.493 145.529 236.941C145.722 237.484 145.933 238.01 146.161 238.535C146.582 239.552 146.986 240.568 147.354 241.619C148.073 243.707 148.659 245.837 149.109 247.998C149.91 252.253 150.14 256.596 149.793 260.913C149.461 265.205 148.564 269.435 147.126 273.494C146.384 275.531 145.48 277.506 144.424 279.4C143.456 281.365 142.228 283.192 140.774 284.832C140.125 285.48 139.019 286.339 138.107 285.848C137.784 285.632 137.526 285.332 137.362 284.98C137.198 284.627 137.134 284.237 137.177 283.851C137.265 281.485 140.055 280.346 141.88 279.435L140.599 277.788C137.608 281.506 133.865 284.551 129.614 286.725L131.071 287.513C131.211 285.029 131.971 282.62 133.282 280.504C134.586 278.386 136.394 276.622 138.546 275.369L137.159 274.055C134.246 278.277 130.496 281.856 126.14 284.569L127.614 285.358C127.969 282.09 129.074 278.948 130.842 276.175C132.544 273.452 134.82 271.132 137.51 269.376C137.751 269.236 137.95 269.035 138.088 268.793C138.227 268.552 138.299 268.279 138.299 268.001C138.299 267.723 138.227 267.449 138.088 267.208C137.95 266.967 137.751 266.766 137.51 266.625C134.129 265.169 130.847 263.495 127.684 261.614C124.848 259.954 122.348 257.779 120.314 255.2C119.806 254.512 119.343 253.792 118.928 253.045C118.735 252.712 118.56 252.361 118.402 252.028C118.051 251.362 118.542 252.431 118.261 251.748L118.016 251.064C117.729 250.316 117.494 249.549 117.314 248.769L117.208 248.226C117.051 247.49 117.208 248.699 117.208 247.963C117.208 247.525 117.103 247.069 117.086 246.631C117.068 246.193 117.086 245.878 117.086 245.51C117.086 245.51 117.173 244.703 117.086 245.264C117.069 245.119 117.069 244.972 117.086 244.826C117.227 243.966 117.45 243.121 117.752 242.303C117.91 241.9 117.507 242.793 117.752 242.163L118.051 241.532C118.226 241.199 118.402 240.866 118.612 240.533C118.823 240.2 119.016 239.902 119.244 239.587C118.928 240.007 119.384 239.411 119.419 239.376C119.556 239.188 119.702 239.006 119.858 238.833C120.413 238.22 120.999 237.635 121.613 237.081C122.14 236.575 122.696 236.101 123.28 235.661C124.564 234.655 125.905 233.725 127.298 232.875C127.772 232.595 128.263 232.297 128.772 232.052L129.544 231.666L130.035 231.438C130.492 231.228 129.579 231.631 130.176 231.438C131.422 230.913 132.685 230.422 133.966 230.001C139.788 228.128 145.741 226.688 151.776 225.691C155.128 225.095 158.479 224.359 161.848 223.623C163.322 223.307 164.849 223.045 166.287 222.589C167.059 222.429 167.812 222.188 168.533 221.87C168.972 221.59 169.709 221.222 170.288 220.889C170.454 220.773 170.579 220.607 170.646 220.416C170.712 220.225 170.716 220.017 170.658 219.823C170.6 219.629 170.482 219.459 170.321 219.335C170.16 219.212 169.964 219.143 169.762 219.137L169.797 219.049Z" fill="#0B2538"/>
<path d="M150.881 229.038C151.97 230.997 152.44 233.238 152.232 235.469C152.233 235.549 152.25 235.627 152.283 235.7C152.317 235.772 152.365 235.837 152.425 235.889C152.484 235.944 152.553 235.986 152.629 236.013C152.704 236.04 152.784 236.052 152.864 236.047C153.024 236.038 153.174 235.969 153.285 235.854C153.394 235.734 153.456 235.578 153.461 235.416C153.648 232.98 153.031 230.549 151.706 228.494C151.625 228.394 151.514 228.32 151.39 228.284C151.271 228.241 151.141 228.241 151.022 228.284C150.912 228.353 150.832 228.459 150.793 228.582C150.758 228.702 150.758 228.83 150.793 228.95L150.881 229.038Z" fill="#0B2538"/>
<path d="M150.302 288.95C146.723 293.377 141.579 296.262 135.931 297.011C133.156 297.288 130.356 296.91 127.754 295.907C126.523 295.419 125.346 294.802 124.245 294.067L123.438 293.541L122.981 293.226C122.981 293.226 122.56 292.91 122.806 293.121C122.233 292.688 121.682 292.226 121.156 291.736C120.613 291.246 120.016 290.65 119.402 289.984L118.7 289.16C118.928 289.441 118.7 289.16 118.595 289.02L118.138 288.424C117.239 287.127 116.441 285.762 115.752 284.341C115.579 284.077 115.349 283.855 115.079 283.692C114.809 283.528 114.505 283.426 114.191 283.394C113.876 283.362 113.559 283.401 113.261 283.507C112.964 283.613 112.694 283.785 112.471 284.008C112.029 284.472 111.656 284.997 111.365 285.568C111.085 286.024 110.821 286.497 110.576 286.97C110.138 288.015 109.786 289.093 109.523 290.194C108.963 292.41 108.715 294.692 108.786 296.976C108.712 301.959 110.291 306.827 113.278 310.819C119.367 318.214 130.948 317.741 138.703 313.448C143.834 310.431 148.357 306.485 152.039 301.812C153.197 300.41 151.197 298.448 149.951 299.85C146.927 303.608 143.51 307.033 139.756 310.066C136.2 312.849 131.956 314.617 127.473 315.183C123.247 315.654 119.006 314.431 115.682 311.783C111.979 308.629 110.418 303.722 110.119 299.026C109.869 296.669 110.096 294.285 110.786 292.017C111.124 290.965 111.673 289.992 112.401 289.16C112.718 288.811 113.058 288.483 113.418 288.179C114.015 287.688 114.331 287.776 115.05 287.303L111.962 286.111C113.021 289.197 114.83 291.973 117.226 294.19C119.601 296.406 122.434 298.074 125.526 299.079C128.568 300.09 131.786 300.466 134.98 300.183C138.173 299.9 141.275 298.963 144.09 297.431C147.26 295.733 149.914 293.215 151.776 290.142C152.337 289.178 150.934 288.109 150.197 288.95H150.302Z" fill="#0B2538"/>
<path d="M263.27 197.583C268.639 208.5 274.693 219.785 284.607 227.373C289.16 230.987 294.506 233.473 300.206 234.628C305.499 235.617 310.967 235.007 315.911 232.875C321.298 230.51 326.334 226.199 327.86 220.469C327.94 220.2 327.94 219.914 327.86 219.645C327.781 219.371 327.629 219.123 327.421 218.927C324.194 216.236 321.173 213.307 318.385 210.165L317.7 211.917C321.529 211.704 325.294 212.957 328.229 215.422C328.418 215.585 328.649 215.694 328.895 215.737C329.14 215.772 329.39 215.736 329.615 215.632C329.834 215.531 330.021 215.374 330.159 215.177C330.297 214.969 330.37 214.725 330.369 214.476C330.322 209.495 331.764 204.614 334.51 200.457L332.142 200.194C333.331 204.361 333.636 208.73 333.036 213.021C332.896 213.915 333.914 215.071 334.791 214.335C338.301 211.567 341.687 208.798 345.161 206.064L343.512 204.82C342.564 208.465 341.635 212.092 340.705 215.737C340.654 215.963 340.67 216.198 340.75 216.414C340.831 216.631 340.973 216.819 341.159 216.957C341.345 217.094 341.567 217.174 341.798 217.188C342.028 217.202 342.258 217.148 342.459 217.034C345.793 214.633 349.145 212.268 352.443 209.849L350.548 208.097C346.372 218.611 342.214 229.3 336.037 238.851C330.616 247.579 322.836 254.601 313.594 259.108C311.088 260.233 308.486 261.136 305.821 261.806C305.154 261.964 304.488 262.122 303.803 262.244L303.347 262.332H303.031L302.119 262.472C300.669 262.645 299.21 262.739 297.749 262.753C297.153 262.778 296.588 263.028 296.17 263.454C295.765 263.893 295.539 264.468 295.539 265.066C295.566 265.661 295.822 266.222 296.253 266.634C296.685 267.045 297.258 267.274 297.855 267.274C301.817 267.179 305.741 266.476 309.488 265.188C310.161 264.977 310.823 264.731 311.471 264.452L311.734 264.33L312.156 264.155L313.384 263.594C318.124 261.315 322.509 258.364 326.404 254.832C334.739 247.367 340.722 237.449 345.407 227.39C348.215 221.397 350.671 215.229 353.005 209.061C353.426 207.974 351.882 206.906 350.987 207.571C347.688 210.042 344.442 212.548 341.161 215.036L342.915 216.333L345.653 205.399C345.881 204.505 344.74 203.471 343.898 204.137C340.389 206.888 336.879 209.604 333.493 212.338L335.247 213.652C336.016 208.942 335.777 204.122 334.546 199.511C334.465 199.274 334.319 199.065 334.124 198.909C333.929 198.753 333.693 198.655 333.445 198.627C333.196 198.6 332.945 198.643 332.72 198.753C332.496 198.863 332.307 199.035 332.177 199.248C329.13 203.757 327.577 209.108 327.737 214.546L329.86 213.599C326.384 210.859 321.988 209.555 317.578 209.955C317.375 209.96 317.179 210.027 317.016 210.147C316.857 210.266 316.73 210.422 316.648 210.603C316.595 210.798 316.595 211.004 316.648 211.199C316.697 211.398 316.8 211.58 316.946 211.724C319.826 214.632 322.494 217.742 324.93 221.029V219.417C323.842 221.348 322.49 223.117 320.912 224.674C320.49 225.095 320.052 225.463 319.613 225.866C319.174 226.269 319.806 225.708 319.613 225.866L319.28 226.129C319.052 226.321 318.788 226.497 318.543 226.672C317.577 227.332 316.562 227.917 315.507 228.424L314.77 228.792H314.682L314.209 228.985C313.665 229.213 313.103 229.406 312.454 229.581C311.303 229.948 310.131 230.247 308.944 230.475L308.453 230.562L307.523 230.685C306.927 230.685 306.33 230.79 305.768 230.825C305.207 230.86 304.593 230.825 304.014 230.825C303.722 230.851 303.428 230.851 303.136 230.825C302.979 230.842 302.82 230.842 302.663 230.825H302.452C291.468 229.633 282.291 222.291 275.623 213.862C271.552 208.453 267.763 202.838 264.27 197.04C264.186 196.919 264.062 196.832 263.919 196.795C263.789 196.743 263.645 196.743 263.515 196.795C263.394 196.878 263.307 197.003 263.27 197.145C263.218 197.281 263.218 197.43 263.27 197.566V197.583Z" fill="#0B2538"/>
<path d="M161.567 55.7137C159.308 57.3089 157.135 59.0227 155.057 60.8481C152.952 62.6004 150.887 64.3936 148.863 66.2277C144.757 69.9252 140.844 73.8504 137.072 77.8983C129.489 86.0898 122.582 94.8801 116.419 104.183C110.331 113.416 105.047 123.154 100.627 133.29C96.1232 143.5 92.427 154.046 89.572 164.832C86.6927 175.651 84.6974 186.686 83.606 197.828C83.4888 199.18 83.442 200.537 83.4656 201.894C83.4978 202.44 83.7143 202.959 84.0797 203.366C84.4491 203.762 84.9458 204.016 85.4835 204.084C86.0386 204.142 86.5958 203.996 87.0511 203.673C87.5063 203.351 87.8285 202.874 87.9576 202.332C88.1857 200.807 88.4314 199.3 88.5542 197.758C88.5542 197.145 88.6771 196.532 88.7297 195.901C88.7038 195.75 88.7038 195.596 88.7297 195.445C88.7297 195.445 88.7297 194.709 88.7297 195.077C88.7297 195.445 88.7297 194.902 88.7297 194.832C88.7297 194.762 88.7297 194.359 88.7297 194.131C89.0455 191.432 89.414 188.734 89.8352 186.035C90.6891 180.615 91.7653 175.235 93.0638 169.896C94.3447 164.639 95.8362 159.382 97.5032 154.125C98.3454 151.497 99.2579 148.868 100.205 146.292C100.679 145.013 101.171 143.734 101.662 142.472C101.713 142.323 101.771 142.177 101.837 142.034C101.96 141.701 102.083 141.386 102.223 141.053L103.013 139.108C107.225 128.992 112.175 119.2 117.823 109.808C123.439 100.447 129.72 91.4988 136.615 83.0327C143.521 74.5394 151.077 66.5949 159.216 59.2709C160.234 58.3597 161.234 57.5186 162.181 56.4847C162.207 56.387 162.207 56.2845 162.181 56.1868C162.181 56.0731 162.144 55.9624 162.076 55.8714C162.011 55.7846 161.918 55.7227 161.813 55.6962C161.709 55.6702 161.601 55.6702 161.497 55.6962L161.567 55.7137Z" fill="#0B2538"/>
<path d="M84.3079 203.664C85.7435 203.959 87.1973 204.158 88.6595 204.26C90.0984 204.435 91.5548 204.575 93.0112 204.715C95.8655 204.996 98.7256 205.223 101.592 205.399L110.155 205.942L114.296 206.205C115.761 206.402 117.24 206.479 118.718 206.432C119.311 206.416 119.878 206.186 120.314 205.784C120.739 205.379 121.012 204.841 121.086 204.26C121.159 203.68 121.015 203.093 120.683 202.612C120.35 202.125 119.851 201.776 119.279 201.631C117.694 201.388 116.092 201.276 114.489 201.298L110.348 201.105L101.802 200.702C98.942 200.562 96.0994 200.475 93.2393 200.422H89.0982C87.6231 200.367 86.146 200.408 84.6763 200.545C84.2921 200.557 83.925 200.706 83.6411 200.965C83.3548 201.232 83.1728 201.592 83.1278 201.98C83.0828 202.369 83.1777 202.761 83.3954 203.086C83.6188 203.383 83.9433 203.589 84.3079 203.664Z" fill="#0B2538"/>
<path d="M160.514 53.8562C157.438 57.9012 154.709 62.198 152.355 66.7008C149.881 71.0992 147.495 75.5677 145.336 80.1413C140.809 89.2885 136.703 98.6635 133.053 108.179C129.402 117.702 126.337 127.44 123.876 137.338C121.392 147.204 119.499 157.211 118.209 167.303C116.894 177.526 116.191 187.819 116.103 198.126V201.894C116.102 202.222 116.169 202.547 116.298 202.848C116.428 203.149 116.619 203.421 116.857 203.646C117.329 204.096 117.96 204.342 118.612 204.33C119.276 204.313 119.906 204.036 120.367 203.559C120.809 203.084 121.049 202.455 121.034 201.806C120.95 191.701 121.413 181.599 122.42 171.543C122.666 169.055 122.894 167.005 123.227 164.411C123.56 161.818 123.911 159.347 124.297 156.806C125.069 151.847 126.052 146.905 127.017 141.981C129.039 132.096 131.575 122.322 134.615 112.7C137.596 103.07 141.177 93.6356 145.336 84.452C149.583 75.2897 154.321 66.3632 159.532 57.7113C160.181 56.6249 160.725 55.4859 161.286 54.3644C161.497 53.9263 160.918 53.4181 160.567 53.8387L160.514 53.8562Z" fill="#0B2538"/>
<path d="M285.642 56.5725C289.783 64.9487 294.416 73.1146 297.714 81.9113C299.364 86.3272 301.224 90.673 302.715 95.124C304.207 99.5749 305.611 104.008 306.891 108.494C308.172 112.98 309.33 117.624 310.313 122.25C310.804 124.587 311.261 126.923 311.682 129.26C312.12 131.765 312.366 133.36 312.735 135.848C314.06 145.137 314.775 154.503 314.875 163.886C314.875 168.559 314.752 173.278 314.507 178.045C314.366 180.358 314.191 182.653 313.963 185.054L313.787 186.806C313.787 187.052 313.787 187.315 313.7 187.56C313.7 187.139 313.7 187.56 313.7 187.56V188.068L313.279 191.573C313.121 192.764 312.963 193.938 312.787 195.077C312.639 195.711 312.738 196.377 313.064 196.94C313.39 197.503 313.918 197.921 314.542 198.109C315.179 198.266 315.852 198.172 316.421 197.845C316.99 197.519 317.411 196.986 317.595 196.357C319.091 186.789 319.894 177.126 319.999 167.443C320.091 157.962 319.504 148.487 318.244 139.09C316.957 129.52 315.022 120.047 312.454 110.737C309.87 101.569 306.603 92.6074 302.68 83.9265C301.68 81.666 300.522 79.4931 299.381 77.2851C298.241 75.0772 297.223 73.1146 296.083 71.0468C293.784 66.8762 291.257 62.8459 288.572 58.9206C287.906 57.9393 287.221 56.9755 286.484 56.0468C286.413 55.9459 286.306 55.8767 286.185 55.8538C286.063 55.8309 285.938 55.8561 285.835 55.9241C285.733 55.9893 285.659 56.0896 285.627 56.206C285.594 56.3224 285.606 56.4467 285.66 56.555L285.642 56.5725Z" fill="#0B2538"/>
<path d="M314.226 197.338C315.354 197.513 316.502 197.513 317.63 197.338C318.771 197.338 319.894 197.338 321.034 197.18C323.351 196.935 325.684 196.812 328.053 196.654C330.422 196.497 332.615 196.409 334.896 196.409C336.055 196.409 337.195 196.409 338.406 196.409C339.709 196.573 341.031 196.526 342.319 196.269C342.748 196.14 343.128 195.884 343.407 195.533C343.701 195.185 343.884 194.758 343.934 194.305C343.984 193.853 343.898 193.396 343.688 192.992C343.481 192.579 343.15 192.242 342.74 192.028C341.968 191.68 341.13 191.501 340.283 191.503H338.529H335.019C332.68 191.503 330.34 191.625 328.001 191.871C325.568 192.097 323.15 192.448 320.754 192.922C319.631 193.167 318.543 193.465 317.455 193.816C316.213 194.087 315.026 194.567 313.945 195.235C313.757 195.35 313.61 195.522 313.524 195.726C313.435 195.923 313.404 196.142 313.436 196.357C313.475 196.571 313.572 196.771 313.717 196.935C313.856 197.108 314.047 197.231 314.261 197.285L314.226 197.338Z" fill="#0B2538"/>
<path d="M285.607 56.555C288.379 60.5854 291.45 64.388 294.38 68.2782C297.311 72.1684 300.136 76.3389 302.856 80.5445C308.243 88.823 313.124 97.4193 317.472 106.286C319.701 110.825 321.473 114.733 323.386 119.394C325.298 124.055 327 128.524 328.65 133.167C331.866 142.503 334.469 152.038 336.441 161.713C336.932 164.149 337.388 166.619 337.809 169.073C337.897 169.669 338.002 170.212 338.09 170.825C338.09 170.352 338.09 171.105 338.09 171.246L338.248 172.332C338.441 173.541 338.616 174.75 338.774 175.977C339.429 180.848 339.915 185.737 340.231 190.644L340.441 194.324C340.477 194.99 340.765 195.616 341.248 196.076C341.624 196.422 342.092 196.65 342.595 196.733C343.099 196.816 343.615 196.75 344.082 196.543C344.548 196.336 344.944 195.998 345.22 195.569C345.496 195.141 345.64 194.641 345.635 194.131C345.102 184.043 343.889 174.003 342.003 164.079C340.146 154.299 337.649 144.653 334.528 135.2C331.349 125.671 327.527 116.368 323.087 107.355C318.679 98.4329 313.648 89.8311 308.032 81.6135C305.224 77.513 302.277 73.5352 299.153 69.6625C296.076 65.6739 292.766 61.8705 289.239 58.2723C288.362 57.4137 287.485 56.6076 286.519 55.8015C285.993 55.3459 285.081 55.9767 285.519 56.6076L285.607 56.555Z" fill="#0B2538"/>
<path d="M120.402 170.562C125.866 174.033 131.655 176.968 137.686 179.324C143.792 181.904 150.037 184.144 156.391 186.035C168.902 189.911 181.75 192.604 194.766 194.078C207.734 195.503 220.794 195.913 233.826 195.305C246.846 194.709 259.81 193.21 272.622 190.819C285.421 188.362 297.993 184.846 310.208 180.305C311.717 179.744 313.173 179.166 314.665 178.553C315.055 178.419 315.38 178.144 315.577 177.782C315.675 177.602 315.737 177.406 315.758 177.202C315.78 176.999 315.76 176.794 315.702 176.598C315.643 176.403 315.546 176.221 315.416 176.063C315.286 175.905 315.126 175.774 314.946 175.679C314.584 175.489 314.163 175.445 313.77 175.556C307.716 177.852 301.592 180.077 295.433 182.057C289.274 184.037 283.045 185.562 276.763 186.929C264.207 189.716 251.419 191.329 238.563 191.748C225.716 192.172 212.856 191.586 200.1 189.995C187.333 188.399 174.684 185.97 162.234 182.723C155.952 180.971 149.758 179.219 143.617 177.046C140.528 176.047 137.51 175.048 134.545 173.874C131.579 172.7 128.561 171.508 125.508 170.369C124.017 169.879 122.543 169.3 121.051 168.827C119.963 168.582 119.63 170.019 120.402 170.562Z" fill="#0B2538"/>
<path d="M183.378 189.365C183.086 190.631 182.91 191.921 182.852 193.22C182.676 194.464 182.413 195.778 182.132 197.075C181.121 202.108 179.245 206.928 176.587 211.321C175.34 213.541 173.908 215.651 172.306 217.63C170.457 219.91 168.47 222.075 166.358 224.114C165.059 225.34 166.849 227.618 168.34 226.549C170.637 224.979 172.719 223.118 174.534 221.012C176.341 218.87 177.961 216.577 179.377 214.16C182.902 207.976 184.798 201.001 184.887 193.886C185.044 192.358 184.925 190.815 184.536 189.33C184.485 189.209 184.399 189.105 184.291 189.032C184.181 188.96 184.053 188.924 183.922 188.927C183.797 188.941 183.678 188.983 183.571 189.049C183.471 189.134 183.392 189.242 183.343 189.365H183.378Z" fill="#0B2538"/>
<path d="M186.414 196.672C189.028 197.671 186.168 197.548 188.87 198.424C190.151 198.827 191.467 199.195 192.731 199.669C193.357 199.848 193.972 200.064 194.573 200.317C195.256 200.631 195.975 200.86 196.714 201C202.142 202.308 207.662 203.198 213.226 203.664C218.754 204.146 224.314 204.146 229.843 203.664C232.668 203.401 235.405 202.753 238.195 202.279C240.985 201.806 243.582 201.386 246.231 200.685C249.179 199.896 252.18 199.283 255.145 198.529C258.111 197.776 260.866 198.337 263.691 197.022C263.137 195.547 262.962 193.957 263.182 192.396C260.532 192.904 258.234 195.726 255.619 196.392C253.005 197.058 250.355 197.653 247.547 198.144C244.74 198.635 242.283 198.74 239.564 199.02C236.844 199.301 234.177 199.213 231.492 199.248C226.035 199.248 220.595 199.563 215.138 199.353C209.681 199.143 204.487 198.862 199.206 198.214L196.924 197.899L195.784 197.758C195.415 197.758 194.994 197.758 194.608 197.758C193.065 197.656 191.529 197.457 190.011 197.163C187.01 196.637 191.485 196.234 188.519 195.41C188.116 195.305 186.765 195.095 187.133 195.235L186.414 196.672Z" fill="#8689CB"/>
<path d="M144.003 63.2838C145.311 63.279 146.615 63.1499 147.898 62.8983L151.408 62.1973C153.952 61.7067 156.479 61.0934 159.005 60.445C163.919 59.3586 168.832 58.3247 173.815 57.4485C176.394 57.0104 178.167 56.73 180.834 56.327C183.501 55.924 185.835 55.591 188.362 55.3107C193.345 54.7149 198.346 54.2417 203.364 53.9263C213.382 53.2781 223.429 53.1903 233.457 53.6635C238.458 53.8913 243.459 54.2592 248.478 54.8025L249.32 54.8901C249.636 54.8901 249.32 54.8901 249.32 54.8901H249.741L251.689 55.1179C252.952 55.2581 254.198 55.4158 255.461 55.591C257.97 55.924 260.48 56.292 262.971 56.695C272.837 58.3065 282.603 60.4771 292.222 63.1962C293.45 63.5291 294.661 63.8796 295.89 64.195C296.234 64.2829 296.593 64.3018 296.946 64.2506C297.298 64.1995 297.637 64.0794 297.943 63.8971C298.4 63.6172 298.766 63.2091 298.993 62.7234C299.221 62.2376 299.3 61.6959 299.222 61.1655C299.143 60.635 298.91 60.1394 298.552 59.7402C298.193 59.3411 297.725 59.056 297.206 58.9205C292.398 57.3434 287.449 56.1342 282.536 54.9952C277.623 53.8562 272.622 52.8399 267.639 51.9812C247.59 48.5033 227.211 47.2983 206.891 48.3889C196.629 48.9424 186.41 50.1127 176.289 51.8936C166.264 53.4821 156.408 55.9928 146.845 59.3936C145.62 59.8587 144.444 60.4458 143.336 61.1459C143.147 61.298 143.001 61.4976 142.915 61.7242C142.843 61.9585 142.843 62.2089 142.915 62.4431C142.987 62.6773 143.127 62.8847 143.318 63.0385C143.513 63.1814 143.744 63.2665 143.985 63.2838H144.003Z" fill="#0B2538"/>
</svg>
