<svg viewBox="0 0 437 417" fill="none" xmlns="http://www.w3.org/2000/svg">
<path d="M350.022 129.437C350.995 128.046 351.667 126.467 351.996 124.802C352.325 123.136 352.304 121.421 351.934 119.764C351.068 115.964 348.32 112.879 345.252 110.642C342.185 108.406 338.647 107.075 335.05 105.995C331.076 104.792 327.172 103.903 323.773 102.119C323.024 101.724 322.286 101.289 321.577 100.824C321.252 100.607 320.932 100.386 320.619 100.161L320.508 100.08C320.247 99.871 319.979 99.6676 319.718 99.4527C318.381 98.3466 317.129 97.1426 315.971 95.8506C315.686 95.531 315.39 95.2115 315.134 94.8861L314.832 94.5259L314.617 94.2529C314.036 93.5383 313.519 92.812 312.996 92.0742C311.944 90.5869 310.963 89.0473 310.027 87.4844C308.075 84.2135 306.233 80.8438 304.572 77.416C304.345 76.957 304.124 76.4922 303.915 76.0216C303.869 75.9112 303.683 75.4929 303.694 75.5104C303.572 75.2373 303.462 74.9642 303.346 74.6912C302.898 73.5931 302.492 72.4776 302.143 71.3389C301.825 70.2999 301.561 69.245 301.353 68.1784C301.353 68.1784 301.272 67.6845 301.26 67.6322C301.231 67.4521 301.208 67.272 301.184 67.0919C301.126 66.5748 301.08 66.052 301.057 65.5291C301.016 64.8086 301.057 64.094 301.057 63.3736C301.428 63.2046 301.756 62.9545 302.017 62.6418C302.279 62.3291 302.467 61.9617 302.567 61.5668L304.484 54.1418C304.578 53.7385 304.578 53.3192 304.484 52.9159C305.367 48.717 305.241 44.3687 304.117 40.2279C302.993 36.0871 300.903 32.272 298.018 29.0956C296.903 27.8698 295.177 28.2183 294.172 29.2409C287.525 27.4166 280.809 35.225 277.323 40.3725C275.849 42.585 274.609 44.9449 273.622 47.414C262.769 41.3257 250.994 37.0515 238.763 34.7602C224.015 31.9807 208.874 32.0103 194.137 34.8474C190.107 35.6341 186.128 36.6623 182.221 37.9266C180.292 38.5424 178.422 39.2861 176.562 40.082C175.326 40.6327 174.126 41.2634 172.972 41.9702C172.285 40.8911 171.508 39.8726 170.648 38.9259C169.59 37.7988 168.516 36.6833 167.377 35.6317C164.933 33.3847 162.306 31.3461 159.522 29.5372C154.802 26.4469 149.706 23.9732 144.358 22.1761C143.278 22.118 142.197 22.0657 141.11 22.0657C140.343 22.2717 139.612 22.5951 138.943 23.0244L138.298 25.0752C137.009 37.5954 138.078 50.2027 137.107 62.7403C137.702 63.5313 138.448 64.1951 139.304 64.6925C139.403 64.75 139.483 64.8356 139.533 64.9384C139.584 65.0413 139.603 65.1568 139.588 65.2705C139.573 65.3842 139.525 65.4909 139.449 65.5772C139.374 65.6635 139.275 65.7256 139.164 65.7556L139.001 65.8079C139.025 65.8336 139.046 65.8608 139.065 65.8893C139.431 65.3083 140.355 65.8893 140.03 66.5284C138.63 69.1911 137.049 71.7553 135.301 74.2031C134.876 75.9112 134.377 77.5845 133.819 79.188C133.675 79.2647 133.554 79.3792 133.47 79.5191C133.128 80.0594 132.791 80.6114 132.454 81.1575C132.4 81.0046 132.304 80.8703 132.177 80.7707C132.049 80.671 131.896 80.6102 131.735 80.5955C131.573 80.5807 131.411 80.6128 131.268 80.6877C131.125 80.7627 131.006 80.8774 130.926 81.0181L121.223 97.4599C121.173 97.5424 121.138 97.6328 121.119 97.7271C120.735 98.0583 120.369 98.3604 120.067 98.5986C118.905 99.4856 117.722 100.318 116.517 101.097C114.205 102.584 111.749 103.834 109.185 104.827C103.079 107.151 96.2581 107.534 90.547 110.91C85.1844 114.082 80.8096 120.978 83.4182 127.264C84.0732 128.761 84.8936 130.18 85.8642 131.494C86.7152 132.579 87.4149 133.776 87.9441 135.049C88.8679 137.838 88.2404 140.83 87.6711 143.822C87.061 147.035 86.4219 150.341 86.8751 153.612C87.2635 156.558 88.2522 159.394 89.7801 161.943C92.795 166.95 97.6323 170.594 103.276 172.11C103.52 172.174 103.776 172.221 104.026 172.273C103.096 177.374 104.247 182.731 106.698 187.297C109.789 192.971 114.928 197.251 121.066 199.266C127.614 201.433 135.01 200.881 141.401 198.464C144.647 197.264 147.697 195.59 150.453 193.496C153.271 191.329 155.542 188.965 158.552 187.193C161.364 185.549 164.675 185.305 168.045 185.944C171.961 186.693 175.749 188.041 179.63 188.971C187.474 190.801 195.477 191.869 203.526 192.16C219.73 192.805 235.951 190.516 251.69 186.774C255.641 185.839 259.574 184.805 263.484 183.701C266.773 182.771 270.026 181.569 273.361 180.761L273.768 180.674C273.916 180.655 274.065 180.643 274.215 180.639C274.273 180.639 274.413 180.639 274.535 180.639C274.657 180.639 274.953 180.738 275.017 180.755L275.116 180.814C275.365 180.965 275.615 181.104 275.865 181.261L275.911 181.29L276.179 181.493C276.527 181.776 276.864 182.072 277.19 182.382C279.723 184.706 281.896 187.425 284.458 189.737C285.874 191.017 287.409 192.159 289.042 193.148C289.475 193.391 289.965 193.516 290.462 193.508C290.959 193.501 291.445 193.363 291.871 193.107C292.255 193.415 292.638 193.717 293.033 194.013C297.525 197.308 302.856 199.268 308.412 199.666C313.97 200.047 319.514 198.736 324.314 195.907C329.053 193.043 332.613 188.58 334.353 183.323C335.795 179.059 335.886 174.453 334.615 170.135C339.262 169.479 343.376 166.405 346.13 162.454C350.313 156.465 350.197 148.894 348.407 142.079C347.573 139.089 346.528 136.161 345.282 133.318C345.595 133.202 345.903 133.068 346.217 132.917C347.752 132.088 349.059 130.892 350.022 129.437Z" fill="#FF7B7B"/>
<path d="M219.399 107.087C209.816 107.094 200.368 109.342 191.809 113.65C183.25 117.959 175.817 124.209 170.104 131.901C164.39 139.594 160.555 148.516 158.903 157.954C157.251 167.393 157.829 177.087 160.591 186.263C163.006 185.513 165.573 185.399 168.045 185.932C171.961 186.681 175.749 188.029 179.63 188.959C187.474 190.789 195.476 191.858 203.526 192.148C219.73 192.793 235.951 190.504 251.69 186.763C255.641 185.827 259.574 184.793 263.484 183.689C266.772 182.76 270.026 181.557 273.361 180.749L273.768 180.662C273.916 180.643 274.065 180.631 274.215 180.627C274.273 180.627 274.412 180.627 274.534 180.627C274.656 180.627 274.953 180.726 275.017 180.744L275.115 180.802C275.365 180.953 275.615 181.092 275.865 181.249L275.911 181.278L276.179 181.481C276.527 181.764 276.864 182.06 277.19 182.37C277.771 182.893 278.305 183.439 278.845 183.991C281.203 174.909 281.45 165.408 279.567 156.215C277.684 147.023 273.721 138.384 267.983 130.96C262.244 123.536 254.882 117.525 246.461 113.387C238.039 109.249 228.782 107.094 219.399 107.087Z" fill="#EDD6B4"/>
<path d="M350.022 129.437C350.994 128.045 351.666 126.467 351.996 124.801C352.325 123.136 352.304 121.42 351.934 119.763C351.068 115.964 348.32 112.879 345.252 110.642C342.185 108.405 338.646 107.075 335.05 105.994C331.094 104.797 327.207 103.909 323.82 102.142C303.944 125.021 264.03 140.644 218.045 140.644C172.687 140.644 133.249 125.445 113.095 103.078C111.833 103.73 110.535 104.312 109.208 104.821C103.102 107.145 96.2811 107.528 90.57 110.904C85.2075 114.076 80.8327 120.972 83.4413 127.258C84.0962 128.755 84.9167 130.174 85.8873 131.488C86.7383 132.573 87.438 133.769 87.9672 135.043C88.891 137.832 88.2635 140.824 87.6941 143.816C87.0841 147.029 86.445 150.335 86.8982 153.606C87.2865 156.552 88.2752 159.388 89.8031 161.937C92.8181 166.944 97.6553 170.588 103.299 172.104C103.544 172.168 103.799 172.214 104.049 172.267C103.119 177.368 104.27 182.724 106.722 187.291C109.805 192.962 114.935 197.244 121.066 199.265C127.614 201.432 135.01 200.88 141.401 198.463C144.647 197.263 147.697 195.589 150.453 193.496C153.27 191.329 155.542 188.964 158.552 187.192C161.364 185.548 164.675 185.304 168.045 185.943C171.961 186.693 175.749 188.04 179.63 188.97C187.474 190.801 195.476 191.869 203.526 192.16C219.73 192.804 235.951 190.515 251.69 186.774C255.641 185.838 259.574 184.804 263.484 183.7C266.772 182.771 270.026 181.568 273.361 180.761L273.767 180.674C273.916 180.654 274.065 180.643 274.215 180.639C274.273 180.639 274.412 180.639 274.534 180.639C274.656 180.639 274.953 180.737 275.017 180.755L275.115 180.813C275.365 180.964 275.615 181.103 275.865 181.26L275.911 181.289L276.179 181.493C276.527 181.775 276.864 182.072 277.189 182.382C279.723 184.706 281.895 187.425 284.458 189.737C285.874 191.017 287.409 192.158 289.042 193.147C289.475 193.391 289.965 193.515 290.462 193.508C290.959 193.501 291.445 193.362 291.871 193.107C292.254 193.414 292.638 193.717 293.033 194.013C297.525 197.308 302.855 199.267 308.412 199.666C313.97 200.046 319.514 198.736 324.313 195.907C329.052 193.042 332.613 188.58 334.353 183.323C335.794 179.058 335.886 174.453 334.614 170.135C339.262 169.478 343.376 166.405 346.13 162.454C350.313 156.464 350.197 148.894 348.407 142.079C347.572 139.089 346.528 136.161 345.281 133.318C345.595 133.202 345.903 133.068 346.217 132.917C347.752 132.087 349.059 130.892 350.022 129.437Z" fill="#EDD6B4"/>
<path d="M114.443 106.175C116.767 110.439 121.682 113.524 125.615 116.226C129.439 118.927 133.527 121.234 137.816 123.11C142.179 124.964 146.589 126.596 150.964 128.38C152.986 129.199 154.955 130.239 157.035 130.901C159.563 131.709 162.206 132.15 164.78 132.778C165.837 133.039 166.523 131.482 165.489 130.977C161.335 128.903 157.204 126.689 153.102 124.505C148.963 122.229 145.027 119.603 141.337 116.656C137.671 113.751 133.784 111.206 130.048 108.458C126.313 105.71 122.699 102.363 118.295 100.87C115.169 99.8129 113.066 103.682 114.426 106.175H114.443Z" fill="#EDD6B4"/>
<path d="M157.605 108.237C152.283 105.913 147.588 102.195 143.597 98.0291C139.606 93.8634 137.334 88.3383 133.412 84.1843C130.67 81.2794 125.586 84.5212 126.83 88.2511C128.846 94.2294 134.963 98.8134 139.983 102.195C145.212 105.768 151.022 107.836 157.076 109.567C157.854 109.788 158.372 108.556 157.605 108.225V108.237Z" fill="#EDD6B4"/>
<path d="M160.812 87.5829C157.814 84.8872 155.298 81.6046 152.37 78.7985C149.385 76.0205 146.628 73.0071 144.126 69.7875C140.849 65.4301 133.546 69.985 136.904 74.2494C139.805 78.0752 143.183 81.5153 146.955 84.4863C150.859 87.4609 154.874 88.6287 159.522 89.9243C159.812 89.9828 160.113 89.9475 160.382 89.8234C160.651 89.6994 160.873 89.493 161.017 89.2341C161.16 88.9753 161.218 88.6774 161.181 88.3837C161.144 88.09 161.015 87.8156 160.812 87.6004V87.5829Z" fill="#EDD6B4"/>
<path d="M268.916 81.3839C273.245 82.9584 279.374 80.0418 283.272 78.2989C285.713 77.2125 288.089 76.0563 290.424 74.7781C292.911 73.4128 295.653 72.2857 296.99 69.6481C297.312 69.0378 297.471 68.3543 297.45 67.6644C297.43 66.9745 297.231 66.3016 296.873 65.7116C296.514 65.1216 296.009 64.6346 295.407 64.2981C294.804 63.9616 294.124 63.7871 293.434 63.7918C290.454 63.7918 288.205 65.7439 285.759 67.2254L279.426 71.0366C277.329 72.3032 275.208 73.5755 273.233 75.028C271.391 76.3758 269.218 77.7528 268.266 79.9024C268.194 80.0402 268.155 80.1922 268.15 80.3473C268.145 80.5023 268.175 80.6565 268.237 80.7986C268.299 80.9407 268.393 81.0669 268.51 81.1682C268.628 81.2695 268.767 81.3432 268.916 81.3839Z" fill="#EDD6B4"/>
<path d="M273.285 101.695C276.475 101.666 279.618 101.898 282.802 101.416C285.883 100.904 288.908 100.098 291.836 99.0109C297.903 96.777 303.564 93.5642 308.592 89.5002C310.469 87.9897 311.369 85.6367 310.027 83.4057C308.865 81.5001 305.838 80.5008 303.938 81.9649C299.209 85.5161 294.211 88.694 288.989 91.4698C286.549 92.777 284.051 93.9331 281.559 95.1183C278.688 96.4778 275.888 98.1453 272.896 99.1852C272.611 99.2832 272.37 99.4786 272.216 99.7369C272.061 99.9953 272.002 100.3 272.05 100.597C272.098 100.894 272.249 101.165 272.478 101.362C272.706 101.558 272.996 101.668 273.297 101.672L273.285 101.695Z" fill="#EDD6B4"/>
<path d="M281.373 130.198C285.393 129.431 289.396 128.885 293.265 127.485C297.097 126.088 300.826 124.426 304.426 122.512C308.047 120.604 311.571 118.515 314.983 116.254C318.335 114.041 322.129 111.787 324.831 108.789C328.2 105.053 323.733 99.9056 319.439 102.148C316.017 103.932 313.007 106.686 309.818 108.87C306.628 111.055 303.299 113.216 299.97 115.261C293.341 119.38 286.979 123.842 280.443 128.077C279.281 128.833 280.135 130.401 281.384 130.175L281.373 130.198Z" fill="#EDD6B4"/>
<path d="M226.946 108.481L226.824 108.394C226.678 108.304 226.517 108.244 226.348 108.218C226.179 108.192 226.007 108.201 225.842 108.243C225.643 108.148 225.435 108.076 225.22 108.028C224.436 107.853 223.64 107.743 222.85 107.598L218.103 106.755C217.952 106.728 217.797 106.736 217.649 106.777C217.501 106.818 217.364 106.892 217.249 106.994C216.455 107.178 215.719 107.554 215.104 108.088C214.489 108.623 214.015 109.301 213.722 110.061C213.422 110.687 213.368 111.402 213.571 112.066C214.024 113.408 216.093 113.466 216.424 111.996C216.47 111.792 216.499 111.583 216.546 111.38C216.546 111.328 216.703 110.938 216.61 111.153C216.719 110.882 216.883 110.637 217.092 110.433C217.406 111.887 218.193 113.197 219.329 114.157C219.6 114.411 219.96 114.549 220.332 114.54C220.703 114.532 221.057 114.377 221.316 114.111C221.914 113.424 222.315 112.589 222.478 111.694C222.522 111.45 222.522 111.2 222.478 110.956C222.991 111.129 223.452 111.429 223.82 111.827C224.105 112.016 224.439 112.117 224.781 112.117C225.123 112.117 225.458 112.016 225.743 111.827C225.825 111.854 225.908 111.875 225.993 111.891C226.318 111.959 226.658 111.901 226.943 111.73C227.228 111.559 227.439 111.287 227.532 110.967C227.602 110.747 227.641 110.519 227.649 110.288C227.744 109.951 227.727 109.593 227.6 109.267C227.473 108.941 227.243 108.665 226.946 108.481Z" fill="#EAD1B0"/>
<path d="M51.8241 351.529C51.4331 350.985 51.1001 350.4 50.8306 349.786C47.7281 342.698 51.6265 334.826 49.0179 327.663C47.8966 324.578 45.2356 321.498 41.6567 321.725C39.4606 321.859 37.7699 323.177 36.5847 324.897C36.381 324.773 36.138 324.731 35.9043 324.778C35.6706 324.825 35.4633 324.959 35.324 325.153C34.7377 326.058 34.2323 327.012 33.8134 328.005C32.903 329.547 32.3192 331.26 32.0983 333.037C31.8774 334.814 32.0242 336.617 32.5294 338.335C32.5501 338.401 32.5753 338.465 32.6049 338.527C32.5362 340.569 32.6158 342.614 32.8431 344.645C32.862 344.807 32.9242 344.962 33.0233 345.092C33.0233 346.457 33.0233 347.823 33.1394 349.159C33.4939 354.794 34.7314 360.407 37.3458 365.357C43.1636 361.912 48.116 357.183 51.8241 351.529Z" fill="#EDD6B4"/>
<path d="M346.56 212.047C345.204 210.587 343.405 209.613 341.441 209.276C342.485 208.353 343.622 207.541 344.834 206.853C345.729 206.348 345.095 205.11 344.16 205.261C340.355 205.999 336.305 206.813 332.459 205.877C329.455 205.151 326.649 203.362 325.435 200.439C325.367 200.325 325.273 200.227 325.162 200.154C325.051 200.081 324.924 200.035 324.792 200.018C324.66 200.001 324.525 200.015 324.399 200.057C324.273 200.1 324.158 200.171 324.064 200.265C322.71 201.897 323.372 203.815 324.064 205.598C324.447 206.417 324.684 207.295 324.767 208.195C324.767 209.41 323.762 209.938 322.815 210.484C317.551 213.464 312.521 216.838 307.767 220.576C305.83 222.125 303.929 223.723 302.062 225.369L284.696 201.706L275.075 188.599C274.29 187.524 273.506 186.443 272.71 185.374C272.151 184.551 271.47 183.818 270.688 183.201C268.678 181.743 266.197 182.487 263.984 182.934C253.835 184.994 243.556 186.352 233.22 187.001C222.946 187.661 212.64 187.631 202.37 186.914C192.038 186.19 181.768 184.763 171.63 182.644L169.794 182.243C169.412 182.063 168.996 181.969 168.574 181.97L167.818 181.836C167.703 181.809 167.583 181.806 167.466 181.827C167.35 181.847 167.239 181.892 167.14 181.957C167.041 182.022 166.956 182.107 166.891 182.206C166.826 182.305 166.782 182.417 166.761 182.533C157.649 187.63 148.922 193.388 140.651 199.759C132.576 206.011 124.314 213.017 118.94 221.837C113.566 230.656 114.919 240.341 123.007 246.819C126.452 249.59 130.345 251.438 134.307 253.332C136.439 254.349 138.496 255.452 140.541 256.632C141.593 257.213 142.685 257.736 143.76 258.276C142.762 259.4 142.192 260.84 142.15 262.343C142.075 262.424 141.999 262.5 141.912 262.581C140.895 263.505 141.79 265.126 142.911 265.283C143.048 265.523 143.197 265.756 143.359 265.98C143.492 266.154 143.651 266.307 143.829 266.433C143.69 266.904 143.545 267.38 143.417 267.856C142.836 269.931 145.439 271.034 146.856 269.745L148.158 268.583C148.018 269.657 149.36 270.785 150.331 270.006C151.684 268.969 152.585 267.45 152.846 265.765C154.669 264.221 155.854 262.055 156.17 259.688C156.809 255.557 154.874 252.826 152.515 249.695C150.389 246.865 147.187 243.798 150.877 240.864C152.701 239.417 154.88 238.581 157.076 237.744C157.355 250.764 158.348 263.759 160.051 276.67L159.202 276.403C159.592 279.168 159.9 281.905 160.178 284.641C160.515 284.643 160.849 284.596 161.172 284.502C162.365 292.213 163.806 299.878 165.494 307.497C164.913 307.137 163.908 307.596 164.187 308.438L164.82 310.361C156.933 298.984 146.248 289.83 133.796 283.781C130.521 282.195 127.142 280.836 123.681 279.714C119.614 278.39 115.309 277.361 110.98 277.39C103.962 277.437 97.571 280.661 92.6559 285.524C87.7407 290.387 84.278 296.563 82.0296 303.058C79.2002 311.233 77.9627 319.831 76.0744 328.244C75.2082 332.348 74.0431 336.383 72.5885 340.317C71.4013 343.62 69.6476 346.691 67.4061 349.392C65.0821 352.087 61.7124 354.493 58.0173 354.684C56.7968 354.748 55.581 354.489 54.492 353.934C53.4029 353.379 52.4788 352.548 51.8123 351.524C48.1064 357.183 43.1538 361.919 37.3341 365.369C38.2888 367.189 39.4339 368.903 40.7503 370.481C45.0787 375.635 51.4405 379.475 58.3078 379.492C65.576 379.492 72.0075 375.135 76.3185 369.557C81.4253 363.033 83.7493 354.922 86.1023 347.137C88.8136 338.287 91.5132 329.435 94.2013 320.581C95.5027 316.305 96.7809 312.023 98.1113 307.758C99.0576 304.485 100.316 301.309 101.87 298.277C103.422 295.418 105.461 292.763 108.261 291.032C111.677 288.905 115.762 288.505 119.695 288.853C127.736 289.574 135.237 293.013 141.575 297.905C147.24 302.274 152.213 307.479 158.093 311.575C160.899 313.57 163.969 315.165 167.214 316.316C167.334 316.351 167.461 316.351 167.58 316.316C170.342 327.436 173.634 338.409 177.457 349.235C180.943 359.152 184.981 368.831 189.414 378.354C184.216 379.951 179.702 383.242 176.591 387.702C176.58 387.72 176.571 387.74 176.562 387.76L176.022 388.219C175.918 388.334 175.846 388.473 175.811 388.624C175.777 388.775 175.781 388.933 175.824 389.082C175.867 389.23 175.947 389.366 176.057 389.475C176.167 389.584 176.303 389.664 176.452 389.706C176.479 389.924 176.577 390.128 176.73 390.286C176.883 390.444 177.083 390.548 177.3 390.583L178.787 390.757C178.989 390.872 179.163 391.028 179.299 391.216C179.417 391.406 179.603 391.544 179.819 391.601C180.035 391.658 180.264 391.631 180.461 391.524C180.719 391.348 180.989 391.189 181.268 391.048L182.581 391.182C183.415 391.479 184.31 391.563 185.184 391.426C188.469 391.716 191.761 391.925 195.061 392.053C198.059 392.169 201.057 392.214 204.055 392.187C205.484 392.187 206.907 392.146 208.337 392.105C209.557 392.07 211.108 392.251 212.235 391.71C213.362 391.17 213.577 390.002 213.449 388.881C213.292 387.475 213.089 386.075 212.915 384.669C212.555 381.834 212.206 378.998 211.904 376.152C211.718 374.409 211.549 372.666 211.41 370.923C211.616 370.898 211.806 370.798 211.943 370.641C212.079 370.484 212.152 370.282 212.148 370.075C212.57 359.931 212.992 349.787 213.414 339.643C213.426 339.484 213.387 339.326 213.305 339.189C213.223 339.053 213.101 338.946 212.955 338.882C213.13 336.494 213.321 334.112 213.536 331.724C213.742 329.582 213.966 327.436 214.21 325.287C214.315 324.334 214.431 323.387 214.547 322.434C214.664 321.481 214.687 320.406 215.192 319.61C216.052 318.268 217.783 318.785 219.033 319.163C220.361 319.644 221.736 319.986 223.134 320.186C224.938 334.381 225.839 348.677 225.83 362.987C225.83 370.276 225.586 377.563 225.098 384.849C224.994 386.441 224.674 388.137 224.848 389.729C225.005 391.211 225.877 392.268 227.416 392.396C229.192 392.461 230.97 392.435 232.744 392.32L238.223 392.216L263.037 391.739C263.19 391.738 263.34 391.697 263.472 391.62C263.605 391.543 263.715 391.432 263.791 391.3C263.867 391.167 263.908 391.016 263.908 390.863C263.908 390.71 263.868 390.559 263.792 390.426C261.178 386.268 257.782 382.655 253.793 379.789C252.84 379.103 251.835 378.522 250.888 377.871C250.482 377.635 250.14 377.302 249.895 376.901C249.67 376.288 249.691 375.611 249.953 375.013C250.76 372.335 251.696 369.697 252.556 367.03C252.679 366.93 252.775 366.8 252.834 366.653C257.122 355.904 261.41 345.156 265.32 334.245C269.266 323.447 272.644 312.449 275.441 301.298C278.21 290.199 280.031 278.886 280.885 267.479C281.299 261.619 281.427 255.747 281.268 249.863C283.574 251.809 286.162 253.394 288.943 254.564C291.767 255.871 294.761 256.77 297.838 257.236C300.766 257.707 303.764 257.498 306.599 256.626C309.449 255.664 311.934 253.849 313.716 251.426C317.435 246.476 318.196 240.039 320.961 234.578C323.76 229.134 327.975 224.546 333.162 221.296C336.011 219.496 339.116 218.137 342.371 217.264C343.184 217.049 344.114 216.991 344.892 216.683C345.671 216.376 345.839 215.434 345.775 214.731C345.737 214.3 345.606 213.882 345.392 213.505L345.973 213.459C346.126 213.439 346.272 213.379 346.395 213.284C346.518 213.19 346.614 213.065 346.673 212.922C346.733 212.779 346.754 212.623 346.734 212.47C346.714 212.316 346.654 212.17 346.56 212.047Z" fill="#FF7B7B"/>
<path d="M262.781 247.04C259.719 217.253 232.314 184.294 205.437 210.141C181.89 232.381 176.754 297.12 216.389 299.34C244.201 301.007 265.93 273.8 262.781 247.04Z" fill="#EDD6B4"/>
<path d="M158.319 48.2622L157.994 48.0589C158.034 48.0589 157.796 47.902 157.761 47.8672C157.517 47.658 157.273 47.4644 157.029 47.2862C156.448 46.8214 155.867 46.3799 155.228 45.9616C154.149 45.234 153.01 44.5985 151.824 44.0617C151.693 44.0044 151.557 43.9615 151.417 43.9339C151.201 43.8 150.951 43.7314 150.697 43.7364C150.351 43.7512 150.024 43.898 149.783 44.1465C149.542 44.3951 149.405 44.7265 149.401 45.0727C149.314 45.9035 149.343 46.7575 149.331 47.5941C149.331 47.6987 149.331 47.8033 149.331 47.9078C149.302 48.4888 149.273 49.0698 149.25 49.6856C149.195 51.2196 149.218 52.7554 149.32 54.287C149.33 54.436 149.393 54.5765 149.496 54.6842C149.6 54.7918 149.738 54.8598 149.886 54.8764C150.035 54.893 150.184 54.8571 150.309 54.7749C150.434 54.6927 150.526 54.5694 150.569 54.4264C150.569 54.3161 150.615 54.2057 150.644 54.0953C150.851 54.1682 151.07 54.1998 151.289 54.1882C151.417 54.1816 151.543 54.1621 151.667 54.1301C152.015 54.2437 152.387 54.2558 152.742 54.165C153.804 53.8206 154.816 53.336 155.751 52.7242L158.401 51.2485C158.657 51.0884 158.867 50.8645 159.011 50.5986C159.154 50.3328 159.226 50.0342 159.22 49.7321C159.203 49.4316 159.113 49.1399 158.955 48.8833C158.798 48.6267 158.58 48.4132 158.319 48.2622Z" fill="#EDD6B4"/>
<path d="M295.258 52.2768C295.167 51.2127 294.99 50.1578 294.73 49.122C294.569 47.8482 294.239 46.6015 293.748 45.4154C293.674 45.2024 293.524 45.0246 293.326 44.917C293.128 44.8095 292.897 44.78 292.679 44.8344C292.528 44.8839 292.392 44.9697 292.283 45.0842C292.173 45.1987 292.094 45.3384 292.051 45.4909C290.75 45.642 289.303 47.0305 288.53 47.8148C287.49 48.8953 286.661 50.1602 286.084 51.5447H286.044C285.897 51.4865 285.74 51.4614 285.582 51.4713C285.425 51.4811 285.272 51.5256 285.134 51.6016C284.996 51.6776 284.876 51.7832 284.783 51.9109C284.691 52.0385 284.628 52.1851 284.599 52.34C284.569 52.4949 284.575 52.6543 284.614 52.8069C284.654 52.9595 284.727 53.1014 284.828 53.2225C284.929 53.3436 285.055 53.4409 285.198 53.5074C285.341 53.5739 285.497 53.608 285.654 53.6072C285.754 53.8195 285.93 53.9858 286.148 54.072L286.613 54.4961C287.322 55.1197 288.046 55.7355 288.786 56.3436C290.239 57.5307 291.756 58.6381 293.329 59.661C293.445 59.7269 293.574 59.7656 293.707 59.7742C293.84 59.7828 293.973 59.7611 294.096 59.7107C294.219 59.6603 294.329 59.5826 294.418 59.4834C294.506 59.3842 294.571 59.2661 294.608 59.1381C295.232 56.9081 295.452 54.5844 295.258 52.2768Z" fill="#EDD6B4"/>
<path d="M148.076 210.885C148.82 214.807 151.975 218.258 154.241 221.413C155.554 223.243 157.976 224.015 159.987 222.772C161.73 221.697 162.769 218.792 161.346 217.02C158.708 213.744 156.117 209.468 152.219 207.539C149.819 206.377 147.611 208.439 148.076 210.885Z" fill="#EDD6B4"/>
<path d="M145.88 225.991C145.764 224.829 145.88 223.632 145.572 222.505C145.177 221.035 144.294 219.6 143.661 218.223C142.377 215.469 141.286 212.628 140.396 209.723C138.856 204.541 130.594 207.039 132.355 212.152C133.438 215.56 135.014 218.791 137.032 221.744C139.147 224.683 140.977 226.223 144.439 227.164C144.613 227.207 144.795 227.21 144.97 227.171C145.145 227.132 145.309 227.053 145.448 226.941C145.588 226.828 145.699 226.685 145.774 226.522C145.849 226.359 145.885 226.181 145.88 226.002V225.991Z" fill="#EDD6B4"/>
<path d="M128.485 231.539C130.391 239.272 140.686 243.6 148.012 243.472C152.835 243.391 154.049 235.374 148.977 234.758C145.606 234.452 142.268 233.851 139.001 232.963C135.934 232.039 133.128 230.598 129.984 229.959C129.767 229.909 129.54 229.917 129.326 229.982C129.113 230.046 128.919 230.165 128.765 230.327C128.611 230.489 128.502 230.687 128.448 230.904C128.394 231.12 128.397 231.347 128.456 231.562L128.485 231.539Z" fill="#EDD6B4"/>
<path d="M118.702 242.839C122.234 247.528 128.578 250.607 134.423 250.874C137.909 251.031 138.426 245.593 135.091 244.838C132.506 244.257 129.862 244.048 127.323 243.316C124.854 242.607 122.449 241.765 119.968 241.108C119.05 240.864 118.08 242.009 118.702 242.851V242.839Z" fill="#EDD6B4"/>
<path d="M160.957 198.197C161.137 197.616 161.77 197.035 161.997 196.407C162.163 195.94 162.28 195.457 162.345 194.966C162.53 193.665 162.637 192.353 162.665 191.039C162.717 188.959 160.631 187.46 158.703 187.768C156.495 188.122 155.618 190.092 155.96 192.114C156.136 193.205 156.382 194.284 156.698 195.344C156.844 195.892 157.059 196.419 157.337 196.913C157.68 197.494 158.377 197.982 158.639 198.557C159.133 199.626 160.672 199.138 160.963 198.197H160.957Z" fill="#EDD6B4"/>
<path d="M277.579 204.018C277.873 204.371 278.247 204.648 278.671 204.826C279.335 205.058 280.058 205.058 280.722 204.826C281.217 204.675 281.649 204.366 281.953 203.946C282.256 203.527 282.413 203.019 282.401 202.502C282.378 201.988 282.192 201.495 281.871 201.094C281.549 200.693 281.108 200.405 280.611 200.271C279.941 200.051 279.213 200.077 278.561 200.346C278.154 200.544 277.795 200.827 277.509 201.177C277.144 201.565 276.946 202.08 276.957 202.612C276.991 203.139 277.212 203.638 277.579 204.018Z" fill="#EDD6B4"/>
<path d="M282.447 217.363C280.821 218.159 279.693 219.646 278.572 221.018C277.311 222.557 277.335 224.742 279.031 225.985C279.412 226.263 279.847 226.457 280.308 226.555C280.769 226.653 281.245 226.652 281.706 226.552C282.167 226.452 282.601 226.255 282.98 225.975C283.359 225.696 283.675 225.338 283.906 224.928C284.963 223.138 285.898 221.442 286.119 219.35C286.34 217.259 283.865 216.672 282.447 217.363Z" fill="#EDD6B4"/>
<path d="M288.612 235.902C290.882 235.063 292.895 233.65 294.457 231.801C296.281 229.73 297.946 227.524 299.436 225.201C301.661 221.715 296.083 217.503 293.515 220.861C290.361 224.991 287.206 229.488 287.061 234.804C287.067 234.989 287.116 235.169 287.203 235.332C287.29 235.494 287.413 235.635 287.563 235.743C287.712 235.851 287.884 235.924 288.066 235.956C288.248 235.987 288.435 235.977 288.612 235.926V235.902Z" fill="#EDD6B4"/>
<path d="M295.572 235.612C290.994 238.9 289.954 247.371 290.006 252.6C290.059 257.317 296.682 256.847 297.135 252.425C297.414 249.654 297.617 246.895 298.117 244.146C298.553 241.718 299.279 239.255 298.733 236.809C298.637 236.497 298.471 236.211 298.248 235.973C298.025 235.735 297.751 235.551 297.446 235.436C297.141 235.32 296.813 235.276 296.489 235.307C296.164 235.337 295.85 235.442 295.572 235.612Z" fill="#EDD6B4"/>
<path d="M310.736 239.162C313.292 234.909 312.665 229.401 311.166 224.904C309.51 219.925 302.224 222.946 304.478 227.92C306.041 231.365 306.07 235.112 306.802 238.743C307.192 240.661 309.858 240.614 310.73 239.162H310.736Z" fill="#EDD6B4"/>
<path d="M319.05 220.181C318.341 223.086 320.055 226.52 321.234 229.14C322.164 231.208 324.139 232.515 326.434 231.464C326.924 231.24 327.362 230.916 327.718 230.512C328.074 230.107 328.341 229.632 328.5 229.118C328.66 228.603 328.709 228.061 328.644 227.526C328.579 226.991 328.402 226.476 328.125 226.014C327.393 224.655 326.556 223.353 325.714 222.058C324.871 220.762 323.854 219.368 322.379 218.711C321.054 218.13 319.416 218.624 319.05 220.164V220.181Z" fill="#EDD6B4"/>
<path d="M187.938 219.728C181.222 218.392 173.878 214.139 169.056 209.334C165.157 205.453 159.098 211.815 163.171 215.516C166.482 218.519 170.293 221.174 174.523 222.697C178.753 224.219 183.005 224.196 187.473 223.928C189.797 223.795 190.378 220.21 187.938 219.728Z" fill="#EDD6B4"/>
<path d="M177.782 246.436C175.351 245.174 172.773 244.218 170.108 243.589C167.305 242.759 164.606 241.615 162.061 240.178C156.832 237.419 152.626 245.111 157.628 248.208C163.641 251.932 172.431 253.704 178.166 248.922C178.962 248.26 178.602 246.877 177.782 246.436Z" fill="#EDD6B4"/>
<path d="M178.026 274.084C173.152 273.672 168.376 273.445 163.502 272.661C157.959 271.766 155.734 279.947 161.358 281.248C167.499 282.677 174.808 281.289 179.014 276.344C179.189 276.15 179.304 275.909 179.345 275.651C179.386 275.392 179.352 275.127 179.245 274.888C179.139 274.649 178.966 274.446 178.746 274.303C178.527 274.16 178.271 274.084 178.009 274.084H178.026Z" fill="#EDD6B4"/>
<path d="M184.51 306.318C179.026 305.737 173.634 304.319 168.086 303.918C162.648 303.523 163.095 312.964 169.364 311.866C174.529 310.96 179.467 309.077 184.551 307.985C185.347 307.811 185.358 306.41 184.51 306.318Z" fill="#EDD6B4"/>
<path d="M257.105 216.207C263.124 218.223 270.95 214.952 274.935 210.31C278.671 205.97 272.815 200.619 268.591 204.274C266.807 205.925 264.885 207.42 262.845 208.741C260.788 209.985 258.528 210.804 256.454 211.989C254.595 213.046 255.333 215.609 257.11 216.207H257.105Z" fill="#EDD6B4"/>
<path d="M268.027 251.182C272.298 252.344 277.265 252.065 281.134 249.724C285.678 246.982 281.46 240.347 276.841 242.752C273.878 244.309 271.217 245.825 267.917 246.65C265.593 247.231 265.901 250.572 268.027 251.159V251.182Z" fill="#EDD6B4"/>
<path d="M258.975 284.478C260.242 287.11 264.106 287.964 266.766 288.22C270.295 288.477 273.828 287.771 276.986 286.175C281.053 284.182 277.951 277.1 273.674 278.831C271.255 279.88 268.72 280.637 266.122 281.085C263.96 281.417 261.41 281.184 259.504 282.352C259.164 282.575 258.923 282.919 258.829 283.315C258.735 283.71 258.796 284.126 258.999 284.478H258.975Z" fill="#EDD6B4"/>
<path d="M248.111 308.525C254.734 313.568 264.379 313.975 272.35 312.975C272.932 312.935 273.499 312.774 274.015 312.502C274.532 312.231 274.986 311.855 275.349 311.398C275.712 310.941 275.975 310.414 276.123 309.849C276.271 309.285 276.3 308.696 276.207 308.12C276.115 307.544 275.904 306.993 275.587 306.504C275.27 306.014 274.855 305.595 274.367 305.275C273.879 304.954 273.331 304.739 272.755 304.642C272.18 304.546 271.591 304.57 271.025 304.714C263.554 306.068 255.92 305.481 248.5 306.887C248.339 306.938 248.193 307.03 248.078 307.154C247.962 307.279 247.881 307.431 247.842 307.596C247.803 307.761 247.807 307.933 247.854 308.096C247.901 308.259 247.99 308.407 248.111 308.525Z" fill="#EDD6B4"/>
<path d="M202.724 328.395C201.417 328.104 200.731 327.715 199.389 327.587C198.332 327.488 197.309 327.453 196.246 327.407C193.788 327.291 191.313 326.942 188.873 326.64C183.98 326.1 179.16 325.037 174.494 323.468C168.934 321.533 166.587 330.643 172.263 332.409C177.666 334.094 183.36 335.134 189.03 334.698C191.794 334.455 194.523 333.904 197.164 333.054C198.37 332.719 199.538 332.262 200.65 331.689C201.731 331.108 202.195 330.411 203.125 329.638C203.214 329.542 203.276 329.426 203.306 329.299C203.336 329.172 203.333 329.04 203.296 328.914C203.26 328.789 203.192 328.676 203.099 328.585C203.006 328.494 202.891 328.428 202.765 328.395H202.724Z" fill="#EDD6B4"/>
<path d="M186.7 349.74C190.244 351.843 195.555 351.82 199.564 351.773C204.16 351.649 208.738 351.148 213.252 350.274C215.674 349.845 216.947 346.748 216.296 344.587C215.529 342.048 213.031 341.048 210.608 341.542C206.71 342.338 202.765 342.844 198.808 343.25C195.148 343.634 190.61 343.425 187.188 344.889C185.143 345.778 184.58 348.497 186.671 349.74H186.7Z" fill="#EDD6B4"/>
<path d="M202.503 361.772C200.307 361.034 197.78 361.226 195.491 361.011C192.934 360.773 190.39 360.517 187.822 360.349C182.692 360.023 181.669 368.686 186.822 369.43C192.092 370.185 199.715 369.644 203.532 365.31C203.78 365.037 203.955 364.704 204.038 364.344C204.121 363.984 204.111 363.608 204.008 363.254C203.905 362.899 203.712 362.576 203.449 362.317C203.185 362.057 202.86 361.87 202.503 361.772Z" fill="#EDD6B4"/>
<path d="M237.31 330.236C241.377 333.525 246.664 333.949 251.777 334.135C254.37 334.238 256.968 334.137 259.545 333.833C262.322 333.49 265.518 333.397 267.807 331.672C270.712 329.481 270.601 324.374 266.534 323.485C263.937 322.904 261.759 323.66 259.202 324.066C256.878 324.427 254.473 324.7 252.108 324.886C247.489 325.257 242.632 324.711 238.246 326.315C236.73 326.896 235.852 329.069 237.31 330.248V330.236Z" fill="#EDD6B4"/>
<path d="M250.545 344.906C249.273 342.106 244.021 341.955 241.383 341.659C237.602 341.248 233.863 340.507 230.211 339.445C224.401 337.743 222.077 347.044 227.922 348.607C232.604 349.856 237.798 350.89 242.65 350.449C245.253 350.211 252.439 349.066 250.545 344.906Z" fill="#EDD6B4"/>
<path d="M233.865 365.27C234.992 367.64 238.403 368.552 240.767 369.203C243.957 370.08 247.211 370.127 250.493 369.964C256.355 369.674 256.059 360.349 250.272 360.889C247.211 361.174 244.143 361.232 241.087 361.511C238.658 361.726 235.992 361.575 234.074 363.254C233.827 363.529 233.674 363.875 233.636 364.242C233.599 364.61 233.679 364.98 233.865 365.299V365.27Z" fill="#EDD6B4"/>
<path d="M59.2548 374.385C64.8381 372.102 65.8258 362.655 65.5992 357.537C65.39 352.889 58.0463 353.133 58.4298 357.717C58.672 360.58 58.635 363.46 58.3194 366.316C58.0638 368.64 57.1168 371.266 57.7384 373.589C57.8323 373.894 58.0424 374.148 58.3231 374.298C58.6037 374.449 58.9323 374.482 59.2374 374.391L59.2548 374.385Z" fill="#EDD6B4"/>
<path d="M71.9495 350.397C71.9495 352.477 72.7628 354.463 73.3671 356.416C73.9572 358.532 74.3214 360.706 74.4535 362.899C74.837 367.053 81.0594 366.966 80.9897 362.742C80.9141 358.095 79.4036 351.036 74.9532 348.584C74.6419 348.418 74.2927 348.335 73.9398 348.345C73.587 348.354 73.2427 348.455 72.9408 348.638C72.6389 348.821 72.3898 349.079 72.2181 349.388C72.0463 349.696 71.9577 350.044 71.9611 350.397H71.9495Z" fill="#EDD6B4"/>
<path d="M85.9686 340.956C86.7006 338.841 85.4805 336.697 84.5916 334.78C83.4297 332.247 81.9946 329.754 79.6707 328.139C77.0911 326.356 73.0125 329.563 74.2733 332.502C75.4352 335.152 77.5965 337.063 79.8972 338.748C81.5821 339.98 83.3832 341.548 85.5851 341.269C85.6731 341.261 85.7566 341.227 85.825 341.171C85.8934 341.115 85.9434 341.04 85.9686 340.956Z" fill="#EDD6B4"/>
<path d="M80.4726 318.623C80.6933 320.772 81.803 322.248 83.5169 323.503C85.0106 324.678 86.5937 325.735 88.252 326.664C89.0885 327.112 90.0584 327.244 90.9845 327.036C91.9105 326.828 92.7306 326.294 93.295 325.531C94.3349 324.061 94.4221 321.609 92.8592 320.383C91.2792 319.206 89.6151 318.145 87.8802 317.211C86.1372 316.2 84.1618 315.584 82.1691 316.281C81.675 316.437 81.2438 316.746 80.9385 317.164C80.6331 317.582 80.4699 318.088 80.4726 318.605V318.623Z" fill="#EDD6B4"/>
<path d="M93.6843 309.211C94.2652 307.439 93.0219 305.33 92.0982 303.86C91.0749 302.3 89.9654 300.799 88.7749 299.363C87.3224 297.539 84.9752 296.784 82.965 298.399C81.071 299.938 81.1175 302.535 82.7094 304.267C83.9573 305.666 85.278 306.998 86.6659 308.258C87.9267 309.356 89.9253 311.035 91.7147 310.774C92.1609 310.744 92.5874 310.579 92.9365 310.299C93.2856 310.02 93.5405 309.64 93.6668 309.211H93.6843Z" fill="#EDD6B4"/>
<path d="M94.0037 290.027C94.6834 291.287 94.91 292.351 95.584 293.611C96.1185 294.628 96.4928 295.722 96.6936 296.853C97.0655 298.956 99.7496 300.055 101.62 299.491C102.616 299.171 103.448 298.476 103.941 297.553C104.433 296.63 104.547 295.552 104.258 294.547C103.276 290.538 100.685 287.215 96.4322 286.674C94.5091 286.43 93.0276 288.185 94.0037 290.003V290.027Z" fill="#EDD6B4"/>
<path d="M113.229 287.825C115.14 286.419 116.668 283.27 116.988 280.952C117.255 278.988 116.407 277.013 114.309 276.496C112.212 275.978 110.527 277.297 109.853 279.174C109.04 281.411 108.958 284.897 110.004 287.064C110.164 287.327 110.375 287.556 110.624 287.738C110.874 287.919 111.157 288.049 111.457 288.12C111.757 288.19 112.068 288.201 112.372 288.15C112.677 288.1 112.968 287.989 113.229 287.825Z" fill="#EDD6B4"/>
<path d="M124.174 283.793C124.064 284.153 123.96 284.513 123.849 284.873C123.729 285.158 123.59 285.434 123.431 285.698C122.798 286.971 122.786 288.563 123.89 289.591C124.271 289.939 124.753 290.156 125.266 290.211C125.779 290.267 126.296 290.157 126.742 289.899C128.096 289.213 128.346 287.54 128.067 286.198C127.955 285.544 127.912 284.88 127.939 284.217C127.939 282.009 124.79 281.788 124.186 283.804L124.174 283.793Z" fill="#EDD6B4"/>
<path d="M138.589 290.968C140.262 291.212 141.412 290.085 142.598 289.085C142.964 288.709 143.221 288.239 143.342 287.728C143.463 287.216 143.442 286.681 143.283 286.181C143.283 286.134 143.254 286.088 143.243 286.035C142.935 284.961 141.703 283.926 140.524 284.072H140.39C139.752 284.11 139.141 284.345 138.642 284.745C138.142 285.144 137.779 285.688 137.601 286.303C137.331 287.021 137.167 287.774 137.113 288.539C137.113 289.469 137.479 290.776 138.589 290.933V290.968Z" fill="#EDD6B4"/>
<path d="M145.915 296.871C145.365 297.396 144.896 297.999 144.521 298.66C144.252 299.162 144.118 299.725 144.132 300.295C144.147 300.864 144.309 301.42 144.602 301.908C145.051 302.633 145.769 303.151 146.599 303.347C147.429 303.543 148.303 303.401 149.029 302.954C149.508 302.659 149.9 302.243 150.167 301.748C150.434 301.254 150.567 300.698 150.551 300.136C150.538 299.372 150.411 298.614 150.174 297.887C149.744 296.028 147.141 295.517 145.915 296.871Z" fill="#EDD6B4"/>
<path d="M156.768 307.491C159.225 307.491 159.127 303.68 156.675 303.68C154.223 303.68 154.316 307.491 156.768 307.491Z" fill="#EDD6B4"/>
<path d="M254.967 38.252C240.275 34.7456 225.192 33.1483 210.091 33.4995C205.861 33.6002 201.64 33.8559 197.426 34.2664C196.961 33.2555 195.468 34.1386 195.921 35.1495C200.418 45.1598 209.132 53.0321 219.381 56.855C222.266 57.9216 225.264 58.6526 228.317 59.0337C228.451 59.0329 228.583 59.0014 228.703 58.9416C228.823 58.8817 228.928 58.7952 229.009 58.6886C229.09 58.582 229.146 58.4582 229.172 58.3266C229.198 58.1951 229.194 58.0593 229.159 57.9298C228.407 55.7498 227.468 53.6388 226.353 51.6203C231.183 54.622 236.952 55.7331 242.551 54.7402C243.33 54.6008 243.341 53.5201 242.76 53.1483C239.353 50.9991 236.327 48.2974 233.807 45.154C241.339 46.0506 248.94 44.162 255.176 39.8438C255.319 39.754 255.434 39.6249 255.506 39.4719C255.578 39.3189 255.604 39.1484 255.582 38.9808C255.56 38.8132 255.49 38.6554 255.381 38.5262C255.272 38.397 255.128 38.3018 254.967 38.252Z" fill="#615C5C"/>
<path d="M148.303 176.224C150.406 177.299 152.474 178.443 154.595 179.477C156.716 180.511 158.854 181.366 161.021 182.22C165.419 183.963 169.91 185.456 174.453 186.74C183.617 189.284 192.991 190.999 202.463 191.864C211.838 192.776 221.272 192.91 230.67 192.265C240.182 191.616 249.623 190.172 258.894 187.948C268.057 185.754 277.002 182.734 285.62 178.925C286.782 178.414 287.88 177.851 288.995 177.287C290.86 176.346 289.448 173.156 287.479 173.923C283.145 175.62 278.816 177.334 274.407 178.821C269.997 180.308 265.512 181.627 260.997 182.771C252.116 185.043 243.069 186.609 233.941 187.454C224.649 188.324 215.305 188.479 205.989 187.919C196.815 187.338 187.696 186.082 178.706 184.16C174.145 183.201 169.614 182.115 165.134 180.831C160.655 179.547 156.297 177.967 151.824 176.764C150.713 176.435 149.622 176.047 148.553 175.602C148.187 175.469 147.972 176.061 148.303 176.23V176.224Z" fill="#38241E"/>
<path d="M233.726 33.6389C232.067 33.074 230.37 32.6294 228.648 32.3085C226.986 32.0354 225.313 31.8146 223.64 31.6345C220.187 31.2822 216.715 31.1502 213.246 31.2395C206.269 31.4144 199.331 32.3376 192.551 33.9933C178.924 37.2856 166.107 43.3079 154.874 51.6959C149.362 55.7807 144.328 60.4736 139.867 65.6859C135.643 70.6824 132.273 76.3063 128.828 81.8315C125.482 87.1649 122.031 92.5796 117.429 96.937C115.272 99.0092 112.809 100.737 110.126 102.061C107.378 103.398 104.136 104.083 101.074 104.711C94.7184 106.018 87.4735 107.371 83.3252 112.914C78.9155 118.811 79.3338 128.641 86.0675 132.702C87.4599 133.604 88.9512 134.343 90.512 134.904C92.1696 135.448 93.9107 135.692 95.6538 135.625C98.8899 135.474 102.48 134.19 103.84 130.977C104.217 130.217 104.323 129.351 104.139 128.524C103.955 127.696 103.492 126.956 102.829 126.428C101.26 125.213 99.2617 125.591 97.6001 126.387C96.019 127.242 94.5819 128.34 93.3414 129.641C92.0125 130.926 90.7993 132.325 89.7161 133.824C87.4757 136.824 85.8766 140.254 85.018 143.899C84.1595 147.544 84.0599 151.327 84.7254 155.012C86.021 161.769 90.9884 167.794 97.1237 170.774C100.215 172.279 103.782 173.197 107.239 172.837C110.696 172.476 114.792 170.751 116.302 167.503C117.574 164.836 116.779 160.868 113.775 159.759C110.289 158.475 106.861 161.81 104.961 164.354C103.009 167.021 101.686 170.095 101.09 173.346C100.495 176.597 100.642 179.94 101.522 183.126C102.397 186.477 103.983 189.602 106.173 192.286C108.362 194.971 111.103 197.153 114.211 198.685C120.811 201.928 128.298 202.903 135.51 201.456C143.103 200.009 149.93 195.942 155.554 190.731C156.844 189.542 158.071 188.289 159.237 186.972C160.475 185.589 161.515 184.067 162.659 182.626C162.982 182.269 163.156 181.802 163.144 181.321C163.132 180.84 162.936 180.381 162.595 180.041C162.243 179.71 161.775 179.531 161.292 179.543C160.81 179.555 160.351 179.757 160.016 180.105C158.893 181.449 157.701 182.733 156.443 183.951C155.211 185.206 153.925 186.404 152.585 187.547C150.055 189.673 147.317 191.536 144.41 193.107C141.474 194.707 138.336 195.905 135.08 196.669C134.719 196.75 134.365 196.825 134.005 196.895L133.424 197.005C132.93 197.093 133.221 197.035 133.331 197.005C132.483 197.127 131.629 197.22 130.775 197.279C129.182 197.385 127.584 197.375 125.993 197.25L125.267 197.186C125.371 197.186 125.65 197.238 125.162 197.186C124.674 197.133 124.355 197.075 123.948 197.005C123.146 196.878 122.35 196.709 121.56 196.517C120.77 196.326 120.073 196.117 119.347 195.873L118.318 195.512C117.586 195.239 118.69 195.681 117.975 195.373L117.307 195.088C114.527 193.88 112.009 192.142 109.894 189.97C108.888 188.977 108.015 187.858 107.297 186.641C106.552 185.453 105.949 184.181 105.502 182.853C104.596 180.173 104.202 177.347 104.34 174.521C104.354 171.691 105.107 168.914 106.524 166.463C107.264 165.185 108.19 164.023 109.272 163.018C110.289 162.088 112.084 160.967 113.455 161.856C113.928 162.215 114.28 162.711 114.463 163.276C114.646 163.841 114.651 164.448 114.478 165.017C114.129 166.318 112.927 167.259 111.741 167.788C110.341 168.352 108.841 168.629 107.332 168.601C106.014 168.682 104.692 168.604 103.393 168.369C100.595 167.84 97.9661 166.644 95.7293 164.883C93.4108 163.089 91.5346 160.788 90.2448 158.155C90.1134 157.911 89.997 157.658 89.8962 157.4C89.7451 157.04 89.6115 156.679 89.4837 156.313C89.2266 155.566 89.0151 154.803 88.8504 154.03C88.6847 153.325 88.574 152.608 88.5192 151.886C88.4419 151.064 88.4108 150.237 88.4263 149.411C88.5254 146.314 89.2053 143.264 90.4307 140.418C91.6698 137.393 93.4057 134.597 95.5666 132.145C96.6124 130.983 97.7511 129.699 99.1513 128.955C99.8311 128.589 101.475 128.084 101.522 129.344C101.568 130.605 100.284 131.668 99.3431 132.139C98.0171 132.756 96.5636 133.051 95.1018 132.999C92.2957 132.999 89.1525 131.97 87.3689 129.722C85.4919 127.434 84.5019 124.546 84.5801 121.588C84.6289 120.188 84.955 118.811 85.5394 117.538C86.1238 116.264 86.9549 115.119 87.9847 114.169C88.9437 113.282 90.0234 112.534 91.1918 111.95C91.5171 111.775 91.8483 111.613 92.1853 111.462C91.9238 111.578 92.2608 111.433 92.2957 111.421L92.9173 111.165C93.6203 110.886 94.3349 110.637 95.0554 110.404C98.0068 109.469 101.016 108.766 103.997 107.958C106.952 107.23 109.814 106.164 112.526 104.78C115.053 103.383 117.382 101.654 119.451 99.6386C123.768 95.5136 127.155 90.4997 130.321 85.4626C133.488 80.4255 136.474 75.1792 140.047 70.357C143.765 65.4099 148.036 60.9033 152.777 56.9247C162.66 48.6773 174.034 42.4035 186.282 38.4437C198.505 34.3384 211.427 32.7206 224.285 33.6854C225.795 33.8093 227.3 33.9778 228.799 34.1909C230.35 34.4058 231.913 34.493 233.447 34.6905C233.579 34.7117 233.715 34.6824 233.826 34.6084C233.938 34.5344 234.018 34.4211 234.05 34.291C234.082 34.1609 234.065 34.0234 234 33.9059C233.936 33.7883 233.83 33.6993 233.703 33.6564L233.726 33.6389Z" fill="#38241E"/>
<path d="M230.234 34.4116C231.535 34.5452 232.825 34.8183 234.121 34.9403C235.416 35.0623 236.642 35.2366 237.891 35.4458C240.634 35.9096 243.349 36.5225 246.025 37.2817C251.767 38.9155 257.353 41.0541 262.717 43.6725C273.785 49.0175 284.272 55.9428 293.149 64.4717C297.323 68.3751 300.964 72.8113 303.979 77.6658C306.814 82.3427 309.057 87.3508 311.846 92.0567C314.536 96.5942 317.841 100.771 322.303 103.642C327.259 106.82 333.116 107.755 338.711 109.219C341.36 109.916 343.939 110.695 346.292 112.124C348.444 113.375 350.127 115.294 351.086 117.591C351.609 118.883 351.881 120.264 351.887 121.658C351.918 123.006 351.687 124.348 351.208 125.609C350.747 126.839 350.048 127.967 349.15 128.927C348.253 129.887 347.175 130.66 345.979 131.203C344.847 131.727 343.642 132.078 342.406 132.243C341.052 132.389 339.685 132.36 338.339 132.156C337.717 132.104 337.117 131.906 336.586 131.579C336.056 131.252 335.609 130.805 335.283 130.274C334.806 129.507 334.789 128.461 335.916 128.38C337.217 128.287 338.501 129.367 339.402 130.158C340.584 131.191 341.658 132.342 342.609 133.591C344.484 135.986 345.947 138.676 346.937 141.551C348.756 147.012 348.791 153.327 346.281 158.26C345.074 160.675 343.369 162.807 341.28 164.516C339.19 166.226 336.762 167.473 334.156 168.177C332.917 168.507 331.637 168.658 330.356 168.625C330.013 168.625 329.676 168.625 329.333 168.578C329.293 168.578 328.909 168.543 329.223 168.578L328.77 168.514C327.982 168.4 327.204 168.221 326.446 167.98C325.231 167.599 324.141 166.899 323.291 165.952C322.982 165.606 322.764 165.189 322.656 164.737C322.549 164.286 322.555 163.815 322.675 163.367C322.715 163.187 322.777 163.013 322.861 162.85C322.917 162.738 322.979 162.629 323.047 162.524C322.966 162.652 323.46 162.036 323.204 162.298C322.948 162.559 323.343 162.199 323.442 162.135C323.542 162.056 323.651 161.99 323.767 161.937C324.091 161.804 324.441 161.746 324.79 161.769C326.301 161.821 327.695 163.169 328.63 164.238C330.351 166.238 331.548 168.634 332.116 171.21C332.754 173.782 332.78 176.469 332.192 179.053C331.524 181.784 330.885 184.172 329.438 186.606C326.597 191.341 321.531 194.624 316.319 196.192C310.744 197.834 304.81 197.798 299.256 196.088C297.829 195.672 296.435 195.154 295.084 194.536C293.661 193.891 292.266 193.177 290.918 192.398C288.207 190.837 285.657 189.009 283.307 186.943C282.118 185.901 280.972 184.815 279.868 183.684C278.783 182.642 277.751 181.547 276.777 180.401C276.51 180.003 276.101 179.721 275.634 179.613C275.167 179.505 274.676 179.579 274.261 179.82C273.494 180.296 273.053 181.563 273.68 182.336C274.813 183.782 275.836 185.287 277.05 186.67C278.264 188.053 279.421 189.267 280.693 190.475C283.305 192.963 286.192 195.146 289.297 196.982C295.352 200.591 302.328 202.358 309.371 202.066C316.168 201.706 322.931 199.347 328.014 194.734C332.662 190.504 335.666 184.224 335.567 177.885C335.584 174.873 335.058 171.881 334.016 169.054C332.912 166.263 331.21 163.747 329.031 161.682C327.759 160.479 326.033 159.41 324.25 159.276C323.445 159.228 322.641 159.392 321.92 159.753C321.198 160.114 320.585 160.659 320.142 161.333C318.202 164.099 318.934 168.038 321.629 170.17C327.044 174.446 335.166 173.307 340.802 170.083C343.65 168.456 346.114 166.237 348.029 163.574C349.943 160.912 351.263 157.869 351.899 154.652C353.142 147.756 351.103 140.708 347.251 134.98C345.374 132.141 343.056 129.621 340.384 127.514C339.088 126.521 337.479 125.638 335.771 125.771C334.973 125.827 334.215 126.145 333.616 126.676C333.018 127.206 332.611 127.92 332.459 128.705C331.948 131.947 335.225 134.515 337.874 135.572C341.127 136.874 344.985 136.351 348.117 134.91C351.225 133.507 353.697 130.994 355.048 127.863C356.424 124.593 356.629 120.948 355.629 117.544C353.659 111.014 347.274 107.871 341.151 106.244C335.225 104.676 328.985 104.06 323.721 100.644C319.073 97.6284 315.982 92.9398 313.327 88.199C310.381 82.9702 307.767 77.4915 304.206 72.6054C300.426 67.5519 296.061 62.9632 291.203 58.9349C286.047 54.5618 280.532 50.632 274.715 47.1874C268.896 43.7249 262.788 40.7721 256.46 38.3623C250.66 36.0794 244.617 34.4712 238.449 33.5692C237.096 33.3891 235.736 33.2438 234.382 33.1509C233.024 33.1102 231.664 33.1762 230.315 33.3484C230.184 33.3653 230.064 33.4304 229.977 33.531C229.891 33.6317 229.846 33.7607 229.849 33.8931C229.853 34.0255 229.906 34.1519 229.997 34.2477C230.089 34.3435 230.212 34.4019 230.344 34.4116H230.234Z" fill="#38241E"/>
<path d="M139.617 66.4526C139.517 65.0354 139.291 63.6297 138.943 62.2521C138.676 60.8345 138.451 59.4111 138.269 57.9819C137.903 55.1584 137.572 52.3348 137.392 49.488C137.014 43.6782 136.811 37.9206 137.898 32.1864C138.519 29.0025 139.379 25.8699 140.471 22.8151L140.198 22.9778C142.57 23.5556 144.883 24.353 147.106 25.3598C149.337 26.3649 151.562 27.3352 153.706 28.532C157.929 30.8027 161.907 33.5031 165.576 36.5902C167.669 38.3947 169.641 40.3355 171.479 42.4C171.751 42.6582 172.115 42.7983 172.49 42.7895C172.866 42.7808 173.223 42.6241 173.483 42.3535C173.734 42.0775 173.87 41.7153 173.861 41.342C173.853 40.9688 173.7 40.6132 173.437 40.3491C166.865 32.6864 158.233 27.0707 148.564 24.1688C145.85 23.4521 143.092 22.9088 140.309 22.5421C140.251 22.5294 140.191 22.5392 140.14 22.5694C140.089 22.5996 140.052 22.648 140.036 22.7047C139.058 25.4741 138.253 28.3011 137.624 31.1696C136.997 34.0339 136.358 36.8807 135.98 39.7914C135.514 42.6748 135.243 45.5863 135.167 48.5061C135.18 51.4427 135.421 54.3738 135.887 57.2731C136.149 58.9231 136.532 60.5615 136.951 62.1824C137.27 63.7839 137.822 65.3302 138.589 66.7722C138.661 66.8612 138.759 66.9268 138.869 66.9605C138.978 66.9943 139.096 66.9947 139.206 66.9617C139.316 66.9288 139.414 66.8639 139.487 66.7754C139.56 66.6868 139.606 66.5786 139.617 66.4643V66.4526Z" fill="#38241E"/>
<path d="M149.105 57.3487C149.177 56.7322 149.166 56.1087 149.07 55.4954C149.029 54.8447 148.948 54.1998 148.896 53.5549C148.779 52.2128 148.721 50.8649 148.704 49.488C148.686 48.1111 148.704 46.8794 148.814 45.578C148.878 44.6136 148.814 43.5097 149.302 42.6324C149.883 41.5053 151.115 41.9759 152.016 42.4407C153.178 43.0217 154.339 43.7014 155.501 44.3347C156.663 44.968 157.825 45.6187 159.022 46.2694L160.765 47.2454L161.765 47.8264C162.096 48.0123 162.619 48.1924 162.799 48.5526C162.887 48.6963 163.011 48.8143 163.159 48.8948C163.307 48.9752 163.473 49.0153 163.642 49.0109C163.81 49.0065 163.974 48.9578 164.118 48.8697C164.261 48.7817 164.379 48.6574 164.459 48.5093C164.54 48.3612 164.579 48.1946 164.575 48.0262C164.57 47.8578 164.521 47.6937 164.433 47.5502C164.345 47.4068 164.22 47.2891 164.072 47.2091C163.924 47.1291 163.757 47.0895 163.589 47.0944C163.078 47.1408 162.375 46.5541 161.945 46.3159L160.202 45.3398C159.156 44.7588 158.104 44.1778 157.07 43.5969L153.973 41.8191C153.054 41.1851 152.035 40.7099 150.958 40.4131C149.023 40.0587 147.774 41.4879 147.472 43.2599C147.089 45.3863 147.275 47.687 147.42 49.8308C147.509 51.1322 147.646 52.4316 147.832 53.7292C147.92 54.3682 148.013 55.0189 148.164 55.6522C148.26 56.2611 148.457 56.85 148.745 57.3952C148.767 57.4304 148.8 57.4583 148.838 57.4753C148.876 57.4923 148.919 57.4978 148.96 57.491C149.002 57.4842 149.04 57.4654 149.071 57.4371C149.102 57.4087 149.124 57.3719 149.134 57.3313L149.105 57.3487Z" fill="#38241E"/>
<path d="M273.733 47.6289C278.834 41.3776 284.562 35.7537 291.557 31.6462C292.539 31.0652 293.544 30.5191 294.561 30.002C295.578 29.4849 296.49 28.6483 297.536 28.1138L296.345 27.9918C300.249 32.3317 302.59 37.9672 303.787 43.6434C305.018 49.2952 304.956 55.1519 303.607 60.7766C302.808 63.9383 301.526 66.9581 299.807 69.7295C298.773 71.3795 301.661 72.9307 302.433 71.1761C303.744 68.3533 304.735 65.3933 305.391 62.351C306.024 59.4186 306.401 56.4366 306.518 53.4388C306.66 47.3375 305.47 41.2787 303.032 35.684C301.624 32.5556 299.897 29.5807 297.878 26.8066C297.763 26.6241 297.591 26.4842 297.388 26.4077C297.186 26.3312 296.965 26.3224 296.757 26.3825C295.769 26.7543 294.706 26.8647 293.736 27.3295C292.766 27.7942 291.859 28.3229 290.941 28.8574C289.139 29.9102 287.393 31.0583 285.713 32.2969C282.323 34.7926 279.207 37.6398 276.417 40.7908C274.857 42.5948 273.468 44.5397 272.268 46.6006C271.74 47.4895 273.082 48.5178 273.762 47.687L273.733 47.6289Z" fill="#38241E"/>
<path d="M283.761 53.0378C284.625 52.2251 285.433 51.3535 286.178 50.4292C286.985 49.5519 287.839 48.6862 288.711 47.8845C289.525 47.049 290.425 46.3013 291.395 45.6535C291.755 45.4041 292.183 45.2703 292.621 45.27C292.934 45.3218 293.254 45.3218 293.568 45.27C293.719 45.2292 293.866 45.1707 294.003 45.0958C294.166 45.0105 294.12 45.0222 293.864 45.1306L293.283 44.9157C294.236 45.6303 294.445 46.9084 294.613 48.0181C294.871 49.5542 295.005 51.1085 295.014 52.6659C295.043 55.6057 294.811 58.9057 293.481 61.5782C292.853 62.8389 294.991 63.5012 295.177 62.2405C295.543 59.7888 296.136 57.3893 296.31 54.9085C296.487 52.4776 296.378 50.0342 295.985 47.6288C295.861 46.6411 295.568 45.6821 295.119 44.7936C295.016 44.5898 294.896 44.3954 294.759 44.2127C294.708 44.1316 294.648 44.0574 294.579 43.9919C294.369 43.8873 294.579 44.1662 294.579 44.079C294.545 43.7562 294.417 43.4504 294.21 43.2002C294.004 42.95 293.727 42.7666 293.417 42.6731C290.988 41.8481 288.734 44.4625 287.322 46.0486C286.441 47.0378 285.626 48.0839 284.882 49.1801C284.074 50.2286 283.451 51.4076 283.04 52.6659C283.021 52.7527 283.03 52.8433 283.067 52.9243C283.104 53.0052 283.165 53.0722 283.243 53.1153C283.321 53.1584 283.41 53.1752 283.498 53.1634C283.586 53.1515 283.668 53.1115 283.732 53.0494L283.761 53.0378Z" fill="#38241E"/>
<path d="M196.926 38.5597C197.632 41.188 198.706 43.7033 200.115 46.0312C202.499 49.6351 205.634 52.6818 209.304 54.963C212.973 57.2441 217.093 58.7059 221.38 59.2485C224.633 59.6203 228.195 59.6668 231.326 58.6036C231.406 58.5774 231.475 58.5235 231.519 58.4515C231.563 58.3795 231.58 58.2941 231.566 58.2107C231.553 58.1274 231.51 58.0515 231.446 57.9968C231.382 57.9421 231.3 57.9121 231.216 57.9122C228.375 57.7728 225.586 57.7728 222.774 57.2557C220.015 56.7505 217.321 55.9359 214.745 54.8272C209.98 52.6838 205.768 49.4782 202.434 45.456C200.49 43.2946 198.82 40.9024 197.46 38.3332C197.309 38.0311 196.827 38.2634 196.926 38.5714V38.5597Z" fill="#38241E"/>
<path d="M231.628 58.1388C230.722 56.7967 229.769 55.4837 228.962 54.0719C228.176 52.7426 227.28 51.4813 226.283 50.3014C224.316 47.8555 221.937 45.7715 219.253 44.143C219.166 44.1021 219.069 44.0866 218.974 44.0983C218.879 44.11 218.788 44.1484 218.714 44.2091C218.639 44.2698 218.583 44.3503 218.552 44.4413C218.521 44.5324 218.517 44.6304 218.539 44.7239C219.872 48.2674 222.268 51.3115 225.4 53.4387C229.026 56.0008 233.499 57.0001 237.862 57.2557C239.217 57.326 240.575 57.326 241.929 57.2557C243.254 57.1918 245.078 57.3487 246.118 56.4307C246.967 55.6929 246.159 54.4786 245.229 54.4263C244.404 54.3799 243.585 53.0668 243.057 52.4917C242.882 52.2999 242.609 52.5904 242.778 52.788C243.411 53.4467 243.984 54.1602 244.492 54.9202C244.492 54.804 244.492 54.6936 244.492 54.5774L244.23 55.0364L245.845 54.5716C245.113 54.1823 244.41 54.345 243.626 54.438C242.842 54.5309 242.191 54.589 241.47 54.6471C240.035 54.7575 238.595 54.8156 237.159 54.7982C234.45 54.7676 231.76 54.3469 229.171 53.549C224.842 52.2186 220.787 48.9012 219.538 44.4451L218.806 45.0261C221.275 46.8104 223.526 48.8794 225.511 51.1903C226.492 52.3116 227.44 53.4619 228.45 54.56C229.5 55.7662 230.47 57.0393 231.355 58.3712C231.495 58.5687 231.826 58.3712 231.681 58.1678L231.628 58.1388Z" fill="#38241E"/>
<path d="M246.049 54.6007C245.709 54.087 245.253 53.661 244.718 53.3574C244.201 52.9856 243.684 52.6312 243.144 52.2942C241.953 51.5564 240.785 50.7953 239.629 50.0051C237.363 48.4539 235.19 46.7865 233.005 45.1191L232.227 47.1525C233.418 47.0479 234.644 47.2164 235.841 47.1932C237.037 47.1699 238.257 47.1409 239.466 47.0421C241.939 46.8442 244.391 46.4439 246.798 45.8453C249.162 45.2435 251.47 44.4367 253.694 43.4342C255.983 42.4612 258.156 41.2355 260.172 39.7799C260.57 39.5189 260.851 39.1154 260.959 38.6526C261.068 38.1898 260.994 37.7032 260.753 37.2933C260.499 36.8895 260.097 36.6021 259.632 36.4934C259.168 36.3846 258.679 36.4633 258.273 36.7123C256.446 38.1658 254.516 39.4843 252.498 40.6571C250.488 41.7711 248.375 42.6876 246.188 43.3936C243.986 44.1191 241.716 44.6193 239.414 44.8867C238.291 45.0192 237.162 45.0852 236.032 45.0842C234.842 45.1453 233.649 45.0535 232.482 44.8112C231.402 44.5149 230.432 46.0719 231.384 46.8097C233.649 48.5262 236.007 50.1148 238.449 51.568C239.646 52.2826 240.854 52.9798 242.08 53.6421C242.713 53.9966 243.365 54.3166 244.032 54.6007C244.575 54.8989 245.185 55.053 245.805 55.048C245.856 55.0462 245.906 55.031 245.95 55.0039C245.993 54.9769 246.029 54.939 246.054 54.8938C246.078 54.8487 246.091 54.7979 246.09 54.7466C246.089 54.6952 246.075 54.6449 246.049 54.6007Z" fill="#38241E"/>
<path d="M183.598 109.753V109.718L184.179 110.956V110.88C183.71 109.534 182.788 108.392 181.57 107.65L180.24 107.127C179.282 106.894 178.279 106.92 177.335 107.203C176.828 107.334 176.35 107.556 175.923 107.859C175.127 108.346 174.472 109.033 174.023 109.852C173.651 110.463 173.45 111.164 173.442 111.88C173.299 112.6 173.349 113.346 173.588 114.041C173.861 114.94 174.364 115.753 175.046 116.4L175.11 116.452L176.243 117.283C176.682 117.498 177.139 117.677 177.608 117.817C178.324 118.025 179.082 118.039 179.804 117.858C180.531 117.809 181.231 117.567 181.832 117.155L182.924 116.266C183.585 115.578 184.053 114.728 184.284 113.803V113.739L182.994 116.063L183.029 116.022L183.813 114.953C184.176 114.371 184.376 113.704 184.394 113.018C184.505 112.564 184.493 112.089 184.359 111.641C184.311 110.959 184.083 110.301 183.697 109.736L183.598 109.753Z" fill="#38241E"/>
<path d="M258.557 114.738C264.722 114.738 264.483 105.163 258.319 105.163C252.155 105.163 252.393 114.738 258.557 114.738Z" fill="#38241E"/>
<path d="M226.092 107.854C224.694 107.697 223.318 107.385 221.99 106.924C220.763 106.539 219.502 106.269 218.225 106.117C215.977 105.896 213.676 106.488 212.305 108.394C211.143 109.998 211.027 112.327 212.595 113.71C212.952 114.06 213.376 114.333 213.841 114.516C214.307 114.698 214.804 114.784 215.303 114.77C215.803 114.755 216.294 114.64 216.748 114.432C217.203 114.223 217.61 113.925 217.946 113.556C218.283 113.186 218.541 112.753 218.706 112.281C218.871 111.809 218.939 111.309 218.907 110.811C218.874 110.312 218.741 109.825 218.517 109.379C218.292 108.933 217.979 108.537 217.598 108.214C217.503 108.126 217.389 108.061 217.265 108.023C217.142 107.985 217.011 107.975 216.883 107.995C216.755 108.014 216.634 108.062 216.527 108.136C216.42 108.209 216.331 108.305 216.267 108.417C214.89 110.997 216.389 114.808 219.457 115.215C222.524 115.621 225.063 112.002 223.582 109.289C223.51 109.172 223.408 109.077 223.288 109.012C223.167 108.947 223.032 108.914 222.895 108.918C222.758 108.921 222.624 108.961 222.507 109.032C222.39 109.103 222.294 109.204 222.228 109.324C221.188 111.7 223.634 114.825 226.237 113.762C228.41 112.873 228.811 109.573 226.992 108.138C226.906 108.058 226.805 107.997 226.693 107.959C226.582 107.922 226.465 107.908 226.348 107.919C226.231 107.93 226.118 107.965 226.016 108.023C225.914 108.081 225.825 108.16 225.755 108.254C225.686 108.349 225.637 108.457 225.613 108.572C225.588 108.687 225.588 108.805 225.613 108.92C225.638 109.035 225.686 109.143 225.756 109.238C225.825 109.332 225.914 109.411 226.016 109.469C226.94 110.05 226.678 111.746 225.795 112.246C224.633 112.914 223.094 111.247 223.605 110.079L222.245 110.114C223.146 111.758 221.264 114.035 219.486 113.6C217.708 113.164 216.906 110.759 217.743 109.225L216.412 109.428C217.522 110.451 217.168 112.647 215.552 112.914C215.184 112.978 214.805 112.937 214.458 112.797C214.111 112.656 213.81 112.422 213.589 112.12C213.368 111.818 213.236 111.461 213.207 111.088C213.178 110.715 213.254 110.341 213.426 110.009C214.332 107.958 216.743 107.621 218.742 107.801C219.939 107.912 221.113 108.202 222.292 108.382C223.547 108.614 224.83 108.657 226.097 108.51C226.187 108.51 226.272 108.475 226.336 108.412C226.399 108.348 226.434 108.263 226.434 108.173C226.434 108.084 226.399 107.998 226.336 107.935C226.272 107.872 226.187 107.836 226.097 107.836L226.092 107.854Z" fill="#38241E"/>
<path d="M220.328 113.745C219.878 114.313 219.577 114.984 219.451 115.697C219.213 116.539 219.009 117.394 218.818 118.248C218.452 119.909 218.179 121.594 217.969 123.285C217.76 124.975 217.609 126.561 217.557 128.211C217.505 129.861 217.324 131.784 217.714 133.44C217.911 134.271 219.341 134.283 219.457 133.394C219.666 131.784 219.457 130.082 219.457 128.45C219.457 126.817 219.55 125.138 219.689 123.488C219.829 121.838 220.044 120.246 220.27 118.631C220.398 117.812 220.549 116.993 220.7 116.173C220.923 115.436 220.981 114.658 220.869 113.896C220.852 113.838 220.82 113.785 220.776 113.742C220.732 113.7 220.678 113.671 220.619 113.656C220.56 113.642 220.498 113.644 220.44 113.662C220.381 113.679 220.329 113.712 220.288 113.757L220.328 113.745Z" fill="#38241E"/>
<path d="M208.97 119.671C207.552 121.809 207.808 125.01 208.551 127.328C209.386 129.845 211.089 131.983 213.356 133.359C218.144 136.223 224.627 135.293 228.195 130.954C230.089 128.63 231.448 125.37 230.739 122.367C230.507 121.362 229.171 121.786 229.089 122.628C228.869 124.952 228.45 127.131 227.068 129.065C225.749 130.934 223.795 132.26 221.571 132.795C219.365 133.313 217.047 133.049 215.013 132.049C212.978 131.049 211.354 129.374 210.416 127.311C209.921 126.151 209.615 124.919 209.51 123.662C209.465 122.39 209.531 121.117 209.708 119.857C209.742 119.427 209.161 119.38 208.97 119.671Z" fill="#38241E"/>
<path d="M245.02 122.872C255.321 120.327 265.75 118.456 276.242 116.876C286.735 115.296 297.129 114.18 307.616 113.512C318.103 112.844 328.671 112.623 339.198 112.862C349.726 113.1 360.213 113.791 370.659 114.959C381.105 116.127 391.54 117.736 401.864 119.822L405.756 120.618C406.837 120.838 407.261 119.177 406.169 118.939C395.833 116.696 385.346 115.052 374.848 113.809C364.349 112.565 353.729 111.798 343.132 111.485C332.534 111.171 321.96 111.345 311.398 111.978C300.836 112.612 290.186 113.721 279.67 115.331C269.259 116.917 258.993 119.13 248.762 121.599C247.472 121.905 246.188 122.223 244.91 122.552C244.706 122.605 244.799 122.912 245.003 122.866L245.02 122.872Z" fill="#38241E"/>
<path d="M242.836 132.656C253.125 131.581 263.472 130.866 273.802 130.332C284.132 129.797 294.515 129.6 304.868 129.658C315.221 129.716 325.592 130.076 335.927 130.727C346.263 131.378 356.657 132.342 366.976 133.597C377.294 134.852 387.502 136.397 397.692 138.245C398.959 138.471 400.226 138.71 401.492 138.948C402.579 139.151 403.003 137.478 401.91 137.275C391.666 135.381 381.378 133.785 371.048 132.487C360.718 131.19 350.388 130.21 340.058 129.548C329.724 128.866 319.375 128.479 309.01 128.386C298.645 128.293 288.242 128.556 277.8 129.176C267.4 129.757 257.018 130.64 246.676 131.924C245.398 132.081 244.114 132.232 242.836 132.394C242.673 132.394 242.673 132.673 242.836 132.656Z" fill="#38241E"/>
<path d="M195.59 128.078C187.011 124.384 178.152 121.378 169.097 119.09C160.028 116.782 150.808 115.112 141.505 114.094C122.897 112.038 104.096 112.529 85.62 115.552C76.3369 117.061 67.1701 119.214 58.1857 121.995C57.0818 122.34 55.978 122.694 54.8741 123.058C53.9096 123.378 54.3628 124.906 55.3331 124.574C64.1504 121.569 73.1708 119.196 82.3258 117.475C91.4696 115.777 100.72 114.711 110.01 114.285C128.637 113.422 147.295 115.097 165.471 119.264C174.534 121.367 183.459 124.024 192.197 127.218C193.285 127.605 194.368 128.008 195.444 128.426C195.63 128.496 195.758 128.176 195.572 128.101L195.59 128.078Z" fill="#38241E"/>
<path d="M190.866 135.102C181.931 134.885 172.993 134.929 164.053 135.235C155.141 135.532 146.229 136.078 137.369 137.158C121.444 139.105 105.623 142.713 90.8895 149.237C82.8514 152.748 75.2938 157.27 68.3995 162.693C67.8185 163.146 68.3995 164.128 68.9805 163.674C81.4601 154.379 95.8338 147.936 110.771 143.77C127.091 139.227 144.027 137.414 160.905 136.595C170.874 136.113 180.856 136.014 190.831 135.601C190.898 135.601 190.961 135.575 191.008 135.528C191.055 135.481 191.081 135.418 191.081 135.352C191.081 135.285 191.055 135.222 191.008 135.175C190.961 135.128 190.898 135.102 190.831 135.102H190.866Z" fill="#38241E"/>
<path d="M189.298 144.188C180.139 144.177 170.994 144.915 161.956 146.396C152.926 147.798 143.998 149.793 135.231 152.369C126.482 154.943 117.908 158.079 109.563 161.757C101.199 165.438 93.0848 169.661 85.2715 174.399C77.4461 179.149 69.9498 184.421 62.8337 190.179C61.968 190.882 61.0907 191.596 60.2483 192.311C59.5627 192.892 60.5679 193.822 61.2476 193.264C68.2202 187.479 75.5641 182.158 83.2322 177.333C106.35 162.821 132.046 152.897 158.918 148.104C167.846 146.512 176.865 145.478 185.922 145.007C187.084 144.949 188.2 144.862 189.338 144.798C189.412 144.788 189.479 144.752 189.528 144.696C189.577 144.64 189.604 144.568 189.604 144.493C189.604 144.419 189.577 144.347 189.528 144.291C189.479 144.235 189.412 144.198 189.338 144.188H189.298Z" fill="#38241E"/>
<path d="M241.296 144.798C250.36 145.255 259.395 146.177 268.364 147.558C277.327 149.01 286.187 151.033 294.892 153.612C312.304 158.776 328.979 166.157 344.509 175.573C352.255 180.266 359.684 185.464 366.749 191.132C367.638 191.84 368.492 192.567 369.398 193.293C370.078 193.874 371.037 192.863 370.351 192.294C363.338 186.435 355.939 181.055 348.204 176.189C340.451 171.31 332.385 166.947 324.058 163.128C315.787 159.335 307.281 156.075 298.593 153.368C289.848 150.638 280.932 148.492 271.903 146.942C262.91 145.397 253.821 144.484 244.701 144.212C243.539 144.177 242.423 144.212 241.284 144.212C240.889 144.212 240.913 144.793 241.284 144.822L241.296 144.798Z" fill="#38241E"/>
<path d="M262.479 111.13C262.519 111.123 262.555 111.102 262.581 111.07C262.607 111.039 262.622 111 262.622 110.959C262.622 110.918 262.607 110.879 262.581 110.848C262.555 110.816 262.519 110.795 262.479 110.788C262.439 110.795 262.403 110.816 262.377 110.848C262.351 110.879 262.336 110.918 262.336 110.959C262.336 111 262.351 111.039 262.377 111.07C262.403 111.102 262.439 111.123 262.479 111.13Z" fill="#EDD6B4"/>
<path d="M263.031 112.699C263.477 112.694 263.912 112.553 264.276 112.294C264.641 112.036 264.918 111.672 265.07 111.252C265.205 110.98 265.263 110.677 265.238 110.375L265.146 109.794C265.034 109.416 264.823 109.075 264.535 108.806L264.071 108.463C263.715 108.267 263.314 108.169 262.909 108.179C262.606 108.174 262.308 108.248 262.043 108.394C261.765 108.491 261.516 108.659 261.323 108.882C261.111 109.087 260.955 109.343 260.869 109.625C260.736 109.898 260.676 110.2 260.695 110.503L260.794 111.084C260.909 111.46 261.119 111.8 261.404 112.071L261.869 112.414C262.224 112.609 262.626 112.705 263.031 112.693V112.699Z" fill="#EDD6B4"/>
<path d="M172.443 111.682L172.362 111.758L172.094 112.124L171.926 112.548C171.862 112.78 171.862 113.025 171.926 113.257C171.932 113.413 171.978 113.565 172.06 113.698C172.104 113.845 172.186 113.977 172.298 114.082C172.377 114.213 172.489 114.321 172.623 114.396C172.733 114.501 172.87 114.576 173.018 114.611C173.231 114.716 173.467 114.762 173.704 114.744L174.174 114.674L174.593 114.483L174.941 114.198L175.208 113.832L175.377 113.408C175.441 113.176 175.441 112.931 175.377 112.699C175.371 112.543 175.325 112.391 175.243 112.258C175.171 112.034 175.041 111.833 174.866 111.677L174.79 111.613C174.643 111.453 174.453 111.339 174.244 111.282C174.047 111.181 173.826 111.137 173.605 111.154L173.163 111.223C172.89 111.307 172.642 111.459 172.443 111.665V111.682Z" fill="#EDD6B4"/>
<path d="M166.319 185.322C162.619 186.348 159.03 187.739 155.606 189.476C152.205 191.202 148.907 193.124 145.729 195.233C139.27 199.438 133.212 204.228 127.631 209.543C122.275 214.609 116.529 220.373 114.582 227.705C112.723 234.676 115.895 242.014 120.834 246.97C123.792 249.809 127.238 252.09 131.007 253.703C135.058 255.47 139.238 256.927 143.51 258.061L142.929 256.051C139.853 260.075 137.825 264.801 137.026 269.802C136.857 270.86 138.124 271.755 138.949 270.86C141.796 267.821 144.753 264.916 147.553 261.826C148.489 260.803 147.199 259.077 145.985 259.897C142.203 262.441 140.489 267.624 142.255 271.882C142.306 272.056 142.396 272.215 142.519 272.347C142.642 272.479 142.794 272.581 142.963 272.644C143.133 272.707 143.314 272.73 143.494 272.711C143.673 272.691 143.846 272.631 143.998 272.533C148.024 270.081 151.047 266.278 152.527 261.802C152.916 260.53 151.214 259.746 150.354 260.605C148.793 262.182 147.653 264.125 147.038 266.257C146.423 268.388 146.352 270.64 146.833 272.806C146.891 272.989 146.989 273.157 147.121 273.296C147.253 273.436 147.415 273.544 147.595 273.611C147.774 273.679 147.967 273.705 148.158 273.687C148.349 273.67 148.534 273.609 148.698 273.509C150.869 272.087 152.721 270.231 154.14 268.058C155.558 265.885 156.512 263.442 156.94 260.883C157.368 258.324 157.263 255.703 156.629 253.187C155.995 250.671 154.848 248.312 153.259 246.261C152.418 245.12 151.456 244.074 150.389 243.141C149.287 242.116 148.054 241.241 146.723 240.538L146.804 243.745L152.614 240.695C154.566 239.667 156.57 238.766 158.581 237.86C159.586 237.401 159.778 235.891 159.243 235.031C158.952 234.573 158.494 234.248 157.967 234.123C157.44 233.998 156.884 234.084 156.419 234.363C154.525 235.472 152.649 236.588 150.697 237.587L144.834 240.585C143.614 241.207 143.707 243.217 144.916 243.792C145.972 244.227 146.988 244.751 147.954 245.361C148.795 245.97 149.573 246.661 150.278 247.423C151.771 248.977 152.912 250.833 153.625 252.867C154.344 254.973 154.612 257.208 154.412 259.425C154.211 261.642 153.547 263.792 152.463 265.736C151.232 267.995 149.479 269.927 147.35 271.371L149.215 272.074C148.808 270.337 148.868 268.523 149.389 266.817C149.911 265.11 150.875 263.573 152.184 262.36L150.011 261.163C148.736 265.029 146.172 268.339 142.749 270.54L144.492 271.191C143.855 269.567 143.788 267.775 144.301 266.108C144.814 264.441 145.876 262.997 147.315 262.011L145.752 260.083C142.894 263.098 140.181 266.253 137.34 269.28L139.263 270.343C140.011 265.746 141.883 261.405 144.712 257.706C144.853 257.551 144.951 257.363 144.998 257.159C145.045 256.955 145.04 256.743 144.981 256.542C144.923 256.341 144.814 256.158 144.666 256.011C144.517 255.864 144.333 255.758 144.131 255.702C137.16 253.698 129.74 252.024 124.076 247.179C121.67 245.117 119.387 242.479 118.196 239.504C117.043 236.524 116.902 233.248 117.795 230.179C118.614 227.054 120.625 223.94 122.495 221.529C124.749 218.727 127.176 216.071 129.764 213.575C134.848 208.501 140.348 203.86 146.206 199.701C149.5 197.342 152.893 195.123 156.39 193.078C158.174 192.038 159.876 190.899 161.666 189.848C163.455 188.796 165.216 187.791 166.941 186.664C167.086 186.567 167.193 186.422 167.242 186.254C167.292 186.086 167.281 185.907 167.212 185.746C167.143 185.586 167.02 185.454 166.865 185.375C166.709 185.295 166.531 185.272 166.36 185.31L166.319 185.322Z" fill="#38241E"/>
<path d="M199.081 315.619C200.382 316.183 201.729 316.632 203.108 316.961C204.479 317.362 205.862 317.763 207.256 318.088C210.032 318.755 212.842 319.269 215.674 319.628C221.481 320.344 227.341 320.521 233.18 320.156C236.503 319.84 239.803 319.306 243.057 318.559C245.009 318.164 244.48 314.951 242.476 315.073C239.664 315.276 236.852 315.212 234.034 315.352C231.216 315.491 228.392 315.561 225.569 315.596C219.997 315.665 214.396 315.398 208.836 314.98C207.291 314.864 205.74 314.742 204.188 314.596C202.615 314.353 201.031 314.19 199.442 314.108C199.271 314.118 199.108 314.183 198.976 314.293C198.844 314.402 198.751 314.551 198.71 314.717C198.67 314.883 198.683 315.058 198.749 315.216C198.814 315.374 198.929 315.507 199.076 315.596L199.081 315.619Z" fill="#38241E"/>
<path d="M269.805 185.241C270.241 185.926 270.647 186.641 271.095 187.309C271.542 187.977 272.199 188.761 272.733 189.482C273.74 190.83 274.738 192.185 275.725 193.549C277.724 196.303 279.699 199.085 281.622 201.892C285.48 207.521 289.216 213.232 292.963 218.932C295.061 222.133 297.03 225.439 299.354 228.466C299.504 228.696 299.704 228.889 299.939 229.032C300.173 229.175 300.437 229.264 300.71 229.293C300.983 229.321 301.259 229.288 301.518 229.196C301.777 229.105 302.012 228.956 302.207 228.762C304.043 227.019 306.227 225.561 308.232 224.004C310.236 222.447 312.362 220.802 314.437 219.216C318.597 216.056 322.753 212.891 326.905 209.723C327.269 209.474 327.527 209.097 327.629 208.668C327.731 208.238 327.67 207.786 327.457 207.399C326.178 204.52 325.894 201.296 326.649 198.237L323.849 199.051C326.561 201.485 328.722 204.47 330.187 207.806C330.255 208.015 330.369 208.205 330.52 208.364C330.672 208.523 330.857 208.646 331.062 208.723C331.268 208.801 331.488 208.831 331.706 208.812C331.925 208.793 332.136 208.725 332.325 208.614C337.246 205.558 343.579 205.261 348.953 207.26L348.883 204.448C344.59 206.156 340.378 208.102 336.061 209.746C335.757 209.855 335.507 210.075 335.362 210.363C335.216 210.651 335.187 210.984 335.281 211.292C335.374 211.601 335.583 211.862 335.863 212.021C336.144 212.179 336.475 212.224 336.787 212.146C341.093 211.076 345.646 211.7 349.505 213.889C349.592 213.046 349.679 212.204 349.772 211.362L343.126 213.046C340.912 213.627 338.757 214.377 336.526 214.865L337.235 217.224C340.79 216.102 345.188 217.363 347.477 220.361L349.186 218.037C343.819 216.991 338.258 217.719 333.342 220.111C330.889 221.242 328.605 222.708 326.556 224.468C324.414 226.393 322.603 228.656 321.194 231.167C318.289 236.216 316.656 241.921 313.548 246.854C313.193 247.435 312.816 247.987 312.421 248.533C312.554 248.347 312.148 248.887 312.066 248.986C311.834 249.276 311.601 249.567 311.357 249.84C310.922 250.34 310.463 250.822 309.986 251.275C309.771 251.478 309.556 251.67 309.336 251.856C308.824 252.327 309.498 251.74 309.179 251.995L308.749 252.327C308.226 252.714 307.679 253.067 307.11 253.384C306.861 253.529 306.599 253.657 306.338 253.785C305.716 254.093 306.541 253.709 306.163 253.866L305.547 254.104C304.905 254.335 304.247 254.519 303.578 254.656L303.107 254.743C303.444 254.691 302.945 254.743 302.863 254.743C302.468 254.79 302.073 254.813 301.701 254.825C301.33 254.836 300.905 254.825 300.51 254.825L299.929 254.784C299.557 254.755 299.929 254.784 299.697 254.784C298.859 254.665 298.028 254.497 297.21 254.279C295.71 253.878 294.255 253.321 292.87 252.617C289.754 251.028 286.775 249.184 283.964 247.104C282.988 246.406 281.367 246.982 280.861 247.998C280.581 248.53 280.518 249.149 280.685 249.727C280.851 250.304 281.235 250.795 281.756 251.095C286.735 254.627 292.318 258.27 298.494 259.112C301.56 259.603 304.702 259.239 307.575 258.061C310.256 256.865 312.624 255.065 314.495 252.803C318.265 248.329 320.247 242.851 322.472 237.523C323.584 234.661 325.015 231.932 326.736 229.389C328.2 227.404 329.985 225.676 332.017 224.277C336.665 221.064 342.957 220.047 348.465 221.07C348.763 221.141 349.076 221.124 349.365 221.021C349.654 220.918 349.906 220.733 350.092 220.489C350.279 220.24 350.388 219.941 350.402 219.63C350.417 219.319 350.337 219.011 350.173 218.746C348.612 216.735 346.449 215.277 344 214.584C341.55 213.891 338.944 213.999 336.561 214.894C335.102 215.475 335.724 217.7 337.269 217.253C339.466 216.614 341.737 216.265 343.957 215.707L350.603 214.034C351.765 213.732 351.864 212.07 350.87 211.501C348.651 210.233 346.199 209.425 343.661 209.126C341.122 208.826 338.549 209.041 336.096 209.758L336.822 212.157C341.087 210.415 345.473 208.939 349.761 207.248C350.057 207.147 350.313 206.953 350.492 206.696C350.672 206.439 350.764 206.132 350.757 205.819C350.75 205.506 350.643 205.203 350.453 204.954C350.262 204.706 349.997 204.524 349.697 204.436C343.474 202.112 336.596 202.984 330.844 206.179L332.982 206.987C331.554 203.055 329.235 199.508 326.207 196.622C325.992 196.424 325.729 196.286 325.444 196.219C325.159 196.153 324.862 196.161 324.581 196.242C324.3 196.324 324.045 196.477 323.841 196.686C323.636 196.895 323.489 197.153 323.413 197.435C322.394 201.373 322.806 205.544 324.575 209.206C324.761 208.428 324.947 207.643 325.127 206.882C320.944 210.093 316.766 213.312 312.595 216.538C310.527 218.13 308.441 219.704 306.361 221.279C304.281 222.853 302.201 224.654 299.97 226.031L302.462 226.612C300.852 223.546 299.039 220.59 297.036 217.764C295.165 214.956 293.229 212.19 291.226 209.468C287.159 203.884 282.819 198.487 278.444 193.159C277.236 191.695 276.014 190.235 274.778 188.779C274.162 188.053 273.541 187.332 272.919 186.606C272.298 185.88 271.519 185.194 270.804 184.503C270.691 184.404 270.546 184.349 270.395 184.346C270.245 184.344 270.098 184.395 269.981 184.49C269.865 184.585 269.785 184.718 269.757 184.866C269.729 185.014 269.754 185.167 269.828 185.299L269.805 185.241Z" fill="#38241E"/>
<path d="M269.52 197.61C269.646 199.1 269.94 200.572 270.398 201.996C270.863 203.373 271.298 204.762 271.717 206.156C272.565 208.997 273.372 211.85 274.041 214.731C275.401 220.357 276.438 226.056 277.149 231.801C278.524 243.603 278.742 255.512 277.8 267.357C276.831 279.319 274.943 291.188 272.152 302.861C269.259 314.969 265.69 326.905 261.462 338.614C257.302 350.309 252.678 361.854 247.937 373.305C247.327 374.78 246.74 376.262 246.194 377.772C245.45 379.864 248.855 381.189 249.813 379.196C252.521 373.566 254.705 367.646 257.029 361.848C259.407 355.914 261.712 349.953 263.943 343.965C268.306 332.189 272.292 320.238 275.528 308.095C278.759 296.138 281.023 283.941 282.296 271.621C283.558 259.683 283.533 247.643 282.221 235.711C280.826 223.812 278.125 212.123 273.558 201.026C272.965 199.61 272.17 198.287 271.199 197.098C270.694 196.465 269.364 196.587 269.457 197.61H269.52Z" fill="#38241E"/>
<path d="M221.391 318.948C221.659 323.73 221.833 328.517 221.972 333.304C222.135 337.998 222.484 342.693 222.699 347.387C223.14 356.88 223.307 366.381 223.198 375.89C223.134 381.264 222.995 386.638 222.815 392.012C222.828 392.378 222.984 392.723 223.249 392.975C223.514 393.227 223.867 393.365 224.232 393.36C234.109 393.796 244.044 394.191 253.938 394.824C255.141 394.906 255.716 393.197 254.856 392.442C252.503 390.368 250.208 388.236 247.751 386.278C247.474 386.014 247.104 385.87 246.722 385.879C246.339 385.888 245.976 386.048 245.711 386.324C245.447 386.601 245.304 386.971 245.312 387.354C245.321 387.736 245.481 388.099 245.758 388.364C249.244 392.512 254.473 394.969 259.928 394.354C260.14 394.343 260.346 394.285 260.533 394.184C260.719 394.083 260.88 393.941 261.004 393.769C261.127 393.597 261.211 393.4 261.248 393.191C261.285 392.983 261.275 392.768 261.218 392.564C260.369 389.42 258.537 386.629 255.989 384.599C255.756 384.387 255.461 384.256 255.147 384.224C254.834 384.191 254.518 384.26 254.246 384.419C253.977 384.585 253.771 384.835 253.658 385.13C253.546 385.425 253.534 385.749 253.625 386.051C254.567 388.298 256.248 390.156 258.389 391.318C260.53 392.48 263.004 392.877 265.401 392.442C266.366 392.268 266.482 391.118 266.162 390.42C264.559 386.914 262.226 383.79 259.318 381.258C256.383 378.624 253.001 376.537 249.331 375.094C248.285 374.705 247.077 375.605 246.827 376.599C246.7 377.13 246.786 377.69 247.068 378.158C247.349 378.627 247.803 378.966 248.332 379.103C251.692 379.801 254.828 381.316 257.465 383.513C260.157 385.81 262.334 388.649 263.856 391.844L264.623 389.828C261.317 390.409 257.651 388.311 256.378 385.221L254.02 386.673C256.211 388.367 257.808 390.712 258.58 393.372L259.876 391.582C255.501 392.111 250.528 390.333 248.001 386.563L245.775 388.364C248.099 390.484 250.551 392.431 252.968 394.447C253.27 393.651 253.578 392.855 253.886 392.059C243.98 391.722 234.08 391.135 224.186 390.589L225.603 391.943C226.446 372.849 226.027 353.72 224.349 334.681C223.89 329.383 222.948 324.084 222.106 318.832C222.042 318.414 221.351 318.53 221.374 318.948H221.391Z" fill="#38241E"/>
<path d="M166.941 196.942C165.99 198.074 165.207 199.338 164.617 200.695C164.036 202.083 163.49 203.478 162.961 204.878C161.892 207.702 160.98 210.589 160.144 213.494C158.524 219.194 157.294 224.998 156.46 230.865C154.767 242.896 154.393 255.076 155.345 267.188C156.312 279.466 158.322 291.638 161.352 303.575C164.442 315.756 168.152 327.771 172.466 339.573C176.708 351.419 181.431 363.103 186.247 374.723C186.881 376.256 187.537 377.767 188.258 379.26C189.216 381.264 192.54 379.742 191.808 377.662C189.745 371.818 187.16 366.141 184.836 360.39C182.512 354.638 180.246 348.724 178.09 342.832C173.772 331.219 170.059 319.39 166.964 307.392C163.943 295.702 161.806 283.801 160.573 271.79C159.409 260.008 159.343 248.144 160.376 236.35C161.432 224.681 163.852 213.177 167.586 202.072C168.032 200.688 168.326 199.26 168.463 197.813C168.556 197.011 167.545 196.128 166.889 196.948L166.941 196.942Z" fill="#38241E"/>
<path d="M215.93 318.849C215.175 323.555 214.466 328.273 213.885 333.008C213.304 337.743 213.031 342.594 212.769 347.387C212.262 356.88 212.026 366.381 212.061 375.89C212.061 381.264 212.2 386.638 212.45 392.012L213.798 390.589C203.921 391.135 194.003 391.751 184.098 392.059C184.446 392.837 184.789 393.616 185.132 394.383C187.549 392.378 190.012 390.415 192.324 388.3L190 386.609C187.595 390.194 182.657 392.111 178.462 391.606L179.467 393.285C180.201 390.74 181.708 388.487 183.778 386.836L181.768 384.924C180.461 388.178 176.882 390.444 173.349 389.793L174.209 391.774C175.733 388.58 177.91 385.742 180.6 383.443C183.272 381.244 186.445 379.739 189.838 379.062C190.343 378.888 190.762 378.524 191.005 378.048C191.248 377.572 191.298 377.02 191.143 376.508C190.988 375.996 190.641 375.564 190.175 375.303C189.708 375.041 189.158 374.971 188.641 375.106C184.967 376.549 181.582 378.641 178.648 381.282C175.747 383.821 173.418 386.948 171.815 390.455C171.717 390.639 171.662 390.842 171.654 391.05C171.646 391.258 171.685 391.465 171.768 391.656C171.851 391.846 171.977 392.016 172.135 392.151C172.293 392.286 172.48 392.384 172.681 392.436C177.37 393.261 182.413 390.786 184.272 386.313C184.419 386.032 184.472 385.711 184.424 385.397C184.376 385.084 184.229 384.794 184.005 384.57C183.776 384.35 183.48 384.213 183.164 384.18C182.848 384.147 182.531 384.221 182.262 384.39C179.589 386.461 177.661 389.344 176.765 392.605C176.679 392.961 176.737 393.338 176.926 393.652C177.115 393.966 177.421 394.193 177.776 394.284C180.511 394.611 183.285 394.229 185.829 393.174C188.35 392.096 190.57 390.419 192.295 388.288C192.532 388.033 192.669 387.701 192.681 387.353C192.692 387.005 192.578 386.665 192.359 386.394C192.144 386.119 191.834 385.933 191.489 385.873C191.145 385.812 190.79 385.882 190.494 386.069C187.95 388.102 185.544 390.304 183.104 392.46C182.198 393.256 182.994 394.871 184.138 394.784C194.015 394.15 203.938 393.755 213.838 393.319C214.204 393.306 214.55 393.15 214.803 392.885C215.056 392.621 215.195 392.268 215.192 391.902C214.541 372.892 214.756 353.912 215.953 334.931C216.29 329.592 216.348 324.229 216.639 318.89C216.632 318.802 216.595 318.719 216.534 318.656C216.473 318.593 216.391 318.553 216.304 318.543C216.216 318.534 216.128 318.555 216.054 318.603C215.981 318.652 215.927 318.724 215.901 318.809L215.93 318.849Z" fill="#38241E"/>
<path d="M166.616 311.471C166.221 310.582 165.826 309.699 165.419 308.816C165.256 308.456 165.07 307.997 164.96 307.689C164.696 307.107 164.367 306.557 163.978 306.05C162.95 304.429 161.892 302.837 160.765 301.286C158.442 298.086 155.919 295.036 153.212 292.153C147.909 286.423 141.569 281.747 134.528 278.372C127.536 275.073 119.841 273.539 112.119 273.904C104.319 274.248 96.8474 277.14 90.8489 282.137C84.9112 287.186 81.0186 294.163 78.439 301.443C75.5341 309.629 74.6858 318.338 73.5122 326.884C73.0461 330.985 72.3576 335.058 71.4497 339.085C70.5724 342.571 69.3059 346.132 66.9587 348.962C65.0163 351.322 62.2708 352.882 59.2489 353.342C56.2801 353.702 53.3577 352.97 51.5683 350.379C49.622 347.556 49.4651 343.884 49.6917 340.572C49.9938 336.174 50.9059 331.614 49.622 327.279C48.5994 323.834 46.136 320.627 42.6908 319.419C39.0247 318.135 35.1379 319.849 32.7791 322.771C30.0949 326.106 29.6417 330.486 29.7173 334.635C29.8044 338.94 30.0368 343.268 30.4784 347.556C31.2976 355.509 33.1567 363.66 38.0777 370.156C42.4003 375.861 48.6982 380.178 56.0361 380.422C64.0014 380.689 71.4846 376.181 76.4869 370.255C81.8378 363.91 85.0565 356.009 87.6767 348.224C90.4597 339.945 92.4234 331.422 94.5847 322.968C95.6363 318.855 96.7111 314.742 98.0067 310.704C99.0046 307.396 100.352 304.204 102.027 301.182C103.625 298.226 105.882 295.678 108.621 293.733C111.424 291.875 114.69 290.839 118.051 290.741C125.232 290.457 132.366 293.547 138.205 297.649C144.596 302.14 149.924 307.979 155.862 313.022C158.794 315.559 161.945 317.83 165.279 319.808C167.208 320.923 168.87 317.902 166.947 316.787C160.219 312.894 154.717 307.334 149.018 302.129C146.139 299.419 143.09 296.896 139.89 294.576C136.8 292.397 133.441 290.626 129.897 289.306C123.076 286.762 115.309 286.21 108.679 289.608C102.05 293.007 98.3205 299.63 95.8396 306.283C93.0102 313.87 91.3312 321.894 89.3965 329.737C87.3456 338.057 85.2133 346.411 81.9598 354.359C79.1013 361.36 75.3249 368.471 69.0909 372.979C66.1191 375.231 62.6176 376.68 58.9236 377.186C55.5487 377.579 52.1327 376.973 49.0991 375.443C43.0161 372.398 38.7633 366.501 36.5497 360.198C33.7842 352.349 33.5344 343.855 33.2904 335.616C33.18 331.887 33.2904 327.767 35.655 324.903C36.5677 323.687 37.884 322.836 39.3675 322.504C39.9444 322.406 40.5336 322.406 41.1105 322.504C41.8802 322.667 42.6043 322.998 43.2311 323.474C45.8513 325.368 46.8681 328.807 46.9552 332.049C47.0714 336.203 46.1128 340.328 46.4265 344.482C46.6938 348.084 47.8441 351.89 50.7375 354.266C53.4565 356.503 56.9657 357.078 60.3761 356.48C63.71 355.871 66.7494 354.178 69.0212 351.663C71.5659 348.828 73.1578 345.313 74.2501 341.694C75.3 337.821 76.1245 333.891 76.7193 329.923C77.4804 325.577 78.2357 321.208 79.1652 316.903C80.0295 312.733 81.1727 308.626 82.5873 304.609C82.7209 304.243 82.8545 303.883 82.994 303.523C82.994 303.482 83.2845 302.762 83.0869 303.262L83.3484 302.617C83.7125 301.722 84.0998 300.839 84.5103 299.967C85.2806 298.326 86.1398 296.728 87.0841 295.18C87.5663 294.39 88.0718 293.623 88.6005 292.856C88.7341 292.664 88.8678 292.478 88.9956 292.275L89.1234 292.101C89.3965 291.735 89.7044 291.369 89.96 291.009C91.0987 289.58 92.3436 288.24 93.6842 287C94.0211 286.69 94.3639 286.388 94.7125 286.093C94.7822 286.035 95.3865 285.559 94.8694 285.966L95.4097 285.542C96.1379 284.988 96.8854 284.471 97.6523 283.99C98.4134 283.514 99.1861 283.061 99.9763 282.654C100.307 282.48 100.639 282.317 100.976 282.154C101.074 282.108 101.76 281.812 101.121 282.085L101.94 281.742C103.589 281.076 105.289 280.544 107.024 280.15C107.459 280.051 107.895 279.958 108.331 279.877C108.517 279.842 109.638 279.61 108.912 279.767C109.871 279.59 110.842 279.483 111.817 279.447C113.619 279.315 115.428 279.306 117.232 279.418L118.365 279.499L119.044 279.569H119.219C120.16 279.691 121.101 279.836 122.031 280.011C123.797 280.346 125.543 280.783 127.26 281.318C128.131 281.591 129.002 281.899 129.851 282.213C129.938 282.242 130.647 282.526 130.042 282.282L130.676 282.544C131.094 282.718 131.518 282.898 131.931 283.084C135.352 284.642 138.608 286.54 141.651 288.749C142.284 289.202 141.25 288.441 141.871 288.911L142.452 289.341C142.83 289.632 143.208 289.922 143.574 290.218C144.317 290.811 145.049 291.417 145.77 292.037C147.211 293.286 148.576 294.611 149.953 295.924C152.674 298.623 155.255 301.46 157.686 304.423C158.807 305.737 159.894 307.02 161.05 308.444C161.32 308.838 161.615 309.215 161.933 309.571C162.27 309.896 162.642 310.181 162.979 310.518C163.641 311.18 164.3 311.847 164.954 312.517C165.616 313.202 167.034 312.441 166.616 311.494V311.471Z" fill="#38241E"/>
</svg>
