<svg width="375" height="370" viewBox="0 0 375 370" fill="none" xmlns="http://www.w3.org/2000/svg">
<path d="M317.832 107.029C318.794 105.652 319.458 104.09 319.784 102.443C320.11 100.795 320.089 99.098 319.723 97.459C318.866 93.7001 316.148 90.6481 313.113 88.4353C310.078 86.2225 306.578 84.9063 303.02 83.8372C299.089 82.6475 295.226 81.7681 291.864 80.0036C291.123 79.6127 290.393 79.1817 289.691 78.7218C289.37 78.5073 289.053 78.2889 288.743 78.0666L288.634 77.9862C288.375 77.7792 288.111 77.5781 287.852 77.3654C286.53 76.2713 285.291 75.0801 284.145 73.8019C283.863 73.4858 283.57 73.1697 283.317 72.8478L283.018 72.4915L282.806 72.2213C282.231 71.5144 281.719 70.7959 281.202 70.066C280.162 68.5946 279.19 67.0715 278.265 65.5254C276.334 62.2895 274.512 58.9559 272.868 55.5648C272.644 55.1108 272.426 54.651 272.219 54.1854C272.173 54.0762 271.989 53.6624 272 53.6796C271.879 53.4095 271.77 53.1394 271.655 52.8692C271.213 51.7829 270.81 50.6794 270.466 49.5529C270.15 48.5251 269.89 47.4814 269.684 46.4262C269.684 46.4262 269.603 45.9376 269.592 45.8859C269.563 45.7077 269.54 45.5296 269.517 45.3514C269.46 44.8399 269.414 44.3226 269.391 43.8053C269.351 43.0926 269.391 42.3856 269.391 41.6729C269.758 41.5057 270.082 41.2583 270.341 40.949C270.6 40.6396 270.786 40.2762 270.885 39.8854L272.782 32.54C272.874 32.141 272.874 31.7263 272.782 31.3273C273.655 27.1733 273.53 22.8716 272.418 18.7752C271.306 14.6788 269.238 10.9045 266.385 7.76219C265.281 6.54945 263.574 6.89431 262.58 7.90588C256.005 6.10114 249.36 13.8259 245.912 18.9183C244.453 21.1071 243.226 23.4416 242.25 25.8843C231.514 19.8613 219.865 15.6328 207.765 13.3661C193.174 10.6164 178.196 10.6456 163.617 13.4523C159.63 14.2306 155.693 15.2478 151.828 16.4985C149.92 17.1078 148.07 17.8435 146.23 18.6309C145.007 19.1756 143.82 19.7996 142.678 20.4988C141.999 19.4313 141.23 18.4237 140.379 17.4871C139.333 16.3721 138.27 15.2685 137.143 14.2282C134.726 12.0053 132.126 9.98857 129.372 8.19901C124.703 5.14186 119.662 2.6946 114.371 0.916821C113.302 0.859345 112.233 0.807617 111.158 0.807617C110.399 1.01137 109.676 1.33126 109.014 1.75597L108.376 3.78487C107.1 16.1709 108.158 28.6432 107.198 41.0464C107.786 41.8289 108.525 42.4856 109.371 42.9776C109.469 43.0346 109.548 43.1192 109.598 43.221C109.648 43.3227 109.667 43.437 109.652 43.5495C109.637 43.6619 109.59 43.7675 109.515 43.8529C109.44 43.9383 109.342 43.9997 109.233 44.0294L109.072 44.0812C109.095 44.1066 109.116 44.1334 109.135 44.1616C109.497 43.5869 110.411 44.1616 110.089 44.7939C108.704 47.428 107.141 49.9648 105.411 52.3864C104.991 54.0762 104.497 55.7315 103.945 57.3179C103.802 57.3938 103.683 57.507 103.6 57.6455C103.261 58.18 102.928 58.726 102.594 59.2663C102.542 59.1151 102.446 58.9822 102.32 58.8836C102.194 58.785 102.042 58.7248 101.883 58.7103C101.723 58.6957 101.563 58.7274 101.421 58.8015C101.279 58.8757 101.162 58.9891 101.083 59.1283L91.484 75.394C91.4348 75.4756 91.3998 75.565 91.3806 75.6584C91.0012 75.986 90.6391 76.2849 90.3402 76.5205C89.1907 77.398 88.0201 78.2218 86.8284 78.992C84.5411 80.4633 82.1109 81.6996 79.5749 82.6819C73.5341 84.981 66.7864 85.3603 61.1365 88.6997C55.8314 91.8378 51.5034 98.6602 54.0841 104.879C54.732 106.36 55.5437 107.763 56.5039 109.063C57.3458 110.137 58.038 111.321 58.5615 112.581C59.4754 115.34 58.8547 118.3 58.2914 121.26C57.6879 124.438 57.0556 127.708 57.504 130.944C57.8881 133.859 58.8662 136.665 60.3778 139.186C63.3604 144.139 68.1458 147.744 73.7295 149.245C73.971 149.308 74.2238 149.354 74.471 149.406C73.5514 154.452 74.6894 159.751 77.1149 164.269C80.1722 169.882 85.2559 174.116 91.3288 176.109C97.8064 178.253 105.123 177.707 111.446 175.316C114.657 174.129 117.674 172.473 120.4 170.402C123.188 168.258 125.435 165.918 128.413 164.165C131.194 162.539 134.471 162.297 137.804 162.93C141.678 163.671 145.426 165.005 149.265 165.924C157.025 167.735 164.942 168.792 172.905 169.08C188.935 169.718 204.983 167.453 220.553 163.752C224.461 162.826 228.353 161.803 232.221 160.711C235.474 159.792 238.693 158.602 241.992 157.803L242.394 157.717C242.541 157.698 242.689 157.686 242.837 157.682C242.894 157.682 243.032 157.682 243.153 157.682C243.273 157.682 243.567 157.78 243.63 157.797L243.728 157.855C243.975 158.004 244.222 158.142 244.469 158.297L244.515 158.326L244.779 158.527C245.124 158.807 245.458 159.1 245.779 159.406C248.285 161.705 250.435 164.395 252.97 166.683C254.371 167.949 255.889 169.079 257.505 170.057C257.933 170.297 258.418 170.42 258.91 170.413C259.401 170.406 259.882 170.269 260.304 170.016C260.683 170.321 261.062 170.62 261.453 170.913C265.897 174.173 271.171 176.111 276.667 176.505C282.166 176.882 287.65 175.585 292.399 172.787C297.087 169.953 300.609 165.538 302.331 160.338C303.756 156.119 303.847 151.563 302.589 147.291C307.187 146.641 311.257 143.601 313.981 139.692C318.119 133.766 318.004 126.277 316.234 119.535C315.408 116.577 314.375 113.681 313.142 110.868C313.452 110.753 313.757 110.621 314.067 110.472C315.586 109.651 316.879 108.468 317.832 107.029Z" fill="#FF7B7B"/>
<path d="M188.608 84.9175C179.128 84.9247 169.781 87.1483 161.314 91.4107C152.847 95.6731 145.493 101.856 139.841 109.466C134.189 117.076 130.394 125.902 128.76 135.24C127.126 144.578 127.698 154.168 130.43 163.245C132.819 162.504 135.359 162.391 137.804 162.918C141.678 163.659 145.426 164.993 149.265 165.912C157.025 167.723 164.942 168.78 172.905 169.068C188.935 169.706 204.983 167.441 220.553 163.74C224.461 162.814 228.353 161.791 232.221 160.699C235.474 159.78 238.693 158.59 241.992 157.791L242.394 157.705C242.541 157.686 242.689 157.674 242.837 157.67C242.894 157.67 243.032 157.67 243.153 157.67C243.274 157.67 243.567 157.768 243.63 157.785L243.728 157.843C243.975 157.992 244.222 158.13 244.469 158.285L244.515 158.314L244.779 158.515C245.124 158.795 245.458 159.088 245.779 159.394C246.354 159.912 246.883 160.452 247.418 160.998C249.75 152.013 249.994 142.614 248.131 133.52C246.269 124.426 242.348 115.879 236.671 108.535C230.994 101.191 223.711 95.2438 215.38 91.15C207.048 87.0562 197.89 84.9242 188.608 84.9175Z" fill="#EDD6B4"/>
<path d="M317.832 107.028C318.794 105.651 319.459 104.09 319.784 102.442C320.11 100.794 320.089 99.0973 319.723 97.4582C318.867 93.6993 316.148 90.6474 313.113 88.4346C310.079 86.2218 306.578 84.9056 303.021 83.8365C299.106 82.6525 295.261 81.7731 291.91 80.0259C272.248 102.66 232.761 118.115 187.269 118.115C142.397 118.115 103.382 103.079 83.4435 80.9512C82.1947 81.5967 80.911 82.1724 79.5983 82.6755C73.5576 84.9745 66.8098 85.3539 61.1599 88.6932C55.8548 91.8314 51.5269 98.6537 54.1075 104.873C54.7555 106.353 55.5671 107.757 56.5273 109.057C57.3692 110.131 58.0614 111.314 58.585 112.574C59.4988 115.333 58.8781 118.293 58.3148 121.253C57.7113 124.432 57.0791 127.702 57.5274 130.938C57.9116 133.853 58.8897 136.658 60.4012 139.18C63.3839 144.133 68.1693 147.738 73.753 149.238C73.9944 149.301 74.2473 149.347 74.4944 149.399C73.5748 154.445 74.7128 159.745 77.1383 164.262C80.189 169.873 85.264 174.109 91.3293 176.108C97.8069 178.252 105.124 177.706 111.446 175.315C114.657 174.128 117.675 172.472 120.401 170.401C123.188 168.257 125.436 165.917 128.413 164.164C131.195 162.538 134.471 162.297 137.805 162.929C141.679 163.67 145.426 165.004 149.265 165.923C157.025 167.734 164.942 168.791 172.906 169.079C188.936 169.717 204.983 167.452 220.553 163.751C224.462 162.825 228.353 161.802 232.221 160.71C235.474 159.791 238.693 158.601 241.992 157.802L242.395 157.716C242.541 157.697 242.689 157.685 242.837 157.681C242.895 157.681 243.033 157.681 243.153 157.681C243.274 157.681 243.567 157.779 243.63 157.796L243.728 157.854C243.975 158.003 244.222 158.141 244.469 158.296L244.515 158.325L244.78 158.526C245.125 158.806 245.458 159.099 245.78 159.406C248.286 161.705 250.435 164.394 252.97 166.682C254.371 167.948 255.89 169.078 257.505 170.056C257.934 170.296 258.418 170.42 258.91 170.412C259.402 170.405 259.883 170.268 260.304 170.016C260.684 170.32 261.063 170.619 261.454 170.912C265.897 174.172 271.171 176.11 276.668 176.505C282.167 176.881 287.651 175.584 292.399 172.786C297.087 169.952 300.609 165.537 302.331 160.337C303.757 156.118 303.847 151.562 302.59 147.29C307.188 146.64 311.257 143.6 313.981 139.691C318.12 133.766 318.005 126.277 316.234 119.535C315.409 116.576 314.375 113.68 313.142 110.867C313.453 110.752 313.757 110.62 314.068 110.471C315.586 109.65 316.879 108.467 317.832 107.028Z" fill="#EDD6B4"/>
<path d="M84.7765 84.0154C87.0756 88.2341 91.9381 91.286 95.8292 93.9586C99.612 96.6311 103.656 98.913 107.899 100.77C112.216 102.603 116.578 104.218 120.906 105.983C122.906 106.793 124.855 107.822 126.912 108.477C129.413 109.276 132.028 109.713 134.574 110.333C135.62 110.592 136.298 109.052 135.275 108.552C131.166 106.5 127.079 104.31 123.021 102.149C118.927 99.8975 115.033 97.2997 111.382 94.384C107.756 91.5102 103.91 88.9927 100.215 86.2741C96.5189 83.5556 92.9439 80.245 88.5872 78.7678C85.495 77.7218 83.4143 81.5497 84.7593 84.0154H84.7765Z" fill="#EDD6B4"/>
<path d="M127.476 86.0553C122.211 83.7563 117.567 80.0779 113.618 75.9569C109.67 71.8358 107.422 66.3699 103.543 62.2604C100.83 59.3866 95.8005 62.5938 97.0305 66.2837C99.0249 72.1979 105.077 76.7328 110.043 80.0779C115.216 83.6126 120.964 85.6588 126.953 87.3715C127.723 87.5899 128.234 86.3715 127.476 86.0438V86.0553Z" fill="#EDD6B4"/>
<path d="M130.648 65.6228C127.683 62.956 125.194 59.7086 122.297 56.9325C119.344 54.1843 116.617 51.2032 114.141 48.018C110.899 43.7074 103.675 48.2135 106.997 52.4322C109.867 56.217 113.209 59.6202 116.94 62.5594C120.803 65.5021 124.774 66.6574 129.372 67.9391C129.66 67.997 129.958 67.9621 130.223 67.8393C130.489 67.7166 130.709 67.5124 130.851 67.2563C130.994 67.0003 131.05 66.7056 131.014 66.415C130.977 66.1245 130.849 65.8531 130.648 65.6401V65.6228Z" fill="#EDD6B4"/>
<path d="M237.595 59.4902C241.877 61.0478 247.94 58.1625 251.797 56.4382C254.211 55.3634 256.562 54.2196 258.872 52.9552C261.332 51.6045 264.045 50.4895 265.367 47.8801C265.686 47.2763 265.843 46.6002 265.823 45.9176C265.803 45.2351 265.606 44.5695 265.251 43.9858C264.897 43.4021 264.397 42.9203 263.801 42.5874C263.205 42.2545 262.532 42.0819 261.85 42.0865C258.901 42.0865 256.677 44.0177 254.257 45.4833L247.992 49.2537C245.917 50.5067 243.819 51.7654 241.865 53.2023C240.043 54.5358 237.893 55.8979 236.951 58.0245C236.88 58.1608 236.841 58.3112 236.836 58.4646C236.831 58.618 236.861 58.7706 236.923 58.9111C236.984 59.0517 237.077 59.1766 237.193 59.2768C237.309 59.377 237.446 59.4499 237.595 59.4902Z" fill="#EDD6B4"/>
<path d="M241.917 79.5839C245.073 79.5552 248.182 79.7851 251.332 79.3081C254.38 78.8009 257.373 78.0042 260.269 76.9286C266.272 74.7185 271.871 71.5402 276.846 67.5198C278.702 66.0254 279.593 63.6977 278.265 61.4906C277.116 59.6054 274.121 58.6168 272.242 60.0652C267.563 63.5783 262.619 66.7221 257.453 69.4682C255.039 70.7614 252.568 71.9052 250.102 73.0777C247.262 74.4226 244.492 76.0722 241.532 77.101C241.25 77.198 241.012 77.3913 240.859 77.6468C240.706 77.9024 240.648 78.2037 240.695 78.4978C240.743 78.7919 240.892 79.0598 241.118 79.2543C241.344 79.4488 241.631 79.5574 241.929 79.561L241.917 79.5839Z" fill="#EDD6B4"/>
<path d="M249.918 107.781C253.895 107.022 257.855 106.482 261.683 105.097C265.473 103.715 269.163 102.071 272.724 100.177C276.307 98.2893 279.792 96.2233 283.168 93.9867C286.484 91.7969 290.238 89.5669 292.91 86.6011C296.244 82.9054 291.824 77.8131 287.576 80.0316C284.191 81.7961 281.214 84.5205 278.058 86.6816C274.903 88.8427 271.609 90.9808 268.316 93.0039C261.758 97.0789 255.464 101.493 248.998 105.683C247.849 106.43 248.694 107.982 249.929 107.758L249.918 107.781Z" fill="#EDD6B4"/>
<path d="M196.074 86.2969L195.953 86.2107C195.809 86.1219 195.649 86.063 195.483 86.0373C195.316 86.0116 195.145 86.0198 194.982 86.0613C194.785 85.9674 194.579 85.896 194.367 85.8486C193.591 85.6762 192.803 85.567 192.022 85.4233L187.326 84.5899C187.176 84.5633 187.023 84.5706 186.877 84.6114C186.73 84.6522 186.595 84.7254 186.481 84.8256C185.696 85.0077 184.967 85.3796 184.359 85.9087C183.751 86.4377 183.281 87.1078 182.992 87.8603C182.695 88.4791 182.642 89.1869 182.843 89.8432C183.291 91.1709 185.337 91.2283 185.665 89.7742C185.711 89.5731 185.74 89.3661 185.786 89.165C185.786 89.1132 185.941 88.7282 185.849 88.9408C185.956 88.6726 186.119 88.4299 186.326 88.2281C186.637 89.6668 187.415 90.9622 188.539 91.9123C188.807 92.1639 189.163 92.3001 189.531 92.2915C189.899 92.2829 190.248 92.1302 190.504 91.8663C191.096 91.1874 191.493 90.3613 191.654 89.4753C191.697 89.234 191.697 88.9868 191.654 88.7454C192.162 88.9171 192.618 89.2135 192.982 89.6075C193.264 89.7942 193.595 89.8937 193.933 89.8937C194.271 89.8937 194.602 89.7942 194.884 89.6075C194.965 89.634 195.047 89.6551 195.131 89.6708C195.453 89.7375 195.789 89.6806 196.071 89.5113C196.353 89.3419 196.562 89.0726 196.654 88.7569C196.724 88.5392 196.762 88.3128 196.769 88.0844C196.863 87.7514 196.846 87.3968 196.721 87.0742C196.595 86.7517 196.368 86.4788 196.074 86.2969Z" fill="#EAD1B0"/>
<path d="M22.8287 326.741C22.4419 326.202 22.1125 325.624 21.8458 325.017C18.7766 318.005 22.6333 310.217 20.0526 303.13C18.9433 300.078 16.3109 297.032 12.7703 297.256C10.5977 297.388 8.92514 298.693 7.75262 300.394C7.55107 300.272 7.31068 300.23 7.07947 300.277C6.84825 300.324 6.64324 300.456 6.50538 300.647C5.92544 301.542 5.42538 302.487 5.01099 303.469C4.11032 304.995 3.5328 306.689 3.31429 308.447C3.09578 310.205 3.24094 311.989 3.74076 313.689C3.76118 313.753 3.78615 313.817 3.81548 313.878C3.74748 315.899 3.82624 317.921 4.05114 319.93C4.06975 320.091 4.13129 320.244 4.22931 320.373C4.22931 321.724 4.22931 323.074 4.34427 324.396C4.69487 329.971 5.91912 335.524 8.50556 340.42C14.261 337.013 19.1604 332.334 22.8287 326.741Z" fill="#EDD6B4"/>
<path d="M314.407 188.753C313.066 187.308 311.286 186.345 309.343 186.012C310.376 185.099 311.501 184.296 312.7 183.615C313.585 183.115 312.958 181.891 312.033 182.04C308.268 182.77 304.262 183.575 300.457 182.65C297.486 181.931 294.71 180.161 293.508 177.27C293.441 177.157 293.349 177.06 293.238 176.988C293.128 176.916 293.003 176.87 292.872 176.853C292.742 176.836 292.609 176.85 292.484 176.892C292.359 176.934 292.246 177.005 292.152 177.097C290.813 178.712 291.468 180.609 292.152 182.374C292.531 183.183 292.766 184.053 292.847 184.943C292.847 186.144 291.853 186.667 290.916 187.207C285.71 190.155 280.733 193.493 276.03 197.191C274.114 198.724 272.233 200.304 270.386 201.933L253.206 178.523L243.688 165.556C242.912 164.493 242.136 163.424 241.349 162.366C240.796 161.552 240.121 160.827 239.348 160.217C237.36 158.774 234.905 159.51 232.716 159.952C222.675 161.99 212.507 163.334 202.282 163.976C192.118 164.628 181.922 164.599 171.762 163.889C161.541 163.173 151.38 161.761 141.351 159.665L139.535 159.268C139.158 159.09 138.745 158.998 138.328 158.998L137.581 158.866C137.466 158.839 137.348 158.836 137.233 158.857C137.117 158.877 137.007 158.921 136.909 158.986C136.811 159.05 136.727 159.134 136.663 159.232C136.599 159.33 136.555 159.44 136.535 159.556C127.52 164.598 118.887 170.294 110.705 176.597C102.715 182.782 94.5423 189.713 89.2258 198.438C83.9092 207.163 85.2484 216.744 93.2491 223.153C96.6575 225.894 100.508 227.722 104.428 229.596C106.538 230.602 108.572 231.694 110.595 232.86C111.636 233.435 112.716 233.952 113.78 234.487C112.792 235.599 112.229 237.024 112.188 238.51C112.113 238.591 112.038 238.665 111.952 238.746C110.946 239.66 111.831 241.263 112.941 241.419C113.076 241.656 113.223 241.886 113.383 242.108C113.515 242.28 113.672 242.431 113.849 242.557C113.711 243.022 113.567 243.493 113.441 243.965C112.866 246.017 115.441 247.109 116.843 245.833L118.131 244.683C117.993 245.746 119.32 246.862 120.28 246.091C121.619 245.066 122.511 243.563 122.769 241.896C124.572 240.369 125.744 238.226 126.057 235.884C126.689 231.797 124.775 229.096 122.441 225.998C120.338 223.199 117.171 220.164 120.821 217.261C122.625 215.83 124.781 215.003 126.953 214.175C127.229 227.055 128.212 239.911 129.896 252.684L129.057 252.419C129.442 255.155 129.747 257.862 130.023 260.57C130.355 260.571 130.686 260.525 131.005 260.432C132.186 268.061 133.611 275.643 135.282 283.18C134.707 282.824 133.712 283.278 133.988 284.112L134.615 286.014C126.812 274.759 116.242 265.703 103.922 259.719C100.683 258.15 97.3398 256.805 93.9158 255.696C89.8925 254.385 85.6335 253.368 81.3515 253.397C74.4083 253.443 68.0859 256.632 63.2234 261.443C58.3609 266.254 54.9353 272.364 52.711 278.789C49.9119 286.876 48.6876 295.383 46.8197 303.705C45.9627 307.765 44.8101 311.757 43.3711 315.649C42.1966 318.916 40.4617 321.954 38.2442 324.626C35.9451 327.293 32.6115 329.673 28.956 329.862C27.7485 329.925 26.5458 329.669 25.4684 329.12C24.391 328.571 23.4769 327.749 22.8175 326.736C19.1512 332.335 14.2517 337.02 8.49438 340.432C9.43881 342.233 10.5717 343.928 11.874 345.49C16.156 350.588 22.4497 354.387 29.2434 354.405C36.4337 354.405 42.7963 350.094 47.0611 344.576C52.1132 338.122 54.4123 330.098 56.7401 322.396C59.4223 313.641 62.0931 304.883 64.7523 296.124C66.0398 291.894 67.3043 287.658 68.6205 283.439C69.5566 280.2 70.8019 277.059 72.3392 274.059C73.8738 271.231 75.8912 268.605 78.6616 266.892C82.0412 264.788 86.0818 264.392 89.9729 264.737C97.9277 265.449 105.348 268.852 111.619 273.691C117.223 278.013 122.143 283.163 127.959 287.215C130.736 289.188 133.773 290.767 136.983 291.905C137.101 291.939 137.227 291.939 137.345 291.905C140.077 302.906 143.334 313.761 147.116 324.471C150.565 334.282 154.559 343.858 158.945 353.278C153.803 354.858 149.337 358.114 146.26 362.526C146.249 362.544 146.239 362.564 146.231 362.583L145.696 363.037C145.594 363.151 145.522 363.29 145.488 363.439C145.454 363.588 145.458 363.744 145.501 363.891C145.543 364.038 145.623 364.172 145.731 364.28C145.84 364.388 145.974 364.467 146.122 364.509C146.149 364.725 146.245 364.926 146.397 365.083C146.548 365.239 146.746 365.342 146.961 365.377L148.432 365.549C148.632 365.662 148.804 365.817 148.938 366.003C149.055 366.191 149.239 366.327 149.452 366.383C149.666 366.44 149.893 366.413 150.088 366.308C150.343 366.133 150.61 365.976 150.886 365.836L152.185 365.969C153.01 366.263 153.895 366.346 154.76 366.21C158.01 366.497 161.267 366.704 164.531 366.831C167.497 366.946 170.463 366.99 173.429 366.963C174.843 366.963 176.251 366.923 177.665 366.882C178.872 366.848 180.406 367.026 181.521 366.492C182.636 365.957 182.849 364.802 182.723 363.693C182.567 362.302 182.366 360.917 182.194 359.526C181.838 356.721 181.493 353.916 181.194 351.1C181.01 349.375 180.843 347.651 180.705 345.927C180.909 345.903 181.097 345.803 181.232 345.648C181.367 345.493 181.439 345.293 181.435 345.088C181.853 335.052 182.27 325.017 182.688 314.982C182.699 314.825 182.661 314.668 182.58 314.534C182.499 314.399 182.378 314.292 182.234 314.229C182.407 311.867 182.596 309.51 182.809 307.148C183.012 305.029 183.234 302.906 183.476 300.78C183.579 299.837 183.694 298.9 183.809 297.958C183.924 297.015 183.947 295.952 184.447 295.164C185.298 293.837 187.01 294.348 188.246 294.722C189.56 295.197 190.92 295.536 192.304 295.733C194.089 309.777 194.979 323.919 194.971 338.076C194.971 345.287 194.729 352.496 194.247 359.704C194.143 361.279 193.827 362.957 194 364.532C194.155 365.997 195.017 367.043 196.54 367.17C198.297 367.234 200.056 367.209 201.811 367.095L207.231 366.992L231.779 366.52C231.93 366.519 232.079 366.479 232.21 366.402C232.341 366.326 232.449 366.217 232.525 366.085C232.601 365.954 232.64 365.805 232.641 365.653C232.641 365.502 232.601 365.353 232.526 365.221C229.94 361.107 226.58 357.534 222.634 354.698C221.692 354.019 220.697 353.445 219.76 352.801C219.358 352.567 219.021 352.237 218.778 351.841C218.555 351.234 218.576 350.565 218.835 349.973C219.634 347.323 220.559 344.714 221.41 342.076C221.532 341.977 221.627 341.848 221.686 341.702C225.928 331.069 230.169 320.436 234.038 309.642C237.941 298.96 241.283 288.08 244.05 277.048C246.79 266.068 248.591 254.876 249.436 243.591C249.846 237.794 249.972 231.985 249.815 226.164C252.096 228.089 254.656 229.657 257.407 230.814C260.201 232.107 263.164 232.998 266.207 233.458C269.104 233.924 272.07 233.717 274.875 232.855C277.694 231.903 280.152 230.107 281.915 227.711C285.594 222.814 286.347 216.445 289.083 211.043C291.852 205.657 296.021 201.118 301.153 197.904C303.971 196.123 307.043 194.778 310.263 193.915C311.067 193.702 311.987 193.645 312.757 193.34C313.527 193.035 313.694 192.104 313.631 191.409C313.593 190.982 313.463 190.569 313.252 190.196L313.826 190.15C313.978 190.13 314.122 190.071 314.244 189.977C314.366 189.884 314.461 189.761 314.519 189.619C314.578 189.478 314.599 189.323 314.579 189.171C314.559 189.019 314.5 188.875 314.407 188.753Z" fill="#FF7B7B"/>
<path d="M231.526 223.371C228.497 193.904 201.385 161.298 174.797 186.868C151.501 208.87 146.42 272.915 185.631 275.111C213.145 276.76 234.641 249.845 231.526 223.371Z" fill="#EDD6B4"/>
<path d="M128.183 26.7232L127.861 26.522C127.902 26.522 127.666 26.3669 127.631 26.3324C127.39 26.1255 127.149 25.9339 126.907 25.7576C126.333 25.2978 125.758 24.861 125.125 24.4472C124.057 23.7275 122.931 23.0988 121.757 22.5677C121.628 22.511 121.493 22.4686 121.355 22.4413C121.141 22.3088 120.894 22.2409 120.642 22.2459C120.3 22.2605 119.977 22.4057 119.738 22.6516C119.5 22.8975 119.365 23.2253 119.361 23.5678C119.274 24.3897 119.303 25.2346 119.292 26.0622C119.292 26.1657 119.292 26.2691 119.292 26.3726C119.263 26.9474 119.234 27.5221 119.211 28.1314C119.157 29.6489 119.18 31.1682 119.28 32.6834C119.291 32.8308 119.353 32.9698 119.455 33.0763C119.557 33.1828 119.694 33.2501 119.841 33.2665C119.987 33.2829 120.135 33.2474 120.259 33.166C120.382 33.0847 120.473 32.9628 120.516 32.8214C120.516 32.7122 120.562 32.603 120.591 32.4938C120.795 32.5659 121.012 32.5972 121.229 32.5857C121.355 32.5791 121.48 32.5599 121.602 32.5282C121.946 32.6406 122.315 32.6526 122.666 32.5627C123.717 32.222 124.718 31.7426 125.643 31.1373L128.264 29.6775C128.517 29.5191 128.725 29.2976 128.867 29.0346C129.009 28.7716 129.081 28.4762 129.074 28.1773C129.058 27.8801 128.968 27.5915 128.813 27.3376C128.657 27.0837 128.441 26.8726 128.183 26.7232Z" fill="#EDD6B4"/>
<path d="M263.655 30.6947C263.564 29.642 263.39 28.5984 263.132 27.5737C262.973 26.3135 262.647 25.0803 262.161 23.9068C262.088 23.6961 261.939 23.5202 261.744 23.4138C261.548 23.3074 261.319 23.2782 261.103 23.332C260.954 23.381 260.82 23.4659 260.712 23.5791C260.603 23.6924 260.525 23.8306 260.482 23.9815C259.195 24.1309 257.764 25.5046 256.999 26.2805C255.97 27.3495 255.15 28.6008 254.58 29.9705H254.539C254.394 29.9129 254.238 29.8881 254.083 29.8978C253.927 29.9076 253.776 29.9516 253.639 30.0268C253.502 30.102 253.384 30.2064 253.293 30.3327C253.201 30.459 253.139 30.6039 253.11 30.7572C253.081 30.9104 253.086 31.0682 253.125 31.2191C253.164 31.37 253.237 31.5105 253.336 31.6303C253.436 31.7501 253.561 31.8463 253.703 31.9121C253.844 31.9779 253.998 32.0116 254.154 32.0108C254.252 32.2209 254.427 32.3854 254.643 32.4707L255.103 32.8902C255.804 33.5071 256.52 34.1164 257.252 34.7179C258.69 35.8923 260.19 36.9879 261.747 37.9998C261.861 38.0649 261.989 38.1032 262.12 38.1117C262.252 38.1202 262.383 38.0988 262.505 38.0489C262.627 37.9991 262.736 37.9222 262.823 37.8241C262.911 37.7259 262.975 37.6092 263.011 37.4825C263.629 35.2764 263.847 32.9776 263.655 30.6947Z" fill="#EDD6B4"/>
<path d="M118.05 187.604C118.786 191.484 121.907 194.898 124.148 198.019C125.447 199.83 127.844 200.594 129.833 199.364C131.557 198.301 132.586 195.427 131.178 193.674C128.568 190.432 126.005 186.202 122.148 184.294C119.775 183.144 117.59 185.185 118.05 187.604Z" fill="#EDD6B4"/>
<path d="M115.877 202.548C115.762 201.398 115.877 200.214 115.572 199.099C115.181 197.645 114.308 196.225 113.681 194.863C112.411 192.138 111.332 189.328 110.451 186.454C108.928 181.327 100.755 183.799 102.496 188.857C103.568 192.228 105.127 195.425 107.123 198.346C109.215 201.254 111.026 202.777 114.451 203.709C114.623 203.751 114.803 203.753 114.976 203.715C115.149 203.677 115.311 203.599 115.449 203.488C115.587 203.376 115.698 203.234 115.772 203.073C115.846 202.912 115.882 202.736 115.877 202.559V202.548Z" fill="#EDD6B4"/>
<path d="M98.6684 208.036C100.554 215.686 110.738 219.968 117.986 219.842C122.757 219.761 123.958 211.83 118.94 211.221C115.605 210.918 112.303 210.324 109.072 209.445C106.037 208.531 103.261 207.105 100.151 206.473C99.936 206.424 99.7116 206.432 99.5002 206.496C99.2888 206.56 99.0976 206.677 98.9453 206.837C98.7929 206.997 98.6847 207.194 98.6311 207.408C98.5776 207.622 98.5805 207.847 98.6397 208.059L98.6684 208.036Z" fill="#EDD6B4"/>
<path d="M88.9897 219.216C92.4843 223.854 98.7607 226.9 104.543 227.164C107.991 227.32 108.503 221.94 105.204 221.193C102.646 220.618 100.031 220.411 97.5192 219.687C95.0765 218.986 92.6969 218.152 90.2427 217.503C89.3346 217.261 88.3747 218.394 88.9897 219.227V219.216Z" fill="#EDD6B4"/>
<path d="M130.793 175.051C130.971 174.477 131.597 173.902 131.822 173.281C131.986 172.819 132.101 172.342 132.166 171.856C132.349 170.568 132.455 169.271 132.482 167.97C132.534 165.913 130.471 164.43 128.563 164.735C126.379 165.085 125.511 167.034 125.85 169.034C126.023 170.114 126.267 171.181 126.58 172.229C126.724 172.771 126.937 173.293 127.212 173.781C127.551 174.356 128.241 174.839 128.499 175.408C128.988 176.465 130.511 175.983 130.798 175.051H130.793Z" fill="#EDD6B4"/>
<path d="M246.164 180.811C246.455 181.16 246.826 181.434 247.245 181.609C247.902 181.839 248.617 181.839 249.274 181.609C249.764 181.46 250.191 181.155 250.491 180.74C250.791 180.324 250.947 179.822 250.935 179.31C250.912 178.802 250.728 178.315 250.41 177.918C250.092 177.521 249.656 177.236 249.165 177.103C248.501 176.886 247.781 176.912 247.136 177.178C246.733 177.373 246.378 177.654 246.095 178C245.734 178.384 245.538 178.893 245.549 179.42C245.583 179.942 245.801 180.434 246.164 180.811Z" fill="#EDD6B4"/>
<path d="M250.981 194.012C249.372 194.8 248.257 196.271 247.147 197.628C245.9 199.151 245.923 201.312 247.601 202.542C247.978 202.817 248.408 203.009 248.864 203.106C249.321 203.202 249.792 203.201 250.248 203.102C250.703 203.004 251.133 202.809 251.508 202.532C251.883 202.255 252.195 201.902 252.424 201.496C253.47 199.726 254.395 198.047 254.614 195.978C254.832 193.909 252.383 193.328 250.981 194.012Z" fill="#EDD6B4"/>
<path d="M257.08 212.353C259.325 211.523 261.317 210.125 262.862 208.295C264.667 206.247 266.313 204.064 267.787 201.766C269.989 198.318 264.471 194.151 261.931 197.473C258.81 201.559 255.689 206.008 255.545 211.267C255.552 211.449 255.6 211.628 255.686 211.789C255.772 211.95 255.894 212.089 256.042 212.196C256.19 212.303 256.36 212.375 256.54 212.406C256.72 212.437 256.904 212.427 257.08 212.376V212.353Z" fill="#EDD6B4"/>
<path d="M263.965 212.066C259.436 215.319 258.407 223.699 258.459 228.872C258.511 233.539 265.063 233.073 265.511 228.699C265.787 225.958 265.988 223.227 266.483 220.509C266.914 218.106 267.632 215.669 267.092 213.25C266.997 212.941 266.833 212.658 266.613 212.423C266.392 212.188 266.12 212.006 265.819 211.891C265.517 211.777 265.193 211.733 264.872 211.764C264.55 211.794 264.24 211.897 263.965 212.066Z" fill="#EDD6B4"/>
<path d="M278.966 215.578C281.495 211.371 280.874 205.922 279.391 201.473C277.753 196.548 270.546 199.536 272.776 204.456C274.322 207.865 274.35 211.572 275.075 215.164C275.46 217.061 278.098 217.015 278.96 215.578H278.966Z" fill="#EDD6B4"/>
<path d="M287.191 196.8C286.49 199.674 288.186 203.071 289.352 205.663C290.272 207.709 292.226 209.002 294.497 207.962C294.982 207.741 295.414 207.42 295.767 207.02C296.119 206.62 296.383 206.15 296.541 205.641C296.699 205.132 296.747 204.595 296.683 204.066C296.619 203.537 296.444 203.027 296.169 202.571C295.445 201.226 294.617 199.938 293.784 198.656C292.95 197.375 291.945 195.995 290.485 195.346C289.174 194.771 287.553 195.26 287.191 196.783V196.8Z" fill="#EDD6B4"/>
<path d="M157.484 196.352C150.84 195.03 143.575 190.823 138.804 186.07C134.948 182.23 128.953 188.524 132.982 192.185C136.258 195.157 140.029 197.783 144.213 199.289C148.397 200.795 152.604 200.772 157.024 200.508C159.323 200.375 159.898 196.829 157.484 196.352Z" fill="#EDD6B4"/>
<path d="M147.438 222.773C145.033 221.525 142.482 220.579 139.845 219.957C137.073 219.136 134.402 218.004 131.885 216.583C126.712 213.853 122.55 221.463 127.499 224.526C133.448 228.21 142.144 229.963 147.817 225.233C148.604 224.578 148.248 223.21 147.438 222.773Z" fill="#EDD6B4"/>
<path d="M147.679 250.126C142.857 249.717 138.132 249.493 133.31 248.717C127.827 247.832 125.625 255.925 131.189 257.212C137.264 258.626 144.495 257.253 148.656 252.361C148.83 252.169 148.943 251.931 148.984 251.675C149.025 251.419 148.99 251.157 148.885 250.921C148.78 250.684 148.608 250.483 148.391 250.342C148.174 250.201 147.921 250.126 147.662 250.126H147.679Z" fill="#EDD6B4"/>
<path d="M154.093 282.014C148.668 281.439 143.334 280.036 137.845 279.64C132.465 279.249 132.908 288.589 139.109 287.503C144.219 286.606 149.104 284.744 154.134 283.663C154.921 283.491 154.933 282.106 154.093 282.014Z" fill="#EDD6B4"/>
<path d="M225.91 192.869C231.864 194.864 239.607 191.628 243.549 187.035C247.245 182.742 241.452 177.449 237.273 181.064C235.508 182.697 233.607 184.176 231.589 185.484C229.554 186.714 227.318 187.524 225.266 188.696C223.427 189.743 224.157 192.277 225.916 192.869H225.91Z" fill="#EDD6B4"/>
<path d="M236.716 227.469C240.94 228.619 245.854 228.343 249.682 226.027C254.177 223.314 250.004 216.75 245.435 219.129C242.503 220.67 239.871 222.17 236.606 222.986C234.307 223.561 234.612 226.866 236.716 227.446V227.469Z" fill="#EDD6B4"/>
<path d="M227.761 260.409C229.013 263.013 232.836 263.857 235.468 264.11C238.959 264.365 242.454 263.666 245.578 262.087C249.602 260.116 246.532 253.11 242.302 254.822C239.909 255.86 237.401 256.609 234.83 257.052C232.692 257.38 230.169 257.15 228.284 258.305C227.947 258.526 227.708 258.867 227.615 259.258C227.522 259.649 227.583 260.061 227.784 260.409H227.761Z" fill="#EDD6B4"/>
<path d="M217.012 284.198C223.565 289.187 233.106 289.589 240.992 288.6C241.567 288.56 242.128 288.401 242.639 288.132C243.15 287.864 243.599 287.492 243.958 287.04C244.317 286.588 244.578 286.066 244.725 285.508C244.871 284.949 244.899 284.367 244.808 283.797C244.716 283.227 244.507 282.682 244.194 282.198C243.88 281.713 243.469 281.299 242.987 280.982C242.505 280.665 241.962 280.452 241.393 280.357C240.823 280.261 240.24 280.285 239.681 280.427C232.29 281.767 224.737 281.186 217.397 282.577C217.238 282.628 217.094 282.719 216.979 282.842C216.865 282.965 216.785 283.115 216.746 283.278C216.707 283.441 216.711 283.612 216.758 283.773C216.805 283.934 216.892 284.08 217.012 284.198Z" fill="#EDD6B4"/>
<path d="M172.112 303.855C170.819 303.567 170.141 303.182 168.813 303.056C167.767 302.958 166.756 302.923 165.704 302.877C163.273 302.762 160.824 302.418 158.41 302.119C153.57 301.585 148.8 300.533 144.185 298.981C138.684 297.067 136.362 306.079 141.978 307.826C147.323 309.493 152.956 310.522 158.565 310.091C161.3 309.85 163.999 309.305 166.612 308.464C167.805 308.133 168.96 307.68 170.061 307.113C171.13 306.539 171.589 305.849 172.509 305.084C172.597 304.99 172.658 304.874 172.688 304.749C172.718 304.623 172.715 304.493 172.679 304.369C172.643 304.245 172.575 304.133 172.483 304.042C172.391 303.952 172.277 303.888 172.153 303.855H172.112Z" fill="#EDD6B4"/>
<path d="M156.26 324.972C159.767 327.052 165.02 327.029 168.986 326.983C173.533 326.86 178.062 326.364 182.527 325.5C184.924 325.075 186.183 322.012 185.539 319.873C184.78 317.362 182.309 316.373 179.912 316.862C176.055 317.649 172.153 318.149 168.239 318.551C164.618 318.931 160.129 318.724 156.743 320.172C154.72 321.052 154.163 323.742 156.232 324.972H156.26Z" fill="#EDD6B4"/>
<path d="M171.894 336.875C169.721 336.145 167.221 336.334 164.956 336.122C162.427 335.886 159.91 335.633 157.369 335.466C152.294 335.144 151.283 343.714 156.381 344.45C161.594 345.197 169.135 344.662 172.911 340.375C173.157 340.104 173.329 339.775 173.412 339.419C173.494 339.062 173.484 338.691 173.382 338.34C173.28 337.989 173.089 337.67 172.829 337.413C172.568 337.157 172.246 336.971 171.894 336.875Z" fill="#EDD6B4"/>
<path d="M206.328 305.676C210.351 308.929 215.582 309.349 220.64 309.533C223.205 309.635 225.775 309.535 228.324 309.234C231.072 308.895 234.233 308.803 236.498 307.096C239.371 304.929 239.262 299.877 235.239 298.998C232.67 298.423 230.514 299.17 227.985 299.572C225.686 299.929 223.307 300.199 220.967 300.383C216.398 300.751 211.593 300.21 207.254 301.797C205.753 302.371 204.885 304.521 206.328 305.688V305.676Z" fill="#EDD6B4"/>
<path d="M219.421 320.189C218.162 317.419 212.966 317.269 210.357 316.976C206.616 316.57 202.917 315.837 199.304 314.786C193.556 313.102 191.257 322.304 197.039 323.85C201.672 325.086 206.81 326.109 211.61 325.672C214.185 325.437 221.294 324.304 219.421 320.189Z" fill="#EDD6B4"/>
<path d="M202.92 340.335C204.035 342.68 207.409 343.582 209.748 344.226C212.904 345.093 216.122 345.139 219.37 344.979C225.169 344.691 224.876 335.466 219.151 336.001C216.122 336.283 213.088 336.34 210.064 336.616C207.662 336.829 205.024 336.679 203.127 338.34C202.883 338.612 202.731 338.954 202.694 339.318C202.656 339.682 202.736 340.048 202.92 340.363V340.335Z" fill="#EDD6B4"/>
<path d="M30.18 349.353C35.7035 347.094 36.6806 337.748 36.4565 332.685C36.2496 328.087 28.9845 328.328 29.3639 332.863C29.6035 335.695 29.5669 338.544 29.2547 341.369C29.0018 343.668 28.0649 346.266 28.6799 348.565C28.7728 348.866 28.9807 349.118 29.2583 349.267C29.536 349.415 29.861 349.448 30.1628 349.358L30.18 349.353Z" fill="#EDD6B4"/>
<path d="M42.7385 325.621C42.7385 327.679 43.5432 329.644 44.1409 331.576C44.7248 333.67 45.0851 335.82 45.2158 337.99C45.5951 342.099 51.7508 342.013 51.6819 337.835C51.6071 333.237 50.1128 326.253 45.7101 323.828C45.4021 323.663 45.0566 323.582 44.7076 323.591C44.3585 323.6 44.0179 323.701 43.7192 323.881C43.4206 324.062 43.1742 324.318 43.0042 324.623C42.8343 324.928 42.7467 325.272 42.75 325.621H42.7385Z" fill="#EDD6B4"/>
<path d="M56.6075 316.281C57.3317 314.189 56.1247 312.068 55.2453 310.171C54.0957 307.665 52.6761 305.199 50.377 303.602C47.8251 301.837 43.7902 305.01 45.0375 307.918C46.187 310.539 48.3251 312.43 50.6012 314.097C52.268 315.315 54.0498 316.867 56.2281 316.591C56.3151 316.583 56.3978 316.549 56.4654 316.494C56.5331 316.439 56.5825 316.364 56.6075 316.281Z" fill="#EDD6B4"/>
<path d="M51.1707 294.187C51.3891 296.314 52.4869 297.774 54.1824 299.015C55.6601 300.178 57.2263 301.223 58.8668 302.142C59.6943 302.586 60.6539 302.717 61.57 302.511C62.486 302.305 63.2974 301.776 63.8557 301.021C64.8845 299.567 64.9708 297.142 63.4246 295.929C61.8616 294.764 60.2153 293.715 58.4989 292.791C56.7746 291.791 54.8204 291.182 52.849 291.871C52.3603 292.025 51.9336 292.331 51.6316 292.745C51.3295 293.158 51.168 293.658 51.1707 294.17V294.187Z" fill="#EDD6B4"/>
<path d="M64.2398 284.877C64.8146 283.124 63.5846 281.037 62.6707 279.583C61.6584 278.04 60.5608 276.555 59.3831 275.135C57.9462 273.33 55.6241 272.583 53.6354 274.181C51.7617 275.704 51.8077 278.273 53.3825 279.986C54.6171 281.369 55.9236 282.687 57.2967 283.934C58.5439 285.02 60.5211 286.681 62.2914 286.423C62.7328 286.394 63.1547 286.23 63.5001 285.953C63.8454 285.677 64.0976 285.301 64.2226 284.877H64.2398Z" fill="#EDD6B4"/>
<path d="M64.557 265.898C65.2295 267.145 65.4536 268.197 66.1204 269.444C66.6492 270.45 67.0195 271.532 67.2182 272.651C67.586 274.732 70.2414 275.818 72.0922 275.261C73.0772 274.944 73.9004 274.257 74.3874 273.344C74.8745 272.431 74.9871 271.364 74.7016 270.37C73.7302 266.404 71.1668 263.116 66.9595 262.582C65.057 262.34 63.5914 264.076 64.557 265.875V265.898Z" fill="#EDD6B4"/>
<path d="M83.575 263.719C85.466 262.328 86.9776 259.213 87.2937 256.92C87.5581 254.977 86.719 253.023 84.6441 252.511C82.5692 252 80.9023 253.304 80.2356 255.161C79.4309 257.374 79.3505 260.822 80.385 262.966C80.5433 263.227 80.7519 263.454 80.9987 263.633C81.2454 263.812 81.5254 263.941 81.8223 264.011C82.1192 264.081 82.4271 264.091 82.728 264.041C83.0289 263.991 83.3168 263.882 83.575 263.719Z" fill="#EDD6B4"/>
<path d="M94.4042 259.731C94.295 260.087 94.1915 260.443 94.0823 260.8C93.9639 261.081 93.8256 261.354 93.6685 261.616C93.042 262.875 93.0305 264.45 94.1225 265.467C94.4996 265.811 94.9764 266.026 95.4838 266.08C95.9912 266.135 96.5029 266.027 96.9446 265.771C98.2838 265.093 98.531 263.438 98.2551 262.11C98.1438 261.463 98.1015 260.806 98.1286 260.15C98.1286 257.966 95.0134 257.748 94.4157 259.742L94.4042 259.731Z" fill="#EDD6B4"/>
<path d="M108.664 266.828C110.319 267.069 111.457 265.954 112.63 264.966C112.992 264.593 113.247 264.129 113.366 263.623C113.485 263.117 113.465 262.588 113.308 262.092C113.308 262.046 113.279 262 113.268 261.948C112.963 260.885 111.744 259.862 110.578 260.006H110.446C109.814 260.044 109.21 260.276 108.716 260.671C108.222 261.067 107.862 261.605 107.687 262.213C107.42 262.923 107.257 263.669 107.204 264.426C107.204 265.345 107.566 266.638 108.664 266.794V266.828Z" fill="#EDD6B4"/>
<path d="M115.912 272.668C115.368 273.187 114.903 273.784 114.532 274.438C114.267 274.935 114.134 275.492 114.148 276.055C114.162 276.618 114.322 277.168 114.613 277.651C115.057 278.368 115.768 278.88 116.589 279.074C117.41 279.268 118.275 279.129 118.993 278.685C119.466 278.394 119.854 277.982 120.118 277.493C120.383 277.004 120.514 276.454 120.499 275.898C120.485 275.142 120.359 274.392 120.125 273.674C119.7 271.834 117.125 271.328 115.912 272.668Z" fill="#EDD6B4"/>
<path d="M126.648 283.175C129.079 283.175 128.982 279.404 126.556 279.404C124.131 279.404 124.222 283.175 126.648 283.175Z" fill="#EDD6B4"/>
<path d="M223.795 16.8203C209.26 13.3515 194.339 11.7713 179.4 12.1188C175.216 12.2184 171.039 12.4713 166.87 12.8775C166.41 11.8774 164.933 12.751 165.382 13.7511C169.83 23.6541 178.452 31.4421 188.591 35.224C191.445 36.2792 194.411 37.0024 197.43 37.3793C197.563 37.3786 197.694 37.3474 197.813 37.2882C197.931 37.229 198.035 37.1434 198.115 37.038C198.196 36.9325 198.251 36.81 198.277 36.6799C198.303 36.5498 198.298 36.4154 198.264 36.2873C197.52 34.1306 196.591 32.0423 195.488 30.0454C200.266 33.0149 205.973 34.1141 211.512 33.1319C212.282 32.9939 212.294 31.9249 211.719 31.557C208.348 29.4308 205.355 26.758 202.862 23.6484C210.314 24.5354 217.832 22.667 224.002 18.3951C224.143 18.3062 224.257 18.1785 224.328 18.0271C224.399 17.8758 224.425 17.7072 224.404 17.5413C224.382 17.3755 224.313 17.2194 224.205 17.0915C224.097 16.9637 223.955 16.8696 223.795 16.8203Z" fill="#615C5C"/>
<path d="M118.274 153.314C120.355 154.377 122.401 155.51 124.499 156.533C126.597 157.556 128.712 158.401 130.856 159.246C135.207 160.97 139.65 162.447 144.144 163.717C153.21 166.235 162.484 167.931 171.854 168.787C181.128 169.689 190.462 169.821 199.758 169.183C209.169 168.541 218.508 167.113 227.68 164.913C236.745 162.742 245.594 159.754 254.12 155.987C255.269 155.481 256.355 154.923 257.459 154.366C259.304 153.435 257.907 150.279 255.959 151.038C251.671 152.716 247.389 154.412 243.027 155.883C238.664 157.355 234.227 158.659 229.761 159.792C220.975 162.039 212.025 163.588 202.994 164.424C193.802 165.284 184.558 165.438 175.342 164.884C166.266 164.309 157.245 163.066 148.351 161.165C143.84 160.217 139.356 159.142 134.925 157.872C130.494 156.602 126.183 155.038 121.757 153.849C120.659 153.523 119.579 153.139 118.521 152.699C118.159 152.567 117.946 153.153 118.274 153.32V153.314Z" fill="#38241E"/>
<path d="M202.782 12.2569C201.141 11.698 199.462 11.2582 197.758 10.9407C196.114 10.6706 194.459 10.4522 192.804 10.274C189.388 9.92543 185.953 9.79489 182.521 9.88316C175.619 10.0562 168.755 10.9696 162.048 12.6075C148.567 15.8645 135.887 21.8223 124.775 30.1204C119.322 34.1614 114.341 38.8041 109.928 43.9606C105.75 48.9035 102.416 54.4672 99.0078 59.9331C95.6972 65.2094 92.2831 70.5661 87.731 74.8768C85.5967 76.9268 83.16 78.6366 80.5062 79.9462C77.7876 81.2681 74.5804 81.9463 71.5514 82.5671C65.2634 83.8603 58.0961 85.1995 53.9923 90.6827C49.6299 96.5165 50.0437 106.241 56.7052 110.259C58.0828 111.151 59.558 111.882 61.1022 112.437C62.742 112.975 64.4644 113.216 66.1888 113.15C69.3903 113.001 72.9423 111.73 74.2872 108.552C74.6605 107.801 74.7649 106.944 74.5829 106.125C74.4009 105.306 73.9435 104.574 73.2872 104.052C71.7353 102.85 69.7581 103.224 68.1143 104.011C66.5501 104.857 65.1285 105.943 63.9013 107.23C62.5865 108.501 61.3864 109.886 60.3147 111.368C58.0984 114.337 56.5164 117.73 55.667 121.336C54.8177 124.942 54.7191 128.684 55.3775 132.33C56.6592 139.014 61.5735 144.974 67.643 147.923C70.7007 149.411 74.2298 150.32 77.6496 149.963C81.0695 149.607 85.1215 147.9 86.6159 144.687C87.8747 142.049 87.0872 138.123 84.1157 137.025C80.6671 135.755 77.276 139.054 75.3965 141.572C73.4654 144.21 72.1562 147.251 71.567 150.467C70.9777 153.683 71.1237 156.991 71.9939 160.142C72.86 163.458 74.4293 166.549 76.5952 169.204C78.7611 171.86 81.473 174.019 84.5468 175.534C91.0769 178.743 98.4837 179.707 105.618 178.276C113.13 176.845 119.883 172.821 125.447 167.666C126.723 166.489 127.938 165.25 129.091 163.947C130.315 162.579 131.344 161.073 132.476 159.648C132.796 159.295 132.967 158.832 132.956 158.356C132.944 157.88 132.75 157.427 132.413 157.09C132.065 156.763 131.602 156.586 131.124 156.598C130.646 156.61 130.193 156.809 129.861 157.153C128.751 158.483 127.571 159.753 126.326 160.958C125.108 162.2 123.836 163.386 122.51 164.516C120.008 166.619 117.298 168.462 114.423 170.017C111.518 171.6 108.413 172.785 105.192 173.54C104.836 173.62 104.485 173.695 104.129 173.764L103.554 173.873C103.066 173.959 103.353 173.902 103.462 173.873C102.623 173.994 101.778 174.086 100.933 174.143C99.3579 174.249 97.777 174.239 96.203 174.115L95.4845 174.051C95.588 174.051 95.8639 174.103 95.3811 174.051C94.8983 174 94.5822 173.942 94.1798 173.873C93.3867 173.747 92.5992 173.58 91.8175 173.39C91.0359 173.201 90.3462 172.994 89.6277 172.752L88.6104 172.396C87.8862 172.126 88.9782 172.563 88.2713 172.258L87.6103 171.976C84.8597 170.781 82.3685 169.061 80.2763 166.913C79.2811 165.931 78.4175 164.824 77.7071 163.619C76.9703 162.444 76.3742 161.186 75.9311 159.872C75.0351 157.221 74.6451 154.425 74.7815 151.63C74.7961 148.83 75.541 146.082 76.9427 143.658C77.6744 142.393 78.5907 141.244 79.6613 140.25C80.6671 139.33 82.4431 138.221 83.7996 139.1C84.2676 139.456 84.6155 139.946 84.7964 140.505C84.9773 141.064 84.9824 141.665 84.8112 142.227C84.4663 143.514 83.2766 144.446 82.104 144.969C80.7187 145.527 79.235 145.801 77.7416 145.773C76.4381 145.853 75.1298 145.775 73.8447 145.543C71.077 145.02 68.4764 143.837 66.2635 142.095C63.9699 140.32 62.1138 138.043 60.8378 135.439C60.7078 135.197 60.5926 134.948 60.4929 134.692C60.3435 134.336 60.2113 133.979 60.0848 133.617C59.8305 132.878 59.6213 132.123 59.4583 131.358C59.2944 130.661 59.1849 129.952 59.1307 129.237C59.0542 128.424 59.0235 127.606 59.0388 126.789C59.1368 123.725 59.8095 120.707 61.0217 117.892C62.2475 114.9 63.9648 112.133 66.1026 109.707C67.1372 108.558 68.2637 107.287 69.6489 106.552C70.3214 106.19 71.948 105.69 71.9939 106.937C72.0399 108.184 70.7697 109.236 69.8386 109.701C68.5268 110.312 67.0889 110.604 65.6428 110.552C62.8667 110.552 59.7572 109.535 57.9927 107.31C56.1358 105.047 55.1564 102.19 55.2338 99.2638C55.2821 97.8785 55.6047 96.5165 56.1828 95.2567C56.7609 93.9968 57.5832 92.8641 58.6019 91.9241C59.5507 91.0463 60.6188 90.3071 61.7746 89.7286C62.0965 89.5561 62.4241 89.3952 62.7575 89.2458C62.4988 89.3607 62.8322 89.217 62.8667 89.2055L63.4817 88.9526C64.1771 88.6768 64.8841 88.4296 65.5968 88.1997C68.5166 87.2744 71.4939 86.5789 74.4424 85.78C77.3663 85.0595 80.1975 84.0045 82.88 82.636C85.3803 81.2536 87.6845 79.5429 89.7312 77.5494C94.0016 73.4687 97.3525 68.5085 100.485 63.5253C103.617 58.5422 106.572 53.3521 110.107 48.5816C113.785 43.6875 118.01 39.2292 122.7 35.2932C132.477 27.1342 143.729 20.9276 155.846 17.0102C167.939 12.9489 180.721 11.3484 193.442 12.3029C194.936 12.4255 196.425 12.5922 197.908 12.8029C199.442 13.0156 200.988 13.1018 202.506 13.2972C202.637 13.3182 202.771 13.2892 202.881 13.216C202.992 13.1428 203.071 13.0307 203.103 12.902C203.134 12.7733 203.117 12.6373 203.053 12.521C202.989 12.4047 202.884 12.3166 202.759 12.2742L202.782 12.2569Z" fill="#38241E"/>
<path d="M199.327 13.0214C200.615 13.1536 201.891 13.4238 203.173 13.5445C204.454 13.6652 205.667 13.8376 206.903 14.0445C209.616 14.5034 212.302 15.1097 214.949 15.8608C220.629 17.477 226.155 19.5927 231.462 22.1831C242.412 27.4709 252.786 34.322 261.569 42.7594C265.697 46.6211 269.3 51.0097 272.282 55.8122C275.087 60.439 277.306 65.3934 280.064 70.049C282.726 74.5378 285.996 78.6703 290.41 81.5097C295.313 84.6536 301.107 85.5789 306.642 87.0273C309.262 87.717 311.814 88.4872 314.142 89.9011C316.271 91.1384 317.936 93.0377 318.884 95.3096C319.402 96.5882 319.671 97.9536 319.677 99.3329C319.707 100.667 319.479 101.994 319.005 103.241C318.549 104.459 317.857 105.574 316.97 106.524C316.082 107.474 315.016 108.239 313.832 108.776C312.712 109.295 311.52 109.642 310.297 109.805C308.958 109.95 307.606 109.921 306.274 109.719C305.659 109.667 305.065 109.471 304.54 109.148C304.015 108.824 303.573 108.382 303.25 107.857C302.779 107.098 302.762 106.063 303.877 105.983C305.164 105.891 306.435 106.96 307.326 107.742C308.495 108.764 309.558 109.902 310.498 111.138C312.353 113.507 313.8 116.168 314.78 119.013C316.579 124.415 316.614 130.663 314.131 135.543C312.937 137.932 311.251 140.041 309.183 141.732C307.116 143.423 304.714 144.657 302.135 145.354C300.91 145.68 299.644 145.829 298.376 145.796C298.037 145.796 297.704 145.796 297.365 145.75C297.325 145.75 296.945 145.716 297.256 145.75L296.807 145.687C296.028 145.574 295.259 145.398 294.508 145.158C293.307 144.782 292.228 144.089 291.387 143.152C291.081 142.81 290.866 142.397 290.759 141.951C290.653 141.504 290.659 141.038 290.778 140.595C290.817 140.417 290.879 140.245 290.962 140.083C291.018 139.973 291.079 139.865 291.146 139.761C291.065 139.888 291.554 139.279 291.301 139.537C291.048 139.796 291.439 139.44 291.537 139.376C291.636 139.298 291.744 139.233 291.859 139.181C292.179 139.049 292.525 138.992 292.87 139.014C294.365 139.066 295.744 140.399 296.669 141.457C298.371 143.436 299.556 145.805 300.118 148.354C300.749 150.899 300.774 153.557 300.193 156.113C299.532 158.815 298.899 161.177 297.468 163.585C294.658 168.269 289.646 171.517 284.49 173.069C278.975 174.693 273.104 174.657 267.609 172.965C266.198 172.554 264.819 172.041 263.483 171.431C262.074 170.793 260.695 170.086 259.361 169.316C256.679 167.771 254.157 165.963 251.832 163.919C250.656 162.888 249.521 161.813 248.429 160.694C247.356 159.664 246.335 158.58 245.372 157.447C245.107 157.053 244.703 156.774 244.241 156.668C243.779 156.561 243.293 156.634 242.883 156.872C242.124 157.343 241.687 158.596 242.308 159.361C243.429 160.792 244.441 162.28 245.642 163.648C246.843 165.016 247.987 166.218 249.246 167.413C251.83 169.874 254.686 172.034 257.758 173.85C263.748 177.421 270.649 179.168 277.616 178.879C284.341 178.523 291.031 176.19 296.06 171.626C300.658 167.442 303.63 161.229 303.532 154.958C303.548 151.977 303.028 149.018 301.997 146.222C300.905 143.46 299.222 140.971 297.066 138.928C295.807 137.738 294.1 136.681 292.336 136.549C291.539 136.5 290.744 136.663 290.031 137.02C289.317 137.377 288.711 137.917 288.272 138.583C286.352 141.319 287.077 145.216 289.743 147.325C295.1 151.555 303.135 150.429 308.711 147.239C311.528 145.63 313.966 143.434 315.86 140.8C317.754 138.166 319.06 135.156 319.689 131.973C320.919 125.151 318.901 118.179 315.091 112.512C313.234 109.704 310.941 107.21 308.297 105.126C307.015 104.144 305.423 103.27 303.733 103.402C302.944 103.458 302.195 103.772 301.602 104.297C301.01 104.822 300.607 105.528 300.457 106.305C299.951 109.512 303.193 112.052 305.814 113.098C309.033 114.386 312.849 113.869 315.947 112.443C319.022 111.055 321.467 108.569 322.804 105.471C324.165 102.237 324.368 98.6308 323.379 95.2636C321.43 88.8033 315.114 85.6939 309.056 84.0846C303.193 82.5327 297.02 81.9235 291.813 78.5439C287.215 75.5609 284.157 70.9226 281.53 66.2326C278.616 61.0598 276.03 55.6398 272.506 50.8061C268.767 45.8066 264.449 41.2671 259.643 37.282C254.543 32.9558 249.086 29.0681 243.331 25.6604C237.575 22.2349 231.532 19.3138 225.272 16.9298C219.534 14.6714 213.556 13.0804 207.455 12.188C206.115 12.0099 204.77 11.8662 203.431 11.7742C202.087 11.7339 200.742 11.7993 199.408 11.9696C199.278 11.9864 199.159 12.0508 199.074 12.1503C198.988 12.2499 198.943 12.3775 198.947 12.5085C198.95 12.6395 199.002 12.7645 199.093 12.8593C199.183 12.9541 199.306 13.0118 199.437 13.0214H199.327Z" fill="#38241E"/>
<path d="M109.681 44.7184C109.581 43.3163 109.358 41.9257 109.014 40.5629C108.75 39.1605 108.527 37.7523 108.347 36.3384C107.985 33.5451 107.658 30.7518 107.479 27.9355C107.106 22.1879 106.905 16.4921 107.979 10.8192C108.594 7.66946 109.446 4.57043 110.526 1.54842L110.256 1.70935C112.602 2.28093 114.89 3.06984 117.089 4.06585C119.297 5.06018 121.498 6.02002 123.619 7.20402C127.797 9.45045 131.732 12.1219 135.361 15.1759C137.432 16.9611 139.383 18.8811 141.201 20.9235C141.471 21.1789 141.83 21.3174 142.202 21.3088C142.573 21.3002 142.926 21.1452 143.184 20.8775C143.432 20.6044 143.566 20.246 143.558 19.8768C143.549 19.5076 143.399 19.1558 143.138 18.8946C136.637 11.314 128.097 5.75837 118.532 2.8876C115.847 2.17859 113.119 1.64107 110.365 1.27828C110.308 1.26578 110.248 1.27545 110.198 1.30534C110.148 1.33523 110.111 1.38309 110.095 1.43921C109.128 4.17886 108.331 6.97558 107.709 9.81342C107.089 12.647 106.456 15.4633 106.083 18.3428C105.622 21.1953 105.353 24.0756 105.278 26.9642C105.291 29.8692 105.53 32.769 105.991 35.6372C106.249 37.2695 106.629 38.8904 107.043 40.4939C107.359 42.0783 107.905 43.608 108.663 45.0345C108.735 45.1226 108.832 45.1875 108.94 45.2208C109.049 45.2542 109.165 45.2546 109.274 45.222C109.383 45.1894 109.48 45.1253 109.552 45.0377C109.624 44.9501 109.669 44.843 109.681 44.7299V44.7184Z" fill="#38241E"/>
<path d="M119.067 35.7122C119.139 35.1023 119.128 34.4855 119.033 33.8787C118.993 33.235 118.912 32.597 118.86 31.959C118.746 30.6313 118.688 29.2979 118.671 27.9357C118.654 26.5736 118.671 25.3551 118.78 24.0676C118.843 23.1135 118.78 22.0215 119.263 21.1536C119.838 20.0386 121.056 20.5041 121.947 20.9639C123.096 21.5387 124.246 22.2112 125.396 22.8376C126.545 23.4641 127.695 24.1079 128.879 24.7516L130.603 25.7172L131.592 26.2919C131.919 26.4758 132.436 26.654 132.615 27.0104C132.701 27.1525 132.824 27.2693 132.971 27.3489C133.117 27.4284 133.282 27.4681 133.448 27.4637C133.615 27.4594 133.778 27.4112 133.92 27.3241C134.062 27.237 134.178 27.114 134.258 26.9675C134.337 26.821 134.376 26.6561 134.372 26.4896C134.367 26.323 134.319 26.1606 134.231 26.0187C134.144 25.8768 134.021 25.7604 133.874 25.6812C133.728 25.6021 133.563 25.5629 133.396 25.5677C132.89 25.6137 132.195 25.0332 131.77 24.7976L130.045 23.832C129.011 23.2572 127.97 22.6825 126.947 22.1077L123.884 20.3489C122.974 19.7218 121.966 19.2516 120.901 18.958C118.987 18.6074 117.751 20.0213 117.452 21.7743C117.073 23.8779 117.257 26.154 117.401 28.2748C117.489 29.5623 117.625 30.8478 117.809 32.1315C117.895 32.7637 117.987 33.4074 118.136 34.0339C118.232 34.6363 118.426 35.2188 118.711 35.7582C118.733 35.793 118.766 35.8206 118.804 35.8374C118.841 35.8543 118.883 35.8597 118.924 35.8529C118.965 35.8462 119.003 35.8277 119.034 35.7996C119.064 35.7715 119.086 35.7352 119.096 35.6949L119.067 35.7122Z" fill="#38241E"/>
<path d="M242.36 26.0969C247.407 19.9125 253.074 14.3489 259.994 10.2853C260.965 9.71056 261.96 9.17029 262.965 8.65876C263.971 8.14723 264.874 7.31958 265.908 6.7908L264.73 6.6701C268.592 10.9635 270.909 16.5387 272.093 22.154C273.31 27.7453 273.249 33.5392 271.915 39.1036C271.124 42.2315 269.856 45.2189 268.156 47.9606C267.132 49.5929 269.989 51.1275 270.753 49.3918C272.05 46.5992 273.031 43.6709 273.679 40.6612C274.306 37.7602 274.679 34.8101 274.794 31.8444C274.934 25.8086 273.758 19.8146 271.346 14.2799C269.952 11.185 268.244 8.24204 266.247 5.4976C266.133 5.3171 265.963 5.17864 265.763 5.10299C265.563 5.02735 265.343 5.01859 265.138 5.07803C264.161 5.44587 263.109 5.55507 262.149 6.01488C261.189 6.47469 260.293 6.99771 259.385 7.52649C257.601 8.56797 255.874 9.70377 254.212 10.929C250.859 13.3981 247.776 16.2147 245.015 19.332C243.473 21.1166 242.099 23.0408 240.912 25.0796C240.389 25.9589 241.716 26.9763 242.389 26.1544L242.36 26.0969Z" fill="#38241E"/>
<path d="M252.28 31.4477C253.136 30.6438 253.935 29.7815 254.671 28.8671C255.47 27.9992 256.315 27.1428 257.177 26.3497C257.983 25.5232 258.873 24.7834 259.833 24.1426C260.189 23.8958 260.612 23.7635 261.046 23.7632C261.356 23.8145 261.672 23.8145 261.982 23.7632C262.132 23.7228 262.277 23.6649 262.413 23.5908C262.574 23.5065 262.528 23.518 262.276 23.6253L261.701 23.4126C262.643 24.1196 262.85 25.3841 263.017 26.4818C263.271 28.0015 263.404 29.5391 263.414 31.0799C263.442 33.9882 263.212 37.2528 261.896 39.8967C261.275 41.1439 263.391 41.7991 263.574 40.5519C263.937 38.1264 264.523 35.7527 264.695 33.2985C264.871 30.8936 264.763 28.4764 264.373 26.0968C264.251 25.1196 263.961 24.1709 263.517 23.2919C263.415 23.0903 263.296 22.898 263.161 22.7172C263.111 22.637 263.051 22.5636 262.982 22.4988C262.776 22.3953 262.982 22.6712 262.982 22.585C262.95 22.2656 262.823 21.963 262.618 21.7155C262.414 21.468 262.14 21.2866 261.833 21.1941C259.43 20.3779 257.2 22.9643 255.804 24.5334C254.932 25.512 254.126 26.5469 253.39 27.6314C252.59 28.6687 251.974 29.835 251.568 31.0799C251.549 31.1657 251.558 31.2553 251.594 31.3354C251.63 31.4155 251.691 31.4818 251.768 31.5244C251.845 31.5671 251.934 31.5837 252.021 31.572C252.108 31.5602 252.189 31.5207 252.252 31.4592L252.28 31.4477Z" fill="#38241E"/>
<path d="M166.376 17.1248C167.074 19.7249 168.137 22.2133 169.531 24.5162C171.89 28.0815 174.99 31.0956 178.621 33.3523C182.252 35.609 186.327 37.0552 190.568 37.5919C193.786 37.9598 197.31 38.0057 200.408 36.9539C200.487 36.9281 200.555 36.8747 200.598 36.8035C200.642 36.7322 200.658 36.6478 200.645 36.5653C200.632 36.4828 200.59 36.4078 200.526 36.3536C200.463 36.2995 200.382 36.2698 200.298 36.27C197.488 36.132 194.729 36.132 191.947 35.6205C189.218 35.1207 186.553 34.3148 184.004 33.218C179.29 31.0975 175.124 27.9263 171.825 23.9472C169.902 21.809 168.249 19.4424 166.905 16.9007C166.755 16.6018 166.278 16.8317 166.376 17.1363V17.1248Z" fill="#38241E"/>
<path d="M200.707 36.4944C199.81 35.1667 198.868 33.8677 198.069 32.4711C197.291 31.156 196.405 29.9082 195.419 28.7409C193.473 26.3213 191.119 24.2596 188.464 22.6485C188.378 22.6081 188.282 22.5928 188.188 22.6043C188.093 22.6159 188.004 22.6539 187.93 22.7139C187.857 22.7739 187.801 22.8536 187.771 22.9437C187.74 23.0338 187.735 23.1307 187.757 23.2232C189.076 26.7287 191.447 29.7402 194.545 31.8446C198.132 34.3793 202.558 35.3678 206.874 35.6207C208.214 35.6903 209.557 35.6903 210.897 35.6207C212.208 35.5575 214.013 35.7127 215.041 34.8046C215.881 34.0746 215.082 32.8734 214.162 32.8217C213.346 32.7757 212.535 31.4767 212.012 30.9077C211.84 30.7181 211.57 31.0054 211.737 31.2009C212.363 31.8526 212.93 32.5584 213.432 33.3102C213.432 33.1953 213.432 33.0861 213.432 32.9711L213.173 33.4252L214.771 32.9654C214.047 32.5803 213.352 32.7412 212.576 32.8332C211.8 32.9251 211.156 32.9826 210.443 33.0401C209.024 33.1493 207.598 33.2068 206.179 33.1895C203.499 33.1593 200.837 32.7431 198.276 31.9538C193.994 30.6376 189.982 27.3557 188.746 22.9474L188.022 23.5221C190.464 25.2874 192.691 27.3342 194.655 29.6203C195.626 30.7296 196.563 31.8676 197.563 32.9539C198.601 34.1472 199.561 35.4067 200.437 36.7243C200.575 36.9197 200.902 36.7243 200.759 36.5231L200.707 36.4944Z" fill="#38241E"/>
<path d="M214.972 32.9938C214.637 32.4856 214.186 32.0641 213.656 31.7638C213.145 31.3959 212.633 31.0453 212.099 30.712C210.92 29.982 209.765 29.2291 208.621 28.4474C206.38 26.9128 204.23 25.2633 202.069 23.6137L201.299 25.6254C202.477 25.5219 203.69 25.6886 204.874 25.6656C206.058 25.6426 207.265 25.6139 208.46 25.5162C210.907 25.3203 213.332 24.9243 215.714 24.3322C218.053 23.7368 220.336 22.9387 222.536 21.9469C224.801 20.9844 226.95 19.7718 228.945 18.3317C229.338 18.0736 229.617 17.6743 229.724 17.2165C229.831 16.7587 229.758 16.2773 229.52 15.8718C229.269 15.4724 228.87 15.188 228.411 15.0805C227.951 14.9729 227.468 15.0507 227.066 15.297C225.258 16.735 223.349 18.0393 221.352 19.1996C219.364 20.3017 217.274 21.2083 215.11 21.9067C212.932 22.6244 210.687 23.1193 208.409 23.3838C207.298 23.515 206.181 23.5802 205.064 23.5792C203.886 23.6396 202.706 23.5489 201.552 23.3091C200.483 23.016 199.523 24.5563 200.465 25.2863C202.706 26.9844 205.039 28.5559 207.455 29.9935C208.639 30.7005 209.834 31.3902 211.047 32.0454C211.673 32.3961 212.318 32.7127 212.978 32.9938C213.515 33.2888 214.118 33.4412 214.731 33.4363C214.782 33.4345 214.831 33.4194 214.875 33.3927C214.918 33.3659 214.953 33.3284 214.978 33.2838C215.002 33.2391 215.014 33.1889 215.013 33.1381C215.013 33.0872 214.998 33.0375 214.972 32.9938Z" fill="#38241E"/>
<path d="M153.191 87.5553V87.5209L153.766 88.7451V88.6704C153.302 87.3383 152.389 86.2087 151.185 85.4747L149.869 84.9575C148.921 84.7263 147.929 84.7521 146.995 85.0322C146.494 85.1619 146.02 85.382 145.598 85.6816C144.81 86.1634 144.162 86.8431 143.719 87.6531C143.35 88.2577 143.151 88.9508 143.144 89.659C143.002 90.3718 143.051 91.1096 143.288 91.7971C143.558 92.6867 144.055 93.4908 144.73 94.1306L144.793 94.1823L145.914 95.0042C146.349 95.2174 146.801 95.3943 147.265 95.533C147.973 95.7386 148.723 95.7525 149.438 95.5732C150.156 95.5252 150.849 95.285 151.444 94.8777L152.524 93.9984C153.178 93.3175 153.641 92.4772 153.869 91.5614V91.4982L152.593 93.7972L152.628 93.757L153.404 92.6994C153.762 92.1241 153.961 91.4633 153.978 90.7855C154.088 90.3364 154.076 89.8663 153.944 89.4233C153.896 88.7479 153.67 88.0973 153.289 87.5381L153.191 87.5553Z" fill="#38241E"/>
<path d="M227.347 92.4867C233.445 92.4867 233.209 83.0146 227.111 83.0146C221.013 83.0146 221.248 92.4867 227.347 92.4867Z" fill="#38241E"/>
<path d="M195.229 85.6759C193.847 85.5207 192.486 85.2123 191.171 84.7563C189.957 84.3753 188.71 84.1079 187.447 83.9574C185.223 83.739 182.947 84.3252 181.59 86.2104C180.441 87.7967 180.326 90.1015 181.877 91.4694C182.231 91.8152 182.65 92.0862 183.11 92.2663C183.571 92.4464 184.063 92.5319 184.557 92.5177C185.051 92.5034 185.537 92.3897 185.986 92.1834C186.435 91.9771 186.838 91.6823 187.171 91.3167C187.504 90.9512 187.759 90.5223 187.923 90.0557C188.086 89.5891 188.154 89.0945 188.121 88.6012C188.089 88.1079 187.958 87.6262 187.735 87.1848C187.513 86.7434 187.204 86.3514 186.826 86.0322C186.732 85.9453 186.62 85.8806 186.498 85.843C186.375 85.8055 186.246 85.796 186.12 85.8154C185.993 85.8347 185.873 85.8823 185.767 85.9547C185.661 86.0271 185.574 86.1223 185.51 86.2334C184.148 88.7853 185.631 92.5557 188.665 92.958C191.7 93.3603 194.212 89.7796 192.746 87.0955C192.675 86.9804 192.575 86.8859 192.455 86.8215C192.336 86.7572 192.202 86.7251 192.067 86.7286C191.931 86.7321 191.799 86.771 191.683 86.8414C191.568 86.9118 191.472 87.0113 191.407 87.13C190.378 89.4808 192.798 92.5729 195.373 91.5211C197.523 90.6418 197.919 87.3771 196.12 85.9575C196.035 85.8783 195.935 85.818 195.825 85.7805C195.715 85.743 195.598 85.7293 195.483 85.7401C195.367 85.751 195.255 85.7862 195.154 85.8434C195.053 85.9007 194.965 85.9787 194.897 86.0723C194.828 86.1659 194.78 86.273 194.756 86.3865C194.731 86.5 194.731 86.6174 194.756 86.7309C194.78 86.8444 194.828 86.9514 194.897 87.045C194.966 87.1386 195.054 87.2165 195.155 87.2737C196.068 87.8485 195.81 89.5267 194.936 90.021C193.787 90.682 192.263 89.0324 192.769 87.8772L191.424 87.9117C192.315 89.5382 190.453 91.7913 188.694 91.3602C186.935 90.9291 186.142 88.5497 186.97 87.0323L185.654 87.2335C186.751 88.245 186.401 90.4176 184.803 90.682C184.438 90.7448 184.063 90.7046 183.72 90.5658C183.377 90.4271 183.08 90.1954 182.861 89.8968C182.642 89.5982 182.511 89.2445 182.483 88.8755C182.454 88.5065 182.529 88.1369 182.699 87.8082C183.596 85.7793 185.981 85.446 187.958 85.6242C189.143 85.7334 190.304 86.0207 191.47 86.1989C192.712 86.4276 193.981 86.4702 195.235 86.3253C195.323 86.3253 195.408 86.2902 195.471 86.2277C195.533 86.1652 195.568 86.0804 195.568 85.992C195.568 85.9036 195.533 85.8188 195.471 85.7563C195.408 85.6938 195.323 85.6586 195.235 85.6586L195.229 85.6759Z" fill="#38241E"/>
<path d="M189.528 91.5047C189.083 92.0662 188.784 92.73 188.66 93.4359C188.424 94.2692 188.223 95.1141 188.034 95.959C187.671 97.6028 187.401 99.2696 187.194 100.942C186.987 102.615 186.838 104.184 186.786 105.816C186.735 107.448 186.556 109.351 186.941 110.989C187.137 111.811 188.551 111.822 188.666 110.943C188.873 109.351 188.666 107.667 188.666 106.052C188.666 104.437 188.758 102.776 188.896 101.143C189.034 99.511 189.246 97.9362 189.47 96.3384C189.597 95.528 189.746 94.7176 189.896 93.9071C190.117 93.1776 190.174 92.4082 190.062 91.6541C190.046 91.5962 190.014 91.5438 189.971 91.5021C189.928 91.4605 189.874 91.4311 189.815 91.4171C189.757 91.403 189.696 91.4048 189.638 91.4222C189.581 91.4396 189.529 91.4721 189.488 91.5162L189.528 91.5047Z" fill="#38241E"/>
<path d="M178.291 97.3668C176.888 99.482 177.141 102.649 177.877 104.942C178.703 107.432 180.388 109.547 182.63 110.908C187.366 113.742 193.781 112.822 197.31 108.529C199.183 106.23 200.528 103.005 199.827 100.034C199.597 99.0394 198.275 99.459 198.195 100.292C197.976 102.591 197.563 104.747 196.195 106.661C194.89 108.509 192.957 109.821 190.757 110.351C188.574 110.863 186.281 110.602 184.269 109.612C182.257 108.623 180.65 106.966 179.722 104.925C179.232 103.777 178.93 102.559 178.825 101.315C178.781 100.057 178.846 98.7976 179.021 97.5508C179.055 97.1255 178.481 97.0795 178.291 97.3668Z" fill="#38241E"/>
<path d="M213.955 100.534C224.146 98.0161 234.463 96.1654 244.843 94.602C255.223 93.0387 265.506 91.9352 275.88 91.2742C286.255 90.6132 296.71 90.3948 307.125 90.6305C317.539 90.8661 327.914 91.5501 338.248 92.7053C348.582 93.8606 358.905 95.4527 369.119 97.5161L372.97 98.3035C374.039 98.5219 374.458 96.8781 373.378 96.6424C363.153 94.4239 352.778 92.7973 342.392 91.5673C332.006 90.3373 321.499 89.5787 311.016 89.2683C300.532 88.9579 290.071 89.1303 279.622 89.7568C269.173 90.3833 258.638 91.4811 248.234 93.0732C237.935 94.6423 227.778 96.8321 217.657 99.2748C216.381 99.5775 215.111 99.8917 213.846 100.217C213.645 100.269 213.737 100.574 213.938 100.528L213.955 100.534Z" fill="#38241E"/>
<path d="M211.794 110.213C221.973 109.149 232.21 108.442 242.429 107.914C252.648 107.385 262.919 107.189 273.162 107.247C283.404 107.304 293.663 107.661 303.889 108.304C314.114 108.948 324.396 109.902 334.604 111.144C344.812 112.385 354.91 113.914 364.992 115.742C366.245 115.966 367.498 116.202 368.751 116.437C369.825 116.638 370.245 114.983 369.164 114.782C359.029 112.908 348.852 111.33 338.633 110.046C328.414 108.762 318.194 107.793 307.975 107.138C297.752 106.463 287.513 106.08 277.26 105.988C267.006 105.896 256.714 106.157 246.383 106.77C236.095 107.345 225.824 108.218 215.593 109.488C214.329 109.644 213.059 109.793 211.794 109.954C211.633 109.954 211.633 110.23 211.794 110.213Z" fill="#38241E"/>
<path d="M165.054 105.683C156.567 102.029 147.803 99.0558 138.845 96.7919C129.873 94.5085 120.752 92.8568 111.549 91.849C93.1404 89.8159 74.5404 90.3013 56.2627 93.2917C47.079 94.7846 38.0104 96.9144 29.1223 99.6657C28.0302 100.007 26.9382 100.357 25.8461 100.718C24.892 101.034 25.3403 102.545 26.3002 102.218C35.023 99.2444 43.9469 96.8973 53.0037 95.1941C62.0496 93.5143 71.2004 92.46 80.3913 92.0387C98.819 91.185 117.277 92.8421 135.258 96.9644C144.224 99.0451 153.053 101.673 161.697 104.833C162.774 105.216 163.845 105.614 164.91 106.028C165.094 106.097 165.221 105.781 165.037 105.706L165.054 105.683Z" fill="#38241E"/>
<path d="M160.382 112.633C151.542 112.418 142.7 112.463 133.856 112.765C125.039 113.058 116.222 113.599 107.457 114.668C91.7031 116.593 76.0522 120.162 61.4762 126.617C53.5242 130.09 46.0475 134.563 39.2271 139.928C38.6523 140.377 39.2271 141.348 39.8019 140.9C52.1478 131.703 66.3675 125.329 81.1446 121.208C97.2898 116.714 114.044 114.921 130.741 114.11C140.604 113.633 150.478 113.535 160.347 113.127C160.413 113.127 160.476 113.101 160.522 113.055C160.568 113.009 160.594 112.946 160.594 112.88C160.594 112.815 160.568 112.752 160.522 112.705C160.476 112.659 160.413 112.633 160.347 112.633H160.382Z" fill="#38241E"/>
<path d="M158.829 121.622C149.769 121.61 140.722 122.341 131.781 123.806C122.848 125.192 114.015 127.166 105.342 129.714C96.6867 132.262 88.2047 135.364 79.9487 139.002C71.6747 142.644 63.6474 146.822 55.9178 151.509C48.1763 156.208 40.7603 161.423 33.7204 167.119C32.864 167.815 31.9961 168.522 31.1627 169.229C30.4845 169.804 31.4788 170.723 32.1513 170.171C39.0492 164.449 46.3144 159.184 53.9004 154.412C76.7704 140.055 102.192 130.237 128.775 125.496C137.608 123.921 146.53 122.898 155.49 122.432C156.639 122.375 157.743 122.288 158.87 122.225C158.942 122.215 159.009 122.179 159.058 122.124C159.106 122.068 159.132 121.997 159.132 121.923C159.132 121.85 159.106 121.779 159.058 121.723C159.009 121.668 158.942 121.632 158.87 121.622H158.829Z" fill="#38241E"/>
<path d="M210.271 122.225C219.238 122.677 228.175 123.589 237.049 124.955C245.915 126.392 254.681 128.393 263.293 130.944C280.518 136.053 297.014 143.355 312.377 152.67C320.041 157.313 327.39 162.455 334.379 168.062C335.259 168.763 336.104 169.482 337 170.2C337.673 170.775 338.621 169.775 337.943 169.212C331.005 163.416 323.685 158.093 316.033 153.279C308.363 148.452 300.383 144.136 292.146 140.359C283.963 136.606 275.549 133.381 266.954 130.703C258.302 128.003 249.482 125.879 240.549 124.346C231.653 122.817 222.661 121.915 213.639 121.645C212.489 121.61 211.386 121.645 210.259 121.645C209.868 121.645 209.891 122.219 210.259 122.248L210.271 122.225Z" fill="#38241E"/>
<path d="M231.227 88.9189C231.267 88.9115 231.303 88.8905 231.329 88.8594C231.354 88.8283 231.369 88.7892 231.369 88.7488C231.369 88.7083 231.354 88.6692 231.329 88.6381C231.303 88.607 231.267 88.586 231.227 88.5786C231.187 88.586 231.151 88.607 231.125 88.6381C231.1 88.6692 231.085 88.7083 231.085 88.7488C231.085 88.7892 231.1 88.8283 231.125 88.8594C231.151 88.8905 231.187 88.9115 231.227 88.9189Z" fill="#EDD6B4"/>
<path d="M231.773 90.4694C232.214 90.4643 232.644 90.3246 233.005 90.0689C233.365 89.8132 233.639 89.4536 233.79 89.0382C233.923 88.7694 233.981 88.4694 233.957 88.1703L233.865 87.5956C233.754 87.222 233.546 86.8847 233.261 86.6185L232.801 86.2794C232.45 86.0852 232.053 85.988 231.652 85.9977C231.353 85.9931 231.058 86.0664 230.795 86.2104C230.52 86.3066 230.274 86.473 230.083 86.6932C229.873 86.8965 229.719 87.1497 229.634 87.4289C229.502 87.6983 229.443 87.9974 229.462 88.2968L229.56 88.8715C229.673 89.2438 229.881 89.5804 230.163 89.8486L230.623 90.1877C230.975 90.3801 231.372 90.4753 231.773 90.4636V90.4694Z" fill="#EDD6B4"/>
<path d="M142.156 89.4639L142.075 89.5387L141.811 89.9008L141.644 90.3203C141.581 90.5498 141.581 90.7921 141.644 91.0215C141.65 91.176 141.696 91.3265 141.776 91.4583C141.821 91.6032 141.902 91.7339 142.012 91.8377C142.091 91.9671 142.202 92.074 142.334 92.148C142.443 92.2528 142.578 92.3263 142.725 92.3607C142.935 92.4649 143.169 92.5106 143.403 92.4929L143.869 92.4239L144.282 92.2342L144.627 91.9526L144.892 91.5905L145.058 91.171C145.121 90.9415 145.121 90.6992 145.058 90.4698C145.052 90.3152 145.007 90.1648 144.926 90.0329C144.855 89.8116 144.726 89.6132 144.553 89.4582L144.478 89.395C144.332 89.2375 144.145 89.124 143.938 89.0674C143.742 88.9681 143.524 88.9244 143.305 88.9409L142.869 89.0099C142.598 89.0926 142.352 89.2429 142.156 89.4467V89.4639Z" fill="#EDD6B4"/>
<path d="M136.097 162.315C132.437 163.33 128.886 164.706 125.499 166.424C122.134 168.132 118.871 170.033 115.728 172.12C109.338 176.28 103.345 181.019 97.8237 186.277C92.5244 191.288 86.84 196.99 84.9145 204.243C83.0753 211.14 86.2135 218.4 91.099 223.302C94.0251 226.111 97.4345 228.368 101.163 229.964C105.171 231.712 109.306 233.153 113.532 234.274L112.957 232.286C109.915 236.267 107.908 240.942 107.118 245.89C106.951 246.936 108.204 247.821 109.02 246.936C111.836 243.93 114.762 241.057 117.532 237.999C118.458 236.987 117.182 235.28 115.981 236.091C112.239 238.608 110.543 243.735 112.291 247.948C112.341 248.119 112.43 248.277 112.552 248.407C112.674 248.538 112.824 248.639 112.992 248.701C113.159 248.764 113.339 248.786 113.516 248.767C113.694 248.748 113.865 248.688 114.015 248.592C117.998 246.166 120.988 242.403 122.452 237.976C122.837 236.717 121.153 235.941 120.303 236.792C118.759 238.352 117.631 240.274 117.022 242.383C116.414 244.491 116.344 246.719 116.82 248.862C116.877 249.043 116.974 249.209 117.105 249.347C117.235 249.485 117.395 249.591 117.573 249.658C117.751 249.725 117.941 249.751 118.13 249.733C118.32 249.716 118.502 249.656 118.665 249.557C120.812 248.15 122.645 246.314 124.048 244.165C125.451 242.015 126.395 239.598 126.818 237.066C127.242 234.534 127.137 231.942 126.511 229.453C125.884 226.963 124.749 224.631 123.177 222.601C122.345 221.472 121.393 220.437 120.337 219.515C119.247 218.5 118.028 217.634 116.71 216.94L116.791 220.112L122.539 217.095C124.47 216.078 126.453 215.187 128.441 214.29C129.436 213.836 129.625 212.342 129.097 211.491C128.809 211.039 128.356 210.717 127.834 210.593C127.313 210.47 126.763 210.555 126.303 210.83C124.43 211.928 122.573 213.031 120.642 214.02L114.842 216.986C113.635 217.601 113.727 219.589 114.923 220.158C115.968 220.589 116.973 221.108 117.929 221.71C118.761 222.313 119.531 222.997 120.228 223.751C121.705 225.288 122.834 227.124 123.539 229.136C124.25 231.22 124.515 233.431 124.317 235.624C124.119 237.817 123.462 239.944 122.389 241.867C121.172 244.102 119.438 246.014 117.331 247.442L119.176 248.138C118.773 246.419 118.832 244.624 119.348 242.936C119.864 241.248 120.818 239.727 122.113 238.528L119.964 237.344C118.703 241.168 116.166 244.443 112.779 246.62L114.503 247.264C113.874 245.657 113.808 243.885 114.315 242.236C114.822 240.587 115.873 239.158 117.297 238.183L115.751 236.275C112.923 239.258 110.239 242.378 107.428 245.373L109.33 246.425C110.071 241.877 111.923 237.583 114.722 233.924C114.861 233.77 114.958 233.584 115.005 233.382C115.051 233.181 115.045 232.971 114.988 232.772C114.93 232.573 114.823 232.392 114.676 232.247C114.528 232.102 114.346 231.996 114.147 231.941C107.25 229.958 99.9101 228.303 94.3061 223.509C91.9266 221.469 89.6678 218.859 88.4895 215.917C87.349 212.969 87.2097 209.727 88.093 206.692C88.9034 203.6 90.8921 200.519 92.7428 198.134C94.9719 195.363 97.3735 192.735 99.9331 190.265C104.963 185.245 110.404 180.654 116.199 176.54C119.458 174.207 122.814 172.011 126.275 169.988C128.039 168.959 129.723 167.833 131.493 166.792C133.264 165.752 135.005 164.758 136.712 163.643C136.856 163.546 136.961 163.403 137.01 163.237C137.059 163.071 137.048 162.894 136.98 162.735C136.912 162.576 136.791 162.446 136.637 162.367C136.483 162.288 136.306 162.266 136.137 162.303L136.097 162.315Z" fill="#38241E"/>
<path d="M168.508 291.216C169.794 291.774 171.127 292.218 172.491 292.543C173.848 292.94 175.216 293.336 176.595 293.658C179.341 294.318 182.121 294.827 184.923 295.181C190.667 295.89 196.465 296.065 202.241 295.704C205.529 295.391 208.793 294.863 212.012 294.124C213.943 293.733 213.42 290.555 211.437 290.675C208.655 290.876 205.874 290.813 203.086 290.951C200.298 291.089 197.505 291.158 194.712 291.193C189.2 291.262 183.659 290.997 178.158 290.583C176.63 290.468 175.095 290.348 173.56 290.204C172.004 289.963 170.437 289.802 168.864 289.721C168.695 289.731 168.534 289.795 168.404 289.903C168.274 290.012 168.182 290.159 168.141 290.323C168.101 290.488 168.114 290.661 168.179 290.817C168.244 290.974 168.357 291.105 168.502 291.193L168.508 291.216Z" fill="#38241E"/>
<path d="M238.474 162.235C238.905 162.913 239.308 163.62 239.75 164.281C240.193 164.942 240.842 165.718 241.371 166.43C242.367 167.764 243.354 169.105 244.331 170.454C246.308 173.178 248.263 175.931 250.165 178.707C253.981 184.276 257.677 189.926 261.384 195.565C263.459 198.732 265.408 202.002 267.707 204.996C267.856 205.224 268.053 205.415 268.285 205.557C268.517 205.699 268.778 205.787 269.048 205.815C269.318 205.843 269.592 205.81 269.848 205.719C270.104 205.629 270.337 205.482 270.529 205.29C272.345 203.565 274.506 202.123 276.489 200.582C278.472 199.042 280.576 197.415 282.628 195.846C286.743 192.72 290.855 189.589 294.962 186.455C295.322 186.208 295.578 185.836 295.679 185.411C295.78 184.986 295.719 184.538 295.508 184.156C294.243 181.307 293.962 178.118 294.709 175.092L291.939 175.896C294.622 178.304 296.76 181.257 298.21 184.558C298.277 184.765 298.389 184.953 298.539 185.11C298.689 185.267 298.872 185.389 299.075 185.465C299.278 185.542 299.496 185.572 299.712 185.553C299.929 185.535 300.138 185.468 300.325 185.357C305.193 182.334 311.458 182.041 316.774 184.018L316.705 181.236C312.458 182.926 308.291 184.851 304.02 186.478C303.72 186.585 303.472 186.803 303.328 187.088C303.185 187.373 303.156 187.702 303.248 188.007C303.341 188.312 303.547 188.57 303.825 188.728C304.102 188.885 304.43 188.929 304.739 188.852C308.999 187.793 313.502 188.411 317.32 190.576C317.407 189.742 317.493 188.909 317.585 188.076L311.01 189.742C308.82 190.317 306.687 191.059 304.48 191.541L305.181 193.875C308.699 192.766 313.05 194.013 315.315 196.979L317.004 194.68C311.696 193.645 306.194 194.365 301.331 196.731C298.904 197.85 296.644 199.301 294.617 201.042C292.499 202.946 290.706 205.185 289.312 207.669C286.438 212.664 284.823 218.308 281.748 223.187C281.398 223.762 281.024 224.308 280.633 224.849C280.765 224.665 280.363 225.199 280.283 225.297C280.053 225.584 279.823 225.872 279.581 226.142C279.15 226.636 278.696 227.113 278.225 227.561C278.012 227.763 277.8 227.952 277.581 228.136C277.076 228.602 277.742 228.021 277.426 228.274L277.001 228.602C276.484 228.985 275.942 229.334 275.38 229.648C275.133 229.791 274.874 229.918 274.616 230.044C274.001 230.349 274.817 229.97 274.443 230.125L273.834 230.36C273.198 230.589 272.547 230.771 271.885 230.906L271.42 230.993C271.753 230.941 271.259 230.993 271.178 230.993C270.788 231.039 270.397 231.062 270.029 231.073C269.661 231.085 269.241 231.073 268.851 231.073L268.276 231.033C267.908 231.004 268.276 231.033 268.046 231.033C267.217 230.916 266.395 230.749 265.586 230.533C264.101 230.136 262.662 229.585 261.292 228.889C258.21 227.318 255.263 225.493 252.481 223.435C251.516 222.745 249.912 223.314 249.412 224.32C249.135 224.846 249.072 225.459 249.237 226.03C249.402 226.601 249.782 227.086 250.297 227.383C255.223 230.878 260.746 234.481 266.856 235.315C269.889 235.8 272.998 235.44 275.84 234.275C278.492 233.091 280.835 231.311 282.685 229.073C286.415 224.647 288.375 219.227 290.577 213.957C291.677 211.125 293.092 208.426 294.795 205.91C296.244 203.946 298.01 202.237 300.02 200.852C304.618 197.674 310.843 196.668 316.292 197.68C316.587 197.75 316.896 197.734 317.182 197.632C317.468 197.53 317.717 197.347 317.901 197.105C318.087 196.859 318.193 196.563 318.208 196.255C318.222 195.948 318.143 195.643 317.981 195.381C316.437 193.392 314.297 191.949 311.874 191.263C309.451 190.578 306.872 190.685 304.515 191.57C303.072 192.145 303.687 194.346 305.216 193.904C307.389 193.271 309.636 192.927 311.831 192.375L318.407 190.719C319.556 190.421 319.654 188.777 318.671 188.214C316.476 186.959 314.05 186.16 311.539 185.864C309.027 185.567 306.482 185.78 304.055 186.489L304.773 188.863C308.992 187.139 313.332 185.679 317.573 184.006C317.866 183.906 318.12 183.715 318.297 183.46C318.474 183.206 318.566 182.902 318.559 182.592C318.552 182.282 318.447 181.983 318.258 181.737C318.069 181.491 317.808 181.312 317.51 181.224C311.354 178.925 304.549 179.788 298.859 182.949L300.974 183.748C299.562 179.858 297.268 176.349 294.272 173.494C294.059 173.298 293.799 173.161 293.517 173.095C293.236 173.03 292.942 173.037 292.664 173.118C292.386 173.199 292.134 173.35 291.931 173.557C291.729 173.764 291.583 174.019 291.508 174.299C290.5 178.194 290.907 182.32 292.657 185.943C292.841 185.173 293.025 184.397 293.203 183.644C289.065 186.821 284.933 190.005 280.806 193.197C278.76 194.772 276.696 196.329 274.639 197.887C272.581 199.444 270.523 201.226 268.316 202.588L270.782 203.163C269.189 200.129 267.395 197.205 265.414 194.409C263.563 191.631 261.647 188.896 259.666 186.202C255.643 180.678 251.349 175.339 247.021 170.068C245.826 168.62 244.617 167.176 243.394 165.735C242.785 165.016 242.17 164.304 241.555 163.585C240.94 162.867 240.17 162.189 239.463 161.505C239.35 161.407 239.207 161.352 239.058 161.35C238.909 161.347 238.764 161.398 238.649 161.492C238.533 161.586 238.455 161.718 238.427 161.864C238.399 162.011 238.424 162.162 238.497 162.292L238.474 162.235Z" fill="#38241E"/>
<path d="M238.192 174.471C238.316 175.945 238.607 177.401 239.06 178.81C239.52 180.172 239.951 181.546 240.365 182.926C241.204 185.736 242.003 188.558 242.664 191.409C244.009 196.975 245.036 202.613 245.739 208.295C247.099 219.971 247.315 231.753 246.382 243.471C245.424 255.304 243.556 267.047 240.796 278.594C237.934 290.572 234.403 302.381 230.22 313.965C226.105 325.535 221.53 336.955 216.839 348.283C216.236 349.743 215.655 351.209 215.115 352.703C214.379 354.772 217.748 356.083 218.696 354.112C221.374 348.542 223.535 342.685 225.835 336.949C228.187 331.079 230.467 325.182 232.674 319.258C236.991 307.608 240.934 295.785 244.135 283.773C247.332 271.944 249.571 259.877 250.831 247.689C252.079 235.879 252.054 223.969 250.756 212.163C249.377 200.392 246.704 188.828 242.187 177.85C241.6 176.45 240.814 175.141 239.853 173.965C239.353 173.339 238.037 173.459 238.129 174.471H238.192Z" fill="#38241E"/>
<path d="M190.579 294.51C190.843 299.24 191.016 303.976 191.154 308.712C191.315 313.356 191.66 318 191.872 322.644C192.309 332.035 192.474 341.435 192.367 350.841C192.303 356.158 192.165 361.474 191.987 366.791C192.001 367.152 192.155 367.494 192.417 367.743C192.679 367.992 193.028 368.129 193.39 368.124C203.161 368.555 212.989 368.946 222.777 369.573C223.967 369.653 224.536 367.963 223.686 367.216C221.358 365.164 219.087 363.055 216.656 361.118C216.383 360.857 216.016 360.715 215.638 360.723C215.26 360.732 214.9 360.89 214.639 361.164C214.377 361.438 214.235 361.804 214.244 362.182C214.253 362.561 214.411 362.92 214.685 363.181C218.133 367.285 223.306 369.716 228.703 369.107C228.913 369.097 229.117 369.039 229.301 368.939C229.485 368.839 229.644 368.699 229.767 368.529C229.889 368.359 229.972 368.163 230.009 367.957C230.046 367.751 230.036 367.539 229.979 367.337C229.139 364.226 227.326 361.465 224.806 359.457C224.575 359.248 224.283 359.118 223.973 359.086C223.663 359.054 223.351 359.121 223.082 359.279C222.816 359.443 222.612 359.69 222.5 359.982C222.389 360.274 222.378 360.595 222.467 360.894C223.399 363.116 225.062 364.954 227.18 366.104C229.299 367.253 231.746 367.646 234.118 367.216C235.072 367.044 235.187 365.906 234.87 365.216C233.284 361.747 230.976 358.657 228.1 356.152C225.196 353.546 221.85 351.481 218.22 350.054C217.185 349.669 215.989 350.56 215.742 351.543C215.617 352.068 215.702 352.622 215.98 353.085C216.259 353.549 216.708 353.884 217.231 354.02C220.555 354.711 223.658 356.209 226.266 358.382C228.929 360.655 231.083 363.463 232.589 366.624L233.347 364.63C230.077 365.205 226.45 363.13 225.191 360.072L222.858 361.509C225.026 363.184 226.605 365.505 227.37 368.136L228.651 366.366C224.324 366.889 219.404 365.13 216.903 361.4L214.702 363.181C217.001 365.279 219.427 367.205 221.818 369.199C222.116 368.412 222.421 367.624 222.726 366.837C212.926 366.504 203.132 365.923 193.344 365.383L194.746 366.722C195.58 347.833 195.165 328.909 193.505 310.074C193.051 304.832 192.119 299.59 191.286 294.395C191.223 293.981 190.539 294.096 190.562 294.51H190.579Z" fill="#38241E"/>
<path d="M136.713 173.809C135.772 174.93 134.997 176.18 134.414 177.522C133.839 178.896 133.299 180.275 132.776 181.661C131.718 184.454 130.816 187.31 129.988 190.184C128.386 195.824 127.169 201.565 126.344 207.37C124.67 219.272 124.3 231.321 125.241 243.303C126.198 255.449 128.186 267.492 131.184 279.301C134.241 291.35 137.911 303.237 142.179 314.913C146.375 326.632 151.048 338.19 155.812 349.685C156.439 351.203 157.088 352.697 157.801 354.174C158.75 356.157 162.037 354.651 161.313 352.594C159.273 346.812 156.715 341.196 154.416 335.506C152.117 329.816 149.875 323.965 147.743 318.137C143.471 306.648 139.797 294.946 136.736 283.077C133.747 271.512 131.633 259.738 130.414 247.855C129.262 236.2 129.196 224.463 130.218 212.795C131.263 201.252 133.657 189.871 137.351 178.884C137.792 177.516 138.083 176.103 138.219 174.671C138.311 173.878 137.311 173.005 136.661 173.815L136.713 173.809Z" fill="#38241E"/>
<path d="M185.176 294.412C184.429 299.067 183.728 303.734 183.153 308.418C182.578 313.103 182.308 317.902 182.05 322.644C181.548 332.035 181.314 341.434 181.348 350.841C181.348 356.158 181.486 361.474 181.733 366.791L183.067 365.382C173.296 365.923 163.485 366.532 153.685 366.837C154.03 367.607 154.369 368.377 154.708 369.136C157.099 367.153 159.536 365.21 161.824 363.118L159.525 361.445C157.145 364.992 152.259 366.888 148.11 366.388L149.104 368.049C149.83 365.532 151.321 363.303 153.369 361.67L151.38 359.779C150.087 362.997 146.546 365.239 143.052 364.595L143.902 366.555C145.41 363.395 147.564 360.587 150.225 358.313C152.868 356.138 156.007 354.649 159.364 353.979C159.864 353.807 160.278 353.447 160.518 352.976C160.759 352.505 160.808 351.959 160.655 351.453C160.502 350.946 160.158 350.519 159.697 350.26C159.235 350.001 158.691 349.932 158.18 350.065C154.545 351.493 151.196 353.562 148.294 356.175C145.423 358.687 143.12 361.781 141.534 365.25C141.437 365.432 141.383 365.633 141.375 365.839C141.366 366.044 141.405 366.249 141.487 366.438C141.57 366.626 141.694 366.794 141.85 366.928C142.007 367.062 142.192 367.158 142.391 367.21C147.029 368.026 152.018 365.578 153.857 361.152C154.003 360.874 154.056 360.557 154.008 360.247C153.961 359.937 153.815 359.65 153.593 359.428C153.367 359.21 153.074 359.074 152.761 359.042C152.449 359.01 152.135 359.083 151.869 359.25C149.225 361.299 147.317 364.151 146.431 367.377C146.346 367.73 146.403 368.102 146.59 368.413C146.778 368.724 147.08 368.948 147.431 369.038C150.137 369.362 152.881 368.984 155.398 367.94C157.892 366.873 160.088 365.214 161.795 363.106C162.029 362.854 162.164 362.526 162.176 362.181C162.188 361.837 162.075 361.5 161.858 361.233C161.645 360.96 161.338 360.776 160.998 360.717C160.657 360.657 160.306 360.726 160.013 360.911C157.496 362.923 155.116 365.101 152.702 367.233C151.805 368.021 152.593 369.618 153.725 369.532C163.496 368.906 173.313 368.515 183.107 368.084C183.469 368.07 183.811 367.916 184.061 367.654C184.311 367.393 184.45 367.044 184.446 366.681C183.803 347.875 184.015 329.098 185.199 310.321C185.533 305.039 185.59 299.734 185.877 294.452C185.871 294.365 185.834 294.283 185.774 294.22C185.713 294.158 185.632 294.118 185.546 294.109C185.459 294.099 185.372 294.12 185.299 294.168C185.227 294.216 185.173 294.288 185.148 294.371L185.176 294.412Z" fill="#38241E"/>
<path d="M136.391 287.112C136 286.233 135.609 285.359 135.207 284.485C135.046 284.129 134.862 283.675 134.753 283.37C134.492 282.795 134.166 282.251 133.781 281.75C132.764 280.146 131.718 278.571 130.603 277.037C128.304 273.871 125.809 270.853 123.131 268.001C117.884 262.332 111.612 257.707 104.646 254.368C97.7293 251.105 90.1175 249.587 82.4777 249.948C74.7616 250.288 67.3698 253.149 61.4356 258.093C55.5615 263.087 51.7106 269.99 49.1586 277.192C46.2848 285.29 45.4456 293.906 44.2846 302.36C43.8235 306.418 43.1424 310.447 42.2442 314.43C41.3763 317.879 40.1233 321.402 37.8013 324.201C35.8797 326.536 33.1637 328.079 30.1742 328.535C27.2371 328.891 24.3461 328.167 22.5758 325.604C20.6503 322.81 20.4951 319.178 20.7193 315.902C21.0182 311.551 21.9205 307.039 20.6503 302.751C19.6387 299.343 17.2017 296.17 13.7934 294.975C10.1666 293.705 6.32145 295.4 3.9879 298.291C1.33249 301.59 0.884175 305.924 0.958895 310.028C1.04511 314.287 1.27501 318.569 1.71184 322.81C2.52225 330.679 4.3615 338.743 9.22975 345.168C13.506 350.813 19.7364 355.083 26.9957 355.324C34.8757 355.589 42.2787 351.129 47.2274 345.266C52.521 338.99 55.7052 331.173 58.2974 323.471C61.0505 315.281 62.9932 306.849 65.1313 298.487C66.1717 294.417 67.235 290.348 68.5167 286.353C69.5039 283.081 70.8372 279.923 72.4941 276.933C74.0752 274.01 76.3072 271.488 79.0176 269.565C81.7899 267.727 85.0212 266.701 88.3461 266.605C95.4501 266.323 102.508 269.381 108.285 273.439C114.607 277.881 119.878 283.658 125.752 288.647C128.652 291.156 131.77 293.403 135.069 295.36C136.977 296.463 138.621 293.475 136.718 292.371C130.062 288.52 124.619 283.02 118.981 277.87C116.133 275.19 113.117 272.694 109.951 270.398C106.894 268.242 103.571 266.49 100.066 265.185C93.3178 262.668 85.6332 262.122 79.0751 265.484C72.5171 268.846 68.8271 275.399 66.3728 281.979C63.5737 289.486 61.9126 297.423 59.9987 305.182C57.9698 313.413 55.8604 321.678 52.6417 329.541C49.8139 336.467 46.0779 343.502 39.9107 347.962C36.9707 350.189 33.5067 351.622 29.8523 352.123C26.5136 352.512 23.1341 351.912 20.133 350.399C14.1152 347.387 9.90797 341.553 7.71812 335.317C4.98224 327.552 4.7351 319.149 4.4937 310.999C4.38449 307.309 4.49369 303.234 6.83299 300.4C7.7359 299.198 9.0381 298.356 10.5057 298.027C11.0764 297.93 11.6593 297.93 12.23 298.027C12.9915 298.188 13.7079 298.516 14.3279 298.987C16.9201 300.86 17.9259 304.263 18.0122 307.47C18.1271 311.58 17.1787 315.66 17.4891 319.77C17.7535 323.333 18.8915 327.098 21.7539 329.449C24.4438 331.662 27.9153 332.231 31.2892 331.639C34.5874 331.037 37.5943 329.362 39.8417 326.874C42.3592 324.069 43.934 320.592 45.0146 317.011C46.0532 313.18 46.8689 309.292 47.4573 305.366C48.2103 301.067 48.9575 296.745 49.8771 292.486C50.7321 288.361 51.8631 284.298 53.2624 280.324C53.3946 279.962 53.5268 279.606 53.6648 279.249C53.6648 279.209 53.9522 278.496 53.7567 278.991L54.0154 278.353C54.3756 277.468 54.7587 276.594 55.1649 275.732C55.927 274.108 56.777 272.527 57.7111 270.996C58.1882 270.214 58.6882 269.456 59.2113 268.697C59.3434 268.507 59.4756 268.323 59.6021 268.122L59.7285 267.95C59.9987 267.588 60.3033 267.225 60.5562 266.869C61.6827 265.456 62.9143 264.131 64.2404 262.903C64.5738 262.597 64.9129 262.298 65.2578 262.007C65.3268 261.949 65.9245 261.478 65.413 261.88L65.9475 261.461C66.6679 260.913 67.4074 260.401 68.1661 259.926C68.919 259.455 69.6835 259.006 70.4651 258.604C70.7928 258.432 71.1204 258.271 71.4537 258.11C71.5514 258.064 72.2297 257.771 71.5974 258.041L72.4078 257.702C74.0394 257.043 75.7212 256.516 77.437 256.127C77.8681 256.029 78.2992 255.937 78.7303 255.857C78.9142 255.822 80.0235 255.592 79.305 255.748C80.2541 255.573 81.2145 255.467 82.1788 255.431C83.9618 255.301 85.7514 255.292 87.5356 255.403L88.6564 255.483L89.3289 255.552H89.5013C90.4325 255.673 91.3636 255.817 92.2832 255.989C94.0307 256.321 95.7579 256.753 97.4561 257.282C98.3182 257.552 99.1804 257.857 100.02 258.167C100.106 258.196 100.807 258.478 100.209 258.236L100.836 258.495C101.25 258.667 101.669 258.845 102.077 259.029C105.462 260.571 108.683 262.448 111.693 264.633C112.319 265.082 111.296 264.329 111.911 264.794L112.486 265.22C112.86 265.507 113.233 265.794 113.595 266.087C114.331 266.674 115.055 267.273 115.768 267.886C117.193 269.122 118.544 270.433 119.906 271.732C122.598 274.402 125.151 277.209 127.556 280.14C128.666 281.439 129.741 282.709 130.884 284.118C131.151 284.508 131.443 284.88 131.758 285.233C132.091 285.554 132.459 285.836 132.793 286.169C133.448 286.825 134.099 287.484 134.747 288.147C135.402 288.825 136.804 288.072 136.391 287.135V287.112Z" fill="#38241E"/>
</svg>
