<svg width="303" height="348" viewBox="0 0 303 348" fill="none" xmlns="http://www.w3.org/2000/svg">
<path d="M171.291 55.5124C168.835 55.9872 166.44 56.5599 164.106 57.2304C163.404 53.5923 162.437 50.012 161.432 46.4462C160.316 42.505 159.061 38.6022 157.609 34.7717C154.698 27.069 151.094 19.6469 146.841 12.597C144.44 8.62232 141.832 4.77685 139.027 1.07653C138.931 0.920886 138.802 0.788608 138.648 0.68936C138.495 0.590112 138.321 0.526401 138.14 0.50288C137.959 0.479359 137.775 0.496622 137.601 0.55341C137.428 0.610197 137.269 0.705073 137.137 0.831108C134.732 3.02067 132.761 5.64333 130.885 8.28524C128.899 11.0667 126.903 13.8434 125.004 16.6826C121.21 22.2995 117.789 28.1589 114.76 34.2231C108.759 46.374 104.753 59.4729 104.181 73.077C103.839 81.1567 104.609 89.2413 105.974 97.1959C115.818 88.1248 125.691 79.3906 137.714 71.6911C148.131 64.816 159.424 59.3743 171.291 55.5124Z" fill="#2E2221"/>
<path d="M279.032 94.4813C278.393 93.7547 277.743 93.0377 277.084 92.3254C277.874 86.8049 278.247 81.2326 278.2 75.6559C278.105 68.6716 277.17 61.7242 275.416 54.9634C272.049 42.0329 265.947 29.9398 258.7 18.7947C256.603 15.5753 254.371 12.4522 252.159 9.31945C250.038 6.33106 247.889 3.30898 245.162 0.835503C245.03 0.709468 244.871 0.614591 244.697 0.557804C244.524 0.501017 244.34 0.483753 244.159 0.507274C243.978 0.530795 243.804 0.594507 243.651 0.693755C243.497 0.793003 243.368 0.925281 243.272 1.08093C238.324 7.61776 233.988 14.596 230.317 21.9275C226.631 29.2914 223.619 36.9742 221.319 44.8818C220.222 48.6497 219.299 52.4706 218.544 56.3204C216.168 55.7237 213.764 55.2104 211.331 54.7805C212.236 55.2263 213.187 55.5716 214.168 55.8103C237.766 65.0546 260.08 77.9032 279.032 94.4813Z" fill="#2E2221"/>
<path d="M302.092 134.414C302.233 134.166 302.279 133.875 302.221 133.596C302.428 133.325 302.557 133.002 302.594 132.662C302.63 132.323 302.573 131.98 302.428 131.671C302.371 131.522 302.303 131.373 302.241 131.223C287.814 114.073 267.673 101.816 246.884 95.7334C227.648 89.9588 203.603 101.508 197.832 122.682C194.946 121.238 191.58 123.163 189.176 123.644C185.809 124.607 183.886 119.794 181.962 116.907C174.268 101.989 157.917 92.8461 141.085 95.2522C115.467 98.101 94.0673 114.53 79.645 135.295C79.645 135.295 79.645 135.295 79.645 135.328C91.3125 146.867 104.66 156.569 119.233 164.105C125.694 167.388 132.4 170.164 139.291 172.406C137.137 171.482 135.007 170.481 132.91 169.375C135.007 170.481 137.137 171.482 139.291 172.406C141.42 173.109 143.568 173.767 145.736 174.379C145.49 174.456 145.255 174.543 145.005 174.625C149.532 176.202 154.163 177.462 158.864 178.398C160.995 176.57 163.439 175.144 166.078 174.187C163.439 175.144 160.995 176.57 158.864 178.398C169.689 180.577 180.774 181.189 191.566 180.924C204.071 180.479 216.543 179.355 228.927 177.555C226.191 171.451 221.938 166.149 216.573 162.156C221.938 166.149 226.191 171.451 228.927 177.555C231.509 177.175 234.092 176.776 236.665 176.328L236.015 175.573C244.833 173.178 253.414 169.984 261.652 166.03C276.993 158.658 291.3 148.494 301.721 134.919L301.861 135.107C302.077 135.41 302.572 135.107 302.342 134.804C302.27 134.664 302.178 134.539 302.092 134.414Z" fill="#FFD18C"/>
<path d="M187.767 245.773C187.594 245.812 187.425 245.855 187.251 245.889C187.428 245.877 187.602 245.838 187.767 245.773Z" fill="#FFD18C"/>
<path d="M62.034 279.8C55.4841 282.106 45.0581 279.877 46.8278 272.356C47.3087 268.506 53.0795 269.469 57.4077 269.469C47.7896 266.1 36.2479 255.032 41.5379 244.445C43.4615 240.114 51.6368 240.114 55.4841 243.964C49.2323 236.745 45.3851 225.677 51.1559 217.015C52.0888 216.1 53.2674 215.477 54.5482 215.221C55.8291 214.964 57.1567 215.086 58.3695 215.572C62.0292 217.405 63.948 220.596 64.9819 224.162C65.3762 222.886 65.8139 221.659 66.2563 220.586C68.3001 215.596 71.0653 210.962 73.4217 206.101C75.7253 201.356 77.6777 196.39 78.2548 191.116C78.7119 186.767 78.3266 182.37 77.1199 178.166C74.69 169.713 69.4407 162.348 62.2456 157.296C58.7391 154.791 54.7545 153.037 50.5404 152.142C46.2048 151.307 41.7463 151.346 37.4261 152.257C29.0921 153.961 21.3351 158.97 16.1173 165.664C14.8084 167.34 13.68 169.15 12.751 171.063C11.7909 172.958 11.0085 174.938 10.4138 176.978C9.39429 180.688 8.62485 184.745 9.70207 188.527C8.55382 189.902 7.51965 191.368 6.60986 192.911C5.38517 194.923 4.32533 197.031 3.44071 199.215C-0.130446 208.228 -0.842362 218.122 1.40168 227.554C2.47841 232.196 4.30066 236.633 6.79741 240.692C9.04323 244.315 12.121 247.862 16.1462 249.493C15.9922 252.581 16.207 255.676 16.7858 258.713C18.2814 267.375 21.6333 276.004 27.1348 282.928C29.802 286.385 33.0818 289.321 36.8106 291.59C40.892 294.021 45.5279 295.365 50.2759 295.493C50.8482 295.493 51.4156 295.493 51.9831 295.493C50.1508 288.15 55.6139 282.803 62.034 279.8Z" fill="#FFD18C"/>
<path d="M123.056 243.906C122.921 244.782 123.969 245.518 124.652 244.782L124.811 244.609C124.239 244.223 123.687 243.809 123.157 243.367C123.123 243.545 123.085 243.723 123.056 243.906Z" fill="#DD5E56"/>
<path d="M127.365 245.624C127.407 245.768 127.482 245.899 127.583 246.009C127.685 246.118 127.811 246.203 127.951 246.255C128.091 246.307 128.242 246.326 128.39 246.31C128.539 246.294 128.682 246.244 128.807 246.163C129.544 245.695 130.246 245.176 130.909 244.609C130.94 245.211 131.022 245.81 131.154 246.399C131.201 246.551 131.282 246.69 131.391 246.806C131.5 246.922 131.634 247.012 131.783 247.069C131.932 247.125 132.092 247.147 132.25 247.133C132.409 247.119 132.562 247.068 132.698 246.986C135.027 245.434 136.904 243.292 138.137 240.778C138.137 241.101 138.175 241.418 138.199 241.741C138.238 242.28 138.296 242.819 138.339 243.353C141.171 237.713 139.661 231.428 136.829 226.173C136.707 226.165 136.593 226.11 136.51 226.021C136.427 225.931 136.381 225.814 136.382 225.692C136.382 225.625 136.382 225.557 136.382 225.495C136.3 225.462 136.229 225.407 136.177 225.337C136.124 225.266 136.092 225.183 136.083 225.095C136.078 225.061 136.07 225.027 136.059 224.994L136.002 224.792C136 224.771 136 224.75 136.002 224.73C135.963 224.672 135.934 224.609 135.896 224.551C132.207 219.503 123.152 220.5 118.535 223.271C117.576 223.915 116.762 224.753 116.146 225.731C115.531 226.709 115.127 227.806 114.962 228.95C115.994 229.547 117.051 230.087 118.131 230.572C121.04 231.852 124.036 232.926 127.095 233.786C125.151 236.676 123.828 239.939 123.21 243.367C123.74 243.808 124.292 244.223 124.864 244.609C125.523 243.901 126.186 243.204 126.85 242.506C126.806 243.57 126.982 244.631 127.365 245.624Z" fill="#B0281F"/>
<path d="M275.738 216.077C270.929 214.633 266.12 212.708 263.715 208.377C262.948 207.236 262.334 206 261.888 204.701C261.012 205.384 260.137 206.082 259.238 206.722C258.103 204.667 256.776 202.723 255.472 200.769C253.917 198.443 252.314 196.154 250.663 193.902C247.297 189.277 243.705 184.807 240.083 180.394C239.08 179.175 238.067 177.965 237.044 176.766L236.683 176.337C234.111 176.785 231.528 177.184 228.946 177.564C234.385 189.667 233.485 204.128 224.767 215.1C223.324 216.543 222.362 211.731 221.881 209.806C222.362 214.619 220.439 218.468 217.553 221.356C213.706 225.687 211.301 220.874 210.82 216.543C207.026 227.934 199.952 243.054 187.771 245.782C187.606 245.847 187.433 245.886 187.256 245.898C187.429 245.864 187.598 245.821 187.771 245.782C188.218 245.609 188.699 245.272 188.699 244.936C178.119 238.198 172.829 225.687 169.463 214.137C168.02 218.468 166.577 222.318 166.096 226.649C159.845 221.356 155.998 213.175 156.478 204.994C155.606 208.314 154.963 211.691 154.555 215.1C148.784 207.4 150.227 198.257 152.15 189.114C153.03 184.999 155.517 181.255 158.883 178.407C154.181 177.471 149.55 176.211 145.023 174.634C142.769 175.402 140.568 176.32 138.435 177.382C135.619 178.811 132.89 180.403 130.26 182.15C124.914 185.632 119.899 189.598 115.279 193.998C110.845 198.199 106.089 202.968 104.474 209.046C102.939 214.821 105.565 220.898 109.653 224.998C111.222 226.544 112.987 227.876 114.904 228.959C115.07 227.815 115.473 226.718 116.088 225.74C116.704 224.762 117.518 223.924 118.477 223.281C123.094 220.509 132.149 219.513 135.838 224.561C135.636 224.224 135.434 223.892 135.256 223.54C135.195 223.485 135.151 223.413 135.131 223.333C135.045 223.194 134.953 223.059 134.871 222.92C134.626 222.737 134.362 222.559 134.102 222.385C133.842 222.212 133.472 221.948 133.14 221.736C132.659 221.418 133.049 220.677 133.52 220.85C133.757 220.674 134.027 220.548 134.314 220.48C134.987 220.145 135.681 219.853 136.391 219.604C136.44 219.583 136.492 219.573 136.545 219.573C136.598 219.573 136.65 219.583 136.699 219.604C136.783 219.577 136.874 219.577 136.959 219.604H137.002C137.132 219.424 137.275 219.254 137.43 219.094C137.489 219.033 137.563 218.989 137.645 218.967C137.727 218.944 137.813 218.944 137.895 218.965C137.977 218.987 138.052 219.029 138.112 219.089C138.172 219.149 138.216 219.224 138.238 219.306C138.633 221.065 138.523 222.9 137.92 224.599C137.881 224.71 137.802 224.802 137.699 224.859C137.675 224.965 137.646 225.071 137.622 225.172C137.598 225.273 137.622 225.331 137.622 225.412C137.618 225.51 137.584 225.605 137.525 225.683C137.466 225.762 137.384 225.82 137.29 225.85C137.265 225.956 137.202 226.048 137.114 226.11C137.025 226.172 136.917 226.199 136.809 226.187C139.642 231.442 141.138 237.736 138.319 243.367C138.478 245.234 138.661 247.101 138.882 248.963C138.148 248.723 137.407 248.501 136.66 248.299C135.397 247.945 134.112 247.677 132.813 247.496L132.294 247.433C131.871 247.418 131.45 247.374 131.034 247.303C130.255 247.231 129.48 247.178 128.701 247.115C126.023 246.899 123.19 247.342 120.526 247.727C117.718 248.136 114.938 248.689 112.168 249.281C106.551 250.503 100.973 252.005 95.2594 252.726C92.3528 253.116 89.4182 253.256 86.4877 253.145C85.9635 253.145 85.4345 253.087 84.9104 253.039L84.5256 253.001H84.4535L83.5638 252.88C82.4748 252.722 81.3946 252.509 80.3274 252.24C79.2581 251.975 78.2034 251.654 77.1678 251.278L76.6484 251.086C76.4272 250.999 76.2108 250.907 75.9896 250.811C75.4478 250.58 74.9092 250.33 74.3738 250.061C73.4087 249.576 72.4741 249.032 71.5749 248.434C71.3585 248.29 71.1469 248.145 70.9353 247.991H70.8968L70.5891 247.755C70.1562 247.419 69.7379 247.072 69.3291 246.706C68.9203 246.341 68.5789 246.004 68.223 245.638C68.0435 245.452 67.8704 245.264 67.7036 245.075L67.4488 244.786C67.4488 244.762 67.3093 244.618 67.2468 244.546L67.1217 244.387L66.8909 244.079C66.737 243.872 66.5928 243.665 66.4485 243.453C66.1407 243.001 65.8522 242.539 65.5877 242.063C65.4578 241.836 65.3376 241.605 65.2222 241.374C65.1933 241.322 65.0202 240.951 64.9865 240.893C64.7317 240.297 64.5056 239.685 64.3037 239.065C64.1017 238.444 63.9574 237.857 63.8228 237.241C63.7002 236.704 63.6167 236.159 63.5727 235.609C63.3174 233.115 63.4488 230.595 63.9622 228.141C64.2171 226.861 64.5682 225.513 64.9673 224.214C63.9334 220.648 62.0146 217.477 58.3549 215.624C57.1421 215.139 55.8145 215.017 54.5336 215.273C53.2528 215.529 52.0742 216.153 51.1413 217.068C45.3705 225.73 49.2177 236.798 55.4695 244.016C51.6222 240.167 43.4469 240.167 41.5233 244.498C36.2333 255.084 47.775 266.153 57.3931 269.521C53.0649 269.521 47.2941 268.559 46.8132 272.408C45.0435 279.93 55.4695 282.158 62.0194 279.853C62.558 279.598 63.0966 279.372 63.6448 279.146C63.1214 279.422 62.5781 279.658 62.0194 279.853C55.6137 282.803 50.1507 288.149 51.9925 295.478C62.1684 295.3 71.8202 290.185 79.8128 284.237C88.2863 277.923 95.5383 270.204 104.445 264.507C111.99 259.695 121.089 256.567 130.168 258.155C134.164 258.857 138.103 260.513 141.094 263.309C141.144 263.355 141.197 263.396 141.253 263.434C141.835 266.263 142.465 269.078 143.177 271.879C145.739 281.965 148.813 291.913 152.386 301.686C154.266 306.917 156.233 312.109 158.301 317.278C159.019 315.227 160.409 313.481 162.244 312.321C167.534 307.99 173.786 316.171 174.267 321.945C175.229 318.096 176.672 314.246 180.038 312.321C182.866 310.435 186.617 310.877 187.665 314.063C187.819 308.677 188.061 303.288 188.391 297.899C188.656 293.698 188.718 289.482 188.935 285.276C190.262 285.421 191.589 285.541 192.921 285.623C193.114 289.251 193.248 292.884 193.373 296.518C193.513 300.406 193.796 304.294 193.979 308.187C194.104 310.901 194.191 313.625 194.263 316.344C195.6 313.938 197.629 312.461 200.717 312.802C204.083 313.283 204.564 319.058 205.045 322.908C205.526 316.652 211.297 313.765 215.625 311.359C218.645 309.631 222.838 308.678 225.748 311.643C226.549 309.551 227.343 307.454 228.128 305.353C231.74 295.594 235.039 285.695 237.713 275.637C240.39 265.736 242.264 255.634 243.315 245.431C243.859 240.069 244.114 234.681 244.08 229.291C247.874 231.918 252.072 234.421 256.67 235.066C259.209 235.475 261.812 235.173 264.191 234.195C266.407 233.21 268.367 231.728 269.919 229.864C273.04 226.153 274.675 221.62 276.521 217.208C276.637 216.933 276.752 216.654 276.873 216.38C276.488 216.231 276.108 216.144 275.738 216.077Z" fill="#DD5E56"/>
<path d="M215.625 311.359C211.297 313.765 205.526 316.653 205.045 322.908C204.564 319.059 204.083 313.284 200.717 312.803C197.639 312.461 195.6 313.948 194.263 316.345C194.398 321.494 194.439 326.643 194.388 331.792C194.34 336.243 194.224 340.699 194.071 345.146C194.084 345.449 194.215 345.735 194.434 345.944C194.654 346.153 194.946 346.268 195.249 346.267C203.424 346.628 211.648 346.95 219.833 347.48C220.034 347.49 220.235 347.438 220.406 347.331C220.578 347.225 220.714 347.068 220.794 346.883C222.107 347.167 223.456 347.237 224.791 347.09C224.966 347.082 225.138 347.034 225.292 346.951C225.447 346.867 225.581 346.75 225.684 346.607C225.787 346.465 225.857 346.301 225.888 346.128C225.919 345.955 225.91 345.777 225.863 345.608C225.863 345.54 225.82 345.478 225.801 345.415C226.956 345.674 228.15 345.702 229.316 345.497C230.114 345.357 230.215 344.405 229.951 343.822C228.622 340.918 226.689 338.331 224.281 336.233C222.289 334.471 220.06 332.997 217.659 331.854C219.356 328.005 220.847 324.054 222.401 320.165C223.535 317.329 224.658 314.489 225.767 311.643C222.833 308.655 218.645 309.607 215.625 311.359Z" fill="#B0281F"/>
<path d="M180.038 312.322C176.671 314.247 175.229 318.097 174.267 321.946C173.786 316.172 167.534 307.991 162.244 312.322C160.399 313.485 159.003 315.241 158.286 317.303C160.079 321.833 161.911 326.346 163.783 330.844C163.918 331.176 164.062 331.503 164.202 331.807C161.772 332.967 159.519 334.464 157.507 336.253C155.108 338.355 153.182 340.944 151.857 343.847C151.776 343.999 151.73 344.167 151.723 344.339C151.716 344.512 151.749 344.683 151.818 344.841C151.886 344.999 151.99 345.139 152.121 345.251C152.252 345.363 152.407 345.444 152.573 345.488C153.722 345.689 154.899 345.658 156.036 345.396C156.012 345.478 155.983 345.555 155.959 345.637C155.886 345.933 155.933 346.246 156.09 346.507C156.247 346.769 156.5 346.957 156.796 347.032C158.213 347.195 159.648 347.135 161.047 346.854C161.141 347.04 161.286 347.195 161.465 347.301C161.644 347.408 161.849 347.461 162.057 347.456C170.232 346.927 178.446 346.604 186.645 346.243C186.948 346.232 187.235 346.102 187.444 345.882C187.652 345.661 187.766 345.368 187.761 345.064C187.412 334.718 187.379 324.377 187.665 314.04C186.616 310.845 182.88 310.397 180.038 312.322Z" fill="#B0281F"/>
<path d="M284.423 206.159C288.27 203.493 293.478 202.651 298.037 203.498C298.284 203.558 298.543 203.545 298.783 203.46C299.022 203.374 299.231 203.22 299.384 203.017C299.539 202.811 299.628 202.563 299.64 202.305C299.652 202.048 299.586 201.793 299.451 201.573C298.471 200.342 297.22 199.354 295.796 198.686L299.807 197.675C300.769 197.43 300.846 196.049 300.028 195.582C298.391 194.647 296.599 194.016 294.738 193.72C296.181 193.181 297.657 192.642 299.105 192.074C299.35 191.989 299.562 191.829 299.71 191.615C299.857 191.402 299.934 191.148 299.927 190.888C299.921 190.629 299.832 190.378 299.674 190.173C299.516 189.967 299.296 189.817 299.047 189.745C294.344 187.974 289.184 188.436 284.697 190.548C283.499 187.809 281.769 185.334 279.609 183.267C279.431 183.102 279.213 182.986 278.977 182.93C278.741 182.874 278.495 182.881 278.262 182.949C278.029 183.016 277.817 183.144 277.648 183.317C277.479 183.491 277.357 183.706 277.296 183.941C276.559 186.77 276.728 189.759 277.777 192.488L268.356 199.716C266.644 201.039 264.917 202.338 263.196 203.647C262.758 203.979 262.321 204.321 261.888 204.667C262.334 205.967 262.949 207.203 263.715 208.344C266.12 212.675 270.929 214.6 275.738 216.043C276.108 216.135 276.488 216.221 276.873 216.308C277.715 214.225 278.78 212.239 280.047 210.384C281.257 208.739 282.737 207.311 284.423 206.159Z" fill="#B0281F"/>
<path d="M131.039 247.284C131.455 247.355 131.876 247.399 132.299 247.414C131.904 247.356 131.457 247.318 131.039 247.284Z" fill="#DD5E56"/>
<path d="M62.0337 279.801C62.5924 279.606 63.1358 279.369 63.6591 279.093C63.135 279.31 62.5723 279.546 62.0337 279.801Z" fill="#DD5E56"/>
<path d="M152.146 189.128C150.222 198.271 148.779 207.414 154.55 215.114C154.958 211.705 155.601 208.329 156.474 205.008C155.993 213.189 159.84 221.37 166.092 226.663C166.573 222.332 168.015 218.482 169.458 214.151C172.824 225.701 178.114 238.212 188.694 244.95C188.694 245.286 188.213 245.623 187.766 245.796C199.947 243.068 207.002 227.948 210.816 216.557C211.297 220.888 213.701 225.701 217.548 221.37C220.434 218.482 222.357 214.633 221.877 209.82C222.357 211.745 223.319 216.557 224.762 215.114C233.481 204.128 234.38 189.667 228.941 177.579C216.557 179.378 204.085 180.502 191.58 180.947C180.774 181.212 169.689 180.601 158.878 178.421C155.522 181.246 153.026 184.989 152.146 189.128Z" fill="#FFD18C"/>
<path d="M214.182 55.8292C213.202 55.5905 212.25 55.2452 211.345 54.7994L210.864 54.7128C197.923 52.4944 184.958 53.0044 172.093 55.3721L171.271 55.5357C159.413 59.398 148.128 64.838 137.719 71.7095C125.696 79.4331 115.813 88.148 105.979 97.2142V97.296C105.979 97.296 105.979 97.3249 105.979 97.3393C98.1088 106.138 90.9905 115.582 84.6989 125.573C82.9164 128.392 81.1932 131.249 79.5292 134.143C79.4717 134.236 79.4511 134.346 79.4716 134.453C79.4921 134.561 79.5522 134.656 79.6398 134.721L79.5677 134.822C79.5296 134.868 79.5113 134.927 79.5167 134.986C79.5221 135.046 79.5508 135.101 79.5966 135.139C79.5867 135.171 79.5846 135.205 79.5905 135.237C79.5964 135.27 79.61 135.301 79.6302 135.327C94.0573 114.562 115.453 98.1333 141.07 95.2845C157.902 92.8784 174.253 102.022 181.947 116.939C183.871 119.827 185.794 124.639 189.161 123.677C191.565 123.195 194.932 121.27 197.817 122.714C203.588 101.54 227.633 89.9911 246.869 95.7657C267.659 101.848 287.808 114.105 302.226 131.256C296.753 117.993 288.722 105.458 279.017 94.5001C260.08 77.9028 237.766 65.0542 214.182 55.8292Z" fill="#DD5E56"/>
<path d="M196.99 120.314L196.889 120.242C196.768 120.168 196.633 120.12 196.492 120.099C196.352 120.078 196.209 120.086 196.071 120.121C195.91 120.039 195.739 119.977 195.562 119.939C194.912 119.794 194.249 119.703 193.6 119.582L189.666 118.87C189.54 118.848 189.411 118.854 189.289 118.889C189.166 118.924 189.053 118.987 188.959 119.072C188.303 119.225 187.695 119.536 187.187 119.978C186.678 120.42 186.286 120.98 186.045 121.608C185.797 122.127 185.751 122.718 185.915 123.269C186.29 124.38 188.002 124.428 188.276 123.211C188.314 123.042 188.339 122.869 188.382 122.701C188.382 122.662 188.512 122.335 188.43 122.513C188.52 122.289 188.658 122.087 188.834 121.921C189.096 123.126 189.748 124.211 190.69 125.006C190.914 125.216 191.211 125.33 191.518 125.323C191.825 125.316 192.116 125.188 192.33 124.967C192.826 124.399 193.158 123.708 193.292 122.965C193.328 122.763 193.328 122.556 193.292 122.354C193.719 122.497 194.102 122.745 194.408 123.076C194.643 123.231 194.919 123.314 195.201 123.314C195.483 123.314 195.759 123.231 195.994 123.076C196.064 123.098 196.134 123.116 196.206 123.129C196.476 123.185 196.756 123.137 196.993 122.996C197.229 122.854 197.403 122.628 197.48 122.364C197.538 122.182 197.571 121.992 197.577 121.801C197.65 121.523 197.633 121.229 197.527 120.961C197.422 120.693 197.234 120.467 196.99 120.314Z" fill="#C89D64"/>
<path d="M149.044 58.6407C148.236 56.5955 146.995 54.6947 145.928 52.7795L142.672 46.9422C140.232 42.5663 137.801 38.1856 135.377 33.8001C135.223 33.5576 135.009 33.3591 134.755 33.2239C134.502 33.0888 134.218 33.0216 133.93 33.0289C133.643 33.0361 133.363 33.1176 133.117 33.2654C132.87 33.4132 132.667 33.6223 132.525 33.8723C129.661 39.8557 127.25 46.0455 125.311 52.3897C123.328 58.6543 121.896 65.0807 121.031 71.5952C120.796 73.4768 120.551 75.3632 120.512 77.2592C120.483 78.1157 120.464 78.9771 120.45 79.8337L120.041 80.1369C120.165 81.1911 120.229 82.2515 120.233 83.3129C120.233 83.3995 120.233 83.4862 120.233 83.5728C120.427 83.5424 120.614 83.4737 120.781 83.3707L121.041 83.2022C121.112 83.2446 121.191 83.2696 121.273 83.2752C121.355 83.2808 121.437 83.2668 121.513 83.2344C121.589 83.202 121.655 83.1521 121.708 83.0887C121.761 83.0254 121.797 82.9505 121.815 82.8702C121.815 82.8028 121.859 82.7403 121.878 82.6777C125.297 80.5218 128.61 78.2312 131.943 75.9406L143.004 68.3133C144.677 67.1583 146.611 66.0852 148.01 64.5934C148.747 63.8124 149.239 62.8314 149.423 61.7728C149.606 60.7142 149.475 59.6249 149.044 58.6407Z" fill="#F5D4D6"/>
<path d="M233.067 58.6407C233.875 56.5955 235.116 54.6947 236.183 52.7795L239.439 46.9422C241.879 42.5663 244.311 38.1856 246.734 33.8001C246.889 33.5576 247.103 33.3591 247.356 33.2239C247.61 33.0888 247.894 33.0216 248.181 33.0289C248.468 33.0361 248.748 33.1176 248.994 33.2654C249.241 33.4132 249.445 33.6223 249.586 33.8723C252.452 39.8548 254.863 46.0447 256.8 52.3897C258.785 58.6542 260.219 65.0806 261.085 71.5952C261.32 73.4768 261.566 75.3632 261.604 77.2592C261.633 78.1157 261.652 78.9771 261.667 79.8337L262.075 80.1369C261.949 81.1909 261.885 82.2514 261.883 83.3129C261.883 83.3995 261.883 83.4862 261.883 83.5728C261.689 83.5424 261.502 83.4737 261.335 83.3707L261.07 83.2022C261 83.2447 260.921 83.2698 260.839 83.2754C260.757 83.281 260.675 83.267 260.6 83.2345C260.525 83.2021 260.458 83.1521 260.406 83.0887C260.354 83.0253 260.318 82.9504 260.301 82.8702C260.301 82.8028 260.257 82.7403 260.238 82.6777C256.819 80.5218 253.506 78.2312 250.168 75.9406L239.107 68.3133C237.439 67.1583 235.501 66.0852 234.106 64.5934C233.368 63.8129 232.876 62.8322 232.691 61.7736C232.506 60.715 232.637 59.6254 233.067 58.6407Z" fill="#F5D4D6"/>
<path d="M161.59 121.349L161.566 121.32L162.047 122.345V122.282C161.655 121.169 160.892 120.225 159.888 119.607L158.787 119.174C157.994 118.981 157.164 119.003 156.382 119.236C155.963 119.346 155.567 119.53 155.214 119.78C154.557 120.186 154.015 120.754 153.641 121.43C153.109 122.506 152.98 123.737 153.276 124.9C153.5 125.645 153.915 126.318 154.478 126.854L154.536 126.897L155.497 127.585C155.859 127.765 156.236 127.913 156.623 128.028C157.818 128.266 159.058 128.071 160.124 127.479L161.028 126.743C161.571 126.171 161.957 125.468 162.148 124.703V124.65L161.081 126.575L161.11 126.541L161.759 125.66C162.059 125.177 162.225 124.622 162.24 124.053C162.331 123.677 162.321 123.284 162.211 122.913C162.173 122.348 161.986 121.803 161.667 121.334L161.59 121.349Z" fill="#2E2221"/>
<path d="M223.632 125.477C228.739 125.477 228.542 117.546 223.44 117.546C218.337 117.546 218.53 125.477 223.632 125.477Z" fill="#2E2221"/>
<path d="M79.664 135.736C91.3255 147.268 104.667 156.964 119.233 164.494C133.934 172.03 150.304 176.732 166.563 179.345C198.784 184.523 232.106 180.61 261.652 166.41C277.137 158.975 291.564 148.705 302 134.947C302.842 133.84 301.38 132.339 300.394 133.417C290.295 144.461 278.388 153.859 264.975 160.558C251.029 167.521 236.174 171.539 220.799 173.69C189.199 178.113 156.282 174.711 126.542 162.969C118.107 159.644 109.87 155.991 101.983 151.516C94.0604 146.995 86.6748 141.592 79.967 135.409C79.9455 135.389 79.9202 135.373 79.8925 135.362C79.8648 135.351 79.8353 135.346 79.8056 135.347C79.7759 135.347 79.7466 135.354 79.7194 135.366C79.6922 135.378 79.6677 135.395 79.6472 135.416C79.6266 135.438 79.6105 135.463 79.5998 135.491C79.589 135.519 79.5839 135.548 79.5845 135.578C79.5852 135.608 79.5917 135.637 79.6037 135.664C79.6157 135.691 79.6329 135.716 79.6544 135.736H79.664Z" fill="#2E2221"/>
<path d="M196.783 119.775C195.626 119.646 194.487 119.388 193.388 119.005C192.372 118.687 191.329 118.463 190.271 118.337C188.41 118.154 186.501 118.645 185.371 120.223C184.409 121.551 184.308 123.481 185.612 124.626C185.91 124.898 186.26 125.108 186.639 125.245C187.019 125.381 187.422 125.442 187.826 125.423C188.229 125.403 188.624 125.305 188.99 125.133C189.355 124.961 189.683 124.718 189.954 124.419C190.226 124.12 190.436 123.771 190.572 123.391C190.709 123.01 190.769 122.607 190.75 122.204C190.731 121.8 190.632 121.404 190.46 121.039C190.288 120.673 190.046 120.345 189.747 120.074C189.669 120.001 189.576 119.947 189.474 119.915C189.372 119.884 189.264 119.876 189.158 119.892C189.053 119.908 188.952 119.948 188.864 120.009C188.777 120.07 188.704 120.149 188.651 120.242C187.511 122.379 188.752 125.536 191.286 125.872C193.821 126.209 195.927 123.211 194.705 120.964C194.646 120.868 194.562 120.789 194.462 120.735C194.362 120.681 194.25 120.654 194.137 120.657C194.024 120.66 193.913 120.692 193.816 120.751C193.719 120.81 193.64 120.894 193.585 120.993C192.719 122.961 194.744 125.55 196.903 124.669C198.702 123.933 199.029 121.2 197.523 120.011C197.452 119.945 197.368 119.894 197.276 119.863C197.184 119.832 197.087 119.82 196.99 119.829C196.893 119.838 196.8 119.868 196.715 119.916C196.631 119.964 196.557 120.029 196.5 120.107C196.442 120.186 196.402 120.275 196.382 120.37C196.362 120.465 196.362 120.564 196.382 120.659C196.402 120.754 196.443 120.843 196.5 120.922C196.558 121 196.631 121.065 196.716 121.113C197.48 121.594 197.264 123 196.533 123.413C195.547 123.967 194.297 122.586 194.72 121.618L193.599 121.647C194.34 123.009 192.787 124.896 191.315 124.535C189.843 124.174 189.175 122.181 189.872 120.911L188.776 121.079C189.69 121.926 189.401 123.745 188.059 123.967C187.754 124.02 187.44 123.987 187.153 123.871C186.865 123.755 186.616 123.561 186.434 123.31C186.251 123.06 186.142 122.763 186.119 122.454C186.096 122.145 186.16 121.835 186.304 121.561C187.049 119.862 189.05 119.583 190.699 119.732C191.69 119.824 192.662 120.064 193.643 120.213C194.681 120.407 195.743 120.443 196.793 120.319C196.866 120.319 196.937 120.29 196.99 120.237C197.042 120.185 197.071 120.114 197.071 120.04C197.071 119.966 197.042 119.895 196.99 119.843C196.937 119.79 196.866 119.761 196.793 119.761L196.783 119.775Z" fill="#2E2221"/>
<path d="M191.988 124.645C191.618 125.117 191.37 125.675 191.267 126.266C191.065 126.959 190.901 127.667 190.743 128.374C190.435 129.75 190.214 131.146 190.036 132.546C189.858 133.947 189.738 135.26 189.694 136.627C189.651 137.994 189.507 139.586 189.824 140.958C189.988 141.646 191.171 141.661 191.267 140.919C191.44 139.586 191.267 138.177 191.267 136.829C191.267 135.482 191.349 134.081 191.464 132.715C191.58 131.348 191.757 130.029 191.945 128.692C192.051 128.013 192.176 127.335 192.301 126.656C192.483 126.045 192.531 125.401 192.44 124.77C192.425 124.722 192.398 124.679 192.362 124.645C192.326 124.611 192.281 124.587 192.233 124.576C192.184 124.564 192.134 124.565 192.086 124.579C192.038 124.593 191.994 124.619 191.959 124.654L191.988 124.645Z" fill="#2E2221"/>
<path d="M182.587 129.543C181.413 131.314 181.625 133.966 182.245 135.886C182.942 137.974 184.361 139.745 186.246 140.881C190.204 143.253 195.576 142.483 198.524 138.889C200.096 136.964 201.217 134.264 200.635 131.776C200.438 130.944 199.337 131.271 199.264 131.993C199.086 133.918 198.735 135.722 197.596 137.325C196.502 138.873 194.884 139.971 193.042 140.414C191.216 140.843 189.297 140.625 187.614 139.797C185.931 138.968 184.588 137.581 183.813 135.871C183.399 134.911 183.144 133.891 183.058 132.849C183.022 131.796 183.079 130.741 183.226 129.697C183.255 129.341 182.774 129.303 182.611 129.543H182.587Z" fill="#2E2221"/>
<path d="M226.883 122.49C227.062 122.49 227.057 122.205 226.883 122.205C226.71 122.205 226.71 122.49 226.883 122.49Z" fill="#FFD18C"/>
<path d="M227.335 123.808C227.587 123.812 227.836 123.751 228.056 123.629C228.28 123.537 228.481 123.399 228.647 123.223C228.813 123.047 228.939 122.838 229.018 122.609C229.129 122.384 229.178 122.133 229.162 121.883L229.081 121.401C228.993 121.092 228.828 120.81 228.6 120.583L228.21 120.299C227.916 120.136 227.584 120.055 227.248 120.064C226.997 120.059 226.748 120.12 226.527 120.242C226.298 120.322 226.094 120.462 225.936 120.646C225.758 120.814 225.628 121.027 225.56 121.262C225.45 121.487 225.4 121.738 225.416 121.989L225.493 122.47C225.585 122.777 225.75 123.058 225.974 123.288L226.364 123.572C226.657 123.736 226.99 123.816 227.325 123.803L227.335 123.808Z" fill="#FFD18C"/>
<path d="M108.302 97.0325C107.044 90.0316 106.443 82.9283 106.508 75.8154C106.621 69.0516 107.544 62.3257 109.259 55.7821C112.558 43.1933 118.501 31.4708 125.552 20.5903C127.648 17.3613 129.88 14.2334 132.097 11.091C134.145 8.20365 136.208 5.31632 138.829 2.91021L136.939 2.6696C141.87 9.17756 146.192 16.1251 149.852 23.4247C153.476 30.6627 156.432 38.2173 158.681 45.994C160.064 50.5432 161.188 55.1671 162.047 59.8436C162.135 60.1488 162.338 60.4075 162.615 60.564C162.891 60.7206 163.217 60.7626 163.524 60.6809C163.827 60.5901 164.083 60.386 164.24 60.1109C164.397 59.8358 164.442 59.5109 164.365 59.2036C163.597 55.0284 162.609 50.8969 161.403 46.8266C160.287 42.8805 159.032 38.9826 157.58 35.1473C154.676 27.4559 151.082 20.0437 146.841 13.0014C144.441 9.01692 141.832 5.1618 139.026 1.45211C138.93 1.29751 138.8 1.16635 138.646 1.06808C138.493 0.969811 138.319 0.906896 138.138 0.883874C137.958 0.860853 137.774 0.878301 137.601 0.934958C137.427 0.991615 137.269 1.08607 137.136 1.21149C134.732 3.40106 132.76 6.02372 130.885 8.66563C128.899 11.4423 126.903 14.2189 125.003 17.0581C121.21 22.6751 117.788 28.5345 114.76 34.5987C108.758 46.7544 104.752 59.8532 104.18 73.4526C103.839 81.5612 104.613 89.6698 105.988 97.6581C106.075 97.964 106.278 98.2234 106.555 98.3802C106.831 98.5369 107.158 98.5783 107.465 98.4954C107.769 98.4056 108.026 98.2016 108.183 97.9262C108.34 97.6508 108.384 97.3254 108.306 97.018L108.302 97.0325Z" fill="#2E2221"/>
<path d="M80.092 135.477C85.3388 128.23 91.4317 121.635 98.2413 115.834C101.637 112.954 105.195 110.273 108.898 107.802C112.624 105.24 116.566 103.01 120.68 101.137C128.856 97.5327 137.776 95.5116 146.712 96.0457C154.569 96.4687 162.156 99.0603 168.631 103.534C170.128 104.547 171.561 105.653 172.921 106.844C174.353 108.093 175.698 109.438 176.946 110.872C177.528 111.551 178.071 112.248 178.595 112.975C178.871 113.391 179.178 113.785 179.514 114.154C179.841 114.462 180.131 114.805 180.38 115.179C181.425 116.747 182.283 118.431 182.938 120.198C183.246 121.069 183.51 121.959 183.741 122.855C183.972 123.75 185.342 123.336 185.107 122.441C184.593 120.553 183.962 118.7 183.217 116.892C182.847 115.973 182.433 115.068 181.991 114.183C181.807 113.801 181.646 113.409 181.51 113.009C181.32 112.508 181.071 112.031 180.769 111.589C178.64 108.248 176.007 105.256 172.964 102.72C166.594 97.5265 158.85 94.3025 150.679 93.4423C141.417 92.4077 131.953 94.1641 123.378 97.7107C114.804 101.257 107.22 106.657 100.122 112.614C93.1583 118.408 86.9307 125.034 81.578 132.344C80.8951 133.278 80.2299 134.224 79.5822 135.183C79.3706 135.496 79.8756 135.761 80.092 135.463V135.477Z" fill="#2E2221"/>
<path d="M302.355 135.183C297.222 127.654 291.174 120.792 284.35 114.755C280.925 111.727 277.343 108.879 273.621 106.223C269.864 103.494 265.869 101.107 261.685 99.0916C253.298 95.1408 244.046 92.8357 234.755 93.1774C226.392 93.4543 218.283 96.1265 211.393 100.877C208.124 103.174 205.245 105.982 202.866 109.192C202.251 110.02 201.654 110.862 201.101 111.733C200.658 112.57 200.261 113.431 199.913 114.313C199.079 116.056 198.347 117.846 197.72 119.673C197.384 120.597 197.095 121.536 196.845 122.489C196.806 122.67 196.84 122.86 196.938 123.018C197.036 123.176 197.192 123.289 197.373 123.334C197.553 123.379 197.744 123.352 197.905 123.259C198.066 123.166 198.184 123.014 198.235 122.835C198.687 120.998 199.355 119.221 200.226 117.542C200.664 116.704 201.144 115.886 201.669 115.092C201.895 114.768 202.157 114.47 202.448 114.202C202.822 113.779 203.166 113.33 203.477 112.859C204.565 111.41 205.757 110.043 207.045 108.769C208.33 107.459 209.707 106.243 211.166 105.131C217.37 100.429 224.295 97.3159 232.086 96.3631C240.997 95.2707 249.951 96.6951 258.305 99.9001C266.658 103.105 274.314 108.196 281.253 113.807C288.214 119.409 294.49 125.813 299.951 132.888C300.614 133.754 301.268 134.635 301.903 135.52C302.12 135.818 302.615 135.52 302.384 135.212L302.355 135.183Z" fill="#2E2221"/>
<path d="M80.4 134.985C94.3462 111.997 112.269 90.5206 134.564 75.2226C145.235 67.8984 156.464 62.2296 169.141 59.7081C180.582 57.4415 192.758 57.3549 204.285 59.0199C220.212 61.2621 235.43 67.0613 248.812 75.9878C257.082 81.6064 264.636 88.2126 271.309 95.6601C279.542 104.707 285.933 114.856 292.526 125.077C294.45 128.032 296.374 130.972 298.264 133.946C299.605 136.054 303.424 134.562 302.409 132.074C293.416 110.024 277.339 89.948 258.238 75.7423C244.249 65.3335 228.09 58.0334 210.864 55.0835C197.923 52.8603 184.958 53.3704 172.094 55.7428C160.903 57.8072 151.141 61.8639 141.379 67.8599C118.103 82.1137 99.2466 102.989 84.7137 125.943C82.9311 128.763 81.2079 131.62 79.544 134.514C79.2314 135.062 80.0778 135.52 80.4 134.995V134.985Z" fill="#2E2221"/>
<path d="M120.685 84.3084C120.585 75.2375 121.654 66.1916 123.863 57.3937C124.975 52.9655 126.443 48.6347 128.254 44.4441C129.125 42.3777 130.111 40.3615 131.207 38.4048C132.327 36.4799 133.751 34.6753 134.756 32.6734L132.558 33.0103C136.429 37.3124 139.473 42.8753 142.234 47.9281C145.058 53.1165 147.412 58.547 149.269 64.1549C149.904 66.0798 152.867 65.1991 152.29 63.2406C150.612 57.4153 148.291 51.7952 145.369 46.4845C142.316 40.9745 138.319 36.3788 134.741 31.2586C134.605 31.0632 134.423 30.9045 134.21 30.7969C133.998 30.6892 133.762 30.6358 133.524 30.6415C133.286 30.6472 133.053 30.7119 132.845 30.8296C132.638 30.9474 132.464 31.1146 132.337 31.3164C129.961 34.8726 128.49 39.4971 126.932 43.4576C125.169 47.8877 123.683 52.4231 122.483 57.0376C120.183 65.9456 119.21 75.1449 119.598 84.3373C119.602 84.4866 119.665 84.6283 119.773 84.7312C119.881 84.8341 120.026 84.8897 120.175 84.8859C120.324 84.882 120.466 84.8191 120.568 84.7108C120.671 84.6025 120.727 84.4577 120.723 84.3084H120.685Z" fill="#2E2221"/>
<path d="M276.32 97.6958C277.611 90.5507 278.24 83.3016 278.2 76.0408C278.105 69.0565 277.17 62.1091 275.416 55.3482C272.049 42.4226 265.947 30.3247 258.7 19.1844C256.603 15.965 254.371 12.8371 252.159 9.7043C250.038 6.71591 247.889 3.69865 245.162 1.22517C245.03 1.09974 244.871 1.00529 244.698 0.94863C244.525 0.891973 244.341 0.874525 244.16 0.897546C243.979 0.920568 243.806 0.983483 243.652 1.08175C243.499 1.18002 243.369 1.31118 243.272 1.46578C238.325 8.005 233.989 14.9847 230.317 22.3171C226.631 29.6794 223.62 37.3606 221.319 45.2666C219.897 50.17 218.757 55.1508 217.905 60.1845C217.829 60.4918 217.875 60.8161 218.031 61.0909C218.188 61.3657 218.444 61.57 218.746 61.6619C219.053 61.7448 219.38 61.7034 219.656 61.5466C219.933 61.3899 220.136 61.1304 220.223 60.8245C223.799 39.7025 232.419 19.7569 245.35 2.68327L243.46 2.92388C245.807 5.05088 247.706 7.58211 249.534 10.1422C251.5 12.9044 253.477 15.657 255.357 18.4722C259.062 23.9667 262.409 29.6939 265.379 35.6181C271.198 47.3648 275.122 60.069 275.714 73.216C275.998 81.1883 275.424 89.168 274.002 97.0173C273.925 97.3239 273.97 97.6483 274.125 97.9233C274.281 98.1982 274.536 98.4028 274.839 98.4946C275.141 98.5781 275.464 98.5415 275.739 98.3927C276.015 98.2439 276.223 97.9942 276.32 97.6958Z" fill="#2E2221"/>
<path d="M262.739 84.3086C263.126 75.1146 262.154 65.9138 259.853 57.0042C258.676 52.5231 257.231 48.1168 255.525 43.8091C253.905 39.6225 252.26 35.1134 249.976 31.2396C249.384 30.2339 248.091 30.46 247.504 31.3022C243.835 36.5571 239.92 41.3597 236.895 47.0525C234.018 52.5482 231.711 58.3241 230.009 64.2899C229.432 66.258 232.442 66.9654 233.072 65.055C234.965 59.3071 237.318 53.7213 240.108 48.3518C242.844 43.0921 245.84 37.4089 249.812 32.9864L247.552 32.7506C249.923 36.8699 252.433 40.6523 254.323 45.0555C256.013 49.0673 257.391 53.2036 258.444 57.4276C260.656 66.2234 261.721 75.2684 261.614 84.3375C261.614 85.069 262.705 85.0257 262.739 84.3086Z" fill="#2E2221"/>
<path d="M147.293 174.322C144.23 175.172 141.26 176.325 138.425 177.763C135.61 179.192 132.88 180.784 130.25 182.531C124.903 186.013 119.888 189.98 115.27 194.384C110.836 198.58 106.08 203.354 104.464 209.427C102.93 215.201 105.555 221.279 109.643 225.384C112.091 227.737 114.943 229.626 118.064 230.961C121.417 232.426 124.876 233.632 128.413 234.571C128.249 234.017 128.09 233.464 127.932 232.906C125.384 236.239 123.704 240.153 123.041 244.296C122.906 245.172 123.955 245.913 124.638 245.172C126.97 242.645 129.413 240.22 131.736 237.684C132.515 236.837 131.447 235.408 130.442 236.086C128.887 237.153 127.737 238.713 127.176 240.514C126.615 242.315 126.676 244.252 127.35 246.014C127.392 246.158 127.467 246.289 127.569 246.399C127.671 246.508 127.796 246.593 127.936 246.645C128.076 246.697 128.227 246.716 128.375 246.7C128.524 246.684 128.667 246.634 128.793 246.553C132.127 244.525 134.63 241.373 135.852 237.665C136.174 236.611 134.765 235.961 134.054 236.674C132.763 237.98 131.819 239.589 131.31 241.355C130.801 243.12 130.742 244.985 131.139 246.779C131.187 246.931 131.269 247.07 131.378 247.185C131.487 247.301 131.621 247.39 131.77 247.446C131.918 247.502 132.078 247.524 132.236 247.509C132.394 247.494 132.547 247.444 132.683 247.361C134.48 246.183 136.013 244.646 137.187 242.847C138.361 241.047 139.151 239.024 139.506 236.904C139.861 234.784 139.774 232.614 139.25 230.53C138.726 228.445 137.778 226.492 136.463 224.792C135.758 223.846 134.952 222.979 134.059 222.208C133.147 221.36 132.129 220.635 131.029 220.052L131.091 222.713L135.9 220.182C137.516 219.33 139.171 218.589 140.834 217.834C141.671 217.454 141.825 216.202 141.387 215.49C141.146 215.111 140.766 214.841 140.329 214.738C139.891 214.635 139.431 214.706 139.045 214.937C137.483 215.856 135.929 216.78 134.309 217.608L129.5 220.105C128.49 220.625 128.567 222.285 129.562 222.761C130.438 223.121 131.281 223.555 132.082 224.061C132.777 224.567 133.421 225.139 134.006 225.769C135.241 227.057 136.188 228.594 136.78 230.278C137.374 232.023 137.595 233.874 137.43 235.71C137.264 237.546 136.715 239.327 135.819 240.937C134.802 242.808 133.352 244.409 131.591 245.605L133.135 246.192C132.795 244.753 132.844 243.249 133.276 241.834C133.707 240.42 134.507 239.145 135.593 238.141L133.794 237.15C132.737 240.351 130.615 243.092 127.783 244.917L129.225 245.456C128.698 244.11 128.643 242.626 129.068 241.245C129.494 239.864 130.375 238.668 131.567 237.853L130.269 236.255C127.908 238.752 125.662 241.365 123.31 243.877L124.902 244.753C125.519 240.945 127.069 237.349 129.413 234.287C129.529 234.158 129.611 234.002 129.65 233.833C129.689 233.665 129.684 233.489 129.636 233.322C129.587 233.156 129.497 233.005 129.374 232.883C129.251 232.761 129.099 232.673 128.932 232.626C123.161 230.966 117.015 229.58 112.331 225.567C110.336 223.859 108.45 221.674 107.465 219.21C106.506 216.743 106.388 214.028 107.128 211.486C107.811 208.897 109.475 206.318 111.018 204.321C112.872 202.003 114.869 199.803 116.996 197.733C121.212 193.53 125.771 189.687 130.625 186.242C133.352 184.288 136.16 182.45 139.06 180.756C140.531 179.894 141.945 178.951 143.427 178.08C144.908 177.209 146.36 176.377 147.793 175.443C147.914 175.36 148.002 175.236 148.041 175.095C148.08 174.953 148.068 174.802 148.008 174.669C147.947 174.535 147.841 174.427 147.709 174.364C147.576 174.3 147.426 174.285 147.283 174.322H147.293Z" fill="#2E2221"/>
<path d="M174.407 282.24C175.482 282.708 176.595 283.08 177.735 283.352C178.875 283.684 180.014 284.016 181.168 284.286C183.468 284.838 185.796 285.263 188.142 285.561C192.948 286.154 197.798 286.301 202.631 285.999C205.371 285.736 208.091 285.294 210.773 284.675C212.394 284.348 211.951 281.687 210.316 281.788C207.988 281.961 205.656 281.904 203.328 282.019C201.001 282.135 198.659 282.192 196.317 282.221C191.705 282.279 187.069 282.058 182.472 281.711C181.188 281.615 179.904 281.514 178.624 281.393C177.323 281.192 176.011 281.057 174.696 280.989C174.553 280.995 174.415 281.048 174.305 281.138C174.194 281.229 174.116 281.354 174.082 281.493C174.049 281.632 174.061 281.778 174.118 281.91C174.175 282.041 174.273 282.15 174.397 282.221L174.407 282.24Z" fill="#2E2221"/>
<path d="M232.942 174.249C233.307 174.817 233.639 175.409 234.014 175.962C234.389 176.516 234.923 177.166 235.37 177.762C236.204 178.879 237.028 180.001 237.842 181.131C239.503 183.412 241.131 185.715 242.728 188.041C245.921 192.704 249.009 197.435 252.11 202.155C253.851 204.807 255.477 207.545 257.4 210.052C257.524 210.243 257.689 210.403 257.883 210.521C258.077 210.64 258.294 210.714 258.52 210.737C258.746 210.761 258.974 210.733 259.188 210.657C259.402 210.581 259.596 210.458 259.757 210.298C261.281 208.854 263.085 207.646 264.749 206.356C266.413 205.067 268.163 203.705 269.885 202.391C273.321 199.773 276.76 197.152 280.2 194.528C280.511 194.329 280.734 194.019 280.823 193.661C280.913 193.303 280.862 192.925 280.681 192.603C279.622 190.209 279.391 187.531 280.022 184.99L277.709 185.664C279.952 187.681 281.741 190.153 282.956 192.916C283.012 193.089 283.106 193.247 283.231 193.378C283.357 193.51 283.51 193.611 283.68 193.676C283.85 193.74 284.032 193.765 284.213 193.749C284.394 193.734 284.569 193.677 284.725 193.585C288.794 191.054 294.036 190.808 298.484 192.464L298.431 190.134C294.877 191.549 291.391 193.161 287.817 194.523C287.569 194.614 287.365 194.797 287.247 195.034C287.128 195.271 287.105 195.544 287.181 195.798C287.257 196.051 287.427 196.266 287.656 196.399C287.885 196.531 288.156 196.571 288.414 196.511C291.978 195.625 295.746 196.141 298.941 197.954C299.013 197.256 299.09 196.559 299.162 195.861L293.665 197.256C291.828 197.738 290.044 198.358 288.197 198.763L288.789 200.716C291.727 199.788 295.372 200.832 297.267 203.315L298.681 201.39C294.236 200.512 289.625 201.107 285.548 203.084C283.517 204.02 281.626 205.234 279.931 206.693C278.158 208.289 276.657 210.163 275.487 212.242C273.059 216.424 271.736 221.149 269.163 225.235C268.865 225.716 268.557 226.173 268.225 226.625C268.336 226.471 267.999 226.919 267.932 227.001C267.745 227.241 267.547 227.482 267.345 227.708C266.988 228.124 266.61 228.521 266.211 228.897C266.037 229.065 265.855 229.224 265.677 229.378C265.249 229.763 265.807 229.277 265.547 229.489L265.191 229.763C264.757 230.083 264.305 230.375 263.835 230.639C263.623 230.759 263.412 230.865 263.195 230.971C262.681 231.226 263.364 230.908 263.051 231.038L262.541 231.236C262.01 231.434 261.465 231.595 260.911 231.717L260.517 231.789C260.796 231.746 260.382 231.789 260.319 231.789C259.992 231.827 259.665 231.847 259.358 231.856C259.05 231.866 258.704 231.856 258.396 231.856L257.915 231.823C257.607 231.823 257.915 231.823 257.718 231.823C257.026 231.724 256.34 231.584 255.664 231.404C254.422 231.074 253.218 230.615 252.072 230.032C249.492 228.713 247.025 227.184 244.695 225.461C243.887 224.888 242.55 225.36 242.132 226.202C241.9 226.642 241.847 227.156 241.985 227.634C242.124 228.112 242.441 228.518 242.872 228.767C246.994 231.693 251.61 234.71 256.722 235.408C259.262 235.814 261.864 235.513 264.244 234.537C266.444 233.541 268.387 232.055 269.923 230.191C273.044 226.486 274.679 221.948 276.526 217.54C277.445 215.169 278.627 212.909 280.051 210.803C281.262 209.154 282.741 207.721 284.427 206.563C288.274 203.902 293.482 203.06 298.041 203.907C298.288 203.966 298.547 203.952 298.786 203.867C299.025 203.781 299.234 203.628 299.388 203.426C299.543 203.22 299.632 202.972 299.644 202.714C299.656 202.457 299.59 202.202 299.455 201.982C298.168 200.313 296.382 199.099 294.356 198.518C292.331 197.937 290.173 198.019 288.197 198.753C286.995 199.234 287.51 201.077 288.789 200.707C290.607 200.177 292.482 199.889 294.324 199.427L299.826 198.041C300.787 197.791 300.864 196.414 300.047 195.943C298.21 194.893 296.18 194.224 294.079 193.976C291.978 193.728 289.848 193.906 287.817 194.499C288.015 195.163 288.217 195.822 288.414 196.487C291.944 195.043 295.579 193.821 299.128 192.425C299.375 192.342 299.589 192.181 299.738 191.967C299.888 191.754 299.965 191.498 299.958 191.237C299.952 190.976 299.862 190.724 299.703 190.518C299.543 190.312 299.321 190.162 299.071 190.091C293.92 188.166 288.231 188.888 283.47 191.535L285.24 192.204C284.059 188.948 282.14 186.011 279.633 183.623C279.454 183.459 279.237 183.342 279.001 183.286C278.765 183.23 278.518 183.236 278.285 183.303C278.052 183.371 277.84 183.497 277.67 183.67C277.5 183.844 277.378 184.058 277.315 184.292C276.474 187.555 276.814 191.011 278.276 194.047L278.757 192.122C275.295 194.781 271.835 197.447 268.379 200.12C266.667 201.438 264.941 202.742 263.219 204.047C261.498 205.351 259.781 206.842 257.929 207.983L259.992 208.464C258.655 205.933 257.153 203.493 255.496 201.159C253.941 198.836 252.338 196.546 250.687 194.287C247.321 189.663 243.728 185.192 240.107 180.779C239.104 179.567 238.091 178.357 237.068 177.151L235.534 175.351C235 174.731 234.37 174.182 233.783 173.609C233.69 173.524 233.569 173.475 233.442 173.471C233.315 173.467 233.192 173.509 233.093 173.589C232.995 173.669 232.928 173.781 232.906 173.906C232.883 174.031 232.906 174.159 232.971 174.269L232.942 174.249Z" fill="#2E2221"/>
<path d="M232.706 184.494C232.815 185.728 233.058 186.947 233.432 188.128C233.822 189.268 234.183 190.418 234.529 191.573C235.231 193.926 235.9 196.289 236.453 198.676C237.575 203.337 238.427 208.06 239.006 212.819C240.153 222.593 240.341 232.455 239.569 242.265C238.768 252.174 237.204 262.005 234.89 271.673C232.494 281.701 229.542 291.588 226.046 301.287C222.598 310.974 218.77 320.536 214.85 330.021C214.345 331.243 213.86 332.47 213.408 333.721C212.797 335.454 215.615 336.551 216.409 334.9C218.65 330.237 220.458 325.334 222.377 320.531C224.343 315.618 226.267 310.685 228.104 305.719C231.74 295.96 235.039 286.066 237.703 276.008C240.38 266.105 242.253 256.002 243.305 245.797C244.352 235.909 244.331 225.937 243.243 216.053C242.094 206.198 239.877 196.515 236.077 187.324C235.586 186.151 234.929 185.056 234.125 184.071C233.707 183.546 232.605 183.648 232.682 184.494H232.706Z" fill="#2E2221"/>
<path d="M192.874 284.998C193.09 288.958 193.234 292.923 193.354 296.889C193.494 300.777 193.778 304.665 193.96 308.553C194.323 316.416 194.459 324.286 194.369 332.162C194.321 336.613 194.206 341.065 194.052 345.516C194.065 345.819 194.196 346.105 194.415 346.314C194.635 346.523 194.927 346.639 195.23 346.637C203.405 346.993 211.629 347.32 219.814 347.845C220.809 347.912 221.285 346.498 220.574 345.872C218.65 344.154 216.726 342.388 214.692 340.766C214.461 340.558 214.159 340.448 213.848 340.459C213.537 340.471 213.243 340.603 213.029 340.829C212.815 341.054 212.697 341.354 212.7 341.665C212.703 341.976 212.828 342.273 213.047 342.494C215.933 345.93 220.261 347.965 224.772 347.455C224.947 347.448 225.119 347.401 225.273 347.318C225.428 347.235 225.562 347.118 225.665 346.976C225.768 346.834 225.838 346.67 225.869 346.498C225.9 346.325 225.892 346.147 225.844 345.978C225.142 343.371 223.626 341.058 221.516 339.376C221.322 339.202 221.078 339.094 220.819 339.067C220.56 339.04 220.299 339.096 220.073 339.226C219.851 339.364 219.681 339.571 219.588 339.816C219.496 340.06 219.487 340.328 219.564 340.579C220.343 342.439 221.733 343.978 223.505 344.94C225.276 345.903 227.323 346.231 229.307 345.872C230.105 345.728 230.206 344.775 229.942 344.197C228.613 341.293 226.68 338.706 224.272 336.608C221.833 334.423 219.019 332.697 215.966 331.512C215.101 331.19 214.096 331.931 213.894 332.754C213.788 333.193 213.859 333.657 214.091 334.044C214.323 334.432 214.698 334.713 215.135 334.828C217.933 335.399 220.546 336.654 222.742 338.48C224.97 340.386 226.772 342.738 228.032 345.386C228.244 344.828 228.456 344.27 228.662 343.711C225.931 344.193 222.891 342.455 221.843 339.895L219.891 341.098C221.703 342.503 223.024 344.445 223.666 346.647L224.733 345.165C221.112 345.603 216.996 344.13 214.904 341.007L213.067 342.499C214.99 344.255 217.02 345.867 219.015 347.537C219.27 346.878 219.525 346.218 219.775 345.559C211.576 345.28 203.381 344.794 195.191 344.342L196.37 345.463C197.067 329.648 196.721 313.804 195.336 298.034C194.951 293.645 194.177 289.256 193.479 284.906C193.422 284.56 192.854 284.656 192.874 285.002V284.998Z" fill="#2E2221"/>
<path d="M147.798 183.946C147.01 184.884 146.362 185.931 145.874 187.055C145.393 188.205 144.941 189.36 144.504 190.52C143.619 192.858 142.859 195.25 142.171 197.656C140.827 202.377 139.807 207.185 139.118 212.045C137.719 222.01 137.41 232.098 138.194 242.131C138.997 252.3 140.662 262.383 143.172 272.27C145.734 282.365 148.808 292.323 152.381 302.106C155.911 311.918 159.806 321.6 163.793 331.234C164.317 332.504 164.86 333.756 165.452 334.992C166.25 336.652 169.001 335.392 168.39 333.669C166.688 328.828 164.543 324.126 162.619 319.362C160.696 314.598 158.825 309.699 157.041 304.82C153.462 295.202 150.387 285.403 147.827 275.465C145.336 265.76 143.579 255.882 142.57 245.913C141.611 236.154 141.557 226.328 142.407 216.559C143.284 206.894 145.287 197.366 148.375 188.167C148.745 187.021 148.99 185.838 149.106 184.639C149.178 183.975 148.341 183.244 147.798 183.922V183.946Z" fill="#2E2221"/>
<path d="M188.353 284.915C187.727 288.813 187.136 292.721 186.66 296.643C186.184 300.565 185.948 304.583 185.737 308.553C185.313 316.416 185.118 324.285 185.15 332.161C185.15 336.614 185.256 341.066 185.467 345.515L186.588 344.336C178.412 344.789 170.203 345.299 162.004 345.554L162.86 347.479C164.856 345.818 166.895 344.192 168.809 342.44L166.885 341.04C164.899 344.009 160.807 345.597 157.334 345.178L158.171 346.569C158.776 344.46 160.023 342.593 161.739 341.228C161.182 340.702 160.627 340.174 160.076 339.644C158.994 342.339 156.031 344.216 153.102 343.677L153.819 345.318C155.079 342.672 156.881 340.32 159.109 338.417C161.319 336.597 163.944 335.351 166.75 334.789C167.169 334.644 167.515 334.343 167.717 333.949C167.918 333.555 167.959 333.097 167.831 332.673C167.703 332.249 167.415 331.892 167.029 331.675C166.643 331.458 166.188 331.4 165.76 331.512C162.719 332.707 159.917 334.44 157.488 336.627C155.09 338.733 153.164 341.322 151.838 344.226C151.757 344.378 151.711 344.546 151.704 344.718C151.697 344.89 151.73 345.062 151.798 345.22C151.867 345.378 151.971 345.518 152.102 345.63C152.233 345.742 152.388 345.823 152.554 345.867C156.43 346.55 160.609 344.5 162.148 340.795C162.269 340.561 162.312 340.296 162.272 340.037C162.232 339.777 162.112 339.537 161.927 339.351C161.737 339.169 161.492 339.056 161.231 339.029C160.97 339.002 160.707 339.063 160.484 339.202C158.271 340.924 156.679 343.321 155.949 346.03C155.877 346.326 155.924 346.638 156.081 346.899C156.238 347.159 156.491 347.347 156.786 347.421C159.053 347.689 161.35 347.368 163.456 346.487C165.544 345.595 167.381 344.206 168.809 342.44C169.004 342.229 169.116 341.954 169.127 341.667C169.138 341.379 169.045 341.097 168.866 340.872C168.687 340.644 168.429 340.49 168.144 340.441C167.858 340.391 167.564 340.448 167.318 340.602C165.216 342.286 163.221 344.11 161.201 345.895C160.455 346.555 161.11 347.893 162.057 347.82C170.232 347.296 178.446 346.969 186.645 346.613C186.948 346.6 187.234 346.47 187.443 346.25C187.651 346.029 187.765 345.737 187.761 345.434C187.227 329.688 187.405 313.967 188.391 298.245C188.67 293.823 188.718 289.381 188.963 284.959C188.963 284.612 188.406 284.545 188.353 284.891V284.915Z" fill="#2E2221"/>
<path d="M144.076 251.491C141.716 250.284 139.231 249.338 136.666 248.671C135.402 248.319 134.117 248.05 132.818 247.867C131.453 247.684 130.082 247.598 128.707 247.487C126.028 247.275 123.195 247.713 120.531 248.103C117.723 248.512 114.943 249.065 112.173 249.657C106.556 250.879 100.978 252.381 95.2646 253.103C92.3577 253.49 89.4234 253.63 86.4929 253.521C85.9687 253.521 85.4397 253.459 84.9155 253.411L84.5212 253.372C84.1846 253.338 84.7905 253.406 84.4587 253.372L83.569 253.252C82.4822 253.088 81.4001 252.876 80.3325 252.612C79.2649 252.347 78.2069 252.025 77.173 251.649L76.7306 251.486L75.9948 251.183C75.453 250.945 74.9143 250.695 74.3789 250.432C73.4149 249.945 72.4803 249.402 71.5801 248.805C71.3637 248.661 71.1521 248.512 70.9405 248.363C70.7289 248.213 71.1617 248.531 70.8972 248.329L70.5894 248.098C70.1566 247.761 69.7382 247.41 69.3295 247.044C68.9207 246.678 68.5792 246.346 68.2234 245.976C68.0438 245.793 67.8707 245.605 67.704 245.413L67.4491 245.124C67.4203 245.09 67.0981 244.701 67.252 244.893C67.4058 245.086 67.1558 244.768 67.1221 244.725L66.8913 244.421C66.7374 244.215 66.5931 244.003 66.4488 243.796C66.1411 243.343 65.8525 242.877 65.588 242.4C65.4582 242.174 65.338 241.948 65.2225 241.717C65.1841 241.64 64.8619 240.957 65.0302 241.337C64.7529 240.709 64.5105 240.066 64.304 239.412C64.1165 238.81 63.9578 238.204 63.8231 237.588C63.7006 237.049 63.617 236.503 63.573 235.952C63.3179 233.457 63.4492 230.938 63.9626 228.483C64.4924 225.92 65.2554 223.41 66.2421 220.986C68.2859 215.996 71.0511 211.361 73.4075 206.501C75.711 201.756 77.6635 196.785 78.2406 191.511C78.7046 187.156 78.3242 182.753 77.1201 178.542C74.6902 170.089 69.4409 162.724 62.2457 157.672C58.7352 155.182 54.7512 153.441 50.5406 152.556C46.2051 151.722 41.7471 151.759 37.4263 152.667C29.0923 154.37 21.3353 159.38 16.1175 166.074C14.8086 167.75 13.6802 169.56 12.7512 171.473C11.7911 173.369 11.0087 175.351 10.414 177.392C9.28869 181.492 8.45673 186.015 10.1014 190.111C10.8228 191.915 12.1116 193.768 13.9486 194.586C15.5579 195.256 17.3599 195.297 18.9981 194.702C20.5768 194.26 21.9241 193.226 22.7588 191.814C23.1473 191.048 23.3059 190.187 23.2154 189.333C23.1249 188.479 22.7893 187.669 22.249 187.002C21.6115 186.262 20.8158 185.676 19.9208 185.286C19.0259 184.896 18.0547 184.713 17.0793 184.75C14.7421 184.784 12.6454 186.04 10.9815 187.599C9.28247 189.301 7.8173 191.222 6.62449 193.311C5.39792 195.322 4.33799 197.43 3.45533 199.615C-0.116128 208.628 -0.828051 218.522 1.41631 227.954C2.49402 232.594 4.31622 237.03 6.81204 241.087C9.35121 245.182 12.9484 249.186 17.7814 250.427C21.999 251.51 27.2264 250.461 29.5876 246.481C31.5112 243.214 31.1409 238.392 27.9333 236.058C27.7306 235.878 27.4869 235.751 27.2237 235.687C26.9605 235.623 26.6857 235.625 26.4233 235.692C25.8761 235.804 25.3401 235.965 24.8219 236.173C23.8022 236.566 22.8461 237.108 21.9845 237.781C20.2038 239.193 18.7818 241.007 17.8343 243.074C15.5164 248.084 15.9107 253.844 16.8004 259.137C18.296 267.799 21.6479 276.432 27.1494 283.352C29.8188 286.8 33.0985 289.728 36.8252 291.99C40.9058 294.423 45.5422 295.767 50.2905 295.893C61.0916 296.302 71.3829 290.951 79.818 284.666C88.253 278.381 95.5435 270.634 104.45 264.936C111.995 260.124 121.094 256.991 130.173 258.584C134.17 259.282 138.108 260.942 141.099 263.738C142.326 264.888 144.129 262.997 142.898 261.846C140.918 259.948 138.615 258.417 136.098 257.328C133.489 256.248 130.734 255.565 127.923 255.302C122.264 254.815 116.568 255.611 111.259 257.631C99.1984 262.063 89.9169 271.586 80.1065 279.31C70.2961 287.034 58.0859 294.382 45.3612 291.442C40.4673 290.275 35.9805 287.804 32.3769 284.291C28.6312 280.616 25.5869 276.287 23.3936 271.519C20.9711 266.457 19.3132 261.063 18.4739 255.514C17.9594 252.087 17.743 248.531 18.8683 245.201C19.7162 242.602 21.3962 240.354 23.6485 238.806C24.7367 238.092 25.9619 237.613 27.2456 237.4L26.5387 237.328C28.5392 238.555 29.1452 241.144 28.6787 243.334C28.116 245.913 26.1059 247.689 23.5475 248.319C17.3246 249.883 12.1068 245.033 9.05305 240.187C5.83669 235.002 3.77944 229.182 3.02252 223.127C2.27168 217.046 2.69617 210.877 4.27287 204.956C5.02663 202.011 6.08722 199.153 7.43721 196.429C8.80779 193.691 10.4332 190.852 12.6262 188.691C14.5882 186.766 17.464 185.578 20.0705 186.992C20.583 187.245 21.026 187.619 21.3612 188.082C21.6965 188.545 21.9137 189.083 21.9942 189.649C22.0125 190.146 21.9157 190.642 21.7113 191.096C21.5069 191.55 21.2005 191.95 20.8159 192.267C20.0183 193 19.0273 193.49 17.9603 193.677C16.8932 193.865 15.7948 193.743 14.795 193.325C12.3905 192.19 11.2508 189.341 10.9478 186.858C10.3323 181.449 12.3905 175.833 15.4202 171.459C18.4568 167.048 22.4415 163.373 27.0821 160.703C27.6592 160.371 28.2411 160.058 28.8374 159.741C29.1195 159.596 29.4033 159.457 29.6886 159.322C29.6886 159.322 30.2513 159.067 29.9435 159.202L30.4629 158.976C31.7368 158.435 33.0405 157.967 34.3678 157.575C35.6316 157.191 36.916 156.877 38.215 156.637L38.7729 156.541C38.3833 156.603 38.7103 156.541 38.7729 156.541C39.1143 156.493 39.4509 156.444 39.7924 156.406C40.5089 156.319 41.2351 156.262 41.9468 156.228C43.2631 156.168 44.5819 156.192 45.895 156.3L46.4577 156.353C45.9768 156.305 46.4144 156.353 46.5298 156.353C46.8761 156.396 47.2175 156.444 47.559 156.497C48.2467 156.613 48.9247 156.748 49.6028 156.906C50.8862 157.206 52.1515 157.579 53.3923 158.023L53.9213 158.22C53.4404 158.028 54.0031 158.259 54.0752 158.287C54.3638 158.408 54.6475 158.533 54.9312 158.663C55.5564 158.947 56.1719 159.25 56.7779 159.577C57.9779 160.212 59.1374 160.921 60.25 161.699L60.6299 161.974C60.2115 161.67 60.7165 162.041 60.7694 162.084C61.0195 162.272 61.2503 162.469 61.51 162.667C62.0454 163.1 62.568 163.549 63.0777 164.014C64.0981 164.943 65.0617 165.933 65.9631 166.978C66.1699 167.214 66.3719 167.46 66.5739 167.7C66.2998 167.378 66.5162 167.628 66.5739 167.7L66.9201 168.148C67.3481 168.696 67.7521 169.255 68.1464 169.827C68.9313 170.969 69.6506 172.155 70.3009 173.379C70.599 173.937 70.878 174.5 71.1473 175.068C71.1761 175.13 71.4262 175.708 71.2194 175.231L71.3733 175.578C71.5224 175.924 71.6618 176.276 71.8013 176.627C72.3061 177.91 72.7333 179.223 73.0805 180.558C73.2392 181.165 73.3835 181.776 73.5037 182.387C73.5662 182.695 73.6191 183.003 73.6768 183.311C73.7922 183.927 73.6191 182.83 73.7057 183.465C73.7345 183.682 73.7682 183.898 73.797 184.115C73.9676 185.447 74.0544 186.789 74.0567 188.133C74.0567 188.758 74.0327 189.379 73.9942 190.005C73.9942 190.351 73.9413 190.693 73.9125 191.035C73.8836 191.376 73.9846 190.5 73.9125 191.102C73.8836 191.319 73.8596 191.54 73.8259 191.756C73.3203 194.953 72.4105 198.072 71.1184 201.039C68.3244 207.598 64.4579 213.642 61.8851 220.288C59.3699 226.814 57.9994 234.301 60.3943 241.072C62.4141 246.794 66.872 251.221 72.2437 253.901C77.9472 256.75 84.3288 257.751 90.6575 257.395C98.3279 256.977 105.806 254.917 113.26 253.132C116.656 252.275 120.096 251.607 123.566 251.13C127.038 250.692 130.51 250.519 133.997 250.413C137.354 250.356 140.689 250.97 143.807 252.217C144.235 252.386 144.495 251.683 144.1 251.471L144.076 251.491Z" fill="#2E2221"/>
<path d="M155.469 183.171C153.959 184.825 152.708 186.699 151.761 188.729C150.827 190.778 150.135 192.929 149.698 195.139C148.831 199.671 148.949 204.337 150.044 208.82C150.617 211.366 151.617 213.797 153.002 216.009C153.172 216.276 153.415 216.487 153.703 216.617C153.991 216.747 154.311 216.79 154.623 216.741C154.935 216.697 155.226 216.56 155.459 216.348C155.693 216.136 155.857 215.859 155.931 215.552C156.142 213.704 156.352 211.855 156.561 210.004C156.767 208.156 156.893 206.284 157.2 204.455L155.334 204.248C155.215 211.013 157.287 217.634 161.24 223.122C161.788 223.882 162.37 224.623 162.99 225.331C163.611 226.038 164.433 226.625 165.097 227.323C165.168 227.389 165.254 227.439 165.348 227.468C165.441 227.496 165.54 227.504 165.636 227.489C165.733 227.474 165.825 227.437 165.906 227.382C165.986 227.327 166.053 227.254 166.102 227.169C168.465 222.815 169.765 217.964 169.896 213.011L167.626 213.377C168.896 218.689 170.754 223.843 173.166 228.743C175.522 233.569 178.41 238.118 181.774 242.303C183.352 244.228 185.295 246.042 187.771 246.687C190.527 247.409 193.1 246.302 195.105 244.43C197.029 242.64 198.582 240.359 200.116 238.232C201.65 236.105 203.165 233.81 204.55 231.495C205.316 230.212 206.052 228.921 206.757 227.621C207.498 226.245 208.08 224.797 208.792 223.406C210.181 220.696 211.427 217.92 212.567 215.095C212.666 214.904 212.7 214.685 212.664 214.472C212.629 214.26 212.525 214.064 212.369 213.916C212.213 213.767 212.012 213.673 211.798 213.648C211.584 213.623 211.368 213.668 211.182 213.777C207.868 215.36 208.753 220.302 211.36 222.082C213.081 223.257 215.409 222.925 217.155 221.991C219.031 220.928 220.446 219.204 221.122 217.155C222.055 214.498 222.045 211.621 221.992 208.844L220.55 209.07C220.848 210.155 221.144 211.237 221.439 212.318C221.624 212.858 221.767 213.412 221.867 213.974C221.92 214.513 221.915 215.061 221.935 215.605C221.941 215.788 221.989 215.966 222.075 216.127C222.161 216.288 222.283 216.427 222.431 216.534C222.579 216.641 222.75 216.713 222.929 216.743C223.109 216.774 223.294 216.763 223.469 216.712C224.072 216.426 224.592 215.99 224.979 215.446C225.383 214.994 225.772 214.527 226.147 214.051C226.926 213.077 227.635 212.05 228.268 210.976C229.469 208.917 230.452 206.738 231.202 204.475C231.995 202.159 232.433 199.737 232.5 197.29C232.572 196.106 232.529 194.918 232.37 193.743C232.284 193.224 232.164 192.709 232.038 192.194C231.92 191.595 231.839 190.989 231.798 190.38C231.517 187.733 230.916 185.129 230.009 182.627C229.793 182.03 228.836 182.314 229.047 182.916C229.819 185.048 230.343 187.262 230.61 189.513C230.678 190.057 230.73 190.601 230.769 191.15C230.793 191.751 230.739 192.352 230.61 192.94C230.413 193.998 230.302 195.067 230.129 196.13C229.739 198.345 229.23 200.538 228.605 202.699C228.012 204.805 227.193 206.842 226.162 208.772C225.57 209.898 224.907 210.995 224.209 212.059C223.911 212.54 223.599 212.983 223.248 213.425C222.815 214.003 222.151 214.59 221.983 215.302L224.147 214.96C223.892 214.479 223.594 214.032 223.368 213.546C223.169 213.009 223.008 212.459 222.887 211.9L221.964 208.666C221.926 208.482 221.818 208.319 221.664 208.212C221.51 208.105 221.32 208.062 221.134 208.091C220.949 208.12 220.782 208.219 220.667 208.368C220.553 208.518 220.501 208.705 220.521 208.892C220.631 212.607 220.766 217.073 217.506 219.609C216.26 220.571 214.673 221.11 213.125 220.624C212.627 220.44 212.185 220.13 211.84 219.726C211.496 219.321 211.261 218.836 211.158 218.314C210.869 217.188 211.114 216.019 212.206 215.475L210.773 214.393C209.85 216.799 208.806 219.147 207.676 221.457C206.491 223.756 205.183 225.989 203.757 228.146C201.045 232.474 197.972 236.564 194.571 240.374C193.891 241.176 193.121 241.897 192.277 242.525C191.559 243.101 190.668 243.419 189.748 243.429H189.392C189.695 243.429 189.329 243.429 189.253 243.429C188.993 243.381 188.748 243.304 188.493 243.237C188.449 243.237 188.175 243.121 188.425 243.237L188.103 243.093C187.834 242.961 187.573 242.815 187.319 242.655C186.441 242.086 185.644 241.401 184.948 240.619C184.18 239.785 183.462 238.906 182.799 237.987C182.02 236.947 181.266 235.892 180.539 234.82C179.125 232.732 177.812 230.579 176.6 228.362C173.848 223.38 171.593 218.138 169.867 212.713C169.483 211.476 167.545 211.751 167.597 213.079C167.788 217.711 166.899 222.324 165.001 226.553L166.006 226.399C165.278 225.659 164.606 224.866 163.995 224.027C163.341 223.234 162.729 222.407 162.163 221.548C158.764 216.426 157.044 210.37 157.244 204.224C157.282 203.17 155.575 202.968 155.382 204.017C155.055 205.832 154.541 207.622 154.113 209.412L152.829 214.802L155.758 214.344C154.795 212.54 153.976 210.662 153.31 208.729C152.669 206.778 152.249 204.762 152.059 202.718C151.672 198.527 152.15 194.301 153.464 190.303C153.824 189.205 154.281 188.132 154.7 187.054C155.147 185.923 155.672 184.825 156.272 183.768C156.348 183.664 156.38 183.534 156.36 183.406C156.34 183.279 156.27 183.165 156.166 183.089C156.062 183.013 155.933 182.982 155.805 183.001C155.678 183.021 155.564 183.091 155.488 183.195L155.469 183.171Z" fill="#2E2221"/>
<path d="M152.352 122.946L152.285 123.009L152.064 123.312L151.924 123.663C151.874 123.855 151.874 124.058 151.924 124.25C151.927 124.38 151.965 124.506 152.035 124.616C152.07 124.737 152.136 124.846 152.227 124.933C152.294 125.041 152.387 125.13 152.496 125.193C152.59 125.28 152.704 125.341 152.828 125.371C153.004 125.458 153.2 125.498 153.396 125.487L153.78 125.424L154.127 125.266L154.42 125.03L154.641 124.727L154.781 124.375C154.834 124.183 154.834 123.98 154.781 123.788C154.78 123.659 154.743 123.532 154.675 123.422C154.613 123.237 154.504 123.071 154.358 122.941L154.295 122.888C154.173 122.758 154.019 122.664 153.848 122.614C153.683 122.531 153.498 122.495 153.314 122.508L152.948 122.566C152.722 122.635 152.517 122.761 152.352 122.932V122.946Z" fill="#FFD18C"/>
</svg>
