<svg viewBox="0 0 437 417" fill="none" xmlns="http://www.w3.org/2000/svg">
<path d="M202.216 73.9195C199.429 74.4584 196.711 75.1083 194.062 75.8693C193.265 71.7403 192.168 67.6768 191.027 63.6297C189.761 59.1565 188.336 54.7271 186.688 50.3796C183.384 41.6373 179.294 33.2135 174.467 25.2121C171.742 20.701 168.781 16.3365 165.598 12.1368C165.489 11.9601 165.342 11.81 165.168 11.6974C164.994 11.5847 164.797 11.5124 164.592 11.4857C164.386 11.459 164.177 11.4786 163.98 11.5431C163.783 11.6075 163.603 11.7152 163.453 11.8582C160.724 14.3433 158.486 17.3199 156.357 20.3184C154.103 23.4753 151.838 26.6267 149.682 29.8491C145.377 36.2241 141.493 42.8743 138.056 49.757C131.245 63.5477 126.698 78.4145 126.048 93.8547C125.661 103.025 126.534 112.201 128.084 121.229C139.257 110.933 150.462 101.02 164.108 92.2817C175.93 84.4787 188.748 78.3026 202.216 73.9195Z" fill="#2E2221"/>
<path d="M324.499 118.148C323.773 117.324 323.036 116.51 322.288 115.701C323.184 109.436 323.608 103.111 323.555 96.7821C323.446 88.8551 322.385 80.9701 320.394 73.2968C316.574 58.6212 309.647 44.8959 301.422 32.2467C299.042 28.5928 296.51 25.0481 293.999 21.4926C291.592 18.1009 289.152 14.6709 286.058 11.8636C285.907 11.7206 285.727 11.6129 285.53 11.5484C285.333 11.484 285.124 11.4644 284.919 11.4911C284.713 11.5178 284.516 11.5901 284.342 11.7027C284.168 11.8154 284.021 11.9655 283.912 12.1421C278.297 19.5612 273.375 27.4812 269.208 35.8022C265.025 44.16 261.607 52.8797 258.996 61.8545C257.752 66.131 256.704 70.4676 255.847 74.837C253.151 74.1597 250.422 73.5771 247.66 73.0892C248.688 73.5952 249.767 73.9871 250.88 74.258C277.663 84.7499 302.988 99.3327 324.499 118.148Z" fill="#2E2221"/>
<path d="M350.67 163.469C350.831 163.188 350.883 162.858 350.818 162.541C351.053 162.233 351.199 161.867 351.24 161.481C351.281 161.096 351.216 160.707 351.052 160.356C350.987 160.187 350.91 160.018 350.839 159.848C334.465 140.383 311.607 126.472 288.012 119.568C266.179 113.014 238.889 126.122 232.339 150.154C229.064 148.515 225.244 150.7 222.515 151.246C218.694 152.339 216.511 146.877 214.327 143.6C205.595 126.669 187.037 116.291 167.934 119.022C138.859 122.256 114.57 140.902 98.2014 164.469C98.2014 164.469 98.2014 164.469 98.2014 164.507C111.444 177.603 126.593 188.615 143.132 197.168C150.465 200.894 158.077 204.044 165.898 206.589C163.453 205.541 161.035 204.405 158.655 203.149C161.035 204.405 163.453 205.541 165.898 206.589C168.314 207.387 170.752 208.133 173.212 208.829C172.933 208.916 172.666 209.014 172.382 209.107C177.52 210.897 182.776 212.328 188.112 213.389C190.531 211.316 193.305 209.696 196.299 208.61C193.305 209.696 190.531 211.316 188.112 213.389C200.398 215.863 212.979 216.557 225.227 216.257C239.421 215.752 253.576 214.476 267.631 212.433C264.526 205.505 259.698 199.488 253.609 194.956C259.698 199.488 264.526 205.505 267.631 212.433C270.562 212.002 273.493 211.549 276.413 211.041L275.676 210.183C285.684 207.466 295.423 203.841 304.773 199.353C322.185 190.985 338.422 179.45 350.25 164.043L350.408 164.256C350.654 164.6 351.216 164.256 350.954 163.912C350.872 163.753 350.768 163.611 350.67 163.469Z" fill="#FFD18C"/>
<path d="M220.915 289.859C220.719 289.902 220.528 289.952 220.331 289.99C220.532 289.977 220.729 289.932 220.915 289.859Z" fill="#FFD18C"/>
<path d="M78.2139 328.478C70.78 331.095 58.9469 328.566 60.9554 320.029C61.5013 315.66 68.0509 316.752 72.9632 316.752C62.0471 312.929 48.9477 300.367 54.9516 288.351C57.1348 283.436 66.4135 283.436 70.78 287.805C63.6845 279.613 59.318 267.051 65.8677 257.22C66.9265 256.181 68.2642 255.473 69.7179 255.183C71.1716 254.892 72.6784 255.03 74.0548 255.581C78.2084 257.662 80.3862 261.283 81.5597 265.33C82.0072 263.883 82.5039 262.49 83.0061 261.272C85.3258 255.608 88.4642 250.349 91.1386 244.832C93.753 239.447 95.969 233.811 96.624 227.825C97.1428 222.888 96.7054 217.898 95.3359 213.127C92.578 203.534 86.6202 195.174 78.454 189.44C74.4744 186.597 69.952 184.606 65.1691 183.59C60.2484 182.643 55.1882 182.687 50.2849 183.722C40.8261 185.655 32.0222 191.341 26.1002 198.938C24.6146 200.84 23.3339 202.894 22.2795 205.066C21.1898 207.216 20.3018 209.464 19.6269 211.778C18.4698 215.989 17.5965 220.593 18.8191 224.886C17.5159 226.447 16.3421 228.111 15.3095 229.862C13.9196 232.146 12.7167 234.539 11.7127 237.017C7.65954 247.246 6.85154 258.476 9.39845 269.181C10.6205 274.45 12.6887 279.485 15.5224 284.091C18.0713 288.204 21.5645 292.229 26.1329 294.081C25.9582 297.585 26.2019 301.098 26.8588 304.545C28.5563 314.376 32.3606 324.169 38.6046 332.029C41.6318 335.952 45.3543 339.284 49.5863 341.86C54.2185 344.619 59.4801 346.144 64.8689 346.289C65.5184 346.289 66.1625 346.289 66.8065 346.289C64.727 337.955 70.9274 331.887 78.2139 328.478Z" fill="#FFD18C"/>
<path d="M147.471 287.739C147.319 288.733 148.508 289.569 149.283 288.733L149.464 288.537C148.815 288.099 148.188 287.629 147.586 287.128C147.548 287.33 147.504 287.532 147.471 287.739Z" fill="#DD5E56"/>
<path d="M152.362 289.689C152.41 289.852 152.495 290.002 152.61 290.126C152.726 290.25 152.869 290.346 153.028 290.405C153.187 290.465 153.357 290.486 153.526 290.468C153.694 290.45 153.857 290.393 153.999 290.301C154.835 289.77 155.632 289.181 156.385 288.537C156.42 289.221 156.513 289.9 156.663 290.569C156.716 290.741 156.808 290.899 156.932 291.031C157.056 291.163 157.208 291.265 157.377 291.329C157.546 291.393 157.727 291.418 157.907 291.402C158.087 291.386 158.26 291.328 158.415 291.235C161.059 289.474 163.189 287.043 164.588 284.189C164.588 284.555 164.632 284.916 164.659 285.282C164.703 285.893 164.768 286.505 164.817 287.111C168.032 280.71 166.318 273.577 163.103 267.613C162.965 267.604 162.836 267.542 162.742 267.44C162.648 267.339 162.596 267.206 162.596 267.067C162.596 266.991 162.596 266.914 162.596 266.843C162.503 266.806 162.423 266.744 162.363 266.664C162.304 266.584 162.267 266.489 162.257 266.39C162.251 266.351 162.242 266.313 162.23 266.275L162.165 266.046C162.163 266.022 162.163 265.998 162.165 265.975C162.121 265.909 162.088 265.838 162.045 265.773C157.858 260.043 147.581 261.174 142.341 264.32C141.252 265.05 140.328 266.001 139.63 267.111C138.931 268.222 138.473 269.466 138.286 270.765C139.457 271.442 140.656 272.055 141.882 272.605C145.184 274.058 148.584 275.277 152.056 276.254C149.849 279.533 148.348 283.236 147.646 287.128C148.248 287.629 148.875 288.099 149.524 288.537C150.271 287.734 151.025 286.942 151.778 286.15C151.728 287.357 151.927 288.562 152.362 289.689Z" fill="#B0281F"/>
<path d="M320.76 256.155C315.302 254.516 309.844 252.331 307.115 247.416C306.245 246.121 305.548 244.718 305.041 243.243C304.047 244.019 303.054 244.811 302.033 245.537C300.745 243.205 299.239 240.998 297.76 238.781C295.995 236.141 294.176 233.543 292.302 230.987C288.481 225.738 284.404 220.664 280.294 215.656C279.155 214.272 278.005 212.9 276.844 211.538L276.435 211.052C273.515 211.56 270.584 212.013 267.653 212.445C273.826 226.181 272.805 242.593 262.91 255.046C261.272 256.684 260.181 251.223 259.635 249.038C260.181 254.5 257.998 258.869 254.723 262.146C250.356 267.062 247.627 261.6 247.081 256.684C242.775 269.612 234.746 286.773 220.921 289.87C220.734 289.943 220.537 289.987 220.337 290.001C220.533 289.962 220.724 289.913 220.921 289.87C221.428 289.673 221.974 289.291 221.974 288.908C209.967 281.262 203.963 267.062 200.142 253.953C198.505 258.869 196.867 263.238 196.321 268.154C189.226 262.146 184.859 252.861 185.405 243.576C184.415 247.345 183.685 251.177 183.222 255.046C176.672 246.307 178.31 235.93 180.493 225.553C181.492 220.883 184.314 216.634 188.134 213.4C182.798 212.339 177.542 210.908 172.404 209.118C169.845 209.99 167.347 211.032 164.926 212.237C161.731 213.859 158.633 215.666 155.648 217.65C149.58 221.601 143.889 226.102 138.646 231.096C133.613 235.864 128.215 241.277 126.382 248.175C124.64 254.729 127.62 261.627 132.26 266.281C134.04 268.035 136.045 269.546 138.22 270.775C138.408 269.477 138.865 268.232 139.564 267.122C140.263 266.012 141.186 265.061 142.275 264.331C147.515 261.185 157.793 260.054 161.979 265.783C161.75 265.401 161.521 265.024 161.319 264.626C161.249 264.563 161.2 264.481 161.177 264.391C161.079 264.232 160.975 264.079 160.882 263.921C160.604 263.714 160.303 263.511 160.009 263.315C159.714 263.118 159.294 262.818 158.917 262.577C158.371 262.217 158.813 261.376 159.348 261.573C159.617 261.373 159.923 261.23 160.249 261.152C161.014 260.772 161.801 260.44 162.607 260.158C162.662 260.135 162.721 260.122 162.781 260.122C162.841 260.122 162.901 260.135 162.956 260.158C163.052 260.128 163.155 260.128 163.251 260.158H163.3C163.448 259.954 163.61 259.76 163.786 259.579C163.853 259.51 163.937 259.46 164.03 259.435C164.123 259.409 164.221 259.408 164.314 259.433C164.407 259.457 164.492 259.506 164.56 259.574C164.629 259.642 164.678 259.726 164.703 259.819C165.152 261.816 165.027 263.899 164.342 265.827C164.298 265.953 164.208 266.058 164.091 266.122C164.064 266.242 164.031 266.362 164.004 266.477C163.977 266.592 164.004 266.657 164.004 266.75C163.999 266.862 163.961 266.969 163.894 267.058C163.826 267.147 163.733 267.213 163.627 267.247C163.599 267.367 163.528 267.472 163.427 267.542C163.326 267.612 163.204 267.644 163.082 267.63C166.296 273.594 167.994 280.738 164.795 287.128C164.976 289.247 165.183 291.366 165.434 293.48C164.601 293.207 163.76 292.955 162.912 292.726C161.479 292.324 160.02 292.02 158.546 291.814L157.956 291.743C157.477 291.725 156.999 291.676 156.526 291.595C155.642 291.514 154.764 291.453 153.879 291.382C150.839 291.137 147.624 291.639 144.601 292.076C141.413 292.54 138.258 293.168 135.114 293.84C128.739 295.227 122.408 296.932 115.924 297.751C112.625 298.193 109.294 298.352 105.968 298.226C105.373 298.226 104.773 298.16 104.178 298.106L103.741 298.062H103.66L102.65 297.926C101.414 297.746 100.188 297.504 98.9765 297.199C97.7629 296.898 96.5659 296.534 95.3905 296.107L94.8011 295.888C94.55 295.79 94.3044 295.686 94.0533 295.577C93.4384 295.315 92.827 295.031 92.2194 294.725C91.1241 294.175 90.0633 293.558 89.0428 292.879C88.7972 292.715 88.557 292.551 88.3169 292.376H88.2732L87.9239 292.109C87.4327 291.727 86.9578 291.333 86.4939 290.918C86.0299 290.503 85.6424 290.121 85.2385 289.706C85.0347 289.495 84.8382 289.282 84.649 289.067L84.3598 288.739C84.3598 288.712 84.2015 288.548 84.1305 288.466L83.9886 288.286L83.7266 287.936C83.552 287.701 83.3882 287.466 83.2245 287.226C82.8752 286.713 82.5477 286.188 82.2475 285.648C82.1001 285.391 81.9637 285.129 81.8327 284.867C81.7999 284.807 81.6034 284.386 81.5652 284.32C81.2759 283.643 81.0194 282.95 80.7902 282.245C80.5609 281.54 80.3972 280.874 80.2444 280.175C80.1053 279.566 80.0105 278.947 79.9605 278.324C79.6708 275.492 79.82 272.633 80.4026 269.847C80.6919 268.394 81.0904 266.865 81.5434 265.39C80.3699 261.343 78.1921 257.744 74.0385 255.641C72.6621 255.09 71.1552 254.952 69.7016 255.243C68.2479 255.533 66.9101 256.241 65.8514 257.28C59.3017 267.111 63.6682 279.673 70.7637 287.865C66.3972 283.496 57.1185 283.496 54.9352 288.411C48.9314 300.427 62.0308 312.989 72.9469 316.812C68.0346 316.812 61.4849 315.72 60.9391 320.089C58.9306 328.626 70.7637 331.155 78.1976 328.538C78.8089 328.249 79.4202 327.992 80.0424 327.736C79.4484 328.049 78.8317 328.317 78.1976 328.538C70.9274 331.886 64.727 337.954 66.8175 346.272C78.3668 346.07 89.3211 340.265 98.3925 333.514C108.01 326.348 116.24 317.588 126.349 311.121C134.912 305.659 145.239 302.109 155.544 303.912C160.08 304.709 164.55 306.588 167.945 309.761C168.001 309.813 168.061 309.861 168.125 309.903C168.785 313.115 169.5 316.31 170.308 319.488C173.217 330.935 176.705 342.226 180.76 353.318C182.894 359.255 185.127 365.148 187.474 371.014C188.288 368.687 189.866 366.704 191.949 365.388C197.953 360.473 205.049 369.758 205.595 376.312C206.686 371.942 208.324 367.573 212.144 365.388C215.354 363.247 219.611 363.75 220.801 367.366C220.975 361.252 221.25 355.137 221.625 349.02C221.925 344.252 221.996 339.467 222.242 334.694C223.748 334.858 225.255 334.994 226.766 335.087C226.985 339.205 227.138 343.329 227.28 347.452C227.438 351.865 227.76 356.278 227.967 360.697C228.109 363.777 228.207 366.869 228.289 369.954C229.807 367.224 232.11 365.547 235.614 365.935C239.435 366.481 239.98 373.035 240.526 377.404C241.072 370.304 247.622 367.027 252.534 364.296C255.962 362.335 260.721 361.254 264.023 364.618C264.933 362.244 265.834 359.865 266.725 357.48C270.824 346.404 274.568 335.169 277.603 323.754C280.642 312.516 282.768 301.051 283.962 289.471C284.579 283.385 284.868 277.27 284.83 271.152C289.136 274.134 293.901 276.975 299.119 277.706C302.001 278.171 304.955 277.829 307.655 276.718C310.171 275.601 312.395 273.919 314.156 271.802C317.698 267.591 319.554 262.446 321.65 257.438C321.781 257.127 321.912 256.81 322.048 256.499C321.612 256.329 321.18 256.231 320.76 256.155Z" fill="#DD5E56"/>
<path d="M252.534 364.296C247.622 367.027 241.072 370.304 240.526 377.404C239.98 373.035 239.435 366.481 235.614 365.935C232.121 365.547 229.806 367.234 228.289 369.954C228.442 375.798 228.489 381.642 228.431 387.486C228.376 392.538 228.245 397.596 228.071 402.643C228.086 402.986 228.234 403.311 228.483 403.548C228.733 403.785 229.064 403.917 229.408 403.915C238.687 404.325 248.02 404.691 257.31 405.291C257.539 405.303 257.766 405.244 257.961 405.123C258.156 405.002 258.31 404.825 258.401 404.614C259.891 404.936 261.422 405.016 262.937 404.849C263.136 404.84 263.331 404.786 263.506 404.691C263.682 404.596 263.834 404.463 263.951 404.302C264.068 404.14 264.147 403.954 264.182 403.757C264.217 403.561 264.208 403.359 264.154 403.167C264.154 403.09 264.105 403.019 264.083 402.948C265.394 403.242 266.75 403.273 268.073 403.041C268.979 402.883 269.094 401.801 268.794 401.141C267.285 397.844 265.091 394.908 262.358 392.528C260.097 390.528 257.568 388.855 254.843 387.557C256.769 383.188 258.461 378.704 260.224 374.291C261.512 371.072 262.786 367.848 264.045 364.618C260.716 361.227 255.962 362.308 252.534 364.296Z" fill="#B0281F"/>
<path d="M212.144 365.389C208.324 367.573 206.686 371.943 205.594 376.312C205.049 369.758 197.953 360.473 191.949 365.389C189.855 366.709 188.271 368.702 187.457 371.041C189.491 376.183 191.571 381.306 193.696 386.411C193.849 386.787 194.012 387.159 194.171 387.503C191.414 388.82 188.856 390.519 186.573 392.55C183.85 394.936 181.664 397.873 180.16 401.168C180.068 401.341 180.016 401.532 180.008 401.727C180 401.923 180.037 402.117 180.115 402.297C180.194 402.476 180.311 402.635 180.46 402.762C180.609 402.889 180.784 402.981 180.973 403.031C182.277 403.259 183.613 403.223 184.903 402.927C184.876 403.02 184.843 403.107 184.816 403.2C184.733 403.536 184.786 403.891 184.964 404.188C185.142 404.484 185.43 404.699 185.765 404.784C187.374 404.968 189.002 404.9 190.59 404.582C190.697 404.792 190.862 404.968 191.065 405.089C191.268 405.21 191.5 405.271 191.736 405.264C201.015 404.664 210.338 404.298 219.644 403.888C219.988 403.875 220.313 403.728 220.55 403.478C220.787 403.228 220.916 402.894 220.91 402.55C220.513 390.807 220.477 379.07 220.801 367.338C219.611 363.712 215.37 363.204 212.144 365.389Z" fill="#B0281F"/>
<path d="M330.617 244.898C334.984 241.872 340.895 240.916 346.069 241.877C346.349 241.946 346.643 241.931 346.915 241.834C347.187 241.737 347.424 241.562 347.597 241.331C347.773 241.098 347.875 240.816 347.889 240.524C347.902 240.232 347.827 239.942 347.674 239.693C346.561 238.296 345.142 237.174 343.525 236.416L348.077 235.269C349.169 234.99 349.256 233.423 348.329 232.893C346.471 231.832 344.437 231.116 342.325 230.779C343.962 230.168 345.638 229.556 347.281 228.911C347.559 228.815 347.799 228.633 347.967 228.391C348.135 228.149 348.221 227.86 348.214 227.566C348.207 227.271 348.106 226.987 347.926 226.754C347.747 226.52 347.498 226.35 347.215 226.268C341.877 224.258 336.021 224.782 330.928 227.18C329.568 224.071 327.605 221.262 325.154 218.917C324.952 218.729 324.705 218.597 324.437 218.534C324.169 218.47 323.889 218.478 323.624 218.555C323.36 218.632 323.12 218.776 322.928 218.973C322.736 219.171 322.598 219.415 322.528 219.681C321.692 222.892 321.883 226.284 323.074 229.381L312.382 237.585C310.439 239.087 308.479 240.561 306.525 242.047C306.028 242.424 305.532 242.811 305.041 243.205C305.547 244.68 306.245 246.083 307.115 247.377C309.844 252.293 315.302 254.478 320.76 256.116C321.18 256.22 321.611 256.318 322.048 256.417C323.004 254.053 324.212 251.799 325.65 249.693C327.024 247.826 328.704 246.205 330.617 244.898Z" fill="#B0281F"/>
<path d="M156.532 291.574C157.005 291.654 157.482 291.704 157.962 291.721C157.514 291.656 157.007 291.612 156.532 291.574Z" fill="#DD5E56"/>
<path d="M78.2139 328.478C78.848 328.257 79.4647 327.989 80.0587 327.676C79.4638 327.921 78.8252 328.189 78.2139 328.478Z" fill="#DD5E56"/>
<path d="M180.487 225.569C178.304 235.946 176.667 246.323 183.216 255.062C183.68 251.193 184.409 247.361 185.4 243.593C184.854 252.877 189.22 262.162 196.316 268.17C196.862 263.255 198.499 258.885 200.136 253.97C203.957 267.078 209.961 281.278 221.969 288.925C221.969 289.307 221.423 289.689 220.915 289.886C234.741 286.789 242.748 269.628 247.076 256.701C247.622 261.616 250.351 267.078 254.717 262.162C257.992 258.885 260.175 254.516 259.629 249.054C260.175 251.239 261.267 256.701 262.904 255.062C272.8 242.593 273.82 226.181 267.647 212.461C253.592 214.503 239.437 215.779 225.244 216.284C212.979 216.585 200.398 215.891 188.129 213.417C184.319 216.623 181.486 220.872 180.487 225.569Z" fill="#FFD18C"/>
<path d="M250.897 74.2798C249.784 74.0089 248.704 73.617 247.676 73.111L247.13 73.0127C232.443 70.4949 217.728 71.0738 203.127 73.761L202.194 73.9467C188.736 78.3303 175.927 84.5045 164.113 92.3034C150.468 101.069 139.252 110.96 128.09 121.25V121.343C128.09 121.343 128.09 121.376 128.09 121.392C119.157 131.379 111.078 142.097 103.938 153.436C101.915 156.637 99.9589 159.879 98.0704 163.163C98.0051 163.268 97.9817 163.394 98.005 163.516C98.0283 163.637 98.0965 163.745 98.1959 163.819L98.1141 163.933C98.0708 163.986 98.05 164.053 98.0561 164.12C98.0623 164.188 98.0949 164.25 98.1468 164.294C98.1356 164.33 98.1333 164.368 98.1399 164.405C98.1466 164.442 98.1621 164.477 98.185 164.507C114.559 140.94 138.842 122.293 167.917 119.06C187.021 116.329 205.578 126.707 214.311 143.638C216.494 146.915 218.678 152.376 222.498 151.284C225.227 150.738 229.048 148.553 232.323 150.192C238.872 126.16 266.163 113.052 287.995 119.606C311.59 126.51 334.46 140.421 350.823 159.886C344.612 144.834 335.497 130.606 324.482 118.17C302.988 99.3326 277.663 84.7499 250.897 74.2798Z" fill="#DD5E56"/>
<path d="M231.384 147.467L231.269 147.385C231.132 147.301 230.979 147.246 230.819 147.223C230.66 147.199 230.497 147.208 230.341 147.248C230.158 147.154 229.964 147.084 229.763 147.041C229.026 146.877 228.273 146.773 227.536 146.636L223.071 145.828C222.929 145.802 222.783 145.81 222.643 145.849C222.504 145.889 222.376 145.96 222.269 146.058C221.525 146.23 220.834 146.583 220.257 147.085C219.681 147.587 219.236 148.222 218.961 148.936C218.681 149.524 218.628 150.195 218.814 150.82C219.24 152.082 221.183 152.136 221.494 150.755C221.538 150.563 221.565 150.367 221.614 150.176C221.614 150.132 221.761 149.761 221.669 149.963C221.771 149.708 221.927 149.479 222.127 149.291C222.424 150.658 223.165 151.889 224.234 152.792C224.488 153.031 224.825 153.16 225.173 153.152C225.522 153.143 225.853 152.999 226.095 152.748C226.658 152.104 227.035 151.318 227.187 150.476C227.228 150.247 227.228 150.012 227.187 149.782C227.671 149.944 228.107 150.226 228.453 150.602C228.72 150.778 229.033 150.872 229.354 150.872C229.674 150.872 229.987 150.778 230.254 150.602C230.333 150.627 230.413 150.647 230.494 150.662C230.8 150.725 231.119 150.671 231.387 150.51C231.655 150.349 231.853 150.093 231.941 149.793C232.006 149.586 232.043 149.371 232.05 149.154C232.133 148.839 232.114 148.505 231.994 148.201C231.874 147.897 231.66 147.64 231.384 147.467Z" fill="#C89D64"/>
<path d="M176.967 77.4694C176.05 75.1481 174.642 72.9908 173.43 70.817L169.735 64.192C166.966 59.2255 164.206 54.2536 161.455 49.2761C161.28 49.0009 161.037 48.7756 160.749 48.6222C160.462 48.4688 160.139 48.3926 159.814 48.4008C159.488 48.4091 159.17 48.5016 158.89 48.6693C158.61 48.837 158.379 49.0743 158.218 49.3581C154.968 56.149 152.232 63.1742 150.031 70.3746C147.78 77.4848 146.154 84.7785 145.174 92.1722C144.906 94.3077 144.628 96.4487 144.584 98.6006C144.551 99.5728 144.529 100.55 144.513 101.523L144.049 101.867C144.19 103.063 144.263 104.267 144.268 105.471C144.268 105.57 144.268 105.668 144.268 105.766C144.488 105.732 144.7 105.654 144.89 105.537L145.184 105.346C145.265 105.394 145.355 105.422 145.448 105.429C145.541 105.435 145.634 105.419 145.72 105.382C145.806 105.346 145.882 105.289 145.941 105.217C146.001 105.145 146.043 105.06 146.063 104.969C146.063 104.892 146.112 104.821 146.134 104.75C150.015 102.304 153.775 99.7039 157.558 97.1041L170.111 88.4473C172.011 87.1365 174.205 85.9186 175.793 84.2255C176.63 83.339 177.188 82.2256 177.397 81.0242C177.605 79.8227 177.456 78.5864 176.967 77.4694Z" fill="#F5D4D6"/>
<path d="M272.33 77.4694C273.247 75.1481 274.656 72.9908 275.867 70.817L279.562 64.192C282.331 59.2255 285.091 54.2536 287.842 49.2761C288.017 49.0009 288.26 48.7756 288.548 48.6222C288.836 48.4688 289.158 48.3926 289.484 48.4008C289.81 48.4091 290.128 48.5016 290.407 48.6693C290.687 48.837 290.918 49.0743 291.079 49.3581C294.331 56.148 297.068 63.1734 299.266 70.3746C301.519 77.4847 303.146 84.7783 304.129 92.1722C304.397 94.3077 304.675 96.4487 304.719 98.6006C304.751 99.5728 304.773 100.55 304.79 101.523L305.254 101.867C305.11 103.063 305.037 104.267 305.035 105.471C305.035 105.57 305.035 105.668 305.035 105.766C304.815 105.732 304.603 105.654 304.413 105.537L304.113 105.346C304.033 105.394 303.943 105.422 303.85 105.429C303.758 105.435 303.665 105.419 303.579 105.382C303.494 105.346 303.418 105.289 303.359 105.217C303.3 105.145 303.259 105.06 303.239 104.969C303.239 104.892 303.19 104.821 303.169 104.75C299.288 102.304 295.527 99.7039 291.739 97.1041L279.186 88.4473C277.292 87.1365 275.092 85.9186 273.509 84.2255C272.672 83.3396 272.113 82.2265 271.903 81.025C271.694 79.8236 271.842 78.5869 272.33 77.4694Z" fill="#F5D4D6"/>
<path d="M191.207 148.641L191.18 148.608L191.726 149.772V149.701C191.28 148.438 190.415 147.366 189.275 146.664L188.025 146.172C187.125 145.954 186.183 145.978 185.296 146.243C184.82 146.368 184.371 146.577 183.97 146.861C183.224 147.321 182.609 147.967 182.185 148.734C181.581 149.955 181.434 151.352 181.77 152.672C182.025 153.517 182.495 154.281 183.135 154.889L183.2 154.938L184.292 155.719C184.702 155.923 185.129 156.092 185.569 156.222C186.925 156.492 188.333 156.271 189.542 155.599L190.568 154.764C191.185 154.115 191.624 153.317 191.84 152.448V152.388L190.628 154.573L190.661 154.534L191.398 153.535C191.739 152.986 191.928 152.356 191.944 151.711C192.048 151.284 192.036 150.837 191.911 150.416C191.868 149.775 191.655 149.156 191.294 148.625L191.207 148.641Z" fill="#2E2221"/>
<path d="M261.622 153.327C267.418 153.327 267.194 144.326 261.403 144.326C255.612 144.326 255.831 153.327 261.622 153.327Z" fill="#2E2221"/>
<path d="M98.2233 164.972C111.459 178.06 126.6 189.064 143.132 197.611C159.818 206.164 178.397 211.5 196.851 214.465C233.42 220.342 271.239 215.902 304.773 199.784C322.348 191.346 338.723 179.691 350.567 164.076C351.522 162.82 349.863 161.116 348.744 162.339C337.282 174.874 323.767 185.54 308.545 193.143C292.716 201.046 275.856 205.607 258.407 208.048C222.542 213.067 185.181 209.206 151.429 195.879C141.855 192.105 132.505 187.96 123.554 182.88C114.563 177.75 106.18 171.617 98.5672 164.6C98.5428 164.577 98.5141 164.559 98.4826 164.546C98.4512 164.534 98.4177 164.528 98.384 164.529C98.3503 164.53 98.3171 164.537 98.2862 164.551C98.2554 164.564 98.2275 164.584 98.2042 164.608C98.1809 164.633 98.1626 164.662 98.1504 164.693C98.1382 164.724 98.1324 164.758 98.1331 164.792C98.1339 164.825 98.1413 164.859 98.1549 164.89C98.1685 164.92 98.188 164.948 98.2124 164.972H98.2233Z" fill="#2E2221"/>
<path d="M231.149 146.855C229.836 146.708 228.544 146.415 227.296 145.981C226.143 145.62 224.959 145.366 223.759 145.222C221.647 145.015 219.48 145.572 218.197 147.363C217.106 148.871 216.991 151.061 218.47 152.361C218.809 152.669 219.205 152.907 219.637 153.063C220.068 153.218 220.525 153.286 220.983 153.265C221.441 153.243 221.89 153.131 222.304 152.936C222.719 152.74 223.09 152.465 223.399 152.126C223.707 151.786 223.945 151.39 224.1 150.958C224.255 150.527 224.324 150.069 224.302 149.611C224.28 149.153 224.169 148.704 223.973 148.289C223.778 147.874 223.503 147.502 223.164 147.194C223.075 147.111 222.969 147.05 222.853 147.014C222.738 146.978 222.615 146.969 222.496 146.988C222.376 147.006 222.262 147.051 222.162 147.12C222.062 147.189 221.979 147.28 221.92 147.385C220.626 149.81 222.034 153.393 224.911 153.775C227.787 154.157 230.178 150.755 228.791 148.204C228.723 148.095 228.628 148.005 228.515 147.944C228.402 147.883 228.275 147.852 228.146 147.856C228.017 147.859 227.892 147.896 227.782 147.963C227.672 148.03 227.582 148.124 227.52 148.237C226.537 150.471 228.835 153.409 231.286 152.41C233.327 151.574 233.698 148.472 231.99 147.123C231.909 147.048 231.813 146.99 231.709 146.955C231.605 146.919 231.494 146.906 231.384 146.916C231.275 146.927 231.168 146.96 231.072 147.014C230.976 147.069 230.893 147.143 230.828 147.232C230.763 147.321 230.717 147.423 230.694 147.53C230.671 147.638 230.671 147.75 230.694 147.858C230.717 147.966 230.763 148.067 230.828 148.156C230.893 148.245 230.977 148.319 231.073 148.373C231.941 148.92 231.695 150.514 230.865 150.984C229.746 151.612 228.327 150.045 228.808 148.947L227.536 148.98C228.376 150.525 226.613 152.666 224.943 152.257C223.273 151.847 222.514 149.586 223.306 148.144L222.061 148.335C223.098 149.297 222.771 151.361 221.248 151.612C220.902 151.673 220.545 151.635 220.219 151.504C219.893 151.372 219.61 151.151 219.403 150.867C219.196 150.583 219.072 150.246 219.046 149.895C219.02 149.544 219.093 149.193 219.256 148.881C220.102 146.953 222.373 146.637 224.245 146.806C225.369 146.91 226.472 147.183 227.585 147.352C228.764 147.572 229.969 147.613 231.16 147.472C231.244 147.472 231.325 147.439 231.384 147.38C231.443 147.32 231.477 147.24 231.477 147.156C231.477 147.072 231.443 146.991 231.384 146.932C231.325 146.872 231.244 146.839 231.16 146.839L231.149 146.855Z" fill="#2E2221"/>
<path d="M225.708 152.382C225.287 152.919 225.006 153.551 224.889 154.223C224.66 155.009 224.474 155.812 224.294 156.615C223.945 158.177 223.694 159.761 223.492 161.35C223.29 162.94 223.153 164.431 223.104 165.982C223.055 167.533 222.891 169.341 223.251 170.897C223.437 171.678 224.78 171.695 224.889 170.854C225.085 169.341 224.889 167.741 224.889 166.211C224.889 164.682 224.982 163.093 225.113 161.542C225.244 159.99 225.446 158.494 225.658 156.976C225.778 156.206 225.92 155.435 226.062 154.665C226.269 153.972 226.323 153.241 226.221 152.524C226.204 152.47 226.173 152.422 226.132 152.383C226.09 152.345 226.04 152.318 225.985 152.304C225.93 152.291 225.872 152.292 225.818 152.308C225.764 152.324 225.714 152.353 225.675 152.393L225.708 152.382Z" fill="#2E2221"/>
<path d="M215.037 157.942C213.705 159.952 213.945 162.962 214.649 165.141C215.44 167.511 217.051 169.521 219.19 170.81C223.682 173.503 229.779 172.629 233.125 168.549C234.91 166.364 236.181 163.3 235.521 160.476C235.297 159.532 234.047 159.903 233.965 160.722C233.763 162.907 233.365 164.955 232.071 166.774C230.83 168.531 228.993 169.777 226.903 170.28C224.83 170.768 222.653 170.52 220.743 169.58C218.832 168.639 217.308 167.065 216.429 165.124C215.959 164.035 215.67 162.877 215.572 161.694C215.531 160.499 215.595 159.302 215.763 158.117C215.796 157.713 215.25 157.669 215.064 157.942H215.037Z" fill="#2E2221"/>
<path d="M265.312 149.936C265.514 149.936 265.508 149.613 265.312 149.613C265.115 149.613 265.115 149.936 265.312 149.936Z" fill="#FFD18C"/>
<path d="M265.824 151.432C266.11 151.437 266.392 151.368 266.643 151.23C266.897 151.125 267.125 150.968 267.313 150.768C267.501 150.569 267.645 150.331 267.735 150.072C267.86 149.816 267.916 149.532 267.898 149.247L267.806 148.701C267.706 148.35 267.518 148.03 267.26 147.773L266.818 147.45C266.484 147.265 266.107 147.173 265.726 147.183C265.44 147.177 265.158 147.247 264.907 147.385C264.647 147.476 264.416 147.635 264.236 147.844C264.034 148.034 263.887 148.276 263.81 148.543C263.685 148.799 263.629 149.083 263.647 149.367L263.734 149.914C263.838 150.263 264.025 150.581 264.28 150.842L264.722 151.164C265.055 151.35 265.432 151.441 265.813 151.426L265.824 151.432Z" fill="#FFD18C"/>
<path d="M130.726 121.043C129.298 113.097 128.617 105.035 128.69 96.9624C128.818 89.2857 129.866 81.6521 131.812 74.2254C135.556 59.9376 142.303 46.6329 150.304 34.284C152.684 30.6192 155.216 27.0691 157.733 23.5026C160.058 20.2255 162.399 16.9485 165.374 14.2177L163.229 13.9446C168.825 21.3309 173.73 29.2162 177.884 37.5009C181.998 45.7157 185.352 54.2899 187.905 63.1163C189.474 68.2794 190.75 73.5274 191.725 78.835C191.825 79.1814 192.056 79.475 192.369 79.6527C192.683 79.8304 193.053 79.878 193.401 79.7854C193.745 79.6823 194.036 79.4506 194.214 79.1384C194.392 78.8261 194.443 78.4574 194.356 78.1086C193.485 73.3699 192.363 68.6808 190.994 64.0611C189.728 59.5825 188.303 55.1586 186.655 50.8056C183.359 42.0762 179.28 33.6636 174.467 25.6709C171.743 21.1486 168.782 16.7731 165.598 12.5628C165.488 12.3873 165.34 12.2385 165.166 12.1269C164.992 12.0154 164.795 11.944 164.59 11.9179C164.385 11.8917 164.176 11.9115 163.979 11.9758C163.783 12.0401 163.603 12.1473 163.453 12.2897C160.724 14.7748 158.486 17.7514 156.357 20.7499C154.103 23.9013 151.838 27.0527 149.682 30.2751C145.377 36.6501 141.493 43.3003 138.056 50.183C131.245 63.9792 126.698 78.846 126.048 94.2807C125.661 103.484 126.54 112.687 128.101 121.753C128.199 122.1 128.43 122.395 128.743 122.573C129.057 122.751 129.428 122.798 129.776 122.703C130.121 122.601 130.413 122.37 130.591 122.057C130.769 121.745 130.82 121.375 130.731 121.027L130.726 121.043Z" fill="#2E2221"/>
<path d="M98.7089 164.676C104.664 156.451 111.579 148.966 119.308 142.382C123.162 139.114 127.2 136.07 131.403 133.266C135.631 130.359 140.106 127.828 144.775 125.702C154.054 121.611 164.179 119.317 174.32 119.923C183.237 120.403 191.848 123.345 199.198 128.421C200.896 129.572 202.522 130.827 204.066 132.179C205.692 133.596 207.219 135.123 208.635 136.751C209.295 137.521 209.912 138.313 210.507 139.137C210.819 139.609 211.168 140.057 211.549 140.475C211.92 140.824 212.25 141.215 212.532 141.639C213.718 143.418 214.693 145.33 215.435 147.335C215.785 148.324 216.085 149.334 216.347 150.35C216.609 151.366 218.164 150.896 217.897 149.88C217.314 147.738 216.598 145.635 215.752 143.583C215.332 142.54 214.862 141.513 214.36 140.508C214.152 140.075 213.969 139.63 213.814 139.175C213.599 138.607 213.317 138.066 212.974 137.564C210.557 133.772 207.569 130.377 204.115 127.498C196.886 121.604 188.097 117.945 178.823 116.968C168.31 115.794 157.569 117.788 147.837 121.813C138.105 125.838 129.498 131.966 121.442 138.728C113.539 145.304 106.471 152.824 100.395 161.121C99.6204 162.18 98.8654 163.254 98.1303 164.343C97.8902 164.698 98.4633 164.998 98.7089 164.66V164.676Z" fill="#2E2221"/>
<path d="M350.97 164.343C345.144 155.798 338.28 148.01 330.535 141.159C326.647 137.721 322.583 134.489 318.358 131.475C314.093 128.377 309.56 125.668 304.811 123.381C295.292 118.897 284.791 116.281 274.246 116.668C264.754 116.983 255.552 120.016 247.731 125.407C244.021 128.014 240.753 131.201 238.054 134.845C237.355 135.784 236.678 136.74 236.051 137.729C235.547 138.679 235.097 139.656 234.702 140.656C233.756 142.634 232.925 144.666 232.214 146.74C231.831 147.789 231.504 148.854 231.22 149.935C231.176 150.142 231.214 150.357 231.325 150.537C231.437 150.716 231.614 150.844 231.819 150.895C232.024 150.946 232.24 150.916 232.423 150.81C232.605 150.704 232.74 150.532 232.798 150.329C233.311 148.244 234.069 146.227 235.057 144.321C235.554 143.371 236.1 142.442 236.695 141.541C236.952 141.173 237.248 140.834 237.579 140.53C238.003 140.05 238.393 139.541 238.747 139.007C239.982 137.362 241.335 135.81 242.797 134.364C244.255 132.877 245.818 131.497 247.474 130.235C254.515 124.899 262.375 121.365 271.217 120.284C281.331 119.044 291.494 120.661 300.974 124.298C310.455 127.936 319.144 133.714 327.02 140.083C334.921 146.44 342.044 153.709 348.241 161.738C348.994 162.721 349.737 163.721 350.457 164.726C350.703 165.064 351.265 164.726 351.003 164.376L350.97 164.343Z" fill="#2E2221"/>
<path d="M99.0583 164.119C114.887 138.029 135.229 113.653 160.533 96.2904C172.644 87.9777 185.389 81.5439 199.776 78.6819C212.761 76.1095 226.581 76.0112 239.664 77.9009C257.74 80.4457 275.012 87.0276 290.2 97.1588C299.586 103.536 308.16 111.034 315.733 119.486C325.077 129.754 332.331 141.273 339.814 152.873C341.997 156.227 344.181 159.564 346.326 162.939C347.848 165.331 352.182 163.638 351.03 160.815C340.824 135.789 322.577 113.003 300.898 96.8803C285.02 85.0666 266.681 76.7813 247.13 73.4333C232.443 70.91 217.728 71.4889 203.127 74.1815C190.426 76.5246 179.347 81.1288 168.267 87.934C141.85 104.112 120.448 127.804 103.954 153.857C101.931 157.057 99.9752 160.299 98.0867 163.584C97.7319 164.206 98.6926 164.725 99.0583 164.13V164.119Z" fill="#2E2221"/>
<path d="M144.781 106.602C144.668 96.3068 145.88 86.04 148.388 76.0548C149.65 71.0289 151.316 66.1136 153.372 61.3574C154.361 59.0121 155.48 56.7238 156.723 54.503C157.995 52.3183 159.61 50.2702 160.751 47.9981L158.257 48.3805C162.65 53.2632 166.105 59.5769 169.238 65.3117C172.443 71.2002 175.116 77.3637 177.224 83.7285C177.944 85.9131 181.306 84.9136 180.651 82.6907C178.747 76.0792 176.113 69.7006 172.797 63.6732C169.331 57.4195 164.795 52.2036 160.735 46.3924C160.58 46.1706 160.373 45.9905 160.132 45.8683C159.89 45.7461 159.623 45.6855 159.353 45.692C159.082 45.6985 158.818 45.7718 158.583 45.9055C158.348 46.0391 158.149 46.2289 158.006 46.4579C155.309 50.4941 153.639 55.7428 151.871 60.2378C149.87 65.2658 148.184 70.4133 146.822 75.6506C144.211 85.7609 143.108 96.2017 143.547 106.635C143.551 106.804 143.623 106.965 143.746 107.082C143.869 107.199 144.033 107.262 144.202 107.257C144.371 107.253 144.532 107.182 144.649 107.059C144.766 106.936 144.829 106.771 144.824 106.602H144.781Z" fill="#2E2221"/>
<path d="M321.42 121.797C322.886 113.687 323.6 105.46 323.555 97.2191C323.446 89.2922 322.385 81.4071 320.394 73.7338C316.574 59.0637 309.647 45.3329 301.422 32.6891C299.042 29.0352 296.51 25.4851 293.999 21.9296C291.592 18.5378 289.152 15.1134 286.058 12.3061C285.907 12.1637 285.727 12.0565 285.531 11.9922C285.334 11.9279 285.126 11.9081 284.92 11.9342C284.715 11.9603 284.518 12.0318 284.344 12.1433C284.17 12.2548 284.022 12.4037 283.913 12.5791C278.298 20.0009 273.376 27.9227 269.209 36.2447C265.026 44.6006 261.608 53.3185 258.996 62.2915C257.383 67.8567 256.089 73.5097 255.121 79.2228C255.036 79.5715 255.087 79.9396 255.265 80.2515C255.443 80.5634 255.733 80.7953 256.076 80.8995C256.424 80.9936 256.796 80.9466 257.109 80.7687C257.423 80.5908 257.654 80.2964 257.752 79.9492C261.811 55.9764 271.594 33.3389 286.27 13.9609L284.125 14.234C286.789 16.6481 288.945 19.521 291.019 22.4266C293.251 25.5616 295.495 28.6857 297.629 31.8808C301.833 38.1169 305.632 44.617 309.003 51.3408C315.608 64.6728 320.061 79.0917 320.733 94.0131C321.056 103.061 320.404 112.118 318.79 121.027C318.703 121.375 318.753 121.743 318.93 122.055C319.106 122.367 319.396 122.599 319.739 122.703C320.082 122.798 320.449 122.757 320.762 122.588C321.075 122.419 321.311 122.135 321.42 121.797Z" fill="#2E2221"/>
<path d="M306.007 106.602C306.446 96.1672 305.343 85.7246 302.732 75.6125C301.395 70.5267 299.755 65.5257 297.82 60.6366C295.98 55.8849 294.114 50.7673 291.521 46.3707C290.85 45.2292 289.381 45.4859 288.716 46.4417C284.551 52.4058 280.108 57.8566 276.675 64.3178C273.41 70.5552 270.791 77.1106 268.859 83.8815C268.204 86.1153 271.621 86.9182 272.336 84.7499C274.484 78.2263 277.155 71.8866 280.321 65.7924C283.427 59.8228 286.827 53.3725 291.335 48.3533L288.77 48.0856C291.461 52.7608 294.31 57.0537 296.455 62.0512C298.373 66.6044 299.937 71.299 301.133 76.0932C303.642 86.076 304.851 96.3417 304.729 106.635C304.729 107.465 305.968 107.416 306.007 106.602Z" fill="#2E2221"/>
<path d="M174.98 208.764C171.504 209.729 168.133 211.037 164.916 212.669C161.72 214.291 158.622 216.098 155.637 218.081C149.568 222.032 143.877 226.536 138.635 231.533C133.602 236.296 128.204 241.714 126.371 248.606C124.629 255.16 127.61 262.059 132.249 266.717C135.027 269.387 138.265 271.532 141.806 273.047C145.612 274.709 149.538 276.079 153.552 277.144C153.366 276.516 153.186 275.888 153.006 275.254C150.115 279.037 148.207 283.479 147.455 288.182C147.302 289.176 148.492 290.017 149.267 289.176C151.914 286.308 154.687 283.556 157.323 280.677C158.208 279.716 156.996 278.094 155.855 278.864C154.09 280.075 152.784 281.845 152.148 283.889C151.511 285.933 151.581 288.132 152.346 290.132C152.393 290.294 152.478 290.444 152.594 290.568C152.709 290.693 152.852 290.788 153.011 290.848C153.17 290.907 153.341 290.928 153.509 290.91C153.678 290.892 153.84 290.835 153.983 290.743C157.768 288.441 160.608 284.865 161.995 280.656C162.361 279.459 160.762 278.722 159.954 279.53C158.489 281.013 157.418 282.84 156.84 284.844C156.262 286.847 156.196 288.964 156.647 291C156.701 291.172 156.793 291.33 156.917 291.461C157.041 291.592 157.193 291.693 157.362 291.757C157.531 291.821 157.712 291.845 157.891 291.828C158.071 291.812 158.244 291.754 158.399 291.661C160.437 290.324 162.178 288.579 163.511 286.537C164.843 284.494 165.739 282.198 166.142 279.792C166.545 277.386 166.446 274.923 165.852 272.558C165.257 270.192 164.181 267.975 162.689 266.046C161.889 264.971 160.974 263.988 159.96 263.113C158.925 262.15 157.769 261.327 156.521 260.666L156.592 263.686L162.05 260.813C163.884 259.847 165.762 259.006 167.65 258.148C168.6 257.717 168.774 256.297 168.278 255.488C168.003 255.058 167.572 254.752 167.076 254.634C166.58 254.517 166.057 254.598 165.62 254.86C163.846 255.903 162.083 256.952 160.243 257.891L154.785 260.726C153.639 261.316 153.726 263.2 154.856 263.741C155.851 264.148 156.808 264.642 157.716 265.215C158.505 265.79 159.236 266.439 159.9 267.154C161.302 268.616 162.376 270.361 163.049 272.272C163.723 274.253 163.974 276.353 163.786 278.437C163.598 280.521 162.975 282.542 161.957 284.37C160.803 286.493 159.158 288.31 157.16 289.667L158.912 290.334C158.526 288.7 158.581 286.993 159.071 285.388C159.561 283.782 160.469 282.336 161.701 281.196L159.659 280.071C158.46 283.704 156.052 286.815 152.837 288.886L154.474 289.498C153.876 287.971 153.813 286.286 154.296 284.718C154.779 283.151 155.779 281.794 157.132 280.869L155.659 279.055C152.979 281.89 150.43 284.856 147.761 287.707L149.567 288.701C150.268 284.379 152.027 280.298 154.687 276.822C154.819 276.676 154.911 276.499 154.956 276.307C155 276.116 154.994 275.916 154.94 275.727C154.885 275.538 154.783 275.366 154.643 275.228C154.503 275.09 154.331 274.99 154.141 274.937C147.592 273.053 140.616 271.48 135.3 266.925C133.035 264.986 130.895 262.506 129.776 259.71C128.689 256.91 128.554 253.829 129.394 250.944C130.169 248.006 132.058 245.078 133.81 242.812C135.914 240.181 138.18 237.684 140.594 235.335C145.379 230.565 150.553 226.202 156.062 222.292C159.157 220.075 162.345 217.988 165.636 216.066C167.306 215.088 168.911 214.018 170.592 213.029C172.273 212.041 173.921 211.096 175.548 210.036C175.685 209.942 175.785 209.802 175.829 209.641C175.874 209.48 175.86 209.309 175.791 209.157C175.722 209.006 175.602 208.883 175.452 208.811C175.302 208.739 175.131 208.722 174.969 208.764H174.98Z" fill="#2E2221"/>
<path d="M205.753 331.248C206.973 331.778 208.236 332.2 209.53 332.509C210.823 332.886 212.117 333.263 213.427 333.569C216.037 334.195 218.679 334.678 221.341 335.016C226.796 335.689 232.301 335.856 237.786 335.513C240.896 335.215 243.983 334.713 247.027 334.011C248.866 333.64 248.364 330.619 246.508 330.734C243.867 330.931 241.219 330.865 238.578 330.996C235.936 331.127 233.278 331.193 230.62 331.226C225.386 331.291 220.124 331.04 214.906 330.647C213.449 330.538 211.991 330.423 210.54 330.286C209.062 330.058 207.574 329.904 206.08 329.828C205.918 329.834 205.762 329.894 205.637 329.997C205.511 330.1 205.423 330.241 205.385 330.399C205.346 330.557 205.361 330.723 205.425 330.872C205.489 331.021 205.601 331.145 205.742 331.226L205.753 331.248Z" fill="#2E2221"/>
<path d="M272.188 208.681C272.603 209.326 272.98 209.998 273.406 210.626C273.831 211.254 274.437 211.991 274.945 212.668C275.891 213.936 276.826 215.21 277.75 216.492C279.635 219.08 281.483 221.695 283.296 224.335C286.92 229.627 290.424 234.996 293.944 240.354C295.92 243.363 297.765 246.471 299.948 249.316C300.089 249.532 300.276 249.714 300.496 249.849C300.716 249.983 300.963 250.067 301.219 250.094C301.475 250.12 301.734 250.09 301.977 250.003C302.22 249.917 302.441 249.777 302.623 249.595C304.353 247.956 306.4 246.585 308.288 245.122C310.177 243.658 312.163 242.112 314.117 240.621C318.018 237.65 321.92 234.675 325.825 231.697C326.178 231.472 326.431 231.12 326.532 230.713C326.634 230.307 326.576 229.877 326.371 229.512C325.169 226.795 324.906 223.755 325.623 220.872L322.998 221.637C325.544 223.926 327.573 226.732 328.952 229.867C329.016 230.063 329.123 230.243 329.265 230.392C329.408 230.541 329.582 230.657 329.774 230.73C329.967 230.802 330.174 230.831 330.379 230.813C330.585 230.795 330.783 230.732 330.961 230.626C335.578 227.754 341.528 227.475 346.576 229.354L346.516 226.71C342.483 228.316 338.526 230.146 334.47 231.691C334.188 231.795 333.957 232.003 333.822 232.271C333.688 232.54 333.661 232.85 333.748 233.138C333.834 233.426 334.027 233.67 334.287 233.82C334.547 233.971 334.855 234.016 335.147 233.947C339.193 232.942 343.469 233.528 347.095 235.586C347.177 234.794 347.264 234.002 347.346 233.21L341.107 234.794C339.022 235.34 336.997 236.044 334.902 236.503L335.573 238.721C338.908 237.667 343.045 238.852 345.196 241.67L346.8 239.485C341.755 238.489 336.522 239.164 331.894 241.408C329.589 242.47 327.443 243.848 325.519 245.504C323.507 247.315 321.804 249.442 320.476 251.801C317.72 256.548 316.219 261.911 313.299 266.548C312.96 267.094 312.611 267.613 312.234 268.126C312.36 267.952 311.978 268.46 311.901 268.552C311.688 268.825 311.465 269.099 311.235 269.355C310.83 269.827 310.4 270.278 309.947 270.704C309.751 270.895 309.543 271.076 309.341 271.25C308.856 271.687 309.489 271.136 309.194 271.376L308.79 271.687C308.298 272.05 307.784 272.382 307.251 272.681C307.011 272.818 306.771 272.938 306.525 273.058C305.941 273.348 306.716 272.987 306.361 273.135L305.783 273.359C305.18 273.584 304.561 273.767 303.933 273.905L303.485 273.987C303.802 273.938 303.332 273.987 303.261 273.987C302.89 274.03 302.519 274.052 302.17 274.063C301.82 274.074 301.427 274.063 301.078 274.063L300.532 274.025C300.183 274.025 300.532 274.025 300.308 274.025C299.523 273.913 298.745 273.754 297.978 273.55C296.568 273.176 295.201 272.654 293.901 271.993C290.972 270.496 288.172 268.761 285.528 266.805C284.611 266.155 283.094 266.69 282.619 267.646C282.355 268.146 282.296 268.728 282.453 269.271C282.609 269.814 282.97 270.275 283.459 270.557C288.137 273.878 293.377 277.302 299.179 278.094C302.061 278.555 305.014 278.213 307.715 277.105C310.212 275.976 312.417 274.289 314.161 272.173C317.703 267.968 319.559 262.818 321.655 257.815C322.698 255.124 324.04 252.559 325.656 250.168C327.03 248.297 328.709 246.671 330.622 245.357C334.989 242.336 340.9 241.381 346.074 242.342C346.354 242.409 346.648 242.393 346.92 242.296C347.191 242.199 347.428 242.025 347.603 241.796C347.778 241.562 347.879 241.28 347.893 240.988C347.906 240.696 347.832 240.406 347.679 240.157C346.218 238.262 344.19 236.885 341.892 236.226C339.593 235.566 337.144 235.66 334.902 236.492C333.537 237.038 334.121 239.13 335.573 238.71C337.636 238.109 339.765 237.781 341.855 237.257L348.099 235.684C349.191 235.4 349.278 233.838 348.35 233.303C346.265 232.111 343.962 231.352 341.577 231.07C339.192 230.789 336.775 230.991 334.47 231.664C334.694 232.418 334.923 233.166 335.147 233.92C339.153 232.281 343.28 230.894 347.308 229.31C347.588 229.215 347.831 229.033 348 228.791C348.17 228.548 348.257 228.258 348.25 227.962C348.243 227.666 348.141 227.38 347.96 227.146C347.778 226.912 347.527 226.742 347.242 226.661C341.397 224.477 334.94 225.296 329.536 228.3L331.545 229.059C330.205 225.364 328.026 222.031 325.181 219.321C324.979 219.134 324.732 219.002 324.464 218.938C324.196 218.874 323.916 218.881 323.651 218.958C323.387 219.034 323.146 219.177 322.953 219.374C322.76 219.571 322.621 219.814 322.55 220.08C321.596 223.783 321.982 227.705 323.642 231.151L324.187 228.966C320.258 231.985 316.331 235.01 312.409 238.043C310.466 239.54 308.506 241.02 306.552 242.5C304.598 243.98 302.65 245.673 300.549 246.968L302.89 247.514C301.373 244.641 299.668 241.872 297.787 239.223C296.022 236.587 294.203 233.987 292.329 231.424C288.508 226.175 284.431 221.101 280.321 216.093C279.182 214.717 278.032 213.344 276.871 211.975L275.13 209.932C274.524 209.228 273.809 208.605 273.144 207.955C273.037 207.858 272.9 207.802 272.756 207.798C272.613 207.794 272.472 207.841 272.36 207.932C272.249 208.022 272.173 208.15 272.148 208.292C272.122 208.433 272.148 208.579 272.221 208.703L272.188 208.681Z" fill="#2E2221"/>
<path d="M271.921 220.31C272.044 221.71 272.321 223.093 272.745 224.433C273.187 225.728 273.597 227.033 273.99 228.344C274.786 231.015 275.545 233.696 276.173 236.405C277.446 241.696 278.414 247.055 279.071 252.457C280.372 263.55 280.586 274.743 279.71 285.877C278.801 297.123 277.025 308.282 274.399 319.254C271.68 330.636 268.329 341.857 264.362 352.865C260.448 363.859 256.103 374.712 251.655 385.477C251.082 386.864 250.531 388.257 250.018 389.677C249.325 391.643 252.523 392.888 253.424 391.015C255.967 385.723 258.019 380.157 260.197 374.706C262.429 369.13 264.613 363.532 266.698 357.895C270.824 346.819 274.568 335.59 277.592 324.175C280.63 312.935 282.756 301.468 283.951 289.886C285.139 278.663 285.115 267.345 283.88 256.127C282.575 244.942 280.059 233.953 275.747 223.521C275.19 222.19 274.443 220.947 273.531 219.829C273.056 219.234 271.806 219.348 271.894 220.31H271.921Z" fill="#2E2221"/>
<path d="M226.712 334.377C226.957 338.872 227.121 343.372 227.258 347.873C227.416 352.286 227.738 356.699 227.945 361.112C228.356 370.036 228.511 378.968 228.409 387.907C228.355 392.959 228.224 398.011 228.049 403.063C228.064 403.407 228.212 403.731 228.462 403.969C228.711 404.206 229.042 404.337 229.386 404.336C238.665 404.74 247.998 405.111 257.288 405.706C258.418 405.783 258.958 404.177 258.15 403.467C255.967 401.517 253.784 399.513 251.475 397.672C251.213 397.436 250.869 397.311 250.517 397.324C250.164 397.337 249.831 397.487 249.587 397.743C249.344 397.999 249.21 398.339 249.214 398.692C249.218 399.045 249.359 399.383 249.608 399.633C252.883 403.533 257.795 405.843 262.915 405.264C263.114 405.256 263.309 405.203 263.484 405.108C263.66 405.014 263.812 404.882 263.929 404.72C264.046 404.559 264.125 404.373 264.16 404.177C264.196 403.981 264.186 403.779 264.132 403.587C263.336 400.629 261.614 398.003 259.22 396.094C259 395.897 258.723 395.774 258.429 395.744C258.135 395.713 257.839 395.777 257.583 395.925C257.33 396.081 257.137 396.316 257.032 396.593C256.927 396.871 256.918 397.175 257.004 397.459C257.888 399.571 259.466 401.317 261.477 402.41C263.488 403.502 265.811 403.875 268.062 403.467C268.968 403.303 269.083 402.222 268.783 401.567C267.274 398.27 265.08 395.334 262.347 392.953C259.579 390.473 256.386 388.514 252.921 387.17C251.939 386.804 250.798 387.645 250.569 388.579C250.449 389.077 250.53 389.603 250.793 390.043C251.056 390.483 251.481 390.803 251.977 390.933C255.153 391.581 258.119 393.005 260.612 395.078C263.14 397.24 265.186 399.911 266.616 402.916C266.856 402.282 267.096 401.648 267.331 401.015C264.231 401.561 260.781 399.589 259.591 396.684L257.375 398.049C259.432 399.643 260.932 401.847 261.66 404.347L262.871 402.664C258.762 403.161 254.089 401.49 251.715 397.945L249.63 399.639C251.813 401.632 254.117 403.462 256.382 405.357C256.671 404.609 256.96 403.86 257.244 403.112C247.938 402.795 238.638 402.244 229.343 401.73L230.68 403.003C231.471 385.053 231.079 367.071 229.506 349.173C229.07 344.192 228.191 339.211 227.399 334.273C227.334 333.88 226.69 333.989 226.712 334.382V334.377Z" fill="#2E2221"/>
<path d="M175.553 219.687C174.659 220.751 173.924 221.94 173.37 223.215C172.824 224.52 172.311 225.831 171.814 227.147C170.81 229.802 169.948 232.516 169.167 235.247C167.641 240.605 166.483 246.061 165.701 251.578C164.114 262.888 163.763 274.338 164.653 285.724C165.564 297.266 167.454 308.709 170.302 319.931C173.211 331.388 176.7 342.69 180.755 353.793C184.761 364.93 189.182 375.919 193.707 386.853C194.302 388.295 194.918 389.715 195.59 391.118C196.496 393.003 199.618 391.572 198.925 389.617C196.992 384.122 194.558 378.786 192.375 373.379C190.192 367.972 188.068 362.412 186.044 356.874C181.982 345.957 178.491 334.837 175.586 323.557C172.759 312.543 170.765 301.331 169.62 290.017C168.532 278.941 168.47 267.788 169.435 256.701C170.43 245.732 172.703 234.917 176.208 224.477C176.628 223.176 176.907 221.834 177.038 220.473C177.12 219.719 176.17 218.889 175.553 219.659V219.687Z" fill="#2E2221"/>
<path d="M221.581 334.284C220.872 338.708 220.2 343.143 219.66 347.594C219.12 352.045 218.852 356.606 218.612 361.112C218.132 370.036 217.91 378.968 217.946 387.907C217.946 392.961 218.066 398.013 218.306 403.063L219.578 401.725C210.299 402.238 200.982 402.817 191.676 403.107L192.648 405.291C194.913 403.407 197.227 401.561 199.4 399.573L197.216 397.984C194.962 401.353 190.317 403.156 186.377 402.681L187.326 404.259C188.013 401.866 189.429 399.746 191.376 398.197C190.743 397.599 190.114 397.001 189.488 396.4C188.26 399.458 184.898 401.588 181.574 400.977L182.387 402.839C183.816 399.835 185.862 397.167 188.391 395.007C190.899 392.941 193.878 391.527 197.064 390.889C197.539 390.725 197.932 390.383 198.16 389.936C198.389 389.488 198.435 388.969 198.29 388.488C198.144 388.007 197.818 387.6 197.38 387.355C196.942 387.109 196.425 387.042 195.939 387.169C192.488 388.526 189.308 390.493 186.551 392.975C183.829 395.365 181.644 398.304 180.138 401.599C180.046 401.772 179.994 401.963 179.986 402.158C179.979 402.354 180.015 402.548 180.094 402.728C180.172 402.907 180.29 403.066 180.438 403.193C180.587 403.32 180.762 403.412 180.951 403.462C185.351 404.237 190.094 401.911 191.84 397.705C191.977 397.44 192.026 397.139 191.981 396.845C191.936 396.551 191.799 396.278 191.589 396.067C191.374 395.86 191.096 395.732 190.799 395.701C190.503 395.671 190.205 395.74 189.952 395.897C187.44 397.852 185.633 400.573 184.805 403.647C184.722 403.983 184.776 404.337 184.954 404.633C185.132 404.929 185.42 405.142 185.754 405.226C188.327 405.53 190.934 405.165 193.325 404.166C195.694 403.154 197.779 401.577 199.4 399.573C199.621 399.333 199.749 399.021 199.761 398.695C199.773 398.368 199.668 398.048 199.465 397.792C199.261 397.534 198.969 397.36 198.645 397.303C198.321 397.247 197.987 397.312 197.708 397.487C195.322 399.398 193.057 401.468 190.765 403.494C189.919 404.243 190.661 405.761 191.737 405.679C201.015 405.084 210.338 404.712 219.644 404.308C219.987 404.294 220.312 404.146 220.548 403.896C220.785 403.647 220.914 403.314 220.91 402.97C220.304 385.099 220.506 367.256 221.625 349.413C221.941 344.394 221.996 339.353 222.274 334.333C222.274 333.94 221.641 333.864 221.581 334.257V334.284Z" fill="#2E2221"/>
<path d="M171.329 296.347C168.65 294.977 165.83 293.904 162.918 293.147C161.484 292.747 160.025 292.443 158.551 292.235C157.001 292.027 155.446 291.929 153.885 291.803C150.845 291.563 147.63 292.06 144.606 292.502C141.419 292.966 138.264 293.594 135.12 294.266C128.745 295.654 122.413 297.358 115.929 298.177C112.63 298.616 109.3 298.775 105.974 298.652C105.379 298.652 104.778 298.581 104.184 298.526L103.736 298.483C103.354 298.444 104.042 298.521 103.665 298.483L102.655 298.346C101.422 298.16 100.194 297.92 98.982 297.62C97.7703 297.319 96.5695 296.953 95.396 296.527L94.8939 296.342L94.0588 295.998C93.4438 295.728 92.8325 295.444 92.2249 295.146C91.1307 294.593 90.07 293.977 89.0483 293.3C88.8027 293.136 88.5625 292.966 88.3223 292.797C88.0822 292.628 88.5734 292.988 88.2732 292.759L87.9239 292.497C87.4327 292.114 86.9578 291.716 86.4939 291.301C86.03 290.885 85.6424 290.509 85.2385 290.088C85.0348 289.881 84.8383 289.668 84.6491 289.449L84.3598 289.121C84.327 289.083 83.9613 288.641 84.136 288.859C84.3107 289.078 84.0268 288.717 83.9886 288.668L83.7266 288.324C83.552 288.089 83.3882 287.849 83.2245 287.614C82.8752 287.101 82.5477 286.571 82.2475 286.03C82.1001 285.773 81.9637 285.517 81.8327 285.254C81.789 285.167 81.4233 284.392 81.6144 284.823C81.2997 284.11 81.0245 283.381 80.7902 282.638C80.5773 281.956 80.3972 281.267 80.2444 280.568C80.1054 279.957 80.0105 279.336 79.9606 278.711C79.6709 275.88 79.8201 273.021 80.4027 270.235C81.004 267.325 81.87 264.477 82.9898 261.725C85.3095 256.062 88.4479 250.802 91.1223 245.286C93.7368 239.901 95.9527 234.259 96.6077 228.273C97.1344 223.33 96.7025 218.332 95.336 213.553C92.5781 203.96 86.6204 195.6 78.4541 189.866C74.4698 187.041 69.9481 185.065 65.1692 184.06C60.2486 183.113 55.1889 183.156 50.285 184.186C40.8262 186.119 32.0223 191.805 26.1003 199.402C24.6147 201.304 23.334 203.358 22.2796 205.53C21.1899 207.683 20.3019 209.931 19.627 212.248C18.3498 216.901 17.4056 222.035 19.2722 226.683C20.0909 228.731 21.5537 230.834 23.6387 231.763C25.4652 232.523 27.5104 232.57 29.3697 231.894C31.1614 231.393 32.6905 230.219 33.6379 228.617C34.0788 227.748 34.2588 226.769 34.1561 225.8C34.0535 224.831 33.6725 223.912 33.0593 223.155C32.3358 222.315 31.4326 221.65 30.4169 221.207C29.4012 220.765 28.2989 220.557 27.1919 220.599C24.5393 220.637 22.1595 222.063 20.2711 223.832C18.3427 225.764 16.6798 227.944 15.326 230.315C13.9339 232.598 12.7309 234.991 11.7292 237.47C7.67568 247.699 6.86767 258.929 9.41494 269.634C10.6381 274.901 12.7062 279.934 15.5389 284.539C18.4208 289.187 22.5034 293.731 27.9888 295.14C32.7755 296.369 38.7084 295.178 41.3883 290.662C43.5716 286.953 43.1513 281.48 39.5108 278.831C39.2807 278.628 39.0041 278.483 38.7054 278.411C38.4067 278.338 38.0948 278.34 37.7969 278.416C37.1759 278.543 36.5676 278.726 35.9794 278.963C34.8221 279.409 33.737 280.023 32.7591 280.787C30.7381 282.39 29.1241 284.449 28.0488 286.795C25.418 292.48 25.8656 299.018 26.8753 305.026C28.5728 314.857 32.3771 324.655 38.6211 332.509C41.6508 336.422 45.3731 339.745 49.6028 342.313C54.234 345.074 59.4962 346.599 64.8854 346.742C77.1442 347.206 88.8245 341.133 98.398 334C107.971 326.867 116.246 318.074 126.354 311.607C134.918 306.145 145.245 302.59 155.549 304.398C160.085 305.19 164.555 307.074 167.95 310.247C169.342 311.553 171.389 309.406 169.992 308.101C167.744 305.945 165.131 304.209 162.274 302.972C159.313 301.747 156.185 300.972 152.995 300.673C146.573 300.121 140.108 301.024 134.083 303.316C120.394 308.347 109.86 319.155 98.7254 327.921C87.591 336.687 73.7329 345.027 59.2908 341.69C53.7364 340.366 48.644 337.561 44.554 333.574C40.3029 329.403 36.8477 324.491 34.3583 319.079C31.609 313.333 29.7272 307.212 28.7747 300.913C28.1907 297.024 27.9451 292.988 29.2223 289.209C30.1847 286.258 32.0914 283.708 34.6476 281.95C35.8828 281.14 37.2733 280.597 38.7303 280.355L37.9279 280.273C40.1985 281.666 40.8862 284.605 40.3568 287.09C39.7182 290.017 37.4367 292.032 34.533 292.748C27.4703 294.523 21.5482 289.018 18.0824 283.518C14.4319 277.633 12.097 271.028 11.2379 264.156C10.3858 257.254 10.8675 250.252 12.657 243.533C13.5125 240.19 14.7163 236.946 16.2484 233.854C17.804 230.747 19.6488 227.524 22.1377 225.072C24.3646 222.887 27.6285 221.538 30.5868 223.144C31.1684 223.431 31.6712 223.855 32.0517 224.381C32.4322 224.906 32.6787 225.517 32.77 226.159C32.7908 226.724 32.681 227.286 32.449 227.801C32.2171 228.316 31.8693 228.771 31.4328 229.13C30.5275 229.963 29.4028 230.518 28.1917 230.731C26.9807 230.944 25.734 230.806 24.5993 230.332C21.8703 229.043 20.5767 225.809 20.2328 222.991C19.5342 216.852 21.8703 210.478 25.3089 205.514C28.7552 200.507 33.2777 196.336 38.5447 193.307C39.1997 192.93 39.8601 192.575 40.5369 192.214C40.8571 192.051 41.1791 191.892 41.503 191.739C41.503 191.739 42.1416 191.45 41.7922 191.603L42.3817 191.346C43.8275 190.732 45.3073 190.201 46.8137 189.757C48.2481 189.32 49.7058 188.964 51.1801 188.692L51.8133 188.582C51.3712 188.653 51.7423 188.582 51.8133 188.582C52.2008 188.528 52.5829 188.473 52.9704 188.429C53.7836 188.331 54.6078 188.266 55.4156 188.227C56.9095 188.159 58.4063 188.186 59.8967 188.309L60.5353 188.369C59.9895 188.315 60.4862 188.369 60.6172 188.369C61.0101 188.419 61.3977 188.473 61.7852 188.533C62.5657 188.664 63.3353 188.817 64.1049 188.997C65.5615 189.337 66.9975 189.761 68.4058 190.265L69.0062 190.489C68.4604 190.27 69.099 190.532 69.1809 190.565C69.5084 190.702 69.8304 190.844 70.1524 190.991C70.862 191.313 71.5606 191.657 72.2483 192.029C73.6102 192.75 74.9263 193.554 76.189 194.437L76.6202 194.749C76.1454 194.405 76.7185 194.825 76.7785 194.874C77.0623 195.087 77.3243 195.311 77.6191 195.535C78.2267 196.027 78.8198 196.536 79.3984 197.064C80.5565 198.119 81.6501 199.243 82.6732 200.429C82.9079 200.696 83.1372 200.975 83.3664 201.248C83.0553 200.882 83.3009 201.166 83.3664 201.248L83.7594 201.756C84.2452 202.379 84.7036 203.012 85.1512 203.662C86.042 204.958 86.8584 206.304 87.5964 207.693C87.9348 208.326 88.2514 208.965 88.557 209.61C88.5898 209.681 88.8736 210.336 88.6389 209.796L88.8136 210.189C88.9828 210.582 89.1411 210.981 89.2993 211.38C89.8723 212.836 90.3571 214.327 90.7512 215.842C90.9313 216.53 91.095 217.224 91.2315 217.917C91.3025 218.267 91.3625 218.616 91.428 218.966C91.559 219.665 91.3625 218.42 91.4607 219.141C91.4935 219.386 91.5317 219.632 91.5644 219.878C91.7581 221.39 91.8565 222.914 91.8592 224.438C91.8592 225.148 91.8319 225.853 91.7882 226.563C91.7882 226.956 91.7282 227.344 91.6954 227.732C91.6627 228.12 91.7773 227.126 91.6954 227.808C91.6627 228.054 91.6354 228.305 91.5972 228.551C91.0234 232.179 89.9908 235.719 88.5243 239.087C85.3532 246.531 80.9649 253.391 78.0448 260.934C75.1902 268.34 73.6347 276.838 76.3528 284.523C78.6452 291.017 83.7048 296.041 89.8015 299.083C96.2748 302.317 103.518 303.453 110.7 303.049C119.406 302.573 127.893 300.236 136.353 298.21C140.208 297.238 144.112 296.479 148.05 295.938C151.991 295.441 155.932 295.244 159.889 295.124C163.699 295.06 167.484 295.756 171.023 297.172C171.509 297.363 171.804 296.566 171.356 296.325L171.329 296.347Z" fill="#2E2221"/>
<path d="M184.259 218.807C182.545 220.684 181.126 222.811 180.051 225.116C178.99 227.441 178.204 229.883 177.709 232.391C176.725 237.535 176.859 242.831 178.102 247.918C178.752 250.808 179.887 253.567 181.459 256.078C181.651 256.381 181.928 256.62 182.255 256.768C182.582 256.915 182.944 256.964 183.298 256.908C183.652 256.858 183.983 256.702 184.248 256.462C184.513 256.221 184.699 255.907 184.783 255.559C185.023 253.462 185.261 251.363 185.498 249.262C185.733 247.164 185.875 245.04 186.224 242.964L184.106 242.73C183.971 250.407 186.322 257.921 190.809 264.15C191.431 265.013 192.091 265.854 192.795 266.657C193.499 267.46 194.433 268.126 195.186 268.918C195.267 268.994 195.365 269.05 195.471 269.083C195.577 269.115 195.689 269.123 195.799 269.107C195.908 269.09 196.013 269.048 196.104 268.986C196.196 268.923 196.272 268.84 196.327 268.744C199.008 263.802 200.484 258.296 200.633 252.675L198.057 253.09C199.498 259.119 201.607 264.969 204.345 270.53C207.019 276.008 210.296 281.17 214.115 285.921C215.905 288.105 218.11 290.164 220.921 290.896C224.048 291.715 226.968 290.459 229.244 288.335C231.428 286.303 233.191 283.714 234.932 281.3C236.673 278.886 238.392 276.281 239.964 273.654C240.834 272.197 241.669 270.732 242.469 269.257C243.31 267.695 243.97 266.051 244.778 264.473C246.356 261.398 247.769 258.246 249.063 255.04C249.175 254.823 249.214 254.575 249.173 254.333C249.133 254.092 249.015 253.87 248.838 253.702C248.661 253.533 248.434 253.426 248.191 253.398C247.948 253.369 247.702 253.421 247.491 253.544C243.73 255.341 244.734 260.95 247.693 262.971C249.647 264.303 252.288 263.926 254.27 262.867C256.4 261.66 258.005 259.704 258.773 257.378C259.832 254.363 259.821 251.097 259.761 247.945L258.123 248.202C258.462 249.433 258.798 250.662 259.133 251.889C259.343 252.502 259.505 253.13 259.619 253.768C259.679 254.379 259.673 255.002 259.695 255.619C259.702 255.826 259.757 256.029 259.855 256.212C259.952 256.394 260.09 256.552 260.258 256.674C260.426 256.795 260.62 256.876 260.824 256.911C261.028 256.946 261.237 256.934 261.436 256.875C262.121 256.551 262.711 256.056 263.15 255.439C263.609 254.926 264.051 254.396 264.476 253.855C265.36 252.75 266.164 251.584 266.883 250.365C268.246 248.028 269.362 245.555 270.213 242.986C271.113 240.358 271.61 237.609 271.686 234.832C271.768 233.489 271.719 232.14 271.539 230.807C271.441 230.217 271.304 229.632 271.162 229.048C271.028 228.368 270.936 227.68 270.89 226.989C270.57 223.985 269.889 221.03 268.859 218.19C268.614 217.513 267.527 217.835 267.768 218.518C268.643 220.938 269.238 223.45 269.541 226.006C269.618 226.623 269.678 227.24 269.722 227.863C269.749 228.545 269.688 229.228 269.541 229.895C269.318 231.096 269.192 232.309 268.996 233.516C268.553 236.03 267.975 238.519 267.265 240.971C266.593 243.362 265.663 245.673 264.493 247.864C263.821 249.142 263.068 250.387 262.277 251.594C261.938 252.14 261.584 252.643 261.185 253.145C260.694 253.8 259.941 254.467 259.75 255.275L262.206 254.887C261.917 254.341 261.578 253.833 261.322 253.282C261.095 252.673 260.913 252.048 260.776 251.414L259.728 247.743C259.685 247.534 259.563 247.35 259.388 247.228C259.213 247.107 258.997 247.057 258.787 247.09C258.576 247.123 258.386 247.236 258.257 247.406C258.127 247.575 258.067 247.788 258.09 248C258.216 252.217 258.369 257.285 254.668 260.163C253.255 261.256 251.453 261.867 249.696 261.316C249.131 261.106 248.629 260.755 248.238 260.296C247.847 259.837 247.581 259.286 247.464 258.694C247.136 257.416 247.414 256.089 248.653 255.472L247.027 254.243C245.979 256.974 244.795 259.639 243.512 262.261C242.167 264.87 240.682 267.404 239.064 269.852C235.986 274.764 232.499 279.407 228.639 283.73C227.866 284.641 226.993 285.46 226.035 286.172C225.22 286.826 224.209 287.187 223.164 287.199H222.76C223.104 287.199 222.689 287.199 222.602 287.199C222.307 287.144 222.029 287.057 221.74 286.98C221.69 286.98 221.379 286.849 221.663 286.98L221.297 286.816C220.992 286.667 220.695 286.501 220.408 286.319C219.411 285.674 218.506 284.897 217.717 284.009C216.845 283.063 216.03 282.065 215.277 281.021C214.393 279.842 213.538 278.644 212.712 277.428C211.107 275.057 209.617 272.614 208.242 270.098C205.118 264.443 202.559 258.494 200.6 252.337C200.164 250.933 197.964 251.244 198.024 252.752C198.241 258.009 197.232 263.245 195.077 268.044L196.218 267.87C195.392 267.03 194.629 266.13 193.936 265.177C193.193 264.278 192.499 263.339 191.857 262.364C187.998 256.55 186.047 249.678 186.273 242.702C186.317 241.506 184.379 241.277 184.161 242.467C183.79 244.526 183.206 246.558 182.72 248.59L181.262 254.707L184.586 254.188C183.494 252.14 182.565 250.009 181.808 247.814C181.081 245.601 180.605 243.313 180.389 240.993C179.949 236.236 180.492 231.44 181.983 226.902C182.392 225.656 182.911 224.438 183.386 223.215C183.893 221.931 184.489 220.685 185.17 219.485C185.257 219.367 185.292 219.219 185.27 219.075C185.247 218.93 185.168 218.801 185.05 218.715C184.932 218.628 184.785 218.593 184.641 218.615C184.496 218.638 184.367 218.717 184.281 218.835L184.259 218.807Z" fill="#2E2221"/>
<path d="M180.722 150.454L180.646 150.525L180.395 150.869L180.236 151.268C180.179 151.486 180.179 151.716 180.236 151.934C180.239 152.082 180.283 152.225 180.362 152.349C180.402 152.487 180.477 152.611 180.58 152.71C180.656 152.832 180.761 152.933 180.886 153.005C180.992 153.103 181.122 153.173 181.262 153.207C181.462 153.306 181.684 153.351 181.906 153.338L182.343 153.267L182.736 153.087L183.069 152.819L183.32 152.475L183.478 152.076C183.538 151.858 183.538 151.628 183.478 151.41C183.477 151.263 183.436 151.12 183.358 150.995C183.289 150.784 183.164 150.596 182.998 150.449L182.927 150.389C182.789 150.241 182.613 150.134 182.419 150.077C182.232 149.983 182.023 149.942 181.814 149.957L181.399 150.023C181.142 150.101 180.909 150.244 180.722 150.438V150.454Z" fill="#FFD18C"/>
</svg>
