<svg width="100" height="63" viewBox="0 0 100 63" fill="none" xmlns="http://www.w3.org/2000/svg" xmlns:xlink="http://www.w3.org/1999/xlink">
	<defs>
	    <ref id="paramColor" param="color" default="#FF6B3D"/>
	</defs>
	<path d="M51.6985 0.293645C51.5252 0.72488 51.3692 1.1561 51.2306 1.60459C51.092 2.05307 51.04 2.48431 50.9707 2.9328C50.7974 3.82977 50.6414 4.65773 50.5201 5.6237C50.2602 7.45213 50.0696 9.29781 49.9829 11.1435C49.8963 12.9892 49.9829 14.8521 49.9829 16.7151C49.9829 17.6465 49.9829 18.578 49.9829 19.4922C49.9565 19.9115 49.9565 20.3321 49.9829 20.7514C49.9829 20.9929 49.9829 21.2171 49.9829 21.4586C50.0629 21.7295 50.1613 21.9946 50.2775 22.2521C50.3726 23.1004 50.3726 23.9567 50.2775 24.805C50.2775 25.7365 50.2775 26.6679 50.2775 27.6166C50.2775 29.4796 50.2775 31.3425 50.2775 33.2227V35.8791C50.2775 36.8623 50.5548 37.8283 50.5721 38.8287C50.5721 40.6744 50.5721 42.5546 50.4161 44.4003C50.4161 45.418 50.4161 46.4357 50.3122 47.4534C50.2082 48.4711 50.1042 49.4716 49.9829 50.4893C49.8616 51.507 49.7403 52.4385 49.5497 53.4045C49.4457 53.9392 49.3591 54.4912 49.3071 55.0259C49.3071 55.1811 49.3071 55.4226 49.3071 55.2156C49.0962 55.5721 48.8587 55.9123 48.5966 56.2334C48.4335 56.5547 48.3447 56.9084 48.3367 57.2683C48.3363 57.6349 48.4255 57.996 48.5966 58.3205C48.7708 58.6346 49.0136 58.9058 49.3071 59.114C49.7648 59.4132 50.3163 59.5361 50.8585 59.46C51.4006 59.3838 51.8964 59.1136 52.253 58.7C52.4901 58.4237 52.6513 58.0909 52.7209 57.7341C52.7989 57.3818 52.7989 57.0168 52.7209 56.6646C52.6177 56.3418 52.4962 56.025 52.357 55.7159C52.357 55.5951 52.357 55.3882 52.357 55.6296C52.3315 55.1758 52.3315 54.7208 52.357 54.2669C52.357 53.3527 52.357 52.4385 52.357 51.5243C52.357 49.6959 52.357 47.8502 52.357 46.0217C52.357 44.1933 52.357 42.3131 52.357 40.4502C52.2877 39.5258 52.2877 38.5975 52.357 37.673C52.4263 36.7371 52.4263 35.7973 52.357 34.8614C52.201 31.1355 51.9584 27.3924 51.8718 23.6666C51.8371 23.2015 51.8371 22.7345 51.8718 22.2694C51.9882 21.9473 52.0865 21.619 52.1664 21.2861C52.1664 20.3029 52.1664 19.337 52.2703 18.3365V12.7822C52.2703 10.7468 52.2703 8.7286 52.2703 6.69317V2.01858C52.2703 1.4666 52.2703 0.931877 52.1144 0.379897C52.0988 0.289244 52.0566 0.205216 51.9931 0.138407C51.9308 0.068542 51.8439 0.025273 51.7505 0.0176488C51.6654 -0.00588295 51.5756 -0.00588295 51.4905 0.0176488C51.4193 0.0771692 51.3655 0.154614 51.3346 0.241899L51.6985 0.293645Z" fill="#0B2538"/>
	<path d="M25.1683 42.1238C22.7804 42.2573 20.4344 42.8061 18.2367 43.7452C15.9972 44.6144 13.8301 45.6584 11.7557 46.8674C7.60735 49.3177 3.81724 52.3242 0.491911 55.8025C-0.42652 56.7857 0.24931 58.8384 1.77425 58.6487C3.88539 58.4203 5.9296 57.7752 7.78738 56.7512C9.60141 55.824 11.2661 54.6322 12.7261 53.2151C12.9699 52.9727 13.1071 52.6439 13.1074 52.3009C13.1267 51.9622 13.0151 51.6289 12.7954 51.3694C12.5786 51.1105 12.2787 50.9338 11.9463 50.8692C11.607 50.8037 11.2552 50.8651 10.9586 51.0417C7.66369 52.5697 4.90938 55.0528 3.05659 58.1657C2.94388 58.3902 2.89022 58.6394 2.90063 58.8902C2.89755 59.1413 2.96997 59.3876 3.10858 59.5974C3.23287 59.8185 3.41966 59.9985 3.64577 60.1149C3.86545 60.2454 4.11783 60.3112 4.37359 60.3046C5.65961 60.4081 6.95191 60.4081 8.23793 60.3046C9.50163 60.0958 10.7472 59.7901 11.9636 59.3904C14.3915 58.7067 16.7211 57.7154 18.8952 56.4408C19.0789 56.3138 19.2183 56.1329 19.2938 55.9233C19.3718 55.7058 19.3718 55.4681 19.2938 55.2506C19.2261 55.037 19.0927 54.8499 18.9125 54.7158C18.7272 54.579 18.5021 54.5063 18.2714 54.5088C16.4485 54.5512 14.6637 55.0368 13.0727 55.9233C11.4687 56.8253 10.1165 58.1119 9.13904 59.6664C9.02732 59.8398 8.96577 60.0406 8.96116 60.2466C8.95655 60.4526 9.00905 60.6558 9.11291 60.8341C9.21676 61.0123 9.36794 61.1586 9.54986 61.2569C9.73177 61.3552 9.93738 61.4017 10.1441 61.3913C12.2343 61.5955 14.3362 61.6531 16.4345 61.5638C17.0162 61.516 17.5948 61.4353 18.1674 61.3223C18.7566 61.3223 19.5017 61.2188 20.1602 61.2016C21.5465 61.2016 22.9502 61.0808 24.3365 61.0636C29.8288 60.9493 35.3118 60.5578 40.7643 59.8906C43.1383 59.6147 45.5644 59.4422 47.9384 59.1317C48.2017 59.1258 48.461 59.0671 48.7009 58.9592C48.9408 58.8438 49.1534 58.6792 49.3248 58.4762C49.4974 58.2768 49.6218 58.0408 49.6887 57.7862C49.7479 57.5308 49.7479 57.2654 49.6887 57.01C49.6474 56.7493 49.5467 56.5014 49.3941 56.2855C49.2498 56.0699 49.0607 55.8875 48.8395 55.7508C48.6109 55.6193 48.357 55.537 48.0944 55.5093C47.8378 55.4503 47.5712 55.4503 47.3146 55.5093C42.9129 57.0407 38.3381 58.0256 33.6941 58.4417C30.8868 58.7867 28.0622 59.0454 25.2549 59.3559C23.9033 59.4939 22.5689 59.5802 21.2173 59.6492C19.9151 59.7784 18.6032 59.7784 17.3009 59.6492C15.0309 59.2869 12.4142 59.4594 10.2481 59.2007L10.9586 60.8221C11.7379 59.5847 12.8145 58.5599 14.0912 57.8402C15.3678 57.1204 16.8044 56.7284 18.2714 56.6995L17.7342 54.6813C15.7379 55.8942 13.5448 56.7522 11.2532 57.217C10.1054 57.3804 8.94671 57.4554 7.78738 57.4412C6.58747 57.5275 5.38288 57.5275 4.18297 57.4412L5.49996 59.5974C7.00005 56.9813 9.27581 54.8908 12.0156 53.6119L10.5773 51.3005C9.39299 52.4803 8.00088 53.4333 6.47038 54.1121C4.89889 54.736 3.24879 55.1423 1.5663 55.3195L2.83132 58.1657C5.9991 54.9388 9.54859 52.1064 13.4019 49.7308C15.3637 48.5265 17.3882 47.4268 19.4671 46.4361C21.5119 45.4529 23.5394 44.5387 25.4975 43.4002C25.6161 43.3203 25.7069 43.2058 25.7574 43.0725C25.8004 42.9319 25.8004 42.7818 25.7574 42.6413C25.7204 42.4965 25.6348 42.3687 25.5148 42.279C25.3943 42.1905 25.2487 42.1422 25.099 42.141L25.1683 42.1238Z" fill="#0B2538"/>
	<path d="M74.0011 43.4172C75.9766 44.5901 78.0214 45.4871 80.0836 46.4703C82.1374 47.4784 84.1386 48.5895 86.0794 49.7995C89.9338 52.1594 93.4788 54.9869 96.6327 58.2172L97.759 55.3365C96.9583 55.2329 96.1653 55.0773 95.385 54.8708C94.5776 54.7139 93.7881 54.477 93.0282 54.1635C91.469 53.4345 90.0405 52.4555 88.8 51.2657L87.0671 53.5081C89.9289 54.8003 92.311 56.9543 93.8774 59.6661C94.2759 58.9244 94.6745 58.1999 95.0557 57.4582C93.8774 57.5444 92.6643 57.4582 91.4513 57.4582C90.2906 57.512 89.1274 57.4309 87.9855 57.2167C85.6839 56.7217 83.4855 55.8347 81.4872 54.5948C81.3139 55.2503 81.1579 55.9057 81.002 56.5612C82.4685 56.6125 83.9011 57.0149 85.1782 57.7342C86.4493 58.4652 87.5204 59.4958 88.2975 60.7356C88.592 60.1491 88.8866 59.6143 89.1986 59.0106C87.1884 59.2521 85.1609 59.3556 83.1681 59.6833C82.0185 59.8225 80.8594 59.8686 79.7023 59.8213C78.4546 59.8213 77.2243 59.8214 75.9766 59.7006C70.9512 59.3901 65.9432 59.0796 60.9524 58.2861C58.6906 57.9467 56.4716 57.3685 54.3328 56.5612C53.9186 56.5532 53.5139 56.6849 53.1844 56.9347C52.8548 57.1846 52.6198 57.5379 52.5174 57.9375C52.415 58.3371 52.4514 58.7593 52.6205 59.1358C52.7896 59.5122 53.0816 59.8207 53.449 60.0111C55.5458 60.2871 57.66 60.3733 59.7567 60.5976C62.1828 60.8391 64.5915 60.9771 67.0349 61.0978C69.4783 61.2185 72.2336 61.3566 74.8502 61.3221C77.4669 61.2876 79.8236 61.1495 82.319 61.2013C82.9775 61.2013 83.6187 61.3565 84.2771 61.4083C84.9356 61.46 85.4555 61.4083 86.01 61.4083C87.0844 61.4083 88.1761 61.3048 89.2679 61.2013C89.4585 61.1887 89.643 61.1294 89.8051 61.0288C89.9622 60.9216 90.0926 60.78 90.1863 60.6148C90.2826 60.447 90.3305 60.256 90.3249 60.0628C90.3244 59.8681 90.2705 59.6773 90.169 59.5109C89.1968 57.9432 87.8413 56.6463 86.2292 55.7414C84.617 54.8364 82.8007 54.3529 80.95 54.336C80.7174 54.3535 80.4948 54.4374 80.3088 54.5775C80.1363 54.7265 80.0151 54.9256 79.9623 55.1468C79.8931 55.3657 79.8931 55.6005 79.9623 55.8195C80.052 56.0263 80.2032 56.2009 80.3955 56.3197C82.5787 57.542 84.9074 58.4866 87.327 59.1314C88.5054 59.4419 89.7358 59.7696 90.9488 60.0111C92.2614 60.2149 93.5944 60.2554 94.9171 60.1318C95.1711 60.1146 95.416 60.0313 95.6276 59.8904C95.841 59.7611 96.0147 59.5762 96.1301 59.3556C96.2481 59.1325 96.3077 58.8833 96.3034 58.6312C96.3065 58.38 96.2341 58.1337 96.0955 57.9239C94.2385 54.8207 91.4762 52.3538 88.1762 50.8517C87.8768 50.6998 87.5334 50.6571 87.2057 50.7309C86.8833 50.8168 86.5975 51.0044 86.3913 51.2657C86.196 51.5355 86.1039 51.8657 86.1313 52.1971C86.147 52.5301 86.2895 52.8447 86.5299 53.0769C87.9421 54.4887 89.5822 55.6549 91.382 56.5267C92.2779 57.0057 93.204 57.4264 94.1546 57.7859C95.0998 58.0963 96.0759 58.3045 97.0659 58.4069C97.4284 58.5089 97.8157 58.4783 98.1576 58.3207C98.5005 58.1729 98.7861 57.9188 98.972 57.5962C99.1437 57.2675 99.2045 56.8925 99.1454 56.5267C99.0921 56.1625 98.9147 55.8275 98.6428 55.578C95.3191 52.1049 91.5355 49.0989 87.3963 46.6428C85.3356 45.4518 83.1864 44.4196 80.9673 43.5552C78.7681 42.6181 76.4235 42.0638 74.0358 41.9165C73.3426 41.9165 73.1866 42.8652 73.7238 43.1929L74.0011 43.4172Z" fill="#0B2538"/>
	<path fill="#FF6B3D" d="M14.1472 25.1674C22.5344 28.4448 31.736 28.2033 40.5738 27.7203C50.1913 27.2028 59.8088 26.8406 69.4437 26.8406C72.1124 26.8406 74.781 26.8406 77.4497 26.8406C80.0913 27.0217 82.7451 26.7948 85.317 26.1679C85.6754 26.0546 86.0079 25.8722 86.2955 25.631C86.5831 25.3899 86.8201 25.0947 86.9931 24.7623C87.1661 24.4299 87.2716 24.0669 87.3037 23.694C87.3357 23.321 87.2936 22.9454 87.1798 22.5887C87.066 22.2319 86.8828 21.9009 86.6405 21.6146C86.3982 21.3284 86.1017 21.0924 85.7678 20.9202C85.4339 20.748 85.0692 20.643 84.6945 20.6111C84.3198 20.5792 83.9425 20.6211 83.5841 20.7343C80.9316 21.335 78.2005 21.5154 75.4915 21.2691C72.4416 21.2691 69.3917 21.2691 66.3418 21.2691C60.3287 21.2691 54.3156 21.4588 48.3198 21.7348C37.3852 22.2178 25.8962 23.8392 15.3949 19.7684C15.0319 19.6753 14.6539 19.6546 14.2829 19.7076C13.9118 19.7605 13.555 19.886 13.2328 20.0768C12.9107 20.2676 12.6296 20.5199 12.4059 20.8193C12.1821 21.1186 12.0201 21.4591 11.9291 21.821C11.7544 22.5501 11.872 23.3183 12.257 23.9624C12.6421 24.6066 13.2642 25.0759 13.9912 25.2709L14.1472 25.1674Z"/>
	<path fill="#FF6B3D" d="M80.8459 23.011C76.1094 29.5543 71.6154 36.247 67.3641 43.0893C67.1831 43.4155 67.0686 43.774 67.0268 44.1442C66.9851 44.5145 67.017 44.8893 67.1208 45.2473C67.2246 45.6053 67.3982 45.9394 67.6317 46.2307C67.8652 46.5219 68.1541 46.7644 68.4818 46.9445C68.8095 47.1246 69.1696 47.2387 69.5416 47.2802C69.9136 47.3218 70.2901 47.29 70.6498 47.1867C71.0094 47.0834 71.3451 46.9105 71.6376 46.6781C71.9302 46.4457 72.1739 46.1581 72.3548 45.8319C76.6177 38.9322 81.1059 32.2394 85.8193 25.7537C86.1811 25.0936 86.2676 24.3185 86.0601 23.5956C85.8526 22.8726 85.3678 22.2599 84.7103 21.8898C84.0442 21.5497 83.2726 21.4763 82.5539 21.6848C81.8353 21.8933 81.2241 22.3679 80.8459 23.011Z"/>
	<path fill="#FF6B3D" d="M15.0306 27.5997C15.1692 27.5997 15.3772 27.824 15.1346 27.5997C15.3186 27.7427 15.4871 27.9046 15.6371 28.0827C15.949 28.4105 15.4465 27.7895 15.6371 28.169L15.949 28.6347C16.3822 29.3247 16.7462 30.0664 17.1274 30.7909C18.1682 32.5535 19.3627 34.2216 20.6971 35.7759C23.1222 38.8927 25.0671 42.3518 26.4677 46.0393C26.6991 46.7319 27.1846 47.3121 27.8271 47.6639C28.4697 48.0156 29.2219 48.1131 29.9335 47.9367C30.6341 47.7134 31.2222 47.2314 31.5767 46.5897C31.9313 45.948 32.0254 45.1955 31.8396 44.4869C30.2495 40.2095 28.0177 36.1967 25.22 32.5848C23.8544 30.979 22.6474 29.2461 21.6156 27.41C20.798 25.5094 19.4511 23.8813 17.7339 22.7182C17.4062 22.5381 17.0461 22.424 16.6741 22.3824C16.3021 22.3409 15.9256 22.3727 15.5659 22.476C15.2063 22.5793 14.8706 22.7521 14.578 22.9846C14.2855 23.217 14.0418 23.5046 13.8609 23.8307C13.68 24.1569 13.5654 24.5154 13.5236 24.8857C13.4819 25.2559 13.5138 25.6308 13.6176 25.9888C13.7214 26.3468 13.895 26.6809 14.1285 26.9721C14.3621 27.2633 14.6509 27.5059 14.9786 27.686L15.0306 27.5997Z"/>
	<path fill="#FF6B3D" d="M79.5464 24.1844L52.0281 24.5639C47.4706 24.5639 42.9131 24.6674 38.3556 24.7019C33.7555 24.6206 29.1585 24.9904 24.6311 25.8058C23.9073 26.0346 23.3043 26.5402 22.955 27.2114C22.6056 27.8827 22.5385 28.6646 22.7683 29.3851C22.9981 30.1057 23.506 30.7058 24.1803 31.0535C24.8547 31.4013 25.6402 31.4682 26.364 31.2394C30.5822 30.5325 34.8596 30.2378 39.1354 30.3597C43.6987 30.3597 48.2562 30.3137 52.8079 30.2217L79.7717 29.8595C83.4454 29.8595 83.2375 24.1327 79.6331 24.1844H79.5464Z"/>
	<path fill="#FF6B3D" d="M20.8017 30.377C24.0202 33.1489 27.8307 35.1546 31.9441 36.2418C36.4686 37.2512 41.1615 37.2512 45.686 36.2418C50.3648 35.4138 55.0089 34.6376 59.757 34.2581C64.5051 33.8787 69.5479 33.7061 74.4346 33.5681C75.1529 33.4976 75.8178 33.1594 76.2959 32.6212C76.774 32.083 77.03 31.3848 77.0124 30.6666C76.9949 29.9483 76.7051 29.2633 76.2013 28.7489C75.6975 28.2345 75.0168 27.9288 74.296 27.8931C65.0735 27.9727 55.8719 28.7802 46.7777 30.308C42.8176 31.3215 38.6961 31.5501 34.6474 30.9807C30.9698 30.2886 27.5327 28.667 24.666 26.2717C21.8934 23.9085 17.9597 27.9966 20.7497 30.377H20.8017Z"/>
	<path fill="#FF6B3D" d="M75.7513 28.4104C63.7597 28.6634 51.7797 28.4794 39.8112 27.8584C39.0573 27.881 38.3425 28.1973 37.8207 28.7393C37.2989 29.2813 37.0118 30.0056 37.0212 30.7563C37.0612 31.5022 37.3873 32.2044 37.9322 32.718C38.4772 33.2315 39.1994 33.5173 39.9498 33.5162C51.9068 34.1602 63.8868 34.3442 75.8899 34.0682C76.6437 34.0499 77.3592 33.7343 77.8792 33.1908C78.3992 32.6474 78.681 31.9205 78.6626 31.1703C78.6442 30.42 78.3271 29.7077 77.7812 29.1902C77.2352 28.6726 76.5051 28.3921 75.7513 28.4104Z"/>
	<path fill="#FF6B3D" d="M34.2312 33.7747H36.4146C37.161 33.7194 37.8652 33.4085 38.4074 32.895C38.6627 32.6318 38.8526 32.3128 38.962 31.9635C39.1324 31.6214 39.2101 31.2408 39.1872 30.8596L39.0659 30.1178C38.9296 29.6427 38.666 29.2134 38.3035 28.8759L37.7143 28.4447C37.2745 28.2037 36.7778 28.0846 36.276 28.0997H34.0925C33.3461 28.155 32.642 28.4659 32.0997 28.9794C31.8377 29.2374 31.6467 29.5582 31.5452 29.9109C31.3769 30.2476 31.2993 30.622 31.3199 30.9976L31.4412 31.7565C31.5849 32.2234 31.8476 32.6454 32.2037 32.9812L32.7929 33.4125C33.2342 33.6513 33.7288 33.7758 34.2312 33.7747Z"/>
	<path fill="#FF6B3D" d="M36.7958 33.7747C40.4522 33.7747 40.2616 28.0996 36.6572 28.0996C33.0528 28.0996 33.1914 33.7747 36.7958 33.7747Z"/>
	<path fill="#FF6B3D" d="M28.6167 39.2085C43.3983 38.9325 58.0758 37.0695 72.9267 37.587C76.6004 37.725 76.3925 32.05 72.7881 31.9292C57.9892 31.4117 43.3289 33.2747 28.4781 33.5334C27.7598 33.6039 27.0949 33.9422 26.6168 34.4804C26.1387 35.0186 25.8827 35.7168 25.9003 36.435C25.9178 37.1532 26.2076 37.8383 26.7114 38.3527C27.2152 38.8671 27.8959 39.1728 28.6167 39.2085Z"/>
	<path fill="#FF6B3D" d="M69.5823 36.3447L48.0425 35.9307C41.1109 35.7927 33.9888 35.2063 27.2478 37.1382C26.8894 37.2514 26.5569 37.4339 26.2693 37.675C25.9817 37.9162 25.7447 38.2114 25.5717 38.5438C25.3987 38.8761 25.2932 39.2392 25.2611 39.6121C25.2291 39.9851 25.2712 40.3606 25.385 40.7174C25.4987 41.0742 25.682 41.4052 25.9243 41.6914C26.1666 41.9777 26.4631 42.2137 26.797 42.3859C27.1309 42.5581 27.4956 42.6631 27.8703 42.695C28.245 42.7269 28.6223 42.685 28.9807 42.5717C35.3404 40.726 42.2893 41.4678 48.8223 41.6058L69.7903 42.0198C73.464 42.0198 73.256 36.4309 69.6516 36.3447H69.5823Z"/>
	<path fill="#FF6B3D" d="M31.2504 46.6256C44.182 45.2688 57.1939 44.825 70.1885 45.2974C73.8449 45.4354 73.6543 39.7776 70.0498 39.6396C57.0557 39.1614 44.0438 39.5995 31.1118 40.9506C30.3625 40.9818 29.6546 41.3014 29.1374 41.842C28.6202 42.3826 28.334 43.1019 28.3392 43.8484C28.3618 44.5988 28.6796 45.3103 29.2241 45.8298C29.7687 46.3492 30.4963 46.635 31.2504 46.6256Z"/>
	<path fill="#FF6B3D" d="M68.5941 43.2795C57.0415 43.038 45.4889 42.67 33.9363 42.1755C33.2181 42.246 32.5532 42.5843 32.0751 43.1225C31.5969 43.6607 31.341 44.3589 31.3585 45.0771C31.3761 45.7953 31.6658 46.4804 32.1697 46.9948C32.6735 47.5092 33.3541 47.8149 34.075 47.8506C45.6276 48.3336 57.1802 48.7016 68.7328 48.9546C72.4065 48.9546 72.1986 43.3657 68.5941 43.2795Z"/>
	<path fill="#FF6B3D" d="M54.35 57.0095C60.1725 57.5443 65.995 58.079 71.8349 58.1825C77.399 58.0231 82.9654 58.4102 88.4533 59.3382C92.023 60.1317 93.4093 54.6291 89.8223 53.8356C84.0241 52.8127 78.1373 52.3735 72.2508 52.5247C66.2203 52.4384 60.2072 51.9037 54.2114 51.3345C53.4575 51.3615 52.7445 51.6822 52.2259 52.2274C51.7073 52.7727 51.4246 53.4989 51.4387 54.2496C51.4744 54.994 51.7968 55.6961 52.3389 56.2101C52.8811 56.7241 53.6013 57.0104 54.35 57.0095Z"/>
	<path fill="#FF6B3D" d="M52.9811 52.3179C61.5103 52.3834 70.0149 53.238 78.3852 54.8708C78.7482 54.9614 79.1256 54.9799 79.4957 54.9254C79.8659 54.8708 80.2217 54.7442 80.5427 54.5528C80.8637 54.3614 81.1437 54.109 81.3667 53.8098C81.5897 53.5107 81.7513 53.1708 81.8424 52.8095C81.9334 52.4482 81.952 52.0726 81.8972 51.7041C81.8424 51.3356 81.7152 50.9815 81.5229 50.662C81.3306 50.3424 81.077 50.0637 80.7765 49.8417C80.476 49.6197 80.1345 49.4588 79.7716 49.3682C70.8919 47.642 61.872 46.7298 52.8251 46.6428C49.1514 46.6428 49.3593 52.2834 52.9637 52.3179H52.9811Z"/>
	<path fill="#FF6B3D" d="M71.0551 50.7483C75.0407 51.8982 79.009 53.1459 82.96 54.4914C83.693 54.6746 84.469 54.5615 85.1184 54.1769C85.7678 53.7922 86.2379 53.1673 86.4258 52.4387C86.5909 51.7078 86.467 50.9418 86.0798 50.2995C85.6926 49.6571 85.0719 49.1878 84.3463 48.9888C80.3953 47.6779 76.427 46.4302 72.4414 45.2457C71.7083 45.065 70.9332 45.1816 70.2865 45.5698C69.6398 45.958 69.1745 46.586 68.9929 47.3156C68.8114 48.0453 68.9285 48.8169 69.3185 49.4606C69.7084 50.1044 70.3393 50.5676 71.0724 50.7483H71.0551Z"/>
	<path fill="#FF6B3D" d="M73.4462 49.1615C73.7582 49.265 74.7286 49.7997 75.1791 50.093L77.4665 51.3694L81.8507 53.7671C84.7793 55.492 87.7079 57.217 90.5152 58.9419C91.1747 59.3056 91.9524 59.3936 92.6771 59.1866C93.4018 58.9795 94.0142 58.4944 94.3795 57.8379C94.7449 57.1815 94.8333 56.4074 94.6254 55.686C94.4174 54.9646 93.93 54.355 93.2705 53.9913C90.2668 52.1974 87.2516 50.438 84.2248 48.713C81.2632 46.7842 78.1514 45.0941 74.9192 43.659C74.1841 43.481 73.4082 43.5985 72.7596 43.9859C72.1109 44.3734 71.6416 44.9995 71.4534 45.7289C71.2883 46.4597 71.4123 47.2258 71.7994 47.8681C72.1866 48.5105 72.8073 48.9798 73.5329 49.1788L73.4462 49.1615Z"/>
	<path fill="#FF6B3D" d="M26.9706 43.9694L25.3764 44.0901L27.5078 48.8682L28.1143 48.368C28.5455 47.9157 28.8145 47.3344 28.8795 46.7143C28.9445 46.0943 28.8019 45.4702 28.4739 44.9391C28.1458 44.408 27.6507 43.9996 27.0655 43.7775C26.4803 43.5553 25.8378 43.5318 25.2377 43.7107C20.9029 45.0189 16.7471 46.8555 12.8649 49.1787C11.0994 50.4133 9.39895 51.7375 7.77021 53.1461L6.55719 54.1983C6.55719 54.1983 6.00267 54.6295 6.22794 54.4743C6.45322 54.319 6.10664 54.4743 6.05465 54.5605C5.35682 55.0019 4.76519 55.5908 4.32176 56.2855C4.14073 56.6105 4.02581 56.9678 3.98358 57.3371C3.94134 57.7064 3.97261 58.0803 4.07561 58.4375C4.1786 58.7947 4.3513 59.1282 4.58383 59.419C4.81636 59.7098 5.10417 59.9521 5.43081 60.1321C6.0931 60.4823 6.86614 60.563 7.58701 60.3571C8.30788 60.1511 8.92029 59.6747 9.29516 59.0281C9.19009 59.154 9.06755 59.2643 8.93125 59.3558C9.11665 59.2766 9.28672 59.1656 9.43379 59.0281C10.2829 58.4071 11.0627 57.6654 11.8598 56.9754C13.2328 55.8292 14.6675 54.7581 16.1574 53.767C19.5341 51.7909 23.1349 50.2217 26.884 49.0924L23.9901 44.4351L23.3836 44.9354C23.0043 45.3437 22.7535 45.8537 22.6622 46.4024C22.5709 46.951 22.6431 47.5143 22.8698 48.0225C23.0966 48.5308 23.4679 48.9618 23.938 49.2623C24.4081 49.5628 24.9564 49.7196 25.515 49.7134L27.1093 49.6099C27.5021 49.6294 27.8947 49.568 28.2626 49.4295C28.6304 49.291 28.9656 49.0785 29.2473 48.8052C29.5289 48.5319 29.7508 48.2037 29.8992 47.8412C30.0476 47.4786 30.1192 47.0895 30.1097 46.6981C30.1001 46.3068 30.0095 45.9216 29.8436 45.5666C29.6777 45.2117 29.44 44.8946 29.1454 44.6353C28.8508 44.3759 28.5056 44.1799 28.1314 44.0593C27.7572 43.9388 27.362 43.8965 26.9706 43.9349V43.9694Z"/>
	<path fill="#FF6B3D" d="M11.5823 59.6837C18.2552 59.9588 24.9387 59.8379 31.5971 59.3215C34.8319 59.0685 38.0608 58.712 41.284 58.252C44.5072 57.8035 48.0249 57.5965 50.9015 55.9578C54.0901 54.1466 51.1095 49.3341 47.921 51.128C45.6509 52.4045 42.2891 52.439 39.7591 52.8529C36.6225 53.2497 33.486 53.5774 30.3495 53.8017C24.0527 54.2615 17.7344 54.3594 11.4263 54.0949C10.6726 54.1132 9.95702 54.4288 9.43705 54.9722C8.91708 55.5157 8.63529 56.2425 8.65368 56.9928C8.67206 57.7431 8.98912 58.4553 9.53508 58.9729C10.081 59.4905 10.8112 59.771 11.5649 59.7527L11.5823 59.6837Z"/>
	<path fill="#FF6B3D" d="M46.6735 48.4543V48.7303L47.3666 47.4711C47.4879 47.3159 46.6388 47.7126 46.4135 47.7816C45.6857 48.0058 44.9579 48.1956 44.2128 48.3508C42.97 48.5787 41.7141 48.7285 40.4524 48.7993C37.5411 48.9718 34.6125 48.7993 31.684 48.7993C25.7035 48.6619 19.7355 49.4059 13.9738 51.0072C10.508 52.0077 12.085 57.424 15.7067 56.4235C21.928 54.8366 28.3548 54.1969 34.7685 54.5261C37.8362 54.6469 40.9087 54.5084 43.9528 54.1121C46.7774 53.6809 51.5429 53.1289 52.3573 49.817C52.5389 49.0873 52.4218 48.3158 52.0318 47.672C51.6418 47.0283 51.0109 46.5651 50.2779 46.3844C49.5448 46.2037 48.7697 46.3202 48.123 46.7084C47.4763 47.0966 47.011 47.7246 46.8294 48.4543H46.6735Z"/>
	<path fill="#FF6B3D" d="M31.0947 52.0421H43.3289C44.0812 52.0196 44.7942 51.7026 45.3133 51.1601C45.8323 50.6176 46.1156 49.8933 46.1016 49.1443C46.0701 48.3984 45.749 47.6938 45.206 47.1789C44.6629 46.6641 43.9402 46.3792 43.1903 46.3843H30.9561C30.5829 46.3934 30.2151 46.4755 29.8738 46.6261C29.5325 46.7766 29.2243 46.9926 28.9668 47.2617C28.7094 47.5308 28.5077 47.8477 28.3733 48.1944C28.2389 48.5411 28.1744 48.9107 28.1835 49.2822C28.1926 49.6537 28.2751 50.0198 28.4263 50.3596C28.5775 50.6993 28.7945 51.0061 29.0649 51.2624C29.3352 51.5186 29.6536 51.7194 30.0019 51.8532C30.3502 51.987 30.7215 52.0512 31.0947 52.0421Z"/>
	<path d="M51.023 23.0282C54.0604 23.3648 57.1193 23.4686 60.1727 23.3387C63.2745 23.3387 66.3591 23.2352 69.4609 23.1317C75.6127 22.942 81.7645 22.8557 87.8989 22.735C91.1221 22.735 90.9661 17.5602 87.7776 17.7844C81.7298 18.2502 75.6474 18.7676 69.6342 19.1644C66.6363 19.3541 63.6384 19.5439 60.6405 19.6646C57.6426 19.7853 54.4368 19.6646 51.3696 19.9406C49.6367 20.0958 49.1688 22.735 51.023 23.0282Z" fill="#0B2538"/>
	<path d="M49.5327 58.8209C51.1898 59.7932 53.0854 60.2888 55.0086 60.2526C57.0014 60.4596 59.0116 60.6149 61.0044 60.8391C65.146 61.2876 69.2876 61.6671 73.4466 61.8741C81.8095 62.4707 90.2149 61.7783 98.3655 59.8214C101.104 59.0797 99.8385 54.9571 97.1005 55.6298C89.4076 57.4207 81.5184 58.2379 73.6199 58.062C69.7382 58.062 65.8392 57.8205 61.9575 57.5617C60.086 57.4237 58.2318 57.2512 56.3603 57.0442C55.3725 56.9407 54.3848 56.8372 53.397 56.6647C52.4652 56.4079 51.5045 56.2688 50.5378 56.2508C49.3594 56.337 48.441 57.9757 49.5327 58.8209Z" fill="#0B2538"/>
	<path d="M50.8842 19.9407C47.5917 19.6647 44.2472 19.8027 40.9374 19.682C37.6276 19.5612 34.1271 19.3542 30.7307 19.1645C24.163 18.7677 17.6127 18.2503 11.045 17.7845C7.89119 17.5603 7.94317 22.6661 11.1663 22.7351C17.7167 22.8558 24.267 22.9248 30.8173 23.1146C34.1272 23.2181 37.437 23.3043 40.7468 23.3388C44.1513 23.4887 47.5622 23.3965 50.9535 23.0628C51.341 23.0222 51.6997 22.8403 51.9604 22.552C52.2211 22.2637 52.3654 21.8896 52.3654 21.5018C52.3654 21.1139 52.2211 20.7398 51.9604 20.4515C51.6997 20.1633 51.341 19.9813 50.9535 19.9407H50.8842Z" fill="#0B2538"/>
	<path d="M50.5379 56.2509C49.599 56.2617 48.6661 56.401 47.7653 56.6648C46.8295 56.8201 45.8764 56.9236 44.9233 57.0098C43.0865 57.1996 41.2669 57.3893 39.4301 57.51C35.2711 57.8033 31.0949 58.0103 26.9359 58.062C18.7494 58.2349 10.5725 57.4065 2.58883 55.5954C2.03896 55.4973 1.4722 55.6111 1.00348 55.9136C0.534756 56.2161 0.199147 56.6848 0.064697 57.2245C-0.0697527 57.7642 0.00701968 58.3346 0.279451 58.8201C0.551882 59.3055 0.999583 59.6697 1.53177 59.8387C9.87734 61.7906 18.4712 62.4768 27.0226 61.8741C31.2855 61.6844 35.5311 61.3049 39.7593 60.8564L45.6858 60.2872C47.4187 60.132 49.9661 60.1319 51.3697 59.0107C51.632 58.8275 51.8297 58.5668 51.9346 58.2654C52.0396 57.9641 52.0465 57.6375 51.9544 57.332C51.8624 57.0265 51.676 56.7576 51.4217 56.5635C51.1674 56.3695 50.8582 56.2601 50.5379 56.2509Z" fill="#0B2538"/>
	<path d="M51.7162 0.293667C51.5289 0.714997 51.3669 1.14699 51.231 1.58737C51.127 2.03585 51.0577 2.48435 50.971 2.91558C50.7977 3.81255 50.6418 4.64051 50.5205 5.60648C50.2605 7.45216 50.0699 9.29783 49.9833 11.1435C49.8966 12.9892 49.9833 14.8521 49.9833 16.6978C49.9833 17.6293 49.9833 18.5608 49.9833 19.4922C49.9833 19.9062 49.9833 20.3374 49.9833 20.7514C49.9833 21.1654 49.9833 21.2171 49.9833 21.4414C49.9833 21.6656 50.1739 21.9761 50.2779 22.2521C50.3989 23.0916 50.4338 23.9412 50.3818 24.7878C50.3818 25.7365 50.3818 26.668 50.3818 27.5994L50.4858 33.2055V35.8619C50.4858 36.8623 50.7631 37.8111 50.7804 38.8115C50.7804 40.6745 50.7804 42.5374 50.6071 44.3831C50.6071 45.4008 50.6071 46.4357 50.5031 47.4362C50.3992 48.4367 50.2952 49.4716 50.1912 50.4894C50.0946 51.4685 49.9441 52.4417 49.7407 53.4045C49.6367 53.9392 49.5674 54.4912 49.4981 55.0259C49.4981 55.1639 49.4981 55.4054 49.4981 55.1984C49.2934 55.5602 49.0617 55.9061 48.8049 56.2334C48.6318 56.551 48.5424 56.907 48.545 57.2684C48.5452 57.6273 48.6282 57.9814 48.7876 58.3033C48.9584 58.6251 49.2089 58.8982 49.5154 59.0968C49.813 59.3026 50.1595 59.4275 50.5205 59.459C50.8789 59.5094 51.2443 59.4617 51.5775 59.321C51.9189 59.1812 52.2219 58.9625 52.4613 58.6828C52.6896 58.403 52.8445 58.071 52.9119 57.7168C53.0068 57.3666 53.0068 56.9976 52.9119 56.6474C52.8079 56.3369 52.7039 56.0091 52.5653 55.6987C52.4266 55.3882 52.5653 55.3709 52.5653 55.6987C52.5216 55.2455 52.5216 54.7892 52.5653 54.336C52.5653 53.4217 52.5653 52.5075 52.5653 51.5933C52.5653 49.7476 52.5653 47.9192 52.5653 46.0735C52.5653 44.2278 52.5653 42.3649 52.4613 40.5192C52.3923 39.589 52.3923 38.655 52.4613 37.7248C52.5303 36.7946 52.5303 35.8606 52.4613 34.9304C52.288 31.1873 52.0627 27.4614 51.9761 23.7356C51.9242 23.2713 51.9242 22.8027 51.9761 22.3384C52.0801 22.0106 52.184 21.6829 52.2534 21.3552C52.2534 20.372 52.2534 19.3887 52.3573 18.4055V12.834C52.3573 10.8158 52.3573 8.78036 52.3573 6.76218V2.0186C52.3398 1.47539 52.2877 0.933825 52.2014 0.397159C52.1928 0.307857 52.1565 0.223441 52.0974 0.155669C52.0352 0.085804 51.9483 0.0425613 51.8548 0.0349371C51.8137 0.0173781 51.7695 0.00830078 51.7248 0.00830078C51.6801 0.00830078 51.6359 0.0173781 51.5949 0.0349371C51.5146 0.0816991 51.4533 0.154914 51.4216 0.241921L51.7162 0.293667Z" fill="#0B2538"/>
	<path d="M27.1089 45.3837C21.9622 35.6296 16.0643 26.287 9.4681 17.4397H5.60376C8.2031 20.6308 10.8024 23.822 13.3844 27.0821C17.1209 31.8499 20.4482 36.9218 23.3312 42.2443C24.0417 43.538 24.6656 44.8662 25.2721 46.1944C25.3108 46.3318 25.3755 46.4606 25.4627 46.5739C25.5629 46.6788 25.68 46.7663 25.8093 46.8326C25.941 46.8878 26.0822 46.9171 26.2252 46.9189C26.3678 46.9151 26.5087 46.8859 26.641 46.8326C26.7651 46.7661 26.8765 46.6785 26.9703 46.5739C27.0684 46.4719 27.1397 46.3475 27.1782 46.2116C27.2128 46.07 27.2128 45.9221 27.1782 45.7804C27.1802 45.645 27.1567 45.5105 27.1089 45.3837Z" fill="#0B2538"/>
	<path d="M83.8265 26.3576C80.4576 31.2631 77.3402 36.3352 74.4863 41.5543C73.8104 42.848 73.0999 44.1417 72.4414 45.4527C71.783 46.7636 73.6545 47.5571 74.1743 46.4014C78.9918 35.7068 86.4605 26.4611 93.912 17.4397H90.0649C87.9162 20.3721 85.802 23.3217 83.8265 26.3576Z" fill="#0B2538"/>
	<script type="text/ecmascript" xlink:href="/js/ref2.js"></script>
</svg>
