<svg width="162" height="160" viewBox="0 0 162 160" fill="none" xmlns="http://www.w3.org/2000/svg">
<path d="M30.498 3.10092C25.8711 6.25045 21.8163 10.1625 18.5077 14.6692C15.0965 19.1969 12.2124 24.0961 9.91087 29.2726C5.34737 39.6611 3.01196 50.8852 3.05431 62.2256C3.21405 73.8343 6.04816 85.2511 11.3379 95.5949C16.7152 106.348 24.1461 115.904 31.6465 125.27C35.4577 130.057 39.3906 134.705 43.1843 139.526C46.9166 144.33 50.2404 149.435 53.1211 154.789C53.8346 156.072 54.4611 157.391 55.0702 158.743C55.1095 158.876 55.1746 159 55.2616 159.108C55.3559 159.213 55.4677 159.301 55.5923 159.368C55.724 159.425 55.8662 159.455 56.01 159.455C56.1537 159.455 56.2959 159.425 56.4276 159.368C56.5068 159.283 56.5662 159.183 56.6016 159.073C56.7033 158.973 56.7755 158.847 56.8105 158.709C56.8451 158.572 56.8451 158.429 56.8105 158.292C56.7905 158.152 56.7432 158.016 56.6712 157.893C51.0905 147.342 44.6656 137.256 37.4589 127.733C30.498 118.072 23.0149 108.898 17.2721 98.4913C14.4572 93.5043 12.1877 88.2305 10.5026 82.7606C9.72271 80.1265 9.08946 77.4515 8.60568 74.7478C8.41426 73.5684 8.24024 72.4411 8.06621 70.9842C7.89219 69.5273 7.80518 68.2959 7.71816 66.9431C7.53841 64.2413 7.49775 61.5322 7.59635 58.8262C7.59635 57.4214 7.71816 56.0339 7.83998 54.6464L7.9444 53.6405C7.91769 53.4913 7.91769 53.3387 7.9444 53.1895C7.9444 53.5711 7.9444 53.1895 7.9444 53.1895C7.9444 52.4438 8.13582 51.698 8.24024 50.9522C9.02556 45.5409 10.3429 40.2197 12.1732 35.0654C13.0607 32.6026 14.0353 30.3479 15.2186 27.7637C16.3738 25.3137 17.6516 22.9231 19.0472 20.6007C20.509 18.2073 22.11 15.9353 23.6936 13.6632C25.2772 11.3912 26.9827 9.50074 28.6707 7.47153C29.5234 6.41356 30.411 5.3903 31.3159 4.36702C31.8554 3.74265 31.107 2.63265 30.3587 3.18765L30.498 3.10092Z" fill="#0B2538"/>
<path d="M127.499 4.31475C131.103 8.39751 134.462 12.6889 137.558 17.1664C139.099 19.4479 140.516 21.8101 141.804 24.2427C143.127 26.7228 144.171 29.0295 145.284 31.423C147.349 36.4625 148.917 41.6903 149.966 47.0323C150.088 47.674 150.209 48.2984 150.314 48.9228L150.418 49.4951C150.418 49.9114 150.418 48.9575 150.418 49.6685L150.575 50.7785C150.766 52.1313 150.923 53.4668 151.045 54.837C151.283 57.5358 151.381 60.2449 151.341 62.9538C151.341 64.3413 151.236 65.7288 151.149 67.1163C151.149 67.758 151.149 68.3997 151.01 69.0241L150.905 70.1515C150.905 70.1515 150.905 70.585 150.905 70.1515C150.922 70.3766 150.922 70.6027 150.905 70.8279C149.913 79.1672 147.444 87.265 143.614 94.7448C140.931 100.038 137.872 105.132 134.46 109.99C131.084 114.881 127.499 119.564 123.897 124.351C120.295 129.137 116.797 133.907 113.455 138.885C110.09 143.794 106.976 148.871 104.128 154.095C103.449 155.396 102.736 156.679 102.074 157.997C101.413 159.315 103.292 160.096 103.814 158.951C108.792 147.869 116.588 138.364 124.28 129.068C132.259 119.85 139.399 109.942 145.615 99.4623C151.415 89.3695 154.87 78.1088 155.726 66.5093C156.416 55.2114 154.69 43.8963 150.662 33.3134C148.639 27.9918 146.024 22.9131 142.866 18.1724C139.81 13.4098 136.036 9.14514 131.676 5.52882C130.614 4.67898 129.518 3.88117 128.387 3.11805C127.621 2.59774 126.96 3.69038 127.499 4.31475Z" fill="#0B2538"/>
<path d="M7.87478 14.166C8.96251 16.1207 9.42974 18.3583 9.21477 20.5832C9.22873 20.7483 9.30304 20.9026 9.4236 21.0168C9.54504 21.1193 9.69952 21.1747 9.85866 21.1728C9.93902 21.1692 10.0177 21.1489 10.0897 21.113C10.1616 21.0772 10.2252 21.0266 10.2763 20.9647C10.3858 20.8534 10.4481 20.7043 10.4503 20.5485C10.6475 18.1085 10.0362 15.6714 8.7101 13.611C8.63309 13.5075 8.52234 13.4339 8.39685 13.4029C8.27874 13.3605 8.14951 13.3605 8.0314 13.4029C7.92326 13.4713 7.84307 13.5758 7.80517 13.6977C7.77976 13.7551 7.76663 13.8171 7.76663 13.8798C7.76663 13.9425 7.77976 14.0046 7.80517 14.0619L7.87478 14.166Z" fill="#0B2538"/>
<path d="M24.0939 32.1691C9.05815 37.667 0.0262833 60.2138 8.57088 74.0888C10.3111 77.0025 14.2963 74.7826 13.7916 71.7648C12.5212 65.1568 15.9321 58.2367 15.7755 51.542C15.7304 50.9064 15.4631 50.3067 15.02 49.8472C14.577 49.3878 13.9863 49.0978 13.3509 49.0276C12.7154 48.9575 12.0754 49.1117 11.5422 49.4633C11.009 49.815 10.6165 50.3419 10.4329 50.9523C10.169 52.7127 9.61632 54.4177 8.79711 55.9993L14.1919 57.3174C13.461 50.6748 16.1932 45.3503 19.4126 39.7483C21.5357 36.0714 15.7755 32.9322 13.635 36.5744C10.9227 41.6238 9.27073 47.1709 8.77971 52.8775L15.6363 52.704C13.1303 47.102 16.6108 41.7081 18.8731 36.6091C20.4258 32.4281 22.5833 28.4958 25.2772 24.9368C28.166 21.5721 23.363 16.924 20.2653 20.1672C10.955 29.845 0.913808 45.6451 7.54414 59.3814C9.19737 62.8501 14.5051 60.7862 14.4007 57.3521C14.2093 51.1604 13.5132 45.992 15.8451 40.0084C18.1426 34.5051 21.3288 29.4138 25.2772 24.9368L20.2653 20.1672C16.7848 24.8154 15.0446 30.0878 12.9911 35.4817C10.781 41.4133 8.32725 47.4489 8.67529 53.8834C8.88412 57.699 15.062 58.7743 15.6363 54.6465C16.117 49.5385 17.3727 44.5328 19.3604 39.8003L13.5828 36.6264C10.3981 43.2517 7.3179 49.9984 8.36205 57.4388C8.40528 58.1146 8.68612 58.7536 9.15522 59.2434C9.62432 59.7333 10.2517 60.0427 10.927 60.1172C11.6023 60.1918 12.2823 60.0267 12.8476 59.6511C13.4129 59.2754 13.8273 58.7132 14.0178 58.0632C14.7701 56.1883 15.3015 54.2327 15.6015 52.2357L10.2589 51.646C10.8332 58.7223 8.11842 65.521 8.11842 72.6493L13.7046 71.7474C12.3472 64.359 11.0768 57.8724 14.4007 50.7442C17.2373 44.6045 23.2585 40.338 25.7993 34.2156C26.2344 33.1577 25.4164 31.6141 24.0591 32.0997L24.0939 32.1691Z" fill="#FCD13A"/>
<path d="M21.1006 32.4634C22.351 29.1661 23.8219 25.9561 25.5035 22.855C25.824 22.2536 25.9396 21.5646 25.8329 20.892C25.7262 20.2194 25.4029 19.5996 24.9118 19.1261C24.0603 18.2572 22.9103 17.742 21.693 17.684C20.4758 17.6261 19.2817 18.0298 18.3511 18.8139C15.8103 20.5483 15.6015 23.4967 13.809 25.7514L19.343 26.3237C17.3939 23.5834 14.5399 19.3862 10.6418 21.2767C6.74362 23.1672 7.16128 28.7518 8.25764 31.9604C9.70204 36.4698 16.75 34.3712 15.323 29.8445C13.461 23.9129 11.7033 18.0334 10.2241 12.0152L6.74362 16.802C9.28438 16.802 11.5119 17.7212 14.1049 17.4264C16.4872 16.8882 18.9192 16.5976 21.3617 16.5592L18.9079 8.33829C14.0678 11.4697 10.4313 16.1391 8.58828 21.5889C6.84804 26.3237 14.0875 28.6478 16.5064 24.6934C18.2466 21.9184 19.9869 17.0275 23.0671 15.5186C25.2946 14.3913 27.5569 14.6861 28.8795 12.2059C29.3884 11.2576 29.5058 10.1488 29.2068 9.11546C28.9078 8.08214 28.216 7.20592 27.2785 6.67329L27.0001 6.53455C26.0467 6.03627 24.9372 5.92407 23.9029 6.22136C22.8686 6.51865 21.9894 7.20247 21.4487 8.13017L21.3443 8.33829C18.8557 13.0384 26.391 17.0102 28.5141 12.2927L28.6185 12.0845L23.0497 13.6802L23.3282 13.8016L21.7271 8.26893C22.8583 7.15893 22.7365 6.96814 21.3617 7.67923C20.7004 7.95673 20.0217 8.25158 19.3604 8.56377C18.0032 9.33972 16.7857 10.3362 15.7581 11.5122C13.3495 14.4141 11.0901 17.4358 8.98854 20.5656L16.5064 24.6934C18.0288 21.2229 20.4565 18.2225 23.537 16.0042C27.7832 12.8997 24.8422 7.15892 19.8999 7.97407C17.7072 8.33829 15.6189 9.15345 13.4436 9.5697C11.2683 9.98595 8.86672 9.27486 6.48259 9.5697C5.91211 9.59271 5.3543 9.74434 4.8511 10.0132C4.3479 10.282 3.91242 10.6611 3.57741 11.1218C3.2424 11.5826 3.01657 12.113 2.91693 12.6733C2.81728 13.2336 2.8464 13.8091 3.0021 14.3566C4.95117 20.2534 6.62181 26.1503 8.22283 32.1512L15.2882 30.0353C14.9803 29.4867 14.8187 28.8687 14.8187 28.2402C14.8187 27.6117 14.9803 26.9936 15.2882 26.4451L12.208 28.3009H13.2695L10.607 27.2603C11.6666 28.0855 12.5989 29.0614 13.374 30.1567C13.6911 30.683 14.1428 31.116 14.6828 31.4114C15.2228 31.7069 15.8318 31.8542 16.4476 31.8383C17.0635 31.8224 17.664 31.6439 18.188 31.3211C18.712 30.9982 19.1405 30.5425 19.43 30.0006C19.7781 29.5323 22.0056 24.1037 22.2492 24.069L20.0043 23.2019C20.8222 23.8262 20.3175 31.3187 20.3523 32.3767C20.3537 32.4642 20.3839 32.5488 20.4383 32.6176C20.4927 32.6863 20.5683 32.7353 20.6533 32.757C20.7384 32.7787 20.8283 32.7719 20.9092 32.7376C20.99 32.7034 21.0573 32.6436 21.1006 32.5674V32.4634Z" fill="#FCD13A"/>
<path d="M21.5009 14.3568C24.4071 21.7105 34.5527 26.7749 40.9046 30.7813C48.5965 35.6028 57.437 41.6211 66.4862 43.3381C73.1688 44.6216 78.1633 34.5275 71.1327 31.5964C62.6925 28.1277 54.4959 25.2486 46.4386 20.7913C40.0867 17.3226 31.1767 10.6973 23.5544 11.5124C23.2155 11.5251 22.884 11.6148 22.5851 11.7745C22.2863 11.9343 22.028 12.1599 21.8299 12.4343C21.6318 12.7086 21.4992 13.0244 21.4422 13.3576C21.3852 13.6908 21.4053 14.0325 21.5009 14.3568Z" fill="#FCD13A"/>
<path d="M26.6172 13.5938C31.6629 18.0551 37.5161 21.5163 43.863 23.7919C48.962 25.665 52.1118 17.4094 47.3435 15.016C41.3627 12.0209 34.8679 10.179 28.2008 9.5874C27.7425 9.61256 27.3013 9.76903 26.93 10.038C26.5588 10.307 26.2734 10.677 26.108 11.1037C25.9426 11.5304 25.9043 11.9957 25.9977 12.4435C26.0912 12.8914 26.3123 13.3028 26.6346 13.6285L26.6172 13.5938Z" fill="#FCD13A"/>
<path d="M28.7577 10.5411C29.9933 13.4201 34.2917 14.7556 36.8673 15.9003C41.3571 17.9295 45.6729 20.2882 49.9539 22.6817C54.2349 25.0751 58.0808 27.3992 62.1356 29.8273C66.521 32.4809 70.715 35.9323 76.0576 35.568C79.9905 35.2905 83.4188 30.6077 80.7214 26.8962C77.2409 22.2134 71.4285 20.6525 66.2426 18.2243C60.8922 15.7472 55.4144 13.5531 49.8321 11.6511C44.8202 9.9167 39.0426 7.38452 33.7 7.62733C32.6211 7.62733 27.7484 8.06092 28.7925 10.5064L28.7577 10.5411Z" fill="#FCD13A"/>
<path d="M48.5443 21.0688C55.1746 27.035 60.0821 39.4011 69.9319 40.8233C74.2303 41.4476 78.9812 35.7242 74.561 32.4116C70.628 29.4631 66.0512 28.0063 62.2226 24.6936C59.0155 21.6864 55.518 19.0025 51.7812 16.6808C51.1967 16.3911 50.5283 16.3167 49.8941 16.4707C49.2599 16.6247 48.7008 16.9971 48.3155 17.5223C47.9302 18.0474 47.7436 18.6914 47.7886 19.3403C47.8337 19.9893 48.1075 20.6016 48.5617 21.0688H48.5443Z" fill="#FCD13A"/>
<path d="M32.7603 11.2003C32.7603 10.6279 32.8821 10.0556 32.7603 9.46589C32.7167 8.95807 32.7167 8.44747 32.7603 7.93965L27.0349 9.67402C28.6732 11.9191 30.8595 13.71 33.3868 14.8771C33.8461 15.1324 34.3549 15.2868 34.8791 15.33C35.4032 15.3732 35.9305 15.3042 36.4257 15.1277C36.9209 14.9511 37.3726 14.6711 37.7503 14.3064C38.128 13.9417 38.4231 13.5007 38.6159 13.013C38.8086 12.5254 38.8945 12.0022 38.8678 11.4788C38.841 10.9553 38.7023 10.4436 38.4609 9.9779C38.2195 9.51223 37.881 9.10337 37.4681 8.77876C37.0551 8.45414 36.5774 8.22126 36.0667 8.09574C35.6491 7.93964 35.5795 7.9223 35.8579 8.09574L35.1444 7.78355L33.9436 7.14184C33.2038 6.77867 32.4887 6.36731 31.8031 5.91044C31.3001 5.47117 30.6691 5.20392 30.0026 5.1478C29.3362 5.09169 28.6692 5.24966 28.0993 5.59858C27.5294 5.94751 27.0865 6.46907 26.8355 7.08693C26.5845 7.70479 26.5385 8.38651 26.7042 9.0323C26.8095 10.0138 27.2072 10.9414 27.8461 11.6956C28.485 12.4498 29.3359 12.9961 30.2891 13.2642C30.5794 13.3326 30.8814 13.3343 31.1724 13.2692C31.4634 13.2041 31.7357 13.0739 31.9688 12.8884C32.2018 12.7029 32.3895 12.467 32.5176 12.1986C32.6456 11.9302 32.7108 11.6362 32.7081 11.339L32.7603 11.2003Z" fill="#FCD13A"/>
<path d="M83.1926 25.8208C83.2092 26.0853 83.1737 26.3504 83.0881 26.6013C82.9837 27.1042 83.2622 27.5205 83.2796 27.9194C83.2883 28.1367 83.3674 28.3453 83.5051 28.514C83.6428 28.6827 83.8316 28.8024 84.0433 28.8551C84.255 28.9079 84.4781 28.8908 84.6793 28.8066C84.8804 28.7223 85.0488 28.5753 85.159 28.3877C85.4549 27.6246 85.7159 26.6533 85.0546 25.9769C84.6226 25.6072 84.0751 25.3987 83.5058 25.3872C83.4535 25.3873 83.4019 25.3997 83.3553 25.4236C83.3088 25.4474 83.2685 25.4819 83.238 25.5242C83.2074 25.5665 83.1873 25.6155 83.1794 25.6671C83.1715 25.7186 83.176 25.7713 83.1926 25.8208Z" fill="#FCD13A"/>
<path d="M81.696 29.151C85.5397 32.3671 90.3579 34.1999 95.3743 34.3541C101.43 34.0246 107.26 30.3824 112.603 27.8156C118.885 24.7978 114.935 15.779 108.983 15.675C105.715 15.6747 102.505 16.53 99.6727 18.1551C97.3234 19.3865 94.6086 21.832 91.8068 21.6239L93.547 32.8453C100.926 30.7987 108.931 29.3765 115.961 26.2893C118.769 24.8609 121.403 23.1151 123.81 21.0862C126.453 19.5054 128.998 17.7679 131.432 15.8831C132.364 14.9077 132.946 13.6525 133.088 12.313C133.23 10.9735 132.923 9.62495 132.215 8.47734C127.673 2.73658 120.034 7.2286 115.37 10.628C107.834 16.0565 98.8548 18.6234 90.2232 21.8667C85.3505 23.6011 84.4804 31.874 90.5016 32.9146C93.7881 33.655 97.2244 33.358 100.334 32.0648C103.24 30.8507 106.025 28.7001 109.244 28.7695L105.624 16.6289C102.144 18.2592 98.8026 20.4272 95.2873 21.832C91.8779 23.0801 88.2855 23.7598 84.6544 23.8439C81.783 23.4796 78.8942 27.0004 81.6437 29.3071L81.696 29.151Z" fill="#FCD13A"/>
<path d="M103.727 18.6928C107.921 21.3291 113.438 19.4039 117.649 17.8777C123.095 16.0323 128.215 13.346 132.824 9.91692C138.219 5.75443 133.364 -2.60524 127.169 0.794123C122.574 3.30896 118.102 5.99725 113.455 8.46005C109.696 10.4199 104.911 11.9288 103.014 16.0566C102.779 16.5102 102.727 17.0364 102.87 17.5268C103.012 18.0173 103.338 18.4346 103.78 18.6928H103.727Z" fill="#FCD13A"/>
<path d="M127.134 4.71372C127.743 9.91683 130.771 14.2874 134.199 18.2071C137.627 22.1268 141.874 26.7402 147.408 25.318C148.064 25.111 148.655 24.7382 149.123 24.236C149.591 23.7337 149.922 23.1192 150.081 22.4521C150.24 21.785 150.224 21.0882 150.033 20.4294C149.842 19.7706 149.483 19.1723 148.991 18.6927C146.559 16.5718 143.931 14.6845 141.143 13.056L142.326 14.9985C141.839 7.97434 136.026 4.072 130.144 1.31436C129.546 1.01181 128.873 0.887935 128.206 0.957628C127.539 1.02732 126.906 1.28761 126.384 1.70719C125.862 2.12678 125.473 2.68778 125.263 3.3227C125.053 3.95762 125.032 4.63942 125.202 5.28607C125.316 6.26305 125.737 7.17934 126.403 7.90495C126.855 8.3212 127.638 8.40793 128.021 8.78949C129.137 10.3581 130.148 11.9977 131.049 13.6978C132.946 16.3687 135.121 19.9588 138.237 21.3116C140.133 22.1268 142.518 20.219 141.195 18.2071C139.455 15.4668 136.322 13.7498 134.408 10.9748C133.415 9.79847 132.611 8.4763 132.024 7.05512C131.919 6.43074 132.494 5.54622 132.389 4.76575C132.208 3.95729 131.871 3.19157 131.397 2.51107L127.656 7.61012C131.369 8.90106 134.534 11.4076 136.635 14.721C137.146 15.7758 137.99 16.6348 139.037 17.1665C139.956 17.8089 140.737 18.6276 141.335 19.5747C141.932 20.5217 142.335 21.578 142.518 22.6818L147.251 17.7388C140.064 16.0045 136.305 7.55808 131.119 2.962C129.727 1.71325 126.908 2.58044 127.151 4.69637L127.134 4.71372Z" fill="#FCD13A"/>
<path d="M134.008 14.7209C135.677 17.2332 137.788 19.4248 140.238 21.1901C141.606 21.8225 143.034 22.3164 144.501 22.6643C145.227 23.0025 145.926 23.3969 146.59 23.8437C146.887 24.0338 147.195 24.2075 147.512 24.364C148.266 24.8265 148.197 24.6184 147.303 23.7396V21.0513L147.077 21.641L149.304 18.6059C147.007 20.2535 144.606 21.589 142.343 23.4274C141.499 24.3158 140.974 25.4572 140.848 26.6742C140.722 27.8911 141.003 29.1155 141.647 30.1568C142.15 30.9894 142.867 31.673 143.723 32.1365C144.58 32.6001 145.546 32.8268 146.52 32.793C147.726 32.7401 148.883 32.3042 149.822 31.549C150.761 30.7938 151.434 29.759 151.741 28.5958C151.95 27.8154 152.193 27.9888 151.932 28.1622C152.374 27.9386 152.834 27.7529 153.307 27.6072C154.099 27.3041 154.817 26.8387 155.417 26.2412C156.016 25.6436 156.483 24.9273 156.788 24.1385C157.199 22.7167 157.156 21.2024 156.663 19.8065C156.17 18.4106 155.252 17.2027 154.038 16.3512C148.643 11.9632 142.187 13.7843 136.096 11.8418C135.721 11.7574 135.329 11.7845 134.97 11.9196C134.61 12.0547 134.298 12.2919 134.072 12.6019C133.846 12.912 133.716 13.2812 133.699 13.664C133.681 14.0468 133.776 14.4263 133.973 14.7556L134.008 14.7209Z" fill="#FCD13A"/>
<path d="M133.172 16.6983C131.832 26.5496 136.026 36.3141 138.062 45.7837C140.29 56.19 141.334 66.5962 138.463 77.0024C136.392 84.4949 147.669 87.0791 150.07 79.8814C153.725 68.9896 153.411 57.5254 150.888 46.4081C148.539 36.0019 144.867 23.2369 137.297 15.4322C136.981 15.1346 136.593 14.9245 136.171 14.8227C135.749 14.7209 135.307 14.731 134.89 14.852C134.473 14.9731 134.095 15.2007 133.794 15.5125C133.492 15.8242 133.278 16.2091 133.172 16.629V16.6983Z" fill="#FCD13A"/>
<path d="M11.0594 70.9143C8.90153 72.0243 8.43167 75.0075 8.84933 77.2101C9.33659 79.7943 11.3727 81.9276 11.3727 84.5985C11.3727 88.0673 17.0981 87.8938 16.75 84.4771C16.4665 82.3118 15.6864 80.2406 14.4703 78.4242C13.8482 77.5339 13.3342 76.5733 12.9389 75.5625C12.7158 74.3211 12.6399 73.0579 12.7127 71.7989C12.7127 71.5974 12.6568 71.3999 12.5513 71.2281C12.4457 71.0562 12.2945 70.9169 12.1144 70.8253C11.9343 70.7338 11.7324 70.6937 11.5308 70.7094C11.3293 70.7251 11.136 70.796 10.9724 70.9143H11.0594Z" fill="#FCD13A"/>
<path d="M14.3137 87.3391C24.1809 89.2469 34.1177 88.2063 44.1067 87.9115C54.5482 87.6166 65.1114 87.6166 75.5877 87.6513C97.393 87.738 119.094 88.5358 140.916 86.7841C148.974 86.1251 148.765 73.6896 140.603 74.1926C118.868 75.5107 97.0971 74.7649 75.2745 74.9037C64.7673 74.8657 54.267 75.4448 43.8282 76.6381C33.5608 77.9041 24.1809 81.0087 14.2441 83.4021C13.8285 83.5389 13.4683 83.8055 13.2167 84.1623C12.9651 84.5192 12.8356 84.9473 12.8473 85.3833C12.859 85.8192 13.0113 86.2399 13.2817 86.5828C13.5521 86.9257 13.9262 87.1727 14.3485 87.2871L14.3137 87.3391Z" fill="#FCD13A"/>
<path d="M20.5438 80.6096C13.5828 73.516 21.4835 59.7971 23.7806 52.0098C26.4954 42.7309 29.6104 33.5908 32.4818 24.2599C34.0655 19.0568 26.0429 17.1836 24.2679 22.2307C19.8887 34.4789 16.4334 47.036 13.9308 59.7971C12.3472 68.1915 10.4503 77.8519 18.4903 83.4366C20.2305 84.6333 21.9708 81.945 20.6308 80.5402L20.5438 80.6096Z" fill="#FCD13A"/>
<path d="M26.8608 20.115C27.0122 19.7753 27.1458 19.4279 27.2611 19.0744C27.4695 18.3549 27.4695 17.5913 27.2611 16.8717L26.826 15.9005C26.4521 15.2898 25.9241 14.7875 25.2946 14.4436C24.2953 13.9543 23.1534 13.8374 22.0752 14.1141C21.0557 14.4589 20.1922 15.1535 19.6388 16.0739C19.2776 16.7135 19.0972 17.4388 19.1168 18.1725C19.1375 18.9201 19.3534 19.6494 19.7432 20.2885C19.9511 20.6008 20.1901 20.8913 20.4567 21.1556C20.9692 21.6416 21.5984 21.988 22.284 22.1616C22.8251 22.3091 23.3961 22.3091 23.9372 22.1616C24.4794 22.1258 25.0022 21.9462 25.4512 21.6413C26.049 21.2687 26.5404 20.749 26.8782 20.1324L26.8608 20.115Z" fill="#FCD13A"/>
<path d="M16.7848 42.3492C16.7795 42.3953 16.7795 42.4419 16.7848 42.488L16.576 42.8695C16.5427 43.0356 16.5427 43.2065 16.576 43.3725C16.588 43.7031 16.6838 44.0253 16.8544 44.3091C17.0285 44.5519 17.2547 44.7773 17.4635 45.0202L17.8116 45.263C17.9974 45.3858 18.2151 45.4521 18.4381 45.4538C18.807 45.4933 19.1789 45.4143 19.4996 45.2283C19.7304 45.0651 19.9209 44.8515 20.0565 44.6039C20.2669 44.2099 20.3167 43.7502 20.1957 43.3205V42.991C20.1087 42.6202 19.9152 42.2827 19.6388 42.0197L19.256 41.7422C18.9812 41.5862 18.6666 41.5139 18.3511 41.5341H18.1074C17.9006 41.5505 17.7022 41.6224 17.5331 41.7422C17.3075 41.8768 17.1215 42.0682 16.9937 42.2972L16.7848 42.3492Z" fill="#FCD13A"/>
<path d="M126.803 17.3401C124.61 21.3465 125.794 26.6363 126.246 31.0416C126.733 36.0539 127.517 41.0489 128.265 46.0266C129.883 56.745 130.927 67.5675 131.745 78.3726C132.25 85.1193 142.605 84.9632 142.361 78.1124C141.889 66.5549 140.727 55.0356 138.88 43.6158C138.07 38.1391 136.807 32.7384 135.104 27.4688C133.747 23.4277 132.755 19.1612 129.187 16.629C128.982 16.5057 128.753 16.4262 128.515 16.3953C128.277 16.3645 128.035 16.3831 127.804 16.4498C127.574 16.5166 127.36 16.6302 127.176 16.7834C126.991 16.9366 126.841 17.1261 126.733 17.3401H126.803Z" fill="#FCD13A"/>
<path d="M131.815 74.7823C133.681 65.7592 133.969 56.4828 132.668 47.3619C131.519 38.9849 130.318 28.3879 125.481 21.3463C122.853 17.4787 115.7 18.8662 116.153 24.104C116.831 32.1515 120.434 40.0776 121.809 48.1077C123.27 56.6408 124.001 65.4514 124.75 74.1233C125.08 77.9389 130.962 79.0489 131.815 74.9037V74.7823Z" fill="#FCD13A"/>
<path d="M109.035 28.3875C111.945 36.0747 113.584 44.1811 113.89 52.3912C114.152 56.6925 114.395 61.0631 114.482 65.3296C114.569 69.5962 113.595 73.4118 117.214 76.2041C117.756 76.6781 118.432 76.9727 119.149 77.0472C119.866 77.1218 120.589 76.9727 121.217 76.6204C125.428 73.7413 124.697 69.6829 124.697 65.0695C124.637 59.6713 124.218 54.283 123.444 48.9398C122.278 40.8056 120.312 31.1799 113.751 25.5258C111.767 23.7915 108.026 25.5258 109.105 28.3875H109.035Z" fill="#FCD13A"/>
<path d="M113.073 77.2275C120.034 72.4233 116.014 60.4214 115.37 53.5707C114.534 44.5346 114.395 34.9088 109.261 27.0521C105.346 21.0512 96.6969 26.5839 99.8815 32.8276C103.362 39.609 104.65 46.7026 106.146 54.1083C106.912 57.924 107.887 61.6702 108.966 65.4164C110.045 69.1627 109.888 72.9436 111.071 76.4817C111.134 76.6773 111.24 76.8562 111.381 77.0049C111.523 77.1536 111.697 77.2682 111.89 77.34C112.083 77.4119 112.289 77.4391 112.494 77.4196C112.699 77.4001 112.897 77.3344 113.073 77.2275Z" fill="#FCD13A"/>
<path d="M121.878 74.4527C122.313 75.2332 122.801 76.0137 123.218 76.8115C123.345 77.1199 123.444 77.4392 123.514 77.7654C123.721 78.442 124.12 79.0444 124.663 79.4997C125.102 79.9156 125.679 80.1574 126.284 80.1797C126.89 80.2021 127.483 80.0035 127.952 79.6212C128.428 79.2471 128.749 78.7105 128.851 78.1147C128.954 77.519 128.832 76.9065 128.509 76.3952C128.104 75.762 127.532 75.252 126.855 74.921C126.472 74.7817 126.099 74.6136 125.742 74.418C124.993 73.863 124.245 73.3427 123.479 72.8051C122.435 72.0419 121.321 73.5335 121.878 74.5394V74.4527Z" fill="#FCD13A"/>
<path d="M92.2941 32.5676C93.0598 40.1815 97.8628 47.3618 99.9511 54.7676C101.011 58.6344 101.727 62.5866 102.092 66.5786C102.509 70.8972 102.3 73.967 105.207 77.4184C106.072 78.239 107.229 78.6835 108.424 78.6542C109.618 78.6249 110.752 78.1243 111.576 77.2623C116.971 70.9492 113.038 58.6872 110.654 51.5416C108.148 44.0491 103.693 33.6776 96.0704 30.2782C95.6765 30.0713 95.2355 29.9698 94.7904 29.9834C94.3454 29.997 93.9115 30.1254 93.531 30.356C93.1506 30.5867 92.8367 30.9116 92.6199 31.2993C92.4031 31.6869 92.2908 32.1239 92.2941 32.5676Z" fill="#FCD13A"/>
<path d="M82.7053 32.2729C85.9421 39.0196 90.4668 45.0032 93.5818 51.8539C96.919 58.6127 99.2633 65.8147 100.543 73.2387C101.952 83.4542 117.18 79.6559 113.699 71.1228C107.539 55.9991 100.351 38.1698 86.2902 28.5267C83.819 26.7923 81.696 30.157 82.7053 32.2729Z" fill="#FCD13A"/>
<path d="M80.6866 29.9835L80.0775 30.5212C79.6247 31.0059 79.3076 31.6007 79.158 32.246C79.0083 32.8913 79.0314 33.5644 79.2248 34.198C80.965 42.2802 83.3318 50.2236 85.7681 58.115C87.9956 65.2433 89.5444 75.1292 94.8696 80.5404L103.327 69.0415L101.831 68.3131C100.865 67.803 99.7831 67.5513 98.6907 67.5826C97.5983 67.6138 96.5327 67.927 95.5981 68.4915C94.6635 69.0559 93.8918 69.8524 93.3584 70.8031C92.825 71.7537 92.5482 72.826 92.5551 73.9151V75.5108C92.9205 84.8243 107.904 84.304 106.964 75.1639C106.199 67.55 100.282 59.9534 96.9927 53.0506C93.5122 45.6796 90.1709 38.1524 86.0466 31.0935C85.6869 30.5419 85.1902 30.0923 84.6048 29.7884C84.0193 29.4845 83.365 29.3366 82.7053 29.3591C82.3374 29.325 81.9664 29.3641 81.6138 29.4743C81.2613 29.5845 80.9342 29.7635 80.6518 30.0009L80.6866 29.9835Z" fill="#FCD13A"/>
<path d="M27.0175 36.9384C35.9449 45.2114 45.203 53.0334 54.8614 60.5605C64.1543 67.8449 73.6734 76.1699 83.9409 82.0321C92.4507 86.9056 98.8026 74.3835 91.1455 69.0069C81.5567 62.2776 70.7846 56.8663 60.9522 50.4665C51.1199 44.0667 41.4267 37.3026 31.8205 30.5039C28.0442 27.833 23.8154 33.9726 27.0871 36.9384H27.0175Z" fill="#FCD13A"/>
<path d="M27.5569 27.1217C29.2972 31.9606 35.6491 34.8397 39.4428 38.1003C44.1937 42.1587 48.6313 46.5293 53.1211 50.8826C62.0006 59.6811 71.8896 67.4061 82.5835 73.8977C91.6153 79.2395 99.6553 64.7749 90.4668 59.6585C88.5525 58.5832 86.6034 57.6987 84.6021 56.7795C79.1378 54.2473 70.9064 60.4563 75.5355 66.2491C77.2757 68.4344 79.016 70.6197 80.9128 72.6663L88.5003 58.8954C77.3279 54.6635 67.9306 45.8009 58.4985 38.7767C53.8829 35.1968 49.085 31.8566 44.1241 28.7694C39.9997 26.3066 34.3961 22.1614 29.4538 23.5663C28.7484 23.787 28.1564 24.2719 27.8026 24.9189C27.4488 25.5659 27.3607 26.3246 27.5569 27.035V27.1217Z" fill="#FCD13A"/>
<path d="M42.9407 32.2555C55.1224 42.1934 68.4875 50.5011 80.8606 60.1442C81.6205 60.865 82.5154 61.4297 83.4942 61.8059C84.473 62.182 85.5166 62.3624 86.5654 62.3366C87.6142 62.3109 88.6475 62.0795 89.6066 61.6557C90.5656 61.2319 91.4315 60.624 92.1548 59.8667C92.8781 59.1094 93.4447 58.2175 93.8221 57.242C94.1996 56.2664 94.3806 55.2264 94.3547 54.1812C94.3288 53.136 94.0967 52.106 93.6714 51.1502C93.2462 50.1944 92.6362 49.3315 91.8764 48.6106C87.752 43.9625 83.6798 39.9388 82.4268 33.7124L69.5316 41.6037C70.6628 42.523 72.6815 47.067 72.1594 43.5983C72.2461 44.9333 72.7438 46.2092 73.5847 47.2521C74.4255 48.2949 75.5686 49.054 76.8581 49.4258L77.502 49.6339C80.9824 50.6745 85.6985 48.1076 86.2032 44.4308C87.0559 38.638 84.7066 34.1113 80.2863 30.3477C73.9867 24.9885 66.0686 30.7292 67.4085 38.2564C68.94 46.9283 74.7002 54.1779 80.8258 60.1789L90.2057 47.4486C75.6051 41.1355 61.8224 32.9839 47.4479 26.1505C43.7238 24.4161 39.3906 29.3764 42.9407 32.2555Z" fill="#FCD13A"/>
<path d="M22.8061 38.3952C33.9141 55.1078 47.3033 70.1973 62.5881 83.2287L68.0176 69.1976C52.512 70.0822 36.0145 73.4122 20.5612 70.932L26.6172 78.4765C26.7626 74.2066 27.1694 69.9494 27.8354 65.7289C28.1834 63.6303 28.5837 61.5317 29.0536 59.4505L29.5408 57.3692C30.6024 54.6636 30.1673 54.5769 28.2356 57.0744L22.2318 56.45C24.4767 57.456 26.5128 60.4044 28.3923 62.0173C30.846 64.0986 33.4042 66.0584 36.0145 67.9315C41.2177 71.6468 46.8212 74.7708 52.7209 77.2451L56.4276 62.1388C47.6046 62.3642 39.0252 62.7111 30.3239 61.3063C19.604 59.5719 15.4622 76.0137 26.217 77.6787C37.0503 79.6435 48.1436 79.7198 59.0032 77.9042C67.7044 76.1698 65.181 64.7576 58.6203 62.2948C52.0571 59.91 45.9356 56.4581 40.5044 52.0794C35.7013 48.1597 31.8031 41.413 24.8422 42.0201C17.6376 42.6444 15.3578 49.5992 13.9134 55.6002C12.1424 63.2227 11.0707 70.99 10.7114 78.8061C10.7568 80.5498 11.3733 82.2309 12.4667 83.5931C13.56 84.9552 15.0704 85.9236 16.7674 86.3506C33.6652 89.1082 51.5723 86.7495 68.5049 85.3099C77.0669 84.5989 78.7027 74.7129 72.2464 70.0475C56.8801 58.9822 43.1669 46.0091 29.8367 32.6198C26.2344 29.0123 20.1261 33.9379 22.8757 38.2391L22.8061 38.3952Z" fill="#FCD13A"/>
<path d="M30.498 2.97925C25.8711 6.12878 21.8163 10.0408 18.5077 14.5475C15.0965 19.0752 12.2124 23.9744 9.91086 29.1509C5.33899 39.5367 3.00321 50.7627 3.0543 62.1039C3.21405 73.7126 6.04816 85.1294 11.3379 95.4732C16.7152 106.226 24.1461 115.783 31.6291 125.148C35.4577 129.935 39.3732 134.583 43.1843 139.405C46.9132 144.229 50.2367 149.351 53.1211 154.719C53.8346 156.003 54.4611 157.321 55.0528 158.674C55.0982 158.807 55.1691 158.931 55.2616 159.038C55.3559 159.143 55.4677 159.231 55.5923 159.298C55.724 159.355 55.8662 159.385 56.0099 159.385C56.1537 159.385 56.2959 159.355 56.4276 159.298C56.499 159.234 56.558 159.158 56.6016 159.073C56.7033 158.972 56.7755 158.846 56.8105 158.708C56.8451 158.572 56.8451 158.429 56.8105 158.292C56.7925 158.148 56.7387 158.011 56.6538 157.893C51.0947 147.311 44.675 137.2 37.4589 127.663C30.498 118.003 23.0149 108.776 17.2721 98.3696C14.458 93.4247 12.1883 88.1912 10.5025 82.7603C9.7227 80.1262 9.08945 77.4512 8.60568 74.7475C8.41425 73.5681 8.24023 72.4408 8.06621 70.9839C7.89218 69.5271 7.80517 68.2956 7.71816 66.9428C7.54413 64.2372 7.49193 61.5316 7.57894 58.826C7.57894 57.4211 7.71816 56.0336 7.83998 54.6461L7.94439 53.6402C7.91769 53.4911 7.91769 53.3384 7.94439 53.1893C7.94439 53.5708 7.94439 53.1893 7.94439 53.1893C7.94439 52.4435 8.11841 51.6977 8.24023 50.9519C9.02556 45.5407 10.3429 40.2194 12.1732 35.0651C13.0433 32.6023 14.0178 30.3476 15.2186 27.7634C16.3738 25.3135 17.6516 22.9228 19.0471 20.6005C20.509 18.207 22.0926 15.935 23.6936 13.663C25.2946 11.391 26.9827 9.50047 28.6707 7.47126C29.5234 6.4133 30.4109 5.39003 31.3159 4.36675C31.8554 3.74238 31.107 2.63238 30.3587 3.18738L30.498 2.97925Z" fill="#0B2538"/>
<path d="M127.482 4.24521C131.097 8.32338 134.461 12.6151 137.558 17.0969C139.093 19.3824 140.51 21.7442 141.804 24.1731C143.127 26.6533 144.171 28.96 145.18 31.3534C147.258 36.3897 148.832 41.6182 149.879 46.9627C150.001 47.6045 150.122 48.2288 150.227 48.8532L150.331 49.4256C150.331 49.8418 150.331 48.8879 150.331 49.599L150.488 50.709C150.679 52.0618 150.836 53.3973 150.958 54.7674C151.19 57.4665 151.283 60.1757 151.236 62.8843C151.236 64.2718 151.236 65.6593 151.062 67.0468C151.062 67.6885 151.062 68.3302 150.923 68.9546L150.818 70.0819C150.818 70.0819 150.818 70.5155 150.818 70.0819C150.835 70.3071 150.835 70.5332 150.818 70.7583C149.83 79.0453 147.385 87.0942 143.596 94.5365C140.92 99.829 137.867 104.924 134.46 109.782C131.084 114.673 127.499 119.355 123.897 124.142C120.295 128.929 116.797 133.699 113.455 138.676C110.114 143.654 106.895 148.666 104.11 154.025C103.432 155.326 102.736 156.61 102.074 157.928C101.413 159.246 103.292 160.026 103.814 158.882C108.792 147.799 116.588 138.295 124.262 128.998C132.247 119.781 139.393 109.873 145.615 99.3928C151.407 89.2964 154.861 78.0376 155.726 66.4397C156.39 55.1299 154.635 43.8086 150.575 33.2265C148.558 27.9055 145.949 22.8267 142.796 18.0855C139.74 13.3229 135.966 9.05824 131.606 5.44192C130.545 4.59208 129.448 3.70755 128.317 3.03114C127.621 2.52818 126.96 3.62084 127.482 4.24521Z" fill="#0B2538"/>
<path d="M81.9918 26.2023C95.9138 19.2648 111.019 13.2639 123.949 4.50532C124.344 4.21927 124.616 3.79462 124.71 3.31686C124.804 2.8391 124.712 2.34372 124.454 1.93042C124.196 1.51712 123.79 1.21661 123.319 1.08938C122.847 0.962151 122.345 1.01765 121.913 1.24471C108.148 8.73719 94.7478 17.0275 81.0521 24.6934C80.0427 25.2657 81.0521 26.7053 81.9918 26.2023Z" fill="#0B2538"/>
<path d="M81.4697 25.3007C74.5088 21.5371 67.1301 18.3632 59.9255 15.0852C50.6848 10.8707 41.4267 5.80633 31.838 2.44166C29.7497 1.69588 28.5489 4.95649 30.4284 5.9104C46.282 14.4608 64.3457 18.9702 80.5996 26.7228C80.8031 26.8004 81.0278 26.8022 81.2325 26.7279C81.4372 26.6536 81.6081 26.5083 81.7139 26.3185C81.8197 26.1287 81.8533 25.9072 81.8084 25.6948C81.7636 25.4823 81.6433 25.2931 81.4697 25.1619V25.3007Z" fill="#0B2538"/>
<path d="M80.6344 27.5032C85.2983 32.5503 90.7452 36.8168 95.7745 41.4996C96.0568 41.7287 96.4154 41.8432 96.7787 41.82C97.142 41.7969 97.4831 41.6379 97.7339 41.3749C97.9846 41.1119 98.1264 40.7642 98.131 40.4014C98.1355 40.0387 98.0025 39.6876 97.7584 39.4184C93.0075 34.4407 87.1081 30.6598 81.9918 26.0811C81.7973 25.9368 81.5566 25.8685 81.3151 25.8891C81.0735 25.9097 80.8479 26.0177 80.6808 26.1927C80.5138 26.3678 80.4168 26.5978 80.4082 26.8392C80.3997 27.0807 80.4801 27.3169 80.6344 27.5032Z" fill="#0B2538"/>
<path d="M97.4626 41.5691C111.071 33.1921 125.202 25.5782 138.254 16.2993C140.882 14.4262 138.254 10.1076 135.609 12.0501C122.835 21.6932 109.018 29.9141 96.0878 39.3491C94.7652 40.3377 96.0878 42.4536 97.4626 41.5691Z" fill="#0B2538"/>
<path d="M79.8513 25.7517C74.735 30.3477 68.8181 34.1113 64.0673 39.1063C62.7795 40.4591 64.7982 42.3322 66.1382 41.0835C71.1675 36.418 76.5796 32.1515 81.2783 27.1045C81.423 26.9107 81.4916 26.6707 81.4709 26.43C81.4503 26.1893 81.3419 25.9644 81.1662 25.7979C80.9906 25.6314 80.7598 25.5348 80.5176 25.5263C80.2753 25.5177 80.0383 25.5979 79.8513 25.7517Z" fill="#0B2538"/>
<path d="M65.7205 38.9674C52.5295 29.3243 38.8685 20.3229 25.2772 11.4603C22.5798 9.72593 20.0565 14.1486 22.8583 15.8309C36.7802 24.3467 50.7022 32.689 64.6242 41.2394C66.086 42.1413 67.1997 39.9213 65.8771 38.9674H65.7205Z" fill="#0B2538"/>
<path d="M80.0949 26.0984C78.7723 38.3951 79.7121 50.9866 80.0949 63.318C80.0949 63.5664 80.1939 63.8046 80.3702 63.9803C80.5464 64.1559 80.7854 64.2546 81.0347 64.2546C81.2839 64.2546 81.5229 64.1559 81.6991 63.9803C81.8754 63.8046 81.9744 63.5664 81.9744 63.318C82.3398 51.004 83.2796 38.3951 81.9744 26.1157C81.9744 25.8674 81.8754 25.6291 81.6991 25.4535C81.5229 25.2779 81.2839 25.1792 81.0347 25.1792C80.7854 25.1792 80.5464 25.2779 80.3702 25.4535C80.1939 25.6291 80.0949 25.8674 80.0949 26.1157V26.0984Z" fill="#0B2538"/>
<path d="M9.31918 88.4146C35.6317 90.7907 62.3618 90.2704 88.7787 89.8715C99.1158 89.7154 109.47 89.3165 119.807 88.9176C129.587 88.536 139.803 88.7788 149.496 87.2873C152.193 86.871 152.298 82.8299 149.391 82.9167C102.753 84.0787 55.9229 88.8829 9.23216 85.4662C7.3353 85.3274 7.49192 88.2412 9.23216 88.4146H9.31918Z" fill="#0B2538"/>
<path d="M90.0317 43.9453C89.7329 43.7673 89.3874 43.6828 89.0398 43.7025C88.7014 43.7066 88.3705 43.8025 88.0826 43.98C87.8484 44.1075 87.6507 44.2926 87.5084 44.5177C87.3875 44.6499 87.3035 44.8113 87.2647 44.986C87.1411 45.2329 87.087 45.5086 87.1081 45.7838L87.1951 46.3214L87.404 46.807C87.538 47.0417 87.7296 47.2386 87.9608 47.3794C88.0843 47.503 88.2418 47.5875 88.4133 47.6222C88.6616 47.7438 88.9378 47.7976 89.2138 47.7783H89.7533L90.2406 47.5702C90.476 47.4366 90.6736 47.2456 90.8148 47.0152C90.9389 46.8921 91.0237 46.7352 91.0585 46.5642C91.1916 46.3203 91.252 46.0434 91.2325 45.7664V45.2114L91.0063 44.7258C90.8134 44.4297 90.5505 44.1855 90.2406 44.0147L90.0317 43.9453Z" fill="#0B2538"/>
<path d="M90.0317 52.6342C89.7264 52.4743 89.3845 52.3966 89.0398 52.4087C88.7014 52.4128 88.3704 52.5087 88.0826 52.6862C87.8484 52.8137 87.6507 52.9988 87.5084 53.2238C87.3838 53.3534 87.2992 53.516 87.2647 53.6921C87.1434 53.9336 87.0893 54.2032 87.1081 54.4726L87.1951 55.0276L87.4039 55.5132C87.5446 55.7382 87.7351 55.9281 87.9608 56.0682C88.0875 56.1911 88.2431 56.2806 88.4133 56.3284C88.6616 56.4499 88.9378 56.5038 89.2138 56.4845H89.7533L90.2405 56.259C90.4788 56.137 90.6778 55.9507 90.8148 55.7213C90.9358 55.596 91.02 55.44 91.0585 55.2704C91.1916 55.0264 91.252 54.7496 91.2325 54.4726V53.9176L91.0062 53.432C90.8134 53.1359 90.5505 52.8917 90.2405 52.7209L90.0317 52.6342Z" fill="#0B2538"/>
<path d="M159.52 16.6289C157.066 17.5481 155.552 20.2191 154.299 22.3177C151.93 26.0742 149.875 30.0188 148.156 34.1114C147.955 34.4748 147.907 34.9028 148.023 35.3012C148.139 35.6996 148.409 36.0359 148.774 36.236C149.138 36.4361 149.568 36.4836 149.968 36.3681C150.367 36.2527 150.705 35.9837 150.905 35.6203C153.15 32.3423 154.925 28.8909 156.875 25.4395C158.197 23.0981 160.042 21.0169 161.277 18.6755C161.817 17.6349 160.825 16.1606 159.537 16.6289H159.52Z" fill="#0B2538"/>
<path d="M8.41427 29.7405C7.74594 24.1963 6.23186 18.7862 3.92444 13.6976C2.77587 11.3735 -0.408773 13.2293 0.043691 15.432C1.10524 20.6351 4.27248 25.6647 6.84805 30.2088C7.2483 30.8852 8.58829 30.5904 8.41427 29.7405Z" fill="#0B2538"/>
</svg>
