<svg width="160" height="93" viewBox="0 0 167 93" fill="none" xmlns="http://www.w3.org/2000/svg">
<path d="M156.181 26.8354C156.592 25.4567 157.076 24.096 157.613 22.7531C157.88 22.0018 158.203 21.2716 158.58 20.5688C158.956 19.96 159.475 19.3512 159.797 18.7783C160.043 18.4045 160.42 18.1362 160.854 18.0263C161.065 17.9736 161.285 17.9639 161.5 17.9978C161.716 18.0316 161.922 18.1083 162.107 18.2233C162.294 18.3411 162.455 18.4953 162.581 18.6768C162.708 18.8583 162.796 19.0633 162.841 19.2796C162.936 19.7053 162.872 20.1509 162.662 20.533C162.484 20.9748 162.34 21.4297 162.232 21.8937C162.055 22.4509 161.84 22.9952 161.588 23.523C161.158 24.5794 160.746 25.6358 160.37 26.7101C159.648 28.8642 159.05 31.0581 158.58 33.2811C158.22 35.2942 157.981 37.327 157.864 39.3687C157.523 38.8315 157.183 38.2765 156.771 37.7393C156.131 36.8966 155.357 36.1647 154.48 35.5729C154.489 35.4896 154.489 35.4055 154.48 35.3222C154.798 32.449 155.367 29.6092 156.181 26.8354Z" fill="#16293A"/>
<path d="M156.682 13.6039C155.553 15.6182 155.072 17.9312 155.303 20.2286C155.288 20.3937 155.211 20.547 155.088 20.6583C154.965 20.7693 154.807 20.8327 154.641 20.8374C154.476 20.8221 154.322 20.7454 154.211 20.6225C154.153 20.5634 154.108 20.4935 154.077 20.4166C154.046 20.3398 154.031 20.2576 154.032 20.1749C153.825 17.6557 154.454 15.1385 155.823 13.0131C155.859 12.9577 155.907 12.9101 155.962 12.8732C156.017 12.8364 156.08 12.8108 156.145 12.7982C156.204 12.772 156.268 12.7585 156.333 12.7585C156.398 12.7585 156.462 12.772 156.521 12.7982C156.637 12.8719 156.72 12.9872 156.754 13.1205C156.78 13.1797 156.793 13.2437 156.793 13.3085C156.793 13.3732 156.78 13.4372 156.754 13.4965L156.682 13.6039Z" fill="#16293A"/>
<path d="M142.985 32.5471C141.698 29.1431 140.185 25.8293 138.455 22.6279C138.126 22.0082 138.006 21.2988 138.112 20.6052C138.219 19.9116 138.546 19.2709 139.046 18.7784C139.929 17.8877 141.114 17.3605 142.367 17.3009C143.62 17.2412 144.85 17.6534 145.814 18.4561C148.428 20.2466 148.643 23.2904 150.487 25.618L144.793 26.2089C146.799 23.362 149.735 19.047 153.746 20.9807C157.756 22.9144 155.984 30.5418 154.909 33.8541C153.423 38.4914 147.461 34.4987 148.929 29.8256C150.845 23.7201 152.635 17.6504 154.175 11.4196L157.756 16.3792C155.142 16.3792 152.85 17.3282 150.183 17.0238C147.731 16.4681 145.229 16.1681 142.716 16.1285L145.241 7.64173C150.277 10.8943 154.049 15.7718 155.93 21.4641C157.72 26.3342 150.272 28.7334 147.783 24.6691C145.993 21.7864 144.202 16.7552 141.033 15.1796C138.741 13.9442 136.414 14.3023 135.053 11.6703C134.53 10.6913 134.409 9.54658 134.716 8.47984C135.024 7.4131 135.736 6.50854 136.7 5.9587L136.969 5.81546C137.954 5.29708 139.101 5.18096 140.17 5.49154C141.238 5.80211 142.145 6.51516 142.698 7.48059L142.806 7.67754C145.366 12.5476 137.613 16.6299 135.429 11.7598L135.322 11.5449L141.051 13.1922L140.747 13.3175L142.412 7.62383C141.248 6.47793 141.373 6.28098 142.77 7.01507L144.847 7.9103C146.269 8.71125 147.547 9.74633 148.625 10.972C151.103 13.9616 153.427 17.0751 155.59 20.3003L147.855 24.5795C146.295 20.9483 143.776 17.8103 140.568 15.5019C136.092 12.2969 139.153 6.3526 144.238 7.1404C146.494 7.5164 148.643 8.34001 150.881 8.76973C153.119 9.19944 155.59 8.46535 158.043 8.76973C158.63 8.79348 159.204 8.95001 159.721 9.22755C160.239 9.50508 160.687 9.89639 161.032 10.3721C161.376 10.8477 161.609 11.3953 161.711 11.9737C161.814 12.5521 161.784 13.1463 161.624 13.7114C159.618 19.799 157.685 23.4874 156.055 29.7003C153.638 28.9662 151.436 30.6313 149.019 29.8972C149.335 29.3309 149.502 28.6929 149.502 28.0441C149.502 27.3952 149.335 26.7572 149.019 26.191L152.206 28.0888H151.131L153.781 27.0683C152.695 27.9248 151.737 28.9316 150.935 30.0584C150.593 30.5802 150.124 31.0063 149.572 31.2966C149.02 31.5869 148.403 31.7317 147.779 31.7173C147.156 31.703 146.546 31.53 146.008 31.2147C145.47 30.8993 145.021 30.4521 144.704 29.9151C144.346 29.4138 142.054 23.8096 141.785 23.7738L144.113 22.8786C143.271 23.5411 143.791 31.258 143.755 32.3681C143.755 32.7441 143.146 32.941 142.985 32.5471Z" fill="#FFD200"/>
<path d="M137.22 3.25494C137.828 3.25494 138.437 3.25494 139.01 3.25494C139.362 3.23664 139.715 3.23664 140.066 3.25494L141.159 3.38027H141.714L142.197 3.46979L143.236 3.61303L145.599 3.93531L155.124 5.15283C158.114 5.52883 161.57 6.2092 164.685 6.83587C165.271 6.96923 165.783 7.32209 166.116 7.82175C166.449 8.3214 166.578 8.92979 166.476 9.52156C166.425 9.84134 166.309 10.1472 166.135 10.42C165.961 10.6928 165.732 10.9265 165.463 11.1064C165.194 11.2864 164.89 11.4087 164.572 11.4656C164.253 11.5226 163.926 11.513 163.611 11.4374C161.158 10.936 158.49 10.4705 155.787 10.0229C152.331 9.41414 148.876 8.66214 145.42 7.91014C143.898 7.56996 142.322 7.30139 140.854 6.83587C140.057 6.67755 139.282 6.42512 138.545 6.08387C138.097 5.7974 137.327 5.4214 136.754 5.08121C136.573 4.97184 136.433 4.80725 136.353 4.61174C136.273 4.41623 136.257 4.20017 136.31 3.99546C136.362 3.79075 136.478 3.60825 136.642 3.4749C136.806 3.34156 137.009 3.26444 137.22 3.25494Z" fill="#16293A"/>
<path d="M156.037 29.6821C156.725 23.9528 158.283 18.3618 160.657 13.1024C161.838 10.7032 165.115 12.619 164.649 14.8929C163.557 20.2643 160.299 25.4566 157.631 30.1297C157.237 30.8459 155.84 30.5236 156.037 29.6642V29.6821Z" fill="#16293A"/>
<path d="M14.9129 90.4867C14.1072 88.4814 13.3731 86.4582 12.7464 84.3812C11.9302 81.6631 11.2666 78.9015 10.759 76.1093C10.5621 74.8918 10.383 73.7459 10.204 72.224C10.0249 70.7021 9.97122 69.4487 9.88169 68.0164C9.69078 65.2275 9.64298 62.4307 9.73846 59.637C9.73846 58.2046 9.82798 56.7723 10.007 55.3399L10.1145 54.2835C10.0881 54.1295 10.0881 53.972 10.1145 53.818C10.1145 54.2119 10.1145 53.818 10.1145 53.818C10.1145 53.0481 10.2935 52.2782 10.4188 51.5083C11.2421 45.9139 12.6155 40.4144 14.519 35.0897C15.4142 32.5473 16.4169 30.2197 17.6523 27.5519C18.837 25.015 20.1518 22.5408 21.5913 20.1393C23.0774 17.6685 24.7246 15.323 26.3719 12.9775C28.0191 10.632 29.7559 8.68036 31.4926 6.56761C32.3699 5.49333 33.2831 4.41905 34.2141 3.36268C34.7692 2.71811 33.9993 1.57221 33.2115 2.14516C28.4554 5.40997 24.2897 9.46056 20.8931 14.1234C17.3797 18.795 14.4121 23.8531 12.0482 29.1991C7.34282 39.9204 4.93956 51.5097 4.99372 63.2179C5.14625 72.5374 6.96539 81.7544 10.3651 90.433C11.8591 90.0483 13.4284 90.0668 14.9129 90.4867Z" fill="#16293A"/>
<path d="M156.933 33.3346C154.854 27.843 152.17 22.6004 148.929 17.7038C145.79 12.7892 141.906 8.39189 137.417 4.66921C136.324 3.79188 135.196 2.87875 134.033 2.18047C133.245 1.64333 132.564 2.78922 133.102 3.43379C136.825 7.64033 140.287 12.0711 143.468 16.7011C145.051 19.0581 146.51 21.4964 147.837 24.0062C149.198 26.5666 150.272 28.93 151.311 31.4009C153.455 36.6284 155.075 42.0564 156.145 47.6046C156.27 48.2491 156.395 48.8937 156.503 49.5562L156.61 50.1291C156.61 50.0217 156.61 49.8426 156.61 50.2724L156.771 51.4362C156.968 52.8148 157.13 54.2114 157.255 55.6079C157.507 58.4056 157.614 61.2144 157.577 64.0231C157.577 65.4555 157.577 66.9058 157.398 68.3382C157.398 68.9827 157.398 69.6452 157.255 70.3077L157.147 71.4536C157.147 71.4536 157.147 71.9191 157.147 71.4536C157.166 71.68 157.166 71.9075 157.147 72.1339C156.442 78.0847 154.98 83.921 152.797 89.5014C153.208 89.5014 156.216 89.5014 157.452 89.394C160.076 82.4116 161.662 75.0824 162.161 67.6399C162.869 55.9635 161.087 44.27 156.933 33.3346Z" fill="#16293A"/>
<path d="M10.4368 26.8354C10.025 25.4567 9.55949 24.096 9.02235 22.7531C8.7417 22.0045 8.41276 21.2748 8.03759 20.5688C7.6795 19.96 7.14236 19.3512 6.82008 18.7783C6.71428 18.5682 6.56812 18.381 6.38993 18.2273C6.21174 18.0737 6.00503 17.9567 5.78161 17.8831C5.3485 17.7778 4.89132 17.8486 4.51038 18.08C4.14327 18.329 3.88167 18.7055 3.77629 19.1364C3.68676 19.5642 3.75681 20.01 3.97324 20.3897C4.13749 20.8347 4.275 21.2891 4.38504 21.7505C4.582 22.3055 4.79685 22.8606 5.02961 23.3798C5.47723 24.4362 5.88903 25.4925 6.24713 26.5668C6.98652 28.7158 7.58462 30.9108 8.03759 33.1378C8.4122 35.1969 8.65144 37.2783 8.75378 39.3687C9.11187 38.8315 9.45206 38.2765 9.84596 37.7393C10.4971 36.9002 11.2766 36.1691 12.1557 35.5729C12.146 35.4896 12.146 35.4055 12.1557 35.3222C11.8401 32.4472 11.2648 29.6066 10.4368 26.8354Z" fill="#16293A"/>
<path d="M9.95338 13.6039C11.0662 15.6242 11.5465 17.9321 11.332 20.2286C11.3474 20.3937 11.424 20.547 11.5469 20.6583C11.6673 20.7736 11.8278 20.8378 11.9945 20.8373C12.1596 20.822 12.3129 20.7454 12.4242 20.6225C12.5351 20.4993 12.5986 20.3406 12.6033 20.1749C12.8169 17.6551 12.1871 15.1358 10.8128 13.013C10.7427 12.9028 10.6324 12.8244 10.5053 12.7943C10.3783 12.7642 10.2445 12.7848 10.1324 12.8519C10.073 12.886 10.0215 12.9324 9.98138 12.988C9.94125 13.0435 9.9134 13.107 9.89967 13.1742C9.87352 13.2334 9.86002 13.2974 9.86002 13.3622C9.86002 13.4269 9.87352 13.4909 9.89967 13.5502L9.95338 13.6039Z" fill="#16293A"/>
<path d="M33.6591 0.641049C33.4742 0.550296 33.2949 0.448658 33.122 0.33667C32.746 0.838 32.3879 1.35723 31.994 1.85857C30.0807 4.20431 28.0363 6.43999 25.8706 8.5549C24.5457 9.80823 26.3898 12.1358 27.9117 11.0616C30.2727 9.43915 32.415 7.5195 34.2858 5.34997C35.0915 4.40103 35.8435 3.39837 36.5776 2.3778C35.4893 2.01954 34.4931 1.42666 33.6591 0.641049Z" fill="#16293A"/>
<path d="M26.73 32.2065C11.2604 37.9002 1.94999 61.033 10.7591 75.5C12.5495 78.508 16.6318 76.2341 16.0409 73.1187C14.7518 66.2791 18.2611 59.153 18.0821 52.2239C18.0991 51.5246 17.853 50.8443 17.3925 50.3176C16.932 49.791 16.2906 49.4563 15.5953 49.3798C14.8999 49.3033 14.2011 49.4905 13.6371 49.9044C13.0732 50.3183 12.685 50.9288 12.5495 51.6152C12.267 53.4356 11.699 55.2 10.8665 56.8433L16.4169 58.2041C15.6649 51.3466 18.476 45.832 21.7883 40.0488C23.9727 36.2709 18.0284 33.0122 15.844 36.7722C13.053 42.0132 11.3708 47.7728 10.9023 53.6921L17.9746 53.5131C15.3964 47.712 18.9773 42.1436 21.3049 36.8796C22.9017 32.5465 25.1213 28.4692 27.8938 24.7761C30.866 21.3026 25.9243 16.5221 22.7194 19.8523C13.1583 29.7894 2.82731 46.0826 9.64899 60.2631C11.4395 63.844 16.8108 61.7134 16.6855 58.1683C16.5065 51.7942 15.7724 46.4407 18.1895 40.2636C20.5573 34.5843 23.835 29.329 27.8938 24.7045L22.7194 19.7807C19.1385 24.5971 17.348 30.0222 15.2352 35.6084C12.9793 41.7139 10.4368 47.9447 10.7591 54.5873C10.9739 58.5264 17.348 59.6365 17.9209 55.3931C18.4091 50.113 19.7012 44.9385 21.7525 40.0488L15.9156 36.7722C12.6212 43.6297 9.46994 50.5946 10.5442 58.3473C10.5616 59.0602 10.8347 59.7431 11.3137 60.2714C11.7928 60.7996 12.4457 61.138 13.1535 61.2249C13.8613 61.3117 14.5768 61.1412 15.1693 60.7444C15.7618 60.3476 16.1919 59.751 16.3811 59.0635C17.1551 57.128 17.7019 55.1091 18.0105 53.0475L12.5495 52.3672C13.1404 59.6723 10.3473 66.6909 10.3473 74.0318L16.1305 73.1187C14.7339 65.4734 13.4448 58.7949 16.8646 51.4361C19.783 45.0979 25.978 40.6933 28.5921 34.373C29.0397 33.2629 28.1803 31.6694 26.8016 32.1707L26.73 32.2065Z" fill="#FFD200"/>
<path d="M23.6503 32.5471C24.9384 29.1467 26.4456 25.8333 28.1623 22.6279C28.4943 22.0089 28.6162 21.2988 28.5096 20.6045C28.4031 19.9102 28.0738 19.2693 27.5715 18.7784C26.6933 17.8852 25.5107 17.356 24.2595 17.2962C23.0084 17.2365 21.7807 17.6507 20.8214 18.4561C18.2073 20.2466 17.9746 23.2904 16.1483 25.618L21.842 26.2088C19.8366 23.362 16.9003 19.047 12.8896 20.9807C8.879 22.9144 10.5799 30.5955 11.6363 33.9973C13.1403 38.6347 19.1026 34.6419 17.6344 29.9688C15.7007 23.7738 13.9102 17.7041 12.3704 11.4733L8.78948 16.4329C11.3857 16.4329 13.6954 17.3818 16.3631 17.0775C18.8143 16.5218 21.3164 16.2218 23.8294 16.1822L21.3227 7.69542C16.35 10.9629 12.6274 15.8149 10.759 21.4641C8.96853 26.2446 16.3631 28.626 18.8519 24.5795C20.6424 21.6969 22.5223 16.6656 25.6019 15.09C27.8937 13.9441 30.2213 14.2306 31.5821 11.6702C32.1057 10.6912 32.2265 9.54655 31.9188 8.47981C31.6112 7.41307 30.8994 6.50851 29.9349 5.95867L29.6484 5.81543C28.6663 5.29796 27.5216 5.18236 26.4559 5.49305C25.3902 5.80374 24.4869 6.5164 23.9368 7.48056L23.8294 7.67751C21.2511 12.5476 29.0217 16.6298 31.2061 11.7598V11.5449L25.4945 13.1921L25.781 13.3175L24.1338 7.6238C25.2976 6.4779 25.1722 6.28095 23.7578 7.01504L21.6987 7.91027C20.3018 8.71782 19.0492 9.75257 17.9925 10.972C15.5394 13.9593 13.2445 17.073 11.1171 20.3003L18.8519 24.5795C20.412 20.9483 22.9311 17.8102 26.1391 15.5018C30.4541 12.2969 27.4819 6.35257 22.397 7.14037C20.1231 7.51637 17.9925 8.33998 15.7544 8.7697C13.5163 9.19941 11.0455 8.46532 8.59253 8.7697C8.00559 8.79345 7.43168 8.94998 6.91396 9.22751C6.39625 9.50505 5.9482 9.89636 5.60351 10.372C5.25883 10.8477 5.02649 11.3953 4.92397 11.9737C4.82145 12.5521 4.85141 13.1462 5.0116 13.7114C7.01692 19.799 8.95062 23.4873 10.5799 29.7002C12.9971 28.9661 15.1814 30.6313 17.6165 29.8972C17.303 29.3298 17.1385 28.6922 17.1385 28.0441C17.1385 27.3959 17.303 26.7583 17.6165 26.1909L14.3399 28.0888H15.4142L12.7822 27.0682C13.8926 27.9149 14.8702 28.9227 15.6828 30.0583C16.0266 30.5799 16.4973 31.0057 17.0508 31.2956C17.6042 31.5855 18.2222 31.73 18.8468 31.7157C19.4714 31.7014 20.0821 31.5287 20.6216 31.2137C21.1612 30.8988 21.6119 30.4519 21.9315 29.9151C22.2896 29.4138 24.5814 23.8096 24.832 23.7738L22.5223 22.8786C23.3639 23.541 22.8267 31.2579 22.8625 32.368C22.8625 32.744 23.4713 32.941 23.6503 32.5471Z" fill="#FFD200"/>
<path d="M24.0442 13.8009C27.0522 21.3746 37.4906 26.6027 44.0258 30.7387C51.9218 35.7341 61.0352 41.9291 70.3456 43.7196C77.221 45.0266 82.3418 34.6061 75.1083 31.5802C66.4424 27.9993 58.0093 25.045 49.7195 20.4435C43.1843 16.791 34.035 10.0051 26.1749 10.8645C25.8259 10.8784 25.4847 10.9713 25.1768 11.1361C24.8689 11.3008 24.6024 11.5333 24.3973 11.8159C24.1923 12.0986 24.0539 12.424 23.9928 12.7679C23.9316 13.1117 23.9492 13.4649 24.0442 13.8009Z" fill="#FFD200"/>
<path d="M29.3262 13.0132C34.5294 17.5936 40.5489 21.1531 47.0697 23.5053C52.3158 25.439 55.5565 16.8985 50.6506 14.4276C44.4827 11.3747 37.7953 9.51003 30.9376 8.93091C30.4623 8.94918 30.0027 9.10626 29.6157 9.38275C29.2286 9.65924 28.9311 10.043 28.7597 10.4868C28.5883 10.9305 28.5506 11.4147 28.6513 11.8795C28.7519 12.3444 28.9866 12.7696 29.3262 13.1027V13.0132Z" fill="#FFD200"/>
<path d="M31.5642 9.84382C32.8355 12.8339 37.2579 14.1946 39.9078 15.3943C44.5093 17.4712 48.9676 19.9062 53.3721 22.395C57.7767 24.8837 61.7336 27.2471 65.9054 29.7538C70.4352 32.5111 74.7503 36.0741 80.2291 35.6802C84.2934 35.3938 87.8028 30.5774 85.0454 26.7279C81.4645 21.9116 75.4844 20.2822 70.1488 17.7756C64.6225 15.2271 58.9623 12.9798 53.1931 11.0434C48.0544 9.25297 42.1101 6.62098 36.6134 6.87165C35.4854 6.87165 30.49 7.33717 31.5642 9.84382Z" fill="#FFD200"/>
<path d="M51.9398 20.7297C58.6898 26.8352 63.8106 39.6191 73.8909 41.1589C78.3133 41.8214 83.1834 35.9129 78.6535 32.4931C74.6071 29.4314 69.8982 27.9453 65.9591 24.5076C62.655 21.4083 59.0571 18.638 55.2163 16.2357C54.6221 15.9744 53.9564 15.924 53.3296 16.093C52.7028 16.2619 52.1526 16.64 51.7701 17.1646C51.3877 17.6891 51.196 18.3286 51.2269 18.977C51.2577 19.6255 51.5093 20.2439 51.9398 20.7297Z" fill="#FFD200"/>
<path d="M35.6286 10.5241C35.6951 9.92965 35.725 9.33169 35.7181 8.7336C35.6728 8.21535 35.6728 7.69414 35.7181 7.17589L29.8095 8.93055C31.4934 11.2498 33.7433 13.0991 36.3447 14.3019C36.8172 14.554 37.3376 14.7032 37.8718 14.7398C38.406 14.7764 38.9419 14.6995 39.4443 14.5143C39.9467 14.3291 40.4042 14.0397 40.7868 13.6651C41.1694 13.2905 41.4684 12.8392 41.6642 12.3408C41.86 11.8424 41.9481 11.3083 41.9228 10.7734C41.8975 10.2386 41.7593 9.71513 41.5173 9.23747C41.2753 8.75982 40.935 8.33877 40.5188 8.00197C40.1025 7.66518 39.6197 7.42027 39.1021 7.28332H38.8872L38.1531 6.94313L36.9177 6.28066C36.1528 5.91258 35.4167 5.48764 34.7154 5.00943C34.1978 4.55596 33.5487 4.28007 32.8629 4.22214C32.1772 4.16421 31.491 4.32728 30.9047 4.68749C30.3183 5.0477 29.8627 5.58613 29.6044 6.22398C29.3461 6.86182 29.2988 7.56559 29.4694 8.23227C29.5975 9.22565 30.0132 10.1599 30.6653 10.9202C31.3174 11.6804 32.1775 12.2335 33.1398 12.5115C33.4399 12.5825 33.7523 12.584 34.053 12.5158C34.3538 12.4476 34.6349 12.3115 34.8751 12.1181C35.1152 11.9246 35.3079 11.6788 35.4385 11.3994C35.5691 11.12 35.6341 10.8145 35.6286 10.5062V10.5241Z" fill="#FFD200"/>
<path d="M87.5163 25.6356C87.5748 25.895 87.5748 26.1641 87.5163 26.4234C87.3909 26.9606 87.6953 27.3903 87.6953 27.8021C87.7097 28.0252 87.7933 28.2382 87.9345 28.4115C88.0758 28.5849 88.2675 28.7098 88.4831 28.7689C88.6893 28.8037 88.9013 28.7742 89.0902 28.6846C89.2792 28.5949 89.436 28.4493 89.5395 28.2676C89.8439 27.4977 90.1124 26.4771 89.4142 25.7968C88.9773 25.4025 88.4091 25.1855 87.8206 25.188C87.7681 25.1916 87.717 25.2067 87.6709 25.2323C87.6249 25.2579 87.585 25.2933 87.5543 25.336C87.5235 25.3788 87.5025 25.4278 87.4929 25.4796C87.4832 25.5314 87.4851 25.5847 87.4984 25.6356H87.5163Z" fill="#FFD200"/>
<path d="M85.9586 29.0554C89.9046 32.3903 94.8672 34.2844 100.032 34.4268C106.262 34.1045 112.261 30.3266 117.757 27.6947C124.221 24.5613 120.156 15.2688 114.015 15.1614C110.659 15.1635 107.362 16.0463 104.454 17.7218C102.019 19.0109 99.2438 21.5175 96.3433 21.3027L98.1337 32.8691C105.725 30.7563 113.944 29.2882 121.195 26.119C124.08 24.638 126.789 22.8361 129.27 20.7476C131.982 19.1053 134.601 17.312 137.112 15.3763C138.071 14.3693 138.67 13.0735 138.816 11.6907C138.961 10.3079 138.646 8.9157 137.918 7.73097C133.352 1.76872 130.022 1.3032 125.134 4.83041C115.694 11.4568 105.56 17.0343 94.9109 21.4638C89.8797 23.3617 89.0024 31.7948 95.1795 32.8691C98.5668 33.6336 102.108 33.3271 105.314 31.9918C108.214 30.7563 111.025 28.6257 114.391 28.6257L110.667 16.0924C107.086 17.7934 103.648 20.0136 100.032 21.4638C96.5155 22.7443 92.8148 23.4457 89.074 23.5408C86.1376 23.1648 83.1655 26.7994 85.9944 29.1628L85.9586 29.0554Z" fill="#FFD200"/>
<path d="M138.849 16.2C137.488 26.3698 141.803 36.4501 143.898 46.244C146.19 56.9868 147.264 67.7295 144.31 78.4723C142.179 86.2071 153.781 88.8749 156.252 81.4624C160.012 70.2004 159.69 58.3833 157.094 46.8885C154.677 36.1457 150.881 22.9679 143.11 14.9108C142.784 14.6044 142.383 14.3882 141.948 14.2835C141.513 14.1789 141.057 14.1895 140.627 14.3141C140.197 14.4388 139.807 14.6733 139.495 14.9945C139.184 15.3158 138.961 15.7127 138.849 16.1462V16.2Z" fill="#FFD200"/>
<path d="M13.3195 72.1701C11.0993 73.3876 10.6159 76.4135 11.0456 78.759C11.5469 81.4268 13.6418 83.6291 13.6418 86.4043C13.6418 89.9852 19.5145 89.7883 19.1743 86.261C18.8873 84.0272 18.0776 81.8925 16.8109 80.0302C16.184 79.0681 15.6618 78.0417 15.2532 76.9685C15.0142 75.6821 14.936 74.371 15.0204 73.0653C15.0143 72.8599 14.9531 72.6599 14.8432 72.4863C14.7333 72.3127 14.5787 72.1718 14.3956 72.0785C14.2126 71.9851 14.0078 71.9427 13.8027 71.9557C13.5976 71.9686 13.3998 72.0365 13.23 72.1522L13.3195 72.1701Z" fill="#FFD200"/>
<path d="M16.6496 89.1256C26.8016 91.0951 37.0251 90.0208 47.3203 89.7343C58.0631 89.43 68.9133 89.43 79.7098 89.4658C102.144 89.4658 124.471 90.3789 146.924 88.5526C155.214 87.8902 154.999 75.0525 146.602 75.5539C124.221 76.9146 101.84 76.1626 79.3875 76.3059C68.5769 76.2571 57.773 76.855 47.0338 78.0963C36.4701 79.4213 26.8016 82.6083 16.5959 85.097C16.1625 85.2214 15.7813 85.4835 15.51 85.8436C15.2386 86.2038 15.0919 86.6425 15.0919 87.0934C15.0919 87.5443 15.2386 87.983 15.51 88.3432C15.7813 88.7033 16.1625 88.9654 16.5959 89.0898L16.6496 89.1256Z" fill="#FFD200"/>
<path d="M23.0774 82.1786C15.9156 74.8735 24.0443 60.693 26.3898 52.6538C29.2008 43.0927 32.4058 33.6391 35.3421 24.0959C36.9715 18.7245 28.6995 16.7729 26.8911 21.9832C22.3396 34.6536 18.7426 47.6469 16.1304 60.8542C14.4832 69.52 12.5495 79.475 20.8215 85.2403C22.6119 86.4757 24.4024 83.7005 23.0237 82.2502L23.0774 82.1786Z" fill="#FFD200"/>
<path d="M29.5768 19.6733C29.7326 19.3287 29.8701 18.9761 29.9887 18.6169C30.186 17.8718 30.186 17.0882 29.9887 16.343L29.5231 15.3225C29.139 14.7025 28.6028 14.1909 27.9654 13.8364C27.4799 13.537 26.9242 13.3703 26.354 13.353C25.786 13.2421 25.1987 13.2854 24.6531 13.4783C24.1352 13.6289 23.666 13.913 23.2923 14.3019C22.8312 14.6037 22.46 15.0243 22.218 15.5194C21.8457 16.186 21.6602 16.9406 21.6809 17.7038C21.7046 18.4752 21.9266 19.2275 22.3255 19.8882C22.5389 20.2004 22.7784 20.4939 23.0417 20.7655C23.5734 21.2705 24.2275 21.6284 24.9395 21.804C25.4903 21.9557 26.0718 21.9557 26.6226 21.804C27.1866 21.7703 27.731 21.5847 28.1982 21.2668C28.8092 20.8774 29.3137 20.3421 29.6664 19.7091L29.5768 19.6733Z" fill="#FFD200"/>
<path d="M19.21 42.699L19.1205 42.8243L18.9415 43.2719C18.9063 43.4432 18.9063 43.6199 18.9415 43.7912C18.9458 44.1281 19.045 44.4571 19.2279 44.7401C19.4111 45.0005 19.6147 45.246 19.8367 45.4742L20.1948 45.7428C20.3928 45.8519 20.6135 45.9132 20.8394 45.9218C21.2254 45.9813 21.6199 45.8986 21.9494 45.6891C22.1952 45.5266 22.4029 45.3128 22.5582 45.0624C22.7734 44.6482 22.8184 44.1664 22.6835 43.7196V43.3973C22.5988 43.0034 22.392 42.6463 22.0927 42.3767L21.7167 42.1081C21.4333 41.9473 21.1114 41.8668 20.7856 41.8754H20.5171C20.3104 41.8804 20.1102 41.9492 19.9441 42.0723C19.7034 42.2083 19.5098 42.4144 19.3891 42.6632L19.21 42.699Z" fill="#FFD200"/>
<path d="M132.385 16.8627C130.147 21.0166 131.365 26.4775 131.812 31.0253C132.332 36.1818 133.119 41.3562 133.907 46.477C135.572 57.542 136.647 68.7146 137.488 79.8871C138.007 86.852 148.679 86.6908 148.428 79.6185C147.943 67.6812 146.747 55.7833 144.847 43.9882C144.015 38.3323 142.709 32.7563 140.944 27.319C139.673 23.2546 138.598 18.7427 134.928 16.0928C134.492 15.8601 133.982 15.8065 133.508 15.9436C133.033 16.0807 132.63 16.3976 132.385 16.8269V16.8627Z" fill="#FFD200"/>
<path d="M137.542 76.1629C139.476 66.8561 139.779 57.284 138.437 47.8736C137.237 39.2256 136.02 28.2859 131.042 21.0166C128.321 17.0239 120.98 18.4741 121.446 23.8813C122.144 32.1891 125.832 40.3536 127.247 48.6435C128.751 57.4526 129.521 66.5481 130.29 75.5004C130.631 79.4574 136.682 80.5854 137.452 76.3062L137.542 76.1629Z" fill="#FFD200"/>
<path d="M114.105 28.2674C117.105 36.2081 118.798 44.5827 119.118 53.0654C119.369 57.5057 119.637 62.0177 119.727 66.4044C119.816 70.791 118.814 74.7658 122.538 77.6485C123.095 78.1377 123.791 78.4419 124.528 78.5188C125.266 78.5958 126.009 78.4418 126.656 78.0782C130.989 75.106 130.237 71.0058 130.237 66.1537C130.169 60.5746 129.732 55.006 128.93 49.4845C127.676 41.1588 125.635 31.1501 118.903 25.3311C116.862 23.5406 112.995 25.3311 114.105 28.2674Z" fill="#FFD200"/>
<path d="M118.187 78.759C125.349 73.7994 121.213 61.3915 120.568 54.3192C119.709 45.0087 119.566 35.0717 114.284 26.9429C110.255 20.7479 101.357 26.4595 104.633 32.9052C108.214 39.9059 109.539 47.2289 111.079 54.8921C111.867 58.8311 112.869 62.6806 113.979 66.548C115.089 70.4154 114.928 74.3366 116.146 77.9712C116.208 78.172 116.316 78.3561 116.459 78.5096C116.603 78.6632 116.78 78.7823 116.976 78.8581C117.172 78.9338 117.383 78.9642 117.593 78.9471C117.802 78.9299 118.006 78.8656 118.187 78.759Z" fill="#FFD200"/>
<path d="M127.318 75.8405C127.784 76.6462 128.285 77.434 128.715 78.2576C128.841 78.5778 128.942 78.907 129.019 79.2423C129.235 79.9349 129.638 80.5545 130.183 81.0328C130.636 81.4687 131.233 81.7239 131.861 81.7505C132.489 81.7771 133.106 81.5732 133.594 81.1772C134.082 80.7812 134.409 80.2204 134.513 79.6003C134.617 78.9802 134.491 78.3435 134.158 77.81C133.717 77.1436 133.096 76.6159 132.367 76.2881C131.967 76.1594 131.582 75.9852 131.221 75.7688L128.93 74.0858C127.855 73.3159 126.71 74.8557 127.265 75.8763L127.318 75.8405Z" fill="#FFD200"/>
<path d="M96.8804 32.5827C97.6682 40.4608 102.628 47.8733 104.758 55.5186C105.855 59.5039 106.598 63.578 106.979 67.6937C107.408 72.1699 107.193 75.339 110.166 78.9021C111.058 79.7427 112.246 80.1988 113.472 80.172C114.697 80.1452 115.864 79.6376 116.719 78.7588C122.287 72.2236 118.241 59.565 115.788 52.2062C113.209 44.4535 108.626 33.7465 100.784 30.2372C99.1185 29.5031 96.6655 30.47 96.8804 32.6006V32.5827Z" fill="#FFD200"/>
<path d="M87.0687 32.2963C90.381 39.2433 95.0541 45.4204 98.2591 52.4927C101.693 59.4701 104.105 66.905 105.421 74.5691C106.853 85.1329 122.538 81.1939 118.957 72.4027C112.619 56.7719 105.224 38.3838 90.757 28.411C88.2146 26.6205 86.0123 30.094 87.0687 32.2963Z" fill="#FFD200"/>
<path d="M84.938 29.9152L84.3114 30.4702C83.8409 30.9754 83.5095 31.594 83.3494 32.2656C83.1894 32.9371 83.2062 33.6387 83.3982 34.3018C85.1887 42.6454 87.6416 50.8636 90.1483 59.0102C92.4222 66.369 94.0157 76.5568 99.4945 82.1609L108.196 70.2901L106.674 69.5202C105.679 68.9984 104.565 68.7429 103.442 68.7785C102.319 68.8141 101.223 69.1396 100.263 69.7234C99.3026 70.3072 98.5094 71.1295 97.9607 72.1104C97.4119 73.0913 97.1261 74.1974 97.1311 75.3214V76.9686C97.5071 86.5655 112.905 86.0283 111.956 76.5926C111.24 68.7503 105.152 60.8544 101.768 53.6925C98.1875 46.0831 94.7498 38.3303 90.4885 31.0431C90.1252 30.4713 89.6181 30.005 89.0179 29.6907C88.4178 29.3765 87.7456 29.2255 87.0687 29.2527C86.2998 29.1922 85.5371 29.4293 84.938 29.9152Z" fill="#FFD200"/>
<path d="M29.7558 37.1126C38.9409 45.6531 48.4662 53.7281 58.4033 61.4809C67.9644 69.0008 77.7582 77.595 88.304 83.6468C97.0773 88.6959 103.613 75.7509 95.7345 70.2004C85.869 63.2534 74.786 57.6672 64.652 51.0783C54.518 44.4893 44.5093 37.4707 34.6259 30.4163C30.7406 27.659 26.3719 33.9077 29.7558 37.0589V37.1126Z" fill="#FFD200"/>
<path d="M30.293 26.9786C32.0835 31.9561 38.6008 34.9462 42.5219 38.2944C47.4098 42.4841 51.9755 46.996 56.5949 51.4901C65.73 60.5534 75.9049 68.5045 86.9075 75.178C96.2 80.7105 104.454 65.778 95.0183 60.4961C93.0488 59.3861 91.0435 58.455 88.9844 57.5061C83.3445 54.9099 74.8935 61.3018 79.6561 67.2999C81.4466 69.5559 83.237 71.794 85.1887 73.9067L92.9951 59.6904C81.4824 55.4828 71.8318 46.244 62.1275 38.9927C57.3734 35.2846 52.4311 31.8244 47.3203 28.6259C43.0948 26.1013 37.3116 21.8042 32.2446 23.2545C31.524 23.4899 30.9205 23.9917 30.5578 24.6574C30.195 25.3231 30.1003 26.1022 30.293 26.8354V26.9786Z" fill="#FFD200"/>
<path d="M46.1207 32.2068C58.654 42.4662 72.3869 51.0246 85.135 60.9796C86.7139 62.4825 88.8252 63.2967 91.0044 63.2429C93.1836 63.1892 95.2522 62.272 96.7551 60.6931C98.258 59.1142 99.0722 57.0029 99.0185 54.8237C98.9647 52.6445 98.0475 50.5759 96.4686 49.073C92.2252 44.2924 88.0355 40.2102 86.7285 33.6929L73.4253 41.929C74.5891 42.878 76.6482 47.569 76.1289 43.9881C76.2194 45.3632 76.7298 46.6775 77.5911 47.7534C78.4525 48.8292 79.6232 49.6148 80.9453 50.004L81.6257 50.201C85.2066 51.2752 90.0588 48.6433 90.578 44.8296C91.4374 38.8315 89.0382 34.0868 84.4904 30.291C78.0089 24.7406 69.8623 30.6849 71.241 38.4376C72.7987 47.3899 78.743 54.8741 85.0455 61.0691L94.6782 47.9271C79.6382 41.5172 65.422 33.0304 50.6506 25.9939C46.8369 24.2034 42.3787 29.3062 46.0312 32.2963L46.1207 32.2068Z" fill="#FFD200"/>
<path d="M25.4051 38.599C36.8113 55.8477 50.5627 71.425 66.2635 84.8825L71.8497 70.4155C55.9146 71.3108 38.941 74.7663 23.0238 72.206L29.2725 79.9945C29.4212 75.5864 29.8397 71.1915 30.5258 66.8346C30.8839 64.6502 31.2957 62.4838 31.7791 60.3352L32.2805 58.1866C33.3726 55.4114 32.925 55.304 30.9197 57.9002L24.7963 57.2735C27.1239 58.3299 29.2188 61.3737 31.1525 63.0209C33.6591 65.1695 36.309 67.1927 38.9768 69.1264C44.3382 72.9639 50.109 76.1946 56.1832 78.7591L59.9969 63.1462C50.9192 63.379 42.0922 63.7371 33.1399 62.2868C22.1285 60.4963 17.8672 77.4879 28.9323 79.2067C40.0818 81.2463 51.5 81.3432 62.6826 79.4932C71.6349 77.7027 69.0387 65.9215 62.2887 63.379C55.5337 60.9101 49.2308 57.3473 43.632 52.8332C38.7082 48.7688 34.6797 41.8218 27.5178 42.4306C20.1053 43.0751 17.7598 50.2549 16.2737 56.4499C14.411 64.3639 13.2664 72.4298 12.8539 80.5496C12.9017 82.3521 13.5385 84.0894 14.667 85.4959C15.7954 86.9024 17.3533 87.9006 19.1026 88.3381C36.4881 91.1849 54.9119 88.7499 72.3153 87.2817C81.1422 86.5297 82.8253 76.342 76.1827 71.5256C60.3729 60.0845 46.2461 46.7098 32.549 32.8874C28.8428 29.1453 22.5582 34.2302 25.3872 38.6706L25.4051 38.599Z" fill="#FFD200"/>
<path d="M14.9308 90.4863C14.1251 88.4631 13.3731 86.404 12.7464 84.3092C11.9217 81.5934 11.2581 78.8313 10.759 76.0373C10.5442 74.8197 10.383 73.6738 10.204 72.1519C10.0249 70.6301 9.93541 69.3767 9.84588 67.9802C9.65497 65.1913 9.60716 62.3945 9.70265 59.6008C9.70265 58.1684 9.79217 56.736 9.97122 55.3037L10.0786 54.2473C10.0523 54.0932 10.0523 53.9358 10.0786 53.7818C10.0786 54.1757 10.0786 53.7818 10.0786 53.7818C10.0786 53.0119 10.2577 52.242 10.383 51.4721C11.2068 45.8625 12.5925 40.35 14.519 35.0177C15.4142 32.4752 16.4169 30.1476 17.6523 27.4798C18.83 24.9394 20.1449 22.4649 21.5913 20.0673C23.0774 17.5965 24.7246 15.251 26.3719 12.9055C28.0191 10.5599 29.7559 8.60834 31.4747 6.49559C32.3699 5.42131 33.2652 4.34703 34.1962 3.29065C34.7692 2.64609 33.9814 1.50019 33.2115 2.07314C28.4504 5.33099 24.2788 9.37553 20.8751 14.0334C17.3618 18.7051 14.3942 23.7632 12.0303 29.1092C7.32739 39.8319 4.9184 51.4194 4.95791 63.128C5.11114 72.4706 6.93011 81.711 10.3293 90.4147L14.9308 90.4863Z" fill="#16293A"/>
<path d="M156.933 33.263C154.854 27.7715 152.17 22.5289 148.929 17.6323C145.79 12.7176 141.906 8.32036 137.417 4.59768C136.324 3.72035 135.196 2.80721 134.033 2.10893C133.245 1.57179 132.564 2.71769 133.102 3.36226C136.825 7.5645 140.281 11.9956 143.45 16.6296C145.046 18.9822 146.51 21.4209 147.837 23.9347C149.18 26.4951 150.272 28.8585 151.311 31.3293C153.45 36.5281 155.069 41.9258 156.145 47.4435C156.27 48.0881 156.378 48.7326 156.503 49.3951C156.503 49.5921 156.503 49.7711 156.503 49.9681C156.503 49.8606 156.503 49.6637 156.503 50.1113C156.503 50.5589 156.628 50.8812 156.682 51.2751C156.879 52.6538 157.04 54.0503 157.147 55.4469C157.447 58.2717 157.591 61.1109 157.577 63.9516C157.577 65.384 157.577 66.8342 157.398 68.2666C157.398 68.9112 157.398 69.5737 157.255 70.2361L157.147 71.382C157.147 71.382 157.147 71.8475 157.147 71.382C157.166 71.6084 157.166 71.836 157.147 72.0624C156.453 78.0384 154.991 83.8998 152.797 89.5015C153.226 89.5015 156.199 89.5015 157.416 89.3941C160.062 82.3917 161.661 75.0373 162.161 67.5683C162.869 55.892 161.087 44.1985 156.933 33.263Z" fill="#16293A"/>
<path d="M29.4157 3.25488C28.8069 3.25488 28.1982 3.25488 27.6252 3.25488C27.0523 3.25488 26.909 3.25488 26.5509 3.25488L25.4767 3.38022H24.9216L24.4024 3.55926L23.2923 3.64878L20.9289 3.97107L11.3857 5.18859C8.41353 5.56458 4.95793 6.24496 1.82462 6.87162C1.2391 7.00499 0.72704 7.35785 0.393936 7.8575C0.0608312 8.35716 -0.0679401 8.96555 0.0341534 9.55732C0.0798124 9.88451 0.19356 10.1985 0.368057 10.479C0.542554 10.7595 0.773923 11.0004 1.04724 11.1859C1.32055 11.3715 1.62973 11.4977 1.95484 11.5565C2.27994 11.6152 2.61374 11.6051 2.93471 11.5268C5.56669 10.936 8.14496 10.4705 10.8665 10.0228C14.34 9.41408 17.7598 8.66209 21.2154 7.91009C22.7373 7.5699 24.3129 7.30133 25.7989 6.83581C26.5945 6.6721 27.3692 6.41986 28.1086 6.08382C28.5563 5.79734 29.3262 5.42135 29.8991 5.08116C30.0698 4.96416 30.2002 4.79719 30.2722 4.60317C30.3443 4.40915 30.3546 4.19758 30.3016 3.9975C30.2486 3.79742 30.135 3.61863 29.9764 3.48567C29.8178 3.35271 29.6219 3.27209 29.4157 3.25488Z" fill="#16293A"/>
<path d="M86.2987 26.0297C100.622 18.8678 116.164 12.6549 129.449 3.63097C129.872 3.34363 130.167 2.90453 130.275 2.40486C130.382 1.9052 130.293 1.38339 130.025 0.947821C129.758 0.512254 129.333 0.196411 128.839 0.0659002C128.345 -0.0646103 127.82 0.000243722 127.372 0.246991C113.209 7.9818 99.4228 16.5581 85.3319 24.4541C84.2755 25.0449 85.3319 26.5489 86.2987 26.0297Z" fill="#16293A"/>
<path d="M85.7437 25.0451C78.5818 21.1598 71.0082 17.8833 63.5956 14.5172C54.0704 10.1843 44.5451 4.95611 34.6796 1.48261C32.5311 0.730611 31.3136 4.09668 33.2473 5.06354C49.5584 13.8905 68.1434 18.5457 84.8485 26.5491C85.0622 26.6678 85.3142 26.6968 85.5493 26.6296C85.7843 26.5625 85.9831 26.4047 86.1018 26.191C86.2205 25.9773 86.2495 25.7252 86.1823 25.4902C86.1152 25.2552 85.9574 25.0564 85.7437 24.9377V25.0451Z" fill="#16293A"/>
<path d="M84.9022 27.3549C89.7006 32.583 95.3048 36.9876 100.479 41.8039C100.762 42.0746 101.14 42.2219 101.531 42.2135C101.923 42.2052 102.294 42.0417 102.565 41.7592C102.836 41.4766 102.983 41.0981 102.975 40.7069C102.966 40.3158 102.803 39.9439 102.52 39.6733C97.6324 34.5167 91.5448 30.6314 86.2987 25.8867C86.0987 25.7378 85.851 25.6673 85.6025 25.6885C85.354 25.7098 85.1218 25.8213 84.9499 26.002C84.778 26.1827 84.6783 26.4201 84.6695 26.6694C84.6607 26.9186 84.7435 27.1625 84.9022 27.3549Z" fill="#16293A"/>
<path d="M102.198 41.8753C116.217 33.2274 130.72 25.3852 144.167 15.8062C146.834 13.8725 144.095 9.41421 141.463 11.4016C128.321 21.3566 114.105 29.8434 100.802 39.6014C99.4229 40.6041 100.802 42.7885 102.198 41.8753Z" fill="#16293A"/>
<path d="M84.1682 25.5462C78.7968 30.2909 72.745 34.1941 67.8391 39.3686C66.5321 40.7472 68.609 42.6809 69.9877 41.3918C75.1621 36.5754 80.7305 32.1888 85.5468 26.9606C86.442 25.9938 85.0455 24.7046 84.0786 25.5641L84.1682 25.5462Z" fill="#16293A"/>
<path d="M69.5579 39.1895C55.9862 29.2345 41.931 20.0136 27.858 10.7211C25.0827 8.93062 22.4866 13.4963 25.3513 15.251C39.675 24.0242 53.9988 32.6364 68.3225 41.4634C69.8265 42.3944 70.9545 40.1026 69.6116 39.1179L69.5579 39.1895Z" fill="#16293A"/>
<path d="M84.3292 25.9224C82.9864 38.5989 83.9532 51.6156 84.3292 64.3458C84.3292 64.6022 84.4311 64.8481 84.6124 65.0295C84.7937 65.2108 85.0397 65.3127 85.2961 65.3127C85.5525 65.3127 85.7984 65.2108 85.9797 65.0295C86.1611 64.8481 86.2629 64.6022 86.2629 64.3458C86.6568 51.6156 87.6237 38.5989 86.2629 25.9224C86.2629 25.666 86.1611 25.4201 85.9797 25.2388C85.7984 25.0574 85.5525 24.9556 85.2961 24.9556C85.0397 24.9556 84.7937 25.0574 84.6124 25.2388C84.4311 25.4201 84.3292 25.666 84.3292 25.9224Z" fill="#16293A"/>
<path d="M11.5111 90.236C38.6008 92.6889 66.1024 92.1697 93.2816 91.7579C103.917 91.5789 114.552 91.1671 125.188 90.7552C135.268 90.3613 145.76 90.612 155.751 89.0722C158.526 88.6425 158.634 84.4886 155.644 84.5602C107.641 85.7778 59.4597 90.7194 11.4394 87.1922C9.48784 87.049 9.64898 90.0749 11.4394 90.236H11.5111Z" fill="#16293A"/>
<path d="M94.5707 44.3282C94.2711 44.1464 93.9274 44.0503 93.577 44.0503C93.2266 44.0503 92.8829 44.1464 92.5833 44.3282C92.341 44.4661 92.1377 44.6632 91.9924 44.9011C91.8648 45.0282 91.7776 45.1901 91.7417 45.3666C91.6048 45.6185 91.5427 45.9042 91.5627 46.1902L91.6522 46.7453L91.885 47.2466C92.0166 47.4876 92.2077 47.691 92.44 47.8375C92.5798 47.9609 92.7448 48.0525 92.9234 48.106C93.1789 48.2316 93.4631 48.2872 93.7471 48.2672L94.3021 48.1777L94.8034 47.9449C95.0445 47.8133 95.2479 47.6222 95.3943 47.3899C95.5187 47.2534 95.6051 47.0867 95.645 46.9064C95.7721 46.6515 95.8278 46.3669 95.8061 46.0828L95.7166 45.5278L95.5017 45.0264C95.3045 44.7152 95.034 44.457 94.7139 44.2744L94.5707 44.3282Z" fill="#16293A"/>
<path d="M94.5708 53.2986C94.2712 53.1169 93.9275 53.0208 93.577 53.0208C93.2266 53.0208 92.8829 53.1169 92.5833 53.2986C92.3375 53.4317 92.1331 53.6299 91.9925 53.8716C91.8648 53.9986 91.7776 54.1606 91.7418 54.3371C91.6029 54.5882 91.5407 54.8746 91.5628 55.1607L91.6523 55.7157L91.8851 56.2171C92.0167 56.4581 92.2078 56.6615 92.4401 56.8079C92.5766 56.9323 92.7432 57.0187 92.9235 57.0586C93.179 57.1841 93.4632 57.2397 93.7471 57.2197L94.3022 57.1302L94.8035 56.9154C95.0493 56.7823 95.2538 56.584 95.3944 56.3424C95.522 56.2153 95.6092 56.0534 95.645 55.8769C95.7705 55.6214 95.8261 55.3372 95.8062 55.0533L95.7166 54.4982L95.5018 53.9969C95.3094 53.6817 95.0378 53.4224 94.714 53.2449L94.5708 53.2986Z" fill="#16293A"/>
<path d="M10.5978 29.6826C9.91036 23.9532 8.35263 18.3623 5.97845 13.1029C4.79674 10.7216 1.50229 12.6194 1.98571 14.9112C3.0779 20.2826 6.33654 25.475 8.98643 30.1481C9.39824 30.8643 10.7769 30.542 10.5978 29.6826Z" fill="#16293A"/>
</svg>