<svg width="140" height="56" viewBox="0 0 140 56" fill="none" xmlns="http://www.w3.org/2000/svg" xmlns:xlink="http://www.w3.org/1999/xlink">
	<path d="M30.5441 55.8922C45.5025 55.8922 58.4152 45.939 58.4152 30.9403C58.4152 15.9415 34.0555 2.99414 19.0971 2.99414C4.1387 2.99414 3.17085 12.1588 3.17085 27.1575C1.17998 41.9191 15.5857 55.8922 30.5441 55.8922Z" fill="url(#paint0_linear)"/>
	<path d="M109.493 55.8922C94.5346 55.8922 81.6219 45.939 81.6219 30.9403C81.6219 15.9415 105.982 2.99414 120.94 2.99414C135.898 2.99414 136.866 12.1588 136.866 27.1575C138.857 41.9191 124.451 55.8922 109.493 55.8922Z" fill="url(#paint1_linear)"/>
	<path d="M109.493 55.8922C94.5346 55.8922 81.6219 45.939 81.6219 30.9403C81.6219 15.9415 105.982 2.99414 120.94 2.99414C135.898 2.99414 136.866 12.1588 136.866 27.1575C138.857 41.9191 124.451 55.8922 109.493 55.8922Z" fill="url(#paint2_linear)"/>
	<path d="M30.5441 54.8941C45.5025 54.8941 58.4152 44.941 58.4152 29.9422C58.4152 14.9435 34.0555 1.99609 19.0971 1.99609C4.1387 1.99609 3.17085 11.1608 3.17085 26.1595C1.17998 40.9211 15.5857 54.8941 30.5441 54.8941Z" fill="url(#paint3_linear)"/>
	<path d="M30.5441 54.8941C45.5025 54.8941 58.4152 44.941 58.4152 29.9422C58.4152 14.9435 34.0555 1.99609 19.0971 1.99609C4.1387 1.99609 3.17085 11.1608 3.17085 26.1595C1.17998 40.9211 15.5857 54.8941 30.5441 54.8941Z" fill="url(#paint4_linear)"/>
	<path opacity="0.25" d="M33.7537 49.7241C38.6519 49.7241 42.6227 45.7427 42.6227 40.8313C42.6227 35.9199 38.6519 31.9385 33.7537 31.9385C28.8555 31.9385 24.8848 35.9199 24.8848 40.8313C24.8848 45.7427 28.8555 49.7241 33.7537 49.7241Z" fill="white"/>
	<path opacity="0.25" d="M112.389 49.7241C117.288 49.7241 121.258 45.7427 121.258 40.8313C121.258 35.9199 117.288 31.9385 112.389 31.9385C107.491 31.9385 103.521 35.9199 103.521 40.8313C103.521 45.7427 107.491 49.7241 112.389 49.7241Z" fill="white"/>
	<mask id="path-8-inside-1" fill="white">
	<path d="M82.6415 23.3552C84.3934 21.1295 86.3443 18.9736 88.2654 16.8877C90.8877 14.2019 93.8691 11.8943 97.1244 10.0309C103.119 6.14489 110.04 3.93611 117.172 3.63321C121.014 3.51344 124.856 3.80289 128.678 4.06239C131.197 4.24204 131.157 0.139945 128.589 0.0700798C121.621 -0.0696509 114.653 -0.159478 107.964 1.99637C104.195 3.25481 100.587 4.95322 97.214 7.05661C93.7998 9.15257 90.2463 11.4481 87.5288 14.4623C85.1854 16.871 83.137 19.5515 81.4271 22.4469C81.0389 23.1855 82.094 24.0439 82.6415 23.3352V23.3552Z"/>
	</mask>
	<path fill="#72CE52" d="M82.6415 23.3552H73.6415V49.3407L89.7135 28.9217L82.6415 23.3552ZM88.2654 16.8877L81.8258 10.6003L81.7341 10.6942L81.6452 10.7907L88.2654 16.8877ZM97.1244 10.0309L101.596 17.8417L101.811 17.7181L102.02 17.5828L97.1244 10.0309ZM117.172 3.63321L116.891 -5.36242L116.84 -5.36084L116.79 -5.35868L117.172 3.63321ZM128.678 4.06239L129.319 -4.9148L129.303 -4.9159L129.288 -4.91694L128.678 4.06239ZM128.589 0.0700798L128.833 -8.92659L128.801 -8.92747L128.769 -8.92811L128.589 0.0700798ZM107.964 1.99637L105.203 -6.56972L105.159 -6.55525L105.114 -6.54031L107.964 1.99637ZM97.214 7.05661L101.923 14.7266L101.949 14.7102L101.976 14.6936L97.214 7.05661ZM87.5288 14.4623L93.9796 20.7383L94.0989 20.6157L94.2134 20.4887L87.5288 14.4623ZM81.4271 22.4469L73.6776 17.8704L73.5642 18.0623L73.4605 18.2596L81.4271 22.4469ZM82.6415 23.3352H91.6415V-3.03542L75.5194 17.8329L82.6415 23.3352ZM89.7135 28.9217C91.2309 26.9939 92.974 25.0604 94.8857 22.9846L81.6452 10.7907C79.7147 12.8869 77.5558 15.2651 75.5694 17.7887L89.7135 28.9217ZM94.705 23.1751C96.7453 21.0854 99.0644 19.2906 101.596 17.8417L92.6532 2.22008C88.6739 4.49799 85.0301 7.31846 81.8258 10.6003L94.705 23.1751ZM102.02 17.5828C106.667 14.5706 112.029 12.8597 117.553 12.6251L116.79 -5.35868C108.05 -4.9875 99.5708 -2.28083 92.2286 2.47896L102.02 17.5828ZM117.452 12.6288C120.754 12.5259 124.103 12.7725 128.069 13.0417L129.288 -4.91694C125.609 -5.16673 121.274 -5.49903 116.891 -5.36242L117.452 12.6288ZM128.038 13.0396C131.375 13.2776 134.658 12.0104 136.908 9.39624C138.928 7.05037 139.576 4.2724 139.54 2.01595C139.47 -2.31887 136.302 -8.72342 128.833 -8.92659L128.344 9.06675C126.355 9.01266 124.422 8.06884 123.119 6.50192C121.968 5.11715 121.562 3.57643 121.542 2.30365C121.522 1.05901 121.868 -0.722757 123.267 -2.34784C124.897 -4.24116 127.241 -5.06301 129.319 -4.9148L128.038 13.0396ZM128.769 -8.92811C121.998 -9.06391 113.543 -9.25748 105.203 -6.56972L110.725 10.5625C115.764 8.93853 121.244 8.9246 128.408 9.06827L128.769 -8.92811ZM105.114 -6.54031C100.674 -5.05793 96.4245 -3.05746 92.4519 -0.580321L101.976 14.6936C104.75 12.9639 107.717 11.5676 110.815 10.533L105.114 -6.54031ZM92.5054 -0.613399C89.1271 1.46054 84.5307 4.34698 80.8443 8.43597L94.2134 20.4887C95.9618 18.5493 98.4725 16.8446 101.923 14.7266L92.5054 -0.613399ZM81.0781 8.18639C78.2354 11.1082 75.7511 14.3593 73.6776 17.8704L89.1766 27.0235C90.523 24.7438 92.1354 22.6338 93.9796 20.7383L81.0781 8.18639ZM73.4605 18.2596C70.6701 23.5687 73.4933 28.4873 76.1943 30.5661C77.6823 31.7112 79.8887 32.7108 82.5707 32.5902C85.5244 32.4573 88.0973 30.9944 89.7636 28.8375L75.5194 17.8329C76.9119 16.0304 79.1477 14.726 81.7617 14.6084C84.104 14.503 85.9683 15.3747 87.1725 16.3015C89.3062 17.9436 91.796 22.0638 89.3937 26.6343L73.4605 18.2596ZM73.6415 23.3352V23.3552H91.6415V23.3352H73.6415Z" mask="url(#path-8-inside-1)"/>
	<mask id="path-10-inside-2" fill="white">
	<path d="M81.4967 22.7871C79.5059 30.3525 79.7747 39.2554 84.0449 46.0822C88.5142 53.2284 98.06 54.9551 105.804 55.554C114.205 56.1927 123.184 55.9732 129.972 50.2941C136.99 44.4254 139.847 34.5644 139.379 25.6815C139.071 20.8422 138.082 16.0707 136.442 11.5089C135.154 7.99863 133.294 4.72706 130.938 1.82751C130.603 1.31793 130.086 0.956329 129.494 0.817092C128.901 0.677856 128.278 0.771568 127.753 1.07895C127.232 1.4043 126.862 1.92292 126.722 2.52141C126.582 3.11991 126.684 3.74959 127.006 4.2728C128.839 6.38672 130.382 8.73629 131.595 11.2593C133.09 14.7837 134.182 18.4669 134.85 22.2382C136.343 30.2228 135.059 39.2055 129.793 45.653C127.361 48.5488 124.125 50.6541 120.496 51.7014C116.813 52.8392 112.742 52.7993 108.92 52.6995C105.102 52.6511 101.3 52.2097 97.5723 51.382C93.9292 50.5137 90.1367 49.1264 87.489 46.3916C85.3413 43.903 83.8765 40.8967 83.2387 37.6684C82.2491 32.8277 82.0775 27.8546 82.731 22.9568C82.8007 22.2382 81.6759 22.1683 81.4967 22.827V22.7871Z"/>
	</mask>
	<path fill="#72CE52" d="M81.4967 22.7871H90.4967L72.793 20.4968L81.4967 22.7871ZM84.0449 46.0822L91.6755 41.31L91.6752 41.3094L84.0449 46.0822ZM105.804 55.554L105.11 64.5272L105.122 64.5281L105.804 55.554ZM129.972 50.2941L124.199 43.3902L124.197 43.3911L129.972 50.2941ZM139.379 25.6815L148.366 25.2082L148.364 25.1592L148.361 25.1102L139.379 25.6815ZM136.442 11.5089L144.912 8.46413L144.902 8.43628L144.891 8.40851L136.442 11.5089ZM130.938 1.82751L123.415 6.7685L123.666 7.14964L123.953 7.50352L130.938 1.82751ZM127.753 1.07895L123.21 -6.69027L123.094 -6.62256L122.98 -6.55143L127.753 1.07895ZM127.006 4.2728L119.34 8.98795L119.725 9.61333L120.206 10.1681L127.006 4.2728ZM131.595 11.2593L139.88 7.74335L139.797 7.5495L139.706 7.35971L131.595 11.2593ZM134.85 22.2382L125.987 23.8062L125.995 23.8494L126.003 23.8925L134.85 22.2382ZM129.793 45.653L136.685 51.4417L136.725 51.3941L136.764 51.3459L129.793 45.653ZM120.496 51.7014L118 43.0544L117.92 43.0776L117.84 43.1024L120.496 51.7014ZM108.92 52.6995L109.155 43.7025L109.094 43.701L109.034 43.7002L108.92 52.6995ZM97.5723 51.382L95.4856 60.1368L95.5534 60.1529L95.6215 60.168L97.5723 51.382ZM87.489 46.3916L80.6754 52.2717L80.8437 52.4668L81.023 52.6519L87.489 46.3916ZM83.2387 37.6684L92.0679 35.9239L92.0622 35.8949L92.0563 35.8659L83.2387 37.6684ZM82.731 22.9568L91.6519 24.1471L91.6734 23.9866L91.689 23.8254L82.731 22.9568ZM81.4967 22.827H72.4967L90.1812 25.1892L81.4967 22.827ZM72.793 20.4968C70.3971 29.6017 70.4195 41.2704 76.4147 50.855L91.6752 41.3094C89.1299 37.2403 88.6147 31.1033 90.2004 25.0774L72.793 20.4968ZM76.4143 50.8544C80.0735 56.7052 85.5812 59.9289 90.6651 61.7475C95.7026 63.5495 100.962 64.2064 105.11 64.5272L106.498 46.5808C102.902 46.3027 99.5167 45.7968 96.7278 44.7992C93.9854 43.8182 92.4857 42.6054 91.6755 41.31L76.4143 50.8544ZM105.122 64.5281C113.636 65.1755 125.969 65.3767 135.747 57.1971L124.197 43.3911C120.398 46.5696 114.774 47.21 106.487 46.5799L105.122 64.5281ZM135.746 57.198C145.597 48.9598 148.931 35.9302 148.366 25.2082L130.391 26.1549C130.762 33.1986 128.383 39.891 124.199 43.3902L135.746 57.198ZM148.361 25.1102C147.999 19.4266 146.838 13.8225 144.912 8.46413L127.973 14.5536C129.327 18.319 130.143 22.2577 130.397 26.2529L148.361 25.1102ZM144.891 8.40851C143.261 3.96542 140.906 -0.176611 137.922 -3.8485L123.953 7.50352C125.682 9.63074 127.047 12.0318 127.993 14.6092L144.891 8.40851ZM138.46 -3.11347C136.863 -5.5452 134.393 -7.27684 131.553 -7.94422L127.435 9.57841C125.78 9.1895 124.343 8.18106 123.415 6.7685L138.46 -3.11347ZM131.553 -7.94422C128.712 -8.61172 125.726 -8.1618 123.21 -6.69027L132.296 8.84818C130.83 9.70494 129.09 9.96744 127.435 9.57841L131.553 -7.94422ZM122.98 -6.55143C120.44 -4.96304 118.638 -2.43566 117.958 0.472927L135.486 4.56989C135.086 6.28149 134.024 7.77163 132.525 8.70934L122.98 -6.55143ZM117.958 0.472927C117.278 3.3811 117.774 6.4419 119.34 8.98795L134.672 -0.442342C135.594 1.05729 135.886 2.85871 135.486 4.56989L117.958 0.472927ZM120.206 10.1681C121.514 11.6776 122.617 13.3559 123.483 15.159L139.706 7.35971C138.147 4.11667 136.163 1.0959 133.806 -1.62249L120.206 10.1681ZM123.31 14.7753C124.54 17.674 125.438 20.7037 125.987 23.8062L143.712 20.6701C142.926 16.2301 141.641 11.8934 139.88 7.74335L123.31 14.7753ZM126.003 23.8925C127.155 30.0535 125.966 36.1113 122.822 39.9602L136.764 51.3459C144.152 42.2997 145.53 30.3921 143.696 20.5839L126.003 23.8925ZM122.902 39.8644C121.617 41.3942 119.91 42.5032 118 43.0544L122.992 60.3484C128.339 58.805 133.105 55.7034 136.685 51.4417L122.902 39.8644ZM117.84 43.1024C115.768 43.7424 113.128 43.8063 109.155 43.7025L108.685 61.6964C112.357 61.7923 117.858 61.936 123.153 60.3004L117.84 43.1024ZM109.034 43.7002C105.834 43.6597 102.647 43.2897 99.5231 42.596L95.6215 60.168C99.9523 61.1296 104.37 61.6426 108.806 61.6987L109.034 43.7002ZM99.659 42.6273C96.4702 41.8672 94.7679 40.971 93.9549 40.1313L81.023 52.6519C85.5055 57.2817 91.3882 59.1602 95.4856 60.1368L99.659 42.6273ZM94.3026 40.5116C93.1749 39.2048 92.4039 37.624 92.0679 35.9239L74.4094 39.413C75.3492 44.1694 77.5078 48.6011 80.6754 52.2717L94.3026 40.5116ZM92.0563 35.8659C91.2681 32.01 91.1314 28.0486 91.6519 24.1471L73.8101 21.7665C73.0236 27.6606 73.2301 33.6453 74.421 39.471L92.0563 35.8659ZM91.689 23.8254C91.9565 21.0662 91.0256 18.2215 88.9196 16.1398C87.0287 14.2708 84.7601 13.5593 82.966 13.4075C79.7557 13.1358 74.378 14.7083 72.8122 20.4649L90.1812 25.1892C88.7946 30.287 84.0689 31.5651 81.4484 31.3434C79.9492 31.2165 77.9599 30.616 76.2659 28.9416C74.3568 27.0546 73.5403 24.4881 73.773 22.0882L91.689 23.8254ZM90.4967 22.827V22.7871H72.4967V22.827H90.4967Z" mask="url(#path-10-inside-2)"/>
	<mask id="path-12-inside-3" fill="white">
	<path d="M57.9359 22.4377C56.4101 19.8488 54.5969 17.4414 52.5309 15.2616C49.9311 12.4476 46.9488 10.015 43.6719 8.03548C37.3568 3.7431 30.0861 1.07309 22.4999 0.260472C18.5743 -0.0156477 14.6364 -0.0722912 10.7045 0.0908009C8.14639 0.140705 8.25587 4.2428 10.8041 4.0831C17.2741 3.63397 23.8338 3.08503 30.2043 4.7119C33.9091 5.68249 37.4581 7.17446 40.7455 9.14335C44.2021 10.9674 47.3909 13.2613 50.2216 15.9602C52.4822 18.2863 54.625 20.7247 56.6419 23.2661C56.6941 23.3513 56.7627 23.4254 56.8435 23.484C56.9243 23.5426 57.0159 23.5848 57.1129 23.6079C57.21 23.6311 57.3106 23.6349 57.4091 23.619C57.5076 23.6032 57.6021 23.5681 57.687 23.5156C57.772 23.4632 57.8458 23.3945 57.9043 23.3135C57.9628 23.2324 58.0048 23.1406 58.0279 23.0433C58.051 22.946 58.0548 22.8451 58.039 22.7463C58.0232 22.6475 57.9882 22.5529 57.9359 22.4677V22.4377Z"/>
	</mask>
	<path fill="#72CE52" d="M57.9359 22.4377H66.9359V19.9829L65.6895 17.8681L57.9359 22.4377ZM52.5309 15.2616L45.9204 21.369L45.9592 21.411L45.9986 21.4526L52.5309 15.2616ZM43.6719 8.03548L38.6127 15.4789L38.812 15.6144L39.0184 15.739L43.6719 8.03548ZM22.4999 0.260472L23.4585 -8.68833L23.2952 -8.70582L23.1314 -8.71735L22.4999 0.260472ZM10.7045 0.0908009L10.8801 9.08909L10.9788 9.08716L11.0775 9.08307L10.7045 0.0908009ZM10.8041 4.0831L11.367 13.0655L11.3972 13.0636L11.4273 13.0615L10.8041 4.0831ZM30.2043 4.7119L32.4851 -3.99429L32.4582 -4.00135L32.4312 -4.00825L30.2043 4.7119ZM40.7455 9.14335L36.1211 16.8645L36.3299 16.9895L36.5452 17.1031L40.7455 9.14335ZM50.2216 15.9602L56.6757 9.68771L56.5562 9.56474L56.4321 9.44642L50.2216 15.9602ZM56.6419 23.2661L64.3124 18.5585L64.0288 18.0963L63.6917 17.6715L56.6419 23.2661ZM57.9359 22.4677H48.9359V25.0092L50.2653 27.1753L57.9359 22.4677ZM65.6895 17.8681C63.8192 14.6947 61.5964 11.7434 59.0632 9.07054L45.9986 21.4526C47.5973 23.1395 49.0009 25.0029 50.1823 27.0074L65.6895 17.8681ZM59.1414 9.15412C55.968 5.71923 52.327 2.74917 48.3255 0.331949L39.0184 15.739C41.5706 17.2808 43.8942 19.1759 45.9204 21.369L59.1414 9.15412ZM48.7311 0.592087C41.1945 -4.53052 32.5157 -7.71814 23.4585 -8.68833L21.5413 9.20928C27.6565 9.86432 33.519 12.0167 38.6127 15.4789L48.7311 0.592087ZM23.1314 -8.71735C18.8715 -9.01698 14.5983 -9.07845 10.3316 -8.90147L11.0775 9.08307C14.6746 8.93386 18.2771 8.98568 21.8684 9.23829L23.1314 -8.71735ZM10.529 -8.90749C7.22914 -8.84311 4.2316 -7.34818 2.24049 -4.84632C0.419782 -2.55857 -0.216646 0.110271 -0.157576 2.39787C-0.0986662 4.67926 0.67462 7.35754 2.68269 9.57496C4.89245 12.0151 8.06109 13.2727 11.367 13.0655L10.2412 -4.89928C12.273 -5.02661 14.4723 -4.22191 16.0248 -2.50757C17.3756 -1.01594 17.8036 0.663636 17.8364 1.93323C17.8694 3.20903 17.526 4.85298 16.3246 6.36253C14.9528 8.08621 12.9009 9.04967 10.8801 9.08909L10.529 -8.90749ZM11.4273 13.0615C18.2833 12.5856 23.2853 12.2338 27.9774 13.432L32.4312 -4.00825C24.3822 -6.06374 16.2649 -5.31763 10.1808 -4.89529L11.4273 13.0615ZM27.9234 13.4181C30.8039 14.1727 33.564 15.3329 36.1211 16.8645L45.3698 1.42224C41.3522 -0.983994 37.0142 -2.80775 32.4851 -3.99429L27.9234 13.4181ZM36.5452 17.1031C39.2678 18.5398 41.7802 20.347 44.0111 22.474L56.4321 9.44642C53.0016 6.17563 49.1364 3.39495 44.9457 1.18359L36.5452 17.1031ZM43.7675 22.2327C45.8182 24.3429 47.7622 26.555 49.592 28.8608L63.6917 17.6715C61.4878 14.8943 59.1462 12.2297 56.6757 9.68771L43.7675 22.2327ZM48.9713 27.9738C49.6413 29.0655 50.52 30.0153 51.5578 30.7683L62.1292 16.1997C63.0054 16.8354 63.747 17.6371 64.3124 18.5585L48.9713 27.9738ZM51.5578 30.7683C52.5961 31.5217 53.7735 32.0636 55.023 32.3619L59.2028 14.8539C60.2582 15.1059 61.2526 15.5636 62.1292 16.1997L51.5578 30.7683ZM55.023 32.3619C56.2722 32.6601 57.5685 32.7089 58.8375 32.505L55.9808 14.7331C57.0527 14.5608 58.1477 14.602 59.2028 14.8539L55.023 32.3619ZM58.8375 32.505C60.1059 32.3011 61.3209 31.8488 62.4131 31.1749L52.9609 15.8564C53.8832 15.2873 54.9094 14.9053 55.9808 14.7331L58.8375 32.505ZM62.4131 31.1749C63.5056 30.5008 64.4529 29.6187 65.2021 28.5805L50.6065 18.0464C51.2388 17.1704 52.0383 16.4257 52.9609 15.8564L62.4131 31.1749ZM65.2021 28.5805C65.9514 27.5424 66.4889 26.3674 66.7844 25.1226L49.2714 20.964C49.5208 19.9139 49.9742 18.9225 50.6065 18.0464L65.2021 28.5805ZM66.7844 25.1226C67.08 23.8778 67.1279 22.5876 66.9261 21.3255L49.1519 24.1672C48.9816 23.1026 49.022 22.0143 49.2714 20.964L66.7844 25.1226ZM66.9261 21.3255C66.7243 20.063 66.2763 18.8514 65.6065 17.76L50.2653 27.1753C49.7 26.2543 49.3221 25.232 49.1519 24.1672L66.9261 21.3255ZM66.9359 22.4677V22.4377H48.9359V22.4677H66.9359Z" mask="url(#path-12-inside-3)"/>
	<mask id="path-14-inside-4" fill="white">
	<path d="M56.6617 22.9466C57.3884 30.1826 57.3486 38.297 53.2674 44.6148C49.1863 50.9326 39.9889 52.1503 33.1207 52.5994C25.6752 53.0485 17.4433 52.9886 11.5407 47.7288C5.36923 42.2194 3.33863 33.1269 4.12499 25.1623C4.61175 20.8478 5.66261 16.6162 7.25052 12.5766C8.42964 9.70455 10.0632 7.04208 12.0881 4.6918C12.4969 4.23844 12.7166 3.64504 12.7017 3.03403C12.6869 2.42302 12.4388 1.84103 12.0085 1.40813C11.5609 0.98887 10.9671 0.762375 10.3548 0.777305C9.74246 0.792235 9.16041 1.0474 8.73366 1.48798C6.6408 4.01471 4.91187 6.82339 3.59744 9.83188C2.01331 13.8012 0.923413 17.9512 0.352453 22.188C-0.871879 31.4502 1.00941 41.2513 7.32019 48.3675C10.1746 51.4357 13.8192 53.6532 17.8514 54.7752C21.833 55.9629 26.3023 55.913 30.4232 55.7733C38.3864 55.4938 48.3403 54.4159 53.9244 47.9983C56.1409 45.225 57.6448 41.9486 58.3041 38.4567C59.4197 33.2795 59.2591 27.9077 57.8363 22.8069C57.6571 22.1381 56.5423 22.2879 56.6219 22.9965L56.6617 22.9466Z"/>
	</mask>
	<path fill="#72CE52" d="M56.6617 22.9466L65.6167 22.0473L63.4089 0.0617636L49.627 17.333L56.6617 22.9466ZM33.1207 52.5994L33.6627 61.5831L33.6853 61.5817L33.708 61.5802L33.1207 52.5994ZM11.5407 47.7288L5.54701 54.4427L5.55309 54.4481L11.5407 47.7288ZM4.12499 25.1623L-4.81827 24.1534L-4.8253 24.2156L-4.83146 24.278L4.12499 25.1623ZM7.25052 12.5766L-1.07514 9.15849L-1.10084 9.22109L-1.12559 9.28407L7.25052 12.5766ZM12.0881 4.6918L5.40412 -1.33515L5.3361 -1.25971L5.2698 -1.18276L12.0881 4.6918ZM12.0085 1.40813L18.3917 -4.93651L18.2784 -5.0505L18.1611 -5.16036L12.0085 1.40813ZM8.73366 1.48798L2.26903 -4.7737L2.02564 -4.52242L1.80249 -4.253L8.73366 1.48798ZM3.59744 9.83188L-4.64977 6.2286L-4.70776 6.36135L-4.76146 6.49589L3.59744 9.83188ZM0.352453 22.188L-8.56692 20.9861L-8.56844 20.9973L-8.56993 21.0086L0.352453 22.188ZM7.32019 48.3675L0.586559 54.339L0.657771 54.4193L0.730878 54.4979L7.32019 48.3675ZM17.8514 54.7752L20.4241 46.1507L20.3443 46.1269L20.264 46.1046L17.8514 54.7752ZM30.4232 55.7733L30.7282 64.7681L30.7389 64.7677L30.4232 55.7733ZM53.9244 47.9983L60.714 53.906L60.8374 53.7642L60.9549 53.6172L53.9244 47.9983ZM58.3041 38.4567L49.5061 36.5609L49.4818 36.6736L49.4604 36.7869L58.3041 38.4567ZM57.8363 22.8069L49.1429 25.1361L49.1548 25.1806L49.1672 25.225L57.8363 22.8069ZM56.6219 22.9965L47.6782 24.0015L50.1045 45.5933L63.6567 28.61L56.6219 22.9965ZM47.7068 23.8458C48.411 30.8588 47.9888 36.1998 45.7076 39.7313L60.8273 49.4982C66.7083 40.3942 66.3657 29.5065 65.6167 22.0473L47.7068 23.8458ZM45.7076 39.7313C45.2517 40.437 44.1623 41.3998 41.5462 42.2202C38.9439 43.0363 35.8106 43.4043 32.5335 43.6186L33.708 61.5802C37.2991 61.3454 42.1986 60.88 46.9323 59.3955C51.6522 57.9153 57.2021 55.1104 60.8273 49.4982L45.7076 39.7313ZM32.5788 43.6157C24.8816 44.08 20.3378 43.5131 17.5282 41.0095L5.55309 54.4481C14.5488 62.4642 26.4688 62.017 33.6627 61.5831L32.5788 43.6157ZM17.5343 41.0149C14.2619 38.0936 12.4607 32.3339 13.0814 26.0466L-4.83146 24.278C-5.78342 33.92 -3.52344 46.3453 5.54701 54.4427L17.5343 41.0149ZM13.0683 26.1713C13.4667 22.6392 14.327 19.1754 15.6266 15.8691L-1.12559 9.28407C-3.00177 14.057 -4.24324 19.0563 -4.81827 24.1534L13.0683 26.1713ZM15.5762 15.9947C16.3884 14.0164 17.5131 12.1835 18.9064 10.5664L5.2698 -1.18276C2.61321 1.90062 0.470918 5.39267 -1.07514 9.15849L15.5762 15.9947ZM18.7721 10.7187C20.7244 8.55367 21.7696 5.72457 21.6991 2.81584L3.70438 3.25222C3.66348 1.5655 4.26947 -0.0767996 5.40412 -1.33515L18.7721 10.7187ZM21.6991 2.81584C21.6285 -0.0929804 20.4473 -2.86844 18.3917 -4.93651L5.62527 7.75277C4.43027 6.55051 3.74529 4.93903 3.70438 3.25222L21.6991 2.81584ZM18.1611 -5.16036C15.9928 -7.19145 13.1114 -8.29258 10.1354 -8.22002L10.5742 9.77463C8.82284 9.81733 7.12903 9.16919 5.85586 7.97662L18.1611 -5.16036ZM10.1354 -8.22002C7.15939 -8.14746 4.33559 -6.90724 2.26903 -4.7737L15.1983 7.74965C13.9852 9.00204 12.3255 9.73193 10.5742 9.77463L10.1354 -8.22002ZM1.80249 -4.253C-0.827114 -1.07825 -2.9989 2.45008 -4.64977 6.2286L11.8446 13.4352C12.8226 11.1967 14.1087 9.10767 15.6648 7.22896L1.80249 -4.253ZM-4.76146 6.49589C-6.61931 11.1511 -7.8974 16.0178 -8.56692 20.9861L9.27183 23.39C9.74422 19.8846 10.6459 16.4513 11.9563 13.1679L-4.76146 6.49589ZM-8.56993 21.0086C-10.0339 32.0839 -7.91537 44.7519 0.586559 54.339L14.0538 42.3961C9.93419 37.7507 8.29019 30.8164 9.27484 23.3675L-8.56993 21.0086ZM0.730878 54.4979C4.71503 58.7803 9.80454 61.878 15.4388 63.4458L20.264 46.1046C17.8339 45.4284 15.6342 44.0911 13.9095 42.2372L0.730878 54.4979ZM15.2787 63.3996C20.8493 65.0613 26.7086 64.9044 30.7282 64.7681L30.1182 46.7784C25.896 46.9216 22.8167 46.8645 20.4241 46.1507L15.2787 63.3996ZM30.7389 64.7677C34.9046 64.6215 40.193 64.2576 45.3683 62.8881C50.5471 61.5177 56.3186 58.9575 60.714 53.906L47.1348 42.0905C45.9461 43.4567 43.9485 44.6442 40.7636 45.487C37.5751 46.3308 33.905 46.6455 30.1076 46.7788L30.7389 64.7677ZM60.9549 53.6172C64.0902 49.6942 66.216 45.0617 67.1479 40.1265L49.4604 36.7869C49.0736 38.8355 48.1916 40.7557 46.894 42.3793L60.9549 53.6172ZM67.1022 40.3525C68.5253 33.7483 68.3204 26.8959 66.5054 20.3887L49.1672 25.225C50.1978 28.9195 50.3141 32.8108 49.5061 36.5609L67.1022 40.3525ZM66.5297 20.4776C64.9054 14.4155 59.1463 12.9967 55.8345 13.4792C54.0227 13.7432 51.888 14.5914 50.1658 16.4411C48.2693 18.4782 47.367 21.2318 47.6782 24.0015L65.5656 21.9915C65.837 24.4068 65.0442 26.8761 63.34 28.7066C61.81 30.3499 59.9503 31.0696 58.4296 31.2911C55.7001 31.6888 50.588 30.5295 49.1429 25.1361L66.5297 20.4776ZM63.6567 28.61L63.6965 28.5601L49.627 17.333L49.5871 17.3829L63.6567 28.61Z" mask="url(#path-14-inside-4)"/>
	<mask id="path-16-inside-5" fill="white">
	<path d="M58.543 30.6519C60.1004 29.4931 61.7674 28.4903 63.52 27.6577C65.2218 26.9684 67.0309 26.5833 68.8652 26.5199C72.9097 26.4664 76.8603 27.7424 80.1131 30.1529C81.7555 31.3306 83.2884 28.546 81.6361 27.3882C77.8124 24.6237 73.138 23.3017 68.4372 23.6554C64.3959 24.0446 59.4787 25.8212 57.1594 29.3744C56.612 30.2028 57.7268 31.1809 58.5132 30.6719L58.543 30.6519Z"/>
	</mask>
	<path fill="#72CE52" d="M58.543 30.6519L63.5455 38.1335L63.7337 38.0077L63.9154 37.8725L58.543 30.6519ZM63.52 27.6577L60.1413 19.316L59.8965 19.4151L59.658 19.5284L63.52 27.6577ZM68.8652 26.5199L68.7462 17.5207L68.6502 17.5219L68.5543 17.5252L68.8652 26.5199ZM80.1131 30.1529L74.7548 37.3839L74.8113 37.4258L74.8685 37.4668L80.1131 30.1529ZM81.6361 27.3882L76.3629 34.6816L76.417 34.7207L76.4716 34.7589L81.6361 27.3882ZM68.4372 23.6554L67.7619 14.6808L67.6681 14.6878L67.5743 14.6969L68.4372 23.6554ZM57.1594 29.3744L64.6679 34.3365L64.682 34.3151L64.696 34.2937L57.1594 29.3744ZM58.5132 30.6719L63.4038 38.2271L63.46 38.1907L63.5157 38.1535L58.5132 30.6719ZM63.9154 37.8725C65.0005 37.0652 66.1616 36.3667 67.382 35.787L59.658 19.5284C57.3732 20.6138 55.2004 21.9211 53.1707 23.4312L63.9154 37.8725ZM66.8987 35.9994C67.6244 35.7054 68.3952 35.5415 69.1762 35.5145L68.5543 17.5252C65.6666 17.6251 62.8192 18.2313 60.1413 19.316L66.8987 35.9994ZM68.9842 35.5191C71.0565 35.4917 73.0833 36.1453 74.7548 37.3839L85.4715 22.9218C80.6373 19.3395 74.7628 17.4411 68.7462 17.5207L68.9842 35.5191ZM74.8685 37.4668C77.3864 39.2723 80.7439 40.0184 84.0616 38.9387C87.0317 37.9721 88.9509 35.8817 89.9939 33.9877C91.9938 30.3558 92.3267 23.8895 86.8006 20.0175L76.4716 34.7589C72.5978 32.0447 72.9905 27.5495 74.2264 25.305C74.8874 24.1046 76.2188 22.5619 78.4912 21.8224C81.1111 20.9697 83.6611 21.6223 85.3578 22.8389L74.8685 37.4668ZM86.9093 20.0948C81.3652 16.0864 74.584 14.1674 67.7619 14.6808L69.1125 32.63C71.6921 32.4359 74.2597 33.1609 76.3629 34.6816L86.9093 20.0948ZM67.5743 14.6969C62.4447 15.1909 54.1492 17.5206 49.6229 24.455L64.696 34.2937C64.656 34.355 64.9044 33.972 65.9328 33.496C66.923 33.0377 68.1573 32.724 69.3001 32.6139L67.5743 14.6969ZM49.651 24.4122C46.3192 29.4538 48.5911 34.7038 51.236 37.142C53.705 39.4179 58.6695 41.2917 63.4038 38.2271L53.6226 23.1166C57.5705 20.5611 61.5844 22.2003 63.4362 23.9073C65.464 25.7766 67.4523 30.1233 64.6679 34.3365L49.651 24.4122ZM63.5157 38.1535L63.5455 38.1335L53.5405 23.1702L53.5107 23.1902L63.5157 38.1535Z" mask="url(#path-16-inside-5)"/>
	<defs>
	<linearGradient id="paint0_linear" x1="13826.6" y1="9007.65" x2="13826.6" y2="6051.27" gradientUnits="userSpaceOnUse">
	<stop stop-color="white" stop-opacity="0.6"/>
	<stop offset="1" stop-color="white" stop-opacity="0.1"/>
	</linearGradient>
	<linearGradient id="paint1_linear" x1="-13686.6" y1="9007.65" x2="-13686.6" y2="6051.27" gradientUnits="userSpaceOnUse">
	<stop stop-color="white" stop-opacity="0.6"/>
	<stop offset="1" stop-color="white" stop-opacity="0.1"/>
	</linearGradient>
	<linearGradient id="paint2_linear" x1="-13686.6" y1="9007.65" x2="-13686.6" y2="6051.27" gradientUnits="userSpaceOnUse">
	<stop stop-color="white" stop-opacity="0.6"/>
	<stop offset="1" stop-color="white" stop-opacity="0.1"/>
	</linearGradient>
	<linearGradient id="paint3_linear" x1="13826.6" y1="9006.65" x2="13826.6" y2="6050.27" gradientUnits="userSpaceOnUse">
	<stop stop-color="white" stop-opacity="0.6"/>
	<stop offset="1" stop-color="white" stop-opacity="0.1"/>
	</linearGradient>
	<linearGradient id="paint4_linear" x1="13826.6" y1="9006.65" x2="13826.6" y2="6050.27" gradientUnits="userSpaceOnUse">
	<stop stop-color="#F4F4F4"/>
	<stop offset="1" stop-color="white" stop-opacity="0.1"/>
	</linearGradient>
	</defs>
</svg>
