<svg width="202" height="92" viewBox="0 0 202 92" fill="none" xmlns="http://www.w3.org/2000/svg" xmlns:xlink="http://www.w3.org/1999/xlink">
	<path fill="#FCD13A" d="M198.971 65.4788C194.285 56.3147 184.006 51.3983 174.475 48.9795C171.816 48.3108 168.803 47.9765 166.834 45.8133C165.981 44.7639 165.217 43.6457 164.55 42.4702C163.821 41.3099 163.073 40.13 162.305 38.9894C159.289 34.431 155.96 30.0876 152.341 25.9905C145.114 17.6543 136.193 10.9505 126.17 6.32508C116.02 1.61378 104.704 -0.000692606 93.6392 1.68403C92.241 1.92002 90.8823 2.23467 89.5038 2.60831C89.3034 2.65476 89.1237 2.76523 88.9919 2.92296C76.0634 5.54657 64.1629 11.8267 54.7082 21.0152C51.475 24.1615 48.5778 27.6347 46.0634 31.3789C43.6497 35.1337 41.5487 39.08 39.7817 43.1782C38.914 45.4786 37.3254 47.4375 35.2525 48.7632C33.0085 49.8176 30.6397 50.5841 28.2028 51.0443C23.3993 52.3202 18.8502 54.4087 14.7532 57.2193C5.87214 63.4729 -0.0551422 74.4856 2.93803 85.3999C2.98777 85.5422 3.06572 85.673 3.16722 85.7845C3.26873 85.896 3.3917 85.9859 3.5288 86.0489C3.67733 86.0872 3.83317 86.0872 3.98171 86.0489C4.13412 86.0492 4.28379 86.0084 4.41493 85.9309C11.3649 82.9784 17.3379 78.1246 21.6454 71.9291C22.4725 70.6311 23.3586 69.3726 24.3038 68.173C26.4896 65.6164 29.5222 65.0068 32.6926 64.4759C47.304 62.0767 61.9548 59.9331 76.6844 58.5762C91.3238 57.0806 106.045 56.5354 120.755 56.944C128.061 57.18 135.366 57.7109 142.593 58.5762C149.838 59.1975 156.998 60.5683 163.959 62.6666C175.774 66.5997 184.084 76.4325 191.37 86.0095C192.276 87.1895 193.162 88.3891 194.068 89.5886C194.149 89.7141 194.256 89.821 194.382 89.9023C194.508 89.9836 194.649 90.0376 194.797 90.0606C194.94 90.0909 195.087 90.0909 195.23 90.0606C195.374 90.0056 195.507 89.9257 195.624 89.8246C202.595 83.866 202.91 73.1877 198.971 65.4788Z"/>
	<path d="M12.5674 69.1758C14.0351 69.1703 15.4989 69.0255 16.939 68.7431L20.8774 67.9565C23.7327 67.4059 26.5684 66.7176 29.404 65.99C34.9178 64.7707 40.4315 63.6104 46.024 62.6272C48.9188 62.1355 50.9076 61.8209 53.9008 61.3686C56.894 60.9163 59.513 60.5426 62.3487 60.228C67.9412 59.5594 73.5534 59.0284 79.1853 58.6744C90.4282 57.9469 101.703 57.8485 112.957 58.3794C118.569 58.6351 124.181 59.0481 129.813 59.6577L130.758 59.756C131.113 59.756 130.758 59.756 130.758 59.756H131.231L133.417 60.0117C134.835 60.169 136.233 60.346 137.651 60.5426C140.467 60.9163 143.283 61.3293 146.079 61.7816C157.151 63.5901 168.11 66.026 178.905 69.0774C180.284 69.4511 181.642 69.8444 183.021 70.1984C183.408 70.297 183.811 70.3182 184.206 70.2608C184.602 70.2034 184.982 70.0686 185.325 69.8641C185.839 69.55 186.249 69.0919 186.504 68.5468C186.759 68.0017 186.848 67.3938 186.76 66.7985C186.672 66.2032 186.411 65.647 186.008 65.199C185.606 64.7511 185.081 64.4311 184.498 64.2791C179.102 62.5092 173.549 61.1523 168.035 59.874C162.522 58.5958 156.909 57.4552 151.317 56.4916C128.817 52.5886 105.947 51.2362 83.1434 52.4601C71.6271 53.0813 60.1587 54.3947 48.8006 56.3932C37.55 58.176 26.4886 60.9936 15.7575 64.81C14.382 65.332 13.0626 65.9908 11.8191 66.7766C11.6067 66.9472 11.4436 67.1712 11.3465 67.4256C11.2659 67.6885 11.2659 67.9694 11.3466 68.2323C11.4274 68.4952 11.5851 68.7279 11.7994 68.9005C12.0179 69.0609 12.2773 69.1563 12.5477 69.1758H12.5674Z" fill="#0B2538"/>
	<path d="M4.02112 85.99C1.57932 79.52 3.5682 71.7718 7.74289 66.4425C12.5674 60.2675 19.8338 56.8064 27.1592 54.5056C35.2775 52.1566 43.5218 50.2657 51.8529 48.8419C60.3204 47.2293 68.8667 45.8331 77.4524 44.7712C94.7288 42.4551 112.205 42.0133 129.577 43.4536C146.305 44.8668 162.686 49.0262 178.059 55.7641C184.734 58.8123 191.232 62.7257 194.659 69.53C194.951 70.0968 195.208 70.6813 195.427 71.2802C195.703 72.0275 195.939 72.7944 196.155 73.5614C196.525 75.0123 196.671 76.5109 196.589 78.0058C196.468 80.8754 195.547 83.6543 193.93 86.0293C193.206 87.2174 192.215 88.2206 191.036 88.9594C190.713 89.2098 190.495 89.5703 190.423 89.9718C190.351 90.3732 190.43 90.7871 190.645 91.1338C190.86 91.4805 191.196 91.7354 191.588 91.8495C191.98 91.9636 192.4 91.9289 192.768 91.7519C194.209 90.8805 195.532 89.8299 196.707 88.6251C197.871 87.2839 198.773 85.7363 199.365 84.0627C200.493 80.9153 200.884 77.5517 200.507 74.23C199.798 66.1278 194.462 59.8546 188.003 55.3315C180.713 50.5841 172.746 46.9641 164.373 44.5942C155.822 41.915 147.051 39.9934 138.163 38.8518C120.024 36.6002 101.676 36.6002 83.5372 38.8518C74.2032 39.7368 65.1055 41.2117 56.0079 42.9816C47.2449 44.7122 38.4623 46.5607 29.8766 48.9992C21.862 51.3001 13.5323 54.6432 7.74289 60.8968C2.70176 66.3048 -1.03971 74.2497 0.259955 81.7422C0.596423 83.534 1.18653 85.2688 2.01254 86.8946C2.56391 88.0155 4.47403 87.1699 3.98173 85.99H4.02112Z" fill="#0B2538"/>
	<path d="M37.4383 50.4348C39.7226 45.7938 42.0462 41.0937 44.7834 36.669C46.1557 34.5686 47.662 32.5586 49.2929 30.6514C50.9335 28.5881 52.6888 26.6185 54.5506 24.7517C55.4958 23.8275 56.5198 22.9228 57.4256 22.0576L58.745 20.858L59.4736 20.2483L59.8477 19.9337C59.8477 19.9337 60.5173 19.4224 60.0644 19.7567C64.1261 16.4782 68.5454 13.6679 73.2383 11.3792L74.2032 11.0449L74.6364 10.8483C74.6364 10.8483 75.1681 10.6123 74.853 10.7303H75.0893L75.5225 10.5533L76.5268 10.1206C77.728 9.629 78.9489 9.15702 80.1895 8.74405C82.6736 7.8962 85.205 7.19361 87.7709 6.63985L89.7401 6.2662L90.6656 6.06955H90.902H91.2564C92.5561 5.89256 93.8754 5.73523 95.1948 5.63691C97.815 5.42502 100.446 5.38561 103.072 5.51891C103.662 5.51891 104.273 5.51891 104.864 5.63691H105.828H106.321C105.691 5.63691 106.498 5.63691 106.557 5.63691C107.837 5.79423 109.097 5.99089 110.358 6.22687C112.969 6.72157 115.547 7.37835 118.077 8.19342C119.416 8.58673 120.716 9.03903 122.015 9.53067L122.803 9.82565H123.039H123.276L125.245 10.6123C130.114 12.7234 134.736 15.3612 139.029 18.4785L139.521 18.8324L140.289 19.4224C140.821 19.855 141.372 20.268 141.884 20.7203C142.928 21.5463 143.854 22.4312 144.878 23.3555C146.738 25.267 148.481 27.2897 150.096 29.4125C153.462 33.387 156.283 37.7915 158.485 42.5096C158.997 43.6109 159.469 44.7318 159.903 45.8331C160.056 46.2791 160.373 46.6506 160.789 46.8731C161.205 47.0956 161.691 47.1526 162.147 47.0327C162.378 46.9653 162.593 46.8522 162.779 46.7002C162.965 46.5481 163.119 46.3603 163.23 46.1478C163.453 45.724 163.503 45.2306 163.368 44.7712C159.404 34.3034 152.976 24.9418 144.627 17.4769C136.278 10.0119 126.253 4.66263 115.399 1.8808C104.51 -0.795715 93.1132 -0.612797 82.3163 2.41177C71.6326 5.48152 61.8191 11.0115 53.6645 18.5571C51.6832 20.3973 49.828 22.3682 48.1114 24.4568C47.2449 25.499 46.4178 26.561 45.6105 27.6426L44.2714 29.4125C43.8973 30.0024 43.5034 30.612 43.149 31.2217C41.7563 33.4884 40.4813 35.8251 39.3287 38.2226C38.1565 40.7394 37.265 43.3773 36.6703 46.0888C36.3568 47.3847 36.1201 48.698 35.9614 50.0219C35.9614 50.7888 37.0839 51.0051 37.3989 50.3562L37.4383 50.4348Z" fill="#0B2538"/>
</svg>
