<svg width="183" height="147" viewBox="0 0 183 147" fill="none" xmlns="http://www.w3.org/2000/svg" xmlns:xlink="http://www.w3.org/1999/xlink">
	<path fill="#FABA54" d="M33.4172 92.2421L32.7503 92.1722C32.6146 92.1462 32.4742 92.1673 32.3521 92.2321C32.2347 92.3086 32.1496 92.4259 32.1132 92.5614C32.0828 92.695 32.1053 92.8351 32.1758 92.9524C32.2463 93.0696 32.3595 93.1549 32.4915 93.1902L33.1285 93.3799C33.2024 93.3993 33.2793 93.4039 33.355 93.3933C33.4306 93.3827 33.5034 93.3572 33.5691 93.3182C33.6349 93.2792 33.6922 93.2275 33.7379 93.1662C33.7836 93.1048 33.8167 93.0349 33.8352 92.9607C33.872 92.8099 33.8489 92.6508 33.771 92.5167C33.693 92.3827 33.5661 92.2842 33.4172 92.2421Z"/>
	<path fill="#FABA54" d="M34.034 90.6053C32.2821 87.3815 29.724 85.8844 26.8572 83.8184C23.3236 81.2633 21.1935 82.2114 17.0626 83.0199L21.6712 88.7389C23.7417 83.9481 27.0264 85.6947 31.1175 85.1059C35.4193 84.425 39.6599 83.4004 43.7988 82.0418C48.4771 80.5646 47.004 74.2368 42.5048 73.9075C37.1496 73.5282 31.4758 73.0391 26.1605 73.9773C21.0441 74.8756 16.2065 77.76 12.006 80.7043C4.57042 85.9143 0.0613042 96.9431 1.39513 106.026C2.14167 111.106 4.65005 116.006 6.81005 120.607C8.68138 124.6 10.9011 128.103 14.4547 130.778C21.4821 136.098 32.5708 137.954 39.5485 131.656C41.7682 129.66 41.5393 125.458 39.3494 123.562C34.8801 119.699 28.9874 118.701 24.4683 115.128C21.7111 112.942 20.8849 109.349 20.9645 105.966C20.9806 104.544 21.1882 103.13 21.5817 101.764C21.94 100.526 24.2095 98.1507 22.8558 97.5419L20.636 94.7872C20.9347 93.5496 20.8053 93.8889 20.2478 95.7853C19.8103 96.8651 19.4315 97.9679 19.1131 99.0889C18.7244 100.624 18.5767 102.21 18.6751 103.79C18.9635 107.184 20.1338 110.442 22.0694 113.242C25.832 118.641 33.2078 121.416 38.7223 124.58C44.5653 127.933 49.7313 118.402 43.749 115.467C39.7675 113.471 35.1588 111.884 31.5555 109.239C30.5211 108.49 29.6775 107.506 29.093 106.369C28.5084 105.231 28.1994 103.972 28.1911 102.692C28.1313 100.087 29.6543 97.9411 29.9529 95.406C31.0976 85.9542 19.5511 87.9005 15.3206 92.6214C9.90572 98.6697 9.14923 109.209 12.016 116.495C13.5775 120.452 16.4208 123.767 20.0886 125.907C23.7616 128.103 28.1811 129.031 31.4659 131.896L31.2668 123.801C28.41 126.376 21.0242 122.584 18.9339 119.999C15.6093 115.877 11.4088 107.303 12.0956 102.033C13.0213 95.0467 15.7387 90.4456 21.731 86.7227C28.1114 82.7304 35.3678 82.451 42.7039 82.2214L41.3999 74.0971C36.1557 75.9267 30.7445 77.2339 25.2447 77.9996C23.2711 78.3005 21.3777 78.9953 19.6766 80.0427C17.9754 81.0902 16.501 82.4691 15.3406 84.0978C13.0113 87.1819 15.2808 91.6532 19.3221 90.6352C20.5268 90.1314 21.8532 89.996 23.1345 90.2459L20.1483 89.0982C22.6169 91.8029 26.3098 92.1523 28.6688 94.9269C31.3166 98.0309 35.7461 93.879 33.9743 90.6153L34.034 90.6053Z"/>
	<path fill="#FABA54" d="M18.9938 85.7546C17.5789 86.4666 16.3121 87.4421 15.2611 88.6291C13.987 90.0863 12.5436 92.0725 12.6233 94.0985C12.6452 94.7281 12.8002 95.3458 13.0779 95.9108C13.3556 96.4758 13.7498 96.9753 14.2343 97.3762C14.7189 97.7772 15.2828 98.0705 15.8887 98.2366C16.4947 98.4028 17.1289 98.4382 17.7495 98.3404C20.2082 97.9511 22.2487 95.2463 21.2931 92.7112L21.3728 94.4179L21.4325 94.1085C21.4325 94.1085 21.751 93.1105 21.532 93.7293C21.3131 94.3481 21.6017 93.6095 21.6515 93.5097C21.7626 93.274 21.8855 93.0442 22.0198 92.821C22.1193 92.6414 22.2388 92.4717 22.3483 92.302C22.1691 92.5915 22.0696 92.6414 22.3483 92.3519C22.627 92.0625 23.055 91.5934 23.4432 91.244C24.0373 90.6175 24.3825 89.7947 24.4137 88.9307C24.4448 88.0667 24.1599 87.2211 23.6124 86.5531C23.0633 85.8938 22.2984 85.4516 21.4543 85.3054C20.6102 85.1591 19.7416 85.3183 19.0037 85.7546H18.9938Z"/>
	<path fill="#FABA54" d="M15.5894 131.337L15.6989 132.465L21.8703 128.712C20.8135 128.088 19.8345 127.341 18.9538 126.486L14.2058 132.974C19.4515 135.219 23.1643 139.581 28.6589 141.537C33.9742 143.433 39.6081 145.789 45.3515 145.18C47.7533 144.917 50.0753 144.16 52.173 142.958C54.2708 141.757 56.0994 140.135 57.5451 138.193C60.2724 134.501 60.3919 126.915 64.5128 124.749L58.3016 122.354L56.9777 123.711L63.2387 128.313C64.8599 125.711 66.1128 122.896 66.9615 119.949C67.6782 117.873 68.8925 112.303 70.943 110.966C74.7554 108.431 71.2616 102.981 67.27 104.978C60.8498 108.171 60.3023 119.13 56.4203 124.52C53.7427 128.203 59.6752 132.215 62.6813 129.121C64.9423 127.017 66.3107 124.123 66.5036 121.037C66.7823 118.152 63.4577 116.575 61.1185 117.134C51.9609 119.33 54.539 131.985 46.9044 135.848C42.4749 138.094 37.3386 135.848 32.9689 134.491C27.9322 132.954 22.5969 130.409 18.9737 126.416C15.4799 122.574 9.74644 128.532 13.3995 132.295C14.7438 133.681 16.2435 134.907 17.8688 135.948C22.0992 138.712 25.613 132.604 22.7462 129.271L22.0096 128.422C19.8994 125.977 15.2908 128.103 15.6093 131.267L15.5894 131.337Z"/>
	<path fill="#FABA54" d="M31.1374 137.635C38.1052 139.82 48.7658 140.878 54.4694 135.229C60.173 129.58 61.9647 121.116 66.5037 114.749C68.4945 111.904 69.4003 111.685 72.6851 111.405C74.7157 111.284 76.7331 110.997 78.7172 110.547C82.2607 109.524 85.6769 108.101 88.9 106.305C96.8632 102.133 97.8586 93.8191 97.0623 85.5251C96.5048 79.317 86.7301 79.5366 87.3871 85.7646C87.7454 89.1281 88.5118 94.4878 85.9437 97.0429C83.8733 99.0989 79.5135 100.596 76.806 101.414C73.5013 102.412 70.0473 101.634 66.8023 102.692C64.0252 103.6 61.915 105.796 60.1929 108.042C56.2114 113.272 54.0315 119.49 50.5277 125.009C46.0982 131.995 38.2844 130.678 30.9881 131.876C27.8427 132.385 28.639 136.866 31.1374 137.625V137.635Z"/>
	<path fill="#FABA54" d="M89.4574 82.0418C85.0976 84.4871 80.9568 87.2019 76.8558 90.0265C75.1858 91.0945 73.6429 92.3502 72.2571 93.7693C70.9432 95.2264 70.0573 97.5819 68.4049 98.6299C65.4685 100.476 65.8468 105.836 69.6193 106.465C77.7815 107.832 86.1229 101.395 90.7913 95.1965C94.0462 90.8749 88.3725 85.0161 84.5402 89.2081C81.9323 92.0725 76.1093 98.6798 71.6997 98.081L72.924 105.926C76.5771 103.451 78.2294 99.3186 81.8825 96.6837C85.9935 93.6894 90.0149 90.6952 93.8272 87.3816C96.9527 84.6868 92.7721 80.1156 89.4475 81.982L89.4574 82.0418Z"/>
	<path fill="#FABA54" d="M23.8907 97.1027C25.7521 103.031 30.6295 108.082 34.5513 112.713C36.9104 115.527 39.2396 118.352 41.5191 121.256C42.1561 122.085 43.9379 123.602 43.9976 124.56C44.0673 125.747 41.8675 126.396 40.5336 127.314L45.8291 127.863L45.2219 127.304C44.5351 126.68 43.6345 126.345 42.7075 126.369C41.7805 126.393 40.8985 126.775 40.245 127.434L39.7174 128.013C37.0498 131.007 39.9065 137.096 44.1369 135.219C47.79 133.592 51.7915 131.806 53.1751 127.694C54.6383 123.342 51.8811 119.709 49.303 116.455C46.3169 112.782 43.0321 109.469 39.7672 106.045C36.0842 102.213 32.5805 97.6217 28.3899 94.368C26.3991 92.831 23.1043 94.368 23.9703 97.1027H23.8907Z"/>
	<path fill="#FABA54" d="M46.7153 126.596C46.7153 126.247 46.6158 125.897 46.5361 125.548L46.4366 126.546C46.9377 126.048 47.2669 125.403 47.3762 124.705C47.4854 124.006 47.369 123.291 47.0438 122.663C46.8088 122.11 46.4523 121.617 46.0007 121.221C45.5491 120.826 45.0142 120.537 44.4359 120.378C42.9209 120.074 41.3475 120.371 40.0462 121.206C39.3958 121.627 38.8819 122.229 38.5672 122.938C38.2525 123.647 38.1508 124.432 38.2744 125.199C38.4021 125.95 38.7418 126.65 39.2533 127.214C39.7649 127.778 40.4269 128.184 41.161 128.382C41.7895 128.56 42.4497 128.593 43.0925 128.479C43.7353 128.364 44.3442 128.106 44.8738 127.724L45.3516 127.404C45.6602 127.175 45.9588 126.935 46.2475 126.676C46.5362 126.416 46.347 126.506 45.6702 127.195L44.0079 125.987C44.0079 126.227 44.0079 126.456 44.0079 126.696C44.0079 128.462 46.9244 128.313 46.6954 126.626L46.7153 126.596Z"/>
	<path fill="#FABA54" d="M33.3172 104.389C33.1096 103.842 32.7829 103.349 32.361 102.945C31.9391 102.541 31.4326 102.236 30.8785 102.053C30.1557 101.895 29.4003 102.012 28.7585 102.381C28.1167 102.75 27.6342 103.344 27.4046 104.049C27.12 105.432 27.3315 106.87 28.0018 108.111C28.5547 109.485 29.1998 110.818 29.9329 112.104C30.1479 112.48 30.442 112.805 30.7948 113.057C31.1475 113.308 31.5505 113.479 31.9758 113.559C32.4012 113.639 32.8387 113.625 33.2581 113.518C33.6775 113.411 34.0688 113.215 34.4049 112.941C34.741 112.668 35.0138 112.325 35.2045 111.935C35.3953 111.546 35.4993 111.12 35.5095 110.686C35.5196 110.252 35.4356 109.821 35.2634 109.423C35.0911 109.025 34.8346 108.67 34.5117 108.381C33.9841 107.792 33.5163 107.193 33.0286 106.554C32.7797 106.195 32.5309 105.836 32.292 105.467L32.0531 105.087C31.8042 104.508 31.7047 104.598 31.7445 105.377L30.978 106.195C31.3762 105.896 31.0776 106.025 31.5255 106.245C31.7845 106.377 32.0789 106.421 32.3652 106.372C32.6514 106.323 32.9144 106.183 33.1152 105.973C33.316 105.763 33.4441 105.493 33.4805 105.204C33.5168 104.915 33.4596 104.622 33.3172 104.369V104.389Z"/>
	<path fill="#FABA54" d="M40.4245 100.396L40.2951 99.4782C40.3016 99.1123 40.2124 98.751 40.0363 98.4303C39.9185 98.0924 39.7122 97.7925 39.4391 97.562C39.1974 97.2987 38.8871 97.1085 38.5432 97.013C38.2174 96.8474 37.8523 96.7749 37.4881 96.8034C36.762 96.8244 36.0726 97.1288 35.567 97.6518L35.149 98.2207C34.9182 98.6496 34.8017 99.1308 34.8105 99.618L34.9399 100.526C34.938 100.896 35.0305 101.26 35.2087 101.584C35.3237 101.921 35.5265 102.221 35.796 102.452C36.0429 102.709 36.3513 102.898 36.6918 103.001C37.0196 103.161 37.3831 103.234 37.7469 103.211C38.1077 103.201 38.463 103.121 38.7926 102.973C39.1223 102.826 39.4197 102.615 39.668 102.353L40.0861 101.784C40.3213 101.36 40.4382 100.881 40.4245 100.396Z"/>
	<path fill="#FABA54" d="M38.1154 94.2682C38.077 93.2879 37.7042 92.3506 37.0591 91.613C36.4141 90.8753 35.536 90.3822 34.5718 90.216C33.6949 90.0044 32.7712 90.1182 31.9716 90.5366C31.172 90.9549 30.5504 91.6494 30.2219 92.4916C29.8919 93.2623 29.846 94.1255 30.0925 94.9269C30.4149 95.8407 31.0404 96.6158 31.8643 97.1227C32.4326 97.5363 33.0982 97.7952 33.796 97.8739C34.4938 97.9526 35.2001 97.8485 35.8459 97.5719C36.5018 97.303 37.0641 96.8462 37.4624 96.2586C37.8608 95.671 38.0775 94.9787 38.0855 94.2682H38.1154Z"/>
	<path fill="#FABA54" d="M28.1114 99.5081C32.7399 101.424 35.4076 108.131 38.3539 111.894C41.5491 115.956 46.0583 119.05 48.9648 123.252C54.3798 131.067 65.7471 121.506 58.9187 115.138C54.6485 111.146 49.4326 108.531 45.3018 104.339C41.4098 100.406 36.4926 97.0429 32.949 92.861C28.9674 88.18 22.4177 97.1626 28.0914 99.5081H28.1114Z"/>
	<path fill="#FABA54" d="M26.6081 85.4254C28.5989 88.4196 32.1823 88.709 34.3622 91.6035C36.8607 94.937 37.6072 99.3785 39.0505 103.211C41.758 110.417 46.3468 116.855 54.2701 118.532C62.1934 120.208 65.2691 107.692 57.3259 106.275C49.3827 104.858 48.1783 92.8311 44.2266 87.1421C40.9318 82.3912 32.461 75.1652 27.066 80.944C26.5163 81.5407 26.1744 82.3001 26.0919 83.1082C26.0093 83.9162 26.1905 84.7294 26.6081 85.4254Z"/>
	<path fill="#FABA54" d="M38.7023 84.6667C41.0116 89.7169 39.8669 94.4478 40.3248 99.6378C40.6972 103.03 41.9235 106.273 43.8883 109.06C48.039 115.178 58.6002 117.683 63.8956 111.675C65.6077 109.738 65.5878 105.876 62.8306 104.688C59.8444 103.411 58.0626 104.099 54.9769 103.94C52.2794 103.8 50.637 101.454 49.7014 98.9491C48.7657 96.444 48.9946 93.5994 48.4969 90.9645C47.8698 87.6709 46.317 84.6966 45.6601 81.4229C44.6647 76.3627 36.1939 79.1074 38.6923 84.5669L38.7023 84.6667Z"/>
	<path fill="#FABA54" d="M44.4454 101.714C51.1344 105.177 53.8817 114.769 62.9895 111.305C69.3302 108.88 66.3241 98.6698 59.9138 101.115C58.8288 101.365 58.779 101.504 59.7645 101.544C59.2184 101.274 58.6928 100.963 58.1918 100.616C56.9575 99.8476 55.773 98.9892 54.5685 98.1808C52.2393 96.6238 50.0793 95.0668 47.3719 94.2683C42.9921 92.9708 40.4041 99.618 44.4454 101.714Z"/>
	<path fill="#FABA54" d="M45.0628 91.3237C47.7504 91.2239 49.0444 88.3295 50.2688 86.3334C51.0102 85.1481 51.8352 84.0173 52.7373 82.9499C53.8522 81.6225 54.8973 80.844 55.4149 79.0774C56.3606 75.7838 52.6876 73.9473 50.0896 75.1749C47.9495 76.173 46.6455 79.1672 45.5705 81.2432C44.6945 82.92 44.1968 85.0658 42.9426 86.503C42.5734 86.9144 42.3309 87.4242 42.2445 87.9709C42.158 88.5175 42.2314 89.0775 42.4557 89.5832C42.6799 90.0889 43.0455 90.5187 43.5082 90.8205C43.9709 91.1223 44.5109 91.2832 45.0628 91.2838V91.3237Z"/>
	<path fill="#FABA54" d="M45.3518 84.9162C47.5516 82.3013 51.1151 80.9838 53.9619 79.2771C56.7183 77.6812 59.1471 75.5745 61.1188 73.0691C62.8109 70.8633 64.0154 67.2802 66.3247 65.7132C64.2941 66.026 64.3339 66.4152 66.4441 66.881L67.6386 67.3501C69.7275 67.9712 71.8904 68.3069 74.0688 68.3482C75.3546 68.3065 76.5727 67.7601 77.4608 66.8267C78.3488 65.8933 78.8358 64.6476 78.8168 63.3578C78.4784 56.5309 72.3468 56.1916 66.9518 55.6227C61.7558 55.0638 60.9794 63.6073 65.9564 64.7251L68.6141 65.294C70.3792 66.0526 70.5385 65.487 69.0919 63.5973L73.8399 58.6069C69.6194 58.3474 66.4939 54.6146 62.1142 56.501C58.4611 58.038 56.2115 61.9405 54.0913 65.0944C49.7514 71.5221 41.8281 74.9854 41.3403 83.3592C41.2308 85.3554 44.0976 86.4134 45.3219 84.9162H45.3518Z"/>
	<path fill="#FABA54" d="M54.4197 79.2074C55.9825 80.2953 59.755 80.6745 61.5169 79.8062C62.5819 79.2972 62.9005 78.349 63.7466 77.6404C64.5989 77.1321 65.5032 76.7172 66.444 76.4028C70.7143 74.2869 65.8866 67.2605 62.1141 71.0631C60.8002 72.3806 59.3867 73.0593 58.5506 74.8658C58.4411 75.1053 57.8937 76.5725 58.5506 75.4247C59.1379 74.9356 59.0284 74.8658 58.2122 75.2051L57.5154 75.3548C56.4169 75.4574 55.3487 75.7726 54.37 76.283C54.1244 76.4425 53.9238 76.6625 53.7871 76.9219C53.6505 77.1813 53.5824 77.4715 53.5894 77.7648C53.5963 78.058 53.6782 78.3446 53.827 78.5972C53.9759 78.8497 54.1868 79.0598 54.4397 79.2074H54.4197Z"/>
	<path fill="#FABA54" d="M58.9387 79.9858C61.9249 78.9877 64.3238 76.6023 66.9019 74.8856C69.7785 72.9693 72.8742 71.4223 75.7608 69.496C79.175 67.2104 76.8159 60.8227 72.6453 62.5694C69.0225 64.1393 65.7472 66.4158 63.0099 69.2665C60.5911 71.6918 57.6149 74.696 57.0873 78.2492C57.0287 78.5 57.0365 78.7618 57.11 79.0086C57.1835 79.2555 57.3201 79.4788 57.5062 79.6564C57.6924 79.8339 57.9216 79.9596 58.1711 80.0209C58.4207 80.0822 58.6819 80.077 58.9288 80.0058L58.9387 79.9858Z"/>
	<path fill="#FABA54" d="M64.5929 72.2109C66.0088 71.0351 67.4911 69.942 69.0324 68.9372C69.7109 68.4814 70.1867 67.7796 70.3598 66.9792C70.5329 66.1789 70.3898 65.3424 69.9605 64.6458C69.5313 63.9491 68.8493 63.4464 68.058 63.2435C67.2668 63.0405 66.4279 63.1531 65.7177 63.5576C63.7492 64.8841 61.8765 66.3483 60.1136 67.9391C59.5572 68.5389 59.257 69.3333 59.2775 70.1523C59.2979 70.9712 59.6374 71.7496 60.2231 72.3207C60.8259 72.8693 61.6162 73.164 62.43 73.1435C63.2437 73.1231 64.0184 72.7891 64.5929 72.2109Z"/>
	<path fill="#FABA54" d="M68.8827 75.3646C71.2042 73.353 73.8107 71.6981 76.6169 70.4541C79.6927 69.2464 82.6689 67.5198 82.44 63.7271C82.4172 63.2174 82.2797 62.7194 82.0379 62.2705C81.7961 61.8216 81.4561 61.4334 81.0435 61.1348C80.6309 60.8363 80.1562 60.6352 79.6551 60.5466C79.154 60.4579 78.6394 60.4841 78.1498 60.6231C72.8643 61.9206 68.1959 66.0127 64.2143 69.6057C61.1286 72.4303 65.5282 78.0095 68.8827 75.3746V75.3646Z"/>
	<path fill="#FABA54" d="M152.903 28.7945C153.839 29.2037 154.058 29.1139 153.58 28.5151C153.384 28.1059 153.118 27.7344 152.794 27.4172C152.386 26.8437 151.908 26.3239 151.37 25.8702C149.877 24.5327 149.38 25.3312 151.032 23.9738C152.076 23.211 153.185 22.543 154.347 21.9777C156.935 20.5005 159.563 19.0832 162.161 17.636C162.549 17.4264 168.68 13.4042 168.601 13.3842C171.816 14.2725 174.046 10.0007 171.686 7.75507C172.413 8.44374 171.209 6.17811 170.801 5.75892C170.365 5.27651 169.82 4.90533 169.213 4.6762C168.605 4.44706 167.952 4.3666 167.307 4.44146C165.542 4.7093 163.86 5.3701 162.384 6.37531C160.908 7.38053 159.675 8.7046 158.776 10.2503C158.561 10.6669 158.456 11.132 158.472 11.6009C158.488 12.0698 158.624 12.5267 158.867 12.9277C159.11 13.3287 159.452 13.6603 159.86 13.8905C160.267 14.1208 160.727 14.242 161.195 14.2426C164.549 14.542 165.853 12.3562 168.899 11.3681L166.142 11.0687C164.997 10.4698 166.739 12.1366 167.137 12.5957L170.223 6.9666C165.007 6.24798 160.269 10.2303 155.999 12.8153C151.729 15.4003 144.92 18.2748 142.989 23.1255C141.327 27.2874 144.184 30.2517 147.488 32.158C151.152 34.264 153.063 35.6713 156.726 32.4874C159.274 30.2717 155.452 26.6586 152.923 28.8644L152.903 28.7945Z"/>
	<path fill="#FABA54" d="M166.222 10.4498C167.217 14.7515 170.034 18.4943 171.199 22.6563L173.189 17.3266C171.438 18.7239 168.67 19.2728 166.63 20.201C164.33 21.2233 162.087 22.3695 159.911 23.6344C155.989 25.92 151.181 28.4252 148.962 32.5073C148.624 33.1605 148.483 33.8984 148.557 34.6306C148.63 35.3628 148.916 36.0575 149.377 36.6296C149.839 37.2016 150.457 37.6262 151.156 37.8513C151.855 38.0764 152.604 38.0923 153.311 37.8969C157.671 36.8989 161.553 33.216 165.525 31.11C169.497 29.0041 174.732 27.9661 178.087 25.2812C178.931 24.7112 179.576 23.8913 179.933 22.9359C180.29 21.9804 180.34 20.9371 180.078 19.9515C178.813 15.4003 174.643 10.5297 171.358 7.246C169.029 4.92048 165.455 7.50551 166.172 10.4498H166.222Z"/>
	<path fill="#FABA54" d="M159.344 35.6212C159.708 34.7112 159.84 33.7248 159.729 32.7508C159.617 31.7768 159.266 30.8459 158.707 30.0419C158.069 29.0088 157.269 28.0855 156.338 27.3072C155.81 26.8581 154.218 26.1694 153.989 25.8899L155.213 30.1018C156.557 24.1633 166.481 23.8239 170.194 19.8516C173.12 16.7076 169.945 11.867 165.933 12.865C161.975 14.0238 158.179 15.6804 154.636 17.7955C151.703 19.3927 149.286 21.7956 147.668 24.7222C146.215 27.5667 145.996 31.4393 149.35 33.0462C150.803 33.7448 152.336 33.3256 153.78 33.8346C155.223 34.3437 156.139 35.4615 157.383 36.1402C157.551 36.234 157.736 36.2936 157.927 36.3158C158.118 36.338 158.311 36.3222 158.496 36.2694C158.681 36.2165 158.854 36.1277 159.004 36.0079C159.155 35.8881 159.28 35.7398 159.374 35.5713L159.344 35.6212Z"/>
	<path fill="#FABA54" d="M153.849 38.2561C156.268 38.6853 158.727 37.4277 160.917 36.4995C163.329 35.6319 165.641 34.5076 167.815 33.146C170.801 31.0101 167.616 26.1595 164.829 28.3652C163.303 29.4768 161.665 30.4236 159.941 31.1898C159.025 31.6589 158.11 32.128 157.214 32.637C156.318 33.146 155.223 34.204 154.228 34.2239C151.988 34.2738 151.46 37.8469 153.78 38.2162L153.849 38.2561Z"/>
	<path fill="#FABA54" d="M66.7724 77.9995C67.8175 80.2851 69.4599 82.3412 70.6743 84.5569C71.8887 86.7726 72.6651 89.4674 75.0142 90.725C78.518 92.5615 81.6037 88.7288 79.9912 85.4851C78.7719 83.3874 77.341 81.4208 75.721 79.6164C74.2183 77.5473 72.3933 75.7343 70.316 74.2467C67.8076 72.6498 65.777 75.8337 66.7624 77.9995H66.7724Z"/>
	<path fill="#FABA54" d="M73.5509 78.3689C80.1702 76.1432 86.1326 71.8913 92.1249 68.3881C98.6845 64.5555 105.184 60.6131 111.684 56.6907C124.196 49.1252 136.569 41.2704 147.767 31.8585C151.391 28.8144 146.284 22.4167 142.522 25.371C130.973 34.2403 118.896 42.3964 106.359 49.7939C100.118 53.5567 93.7872 57.1897 87.6556 61.1421C81.8624 64.8749 75.3625 68.6077 70.7339 73.8376C68.992 75.8338 70.8036 79.2771 73.5111 78.3689H73.5509Z"/>
	<path fill="#FABA54" d="M78.4483 81.433C84.2913 78.9178 89.3976 74.7858 94.6931 71.3125C100.865 67.2703 107.076 63.3279 113.277 59.3356C124.963 51.7901 136.171 43.4562 148.205 36.4497C152.993 33.6651 148.554 26.7185 143.726 29.1837C131.363 35.5015 119.916 43.7556 108.649 51.8301C102.895 55.9621 97.1219 60.0642 91.3785 64.2162C86.0233 68.0987 79.8518 71.8315 75.7807 77.1912C74.3971 78.9977 75.7807 82.6806 78.4483 81.5228V81.433Z"/>
	<path fill="#FABA54" d="M81.2854 85.5153C85.5656 80.1756 92.2347 76.832 97.9781 73.2889C104.319 69.3864 110.729 65.5837 117.109 61.7411C129.383 54.3454 142.99 46.6801 153.133 36.4598C156.836 32.737 151.739 26.2695 147.3 29.2537C140.909 33.5454 135.017 38.6456 128.646 43.0172C122.276 47.3888 115.885 51.8003 109.445 56.1219C103.005 60.4436 96.5049 64.7254 90.1941 69.1768C84.9484 72.8597 79.7525 76.323 76.1492 81.7426C74.1584 84.7368 78.996 88.3598 81.2854 85.5153Z"/>
	<path d="M72.2966 90.0664C72.8043 86.5532 72.1672 83.5789 69.4299 81.1835C67.069 79.3317 64.1341 78.3707 61.1383 78.4687C55.7631 78.4687 49.8704 80.924 48.3375 86.4533C47.5549 88.9642 47.4281 91.6344 47.9692 94.2084C48.7855 97.1228 50.9554 98.8694 53.5733 100.007C56.0419 101.065 58.6299 102.203 61.3672 102.143C63.7362 102.083 65.9261 101.145 68.116 100.347C71.7492 99.0291 74.4367 95.0069 73.0929 91.0844C71.8188 87.4514 67.7576 84.7167 63.8557 86.0941L61.7853 86.8426L60.4315 87.3117C60.7363 87.2869 61.0426 87.2869 61.3473 87.3117C62.1436 87.0223 59.9836 86.7128 60.551 86.9424C61.1184 87.172 60.8496 87.0422 60.1031 86.7328C59.1475 86.2404 59.2172 86.3502 60.3121 87.0622L62.3029 90.296C62.4422 91.7731 62.5119 91.9029 62.5219 90.7052V91.0944C63.0295 89.1781 62.3825 89.8967 60.5808 93.2702C59.9836 93.5297 59.9338 93.5796 60.4315 93.4099C60.9292 93.2403 60.8695 93.2503 60.1528 93.4099C60.4833 93.3719 60.8156 93.3519 61.1482 93.3501C61.6957 93.3501 61.6161 93.3501 60.8994 93.2802C63.1091 93.9123 62.1735 92.8045 58.0924 89.9566L57.9928 85.9643L57.9232 86.4633C57.3757 90.296 59.1276 94.6176 63.3182 95.446C66.9215 96.1746 71.7093 94.1485 72.2767 90.0364L72.2966 90.0664Z" fill="#B07A2D"/>
	<path d="M151.381 24.1435L151.888 24.0637L152.336 23.8641L152.714 23.5546C152.899 23.3863 153.03 23.1678 153.093 22.9259C153.172 22.7787 153.213 22.614 153.212 22.4468C153.222 22.3606 153.222 22.2735 153.212 22.1873C153.216 21.9318 153.15 21.68 153.023 21.4587C152.943 21.2231 152.802 21.0131 152.615 20.8499L152.376 20.5504C152.071 20.385 151.728 20.3024 151.381 20.3109L150.873 20.3907L150.385 20.5504L150.007 20.8598L150.385 20.5504L150.833 20.3408C150.592 20.4003 150.372 20.5245 150.196 20.7001C149.997 20.8375 149.836 21.0228 149.728 21.2391L149.549 21.6982C149.48 21.9463 149.48 22.2087 149.549 22.4568C149.554 22.6257 149.602 22.7906 149.688 22.9358C149.771 23.1672 149.912 23.3733 150.097 23.5347L150.485 23.8241C150.79 23.9896 151.133 24.0722 151.48 24.0637L151.381 24.1435Z" fill="#B07A2D"/>
	<path d="M157.622 20.2707L158.13 20.1909L158.577 19.9912L158.956 19.6818C159.138 19.5117 159.269 19.2939 159.334 19.0531C159.415 18.9029 159.456 18.7346 159.453 18.564C159.463 18.4811 159.463 18.3974 159.453 18.3145C159.485 18.0564 159.447 17.7945 159.344 17.5559C159.261 17.3246 159.121 17.1184 158.936 16.9571L158.548 16.6677C158.245 16.4946 157.9 16.4115 157.552 16.4281L157.045 16.508L156.587 16.7176L156.209 17.027L156.587 16.7176L157.045 16.518C156.806 16.5776 156.586 16.6979 156.408 16.8673C156.206 17.006 156.045 17.1953 155.94 17.4162L155.751 17.8753C155.686 18.124 155.686 18.3852 155.751 18.6339C155.752 18.8034 155.8 18.9692 155.89 19.1129C155.973 19.3443 156.113 19.5504 156.298 19.7118L156.686 20.0012C156.991 20.1664 157.335 20.2457 157.682 20.2308L157.622 20.2707Z" fill="#B07A2D"/>
	<path d="M164.152 15.9492L164.65 15.8694L165.107 15.6698L165.486 15.3604C165.674 15.1957 165.807 14.9757 165.864 14.7316C165.953 14.5849 165.995 14.414 165.983 14.2425C166.003 14.1605 166.003 14.075 165.983 13.993C165.985 13.7358 165.924 13.482 165.804 13.2544C165.721 13.0231 165.581 12.8169 165.396 12.6556L164.998 12.3662C164.696 12.192 164.35 12.1089 164.003 12.1266L163.495 12.2065L163.047 12.4161L162.669 12.7255L163.047 12.4161L163.495 12.2164C163.255 12.2739 163.035 12.3945 162.858 12.5658C162.656 12.7068 162.492 12.8953 162.38 13.1147L162.201 13.5738C162.131 13.8218 162.131 14.0844 162.201 14.3324C162.202 14.5019 162.251 14.6677 162.34 14.8114C162.423 15.0427 162.563 15.2489 162.748 15.4103L163.137 15.6997C163.441 15.8658 163.785 15.9452 164.132 15.9293L164.152 15.9492Z" fill="#B07A2D"/>
	<path d="M156.586 30.8904L157.094 30.8106L157.542 30.611L157.92 30.3015C158.108 30.1345 158.243 29.9159 158.308 29.6728C158.389 29.5227 158.43 29.3543 158.428 29.1837C158.443 29.1012 158.443 29.0167 158.428 28.9342C158.44 28.6759 158.377 28.4197 158.249 28.1956C158.166 27.9643 158.025 27.7581 157.841 27.5968L157.452 27.3073C157.149 27.1363 156.805 27.0533 156.457 27.0678L155.949 27.1476L155.501 27.3572L155.123 27.6666L155.501 27.3572L155.949 27.1576C155.71 27.2151 155.49 27.3357 155.312 27.5069C155.111 27.648 154.947 27.8365 154.834 28.0559L154.655 28.515C154.591 28.7637 154.591 29.0248 154.655 29.2735C154.657 29.4431 154.705 29.6089 154.795 29.7526C154.877 29.9839 155.018 30.1901 155.203 30.3515L155.591 30.6409C155.896 30.807 156.24 30.8864 156.586 30.8704V30.8904Z" fill="#B07A2D"/>
	<path d="M162.838 27.0279L163.345 26.948L163.803 26.7384L164.182 26.429C164.37 26.262 164.504 26.0434 164.57 25.8002C164.65 25.6503 164.688 25.4812 164.679 25.3112C164.699 25.2258 164.699 25.137 164.679 25.0517C164.69 24.7966 164.628 24.5438 164.5 24.3231C164.418 24.0887 164.277 23.8792 164.092 23.7142L163.694 23.4348C163.392 23.2606 163.046 23.1775 162.698 23.1952L162.191 23.2751L161.743 23.4747L161.365 23.7841L161.743 23.4747L162.191 23.2751C161.726 23.4407 161.333 23.7614 161.076 24.1833L160.897 24.6425C160.827 24.8905 160.827 25.153 160.897 25.401C160.897 25.5676 160.945 25.7306 161.036 25.8701C161.116 26.1056 161.257 26.3157 161.444 26.4789L161.832 26.7584C162.134 26.9325 162.48 27.0157 162.828 26.9979L162.838 27.0279Z" fill="#B07A2D"/>
	<path d="M169.358 22.7063L169.855 22.6265L170.313 22.4169L170.691 22.1075C170.877 21.9403 171.009 21.7213 171.07 21.4787C171.153 21.3296 171.195 21.1605 171.189 20.9896C171.209 20.9043 171.209 20.8154 171.189 20.7301C171.19 20.4762 171.128 20.2259 171.01 20.0015C170.926 19.7708 170.786 19.5649 170.602 19.4027L170.204 19.1132C169.901 18.9401 169.556 18.857 169.208 18.8737L168.701 18.9535L168.253 19.1531L167.875 19.4625L168.243 19.1531L168.691 18.9535C168.452 19.0185 168.233 19.142 168.054 19.3128C167.847 19.4483 167.682 19.6383 167.576 19.8618L167.397 20.3209C167.332 20.5695 167.332 20.8308 167.397 21.0794C167.406 21.2445 167.454 21.4051 167.536 21.5485C167.62 21.7823 167.76 21.9915 167.944 22.1574L168.342 22.4368C168.644 22.6115 168.99 22.6947 169.338 22.6764L169.358 22.7063Z" fill="#B07A2D"/>
	<path d="M63.3784 80.5348C66.6234 78.7183 69.739 76.6223 72.8744 74.6362C79.0757 70.7237 85.0978 66.5218 91.1797 62.4297C104.508 53.447 117.876 44.5941 130.936 35.2421C133.215 33.6053 135.524 32.0083 137.774 30.3316C138.57 29.7327 139.327 29.074 140.103 28.4452L140.76 27.8963C140.989 27.6967 141.268 27.507 140.889 27.7765C142.383 26.6986 140.889 24.2333 139.376 25.3212C139.556 25.1915 139.745 25.1116 139.237 25.4111L139.028 25.5308L138.401 25.9001C137.764 26.2594 137.127 26.6187 136.5 26.988C134.509 28.1458 132.618 29.5032 130.697 30.7607C124.724 34.6832 118.692 38.6156 112.78 42.6778C99.4315 51.8301 86.0235 60.9026 72.6754 70.055C68.9825 72.5801 65.4488 75.3648 61.6663 77.7502C61.3158 77.9859 61.07 78.3487 60.9805 78.7623C60.891 79.1759 60.9647 79.6082 61.1862 79.9684C61.4077 80.3287 61.7598 80.5889 62.1685 80.6945C62.5772 80.8001 63.0109 80.7429 63.3784 80.5348Z" fill="#2E2221"/>
	<path d="M73.3917 93.2303C76.6367 91.4138 79.7523 89.3178 82.8977 87.3317C89.089 83.4192 95.1112 79.2173 101.193 75.1252C114.521 66.1425 127.889 57.2896 140.949 47.9377C143.228 46.3008 145.538 44.7039 147.787 43.0271C148.584 42.4283 149.34 41.7696 150.116 41.1408L150.773 40.5918C151.002 40.3922 151.281 40.2026 150.903 40.4721C152.396 39.3941 150.903 36.9289 149.39 38.0168C149.569 37.887 149.758 37.8072 149.25 38.1066L149.041 38.2264L148.414 38.5957C147.777 38.955 147.14 39.3143 146.513 39.6836C144.522 40.8413 142.631 42.1987 140.71 43.4563C134.738 47.3787 128.706 51.3111 122.793 55.3733C109.445 64.5257 96.0369 73.5982 82.6887 82.7505C78.9958 85.2756 75.4621 88.0603 71.6796 90.4457C71.3291 90.6814 71.0833 91.0442 70.9938 91.4578C70.9043 91.8714 70.978 92.3037 71.1995 92.6639C71.421 93.0242 71.7731 93.2844 72.1818 93.39C72.5905 93.4956 73.0242 93.4384 73.3917 93.2303Z" fill="#2E2221"/>
	<path d="M74.407 90.7151C74.4097 87.9436 73.5586 85.2389 71.9702 82.9707C70.3818 80.7026 68.1335 78.9816 65.5328 78.0431C62.932 77.1046 60.1056 76.9944 57.44 77.7275C54.7744 78.4606 52.3997 80.0012 50.6403 82.1388C48.881 84.2764 47.823 86.9066 47.6109 89.67C47.3988 92.4333 48.0429 95.1949 49.4553 97.5773C50.8677 99.9596 52.9794 101.847 55.5017 102.98C58.0241 104.113 60.834 104.438 63.5473 103.91C66.5883 103.285 69.3244 101.635 71.3002 99.2347C73.276 96.8341 74.3724 93.8275 74.407 90.7151C74.407 88.3098 70.7042 88.3098 70.6743 90.7151C70.6736 92.7073 70.0613 94.6509 68.9206 96.282C67.7798 97.913 66.1659 99.1524 64.2982 99.8317C62.4305 100.511 60.3995 100.597 58.4812 100.079C56.5629 99.5603 54.8502 98.4623 53.576 96.9339C52.3017 95.4054 51.5276 93.5207 51.3589 91.5357C51.1901 89.5508 51.6349 87.5618 52.6328 85.8392C53.6307 84.1165 55.1332 82.7437 56.9364 81.9072C58.7395 81.0707 60.7558 80.811 62.7112 81.1635C64.9356 81.5861 66.9451 82.7689 68.3972 84.5107C69.8492 86.2524 70.654 88.4451 70.6743 90.7151C70.754 93.1205 74.4369 93.1305 74.407 90.7151Z" fill="#2E2221"/>
	<path d="M23.2342 101.924C23.8568 101.671 24.4427 101.335 24.9761 100.926L26.8176 99.7678C27.813 99.129 28.8084 98.5102 29.8038 97.8515C30.0363 97.7015 30.2023 97.4674 30.2672 97.1979C30.3321 96.9284 30.2909 96.6441 30.1522 96.4043C30.0026 96.1681 29.7665 96.0002 29.4947 95.9368C29.2229 95.8733 28.9372 95.9193 28.6989 96.0649C27.7035 96.7835 26.7081 97.4522 25.7127 98.1409L23.9111 99.4384L23.1446 100.027C22.9811 100.136 22.8279 100.26 22.6868 100.397C22.5605 100.546 22.4472 100.707 22.3483 100.876C22.2905 101 22.2692 101.138 22.287 101.274C22.3048 101.409 22.3609 101.537 22.4488 101.642C22.5367 101.747 22.6526 101.825 22.7829 101.866C22.9132 101.907 23.0526 101.909 23.1845 101.874L23.2342 101.924Z" fill="#2E2221"/>
	<path d="M37.7768 122.863C38.3983 122.608 38.9839 122.272 39.5187 121.865L41.3503 120.707C42.3457 120.068 43.3411 119.45 44.3365 118.791C44.5533 118.635 44.7029 118.402 44.7553 118.139C44.8077 117.877 44.759 117.604 44.6188 117.376C44.4787 117.149 44.2576 116.982 44.0002 116.912C43.7428 116.841 43.4681 116.87 43.2316 116.994C42.2362 117.723 41.2408 118.392 40.2454 119.08C39.6482 119.51 39.041 119.939 38.4537 120.378L37.6773 120.967C37.514 121.072 37.3607 121.192 37.2194 121.326C37.0986 121.481 36.9888 121.645 36.8909 121.815C36.8331 121.939 36.8118 122.077 36.8296 122.213C36.8474 122.349 36.9035 122.477 36.9914 122.582C37.0793 122.686 37.1952 122.764 37.3255 122.805C37.4559 122.846 37.5952 122.849 37.7271 122.813L37.7768 122.863Z" fill="#2E2221"/>
	<path d="M29.0271 96.6136C28.2905 97.2723 29.7935 99.1287 30.1718 99.6976C31.2468 101.315 32.3285 102.921 33.4167 104.518C35.8521 108.125 38.3141 111.715 40.8026 115.288L42.216 117.284C42.6042 117.843 42.9626 118.551 43.6792 118.681C44.0973 118.751 44.6746 118.531 44.7443 118.042C44.8836 116.825 43.5697 115.607 42.9028 114.669L39.3592 109.678C36.8641 106.152 34.3889 102.635 31.9336 99.1288C31.5355 98.5499 30.0125 95.7952 29.0768 96.6136H29.0271Z" fill="#2E2221"/>
	<path d="M22.6069 100.666C21.8703 101.315 23.3733 103.171 23.7516 103.74C24.8266 105.357 25.9083 106.967 26.9966 108.571C29.4386 112.164 31.8972 115.75 34.3724 119.33L35.7958 121.326C36.184 121.885 36.5324 122.594 37.259 122.723C37.6771 122.793 38.2544 122.574 38.3142 122.085C38.4535 120.867 37.1496 119.649 36.4826 118.711L32.939 113.721C30.4406 110.188 27.9621 106.654 25.4637 103.111C25.0556 102.532 23.5426 99.7776 22.6069 100.606V100.666Z" fill="#2E2221"/>
	<path d="M83.9031 62.5393C81.8709 60.5196 79.5816 58.7779 77.0946 57.3592C74.9291 55.9644 72.5852 54.8698 70.1269 54.1055C65.6078 52.8879 59.8743 53.2572 56.5298 56.9201C55.048 58.6372 53.7626 60.5153 52.6976 62.5193C51.4235 64.755 50.5575 67.2003 49.2137 69.406C48.1287 71.1826 47.1433 72.3504 45.1027 72.7995C43.1715 73.1453 41.2021 73.2225 39.2498 73.029C34.7905 72.7396 30.4605 72.031 25.9713 72.5999C21.2689 73.139 16.7477 74.7321 12.7426 77.2609C9.48771 79.4081 6.71193 82.2084 4.59031 85.485C2.71122 88.0508 1.395 90.9862 0.728183 94.0984C-0.637515 101.668 -0.0760332 109.461 2.36062 116.755C5.56234 126.37 11.957 134.593 20.4768 140.05C27.9123 144.881 37.6074 148.134 46.4565 145.759C51.5952 144.212 56.3001 141.477 60.1929 137.774C64.0319 134.092 67.0157 129.608 68.9324 124.64C69.7984 122.554 70.535 120.408 71.3014 118.282C71.9684 116.445 72.2968 114.559 73.2922 113.102C75.4323 109.858 80.5188 109.708 84.2415 109.159C86.6615 108.902 89.0188 108.226 91.2093 107.163C93.5165 105.87 95.4532 104.004 96.8332 101.744C99.8194 97.1526 100.098 91.3138 98.9634 86.0939C98.2878 83.1591 97.2056 80.3337 95.7482 77.7C94.5836 75.5242 90.7016 77.191 91.7667 79.5066C93.8769 84.2275 95.5193 89.5572 94.2253 94.7372C93.2299 98.6796 90.6917 102.343 86.6603 103.49C82.3901 104.708 77.8212 104.488 73.7202 106.485C71.8314 107.423 70.2292 108.854 69.0817 110.627C68.1591 112.354 67.4695 114.196 67.0312 116.106C65.8556 120.314 64.2477 124.388 62.2334 128.263C59.7865 132.535 56.3004 136.116 52.1003 138.673C48.5013 141.083 44.2843 142.4 39.9566 142.465C35.8601 142.349 31.826 141.43 28.0815 139.76C19.6482 136.403 12.6586 130.182 8.33297 122.184C4.34804 114.62 2.69211 106.04 3.575 97.5318C3.70735 95.5157 4.14018 93.5308 4.85907 91.6432C6.34412 88.3125 8.43723 85.2895 11.0305 82.7303C17.3612 76.652 26.2699 74.9553 34.7308 75.674C38.4535 75.9834 42.3455 76.4624 46.0384 75.674C47.696 75.398 49.1945 74.5206 50.2489 73.2087C51.6856 71.1722 52.8878 68.979 53.8323 66.6713C54.8647 64.5856 56.1089 62.6123 57.5451 60.7826C58.5637 59.2187 60.0575 58.0253 61.8054 57.3792C64.0292 56.7496 66.3642 56.6201 68.6437 56.9999C71.1709 57.4886 73.5847 58.4466 75.7608 59.8245C78.1113 61.04 80.3411 62.477 82.42 64.1162C82.6325 64.3187 82.9165 64.4283 83.2096 64.4208C83.5027 64.4133 83.7808 64.2894 83.9827 64.0763C84.1847 63.8632 84.2939 63.5784 84.2865 63.2845C84.279 62.9907 84.1554 62.7118 83.9429 62.5093L83.9031 62.5393Z" fill="#2E2221"/>
	<path d="M138.202 29.4632C139.337 29.0496 140.417 28.4965 141.417 27.8164C142.16 27.2051 142.798 26.477 143.308 25.6605C143.99 24.4838 144.461 23.197 144.702 21.8579C144.702 21.6283 144.801 21.3988 144.861 21.1792C144.971 20.8099 144.971 21.0394 145 20.8199C145.07 20.4107 144.891 20.9097 145 20.8199C145.11 20.73 145.229 20.5803 145.359 20.4606C146.094 19.8289 146.862 19.2359 147.658 18.684C153.232 14.6039 159.034 10.8483 165.038 7.43568C165.625 7.09633 166.222 6.76696 166.819 6.4376C167.068 6.29787 167.337 6.18808 167.576 6.04835C167.815 5.90862 167.516 5.8687 167.675 5.93856C167.863 6.05452 168.028 6.20326 168.163 6.37772C169.028 7.27971 169.804 8.26227 170.482 9.31206C172.473 12.1666 174.255 15.1508 176.017 18.145C176.644 19.2229 177.261 20.2909 177.858 21.3788C178 21.6842 178.159 21.9809 178.336 22.2671C178.625 22.6463 178.117 21.6982 178.197 21.6982C178.276 21.6982 177.689 22.5765 177.659 22.6264C177.033 23.2944 176.32 23.8752 175.539 24.3531L171.886 26.998C168.641 29.3434 165.386 31.6989 162.022 33.8747C160.568 34.8129 159.035 36.4797 157.264 36.7691C155.89 36.9987 154.496 36.6993 153.123 36.8989C151.734 37.1093 150.388 37.5477 149.141 38.1964C148.88 38.3766 148.69 38.6432 148.605 38.9496C148.519 39.2559 148.544 39.5825 148.674 39.8725C148.805 40.1624 149.033 40.3973 149.318 40.5361C149.603 40.6748 149.928 40.7086 150.236 40.6317C151.56 40.2025 152.565 40.6317 153.889 40.7614C155.268 40.9261 156.661 40.9261 158.04 40.7614C160.21 40.452 161.912 39.0647 163.724 37.9269C166.879 35.9307 169.925 33.7449 172.961 31.5691C175.151 30.0022 177.39 28.4751 179.521 26.8383C181.213 25.5308 183.114 23.1055 182.457 20.8498C182.115 19.9261 181.667 19.0453 181.123 18.2249C179.444 15.2306 177.653 12.293 175.748 9.41186C174.802 7.98461 173.817 6.57733 172.762 5.23991C171.707 3.90249 170.323 2.11593 168.412 1.77659C166.501 1.43724 164.55 2.88446 162.977 3.82265C161.404 4.76084 159.911 5.69902 158.398 6.68712C155.167 8.78973 151.991 10.9855 148.872 13.2744C146.722 14.8514 144.124 16.5082 142.462 18.6341C141.606 19.722 141.566 21.1093 141.258 22.4068C141.084 23.1706 140.763 23.8929 140.312 24.5327C139.457 25.7007 138.453 26.751 137.326 27.6567C136.54 28.2954 136.987 29.9922 138.152 29.4832L138.202 29.4632Z" fill="#2E2221"/>
	<path d="M80.927 84.0779C79.7501 81.8804 78.4195 79.7692 76.9455 77.76C76.3674 76.9012 75.7427 76.0748 75.0741 75.2848C74.4442 74.49 73.7225 73.7731 72.9241 73.1489C72.8002 73.0951 72.6639 73.077 72.5303 73.0965C72.3968 73.1161 72.2713 73.1725 72.168 73.2596C72.0646 73.3466 71.9875 73.4608 71.9452 73.5893C71.903 73.7178 71.8972 73.8557 71.9287 73.9873C72.3436 74.8891 72.8506 75.7454 73.4417 76.5424C73.9892 77.3807 74.6362 78.1393 75.2234 78.9378C76.7165 80.9339 78.0802 82.99 79.6231 84.9263C79.7448 85.0916 79.924 85.205 80.1253 85.2439C80.3265 85.2828 80.535 85.2444 80.7093 85.1363C80.8836 85.0282 81.0109 84.8583 81.066 84.6603C81.1211 84.4624 81.0999 84.2509 81.0067 84.0679L80.927 84.0779Z" fill="#2E2221"/>
	<path d="M83.5249 81.4828C82.3317 79.284 80.9845 77.1728 79.4936 75.165C78.918 74.3012 78.2931 73.4714 77.6222 72.6798C76.9895 71.8906 76.268 71.1773 75.4722 70.5539C75.3483 70.5001 75.212 70.482 75.0784 70.5015C74.9449 70.5211 74.8194 70.5775 74.7161 70.6646C74.6127 70.7516 74.5356 70.8658 74.4933 70.9944C74.4511 71.1229 74.4453 71.2607 74.4768 71.3923C74.8914 72.2964 75.402 73.153 75.9997 73.9474C76.5373 74.7758 77.1843 75.5443 77.7815 76.3427C79.2646 78.3389 80.6383 80.3949 82.1712 82.3312C82.2847 82.5165 82.467 82.649 82.6779 82.6995C82.8888 82.7501 83.1112 82.7145 83.296 82.6007C83.4808 82.4869 83.6129 82.3041 83.6633 82.0926C83.7137 81.8811 83.6782 81.6582 83.5647 81.4729L83.5249 81.4828Z" fill="#2E2221"/>
	<path d="M94.1255 76.1433C92.9485 73.9458 91.618 71.8346 90.144 69.8254C89.5657 68.9641 88.9375 68.1377 88.2627 67.3502C87.6363 66.5557 86.9179 65.8387 86.1226 65.2143C85.9987 65.1605 85.8624 65.1424 85.7288 65.1619C85.5953 65.1815 85.4698 65.238 85.3665 65.325C85.2631 65.412 85.186 65.5262 85.1437 65.6548C85.1015 65.7833 85.0957 65.9211 85.1272 66.0527C85.5421 66.9545 86.0491 67.8108 86.6402 68.6078C87.1877 69.4461 87.8247 70.2047 88.4219 71.0031C89.9051 72.9993 91.2787 75.0553 92.8116 76.9916C92.9251 77.1769 93.1074 77.3094 93.3184 77.3599C93.5293 77.4105 93.7516 77.3749 93.9364 77.2611C94.1212 77.1473 94.2533 76.9645 94.3037 76.753C94.3541 76.5415 94.3187 76.3186 94.2052 76.1333L94.1255 76.1433Z" fill="#2E2221"/>
	<path d="M97.1716 73.0691C95.9946 70.8716 94.6641 68.7604 93.19 66.7512C92.6119 65.8924 91.9872 65.0661 91.3187 64.276C90.6887 63.4813 89.967 62.7643 89.1686 62.1401C89.0448 62.0863 88.9084 62.0682 88.7749 62.0877C88.6413 62.1073 88.5158 62.1637 88.4125 62.2508C88.3091 62.3378 88.232 62.452 88.1897 62.5806C88.1475 62.7091 88.1418 62.8469 88.1732 62.9785C88.5881 63.8803 89.0951 64.7366 89.6862 65.5336C90.2337 66.372 90.8807 67.1305 91.468 67.929C92.9611 69.9251 94.3248 71.9812 95.8676 73.9174C95.9893 74.0828 96.1686 74.1962 96.3698 74.2351C96.5711 74.274 96.7796 74.2356 96.9539 74.1275C97.1281 74.0194 97.2555 73.8494 97.3106 73.6515C97.3657 73.4536 97.3445 73.2421 97.2512 73.0591L97.1716 73.0691Z" fill="#2E2221"/>
	<path d="M106.967 67.6996C105.784 65.5089 104.453 63.4014 102.985 61.3918C102.406 60.5279 101.778 59.6981 101.104 58.9066C100.471 58.1174 99.7495 57.4041 98.9536 56.7807C98.456 56.4214 97.6995 57.0502 97.9583 57.6191C98.3804 58.5192 98.8905 59.3751 99.4812 60.1742C100.019 61.0026 100.666 61.7711 101.263 62.5696C102.746 64.5657 104.12 66.6217 105.653 68.558C105.71 68.6498 105.784 68.7294 105.871 68.7923C105.959 68.8553 106.058 68.9003 106.163 68.9248C106.268 68.9494 106.377 68.953 106.483 68.9354C106.589 68.9179 106.691 68.8795 106.782 68.8225C106.874 68.7655 106.953 68.6909 107.016 68.6031C107.079 68.5154 107.124 68.4161 107.148 68.3109C107.173 68.2057 107.176 68.0967 107.159 67.9901C107.141 67.8835 107.103 67.7814 107.046 67.6897L106.967 67.6996Z" fill="#2E2221"/>
	<path d="M110.192 63.9167C109.012 61.7238 107.682 59.6161 106.21 57.6089C105.634 56.7451 105.01 55.9153 104.339 55.1236C103.706 54.3345 102.984 53.6211 102.189 52.9977C102.065 52.944 101.928 52.9258 101.795 52.9454C101.661 52.9649 101.536 53.0214 101.432 53.1084C101.329 53.1955 101.252 53.3097 101.21 53.4382C101.167 53.5667 101.162 53.7045 101.193 53.8361C101.608 54.738 102.115 55.5943 102.706 56.3912C103.254 57.2196 103.901 57.9881 104.488 58.7866C105.981 60.7827 107.345 62.8388 108.888 64.7751C109.004 64.9555 109.187 65.0828 109.396 65.1295C109.605 65.1761 109.824 65.1383 110.006 65.0243C110.188 64.9102 110.317 64.7291 110.367 64.52C110.417 64.3109 110.382 64.0906 110.271 63.9067L110.192 63.9167Z" fill="#2E2221"/>
	<path d="M119.767 57.7785C118.588 55.5824 117.258 53.4713 115.786 51.4607C115.208 50.6018 114.583 49.7755 113.914 48.9854C113.284 48.1907 112.563 47.4738 111.764 46.8496C111.641 46.7958 111.504 46.7776 111.371 46.7972C111.237 46.8167 111.112 46.8732 111.008 46.9603C110.905 47.0473 110.828 47.1615 110.786 47.29C110.743 47.4185 110.738 47.5563 110.769 47.6879C111.184 48.5929 111.691 49.4525 112.282 50.253C112.829 51.0814 113.476 51.8499 114.064 52.6384C115.557 54.6345 116.92 56.6906 118.463 58.6268C118.585 58.7922 118.764 58.9056 118.966 58.9445C119.167 58.9834 119.375 58.945 119.55 58.8369C119.724 58.7287 119.851 58.5588 119.906 58.3609C119.961 58.163 119.94 57.9515 119.847 57.7685L119.767 57.7785Z" fill="#2E2221"/>
	<path d="M122.982 55.1837C121.805 52.9863 120.475 50.8751 119.001 48.8659C118.423 48.0039 117.798 47.1742 117.129 46.3807C116.497 45.5915 115.775 44.8782 114.979 44.2548C114.855 44.201 114.719 44.1829 114.586 44.2025C114.452 44.222 114.326 44.2785 114.223 44.3655C114.12 44.4526 114.043 44.5668 114 44.6953C113.958 44.8238 113.952 44.9616 113.984 45.0932C114.398 45.9973 114.909 46.8539 115.507 47.6483C116.044 48.4767 116.691 49.2452 117.289 50.0437C118.772 52.0398 120.135 54.0958 121.678 56.0321C121.8 56.1975 121.979 56.3109 122.18 56.3498C122.382 56.3887 122.59 56.3503 122.764 56.2421C122.939 56.134 123.066 55.9641 123.121 55.7662C123.176 55.5682 123.155 55.3568 123.062 55.1738L122.982 55.1837Z" fill="#2E2221"/>
	<path d="M133.185 49.8139C131.987 47.6178 130.64 45.5069 129.154 43.4961C128.576 42.6373 127.951 41.8109 127.282 41.0208C126.652 40.2261 125.931 39.5092 125.132 38.885C125.008 38.8312 124.872 38.813 124.738 38.8326C124.605 38.8521 124.479 38.9086 124.376 38.9957C124.273 39.0827 124.196 39.1969 124.153 39.3254C124.111 39.4539 124.105 39.5917 124.137 39.7233C124.552 40.6304 125.062 41.4904 125.66 42.2884C126.197 43.1168 126.844 43.8853 127.442 44.6738C128.925 46.6699 130.298 48.726 131.831 50.6622C131.945 50.8475 132.127 50.98 132.338 51.0306C132.549 51.0811 132.771 51.0456 132.956 50.9317C133.141 50.8179 133.273 50.6351 133.323 50.4236C133.374 50.2121 133.338 49.9892 133.225 49.8039L133.185 49.8139Z" fill="#2E2221"/>
	<path d="M136.788 46.2011C135.606 44.0064 134.276 41.8956 132.806 39.8832C132.228 39.0244 131.603 38.1981 130.935 37.408C130.302 36.6157 129.581 35.899 128.785 35.2721C128.66 35.2174 128.523 35.1988 128.388 35.2187C128.253 35.2385 128.127 35.2959 128.023 35.3844C127.919 35.4728 127.842 35.5887 127.801 35.7189C127.76 35.8491 127.756 35.9882 127.789 36.1205C128.206 37.0234 128.717 37.8798 129.312 38.6756C129.85 39.504 130.497 40.2725 131.094 41.061C132.577 43.0571 133.951 45.1132 135.484 47.0494C135.597 47.2347 135.78 47.3672 135.991 47.4177C136.202 47.4683 136.424 47.4327 136.609 47.3189C136.793 47.2051 136.926 47.0223 136.976 46.8108C137.026 46.5993 136.991 46.3764 136.877 46.1911L136.788 46.2011Z" fill="#2E2221"/>
	<path d="M145.647 40.5717C144.47 38.3743 143.14 36.2631 141.666 34.2539C141.088 33.3951 140.463 32.5687 139.795 31.7786C139.165 30.9839 138.443 30.267 137.645 29.6428C137.521 29.589 137.384 29.5709 137.251 29.5904C137.117 29.61 136.992 29.6664 136.888 29.7535C136.785 29.8405 136.708 29.9547 136.666 30.0832C136.623 30.2118 136.618 30.3495 136.649 30.4811C137.064 31.3882 137.575 32.2482 138.172 33.0462C138.71 33.8746 139.357 34.6431 139.954 35.4316C141.437 37.4278 142.801 39.4838 144.344 41.4201C144.465 41.5854 144.644 41.6988 144.846 41.7377C145.047 41.7766 145.255 41.7382 145.43 41.6301C145.604 41.522 145.731 41.3521 145.786 41.1541C145.842 40.9562 145.82 40.7447 145.727 40.5617L145.647 40.5717Z" fill="#2E2221"/>
	<path d="M149.161 38.5158C147.979 36.3211 146.649 34.2102 145.179 32.198C144.601 31.3391 143.977 30.5128 143.308 29.7227C142.675 28.9304 141.954 28.2137 141.158 27.5869C141.033 27.5321 140.896 27.5135 140.761 27.5334C140.626 27.5532 140.5 27.6106 140.396 27.6991C140.292 27.7875 140.215 27.9035 140.174 28.0336C140.133 28.1638 140.129 28.3029 140.163 28.4352C140.579 29.3381 141.09 30.1945 141.685 30.9903C142.223 31.8187 142.87 32.5872 143.467 33.3757C144.95 35.3719 146.314 37.4379 147.857 39.3642C147.973 39.5446 148.156 39.6719 148.365 39.7186C148.574 39.7652 148.794 39.7274 148.975 39.6134C149.157 39.4993 149.287 39.3182 149.336 39.1091C149.386 38.9 149.352 38.6797 149.241 38.4958L149.161 38.5158Z" fill="#2E2221"/>
	<path d="M150.933 15.4702C150.796 15.127 150.637 14.7935 150.455 14.4721C150.296 14.2026 150.097 13.9531 149.928 13.7036C149.599 13.2445 149.271 12.7953 148.932 12.3562C148.625 11.8924 148.271 11.4611 147.877 11.0687L147.34 10.6095L147.071 10.38C146.896 10.2454 146.691 10.1562 146.474 10.1205C146.366 10.0966 146.255 10.0972 146.148 10.1222C146.04 10.1472 145.94 10.1959 145.854 10.2649C145.768 10.3338 145.699 10.4212 145.651 10.5205C145.603 10.6199 145.578 10.7288 145.578 10.8391C145.575 11.0236 145.609 11.2068 145.677 11.3781C145.737 11.5078 145.817 11.6276 145.886 11.7573L146.245 12.3562C146.543 12.8134 146.876 13.2472 147.24 13.6537C147.409 13.8533 147.569 14.0629 147.738 14.2525L147.857 14.4022L148.156 14.7815C148.335 15.0111 148.514 15.2506 148.703 15.4802C148.96 15.7905 149.243 16.0777 149.549 16.3385C149.68 16.4627 149.848 16.5401 150.026 16.5588C150.205 16.5776 150.385 16.5365 150.539 16.442C150.692 16.3476 150.81 16.205 150.874 16.0365C150.938 15.8679 150.945 15.6829 150.893 15.5101L150.933 15.4702Z" fill="#2E2221"/>
	<path d="M148.016 7.44553C147.656 7.5787 147.307 7.73885 146.971 7.92461C146.712 8.0843 146.463 8.27394 146.214 8.45359C145.757 8.77297 145.309 9.10234 144.861 9.45166C144.396 9.76037 143.965 10.1184 143.577 10.5196L143.129 11.0486C143.047 11.1372 142.971 11.2305 142.9 11.328C142.76 11.4998 142.67 11.7071 142.641 11.9269C142.617 12.0341 142.617 12.1454 142.642 12.2524C142.667 12.3594 142.716 12.4594 142.785 12.5449C142.854 12.6303 142.941 12.699 143.04 12.7458C143.14 12.7926 143.248 12.8163 143.358 12.8152C143.541 12.8244 143.725 12.7938 143.895 12.7253C144.025 12.6655 144.144 12.5856 144.263 12.5157L144.861 12.1564C145.322 11.8466 145.756 11.4959 146.155 11.1085C146.354 10.9488 146.573 10.7891 146.762 10.6094C146.672 10.6992 146.662 10.6992 146.762 10.6094L146.911 10.4897L147.28 10.1902C147.508 10.0006 147.747 9.82095 147.986 9.6413C148.293 9.38154 148.58 9.09787 148.842 8.79293C148.965 8.66037 149.042 8.49099 149.06 8.31072C149.078 8.13046 149.036 7.94925 148.942 7.79486C148.847 7.64306 148.705 7.52669 148.538 7.46359C148.371 7.40048 148.187 7.39413 148.016 7.44553Z" fill="#2E2221"/>
	<path d="M161.255 8.15422C161.145 7.77941 161.002 7.4153 160.827 7.06633C160.677 6.78687 160.508 6.51738 160.349 6.2479C160.06 5.77881 159.772 5.29973 159.463 4.84061C159.182 4.359 158.848 3.91041 158.468 3.5032L157.97 3.01414C157.745 2.76674 157.455 2.58706 157.134 2.49515C157.026 2.4693 156.914 2.46843 156.806 2.49262C156.698 2.51682 156.597 2.56544 156.511 2.63476C156.424 2.70408 156.355 2.79228 156.307 2.89262C156.26 2.99297 156.236 3.10281 156.238 3.21376C156.303 3.78104 156.508 4.32305 156.835 4.79072C157.074 5.21188 157.347 5.61248 157.651 5.98841C157.97 6.42756 158.279 6.87669 158.587 7.32582C158.756 7.56536 158.916 7.82486 159.085 8.07438C159.328 8.39565 159.595 8.69916 159.881 8.98263C160.014 9.09873 160.18 9.16925 160.356 9.1839C160.531 9.19854 160.707 9.15655 160.857 9.06404C161.007 8.97154 161.124 8.83335 161.19 8.66968C161.256 8.506 161.268 8.3254 161.225 8.15422H161.255Z" fill="#2E2221"/>
	<path d="M158.886 0C158.513 0.111768 158.15 0.255341 157.801 0.429163C157.522 0.578873 157.254 0.748556 156.985 0.908247C156.517 1.19769 156.049 1.48713 155.581 1.79653C155.101 2.07833 154.654 2.4131 154.248 2.7946L153.76 3.29363C153.513 3.51956 153.334 3.80983 153.242 4.13201C153.216 4.23992 153.216 4.35231 153.24 4.46061C153.264 4.56891 153.312 4.67025 153.381 4.7569C153.451 4.84355 153.539 4.91321 153.639 4.96059C153.739 5.00797 153.848 5.0318 153.959 5.03026C154.525 4.96489 155.065 4.75908 155.532 4.43143C155.952 4.1922 156.351 3.91844 156.726 3.61301C157.164 3.29363 157.612 2.98422 158.06 2.67482L158.806 2.17578C159.127 1.93147 159.429 1.66465 159.712 1.37733C159.828 1.24422 159.898 1.0775 159.913 0.901485C159.928 0.72547 159.886 0.549378 159.793 0.398917C159.701 0.248456 159.563 0.131501 159.4 0.0651206C159.237 -0.00125974 159.057 -0.01358 158.886 0.0299409V0Z" fill="#2E2221"/>
	<path d="M173.12 28.5349C173.254 28.8453 173.41 29.1455 173.588 29.4332L174.125 30.1917C174.434 30.6409 174.743 31.09 175.031 31.5491C175.305 32.0172 175.618 32.4613 175.967 32.8766L176.435 33.3856C176.504 33.4654 176.574 33.5552 176.654 33.6351C176.823 33.7724 177.02 33.8711 177.231 33.9245C177.719 34.0942 178.077 33.6251 178.117 33.2059C178.093 32.7007 177.943 32.2097 177.679 31.7787C177.555 31.4989 177.405 31.2315 177.231 30.9802C177.092 30.7706 176.942 30.571 176.793 30.3714C176.484 29.9322 176.156 29.5031 175.798 29.0839L175.23 28.3553C174.966 28.0452 174.673 27.7611 174.354 27.5069C174.205 27.3783 174.014 27.3076 173.817 27.3076C173.62 27.3076 173.429 27.3783 173.279 27.5069C173.127 27.6336 173.024 27.8105 172.989 28.0061C172.955 28.2017 172.99 28.4032 173.09 28.5748L173.12 28.5349Z" fill="#2E2221"/>
	<path d="M179.978 31.3495C179.664 31.4819 179.361 31.6387 179.072 31.8186L178.326 32.3476C177.878 32.667 177.43 32.9664 176.972 33.2658C176.505 33.5406 176.062 33.8544 175.648 34.204L175.13 34.6631C175.046 34.731 174.966 34.8044 174.892 34.8827C174.753 35.0511 174.654 35.2491 174.603 35.4616C174.434 35.9606 174.902 36.3199 175.32 36.3598C175.82 36.3347 176.306 36.1836 176.733 35.9207C177.016 35.7989 177.287 35.6484 177.539 35.4715L178.147 35.0324L179.431 34.0343L180.157 33.4554C180.467 33.1903 180.75 32.8962 181.003 32.5771C181.126 32.4328 181.194 32.2503 181.197 32.061C181.2 31.8716 181.138 31.687 181.02 31.5386C180.903 31.3903 180.738 31.2874 180.553 31.2474C180.369 31.2075 180.176 31.233 180.008 31.3195L179.978 31.3495Z" fill="#2E2221"/>
	<path d="M162.33 35.5914C162.464 35.9018 162.62 36.202 162.797 36.4897L163.335 37.2482C163.643 37.6874 163.942 38.1465 164.241 38.5957C164.517 39.0654 164.83 39.5126 165.176 39.9331L165.634 40.4421C165.714 40.5219 165.784 40.6118 165.853 40.6916C166.025 40.825 166.221 40.9233 166.431 40.9811C166.928 41.1507 167.287 40.6816 167.326 40.2624C167.303 39.7572 167.152 39.2662 166.888 38.8352C166.765 38.5522 166.615 38.2815 166.441 38.0267L166.003 37.4279C165.684 36.9888 165.366 36.5596 165.007 36.1404L164.43 35.4018C164.165 35.095 163.872 34.8142 163.554 34.5634C163.406 34.4356 163.217 34.3652 163.021 34.3652C162.826 34.3652 162.637 34.4356 162.489 34.5634C162.336 34.6901 162.233 34.867 162.199 35.0626C162.164 35.2582 162.2 35.4597 162.3 35.6314L162.33 35.5914Z" fill="#2E2221"/>
	<path d="M169.138 38.4559C168.823 38.5843 168.52 38.7413 168.233 38.925L167.486 39.454C167.038 39.7634 166.59 40.0728 166.132 40.3722C165.664 40.6459 165.218 40.9563 164.799 41.3004L164.291 41.7695C164.207 41.8374 164.127 41.9108 164.052 41.9891C163.913 42.1575 163.814 42.3555 163.763 42.568C163.584 43.057 164.052 43.4263 164.47 43.4662C164.974 43.4427 165.464 43.2917 165.893 43.0271C166.178 42.9036 166.448 42.7496 166.7 42.568L167.307 42.1388L168.591 41.1407L169.318 40.5619C169.624 40.2966 169.904 40.0025 170.154 39.6836C170.276 39.5392 170.344 39.3568 170.348 39.1674C170.351 38.978 170.288 38.7934 170.171 38.6451C170.053 38.4967 169.888 38.3938 169.704 38.3539C169.519 38.3139 169.326 38.3394 169.158 38.426L169.138 38.4559Z" fill="#2E2221"/>
</svg>
