<svg width="89" height="72" viewBox="0 0 89 72" fill="none" xmlns="http://www.w3.org/2000/svg">
<path d="M7.46876 30.6865C7.91668 31.6845 8.21531 32.6826 8.70305 33.6008C9.19079 34.5191 9.63871 35.4473 10.0667 36.3955C10.936 38.3118 11.7821 40.2314 12.605 42.1543C14.3569 46.2664 16.4273 50.2288 18.1991 54.3209C18.5276 55.0794 18.7267 55.848 19.0054 56.6065C19.3936 57.6046 18.6072 56.4568 19.1248 56.6763C19.304 56.5865 19.3438 56.5566 19.2443 56.5666H18.8362C17.8716 56.5153 16.9072 56.6713 16.0076 57.0242C15.1081 57.3771 14.2941 57.9186 13.6203 58.6126C12.2931 59.8373 10.8533 60.9334 9.32019 61.8863C7.64793 62.8844 5.91595 63.8126 4.19392 64.7408L7.63799 68.0444C8.58277 66.1575 9.96378 64.5244 11.6659 63.2813C13.3679 62.0382 15.3417 61.2211 17.4227 60.8982C17.7885 60.8886 18.1481 60.8007 18.4773 60.6404C18.8065 60.4801 19.0977 60.251 19.3315 59.9687C19.5652 59.6863 19.7361 59.3571 19.8326 59.0031C19.9291 58.6491 19.949 58.2786 19.8911 57.9163C19.8331 57.5539 19.6986 57.2082 19.4965 56.9023C19.2944 56.5963 19.0295 56.3372 18.7194 56.1423C18.4093 55.9474 18.0613 55.8212 17.6986 55.7721C17.3359 55.7231 16.9669 55.7523 16.6164 55.8579C13.8199 56.4139 11.18 57.5814 8.88487 59.2772C6.58972 60.973 4.69576 63.1554 3.33788 65.669C2.1036 67.9546 4.67172 70.0306 6.78195 68.9527C8.80903 68.0063 10.7799 66.9432 12.6846 65.7688C14.3284 64.5153 15.8941 63.1621 17.3729 61.7166C17.9801 61.2076 18.5574 61.2974 19.3637 61.2176C20.5396 61.1579 21.6538 60.672 22.4992 59.8502C23.8828 58.3731 23.7832 56.1474 23.1462 54.3508C22.282 52.1867 21.3086 50.068 20.2297 48.0031C19.085 45.6177 17.9901 43.2023 16.7757 40.8469C15.7803 38.8507 14.7849 36.7847 13.5506 34.8584C12.9235 33.8603 12.2466 32.8623 11.5598 31.8642C10.8154 30.968 9.97035 30.1609 9.04148 29.4588C8.8639 29.3292 8.64854 29.262 8.42896 29.2679C8.20937 29.2738 7.99789 29.3524 7.82748 29.4914C7.65706 29.6303 7.5373 29.8219 7.48682 30.0363C7.43634 30.2507 7.45798 30.4757 7.54839 30.6765L7.46876 30.6865Z" fill="#5887FF"/>
<path d="M4.05418 67.0463C3.80533 67.3258 3.55649 67.6053 3.27778 67.8648L3.74561 68.3139C4.70285 67.2876 5.55023 66.1637 6.2739 64.9604C6.75169 64.2318 5.92551 63.5231 5.27851 63.6628C4.40256 63.8325 3.74561 64.9803 3.28773 65.659C2.82985 66.3377 2.16293 67.3957 2.62081 68.244C3.38727 69.6413 6.02505 69.3918 7.34892 69.6313C9.40747 70.0138 11.4965 70.2075 13.59 70.2102C17.8005 70.1603 21.8717 69.0225 25.8931 67.9146C27.7963 67.3077 29.743 66.8472 31.7161 66.5373C32.5224 66.4375 33.03 67.0164 33.7069 67.3457C34.6537 67.8099 35.6579 68.1456 36.6931 68.3438L37.1808 63.9523C35.3559 64.092 33.541 64.2916 31.736 64.5511C29.8718 64.6927 28.0271 65.0271 26.2315 65.5492C23.972 66.3876 24.2905 70.1104 26.9283 69.9407C28.7001 69.821 30.4619 69.302 32.2238 69.0125C33.9856 68.7231 35.5981 68.5434 37.2903 68.3837C37.8257 68.3611 38.3354 68.1476 38.7277 67.7817C39.1201 67.4157 39.3692 66.9214 39.4304 66.3876C39.493 65.8527 39.3601 65.3131 39.0563 64.869C38.7525 64.4248 38.2983 64.1063 37.778 63.9723C36.9661 63.8663 36.1763 63.6304 35.4389 63.2736C34.8108 62.874 34.1438 62.5396 33.4481 62.2755C31.8256 61.8464 30.014 62.4053 28.4711 62.7846C25.1167 63.603 21.8617 64.7807 18.5172 65.5592C15.1727 66.3377 11.6291 66.2978 8.1751 66.7269C7.32902 66.8367 6.4929 66.9266 5.64681 66.9765H4.95999C4.62156 66.8667 4.49216 66.9765 4.57179 67.2559C4.42248 67.3757 4.47224 67.4955 4.64146 67.3358C4.90677 66.9445 5.13031 66.5263 5.30837 66.0882C5.43777 65.8985 5.59704 65.7189 5.71648 65.5193C5.83593 65.3197 6.12459 65.2298 5.83592 65.3196L4.84053 64.0222C4.32293 65.0202 2.49141 67.1461 3.42708 68.254C3.46421 68.2858 3.50777 68.3091 3.55474 68.3224C3.60171 68.3357 3.65099 68.3387 3.69921 68.3311C3.74743 68.3235 3.79346 68.3056 3.83412 68.2785C3.87477 68.2514 3.90909 68.2158 3.93474 68.1742C4.12386 67.8448 4.32294 67.5454 4.54193 67.226C4.76091 66.9066 4.36275 66.7968 4.19353 66.9765L4.05418 67.0463Z" fill="#5887FF"/>
<path d="M13.6101 68.4437C14.6381 68.0244 15.6359 67.5342 16.5963 66.9766L17.094 66.767L17.6614 66.5274C18.1392 66.3378 18.6568 66.1581 19.1047 65.9885C20.0404 65.6591 20.996 65.3796 21.9615 65.1401C22.8349 64.8389 23.7558 64.7003 24.6789 64.7309C25.2228 64.705 25.7352 64.4673 26.107 64.0684C26.4788 63.6695 26.6807 63.1409 26.6697 62.595C26.632 62.054 26.3913 61.5473 25.9961 61.177C25.6009 60.8066 25.0805 60.6001 24.5396 60.5989C23.319 60.638 22.1112 60.8601 20.9561 61.2576C19.9607 61.5471 18.9653 61.8964 17.9699 62.2557C16.9746 62.615 15.8298 63.1539 14.7946 63.6729C13.7122 64.1341 12.7054 64.7566 11.8085 65.5194C11.5501 65.8078 11.3918 66.1723 11.3571 66.5584C11.3224 66.9444 11.4131 67.3314 11.6158 67.6615C11.8185 67.9917 12.1222 68.2472 12.4817 68.3899C12.8411 68.5327 13.237 68.5551 13.6101 68.4537V68.4437Z" fill="#5887FF"/>
<path d="M16.238 64.0522C16.8494 63.8533 17.48 63.7195 18.1193 63.653C18.617 63.5532 19.1147 63.4533 19.6223 63.3735C20.8501 63.2137 22.0912 63.1836 23.3252 63.2837C24.4699 63.3635 25.6046 63.5232 26.7394 63.7128C27.2403 63.7952 27.7356 63.9086 28.2225 64.0522C28.5384 64.1423 28.8174 64.3311 29.0189 64.5912C29.2332 64.7956 29.4857 64.9557 29.7618 65.0624C30.0379 65.169 30.3322 65.2201 30.628 65.2127C30.9238 65.2053 31.2152 65.1395 31.4856 65.0192C31.7561 64.8988 32.0002 64.7262 32.2041 64.5113C32.408 64.2963 32.5677 64.0432 32.6741 63.7664C32.7805 63.4896 32.8314 63.1944 32.824 62.8979C32.8166 62.6013 32.751 62.309 32.631 62.0379C32.511 61.7667 32.3389 61.5219 32.1245 61.3175C29.8152 59.3213 26.3512 59.5209 23.4845 59.6307C22.0116 59.6768 20.5474 59.8741 19.1147 60.2196C18.3745 60.4049 17.6617 60.6868 16.9945 61.0579C16.3855 61.467 15.8127 61.9278 15.2824 62.4353C15.1414 62.5955 15.0553 62.7968 15.0369 63.0096C15.0185 63.2225 15.0687 63.4357 15.1802 63.6178C15.2916 63.7999 15.4584 63.9414 15.6559 64.0214C15.8535 64.1014 16.0715 64.1157 16.2778 64.0622L16.238 64.0522Z" fill="#5887FF"/>
<path d="M12.0175 68.1144C12.0175 67.8349 12.0673 67.5654 12.0872 67.2859V67.4456L12.1469 67.3059L11.6791 67.795C11.8146 67.7591 11.9415 67.6964 12.0526 67.6107C12.1637 67.525 12.2567 67.418 12.3261 67.2959C12.3486 67.2588 12.3654 67.2184 12.3758 67.1762C12.4455 67.0264 12.5052 66.8767 12.565 66.717C12.6297 66.4346 12.6297 66.1411 12.565 65.8586L10.1362 66.2479L10.0864 65.9185C10.1314 66.1889 10.1514 66.4629 10.1461 66.737V67.0464C10.1558 67.2337 10.2032 67.417 10.2855 67.5854C10.3413 67.7491 10.4412 67.8942 10.5742 68.0046L10.8429 68.2042C11.1134 68.343 11.426 68.375 11.7189 68.294H11.7686C11.9336 68.2499 12.0844 68.164 12.2066 68.0445C12.3043 67.9883 12.3837 67.9052 12.4356 67.805C12.5538 67.664 12.6359 67.496 12.6745 67.3159C12.734 67.0261 12.734 66.7273 12.6745 66.4376C12.6278 66.0996 12.5546 65.7659 12.4555 65.4395C12.3597 65.1303 12.1496 64.8696 11.8682 64.7108C11.7177 64.6277 11.5522 64.5751 11.3814 64.5563C11.2106 64.5375 11.0377 64.5526 10.8728 64.601C10.5612 64.6967 10.3 64.9119 10.1461 65.1999C10.0633 65.3509 10.0117 65.5172 9.9946 65.6887C9.9775 65.8603 9.99519 66.0335 10.0466 66.198C10.0989 66.4735 10.1929 66.7394 10.3253 66.9865L10.4746 67.1862L10.5443 67.2959C10.7055 67.5322 10.9516 67.6967 11.2311 67.7551L10.7434 67.2859L10.8031 67.4257V67.266C10.818 67.4886 10.818 67.7121 10.8031 67.9347C10.8054 68.0927 10.8698 68.2434 10.9823 68.3539C11.0812 68.4448 11.207 68.5009 11.3406 68.5136C11.4848 68.5323 11.6307 68.4967 11.7502 68.4138C11.8698 68.3308 11.9543 68.2063 11.9876 68.0645L12.0175 68.1144Z" fill="#5887FF"/>
<path d="M9.32978 32.0339C9.54877 32.0838 9.77771 32.3433 9.98675 32.4431C10.1958 32.5429 10.7034 32.7525 11.0518 32.9023C11.2708 33.0235 11.5114 33.1003 11.7599 33.1283C12.0085 33.1563 12.2601 33.1349 12.5004 33.0654C12.7408 32.9959 12.9651 32.8796 13.1606 32.7232C13.3561 32.5668 13.5189 32.3732 13.6398 32.1537C13.7607 31.9342 13.8373 31.6929 13.8653 31.4436C13.8932 31.1944 13.8719 30.9421 13.8025 30.7011C13.7332 30.4602 13.6172 30.2353 13.4612 30.0392C13.3052 29.8432 13.1122 29.6799 12.8933 29.5587C12.4454 29.2393 11.9875 28.9399 11.5296 28.6404L10.0266 32.3733C12.3558 33.2416 14.8243 33.9902 17.2232 34.6688C19.6221 35.3475 21.8518 34.6689 24.3303 34.2696C26.8089 33.8704 29.3073 34.5092 31.7261 34.1399C33.9658 33.8105 35.9964 32.7326 38.1165 31.974C38.4027 31.878 38.6553 31.7015 38.8441 31.4655C39.0329 31.2295 39.1501 30.944 39.1816 30.6431C39.2131 30.3422 39.1575 30.0385 39.0216 29.7684C38.8857 29.4982 38.6752 29.273 38.4152 29.1195C36.1457 27.9518 34.1051 29.0497 31.8953 29.7184C29.6856 30.3871 27.2269 29.8481 24.9276 30.0477C22.6282 30.2473 20.4682 31.3752 18.1987 30.7863C15.76 30.1476 13.4408 29.1095 11.012 28.4408C8.83209 27.842 7.47835 31.1556 9.54877 32.1836C10.0365 32.4232 10.5442 32.6727 11.0219 32.9023L11.8979 29.3191C10.7859 29.2778 9.69004 29.5962 8.77237 30.2274C8.6413 30.3655 8.54874 30.5357 8.50394 30.721C8.45914 30.9063 8.46368 31.1001 8.51711 31.2831C8.57054 31.466 8.67097 31.6317 8.80836 31.7635C8.94575 31.8952 9.11527 31.9885 9.29992 32.0339H9.32978Z" fill="#5887FF"/>
<path d="M37.4995 28.7603C36.511 31.6678 35.8727 34.6834 35.5983 37.743C35.2499 40.817 34.9414 43.9111 34.8418 47.0051C34.6806 53.1631 35.2318 59.319 36.4842 65.3497C36.9521 67.7551 40.8639 66.6672 40.1672 64.2319C38.5646 58.6127 38.4153 52.4845 38.5944 46.6757C38.6807 43.7414 38.84 40.8104 39.0722 37.8827C39.4194 34.9009 39.4728 31.8922 39.2315 28.9C39.2162 28.693 39.129 28.4979 38.9852 28.3486C38.8414 28.1993 38.65 28.1052 38.4442 28.0826C38.2384 28.0601 38.0312 28.1106 37.8587 28.2252C37.6861 28.3399 37.559 28.5115 37.4995 28.7103V28.7603Z" fill="#5887FF"/>
<path d="M11.4799 32.2834C11.5591 33.5469 11.898 34.7804 12.4753 35.9064C12.9631 37.0741 13.4707 38.2119 14.0182 39.3597C15.143 41.815 16.3673 44.2004 17.5717 46.6057C18.7762 49.0111 19.8512 51.1669 20.8565 53.5124C21.3542 54.6702 21.8519 55.8379 22.2302 57.0256C22.451 57.5727 22.6274 58.1368 22.7577 58.7124C22.7577 58.8521 22.7577 59.1116 22.8175 59.2413C22.8772 59.3711 22.8175 59.4509 22.917 59.1515C23.0165 58.8521 23.0564 58.8221 22.8175 59.1515C21.0954 60.978 23.3848 63.3334 25.4155 62.3653C28.2722 61.0079 27.2271 57.3749 26.4108 55.0993C25.3561 52.1965 24.085 49.3773 22.6084 46.6656C21.1751 44.0606 19.7019 41.4656 18.0794 38.9804C17.2731 37.7329 16.4669 36.4852 15.6904 35.2177C15.0316 33.8662 14.1385 32.6428 13.0526 31.6047C12.9109 31.4996 12.7438 31.4341 12.5685 31.415C12.3933 31.3959 12.2161 31.4238 12.0551 31.4959C11.8941 31.568 11.7551 31.6817 11.6523 31.8253C11.5495 31.9689 11.4866 32.1373 11.47 32.3133L11.4799 32.2834Z" fill="#5887FF"/>
<path d="M15.0038 34.4192C15.6707 35.527 16.2579 36.6848 16.9248 37.7927C17.5918 38.9005 18.3184 39.7888 18.9754 40.7869C20.3065 42.9191 21.4362 45.1712 22.3497 47.5139C23.2655 49.7995 24.1414 52.1051 24.9975 54.4207C25.4255 55.5784 25.8436 56.7362 26.1621 57.9339C26.4806 59.1316 26.6498 60.6387 27.1575 61.9262C27.3164 62.3968 27.6174 62.8062 28.0186 63.0976C28.4199 63.3891 28.9016 63.5483 29.3971 63.5531H29.5564L27.9239 62.6648C28.1849 63.0859 28.6015 63.3863 29.0827 63.5003C29.5639 63.6144 30.0706 63.5329 30.492 63.2736C30.904 63.005 31.1969 62.5876 31.31 62.108C31.4231 61.6285 31.3476 61.1238 31.0992 60.6986L30.8703 62.9642L30.9897 62.8345C31.2632 62.5395 31.4556 62.1784 31.5481 61.7865C31.6405 61.3946 31.6299 60.9853 31.5173 60.5988C31.0893 59.3612 31.0196 58.0537 30.6712 56.7961C30.2931 55.5374 29.8445 54.3012 29.3274 53.0932C28.332 50.6379 27.3366 48.1627 26.1521 45.7873C25.017 43.5152 23.6847 41.3476 22.1706 39.3097C21.4041 38.3117 20.5879 37.3136 19.7418 36.3155C18.8957 35.3174 17.751 34.3693 16.8751 33.2115C16.7087 32.9873 16.4645 32.8338 16.1908 32.7811C15.917 32.7285 15.6336 32.7806 15.3962 32.9271C15.1589 33.0737 14.9849 33.304 14.9086 33.5728C14.8323 33.8416 14.8591 34.1293 14.9838 34.3792L15.0038 34.4192Z" fill="#5887FF"/>
<path d="M16.8751 34.6188C17.3773 35.1871 17.7993 35.8218 18.1292 36.5052C18.4378 37.0341 18.8559 37.5032 19.1943 38.0322C19.9309 39.17 20.7272 40.2679 21.424 41.4357C22.8704 43.9836 24.1763 46.6092 25.3359 49.3005C27.8343 54.8398 30.3128 60.3692 32.7714 65.9484C32.966 66.5315 33.375 67.0182 33.9151 67.3094C34.4551 67.6005 35.0856 67.6742 35.678 67.5154C36.2679 67.3334 36.7622 66.9249 37.0531 66.3789C37.3439 65.833 37.4078 65.194 37.2308 64.601C34.8618 58.5128 31.9851 52.6241 29.0487 46.8153C27.7528 44.0856 26.1854 41.4941 24.3703 39.0802C23.466 37.8743 22.4236 36.7789 21.2647 35.8165C20.756 35.3751 20.206 34.9841 19.6223 34.6488C18.9339 34.3453 18.2685 33.9917 17.6316 33.5908C17.0244 33.1716 16.3873 34.1298 16.885 34.5889L16.8751 34.6188Z" fill="#5887FF"/>
<path d="M37.1909 65.4894C37.5691 62.4952 36.3548 59.3412 35.2001 56.6165C33.916 53.6921 33.0501 50.5782 31.557 47.7536C30.0564 45.1677 28.226 42.7888 26.1122 40.6772C25.1865 39.6792 24.2309 38.6811 23.3948 37.6132C22.9981 37.1113 22.6388 36.5809 22.3198 36.0262C22.0327 35.3394 21.7001 34.6725 21.3244 34.0301C21.0426 33.6052 20.6324 33.2822 20.154 33.1083C19.6757 32.9345 19.1543 32.919 18.6665 33.0642C18.1787 33.2093 17.7502 33.5075 17.4439 33.9149C17.1375 34.3223 16.9695 34.8174 16.9645 35.3276C16.875 36.7748 17.8405 38.3218 18.6667 39.4596C19.5267 40.6097 20.5005 41.6698 21.5732 42.6235C23.7608 44.4704 25.7222 46.5711 27.4162 48.8814C29.0984 51.3766 30.0141 54.2611 31.3081 56.9559C31.975 58.3632 32.7614 59.6906 33.4582 61.0779C34.1549 62.4652 34.7223 64.0721 35.3494 65.5792C35.6679 66.3477 37.0914 66.5773 37.2208 65.5293L37.1909 65.4894Z" fill="#5887FF"/>
<path d="M19.8516 34.9682C20.1402 35.1678 20.409 35.6968 20.7375 35.9662C21.066 36.2357 21.4741 36.595 21.8225 36.9643C22.5273 37.6646 23.192 38.4043 23.8133 39.18C25.1923 41.003 26.3987 42.951 27.4166 44.9988C29.6167 49.0465 31.5584 53.2302 33.2297 57.5247L37.8284 55.4387L37.6691 55.2191C36.3054 53.3028 33.0505 54.0115 33.1202 56.5765V56.846C33.1239 57.2135 33.2066 57.5758 33.3627 57.9084C33.5188 58.2409 33.7446 58.5357 34.0247 58.7727C34.3047 59.0098 34.6325 59.1835 34.9857 59.2819C35.3388 59.3804 35.7089 59.4013 36.0708 59.3432C36.4328 59.2852 36.7779 59.1495 37.0828 58.9455C37.3877 58.7415 37.645 58.4739 37.8374 58.1611C38.0297 57.8482 38.1525 57.4975 38.1973 57.1327C38.2422 56.768 38.208 56.3978 38.0971 56.0475C37.3575 53.5308 36.3566 51.0989 35.111 48.7915C33.9563 46.486 32.8016 44.1804 31.438 41.9946C30.1688 39.8636 28.6036 37.9245 26.7895 36.2357C25.935 35.4715 25.0005 34.8022 24.0024 34.2396C23.4731 33.9343 22.9245 33.6643 22.36 33.4312C21.7643 33.2821 21.159 33.1754 20.5484 33.1118C19.3539 32.7824 18.8861 34.3893 19.8018 35.0181L19.8516 34.9682Z" fill="#5887FF"/>
<path d="M34.9117 54.1613C37.8979 50.4185 36.7134 45.1787 34.2249 41.5157C32.9535 39.719 31.4733 38.0806 29.8153 36.6351C28.1701 35.3633 26.7123 33.8646 25.4854 32.1837L22.7281 35.9764C26.604 36.7998 30.0253 39.0642 32.3038 42.3142C32.5709 42.7335 32.9544 43.0655 33.4071 43.2694C33.8597 43.4733 34.3619 43.5402 34.852 43.462C35.3392 43.3883 35.7939 43.1718 36.1587 42.8397C36.5236 42.5076 36.7824 42.0747 36.9025 41.5956C37.3099 39.676 37.0905 37.676 36.2766 35.8912C35.4628 34.1064 34.0978 32.6315 32.3834 31.6847C29.5764 30.2175 27.4065 34.2697 30.0343 35.9564C32.6621 37.6432 35.489 36.5253 37.9078 35.1979L34.4737 31.9242C33.477 33.543 33.0724 35.4588 33.329 37.3437C33.3622 37.9943 33.6428 38.6073 34.1131 39.0567C34.5835 39.506 35.2077 39.7574 35.8573 39.7591C36.5104 39.7382 37.129 39.4607 37.5797 38.9864C38.0304 38.512 38.277 37.879 38.2662 37.224C38.0564 36.2212 38.2343 35.1759 38.7639 34.2996C40.0678 32.0939 37.3803 29.8681 35.3298 31.0159C34.424 31.525 33.339 32.3035 32.3436 31.6847L29.9945 35.9564C30.796 36.3586 31.4356 37.0245 31.8061 37.8428C31.8061 37.9027 31.9654 38.3019 32.0151 38.4816C32.0649 38.6612 32.0848 38.751 32.1147 38.8908C32.1147 38.751 32.1147 38.771 32.1147 38.8908C32.1871 39.374 32.1251 39.8679 31.9355 40.318L36.5442 39.5994C35.1296 37.3985 33.2858 35.5071 31.1237 34.0389C28.9615 32.5707 26.5256 31.5561 23.9624 31.0559C23.4255 30.9376 22.8648 30.9966 22.364 31.2241C21.8633 31.4516 21.4493 31.8353 21.184 32.3181C20.9186 32.8008 20.8161 33.3567 20.8916 33.9027C20.9672 34.4487 21.2169 34.9555 21.6033 35.3476C24.2212 38.1622 27.5757 40.2482 30.0243 43.1625C32.4534 46.0573 33.6573 49.7897 33.3788 53.5625C33.3876 53.7377 33.4469 53.9067 33.5494 54.0489C33.6519 54.1911 33.7933 54.3005 33.9565 54.3638C34.1197 54.4272 34.2977 54.4417 34.469 54.4058C34.6402 54.3699 34.7975 54.285 34.9217 54.1613H34.9117Z" fill="#5887FF"/>
<path d="M79.515 29.5087C78.5805 30.223 77.7349 31.0473 76.9967 31.9639C76.2899 32.962 75.6031 33.9102 75.0059 34.9582C73.8114 36.8845 72.7961 38.9505 71.7609 40.9466C70.5565 43.3021 69.4616 45.7174 68.3169 48.1028C67.2345 50.1666 66.2675 52.2891 65.4203 54.4606C64.7832 56.2871 64.7633 58.4529 66.1768 59.94C67.0416 60.738 68.1671 61.1922 69.3421 61.2175C70.03 61.1691 70.7112 61.379 71.2533 61.8064C71.9301 62.3753 72.4776 63.074 73.1345 63.6728C74.0234 64.4636 74.9719 65.1843 75.9714 65.8286C77.875 67.0051 79.8459 68.0682 81.8741 69.0125C82.3489 69.2616 82.8916 69.3489 83.4203 69.2614C83.949 69.1739 84.4349 68.9163 84.8048 68.5275C85.1746 68.1386 85.4081 67.6397 85.4702 67.106C85.5323 66.5723 85.4195 66.0329 85.1489 65.5691C83.7687 63.0555 81.8507 60.8794 79.5325 59.197C77.2144 57.5145 74.5536 56.3674 71.741 55.8379C71.0832 55.6879 70.3931 55.7982 69.8145 56.146C69.2359 56.4937 68.8135 57.0519 68.6354 57.7043C68.4754 58.3671 68.582 59.0665 68.9322 59.6511C69.2824 60.2357 69.848 60.6586 70.5067 60.8283C72.7083 61.0955 74.8099 61.9041 76.6246 63.1822C78.4393 64.4603 79.9109 66.1682 80.9085 68.1541L84.1834 64.7108C82.4613 63.7826 80.7393 62.8643 79.0571 61.8563C77.5374 60.8862 76.1082 59.7805 74.7869 58.5527C74.1085 57.8565 73.2868 57.3172 72.379 56.9724C71.4712 56.6276 70.4994 56.4857 69.5312 56.5565H69.1729C68.9539 56.4467 69.0534 56.5565 69.4715 56.806C69.4715 56.806 69.4217 56.6264 69.4715 56.4966C69.7661 55.7915 70.0252 55.072 70.2479 54.3408C72.0695 50.2387 74.11 46.2364 75.8719 42.1044C76.6881 40.1681 77.5541 38.2518 78.4201 36.3355C78.8481 35.3374 79.3358 34.4491 79.7937 33.5109C80.2516 32.5728 80.5701 31.5747 81.0081 30.6265C81.0913 30.421 81.1039 30.1935 81.0438 29.9801C80.9838 29.7666 80.8545 29.5792 80.6765 29.4476C80.4984 29.316 80.2817 29.2476 80.0605 29.2533C79.8394 29.2589 79.6264 29.3382 79.4553 29.4787L79.515 29.5087Z" fill="#5887FF"/>
<path d="M84.1236 67.3158C84.3326 67.6352 84.5416 67.9446 84.7308 68.3139C84.7616 68.3515 84.8003 68.3818 84.8442 68.4027C84.8881 68.4235 84.936 68.4342 84.9846 68.4342C85.0331 68.4342 85.0811 68.4235 85.125 68.4027C85.1688 68.3818 85.2076 68.3515 85.2384 68.3139C86.1641 67.226 84.3027 65.0502 83.7951 64.0521L82.7997 65.4095C82.6006 65.3396 83.168 65.9884 83.3074 66.208C83.4467 66.4276 83.7055 66.9965 83.9345 67.3658C84.2729 67.9147 84.0041 67.1162 83.9345 67.0663C83.5211 67.0227 83.1047 67.0161 82.6902 67.0464C81.8242 66.9865 80.9781 66.8767 80.1221 66.7769C76.6582 66.3777 73.1544 66.3776 69.78 65.5692C66.4056 64.7607 63.3199 63.6429 60.0351 62.8444C58.5122 62.4751 56.7703 61.9362 55.1975 62.3354C54.4309 62.6101 53.6965 62.9682 53.0077 63.4034C52.2603 63.7391 51.4695 63.9676 50.6586 64.0821C50.1435 64.2356 49.7026 64.5736 49.42 65.0319C49.1373 65.4901 49.0325 66.0366 49.1257 66.5673C49.2172 67.0934 49.4911 67.5702 49.899 67.9135C50.307 68.2568 50.8227 68.4446 51.3553 68.4437C53.0475 68.6134 54.7397 68.8329 56.4219 69.1124C58.1711 69.4973 59.9384 69.7938 61.7173 70.0007C62.2559 69.9885 62.7714 69.7785 63.1658 69.4105C63.5603 69.0426 63.8064 68.5423 63.8574 68.0045C63.9071 67.4703 63.7679 66.9356 63.4639 66.494C63.16 66.0524 62.7109 65.7321 62.1951 65.5892C60.4436 65.0671 58.6418 64.7326 56.82 64.5911C54.9686 64.3449 53.1105 64.1453 51.2458 63.9922L51.9426 68.3638C52.9786 68.1687 53.9832 67.8329 54.9288 67.3658C55.6753 67.0064 56.1033 66.5373 56.7404 66.5972C58.716 66.8849 60.6639 67.339 62.5634 67.9546C66.6644 69.0825 70.7854 70.2402 75.0755 70.2802C77.1628 70.2653 79.2447 70.0649 81.2967 69.6813C82.6006 69.4717 85.1986 69.6813 85.9551 68.3139C86.4229 67.4556 85.7162 66.3876 85.2583 65.689C84.8004 64.9903 84.1534 63.9024 83.2675 63.6928C83.0935 63.6529 82.9116 63.6649 82.7443 63.7273C82.5769 63.7897 82.4314 63.8997 82.3256 64.044C82.2199 64.1882 82.1584 64.3603 82.1489 64.5391C82.1395 64.7178 82.1823 64.8955 82.2722 65.0502C82.9952 66.239 83.8392 67.3495 84.7905 68.3638L85.2384 67.8947C84.9597 67.6352 84.7109 67.3658 84.462 67.0863C84.4277 67.0426 84.3775 67.0144 84.3224 67.0078C84.2673 67.0013 84.2119 67.0169 84.1684 67.0514C84.1248 67.0858 84.0967 67.1361 84.0901 67.1914C84.0836 67.2466 84.0992 67.3021 84.1335 67.3458L84.1236 67.3158Z" fill="#5887FF"/>
<path d="M76.6484 65.4595C75.7344 64.7001 74.7108 64.0842 73.6124 63.633C72.617 63.1339 71.6216 62.6948 70.5566 62.2856C69.5237 61.8728 68.4705 61.513 67.4012 61.2077C66.2437 60.8103 65.0311 60.5981 63.8078 60.5789C63.2561 60.5921 62.7321 60.8246 62.3513 61.2251C61.9705 61.6257 61.764 62.1615 61.7772 62.7148C61.7904 63.268 62.0222 63.7933 62.4217 64.1751C62.8212 64.557 63.3556 64.7641 63.9073 64.7508C63.987 64.7508 64.7733 64.7508 64.3951 64.7508C64.6697 64.7853 64.9423 64.8353 65.2113 64.9006C65.6891 64.9904 66.1569 65.1002 66.6248 65.2199C67.6202 65.4595 68.5359 65.7389 69.4716 66.0683C70.3231 66.3518 71.1573 66.6851 71.97 67.0664C72.9308 67.6176 73.9286 68.1011 74.9562 68.5136C76.718 69.0326 77.8229 66.6971 76.6185 65.5194L76.6484 65.4595Z" fill="#5887FF"/>
<path d="M73.433 62.5351C72.8932 62.0223 72.3178 61.5486 71.7109 61.1178C71.0853 60.7528 70.4165 60.4678 69.7201 60.2694C68.2143 59.8743 66.6676 59.6566 65.1115 59.6207C62.1253 59.4909 58.731 59.3612 56.352 61.3773C56.1481 61.5922 55.9884 61.8454 55.8821 62.1222C55.7757 62.399 55.7248 62.6941 55.7321 62.9907C55.7471 63.5897 55.9987 64.1581 56.4317 64.5711C56.8646 64.984 57.4434 65.2076 58.0408 65.1926C58.6381 65.1776 59.2051 64.9254 59.6169 64.4913C59.7055 64.3874 59.802 64.2907 59.9056 64.2018C59.7364 64.3415 59.7563 64.3415 59.9653 64.2018C60.1743 64.0621 60.2141 64.0721 60.025 64.2018L60.4331 64.0521C60.9157 63.9071 61.408 63.797 61.9063 63.7228H62.0755L62.5732 63.6529L63.5686 63.5231C64.1559 63.4533 64.7332 63.3934 65.3205 63.3534C66.4909 63.2519 67.6688 63.2753 68.8342 63.4233C69.3917 63.5131 69.9491 63.6329 70.5065 63.7327C71.1374 63.7968 71.7587 63.9341 72.3579 64.1419C73.2737 64.5611 74.3487 63.3335 73.4728 62.6149L73.433 62.5351Z" fill="#5887FF"/>
<path d="M77.6533 67.9646C77.6384 67.7419 77.6384 67.5185 77.6533 67.2959L77.5737 67.6153L77.6334 67.4855L77.2253 67.8049C77.3463 67.7873 77.4619 67.743 77.5637 67.6751C77.7084 67.587 77.8283 67.4633 77.9121 67.3158L77.9718 67.226C78.0149 67.1516 78.0649 67.0814 78.1212 67.0164L77.942 67.2559C78.0949 67.0836 78.2072 66.8789 78.2705 66.6571C78.275 66.6073 78.275 66.5572 78.2705 66.5074L78.36 66.208C78.4035 66.0401 78.4126 65.8652 78.387 65.6937C78.3613 65.5222 78.3014 65.3576 78.2107 65.2099C78.0403 64.9324 77.7691 64.732 77.4542 64.651C77.2868 64.6075 77.1123 64.5983 76.9413 64.624C76.7703 64.6497 76.6062 64.7098 76.4589 64.8007L76.21 65.0003C76.063 65.1569 75.96 65.3498 75.9114 65.5592C75.777 66.0432 75.7133 66.5441 75.7223 67.0464C75.7201 67.2879 75.7827 67.5256 75.9035 67.7345C76.0243 67.9434 76.1989 68.116 76.4091 68.2341L76.7674 68.3838C77.0148 68.4429 77.275 68.4147 77.504 68.3039L77.6931 68.2241L77.4045 68.3538C77.6263 68.2833 77.8277 68.16 77.9917 67.9945C78.2384 67.7213 78.3734 67.365 78.37 66.9965V66.717C78.3551 66.5243 78.3551 66.3308 78.37 66.1381V66.4774C78.3645 66.3744 78.3645 66.2711 78.37 66.168L75.9612 65.5592C75.9612 65.7589 75.9014 65.9584 75.8815 66.1581C75.8368 66.3383 75.8368 66.5268 75.8815 66.707C75.907 66.7884 75.9369 66.8684 75.9711 66.9465L76.0308 67.0863C76.0815 67.2481 76.1703 67.3953 76.2896 67.5154C76.3842 67.604 76.496 67.672 76.6181 67.7151L76.2996 67.3158C76.2996 67.3158 76.2996 67.4057 76.2996 67.4556V67.2859C76.2996 67.5154 76.2996 67.735 76.2996 67.9546C76.3097 68.1156 76.3768 68.2678 76.4887 68.3838C76.6058 68.4899 76.7589 68.5471 76.9167 68.5434C76.996 68.5422 77.0743 68.5251 77.1469 68.4931C77.2195 68.4612 77.2851 68.4151 77.3398 68.3575C77.3944 68.2999 77.4371 68.2319 77.4653 68.1576C77.4935 68.0833 77.5067 68.0041 77.504 67.9247L77.6533 67.9646Z" fill="#5887FF"/>
<path d="M79.7041 30.1974C78.8381 29.4189 77.6238 29.4489 76.5189 29.3291L77.1161 33.0719C77.7731 32.7725 78.4101 32.4631 79.0571 32.1437C81.1574 31.1456 79.5449 27.8919 77.4048 28.4807C74.986 29.1495 72.6667 30.2074 70.228 30.8262C67.9884 31.3951 65.7289 30.2474 63.4892 30.0677C61.2496 29.8881 58.7711 30.3871 56.5215 29.6984C54.2719 29.0097 52.3408 28.0017 50.0415 29.1694C48.7375 29.8381 49.3447 31.6047 50.4894 32.0139C52.5698 32.7425 54.5805 33.8704 56.7902 34.1698C59.2488 34.4992 61.7672 33.9303 64.186 34.2896C66.6048 34.6489 68.8444 35.3874 71.4026 34.6588C73.7915 33.9802 76.27 33.2316 78.5993 32.3633L76.9569 28.7003C76.499 28.9997 76.0311 29.2992 75.5832 29.6186C73.9408 30.7863 75.0258 33.9602 77.136 33.0719C77.584 32.8823 78.0617 32.7126 78.4898 32.493C78.7478 32.3218 79.0172 32.1684 79.296 32.0339C79.4767 31.9763 79.6393 31.8726 79.768 31.733C79.8967 31.5934 79.987 31.4227 80.0302 31.2376C80.0733 31.0525 80.0678 30.8593 80.0141 30.677C79.9605 30.4946 79.8605 30.3294 79.724 30.1974H79.7041Z" fill="#5887FF"/>
<path d="M49.4942 28.4207C49.2506 31.3415 49.2806 34.2787 49.5838 37.1938C49.8027 40.1881 50.0018 43.1823 50.1013 46.2364C50.2905 52.1251 50.1013 58.3231 48.4988 64.0321C47.8219 66.4275 51.7537 67.3956 52.2415 64.9603C53.4692 58.9266 54.0002 52.7712 53.8241 46.6157C53.7246 43.6215 53.4359 40.6272 53.0875 37.633C52.8159 34.4988 52.1676 31.4089 51.1565 28.4307C50.8877 27.7121 49.5738 27.5225 49.4643 28.4307L49.4942 28.4207Z" fill="#5887FF"/>
<path d="M75.613 31.4749C74.5957 32.3896 73.7526 33.4819 73.1245 34.6987C72.2983 36.0261 71.4722 37.3536 70.6161 38.691C68.9538 41.2461 67.4209 43.891 65.9577 46.5658C64.5184 49.2139 63.2709 51.9624 62.225 54.79C61.3291 57.1853 60.1048 60.968 63.1607 62.4252C63.6037 62.6551 64.1141 62.7185 64.5997 62.604C65.0853 62.4895 65.514 62.2047 65.8085 61.801C66.1029 61.3973 66.2437 60.9012 66.2054 60.4025C66.167 59.9039 65.9521 59.4354 65.5994 59.0817C65.5098 58.9918 65.679 59.3212 65.679 59.3212C65.6841 59.1468 65.7041 58.9732 65.7387 58.8022C65.8511 58.2439 66.011 57.6963 66.2165 57.1654C66.6147 56.0176 67.0626 54.8997 67.5404 53.7819C68.6054 51.3366 69.78 48.9313 70.9745 46.5459C72.1689 44.1605 73.3435 41.9048 74.4285 39.5593C74.956 38.4115 75.4935 37.2538 75.9813 36.086C76.5938 34.9134 76.9533 33.6245 77.0364 32.3033C77.0161 32.1463 76.9587 31.9963 76.8691 31.8659C76.7796 31.7354 76.6603 31.6282 76.5212 31.5531C76.3821 31.478 76.2272 31.4372 76.0693 31.434C75.9114 31.4309 75.755 31.4654 75.613 31.5348V31.4749Z" fill="#5887FF"/>
<path d="M71.7412 33.1117C70.8267 34.2215 69.8531 35.281 68.8247 36.2856C67.9143 37.3016 67.0571 38.3643 66.2566 39.4695C64.5955 41.7647 63.1462 44.2067 61.9266 46.7654C60.6923 49.2905 59.6571 51.9554 58.6518 54.5803C58.1295 55.868 57.7392 57.2057 57.4872 58.5726C57.1985 60.2594 56.4918 61.6667 57.7261 63.1239L57.3777 60.8682C56.3823 63.054 59.6472 64.8605 60.6525 62.6747L59.0699 63.6728H59.259C59.7521 63.6456 60.2245 63.4646 60.61 63.155C60.9955 62.8454 61.2749 62.4228 61.409 61.9461C61.857 60.7185 61.9864 59.421 62.3148 58.1534C62.6433 56.8859 63.0315 55.798 63.4595 54.6402C64.3255 52.2947 65.2114 49.9393 66.1571 47.6537C67.0603 45.3652 68.1628 43.1609 69.4518 41.0664C70.0988 40.0683 70.8553 39.0702 71.5023 38.0722C72.1493 37.0741 72.8362 35.6868 73.4931 34.529C74.1501 33.3712 72.4977 32.1935 71.7213 33.2215L71.7412 33.1117Z" fill="#5887FF"/>
<path d="M70.865 33.6208C69.7004 34.4193 68.4462 34.8784 67.3314 35.7667C66.1799 36.7083 65.144 37.7837 64.2457 38.9705C62.3738 41.4651 60.7533 44.1397 59.4081 46.9551C56.4219 52.7838 53.6248 58.6625 51.2558 64.7508C50.2604 67.1961 54.5108 68.8728 55.5559 66.4475C58.0145 60.7784 60.5329 55.1493 63.1109 49.4802C64.2855 46.8653 65.4899 44.2403 66.9133 41.7551C67.63 40.5075 68.4661 39.3498 69.2525 38.1421C69.5909 37.6131 69.9891 37.144 70.3275 36.5851C70.6843 35.8648 71.1326 35.1938 71.6614 34.589C71.7621 34.4745 71.8194 34.328 71.8231 34.1753C71.8268 34.0227 71.7767 33.8736 71.6815 33.7544C71.5864 33.6351 71.4523 33.5533 71.303 33.5234C71.1537 33.4935 70.9986 33.5174 70.865 33.5909V33.6208Z" fill="#5887FF"/>
<path d="M53.1171 65.739C53.7243 64.2818 54.2419 62.7947 54.9288 61.3774C55.6156 59.9601 56.3522 58.7824 56.9992 57.455C58.3728 54.6304 59.3284 51.5763 61.0703 48.9414C62.7439 46.6083 64.7036 44.4958 66.9033 42.6535C68.8941 40.8769 71.7708 38.0723 71.5717 35.1878C71.4522 33.3514 68.8443 31.8842 67.5204 33.6209C66.6744 34.7288 66.3061 36.0961 65.46 37.2239C64.6139 38.3518 63.6981 39.3099 62.7724 40.318C60.6196 42.4759 58.7285 44.8813 57.1385 47.4842C55.6255 50.189 54.8193 53.2431 53.585 56.0776C52.3507 58.9122 50.9074 62.1958 51.2956 65.2899C51.4051 66.1283 52.709 66.7271 53.1171 65.739Z" fill="#5887FF"/>
<path d="M67.8689 33.1119C67.2642 33.1707 66.6651 33.2775 66.0772 33.4313C65.5596 33.6508 65.0818 33.9103 64.5443 34.1798C63.5377 34.7388 62.5962 35.4083 61.7373 36.176C59.8673 37.9002 58.2608 39.8911 56.9693 42.0846C55.6454 44.2105 54.5107 46.4562 53.3859 48.7018C52.1264 51.0688 51.1252 53.5651 50.3997 56.1475C50.2993 56.503 50.2773 56.8761 50.3353 57.241C50.3932 57.6058 50.5297 57.9537 50.7352 58.2603C50.9407 58.567 51.2104 58.8251 51.5254 59.0168C51.8404 59.2084 52.1933 59.329 52.5595 59.3701C52.9256 59.4112 53.2964 59.3719 53.6459 59.2549C53.9954 59.1379 54.3153 58.946 54.5833 58.6925C54.8514 58.439 55.0613 58.1301 55.1983 57.7871C55.3353 57.4441 55.3961 57.0754 55.3767 56.7064V56.4369C55.359 55.8996 55.1681 55.3824 54.8325 54.9631C54.4969 54.5438 54.0347 54.245 53.5153 54.1114C52.9886 53.9985 52.4398 54.0532 51.9456 54.2679C51.4513 54.4826 51.0362 54.8466 50.7581 55.3091L50.5988 55.5387L55.2971 57.3851C56.9647 53.17 58.8929 49.0632 61.0703 45.0888C62.0023 43.2069 63.0912 41.4073 64.3253 39.7091C64.9544 38.8686 65.6395 38.0717 66.3758 37.3238C66.7418 36.9317 67.1307 36.5617 67.5404 36.2159C67.7295 36.0562 67.9386 35.9165 68.1078 35.7468C68.277 35.5771 68.496 35.138 68.705 34.9982C68.9519 34.8871 69.1445 34.6821 69.2407 34.4285C69.3368 34.1749 69.3285 33.8933 69.2176 33.6458C69.1068 33.3983 68.9024 33.2051 68.6494 33.1087C68.3965 33.0123 68.1157 33.0206 67.8689 33.1318V33.1119Z" fill="#5887FF"/>
<path d="M55.138 53.5324C54.8644 49.7345 56.0987 45.982 58.5721 43.0926C61.0905 40.1882 64.3752 38.1022 66.9931 35.2677C67.3703 34.8568 67.6059 34.3353 67.665 33.78C67.7241 33.2248 67.6037 32.6651 67.3216 32.1837C67.013 31.7239 66.5691 31.372 66.0517 31.177C65.5343 30.982 64.9692 30.9536 64.435 31.0958C61.857 31.6072 59.41 32.64 57.2434 34.1312C55.0768 35.6224 53.236 37.5407 51.8333 39.769L56.4718 40.2581C56.2604 39.401 56.3546 38.4967 56.7382 37.7019C57.1218 36.9072 57.7706 36.272 58.5721 35.9064L56.014 31.7545C55.148 32.3234 53.9037 31.4451 53.0278 30.966C52.556 30.7513 52.0288 30.6908 51.5208 30.7932C51.0128 30.8956 50.5499 31.1557 50.1975 31.5366C49.8451 31.9175 49.6213 32.3999 49.5576 32.9155C49.4938 33.4311 49.5935 33.9537 49.8425 34.4093C50.2724 35.0887 50.4553 35.896 50.3602 36.6949C50.2192 37.3292 50.3265 37.9935 50.6599 38.5507C50.9933 39.1079 51.5274 39.5154 52.1519 39.6891C52.7864 39.8405 53.4549 39.736 54.0134 39.3982C54.5718 39.0603 54.9757 38.5161 55.138 37.8826C55.4985 35.7921 55.0956 33.6413 54.0033 31.8243L50.7284 35.2677C53.1871 36.6151 56.0438 37.5533 58.6119 35.8965C59.161 35.5563 59.5529 35.0114 59.7013 34.3816C59.8497 33.7517 59.7425 33.0885 59.4033 32.538C59.064 31.9874 58.5206 31.5945 57.8924 31.4457C57.2643 31.2969 56.6029 31.4044 56.0538 31.7445C52.4206 33.6408 50.9375 37.8427 51.6641 41.7252C52.0025 43.5018 54.8294 44.2104 55.9244 42.7233C58.5423 39.2001 61.608 36.8247 65.938 35.9364L62.9518 32.2835C61.7565 33.9112 60.3391 35.3625 58.7413 36.5951C57.0864 38.0362 55.6063 39.6676 54.3317 41.4557C51.8632 45.0188 50.5194 50.3286 53.4757 54.0115C53.9933 54.6403 55.1878 54.4906 55.138 53.5125V53.5324Z" fill="#5887FF"/>
<path d="M51.0361 29.6672C51.1049 29.6672 51.0951 29.5686 51.0361 29.5686C50.9772 29.5686 50.9772 29.6672 51.0361 29.6672Z" fill="#2E2221"/>
<path d="M49.514 27.0236C51.2006 29.0737 53.5368 30.4827 56.1334 31.0158C58.9198 31.6124 61.7557 31.9465 64.6042 32.0139C70.4826 32.389 76.3708 31.4515 81.8443 29.2692C83.4369 28.5905 82.6406 25.9457 81.058 26.6643C76.0159 28.7599 70.5872 29.7567 65.1317 29.5886C62.5536 29.6041 59.979 29.3937 57.4373 28.9598C54.77 28.5355 52.1654 27.7812 49.6832 26.7142C49.6501 26.6979 49.6123 26.6936 49.5764 26.7021C49.5405 26.7107 49.5086 26.7314 49.4863 26.7609C49.464 26.7904 49.4526 26.8267 49.454 26.8637C49.4554 26.9007 49.4696 26.936 49.4941 26.9637L49.514 27.0236Z" fill="#2E2221"/>
<path d="M39.4006 26.774C37.0229 27.7922 34.5339 28.5258 31.9849 28.9598C29.3839 29.433 26.7448 29.6635 24.1014 29.6485C18.6994 29.8465 13.3174 28.8869 8.31453 26.8339C6.71195 26.1153 5.39804 28.5307 7.00062 29.2193C12.5031 31.4574 18.4315 32.4459 24.3602 32.1138C27.1418 32.032 29.9104 31.6979 32.6319 31.1157C35.3634 30.6253 37.8325 29.1787 39.5997 27.0335C39.6314 27.0084 39.6518 26.9716 39.6564 26.9314C39.6611 26.8911 39.6496 26.8507 39.6246 26.8189C39.5995 26.7872 39.5628 26.7667 39.5227 26.762C39.4826 26.7573 39.4422 26.7688 39.4105 26.794L39.4006 26.774Z" fill="#2E2221"/>
<path d="M0.520752 67.7449C0.377557 67.8228 0.255616 67.9347 0.16563 68.0709C0.075644 68.2071 0.0203708 68.3633 0.00464741 68.5259C-0.011076 68.6885 0.0132381 68.8524 0.0754561 69.0034C0.137674 69.1544 0.235883 69.2877 0.361486 69.3917C0.886251 69.8651 1.5298 70.186 2.22288 70.32C4.85454 70.9034 7.54062 71.2045 10.2358 71.2182C17.532 71.4478 24.8581 71.0785 32.1344 70.829C34.6727 70.7491 37.4896 70.9687 39.789 69.6812C39.9802 69.5532 40.1309 69.373 40.2233 69.1619C40.3156 68.9508 40.3458 68.7175 40.3102 68.4898C40.2746 68.262 40.1748 68.0493 40.0224 67.8766C39.8701 67.7039 39.6717 67.5786 39.4506 67.5153C37.547 67.0663 35.5715 67.0153 33.6474 67.3656C30.4721 67.685 27.2769 67.8746 24.0817 68.0643C17.6515 68.4535 11.1416 68.8228 4.65164 68.6033C3.71099 68.5841 2.77291 68.4974 1.84463 68.3437L1.37679 68.244C1.43651 68.244 1.17771 68.1541 1.31707 68.244C1.21753 68.1841 1.31707 68.2439 1.31707 68.2938C1.31707 68.3438 1.2673 68.1841 1.1578 68.0443C0.859185 67.685 1.29716 68.4835 1.31707 68.3737C1.33844 68.2654 1.32852 68.1533 1.28845 68.0505C1.24839 67.9478 1.17987 67.8586 1.09096 67.7936C1.00205 67.7286 0.896437 67.6904 0.786596 67.6835C0.676756 67.6767 0.567249 67.7014 0.470979 67.7549L0.520752 67.7449Z" fill="#2E2221"/>
<path d="M86.8309 68.7132C86.8309 68.5734 87.0101 68.5634 87.0997 68.264C87.0997 68.4137 86.5223 68.823 86.8906 68.5135C86.9703 68.4537 86.8906 68.5834 86.811 68.5135C86.9305 68.5135 86.6617 68.5136 86.5422 68.5834C85.7857 68.7191 85.0208 68.8025 84.2528 68.8329C81.4658 69.0026 78.6587 68.8329 75.8716 68.8329C69.0632 68.7231 62.195 68.4237 55.4163 67.755C53.1867 67.5254 50.8475 67.1262 48.6676 67.8249C48.4479 67.8972 48.2536 68.0315 48.1079 68.2117C47.9623 68.3918 47.8715 68.6101 47.8463 68.8406C47.8211 69.0712 47.8626 69.3041 47.9659 69.5115C48.0692 69.719 48.2298 69.8923 48.4287 70.0107C50.4195 71.0886 52.7487 71.0088 54.9087 71.0986C58.3926 71.1784 61.8764 71.3481 65.3503 71.428C71.9398 71.5777 78.7583 71.9969 85.2582 70.7492C86.1561 70.6474 87.0095 70.3024 87.7268 69.7512C87.9535 69.5589 88.108 69.2948 88.1647 69.0026C88.21 68.8005 88.1817 68.5888 88.0849 68.4058C87.9882 68.2228 87.8294 68.0804 87.6372 68.0045C87.1793 67.725 86.7314 68.2141 86.8209 68.6633L86.8309 68.7132Z" fill="#2E2221"/>
<path d="M71.3729 51.197C70.8055 52.5843 70.2481 53.9717 69.7405 55.3889C69.0537 57.3851 72.2389 58.6027 73.1347 56.7263C75.663 51.4465 77.7036 45.8872 79.8735 40.4477C81.486 36.4022 83.0621 32.3433 84.6016 28.2711C83.4845 27.5987 82.2198 27.2115 80.9187 27.1433C77.8728 35.2277 74.6577 43.2323 71.3729 51.197Z" fill="#2E2221"/>
<path d="M18.8859 55.3289C16.9648 49.8495 14.5361 44.5197 12.3661 39.1301C11.0024 35.7367 9.6686 32.2933 8.38454 28.83C7.25587 29.4705 6.01625 29.8904 4.73145 30.0676C7.61808 37.613 10.6341 45.1086 13.69 52.5742C14.2872 54.0114 14.8944 55.4287 15.5613 56.836C16.4671 58.7124 19.5727 57.2851 18.8859 55.3289Z" fill="#2E2221"/>
<path d="M49.2448 15.1463C50.779 32.6113 51.1846 50.1576 50.4592 67.6751V67.7649C50.4592 68.1342 50.4592 68.5035 50.4592 68.8628L50.3796 70.2601L49.1951 70.2102C49.0256 70.2128 48.8573 70.1815 48.7001 70.1181C48.5428 70.0547 48.3998 69.9604 48.2793 69.8409C48.0303 69.6062 47.8807 69.2847 47.8612 68.9426C48.0404 63.9023 48.1698 58.8621 48.2196 53.8118C48.3258 44.889 48.1731 35.9762 47.7617 27.0733C47.5527 22.6718 47.2341 18.2603 47.0749 13.8588C46.9156 9.45728 46.7762 4.87611 46.5374 0.384772C46.5374 0.00550319 47.1545 -0.104291 47.2142 0.284958C47.9409 5.16555 48.8467 10.1559 49.2448 15.1463Z" fill="#2E2221"/>
<path d="M41.4015 15.346C40.2867 33.1617 40.0876 50.9673 40.6848 68.803C40.6901 68.9738 40.6611 69.144 40.5995 69.3035C40.538 69.4629 40.4451 69.6084 40.3265 69.7312C40.0901 69.9775 39.7708 70.1269 39.4306 70.1503L38.2063 70.2003L38.057 67.6252C37.8447 63.0074 37.7418 58.3897 37.7484 53.7719C37.7086 44.8491 37.9309 35.9363 38.4153 27.0335C38.6542 22.5222 38.913 17.9709 39.4107 13.5395C39.9084 9.10802 40.6251 4.67653 41.3318 0.255057C41.3916 -0.134193 42.0187 -0.0543298 42.0187 0.33492C41.7698 5.30534 41.72 10.3456 41.4015 15.346Z" fill="#2E2221"/>
</svg>
