<svg width="107" height="71" viewBox="0 0 107 71" fill="none" xmlns="http://www.w3.org/2000/svg">
<path d="M71.3016 58.627C73.2924 60.164 76.2786 59.4753 78.6177 59.146C82.0319 58.6369 85.4461 57.9483 88.8205 57.2297L85.8343 54.4151C85.695 55.1037 85.5457 55.7824 85.3964 56.4711L89.7064 55.2135C85.1774 50.0435 76.0994 49.7241 70.4854 53.0976C67.1707 55.0938 68.833 60.3037 72.6056 60.2439C75.8107 60.184 79.0059 60.1141 82.2111 60.2439C84.9484 60.3636 87.407 60.7429 89.4277 58.5671C91.9958 55.8224 89.786 51.9298 86.3918 51.7003C83.7772 51.514 81.156 51.3942 78.5282 51.341C72.8743 51.2212 73.0834 60.5133 78.7372 60.154C81.3551 59.9744 83.9729 59.8746 86.5908 59.8346L83.6047 52.9579C84.4806 51.84 82.8681 52.4688 82.0717 52.5087C81.0067 52.5087 79.9416 52.6185 78.8765 52.6285C76.7365 52.6285 74.5964 52.5487 72.4662 52.5087L74.5864 59.655C77.4432 58.0481 83.9232 57.4492 86.7103 59.3755C88.3726 60.5133 90.6222 58.8565 90.5624 57.03C90.5624 56.3214 90.5624 55.6227 90.5027 54.9141C90.4886 54.5579 90.3943 54.2095 90.227 53.8949C90.0597 53.5804 89.8236 53.3078 89.5364 53.0976C89.2493 52.8874 88.9184 52.745 88.5687 52.6811C88.2189 52.6171 87.8592 52.6333 87.5165 52.7283C84.4692 53.9732 81.3225 54.9581 78.1101 55.6727C75.8207 56.1817 73.1331 56.3713 71.3315 57.9582C71.2875 58.001 71.2526 58.0522 71.2287 58.1088C71.2049 58.1654 71.1926 58.2262 71.1926 58.2876C71.1926 58.349 71.2049 58.4098 71.2287 58.4664C71.2526 58.523 71.2875 58.5742 71.3315 58.617L71.3016 58.627Z" fill="#E24B4B"/>
<path d="M4.67002 5.75894C4.17232 9.23225 3.53527 12.6556 3.06744 16.129C2.86836 17.646 3.51537 19.5124 5.26726 19.8019C11.6776 20.8 17.9187 18.7439 24.1797 17.7059C31.2669 16.5382 38.4436 16.3086 45.4512 18.0453L46.357 9.86104C40.3847 9.25221 34.4123 10.3002 28.44 10.0008C22.0097 9.69136 15.6492 7.92477 9.43793 6.32785L12.4241 10.0407L12.3047 8.25413L10.5627 11.5977C17.9087 7.14627 29.087 11.8173 36.9306 13.4541C45.5607 15.2706 54.2803 17.9854 63.0597 18.9136C70.8934 19.752 78.9859 18.7539 86.8396 18.9835C93.4689 19.1731 99.2123 17.8656 101.77 11.1086C102.766 8.48369 100.078 5.9386 97.6495 5.94858C89.6864 5.94858 82.0915 7.46566 74.2379 8.18427C67.3896 8.80308 59.9441 6.68716 53.3347 8.92286C47.7704 10.8092 50.5277 19.762 55.9625 17.656C59.1179 16.4384 62.1339 16.9075 65.4187 17.0672C69.0313 17.1905 72.6479 17.0035 76.2287 16.5082C83.4254 15.59 90.5424 13.9132 97.8386 14.2526L94.1059 8.09445C92.5829 11.6077 87.0187 10.3002 83.9629 10.2203C80.3795 10.1205 76.806 10.1605 73.2226 10.2902C65.2595 10.5797 58.0528 9.29213 50.249 7.72515C36.6619 5.02036 20.9845 -0.329327 7.44715 4.73092C6.66275 4.99655 5.98045 5.50076 5.49519 6.17338C5.00993 6.84599 4.74583 7.65356 4.73969 8.4837L4.66007 10.2703C4.69511 11.1272 5.00444 11.9501 5.54227 12.617C6.08011 13.2839 6.81785 13.7594 7.64624 13.9731C13.8948 16.0419 20.3444 17.4404 26.8871 18.1451C33.4766 18.704 40.0363 17.5163 46.6158 18.205C51.3439 18.694 51.9212 11.1186 47.5216 10.0207C40.8219 8.42553 33.8674 8.22175 27.0862 9.42189C20.228 10.5098 12.8422 14.2027 5.94412 13.8733L9.03978 16.8675C9.05363 13.1354 8.67663 9.41213 7.91499 5.75894C7.60641 4.16202 4.92882 4.24187 4.68993 5.83879L4.67002 5.75894Z" fill="#E24B4B"/>
<path d="M4.37168 8.5236C4.63653 8.53223 4.89854 8.46655 5.12818 8.33396C5.37102 8.2483 5.58722 8.10034 5.75526 7.9048C5.9412 7.7263 6.0783 7.50291 6.15343 7.25604C6.27317 7.01866 6.32485 6.75262 6.30273 6.48753L6.21315 5.95855C6.11345 5.63189 5.9318 5.33635 5.6856 5.10021L5.27748 4.80078C4.97555 4.62575 4.63065 4.53929 4.28209 4.55127C4.01768 4.54665 3.75674 4.61206 3.5256 4.7409C3.2804 4.82748 3.06118 4.97516 2.88856 5.17007C2.70212 5.34641 2.56778 5.5709 2.50034 5.81883C2.38158 6.05654 2.32995 6.3223 2.35104 6.58733L2.43067 7.11631C2.53038 7.44298 2.71202 7.73852 2.95823 7.97466L3.36634 8.27408C3.66944 8.4462 4.01351 8.53245 4.36173 8.5236H4.37168Z" fill="#E24B4B"/>
<path d="M69.0521 24.8122C70.4158 29.2237 69.709 34.793 69.9081 39.3941C70.1072 44.3046 70.4058 49.2451 70.8239 54.1357C71.1225 57.579 76.1891 59.4953 77.8812 55.8723C80.0114 51.2812 82.0022 46.7699 81.9623 41.5998C81.9623 35.821 79.3046 30.2916 80.4792 24.4828L78.1002 26.988C77.5229 27.1078 78.1599 40.1327 78.2595 41.4102C78.5226 45.9685 79.2395 50.4889 80.3996 54.9042C81.395 58.3775 87.0389 58.4873 87.7257 54.7145C89.6269 44.2048 90.7716 32.0482 87.3574 21.778C85.8543 17.2667 78.7373 19.4026 80.2801 23.9239C83.2663 32.677 82.679 44.0052 80.3498 52.8681L87.8352 53.6965C86.6905 45.5422 86.0335 37.7273 85.5955 29.5331C85.2969 23.9239 82.3705 18.8437 76.0895 20.2909C75.5076 20.4573 74.9804 20.7762 74.5623 21.2147C74.1441 21.6533 73.8501 22.1957 73.7105 22.7861C72.9043 27.2774 73.6209 31.2897 74.3874 35.7611C75.4724 41.9392 74.895 46.9695 71.2917 52.2393L78.3391 53.976C78.3167 48.0547 77.7772 42.1468 76.7266 36.32C75.8805 31.5093 75.0045 26.8982 71.67 23.1853C70.575 21.9677 68.5942 23.345 69.0421 24.8122H69.0521Z" fill="#E24B4B"/>
<path d="M72.0386 25.9501C71.8296 25.9501 71.7101 25.7904 71.6106 25.6506C71.5111 25.5109 71.6106 25.5708 71.6106 25.6506C71.6106 25.4011 71.6106 25.4111 71.6106 25.6506C71.6106 25.8902 71.6604 25.9401 71.6106 25.6506C71.6106 25.7405 71.6106 25.8303 71.6106 25.9101V26.3193C71.6106 27.557 72.1182 28.9243 73.5018 29.1938C73.8544 29.2755 74.2222 29.2635 74.5688 29.159C74.9153 29.0545 75.2288 28.8612 75.478 28.5982C75.7273 28.3351 75.9038 28.0114 75.9902 27.659C76.0765 27.3066 76.0697 26.9378 75.9704 26.5888C75.9091 26.3729 75.8222 26.1652 75.7116 25.97C75.5767 25.7335 75.3851 25.5346 75.1542 25.3911L75.0447 25.3113C75.3533 25.481 74.9551 25.1616 75.1542 25.4011C75.3533 25.6407 75.1542 25.4011 75.1542 25.3312C74.9032 24.8536 74.5657 24.4272 74.1588 24.0737C73.7568 23.7197 73.2367 23.5304 72.7019 23.5433C72.1671 23.5563 71.6567 23.7706 71.2722 24.1435C71.1282 24.286 71.031 24.4691 70.9934 24.6685C70.9558 24.8678 70.9797 25.0738 71.0619 25.2592C71.144 25.4445 71.2806 25.6004 71.4533 25.706C71.626 25.8116 71.8267 25.8619 72.0287 25.8502L72.0386 25.9501Z" fill="#E24B4B"/>
<path d="M69.48 54.2255C71.5703 55.1737 73.5313 54.495 75.7012 54.1058C79.2563 53.3073 82.9165 53.0882 86.541 53.457C88.8603 53.7864 89.7362 50.1833 87.4269 49.9038C84.5607 49.5111 81.6522 49.5481 78.7969 50.0136C75.6017 50.5626 72.5558 52.2693 69.5596 53.447C69.2511 53.5668 69.1117 54.0658 69.48 54.2255Z" fill="#FCD13A"/>
<path d="M71.9986 53.8761C74.6221 53.284 77.2826 52.8705 79.9618 52.6385C82.3208 52.4888 84.7396 52.8082 87.029 52.2093C88.7709 51.7502 89.1591 48.9955 87.4471 48.217C82.4204 45.9015 75.1043 47.9375 70.4658 50.4328C68.475 51.5207 70.0377 54.2754 72.0186 53.8861L71.9986 53.8761Z" fill="#FCD13A"/>
<path d="M69.5097 51.5207C71.0426 53.2673 74.0886 52.7783 76.149 52.5188C79.0357 52.1794 81.8626 51.3909 84.7791 51.8002C85.253 51.896 85.7416 51.892 86.2139 51.7882C86.6861 51.6844 87.1317 51.4833 87.5222 51.1975C87.9127 50.9117 88.2395 50.5475 88.482 50.1282C88.7246 49.7088 88.8774 49.2434 88.9307 48.7617C88.9841 48.2799 88.9369 47.7922 88.7922 47.3297C88.6474 46.8672 88.4082 46.44 88.0898 46.0752C87.7714 45.7105 87.3807 45.4162 86.9427 45.211C86.5047 45.0058 86.0289 44.8943 85.5456 44.8835C81.465 44.6406 77.3823 45.3229 73.6008 46.8797C72.3267 47.3787 67.5687 49.3349 69.46 51.5007L69.5097 51.5207Z" fill="#FCD13A"/>
<path d="M71.9088 40.3823C76.6369 39.474 81.6835 39.8832 86.4714 39.464C87.3162 39.4429 88.118 39.0861 88.7004 38.4721C89.2828 37.8582 89.5981 37.0374 89.577 36.1903C89.5559 35.3433 89.2 34.5393 88.5877 33.9553C87.9755 33.3714 87.1569 33.0552 86.3121 33.0763C81.1162 32.9566 74.7258 33.8648 70.2266 36.6495C68.1263 37.947 69.709 40.8015 71.9088 40.3823Z" fill="#FCD13A"/>
<path d="M68.4446 37.9169C71.2406 38.2813 74.0685 38.3315 76.8756 38.0666C79.9613 37.9369 83.0271 38.2862 86.083 38.1564C86.6187 38.1255 87.1262 37.9052 87.5153 37.5347C87.9044 37.1642 88.15 36.6674 88.2085 36.1326C88.2669 35.5977 88.1345 35.0594 87.8347 34.6131C87.5349 34.1669 87.087 33.8416 86.5707 33.695C81.4444 32.0582 73.2424 33.5254 68.3849 35.6912C67.3895 36.1104 67.1805 37.6873 68.4446 37.9468V37.9169Z" fill="#FCD13A"/>
<path d="M69.4206 28.7545C71.71 30.551 75.164 29.4631 77.9013 29.3234C79.6432 29.2336 81.3951 29.2336 83.137 29.2435C84.8789 29.2535 86.8398 29.6627 88.4325 29.014C90.0251 28.3652 91.5082 26.5388 90.7716 24.6324L90.702 24.4528C90.5203 23.8937 90.1984 23.3907 89.7673 22.9922C89.3361 22.5936 88.8101 22.3127 88.2396 22.1764C87.6691 22.0402 87.0733 22.0532 86.5093 22.2141C85.9452 22.375 85.4318 22.6785 85.0183 23.0954L84.8789 23.2251L87.3276 22.1372C83.8545 22.4068 80.4008 22.8867 76.9855 23.5745C74.4075 24.2033 70.3264 24.8321 69.2414 27.5668C69.1386 27.7643 69.1005 27.9893 69.1327 28.2097C69.1649 28.4301 69.2656 28.6348 69.4206 28.7944V28.7545Z" fill="#FCD13A"/>
<path d="M68.8729 27.9959C71.859 29.3932 75.1637 28.6946 78.4087 28.5349C81.3949 28.3852 84.7194 29.2336 87.5961 28.0658C88.2552 27.8462 88.8149 27.3987 89.1752 26.8034C89.5355 26.208 89.6729 25.5036 89.5628 24.816C89.4527 24.1284 89.1023 23.5025 88.5742 23.0502C88.0462 22.5978 87.3749 22.3485 86.6804 22.3468C83.7789 22.1419 80.8654 22.182 77.9707 22.4666C74.9049 22.9257 71.2916 23.1353 68.8032 25.1115C67.9173 25.8102 67.6187 27.417 68.8729 27.9959Z" fill="#FCD13A"/>
<path d="M99.1728 6.85675C97.4109 6.85675 95.7885 8.73313 94.7732 10.0506C93.4796 11.6115 92.6027 13.4763 92.225 15.4702C91.5979 19.0532 97.0128 20.4605 97.7394 16.8475C98.1001 15.3286 98.6696 13.8675 99.4316 12.5059C100.168 11.0886 101.124 9.6813 100.815 8.05444C100.708 7.7035 100.489 7.39705 100.193 7.18109C99.8969 6.96514 99.5389 6.85132 99.1728 6.85675Z" fill="#FCD13A"/>
<path d="M95.4796 5.72898C94.2652 6.93666 93.8472 8.96275 93.4888 10.6096C92.9808 12.5623 92.8224 14.5899 93.021 16.5981C93.3694 18.8737 96.5248 19.5923 97.2315 17.0672C97.6181 15.2457 97.8215 13.39 97.8387 11.5278C97.9582 9.89097 98.2866 7.82495 97.6297 6.29789C97.5604 6.08567 97.438 5.89477 97.2743 5.7434C97.1106 5.59204 96.9109 5.48525 96.6943 5.43321C96.4777 5.38117 96.2515 5.38563 96.0371 5.44614C95.8227 5.50665 95.6274 5.6212 95.4697 5.77889L95.4796 5.72898Z" fill="#FCD13A"/>
<path d="M63.7867 10.7492C63.0367 11.8353 62.5931 13.1043 62.5027 14.4222C62.3733 15.7097 62.2538 16.9373 63.0899 18.0252C63.3317 18.3614 63.6719 18.6137 64.0632 18.7472C64.4545 18.8807 64.8775 18.8888 65.2736 18.7703C65.6697 18.6518 66.0192 18.4126 66.2736 18.086C66.528 17.7593 66.6746 17.3614 66.6933 16.9473C66.6933 14.8913 66.3747 12.9051 66.2851 10.869C66.1956 8.83293 62.7017 8.87286 63.0202 10.9489C63.2109 12.8076 63.1574 14.6834 62.861 16.5281L66.4046 15.9692C65.9865 15.3404 66.1358 14.1128 66.0064 13.3842C65.8062 12.4206 65.3948 11.5138 64.802 10.7293C64.7475 10.6469 64.6736 10.5794 64.5867 10.5326C64.4999 10.4859 64.4029 10.4615 64.3043 10.4615C64.2058 10.4615 64.1087 10.4859 64.0219 10.5326C63.935 10.5794 63.8611 10.6469 63.8066 10.7293L63.7867 10.7492Z" fill="#FCD13A"/>
<path d="M61.4471 10.6696C60.3839 12.9818 60.1552 15.5926 60.8001 18.0553C60.9662 18.5342 61.2953 18.939 61.7295 19.1988C62.1638 19.4585 62.6754 19.5565 63.1746 19.4754C63.6737 19.3944 64.1284 19.1396 64.4587 18.7557C64.7891 18.3719 64.9739 17.8835 64.9808 17.3766C64.835 15.0308 64.226 12.7375 63.1891 10.6296C63.103 10.4736 62.9768 10.3436 62.8237 10.253C62.6705 10.1625 62.4959 10.1147 62.3181 10.1147C62.1403 10.1147 61.9657 10.1625 61.8126 10.253C61.6594 10.3436 61.5332 10.4736 61.4471 10.6296V10.6696Z" fill="#FCD13A"/>
<path d="M50.3091 9.27207C49.884 10.5849 49.6265 11.9465 49.5426 13.3243C49.3137 14.8314 49.0848 16.3185 48.9354 17.8356L53.2256 15.9292C52.8274 15.55 52.0411 15.1308 51.7424 14.7615C52.1705 15.3004 51.7424 14.2525 51.7424 14.0728C51.613 12.7554 51.9913 11.358 51.9714 10.0805C51.9714 8.08436 48.7463 7.61527 48.378 9.68128C48.1391 11.0087 47.9201 12.3262 47.741 13.6736C47.6016 14.7815 46.865 18.0651 47.741 18.8237C50.0503 20.8198 53.3152 17.1868 50.9561 15.4402C49.4132 14.3024 47.1935 14.0928 46.1284 16.029C45.9015 16.4311 45.7704 16.8803 45.7454 17.3416C45.7204 17.8029 45.8022 18.2638 45.9844 18.6881C46.1665 19.1124 46.4442 19.4887 46.7956 19.7875C47.1469 20.0864 47.5625 20.2996 48.0097 20.4106C50.1299 20.8997 51.5832 19.183 51.6529 17.2068C51.7225 14.8314 51.7225 12.4659 51.9714 10.0905L48.3183 10.1803C48.4676 11.9769 48.3183 13.7834 48.388 15.5699C48.388 15.8893 48.5074 16.2087 48.5074 16.568C48.5074 15.8594 48.3979 16.9473 48.3979 17.097C48.4255 17.604 48.5574 18.0998 48.7852 18.5532C49.013 19.0066 49.3319 19.4079 49.7218 19.7319C50.966 20.9795 53.7034 20.4306 53.9423 18.5043C54.2906 15.7097 54.3703 11.7872 52.7876 9.312C52.6536 9.10042 52.4672 8.92735 52.2465 8.80973C52.0258 8.69212 51.7784 8.63398 51.5286 8.64102C51.2787 8.64806 51.035 8.72005 50.8212 8.84991C50.6074 8.97977 50.431 9.16307 50.3091 9.38186V9.27207Z" fill="#FCD13A"/>
<path d="M49.0942 16.5882C49.6417 14.063 49.8209 11.4481 50.2788 8.903C50.3382 8.37359 50.1854 7.8422 49.854 7.42573C49.5227 7.00927 49.0399 6.74184 48.5119 6.68228C47.9839 6.62272 47.454 6.77592 47.0386 7.10815C46.6233 7.44039 46.3566 7.92446 46.2972 8.45387C46.0331 11.182 46.0832 13.9315 46.4465 16.6481C46.6754 18.0254 48.8255 17.8457 49.0942 16.5882Z" fill="#FCD13A"/>
<path d="M36.3035 7.27588C35.1863 10.6768 34.7434 14.2641 34.9996 17.8355L36.8112 15.9292C35.3181 15.9292 36.204 13.3342 36.2936 12.2563C36.3931 10.9887 36.1542 8.72308 36.8112 7.61522C37.0311 7.21897 37.1428 6.77152 37.135 6.3181C37.1271 5.86468 36.9999 5.42138 36.7664 5.03304C36.5328 4.6447 36.2011 4.3251 35.8048 4.10656C35.4085 3.88802 34.9617 3.7783 34.5096 3.78849C34.0574 3.79868 33.6159 3.92842 33.2298 4.16458C32.8437 4.40075 32.5267 4.73497 32.3108 5.13343C32.0948 5.5319 31.9877 5.98048 32.0001 6.4338C32.0126 6.88711 32.1442 7.32909 32.3817 7.71503C32.8893 8.52347 32.7798 10.1204 32.8794 11.0686C33.0386 12.4659 33.2875 13.8931 33.3074 15.3004C33.1825 16.0857 33.2613 16.89 33.5363 17.6359C33.9743 18.3944 34.9996 18.5242 35.5271 19.133C36.7614 20.4305 38.5133 19.1929 38.6526 17.7457C38.9729 14.348 38.9395 10.9261 38.5531 7.53537C38.5361 7.25879 38.4225 6.99706 38.2321 6.79621C38.0417 6.59536 37.7868 6.46826 37.5121 6.43727C37.2375 6.40627 36.9608 6.47338 36.7306 6.62677C36.5004 6.78015 36.3316 7.00999 36.2537 7.27588H36.3035Z" fill="#FCD13A"/>
<path d="M33.0686 5.60916C31.9438 8.89283 32.6904 12.8352 33.1383 16.2087C33.5862 19.5822 38.4935 18.7139 37.6275 15.4901C36.7615 12.2663 36.5127 8.43371 35.0495 5.29976C34.6115 4.36157 33.3374 4.83066 33.0587 5.60916H33.0686Z" fill="#FCD13A"/>
<path d="M32.501 5.31974C31.8899 8.17769 31.659 11.1042 31.8142 14.023C31.9237 15.8195 31.9635 19.3327 34.6212 19.213C37.0499 19.0932 36.811 16.1489 36.6119 14.532C36.125 11.3981 35.4165 8.30295 34.4918 5.26983C34.4852 5.00512 34.374 4.75389 34.1826 4.57139C33.9913 4.3889 33.7355 4.29008 33.4715 4.2967C33.2075 4.30332 32.9569 4.41482 32.7749 4.60668C32.5929 4.79853 32.4944 5.05503 32.501 5.31974Z" fill="#FCD13A"/>
<path d="M31.1176 3.78276C30.7536 4.79506 30.6143 5.87481 30.7095 6.94665C30.602 8.05909 30.6759 9.18165 30.9284 10.2702C31.5157 12.0069 34.4123 12.2664 34.7508 10.1804C34.8517 9.02508 34.7574 7.86096 34.4721 6.73707C34.4207 5.69254 34.1457 4.67133 33.6658 3.74284C33.5274 3.52701 33.3359 3.35045 33.1099 3.23015C32.8838 3.10984 32.6308 3.04982 32.3749 3.05583C32.1191 3.06184 31.869 3.1337 31.6489 3.26449C31.4287 3.39528 31.2457 3.58062 31.1176 3.80273V3.78276Z" fill="#FCD13A"/>
<path d="M31.4761 5.06032C30.0029 6.53747 30.0925 8.9628 30.1522 10.939C30.2318 13.3943 30.3214 16.3685 31.277 18.6441C31.9041 20.1413 34.7011 20.6403 34.95 18.5543C35.2486 16.0192 34.7211 13.3643 34.4423 10.8292C34.2234 8.83305 34.0939 6.40773 32.5212 5.03038C32.3817 4.89322 32.1941 4.81641 31.9987 4.81641C31.8032 4.81641 31.6156 4.89322 31.4761 5.03038V5.06032Z" fill="#FCD13A"/>
<path d="M20.5869 2.98413C19.5076 5.37543 18.964 7.97483 18.9943 10.5994C18.8947 13.2344 18.2875 16.3683 19.8901 18.584C20.1199 18.9424 20.4377 19.2355 20.813 19.4353C21.1883 19.635 21.6085 19.7346 22.0333 19.7246C22.458 19.7146 22.8731 19.5952 23.2386 19.378C23.6041 19.1608 23.9078 18.853 24.1205 18.4842C25.4742 16.1787 24.7476 13.4939 24.6083 10.9488C24.4689 8.40369 24.3196 5.60907 23.2944 3.27358C23.2014 3.00262 23.0333 2.76385 22.8098 2.58527C22.5863 2.40669 22.3166 2.29571 22.0324 2.26533C21.7483 2.23495 21.4613 2.28643 21.2053 2.41374C20.9493 2.54105 20.7348 2.73891 20.5869 2.98413Z" fill="#FCD13A"/>
<path d="M20.6163 18.8837C20.9348 18.694 22.3383 17.646 20.9149 18.5942L17.9287 16.9873C17.9287 16.3984 17.9785 17.9854 18.0681 18.2748C18.4861 19.7021 20.6461 20.4407 21.6515 19.1332C22.6568 17.8257 22.4577 15.9693 22.6468 14.5021C23.035 12.1366 23.4631 9.77118 23.7916 7.39575L22.1989 9.58155C23.9906 8.49364 24.2892 6.97656 24.3788 5.04028C24.6376 -0.119785 16.2166 -0.0199651 16.3062 5.23991C16.2382 6.11797 16.4154 6.99766 16.818 7.78039C17.2206 8.56311 17.8327 9.21792 18.5856 9.67139L16.7939 6.60728C16.9632 8.75315 17.1523 10.899 17.3812 13.0449C17.4808 13.9332 17.5704 14.8315 17.6898 15.7197C17.7115 16.1343 17.7749 16.5456 17.8789 16.9474C18.1079 17.5362 17.64 18.165 18.2572 16.628L21.9799 16.5881C22.3383 17.147 21.542 15.7796 21.2832 15.59C20.9974 15.3415 20.647 15.1797 20.2729 15.1237C19.8987 15.0677 19.5165 15.1197 19.1708 15.2736C18.8251 15.4276 18.5303 15.6771 18.3209 15.993C18.1115 16.3088 17.9962 16.678 17.9884 17.0572C17.9187 18.3347 19.4516 19.6721 20.666 18.9535L20.6163 18.8837Z" fill="#FCD13A"/>
<path d="M7.04902 3.86254C6.53141 8.54352 7.55667 13.0448 7.77565 17.7458C7.90506 20.4606 12.1753 20.3408 11.9762 17.646C11.598 12.5757 10.9808 7.66521 7.62635 3.6729C7.58104 3.63376 7.52667 3.60662 7.46821 3.59394C7.40975 3.58126 7.34907 3.58345 7.29167 3.60032C7.23428 3.61719 7.182 3.64819 7.13962 3.69051C7.09724 3.73282 7.06609 3.7851 7.04902 3.84257V3.86254Z" fill="#FCD13A"/>
<path d="M2.25134 5.75898C2.42056 7.89486 2.9282 9.92096 3.24673 12.0269C3.63493 14.6019 3.54535 17.0173 5.3271 19.0833C5.65835 19.3998 6.05769 19.6356 6.49429 19.7728C6.9309 19.9099 7.39308 19.9446 7.84518 19.8742C8.29728 19.8038 8.72721 19.6301 9.10176 19.3667C9.47632 19.1032 9.78549 18.757 10.0054 18.3547C11.399 15.3106 9.92578 11.977 8.70146 9.06263C7.85538 7.06647 6.71067 3.83269 4.0729 3.84267C3.58002 3.86086 3.11374 4.07141 2.77346 4.42939C2.43317 4.78737 2.24581 5.26447 2.25134 5.75898Z" fill="#FCD13A"/>
<path d="M4.66012 4.13204C4.41722 4.59869 4.262 5.10618 4.20223 5.62915C4.10692 6.05882 4.12175 6.5057 4.24534 6.92808C4.36892 7.35045 4.59724 7.73455 4.90896 8.04448C5.18698 8.30171 5.51921 8.49283 5.88099 8.60365C6.24278 8.71447 6.62481 8.74214 6.99873 8.68461C7.37264 8.62707 7.72884 8.48582 8.04083 8.27133C8.35283 8.05683 8.61262 7.77461 8.80093 7.44563C9.00909 7.05533 9.11299 6.61768 9.10252 6.1752C9.09206 5.73272 8.96759 5.30047 8.7412 4.92051C8.50206 4.44562 8.18586 4.01389 7.80554 3.64297C7.57613 3.4386 7.30486 3.28712 7.01079 3.19917C6.71671 3.11123 6.407 3.08897 6.10343 3.13396C5.80283 3.17882 5.51647 3.29209 5.26629 3.46509C5.01611 3.6381 4.80876 3.86624 4.66012 4.13204Z" fill="#FCD13A"/>
<path d="M16.3459 2.50528C16.4172 2.50528 16.4855 2.47688 16.5359 2.42634C16.5863 2.3758 16.6147 2.30726 16.6147 2.23579C16.6147 2.16431 16.5863 2.09577 16.5359 2.04523C16.4855 1.99469 16.4172 1.96631 16.3459 1.96631C16.2746 1.96631 16.2063 1.99469 16.1559 2.04523C16.1055 2.09577 16.0771 2.16431 16.0771 2.23579C16.0771 2.30726 16.1055 2.3758 16.1559 2.42634C16.2063 2.47688 16.2746 2.50528 16.3459 2.50528Z" fill="#FCD13A"/>
<path d="M16.1174 2.7348C16.153 3.22247 16.2431 3.70458 16.3862 4.17203C16.4857 4.66109 16.5952 5.17012 16.6948 5.62923C16.7943 6.08835 16.8739 6.62731 16.9436 7.12635C17.0133 7.62539 17.0431 8.12442 17.1327 8.64342C17.2223 9.16242 17.8693 8.94284 17.8494 8.53363C17.8021 8.026 17.7189 7.52238 17.6006 7.02654C17.511 6.51752 17.4015 6.02846 17.2721 5.51944C17.1427 5.01043 17.0133 4.52136 16.8441 4.0323C16.7208 3.55792 16.5225 3.10639 16.2568 2.69488C16.2499 2.6824 16.2398 2.672 16.2275 2.66476C16.2153 2.65751 16.2013 2.65369 16.1871 2.65369C16.1729 2.65369 16.1589 2.65751 16.1467 2.66476C16.1344 2.672 16.1243 2.6824 16.1174 2.69488V2.7348Z" fill="#FCD13A"/>
<path d="M15.9181 2.9943C15.9878 3.99237 16.2366 5.0603 16.376 6.07833C16.4456 6.58734 16.5153 7.07639 16.5751 7.58541L16.6746 8.43377C16.696 8.72341 16.7427 9.01061 16.8139 9.29211C16.8645 9.39365 16.9463 9.47619 17.0472 9.52756C17.1481 9.57892 17.2628 9.59639 17.3744 9.57737C17.486 9.55835 17.5885 9.50386 17.6668 9.42194C17.7451 9.34002 17.7951 9.23502 17.8093 9.12244C17.8004 8.83219 17.7569 8.54404 17.6799 8.2641L17.5306 7.42573L17.232 5.87872C17.0759 4.84445 16.7777 3.83682 16.3461 2.88451C16.3192 2.83345 16.2755 2.79331 16.2224 2.77094C16.1694 2.74858 16.1102 2.74537 16.055 2.76185C15.9998 2.77833 15.952 2.81348 15.9198 2.86133C15.8876 2.90917 15.8729 2.96675 15.8783 3.02424L15.9181 2.9943Z" fill="#FCD13A"/>
<path d="M16.2664 2.75472C16.2115 3.29552 16.2452 3.84167 16.3659 4.37159C16.4356 5.00038 16.5053 5.62917 16.5352 6.25795C16.5849 7.45564 16.5352 8.64336 16.6148 9.84105C16.8039 12.3362 17.4211 14.9113 17.1025 17.4164C17.0788 17.6269 17.1394 17.8382 17.271 18.0038C17.4026 18.1694 17.5944 18.2759 17.8043 18.2997C18.0142 18.3235 18.2249 18.2628 18.3901 18.1308C18.5553 17.9989 18.6615 17.8065 18.6852 17.5961C18.6009 14.9375 18.3215 12.2888 17.8491 9.67138C17.6998 8.41381 17.7097 7.14624 17.5106 5.89865C17.3613 4.95048 17.1921 3.38351 16.5152 2.69484C16.499 2.68056 16.4794 2.67059 16.4583 2.66586C16.4372 2.66112 16.4153 2.66176 16.3945 2.66771C16.3737 2.67367 16.3547 2.68475 16.3393 2.69995C16.3239 2.71515 16.3125 2.73398 16.3062 2.75472H16.2664Z" fill="#FCD13A"/>
<path d="M14.8334 2.61499C14.7007 3.86996 14.778 5.13834 15.0623 6.36774C15.2713 7.75507 15.4903 9.14239 15.6794 10.5297C15.8685 11.917 16.0378 13.2545 16.207 14.6119C16.2866 15.3005 16.3762 15.9792 16.4558 16.6679C16.4457 17.2725 16.6308 17.8641 16.9834 18.3546C17.0669 18.4329 17.1671 18.4912 17.2763 18.5252C17.3855 18.5591 17.501 18.5677 17.6141 18.5504C17.7271 18.5331 17.8348 18.4904 17.929 18.4253C18.0232 18.3603 18.1015 18.2747 18.1579 18.175C18.378 17.5833 18.4059 16.937 18.2376 16.3285C18.1579 15.6399 18.0783 14.9612 17.9787 14.2825C17.7896 12.9351 17.5607 11.5977 17.3318 10.2902C17.1028 8.98271 16.8341 7.59538 16.5454 6.29789C16.3577 5.00769 15.936 3.76284 15.3012 2.62496C15.2743 2.5826 15.2358 2.54896 15.1903 2.5281C15.1447 2.50725 15.0941 2.50007 15.0446 2.50747C14.9951 2.51486 14.9488 2.5365 14.9113 2.56976C14.8738 2.60301 14.8467 2.64646 14.8334 2.69484V2.61499Z" fill="#E24B4B"/>
<path d="M25.2553 2.81445L25.0263 2.68471C24.9804 2.65846 24.929 2.64335 24.8762 2.64059C24.8235 2.63784 24.7708 2.64752 24.7224 2.66886C24.674 2.69021 24.6313 2.72263 24.5976 2.76351C24.564 2.80439 24.5404 2.85259 24.5286 2.90428C23.9167 5.51897 23.7518 8.21884 24.0409 10.8889C24.1803 13.424 24.2101 16.2286 25.1458 18.6339C25.1962 18.7842 25.2885 18.9168 25.4117 19.016C25.535 19.1152 25.6841 19.1769 25.8413 19.1937C25.9985 19.2105 26.1572 19.1818 26.2986 19.1108C26.4399 19.0399 26.5581 18.9298 26.6389 18.7936C26.7725 18.5425 26.8046 18.2494 26.7285 17.9752C26.6856 17.8453 26.6061 17.7306 26.4996 17.645C26.3931 17.5594 26.2642 17.5065 26.1284 17.4928C25.9926 17.4791 25.8558 17.5051 25.7344 17.5677C25.613 17.6303 25.5123 17.7267 25.4444 17.8454L25.3747 17.9552L26.0118 17.566H25.9023L26.7086 18.1449C26.0353 15.7112 25.6281 13.2113 25.4942 10.6893C25.2752 8.09427 25.2254 5.52923 25.2055 2.93423L24.9567 3.27357L25.2155 3.19373C25.2558 3.17565 25.2901 3.14623 25.3142 3.10904C25.3382 3.07184 25.351 3.02845 25.351 2.98412C25.351 2.93979 25.3382 2.89642 25.3142 2.85923C25.2901 2.82203 25.2558 2.79262 25.2155 2.77454L25.2553 2.81445Z" fill="#E24B4B"/>
<path d="M30.5702 4.44144C30.0739 5.48941 29.7383 6.60654 29.5748 7.75504C29.3459 8.86291 29.1866 9.99074 29.0671 11.1186C28.8464 13.4805 28.7899 15.855 28.8979 18.2249C28.8979 19.2828 30.6399 19.2229 30.5005 18.2249C30.2053 15.9548 30.1486 13.66 30.3313 11.3781C30.401 10.2303 30.5304 9.08248 30.6896 7.94468C30.9316 6.85709 31.0913 5.75275 31.1674 4.64105C31.1638 4.56855 31.1372 4.49911 31.0913 4.44293C31.0455 4.38675 30.9829 4.34679 30.9127 4.32893C30.8425 4.31106 30.7685 4.31621 30.7015 4.34365C30.6345 4.37109 30.578 4.41935 30.5403 4.48136L30.5702 4.44144Z" fill="#E24B4B"/>
<path d="M39.7775 6.91667C39.1803 7.39575 39.1404 8.59344 39.011 9.30207C38.8219 10.3002 38.7025 11.2982 38.6029 12.2963C38.5034 13.2944 38.4238 14.2426 38.3541 15.2107C38.2063 16.0573 38.3577 16.9292 38.7821 17.6759C38.8834 17.8386 39.0409 17.9582 39.2246 18.0116C39.4083 18.065 39.6051 18.0485 39.7775 17.9654C39.9507 17.894 40.0908 17.76 40.17 17.59C40.2493 17.4199 40.262 17.2262 40.2055 17.0472C40.0367 16.7334 39.9127 16.3974 39.8372 16.0491C39.8074 15.6771 39.8074 15.3032 39.8372 14.9312C39.8372 14.003 39.9069 13.0848 39.9467 12.1566C39.9865 11.2284 40.0363 10.3101 40.096 9.3919C40.096 8.93278 40.1657 8.48365 40.1955 8.02454C40.2673 7.66475 40.2255 7.29151 40.0761 6.9566C40.0482 6.91888 40.008 6.8922 39.9625 6.88125C39.917 6.87029 39.8691 6.87576 39.8272 6.8967L39.7775 6.91667Z" fill="#E24B4B"/>
<path d="M39.9469 7.72503C39.958 7.63283 39.9961 7.54598 40.0564 7.47551C40.4346 7.16611 39.8175 6.55728 39.499 6.94653C39.2508 7.31509 39.0875 7.73447 39.0212 8.17418C38.9117 8.58339 38.8022 9.00258 38.7126 9.43175C38.5135 10.33 38.3742 11.2483 38.2647 12.1665C38.1552 13.0847 38.0855 14.0129 38.0557 14.9511C38.0258 15.8893 37.9064 16.7676 38.5334 17.3864C38.6595 17.4992 38.8184 17.5682 38.9866 17.5833C39.1549 17.5985 39.3235 17.5589 39.4676 17.4704C39.6116 17.382 39.7234 17.2494 39.7864 17.0922C39.8495 16.9351 39.8604 16.7618 39.8175 16.5979C39.5982 15.871 39.5171 15.1092 39.5786 14.3523C39.5786 13.5538 39.5786 12.7454 39.6383 11.9469C39.6981 11.1484 39.7777 10.34 39.8772 9.53155C39.9369 9.10238 39.9967 8.67321 40.0663 8.24404C40.1669 7.87364 40.1939 7.48707 40.146 7.10623L39.5189 7.4855C39.5829 7.556 39.6275 7.64199 39.6483 7.73502C39.6596 7.76558 39.68 7.79193 39.7066 7.81055C39.7333 7.82916 39.7651 7.83915 39.7976 7.83915C39.8301 7.83915 39.8618 7.82916 39.8885 7.81055C39.9152 7.79193 39.9356 7.76558 39.9469 7.73502V7.72503Z" fill="#E24B4B"/>
<path d="M38.9017 7.00645C38.468 7.89866 38.2433 8.87841 38.2447 9.87094C38.1352 10.869 38.0456 11.8671 37.9959 12.8652C37.9361 13.7967 37.9561 14.7317 38.0556 15.6598C38.0792 16.6397 38.3497 17.5976 38.842 18.4444C38.9462 18.603 39.1034 18.7191 39.2853 18.772C39.4672 18.8248 39.6619 18.8109 39.8345 18.7328C40.0072 18.6547 40.1464 18.5174 40.2272 18.3457C40.308 18.1739 40.3251 17.9789 40.2754 17.7957C40.1957 17.3665 39.9768 16.9573 39.8573 16.5281C39.7393 16.1065 39.6561 15.6759 39.6085 15.2406C39.524 14.3716 39.4841 13.4988 39.489 12.6256C39.489 11.6874 39.489 10.7493 39.5388 9.81106C39.6822 8.88911 39.6552 7.94855 39.4591 7.03639C39.4403 6.98032 39.4059 6.93085 39.3599 6.89381C39.3139 6.85678 39.2582 6.83375 39.1995 6.82744C39.1409 6.82114 39.0817 6.83183 39.0289 6.85825C38.9761 6.88467 38.9319 6.92571 38.9017 6.97651V7.00645Z" fill="#E24B4B"/>
<path d="M54.3102 9.45176C53.8955 9.99003 53.6248 10.6256 53.5239 11.2982C53.3582 11.9535 53.2451 12.621 53.1854 13.2944C53.0518 14.6696 53.1088 16.0568 53.3546 17.4164C53.4107 17.6151 53.5388 17.7856 53.7137 17.8945C53.8886 18.0034 54.0978 18.043 54.3003 18.0053C54.5025 17.9702 54.686 17.8651 54.8188 17.7082C54.9516 17.5513 55.0252 17.3527 55.0269 17.1469C55.0314 16.9742 54.9882 16.8036 54.9022 16.6539C54.8161 16.5042 54.6905 16.3812 54.5392 16.2986C54.4069 16.2243 54.2535 16.1967 54.1037 16.2202C53.9539 16.2437 53.8163 16.317 53.713 16.4283C53.8324 16.2786 53.5935 16.5381 53.5537 16.5781L54.9871 16.9174C54.7487 15.7152 54.6485 14.4895 54.6885 13.2644C54.6885 12.6656 54.7581 12.0667 54.8278 11.4679C54.9871 10.8595 55.0443 10.2287 54.997 9.60147C54.9772 9.53237 54.9395 9.46975 54.8878 9.4199C54.8361 9.37006 54.7722 9.33475 54.7026 9.31755C54.6329 9.30034 54.56 9.30184 54.4911 9.3219C54.4222 9.34196 54.3598 9.37987 54.3102 9.4318V9.45176Z" fill="#E24B4B"/>
<path d="M53.6237 9.60152C53.331 10.1295 53.1291 10.7031 53.0264 11.2983C52.8726 11.9032 52.753 12.5163 52.6681 13.1347C52.5834 13.753 52.5535 14.3776 52.5785 15.0012C52.5902 15.2951 52.6168 15.5882 52.6581 15.8795C52.6625 16.2524 52.7655 16.6175 52.9567 16.9375C53.0348 17.0583 53.1455 17.1543 53.2759 17.2144C53.4063 17.2745 53.5511 17.2961 53.6934 17.2768C53.8343 17.2546 53.9657 17.1918 54.0717 17.0962C54.1777 17.0005 54.2538 16.876 54.2906 16.7378C54.3185 16.4012 54.2813 16.0623 54.1811 15.7397C54.132 15.4725 54.0988 15.2025 54.0816 14.9313C54.0467 14.3796 54.0467 13.8262 54.0816 13.2745C54.0816 12.7255 54.1612 12.1866 54.2309 11.6376C54.2309 11.3282 54.3205 11.0188 54.3404 10.7094C54.3701 10.414 54.3701 10.1164 54.3404 9.8211C54.3337 9.73462 54.2998 9.6525 54.2436 9.58658C54.1874 9.52067 54.1117 9.47436 54.0275 9.45437C53.9433 9.43438 53.855 9.44174 53.7753 9.47536C53.6955 9.50898 53.6285 9.56714 53.5839 9.64144L53.6237 9.60152Z" fill="#E24B4B"/>
<path d="M60.3727 10.2602C59.9646 12.4659 59.5366 14.6916 58.9792 16.8674C58.7005 17.9553 60.4623 18.3845 60.6514 17.2866C60.8405 16.1887 61.0296 14.9611 61.1292 13.7834C61.2039 12.6368 61.2039 11.4866 61.1292 10.34C61.1199 10.2459 61.0785 10.1579 61.0118 10.091C60.9452 10.0241 60.8575 9.98239 60.7636 9.97298C60.6698 9.96357 60.5756 9.98704 60.4971 10.0394C60.4186 10.0918 60.3605 10.1698 60.3329 10.2602H60.3727Z" fill="#E24B4B"/>
<path d="M60.2328 9.8411C60.0611 10.4507 60.0037 11.0869 60.0636 11.7175C60.0636 12.3163 59.9939 12.9152 59.9441 13.524C59.8539 14.7508 59.6371 15.965 59.2972 17.147C58.9985 18.1451 60.6807 18.5443 60.84 17.5362C61.0624 16.2413 61.2152 14.9352 61.2978 13.6238C61.3328 12.9788 61.3328 12.3325 61.2978 11.6875C61.2978 11.3582 61.2978 11.0288 61.2083 10.6895C61.1941 10.3813 61.1089 10.0807 60.9594 9.81116C60.9225 9.75347 60.8717 9.706 60.8117 9.67314C60.7517 9.64027 60.6844 9.62305 60.616 9.62305C60.5476 9.62305 60.4804 9.64027 60.4204 9.67314C60.3604 9.706 60.3096 9.75347 60.2726 9.81116L60.2328 9.8411Z" fill="#E24B4B"/>
<path d="M70.4758 31.1499C70.8063 30.9883 71.1813 30.9426 71.5408 31.0202C72.0086 31.11 72.4665 31.1998 72.9443 31.2697C73.9397 31.4194 75.0048 31.629 76.03 31.8485C76.2444 31.8887 76.466 31.8462 76.6505 31.7297C76.8351 31.6131 76.9689 31.431 77.0254 31.2198C77.0683 31.0059 77.0283 30.7837 76.9137 30.5984C76.7991 30.413 76.6183 30.2783 76.4083 30.2217C75.2006 30.0472 73.9845 29.9372 72.7652 29.8923C71.8992 29.8923 70.5554 29.8923 70.0278 30.6808C69.8785 30.9203 70.1473 31.3096 70.4359 31.1898L70.4758 31.1499Z" fill="#E24B4B"/>
<path d="M70.0971 30.7407C70.4271 30.7863 70.7595 30.813 71.0925 30.8205L72.0382 31.0102C72.8247 31.158 73.619 31.2613 74.4172 31.3196C75.9899 31.4793 77.5726 31.5591 79.1453 31.629C79.276 31.6257 79.4048 31.5967 79.5243 31.5435C79.6439 31.4903 79.7518 31.414 79.8419 31.319C79.932 31.224 80.0026 31.1121 80.0496 30.9898C80.0966 30.8674 80.1191 30.737 80.1158 30.6059C80.1126 30.4749 80.0836 30.3457 80.0305 30.2259C79.9775 30.106 79.9014 29.9979 79.8067 29.9075C79.7119 29.8171 79.6004 29.7464 79.4784 29.6992C79.3563 29.6521 79.2263 29.6295 79.0955 29.6328C77.4531 29.5729 75.7908 29.513 74.1186 29.553C73.3032 29.5561 72.4887 29.6094 71.6798 29.7126C71.1025 29.7925 70.2365 29.9123 69.908 30.4413C69.8897 30.4711 69.8788 30.5049 69.8762 30.5398C69.8736 30.5747 69.8794 30.6097 69.893 30.642C69.9066 30.6742 69.9278 30.7027 69.9546 30.7251C69.9815 30.7475 70.0133 30.7631 70.0474 30.7706L70.0971 30.7407Z" fill="#E24B4B"/>
<path d="M71.5906 47.0193C74.1388 46.8397 76.687 46.6001 79.2451 46.4704C80.5292 46.4105 81.8232 46.3906 83.1073 46.3806C84.3913 46.3706 85.6953 46.5203 86.9793 46.4504C87.9747 46.3906 88.3032 44.7138 87.1884 44.5441C85.8199 44.3945 84.4411 44.3645 83.0674 44.4543C81.7734 44.4543 80.4894 44.594 79.2053 44.7437C76.5762 45.0052 73.9888 45.5884 71.501 46.4804C71.2322 46.5802 71.2621 47.0393 71.5906 47.0193Z" fill="#E24B4B"/>
<path d="M71.7498 56.0221C73.0455 55.8545 74.3314 55.618 75.602 55.3135C79.4665 54.6189 83.4234 54.6189 87.2879 55.3135C88.5122 55.553 88.98 53.6467 87.7557 53.4271C84.9958 52.9171 82.179 52.7894 79.3845 53.0478C78.0443 53.1842 76.7143 53.4076 75.4029 53.7165C74.0179 53.9753 72.6878 54.4716 71.4711 55.1837C71.3906 55.2356 71.3293 55.3124 71.2965 55.4025C71.2637 55.4926 71.2612 55.591 71.2894 55.6827C71.3176 55.7743 71.375 55.8542 71.4527 55.9101C71.5305 55.966 71.6243 55.9948 71.72 55.9921L71.7498 56.0221Z" fill="#E24B4B"/>
<path d="M0.190975 7.15625C2.26139 11.0487 1.78359 16.3385 0.837973 20.5204C0.0416603 24.0337 5.81494 24.5626 5.6059 21.0494C5.30729 15.5999 6.01401 10.2603 2.87853 5.48947C2.6466 5.15781 2.29697 4.92763 1.90126 4.84609C1.50554 4.76455 1.09371 4.83782 0.750138 5.05089C0.406566 5.26397 0.157267 5.60073 0.0533069 5.99216C-0.0506533 6.38359 -0.00140373 6.80006 0.190975 7.15625Z" fill="#2E2221"/>
<path d="M103.602 4.97043C101.056 6.76172 99.0662 9.23653 97.8601 12.1107C96.654 14.9849 96.2808 18.1419 96.7833 21.2191C97.1516 23.7043 100.944 24.6625 101.551 21.7381C102.089 19.1531 101.671 16.4982 102.039 13.8733C102.427 11.0687 104.169 9.7612 105.762 7.62532C106.817 6.18809 105.364 3.7428 103.602 4.97043Z" fill="#2E2221"/>
<path d="M5.58594 22.2472C20.9846 19.1632 37.9063 20.5804 53.5737 20.8699C68.8331 21.1294 84.0825 21.7582 99.302 22.866C102.856 23.1255 102.716 17.5263 99.1626 17.2968C82.6391 16.2189 66.0858 15.7431 49.5026 15.8695C40.9721 15.9394 32.4316 16.3686 23.921 16.9973C18.5857 17.3866 8.77119 16.638 4.73986 20.8699C4.62236 21.0063 4.55128 21.1767 4.53689 21.3564C4.52251 21.5361 4.56559 21.7157 4.65987 21.8692C4.75416 22.0227 4.89474 22.1421 5.06126 22.2101C5.22777 22.278 5.41155 22.291 5.58594 22.2472Z" fill="#2E2221"/>
<path d="M0.93736 5.60919C3.74436 6.60727 7.10878 4.88059 9.9556 4.37157C14.0864 3.48807 18.3349 3.2992 22.5274 3.81265C31.8044 5.26984 40.6236 8.80305 49.9305 10.2004C58.1325 11.438 66.5934 12.1067 74.8153 10.8591C84.5701 9.38192 93.2798 6.56734 103.194 8.58346C106.25 9.20227 107.076 5.09019 104.329 4.00229C95.7982 0.658726 86.1727 3.71284 77.6124 5.41955C67.3897 7.41571 56.8385 6.89671 46.6059 5.11015C37.8962 3.58309 29.0373 0.119769 20.1584 0C16.1625 0.0734513 12.2 0.746293 8.4028 1.99616C5.81478 2.75469 2.50012 3.18386 0.867676 5.47944C0.867676 5.52934 0.867689 5.59921 0.927412 5.61917L0.93736 5.60919Z" fill="#2E2221"/>
<path d="M15.4504 10.36C13.8769 9.7002 12.1378 9.54675 10.4735 9.9209C9.54774 10.0806 8.65189 10.3501 7.73613 10.5098C6.5959 10.5525 5.46404 10.7232 4.36175 11.0188C3.36636 11.428 3.13742 13.1247 4.42147 13.3543C6.12359 13.6437 7.40764 12.8353 9.09981 12.3562C11.0651 11.8105 13.1051 11.5847 15.1418 11.6875C15.2982 11.6795 15.4478 11.6211 15.5684 11.5209C15.689 11.4207 15.7741 11.2842 15.811 11.1316C15.8479 10.9791 15.8347 10.8186 15.7733 10.6742C15.7119 10.5298 15.6057 10.4091 15.4703 10.3301L15.4504 10.36Z" fill="#2E2221"/>
<path d="M84.8891 12.3561C87.1392 12.3444 89.3884 12.4477 91.6279 12.6655C92.2252 12.7553 96.5352 13.2144 96.7542 13.6636C96.9038 13.8968 97.1373 14.0632 97.406 14.1282C97.6748 14.1933 97.9583 14.152 98.1975 14.0129L98.4563 13.8931C99.7304 13.3043 98.9242 11.4478 97.7297 11.4379C93.4595 11.4379 88.9503 10.35 84.7299 11.4379C84.1724 11.5776 84.3616 12.3661 84.8891 12.4359V12.3561Z" fill="#2E2221"/>
<path d="M88.6714 18.2049C88.0244 11.2183 84.4808 4.31164 76.866 2.95425C74.0989 2.45522 70.5752 4.29168 68.9029 6.49743C67.9689 7.94188 67.5255 9.65032 67.6388 11.3681C67.3341 13.3123 67.4461 15.2993 67.9673 17.1968C67.9504 17.9155 67.8638 18.6309 67.7085 19.3327C66.5339 24.3231 73.1731 26.6486 75.8507 22.5365C76.4281 21.6383 80.6087 23.4747 81.6738 23.7841C83.3025 23.8175 84.8913 23.2777 86.1643 22.2584C87.4372 21.2391 88.3137 19.8049 88.6415 18.2049H88.6714Z" fill="#E24B4B"/>
<path d="M70.1371 24.4429C75.919 26.043 81.9949 26.2584 87.875 25.0718C89.9255 24.6925 89.378 21.1692 87.2877 21.4088C81.6239 22.0376 75.9502 22.347 70.2964 22.9857C70.1167 22.9883 69.9442 23.0566 69.8113 23.1778C69.6784 23.299 69.5943 23.4647 69.5747 23.6438C69.5551 23.8229 69.6015 24.0029 69.7051 24.1501C69.8087 24.2973 69.9623 24.4014 70.1371 24.4429Z" fill="#FCD13A"/>
<path d="M84.4212 10.4299C81.5073 10.503 78.6012 10.7664 75.7215 11.2184C73.1534 11.6077 70.1971 11.8173 67.7584 12.8553C67.482 12.9521 67.2387 13.1258 67.0571 13.3561C66.8755 13.5864 66.763 13.8637 66.7328 14.1557C66.7025 14.4477 66.7557 14.7424 66.8862 15.0052C67.0167 15.268 67.2191 15.4881 67.4697 15.6399C67.8155 15.8417 68.1786 16.0121 68.5547 16.1489V16.2088C70.5454 17.7958 73.3524 17.4165 75.7513 17.4564C79.0479 17.6247 82.3521 17.3495 85.5758 16.638C86.0952 16.5021 86.5528 16.1927 86.8731 15.7608C87.1935 15.3289 87.3573 14.8004 87.3377 14.2626C87.4559 13.8129 87.4702 13.3422 87.3794 12.8862C87.2886 12.4302 87.0952 12.001 86.8139 11.6313C86.5326 11.2616 86.1708 10.9612 85.7562 10.753C85.3415 10.5448 84.8849 10.4343 84.4212 10.4299Z" fill="#FCD13A"/>
<path d="M65.6082 9.49166C67.5293 18.5941 67.7184 28.1657 67.9971 37.4378C68.1365 42.0389 68.2161 46.65 68.3555 51.2611C68.4649 55.0838 68.1365 59.4953 69.3508 63.1682C69.7291 64.3459 71.7896 64.5156 71.9787 63.1083C72.5063 59.0062 71.7099 54.5747 71.5407 50.4427C71.3516 45.5621 71.2123 40.6716 70.9933 35.791C70.5852 26.7384 69.8983 17.7058 67.2107 9.0026C67.1474 8.7948 67.0043 8.62077 66.813 8.51876C66.6216 8.41675 66.3977 8.39512 66.1905 8.45865C65.9832 8.52218 65.8097 8.66565 65.7079 8.85751C65.6062 9.04936 65.5846 9.27389 65.648 9.48169L65.6082 9.49166Z" fill="#2E2221"/>
<path d="M67.5096 10.5997C68.0571 5.55944 72.6757 4.22202 76.9559 4.74102C81.5447 5.29994 83.6648 8.40396 84.8294 12.506C86.5216 18.4446 86.4121 25.1716 86.5216 31.3098C86.6211 36.889 86.5216 42.4882 86.9596 48.0675C87.2881 52.6985 87.3577 58.5373 89.8761 62.5396C90.0614 62.8419 90.3407 63.0748 90.671 63.2022C91.0013 63.3297 91.3643 63.3446 91.7039 63.2447C92.0435 63.1448 92.3409 62.9357 92.5503 62.6495C92.7596 62.3633 92.8692 62.0161 92.8622 61.6613C93.2206 56.8905 91.5682 51.8602 91.2398 47.0295C90.9511 42.6978 90.8814 38.3462 90.762 34.0046C90.543 25.8703 91.0606 15.5202 87.298 8.05462C84.5507 2.59515 79.6733 0.5491 73.701 1.55716C69.3412 2.28575 63.8665 5.75905 66.0564 10.8792C66.1073 11.0576 66.2217 11.211 66.3779 11.3105C66.5341 11.4101 66.7212 11.4487 66.9039 11.4192C67.0866 11.3897 67.2522 11.2941 67.3693 11.1504C67.4864 11.0068 67.547 10.825 67.5395 10.6396L67.5096 10.5997Z" fill="#2E2221"/>
<path d="M69.9078 60.9925C70.0173 61.9207 70.1069 62.8589 70.1666 63.7971C70.1726 63.9212 70.2064 64.0423 70.2653 64.1516C70.3243 64.2608 70.4071 64.3554 70.5074 64.4282C70.6078 64.501 70.7232 64.5503 70.8451 64.5724C70.9671 64.5944 71.0924 64.5887 71.2118 64.5556C77.3036 62.9887 84.1021 57.6989 90.1242 62.8889C91.687 64.2263 93.8968 61.8908 92.324 60.5733C86.3019 55.583 75.4024 57.4494 70.3757 63.2182L71.6498 63.358L70.6544 60.8728C70.5648 60.4735 69.8879 60.5733 69.9377 60.9925H69.9078Z" fill="#2E2221"/>
<path d="M74.1685 70.1448C74.1685 69.027 73.7903 67.9091 73.7007 66.7813C73.7028 65.7072 73.6396 64.6339 73.5116 63.5675C73.4556 63.3864 73.3432 63.2281 73.191 63.1156C73.0387 63.0032 72.8546 62.9425 72.6655 62.9425C72.4764 62.9425 72.2923 63.0032 72.1401 63.1156C71.9878 63.2281 71.8755 63.3864 71.8194 63.5675C71.674 64.7189 71.769 65.8881 72.0982 67.0009C72.2473 68.196 72.6476 69.3458 73.2727 70.3744C73.3303 70.4626 73.4148 70.5298 73.5136 70.566C73.6124 70.6021 73.7202 70.6053 73.821 70.575C73.9217 70.5447 74.01 70.4825 74.0726 70.3978C74.1353 70.3131 74.1689 70.2103 74.1685 70.1049V70.1448Z" fill="#2E2221"/>
<path d="M75.383 67.9889C76.0797 67.4201 75.6915 66.3721 75.6219 65.5736C75.622 64.2575 75.5255 62.9432 75.3332 61.6413C75.295 61.5455 75.2316 61.4619 75.1497 61.3995C75.0679 61.3371 74.9706 61.2981 74.8684 61.2869C74.7661 61.2756 74.6627 61.2924 74.5693 61.3355C74.4758 61.3786 74.3958 61.4463 74.3378 61.5315C73.7008 62.5295 73.9795 64.0067 74.1985 65.1544C74.3577 65.9629 74.3478 67.6396 75.1938 67.9889C75.2253 68.0084 75.2614 68.0187 75.2984 68.0187C75.3353 68.0187 75.3715 68.0084 75.4029 67.9889H75.383Z" fill="#2E2221"/>
<path d="M78.3593 67.6696C78.4589 66.5173 78.4589 65.3586 78.3593 64.2063C78.4964 63.0499 78.4629 61.8796 78.2598 60.733C78.2246 60.6194 78.1606 60.5169 78.0741 60.4354C77.9877 60.354 77.8816 60.2963 77.7663 60.2682C77.6511 60.2401 77.5305 60.2423 77.4163 60.2748C77.3022 60.3073 77.1984 60.3689 77.115 60.4535C76.2291 61.3219 76.468 62.7391 76.6273 63.8869C76.7295 65.2328 77.0664 66.5503 77.6227 67.7794C77.6651 67.8459 77.7258 67.8986 77.7974 67.9313C77.8691 67.964 77.9486 67.9752 78.0264 67.9636C78.1043 67.952 78.1771 67.918 78.2362 67.8659C78.2952 67.8137 78.338 67.7456 78.3593 67.6696Z" fill="#2E2221"/>
<path d="M81.8529 66.4121C81.5941 64.5058 80.7281 62.4198 80.9869 60.4835C81.1064 59.6451 80.2504 58.7768 79.4142 59.3357C78.0804 60.234 78.3293 61.4916 78.6677 62.8989C78.9822 64.3879 79.6212 65.7887 80.539 67.001C80.6521 67.1036 80.7926 67.171 80.9432 67.195C81.0939 67.219 81.2482 67.1986 81.3875 67.1361C81.5267 67.0737 81.6449 66.972 81.7275 66.8435C81.8102 66.7149 81.8537 66.5651 81.8529 66.4121Z" fill="#2E2221"/>
<path d="M84.6898 66.4918C85.1278 65.2143 84.7396 63.8769 84.8391 62.5594C84.9387 61.2419 85.4165 60.0842 85.5061 58.8266C85.5001 58.6288 85.4492 58.4351 85.3571 58.2601C85.2651 58.0851 85.1343 57.9335 84.9748 57.817C84.8154 57.7004 84.6315 57.622 84.4372 57.5877C84.2429 57.5533 84.0433 57.564 83.8537 57.6189C80.7083 58.8465 82.709 64.1962 83.3062 66.5317C83.4954 67.2703 84.4808 67.1206 84.6898 66.5317V66.4918Z" fill="#2E2221"/>
<path d="M87.5265 66.0427C87.7952 64.9348 87.8549 63.797 88.1635 62.6791C88.4721 61.5613 89.1589 60.5332 89.0096 59.4553C88.9994 59.255 88.938 59.0607 88.8311 58.8911C88.7243 58.7215 88.5757 58.5823 88.3997 58.4871C88.2236 58.3918 88.0261 58.3436 87.826 58.3471C87.626 58.3506 87.4303 58.4057 87.2577 58.5072C85.2669 59.7248 85.0479 64.0964 85.7248 66.0926C85.8052 66.264 85.9326 66.409 86.0921 66.5106C86.2516 66.6121 86.4367 66.666 86.6256 66.666C86.8146 66.666 86.9996 66.6121 87.1592 66.5106C87.3187 66.409 87.4461 66.264 87.5265 66.0926V66.0427Z" fill="#2E2221"/>
<path d="M91.2892 67.3202C92.1752 66.7912 91.8865 65.5636 91.8566 64.6853C91.8069 63.4277 92.0856 61.9306 91.6675 60.693C91.5997 60.5244 91.4874 60.3777 91.3425 60.2685C91.1977 60.1593 91.0259 60.0918 90.8456 60.0733C90.6653 60.0548 90.4834 60.086 90.3195 60.1636C90.1556 60.2411 90.0159 60.362 89.9156 60.5133C89.2685 61.9405 89.6866 63.8768 89.8658 65.3939C89.9355 65.9528 90.2142 67.929 91.2892 67.2802V67.3202Z" fill="#2E2221"/>
<path d="M73.0836 55.6428C75.6019 54.8344 77.6325 53.487 80.3599 53.3572C82.2412 53.2774 84.1424 53.9062 86.0037 53.6666C86.4616 53.6067 86.601 52.938 86.1033 52.8183C81.3951 51.7004 76.448 51.3611 72.6655 54.9641C72.6082 55.0317 72.5738 55.1156 72.5671 55.204C72.5604 55.2924 72.5818 55.3806 72.6283 55.456C72.6747 55.5314 72.7438 55.5901 72.8256 55.6237C72.9074 55.6572 72.9977 55.664 73.0836 55.6428Z" fill="#2E2221"/>
</svg>
