<svg width="344" height="199" viewBox="0 0 344 199" fill="none" xmlns="http://www.w3.org/2000/svg">
<path d="M271.314 96.8833C271.232 97.2371 271.09 97.5746 270.896 97.8813C271.012 98.3782 271.014 98.8951 270.902 99.3929C270.79 99.8906 270.566 100.356 270.247 100.754C269.929 101.153 269.524 101.473 269.064 101.691C268.604 101.909 268.1 102.019 267.591 102.013C249.027 102.013 230.662 104.858 212.098 104.409C202.264 104.169 192.469 104.319 182.625 104.588C178.145 104.708 173.348 105.367 168.878 105.058C167.087 104.938 164.588 104.688 164.2 102.522C164.121 102.145 164.14 101.753 164.257 101.386C164.374 101.019 164.584 100.688 164.867 100.426C161.612 94.8971 161.612 85.9344 161.035 79.9459C160.24 71.6058 160.107 63.2156 160.636 54.8543C161.033 46.9899 162.096 39.1735 163.812 31.4893C164.831 27.6442 166.054 23.8562 167.475 20.1412C168.819 16.3685 169.555 12.4261 170.969 8.69329C171.038 8.52102 171.132 8.35966 171.247 8.21421C171.247 7.84118 171.389 7.48215 171.644 7.21106C171.9 6.93997 172.25 6.77746 172.621 6.75702C177.19 6.32785 182.037 10.0207 185.939 12.0768C190.458 14.4622 194.898 16.9673 199.507 19.2429C204.502 21.676 209.637 23.809 214.885 25.6306C215.443 25.8303 215.96 26.0498 216.448 26.2494C216.447 26.0759 216.488 25.9047 216.568 25.7504C216.614 25.5832 216.699 25.4294 216.816 25.3013C216.897 25.1517 217.018 25.0274 217.165 24.942C217.351 24.7609 217.581 24.6304 217.832 24.5627L218.349 24.4828L218.887 24.5427L219.365 24.7324L219.773 25.0318L220.081 25.4111C222.361 23.6944 224.481 21.788 226.949 20.231C230.394 18.0652 234.206 17.2368 237.899 15.5002C244.807 12.2864 250.212 6.87679 257.876 5.25991C262.784 4.26183 265.441 10.4299 262.694 13.0848C265.491 17.9455 267.392 23.7543 269.194 28.7446C271.64 35.7317 273.009 43.0518 273.255 50.4528C274.051 65.883 275.087 81.7724 271.314 96.8833Z" fill="#FCD13A"/>
<path d="M142.142 18.6541C143.635 22.1374 147.686 24.5129 150.175 27.3474C153.45 31.0602 155.659 35.3919 158.028 39.6936L157.969 37.3581L157.76 37.7972L160.656 36.9588L159.661 36.3899C159.477 36.287 159.273 36.2279 159.063 36.2174C158.853 36.2069 158.643 36.2451 158.451 36.3292C158.258 36.4133 158.087 36.5409 157.952 36.702C157.816 36.8632 157.72 37.0536 157.67 37.2583L157.551 38.3162C157.401 39.7035 158.546 41.6298 160.238 40.8813L160.646 40.6916C161.226 40.5051 161.711 40.1001 161.999 39.562C162.287 39.0239 162.355 38.3947 162.189 37.8072C160.626 33.1262 157.561 29.5132 154.136 26.0599C151.28 23.1854 147.358 18.3348 143.257 17.4764C142.63 17.3467 141.833 17.9555 142.132 18.6541H142.142Z" fill="#FCD13A"/>
<path d="M167.067 5.63918C167.026 5.3599 167.057 5.07486 167.156 4.81079C167.216 4.62116 166.917 4.55129 166.848 4.74092C166.75 5.03299 166.716 5.34276 166.748 5.64916C166.748 5.83879 167.086 5.83879 167.067 5.64916V5.63918Z" fill="#FCD13A"/>
<path d="M165.235 2.48543L165.166 2.59522C165.048 2.79295 164.986 3.01881 164.986 3.24896C164.986 3.4791 165.048 3.70497 165.166 3.9027C165.93 4.78911 166.937 5.43111 168.062 5.74914C169.217 6.30141 170.512 6.48933 171.775 6.2881C171.961 6.22828 172.129 6.12123 172.262 5.97733C172.394 5.83342 172.488 5.65755 172.533 5.46676C172.578 5.27597 172.573 5.07674 172.519 4.88839C172.465 4.70004 172.363 4.52897 172.223 4.39176C171.331 3.6594 170.287 3.13751 169.167 2.8647C168.647 2.67038 168.115 2.51034 167.574 2.38562C167.166 2.27583 166.878 2.04628 166.47 1.92651C166.226 1.8715 165.97 1.89603 165.741 1.99657C165.512 2.0971 165.321 2.26837 165.195 2.48543H165.235Z" fill="#FCD13A"/>
<path d="M165.713 3.87254C166.279 4.42924 166.958 4.85801 167.704 5.13012C168.449 5.55019 169.287 5.77984 170.142 5.79883C170.416 5.78813 170.68 5.69738 170.903 5.53776C171.126 5.37815 171.298 5.15666 171.396 4.90056C171.503 4.64508 171.529 4.36326 171.472 4.09238C171.415 3.82149 171.278 3.5743 171.078 3.38348C170.365 2.93202 169.57 2.62672 168.739 2.48521C167.99 2.25787 167.219 2.11394 166.439 2.05603C166.235 2.06782 166.038 2.13851 165.873 2.25962C165.707 2.38073 165.58 2.54712 165.506 2.73884C165.433 2.93057 165.416 3.13951 165.458 3.34059C165.5 3.54167 165.599 3.72637 165.743 3.87254H165.713Z" fill="#FCD13A"/>
<path d="M163.812 3.10407C160.484 4.60598 157.45 6.69138 154.853 9.26219C153.479 10.7476 151.954 12.0855 150.304 13.2545C148.99 14.1627 146.741 16.1489 145.138 16.4184C140.828 17.137 142.749 23.9638 147.129 23.0556C151.11 22.2372 155.669 17.636 158.078 14.5819C159.425 12.7618 160.96 11.0891 162.657 9.59156C164.269 8.41329 165.435 6.72047 165.962 4.79082C166.024 4.50667 166.003 4.21035 165.901 3.93811C165.798 3.66587 165.618 3.42953 165.384 3.25798C165.15 3.08643 164.87 2.98711 164.58 2.97219C164.291 2.95726 164.003 3.02738 163.752 3.17394L163.812 3.10407Z" fill="#FCD13A"/>
<path d="M165.822 5.39959C163.135 10.1704 161.413 15.4402 159.71 20.6302C158.247 25.0617 155.331 30.3016 156.535 34.9826C157.053 36.9787 159.82 37.0885 160.805 35.4317C163.244 31.3496 164.07 25.6805 165.424 21.0993C167.007 16.2275 168.117 11.2139 168.739 6.12818C168.898 4.5113 166.529 4.13203 165.822 5.40957V5.39959Z" fill="#FCD13A"/>
<path d="M157.7 25.5808C157.139 24.3748 156.336 23.2977 155.341 22.4169C154.5 21.8079 153.744 21.0897 153.091 20.281C151.767 18.2249 148.194 19.6422 149.11 22.0975C150.035 24.7124 152.962 25.3712 154.296 27.7166C154.584 28.1673 155.037 28.4879 155.556 28.6108C156.076 28.7337 156.624 28.6493 157.083 28.3754C157.526 28.0809 157.841 27.6278 157.963 27.1086C158.086 26.5893 158.006 26.0429 157.74 25.5808H157.7Z" fill="#FCD13A"/>
<path d="M157.869 30.3017C157.999 21.6284 164.26 12.2465 169.167 5.43962C170.909 3.03425 166.748 0.648861 165.086 3.17399C160.029 10.8193 154.196 20.8699 154.754 30.3815C154.793 30.7746 154.98 31.1381 155.276 31.3992C155.571 31.6603 155.954 31.7998 156.348 31.7897C156.742 31.7796 157.118 31.6207 157.4 31.3448C157.682 31.0689 157.849 30.6963 157.869 30.3017Z" fill="#FCD13A"/>
<path d="M169.067 12.0768C170.024 10.5419 170.799 8.9007 171.377 7.18624C171.534 6.53667 171.43 5.8512 171.087 5.27788C170.744 4.70457 170.191 4.28944 169.545 4.12217C168.361 3.83273 166.639 4.60124 166.489 5.95862C166.313 7.5532 165.949 9.1212 165.404 10.6296C165.294 11.0963 165.355 11.5871 165.577 12.0122C165.798 12.4374 166.164 12.7686 166.609 12.9451C167.054 13.121 167.548 13.13 168 12.9705C168.451 12.8111 168.83 12.4938 169.067 12.0768Z" fill="#FCD13A"/>
<path d="M154.942 23.4449C155.808 22.1474 156.226 20.5105 156.983 19.1132C157.781 17.6658 158.787 16.3442 159.969 15.1907C162.089 13.0648 158.476 9.72128 156.644 12.0169C154.355 14.8913 151.667 19.3328 152.524 23.1953C152.802 24.403 154.365 24.3132 154.952 23.4449H154.942Z" fill="#FCD13A"/>
<path d="M156.764 25.3214C157.704 24.2804 158.434 23.0671 158.914 21.7483C159.482 20.321 160.367 18.8638 160.427 17.3168C160.527 15.0511 157.521 14.1329 156.077 15.63C154.156 17.6262 155.082 20.86 153.838 23.1755C153.631 23.5656 153.572 24.0172 153.67 24.4476C153.769 24.878 154.019 25.2584 154.374 25.5191C154.73 25.7798 155.167 25.9033 155.606 25.867C156.045 25.8307 156.456 25.637 156.764 25.3214Z" fill="#FCD13A"/>
<path d="M148.84 17.4066C150.712 16.4086 152.673 15.4105 154.514 14.2727C156.634 13.0151 158.496 11.2784 160.835 10.4201C164.438 9.12259 162.607 3.30379 159.123 4.75101C156.654 5.85383 154.376 7.3429 152.374 9.16252C150.383 10.8093 148.104 12.007 146.302 13.8435C146.03 14.1291 145.839 14.482 145.748 14.8661C145.657 15.2502 145.67 15.6517 145.785 16.0293L145.864 16.2788C145.95 16.5773 146.104 16.8517 146.315 17.0799C146.525 17.3081 146.785 17.484 147.075 17.5935C147.365 17.7031 147.677 17.7432 147.985 17.7107C148.293 17.6783 148.589 17.5742 148.85 17.4066H148.84Z" fill="#FCD13A"/>
<path d="M262.146 5.91871C263.241 6.39358 264.417 6.65442 265.61 6.68723C266.954 6.74712 268.228 6.76708 268.994 5.48953C269.156 5.19528 269.216 4.85589 269.166 4.5239C269.115 4.19191 268.957 3.88583 268.716 3.65304C267.621 2.7847 266.725 3.11408 265.461 3.3636C264.465 3.56322 263.39 3.68298 262.355 3.91254C262.157 3.98137 261.982 4.10556 261.851 4.27053C261.72 4.4355 261.639 4.63442 261.617 4.84396C261.595 5.05349 261.633 5.26496 261.727 5.45355C261.821 5.64215 261.966 5.80003 262.146 5.90872V5.91871Z" fill="#FCD13A"/>
<path d="M264.236 7.99476C265.929 12.8155 269.104 17.3168 271.752 21.6584C274.081 25.491 276.012 29.4334 279.824 31.9586C282.153 33.4956 284.921 29.7628 282.731 27.9662C280.546 26.0173 278.813 23.6121 277.654 20.9198L276.032 23.9141C277.276 24.0139 279.217 28.8346 279.735 29.8127L280.033 26.9183C277.515 29.7528 274.369 31.6392 272.518 35.0426L276.808 35.4917C275.395 30.4115 274.17 25.2714 272.737 20.1912C271.523 15.9095 270.537 11.2086 267.591 7.76519C267.338 7.50858 267.02 7.32562 266.671 7.23577C266.322 7.14592 265.956 7.15257 265.611 7.25497C265.266 7.35738 264.955 7.55172 264.711 7.81732C264.467 8.08292 264.3 8.40984 264.226 8.76327C263.589 13.2746 265.471 17.746 266.924 21.9778C268.646 26.9682 270.587 31.8887 272.329 36.8691C272.946 38.6357 275.713 39.2545 276.609 37.3182C278.023 34.324 281.258 32.6273 283.467 30.2219C283.884 29.7565 284.107 29.1493 284.092 28.5243C284.078 27.8993 283.826 27.3035 283.388 26.8584C281.188 24.2135 279.615 20.311 275.932 20.0016C274.31 19.8619 273.732 21.8181 274.32 22.9958C275.693 25.8004 277.465 28.3355 278.918 31.0902L282.731 27.9762C276.062 22.1674 273.633 12.3763 267.561 5.93871C267.247 5.59973 266.826 5.38036 266.37 5.31803C265.913 5.25571 265.449 5.3543 265.056 5.59698C264.664 5.83965 264.367 6.21136 264.218 6.64866C264.068 7.08596 264.075 7.56173 264.236 7.99476Z" fill="#FCD13A"/>
<path d="M262.783 7.13617C264.117 11.5077 266.506 15.5599 268.517 19.6321C270.637 23.9338 272.19 29.0739 275.076 32.8865C276.659 34.9725 280.402 33.7149 279.506 30.8904C277.888 26.3022 275.782 21.9019 273.225 17.7657C270.826 13.5837 268.646 9.16226 265.6 5.40949C264.475 4.02216 262.315 5.62907 262.783 7.14615V7.13617Z" fill="#FCD13A"/>
<path d="M269.602 13.9732C269.881 15.8595 271.473 16.9674 272.469 18.4745C273.594 20.1912 273.982 22.2372 275.813 23.385C276.183 23.5806 276.592 23.6899 277.01 23.7047C277.428 23.7195 277.844 23.6395 278.227 23.4706C278.61 23.3017 278.95 23.0484 279.221 22.7294C279.493 22.4104 279.689 22.034 279.795 21.6284C280.273 18.9635 278.391 16.8476 276.61 15.081C275.107 13.574 273.126 11.7475 270.866 12.1667C270.483 12.2844 270.149 12.5249 269.915 12.8512C269.682 13.1775 269.561 13.5716 269.572 13.9732H269.602Z" fill="#FCD13A"/>
<path d="M216.498 26.5789C223.197 24.1835 229.697 21.0196 236.216 18.1751C240.948 16.0991 245.669 14.0131 250.381 11.9171C254.263 10.1905 258.623 8.74326 262.226 6.48761C263.799 5.48954 262.694 2.84464 260.862 3.49339C252.262 6.34788 243.941 11.6876 235.778 15.6799C229.259 18.8737 222.779 22.387 216.05 25.1217C215.134 25.501 215.542 26.9581 216.498 26.6188V26.5789Z" fill="#2E2221"/>
<path d="M216.647 25.1515C210.187 22.4667 204.045 18.684 197.884 15.4003C189.821 11.0986 181.45 5.41956 172.78 2.48522C170.899 1.85644 170.033 4.62109 171.566 5.57925C179.608 10.6195 189.264 14.033 197.834 18.1251C203.806 20.9895 209.828 24.3031 216.09 26.5887C216.906 26.8882 217.463 25.4908 216.647 25.1515Z" fill="#2E2221"/>
<path d="M215.841 27.1777C220.579 32.2779 226.103 36.5596 231.16 41.3304C231.402 41.5391 231.715 41.6465 232.034 41.6304C232.352 41.6142 232.653 41.4758 232.873 41.2438C233.093 41.0117 233.215 40.7038 233.215 40.3836C233.215 40.0635 233.092 39.7557 232.872 39.5239C228.064 34.4836 222.142 30.631 217.015 25.9301C216.849 25.783 216.632 25.7065 216.41 25.7167C216.188 25.727 215.979 25.8231 215.827 25.9849C215.675 26.1468 215.591 26.3616 215.594 26.5841C215.596 26.8066 215.685 27.0195 215.841 27.1777Z" fill="#2E2221"/>
<path d="M260.096 5.09018C260.437 7.17688 260.966 9.22809 261.679 11.2184C262.024 12.7552 262.466 14.2686 263.002 15.7496C263.192 16.2064 263.543 16.5766 263.989 16.7881C264.435 16.9997 264.944 17.0377 265.416 16.8948C265.888 16.7518 266.291 16.4381 266.546 16.0145C266.8 15.5908 266.889 15.0874 266.795 14.6018C266.468 13.0554 265.974 11.5494 265.322 10.1105C264.633 8.09932 263.749 6.16049 262.684 4.32165C261.967 3.23375 259.947 3.63299 260.096 5.09018Z" fill="#2E2221"/>
<path d="M233.27 41.8193C244.932 34.6733 256.033 26.6455 266.476 17.8056C268.586 15.9891 265.401 12.8951 263.321 14.8114C253.496 23.7941 242.746 31.9783 232.085 39.913C230.941 40.7713 232.016 42.6278 233.27 41.8393V41.8193Z" fill="#2E2221"/>
<path d="M215.811 25.96C210.625 30.7708 204.981 35.1424 200.114 40.2924C199.009 41.4602 200.761 43.107 201.925 42.0091C207.032 37.1385 212.258 32.3477 217.045 27.1477C217.192 26.9818 217.269 26.7654 217.26 26.5438C217.251 26.3223 217.157 26.1128 216.997 25.9593C216.838 25.8057 216.625 25.7201 216.404 25.7202C216.183 25.7204 215.97 25.8063 215.811 25.96Z" fill="#2E2221"/>
<path d="M201.138 40.7614C190.378 32.7768 179.548 24.4928 169.644 15.4402C167.564 13.5439 164.508 16.7777 166.658 18.6041C177.095 27.421 188.186 35.4288 199.835 42.558C200.9 43.2267 202.194 41.5599 201.158 40.7514L201.138 40.7614Z" fill="#2E2221"/>
<path d="M171.148 3.43346C169.913 5.4296 169.037 7.59543 168.002 9.66144C166.869 11.7268 165.926 13.8916 165.185 16.1289C165.078 16.5947 165.142 17.0834 165.364 17.5062C165.586 17.929 165.952 18.2579 166.396 18.433C166.839 18.6082 167.33 18.6181 167.78 18.4609C168.23 18.3036 168.609 17.9897 168.848 17.5762C169.913 15.4702 170.62 13.1747 171.486 10.9889C172.451 8.8912 173.201 6.70088 173.726 4.4515C173.789 4.12713 173.736 3.79087 173.576 3.50167C173.417 3.21246 173.161 2.98875 172.853 2.86973C172.546 2.7507 172.207 2.74395 171.895 2.85067C171.583 2.95739 171.318 3.17078 171.148 3.45342V3.43346Z" fill="#2E2221"/>
<path d="M215.662 26.499C214.527 37.2283 215.343 48.2271 215.662 58.9863C215.662 59.2034 215.748 59.4115 215.901 59.565C216.054 59.7185 216.262 59.8047 216.478 59.8047C216.695 59.8047 216.902 59.7185 217.055 59.565C217.208 59.4115 217.294 59.2034 217.294 58.9863C217.613 48.2271 218.439 37.2183 217.294 26.499C217.294 26.2819 217.208 26.0737 217.055 25.9203C216.902 25.7668 216.695 25.6805 216.478 25.6805C216.262 25.6805 216.054 25.7668 215.901 25.9203C215.748 26.0737 215.662 26.2819 215.662 26.499Z" fill="#2E2221"/>
<path d="M222.679 42.7876H222.619C222.364 42.6376 222.074 42.5585 221.778 42.5585C221.482 42.5585 221.192 42.6376 220.937 42.7876H220.877C220.675 42.9043 220.504 43.0687 220.379 43.2667C220.273 43.3781 220.197 43.5158 220.16 43.6659C220.055 43.8828 220.006 44.1235 220.021 44.3645L220.101 44.8336L220.29 45.2628C220.406 45.4628 220.571 45.6308 220.768 45.7519C220.879 45.8589 221.016 45.9346 221.166 45.9714C221.379 46.0768 221.615 46.1249 221.853 46.1112L222.33 46.0313L222.758 45.8417C222.957 45.7285 223.125 45.5673 223.246 45.3726C223.353 45.2575 223.429 45.1165 223.465 44.9634C223.572 44.7504 223.62 44.5126 223.604 44.2747L223.525 43.7956L223.336 43.3765C223.174 43.114 222.948 42.8976 222.679 42.7477V42.7876Z" fill="#2E2221"/>
<path d="M222.679 50.363H222.619C222.362 50.2146 222.069 50.1419 221.773 50.1534C221.477 50.1609 221.189 50.247 220.937 50.4029H220.877C220.677 50.5186 220.507 50.6792 220.379 50.872C220.272 50.9871 220.197 51.1281 220.16 51.2812C220.054 51.4945 220.006 51.732 220.021 51.9699L220.101 52.449L220.29 52.8681C220.406 53.071 220.57 53.2423 220.768 53.3672C220.882 53.4702 221.018 53.5453 221.166 53.5868C221.38 53.6891 221.616 53.7338 221.853 53.7165L222.33 53.6466L222.758 53.457C222.958 53.34 223.125 53.1754 223.246 52.9779C223.353 52.8665 223.428 52.7288 223.465 52.5787C223.571 52.3618 223.619 52.1211 223.604 51.88L223.525 51.411L223.336 50.9818C223.168 50.7242 222.943 50.509 222.679 50.353V50.363Z" fill="#2E2221"/>
<path d="M284.114 27.6867C281.855 28.2755 279.665 30.8306 278.072 32.4175C275.362 34.9647 273.172 38.0154 271.622 41.4002C271.472 41.7143 271.446 42.0743 271.551 42.4065C271.657 42.7387 271.884 43.0182 272.188 43.1877C272.492 43.3571 272.849 43.4039 273.186 43.3184C273.523 43.2329 273.814 43.0216 274.001 42.7277C276.023 39.8134 278.262 37.0574 280.7 34.4836C282.173 32.9665 284.612 31.4893 285.548 29.4932C285.658 29.275 285.702 29.0295 285.676 28.7864C285.65 28.5434 285.555 28.313 285.401 28.1231C285.248 27.9333 285.043 27.792 284.811 27.7163C284.579 27.6406 284.33 27.6338 284.095 27.6966L284.114 27.6867Z" fill="#2E2221"/>
<path d="M159.641 46.75C158.227 35.5316 149.567 26.1797 141.923 18.3947C139.932 16.3986 136.299 19.263 138.091 21.5187C144.65 29.7728 154.196 36.7892 157.74 47.0594C158.078 48.0575 159.79 47.8978 159.641 46.75Z" fill="#2E2221"/>
<path d="M164.578 107.343C184.695 106.185 204.842 108.86 224.939 107.712C239.671 106.864 254.611 104.638 269.353 106.245C271.533 106.485 271.772 103.012 269.771 102.483C263.331 100.796 255.836 101.784 249.236 102.163C241.273 102.632 233.31 103.401 225.347 103.93C205.101 105.267 184.775 103.201 164.518 104.768C162.886 104.888 162.926 107.433 164.588 107.343H164.578Z" fill="#2E2221"/>
<path d="M263.699 12.5259C263.821 13.9223 264.094 15.3012 264.515 16.638C264.963 17.9255 265.371 19.233 265.759 20.5404C266.556 23.2053 267.302 25.8801 267.929 28.5849C269.197 33.8479 270.161 39.1798 270.816 44.5541C272.113 55.6253 272.326 66.7971 271.453 77.9099C270.545 89.1346 268.778 100.273 266.167 111.226C263.473 122.584 260.15 133.783 256.214 144.771C252.322 155.75 247.992 166.579 243.562 177.318C242.995 178.706 242.447 180.093 241.94 181.51C241.243 183.506 244.428 184.724 245.324 182.848C247.862 177.568 249.903 172.008 252.073 166.569C254.243 161.129 256.462 155.42 258.543 149.791C262.644 138.743 266.376 127.534 269.383 116.136C272.411 104.935 274.532 93.5062 275.723 81.962C276.904 70.7603 276.881 59.4637 275.653 48.267C274.462 37.0995 271.739 26.1504 267.561 15.7297C267.005 14.4019 266.261 13.1615 265.351 12.0468C264.883 11.448 263.639 11.5677 263.719 12.5259H263.699Z" fill="#2E2221"/>
<path d="M167.773 11.8971C166.886 12.9621 166.156 14.1484 165.603 15.4203C165.056 16.7277 164.548 18.0352 164.05 19.3427C163.055 21.9976 162.199 24.7024 161.422 27.4271C159.899 32.7774 158.745 38.2264 157.968 43.7357C156.404 55.0238 156.07 66.4494 156.973 77.81C157.879 89.3307 159.76 100.753 162.597 111.954C165.494 123.388 168.965 134.667 172.999 145.749C176.98 156.868 181.39 167.837 185.939 178.745C186.526 180.183 187.143 181.6 187.81 183.007C188.716 184.884 175.5 159.428 191.125 181.5C189.204 176.021 186.785 170.691 184.605 165.301C182.425 159.912 180.325 154.323 178.304 148.823C174.261 137.927 170.789 126.827 167.902 115.567C165.073 104.576 163.076 93.3853 161.93 82.0918C160.847 71.0392 160.784 59.91 161.741 48.8458C162.734 37.8962 164.998 27.1004 168.49 16.6778C168.909 15.381 169.186 14.0424 169.316 12.6855C169.396 11.937 168.45 11.1086 167.833 11.8771L167.773 11.8971Z" fill="#2E2221"/>
<path d="M167.106 0.988159C163.647 1.94803 160.293 3.252 157.092 4.88065C153.91 6.50051 150.826 8.30683 147.855 10.2902C141.813 14.2315 136.149 18.7254 130.934 23.7144C125.957 28.4652 120.552 33.8748 118.72 40.7515C116.988 47.2989 119.954 54.1756 124.573 58.8267C127.338 61.4923 130.562 63.6329 134.089 65.1445C137.876 66.8016 141.782 68.1696 145.775 69.2366L145.237 67.3502C142.357 71.1261 140.459 75.5609 139.713 80.2554C139.664 80.4817 139.69 80.7177 139.786 80.9284C139.881 81.1391 140.042 81.3134 140.244 81.4253C140.446 81.5373 140.679 81.581 140.908 81.55C141.137 81.5191 141.349 81.4151 141.515 81.2534C144.152 78.389 146.91 75.6442 149.528 72.7698C150.413 71.7717 149.209 70.1948 148.074 70.9633C146.315 72.1707 145.013 73.9378 144.379 75.979C143.745 78.0201 143.816 80.216 144.58 82.2116C144.623 82.3745 144.709 82.5227 144.829 82.6408C144.94 82.7668 145.08 82.863 145.237 82.9202C145.397 82.9784 145.566 83.0022 145.735 82.9901C145.902 82.9699 146.062 82.9119 146.203 82.8204C149.967 80.5193 152.79 76.949 154.166 72.7498C154.212 72.5016 154.179 72.2451 154.073 72.0164C153.966 71.7878 153.79 71.5984 153.57 71.475C153.351 71.3517 153.098 71.3004 152.848 71.3286C152.597 71.3568 152.362 71.4629 152.175 71.632C150.713 73.1101 149.645 74.9333 149.069 76.9338C148.493 78.9343 148.428 81.0478 148.881 83.0799C148.93 83.2531 149.023 83.4109 149.149 83.539C149.269 83.67 149.42 83.7694 149.587 83.8285C149.754 83.8962 149.936 83.9202 150.115 83.8984C150.294 83.8866 150.468 83.8318 150.622 83.7387C152.64 82.3946 154.361 80.6482 155.676 78.6082C156.991 76.5682 157.873 74.2784 158.267 71.8815C158.675 69.479 158.576 67.0176 157.978 64.6555C157.388 62.2954 156.317 60.0833 154.833 58.158C154.038 57.0849 153.127 56.104 152.116 55.2336C151.087 54.2708 149.935 53.4486 148.691 52.7883L148.761 55.7825L154.196 52.9181C156.027 51.92 157.889 51.1115 159.77 50.2532C160.203 49.9832 160.512 49.5527 160.629 49.0553C160.747 48.558 160.663 48.0342 160.397 47.5983C160.121 47.1737 159.694 46.8704 159.203 46.7499C158.957 46.69 158.703 46.6795 158.453 46.7189C158.204 46.7583 157.965 46.8469 157.749 46.9795C155.988 47.9776 154.226 49.0655 152.394 49.9737L146.969 52.7983C146.718 52.9613 146.512 53.1863 146.372 53.4519C146.231 53.7174 146.161 54.0146 146.168 54.315C146.175 54.6154 146.259 54.9089 146.411 55.1676C146.564 55.4263 146.78 55.6415 147.039 55.7925C148.029 56.1973 148.981 56.6882 149.886 57.2597C150.671 57.8324 151.397 58.4809 152.056 59.196C153.499 60.6818 154.6 62.4671 155.281 64.4259C155.95 66.4034 156.199 68.4995 156.012 70.5793C155.825 72.6592 155.207 74.6768 154.196 76.5026C153.043 78.6175 151.406 80.4272 149.418 81.7824L151.16 82.4511C150.776 80.8202 150.83 79.1162 151.318 77.5134C151.806 75.9106 152.71 74.4665 153.937 73.3287L151.946 72.2109C150.751 75.8331 148.356 78.9361 145.158 81.0039L146.79 81.6128C146.189 80.0896 146.126 78.4061 146.611 76.842C147.093 75.2801 148.085 73.9265 149.428 72.9994L147.965 71.1928C145.297 74.0274 142.759 76.9817 140.101 79.8262L141.903 80.8243C142.597 76.51 144.348 72.4358 146.999 68.9671C147.127 68.8169 147.219 68.6394 147.268 68.4481C147.318 68.2584 147.318 68.059 147.268 67.8693C147.214 67.6794 147.111 67.5072 146.969 67.3702C146.827 67.2381 146.657 67.1392 146.472 67.0808C139.952 65.2044 133.014 63.6374 127.718 59.0962C125.35 57.1618 123.468 54.6969 122.224 51.9C121.141 49.1035 121.008 46.0269 121.846 43.1469C122.777 40.185 124.267 37.4302 126.235 35.0325C128.295 32.3856 130.515 29.8689 132.885 27.4971C137.657 22.7481 142.818 18.408 148.313 14.5221C151.399 12.3063 154.574 10.2204 157.849 8.30406C159.511 7.30598 161.104 6.258 162.826 5.30983C164.548 4.36166 166.141 3.38354 167.803 2.3156C167.942 2.22627 168.042 2.08701 168.082 1.92635C168.141 1.76882 168.141 1.59482 168.082 1.43729C168.012 1.28766 167.892 1.16745 167.743 1.09795C167.596 1.02238 167.425 1.00459 167.265 1.04804L167.106 0.988159Z" fill="#2E2221"/>
<path d="M263.869 0.908266C264.277 1.54704 264.655 2.21575 265.083 2.84454C265.511 3.47333 266.078 4.2119 266.616 4.84069C267.552 6.10825 268.487 7.38579 269.403 8.66333C271.288 11.2517 273.129 13.86 274.927 16.4882C278.531 21.7681 282.025 27.1277 285.528 32.4575C287.519 35.4517 289.331 38.5657 291.501 41.4402C291.639 41.6572 291.827 41.8385 292.048 41.9691C292.265 42.1063 292.51 42.1916 292.765 42.2187C293.021 42.2493 293.28 42.2186 293.521 42.1288C293.76 42.0395 293.977 41.8999 294.158 41.7196C295.88 40.0828 297.921 38.7254 299.802 37.2582C301.684 35.791 303.654 34.264 305.605 32.7669L317.261 23.8541C317.616 23.6268 317.867 23.2679 317.958 22.856C318.012 22.6557 318.026 22.4467 317.998 22.2411C317.971 22.0355 317.903 21.8374 317.799 21.6583C316.607 18.9455 316.344 15.9131 317.052 13.0349L314.444 13.7934C316.998 16.0715 319.035 18.8727 320.417 22.0076C320.501 22.3139 320.69 22.5811 320.95 22.7633C321.209 22.9454 321.524 23.0311 321.84 23.0057C322.045 22.9897 322.243 22.9247 322.418 22.8161C324.738 21.4485 327.336 20.621 330.018 20.3947C332.701 20.1684 335.4 20.5491 337.916 21.5086L337.856 18.8736C333.874 20.4706 329.893 22.2971 325.862 23.864C325.581 23.9681 325.35 24.1749 325.215 24.4429C325.083 24.7097 325.058 25.0167 325.145 25.3013C325.231 25.5906 325.423 25.8365 325.682 25.9899C325.942 26.1385 326.248 26.1814 326.538 26.1097C330.567 25.1121 334.825 25.7015 338.433 27.7565C338.513 26.968 338.603 26.1796 338.682 25.3911L332.461 26.9681C330.381 27.517 328.37 28.2156 326.28 28.6748L326.947 30.8905C328.656 30.3792 330.478 30.3859 332.183 30.9098C333.889 31.4337 335.402 32.4513 336.532 33.8348L338.125 31.649C333.105 30.6538 327.898 31.3265 323.293 33.5653C320.997 34.6258 318.859 36.0032 316.943 37.6574C314.956 39.4703 313.276 41.5938 311.966 43.9453C309.219 48.6762 307.726 54.0359 304.819 58.657C304.481 59.2059 304.132 59.7249 303.764 60.2339C303.883 60.0643 303.505 60.5733 303.425 60.6631C303.216 60.9326 302.997 61.2021 302.769 61.4616C302.364 61.934 301.936 62.3831 301.484 62.809L300.877 63.3579C300.399 63.7871 301.027 63.2382 300.738 63.4777L300.33 63.7871C299.843 64.1553 299.331 64.4889 298.797 64.7852L298.08 65.1545C297.493 65.4439 298.269 65.0846 297.911 65.2343L297.334 65.4539C296.734 65.682 296.119 65.8655 295.492 66.0028L295.054 66.0827C295.363 66.0328 294.895 66.0827 294.825 66.0827C294.465 66.1284 294.103 66.155 293.74 66.1625H292.645H292.098H291.879C291.097 66.0514 290.323 65.8948 289.56 65.6934C288.156 65.316 286.795 64.7943 285.498 64.1364C282.583 62.6433 279.797 60.9108 277.167 58.9564C276.672 58.6847 276.089 58.6203 275.547 58.7774C275.004 58.9344 274.545 59.3001 274.27 59.7948C274.012 60.2965 273.952 60.8773 274.101 61.4217C274.257 61.9597 274.614 62.417 275.097 62.6992C279.755 66.0128 284.971 69.4362 290.744 70.2247C293.615 70.6816 296.557 70.3363 299.245 69.2266C301.727 68.0968 303.92 66.4139 305.655 64.3061C309.179 60.1042 311.03 54.9641 313.121 49.9737C314.155 47.2858 315.491 44.7243 317.102 42.3384C318.481 40.47 320.164 38.8471 322.079 37.5377C326.616 34.5746 332.117 33.4806 337.438 34.4836C337.716 34.5473 338.006 34.5299 338.274 34.4337C338.543 34.3367 338.778 34.1633 338.951 33.9346C339.131 33.7029 339.232 33.4196 339.24 33.1262C339.256 32.8351 339.183 32.546 339.031 32.2978C337.576 30.4078 335.557 29.0338 333.268 28.3765C330.98 27.7193 328.541 27.8133 326.309 28.6448C326.025 28.7406 325.789 28.9436 325.651 29.2109C325.513 29.4783 325.485 29.7888 325.572 30.0769C325.658 30.365 325.853 30.6079 326.116 30.7541C326.378 30.9004 326.687 30.9386 326.976 30.8605C329.037 30.2517 331.157 29.9323 333.237 29.4034L339.449 27.8364C339.685 27.7548 339.894 27.6072 340.049 27.4108C340.205 27.2145 340.302 26.9777 340.328 26.7282C340.354 26.4787 340.309 26.2269 340.197 26.0024C340.085 25.7779 339.912 25.5901 339.697 25.461C337.622 24.2729 335.329 23.5158 332.955 23.2346C330.582 22.9534 328.176 23.1539 325.881 23.8241C326.11 24.5727 326.339 25.3212 326.558 26.0798C330.54 24.4429 334.651 23.0855 338.662 21.4786C338.939 21.3808 339.179 21.1995 339.349 20.9596C339.517 20.7168 339.605 20.4268 339.598 20.1312C339.589 19.835 339.488 19.5489 339.309 19.3128C339.128 19.0802 338.877 18.9123 338.593 18.8337C335.713 17.8089 332.646 17.4245 329.604 17.7071C326.561 17.9898 323.617 18.9327 320.974 20.4706L322.965 21.2191C321.63 17.5336 319.459 14.2092 316.624 11.5078C316.424 11.3216 316.182 11.1878 315.918 11.1186C315.649 11.0538 315.37 11.0538 315.101 11.1186C314.838 11.1991 314.599 11.3431 314.405 11.5378C314.214 11.7361 314.077 11.98 314.006 12.2464C313.058 15.9424 313.442 19.8556 315.091 23.2951L315.639 21.1093L303.913 30.1719C301.982 31.669 300.031 33.1661 298.08 34.6233C296.129 36.0805 294.198 37.7872 292.108 39.0747L294.437 39.6237C292.926 36.7582 291.23 33.9944 289.361 31.3496C287.602 28.6881 285.79 26.0931 283.926 23.5646C280.123 18.3247 276.062 13.2645 271.981 8.26409C270.846 6.88674 269.702 5.51605 268.547 4.15202L266.815 2.15586C266.218 1.44723 265.501 0.82842 264.824 0.159709C264.716 0.0640484 264.58 0.00775923 264.436 1.27127e-05C264.291 -0.000910364 264.151 0.048461 264.038 0.139743C263.926 0.229407 263.852 0.35745 263.829 0.499051C263.802 0.639413 263.826 0.784866 263.898 0.908266H263.869Z" fill="#2E2221"/>
</svg>
