<svg width="140" height="56" viewBox="0 0 140 56" fill="none" xmlns="http://www.w3.org/2000/svg">
<path d="M30.5441 55.8923C45.5025 55.8923 58.4152 45.9391 58.4152 30.9404C58.4152 15.9416 34.0555 2.99426 19.0971 2.99426C4.1387 2.99426 3.17085 12.1589 3.17085 27.1577C1.17998 41.9192 15.5857 55.8923 30.5441 55.8923Z" fill="url(#paint0_linear)"/>
<path d="M109.493 55.8923C94.5346 55.8923 81.6219 45.9391 81.6219 30.9404C81.6219 15.9416 105.982 2.99426 120.94 2.99426C135.898 2.99426 136.866 12.1589 136.866 27.1577C138.857 41.9192 124.451 55.8923 109.493 55.8923Z" fill="url(#paint1_linear)"/>
<path d="M109.493 55.8923C94.5346 55.8923 81.6219 45.9391 81.6219 30.9404C81.6219 15.9416 105.982 2.99426 120.94 2.99426C135.898 2.99426 136.866 12.1589 136.866 27.1577C138.857 41.9192 124.451 55.8923 109.493 55.8923Z" fill="url(#paint2_linear)"/>
<path d="M30.5441 54.8941C45.5025 54.8941 58.4152 44.941 58.4152 29.9422C58.4152 14.9435 34.0555 1.99609 19.0971 1.99609C4.1387 1.99609 3.17085 11.1608 3.17085 26.1595C1.17998 40.9211 15.5857 54.8941 30.5441 54.8941Z" fill="url(#paint3_linear)"/>
<path d="M30.5441 54.8941C45.5025 54.8941 58.4152 44.941 58.4152 29.9422C58.4152 14.9435 34.0555 1.99609 19.0971 1.99609C4.1387 1.99609 3.17085 11.1608 3.17085 26.1595C1.17998 40.9211 15.5857 54.8941 30.5441 54.8941Z" fill="url(#paint4_linear)"/>
<path opacity="0.25" d="M33.7537 49.7241C38.6519 49.7241 42.6227 45.7427 42.6227 40.8313C42.6227 35.9199 38.6519 31.9385 33.7537 31.9385C28.8555 31.9385 24.8848 35.9199 24.8848 40.8313C24.8848 45.7427 28.8555 49.7241 33.7537 49.7241Z" fill="white"/>
<path opacity="0.25" d="M112.389 49.7241C117.288 49.7241 121.258 45.7427 121.258 40.8313C121.258 35.9199 117.288 31.9385 112.389 31.9385C107.491 31.9385 103.521 35.9199 103.521 40.8313C103.521 45.7427 107.491 49.7241 112.389 49.7241Z" fill="white"/>
<mask id="path-8-inside-1" fill="white">
<path d="M82.6415 23.3553C84.3934 21.1296 86.3443 18.9738 88.2654 16.8878C90.8877 14.2021 93.8691 11.8944 97.1244 10.031C103.119 6.14502 110.04 3.93623 117.172 3.63333C121.014 3.51357 124.856 3.80301 128.678 4.06251C131.197 4.24216 131.157 0.140067 128.589 0.0702019C121.621 -0.0695288 114.653 -0.159355 107.964 1.99649C104.195 3.25493 100.587 4.95334 97.214 7.05674C93.7998 9.1527 90.2463 11.4483 87.5288 14.4625C85.1854 16.8712 83.137 19.5516 81.4271 22.4471C81.0389 23.1856 82.094 24.044 82.6415 23.3354V23.3553Z"/>
</mask>
<path d="M82.6415 23.3553H73.6415V49.3408L89.7135 28.9218L82.6415 23.3553ZM88.2654 16.8878L81.8258 10.6004L81.7341 10.6943L81.6452 10.7908L88.2654 16.8878ZM97.1244 10.031L101.596 17.8418L101.811 17.7182L102.02 17.5829L97.1244 10.031ZM117.172 3.63333L116.891 -5.3623L116.84 -5.36071L116.79 -5.35856L117.172 3.63333ZM128.678 4.06251L129.319 -4.91468L129.303 -4.91578L129.288 -4.91682L128.678 4.06251ZM128.589 0.0702019L128.833 -8.92647L128.801 -8.92734L128.769 -8.92799L128.589 0.0702019ZM107.964 1.99649L105.203 -6.5696L105.159 -6.55513L105.114 -6.54018L107.964 1.99649ZM97.214 7.05674L101.923 14.7268L101.949 14.7103L101.976 14.6937L97.214 7.05674ZM87.5288 14.4625L93.9796 20.7384L94.0989 20.6158L94.2134 20.4888L87.5288 14.4625ZM81.4271 22.4471L73.6776 17.8705L73.5642 18.0624L73.4605 18.2598L81.4271 22.4471ZM82.6415 23.3354H91.6415V-3.0353L75.5194 17.8331L82.6415 23.3354ZM89.7135 28.9218C91.2309 26.994 92.974 25.0605 94.8857 22.9847L81.6452 10.7908C79.7147 12.887 77.5558 15.2652 75.5694 17.7888L89.7135 28.9218ZM94.705 23.1752C96.7453 21.0855 99.0644 19.2908 101.596 17.8418L92.6532 2.2202C88.6739 4.49812 85.0301 7.31858 81.8258 10.6004L94.705 23.1752ZM102.02 17.5829C106.667 14.5707 112.029 12.8598 117.553 12.6252L116.79 -5.35856C108.05 -4.98738 99.5708 -2.28071 92.2286 2.47908L102.02 17.5829ZM117.452 12.629C120.754 12.526 124.103 12.7726 128.069 13.0418L129.288 -4.91682C125.609 -5.1666 121.274 -5.49891 116.891 -5.3623L117.452 12.629ZM128.038 13.0397C131.375 13.2777 134.658 12.0105 136.908 9.39637C138.928 7.05049 139.576 4.27252 139.54 2.01607C139.47 -2.31874 136.302 -8.7233 128.833 -8.92647L128.344 9.06687C126.355 9.01278 124.422 8.06896 123.119 6.50204C121.968 5.11727 121.562 3.57655 121.542 2.30378C121.522 1.05913 121.868 -0.722635 123.267 -2.34771C124.897 -4.24104 127.241 -5.06288 129.319 -4.91468L128.038 13.0397ZM128.769 -8.92799C121.998 -9.06378 113.543 -9.25736 105.203 -6.5696L110.725 10.5626C115.764 8.93865 121.244 8.92473 128.408 9.06839L128.769 -8.92799ZM105.114 -6.54018C100.674 -5.05781 96.4245 -3.05734 92.4519 -0.580199L101.976 14.6937C104.75 12.964 107.717 11.5677 110.815 10.5332L105.114 -6.54018ZM92.5054 -0.613277C89.1271 1.46066 84.5307 4.3471 80.8443 8.43609L94.2134 20.4888C95.9618 18.5494 98.4725 16.8447 101.923 14.7268L92.5054 -0.613277ZM81.0781 8.18651C78.2354 11.1084 75.7511 14.3594 73.6776 17.8705L89.1766 27.0236C90.523 24.7439 92.1354 22.634 93.9796 20.7384L81.0781 8.18651ZM73.4605 18.2598C70.6701 23.5688 73.4933 28.4874 76.1943 30.5662C77.6823 31.7114 79.8887 32.711 82.5707 32.5903C85.5244 32.4574 88.0973 30.9945 89.7636 28.8377L75.5194 17.8331C76.9119 16.0305 79.1477 14.7261 81.7617 14.6085C84.104 14.5031 85.9683 15.3748 87.1725 16.3016C89.3062 17.9437 91.796 22.0639 89.3937 26.6344L73.4605 18.2598ZM73.6415 23.3354V23.3553H91.6415V23.3354H73.6415Z" fill="#5887FF" mask="url(#path-8-inside-1)"/>
<mask id="path-10-inside-2" fill="white">
<path d="M81.4967 22.787C79.5059 30.3524 79.7747 39.2552 84.0449 46.0821C88.5142 53.2283 98.06 54.955 105.804 55.5538C114.205 56.1926 123.184 55.973 129.972 50.294C136.99 44.4253 139.847 34.5643 139.379 25.6814C139.071 20.8421 138.082 16.0706 136.442 11.5087C135.154 7.9985 133.294 4.72694 130.938 1.82739C130.603 1.31781 130.086 0.956207 129.494 0.81697C128.901 0.677734 128.278 0.771446 127.753 1.07883C127.232 1.40417 126.862 1.92279 126.722 2.52129C126.582 3.11978 126.684 3.74947 127.006 4.27268C128.839 6.3866 130.382 8.73616 131.595 11.2592C133.09 14.7836 134.182 18.4668 134.85 22.2381C136.343 30.2227 135.059 39.2054 129.793 45.6529C127.361 48.5487 124.125 50.654 120.496 51.7013C116.813 52.8391 112.742 52.7991 108.92 52.6993C105.102 52.651 101.3 52.2095 97.5723 51.3819C93.9292 50.5136 90.1367 49.1262 87.489 46.3915C85.3413 43.9028 83.8765 40.8966 83.2387 37.6683C82.2491 32.8275 82.0775 27.8545 82.731 22.9567C82.8007 22.238 81.6759 22.1682 81.4967 22.8269V22.787Z"/>
</mask>
<path d="M81.4967 22.787H90.4967L72.793 20.4967L81.4967 22.787ZM84.0449 46.0821L91.6755 41.3099L91.6752 41.3093L84.0449 46.0821ZM105.804 55.5538L105.11 64.5271L105.122 64.5279L105.804 55.5538ZM129.972 50.294L124.199 43.39L124.197 43.391L129.972 50.294ZM139.379 25.6814L148.366 25.2081L148.364 25.1591L148.361 25.1101L139.379 25.6814ZM136.442 11.5087L144.912 8.464L144.902 8.43616L144.891 8.40839L136.442 11.5087ZM130.938 1.82739L123.415 6.76837L123.666 7.14952L123.953 7.5034L130.938 1.82739ZM127.753 1.07883L123.21 -6.69039L123.094 -6.62268L122.98 -6.55155L127.753 1.07883ZM127.006 4.27268L119.34 8.98783L119.725 9.61321L120.206 10.168L127.006 4.27268ZM131.595 11.2592L139.88 7.74323L139.797 7.54938L139.706 7.35959L131.595 11.2592ZM134.85 22.2381L125.987 23.8061L125.995 23.8492L126.003 23.8923L134.85 22.2381ZM129.793 45.6529L136.685 51.4416L136.725 51.394L136.764 51.3458L129.793 45.6529ZM120.496 51.7013L118 43.0542L117.92 43.0775L117.84 43.1023L120.496 51.7013ZM108.92 52.6993L109.155 43.7024L109.094 43.7008L109.034 43.7001L108.92 52.6993ZM97.5723 51.3819L95.4856 60.1367L95.5534 60.1528L95.6215 60.1679L97.5723 51.3819ZM87.489 46.3915L80.6754 52.2715L80.8437 52.4666L81.023 52.6518L87.489 46.3915ZM83.2387 37.6683L92.0679 35.9237L92.0622 35.8947L92.0563 35.8658L83.2387 37.6683ZM82.731 22.9567L91.6519 24.147L91.6734 23.9865L91.689 23.8252L82.731 22.9567ZM81.4967 22.8269H72.4967L90.1812 25.189L81.4967 22.8269ZM72.793 20.4967C70.3971 29.6016 70.4195 41.2703 76.4147 50.8549L91.6752 41.3093C89.1299 37.2402 88.6147 31.1032 90.2004 25.0773L72.793 20.4967ZM76.4143 50.8543C80.0735 56.7051 85.5812 59.9288 90.6651 61.7474C95.7026 63.5494 100.962 64.2063 105.11 64.5271L106.498 46.5806C102.902 46.3025 99.5167 45.7967 96.7278 44.7991C93.9854 43.8181 92.4857 42.6053 91.6755 41.3099L76.4143 50.8543ZM105.122 64.5279C113.636 65.1753 125.969 65.3766 135.747 57.197L124.197 43.391C120.398 46.5695 114.774 47.2099 106.487 46.5797L105.122 64.5279ZM135.746 57.1979C145.597 48.9597 148.931 35.9301 148.366 25.2081L130.391 26.1548C130.762 33.1985 128.383 39.8909 124.199 43.39L135.746 57.1979ZM148.361 25.1101C147.999 19.4265 146.838 13.8224 144.912 8.464L127.973 14.5535C129.327 18.3188 130.143 22.2576 130.397 26.2527L148.361 25.1101ZM144.891 8.40839C143.261 3.9653 140.906 -0.176733 137.922 -3.84862L123.953 7.5034C125.682 9.63061 127.047 12.0317 127.993 14.6091L144.891 8.40839ZM138.46 -3.11359C136.863 -5.54532 134.393 -7.27696 131.553 -7.94434L127.435 9.57829C125.78 9.18938 124.343 8.18093 123.415 6.76837L138.46 -3.11359ZM131.553 -7.94434C128.712 -8.61185 125.726 -8.16193 123.21 -6.69039L132.296 8.84806C130.83 9.70482 129.09 9.96731 127.435 9.57829L131.553 -7.94434ZM122.98 -6.55155C120.44 -4.96316 118.638 -2.43578 117.958 0.472805L135.486 4.56977C135.086 6.28137 134.024 7.77151 132.525 8.70921L122.98 -6.55155ZM117.958 0.472805C117.278 3.38098 117.774 6.44178 119.34 8.98783L134.672 -0.442464C135.594 1.05717 135.886 2.85859 135.486 4.56977L117.958 0.472805ZM120.206 10.168C121.514 11.6774 122.617 13.3558 123.483 15.1588L139.706 7.35959C138.147 4.11655 136.163 1.09578 133.806 -1.62261L120.206 10.168ZM123.31 14.7752C124.54 17.6739 125.438 20.7036 125.987 23.8061L143.712 20.67C142.926 16.2299 141.641 11.8932 139.88 7.74323L123.31 14.7752ZM126.003 23.8923C127.155 30.0534 125.966 36.1112 122.822 39.96L136.764 51.3458C144.152 42.2995 145.53 30.3919 143.696 20.5838L126.003 23.8923ZM122.902 39.8643C121.617 41.3941 119.91 42.5031 118 43.0542L122.992 60.3483C128.339 58.8049 133.105 55.7033 136.685 51.4416L122.902 39.8643ZM117.84 43.1023C115.768 43.7423 113.128 43.8061 109.155 43.7024L108.685 61.6963C112.357 61.7922 117.858 61.9359 123.153 60.3003L117.84 43.1023ZM109.034 43.7001C105.834 43.6595 102.647 43.2896 99.5231 42.5959L95.6215 60.1679C99.9523 61.1295 104.37 61.6424 108.806 61.6986L109.034 43.7001ZM99.659 42.6271C96.4702 41.8671 94.7679 40.9709 93.9549 40.1312L81.023 52.6518C85.5055 57.2816 91.3882 59.16 95.4856 60.1367L99.659 42.6271ZM94.3026 40.5115C93.1749 39.2047 92.4039 37.6239 92.0679 35.9237L74.4094 39.4129C75.3492 44.1693 77.5078 48.601 80.6754 52.2715L94.3026 40.5115ZM92.0563 35.8658C91.2681 32.0099 91.1314 28.0485 91.6519 24.147L73.8101 21.7663C73.0236 27.6604 73.2301 33.6451 74.421 39.4708L92.0563 35.8658ZM91.689 23.8252C91.9565 21.066 91.0256 18.2214 88.9196 16.1397C87.0287 14.2707 84.7601 13.5591 82.966 13.4073C79.7557 13.1357 74.378 14.7082 72.8122 20.4648L90.1812 25.189C88.7946 30.2869 84.0689 31.565 81.4484 31.3432C79.9492 31.2164 77.9599 30.6159 76.2659 28.9415C74.3568 27.0544 73.5403 24.488 73.773 22.0881L91.689 23.8252ZM90.4967 22.8269V22.787H72.4967V22.8269H90.4967Z" fill="#5887FF" mask="url(#path-10-inside-2)"/>
<mask id="path-12-inside-3" fill="white">
<path d="M57.9359 22.4377C56.4101 19.8488 54.5969 17.4414 52.5309 15.2616C49.9311 12.4476 46.9488 10.015 43.6719 8.03548C37.3568 3.7431 30.0861 1.07309 22.4999 0.260472C18.5743 -0.0156477 14.6364 -0.0722912 10.7045 0.0908009C8.14639 0.140705 8.25587 4.2428 10.8041 4.0831C17.2741 3.63397 23.8338 3.08503 30.2043 4.7119C33.9091 5.68249 37.4581 7.17446 40.7455 9.14335C44.2021 10.9674 47.3909 13.2613 50.2216 15.9602C52.4822 18.2863 54.625 20.7247 56.6419 23.2661C56.6941 23.3513 56.7627 23.4254 56.8435 23.484C56.9243 23.5426 57.0159 23.5848 57.1129 23.6079C57.21 23.6311 57.3106 23.6349 57.4091 23.619C57.5076 23.6032 57.6021 23.5681 57.687 23.5156C57.772 23.4632 57.8458 23.3945 57.9043 23.3135C57.9628 23.2324 58.0048 23.1406 58.0279 23.0433C58.051 22.946 58.0548 22.8451 58.039 22.7463C58.0232 22.6475 57.9882 22.5529 57.9359 22.4677V22.4377Z"/>
</mask>
<path d="M57.9359 22.4377H66.9359V19.9829L65.6895 17.8681L57.9359 22.4377ZM52.5309 15.2616L45.9204 21.369L45.9592 21.411L45.9986 21.4526L52.5309 15.2616ZM43.6719 8.03548L38.6127 15.4789L38.812 15.6144L39.0184 15.739L43.6719 8.03548ZM22.4999 0.260472L23.4585 -8.68833L23.2952 -8.70582L23.1314 -8.71735L22.4999 0.260472ZM10.7045 0.0908009L10.8801 9.08909L10.9788 9.08716L11.0775 9.08307L10.7045 0.0908009ZM10.8041 4.0831L11.367 13.0655L11.3972 13.0636L11.4273 13.0615L10.8041 4.0831ZM30.2043 4.7119L32.4851 -3.99429L32.4582 -4.00135L32.4312 -4.00825L30.2043 4.7119ZM40.7455 9.14335L36.1211 16.8645L36.3299 16.9895L36.5452 17.1031L40.7455 9.14335ZM50.2216 15.9602L56.6757 9.68771L56.5562 9.56474L56.4321 9.44642L50.2216 15.9602ZM56.6419 23.2661L64.3124 18.5585L64.0288 18.0963L63.6917 17.6715L56.6419 23.2661ZM57.9359 22.4677H48.9359V25.0092L50.2653 27.1753L57.9359 22.4677ZM65.6895 17.8681C63.8192 14.6947 61.5964 11.7434 59.0632 9.07054L45.9986 21.4526C47.5973 23.1395 49.0009 25.0029 50.1823 27.0074L65.6895 17.8681ZM59.1414 9.15412C55.968 5.71923 52.327 2.74917 48.3255 0.331949L39.0184 15.739C41.5706 17.2808 43.8942 19.1759 45.9204 21.369L59.1414 9.15412ZM48.7311 0.592087C41.1945 -4.53052 32.5157 -7.71814 23.4585 -8.68833L21.5413 9.20928C27.6565 9.86432 33.519 12.0167 38.6127 15.4789L48.7311 0.592087ZM23.1314 -8.71735C18.8715 -9.01698 14.5983 -9.07845 10.3316 -8.90147L11.0775 9.08307C14.6746 8.93386 18.2771 8.98568 21.8684 9.23829L23.1314 -8.71735ZM10.529 -8.90749C7.22914 -8.84311 4.2316 -7.34818 2.24049 -4.84632C0.419782 -2.55857 -0.216646 0.110271 -0.157576 2.39787C-0.0986662 4.67926 0.67462 7.35754 2.68269 9.57496C4.89245 12.0151 8.06109 13.2727 11.367 13.0655L10.2412 -4.89928C12.273 -5.02661 14.4723 -4.22191 16.0248 -2.50757C17.3756 -1.01594 17.8036 0.663636 17.8364 1.93323C17.8694 3.20903 17.526 4.85298 16.3246 6.36253C14.9528 8.08621 12.9009 9.04967 10.8801 9.08909L10.529 -8.90749ZM11.4273 13.0615C18.2833 12.5856 23.2853 12.2338 27.9774 13.432L32.4312 -4.00825C24.3822 -6.06374 16.2649 -5.31763 10.1808 -4.89529L11.4273 13.0615ZM27.9234 13.4181C30.8039 14.1727 33.564 15.3329 36.1211 16.8645L45.3698 1.42224C41.3522 -0.983994 37.0142 -2.80775 32.4851 -3.99429L27.9234 13.4181ZM36.5452 17.1031C39.2678 18.5398 41.7802 20.347 44.0111 22.474L56.4321 9.44642C53.0016 6.17563 49.1364 3.39495 44.9457 1.18359L36.5452 17.1031ZM43.7675 22.2327C45.8182 24.3429 47.7622 26.555 49.592 28.8608L63.6917 17.6715C61.4878 14.8943 59.1462 12.2297 56.6757 9.68771L43.7675 22.2327ZM48.9713 27.9738C49.6413 29.0655 50.52 30.0153 51.5578 30.7683L62.1292 16.1997C63.0054 16.8354 63.747 17.6371 64.3124 18.5585L48.9713 27.9738ZM51.5578 30.7683C52.5961 31.5217 53.7735 32.0636 55.023 32.3619L59.2028 14.8539C60.2582 15.1059 61.2526 15.5636 62.1292 16.1997L51.5578 30.7683ZM55.023 32.3619C56.2722 32.6601 57.5685 32.7089 58.8375 32.505L55.9808 14.7331C57.0527 14.5608 58.1477 14.602 59.2028 14.8539L55.023 32.3619ZM58.8375 32.505C60.1059 32.3011 61.3209 31.8488 62.4131 31.1749L52.9609 15.8564C53.8832 15.2873 54.9094 14.9053 55.9808 14.7331L58.8375 32.505ZM62.4131 31.1749C63.5056 30.5008 64.4529 29.6187 65.2021 28.5805L50.6065 18.0464C51.2388 17.1704 52.0383 16.4257 52.9609 15.8564L62.4131 31.1749ZM65.2021 28.5805C65.9514 27.5424 66.4889 26.3674 66.7844 25.1226L49.2714 20.964C49.5208 19.9139 49.9742 18.9225 50.6065 18.0464L65.2021 28.5805ZM66.7844 25.1226C67.08 23.8778 67.1279 22.5876 66.9261 21.3255L49.1519 24.1672C48.9816 23.1026 49.022 22.0143 49.2714 20.964L66.7844 25.1226ZM66.9261 21.3255C66.7243 20.063 66.2763 18.8514 65.6065 17.76L50.2653 27.1753C49.7 26.2543 49.3221 25.232 49.1519 24.1672L66.9261 21.3255ZM66.9359 22.4677V22.4377H48.9359V22.4677H66.9359Z" fill="#5887FF" mask="url(#path-12-inside-3)"/>
<mask id="path-14-inside-4" fill="white">
<path d="M56.6617 22.9467C57.3884 30.1828 57.3486 38.2971 53.2674 44.6149C49.1863 50.9327 39.9889 52.1504 33.1207 52.5995C25.6752 53.0486 17.4433 52.9888 11.5407 47.7289C5.36923 42.2195 3.33863 33.1271 4.12499 25.1624C4.61175 20.8479 5.66261 16.6163 7.25052 12.5767C8.42964 9.70467 10.0632 7.0422 12.0881 4.69192C12.4969 4.23856 12.7166 3.64516 12.7017 3.03415C12.6869 2.42315 12.4388 1.84115 12.0085 1.40825C11.5609 0.988992 10.9671 0.762497 10.3548 0.777427C9.74246 0.792357 9.16041 1.04752 8.73366 1.4881C6.6408 4.01483 4.91187 6.82352 3.59744 9.83201C2.01331 13.8013 0.923413 17.9514 0.352453 22.1882C-0.871879 31.4503 1.00941 41.2514 7.32019 48.3677C10.1746 51.4358 13.8192 53.6533 17.8514 54.7753C21.833 55.963 26.3023 55.9131 30.4232 55.7734C38.3864 55.4939 48.3403 54.416 53.9244 47.9984C56.1409 45.2251 57.6448 41.9487 58.3041 38.4568C59.4197 33.2796 59.2591 27.9078 57.8363 22.807C57.6571 22.1383 56.5423 22.288 56.6219 22.9966L56.6617 22.9467Z"/>
</mask>
<path d="M56.6617 22.9467L65.6167 22.0475L63.4089 0.0618857L49.627 17.3332L56.6617 22.9467ZM33.1207 52.5995L33.6627 61.5832L33.6853 61.5818L33.708 61.5803L33.1207 52.5995ZM11.5407 47.7289L5.54701 54.4428L5.55309 54.4482L11.5407 47.7289ZM4.12499 25.1624L-4.81827 24.1535L-4.8253 24.2158L-4.83146 24.2782L4.12499 25.1624ZM7.25052 12.5767L-1.07514 9.15861L-1.10084 9.22121L-1.12559 9.28419L7.25052 12.5767ZM12.0881 4.69192L5.40412 -1.33503L5.3361 -1.25959L5.2698 -1.18264L12.0881 4.69192ZM12.0085 1.40825L18.3917 -4.93639L18.2784 -5.05037L18.1611 -5.16024L12.0085 1.40825ZM8.73366 1.4881L2.26903 -4.77358L2.02564 -4.5223L1.80249 -4.25288L8.73366 1.4881ZM3.59744 9.83201L-4.64977 6.22873L-4.70776 6.36147L-4.76146 6.49601L3.59744 9.83201ZM0.352453 22.1882L-8.56692 20.9862L-8.56844 20.9975L-8.56993 21.0087L0.352453 22.1882ZM7.32019 48.3677L0.586559 54.3391L0.657771 54.4194L0.730878 54.498L7.32019 48.3677ZM17.8514 54.7753L20.4241 46.1509L20.3443 46.127L20.264 46.1047L17.8514 54.7753ZM30.4232 55.7734L30.7282 64.7682L30.7389 64.7678L30.4232 55.7734ZM53.9244 47.9984L60.714 53.9062L60.8374 53.7643L60.9549 53.6174L53.9244 47.9984ZM58.3041 38.4568L49.5061 36.561L49.4818 36.6737L49.4604 36.787L58.3041 38.4568ZM57.8363 22.807L49.1429 25.1362L49.1548 25.1807L49.1672 25.2251L57.8363 22.807ZM56.6219 22.9966L47.6782 24.0016L50.1045 45.5934L63.6567 28.6102L56.6219 22.9966ZM47.7068 23.846C48.411 30.8589 47.9888 36.1999 45.7076 39.7315L60.8273 49.4984C66.7083 40.3943 66.3657 29.5066 65.6167 22.0475L47.7068 23.846ZM45.7076 39.7315C45.2517 40.4372 44.1623 41.3999 41.5462 42.2203C38.9439 43.0364 35.8106 43.4044 32.5335 43.6187L33.708 61.5803C37.2991 61.3455 42.1986 60.8801 46.9323 59.3956C51.6522 57.9155 57.2021 55.1105 60.8273 49.4984L45.7076 39.7315ZM32.5788 43.6158C24.8816 44.0802 20.3378 43.5132 17.5282 41.0096L5.55309 54.4482C14.5488 62.4643 26.4688 62.0171 33.6627 61.5832L32.5788 43.6158ZM17.5343 41.015C14.2619 38.0937 12.4607 32.3341 13.0814 26.0467L-4.83146 24.2782C-5.78342 33.9201 -3.52344 46.3454 5.54701 54.4428L17.5343 41.015ZM13.0683 26.1714C13.4667 22.6393 14.327 19.1755 15.6266 15.8692L-1.12559 9.28419C-3.00177 14.0571 -4.24324 19.0565 -4.81827 24.1535L13.0683 26.1714ZM15.5762 15.9948C16.3884 14.0166 17.5131 12.1837 18.9064 10.5665L5.2698 -1.18264C2.61321 1.90074 0.470918 5.39279 -1.07514 9.15861L15.5762 15.9948ZM18.7721 10.7189C20.7244 8.5538 21.7696 5.7247 21.6991 2.81596L3.70438 3.25234C3.66348 1.56562 4.26947 -0.0766775 5.40412 -1.33503L18.7721 10.7189ZM21.6991 2.81596C21.6285 -0.0928583 20.4473 -2.86832 18.3917 -4.93639L5.62527 7.7529C4.43027 6.55063 3.74529 4.93915 3.70438 3.25234L21.6991 2.81596ZM18.1611 -5.16024C15.9928 -7.19133 13.1114 -8.29246 10.1354 -8.2199L10.5742 9.77475C8.82284 9.81745 7.12903 9.16931 5.85586 7.97675L18.1611 -5.16024ZM10.1354 -8.2199C7.15939 -8.14734 4.33559 -6.90711 2.26903 -4.77358L15.1983 7.74978C13.9852 9.00216 12.3255 9.73205 10.5742 9.77475L10.1354 -8.2199ZM1.80249 -4.25288C-0.827114 -1.07812 -2.9989 2.45021 -4.64977 6.22873L11.8446 13.4353C12.8226 11.1968 14.1087 9.10779 15.6648 7.22908L1.80249 -4.25288ZM-4.76146 6.49601C-6.61931 11.1512 -7.8974 16.018 -8.56692 20.9862L9.27183 23.3902C9.74422 19.8847 10.6459 16.4514 11.9563 13.168L-4.76146 6.49601ZM-8.56993 21.0087C-10.0339 32.0841 -7.91537 44.752 0.586559 54.3391L14.0538 42.3962C9.93419 37.7508 8.29019 30.8165 9.27484 23.3676L-8.56993 21.0087ZM0.730878 54.498C4.71503 58.7804 9.80454 61.8782 15.4388 63.4459L20.264 46.1047C17.8339 45.4285 15.6342 44.0912 13.9095 42.2373L0.730878 54.498ZM15.2787 63.3998C20.8493 65.0615 26.7086 64.9045 30.7282 64.7682L30.1182 46.7786C25.896 46.9217 22.8167 46.8646 20.4241 46.1509L15.2787 63.3998ZM30.7389 64.7678C34.9046 64.6217 40.193 64.2577 45.3683 62.8882C50.5471 61.5178 56.3186 58.9576 60.714 53.9062L47.1348 42.0906C45.9461 43.4568 43.9485 44.6444 40.7636 45.4872C37.5751 46.3309 33.905 46.6457 30.1076 46.7789L30.7389 64.7678ZM60.9549 53.6174C64.0902 49.6944 66.216 45.0618 67.1479 40.1266L49.4604 36.787C49.0736 38.8357 48.1916 40.7558 46.894 42.3794L60.9549 53.6174ZM67.1022 40.3526C68.5253 33.7484 68.3204 26.896 66.5054 20.3889L49.1672 25.2251C50.1978 28.9196 50.3141 32.8109 49.5061 36.561L67.1022 40.3526ZM66.5297 20.4777C64.9054 14.4156 59.1463 12.9968 55.8345 13.4793C54.0227 13.7433 51.888 14.5915 50.1658 16.4413C48.2693 18.4783 47.367 21.232 47.6782 24.0016L65.5656 21.9916C65.837 24.407 65.0442 26.8762 63.34 28.7067C61.81 30.35 59.9503 31.0697 58.4296 31.2913C55.7001 31.6889 50.588 30.5297 49.1429 25.1362L66.5297 20.4777ZM63.6567 28.6102L63.6965 28.5603L49.627 17.3332L49.5871 17.3831L63.6567 28.6102Z" fill="#5887FF" mask="url(#path-14-inside-4)"/>
<mask id="path-16-inside-5" fill="white">
<path d="M58.543 30.6519C60.1004 29.4931 61.7674 28.4903 63.52 27.6577C65.2218 26.9684 67.0309 26.5833 68.8652 26.5199C72.9097 26.4664 76.8603 27.7424 80.1131 30.1529C81.7555 31.3306 83.2884 28.546 81.6361 27.3882C77.8124 24.6237 73.138 23.3017 68.4372 23.6554C64.3959 24.0446 59.4787 25.8212 57.1594 29.3744C56.612 30.2028 57.7268 31.1809 58.5132 30.6719L58.543 30.6519Z"/>
</mask>
<path d="M58.543 30.6519L63.5455 38.1335L63.7337 38.0077L63.9154 37.8725L58.543 30.6519ZM63.52 27.6577L60.1413 19.316L59.8965 19.4151L59.658 19.5284L63.52 27.6577ZM68.8652 26.5199L68.7462 17.5207L68.6502 17.5219L68.5543 17.5252L68.8652 26.5199ZM80.1131 30.1529L74.7548 37.3839L74.8113 37.4258L74.8685 37.4668L80.1131 30.1529ZM81.6361 27.3882L76.3629 34.6816L76.417 34.7207L76.4716 34.7589L81.6361 27.3882ZM68.4372 23.6554L67.7619 14.6808L67.6681 14.6878L67.5743 14.6969L68.4372 23.6554ZM57.1594 29.3744L64.6679 34.3365L64.682 34.3151L64.696 34.2937L57.1594 29.3744ZM58.5132 30.6719L63.4038 38.2271L63.46 38.1907L63.5157 38.1535L58.5132 30.6719ZM63.9154 37.8725C65.0005 37.0652 66.1616 36.3667 67.382 35.787L59.658 19.5284C57.3732 20.6138 55.2004 21.9211 53.1707 23.4312L63.9154 37.8725ZM66.8987 35.9994C67.6244 35.7054 68.3952 35.5415 69.1762 35.5145L68.5543 17.5252C65.6666 17.6251 62.8192 18.2313 60.1413 19.316L66.8987 35.9994ZM68.9842 35.5191C71.0565 35.4917 73.0833 36.1453 74.7548 37.3839L85.4715 22.9218C80.6373 19.3395 74.7628 17.4411 68.7462 17.5207L68.9842 35.5191ZM74.8685 37.4668C77.3864 39.2723 80.7439 40.0184 84.0616 38.9387C87.0317 37.9721 88.9509 35.8817 89.9939 33.9877C91.9938 30.3558 92.3267 23.8895 86.8006 20.0175L76.4716 34.7589C72.5978 32.0447 72.9905 27.5495 74.2264 25.305C74.8874 24.1046 76.2188 22.5619 78.4912 21.8224C81.1111 20.9697 83.6611 21.6223 85.3578 22.8389L74.8685 37.4668ZM86.9093 20.0948C81.3652 16.0864 74.584 14.1674 67.7619 14.6808L69.1125 32.63C71.6921 32.4359 74.2597 33.1609 76.3629 34.6816L86.9093 20.0948ZM67.5743 14.6969C62.4447 15.1909 54.1492 17.5206 49.6229 24.455L64.696 34.2937C64.656 34.355 64.9044 33.972 65.9328 33.496C66.923 33.0377 68.1573 32.724 69.3001 32.6139L67.5743 14.6969ZM49.651 24.4122C46.3192 29.4538 48.5911 34.7038 51.236 37.142C53.705 39.4179 58.6695 41.2917 63.4038 38.2271L53.6226 23.1166C57.5705 20.5611 61.5844 22.2003 63.4362 23.9073C65.464 25.7766 67.4523 30.1233 64.6679 34.3365L49.651 24.4122ZM63.5157 38.1535L63.5455 38.1335L53.5405 23.1702L53.5107 23.1902L63.5157 38.1535Z" fill="#5887FF" mask="url(#path-16-inside-5)"/>
<defs>
<linearGradient id="paint0_linear" x1="13826.6" y1="9007.65" x2="13826.6" y2="6051.27" gradientUnits="userSpaceOnUse">
<stop stop-color="white" stop-opacity="0.6"/>
<stop offset="1" stop-color="white" stop-opacity="0.1"/>
</linearGradient>
<linearGradient id="paint1_linear" x1="-13686.6" y1="9007.65" x2="-13686.6" y2="6051.27" gradientUnits="userSpaceOnUse">
<stop stop-color="white" stop-opacity="0.6"/>
<stop offset="1" stop-color="white" stop-opacity="0.1"/>
</linearGradient>
<linearGradient id="paint2_linear" x1="-13686.6" y1="9007.65" x2="-13686.6" y2="6051.27" gradientUnits="userSpaceOnUse">
<stop stop-color="white" stop-opacity="0.6"/>
<stop offset="1" stop-color="white" stop-opacity="0.1"/>
</linearGradient>
<linearGradient id="paint3_linear" x1="13826.6" y1="9006.65" x2="13826.6" y2="6050.27" gradientUnits="userSpaceOnUse">
<stop stop-color="white" stop-opacity="0.6"/>
<stop offset="1" stop-color="white" stop-opacity="0.1"/>
</linearGradient>
<linearGradient id="paint4_linear" x1="13826.6" y1="9006.65" x2="13826.6" y2="6050.27" gradientUnits="userSpaceOnUse">
<stop stop-color="#F4F4F4"/>
<stop offset="1" stop-color="white" stop-opacity="0.1"/>
</linearGradient>
</defs>
</svg>
