<svg width="205" height="110" viewBox="0 0 205 110" fill="none" xmlns="http://www.w3.org/2000/svg">
<path d="M8.88968 89.4405C7.72177 89.2508 6.53879 89.1707 5.35605 89.2009L8.12323 93.7821C10.8906 92.9252 13.7058 92.232 16.5542 91.7061L16.3651 83.7215C12.8712 84.5898 9.39734 85.4981 5.88361 86.3165C5.11807 86.5401 4.425 86.9625 3.87444 87.5408C3.32388 88.1192 2.93535 88.833 2.74812 89.6102C2.20066 92.3449 1.75274 95.0996 1.34463 97.8543C0.936515 100.609 2.66849 103.703 5.78407 103.404L7.50609 103.244L3.52453 96.5867L3.64398 96.3372C-0.39731 98.9222 2.47936 106.388 7.24729 104.322C17.4102 99.9802 29.0165 98.3932 39.7269 95.7483C51.2237 92.9138 62.7304 90.6781 74.5656 90.229L68.414 84.3603C68.4062 85.4259 68.7184 86.4692 69.3099 87.3545C71.5794 91.3468 77.5517 90.9675 79.6819 87.105C81.812 83.2424 78.8657 77.9027 74.2769 78.1223C50.0093 79.5396 27.3044 87.5242 4.66923 95.7583L8.27254 103.743C9.21076 103.265 10.0304 102.583 10.6714 101.747C12.7717 99.022 11.5673 93.6923 7.31697 94.1714L5.59494 94.361L10.1638 98.7226C10.4598 96.3515 10.9729 94.0128 11.6967 91.7361L7.34683 95.2293C11.7125 94.6723 15.9283 93.2689 19.7594 91.0973C23.5617 88.9015 21.3122 83.6616 17.4899 83.4321C14.4141 83.2524 11.9953 84.6198 9.35752 86.0071C6.71973 87.3944 4.38057 88.123 2.75808 90.6781C1.13559 93.2332 3.95255 95.6685 6.35144 95.1295C7.28824 94.9992 8.19666 94.7124 9.03899 94.2812C11.1194 93.4328 11.6867 89.7199 8.91954 89.2908L8.88968 89.4405Z" fill="#5887FF"/>
<path d="M19.4709 90.219C24.4479 91.6762 29.5742 90.219 34.571 89.3707C39.9661 88.4624 45.381 87.7138 50.8059 87.0352C62.004 85.6279 73.2121 84.53 84.4899 84.1507C106.767 83.4121 129.163 85.1488 150.813 90.6083C158.537 92.6044 161.563 80.2981 153.799 78.5715C130.963 73.5459 107.563 71.5792 84.2112 72.7228C72.7596 73.2407 61.3451 74.3902 50.0195 76.1661C44.4752 77.0444 38.9508 78.0724 33.4562 79.2102C27.9616 80.3481 22.3377 81.1465 17.958 84.9791C16.0767 86.6359 17.3806 89.6102 19.4709 90.219Z" fill="#5887FF"/>
<path d="M55.1855 86.8655C58.9381 90.0693 64.4127 89.9096 69.1209 89.6102C75.2924 89.211 81.4439 89.6102 87.5954 89.3108C92.7515 89.0413 92.2937 81.935 87.4063 81.4759C82.0885 81.1126 76.7469 81.3436 71.48 82.1645C66.4334 82.8333 61.7949 82.6935 56.7681 82.8333C54.8371 82.8931 53.6426 85.5281 55.2153 86.8256L55.1855 86.8655Z" fill="#5887FF"/>
<path d="M57.8331 91.5364C61.954 93.3329 66.6125 92.8638 71.0121 92.5345C76.3275 92.1652 81.623 91.5364 86.9383 91.247C97.7682 90.708 108.668 90.4186 119.508 90.5782C130.47 90.621 141.408 91.6229 152.196 93.5725C157.323 94.5616 162.391 95.8378 167.376 97.3951C172.542 99.002 177.39 101.807 182.834 102.096C187.562 102.346 189.931 95.6385 186.477 92.6143C182.446 89.1011 177.021 87.9733 171.985 86.5161C166.963 85.0814 161.866 83.9318 156.715 83.0727C145.613 81.2777 134.355 80.6355 123.121 81.1564C112.172 81.5656 101.133 82.2842 90.2729 83.432C85.3855 83.951 80.538 84.8393 75.7004 85.7176C70.0466 86.7157 63.5666 86.6458 58.1815 88.5821C56.987 89.0113 56.4893 90.9775 57.863 91.5763L57.8331 91.5364Z" fill="#5887FF"/>
<path d="M146.364 84.0409C152.734 85.548 159.115 86.8256 165.405 88.4425C171.696 90.0593 177.35 93.9119 183.731 95.2094C191.405 96.7664 194.322 84.7596 186.667 83.4022C179.988 82.2244 173.727 79.6394 166.948 78.7611C160.17 77.8828 153.729 78.0026 147.04 77.763C143.467 77.6732 142.919 83.1926 146.354 83.991L146.364 84.0409Z" fill="#5887FF"/>
<path d="M184.646 89.9994C183.382 93.6024 181.302 100.17 185.473 102.555C187.055 103.453 188.867 103.264 190.539 103.893C192.719 104.711 194.859 105.729 196.989 106.667C197.676 107.024 198.443 107.198 199.217 107.172C199.99 107.147 200.744 106.924 201.407 106.523C202.07 106.123 202.619 105.559 203.003 104.886C203.386 104.212 203.592 103.451 203.599 102.675C203.748 99.1118 204.922 94.1015 202.026 91.4067C199.418 88.9414 195.426 87.5441 192.311 86.5461C185.224 84.1108 180.904 95.4189 187.533 98.7425C189.385 99.6732 191.434 100.139 193.505 100.1C194.152 100.078 194.796 100.022 195.436 99.9302C196.063 99.8704 197.427 100.27 196.432 99.6608L194.063 96.7264C194.421 98.7713 194.634 100.839 194.7 102.914L200.234 98.4631C198.134 97.8143 196.044 97.1257 193.943 96.4669C193.134 96.1815 192.306 95.9547 191.465 95.7882L189.683 95.5287C188.737 95.399 188.688 95.5287 189.494 95.898L190.489 97.5748C189.982 95.0097 189.882 92.3748 189.116 89.8696C188.399 87.5142 185.353 87.8735 184.616 89.9794L184.646 89.9994Z" fill="#5887FF"/>
<path d="M13.8467 78.6313L13.1997 78.8708L16.7533 79.7292L16.1759 79.1703L17.1713 82.7134C17.4301 80.847 20.1575 78.3818 21.2823 76.9446C22.7953 74.9983 24.3282 73.072 25.8511 71.1358C28.7676 67.4429 31.6244 63.6203 34.8097 60.1569C40.782 53.7193 49.3125 49.6172 57.1363 45.9743C65.6767 41.982 74.267 41.1336 83.5639 40.5747C87.5625 40.3867 91.5491 39.9969 95.5086 39.4069C98.9029 38.848 102.267 37.79 105.711 37.6303C113.595 37.281 121.538 39.4967 129.203 41.1935C137.385 43 146.692 45.9743 153.092 51.7232C154.217 52.7213 154.904 54.1884 155.949 55.2863C157.253 56.6437 158.875 57.4621 160.279 58.6798C163.066 61.0951 165.256 64.3089 167.784 66.9937C173.687 73.2417 179.4 79.5595 182.894 87.5441L192.997 81.3062C170.8 63.221 140.341 62.7419 112.968 62.6322C82.3595 62.5224 50.3577 65.9458 21.0733 75.2179L27.7623 86.1169C44.4152 63.7001 69.3099 48.8487 97.6487 49.0683C125.987 49.2879 150.016 66.345 174.523 78.1722C182.078 81.8152 187.751 71.3454 180.774 66.8141C171.756 60.9554 159.343 60.2068 148.921 58.9792C137.026 57.5819 125.082 56.7934 113.087 56.494C89.7851 55.9151 65.9953 55.8053 43.1013 60.7258C34.5409 62.5723 38.4926 75.697 47.0828 73.8306C68.0358 69.2294 90.1335 69.3791 111.485 69.5987C122.225 69.7085 132.965 70.1576 143.656 71.1557C153.839 72.1538 165.664 72.5231 174.513 78.1423L180.764 66.7841C153.47 53.8092 127.013 35.9835 95.638 36.6522C64.5619 37.311 38.1442 54.0886 18.1966 76.9545C17.241 78.0266 16.6561 79.3794 16.5289 80.8116C16.4016 82.2438 16.7389 83.6789 17.4904 84.9035C18.242 86.128 19.3677 87.0766 20.7001 87.6082C22.0325 88.1397 23.5005 88.2257 24.8856 87.8535C52.8959 81.0267 80.6275 75.9665 109.494 75.5073C123.682 75.2178 137.873 75.9047 151.967 77.5634C163.912 79.0206 175.09 82.414 184.536 90.1591C188.737 93.6025 197.317 90.0992 194.64 83.9211C191.541 76.8836 187.385 70.3638 182.317 64.5884C177.698 59.2088 172.442 52.8211 166.56 48.8387C164.031 47.122 162.449 44.8464 160.05 43.0299C156.656 40.6051 153.067 38.4684 149.319 36.6422C142.232 32.9793 134.389 31.3225 126.634 29.8553C119.348 28.488 112.331 26.7513 104.865 27.3402C97.6487 27.9091 90.6113 29.8953 83.3449 30.4941C75.551 31.1428 67.568 31.7816 60.1822 34.5762C52.2766 37.727 44.7422 41.7437 37.7162 46.5531C30.0716 51.6334 24.9354 59.0191 19.5105 66.2751C16.6289 69.9292 13.9378 73.7303 11.4478 77.6632C9.93483 80.1983 9.21815 82.7733 11.7464 84.9491C12.2086 85.397 12.7818 85.7127 13.4066 85.8636C14.0314 86.0146 14.6851 85.9952 15.3 85.8075L15.937 85.518C20.0779 83.6816 18.2762 76.8747 13.8467 78.5315V78.6313Z" fill="#5887FF"/>
<path d="M35.7256 65.4467C47.74 57.9512 59.824 54.6176 73.7495 52.7812C86.9882 51.0245 100.386 49.0983 113.565 46.7927C119.717 45.7347 117.547 36.6023 111.903 36.4127C104.716 36.1632 97.2507 37.9098 90.1934 39.1574C83.2854 40.3851 76.3873 41.6127 69.4694 42.7904C62.7704 43.9382 56.0216 45.1958 49.681 47.7808C43.1214 50.4257 37.0793 54.1286 31.0871 57.8614C26.2495 60.8556 30.888 68.4609 35.7455 65.4268L35.7256 65.4467Z" fill="#5887FF"/>
<path d="M84.9876 43.9083C99.6298 42.2415 114.849 43.4392 128.327 49.767C134.64 52.8734 140.793 56.2979 146.762 60.0272C149.748 61.8038 152.734 63.5105 155.78 65.2072C158.383 66.5804 160.688 68.4601 162.558 70.7365C165.843 74.4394 172.025 71.1158 171.915 66.5746C171.726 58.2905 162.847 54.5977 156.656 51.1842C149.469 47.1919 142.481 42.8703 134.867 39.7663C118.881 33.2488 101.75 32.66 84.7886 34.7759C79.0551 35.4945 79.1646 44.557 85.0175 43.8983L84.9876 43.9083Z" fill="#5887FF"/>
<path d="M65.6169 61.5143C76.1581 56.9531 87.6947 58.4103 98.853 58.5201C104.089 58.5201 109.325 57.9312 114.55 58.1708C119.468 58.4003 127.341 59.0391 131.412 61.8337C135.822 64.8279 141.685 60.9155 142.202 56.1846C142.8 50.7551 137.882 47.2019 132.836 48.3198C130.287 48.8986 126.236 47.3217 123.708 46.9324C120.879 46.4458 118.024 46.1325 115.158 45.9942C108.986 45.7747 102.795 46.8526 96.6234 46.9923C84.4597 47.2319 72.7837 46.9923 61.9141 53.2902C57.5443 55.8053 60.8092 63.6202 65.6169 61.5443V61.5143Z" fill="#5887FF"/>
<path d="M81.593 28.1686C80.5791 26.8808 79.7328 25.4689 79.0746 23.9667L77.0142 25.2443C77.7906 26.5751 78.5935 27.8626 79.423 29.1068C79.6105 29.4112 79.9108 29.6285 80.258 29.7109C80.6052 29.7932 80.9709 29.7339 81.2744 29.546C81.578 29.358 81.7947 29.0569 81.8769 28.7087C81.959 28.3606 81.8998 27.994 81.7124 27.6896C81.0654 26.4919 80.4383 25.2742 79.8411 24.0366C79.5624 23.4577 78.9651 22.6094 79.0746 21.9407C79.2502 21.4137 79.52 20.9233 79.8709 20.4934C81.5233 17.9084 84.2009 19.0063 86.4903 20.0942C86.8165 20.2601 87.1874 20.3161 87.5479 20.2541C87.9084 20.1921 88.2394 20.0152 88.4918 19.7498C88.7443 19.4844 88.9047 19.1445 88.9494 18.7804C88.9941 18.4164 88.9206 18.0476 88.7399 17.7288C86.9382 14.8843 86.5202 10.5626 88.6901 7.74801C91.298 4.3845 95.2199 8.6862 96.703 10.9119C97.5591 12.1994 99.8484 12.439 100.565 10.8221C101.143 9.37109 102.196 8.16035 103.551 7.3887C104.377 6.92959 106.428 6.06126 107.264 6.84974C107.702 7.26893 107.682 8.1672 107.682 8.70616C107.63 9.53675 107.735 10.3697 107.991 11.1614C108.817 13.3073 110.977 13.6067 113.037 13.3372C114.65 13.1177 116.422 12.6086 117.676 13.996C118.93 15.3833 118.313 16.7806 117.676 18.2078C116.79 20.0942 116.422 22.2501 118.014 23.8869C119.109 24.9948 120.752 25.0746 120.662 26.8811L123.429 24.6654C118.953 23.8961 114.399 23.6883 109.872 24.0466C107.585 24.2678 105.284 24.2845 102.994 24.0965C100.757 23.8168 98.4933 23.847 96.265 24.1863C94.1548 24.5356 92.1043 25.1844 90.0339 25.6735C89.1193 25.9194 88.1923 26.116 87.2567 26.2623C86.4147 26.4817 85.5307 26.4817 84.6886 26.2623C83.7629 25.8032 83.6335 23.9368 83.524 23.0286C83.524 23.1483 83.524 22.2101 83.524 22.2002C84.4497 23.3479 82.0309 22.2002 82.0807 22.1203C82.0934 22.4543 82.1233 22.7875 82.1703 23.1184C82.1909 23.7663 82.2878 24.4095 82.459 25.0347C83.2553 27.5698 86.2116 29.027 88.5109 27.4301C88.9855 27.0654 89.3692 26.5953 89.6318 26.0566C89.8943 25.518 90.0286 24.9256 90.0239 24.3261C90.0209 23.7606 89.9198 23.2 89.7253 22.6692C89.7253 22.4896 89.5959 22.3199 89.5362 22.1502C89.4612 21.9841 89.3948 21.8142 89.3371 21.6412C89.2376 21.3318 89.2276 21.4117 89.2873 21.8907L88.6801 22.9886L88.8593 22.779L87.7942 23.4278H87.6449L86.4107 23.1284C86.0523 22.9786 85.903 22.28 86.2315 23.1284C86.331 23.4078 86.4604 23.6873 86.5799 23.9667C86.845 24.5473 87.1792 25.0936 87.5753 25.5936C88.345 26.8669 89.5812 27.7876 91.0193 28.1587C91.7763 28.2556 92.5415 28.0583 93.1579 27.6073C93.7743 27.1562 94.1951 26.4857 94.334 25.7333C94.5203 24.3163 94.2333 22.8774 93.5178 21.6412C92.5224 19.6451 90.8103 18.0282 90.3226 15.7725C90.0538 14.5549 89.5163 11.1714 90.8899 10.5326L89.6258 10.9019H89.4964L88.3716 10.2831C89.1679 11.0317 89.367 13.2774 89.5959 14.4451C89.8765 16.1874 90.2891 17.9058 90.8302 19.5852C91.8953 22.7591 93.3684 26.8711 96.8025 27.989C97.1346 28.0772 97.4809 28.0982 97.8212 28.0509C98.1615 28.0035 98.4889 27.8887 98.7845 27.7131C99.08 27.5375 99.3378 27.3047 99.5427 27.0282C99.7476 26.7517 99.8955 26.437 99.9778 26.1026C100.436 22.4597 98.8431 19.4155 97.3898 16.1818L95.399 11.7403C95.1004 11.0616 94.752 10.3829 94.4932 9.6743C94.4932 9.6743 94.2245 8.97564 94.3041 9.08543C94.6326 9.49464 92.3133 9.29503 92.3133 10.0835C92.4552 10.6878 92.6656 11.2738 92.9404 11.8301L93.7367 14.0459C94.3141 15.6328 94.8615 17.2297 95.4488 18.8067C96.4442 21.4516 97.8477 24.1564 100.655 25.1744C102.506 25.8631 104.636 25.3042 105.283 23.2282C105.641 21.6831 105.469 20.0622 104.796 18.627C104.223 17.3582 103.558 16.1339 102.805 14.9641C102.442 14.4142 102.109 13.8444 101.809 13.2574C101.674 12.9762 101.567 12.6819 101.491 12.3791C101.466 12.2673 101.466 12.1515 101.491 12.0397C101.491 11.7603 101.491 11.7603 101.431 12.0397C101.361 12.409 100.983 12.419 100.316 12.0397C99.6693 11.88 100.137 11.5706 100.187 12.0397C100.237 12.5088 100.426 12.918 100.515 13.3273C100.824 14.7345 101.113 16.1518 101.511 17.5292C102.327 20.1042 103.83 23.2282 106.358 24.5157C106.8 24.7466 107.289 24.8721 107.787 24.8824C108.285 24.8926 108.779 24.7874 109.23 24.5749C109.681 24.3624 110.077 24.0483 110.387 23.6571C110.697 23.266 110.912 22.8084 111.017 22.3199C111.425 20.6332 110.698 18.6071 110.22 17.0002C109.743 15.3933 109.086 13.6367 108.439 12.0098L107.443 9.4148L107.025 8.33688C106.657 7.3388 107.025 7.71807 106.697 8.22709L105.801 9.16528L105.671 9.22516H104.318C103.472 9.08543 103.502 8.08736 103.8 9.35491C103.92 9.88722 104.019 10.4162 104.099 10.9419C104.555 14.2067 104.392 17.5284 103.621 20.733C103.435 21.251 103.364 21.8037 103.414 22.3521C103.464 22.9005 103.633 23.4312 103.91 23.9069C104.676 25.0746 105.9 25.2842 107.214 25.4239L114.311 26.2623C114.782 26.3665 115.273 26.3325 115.725 26.1643C116.177 25.9961 116.571 25.701 116.86 25.3141C117.151 24.9233 117.319 24.454 117.342 23.9666C117.365 23.4793 117.242 22.9962 116.989 22.5794C116.033 21.2396 114.765 20.1537 113.296 19.4155C112.301 18.8566 110.848 18.4174 110.111 17.4194L107.443 21.0823C110.429 21.9007 113.326 22.8289 116.262 23.7372L114.759 20.2739C114.45 20.9143 114.281 21.6136 114.263 22.3249C114.246 23.0363 114.38 23.7432 114.657 24.3982C114.934 25.0533 115.348 25.6413 115.87 26.1229C116.393 26.6045 117.012 26.9685 117.686 27.1905C118.081 27.2825 118.493 27.2695 118.881 27.153C119.269 27.0364 119.62 26.8203 119.9 26.526C120.179 26.2317 120.377 25.8693 120.474 25.4747C120.571 25.0801 120.564 24.667 120.453 24.2761C119.048 20.1237 116.148 16.6465 112.321 14.5249C112.211 14.4651 111.833 14.1756 111.704 14.1956C111.574 14.2155 111.534 14.1956 111.704 14.4251C111.804 14.6532 111.816 14.9108 111.737 15.1473C111.658 15.3837 111.493 15.5819 111.276 15.7027L110.121 16.052C109.713 15.8923 109.713 15.9322 110.121 16.1518C110.26 16.2427 110.393 16.3427 110.519 16.4512C110.897 16.7606 111.246 17.11 111.604 17.4493C112.221 18.0382 112.828 18.637 113.495 19.166C115.237 20.5433 117.984 21.9606 119.657 19.6551C120.991 17.7986 119.916 15.2835 118.512 13.8263C117.853 13.1027 117.038 12.5403 116.129 12.1821C115.219 11.824 114.24 11.6796 113.266 11.7603C112.664 11.791 112.097 12.0527 111.682 12.4911C111.267 12.9296 111.036 13.5112 111.037 14.1157C111.055 14.7246 111.312 15.3018 111.751 15.7222C112.191 16.1425 112.778 16.3722 113.386 16.3614C113.666 16.2932 113.958 16.2837 114.242 16.3335C114.526 16.3833 114.797 16.4914 115.038 16.6508C115.227 16.7906 115.168 16.7107 115.367 17.0102C115.464 17.099 115.527 17.219 115.546 17.3495C115.635 17.8386 115.685 17.7587 115.705 17.1199L116.531 16.2516H117.795C116.923 15.9499 116.153 15.4067 115.576 14.6846C114.694 13.8169 113.749 13.0162 112.749 12.2893C112.214 11.8324 111.555 11.545 110.857 11.4633C110.159 11.3815 109.453 11.5092 108.827 11.8301C108.291 12.1771 107.864 12.6679 107.592 13.2467C107.321 13.8255 107.218 14.469 107.294 15.1038C107.533 17.8386 110.599 18.4673 112.361 19.9944C114.112 21.5001 115.414 23.4621 116.123 25.6635L118.89 22.7391C119.05 22.799 119.089 22.4696 119 22.6193C119.169 22.2987 119.264 21.9439 119.278 21.5812C119.292 21.2186 119.224 20.8575 119.08 20.5248C118.936 20.192 118.718 19.8962 118.444 19.6592C118.17 19.4222 117.846 19.2502 117.497 19.156C114.62 18.0981 111.674 17.2198 108.717 16.3714C106.796 15.8324 104.736 18.3176 106.05 20.0343C107.084 21.3257 108.385 22.3777 109.862 23.1184C110.857 23.6873 112.231 24.1165 112.908 25.1744L115.586 21.5015L111.096 20.9526L108.936 20.6731C108.375 20.6549 107.818 20.5746 107.274 20.4336L108.19 21.3019L108.041 21.0524L108.409 22.3C108.503 22.0381 108.569 21.7672 108.608 21.4915C108.717 21.0524 108.817 20.6032 108.897 20.1541C109.056 19.2858 109.165 18.4174 109.255 17.5491C109.444 15.8425 109.484 14.1226 109.374 12.409C109.205 9.69426 108.936 4.10503 104.955 4.19486C104.058 4.25147 103.219 4.66048 102.621 5.33316C102.023 6.00583 101.713 6.88789 101.76 7.78793C101.76 9.36489 102.655 10.9419 103.213 12.3791C103.83 13.966 104.447 15.543 104.985 17.1599C105.263 18.0382 105.532 18.9165 105.751 19.8147C105.831 20.1242 105.861 20.9825 106.06 21.1721C106.06 21.222 106.129 20.9226 106.159 20.8727L107.065 19.9245L107.274 19.8347H108.648C108.956 20.0243 108.996 20.0343 108.777 19.8347C108.641 19.7193 108.511 19.596 108.389 19.4654C108.21 19.2834 108.047 19.0864 107.901 18.8766C107.606 18.469 107.349 18.0346 107.135 17.5791C106.603 16.3276 106.206 15.0227 105.95 13.6866C105.293 10.862 104.577 6.98947 100.834 7.09926C96.8523 7.20905 95.7474 11.7802 97.0414 14.8843C97.6749 16.2565 98.3896 17.5897 99.1815 18.8766C99.6593 19.7149 100.476 21.1921 100.177 21.9407L100.824 20.743L100.595 20.9526L101.76 20.2439L101.491 20.2938H102.904C101.809 20.1242 101.272 19.0762 100.794 17.9883C100.137 16.5211 99.6494 14.994 99.092 13.457C97.9871 10.353 96.6632 3.90542 92.0147 5.13305C91.146 5.38593 90.3915 5.93288 89.8797 6.68081C89.3679 7.42874 89.1304 8.33141 89.2077 9.23514C89.2774 11.1015 90.3823 12.8881 91.1189 14.5549C91.8555 16.2217 92.6816 18.108 93.468 19.8946C94.105 21.3518 95.1602 23.1882 94.9611 24.885L98.0966 22.9886C97.7681 22.8888 97.3799 21.8907 97.2405 21.6213C96.8651 20.8998 96.5327 20.1566 96.2451 19.3956C95.5401 17.6014 95.01 15.7429 94.6625 13.8463C94.105 10.9319 92.5821 3.59601 88.0431 6.39063C84.7583 8.38678 84.8778 13.0578 85.4451 16.3714C85.7854 18.1685 86.5086 19.8707 87.5653 21.3618C87.9933 21.9906 88.4413 22.5894 88.8394 23.2381C88.9788 23.4577 89.148 23.7072 89.2674 23.9468C89.3869 24.1863 89.4366 24.4059 89.5063 24.6355C89.5959 25.2143 89.6656 25.1046 89.7054 24.336L90.5614 23.4278L90.3425 23.5975L91.5668 23.2381C92.3432 23.1683 92.2735 23.5875 91.7261 23.0186C91.596 22.8847 91.4763 22.7413 91.3677 22.5894C91.0808 22.1675 90.8624 21.7026 90.7207 21.2121C90.5301 20.4911 90.1216 19.8469 89.5513 19.368C88.981 18.889 88.2768 18.5988 87.5355 18.5372C86.8199 18.5129 86.1187 18.743 85.5559 19.1867C84.9931 19.6305 84.6048 20.2595 84.4597 20.9625C84.2734 22.0987 84.4806 23.2645 85.047 24.2662L86.988 23.2681C87.1572 23.5276 87.2269 23.5975 87.197 23.4477C87.1672 23.298 87.1373 23.1383 87.1473 23.0286C87.1542 22.3385 87.0705 21.6506 86.8984 20.9825C86.7581 20.3619 86.4934 19.7765 86.1204 19.2617C85.7473 18.747 85.2738 18.3137 84.7284 17.9883C81.9712 16.4812 79.0249 18.8167 78.5968 21.5913C78.2565 24.1621 78.8045 26.7721 80.1496 28.9871C81.7423 31.3226 84.5294 31.9014 87.1771 31.5621C89.8867 31.1124 92.566 30.4957 95.2 29.7157C97.8083 29.1049 100.502 28.9495 103.163 29.2565C106.368 29.526 109.454 28.8673 112.629 28.6078C115.888 28.3443 119.166 28.502 122.384 29.0769C122.724 29.1533 123.077 29.152 123.416 29.0732C123.755 28.9943 124.072 28.8398 124.344 28.6212C124.615 28.4026 124.834 28.1255 124.984 27.8104C125.135 27.4954 125.212 27.1505 125.211 26.8013C125.252 25.8852 125.089 24.9714 124.732 24.1269C124.376 23.2824 123.835 22.5286 123.151 21.9207C122.528 21.4366 121.862 21.0122 121.16 20.6531C121.289 20.733 121.329 20.9925 121.409 20.8827C121.583 20.563 121.729 20.2291 121.847 19.8846C123.549 16.3714 123.071 12.2593 119.716 9.90385C118.258 8.90579 116.497 8.45357 114.74 8.62632C114.212 8.62632 113.694 8.76605 113.177 8.82593C112.948 8.82593 111.962 8.82593 111.833 8.93572C111.704 9.04551 111.285 8.48659 111.962 9.25511C114.112 11.7204 112.151 9.62439 112.251 9.54455C112.292 9.16637 112.292 8.78492 112.251 8.40674C112.251 4.46434 109.335 1.64977 105.373 2.19871C103.494 2.46956 101.712 3.2054 100.188 4.3398C98.664 5.47419 97.4457 6.97139 96.6433 8.69618L100.505 8.59637C98.7237 6.28084 96.7926 3.99525 93.9358 3.02711C92.6667 2.57311 91.2952 2.48968 89.9807 2.7865C88.6662 3.08333 87.4627 3.74823 86.5102 4.70388C82.8571 8.69618 82.9168 15.2535 85.8732 19.5453L88.1227 17.1698C84.4995 15.6228 80.2492 14.6447 77.6213 18.3975C76.5563 19.9146 75.6306 21.5813 76.2776 23.4677C76.9246 25.3541 78.3878 27.3303 79.423 29.1468L81.7124 27.7295C80.8564 26.4719 79.9771 25.231 79.0746 24.0067C78.8949 23.757 78.6275 23.5849 78.3263 23.525C78.0251 23.465 77.7125 23.5217 77.4513 23.6837C77.1901 23.8456 76.9998 24.1007 76.9187 24.3977C76.8376 24.6947 76.8717 25.0114 77.0142 25.2842C77.9106 26.8486 79.0573 28.2547 80.4084 29.4462C81.2545 30.2047 82.2698 29.037 81.593 28.2086V28.1686Z" fill="#5887FF"/>
<path d="M83.9822 20.8628C83.5362 20.754 83.0655 20.8219 82.6683 21.0525L82.9171 20.9427C82.4976 21.0637 82.1409 21.3426 81.9217 21.7212C81.7846 21.9803 81.6905 22.2601 81.643 22.5496C81.5893 22.8793 81.5726 23.2141 81.5932 23.5476C81.6131 23.8234 81.6131 24.1003 81.5932 24.376V24.0068C81.5797 24.1381 81.5564 24.2682 81.5236 24.396V24.7753L81.5833 25.1446C81.6735 25.4395 81.8591 25.6959 82.1108 25.8732C82.3376 26.0374 82.6073 26.1315 82.8868 26.144C83.1662 26.1564 83.4432 26.0865 83.6836 25.943C84.1565 25.6799 84.612 25.3866 85.0472 25.0647C85.252 24.9458 85.4206 24.7733 85.535 24.5657C85.6503 24.3476 85.7086 24.1038 85.7042 23.857C85.6899 23.611 85.6183 23.3717 85.4952 23.1584C85.3616 22.9645 85.1886 22.8012 84.9875 22.6793C84.7764 22.5547 84.5358 22.489 84.2908 22.489C84.0457 22.489 83.8051 22.5547 83.594 22.6793C83.1102 22.9347 82.6416 23.218 82.1905 23.5277L84.3007 25.0847C84.3553 24.7241 84.3553 24.3573 84.3007 23.9968C84.2509 23.6375 84.1813 23.2881 84.1215 22.9388L84.1813 23.2881C84.1466 23.0666 84.1466 22.841 84.1813 22.6194V22.9588C84.2016 22.827 84.2316 22.6969 84.2708 22.5695L84.1613 22.869C84.2352 22.7073 84.2854 22.5359 84.3106 22.3599C84.3147 22.2835 84.3147 22.2068 84.3106 22.1304C84.3007 22.0776 84.3007 22.0234 84.3106 21.9707V22.2601C84.3058 22.2371 84.3058 22.2133 84.3106 22.1903L84.2111 22.4498C84.2405 22.3878 84.2737 22.3278 84.3106 22.2701L84.1613 22.4697C84.1613 22.4697 84.3306 22.31 84.1613 22.4697C83.9921 22.6294 84.1016 22.4697 84.1613 22.4697C84.2211 22.4697 84.3206 22.3999 84.0618 22.4697C84.2391 22.4174 84.3948 22.3089 84.5055 22.1605C84.6163 22.012 84.6761 21.8317 84.6761 21.6463C84.6761 21.461 84.6163 21.2806 84.5055 21.1322C84.3948 20.9837 84.2391 20.8752 84.0618 20.8229L83.9822 20.8628Z" fill="#5887FF"/>
<path d="M98.5348 12.7384C98.4054 12.6785 98.276 12.6187 98.1565 12.5488C98.0371 12.4789 97.9973 12.3392 98.0371 12.6785L97.1114 13.6766C97.6631 13.698 98.2157 13.6746 98.7637 13.6068L100.486 13.477C101.033 13.477 101.591 13.4171 102.138 13.3872C102.856 13.4906 103.589 13.3612 104.228 13.0179C104.406 12.9003 104.552 12.7403 104.653 12.5521C104.754 12.3639 104.806 12.1536 104.806 11.94C104.793 11.733 104.728 11.5327 104.616 11.358C104.505 11.1833 104.351 11.0401 104.169 10.9419C103.489 10.6468 102.725 10.6078 102.019 10.8321L100.167 11.1216C99.6198 11.2114 99.0723 11.3012 98.5348 11.411C97.9456 11.4946 97.3679 11.6452 96.8128 11.8601C96.5998 11.9356 96.4188 12.0814 96.2994 12.2737C96.18 12.4659 96.1294 12.6932 96.1558 12.9181C96.2024 13.1469 96.3274 13.3521 96.5093 13.498C96.6912 13.6439 96.9183 13.7213 97.1512 13.7166C97.0616 13.7166 97.0716 13.7166 97.1512 13.7166L96.8028 13.5269C97.1076 13.7685 97.4422 13.9698 97.7982 14.1258C97.9717 14.208 98.1694 14.223 98.3532 14.1677C98.537 14.1124 98.6939 13.9908 98.7936 13.8263C98.8779 13.6528 98.8941 13.4537 98.8387 13.2688C98.7834 13.0839 98.6607 12.9266 98.495 12.8283L98.5348 12.7384Z" fill="#5887FF"/>
<path d="M2.91726 107.266C26.5877 98.1836 52.0398 94.1414 77.2631 93.1034C105.109 91.908 133.001 93.8397 160.418 98.8623C174.336 101.371 188.025 105.019 201.349 109.771C203.27 110.47 204.594 107.146 202.672 106.388C178.435 96.7962 152.256 92.2949 126.356 90.4185C98.1212 88.3932 69.7475 89.6694 41.8072 94.2212C28.2102 96.427 14.9316 99.7605 2.32998 105.32C1.17532 105.829 1.68297 107.735 2.91726 107.256V107.266Z" fill="#143500"/>
<path d="M2.91726 88.9514C26.5877 79.859 52.0398 75.8168 77.2631 74.7788C105.11 73.59 133.001 75.5283 160.418 80.5576C174.336 83.0626 188.025 86.7078 201.349 91.4566C203.27 92.1553 204.594 88.8317 202.672 88.0731C178.435 78.4816 152.256 73.9903 126.356 72.1039C98.1212 70.0837 69.748 71.3598 41.8072 75.9066C28.2102 78.1223 14.9316 81.4459 2.32998 87.0052C1.17532 87.5142 1.68297 89.4205 2.91726 89.0013V88.9514Z" fill="#143500"/>
<path d="M1.74279 87.4843C1.39192 88.1737 1.15333 88.915 1.03606 89.6801C0.836978 90.4985 0.707577 91.3369 0.578176 92.1753C0.308985 93.8478 0.129555 95.5337 0.0406607 97.2255C-0.052368 98.8085 0.0143349 100.397 0.239744 101.966C0.468686 103.463 0.697623 105.719 1.8921 106.797C2.09106 106.973 2.33549 107.088 2.59713 107.13C2.85876 107.172 3.12692 107.139 3.37057 107.034C3.61423 106.93 3.82343 106.759 3.97398 106.54C4.12454 106.321 4.21029 106.064 4.22133 105.799C4.15641 105.008 3.96483 104.233 3.65395 103.503C3.45199 102.796 3.29899 102.076 3.19606 101.348C3.00325 99.8687 2.92008 98.3774 2.94722 96.8862C2.98202 95.3945 3.09165 93.9054 3.2757 92.4248C3.45487 90.9376 3.91275 89.201 3.59422 87.7238C3.4051 86.8056 2.17081 86.8455 1.74279 87.5242V87.4843Z" fill="#143500"/>
<path d="M201.388 89.1809C201.266 90.7326 201.353 92.2937 201.647 93.822C201.796 95.5487 201.886 97.2853 201.866 99.022C201.86 100.653 201.733 102.281 201.488 103.893C201.359 104.641 201.209 105.39 201.01 106.118C200.69 106.902 200.489 107.73 200.413 108.574C200.426 108.844 200.517 109.105 200.676 109.324C200.834 109.544 201.052 109.712 201.304 109.809C201.556 109.907 201.831 109.929 202.095 109.872C202.359 109.816 202.601 109.684 202.792 109.492C203.907 108.424 204.185 106.238 204.414 104.771C204.693 102.945 204.813 101.098 204.773 99.2515C204.731 97.4623 204.595 95.6766 204.365 93.9019C204.165 92.3049 204.056 90.2988 203.23 88.9115C203.13 88.7346 202.979 88.5924 202.797 88.504C202.614 88.4155 202.409 88.385 202.209 88.4165C202.009 88.4479 201.823 88.5399 201.676 88.6801C201.53 88.8202 201.429 89.0019 201.388 89.2009V89.1809Z" fill="#143500"/>
<path d="M90.6117 72.0341C88.4418 73.3316 88.0138 77.5534 87.6256 79.7692C87.0284 83.3622 86.4909 89.3607 89.7259 91.7461C90.6018 92.3948 92.3039 92.3349 92.493 90.9376C92.7518 88.9415 92.075 87.5841 91.7962 85.6378C91.5422 83.7467 91.5825 81.8275 91.9157 79.9488C92.2641 77.7031 92.6523 75.4774 92.9111 73.2318C93.0305 72.054 91.5175 71.4751 90.6416 72.0041L90.6117 72.0341Z" fill="#143500"/>
<path d="M67.6577 72.9223C65.4878 74.2198 65.0598 78.4417 64.6716 80.6674C64.0743 84.2505 63.5269 90.2589 66.7718 92.6443C67.6478 93.303 69.3499 93.2332 69.5291 91.8458C69.7879 89.8497 69.111 88.4923 68.8323 86.5461C68.5881 84.6511 68.6284 82.7301 68.9518 80.8471C69.3101 78.6014 69.6983 76.3857 69.9472 74.14C70.0566 72.9623 68.5536 72.3834 67.6777 72.9024L67.6577 72.9223Z" fill="#143500"/>
<path d="M43.4397 75.8468C41.2797 77.4038 41.2399 81.5159 41.0209 83.8314C40.6824 87.6541 40.7023 93.5727 44.3156 95.8083C44.5724 95.9445 44.86 96.0117 45.1504 96.0033C45.4408 95.9949 45.724 95.9113 45.9726 95.7605C46.2212 95.6098 46.4266 95.3971 46.5688 95.1431C46.711 94.8891 46.7852 94.6025 46.7842 94.3112C46.8837 92.4748 45.9879 91.0575 45.5897 89.3209C45.2272 87.4914 45.1266 85.6195 45.2911 83.7616C45.4404 81.5458 45.6992 79.2103 45.7092 77.0844C45.6991 76.8234 45.6216 76.5695 45.4842 76.3476C45.3468 76.1257 45.1542 75.9434 44.9254 75.8186C44.6965 75.6938 44.4393 75.6308 44.1788 75.6358C43.9183 75.6407 43.6636 75.7134 43.4397 75.8468Z" fill="#143500"/>
<path d="M20.6057 80.7374C18.4357 82.2944 18.3959 86.4064 18.1869 88.722C17.8385 92.5446 17.8584 98.4632 21.4816 100.699C21.7381 100.833 22.0246 100.898 22.3135 100.888C22.6025 100.879 22.8841 100.795 23.1312 100.644C23.3783 100.494 23.5826 100.282 23.7243 100.029C23.866 99.7767 23.9404 99.4917 23.9402 99.2018C24.0398 97.3653 23.1439 95.9481 22.7557 94.2114C22.3826 92.3833 22.282 90.5098 22.4571 88.6521C22.5964 86.4464 22.8552 84.1109 22.8752 81.985C22.8651 81.724 22.7876 81.4701 22.6502 81.2481C22.5128 81.0262 22.3202 80.8439 22.0914 80.7191C21.8625 80.5944 21.6052 80.5313 21.3448 80.5363C21.0843 80.5412 20.8296 80.614 20.6057 80.7474V80.7374Z" fill="#143500"/>
<path d="M111.355 73.4015C111.554 75.5573 111.933 77.6932 112.281 79.849C112.542 81.3377 112.638 82.8505 112.57 84.3603C112.45 86.5162 111.395 88.5423 111.684 90.6782C111.833 91.806 113.097 92.8839 114.212 92.0555C117.626 89.5304 117.198 83.8014 116.611 80.0187C116.233 77.7431 115.825 73.4114 113.555 72.0341C113.326 71.9108 113.069 71.8495 112.81 71.8562C112.55 71.863 112.296 71.9376 112.074 72.0727C111.852 72.2077 111.669 72.3986 111.543 72.6264C111.417 72.8542 111.352 73.111 111.355 73.3715V73.4015Z" fill="#143500"/>
<path d="M136.34 76.0163C136.539 78.1722 136.917 80.3081 137.265 82.4639C137.526 83.9526 137.623 85.4654 137.554 86.9752C137.435 89.1311 136.389 91.1572 136.668 93.293C136.817 94.4209 138.082 95.4988 139.206 94.6704C142.611 92.1452 142.193 86.4163 141.595 82.6336C141.217 80.358 140.809 76.0263 138.539 74.649C138.311 74.5256 138.054 74.4643 137.794 74.4711C137.534 74.4778 137.281 74.5525 137.058 74.6875C136.836 74.8226 136.653 75.0135 136.527 75.2413C136.401 75.4691 136.336 75.7259 136.34 75.9864V76.0163Z" fill="#143500"/>
<path d="M162.26 79.8289C162.13 82.0247 162.26 84.3502 162.26 86.6059C162.291 88.2878 162.096 89.9662 161.682 91.5963C161.135 93.5924 160.1 94.9598 160.08 97.0358C160.092 97.327 160.18 97.6099 160.334 97.8569C160.488 98.104 160.704 98.3068 160.96 98.4455C161.215 98.5842 161.502 98.6542 161.793 98.6485C162.084 98.6428 162.368 98.5617 162.618 98.4131C166.201 96.5268 166.599 90.6381 166.54 86.9652C166.54 84.7495 166.709 80.3479 164.798 78.771C164.581 78.578 164.314 78.4514 164.028 78.4061C163.742 78.3607 163.449 78.3986 163.184 78.5153C162.919 78.6319 162.693 78.8224 162.533 79.0641C162.372 79.3058 162.284 79.5886 162.279 79.8789L162.26 79.8289Z" fill="#143500"/>
<path d="M183.591 84.7096C183.461 86.9054 183.591 89.2309 183.591 91.4765C183.623 93.1591 183.426 94.8382 183.004 96.4669C182.466 98.4631 181.431 99.8304 181.411 101.906C181.424 102.198 181.511 102.481 181.666 102.728C181.82 102.975 182.035 103.177 182.291 103.316C182.547 103.455 182.834 103.525 183.124 103.519C183.415 103.513 183.699 103.432 183.949 103.284C187.533 101.397 187.931 95.5088 187.871 91.8358C187.871 89.6201 188.04 85.2186 186.119 83.6317C185.907 83.4327 185.641 83.2999 185.355 83.2493C185.068 83.1987 184.773 83.2325 184.506 83.3466C184.238 83.4607 184.009 83.6502 183.847 83.8921C183.684 84.1341 183.595 84.418 183.591 84.7096Z" fill="#143500"/>
<path d="M10.0841 85.4682C12.3436 82.0947 13.2694 78.0225 15.1108 74.3895C16.9524 70.7673 19.1074 67.314 21.551 64.0694C25.9198 58.3206 31.12 53.2578 36.9796 49.0484C45.972 42.654 55.9533 37.7881 66.5228 34.6462C79.3733 30.6539 92.9206 29.4362 106.338 29.8754C123.827 30.4543 142.929 33.4086 157.74 43.3494C172.821 53.4599 187.652 68.3013 192.649 86.2666C193.226 88.3327 196.411 87.3745 195.834 85.2686C191.166 68.6606 178.594 55.0468 165.076 44.9463C151.141 34.4965 135.543 29.9752 118.213 27.979C90.8303 24.9249 61.4762 29.2466 38.0247 44.4972C31.1423 48.9045 24.9979 54.3749 19.819 60.7059C14.7724 66.9838 8.14309 76.6751 8.29239 85.0091C8.31919 85.2081 8.40523 85.3943 8.53927 85.5435C8.67331 85.6927 8.84911 85.7979 9.04371 85.8454C9.23831 85.8928 9.44266 85.8803 9.63004 85.8094C9.81743 85.7386 9.97914 85.6127 10.0941 85.4482L10.0841 85.4682Z" fill="#143500"/>
<path d="M74.3266 30.3045L74.4062 30.9832C74.413 31.1035 74.462 31.2175 74.5447 31.3049C74.6273 31.3923 74.7382 31.4475 74.8576 31.4607C74.977 31.4738 75.0972 31.4441 75.1968 31.3768C75.2964 31.3095 75.369 31.2089 75.4016 31.093L75.4713 30.4343C75.5038 30.2811 75.479 30.1212 75.4016 29.9852C75.3565 29.9096 75.2942 29.8458 75.2198 29.799C75.1454 29.7522 75.0611 29.7236 74.9736 29.7157C74.8913 29.7056 74.8078 29.7135 74.7288 29.7386C74.6498 29.7638 74.5771 29.8058 74.5157 29.8617C74.4543 29.9175 74.4057 29.986 74.373 30.0624C74.3404 30.1389 74.3246 30.2214 74.3266 30.3045Z" fill="#143500"/>
<path d="M80.4681 29.8853C79.1099 28.6801 78.0848 27.1438 77.4919 25.4251C76.899 23.7064 76.7584 21.8633 77.0838 20.0742C77.2048 19.3859 77.465 18.7298 77.8485 18.1462C78.2319 17.5626 78.7305 17.0639 79.3134 16.6808C80.1994 16.0753 81.2718 15.8069 82.3376 15.924C83.4034 16.0411 84.3924 16.536 85.1265 17.3195C85.2827 17.4661 85.4865 17.5511 85.7003 17.5588C85.9141 17.5665 86.1235 17.4963 86.2897 17.3613C86.4559 17.2262 86.5678 17.0354 86.6047 16.8241C86.6415 16.6128 86.6009 16.3953 86.4902 16.2117C84.3302 12.6885 84.7682 7.61823 88.0331 4.86354C88.6504 4.41139 89.3569 4.09649 90.1053 3.93987C90.8537 3.78325 91.6268 3.78851 92.373 3.95529C94.9311 4.45433 96.2948 6.89962 97.5789 8.94567C97.7044 9.13307 97.8807 9.28069 98.0869 9.37125C98.2932 9.46181 98.5209 9.49154 98.7434 9.45698C98.9659 9.42241 99.174 9.32498 99.3432 9.17608C99.5125 9.02719 99.6359 8.83302 99.6991 8.61631C100.764 5.88158 102.735 2.30847 106.149 2.38831C109.563 2.46816 110.927 6.25087 109.932 9.09538C109.593 10.0935 110.818 10.7123 111.614 10.323C115.018 8.65623 119.756 9.32494 121.349 13.2075C121.647 13.8373 121.786 14.531 121.753 15.2273C121.72 15.9237 121.516 16.6011 121.16 17.1998C120.525 18.0817 119.82 18.9096 119.049 19.675C118.865 19.8733 118.735 20.1162 118.672 20.38C118.609 20.6438 118.616 20.9195 118.691 21.18C118.766 21.4405 118.907 21.677 119.101 21.8663C119.295 22.0556 119.534 22.1913 119.796 22.26C120.919 22.475 121.974 22.9576 122.872 23.6673C123.374 24.0332 123.727 24.5683 123.867 25.1744C123.927 26.0826 122.872 27.2703 122.205 27.9989C120.811 29.4761 122.951 31.3425 124.435 30.1149C127.042 27.959 128.117 24.4957 125.43 21.9406C124.02 20.7122 122.368 19.7941 120.582 19.2458L121.329 21.8209C122.608 20.8559 123.701 19.6653 124.554 18.3076C125.07 17.2077 125.318 16.0003 125.276 14.7854C125.235 13.5705 124.905 12.383 124.315 11.3211C123.789 10.245 123.029 9.30129 122.089 8.56007C121.15 7.81886 120.057 7.29911 118.89 7.03935C116.122 6.69935 113.314 7.13463 110.778 8.29692L112.082 9.91381C113.774 5.8217 111.674 0.701565 106.985 0.0627963C102.118 -0.595934 98.9525 4.0551 97.4694 8.04741L99.5896 7.71804C97.9671 5.25279 96.1853 2.52804 93.0897 1.87929C92.0546 1.62704 90.9772 1.60349 89.9322 1.81031C88.8872 2.01712 87.8995 2.44933 87.0377 3.07699C83.1855 6.35068 82.3593 12.8781 85.0469 17.1099L86.4106 16.0021C84.3601 14.2255 82.1204 13.5767 79.5722 14.6547C78.6825 15.0213 77.8856 15.5825 77.2398 16.2974C76.5941 17.0123 76.1156 17.8627 75.8395 18.7867C75.2356 20.9266 75.2814 23.1985 75.9711 25.3122C76.6607 27.426 77.963 29.2856 79.7116 30.6538C80.2591 31.063 81.0056 30.3344 80.4681 29.8554V29.8853Z" fill="#143500"/>
<path d="M84.2909 16.1019C84.3934 16.1998 84.5155 16.2747 84.6492 16.3215L85.0175 16.4313C85.2568 16.5012 85.4848 16.6054 85.6944 16.7407C86.1027 17.0259 86.4739 17.3612 86.7992 17.7387C87.132 18.1019 87.4043 18.5164 87.6055 18.9664C87.6749 19.1305 87.7282 19.3009 87.7648 19.4754C87.7648 19.6251 87.7648 19.3856 87.7648 19.5453V19.675C87.7697 19.7181 87.7697 19.7616 87.7648 19.8048C87.7648 19.9145 87.7648 19.7349 87.7648 19.8048C87.7589 19.8703 87.742 19.9344 87.715 19.9944C87.715 19.8746 87.715 19.9944 87.715 20.0742C87.715 20.1541 87.715 20.0742 87.715 20.0742L87.6453 20.1541C87.6453 20.1541 87.5657 20.1541 87.6453 20.1541L87.5458 20.2239C87.4861 20.2239 87.6652 20.2239 87.5458 20.2239H87.4761C87.3865 20.2239 87.5756 20.2239 87.4761 20.2239H87.3965C87.287 20.2239 87.496 20.2239 87.3965 20.2239H87.3168H87.2073C87.2969 20.2239 87.2073 20.2239 87.2073 20.2239L87.0182 20.1042C87.1078 20.174 86.9286 20.0243 86.9087 20.0044L86.8291 19.9245C86.7196 19.8048 86.8888 20.0143 86.8291 19.8746C86.7694 19.7349 86.7196 19.695 86.6698 19.6051C86.6201 19.5153 86.6698 19.7249 86.6698 19.5453C86.6455 19.4869 86.6255 19.4269 86.6101 19.3656C86.6101 19.2658 86.5404 19.1061 86.5305 19.0462C86.49 18.7151 86.47 18.3818 86.4708 18.0481C86.4708 17.7288 86.4708 17.4094 86.4708 17.1C86.4708 16.7906 86.4708 16.2316 86.1821 15.9522C86.0846 15.8617 85.9566 15.8114 85.8238 15.8114C85.6909 15.8114 85.5629 15.8617 85.4654 15.9522C85.1867 16.3115 85.2763 16.6808 85.2962 17.1099C85.3161 17.5391 85.2962 17.7687 85.2962 18.108C85.2844 18.7669 85.4028 19.4216 85.6446 20.0343C85.806 20.4634 86.1099 20.8236 86.5051 21.0545C86.9003 21.2853 87.3627 21.3727 87.8145 21.3019C88.013 21.24 88.197 21.1385 88.3555 21.0035C88.5139 20.8686 88.6434 20.7029 88.7364 20.5165C88.8294 20.33 88.8838 20.1267 88.8965 19.9186C88.9091 19.7106 88.8797 19.5021 88.8099 19.3057C88.4362 18.1919 87.709 17.2313 86.7395 16.571C86.3882 16.2597 85.974 16.0282 85.5251 15.8923C85.1983 15.822 84.8636 15.7952 84.5297 15.8124C84.4003 15.8124 84.3108 15.9921 84.4203 16.0819L84.2909 16.1019Z" fill="#143500"/>
<path d="M96.7827 6.70003C97.5991 7.95198 98.3339 9.25552 98.9825 10.6025C99.5001 11.6006 100.087 13.0777 99.0522 14.0059C98.8839 14.1643 98.6785 14.2776 98.455 14.3353C98.3747 14.3468 98.2928 14.3402 98.2153 14.316C98.1379 14.2918 98.0667 14.2507 98.007 14.1956C97.8976 14.1257 98.0767 14.1956 98.007 14.1956L97.9175 14.1157C97.9175 14.1157 97.7084 13.8962 97.7881 13.996C97.7314 13.9242 97.6814 13.8473 97.6387 13.7664L97.579 13.6566C97.4894 13.5069 97.579 13.7964 97.579 13.6566C97.4474 13.144 97.4336 12.6081 97.5388 12.0894C97.644 11.5707 97.8654 11.0827 98.1862 10.6624C98.5446 10.0735 98.9427 9.51461 99.3011 8.92574C99.6594 8.33688 100.356 7.40867 100.097 6.69005C100.067 6.59153 100.015 6.50129 99.9446 6.42636C99.8741 6.35143 99.7873 6.29385 99.6909 6.25811C99.5946 6.22236 99.4913 6.20942 99.3891 6.22029C99.287 6.23115 99.1887 6.26554 99.102 6.32077C98.6839 6.55032 98.5844 6.96952 98.3853 7.36875C98.2117 7.71202 98.0189 8.04524 97.808 8.36682C97.4397 8.97565 97.0316 9.57449 96.6832 10.2033C96.281 10.8101 96.0304 11.505 95.9524 12.2294C95.8744 12.9538 95.9715 13.6864 96.2352 14.3653C96.3553 14.6587 96.5344 14.9242 96.7614 15.1452C96.9884 15.3661 97.2584 15.5376 97.5546 15.6491C97.8508 15.7606 98.1667 15.8096 98.4826 15.793C98.7986 15.7765 99.1077 15.6948 99.3907 15.553C100.116 15.133 100.648 14.4452 100.874 13.6367C101.082 12.8111 100.993 11.9385 100.625 11.1714C100.233 10.2887 99.7351 9.45748 99.1418 8.69619C98.6129 7.85269 97.9583 7.09535 97.2008 6.45052C96.9718 6.27086 96.5936 6.5104 96.7827 6.78986V6.70003Z" fill="#143500"/>
<path d="M110.748 7.46864C110.579 8.44109 110.242 9.37658 109.753 10.2333C109.527 10.6458 109.264 11.0366 108.967 11.4011C108.694 11.8125 108.329 12.1544 107.901 12.3991C107.767 12.4535 107.617 12.4535 107.483 12.3991C107.424 12.3991 107.394 12.3293 107.364 12.2095C107.344 12.104 107.344 11.9956 107.364 11.8901C107.404 11.7287 107.49 11.5828 107.613 11.4709C107.937 11.1794 108.311 10.9495 108.718 10.7922C109.245 10.5527 109.763 10.3231 110.29 10.1036L112.062 9.39492C112.755 9.23392 113.407 8.9278 113.973 8.49665C114.043 8.40718 114.086 8.30031 114.099 8.1877C114.112 8.07509 114.094 7.96107 114.047 7.85809C114 7.7551 113.925 7.66711 113.831 7.60371C113.738 7.54031 113.628 7.50395 113.516 7.49858C113.169 7.50077 112.827 7.58633 112.52 7.7481L111.455 8.18725L109.464 9.0456C108.369 9.51469 106.876 9.95384 106.259 11.0417C106.101 11.2926 106.006 11.5789 105.985 11.8752C105.964 12.1714 106.017 12.4683 106.138 12.7392C106.259 13.0101 106.446 13.2467 106.68 13.4277C106.915 13.6087 107.191 13.7286 107.483 13.7765C108.827 13.8863 109.793 12.5289 110.41 11.5208C111.141 10.3344 111.558 8.98124 111.624 7.5884C111.617 7.48336 111.574 7.38408 111.501 7.30789C111.429 7.23171 111.332 7.18346 111.228 7.17157C111.124 7.15969 111.018 7.18492 110.931 7.24286C110.843 7.30081 110.779 7.38778 110.748 7.4886V7.46864Z" fill="#143500"/>
<path d="M121.488 18.0681C120.718 18.4761 120.01 18.9938 119.388 19.6051C118.731 20.1341 118.094 20.673 117.457 21.212C116.909 21.7552 116.285 22.2158 115.605 22.5794C115.277 22.7191 114.481 22.8888 114.351 22.3698C114.351 22.3698 114.351 22.3698 114.351 22.3099C114.449 22.2223 114.556 22.1453 114.67 22.0803C114.942 21.9257 115.238 21.8177 115.546 21.7609C116.242 21.671 116.949 21.7014 117.636 21.8508C119.276 22.2545 120.938 22.5644 122.613 22.779C122.799 22.773 122.977 22.7002 123.114 22.5738C123.251 22.4474 123.338 22.2758 123.36 22.0903C123.379 21.9056 123.332 21.7199 123.226 21.5676C123.12 21.4153 122.962 21.3067 122.782 21.2619C121.987 21.0288 121.175 20.8553 120.353 20.7429C119.557 20.5932 118.771 20.4235 117.974 20.3038C116.551 19.9431 115.045 20.1207 113.744 20.8028C113.438 20.968 113.183 21.2147 113.007 21.5158C112.831 21.8169 112.742 22.1607 112.749 22.5095C112.791 22.8507 112.92 23.1751 113.124 23.4514C113.328 23.7277 113.6 23.9464 113.913 24.0865C115.386 24.7552 116.83 23.7172 117.895 22.759C118.602 22.1103 119.298 21.4615 119.985 20.7629L120.981 19.7648C121.365 19.4506 121.701 19.0806 121.976 18.6669C122.145 18.3575 121.837 17.8984 121.468 18.0381L121.488 18.0681Z" fill="#143500"/>
</svg>
