<svg width="100" height="100" viewBox="0 0 100 100" fill="none" xmlns="http://www.w3.org/2000/svg">
<path d="M24.9284 61.626C25.0002 61.6405 25.0098 61.6834 24.9145 61.6191C25.1743 61.7966 25.5655 61.6946 25.7724 61.4879C25.5707 61.6894 25.8114 61.4802 25.8988 61.4244L26.2191 61.222C26.5627 61.0181 26.889 60.7869 27.1948 60.5307C27.8781 59.9298 28.5617 59.3294 29.2456 58.7296C31.183 57.0297 32.9845 55.1565 34.8371 53.3657C39.0074 49.3329 43.1693 45.2918 47.3229 41.2425C48.1765 40.4065 49.0278 39.568 49.8767 38.7269C50.5078 38.0999 51.9622 36.9095 51.5553 35.912L51.3068 36.9455L51.3293 36.9215C52.2755 35.936 50.7329 34.4806 49.7867 35.4634L49.7642 35.4875L50.7935 35.1907C49.8585 34.8674 48.8188 36.1179 48.2319 36.7105C47.5232 37.4258 46.8113 38.1382 46.0962 38.8478C44.1813 40.7519 42.2598 42.6499 40.3316 44.5419C36.2686 48.5404 32.1985 52.5329 28.1211 56.5194C27.3471 57.2775 26.6373 58.1112 25.904 58.9088C25.5967 59.2485 25.3187 59.6132 25.073 59.9989C24.9968 60.1164 24.9197 60.2339 24.8436 60.3523C24.8089 60.4055 24.7743 60.4578 24.7405 60.511C24.6903 60.5907 24.5674 60.6945 24.7405 60.5178C24.5328 60.7245 24.4696 61.1268 24.654 61.3755C24.5804 61.276 24.6202 61.2897 24.641 61.3575C24.6606 61.4237 24.6974 61.4837 24.7479 61.5313C24.7984 61.5789 24.8606 61.6124 24.9284 61.6285V61.626Z" fill="#31348B"/>
<path d="M38.6966 74.8261C38.7676 74.8407 38.7771 74.8836 38.6827 74.8192C38.9424 74.9959 39.3337 74.8939 39.5398 74.688C39.3389 74.8896 39.5796 74.6794 39.6662 74.6245L39.9873 74.4221C40.3312 74.2179 40.658 73.9867 40.9647 73.7308C41.6469 73.1288 42.3302 72.5284 43.0146 71.9297C44.9529 70.2298 46.7544 68.3567 48.6061 66.5658C52.7765 62.533 56.9387 58.492 61.0928 54.4426C61.9464 53.6067 62.7977 52.7679 63.6466 51.9262C64.2768 51.3001 65.7321 50.1088 65.3243 49.1122L65.0759 50.1414L65.0984 50.1182C66.0446 49.1327 64.5019 47.6773 63.5557 48.6602L63.5332 48.6833L64.5625 48.3874C63.6285 48.0641 62.5888 49.3146 62.0009 49.9072C61.2928 50.6242 60.5812 51.3381 59.8662 52.0488C57.9513 53.954 56.0297 55.8523 54.1015 57.7438C50.0363 61.7417 45.9652 65.7333 41.8884 69.7186C41.1145 70.4777 40.4046 71.3113 39.6714 72.109C39.3641 72.4476 39.0864 72.8114 38.8412 73.1965C38.7644 73.3143 38.6876 73.4318 38.6109 73.549C38.5763 73.6022 38.5416 73.6554 38.5079 73.7085C38.4585 73.7874 38.3347 73.8921 38.5079 73.7154C38.301 73.9221 38.2369 74.3244 38.4213 74.5731C38.3486 74.4736 38.3875 74.4873 38.4083 74.5551C38.4284 74.6212 38.4655 74.681 38.5161 74.7286C38.5666 74.7761 38.6289 74.8097 38.6966 74.8261Z" fill="#31348B"/>
<path d="M32.4651 61.6306C32.8911 61.3244 33.3784 61.146 33.7827 60.8021C34.3523 60.3175 34.9185 59.8295 35.4873 59.344C37.0723 57.9906 38.531 56.4717 40.0347 55.0299C43.4975 51.7056 46.9519 48.3727 50.3979 45.0312C51.1384 44.309 51.8756 43.5846 52.6097 42.8578C53.2157 42.2574 54.0728 41.5421 54.226 40.6802C54.3723 39.862 53.7066 39.229 52.8842 39.4143C52.1189 39.5858 51.4913 40.3148 50.9511 40.8603C50.3209 41.4973 49.6875 42.1314 49.0509 42.7626C47.4442 44.3596 45.8305 45.9494 44.21 47.5321C42.4422 49.2646 40.6716 50.9943 38.8981 52.7211C37.3398 54.2391 35.7392 55.7229 34.2234 57.2787C33.6174 57.9031 33.0469 58.5704 32.4625 59.2171C32.0505 59.6725 31.8237 60.2025 31.4705 60.6923C31.0575 61.2643 31.9102 62.0311 32.4651 61.6306Z" fill="#31348B"/>
<path d="M39.0339 68.4712C39.4598 68.1651 39.9472 67.9858 40.3506 67.6427C40.9203 67.1581 41.4864 66.6701 42.0552 66.1847C43.6428 64.8304 45.0998 63.3123 46.6026 61.874C50.0654 58.5508 53.5201 55.2179 56.9667 51.8752C57.706 51.1542 58.4433 50.4301 59.1785 49.7028C59.7845 49.1024 60.6407 48.3871 60.7948 47.5251C60.9411 46.706 60.2753 46.0739 59.4521 46.2592C58.6877 46.4307 58.0592 47.1597 57.5198 47.7052C56.8896 48.3422 56.2548 48.9763 55.6153 49.6075C54.0086 51.204 52.395 52.7938 50.7744 54.3771C49.0067 56.1096 47.2363 57.8392 45.4634 59.566C43.9051 61.0832 42.3045 62.5679 40.7887 64.1237C40.1827 64.7481 39.6122 65.4154 39.027 66.0612C38.6149 66.5175 38.3881 67.0475 38.0349 67.5372C37.622 68.1093 38.4747 68.8752 39.0304 68.4755L39.0339 68.4712Z" fill="#31348B"/>
<path d="M60.8555 25.4181L74.3204 39.1675L81.3437 29.1215L70.5962 18.3972L64.8861 22.3673L60.8555 25.4181Z" fill="#E4032F"/>
<path d="M61.1013 26.2004C61.361 25.9894 61.5143 25.865 61.8112 25.6317C62.2094 25.3178 62.5973 24.9979 62.9773 24.6625C63.7662 23.969 64.5601 23.2808 65.3588 22.5981C66.2176 21.8645 67.081 21.1361 67.9489 20.4128C68.3091 20.1126 68.6415 19.7995 69.0276 19.5628C69.3536 19.3699 69.7206 19.2551 70.0993 19.2275C70.4417 19.2033 70.7851 19.26 71.1011 19.3928C71.4171 19.5257 71.6968 19.7309 71.9173 19.9917C72.022 20.1092 72.1233 20.2292 72.2263 20.3476L74.0235 22.4214C75.6103 24.2509 77.2058 26.1094 78.9951 27.751C79.3596 28.0847 79.7318 28.4123 80.0902 28.7537C80.1084 28.7708 80.3872 29.0693 80.2028 28.8531C80.0184 28.637 80.2591 28.9492 80.2755 28.9766L80.3361 29.0796C80.4209 29.2465 80.412 29.2179 80.3093 28.9938C80.3768 29.0521 80.3958 29.2511 80.4261 29.3283C80.562 29.6714 80.4261 29.0658 80.4322 29.2931C80.4322 29.3892 80.4391 29.4913 80.4486 29.5865C80.4876 29.9501 80.5456 29.2683 80.4486 29.6276C80.4253 29.7134 80.2547 30.1774 80.4209 29.824C80.085 30.5385 79.5345 31.186 79.0679 31.8216C77.8879 33.428 76.7807 35.0747 75.6519 36.7163C74.8797 37.839 74.007 38.9463 72.9907 39.8725C72.2272 40.5698 73.3976 41.6659 74.1559 40.9729C75.1195 40.093 75.8925 39.0252 76.8223 38.1126C78.1753 36.7858 79.5258 35.4538 80.7854 34.0438C81.349 33.4108 81.9108 32.7779 82.4891 32.1569C83.3374 31.2443 83.856 30.0633 83.7244 28.8034C83.6179 27.7742 83.1868 26.9354 82.4813 26.1832C82.3211 26.0117 82.1575 25.8401 81.9948 25.6729C80.3153 23.9121 78.4896 22.3022 76.6171 20.7438L74.181 18.7163C73.382 18.0516 72.583 17.4058 71.5442 17.1399C70.9259 16.9863 70.2825 16.9589 69.6532 17.0591C69.0239 17.1594 68.4217 17.3853 67.8832 17.7231C67.3083 18.0936 66.8071 18.5979 66.2955 19.0482C65.817 19.4702 65.34 19.8936 64.8645 20.3184C63.1556 21.8451 61.4173 23.3469 59.905 25.0682C59.7577 25.2281 59.6785 25.4382 59.6838 25.6546C59.6892 25.8709 59.7786 26.0769 59.9335 26.2295C60.2893 26.5649 60.7594 26.4868 61.1048 26.2004H61.1013Z" fill="#E4032F"/>
<path d="M59.5353 26.6085C59.4089 26.3349 59.5665 26.7037 59.5985 26.7801L59.6712 26.9628C59.6877 27.0031 59.7015 27.0442 59.718 27.0845C59.7691 27.2515 59.8631 27.4025 59.9907 27.5228C59.8807 27.3873 59.8582 27.3607 59.924 27.4413C60.2149 27.8024 60.5092 28.1601 60.801 28.5194C61.6667 29.5812 62.6734 30.5315 63.6292 31.511C65.8194 33.7538 68.0156 35.9923 70.2482 38.1949C70.7901 38.73 71.3352 39.2615 71.8835 39.7893C72.5345 40.4145 73.2539 41.2044 74.2477 40.9506C74.581 40.8648 74.9151 40.5389 74.9731 40.195C75.0788 39.5637 74.8468 39.1657 74.4537 38.7009C74.2472 38.4686 74.0272 38.2484 73.7949 38.0413C73.3165 37.5936 72.8412 37.1428 72.3692 36.6888C71.2726 35.6367 70.1836 34.5752 69.102 33.5042C67.9686 32.3904 66.8409 31.2711 65.7189 30.1464C64.7667 29.1927 63.8499 28.1592 62.8362 27.2698C62.4189 26.9036 61.9835 26.5562 61.5584 26.2003C61.3742 26.041 61.166 25.9113 60.9412 25.816C61.2814 25.9601 60.9706 25.8238 60.8936 25.792C60.7577 25.7354 60.6183 25.684 60.4841 25.6205C59.802 25.3109 59.2436 25.9704 59.5371 26.6068L59.5353 26.6085Z" fill="#FAB500"/>
<path d="M56.196 29.9201C56.0696 29.6465 56.2272 30.0153 56.2592 30.0916C56.2834 30.1525 56.3077 30.2134 56.3328 30.2743C56.3484 30.3146 56.3622 30.3601 56.3795 30.3961C56.4302 30.5633 56.5242 30.7144 56.6522 30.8344C56.5414 30.6989 56.5189 30.6717 56.5847 30.7529C56.8764 31.1131 57.1699 31.4716 57.4616 31.831C58.3273 32.8928 59.3341 33.8431 60.2899 34.8226C62.48 37.0654 64.6763 39.3039 66.9089 41.5064C67.4508 42.0416 67.9959 42.5731 68.5442 43.1008C69.1961 43.7261 69.9155 44.516 70.9084 44.2621C71.2417 44.1763 71.5758 43.8504 71.6338 43.5065C71.7395 42.8753 71.5075 42.4773 71.1144 42.0124C70.9081 41.78 70.6881 41.5597 70.4556 41.3529C69.9772 40.9052 69.5019 40.4543 69.0299 40.0003C67.9333 38.9471 66.8443 37.8856 65.7627 36.8158C64.631 35.7002 63.5033 34.5801 62.3796 33.4554C61.4274 32.5017 60.5106 31.4682 59.4969 30.5788C59.0796 30.2126 58.645 29.8652 58.2191 29.5093C58.0352 29.3497 57.8268 29.22 57.6019 29.125C57.9421 29.2691 57.6313 29.1327 57.5551 29.101C57.4184 29.0444 57.2799 28.9921 57.1457 28.9295C56.4557 28.6233 55.8991 29.2828 56.196 29.9201Z" fill="#FAB500"/>
<path d="M52.5596 33.5206C52.4332 33.247 52.5908 33.6158 52.6228 33.6922L52.6955 33.8748C52.712 33.9152 52.7258 33.9563 52.7423 33.9966C52.7934 34.1636 52.8874 34.3146 53.015 34.4349C52.905 34.2994 52.8825 34.2728 52.9483 34.3491C53.2392 34.7102 53.5335 35.0679 53.8253 35.4272C54.691 36.489 55.6978 37.4393 56.6535 38.4188C58.8437 40.6616 61.0399 42.9001 63.2725 45.1027C63.8139 45.6378 64.359 46.1693 64.9078 46.6971C65.5588 47.3223 66.2782 48.1122 67.272 47.8584C67.6053 47.7726 67.9395 47.4467 67.9975 47.1036C68.1031 46.4715 67.8711 46.0744 67.4781 45.6087C67.2715 45.3764 67.0515 45.1562 66.8193 44.9491C66.3408 44.5014 65.8656 44.0506 65.3935 43.5966C64.2969 42.5439 63.2079 41.4824 62.1264 40.412C60.994 39.2965 59.8663 38.1764 58.7432 37.0517C57.791 36.0979 56.8742 35.0644 55.8605 34.175C55.4432 33.8088 55.0078 33.4614 54.5827 33.1055C54.3984 32.9464 54.1902 32.8168 53.9655 32.7213C54.3057 32.8654 53.9949 32.729 53.9179 32.6973C53.782 32.6406 53.6426 32.5892 53.5084 32.5257C52.8193 32.2247 52.2644 32.8851 52.5596 33.5206Z" fill="#FAB500"/>
<path d="M49.2154 36.8309C49.089 36.5573 49.2466 36.9261 49.2786 37.0025C49.3028 37.0634 49.3271 37.1243 49.3522 37.1851C49.3678 37.2255 49.3816 37.2666 49.3989 37.3069C49.4496 37.4741 49.5436 37.6253 49.6716 37.7452C49.5608 37.6097 49.5383 37.5831 49.6041 37.6637C49.895 38.024 50.1893 38.3825 50.481 38.7418C51.3467 39.8036 52.3535 40.7539 53.3092 41.7334C55.4994 43.9762 57.6957 46.2148 59.9283 48.4173C60.4702 48.9525 61.0153 49.4839 61.5636 50.0117C62.2146 50.6369 62.9348 51.4268 63.9278 51.173C64.2611 51.0872 64.5952 50.7613 64.6532 50.4174C64.7588 49.7861 64.5268 49.3881 64.1338 48.9233C63.9275 48.6908 63.7075 48.4706 63.475 48.2637C62.996 47.816 62.5208 47.3652 62.0492 46.9112C60.9527 45.858 59.8637 44.7964 58.7821 43.7266C57.6504 42.6111 56.5227 41.491 55.399 40.3663C54.4468 39.4125 53.53 38.379 52.5163 37.4896C52.099 37.1234 51.6644 36.776 51.2385 36.4201C51.0543 36.2608 50.846 36.1312 50.6213 36.0359C50.9615 36.18 50.6507 36.0436 50.5737 36.0118C50.4377 35.9552 50.2992 35.9029 50.1651 35.8403C49.482 35.5298 48.9237 36.1902 49.2128 36.8266L49.2154 36.8309Z" fill="#FAB500"/>
<path d="M49.9941 37.4704C50.0728 37.4506 50.1516 37.4326 50.2295 37.4121C50.2743 37.4062 50.3184 37.3959 50.3611 37.3812C50.5213 37.2954 49.9213 37.5133 50.349 37.3812C50.4881 37.3513 50.6222 37.3019 50.7472 37.2345C51.0069 37.0707 51.2441 36.8606 51.4891 36.6787C52.2449 36.117 52.9071 35.4531 53.591 34.8073C55.222 33.2635 56.8503 31.7197 58.4562 30.1553C58.9179 29.7059 59.3764 29.2541 59.8318 28.8001C60.3754 28.2581 60.9364 27.7581 61.2082 27.0256C61.5103 26.2125 60.5027 25.2657 59.6993 25.6019C59.0483 25.8738 58.6137 26.3601 58.1342 26.8541C57.7342 27.2675 57.3319 27.6783 56.9274 28.0866C56.0998 28.9237 55.2661 29.7556 54.4264 30.5824C53.6531 31.344 52.878 32.1036 52.1012 32.8612C51.4623 33.483 50.7464 34.0791 50.1897 34.7747C49.9612 35.0586 49.7326 35.3425 49.5084 35.6324C49.2634 35.9463 49.1777 36.2542 49.0946 36.6264C49.0665 36.7475 49.0706 36.8737 49.1066 36.9926C49.1427 37.1116 49.2093 37.2192 49.3001 37.3049C49.3909 37.3906 49.5026 37.4514 49.6243 37.4813C49.746 37.5112 49.8734 37.5092 49.9941 37.4755V37.4704Z" fill="#FAB500"/>
<path d="M63.4227 51.2867C63.6694 51.2095 63.9482 51.1709 64.1698 51.0354C64.2568 50.9741 64.3398 50.9073 64.4182 50.8355C64.4425 50.8158 64.5291 50.7498 64.4105 50.8415C64.2737 50.9522 64.4823 50.7841 64.5083 50.7635L64.9039 50.4461C65.657 49.8458 66.3132 49.1596 66.9911 48.4735C68.6186 46.8319 70.2449 45.1886 71.8701 43.5436C72.3393 43.0673 72.8082 42.5907 73.2768 42.1138C73.7963 41.5872 74.4334 41.0589 74.6377 40.329C74.8775 39.4714 73.9902 38.6351 73.1392 38.9156C72.4839 39.1317 72.0311 39.6875 71.5714 40.1712C71.1721 40.5915 70.7724 41.0112 70.3725 41.4303C69.5443 42.2971 68.7141 43.1628 67.8819 44.0273L65.5255 46.4811C64.89 47.1415 64.1758 47.7796 63.6209 48.5112C63.3901 48.8183 63.1592 49.1259 62.9284 49.4341C62.6834 49.7626 62.6167 50.0662 62.5241 50.4427C62.396 50.9573 62.899 51.4496 63.4184 51.2867H63.4227Z" fill="#FAB500"/>
<path d="M33.2926 60.4392C32.9151 60.0104 32.2304 59.9401 31.6772 59.9246C30.9128 59.8972 30.1449 59.8989 29.3796 59.8869C28.5861 59.8749 27.7925 59.864 26.999 59.8543C26.4692 59.8491 25.7446 59.7334 25.2468 59.9495C24.4037 60.3166 24.3993 61.3878 25.2901 61.7043C25.8052 61.887 26.5082 61.766 27.0466 61.7592C27.8396 61.7495 28.6326 61.742 29.4255 61.7369C30.1908 61.7317 30.9569 61.7369 31.7222 61.7214C32.2684 61.7086 32.9471 61.6211 33.3116 61.1914C33.4051 61.0876 33.4552 60.9524 33.4516 60.8133C33.4481 60.6742 33.3912 60.5417 33.2926 60.4427V60.4392Z" fill="#31348B"/>
<path d="M32.5531 68.4974C32.6267 68.4382 32.4233 68.602 32.5531 68.4974C32.7498 68.3485 32.8876 68.136 32.9427 67.897C33.0341 67.5708 33.0921 67.2363 33.1158 66.8987C33.1634 66.1413 33.192 65.3823 33.2292 64.6241C33.2679 63.8385 33.3051 63.0529 33.3409 62.2672C33.3643 61.7363 33.5002 61.0373 33.295 60.5313C33.1565 60.1882 32.902 59.9309 32.5159 59.8983C32.1895 59.8675 31.7454 60.0193 31.6121 60.3546C31.3741 60.955 31.4338 61.6034 31.4208 62.2415C31.4041 63.0374 31.385 63.8328 31.3637 64.6275C31.3438 65.3994 31.3135 66.1714 31.3022 66.9475C31.2944 67.487 31.3845 68.1551 31.7974 68.5214C32.0328 68.7298 32.3229 68.6929 32.5531 68.5025V68.4974Z" fill="#31348B"/>
<path d="M40.2665 67.2608C39.8882 66.8319 39.2035 66.7625 38.6511 66.7462C37.8859 66.7187 37.1189 66.7204 36.3536 66.7084C35.5598 66.6964 34.7659 66.6844 33.973 66.6767C33.4423 66.6707 32.7186 66.5549 32.2208 66.7719C31.3776 67.1381 31.3724 68.2102 32.2641 68.5259C32.7835 68.7085 33.4821 68.5876 34.0197 68.5808C34.8127 68.571 35.6059 68.5639 36.3995 68.5593C37.1639 68.5533 37.9309 68.5593 38.6953 68.543C39.2415 68.5302 39.9202 68.4427 40.2847 68.013C40.3781 67.9092 40.4282 67.7741 40.4248 67.635C40.4215 67.496 40.3649 67.3634 40.2665 67.2642V67.2608Z" fill="#31348B"/>
<path d="M39.3876 74.7398C39.2958 74.8582 39.3114 74.8093 39.3876 74.7535C39.5844 74.618 39.7243 74.4157 39.7806 74.1849C39.8728 73.9063 39.9352 73.6188 39.9667 73.3272C40.0317 72.6179 40.0767 71.9061 40.1303 71.1959C40.1858 70.4634 40.2412 69.731 40.2905 68.9977C40.3277 68.4513 40.4134 67.8939 40.2758 67.3578C40.042 66.453 38.7175 66.5602 38.4907 67.4007C38.3514 67.9101 38.392 68.4796 38.3704 69.0054C38.3401 69.7353 38.3037 70.4634 38.2674 71.1959C38.2319 71.8958 38.1687 72.5999 38.1592 73.3006C38.1657 73.5416 38.1918 73.7817 38.2371 74.0185C38.2743 74.2664 38.3115 74.4739 38.5072 74.6583C38.5661 74.7149 38.6457 74.811 38.5461 74.6583C38.7141 74.9156 39.1694 75.022 39.385 74.7441L39.3876 74.7398Z" fill="#31348B"/>
<path d="M18.0012 82.142C18.0923 81.994 18.1911 81.8509 18.2973 81.7132C18.344 81.6471 18.5371 81.3812 18.4046 81.5605C18.5087 81.4088 18.5957 81.2463 18.6643 81.0759C18.9388 80.4644 19.2357 79.858 19.4876 79.2371C20.162 77.5792 20.7706 75.8921 21.4103 74.2214C22.7313 70.771 24.0558 67.3205 25.3578 63.8624C25.5924 63.2406 25.84 62.6205 26.0565 61.9918C26.214 61.5312 26.3387 61.0715 26.2028 60.5912C26.0296 59.9686 25.2964 59.9094 24.8592 60.2748C24.6939 60.4128 25.0107 60.1555 24.9155 60.2302C24.7524 60.347 24.618 60.4989 24.5225 60.6744C24.4437 60.8305 24.3762 60.9969 24.3069 61.1573C24.0619 61.7216 23.8741 62.3152 23.6637 62.8924C23.0993 64.4322 22.5299 65.97 21.9557 67.5058C20.6375 71.0474 19.3145 74.5867 17.9865 78.1238C17.7173 78.8434 17.5017 79.5818 17.2758 80.3126C17.1735 80.6282 17.1034 80.9532 17.0663 81.2826L17.0325 81.6025C17.0256 81.6694 16.9754 81.9524 17.0152 81.7586C16.8957 82.3333 17.7 82.6806 17.9986 82.142H18.0012Z" fill="#31348B"/>
<path d="M17.8393 82.3726C17.6428 82.4215 17.8896 82.3726 17.9519 82.3684L18.2471 82.3401C18.544 82.3148 18.8377 82.2608 19.124 82.1788C19.7586 81.9936 20.4018 81.8263 21.0285 81.6196C22.7443 81.0553 24.4368 80.4026 26.1361 79.7936C29.6641 78.53 33.1895 77.2606 36.7122 75.9856C37.3321 75.7608 37.958 75.5473 38.5718 75.3063C39.1102 75.0944 39.5534 74.8912 39.8945 74.4177C40.1854 74.0138 39.8573 73.3508 39.3881 73.2667C38.454 73.1012 37.4256 73.6733 36.5677 73.9923C34.9939 74.579 33.4189 75.1622 31.8427 75.742C28.2247 77.0748 24.6033 78.4028 20.9783 79.7259C20.2442 79.9935 19.5326 80.3159 18.8141 80.6247C18.5044 80.7444 18.207 80.8932 17.9259 81.069C17.7615 81.1958 17.5879 81.3105 17.4065 81.4121C16.8386 81.6796 17.2827 82.503 17.8393 82.3658V82.3726Z" fill="#31348B"/>
<path d="M29.5375 77.5154C29.4865 77.3172 29.4821 77.1346 29.3722 76.951C29.2415 76.7332 29.0666 76.5307 28.9168 76.3249C28.4433 75.6731 27.8278 75.107 27.272 74.5238C26.1077 73.2887 24.9442 72.0528 23.7694 70.8264C23.315 70.3521 22.8466 69.7114 22.1974 69.5021C21.5481 69.2928 20.8737 70.0167 21.1005 70.6428C21.3014 71.1977 21.8355 71.606 22.2424 72.0151C22.7999 72.5731 23.3539 73.1341 23.9045 73.6978C24.5226 74.3268 25.1393 74.9578 25.7545 75.5907C26.3025 76.1517 26.8262 76.764 27.4114 77.2864C27.6391 77.4896 27.8945 77.6723 28.1369 77.8593C28.3792 78.0463 28.6104 78.0994 28.8978 78.1801C29.3047 78.2941 29.6328 77.8893 29.5367 77.5154H29.5375Z" fill="#31348B"/>
<path d="M22.3328 71.7287L27.5945 77.277L18.7246 80.8518L22.3328 71.7287Z" fill="#31348B"/>
</svg>
