<svg width="82" height="82" viewBox="0 0 82 82" fill="none" xmlns="http://www.w3.org/2000/svg">
<path d="M0 41C0 18.3563 18.3563 0 41 0C63.6437 0 82 18.3563 82 41C82 63.6437 63.6437 82 41 82C18.3563 82 0 63.6437 0 41Z" fill="white"/>
<path d="M64.2096 42.6706C63.8773 40.0527 63.2301 37.5059 62.1957 35.0745C61.118 32.5381 59.8563 30.1117 57.7955 28.2016C55.776 26.3297 53.3712 25.5645 50.6595 25.8622C48.5258 26.0969 46.62 26.9738 44.8148 28.125C44.1972 28.519 43.4673 28.8364 42.7496 28.9599C41.835 29.118 40.8803 29.0587 39.9434 29.0643C38.9817 29.0774 38.0401 28.7889 37.2508 28.2392C36.1275 27.4636 34.9318 26.8349 33.6368 26.4075C31.2487 25.6195 28.8667 25.5201 26.531 26.5928C24.5616 27.4969 23.1196 29.0019 21.9678 30.7947C18.9275 35.5377 17.5831 40.7895 17.4466 46.368C17.4071 48.0064 17.5491 49.6571 17.7257 51.29C17.8388 52.3279 18.0704 53.3495 18.4162 54.3346C19.3283 56.9247 22.1691 57.6522 24.175 56.2225C24.9161 55.6964 25.6813 55.1838 26.3217 54.5495C27.9274 52.958 29.4799 51.3079 31.0368 49.6658C31.7415 48.9247 32.5635 48.5048 33.6016 48.506C38.5323 48.5113 43.4631 48.5113 48.3942 48.506C49.3762 48.506 50.1741 48.9043 50.838 49.6176C52.1633 51.0349 53.4688 52.4714 54.8342 53.8492C55.8644 54.888 56.9741 55.8526 58.2926 56.527C59.6266 57.2063 60.9192 57.0451 62.1314 56.2238C62.959 55.663 63.4123 54.8157 63.6852 53.8825C64.3386 51.6476 64.4313 49.3403 64.535 46.6848C64.4479 45.5775 64.3905 44.1151 64.2096 42.6706ZM36.204 38.4236C36.2133 38.8021 36.0743 38.8911 35.7236 38.8824C34.859 38.862 33.9981 38.8892 33.1359 38.8719C32.7981 38.8651 32.6715 38.9707 32.6789 39.3197C32.6969 40.2127 32.6734 41.1069 32.687 41.9999C32.6919 42.3038 32.5857 42.4056 32.2862 42.3951C31.7631 42.3766 31.2394 42.3902 30.7157 42.3902C30.2216 42.3902 29.7276 42.3748 29.2372 42.3958C28.9192 42.4094 28.8049 42.3037 28.8086 41.9783C28.8247 41.1007 28.7975 40.2219 28.8185 39.3444C28.8272 38.9794 28.7061 38.8583 28.3424 38.8676C27.4648 38.8886 26.586 38.8676 25.7084 38.8806C25.4114 38.8855 25.2978 38.7842 25.3015 38.4822C25.312 37.4812 25.3126 36.4795 25.2971 35.4784C25.2922 35.1356 25.4281 35.0109 25.7597 35.0146C26.6243 35.0257 27.4852 35.0066 28.3467 35.0282C28.7104 35.0374 28.8321 34.9182 28.8216 34.5502C28.7969 33.6856 28.8216 32.8247 28.8062 31.9626C28.7981 31.618 28.9297 31.4963 29.2619 31.5C30.2628 31.5115 31.2639 31.5132 32.2652 31.5049C32.5857 31.5019 32.6975 31.6328 32.6894 31.9477C32.6746 32.7944 32.7006 33.643 32.6746 34.489C32.6629 34.8849 32.7728 35.0387 33.1909 35.0251C34.0376 34.9985 34.8849 35.03 35.7322 35.0183C36.0904 35.0133 36.2139 35.1498 36.2059 35.5123C36.1849 36.4825 36.1806 37.4534 36.204 38.4236ZM50.1654 43.2153C48.745 43.2289 47.5099 42.0345 47.4975 40.6301C47.4821 39.1856 48.6808 37.9746 50.1315 37.9672C51.5482 37.9616 52.7351 39.1566 52.7444 40.5974C52.753 41.9913 51.5593 43.2023 50.1654 43.2153ZM50.116 36.1861C48.7073 36.1738 47.487 34.9429 47.4969 33.5448C47.5068 32.133 48.7246 30.9294 50.1382 30.9343C51.5673 30.9399 52.7469 32.1293 52.7469 33.5645C52.7469 34.9744 51.5185 36.1985 50.116 36.1861ZM56.4677 39.9533C55.0516 39.9842 53.8776 38.7404 53.8801 37.3045C53.8826 35.8687 55.0677 34.7225 56.5239 34.7293C57.9406 34.7361 59.1529 35.9156 59.1177 37.315C59.0837 38.799 58.0339 39.9175 56.4677 39.9533Z" fill="#31348B"/>
<path d="M52.745 40.597C52.7537 41.9897 51.5599 43.2019 50.1661 43.2149C48.7457 43.2285 47.5105 42.0341 47.4982 40.6298C47.4828 39.1853 48.6815 37.9742 50.1321 37.9668C51.55 37.9613 52.7358 39.1563 52.745 40.597Z" fill="#FAB500"/>
<path d="M52.7471 33.5648C52.7471 34.9747 51.5187 36.1987 50.1162 36.1864C48.7137 36.174 47.4872 34.9432 47.4971 33.5451C47.507 32.1333 48.7249 30.9296 50.1385 30.9346C51.5675 30.9401 52.7471 32.1296 52.7471 33.5648Z" fill="#FAB500"/>
<path d="M59.118 37.3134C59.084 38.7993 58.0342 39.9177 56.468 39.9535C55.0519 39.9844 53.8779 38.7406 53.8804 37.3048C53.8828 35.8689 55.068 34.7227 56.5242 34.7295C57.9409 34.7345 59.1532 35.914 59.118 37.3134Z" fill="#FAB500"/>
</svg>
