<svg width="100" height="100" viewBox="0 0 100 100" fill="none" xmlns="http://www.w3.org/2000/svg">
<path d="M48.9905 35.9316C48.9689 35.9552 48.9488 35.9801 48.9306 36.0064C48.8784 36.0933 49.0862 35.8847 49.0783 35.8916C48.9219 36.0238 48.7793 36.129 48.6793 36.3107C48.5793 36.4924 48.5698 36.6767 48.5376 36.8905C48.5376 36.9114 48.5915 36.5428 48.5585 36.7036C48.5454 36.7662 48.5394 36.8297 48.5289 36.8923C48.4698 37.2652 48.3907 37.6347 48.389 38.0137C48.389 38.7509 48.3942 39.4916 48.389 40.2253C48.3803 42.2778 48.3568 44.3277 48.3724 46.3803C48.4124 51.3448 48.4316 56.3099 48.4298 61.2756C48.4298 63.6385 48.415 66.0007 48.3855 68.3625C48.375 69.1596 49.1453 69.9021 49.9433 69.8464C50.7744 69.789 51.4386 69.1414 51.4273 68.2886C51.3656 63.7315 51.3769 59.1744 51.3621 54.6173C51.3482 50.0098 51.3621 45.4023 51.1813 40.8C51.1474 39.9306 51.1117 39.0543 51.0665 38.1824C51.04 37.7645 50.9731 37.3502 50.8666 36.9453C50.8492 36.8731 50.8335 36.801 50.8135 36.7297C50.7171 36.382 50.9335 37.12 50.7927 36.6827C50.7457 36.5376 50.731 36.3985 50.6466 36.262C50.5741 36.1341 50.4703 36.0267 50.345 35.9499C50.1711 35.8212 50.1876 35.8351 50.391 35.9899C50.3573 35.964 50.3261 35.9349 50.298 35.9029C49.9616 35.5778 49.2983 35.5439 48.9879 35.9351L48.9905 35.9316Z" fill="#323789"/>
<path d="M50.3805 37.9588C50.6048 37.778 50.8665 37.6276 51.0708 37.4242C51.2751 37.2208 51.4611 36.973 51.6706 36.7617C52.0644 36.3653 52.4861 35.9967 52.9146 35.6386C53.0016 35.5629 53.0972 35.4882 53.1885 35.4125C53.3693 35.2639 53.1137 35.4725 53.285 35.3334C53.5075 35.1535 53.731 34.9752 53.95 34.7909C54.1082 34.6579 54.2639 34.5223 54.4229 34.3902C54.2873 34.5023 54.5047 34.3258 54.5455 34.2945C54.6487 34.214 54.753 34.1343 54.8585 34.0555C55.2358 33.7738 55.625 33.5101 56.026 33.2644C56.2216 33.1453 56.4198 33.0314 56.6233 32.9262C56.7163 32.8784 56.8102 32.8306 56.9049 32.7845L57.0475 32.7158C57.0666 32.7063 57.264 32.615 57.1475 32.668C57.0518 32.7123 57.3022 32.6011 57.3465 32.5811C57.4448 32.5393 57.543 32.4985 57.6413 32.4594C57.8751 32.3646 58.1116 32.2768 58.3498 32.1925C58.8131 32.0299 59.2834 31.8847 59.7572 31.7526C60.8265 31.4544 61.9123 31.2188 63.0008 30.9989C63.3195 30.9345 63.6383 30.8714 63.957 30.8094C64.0935 30.7833 64.2309 30.7581 64.3674 30.7302C64.6116 30.6807 64.0839 30.7633 64.2804 30.7433C64.5864 30.7129 64.889 30.6772 65.1985 30.6564C66.9563 30.5486 68.7271 30.5998 70.4858 30.6624C71.4873 30.6981 72.4853 30.7676 73.4885 30.8085C73.8858 30.825 74.2866 30.8415 74.6838 30.8424C74.943 30.8492 75.1999 30.7929 75.4325 30.6784C75.6651 30.5639 75.8665 30.3947 76.0192 30.1852C76.2739 29.8531 76.3113 29.5184 76.127 29.142C75.8931 28.6673 75.4836 28.3109 74.9386 28.2509C74.5543 28.2086 74.1692 28.1695 73.7832 28.1335C72.9069 28.0535 72.0202 28.0466 71.1395 28.0301C69.267 27.9901 67.3857 27.9718 65.5158 28.0944C63.5258 28.2248 61.5481 28.7386 59.6347 29.2741C57.6899 29.8183 55.8096 30.5868 54.1082 31.69C53.6353 31.9977 53.1798 32.3324 52.7382 32.6854L52.526 32.8593C52.5417 32.8471 52.1827 33.1305 52.3765 32.981L52.2374 33.0879C52.0305 33.2479 51.8219 33.407 51.615 33.5678C51.0647 33.9955 50.5187 34.4328 50.0067 34.9066C49.7674 35.1226 49.5404 35.3518 49.3269 35.5933C49.0287 35.9411 48.8722 36.3323 48.7435 36.7635C48.4888 37.6154 49.6242 38.5656 50.3796 37.9588H50.3805Z" fill="#323789"/>
<path d="M78.5875 62.5136C78.2224 61.8268 77.4096 61.3887 76.728 61.0635C75.8456 60.6419 74.8155 60.4394 73.8653 60.2255C72.1476 59.8335 70.3992 59.5915 68.6397 59.5022C63.8862 59.2939 59.1594 60.3165 54.9171 62.471C53.8087 63.0404 52.8394 63.775 51.8301 64.4992C50.6304 65.3546 49.1125 66.1509 48.5144 67.5549C48.244 68.1904 48.2449 68.9832 48.8108 69.4779C49.0706 69.7122 49.398 69.8579 49.746 69.8942C50.0939 69.9304 50.4444 69.8553 50.7469 69.6796C51.0918 69.4964 51.4154 69.2757 51.7118 69.0215C51.8095 68.9182 51.9159 68.8237 52.03 68.7389C51.6666 68.958 52.0413 68.7311 52.1091 68.6798C52.5542 68.3425 53.0211 68.0374 53.4809 67.7235C54.3642 67.115 55.2083 66.4578 56.1263 65.9032C56.5361 65.6557 56.956 65.4273 57.386 65.2181C57.5077 65.159 57.6303 65.0929 57.7564 65.0442C57.3391 65.2086 57.792 65.0303 57.8572 65.0025C58.1745 64.8669 58.4944 64.7417 58.8135 64.6139C59.9742 64.1632 61.1624 63.7866 62.3708 63.4864C62.8803 63.3618 63.3929 63.252 63.9087 63.1569C64.0426 63.1326 64.1791 63.0995 64.3138 63.0856C63.8661 63.1317 64.3138 63.0856 64.3938 63.0752C64.6546 63.0378 64.9154 63.0039 65.1762 62.9744C66.1151 62.8685 67.0593 62.8159 68.0042 62.817C68.8309 62.817 69.6559 62.8596 70.4809 62.9352C70.5686 62.9518 70.6577 62.9602 70.7469 62.9604C70.3905 62.9987 70.3801 62.917 70.5374 62.9387C70.7113 62.9622 70.8852 62.9822 71.0538 63.0065C71.4595 63.0645 71.862 63.1303 72.2613 63.2039C73.2176 63.3777 74.1626 63.5803 75.0928 63.8463C75.4909 63.9602 75.8934 64.0315 76.2942 64.1341C76.4237 64.168 77.0019 64.374 76.5133 64.1784C76.6619 64.2375 76.808 64.3053 76.9601 64.3523C77.2566 64.4392 76.6993 64.2288 76.8775 64.3114C78.0572 64.8565 79.2074 63.6716 78.5901 62.5127L78.5875 62.5136Z" fill="#323789"/>
<path d="M74.1314 28.7254L74.0192 28.8811L74.3957 28.4855C74.0479 28.695 73.961 28.9915 73.8419 29.3505C73.6941 29.7852 73.8819 29.0601 73.8419 29.3662L73.7897 29.7643C73.7312 30.1547 73.7056 30.5493 73.7132 30.944C73.7445 31.7554 73.7735 32.5682 73.8001 33.3825C73.881 35.5602 73.974 37.7336 74.1035 39.9087C74.4113 45.0639 74.7269 50.2191 75.0911 55.3699C75.2554 57.6919 75.4084 60.0148 75.5927 62.3351C75.6562 63.1271 76.2995 63.8773 77.1515 63.8182C77.9191 63.7652 78.725 63.1079 78.6346 62.2603C78.1434 57.6215 77.8678 52.9584 77.5714 48.3091C77.2593 43.4156 77.0019 38.5195 76.6099 33.632C76.5363 32.7047 76.4618 31.7774 76.3865 30.8501C76.3471 30.4121 76.2694 29.9784 76.1543 29.5539C76.137 29.4861 76.1213 29.4174 76.1022 29.3505C75.9961 28.9836 76.2517 29.7104 76.0778 29.2957C75.9753 29.0515 75.9605 28.8506 75.7484 28.6489L75.5128 28.4751C75.6774 28.6142 75.7304 28.6539 75.6719 28.5942C75.6466 28.5864 75.6014 28.5203 75.5849 28.4994C75.1285 28.023 74.4643 28.2682 74.134 28.7228L74.1314 28.7254Z" fill="#323789"/>
<path d="M50.6057 36.8496C50.5057 36.5167 50.3884 36.182 50.1754 35.9055C49.9693 35.6483 49.7451 35.4063 49.5043 35.1814C49.1 34.791 48.6688 34.4302 48.2298 34.0816C47.4474 33.4566 46.6563 32.8246 45.8409 32.2378C44.2143 31.0659 42.3817 30.2287 40.4718 29.6349C39.3842 29.2959 38.275 29.0264 37.1639 28.776C36.2285 28.5648 35.3131 28.3683 34.3577 28.2788C32.5573 28.1119 30.7352 28.131 28.9287 28.1562C27.9115 28.171 26.8866 28.1762 25.8703 28.2431C25.46 28.2701 25.0479 28.3118 24.6402 28.3605C23.9917 28.437 23.5005 28.7308 23.2145 29.3168C23.0893 29.5776 23.0476 29.9357 23.2353 30.18C23.5074 30.5338 23.7813 30.8555 24.2499 30.9494C24.6611 31.032 25.1192 30.9676 25.5356 30.9572C26.378 30.9372 27.2187 30.8703 28.0567 30.8364C29.8945 30.7564 31.7401 30.6999 33.5788 30.7651C33.9213 30.7773 34.263 30.7938 34.6046 30.8233C34.6655 30.8277 34.9393 30.8868 34.715 30.8312C34.4907 30.7755 34.715 30.8312 34.7706 30.8399C34.9254 30.8616 35.0784 30.8885 35.2323 30.9181C36.4198 31.1459 37.6073 31.3832 38.7818 31.6744C39.2817 31.7987 39.7798 31.9352 40.2718 32.0839C40.4869 32.15 40.7001 32.2189 40.9117 32.2908C41.0151 32.3264 41.1186 32.3629 41.2212 32.4003C41.2933 32.4255 41.6393 32.5577 41.4394 32.4786C42.2787 32.8062 43.0814 33.2208 43.8344 33.7156C43.9552 33.7956 44.0744 33.8782 44.1934 33.9608L44.3282 34.0564C44.2274 33.9843 44.2865 34.0243 44.3517 34.0738C44.5638 34.2346 44.7733 34.3981 44.9785 34.5676C45.3479 34.8719 45.7122 35.1814 46.0834 35.4839C46.5502 35.8647 47.0127 36.2515 47.45 36.6662C47.6865 36.8896 47.916 37.1209 48.1307 37.3617C48.2219 37.4735 48.3212 37.5784 48.428 37.6755C48.5219 37.7546 48.6297 37.8207 48.7279 37.8937C48.8922 38.0154 48.5228 37.7303 48.801 37.9528C49.1843 38.2597 49.6912 38.3623 50.1302 38.091C50.3323 37.9615 50.4873 37.7703 50.5723 37.5458C50.6574 37.3213 50.6678 37.0753 50.6022 36.8444L50.6057 36.8496Z" fill="#323789"/>
<path d="M22.5434 64.4195C22.0731 64.6377 22.4643 64.4734 22.5834 64.4308C22.7173 64.383 22.8494 64.3352 22.9868 64.2961C23.3345 64.1953 23.7014 64.1492 24.0517 64.0518C24.8715 63.824 25.6904 63.6171 26.525 63.4433C26.918 63.3642 27.3126 63.2946 27.7082 63.2259C28.0759 63.1625 27.3161 63.2842 27.6743 63.2312L27.9577 63.1894C28.142 63.1633 28.3263 63.1381 28.5115 63.1173C29.2817 63.0303 30.058 62.979 30.8335 62.9599C31.7287 62.9373 32.6246 62.9625 33.5171 63.0356L33.8927 63.0695C34.3274 63.1068 33.5102 63.019 33.9492 63.0747C34.1665 63.1025 34.3839 63.1294 34.5995 63.1616C35.168 63.2433 35.734 63.3459 36.2956 63.4659C37.4728 63.7208 38.6325 64.0506 39.7677 64.4534C40.0285 64.5465 40.2893 64.6438 40.5501 64.7421C41.0717 64.9377 40.2737 64.6221 40.7466 64.8203C40.8848 64.8777 41.0239 64.9342 41.1613 64.9942C41.6637 65.2089 42.1584 65.4419 42.6391 65.701C43.1355 65.9687 43.6137 66.266 44.0822 66.5799C44.35 66.7601 44.6152 66.9438 44.8777 67.131C45.2759 67.4153 44.5786 66.9085 44.9855 67.2101C45.188 67.3605 45.3923 67.5109 45.594 67.657C46.093 68.0099 46.6155 68.3316 47.1032 68.7002C46.7459 68.4307 47.118 68.7184 47.1745 68.7637C47.3205 68.881 47.464 69.001 47.6022 69.127C47.9331 69.4103 48.2943 69.6561 48.6793 69.8599C49.2348 70.1781 49.959 70.0859 50.4441 69.6921C50.8953 69.3252 51.2204 68.5837 50.9735 68.0038C50.7805 67.5509 50.6136 67.1041 50.2702 66.7416C50.0723 66.5391 49.8612 66.3501 49.6382 66.1756C49.0905 65.7288 48.5081 65.328 47.9239 64.9246L47.5709 64.6786C47.5222 64.6447 47.1276 64.3552 47.4622 64.6047C47.1423 64.3665 46.8233 64.1257 46.4999 63.891C46.0318 63.5475 45.5464 63.2283 45.0455 62.9347C42.8626 61.6724 40.3571 60.8431 37.9056 60.291C34.0083 59.4121 30.0319 59.4321 26.1277 60.2302C25.1202 60.4362 24.0969 60.6649 23.1233 60.9978C22.2652 61.2943 21.1777 61.8785 20.7387 62.7052C20.6064 62.9549 20.5582 63.2406 20.6013 63.5198C20.6444 63.7991 20.7764 64.057 20.9777 64.2552C21.4228 64.6795 22.0131 64.6612 22.5373 64.4178L22.5434 64.4195Z" fill="#323789"/>
<path d="M23.7483 28.6719C23.7222 28.6979 23.6953 28.724 23.6718 28.7518C23.5996 28.8344 23.717 28.6971 23.7222 28.7118L23.8004 28.644C23.6333 28.7467 23.4958 28.8911 23.4014 29.0631C23.304 29.2369 23.2684 29.4525 23.218 29.6455C23.1107 30.0238 23.0365 30.4106 22.9963 30.8017C22.9302 31.5842 22.8702 32.3587 22.8077 33.1368C22.6338 35.3188 22.4599 37.4983 22.333 39.6838C22.0218 44.9086 21.7027 50.1342 21.3341 55.3555C21.1672 57.7322 20.9777 60.1055 20.7256 62.4754C20.6386 63.2699 21.5375 64.0106 22.2843 63.9585C23.178 63.8967 23.6996 63.2534 23.7674 62.4006C24.1308 57.8487 24.4264 53.289 24.7185 48.7311C25.0288 43.8697 25.3548 39.0075 25.5348 34.1391C25.5696 33.1985 25.6046 32.2576 25.64 31.3164C25.6478 31.1234 25.6608 30.9295 25.6626 30.7365C25.6626 30.5627 25.6052 29.8907 25.6504 30.4757C25.6435 30.3888 25.6287 30.3106 25.6174 30.228C25.5365 29.6107 25.5304 28.9648 24.9219 28.604L25.3174 28.9805L25.2053 28.8283C24.8576 28.3511 24.1856 28.2198 23.7457 28.6762L23.7483 28.6719Z" fill="#323789"/>
<path d="M74.9312 35.0192C75.5693 35.4295 76.3221 35.4904 77.0541 35.5747C77.8365 35.6616 78.6242 35.7608 79.4135 35.8112C80.3463 35.8703 81.2139 34.8879 81.1522 33.9856C81.0844 33.0084 80.3263 32.2382 79.3266 32.2469C78.6363 32.253 77.9504 32.2973 77.261 32.3399C76.4265 32.3912 75.6249 32.4355 74.879 32.8615C74.0097 33.3544 74.1836 34.5376 74.9321 35.0209L74.9312 35.0192Z" fill="#323789"/>
<path d="M79.1441 32.8593C79.0737 32.9593 78.9129 33.2479 79.1502 32.8497C79.0415 33.0332 78.9216 33.1514 78.8694 33.3609L78.8364 33.6652C78.8163 34.107 78.9689 34.5394 79.2619 34.8707C79.555 35.202 79.9654 35.4064 80.4064 35.4405C80.8474 35.4746 81.2844 35.3357 81.6248 35.0534C81.9653 34.771 82.1826 34.3673 82.2306 33.9276C82.2787 33.4879 82.1538 33.0467 81.8824 32.6974C81.6109 32.3482 81.2143 32.1182 80.7763 32.0563C80.3384 31.9943 79.8935 32.1051 79.5358 32.3653C79.1781 32.6255 78.9357 33.0147 78.8598 33.4504C78.8485 33.5209 78.8425 33.593 78.8338 33.6634C78.7859 34.039 78.7112 34.4285 78.7129 34.8049C78.7129 35.6047 78.7746 36.4079 78.8051 37.2069C78.892 39.4498 78.9789 41.6901 79.112 43.9312C79.4336 49.3081 79.7622 54.685 80.1404 60.0584C80.309 62.4508 80.4655 64.8398 80.6568 67.2348C80.7202 68.0268 81.3636 68.7779 82.2155 68.7188C82.9831 68.6649 83.7882 68.0077 83.6986 67.1601C83.1979 62.4204 82.9162 57.659 82.6154 52.9028C82.2937 47.8659 82.026 42.8263 81.6244 37.7945C81.5484 36.8493 81.4728 35.9043 81.3975 34.9596C81.3539 34.5156 81.2725 34.0762 81.154 33.646C81.1019 33.4391 81.061 33.2201 80.948 33.0375C80.8427 32.8722 80.6985 32.7352 80.5281 32.6385C81.0688 32.9271 80.7107 32.8123 80.6898 32.7393C80.6802 32.7089 80.6168 32.6593 80.5951 32.6367C80.1526 32.156 79.4649 32.4072 79.1441 32.8602V32.8593Z" fill="#323789"/>
<path d="M83.0455 66.9987C82.7473 66.7205 82.4726 66.4423 82.0501 66.3571C81.7198 66.2901 81.3755 66.2632 81.0408 66.2145C80.0393 66.0619 79.0303 65.9635 78.0181 65.9198C76.9045 65.8781 75.7909 65.8103 74.6764 65.8259C73.3828 65.8439 72.0889 65.8604 70.7947 65.8755C68.1215 65.9059 65.4361 65.8555 62.7672 66.0137C61.4745 66.0911 60.1844 66.1963 58.8891 66.1728L55.5491 66.1111C54.5685 66.0928 53.5879 66.0632 52.6081 66.0589C51.6605 66.0537 50.6199 65.9155 49.8714 66.6318C49.3089 67.1699 49.3863 68.1366 49.921 68.6565C50.5773 69.2937 51.584 69.1903 52.429 69.1946C53.254 69.1946 54.0808 69.1859 54.9032 69.179L58.0989 69.152C59.3716 69.1407 60.62 69.1859 61.8936 69.2711C64.5659 69.4502 67.2391 69.465 69.9167 69.5024C72.3943 69.5363 74.872 69.6032 77.3444 69.4833C77.9077 69.4566 78.4708 69.4276 79.0335 69.3963C79.636 69.365 80.241 69.2294 80.8356 69.1268C81.2182 69.0608 81.6001 68.9935 81.9814 68.9251C82.4552 68.8382 82.7639 68.5409 83.0716 68.2053C83.2249 68.0393 83.3076 67.8202 83.302 67.5943C83.2965 67.3684 83.2033 67.1535 83.042 66.9952L83.0455 66.9987Z" fill="#323789"/>
<path d="M24.7732 32.8293C24.029 32.4051 23.1945 32.3903 22.3643 32.3399C21.6688 32.2981 20.9837 32.2529 20.2909 32.2468C19.3572 32.239 18.4879 33.1336 18.5522 34.0725C18.6165 35.0114 19.3807 35.8746 20.3778 35.8112C21.0689 35.7668 21.7548 35.6851 22.4434 35.6051C23.271 35.5095 24.1038 35.4539 24.8254 34.9888C25.0078 34.8713 25.1569 34.709 25.2584 34.5173C25.36 34.3256 25.4105 34.111 25.4052 33.8941C25.3999 33.6773 25.3389 33.4654 25.228 33.279C25.1172 33.0925 24.9603 32.9376 24.7723 32.8293H24.7732Z" fill="#323789"/>
<path d="M19.0772 32.6681C19.0503 32.6967 19.0216 32.7254 18.9964 32.755C18.8764 32.8993 19.0833 32.6967 19.1277 32.6681C18.7799 32.915 18.6539 33.2366 18.5548 33.6243C18.4493 33.9943 18.374 34.3723 18.3296 34.7545C18.2583 35.5473 18.2018 36.341 18.1384 37.1347C17.9593 39.3837 17.7828 41.6301 17.6489 43.8817C17.3273 49.2595 16.9986 54.6363 16.6205 60.0097C16.4466 62.423 16.2597 64.832 16.0059 67.2374C15.9189 68.032 16.817 68.7727 17.5637 68.7214C18.4583 68.6588 18.979 68.0155 19.0477 67.1627C19.425 62.4317 19.7301 57.6947 20.0335 52.962C20.3552 47.9198 20.6838 42.8837 20.8742 37.8354L20.9811 35.017C20.9874 34.6657 20.9644 34.3144 20.9124 33.9669C20.8855 33.753 20.882 33.5096 20.8255 33.3062L20.7038 33.0367C20.4957 32.7799 20.4583 32.7347 20.5916 32.901C20.6447 32.8871 20.6925 33.0532 20.6316 32.9463C20.6073 32.9019 20.5716 32.8593 20.5447 32.8193C20.2074 32.3429 19.5102 32.2108 19.0842 32.6681H19.0772Z" fill="#323789"/>
<path d="M16.6579 68.2381C16.9457 68.5493 17.2134 68.818 17.6533 68.9223C17.9837 69.0005 18.3271 69.044 18.6626 69.1022C19.6608 69.2812 20.6692 69.3973 21.6819 69.45C22.7946 69.5047 23.9082 69.5786 25.0236 69.5665C26.3172 69.5526 27.6111 69.5366 28.9052 69.5187C31.5776 69.483 34.2647 69.5187 36.9327 69.3387C38.2254 69.2518 39.5147 69.1353 40.8109 69.1474L44.1509 69.1761C45.1315 69.1848 46.1121 69.204 47.0919 69.1987C48.0351 69.1944 49.0914 69.3265 49.8286 68.6102C50.3849 68.0703 50.3206 67.1045 49.779 66.5855C49.1166 65.9509 48.1186 66.0561 47.2709 66.0639C46.4459 66.0639 45.6192 66.0891 44.7968 66.1039L41.6011 66.163C40.3284 66.1865 39.08 66.1526 37.8064 66.0761C35.1332 65.9152 32.4652 65.9152 29.7833 65.8857C27.3056 65.8587 24.828 65.7935 22.3556 65.89C21.3041 65.9169 20.2548 65.9996 19.2121 66.1378C18.8183 66.1952 18.4236 66.2525 18.0298 66.3064C17.5542 66.3716 17.1987 66.4977 16.8379 66.8281C16.7675 66.8933 16.6988 66.9602 16.6284 67.0254C16.2746 67.3549 16.3589 67.913 16.6579 68.2355V68.2381Z" fill="#323789"/>
<path d="M43.8536 67.5671C43.9249 68.0643 43.991 68.4764 44.3491 68.8658C44.5767 69.1067 44.8239 69.3283 45.0881 69.5283C45.8541 70.1468 46.7301 70.6149 47.67 70.9079C48.6328 71.2075 49.6454 71.313 50.6493 71.2183C51.6977 71.1061 52.6488 70.721 53.5329 70.1551C54.3353 69.643 55.2463 68.9545 55.2672 67.9113C55.2742 67.5636 55.1151 67.1037 54.8664 66.8681C54.6926 66.7055 54.4935 66.6342 54.2779 66.5595C54.1423 66.5117 54.6387 66.7003 54.5126 66.6516C54.1701 66.5204 53.9145 66.4343 53.5468 66.4925C53.1303 66.568 52.7293 66.7123 52.3601 66.9194C52.2993 66.9516 52.2367 66.9811 52.175 67.0124C51.8776 67.1628 52.2236 67.0376 52.2297 66.9898C52.2219 67.0481 51.7568 67.1724 51.6803 67.1976C51.3046 67.3112 50.9233 67.4055 50.538 67.4801C50.358 67.5201 50.1781 67.5671 49.999 67.6157C49.56 67.7296 50.2754 67.6027 49.9877 67.6201C49.8642 67.627 49.7408 67.6462 49.6174 67.6531C49.3453 67.6688 49.0784 67.6479 48.8063 67.6462C48.5342 67.6444 49.2192 67.7235 48.7715 67.6462C48.6559 67.6253 48.5402 67.6088 48.4237 67.5862C47.9707 67.4946 47.5229 67.3785 47.0824 67.2384C47.005 67.2141 46.9285 67.1863 46.8511 67.1611C46.4764 67.0402 47.1319 67.2923 46.7763 67.1341C46.6086 67.0602 46.4416 66.9855 46.2791 66.9003C46.0574 66.7855 45.8496 66.6516 45.6071 66.5795C45.6671 66.5977 44.6595 66.4778 45.1472 66.5386C44.5569 66.4656 43.7415 66.8316 43.8484 67.5818L43.8536 67.5671Z" fill="#323789"/>
<path d="M56.3979 31.6876C56.9464 32.0214 57.7506 31.5946 58.3104 31.4216C58.945 31.2234 59.5814 31.0217 60.2282 30.867C60.9341 30.6983 61.6643 30.5896 62.3807 30.474C62.6345 30.4332 63.0075 30.3871 63.3144 30.3671C63.822 30.3323 64.2593 30.454 64.7792 30.181C65.4555 29.822 65.3877 28.7527 64.7357 28.4163C64.2324 28.1555 63.7795 28.2833 63.3248 28.345C62.9005 28.4024 62.4789 28.478 62.0625 28.5736C61.3079 28.7475 60.5403 28.9214 59.8022 29.1517C59.1754 29.3439 58.5634 29.5908 57.9531 29.8307L56.9899 30.2106C56.6491 30.3454 56.3005 30.4462 56.1492 30.8191C56.0136 31.1504 56.0762 31.4937 56.4014 31.6885L56.3979 31.6876Z" fill="#E4032F"/>
<path d="M56.3489 30.5933C55.816 31.2141 56.1107 32.3451 56.2341 33.0744C56.3063 33.4987 56.3776 33.9229 56.4506 34.3472C56.4932 34.6019 56.5375 34.8566 56.581 35.1113C56.6018 35.2287 56.6036 35.2426 56.5871 35.1522L56.6131 35.3556C56.6288 35.4756 56.6453 35.5964 56.661 35.7164C56.9157 37.6515 57.1513 39.5936 57.5616 41.5036C57.6233 41.7922 57.9032 42.0156 58.1745 42.0869C58.2852 42.1167 58.4009 42.123 58.5142 42.1055C58.6276 42.088 58.736 42.047 58.8326 41.9852C59.0647 41.8244 59.2768 41.5366 59.2385 41.235C59.0003 39.3485 58.7943 37.4551 58.5839 35.5651C58.4813 34.6367 58.4344 33.703 58.3727 32.771C58.3446 32.3584 58.2947 31.9475 58.2231 31.5401C58.1362 31.0541 58.0667 30.7185 57.6146 30.3986C57.2564 30.1456 56.6279 30.2708 56.3506 30.5933H56.3489Z" fill="#E4032F"/>
<path d="M63.478 29.6964C63.5432 30.3919 63.6127 31.0735 63.7283 31.7637C63.8054 32.2274 63.8834 32.691 63.9622 33.1547C63.983 33.2807 64.0048 33.4077 64.0256 33.5346C64.0369 33.5989 64.0482 33.6632 64.0587 33.7276C64.043 33.6328 64.0439 33.6459 64.0587 33.7658C64.0917 34.0191 64.125 34.2727 64.1587 34.5265C64.4195 36.4877 64.6481 38.4611 65.0706 40.3954C65.2732 41.3265 66.8632 41.0909 66.745 40.1268C66.5111 38.229 66.2964 36.3278 66.0834 34.4274C65.9738 33.4555 65.9095 32.4818 65.8417 31.5064C65.8095 31.0448 65.7782 30.5927 65.7009 30.1363C65.6765 29.9929 65.6531 29.8503 65.6287 29.7069C65.6087 29.5938 65.5418 29.1661 65.6139 29.6434C65.527 29.0731 65.1514 28.5845 64.5186 28.6002C63.9709 28.6141 63.4214 29.1218 63.4753 29.6964H63.478Z" fill="#E4032F"/>
<path d="M61.4723 38.7599C61.6313 39.0867 62.0704 39.3441 62.3842 39.5101C62.7258 39.6909 63.0797 39.8579 63.4274 40.0195C63.7751 40.1812 64.1411 40.3412 64.5019 40.4951C64.9444 40.6829 65.4391 40.9819 65.9268 40.9567C66.0402 40.9503 66.1494 40.9113 66.2412 40.8444C66.333 40.7775 66.4036 40.6856 66.4444 40.5796C66.4852 40.4736 66.4946 40.358 66.4714 40.2468C66.4482 40.1356 66.3934 40.0334 66.3136 39.9526C66.0172 39.6353 65.5312 39.5179 65.1339 39.3502C64.7531 39.1885 64.3764 39.0207 64.0038 38.8468C63.6726 38.6929 63.3457 38.5295 63.0197 38.3652C62.6937 38.2009 62.2555 37.974 61.8791 38.0175C61.5027 38.0609 61.308 38.4139 61.4757 38.7607L61.4723 38.7599Z" fill="#E4032F"/>
<path d="M61.7462 38.0371C60.9638 38.1788 60.2683 39.049 59.7076 39.5636C59.3964 39.8505 59.0843 40.1391 58.7679 40.4208C58.4679 40.6894 58.0585 40.9346 57.8933 41.3093C57.6838 41.7848 58.0576 42.2655 58.5714 42.1482C58.9782 42.0612 59.2921 41.697 59.5972 41.4275C59.9345 41.1293 60.2649 40.8242 60.5961 40.519C61.1977 39.9653 62.0601 39.4037 62.36 38.6221C62.5095 38.2335 62.0618 37.9805 61.7462 38.0371Z" fill="#E4032F"/>
<path d="M57.5098 31.4229L58.8512 41.2152L61.8869 38.123L65.2156 39.44L63.9785 29.5347L57.5098 31.4229Z" fill="#E4032F"/>
</svg>
