<svg width="82" height="82" viewBox="0 0 82 82" fill="none" xmlns="http://www.w3.org/2000/svg">
<path d="M0 41C0 18.3563 18.3563 0 41 0C63.6437 0 82 18.3563 82 41C82 63.6437 63.6437 82 41 82C18.3563 82 0 63.6437 0 41Z" fill="white"/>
<path d="M40.9662 27.0761C40.9667 27.0717 40.9667 27.0673 40.9662 27.0629C40.9654 27.0457 40.9598 27.0291 40.9502 27.0148C40.9449 27.0048 40.9375 26.996 40.9286 26.989C40.9196 26.982 40.9093 26.977 40.8983 26.9742C40.7082 26.9407 40.5154 26.9237 40.3223 26.9233C40.0772 26.9092 39.8312 26.8903 39.5861 26.8847C38.9758 26.8702 38.3665 26.8574 37.7581 26.846C36.4289 26.8206 35.0988 26.8121 33.7686 26.8046H32.8466C32.6581 26.8046 32.4695 26.7951 32.281 26.797C32.2518 26.732 32.2216 26.6669 32.1914 26.6009L32.1641 26.5425L32.1386 26.484L32.0576 26.3002C31.9388 26.0287 31.8209 25.7569 31.704 25.4848C31.4156 24.8148 31.1302 24.1433 30.848 23.4702C30.2604 22.0762 29.6706 20.6832 29.0786 19.2911C28.9522 18.9951 28.8174 18.7038 28.6836 18.4116C28.5985 18.1944 28.4967 17.9842 28.3791 17.7828C28.3681 17.7635 28.3502 17.7491 28.3289 17.7428C28.3076 17.7365 28.2847 17.7387 28.265 17.7488C28.2463 17.7563 28.2304 17.7695 28.2198 17.7866C28.1178 17.9611 28.029 18.1429 27.9539 18.3305C27.8408 18.5775 27.7239 18.8235 27.6155 19.0734C27.3383 19.7163 27.0678 20.363 26.7925 21.0078C26.1929 22.4172 25.6056 23.8312 25.0013 25.2397C24.7845 25.745 24.5441 26.2446 24.3358 26.7537C24.1727 26.7537 24.0087 26.7593 23.8465 26.7593H23.0358C22.3985 26.7593 21.7606 26.7637 21.1221 26.7725C19.8173 26.7826 18.5126 26.8036 17.2079 26.8357C16.9251 26.8423 16.6423 26.8583 16.3595 26.8734C16.1361 26.8736 15.9131 26.8928 15.693 26.9309C15.6698 26.9389 15.6507 26.9555 15.6396 26.9773C15.6285 26.9991 15.6264 27.0244 15.6336 27.0478C15.6309 27.0624 15.6315 27.0773 15.6353 27.0917C15.639 27.106 15.6458 27.1193 15.6553 27.1307C15.7889 27.2762 15.9339 27.4108 16.0889 27.5333C16.2775 27.7049 16.4735 27.8802 16.6715 28.0461C17.1759 28.4685 17.6812 28.888 18.1855 29.3103C19.2828 30.2266 20.3886 31.1344 21.485 32.0536C21.7364 32.2641 21.9878 32.4756 22.2392 32.688C22.3928 32.8191 22.5418 32.9577 22.6973 33.0878C22.6351 33.2763 22.5852 33.4705 22.5295 33.659C22.4437 33.9475 22.3598 34.236 22.2759 34.5254C22.0874 35.1872 21.8989 35.8502 21.7103 36.5145C21.3445 37.8287 20.9926 39.1466 20.6545 40.4683C20.5828 40.7454 20.5225 41.0254 20.4603 41.3045C20.4058 41.5023 20.3661 41.704 20.3415 41.9078C20.3406 41.9144 20.3406 41.921 20.3415 41.9276C20.3415 41.9276 20.3415 41.9276 20.3415 41.9323C20.3422 41.9464 20.3461 41.9602 20.3529 41.9726C20.3597 41.985 20.3692 41.9957 20.3807 42.004C20.3922 42.0122 20.4054 42.0178 20.4194 42.0202C20.4333 42.0227 20.4476 42.0219 20.4612 42.0181H20.4706C20.6481 41.9408 20.8187 41.8487 20.9807 41.7428C21.2022 41.6118 21.4275 41.4836 21.6406 41.3459C22.1911 40.9981 22.7369 40.6408 23.2837 40.2863C24.481 39.5114 25.6688 38.7214 26.8726 37.9559C27.1466 37.7812 27.4222 37.609 27.6994 37.4393C27.8757 37.3309 28.0586 37.23 28.2358 37.1226C28.6261 37.3686 29.0324 37.5939 29.4236 37.839C30.0043 38.201 30.5819 38.5674 31.1563 38.9382C32.3504 39.7037 33.5445 40.467 34.7386 41.2281C34.9969 41.3912 35.26 41.5458 35.5239 41.6994C35.7046 41.8165 35.8937 41.9201 36.0895 42.0096C36.1095 42.0226 36.1335 42.0276 36.157 42.0235C36.1804 42.0195 36.2014 42.0068 36.2159 41.9879C36.2297 41.972 36.2368 41.9514 36.2357 41.9304C36.2316 41.8611 36.2228 41.7921 36.2093 41.724C36.2083 41.7134 36.2064 41.703 36.2036 41.6929C36.1819 41.5892 36.1555 41.4873 36.1329 41.3855C36.1103 41.2837 36.0924 41.2055 36.0726 41.1159C36.0754 41.0915 36.0754 41.0668 36.0726 41.0424C36.0366 40.8177 35.9801 40.5968 35.9038 40.3825C35.7766 39.8678 35.6342 39.3559 35.4994 38.844C35.138 37.4733 34.7609 36.107 34.3681 34.745C34.282 34.4107 34.1893 34.0798 34.09 33.7524C34.025 33.5337 33.9675 33.3102 33.8958 33.0925C34.2475 32.8097 34.5821 32.4967 34.9281 32.2054C35.4466 31.7698 35.967 31.3359 36.4893 30.9035C37.5809 29.9979 38.671 29.0906 39.7595 28.1819C39.9924 27.9877 40.2196 27.7869 40.4458 27.5861C40.6191 27.4494 40.782 27.3 40.9332 27.1392C40.9433 27.1321 40.9516 27.1226 40.9573 27.1116C40.9631 27.1006 40.9661 27.0885 40.9662 27.0761ZM16.0191 27.1364H16.0606H16.0191Z" fill="#FAB500"/>
<path d="M41.4376 27.0691C41.4406 26.9697 41.4174 26.8712 41.3702 26.7837C41.323 26.6961 41.2536 26.6225 41.1689 26.5704C41.0049 26.4761 40.7984 26.4648 40.6137 26.4535C40.3308 26.4356 40.048 26.4205 39.7596 26.4073C39.16 26.3809 38.5576 26.379 37.958 26.3668C36.7325 26.3432 35.507 26.3319 34.2758 26.3243C33.6112 26.3243 32.9466 26.3055 32.2819 26.3102L32.6892 26.544C32.4328 25.9708 32.1814 25.3961 31.935 24.8198C31.6711 24.2023 31.4269 23.6234 31.1856 23.0503C30.6438 21.7663 30.1002 20.483 29.5547 19.2002C29.4246 18.8948 29.2888 18.5912 29.1512 18.2896C29.0239 18.0068 28.9249 17.6617 28.7128 17.4336C28.6236 17.3384 28.5041 17.277 28.3747 17.2598C28.2453 17.2426 28.114 17.2707 28.003 17.3393C27.8517 17.4582 27.7365 17.6168 27.6702 17.7975C27.537 18.0859 27.4056 18.3747 27.2761 18.6638C26.7105 19.9233 26.193 21.2035 25.6575 22.4752L25.2314 23.4877C25.1673 23.6385 25.2644 23.4085 25.2012 23.5593C25.1814 23.6055 25.1616 23.6536 25.1428 23.697C25.1041 23.7913 25.0645 23.8808 25.0259 23.9732L24.8119 24.4804C24.5083 25.194 24.1784 25.8945 23.8833 26.6128L24.3377 26.2668C23.0999 26.2583 21.8602 26.281 20.6225 26.2942C19.3847 26.3074 18.1469 26.3102 16.9119 26.363C16.6187 26.3752 16.3246 26.3884 16.0305 26.4045C15.8767 26.408 15.7237 26.4282 15.5742 26.4648C15.4361 26.5052 15.3185 26.5967 15.2455 26.7207C15.1724 26.8447 15.1494 26.9918 15.1811 27.1322C15.134 26.9616 15.1811 27.1615 15.1811 27.1888C15.1933 27.2434 15.2143 27.2956 15.2433 27.3434C15.2912 27.417 15.3471 27.485 15.4102 27.5461C15.5045 27.6404 15.6091 27.7261 15.7109 27.8138C15.9353 28.0024 16.153 28.2098 16.3802 28.4002C17.3299 29.1958 18.282 29.989 19.2367 30.7796C20.2859 31.6488 21.3238 32.5302 22.3646 33.4098L22.2439 32.9516C22.0554 33.537 21.8951 34.1357 21.7254 34.7277C21.5501 35.3405 21.3773 35.9545 21.2069 36.5698C20.8694 37.7884 20.5436 39.0101 20.2293 40.235C20.1539 40.5282 20.087 40.8242 20.021 41.1202C19.988 41.2673 19.9484 41.4125 19.9211 41.5605C19.89 41.7236 19.8466 41.9121 19.8947 42.0771C19.9348 42.2077 20.0209 42.3194 20.137 42.3915C20.2531 42.4636 20.3914 42.4912 20.5263 42.4693C20.593 42.465 20.6577 42.4446 20.7148 42.4099C20.6658 42.4325 20.5263 42.4938 20.7563 42.3938C20.8242 42.3637 20.8911 42.3307 20.9562 42.2939C21.2154 42.1487 21.4709 41.9932 21.7254 41.8386C22.8039 41.1843 23.8522 40.4717 24.908 39.7816C26.0902 39.0086 27.2752 38.244 28.4847 37.5191H28.0086C28.5281 37.8443 29.0607 38.1479 29.5792 38.474C30.1222 38.8162 30.6633 39.1632 31.2035 39.511C32.2763 40.2023 33.3504 40.8893 34.4257 41.5718C34.6849 41.7358 34.9479 41.8933 35.2128 42.0488C35.3335 42.1195 35.4523 42.194 35.5739 42.2638C35.7427 42.358 35.9369 42.4768 36.1339 42.4853C36.2601 42.4903 36.3844 42.4529 36.4869 42.3791C36.5894 42.3053 36.6642 42.1993 36.6995 42.078C36.7476 41.8961 36.6995 41.6934 36.6627 41.5124C36.6335 41.3795 36.6005 41.2475 36.5685 41.1146C36.5619 41.0854 36.5534 41.0552 36.5487 41.0203C36.5704 41.1485 36.5487 40.9609 36.5487 40.9647C36.5364 40.8696 36.5194 40.7752 36.4978 40.6819C36.4308 40.3906 36.3366 40.104 36.2612 39.8136C36.181 39.5091 36.099 39.2046 36.0179 38.9001C35.8548 38.2883 35.6927 37.6746 35.5249 37.0656C35.3363 36.3743 35.1434 35.683 34.9461 34.9916C34.7575 34.3129 34.569 33.6275 34.354 32.9563L34.2334 33.4154C34.7047 33.028 35.1582 32.617 35.6267 32.2257C36.0952 31.8345 36.5798 31.4301 37.0577 31.0341C38.0199 30.2347 38.9818 29.4343 39.9434 28.633C40.197 28.4209 40.4468 28.2069 40.6976 27.9882C40.9483 27.7695 41.3282 27.531 41.4282 27.1945C41.4446 27.1348 41.4492 27.0725 41.4416 27.011C41.4339 26.9496 41.4143 26.8903 41.3837 26.8364C41.3532 26.7826 41.3123 26.7353 41.2635 26.6973C41.2147 26.6592 41.1588 26.6311 41.0992 26.6147C41.0395 26.5982 40.9772 26.5937 40.9157 26.6013C40.8543 26.6089 40.795 26.6286 40.7411 26.6591C40.6873 26.6897 40.64 26.7305 40.602 26.7794C40.5639 26.8282 40.5359 26.884 40.5194 26.9437L40.51 26.9776L40.6306 26.7693C40.4416 26.9648 40.2414 27.1493 40.0311 27.3217C39.8086 27.5178 39.5852 27.712 39.357 27.9024L37.9345 29.0874C37.0021 29.8642 36.066 30.6372 35.1346 31.4159C34.6095 31.8543 34.0976 32.3153 33.5706 32.748C33.5106 32.8063 33.4676 32.8798 33.4462 32.9607C33.4247 33.0416 33.4257 33.1267 33.449 33.2071C33.6376 33.7727 33.7865 34.3553 33.9515 34.9294C34.1165 35.5035 34.2843 36.1003 34.4474 36.6867C34.7717 37.8575 35.0903 39.0293 35.3901 40.2058C35.4297 40.3614 35.4721 40.5141 35.5183 40.6677C35.5713 40.8097 35.6074 40.9575 35.6258 41.108C35.6201 41.0137 35.6182 41.0825 35.6173 41.1014C35.6207 41.1743 35.633 41.2465 35.654 41.3163C35.671 41.3908 35.687 41.4653 35.704 41.5397C35.721 41.6142 35.7427 41.7 35.7596 41.7811C35.7653 41.8056 35.7691 41.831 35.7747 41.8546C35.7804 41.8782 35.7804 41.882 35.7747 41.8329C35.7791 41.9498 35.8127 41.8942 35.8756 41.6661L36.0839 41.5445H36.2319C36.2668 41.5595 36.2696 41.5595 36.2395 41.5445C36.2093 41.5294 36.1838 41.5171 36.1565 41.503C36.0952 41.47 36.0349 41.4351 35.9755 41.3993C35.8498 41.3232 35.7213 41.2472 35.5899 41.1712C35.3316 41.0184 35.0758 40.8613 34.8226 40.6998C34.3091 40.3742 33.7963 40.0474 33.2841 39.7194C32.2593 39.0595 31.2374 38.3996 30.2089 37.751C29.6433 37.3927 29.0588 37.059 28.4904 36.7017C28.4181 36.6595 28.336 36.6372 28.2523 36.6372C28.1687 36.6372 28.0865 36.6595 28.0143 36.7017C25.9403 37.9518 23.9399 39.3074 21.9055 40.6149C21.6227 40.7978 21.3399 40.9798 21.0467 41.1504C20.9109 41.2305 20.7752 41.3097 20.6404 41.3908C20.5697 41.4332 20.4999 41.4756 20.4273 41.5143C20.4009 41.5284 20.3736 41.5407 20.3472 41.5539C20.3208 41.5671 20.3208 41.5671 20.3576 41.5539C20.1831 41.6227 20.2086 41.6199 20.432 41.5454L20.6705 41.6095C21.0325 41.7651 20.794 42.0526 20.8299 41.8782C20.8449 41.7999 20.8138 41.9423 20.8299 41.8631C20.8459 41.7839 20.8572 41.7236 20.8732 41.6538C20.9053 41.5152 20.9383 41.3767 20.9675 41.2371C21.0325 40.9468 21.1014 40.6583 21.1758 40.3698C21.3267 39.7898 21.4788 39.2106 21.6321 38.6324C21.9463 37.4616 22.2687 36.2939 22.5993 35.1293C22.7822 34.4882 22.9538 33.8415 23.1593 33.2071C23.1825 33.127 23.1836 33.042 23.1623 32.9613C23.1411 32.8806 23.0983 32.8072 23.0386 32.7489C21.1664 31.168 19.2829 29.6012 17.4021 28.0354C17.1363 27.8138 16.8714 27.5913 16.6131 27.3604C16.5 27.2598 16.3859 27.1602 16.2709 27.0615C16.2171 27.0153 16.1634 26.9673 16.1125 26.9192C16.088 26.8947 16.0654 26.8664 16.0399 26.8438C15.9771 26.7683 16.0019 26.8359 16.1144 27.0464C16.0899 26.8984 16.0899 26.8796 16.1144 26.9889L16.0503 27.2265L15.8712 27.3745L15.9155 27.366C15.8768 27.35 15.8721 27.366 15.9221 27.366C15.972 27.366 16.0418 27.3575 16.1021 27.3547C16.2407 27.3481 16.385 27.3434 16.5188 27.3359C16.801 27.3202 17.0838 27.3088 17.3673 27.3019C17.9272 27.29 18.4875 27.279 19.0481 27.2689C20.1794 27.2501 21.3106 27.2381 22.4419 27.2331C23.0763 27.2331 23.7117 27.2161 24.3462 27.2199C24.5743 27.2199 24.7233 27.0681 24.8006 26.8739C24.7949 26.8881 24.8562 26.741 24.8326 26.7957C24.8091 26.8504 24.8722 26.7014 24.8666 26.7184C24.8948 26.6505 24.9241 26.5836 24.9542 26.5176C25.0193 26.3686 25.0862 26.2206 25.1531 26.0726C25.2839 25.7823 25.4118 25.4903 25.5368 25.1968C25.7945 24.5929 26.0506 23.988 26.3051 23.3821C26.4308 23.0836 26.5565 22.7844 26.6822 22.4846C26.7105 22.4158 26.7397 22.347 26.769 22.2782L26.7888 22.232C26.7765 22.2603 26.7765 22.2593 26.7888 22.232L26.8368 22.117L27.032 21.6569C27.279 21.0737 27.5263 20.4905 27.7739 19.9073C27.9153 19.5745 28.0567 19.2427 28.2075 18.9146C28.2792 18.759 28.3527 18.6044 28.4215 18.4432C28.4498 18.3763 28.479 18.3103 28.5101 18.2443C28.5252 18.2123 28.5413 18.1793 28.5582 18.15L28.5893 18.0935C28.6704 17.9709 28.5893 18.0096 28.332 18.2094L28.0944 18.1444L28.0001 18.0501C28.0152 18.0746 28.0303 18.1001 28.0444 18.1255C28.0586 18.151 28.0718 18.1764 28.085 18.2028C28.117 18.2679 28.1472 18.3348 28.1793 18.4017C28.2405 18.5413 28.3018 18.6846 28.3678 18.8175C28.4985 19.1047 28.6261 19.3938 28.7505 19.6848C29.0107 20.2957 29.2703 20.9069 29.5292 21.5184L29.912 22.4234L30.1005 22.8646C30.1335 22.9419 30.1656 23.0201 30.1948 23.0974L30.2344 23.1917C30.208 23.1295 30.2598 23.2539 30.2645 23.2652C30.5294 23.8921 30.7934 24.52 31.0611 25.1459C31.3289 25.7719 31.6032 26.4045 31.8822 27.0314C31.923 27.1031 31.9823 27.1626 32.054 27.2036C32.1256 27.2446 32.207 27.2655 32.2895 27.2642C33.4076 27.2567 34.5284 27.2784 35.6465 27.2887C36.79 27.2982 37.9335 27.3189 39.0761 27.3443C39.3891 27.3509 39.7011 27.3566 40.0132 27.3755C40.163 27.3839 40.3139 27.3943 40.4647 27.4C40.5392 27.4 40.6137 27.4075 40.6881 27.4122C40.7306 27.4122 40.7456 27.3953 40.6957 27.4122L40.739 27.4198C40.592 27.0427 40.5137 26.9286 40.5024 27.0813C40.4807 27.3274 40.7353 27.5631 40.9738 27.5527C41.0986 27.5476 41.2166 27.4944 41.303 27.4042C41.3895 27.3141 41.4377 27.194 41.4376 27.0691Z" fill="#FAB500"/>
<path d="M60.5021 51.6937C60.4706 50.5109 60.1035 49.361 59.4428 48.3759C58.3085 46.6906 56.3886 45.4247 54.3806 45.0591C53.6511 44.9197 52.9026 44.9084 52.1692 45.0256C51.5307 45.1411 50.9105 45.3407 50.3252 45.6191C49.2238 46.126 48.231 46.9212 47.587 47.9527C47.4517 48.1693 47.3299 48.3939 47.2223 48.6252C47.1754 48.562 47.1286 48.4996 47.0798 48.4392C46.2361 47.3323 45.2321 46.3483 43.9741 45.7102C43.3451 45.3912 42.6617 45.1196 41.9623 45.0061C41.2276 44.8929 40.4793 44.8979 39.7462 45.021C38.2951 45.2526 36.9151 45.8451 35.8671 46.8812C34.7225 48.0151 33.9434 49.5293 33.606 51.0928C33.4718 51.7501 33.4402 52.4239 33.5122 53.0907C33.5703 53.7828 33.6854 54.4691 33.8563 55.1426C34.0438 55.869 34.3906 56.5508 34.7853 57.1888C35.1621 57.8067 35.6019 58.3845 36.0977 58.9133C37.0276 59.8918 38.1282 60.7261 39.2147 61.5251C39.809 61.9591 40.4134 62.382 41.0277 62.7937C41.5902 63.1658 42.177 63.5071 42.7507 63.868C44.2506 64.8093 45.6633 65.8687 47.0892 66.9104C47.3879 67.13 47.6885 67.347 47.991 67.5615C48.0348 67.5879 48.0852 67.6013 48.1363 67.6001C48.1875 67.599 48.2373 67.5833 48.2797 67.555C48.3547 67.5414 48.4229 67.5034 48.4738 67.4471C50.5063 65.2959 52.6945 63.2948 55.0209 61.4599C56.0933 60.6228 57.2248 59.7932 58.0929 58.7356C58.961 57.6781 59.7803 56.441 60.1084 55.1007C60.2542 54.5581 60.3656 54.007 60.4421 53.4507C60.5039 52.8672 60.524 52.28 60.5021 51.6937ZM48.1654 66.4342L48.1804 66.7077L48.1532 66.7356L48.1654 66.4342Z" fill="#E4032F"/>
<path d="M47.3146 37.1584C47.8652 37.3319 48.4459 37.3715 49.0256 37.3969C53.1199 37.5855 58.1257 37.5053 61.8664 37.1386L61.8315 37.066C61.7089 35.6397 61.774 26.3954 61.6872 23.094L61.6929 23.0337C62.1859 23.3316 63.3898 24.2243 63.9205 24.4581L63.9422 24.4685C64.2429 24.0188 64.6144 23.6201 64.9698 23.2156C65.6297 22.4615 66.3838 21.6649 66.9363 20.8306H67.0126C66.4593 20.1707 62.8732 16.8617 62.1426 16.2113H62.0728C61.2187 15.9963 60.3759 15.7512 59.5275 15.5061C58.9081 15.327 58.2642 15.0828 57.6421 14.9037L57.6609 14.998C57.61 15.9171 57.2499 17.0861 55.7698 17.6838C55.0458 17.976 54.0531 17.8431 53.7524 17.7366C53.2388 17.5542 52.7749 17.2543 52.3977 16.8608C52.1149 16.578 51.6718 15.8794 51.6718 14.8877L51.6445 14.9047C51.0251 15.0838 50.3813 15.3279 49.7591 15.5071C48.9106 15.7522 48.0678 15.9973 47.2138 16.2122H47.1449C46.4134 16.8599 42.8282 20.1716 42.2739 20.8315H42.3503C42.9018 21.6658 43.6588 22.4634 44.3168 23.2166C44.6722 23.6238 45.0436 24.0198 45.3443 24.4695L45.366 24.4591C45.893 24.2253 46.832 23.5428 47.3797 23.1836V23.2552C47.2929 26.5547 47.3646 35.6435 47.242 37.0698" fill="#31348B"/>
<path d="M47.2411 37.453C48.411 37.847 49.711 37.8235 50.9318 37.8734C52.1771 37.9253 53.4215 37.9422 54.6678 37.9319C57.0736 37.9111 59.4822 37.8216 61.8777 37.5944C62.2444 37.5595 62.4084 37.2173 62.2548 36.8987C62.1982 36.7789 62.2472 37.1164 62.2821 36.975C62.2838 36.9309 62.2812 36.8867 62.2746 36.843C62.2746 36.7129 62.2632 36.581 62.2585 36.4509C62.2491 36.12 62.2435 35.791 62.2378 35.4582C62.2246 34.507 62.2208 33.5548 62.2171 32.6036C62.2095 30.3572 62.2123 28.1116 62.1991 25.8651C62.1991 24.9337 62.0841 23.9476 62.1709 23.0209L61.461 23.4518C62.2105 23.9175 62.9005 24.5293 63.7094 24.8903C63.8227 24.9489 63.9541 24.962 64.0767 24.927C64.1994 24.8919 64.304 24.8114 64.3693 24.7018C65.2658 23.4112 66.4838 22.3742 67.369 21.0686L66.9514 21.3212H67.0287C67.4906 21.3212 67.6132 20.7782 67.3548 20.4728C66.2981 19.2331 64.9981 18.1537 63.8027 17.0507C63.3313 16.619 62.7601 15.8742 62.1341 15.7158C60.6625 15.3435 59.2249 14.857 57.7684 14.4243C57.379 14.3084 57.1085 14.7015 57.1754 15.0475C57.2555 15.4302 56.9388 16.0892 56.7107 16.4003C56.4858 16.6951 56.1972 16.9352 55.8665 17.1027C55.5357 17.2702 55.1714 17.3607 54.8007 17.3675C53.3367 17.4043 52.2064 16.3352 52.1705 14.8759C52.1672 14.7901 52.1415 14.7066 52.0962 14.6337C52.0508 14.5608 51.9872 14.501 51.9117 14.4601C51.8362 14.4192 51.7513 14.3987 51.6655 14.4005C51.5796 14.4023 51.4957 14.4265 51.422 14.4705C51.1816 14.611 50.7555 14.6742 50.4793 14.7647C50.0834 14.8966 49.6865 15.0201 49.2858 15.1361C48.5835 15.3388 47.8803 15.5367 47.1742 15.7234C46.5501 15.8874 45.9901 16.6058 45.5206 17.0432C44.314 18.1575 42.9979 19.2444 41.9289 20.4964C41.8654 20.5669 41.8237 20.6544 41.8088 20.7481C41.7939 20.8419 41.8065 20.938 41.8449 21.0247C41.8834 21.1115 41.9461 21.1853 42.0256 21.2373C42.1051 21.2892 42.1979 21.3171 42.2928 21.3175H42.3691L41.944 21.0865C42.8273 22.3931 44.0443 23.431 44.938 24.7235C45.0483 24.8819 45.2916 25.0214 45.4905 24.9328C46.2635 24.5877 46.9394 24.0589 47.6408 23.5941L46.9008 23.1935C46.8631 27.167 46.8744 31.1415 46.8357 35.115C46.8291 35.7655 46.8461 36.4264 46.7933 37.0759C46.7452 37.6566 47.6512 37.6302 47.6983 37.0542C47.818 35.5892 47.785 34.1063 47.7926 32.6376C47.8095 30.4137 47.8086 28.1899 47.8256 25.966C47.8322 25.0336 47.8548 24.1022 47.8642 23.1699C47.861 23.0853 47.8358 23.0031 47.7912 22.9312C47.7465 22.8593 47.6839 22.8003 47.6095 22.76C47.5351 22.7197 47.4515 22.6994 47.3669 22.7012C47.2823 22.703 47.1996 22.7268 47.127 22.7702C46.5058 23.1812 45.8685 23.7082 45.2048 24.0042L45.7573 24.2135C45.2331 23.4593 44.5807 22.7862 43.9727 22.0961C43.6559 21.737 43.342 21.374 43.0564 20.9885C42.8254 20.6774 42.6925 20.3446 42.2636 20.3446L42.6274 21.1657C43.3401 20.3323 44.198 19.6017 44.9965 18.8541C45.8242 18.0792 46.6519 17.3034 47.4994 16.5511L47.1572 16.7029C47.5041 16.7029 47.8755 16.5483 48.2083 16.4578C48.6608 16.3352 49.1124 16.2061 49.5639 16.0807C50.0155 15.9553 50.4765 15.8035 50.929 15.6527C51.2486 15.5462 51.637 15.4821 51.9283 15.3114L51.1798 14.9061C51.2288 16.9527 52.9087 18.4771 54.9506 18.3526C55.4577 18.3218 55.9517 18.179 56.397 17.9345C56.8423 17.69 57.2279 17.3499 57.5261 16.9386C57.9343 16.3626 58.2558 15.4811 58.1087 14.7703L57.5157 15.3934C58.3434 15.6395 59.1579 15.9289 59.9894 16.1684C60.3835 16.2815 60.7794 16.3937 61.1754 16.5011C61.4864 16.586 61.8192 16.717 62.1435 16.717L61.79 16.5803C62.6384 17.3345 63.4633 18.1103 64.291 18.8843C65.0904 19.6309 65.9502 20.3606 66.6638 21.193L66.99 20.3446C66.5894 20.3446 66.4546 20.6745 66.2358 20.9621C65.9389 21.3627 65.6108 21.7417 65.2818 22.1169C64.6738 22.8088 64.029 23.4791 63.5048 24.2389L64.1647 24.0504C63.3559 23.6912 62.663 23.0813 61.9126 22.6194C61.5722 22.4091 61.2329 22.7136 61.2027 23.0502C61.1292 23.8581 61.2281 24.7178 61.2366 25.5295C61.2467 26.6539 61.2542 27.7782 61.2593 28.9025C61.2696 31.0566 61.2715 33.2117 61.3073 35.3658C61.3168 35.9701 61.198 36.8261 61.4667 37.3842L61.8437 36.6875C59.5049 36.9175 57.1518 37.0137 54.8026 37.0457C53.5837 37.0617 52.3629 37.0627 51.1439 37.0561C49.925 37.0495 48.5722 37.1598 47.3731 36.8675C46.9875 36.7733 46.8602 37.3342 47.226 37.4577L47.2411 37.453Z" fill="#31348B"/>
</svg>
