<svg width="100" height="100" viewBox="0 0 100 100" fill="none" xmlns="http://www.w3.org/2000/svg">
<path d="M85.3138 49.8883C84.5816 47.9715 83.4731 46.2911 81.7541 45.1246C80.0987 44.0013 78.1455 43.5875 76.1832 43.4624C72.5246 43.2294 68.9069 44.7619 66.9071 47.9157C64.7981 51.2401 64.7163 55.3864 66.6081 58.837C68.567 62.4092 72.5314 64.567 76.5686 64.4897C78.54 64.4522 80.6706 64.0088 82.3135 62.8639C83.9584 61.7165 85.12 60.0004 85.5741 58.0468C85.864 56.8349 85.0432 55.732 83.896 55.3182C83.0172 55.0067 81.1151 54.9044 80.8127 56.1675C80.644 56.8571 80.3948 57.5245 80.0703 58.156C79.9112 58.4754 80.2977 57.8513 80.0112 58.2515C79.9316 58.3652 79.852 58.4788 79.7668 58.5823C79.5532 58.8414 79.323 59.0863 79.0778 59.3156C78.8106 59.576 79.3802 59.1087 79.0778 59.3213C78.9493 59.41 78.8243 59.5021 78.6924 59.5851C78.6094 59.6385 77.8056 60 77.7976 60.0603C77.7976 60.0432 78.2126 59.9114 77.9932 59.975C77.9272 59.9944 77.8624 60.0251 77.7976 60.0478C77.6419 60.1024 77.4838 60.1512 77.3258 60.1956C77.1678 60.2399 77.0006 60.2809 76.8358 60.3172L76.6209 60.3616L76.4754 60.3877C76.3537 60.4093 76.3788 60.4059 76.5504 60.3786L76.6982 60.3559C76.6232 60.3673 76.5482 60.3764 76.4708 60.3843L76.2435 60.4082C76.0616 60.4252 75.8808 60.4378 75.6989 60.4457C75.5397 60.4525 75.3805 60.4571 75.2202 60.4582C75.1168 60.4582 75.0122 60.4503 74.9087 60.4582C74.5915 60.4696 75.4033 60.5128 75.0906 60.4741C74.778 60.4355 74.4449 60.3957 74.1254 60.3241C74.0306 60.2939 73.9337 60.2707 73.8355 60.2547C73.8355 60.2547 74.3778 60.4457 74.1379 60.3354C73.9617 60.2547 73.7639 60.2092 73.5831 60.1365C73.441 60.0785 73.2602 59.9534 73.1124 59.9284C73.0976 59.9284 73.6251 60.2183 73.3944 60.0739C73.333 60.0353 73.2659 60.0034 73.2022 59.9602C72.8827 59.7749 72.594 59.5566 72.2927 59.3452C72.0812 59.1974 72.5064 59.5191 72.5053 59.5169C72.486 59.4702 72.378 59.4032 72.3404 59.3713C72.2154 59.2519 72.0892 59.1371 71.9687 59.0132C71.8481 58.8893 71.7333 58.7608 71.6185 58.6323C71.6071 58.6198 71.4821 58.4584 71.4752 58.4618C71.5071 58.4481 71.7833 58.8836 71.5742 58.5755C71.365 58.2674 71.1785 58.0002 71.0057 57.6932C70.9318 57.5614 70.8647 57.4261 70.7954 57.2919C70.6078 56.936 70.8397 57.3408 70.834 57.3851C70.8431 57.3226 70.7419 57.1646 70.7203 57.102C70.5897 56.7658 70.48 56.4218 70.3918 56.072C70.3531 55.9196 70.319 55.7673 70.2883 55.6172C70.2678 55.5138 70.2542 55.408 70.2326 55.3057C70.2656 55.4637 70.2622 55.5854 70.2417 55.3535C70.1662 54.6015 70.1796 53.8432 70.2815 53.0944C70.3054 52.9216 70.3724 52.6396 70.2906 52.9807C70.3326 52.8034 70.3736 52.626 70.4225 52.4509C70.5265 52.0802 70.6549 51.7167 70.8067 51.3629C70.9352 51.0639 71.1285 50.7819 71.2456 50.4818C71.324 50.2817 71.1808 50.5784 71.1671 50.5955C71.2217 50.5113 71.2808 50.4272 71.3309 50.3442C71.4301 50.2009 71.5325 50.0604 71.6378 49.9224C71.8493 49.6493 72.0771 49.3892 72.32 49.1436C72.4234 49.039 72.5326 48.9401 72.6394 48.8389C72.6906 48.79 72.9259 48.5695 72.7145 48.765C72.503 48.9606 72.7497 48.7377 72.7975 48.7036C73.0537 48.5148 73.3193 48.3391 73.5933 48.1772C73.7422 48.0908 73.8923 48.0101 74.0481 47.9351C74.114 47.9021 74.1811 47.8725 74.247 47.8396C74.6757 47.627 73.9423 47.9317 74.2072 47.8555C74.5154 47.7668 74.8121 47.6452 75.1247 47.569C75.2214 47.5463 75.3192 47.5281 75.4158 47.5042C75.6773 47.4394 75.4158 47.4849 75.4158 47.4974C75.401 47.544 75.1554 47.5235 75.4158 47.4974C75.542 47.486 75.6671 47.4712 75.7932 47.4621C76.1718 47.4392 76.5513 47.4365 76.9302 47.4542C77.0282 47.466 77.127 47.4706 77.2258 47.4678C77.1337 47.4792 76.6869 47.4178 77.0188 47.4576C77.2064 47.4803 77.394 47.4974 77.5805 47.5258C77.7669 47.5542 77.942 47.5838 78.1205 47.6224C78.2342 47.6463 78.7754 47.7861 78.3104 47.6588C77.8454 47.5315 78.4241 47.7066 78.5378 47.7509C78.6981 47.8112 78.8504 47.8987 79.0119 47.9544C79.2529 48.0374 78.6708 47.7725 78.689 47.7873C78.7779 47.8471 78.8701 47.9017 78.9652 47.951C79.0937 48.0317 79.2142 48.1204 79.3381 48.2057C79.6565 48.4262 79.1619 48.0749 79.1449 48.0488C79.204 48.1146 79.2695 48.1744 79.3404 48.2273C79.4723 48.3523 79.5905 48.4876 79.7145 48.6195C79.7634 48.6707 79.9202 48.8685 79.7054 48.6013C79.4632 48.2978 79.727 48.64 79.7759 48.715C79.8896 48.8787 79.9953 49.0493 80.0942 49.2221C80.1931 49.3949 80.2647 49.5495 80.3523 49.7121C80.4967 49.9793 80.2193 49.3642 80.3273 49.6586C80.3773 49.7939 80.441 49.927 80.4876 50.0611C80.9344 51.231 82.218 52.0871 83.4924 51.9836C84.5157 51.9006 85.7742 51.1003 85.3115 49.8781L85.3138 49.8883Z" fill="#E4032F"/>
<path d="M34.9917 54.3895C34.9646 52.1841 34.2827 50.0365 33.0325 48.2195C31.7823 46.4025 30.0202 44.998 27.9701 44.1846C23.8886 42.5815 18.9748 43.6161 16.2121 47.1201C13.5393 50.5115 13.3005 55.2445 15.4311 58.969C17.7356 62.9982 22.4959 65.1288 27.0276 64.2818C31.7026 63.4075 34.9485 59.0452 34.986 54.3907C34.9963 53.1401 33.6968 52.1464 32.5485 51.9906C31.5059 51.8508 30.0325 52.218 30.0211 53.5323C30.0198 53.9364 29.9928 54.3401 29.9404 54.7408C29.9268 54.8454 29.9052 54.95 29.8926 55.0546C29.8585 55.3434 29.9768 54.7317 29.9029 55.0103C29.8438 55.2377 29.7892 55.4651 29.7232 55.6924C29.6171 56.0345 29.4903 56.3697 29.3435 56.6963C29.2605 56.8805 29.1707 57.0624 29.0752 57.2398C29.0275 57.3285 28.9763 57.4149 28.9274 57.5035C29.0479 57.283 29.0582 57.308 28.9274 57.5035C28.7169 57.8114 28.4892 58.1071 28.2453 58.3892C28.0417 58.6166 27.7018 59.1111 27.4062 59.218C27.4415 59.2055 27.7814 58.9349 27.4722 59.1634C27.413 59.2066 27.3585 59.251 27.2948 59.2942C27.1368 59.4079 26.9742 59.5216 26.8082 59.6205C26.6627 59.7103 26.5137 59.7956 26.3637 59.8763C26.2773 59.9218 26.1897 59.9661 26.101 60.0082C26.0351 60.0411 25.6383 60.1969 25.9566 60.0798C26.275 59.9627 25.7406 60.1525 25.661 60.1787C25.4738 60.2401 25.2843 60.2943 25.0926 60.3413C24.9959 60.364 24.897 60.3822 24.8004 60.4061C24.4514 60.4936 24.9562 60.3708 24.9493 60.3924C24.9323 60.4436 24.4002 60.4493 24.3456 60.4527C24.1399 60.4652 23.9352 60.4641 23.7306 60.4652C23.2928 60.4652 24.2342 60.5243 23.684 60.4652C23.485 60.4425 23.286 60.4129 23.0893 60.3754C23.0154 60.3617 22.9427 60.347 22.8699 60.3299C22.7972 60.3128 22.7244 60.2969 22.6528 60.2787C22.4549 60.2272 22.555 60.2556 22.9529 60.364C22.6755 60.206 22.2901 60.1196 21.9899 59.9968C21.6 59.8376 22.1684 60.0889 22.2037 60.1105C22.1207 60.0581 22.0349 60.0103 21.9467 59.9672C21.777 59.8695 21.6117 59.7656 21.451 59.6557C21.3009 59.53 21.1433 59.4135 20.9792 59.3067C21.0247 59.3306 21.434 59.7091 21.1395 59.4272C21.069 59.359 20.994 59.2953 20.9224 59.2282C20.7985 59.1145 20.6768 58.9861 20.5608 58.8599C20.4938 58.7871 20.429 58.7121 20.363 58.6393C20.0742 58.3176 20.4392 58.67 20.4074 58.7041C20.4074 58.7041 19.8287 57.8378 19.7889 57.7684C19.7013 57.615 19.6229 57.4569 19.541 57.3012C19.3546 56.9464 19.5535 57.366 19.5797 57.3944C19.5069 57.3137 19.474 57.1386 19.4364 57.0397C19.2989 56.6775 19.185 56.3069 19.0954 55.93C19.0476 55.7243 19.0169 55.5173 18.9737 55.3116C19.0624 55.7334 18.9657 55.2104 18.9544 55.0387C18.9258 54.6326 18.9239 54.2251 18.9487 53.8188C18.9601 53.6312 18.9771 53.4447 19.001 53.2583C19.0135 53.1537 19.0317 53.0491 19.0453 52.9434C19.1135 52.4443 18.976 53.1889 19.0453 52.9104C19.232 52.1384 19.5102 51.3914 19.8741 50.6855C19.9208 50.5979 19.9765 50.5115 20.0208 50.4217C19.8321 50.7992 19.9219 50.5729 19.9856 50.4808C20.0993 50.3171 20.2129 50.1511 20.3266 49.9931C20.5658 49.6784 20.8268 49.3809 21.1077 49.1029C21.2282 48.9892 21.376 48.8755 21.4863 48.7527C21.6659 48.5435 21.1907 48.9619 21.4181 48.8039C21.4977 48.7482 21.5738 48.6902 21.6523 48.6276C21.9689 48.3982 22.3022 48.1926 22.6494 48.0126C22.7471 47.9614 22.9904 47.7852 23.1132 47.7852C22.8983 47.7784 22.7721 47.9125 23.0075 47.8352C23.1018 47.8045 23.1928 47.7681 23.286 47.7374C23.4509 47.684 23.6169 47.6363 23.7851 47.5931C23.8806 47.5692 23.9784 47.5487 24.075 47.526C24.556 47.4123 24.008 47.501 24 47.526C24.0318 47.4259 25.0141 47.4521 25.1369 47.4532C25.744 47.4589 24.7583 47.3918 25.1847 47.4464C25.4121 47.4748 25.6326 47.5021 25.8555 47.5442C25.9532 47.5635 26.0499 47.5862 26.1476 47.6067C26.5785 47.6954 26.1408 47.6476 25.9919 47.5555C26.1624 47.6613 26.4273 47.7011 26.6172 47.7772C26.6854 47.8045 26.7525 47.8329 26.8207 47.8625C27.0481 47.9637 27.2834 48.1956 26.7411 47.8057C26.8969 47.9193 27.0822 47.9967 27.2482 48.099C27.4346 48.2127 27.612 48.3446 27.7905 48.4742C27.8701 48.531 28.1384 48.7379 27.8303 48.5003C27.4892 48.2388 27.8689 48.5447 27.9144 48.5867C28.0592 48.7201 28.199 48.8584 28.3339 49.0017C28.401 49.0733 28.4681 49.1461 28.5329 49.22C28.5818 49.2757 28.6295 49.3337 28.6773 49.3894C28.7557 49.4849 28.7409 49.4656 28.6307 49.3291C28.4033 49.2154 28.5681 49.2416 28.6693 49.3917C28.7387 49.494 28.8126 49.594 28.8808 49.6986C28.9945 49.8669 29.0945 50.0397 29.1923 50.2125C29.2423 50.2997 29.2901 50.3884 29.3356 50.4785C29.3492 50.5047 29.5493 50.9481 29.4174 50.6354C29.2969 50.3501 29.4231 50.6616 29.4515 50.7321C29.4993 50.8515 29.5447 50.9708 29.5868 51.0913C29.7361 51.5347 29.8546 51.9879 29.9415 52.4477C29.9495 52.4886 29.9961 52.7535 29.9552 52.5011C29.9074 52.2112 29.97 52.658 29.9756 52.716C29.9995 52.9866 30.0086 53.256 30.0109 53.5266C30.0223 54.7772 31.2831 55.7697 32.4484 55.9266C33.4876 56.0744 35.0031 55.6993 34.9917 54.3895Z" fill="#31348B"/>
<path d="M31.9024 44.2273C31.3805 44.9641 31.3555 46.0055 31.2327 46.8764C31.1009 47.8075 30.9906 48.7409 30.8917 49.6766C30.7143 51.3172 30.5983 52.9657 30.5802 54.6176C30.5517 57.253 31.1054 59.8554 31.2623 62.4805L31.5909 61.1344L31.5045 61.2913C30.4949 63.1343 31.8944 65.4547 34 65.4024C34.4835 65.3885 34.9551 65.2493 35.3686 64.9983C35.7822 64.7474 36.1235 64.3934 36.3591 63.971C36.7957 63.1752 36.8866 61.9246 36.2909 61.1742L36.1715 61.0219L36.5672 62.3509C36.3716 60.8252 36.0885 59.3165 35.7986 57.8033C35.7418 57.5054 35.6849 57.2075 35.6326 56.9096C35.6201 56.8346 35.6224 56.5572 35.5644 56.5049C35.619 56.8596 35.633 56.9415 35.6065 56.7505C35.5951 56.6675 35.5849 56.5856 35.5758 56.5026C35.5061 55.8724 35.4681 55.2391 35.4621 54.6051C35.4405 52.993 35.5201 51.3786 35.6576 49.7732C35.6883 49.4106 35.7236 49.0479 35.7611 48.6863C35.7625 48.6077 35.7709 48.5293 35.7861 48.4521C35.8077 48.2714 35.8293 48.0917 35.852 47.911C35.9805 46.8741 36.3523 45.6462 35.9384 44.6503C35.5974 43.8203 35.0096 43.2246 34.0739 43.1223C33.1382 43.0199 32.4379 43.4815 31.9138 44.2239L31.9024 44.2273Z" fill="#31348B"/>
<path d="M62.2519 54.3895C62.2251 52.184 61.5433 50.0363 60.293 48.2192C59.0428 46.4022 57.2805 44.9978 55.2303 44.1846C51.1499 42.5815 46.235 43.6161 43.4734 47.1201C40.7994 50.5115 40.5618 55.2445 42.6913 58.969C44.9969 62.9982 49.756 65.1288 54.2878 64.2818C58.9639 63.4075 62.2087 59.0452 62.2462 54.3907C62.2575 53.1401 60.958 52.1464 59.8086 51.9906C58.7672 51.8508 57.2938 52.218 57.2813 53.5323C57.2798 53.9364 57.2532 54.34 57.2017 54.7408C57.1869 54.8454 57.1664 54.95 57.1539 55.0546C57.1187 55.3434 57.2381 54.7317 57.1642 55.0103C57.1039 55.2377 57.0505 55.4651 56.9834 55.6924C56.8773 56.0345 56.7505 56.3697 56.6037 56.6963C56.5207 56.8805 56.4309 57.0624 56.3354 57.2398C56.2876 57.3285 56.2364 57.4149 56.1887 57.5035C56.3024 57.283 56.3194 57.308 56.1819 57.5035C55.9721 57.8119 55.7444 58.1077 55.4997 58.3892C55.2974 58.6166 54.9574 59.1111 54.6607 59.218C54.6971 59.2055 55.037 58.9349 54.7266 59.1634L54.5504 59.2942C54.3912 59.4079 54.2298 59.5216 54.0627 59.6205C53.9171 59.7107 53.769 59.7959 53.6181 59.8763C53.5317 59.9218 53.4442 59.9661 53.3566 60.0082C53.2896 60.0411 52.8928 60.1969 53.2111 60.0798C53.5295 59.9627 52.9951 60.1525 52.9167 60.1787C52.7279 60.2401 52.5384 60.2943 52.3482 60.3413C52.2516 60.364 52.1526 60.3822 52.0571 60.4061C51.7081 60.4936 52.2118 60.3708 52.205 60.3924C52.1879 60.4436 51.6558 60.4493 51.6012 60.4527C51.3955 60.4652 51.192 60.4641 50.9862 60.4652C50.5496 60.4652 51.4898 60.5243 50.9407 60.4652C50.7406 60.4425 50.5428 60.4129 50.345 60.3754C50.2722 60.3617 50.1983 60.347 50.1255 60.3299C50.0528 60.3128 49.98 60.2969 49.9084 60.2787C49.7113 60.2272 49.8114 60.2556 50.2085 60.364C49.9323 60.206 49.5457 60.1196 49.2456 59.9968C48.8556 59.8376 49.4252 60.0889 49.4593 60.1105C49.3767 60.0581 49.2913 60.0103 49.2035 59.9672C49.0337 59.8695 48.8681 59.7656 48.7067 59.6557C48.5565 59.53 48.3989 59.4135 48.2348 59.3067C48.2803 59.3306 48.6896 59.7091 48.3952 59.4272C48.3247 59.359 48.2496 59.2953 48.1791 59.2282C48.0541 59.1092 47.9332 58.9864 47.8165 58.8599C47.7494 58.7871 47.6857 58.7121 47.6186 58.6393C47.3299 58.3176 47.6959 58.67 47.6641 58.7041C47.6641 58.7041 47.0843 57.8378 47.0445 57.7684C46.957 57.615 46.8785 57.4569 46.7966 57.3012C46.6102 56.9464 46.8092 57.366 46.8353 57.3944C46.7625 57.3137 46.7307 57.1386 46.6932 57.0397C46.5547 56.6779 46.4407 56.3072 46.3521 55.93C46.3032 55.7243 46.2725 55.5173 46.2293 55.3116C46.318 55.7334 46.2225 55.2104 46.21 55.0387C46.1827 54.6325 46.1827 54.225 46.21 53.8188C46.2214 53.6312 46.2384 53.4447 46.2612 53.2583C46.2748 53.1537 46.2919 53.0491 46.3066 52.9434C46.3737 52.4443 46.2362 53.1889 46.3066 52.9104C46.4938 52.1385 46.772 51.3916 47.1354 50.6855C47.1821 50.5979 47.2378 50.5115 47.2821 50.4217C47.0934 50.7992 47.1832 50.5729 47.248 50.4808C47.3617 50.3171 47.4754 50.1511 47.5891 49.9931C47.8279 49.6781 48.0889 49.3806 48.3701 49.1029C48.4895 48.9892 48.6384 48.8755 48.7476 48.7527C48.9272 48.5435 48.4531 48.9619 48.6794 48.8039C48.7601 48.7482 48.8351 48.6902 48.9147 48.6276C49.2362 48.3974 49.5748 48.1922 49.9277 48.0137C50.0255 47.9626 50.2688 47.7863 50.3904 47.7863C50.1767 47.7795 50.0494 47.9137 50.2858 47.8364C50.3791 47.8057 50.47 47.7693 50.5644 47.7386C50.7281 47.6851 50.8941 47.6374 51.0623 47.5942C51.159 47.5703 51.2556 47.5499 51.3523 47.5271C51.8332 47.4134 51.2852 47.5021 51.2772 47.5271C51.3091 47.4271 52.2914 47.4532 52.4141 47.4544C53.0201 47.46 52.0356 47.393 52.4608 47.4475C52.6881 47.476 52.9087 47.5032 53.1315 47.5453C53.2293 47.5646 53.3259 47.5874 53.4237 47.6078C53.8546 47.6965 53.4237 47.6488 53.268 47.5567C53.4396 47.6624 53.7034 47.7022 53.8933 47.7784C53.9615 47.8057 54.0297 47.8341 54.0968 47.8636C54.3242 47.9648 54.5606 48.1968 54.0172 47.8068C54.1729 47.9205 54.3583 47.9978 54.5243 48.1001C54.7107 48.2138 54.8892 48.3457 55.0677 48.4753C55.1461 48.5321 55.4088 48.7391 55.1064 48.5015C54.7653 48.24 55.145 48.5458 55.1905 48.5879C55.3349 48.7209 55.4758 48.8596 55.61 49.0028C55.6782 49.0745 55.7442 49.1472 55.809 49.2211C55.8579 49.2768 55.9067 49.3348 55.9534 49.3905C56.0329 49.486 56.017 49.4667 55.9067 49.3303C55.6794 49.2166 55.8442 49.2427 55.9454 49.3928C56.0159 49.4951 56.0898 49.5952 56.158 49.6998C56.2717 49.868 56.3717 50.0408 56.4695 50.2136C56.5184 50.3012 56.5661 50.3899 56.6116 50.4797C56.6253 50.5058 56.8254 50.9492 56.6935 50.6366C56.573 50.3512 56.7003 50.6627 56.7287 50.7332C56.7753 50.8526 56.8208 50.972 56.8629 51.0925C57.0122 51.5359 57.1307 51.9891 57.2176 52.4488C57.2267 52.4897 57.2722 52.7546 57.2312 52.5023C57.1835 52.2123 57.246 52.6591 57.2517 52.7171C57.2756 52.9877 57.2847 53.2572 57.287 53.5277C57.2983 54.7783 58.5603 55.7709 59.7245 55.9278C60.7477 56.0744 62.2632 55.6993 62.2519 54.3895Z" fill="#FAB500"/>
<path d="M42.5579 34.101C42.3896 34.176 42.2168 34.2499 42.052 34.3283L43.0661 34.0271H43.0581C42.2043 34.0396 41.1106 34.7501 41.0003 35.6756C40.9821 35.82 40.7388 36.3941 40.9503 35.8507C41.2164 35.1685 40.8366 36.1076 40.8218 36.1747C40.78 36.3963 40.7568 36.6211 40.7525 36.8466C40.7525 36.8955 40.7525 36.9433 40.7525 36.991C40.7525 37.1172 40.7525 37.2434 40.7457 37.3685C40.7335 38.0097 40.7222 38.6513 40.7116 39.2933C40.6805 41.132 40.6532 42.97 40.6297 44.8073C40.574 49.0628 40.5331 53.3171 40.4626 57.5715C40.4364 59.1711 40.4046 60.7741 40.4376 62.3749L40.7673 61.0265C40.6104 61.3057 40.4824 61.6002 40.3853 61.9054C40.0521 62.8149 40.5069 63.9791 41.1731 64.6124C41.4869 64.9005 41.8613 65.1144 42.2689 65.2383C42.6764 65.3622 43.1066 65.3929 43.5276 65.3282C43.9486 65.2635 44.3496 65.1049 44.7011 64.8643C45.0526 64.6237 45.3455 64.3072 45.5582 63.9382C46.0778 62.9979 45.947 62.0304 45.4889 61.1095C45.4481 61.0406 45.4017 60.9752 45.3502 60.914L45.7458 62.2442C45.5184 58.896 45.4639 55.5193 45.4468 52.1643C45.4263 48.0668 45.4241 43.9698 45.44 39.8731C45.44 39.0901 45.4434 38.3072 45.4502 37.5242C45.4502 37.2548 45.4718 36.9774 45.4559 36.709C45.4376 36.4918 45.4045 36.276 45.357 36.0633L45.1057 35.5073L45.3252 35.9848C45.3141 35.9345 45.2981 35.8854 45.2774 35.8382C45.1796 35.579 45.2228 35.297 45.291 36.1485C45.2206 35.2788 44.6089 34.2215 43.6425 34.0907C43.1264 34.0202 44.2792 34.3465 44.0655 34.2613C43.6016 34.0737 43.0616 33.877 42.5613 34.0976L42.5579 34.101Z" fill="#FAB500"/>
</svg>
