<svg width="82" height="82" viewBox="0 0 82 82" fill="none" xmlns="http://www.w3.org/2000/svg">
<path d="M0 41C0 18.3563 18.3563 0 41 0C63.6437 0 82 18.3563 82 41C82 63.6437 63.6437 82 41 82C18.3563 82 0 63.6437 0 41Z" fill="white"/>
<path d="M61.579 42.8833C59.8182 45.247 57.3073 45.7829 54.3246 44.948V55.5374C54.3246 55.7167 54.3288 55.8953 54.3175 56.0733C54.2816 56.6617 54.0358 56.8785 53.3822 56.8791C49.9015 56.8821 46.4203 56.8821 42.9386 56.8791H42.3047C43.5634 59.8719 43.0091 62.4104 40.0002 64.1495C37.8556 65.3883 35.5546 65.2692 33.5353 63.8757C30.9251 62.0738 30.4899 59.6571 31.7041 56.8785H31.0456C27.6179 56.8785 24.1903 56.8785 20.7626 56.8785C19.9252 56.8785 19.7308 56.7044 19.7301 55.938C19.7273 52.9336 19.7273 49.9293 19.7301 46.9253C19.7301 46.7959 19.7428 46.6703 19.7526 46.4975C21.6986 46.3991 23.3002 45.68 24.4757 44.2451C25.3019 43.2374 25.6815 42.0814 25.6519 40.8271C25.5956 38.3676 23.5742 35.6537 19.7202 35.4421C19.7202 34.7249 19.7202 34.0013 19.7202 33.2777C19.724 30.8584 19.7275 28.4388 19.7308 26.019C19.7308 25.298 19.9463 25.1012 20.7422 25.1006C24.1346 25.0975 27.5273 25.0965 30.9202 25.0973H31.5386C30.5575 22.2048 31.2379 19.8288 34.0481 18.2496C36.1892 17.0457 38.4092 17.2218 40.4742 18.5344C41.6011 19.2509 42.3252 20.2631 42.6956 21.4774C43.0605 22.6709 42.9555 23.8482 42.4252 25.0695C42.6844 25.0812 42.8675 25.0967 43.0506 25.0967C46.4247 25.0967 49.7998 25.0967 53.1758 25.0967C54.1485 25.0967 54.3232 25.2533 54.3246 26.1426C54.3288 28.8377 54.3304 31.5345 54.3295 34.233V34.7968C57.4383 33.9269 60.0063 34.5508 61.7361 37.0932C63.0257 38.9967 62.9573 41.0368 61.579 42.8833Z" fill="#E4032F"/>
</svg>
