<svg width="100" height="100" viewBox="0 0 100 100" fill="none" xmlns="http://www.w3.org/2000/svg">
<path d="M79.2944 75.7774H20.3194C20.2382 75.7774 20.1578 75.7774 20.0774 75.7774H20.0169C19.8441 75.7723 19.8547 75.7757 20.0489 75.7878C19.9711 75.7809 19.8933 75.7714 19.8155 75.7593C19.7291 75.7455 19.5459 75.7394 19.4742 75.6901L19.6522 75.7403C19.5796 75.7169 19.5079 75.6919 19.4361 75.6651C19.3497 75.6322 19.2633 75.5787 19.1769 75.5536C18.9677 75.4922 19.4889 75.7601 19.1967 75.5536C19.1051 75.4905 19.0092 75.4283 18.915 75.3678C18.6082 75.1681 19.1241 75.5916 18.8701 75.3289C18.7923 75.2477 18.7084 75.1733 18.6324 75.0904C18.5814 75.0359 18.5321 74.9789 18.4855 74.9175C18.5828 75.0408 18.6016 75.0613 18.5417 74.9789C18.4751 74.7982 18.3135 74.6219 18.2262 74.4448C18.3567 74.7101 18.2046 74.373 18.1916 74.3333C18.1536 74.2253 18.1208 74.1146 18.0931 74.0031C18.0629 73.8895 18.0398 73.774 18.024 73.6575C18.0499 73.8614 18.0292 73.6574 18.03 73.6229C18.03 73.5425 18.0231 73.4587 18.0222 73.3783C18.0222 73.1942 18.0222 73.0093 18.0222 72.8252V29.0055C18.0222 28.3418 17.9773 27.6581 18.0387 26.9961C18.0387 26.9823 18.0948 26.6003 18.0482 26.8432C18.0704 26.7301 18.0992 26.6184 18.1346 26.5087C18.1918 26.3275 18.2623 26.1507 18.3455 25.9798C18.355 25.9599 18.5356 25.6341 18.4008 25.8545C18.4607 25.759 18.5257 25.6667 18.5952 25.5779C18.7365 25.4037 18.8883 25.2383 19.0498 25.0827C19.2901 24.8407 18.8657 25.1881 19.1501 25.0006C19.2443 24.9384 19.335 24.8718 19.4318 24.8139C19.5286 24.756 19.6306 24.7068 19.73 24.6523C20.0351 24.4846 19.501 24.705 19.8371 24.6082C20.023 24.5547 20.2036 24.4993 20.3937 24.4605C20.0722 24.5261 20.4447 24.4605 20.5009 24.4605C20.5968 24.4544 20.6435 24.4544 20.7403 24.4535C20.8699 24.4535 20.9996 24.4535 21.1301 24.4535H80.0178C80.1604 24.4535 80.2123 24.4665 79.9858 24.4432C80.1025 24.4553 80.2192 24.47 80.3315 24.4916L80.4456 24.5149C80.6185 24.5564 80.596 24.5486 80.3799 24.4907C80.4663 24.4838 80.6254 24.5771 80.7014 24.6082L80.806 24.6532C80.9662 24.7292 80.944 24.7168 80.7394 24.616C80.806 24.616 80.9728 24.7569 81.0272 24.7949C81.0817 24.8329 81.3591 25.0818 81.08 24.8234C81.1353 24.8744 81.1914 24.9228 81.2459 24.9747C81.3263 25.0533 81.3997 25.1372 81.4766 25.2193C81.5786 25.3408 81.5732 25.3339 81.4602 25.1985C81.5043 25.259 81.5466 25.3212 81.5873 25.3843C81.6478 25.4803 81.6996 25.5796 81.7601 25.6773C81.933 25.9772 81.7005 25.4491 81.8068 25.7819C81.8709 25.9624 81.9257 26.1462 81.971 26.3324C81.9762 26.3557 82.0185 26.7222 81.9986 26.4776C82.0081 26.5969 82.0133 26.7153 82.0151 26.8354V26.8432C82.0444 29.1092 82.0151 31.3778 82.0151 33.6448V72.4925C82.0151 72.7007 82.0211 72.9099 82.0081 73.1164C82.0004 73.2348 81.9865 73.3515 81.9701 73.4682C82.0038 73.2305 81.939 73.5918 81.933 73.6125C81.8713 73.8324 81.7897 74.0462 81.6892 74.2512C81.697 74.2356 81.5233 74.5614 81.6089 74.4145C81.6944 74.2676 81.4982 74.5744 81.5069 74.5623C81.3751 74.7445 81.2276 74.9148 81.0661 75.0714C81.0454 75.0912 80.7654 75.3254 80.9754 75.163C80.889 75.2321 80.7939 75.2969 80.6988 75.3574C80.54 75.4589 80.3743 75.549 80.2028 75.6271C80.4715 75.5043 80.1284 75.6461 80.0895 75.659C79.9789 75.6936 79.8666 75.7161 79.7551 75.7455C79.4094 75.844 80.0143 75.7455 79.6531 75.7627C79.533 75.7679 79.4154 75.7774 79.2953 75.7792C78.6117 75.7895 77.9868 76.3444 78.1917 77.06C78.4069 77.8162 79.2858 78.2405 80.0187 78.2293C82.1421 78.1964 84.2344 76.8543 84.8282 74.7499C84.9726 74.2147 85.0419 73.662 85.0339 73.1078V29.2198C85.0339 28.5984 85.0425 27.9762 85.0339 27.3539C85.0045 25.1518 83.5647 23.2687 81.5596 22.4329C80.7818 22.1088 79.953 22.0008 79.1164 22.0008H20.3617C20.1682 22.0008 19.972 21.9965 19.7784 22.0077C17.7042 22.1365 15.6974 23.5124 15.178 25.5917C14.9533 26.4914 15.0052 27.3963 15.0052 28.3141V72.3965C15.0052 72.5555 15.0052 72.7146 15.0052 72.8736C15.0354 75.1206 16.5764 77.1386 18.6929 77.8758C19.73 78.2362 20.7463 78.2276 21.8128 78.2276H80.0178C80.704 78.2276 81.3245 77.6554 81.1214 76.9468C80.9037 76.1828 80.029 75.7774 79.2944 75.7774Z" fill="#31348B"/>
<path d="M16.9732 34.5196C25.4359 34.4666 33.898 34.432 42.3595 34.4158C50.7933 34.4003 59.2275 34.4032 67.6619 34.4245C72.4106 34.4366 77.1599 34.4545 81.9098 34.4781C82.5874 34.4781 83.2373 33.8792 83.2062 33.1817C83.175 32.4843 82.6366 31.8853 81.9098 31.8853C73.4471 31.8427 64.9845 31.8188 56.5218 31.8136C48.0885 31.809 39.6547 31.8228 31.2203 31.8551C26.4715 31.8735 21.7225 31.8974 16.9732 31.9268C16.2957 31.9311 15.6457 32.5206 15.6769 33.2232C15.708 33.9258 16.2464 34.5247 16.9732 34.5196Z" fill="#31348B"/>
<path d="M16.9732 68.415C25.4359 68.3614 33.898 68.3266 42.3595 68.3104C50.7933 68.2949 59.2275 68.2978 67.6619 68.3191C72.4106 68.3312 77.1599 68.349 81.9098 68.3727C82.5874 68.3727 83.2373 67.7746 83.2062 67.0763C83.175 66.378 82.6366 65.7799 81.9098 65.7799C73.4471 65.7373 64.9845 65.7137 56.5218 65.7091C48.0885 65.7039 39.6547 65.7174 31.2203 65.7497C26.4715 65.7681 21.7225 65.7923 16.9732 65.8223C16.2957 65.8223 15.6457 66.4151 15.6769 67.1186C15.708 67.8221 16.2464 68.415 16.9732 68.415Z" fill="#31348B"/>
<path d="M50.018 59.7094C55.0126 59.7094 59.0615 55.4133 59.0615 50.1137C59.0615 44.8142 55.0126 40.518 50.018 40.518C45.0235 40.518 40.9746 44.8142 40.9746 50.1137C40.9746 55.4133 45.0235 59.7094 50.018 59.7094Z" fill="#E4032F"/>
<path d="M61.3246 50.5052C61.2953 45.6828 58.2998 41.2466 53.7902 39.481C49.3938 37.7585 44.1599 38.927 41.1818 42.67C38.2433 46.3577 37.9659 51.5518 40.2855 55.6207C41.5024 57.7545 43.3856 59.3836 45.5773 60.4527C47.769 61.5217 50.3203 61.7698 52.7125 61.3169C54.867 60.9055 56.885 59.7181 58.3733 58.1192C59.9289 56.4495 60.8485 54.3373 61.2002 52.1015C61.2814 51.5747 61.323 51.0426 61.3246 50.5096C61.3316 49.3731 60.1519 48.4622 59.101 48.3204C58.1503 48.1925 56.8029 48.533 56.796 49.7266C56.7949 50.2181 56.7597 50.7091 56.6906 51.1958C56.6845 51.2381 56.6655 51.5354 56.6318 51.5536C56.669 51.5337 56.7182 51.1794 56.6534 51.4438C56.5886 51.7083 56.5238 51.9822 56.4417 52.2476C56.3162 52.6576 56.1637 53.0589 55.9854 53.4489C55.8897 53.6586 55.786 53.8651 55.6742 54.0685C55.6448 54.123 55.5014 54.3096 55.5014 54.3675C55.6512 54.129 55.6737 54.0924 55.5688 54.2578C55.5273 54.3217 55.4824 54.3857 55.4426 54.4488C55.2094 54.7932 54.9539 55.122 54.6778 55.4332C54.5282 55.606 54.3727 55.765 54.2111 55.9232C54.0659 56.0649 53.817 56.2084 53.7124 56.3752L53.9112 56.2144C53.8533 56.2611 53.7936 56.3078 53.7383 56.3527C53.6519 56.4201 53.5586 56.4867 53.4678 56.5515C53.3002 56.6667 53.1273 56.7788 52.9493 56.8877C52.7764 56.994 52.5958 57.0951 52.4134 57.1884C52.3141 57.2403 52.2138 57.2895 52.1118 57.3371L51.9079 57.4296C52.2057 57.3074 52.2585 57.2849 52.066 57.3621C51.6808 57.5092 51.2868 57.6322 50.8863 57.7303C50.7757 57.7562 50.6642 57.7796 50.5527 57.8012C50.373 57.8357 50.0532 57.8012 50.6392 57.7934C50.4101 57.7934 50.1768 57.8461 49.9478 57.8591C49.7187 57.872 49.4785 57.8746 49.2434 57.8686C49.061 57.8634 48.6955 57.777 49.3609 57.8833C49.2477 57.8651 49.1302 57.8617 49.0152 57.8478C48.8251 57.8254 48.6358 57.7951 48.4483 57.7614C48.3368 57.7398 48.2253 57.7165 48.1138 57.6906C47.5158 57.5514 48.5563 57.8392 48.1674 57.713C47.7743 57.5893 47.3893 57.4412 47.0145 57.2697C46.8417 57.1876 46.5193 56.962 47.1684 57.3561C47.0724 57.2982 46.9713 57.2489 46.8754 57.1928C46.6498 57.0623 46.4294 56.9205 46.2168 56.7701C46.0518 56.6543 45.5643 56.217 46.1365 56.7321C45.9697 56.5817 45.7951 56.4409 45.6326 56.2853C45.4701 56.1297 45.312 55.969 45.1607 55.8022C45.11 55.7446 45.0599 55.6884 45.0103 55.6337C44.8876 55.4911 44.6577 55.0702 44.9922 55.6224C44.7761 55.2655 44.5048 54.9423 44.2948 54.5793C44.1789 54.3788 44.0761 54.1731 43.9698 53.9683C43.7762 53.594 44.1426 54.4004 43.9871 54.0097C43.9275 53.8654 43.867 53.7228 43.8142 53.5776C43.6621 53.1714 43.5368 52.7557 43.4392 52.3331C43.3847 52.0989 43.3432 51.863 43.3017 51.6253C43.2274 51.2053 43.3363 52.0462 43.3017 51.6184C43.2922 51.4965 43.2767 51.3747 43.268 51.2528C43.2322 50.7574 43.2322 50.26 43.268 49.7646C43.283 49.5612 43.3038 49.3595 43.3303 49.1596C43.3467 49.0395 43.3683 48.9202 43.3847 48.8001C43.4199 48.6059 43.4112 48.6422 43.3588 48.909C43.3752 48.8312 43.3916 48.7526 43.4098 48.6756C43.6172 47.781 43.9479 46.9194 44.3924 46.1158C44.4218 46.063 44.5402 45.9196 44.5359 45.8669L44.4045 46.0665C44.4451 46.0017 44.4858 45.9377 44.5281 45.8738C44.6537 45.6836 44.7856 45.4984 44.9239 45.3181C45.1991 44.9592 45.4995 44.6205 45.8227 44.3043C45.9653 44.166 46.2186 44.0174 46.3223 43.8523L46.1218 44.0113C46.1805 43.9647 46.2393 43.918 46.2989 43.873C46.3586 43.8281 46.4182 43.7866 46.4778 43.7399C46.8707 43.4555 47.286 43.2035 47.7197 42.9863C47.8736 42.9094 48.4474 42.7374 47.8623 42.9051C48.0767 42.8437 48.2841 42.7435 48.4967 42.6752C48.7093 42.6069 48.9288 42.5464 49.1518 42.4954C49.2253 42.4782 49.2996 42.4617 49.3739 42.447C49.5606 42.4082 50.0359 42.4203 49.399 42.4324C49.8657 42.4237 50.3237 42.3459 50.7947 42.3572C50.8725 42.3572 50.9511 42.3658 51.0281 42.3667C50.3315 42.3589 50.7394 42.3459 50.9079 42.3667C51.1741 42.3961 51.4386 42.4375 51.7013 42.4911C51.8128 42.5136 51.9226 42.5412 52.034 42.5663C52.4601 42.6605 51.4818 42.3935 51.8707 42.517C52.1205 42.5983 52.3685 42.6813 52.6122 42.7806C52.7168 42.823 52.8196 42.8671 52.9216 42.9129C53.1092 42.9993 53.5603 43.2931 52.8698 42.8748C53.0608 42.9907 53.2595 43.0918 53.4488 43.2119C53.6701 43.3519 53.8809 43.5057 54.0918 43.6587C54.4436 43.918 53.6597 43.2845 53.9872 43.5723C54.0737 43.6466 54.1601 43.7183 54.2405 43.7944C54.4352 43.9707 54.6219 44.1551 54.8005 44.3475C54.8774 44.4296 54.9535 44.5134 55.0269 44.599C55.1505 44.7416 55.3795 45.1625 55.0459 44.6102C55.3052 45.0337 55.6163 45.4166 55.8557 45.8539C55.911 45.955 55.9646 46.0578 56.0165 46.1607C56.051 46.2298 56.0847 46.299 56.1176 46.369C55.9972 46.0988 55.9684 46.0322 56.0312 46.1693C56.1288 46.4035 56.2248 46.6369 56.3086 46.8772C56.4772 47.3639 56.6084 47.8629 56.701 48.3697C56.7122 48.4302 56.7874 48.6756 56.7597 48.7275C56.7228 48.4527 56.7162 48.4152 56.7398 48.6151C56.7485 48.6955 56.7563 48.7776 56.7632 48.8589C56.7874 49.1467 56.7977 49.4362 56.7995 49.7231C56.8064 50.8604 57.9627 51.7688 59.0232 51.9122C59.9557 52.0375 61.3316 51.7031 61.3246 50.5052Z" fill="#E4032F"/>
<path d="M24.9069 68.0713C24.9789 70.7677 24.9864 73.4645 24.9294 76.1615C24.9077 77.1787 25.8394 78.1492 26.8739 78.106C27.9456 78.0576 28.796 77.2513 28.8184 76.1615C28.8761 73.465 28.8686 70.7683 28.796 68.0713C28.7692 67.055 27.9214 66.0835 26.8514 66.1268C25.8213 66.1726 24.8784 66.9824 24.9069 68.0713Z" fill="#31348B"/>
<path d="M36.2663 68.0713C36.3372 70.7677 36.3444 73.4645 36.2879 76.1615C36.2672 77.1787 37.1979 78.1492 38.2324 78.106C39.3041 78.0576 40.1545 77.2513 40.177 76.1615C40.2346 73.465 40.2274 70.7683 40.1554 68.0713C40.1277 67.055 39.2799 66.0835 38.2108 66.1268C37.1798 66.1726 36.2369 66.9824 36.2663 68.0713Z" fill="#31348B"/>
<path d="M47.6247 68.0713C47.6956 70.7677 47.7028 73.4645 47.6463 76.1615C47.6256 77.1787 48.5563 78.1492 49.5908 78.106C50.6634 78.0576 51.5129 77.2513 51.5354 76.1615C51.593 73.465 51.5858 70.7683 51.5138 68.0713C51.487 67.055 50.6383 66.0835 49.5692 66.1268C48.5382 66.1726 47.5953 66.9824 47.6247 68.0713Z" fill="#31348B"/>
<path d="M58.984 68.0713C59.0549 70.7677 59.0624 73.4645 59.0065 76.1615C58.9849 77.1787 59.9157 78.1492 60.9511 78.106C62.0227 78.0576 62.8723 77.2513 62.8956 76.1615C62.9532 73.465 62.9457 70.7683 62.8731 68.0713C62.8463 67.055 61.9976 66.0835 60.9286 66.1268C59.8975 66.1726 58.9555 66.9824 58.984 68.0713Z" fill="#31348B"/>
<path d="M70.3424 68.0713C70.4133 70.7677 70.4208 73.4645 70.3649 76.1615C70.3433 77.1787 71.2741 78.1492 72.3094 78.106C73.3811 78.0576 74.2307 77.2513 74.254 76.1615C74.3116 73.465 74.3041 70.7683 74.2315 68.0713C74.2047 67.055 73.356 66.0835 72.287 66.1268C71.2568 66.1726 70.3139 66.9824 70.3424 68.0713Z" fill="#31348B"/>
<path d="M24.9069 24.0663C24.9789 26.7628 24.9864 29.4595 24.9294 32.1565C24.9077 33.1737 25.8394 34.1443 26.8739 34.101C27.9456 34.0526 28.796 33.2472 28.8184 32.1565C28.8761 29.4601 28.8686 26.7633 28.796 24.0663C28.7692 23.0508 27.9214 22.0743 26.8514 22.1218C25.8213 22.1685 24.8784 22.9774 24.9069 24.0663Z" fill="#31348B"/>
<path d="M36.2663 24.0663C36.3372 26.7628 36.3444 29.4595 36.2879 32.1565C36.2672 33.1737 37.1979 34.1443 38.2324 34.101C39.3041 34.0526 40.1545 33.2472 40.177 32.1565C40.2346 29.4601 40.2274 26.7633 40.1554 24.0663C40.1277 23.0508 39.2799 22.0743 38.2108 22.1218C37.1798 22.1685 36.2369 22.9774 36.2663 24.0663Z" fill="#31348B"/>
<path d="M47.6247 24.0663C47.6956 26.7628 47.7028 29.4595 47.6463 32.1565C47.6256 33.1737 48.5563 34.1443 49.5908 34.101C50.6634 34.0526 51.5129 33.2472 51.5354 32.1565C51.593 29.4601 51.5858 26.7633 51.5138 24.0663C51.487 23.0508 50.6383 22.0743 49.5692 22.1218C48.5382 22.1685 47.5953 22.9774 47.6247 24.0663Z" fill="#31348B"/>
<path d="M58.984 24.0663C59.0549 26.7628 59.0624 29.4595 59.0065 32.1565C58.9849 33.1737 59.9157 34.1443 60.9511 34.101C62.0227 34.0526 62.8723 33.2472 62.8956 32.1565C62.9532 29.4601 62.9457 26.7633 62.8731 24.0663C62.8463 23.0508 61.9976 22.0743 60.9286 22.1218C59.8975 22.1685 58.9555 22.9774 58.984 24.0663Z" fill="#31348B"/>
<path d="M70.3424 24.0663C70.4133 26.7628 70.4208 29.4595 70.3649 32.1565C70.3433 33.1737 71.2741 34.1443 72.3094 34.101C73.3811 34.0526 74.2307 33.2472 74.254 32.1565C74.3116 29.4601 74.3041 26.7633 74.2315 24.0663C74.2047 23.0508 73.356 22.0743 72.287 22.1218C71.2568 22.1685 70.3139 22.9774 70.3424 24.0663Z" fill="#31348B"/>
<path d="M50.9879 53.0855C49.9336 54.1701 48.4393 54.9644 47.0124 55.4553C46.7929 55.5305 46.2657 55.8874 45.9045 55.3179C45.5432 54.7483 45.5769 53.2273 45.5588 52.3751C45.513 50.2396 45.608 47.8586 45.5588 45.7204C45.5458 45.1276 45.5838 44.431 46.0773 44.1017C46.3928 43.8908 46.8162 43.9047 47.1697 44.043C47.5232 44.1812 47.7937 44.4638 48.11 44.673C50.2663 46.099 51.9697 47.4161 54.0517 48.8991C54.7379 49.3883 55.9807 50.4842 55.9807 50.4842C53.3378 52.4503 52.6715 52.2455 50.9888 53.3016C50.3424 53.7086 47.8723 55.0154 46.6477 55.4449" fill="white"/>
<path d="M50.8861 52.7585C49.9838 52.9996 49.2147 53.672 48.4006 54.1231C48.015 54.3359 47.6164 54.5241 47.207 54.6866C47.0411 54.7532 46.8717 54.8119 46.7066 54.8819C46.303 55.0548 46.6556 54.8819 46.5269 54.9571C46.4327 55.0107 46.3679 54.9476 46.4586 55.0116C46.3099 54.907 46.2797 54.5129 46.2555 54.3513C46.2013 53.9377 46.1707 53.5213 46.1639 53.1042C46.1328 52.1794 46.1639 51.2487 46.1855 50.3248C46.2132 49.2272 46.2529 48.1296 46.2719 47.032C46.2806 46.5515 46.2762 46.0701 46.2832 45.5896C46.2832 45.3537 46.2624 44.8628 46.5156 44.7254C46.8052 44.5715 47.207 44.9578 47.4041 45.1065C47.8613 45.4522 48.3504 45.7581 48.8214 46.0848C49.6744 46.6759 50.5145 47.2861 51.3519 47.8997C52.7693 48.9368 54.1175 49.8953 55.4329 51.0577L55.5617 49.8201C54.764 50.4069 53.7381 51.0775 52.9603 51.4224C52.2879 51.7171 51.5896 51.9634 50.9492 52.3272C49.4644 53.1725 47.9892 54.0307 46.399 54.6417C45.4034 55.0271 45.845 56.5949 46.8855 56.2518C48.6036 55.6857 50.2094 54.7316 51.7711 53.8319C52.396 53.4724 53.0536 53.1837 53.6966 52.8579C54.6407 52.3668 55.5413 51.7964 56.3888 51.1527C56.7751 50.8658 56.9255 50.2738 56.5175 49.9151C55.1192 48.6888 53.6042 47.6309 52.1012 46.5403C51.0866 45.8031 50.0685 45.0711 49.028 44.3719C48.1119 43.76 47.1526 42.8396 45.9599 43.3201C44.7673 43.8006 44.807 45.135 44.8407 46.2075C44.8805 47.484 44.8796 48.7605 44.8926 50.037C44.9038 51.1493 44.9488 52.2598 44.9635 53.3712C44.9747 54.1707 44.9401 55.2726 45.5382 55.8931C45.9435 56.314 46.4888 56.3529 47.0152 56.1584C47.5156 55.9735 48.0177 55.7954 48.5051 55.5776C49.582 55.0971 51.0037 54.4118 51.32 53.1751C51.3342 53.1162 51.3326 53.0547 51.3156 52.9966C51.2985 52.9385 51.2665 52.886 51.2228 52.8442C51.179 52.8023 51.1251 52.7727 51.0663 52.7583C51.0075 52.7439 50.946 52.7451 50.8878 52.7619L50.8861 52.7585Z" fill="white"/>
</svg>
