<svg width="101" height="82" viewBox="0 0 101 82" fill="none" xmlns="http://www.w3.org/2000/svg">
<path d="M8.55153 35.1353C9.0644 36.2781 9.40631 37.4209 9.96477 38.4722C10.5232 39.5236 11.0361 40.5864 11.5261 41.672C12.5215 43.8661 13.4902 46.064 14.4324 48.2658C16.4383 52.974 18.8088 57.5108 20.8375 62.1962C21.2136 63.0647 21.4415 63.9446 21.7607 64.8131C22.2051 65.9559 21.3048 64.6417 21.8974 64.8931C22.1026 64.7902 22.1481 64.756 22.0342 64.7674H21.5669C20.4625 64.7087 19.3583 64.8873 18.3283 65.2913C17.2983 65.6954 16.3664 66.3155 15.5949 67.1101C14.0752 68.5123 12.4267 69.7673 10.6714 70.8583C8.75668 72.0011 6.77361 73.0639 4.80193 74.1267L8.7453 77.9093C9.82705 75.7488 11.4083 73.8789 13.3571 72.4556C15.3059 71.0322 17.5659 70.0967 19.9485 69.727C20.3674 69.716 20.7791 69.6154 21.156 69.4318C21.533 69.2482 21.8664 68.986 22.1341 68.6627C22.4017 68.3394 22.5973 67.9625 22.7078 67.5572C22.8183 67.1519 22.8412 66.7276 22.7748 66.3128C22.7084 65.8979 22.5544 65.502 22.323 65.1517C22.0916 64.8014 21.7883 64.5047 21.4332 64.2816C21.0782 64.0584 20.6797 63.9139 20.2644 63.8578C19.8491 63.8016 19.4267 63.8351 19.0254 63.956C15.8234 64.5926 12.8008 65.9293 10.1729 67.871C7.54506 69.8126 5.37652 72.3115 3.82179 75.1895C2.40856 77.8064 5.34899 80.1834 7.76516 78.9492C10.0861 77.8656 12.3427 76.6484 14.5236 75.3037C16.4057 73.8685 18.1984 72.3191 19.8916 70.6641C20.5868 70.0813 21.2478 70.1841 22.171 70.0927C23.5173 70.0244 24.7931 69.468 25.761 68.5271C27.3452 66.8358 27.2312 64.2874 26.5018 62.2304C25.5123 59.7525 24.3978 57.3268 23.1625 54.9624C21.8518 52.2312 20.5982 49.4657 19.2077 46.7687C18.068 44.4832 16.9283 42.1177 15.5151 39.9121C14.7971 38.7693 14.0221 37.6266 13.2357 36.4838C12.3833 35.4577 11.4158 34.5335 10.3523 33.7297C10.1489 33.5813 9.90236 33.5044 9.65094 33.5112C9.39952 33.5179 9.15738 33.6078 8.96226 33.767C8.76714 33.9261 8.63001 34.1455 8.57221 34.3909C8.51441 34.6363 8.53919 34.8941 8.64271 35.1239L8.55153 35.1353Z" fill="#FFD447"/>
<path d="M4.64194 76.7663C4.35702 77.0863 4.07209 77.4062 3.75298 77.7034L4.28864 78.2176C5.38465 77.0426 6.35488 75.7556 7.18346 74.3779C7.73052 73.5437 6.78457 72.7323 6.04377 72.8923C5.04083 73.0866 4.28863 74.4007 3.76437 75.1778C3.24011 75.9549 2.47651 77.1663 3.00077 78.1376C3.87834 79.7375 6.89854 79.4518 8.41434 79.7261C10.7713 80.1639 13.1632 80.3858 15.5603 80.3889C20.3812 80.3317 25.0425 79.029 29.6469 77.7605C31.8261 77.0655 34.055 76.5383 36.3141 76.1835C37.2373 76.0692 37.8185 76.732 38.5935 77.1091C39.6776 77.6406 40.8274 78.0249 42.0126 78.2519L42.5711 73.2237C40.4816 73.3837 38.4036 73.6122 36.3369 73.9094C34.2024 74.0714 32.0903 74.4544 30.0344 75.0521C27.4473 76.0121 27.812 80.2746 30.8322 80.0803C32.8609 79.9432 34.8781 79.349 36.8954 79.0175C38.9127 78.6861 40.759 78.4804 42.6965 78.2976C43.3094 78.2717 43.8931 78.0272 44.3423 77.6082C44.7915 77.1892 45.0768 76.6232 45.1468 76.0121C45.2185 75.3996 45.0664 74.7818 44.7185 74.2733C44.3706 73.7648 43.8506 73.4 43.2549 73.2466C42.3252 73.1253 41.421 72.8552 40.5766 72.4466C39.8575 71.9891 39.0938 71.6062 38.2972 71.3039C36.4395 70.8125 34.3653 71.4524 32.5987 71.8867C28.7579 72.8237 25.0311 74.1722 21.2018 75.0636C17.3724 75.9549 13.315 75.9092 9.36029 76.4006C8.39155 76.5263 7.43421 76.6291 6.46547 76.6863H5.67907C5.29157 76.5606 5.14341 76.6863 5.23459 77.0063C5.06363 77.1434 5.12061 77.2805 5.31436 77.0977C5.61814 76.6497 5.87408 76.1709 6.07796 75.6692C6.22612 75.4521 6.40847 75.2464 6.54524 75.0179C6.682 74.7893 7.01251 74.6864 6.68199 74.7893L5.5423 73.3037C4.94965 74.4465 2.85261 76.8806 3.92393 78.149C3.96644 78.1854 4.01631 78.2122 4.07009 78.2274C4.12388 78.2426 4.1803 78.246 4.23551 78.2373C4.29072 78.2286 4.34343 78.2081 4.38997 78.1771C4.43652 78.146 4.47582 78.1053 4.50518 78.0576C4.72173 77.6805 4.94967 77.3377 5.2004 76.972C5.45113 76.6063 4.99525 76.4806 4.8015 76.6863L4.64194 76.7663Z" fill="#FFD447"/>
<path d="M15.5833 78.3659C16.7603 77.8858 17.9028 77.3245 19.0024 76.6861L19.5723 76.4461L20.2219 76.1718C20.7689 75.9547 21.3616 75.749 21.8745 75.5547C22.9458 75.1776 24.0399 74.8576 25.1454 74.5834C26.1454 74.2386 27.1999 74.0798 28.2568 74.1148C28.8796 74.0852 29.4662 73.8131 29.8919 73.3564C30.3176 72.8996 30.5488 72.2943 30.5362 71.6693C30.493 71.0498 30.2174 70.4697 29.7649 70.0457C29.3124 69.6216 28.7166 69.3852 28.0972 69.3838C26.6997 69.4286 25.3168 69.6829 23.9943 70.138C22.8546 70.4694 21.7149 70.8694 20.5752 71.2808C19.4355 71.6922 18.1248 72.3093 16.9395 72.9035C15.7002 73.4315 14.5474 74.1443 13.5204 75.0176C13.2247 75.3479 13.0434 75.7652 13.0037 76.2072C12.9639 76.6493 13.0678 77.0924 13.2999 77.4704C13.532 77.8483 13.8797 78.1409 14.2913 78.3044C14.7028 78.4678 15.1561 78.4935 15.5833 78.3774V78.3659Z" fill="#FFD447"/>
<path d="M18.5921 73.338C19.2922 73.1104 20.0141 72.9572 20.7461 72.8809C21.316 72.7667 21.8858 72.6524 22.4671 72.561C23.8728 72.378 25.2938 72.3435 26.7068 72.4581C28.0174 72.5495 29.3167 72.7324 30.6159 72.9495C31.1894 73.0438 31.7566 73.1736 32.3141 73.338C32.6758 73.4412 32.9952 73.6574 33.2259 73.9552C33.4713 74.1893 33.7604 74.3726 34.0765 74.4947C34.3926 74.6168 34.7296 74.6753 35.0683 74.6668C35.4069 74.6583 35.7406 74.583 36.0502 74.4452C36.3599 74.3074 36.6394 74.1098 36.8729 73.8637C37.1064 73.6176 37.2892 73.3278 37.411 73.0108C37.5328 72.6938 37.5911 72.3559 37.5826 72.0164C37.5742 71.6768 37.4991 71.3422 37.3617 71.0317C37.2242 70.7212 37.0272 70.441 36.7817 70.2068C34.1376 67.9213 30.1715 68.1499 26.8891 68.2756C25.2028 68.3284 23.5263 68.5543 21.8858 68.9498C21.0383 69.162 20.2222 69.4847 19.4583 69.9097C18.761 70.3781 18.1051 70.9057 17.498 71.4868C17.3365 71.6701 17.238 71.9006 17.2169 72.1444C17.1958 72.3881 17.2533 72.6322 17.3809 72.8407C17.5085 73.0492 17.6994 73.2112 17.9257 73.3027C18.1519 73.3943 18.4015 73.4107 18.6377 73.3495L18.5921 73.338Z" fill="#FFD447"/>
<path d="M13.7597 77.9891C13.7597 77.6692 13.8167 77.3606 13.8395 77.0406V77.2234L13.9078 77.0635L13.3722 77.6234C13.5273 77.5823 13.6727 77.5106 13.7999 77.4125C13.9271 77.3144 14.0335 77.1918 14.113 77.052C14.1388 77.0095 14.158 76.9632 14.17 76.9149C14.2497 76.7435 14.3181 76.5721 14.3865 76.3892C14.4606 76.0658 14.4606 75.7298 14.3865 75.4064L11.6056 75.8521L11.5486 75.4749C11.6002 75.7845 11.6231 76.0982 11.617 76.4121V76.7663C11.6281 76.9807 11.6824 77.1907 11.7766 77.3835C11.8405 77.571 11.9549 77.7371 12.1071 77.8634L12.4148 78.092C12.7245 78.2509 13.0824 78.2876 13.4178 78.1948H13.4747C13.6636 78.1443 13.8363 78.0459 13.9762 77.9091C14.088 77.8448 14.179 77.7496 14.2383 77.6349C14.3738 77.4734 14.4677 77.2811 14.5119 77.0749C14.5801 76.7431 14.5801 76.401 14.5119 76.0692C14.4585 75.6823 14.3747 75.3001 14.2611 74.9264C14.1515 74.5724 13.9109 74.2739 13.5887 74.0922C13.4164 73.9969 13.227 73.9368 13.0314 73.9152C12.8358 73.8937 12.6379 73.911 12.449 73.9664C12.0923 74.0759 11.7932 74.3224 11.617 74.6521C11.5221 74.825 11.4631 75.0154 11.4435 75.2118C11.4239 75.4082 11.4442 75.6066 11.5031 75.7949C11.563 76.1104 11.6706 76.4149 11.8222 76.6978L11.9931 76.9263L12.0729 77.052C12.2575 77.3226 12.5393 77.5109 12.8593 77.5777L12.3009 77.0406L12.3692 77.2006V77.0178C12.3863 77.2727 12.3863 77.5285 12.3692 77.7834C12.3718 77.9643 12.4455 78.1368 12.5744 78.2634C12.6877 78.3675 12.8317 78.4317 12.9847 78.4463C13.1497 78.4677 13.3168 78.4269 13.4537 78.3319C13.5905 78.2369 13.6874 78.0944 13.7255 77.932L13.7597 77.9891Z" fill="#FFD447"/>
<path d="M10.6825 36.6782C10.9332 36.7353 11.1953 37.0324 11.4347 37.1467C11.674 37.2609 12.2552 37.501 12.6541 37.6724C12.9048 37.8112 13.1803 37.8991 13.4649 37.9312C13.7495 37.9632 14.0376 37.9388 14.3128 37.8592C14.5879 37.7796 14.8448 37.6465 15.0686 37.4673C15.2924 37.2882 15.4789 37.0667 15.6174 36.8153C15.7558 36.5639 15.8435 36.2876 15.8755 36.0023C15.9074 35.7169 15.883 35.428 15.8037 35.1521C15.7243 34.8762 15.5915 34.6187 15.4129 34.3943C15.2342 34.1698 15.0133 33.9829 14.7626 33.8441C14.2497 33.4784 13.7254 33.1355 13.2012 32.7927L11.4802 37.0667C14.1471 38.0609 16.9736 38.918 19.7203 39.6951C22.4669 40.4722 25.0199 39.6951 27.8577 39.238C30.6956 38.7809 33.5562 39.5122 36.3257 39.0894C38.89 38.7123 41.215 37.4781 43.6426 36.6096C43.9702 36.4996 44.2594 36.2975 44.4756 36.0273C44.6918 35.7571 44.826 35.4302 44.862 35.0857C44.8981 34.7411 44.8345 34.3935 44.6789 34.0842C44.5233 33.7749 44.2822 33.517 43.9845 33.3412C41.386 32.0042 39.0496 33.2612 36.5194 34.0269C33.9893 34.7926 31.1742 34.1755 28.5415 34.404C25.9088 34.6326 23.4357 35.9239 20.8372 35.2497C18.0449 34.5183 15.3894 33.3298 12.6085 32.5642C10.1126 31.8785 8.56261 35.6725 10.9332 36.8496C11.4916 37.1238 12.0729 37.4095 12.6199 37.6724L13.6229 33.5698C12.3496 33.5225 11.0949 33.887 10.0442 34.6097C9.89416 34.7678 9.78818 34.9627 9.73688 35.1749C9.68559 35.387 9.69079 35.6089 9.75196 35.8184C9.81314 36.0279 9.92813 36.2176 10.0854 36.3685C10.2427 36.5194 10.4368 36.6262 10.6483 36.6782H10.6825Z" fill="#FFD447"/>
<path d="M42.9359 32.9293C41.8041 36.2584 41.0733 39.7112 40.7591 43.2143C40.3602 46.734 40.0069 50.2766 39.8929 53.8192C39.7084 60.8699 40.3394 67.9183 41.7734 74.8233C42.3091 77.5774 46.7881 76.3318 45.9903 73.5434C44.1554 67.1096 43.9844 60.093 44.1896 53.4421C44.2883 50.0823 44.4707 46.7264 44.7366 43.3742C45.1341 39.9603 45.1952 36.5153 44.919 33.0893C44.9014 32.8523 44.8017 32.6289 44.637 32.458C44.4723 32.287 44.2532 32.1793 44.0175 32.1535C43.7819 32.1277 43.5447 32.1854 43.3471 32.3167C43.1495 32.448 43.004 32.6445 42.9359 32.8722V32.9293Z" fill="#FFD447"/>
<path d="M13.1442 36.9638C13.2348 38.4106 13.6229 39.8229 14.2839 41.112C14.8424 42.4491 15.4236 43.7519 16.0504 45.0661C17.3383 47.8773 18.7401 50.6085 20.1192 53.3625C21.4982 56.1166 22.7291 58.585 23.8802 61.2705C24.4501 62.5961 25.0199 63.9332 25.453 65.293C25.7058 65.9195 25.9078 66.5653 26.057 67.2243C26.057 67.3843 26.057 67.6814 26.1254 67.83C26.1938 67.9786 26.1254 68.07 26.2394 67.7272C26.3533 67.3843 26.3989 67.35 26.1254 67.7272C24.1537 69.8184 26.775 72.5154 29.1 71.4069C32.371 69.8527 31.1743 65.693 30.2397 63.0875C29.0321 59.7638 27.5767 56.5359 25.8861 53.4311C24.2449 50.4485 22.5581 47.4773 20.7004 44.6318C19.7773 43.2033 18.8541 41.7748 17.9652 40.3235C17.2108 38.7761 16.1882 37.3753 14.9449 36.1867C14.7826 36.0664 14.5913 35.9915 14.3906 35.9696C14.19 35.9477 13.9871 35.9797 13.8028 36.0622C13.6184 36.1447 13.4593 36.2749 13.3416 36.4393C13.2239 36.6037 13.1518 36.7966 13.1328 36.9981L13.1442 36.9638Z" fill="#FFD447"/>
<path d="M17.179 39.4092C17.9426 40.6777 18.615 42.0033 19.3786 43.2718C20.1422 44.5402 20.9742 45.5573 21.7264 46.7001C23.2505 49.1414 24.544 51.72 25.59 54.4024C26.6385 57.0193 27.6414 59.6591 28.6216 62.3104C29.1116 63.636 29.5903 64.9616 29.955 66.3329C30.3197 67.7043 30.5135 69.4298 31.0947 70.904C31.2767 71.4428 31.6213 71.9116 32.0807 72.2453C32.5401 72.579 33.0917 72.7613 33.659 72.7668H33.8414L31.9723 71.7497C32.2711 72.2318 32.7481 72.5758 33.2991 72.7064C33.85 72.837 34.4301 72.7437 34.9127 72.4468C35.3844 72.1392 35.7198 71.6613 35.8493 71.1122C35.9787 70.5632 35.8923 69.9853 35.6079 69.4984L35.3458 72.0925L35.4825 71.944C35.7957 71.6062 36.0159 71.1928 36.1218 70.7441C36.2277 70.2953 36.2156 69.8268 36.0866 69.3842C35.5965 67.9671 35.5167 66.4701 35.1178 65.0302C34.6849 63.5891 34.1713 62.1735 33.5792 60.7905C32.4395 57.9792 31.2998 55.1452 29.9436 52.4254C28.6439 49.8239 27.1184 47.3421 25.3848 45.0088C24.5072 43.866 23.5727 42.7232 22.604 41.5804C21.6352 40.4377 20.3246 39.3521 19.3216 38.0264C19.1311 37.7697 18.8515 37.5939 18.5381 37.5337C18.2247 37.4734 17.9001 37.533 17.6284 37.7008C17.3566 37.8686 17.1575 38.1324 17.07 38.4401C16.9826 38.7479 17.0134 39.0773 17.1562 39.3635L17.179 39.4092Z" fill="#FFD447"/>
<path d="M19.3214 39.638C19.8964 40.2886 20.3796 41.0153 20.7574 41.7978C21.1107 42.4035 21.5894 42.9406 21.9769 43.5462C22.8203 44.849 23.732 46.106 24.5298 47.4431C26.1859 50.3604 27.6811 53.3666 29.0088 56.4482C31.8695 62.7905 34.7073 69.1215 37.5224 75.5096C37.7451 76.1772 38.2134 76.7345 38.8318 77.0678C39.4501 77.4012 40.172 77.4856 40.8503 77.3038C41.5258 77.0953 42.0917 76.6276 42.4247 76.0025C42.7577 75.3775 42.8309 74.6457 42.6282 73.9668C39.9157 66.9959 36.622 60.2536 33.2599 53.6027C31.7762 50.4773 29.9816 47.51 27.9033 44.7462C26.8678 43.3654 25.6744 42.1112 24.3475 41.0093C23.765 40.504 23.1352 40.0562 22.467 39.6723C21.6787 39.3248 20.9169 38.9199 20.1876 38.4609C19.4924 37.981 18.7629 39.078 19.3328 39.6037L19.3214 39.638Z" fill="#FFD447"/>
<path d="M42.5825 74.9841C43.0156 71.5558 41.6252 67.9446 40.3031 64.8248C38.8329 61.4765 37.8414 57.9111 36.1319 54.677C34.4137 51.7162 32.318 48.9925 29.8977 46.5748C28.8378 45.432 27.7437 44.2893 26.7863 43.0665C26.3321 42.4919 25.9208 41.8846 25.5555 41.2495C25.2268 40.463 24.846 39.6995 24.4158 38.9639C24.0932 38.4775 23.6235 38.1076 23.0758 37.9086C22.528 37.7095 21.9311 37.6918 21.3726 37.858C20.8141 38.0242 20.3234 38.3656 19.9727 38.8321C19.6219 39.2985 19.4296 39.8654 19.4239 40.4495C19.3213 42.1066 20.4268 43.8778 21.3728 45.1806C22.3575 46.4975 23.4725 47.7112 24.7007 48.8032C27.2055 50.9179 29.4512 53.323 31.3907 55.9683C33.3168 58.8253 34.3653 62.1279 35.8469 65.2134C36.6105 66.8247 37.5109 68.3446 38.3087 69.933C39.1065 71.5215 39.7561 73.3613 40.4741 75.0869C40.8388 75.9669 42.4686 76.2297 42.6167 75.0298L42.5825 74.9841Z" fill="#FFD447"/>
<path d="M22.7297 40.0377C23.0602 40.2663 23.3679 40.872 23.744 41.1805C24.1201 41.4891 24.5874 41.9005 24.9863 42.3233C25.7933 43.125 26.5543 43.9721 27.2657 44.8602C28.8447 46.9474 30.2259 49.1779 31.3914 51.5226C33.9105 56.1571 36.1336 60.9473 38.0472 65.8644L43.3126 63.476L43.1303 63.2246C41.5689 61.0305 37.8421 61.8418 37.9219 64.7788V65.0873C37.9261 65.5081 38.0208 65.923 38.1995 66.3037C38.3782 66.6844 38.6368 67.022 38.9575 67.2934C39.2782 67.5648 39.6535 67.7637 40.0578 67.8764C40.4621 67.9891 40.8859 68.013 41.3003 67.9466C41.7147 67.8801 42.1099 67.7247 42.459 67.4912C42.808 67.2576 43.1027 66.9512 43.323 66.593C43.5432 66.2348 43.6838 65.8332 43.7351 65.4156C43.7864 64.998 43.7473 64.5742 43.6204 64.1731C42.7734 61.2915 41.6275 58.507 40.2013 55.8651C38.8792 53.2253 37.5572 50.5855 35.9958 48.0829C34.5426 45.6429 32.7505 43.4227 30.6734 41.4891C29.695 40.614 28.6251 39.8477 27.4822 39.2035C26.8763 38.854 26.2481 38.5448 25.6017 38.2779C24.9197 38.1072 24.2266 37.985 23.5275 37.9122C22.1598 37.5351 21.6242 39.375 22.6727 40.0949L22.7297 40.0377Z" fill="#FFD447"/>
<path d="M39.9729 62.0131C43.392 57.7277 42.0358 51.7282 39.1865 47.5342C37.7309 45.4771 36.036 43.6011 34.1377 41.9461C32.2539 40.4898 30.5848 38.7739 29.18 36.8493L26.023 41.1918C30.4608 42.1347 34.378 44.7273 36.9869 48.4484C37.2928 48.9286 37.7318 49.3087 38.2501 49.5421C38.7684 49.7756 39.3434 49.8522 39.9045 49.7626C40.4624 49.6783 40.983 49.4304 41.4007 49.0501C41.8185 48.6699 42.1148 48.1743 42.2523 47.6256C42.7188 45.4278 42.4675 43.1379 41.5357 41.0943C40.6039 39.0507 39.041 37.362 37.0781 36.2779C33.8642 34.598 31.3796 39.2377 34.3884 41.169C37.3972 43.1003 40.6339 41.8204 43.4034 40.3005L39.4715 36.5522C38.3303 38.4057 37.867 40.5992 38.1608 42.7574C38.1987 43.5023 38.52 44.2042 39.0586 44.7187C39.5971 45.2331 40.3118 45.521 41.0556 45.5229C41.8033 45.499 42.5117 45.1813 43.0277 44.6382C43.5437 44.0951 43.8261 43.3703 43.8137 42.6203C43.5736 41.4721 43.7772 40.2753 44.3836 39.272C45.8766 36.7465 42.7994 34.1981 40.4516 35.5122C39.4145 36.0951 38.1722 36.9864 37.0325 36.2779L34.3428 41.169C35.2606 41.6294 35.9928 42.3919 36.4171 43.3288C36.4171 43.3974 36.5994 43.8545 36.6564 44.0602C36.7134 44.2659 36.7362 44.3687 36.7704 44.5287C36.7704 44.3687 36.7704 44.3916 36.7704 44.5287C36.8533 45.082 36.7823 45.6475 36.5652 46.1629L41.842 45.3401C40.2224 42.8201 38.1113 40.6545 35.6357 38.9735C33.1601 37.2924 30.3711 36.1307 27.4362 35.558C26.8215 35.4225 26.1795 35.4901 25.6061 35.7506C25.0328 36.011 24.5588 36.4504 24.255 37.0032C23.9512 37.5559 23.8337 38.1924 23.9203 38.8175C24.0068 39.4427 24.2927 40.023 24.7352 40.4719C27.7326 43.6945 31.5733 46.0829 34.377 49.4198C37.1582 52.7342 38.5367 57.0077 38.2178 61.3275C38.2279 61.5281 38.2957 61.7216 38.4131 61.8844C38.5305 62.0472 38.6924 62.1725 38.8792 62.245C39.0661 62.3175 39.2699 62.3342 39.466 62.293C39.6621 62.2519 39.8421 62.1547 39.9843 62.0131H39.9729Z" fill="#FFD447"/>
<path d="M91.0428 33.7865C89.9727 34.6043 89.0047 35.5481 88.1593 36.5977C87.3501 37.7405 86.5638 38.8261 85.8799 40.026C84.5123 42.2316 83.3498 44.5971 82.1645 46.8826C80.7855 49.5796 79.5318 52.3451 78.2212 55.0763C76.9819 57.4392 75.8747 59.8695 74.9047 62.3558C74.1753 64.447 74.1525 66.9268 75.7708 68.6296C76.7611 69.5432 78.0497 70.0633 79.3951 70.0923C80.1827 70.0369 80.9627 70.2772 81.5833 70.7665C82.3583 71.4179 82.9851 72.2179 83.7373 72.9035C84.755 73.8089 85.841 74.6342 86.9854 75.3719C89.165 76.7189 91.4217 77.9362 93.7438 79.0174C94.2875 79.3025 94.9089 79.4025 95.5142 79.3024C96.1196 79.2022 96.676 78.9072 97.0994 78.462C97.5228 78.0168 97.7903 77.4455 97.8614 76.8344C97.9324 76.2234 97.8033 75.6058 97.4934 75.0748C95.9131 72.1968 93.717 69.7052 91.0628 67.7788C88.4086 65.8524 85.362 64.539 82.1417 63.9328C81.3886 63.761 80.5984 63.8873 79.936 64.2855C79.2735 64.6836 78.7898 65.3228 78.5859 66.0698C78.4027 66.8287 78.5247 67.6294 78.9257 68.2987C79.3267 68.9681 79.9743 69.4523 80.7285 69.6466C83.2493 69.9526 85.6555 70.8784 87.7333 72.3418C89.8111 73.8052 91.4961 75.7607 92.6383 78.0346L96.3879 74.092C94.4163 73.0292 92.4446 71.9779 90.5185 70.8237C88.7785 69.713 87.1421 68.447 85.6292 67.0411C84.8525 66.244 83.9116 65.6265 82.8722 65.2317C81.8329 64.837 80.7201 64.6744 79.6116 64.7556H79.2013C78.9506 64.6299 79.0646 64.7556 79.5432 65.0412C79.5432 65.0412 79.4863 64.8356 79.5432 64.687C79.8805 63.8796 80.1772 63.0558 80.4322 62.2186C82.5178 57.5218 84.8542 52.9393 86.8715 48.2082C87.806 45.9913 88.7976 43.7972 89.7891 41.603C90.2792 40.4603 90.8376 39.4432 91.3619 38.369C91.8861 37.2948 92.2508 36.152 92.7523 35.0664C92.8476 34.8311 92.862 34.5706 92.7933 34.3262C92.7245 34.0818 92.5765 33.8673 92.3726 33.7166C92.1687 33.5659 91.9206 33.4876 91.6674 33.494C91.4142 33.5005 91.1704 33.5913 90.9744 33.7522L91.0428 33.7865Z" fill="#FFD447"/>
<path d="M96.3194 77.0751C96.5587 77.4408 96.798 77.7951 97.0146 78.2179C97.0499 78.261 97.0942 78.2957 97.1445 78.3195C97.1947 78.3433 97.2496 78.3557 97.3052 78.3557C97.3608 78.3557 97.4157 78.3433 97.4659 78.3195C97.5162 78.2957 97.5606 78.261 97.5958 78.2179C98.6558 76.9723 96.5245 74.481 95.9433 73.3383L94.8036 74.8924C94.5756 74.8124 95.2253 75.5553 95.3848 75.8067C95.5444 76.0581 95.8407 76.7095 96.1028 77.1323C96.4903 77.7608 96.1826 76.8466 96.1028 76.7894C95.6296 76.7395 95.1528 76.7319 94.6782 76.7666C93.6867 76.698 92.7179 76.5723 91.7378 76.4581C87.7717 76.0009 83.7599 76.0009 79.8963 75.0753C76.0328 74.1496 72.4997 72.8697 68.7387 71.9555C66.995 71.5327 65.0005 70.9156 63.1998 71.3727C62.322 71.6871 61.4811 72.0972 60.6925 72.5954C59.8367 72.9798 58.9313 73.2414 58.0028 73.3725C57.413 73.5483 56.9083 73.9353 56.5846 74.46C56.261 74.9847 56.141 75.6104 56.2476 76.218C56.3524 76.8204 56.666 77.3663 57.1331 77.7594C57.6002 78.1525 58.1908 78.3675 58.8006 78.3665C60.7381 78.5608 62.6755 78.8122 64.6016 79.1322C66.6044 79.5729 68.628 79.9123 70.6648 80.1492C71.2815 80.1352 71.8716 79.8948 72.3233 79.4735C72.7749 79.0522 73.0567 78.4794 73.1152 77.8637C73.1721 77.252 73.0126 76.6398 72.6646 76.1342C72.3167 75.6286 71.8024 75.2618 71.2119 75.0981C69.2064 74.5004 67.1434 74.1174 65.0575 73.9554C62.9377 73.6735 60.8102 73.4449 58.6752 73.2697L59.473 78.2751C60.6591 78.0516 61.8094 77.6671 62.8921 77.1323C63.7468 76.7209 64.2369 76.1838 64.9663 76.2523C67.2283 76.5817 69.4586 77.1017 71.6335 77.8065C76.3291 79.0979 81.0474 80.4235 85.9595 80.4692C88.3495 80.4522 90.7332 80.2228 93.0826 79.7836C94.5756 79.5436 97.5503 79.7835 98.4164 78.2179C98.9521 77.2351 98.1429 76.0124 97.6186 75.2124C97.0944 74.4125 96.3536 73.1668 95.3392 72.9269C95.1399 72.8812 94.9317 72.8949 94.7401 72.9663C94.5485 73.0377 94.3819 73.1638 94.2608 73.3289C94.1397 73.4941 94.0694 73.6911 94.0585 73.8958C94.0476 74.1005 94.0966 74.3039 94.1995 74.481C95.0274 75.8422 95.9937 77.1136 97.083 78.2751L97.5958 77.738C97.2767 77.4408 96.9918 77.1323 96.7069 76.8123C96.6676 76.7623 96.6101 76.73 96.547 76.7225C96.484 76.715 96.4205 76.7329 96.3706 76.7723C96.3208 76.8117 96.2886 76.8694 96.2811 76.9326C96.2736 76.9958 96.2915 77.0594 96.3308 77.1094L96.3194 77.0751Z" fill="#FFD447"/>
<path d="M87.7604 74.9495C86.714 74.08 85.5419 73.3749 84.2844 72.8582C83.1447 72.2868 82.005 71.784 80.7855 71.3155C79.6029 70.8428 78.3971 70.4309 77.1726 70.0813C75.8474 69.6263 74.4589 69.3833 73.0583 69.3613C72.4266 69.3765 71.8267 69.6427 71.3907 70.1013C70.9547 70.5599 70.7182 71.1734 70.7333 71.8069C70.7485 72.4403 71.0139 73.0418 71.4713 73.479C71.9287 73.9162 72.5406 74.1533 73.1723 74.1381C73.2635 74.1381 74.1638 74.1381 73.7307 74.1381C74.0452 74.1776 74.3572 74.2349 74.6653 74.3096C75.2124 74.4124 75.748 74.5381 76.2837 74.6753C77.4234 74.9495 78.4719 75.2695 79.5432 75.6466C80.5182 75.9712 81.4734 76.3528 82.4039 76.7894C83.5039 77.4205 84.6463 77.9741 85.8229 78.4464C87.8402 79.0406 89.1053 76.3665 87.7262 75.0181L87.7604 74.9495Z" fill="#FFD447"/>
<path d="M84.0788 71.6008C83.4608 71.0137 82.8019 70.4714 82.1071 69.9781C81.3908 69.5602 80.625 69.2339 79.8277 69.0068C78.1036 68.5544 76.3327 68.3051 74.5509 68.264C71.1318 68.1154 67.2455 67.9669 64.5216 70.2752C64.2881 70.5214 64.1053 70.8112 63.9835 71.1281C63.8617 71.4451 63.8034 71.783 63.8118 72.1226C63.8289 72.8084 64.117 73.4592 64.6128 73.9321C65.1085 74.4049 65.7712 74.6608 66.4552 74.6437C67.1391 74.6265 67.7883 74.3377 68.2598 73.8406C68.3613 73.7218 68.4718 73.611 68.5903 73.5092C68.3966 73.6692 68.4194 73.6692 68.6587 73.5092C68.898 73.3492 68.9436 73.3607 68.7271 73.5092L69.1944 73.3378C69.7469 73.1718 70.3106 73.0457 70.8811 72.9607H71.0748L71.6447 72.8807L72.7844 72.7322C73.4568 72.6522 74.1179 72.5836 74.7903 72.5379C76.1304 72.4216 77.479 72.4484 78.8134 72.6179C79.4516 72.7207 80.0899 72.8579 80.7281 72.9721C81.4504 73.0455 82.1618 73.2028 82.8479 73.4407C83.8965 73.9206 85.1273 72.515 84.1244 71.6923L84.0788 71.6008Z" fill="#FFD447"/>
<path d="M88.9112 77.8178C88.8941 77.5628 88.8941 77.307 88.9112 77.0521L88.82 77.4178L88.8884 77.2692L88.4211 77.6349C88.5596 77.6148 88.692 77.564 88.8086 77.4864C88.9743 77.3855 89.1116 77.2439 89.2075 77.075L89.2759 76.9721C89.3252 76.8869 89.3824 76.8066 89.4468 76.7321L89.2417 77.0064C89.4168 76.809 89.5453 76.5747 89.6178 76.3207C89.6229 76.2637 89.6229 76.2063 89.6178 76.1493L89.7203 75.8065C89.7701 75.6143 89.7806 75.414 89.7512 75.2176C89.7218 75.0212 89.6532 74.8329 89.5494 74.6637C89.3543 74.3459 89.0438 74.1165 88.6832 74.0238C88.4915 73.9739 88.2918 73.9634 88.0959 73.9929C87.9001 74.0223 87.7122 74.0911 87.5435 74.1952L87.2586 74.4238C87.0903 74.6031 86.9723 74.8239 86.9167 75.0637C86.7629 75.6178 86.6899 76.1913 86.7002 76.7664C86.6976 77.043 86.7693 77.3151 86.9077 77.5543C87.046 77.7936 87.246 77.9911 87.4866 78.1263L87.8968 78.2977C88.1801 78.3655 88.478 78.3332 88.7402 78.2063L88.9568 78.1149L88.6262 78.2634C88.8802 78.1827 89.1109 78.0415 89.2987 77.8521C89.581 77.5392 89.7357 77.1312 89.7318 76.7093V76.3893C89.7147 76.1687 89.7147 75.9471 89.7318 75.7265V76.115C89.7255 75.997 89.7255 75.8788 89.7318 75.7608L86.9737 75.0637C86.9737 75.2923 86.9053 75.5208 86.8825 75.7493C86.8314 75.9557 86.8314 76.1715 86.8825 76.3779C86.9117 76.4711 86.9459 76.5627 86.9851 76.6521L87.0535 76.8121C87.1115 76.9974 87.2132 77.1659 87.3498 77.3035C87.4581 77.405 87.5861 77.4828 87.7259 77.5321L87.3612 77.075C87.3612 77.075 87.3612 77.1778 87.3612 77.235V77.0407C87.3612 77.3035 87.3612 77.5549 87.3612 77.8063C87.3728 77.9907 87.4496 78.1649 87.5777 78.2977C87.7118 78.4193 87.8871 78.4847 88.0678 78.4806C88.1586 78.4791 88.2482 78.4595 88.3313 78.4229C88.4145 78.3864 88.4896 78.3336 88.5521 78.2677C88.6147 78.2017 88.6636 78.1239 88.6959 78.0388C88.7282 77.9537 88.7432 77.863 88.7402 77.7721L88.9112 77.8178Z" fill="#FFD447"/>
<path d="M91.2593 34.5753C90.2677 33.684 88.8773 33.7183 87.6122 33.5811L88.296 37.8665C89.0482 37.5237 89.7777 37.1695 90.5185 36.8038C92.9232 35.661 91.0769 31.9355 88.6266 32.6098C85.8571 33.3754 83.2016 34.5868 80.4093 35.2953C77.845 35.9467 75.2579 34.6325 72.6936 34.4268C70.1293 34.2211 67.2914 34.7925 64.7157 34.004C62.14 33.2154 59.929 32.0612 57.2963 33.3983C55.8033 34.1639 56.4985 36.1867 57.8091 36.6552C60.1911 37.4894 62.4933 38.7808 65.0234 39.1236C67.8385 39.5007 70.7219 38.8493 73.4914 39.2607C76.2609 39.6721 78.8252 40.5178 81.7542 39.6835C84.4895 38.9065 87.3273 38.0494 89.9942 37.0552L88.1137 32.8612C87.5894 33.204 87.0538 33.5469 86.5409 33.9125C84.6604 35.2496 85.9027 38.8836 88.3188 37.8665C88.8317 37.6494 89.3788 37.4552 89.8688 37.2037C90.1643 37.0077 90.4727 36.8321 90.792 36.6781C90.9988 36.6121 91.1851 36.4933 91.3324 36.3335C91.4798 36.1736 91.5832 35.9782 91.6326 35.7663C91.682 35.5543 91.6756 35.3331 91.6142 35.1244C91.5528 34.9156 91.4383 34.7264 91.2821 34.5753H91.2593Z" fill="#FFD447"/>
<path d="M56.6696 32.5405C56.3907 35.8847 56.4251 39.2477 56.7721 42.5855C57.0229 46.0138 57.2508 49.4421 57.3648 52.939C57.5813 59.6814 57.3648 66.778 55.5299 73.3146C54.7549 76.0573 59.2567 77.1658 59.8152 74.3774C61.2209 67.4689 61.8289 60.4212 61.6273 53.3733C61.5133 49.9449 61.1828 46.5166 60.7839 43.0883C60.4729 39.4997 59.7305 35.9619 58.5729 32.552C58.2652 31.7292 56.7607 31.512 56.6354 32.552L56.6696 32.5405Z" fill="#FFD447"/>
<path d="M86.575 36.0382C85.4103 37.0856 84.4449 38.3362 83.7257 39.7294C82.7798 41.2493 81.8338 42.7692 80.8537 44.3005C78.9504 47.226 77.1953 50.2543 75.5199 53.317C73.8719 56.3489 72.4436 59.4959 71.2461 62.7334C70.2203 65.476 68.8185 69.8071 72.3174 71.4756C72.8246 71.7387 73.409 71.8113 73.965 71.6802C74.521 71.5492 75.0119 71.2231 75.349 70.7608C75.6862 70.2986 75.8474 69.7306 75.8035 69.1596C75.7596 68.5887 75.5135 68.0522 75.1096 67.6473C75.0071 67.5444 75.2008 67.9216 75.2008 67.9216C75.2067 67.7219 75.2296 67.5231 75.2692 67.3273C75.3979 66.6881 75.5809 66.0611 75.8162 65.4532C76.2721 64.139 76.785 62.8591 77.332 61.5792C78.5515 58.7794 79.8964 56.0253 81.264 53.2941C82.6316 50.5629 83.9765 47.9802 85.2187 45.2947C85.8228 43.9805 86.4382 42.6549 86.9967 41.3179C87.698 39.9752 88.1097 38.4995 88.2048 36.9868C88.1815 36.8069 88.1158 36.6352 88.0132 36.4859C87.9107 36.3365 87.7741 36.2138 87.6149 36.1278C87.4556 36.0418 87.2783 35.9951 87.0975 35.9914C86.9166 35.9878 86.7375 36.0274 86.575 36.1068V36.0382Z" fill="#FFD447"/>
<path d="M82.1419 37.9125C81.0947 39.1831 79.98 40.3962 78.8025 41.5465C77.7601 42.7097 76.7786 43.9265 75.8621 45.1919C73.9602 47.8199 72.3007 50.6159 70.9044 53.5456C69.4912 56.4368 68.3059 59.488 67.1548 62.4935C66.5567 63.9678 66.1099 65.4994 65.8213 67.0646C65.4908 68.9958 64.6816 70.6072 66.0948 72.2756L65.696 69.6929C64.5563 72.1956 68.2945 74.264 69.4456 71.7613L67.6335 72.9041H67.85C68.4147 72.873 68.9555 72.6657 69.3969 72.3112C69.8383 71.9568 70.1581 71.4729 70.3117 70.9271C70.8246 69.5215 70.9728 68.0359 71.3489 66.5846C71.725 65.1333 72.1695 63.8877 72.6595 62.562C73.6511 59.8765 74.6654 57.1796 75.7481 54.5626C76.7823 51.9424 78.0447 49.4185 79.5205 47.0203C80.2613 45.8776 81.1275 44.7348 81.8683 43.592C82.6091 42.4493 83.3955 40.8608 84.1477 39.5352C84.8999 38.2096 83.008 36.8611 82.1191 38.0382L82.1419 37.9125Z" fill="#FFD447"/>
<path d="M81.1388 38.495C79.8053 39.4093 78.3693 39.9349 77.0929 40.952C75.7744 42.0301 74.5884 43.2615 73.5598 44.6203C71.4165 47.4765 69.5611 50.5389 68.0209 53.7624C64.6018 60.4362 61.3992 67.1672 58.6867 74.1381C57.547 76.9378 62.4135 78.8577 63.6102 76.0807C66.4253 69.5898 69.3087 63.1446 72.2605 56.6536C73.6054 53.6596 74.9844 50.6541 76.6142 47.8086C77.4348 46.3802 78.3921 45.0545 79.2925 43.6718C79.68 43.0661 80.1359 42.529 80.5234 41.8891C80.9318 41.0643 81.4452 40.2961 82.0505 39.6035C82.1659 39.4725 82.2315 39.3047 82.2358 39.1299C82.24 38.9551 82.1826 38.7845 82.0736 38.6479C81.9647 38.5114 81.8112 38.4178 81.6402 38.3835C81.4692 38.3493 81.2917 38.3767 81.1388 38.4608V38.495Z" fill="#FFD447"/>
<path d="M60.8178 75.2694C61.513 73.601 62.1057 71.8983 62.8921 70.2755C63.6784 68.6528 64.5218 67.3043 65.2626 65.7844C66.8354 62.5504 67.9295 59.0535 69.924 56.0365C71.8402 53.3653 74.084 50.9465 76.6026 48.8371C78.882 46.8029 82.1757 43.5917 81.9478 40.2891C81.811 38.1864 78.825 36.5066 77.3092 38.495C76.3405 39.7635 75.9188 41.3291 74.95 42.6204C73.9813 43.9117 72.9328 45.0088 71.8729 46.163C69.4079 48.6338 67.2427 51.3879 65.4222 54.3681C63.6898 57.465 62.7667 60.9619 61.3535 64.2074C59.9402 67.4529 58.2877 71.2126 58.7322 74.7552C58.8575 75.7151 60.3505 76.4008 60.8178 75.2694Z" fill="#FFD447"/>
<path d="M77.7081 37.912C77.0157 37.9793 76.3298 38.1016 75.6567 38.2777C75.064 38.5291 74.517 38.8263 73.9015 39.1348C72.749 39.7748 71.6711 40.5414 70.6876 41.4204C68.5466 43.3946 66.7071 45.674 65.2284 48.1856C63.7126 50.6197 62.4133 53.1909 61.1255 55.7621C59.6834 58.4723 58.537 61.3305 57.7064 64.2872C57.5914 64.6942 57.5662 65.1215 57.6326 65.5392C57.6989 65.957 57.8552 66.3553 58.0905 66.7064C58.3258 67.0575 58.6345 67.3531 58.9952 67.5725C59.3559 67.7919 59.7599 67.9299 60.1792 67.977C60.5985 68.0241 61.0229 67.9791 61.4231 67.8451C61.8233 67.7112 62.1896 67.4914 62.4965 67.2012C62.8035 66.911 63.0437 66.5573 63.2006 66.1646C63.3574 65.7719 63.4271 65.3496 63.4049 64.9272V64.6186C63.3847 64.0034 63.166 63.4113 62.7818 62.9312C62.3975 62.4511 61.8683 62.1089 61.2736 61.956C60.6705 61.8267 60.0422 61.8894 59.4763 62.1352C58.9104 62.381 58.4351 62.7977 58.1166 63.3273L57.9343 63.5901L63.3137 65.7043C65.2231 60.8781 67.4308 56.1759 69.924 51.6253C70.991 49.4706 72.2377 47.41 73.6508 45.4657C74.3712 44.5034 75.1555 43.5909 75.9986 42.7345C76.4176 42.2856 76.8629 41.8621 77.332 41.466C77.5486 41.2832 77.7879 41.1232 77.9817 40.929C78.1754 40.7347 78.4261 40.2319 78.6655 40.0719C78.9481 39.9446 79.1687 39.7099 79.2788 39.4195C79.3888 39.1291 79.3794 38.8068 79.2524 38.5234C79.1255 38.24 78.8914 38.0188 78.6018 37.9084C78.3122 37.7981 77.9907 37.8076 77.7081 37.9349V37.912Z" fill="#FFD447"/>
<path d="M63.1317 61.2931C62.8183 56.9445 64.2316 52.6481 67.0636 49.3397C69.947 46.0143 73.708 43.6259 76.7054 40.3805C77.1373 39.91 77.407 39.3129 77.4747 38.6771C77.5424 38.0413 77.4046 37.4006 77.0815 36.8493C76.7282 36.3229 76.22 35.9199 75.6276 35.6967C75.0352 35.4734 74.3881 35.4409 73.7764 35.6037C70.8247 36.1892 68.023 37.3718 65.5422 39.0792C63.0615 40.7866 60.9538 42.983 59.3479 45.5344L64.6588 46.0943C64.4167 45.1129 64.5246 44.0776 64.9638 43.1676C65.403 42.2576 66.1459 41.5304 67.0636 41.1118L64.1346 36.3579C63.143 37.0093 61.7184 36.0037 60.7155 35.4551C60.1753 35.2092 59.5716 35.14 58.99 35.2573C58.4084 35.3745 57.8783 35.6723 57.4749 36.1084C57.0714 36.5446 56.8151 37.0969 56.7422 37.6873C56.6692 38.2776 56.7834 38.876 57.0685 39.3977C57.5607 40.1755 57.77 41.0999 57.6611 42.0146C57.4997 42.7408 57.6226 43.5014 58.0043 44.1394C58.3861 44.7773 58.9976 45.244 59.7126 45.4429C60.4391 45.6162 61.2045 45.4966 61.8439 45.1098C62.4834 44.7229 62.9458 44.0998 63.1317 43.3745C63.5444 40.9809 63.0831 38.5183 61.8324 36.4379L58.0828 40.3805C60.8978 41.9232 64.1688 42.9974 67.1092 41.1004C67.7379 40.711 68.1866 40.087 68.3565 39.3659C68.5264 38.6447 68.4036 37.8854 68.0152 37.255C67.6268 36.6246 67.0046 36.1747 66.2853 36.0043C65.5661 35.834 64.8089 35.957 64.1802 36.3465C60.0203 38.5178 58.3221 43.3288 59.1541 47.7742C59.5416 49.8083 62.7783 50.6197 64.032 48.9169C67.0294 44.883 70.5397 42.1632 75.4973 41.1461L72.0783 36.9636C70.7096 38.8273 69.0868 40.4891 67.2573 41.9003C65.3624 43.5503 63.6678 45.4183 62.2085 47.4656C59.382 51.5453 57.8435 57.6248 61.2283 61.8416C61.821 62.5616 63.1886 62.3901 63.1317 61.2702V61.2931Z" fill="#FFD447"/>
<path d="M58.4351 33.9684C58.5138 33.9684 58.5026 33.8555 58.4351 33.8555C58.3677 33.8555 58.3677 33.9684 58.4351 33.9684Z" fill="#2E2221"/>
<path d="M56.6922 30.941C58.6233 33.2883 61.2981 34.9016 64.2712 35.512C67.4616 36.1951 70.7086 36.5777 73.97 36.6548C80.7007 37.0842 87.4425 36.0109 93.7095 33.5122C95.5331 32.7351 94.6213 29.7068 92.8092 30.5296C87.0362 32.9291 80.8204 34.0704 74.574 33.8779C71.6221 33.8956 68.6743 33.6547 65.7642 33.1579C62.7102 32.6721 59.728 31.8085 56.8859 30.5867C56.848 30.568 56.8048 30.5632 56.7636 30.5729C56.7225 30.5827 56.686 30.6065 56.6605 30.6402C56.6349 30.674 56.6218 30.7156 56.6234 30.7579C56.6251 30.8003 56.6413 30.8407 56.6694 30.8724L56.6922 30.941Z" fill="#2E2221"/>
<path d="M45.1126 30.6554C42.3902 31.8212 39.5403 32.6613 36.6218 33.1582C33.6438 33.6999 30.6221 33.9639 27.5954 33.9467C21.4102 34.1733 15.248 33.0747 9.51983 30.724C7.68492 29.9012 6.18052 32.6668 8.01544 33.4553C14.3156 36.0179 21.1035 37.1496 27.8917 36.7694C31.0766 36.6757 34.2465 36.2932 37.3626 35.6266C40.49 35.0651 43.3172 33.4088 45.3405 30.9526C45.3768 30.9238 45.4002 30.8817 45.4055 30.8356C45.4109 30.7896 45.3977 30.7433 45.369 30.7069C45.3403 30.6705 45.2983 30.6471 45.2524 30.6417C45.2064 30.6364 45.1602 30.6495 45.124 30.6783L45.1126 30.6554Z" fill="#2E2221"/>
<path d="M0.596248 77.5663C0.432293 77.6555 0.292674 77.7837 0.189642 77.9396C0.0866105 78.0955 0.023324 78.2744 0.00532117 78.4605C-0.0126817 78.6467 0.0151573 78.8344 0.0863953 79.0073C0.157633 79.1801 0.27008 79.3328 0.413892 79.4519C1.01473 79.9939 1.75158 80.3613 2.54514 80.5147C5.55832 81.1827 8.63381 81.5275 11.7197 81.5432C20.0737 81.806 28.4619 81.3832 36.7931 81.0975C39.6993 81.0061 42.9247 81.2575 45.5574 79.7833C45.7763 79.6368 45.9489 79.4304 46.0546 79.1887C46.1604 78.947 46.1949 78.68 46.1542 78.4192C46.1134 78.1584 45.9991 77.9148 45.8247 77.7171C45.6502 77.5194 45.423 77.3759 45.1699 77.3035C42.9903 76.7893 40.7285 76.731 38.5254 77.1321C34.8898 77.4978 31.2314 77.7149 27.5729 77.932C20.2105 78.3777 12.7568 78.8005 5.32601 78.5491C4.24899 78.5272 3.17491 78.4279 2.11205 78.252L1.57639 78.1377C1.64477 78.1377 1.34845 78.0349 1.50801 78.1377C1.39404 78.0692 1.50801 78.1377 1.50801 78.1949C1.50801 78.252 1.45102 78.0692 1.32565 77.9092C0.983745 77.4978 1.48522 78.412 1.50801 78.2863C1.53248 78.1623 1.52112 78.034 1.47525 77.9163C1.42938 77.7986 1.35092 77.6965 1.24912 77.6221C1.14732 77.5476 1.0264 77.5039 0.900633 77.496C0.774868 77.4882 0.649486 77.5165 0.539259 77.5778L0.596248 77.5663Z" fill="#2E2221"/>
<path d="M99.4193 78.6748C99.4193 78.5149 99.6244 78.5034 99.727 78.1606C99.727 78.332 99.066 78.8005 99.4877 78.4463C99.5788 78.3777 99.4877 78.5263 99.3965 78.4463C99.5333 78.4463 99.2255 78.4463 99.0888 78.5263C98.2225 78.6816 97.3467 78.7771 96.4675 78.812C93.2763 79.0062 90.0623 78.812 86.8712 78.812C79.0756 78.6863 71.2117 78.3434 63.4504 77.5777C60.8975 77.3149 58.2192 76.8578 55.7232 77.6577C55.4717 77.7406 55.2492 77.8944 55.0825 78.1006C54.9157 78.3069 54.8117 78.5569 54.7829 78.8208C54.754 79.0847 54.8015 79.3514 54.9198 79.589C55.038 79.8265 55.222 80.0249 55.4497 80.1604C57.7291 81.3947 60.396 81.3032 62.8691 81.4061C66.8581 81.4975 70.847 81.6918 74.8246 81.7832C82.3694 81.9546 90.1763 82.4346 97.6185 81.0061C98.6467 80.8895 99.6238 80.4945 100.445 79.8633C100.705 79.6432 100.882 79.3408 100.946 79.0062C100.998 78.7748 100.966 78.5324 100.855 78.3229C100.744 78.1133 100.563 77.9504 100.342 77.8634C99.8182 77.5435 99.3053 78.1034 99.4079 78.6177L99.4193 78.6748Z" fill="#2E2221"/>
<path d="M81.7202 58.619C81.0706 60.2074 80.4324 61.7959 79.8511 63.4186C79.0647 65.7042 82.7117 67.0984 83.7374 64.9499C86.6323 58.9047 88.9686 52.5394 91.4532 46.3113C93.2995 41.6793 95.104 37.032 96.8667 32.3695C95.5876 31.5996 94.1396 31.1562 92.6498 31.0781C89.1624 40.3346 85.4812 49.4996 81.7202 58.619Z" fill="#2E2221"/>
<path d="M21.624 63.3504C19.4244 57.0766 16.6435 50.9742 14.159 44.8032C12.5976 40.9178 11.0704 36.9752 9.60019 33.0098C8.30789 33.7431 6.88854 34.224 5.41748 34.4268C8.7226 43.0662 12.1759 51.6484 15.6748 60.1963C16.3586 61.8419 17.0538 63.4646 17.8174 65.0759C18.8545 67.2244 22.4104 65.5902 21.624 63.3504Z" fill="#2E2221"/>
<path d="M56.3842 17.3421C58.1407 37.3391 58.6052 57.4291 57.7746 77.4862V77.5891C57.7746 78.0119 57.7746 78.4347 57.7746 78.8461L57.6835 80.446L56.3272 80.3889C56.1332 80.3919 55.9405 80.356 55.7605 80.2834C55.5804 80.2108 55.4166 80.1029 55.2787 79.966C54.9936 79.6973 54.8223 79.3292 54.8 78.9375C55.0051 73.1665 55.1533 67.3955 55.2103 61.6131C55.3319 51.3967 55.1571 41.1918 54.686 30.9983C54.4467 25.9587 54.082 20.9076 53.8996 15.868C53.7173 10.8283 53.5577 5.58301 53.2842 0.440536C53.2842 0.00628315 53.9908 -0.119429 54.0592 0.326252C54.8912 5.91441 55.9283 11.6283 56.3842 17.3421Z" fill="#2E2221"/>
<path d="M47.4037 17.5708C46.1272 37.9693 45.8993 58.3563 46.5831 78.7776C46.5891 78.9733 46.5559 79.1682 46.4854 79.3507C46.415 79.5333 46.3087 79.6998 46.1728 79.8404C45.9022 80.1225 45.5366 80.2935 45.1471 80.3204L43.7453 80.3775L43.5743 77.4291C43.3312 72.1419 43.2134 66.8547 43.221 61.5675C43.1754 51.3511 43.43 41.1462 43.9846 30.9526C44.2581 25.7873 44.5545 20.5763 45.1243 15.5024C45.6942 10.4285 46.5147 5.35451 47.3239 0.292034C47.3923 -0.153647 48.1103 -0.0622062 48.1103 0.383475C47.8254 6.07448 47.7684 11.8455 47.4037 17.5708Z" fill="#2E2221"/>
</svg>
