<svg width="174" height="121" viewBox="0 0 177 121" fill="none" xmlns="http://www.w3.org/2000/svg">
<path d="M15.6897 28.4515C16.4742 32.5308 19.7495 36.1198 22.1225 39.4147C22.747 40.3738 23.7168 41.0556 24.8306 41.3186C25.9445 41.5815 27.1168 41.4054 28.1043 40.8268C29.0668 40.2036 29.7447 39.226 29.9908 38.106C30.2368 36.986 30.0311 35.8142 29.4183 34.8451C26.6726 31.4325 23.9661 27.0002 19.9064 25.039C19.3936 24.8088 18.8271 24.7254 18.2698 24.7978C17.7125 24.8703 17.1862 25.0958 16.7493 25.4494C16.3124 25.8029 15.9821 26.2707 15.7951 26.8006C15.6081 27.3306 15.5716 27.902 15.6897 28.4515Z" fill="#F5DCB8"/>
<path d="M30.85 7.83905C30.8274 9.20462 30.716 10.5673 30.5166 11.9184C30.4572 12.4336 30.3387 12.9403 30.1636 13.4285C29.9086 14.0757 29.2614 14.6837 29.0653 15.2917C28.7515 16.2723 27.1041 16.7822 26.6334 15.6643C26.3588 15.0759 25.6331 14.566 25.2801 13.9581C24.9862 13.4407 24.762 12.8868 24.6133 12.3106C24.3976 11.585 24.2211 10.8397 24.0642 10.0944C24.0642 9.72182 23.9269 9.38841 23.8681 9.03539C23.737 8.38822 23.737 7.72135 23.8681 7.07417C23.9798 6.57799 24.1935 6.11047 24.4956 5.70132L24.6329 5.52481C25.1066 4.98288 25.7492 4.61664 26.4569 4.48536H26.6726C26.8223 4.46517 26.974 4.46517 27.1237 4.48536H27.4571C28.1606 4.53371 28.8382 4.77084 29.4183 5.17179C29.8149 5.45926 30.1542 5.81847 30.4185 6.23085C30.7122 6.71505 30.8618 7.27288 30.85 7.83905Z" fill="#F5DCB8"/>
<path d="M150.543 21.293C150.849 21.6614 151.239 21.9507 151.681 22.1364C152.374 22.371 153.125 22.371 153.818 22.1364C154.33 21.9759 154.777 21.6544 155.091 21.2197C155.406 20.7851 155.572 20.2605 155.564 19.7241C155.524 19.1777 155.303 18.6603 154.936 18.2531C154.598 17.8362 154.139 17.5347 153.622 17.3902C152.933 17.1349 152.174 17.1349 151.485 17.3902C151.066 17.604 150.693 17.8971 150.386 18.2531C150.007 18.6629 149.803 19.2049 149.818 19.7633C149.861 20.3456 150.12 20.8908 150.543 21.293Z" fill="#F5DCB8"/>
<path d="M155.623 35.2962C154.012 36.2508 152.632 37.5501 151.583 39.1009C151.249 39.4601 150.994 39.8856 150.835 40.3498C150.677 40.8139 150.618 41.3063 150.662 41.7948C150.706 42.2834 150.853 42.757 151.093 43.185C151.333 43.6129 151.66 43.9855 152.053 44.2786C152.448 44.5724 152.904 44.7735 153.387 44.8669C153.866 44.9652 154.359 44.9652 154.838 44.8669C155.323 44.7663 155.778 44.5586 156.172 44.2589C156.562 43.9682 156.889 43.6012 157.133 43.1803C158.33 41.4142 159.12 39.4048 159.447 37.2966C159.663 35.0804 157.094 34.4725 155.623 35.2962Z" fill="#F5DCB8"/>
<path d="M57.1695 37.6506C49.7593 35.9186 42.972 32.172 37.5573 26.8247C33.4584 22.7846 27.1433 29.4135 31.3795 33.3359C34.7845 36.5607 38.7801 39.0979 43.1468 40.8082C47.5062 42.1702 52.1012 42.611 56.64 42.1026C59.1111 41.8869 59.7191 38.1605 57.1695 37.6506Z" fill="#F5DCB8"/>
<path d="M46.5986 65.4798C44.0657 64.1618 41.3774 63.1669 38.5968 62.5184C35.6818 61.6507 32.8729 60.46 30.2224 58.9686C24.7702 56.0856 20.4163 64.0873 25.6135 67.3233C31.8698 71.2458 41.0287 73.0501 46.9908 68.0686C47.1668 67.8864 47.2984 67.6661 47.3754 67.4248C47.4524 67.1835 47.4727 66.9277 47.4348 66.6772C47.3968 66.4268 47.3016 66.1885 47.1566 65.9808C47.0116 65.7731 46.8206 65.6017 46.5986 65.4798Z" fill="#F5DCB8"/>
<path d="M46.8535 94.2698C41.774 93.8384 36.7925 93.603 31.7325 92.7989C25.9469 91.8575 23.6327 100.389 29.4967 101.742C35.8903 103.233 43.4998 101.742 47.8734 96.6233C48.0665 96.426 48.1904 96.1714 48.2264 95.8976C48.2621 95.6321 48.2283 95.3618 48.1283 95.1132C48.0188 94.8607 47.8338 94.6483 47.5988 94.5052C47.3745 94.3491 47.1071 94.2668 46.8339 94.2698H46.8535Z" fill="#F5DCB8"/>
<path d="M129.225 34.002C135.481 36.1005 143.64 32.6879 147.797 27.8437C148.503 26.95 148.85 25.825 148.769 24.6891C148.689 23.5532 148.187 22.4883 147.362 21.703C146.538 20.9176 145.45 20.4685 144.311 20.4435C143.173 20.4185 142.066 20.8194 141.208 21.5678C139.377 23.2759 137.409 24.8305 135.324 26.2159C133.167 27.5103 130.813 28.3733 128.656 29.6088C128.268 29.8688 127.962 30.2342 127.774 30.6622C127.587 31.0901 127.526 31.5627 127.598 32.0244C127.67 32.486 127.872 32.9174 128.181 33.2677C128.491 33.6181 128.893 33.8728 129.342 34.002H129.225Z" fill="#F5DCB8"/>
<path d="M140.6 70.4215C142.873 71.1026 145.261 71.3182 147.62 71.0554C149.979 70.7925 152.26 70.0567 154.328 68.8918C159.055 66.048 154.662 59.0857 149.857 61.6352C146.937 63.3664 143.815 64.73 140.561 65.695C140.065 65.8667 139.638 66.1914 139.339 66.6222C139.041 67.053 138.887 67.5675 138.9 68.0914C138.913 68.6153 139.092 69.1215 139.412 69.5369C139.732 69.9522 140.175 70.2551 140.678 70.4019L140.6 70.4215Z" fill="#F5DCB8"/>
<path d="M131.166 105.096C132.48 107.842 136.501 108.725 139.286 109.019C142.964 109.289 146.646 108.55 149.935 106.881C154.152 104.822 150.935 97.4279 146.483 99.2322C143.971 100.325 141.338 101.115 138.639 101.586C136.383 101.939 133.716 101.684 131.735 102.9C131.381 103.132 131.129 103.489 131.029 103.9C130.927 104.313 130.99 104.749 131.206 105.116L131.166 105.096Z" fill="#F5DCB8"/>
<path d="M150.602 108.156C150.51 108.55 150.358 108.927 150.151 109.274C150.279 109.826 150.279 110.4 150.153 110.953C150.026 111.505 149.776 112.022 149.421 112.464C149.066 112.905 148.616 113.261 148.104 113.503C147.591 113.746 147.031 113.869 146.464 113.863C125.812 113.863 105.278 117.021 84.705 116.511C73.7614 116.256 62.8571 116.511 51.8939 116.707C46.9124 116.844 41.5778 117.57 36.5963 117.237C34.6351 117.099 31.8306 116.825 31.3991 114.412C31.3052 113.995 31.3248 113.561 31.4559 113.154C31.587 112.747 31.8247 112.382 32.1444 112.098C28.5161 105.901 28.5161 96.0946 27.8689 89.3676C26.9964 80.11 26.8587 70.7977 27.4571 61.5183C27.8868 52.7711 29.0679 44.077 30.9873 35.5322C32.11 31.262 33.4719 27.0584 35.0666 22.9411C36.5571 18.7441 37.3808 14.3706 38.989 10.2324C39.0474 10.0786 39.1266 9.93339 39.2244 9.80098C39.2244 8.95765 40.8522 3.76042 41.6759 3.68198C46.7555 3.21128 56.1693 9.85981 60.5232 12.1544C65.5439 14.8021 69.6233 18.2734 74.7224 20.7838C80.2727 23.5491 81.9397 27.0401 87.7842 29.119L89.5296 29.8054C89.5768 29.4236 89.7183 29.0597 89.9415 28.7464C90.0281 28.5844 90.1569 28.4489 90.3141 28.3541C90.5294 28.1639 90.7838 28.0233 91.0594 27.9423H91.6478H92.2361L92.7656 28.1384L93.2167 28.4718L93.5697 28.9032C96.0997 26.942 98.4728 24.8828 101.219 23.1569C105.141 20.7446 109.279 19.7836 113.358 17.9008C121.046 14.3314 127.087 6.1335 135.579 4.28995C141.031 3.13283 144.012 12.2721 140.953 15.2139C143.853 20.7905 146.274 26.6036 148.19 32.5903C150.932 40.3782 152.466 48.5398 152.74 56.7918C153.661 73.7563 154.799 91.3877 150.602 108.156Z" fill="#FF6B3D"/>
<path d="M39.8912 2.34869L39.597 2.25063H39.3224C38.5968 1.95644 37.4985 1.54459 36.5571 1.15234C36.5571 1.15234 36.5571 1.15234 36.4002 1.15234L35.4 1.95644L35.0862 2.19179L32.5954 4.15301C32.3551 4.03226 32.0898 3.96938 31.8208 3.96938C31.5518 3.96938 31.2865 4.03226 31.0461 4.15301L29.4183 5.01594C28.8495 5.32974 28.2808 5.64354 27.7316 5.97694C27.0875 5.75905 26.3838 5.80127 25.7704 6.09461C25.1275 6.34802 24.5047 6.64959 23.9072 6.99678C21.3574 8.64947 18.9021 10.4435 16.5527 12.3705C15.0661 13.2344 13.6438 14.2045 12.2968 15.2731C11.8077 15.6587 11.4364 16.1736 11.225 16.7594C11.0136 17.3452 10.9704 17.9785 11.1005 18.5876H10.9044L10.6298 18.7053L10.2179 18.8229C9.44592 18.9191 8.7421 19.3132 8.25671 19.9212H8.04098C7.85211 19.8766 7.65424 19.889 7.47242 19.9569C7.2906 20.0247 7.13302 20.1451 7.01962 20.3025C6.90622 20.46 6.84211 20.6477 6.8354 20.8416C6.82868 21.0356 6.87968 21.2272 6.98192 21.3921V21.549V21.6667C7.16399 22.0454 7.38064 22.4065 7.62912 22.7454C7.78123 23.3894 8.08993 23.9858 8.52784 24.4819C8.96576 24.978 9.51934 25.3583 10.1395 25.5891C11.1593 26.5501 12.238 27.5503 13.2774 28.3937C14.3808 29.3115 15.4164 30.3077 16.3762 31.3747L17.1214 32.2573C18.4766 33.9405 19.7026 35.7237 20.7889 37.5918C21.946 39.553 22.9855 41.5142 24.0641 43.4754C24.0555 43.5405 24.0555 43.6065 24.0641 43.6716C24.0219 44.0195 24.0854 44.372 24.2463 44.6833C24.4072 44.9946 24.6581 45.2503 24.9663 45.4171C25.3453 45.601 25.761 45.6965 26.1823 45.6965C26.6035 45.6965 27.0192 45.601 27.3982 45.4171L27.9081 45.2013C28.3561 44.9138 28.6993 44.4893 28.8866 43.9911C29.0739 43.4928 29.0953 42.9474 28.9476 42.436C28.7122 41.7888 28.4573 41.1416 28.1827 40.4748L27.5943 39.2588C28.3828 37.8106 29.0392 36.2944 29.5555 34.7284C29.8693 33.787 30.1439 32.7672 30.4185 31.8454C30.9284 30.0215 31.3599 28.1779 31.8306 26.3736C32.0659 25.4911 32.3013 24.6085 32.5562 23.7652C33.3211 21.1568 34.9293 17.4305 36.4787 13.6061C37.9675 10.2069 39.1298 6.67389 39.95 3.05473C39.95 2.76054 40.0481 2.46636 40.0873 2.19179L39.8912 2.34869ZM18.5335 22.765L18.6512 22.6669L18.5335 22.765Z" fill="#FF6B3D"/>
<path d="M163.938 30.5501C162.526 28.8243 172.783 22.4503 171.214 20.8617C171.214 20.7048 168.135 17.2335 168.135 17.2335C168.528 14.3701 158.859 11.7617 156.897 9.80044C155.623 8.46681 153.387 5.878 151.367 5.878C149.994 3.58337 150.249 6.23102 148.523 4.2698C148.994 4.09329 147.189 4.13252 147.562 3.60299C147.935 3.07346 146.836 4.03445 146.189 3.60299C145.13 2.8185 144.091 0.916117 142.914 1.11224C141.737 1.30836 139.933 2.21052 138.854 2.42626C137.776 2.64199 139.56 6.76055 140.443 7.13318L141.227 7.40775C141.111 7.76453 141.111 8.14925 141.227 8.50603C141.626 9.79617 142.104 11.0603 142.659 12.2912C142.659 16.2136 144.306 20.3126 145.542 24.0585C147.503 29.9422 149.798 35.7278 151.857 41.5722C152.005 42.0227 152.28 42.4211 152.649 42.7197C153.017 43.0183 153.464 43.2046 153.935 43.2563C154.407 43.308 154.883 43.2229 155.307 43.0112C155.732 42.7995 156.086 42.4702 156.329 42.0625C157.62 39.8166 159.395 37.887 161.526 36.4142C162.096 36.3272 162.626 36.0715 163.049 35.6799C163.472 35.2884 163.768 34.779 163.899 34.2176C164.148 33.9825 164.347 33.6997 164.484 33.3861C164.621 33.0724 164.693 32.7344 164.697 32.3922C164.701 32.0499 164.635 31.7105 164.505 31.394C164.375 31.0775 164.182 30.7905 163.938 30.5501Z" fill="#FF6B3D"/>
<path d="M96.8058 48.496L96.4331 48.241C96.2434 48.1092 96.0169 48.0406 95.7859 48.0449C95.6315 48.0059 95.4697 48.0059 95.3153 48.0449C95.0822 48.0635 94.8586 48.1448 94.6681 48.2802L94.2954 48.594C94.1245 48.764 93.9967 48.9725 93.9228 49.202C93.8448 49.3466 93.8043 49.5084 93.8051 49.6727C93.7553 49.8323 93.7553 50.0034 93.8051 50.163C93.8234 50.4143 93.9043 50.657 94.0405 50.869L94.3346 51.2417L94.7269 51.5162C94.9404 51.6462 95.1832 51.7204 95.4329 51.732C95.594 51.7711 95.7621 51.7711 95.9232 51.732C96.0895 51.7286 96.2519 51.6812 96.3939 51.5947C96.6265 51.5187 96.8313 51.3754 96.9823 51.1828L97.2765 50.8102L97.453 50.3591V49.8492C97.4551 49.6027 97.3943 49.3597 97.2765 49.1432C97.1774 48.8908 97.0153 48.668 96.8058 48.496Z" fill="#43291F"/>
<path d="M96.8057 56.8705L96.4331 56.6155C96.2434 56.4837 96.0169 56.4151 95.7859 56.4194C95.6314 56.3804 95.4697 56.3804 95.3152 56.4194C95.0822 56.438 94.8585 56.5193 94.668 56.6547L94.2954 56.9685C94.1244 57.1385 93.9967 57.347 93.9228 57.5765C93.8447 57.7211 93.8043 57.8829 93.8051 58.0472C93.7561 58.2136 93.7561 58.3907 93.8051 58.5571C93.8266 58.8017 93.9074 59.0373 94.0404 59.2436L94.3346 59.6162L94.7269 59.8908C94.9404 60.0207 95.1832 60.0949 95.4329 60.1065C95.594 60.1456 95.7621 60.1456 95.9232 60.1065C96.0895 60.1031 96.2519 60.0557 96.3939 59.9692C96.6265 59.8932 96.8312 59.7499 96.9823 59.5574L97.2764 59.1847L97.4529 58.7336V58.2237C97.455 57.9772 97.3943 57.7342 97.2764 57.5177C97.1773 57.2653 97.0153 57.0425 96.8057 56.8705Z" fill="#43291F"/>
<path d="M156.211 64.7148C156.211 64.1461 156.211 63.5969 156.113 63.0282C156.113 62.4986 156.113 61.9691 156.113 61.4396L155.937 59.0273C155.937 58.2428 155.799 57.4583 155.721 56.6738C155.642 55.8893 155.583 55.0264 155.485 54.2027C155.27 52.3788 154.976 50.5744 154.701 48.7505L154.583 48.3975C154.235 47.3797 154.044 46.3151 154.015 45.2399C154.015 45.2399 154.015 45.0634 154.015 44.9654C153.563 43.7094 153.37 42.3753 153.446 41.0429C153.455 40.9582 153.455 40.8727 153.446 40.788C153.446 40.6899 153.446 40.5918 153.446 40.4938C153.454 40.455 153.454 40.4149 153.446 40.3761C153.269 39.5328 153.093 38.6698 152.897 37.8265C151.843 33.5377 150.559 29.3085 149.053 25.157C148.68 24.0588 148.288 22.9605 147.876 21.8426C147.464 20.7247 147.091 19.6068 146.581 18.6066C145.817 15.9182 144.84 13.2949 143.659 10.7617C142.424 7.87871 141.345 4.87804 139.874 2.13234C139.83 2.03034 139.777 1.93198 139.717 1.83816C139.64 1.65772 139.523 1.49778 139.373 1.37116C139.223 1.24453 139.046 1.15474 138.855 1.10898C138.664 1.06322 138.466 1.06276 138.275 1.10765C138.084 1.15254 137.906 1.24152 137.756 1.36746C137.366 1.20833 136.93 1.20833 136.54 1.36746C133.865 2.33321 131.301 3.58242 128.891 5.09378C127.264 6.03516 125.675 7.055 124.086 7.93755C119.301 10.6636 114.516 13.5074 109.828 16.3708C108.2 17.371 106.553 18.332 104.906 19.4695C100.004 22.8632 94.8358 25.8541 89.4512 28.4127C86.3711 26.9902 83.4128 25.3175 80.6061 23.4116C76.919 20.9797 73.33 18.3516 69.7606 16.057C64.9556 12.9975 60.1114 9.91838 55.2083 6.97655L54.9141 6.81965L53.1294 5.72137C49.7873 3.45291 46.2022 1.56496 42.4408 0.0926704C42.1981 0.00534065 41.9376 -0.0208111 41.6824 0.01653C41.4272 0.053871 41.1851 0.153553 40.9776 0.306753C40.7701 0.459953 40.6036 0.661945 40.4928 0.894849C40.382 1.12775 40.3303 1.38439 40.3423 1.64203C40.1854 1.87738 40.0285 2.11273 39.8912 2.34807C39.7539 2.58342 39.5578 2.85799 39.4009 3.13256C36.5962 7.80927 34.3828 12.8159 32.8112 18.0378L32.6935 18.4301C32.2228 19.5872 31.7521 20.7443 31.3207 21.921C30.2028 24.8629 29.3594 27.8047 28.3788 30.9034C28.2416 31.4526 28.0847 32.0017 27.9278 32.5508C27.1433 35.4534 26.4568 38.4345 25.9665 41.2979C25.7116 42.6511 25.4566 44.0044 25.2213 45.3772L25.0448 46.5147V46.3578C22.4604 39.7268 18.6252 33.6545 13.7481 28.4715C11.7869 26.118 9.55114 23.8823 7.47224 21.7445L7.31535 21.5876C8.47247 20.6462 9.66881 19.6264 10.8652 18.8027L11.3162 18.4693C12.1596 17.8221 13.0029 17.1945 13.8658 16.5081C17.226 14.1023 20.6909 11.8469 24.2603 9.74187L24.2799 9.8007C26.1234 8.70242 27.9081 7.52569 29.7713 6.42741L30.3989 6.05478C32.0463 5.09378 33.6741 4.09356 35.2627 3.11295C35.417 3.0041 35.5281 2.84441 35.5765 2.66187C35.6056 2.54599 35.6056 2.42473 35.5765 2.30885V2.15195V2.05389C35.516 1.95725 35.4269 1.88185 35.3216 1.83816C35.2386 1.79957 35.1483 1.77957 35.0568 1.77957C34.9653 1.77957 34.875 1.79957 34.792 1.83816L33.4192 2.2304C31.3872 2.85432 29.3903 3.58758 27.4375 4.42696L26.4372 4.87804C25.9273 5.09378 25.437 5.30951 24.9467 5.56447L23.5346 6.03516L23.0639 6.29012C22.8678 6.29012 22.6913 6.48624 22.4952 6.5843C19.3027 8.23688 16.1996 10.0568 13.199 12.0365C11.2378 13.2721 9.45308 14.5469 7.62914 15.9589C6.60931 16.7042 5.66792 17.4691 4.58925 18.2536C3.02028 19.4499 1.51014 20.7051 0 21.9799C1.40371 22.8328 2.5546 24.0446 3.33407 25.4905C5.29529 27.7459 7.25651 29.9424 9.3354 32.139C15.2191 38.2384 21.1027 44.3966 23.9857 52.2023V52.3395C23.9857 52.5553 23.9857 52.771 23.9857 52.9867C23.9857 53.2025 23.5346 57.831 23.5346 57.8113V57.9879C23.2208 61.2043 23.0443 64.4403 22.9266 67.6763C22.956 68.1858 22.956 68.6965 22.9266 69.206C22.809 77.4235 23.2797 85.5822 23.2993 85.543C23.3189 85.5037 23.2993 86.5824 23.3973 86.9943C24.276 98.1092 25.9871 109.143 28.5161 120.002C30.3204 119.766 31.2618 119.668 33.3015 119.57C50.2464 118.707 67.1914 120.178 84.1363 120.315H86.9016C89.8827 120.315 92.7853 120.315 95.8252 120.139L98.6689 120.002C114.359 119.139 130.519 116.609 146.307 118.04C146.581 118.04 146.856 118.04 147.15 118.04L151.347 117.825C151.74 116.06 152.093 114.294 152.426 112.529L152.975 109.823L153.446 107.156C154.034 103.599 154.557 100.03 155.015 96.4473V96.3493C155.211 94.7607 155.387 93.1525 155.564 91.5443C156.279 84.8289 156.593 78.0769 156.505 71.3241L156.348 65.6562C156.25 65.4013 156.231 65.0678 156.211 64.7148ZM93.354 28.4519L94.9622 27.6674C99.2573 25.5297 103.415 22.9409 107.534 20.607L109.495 19.548L110.593 18.94L118.889 14.4292L124.675 11.3305C128.832 9.13389 133.422 7.40802 137.442 4.87804C138.544 9.138 139.933 13.3184 141.6 17.3906C135.442 22.9801 128.95 28.3146 122.321 33.4334C117.477 37.2185 112.515 40.886 107.651 44.5143C102.415 39.0817 96.0213 34.8651 90.4318 29.7659C91.432 29.4129 92.393 28.903 93.354 28.4519ZM39.7735 11.2912C40.6561 8.89854 41.7347 6.58431 42.6565 4.23084C46.4417 6.42741 50.5994 8.15328 54.4238 10.3106C59.523 13.1348 64.5633 16.057 69.584 18.9988C72.6239 20.7835 75.6834 22.8036 78.8214 24.7256C81.9435 26.6879 85.2235 28.387 88.6275 29.8051C83.0184 34.9828 76.8602 39.7289 71.6825 45.2595C69.7213 43.8279 67.7601 42.3569 65.7989 40.8664C55.9928 33.5903 46.4613 26.02 37.5181 17.9005C38.2634 15.6844 38.9498 13.4878 39.7735 11.2912ZM150.759 87.1512C150.426 91.2305 150.014 95.2902 149.464 99.35C149.092 102.096 148.7 104.861 148.229 107.607C147.896 109.686 147.523 111.784 147.091 113.745C147.091 113.745 147.091 113.902 147.091 114L146.013 113.804C139.698 112.843 132.716 113.667 126.518 114.02C121.007 114.334 115.496 114.765 109.985 115.216L99.6299 115.981C95.2564 116.275 90.8829 116.413 86.529 116.491C82.0182 116.491 77.527 116.491 73.0162 116.491H66.8776H66.6422C55.7575 116.314 44.8727 116.138 33.9879 116.864H32.8504C32.8504 116.628 32.8504 116.413 32.7131 116.177C32.4582 114.922 32.2228 113.686 31.9875 112.431C31.8894 111.921 31.7914 111.411 31.7129 110.882C31.1638 107.862 30.6735 104.861 30.242 101.821C29.8105 98.7812 29.4575 95.9374 29.1437 93.1133C29.1437 92.6426 29.1437 92.1915 29.0064 91.7404C28.1777 84.0682 27.8044 76.3536 27.8885 68.6373C27.8885 65.2444 28.0847 61.8515 28.32 58.4389C28.32 57.2622 28.4965 56.0855 28.5946 54.9087C29.2436 47.8313 30.3772 40.8068 31.9875 33.8845C32.6151 31.1388 33.3211 28.4127 34.1056 25.7062C34.109 25.667 34.109 25.6277 34.1056 25.5885C34.439 24.4706 34.7724 23.3527 35.145 22.2152C35.1792 22.2592 35.2187 22.2987 35.2627 22.3329C41.519 27.6478 48.0695 32.6097 54.8749 37.3166C56.1889 38.2384 57.4833 39.1601 58.7973 40.0623C60.6213 41.2979 62.4648 42.5334 64.328 43.7494C66.5638 45.2007 68.7996 46.6324 71.055 48.0445C71.2747 48.1738 71.5331 48.2212 71.7845 48.1781C72.0358 48.135 72.2637 48.0043 72.4278 47.8091C72.7557 47.7884 73.0668 47.657 73.3104 47.4365C78.4291 42.5531 83.6264 37.7481 88.5098 32.6489C87.6469 43.7886 88.3921 55.1441 88.7059 66.2838C88.737 66.4878 88.8401 66.674 88.9966 66.8085C89.1531 66.943 89.3527 67.017 89.5591 67.017C89.7654 67.017 89.965 66.943 90.1215 66.8085C90.278 66.674 90.3812 66.4878 90.4122 66.2838C90.726 55.2029 91.4713 43.8867 90.6083 32.8058C95.4918 37.6892 100.944 41.9843 105.965 46.7108C106.071 46.8224 106.199 46.9112 106.34 46.9719C106.482 47.0326 106.634 47.0639 106.788 47.0639C106.869 47.1688 106.97 47.2568 107.085 47.3225C107.199 47.3883 107.326 47.4307 107.458 47.4471C107.589 47.4635 107.722 47.4537 107.85 47.4182C107.977 47.3827 108.096 47.3223 108.2 47.2404C113.672 43.8279 119.085 40.278 124.381 36.5517C125.695 35.63 127.028 34.7082 128.303 33.7472C133.598 29.8247 138.776 25.9023 143.757 21.6857C143.757 21.8426 143.855 21.9995 143.895 22.1564C143.934 22.3133 143.895 22.3329 143.895 22.431C144.032 22.8624 144.169 23.2743 144.287 23.7057C144.895 25.667 145.483 27.7459 146.013 29.7855C146.013 29.9816 146.013 30.1778 146.17 30.3935L146.699 32.5508C147.052 34.0021 147.366 35.4731 147.68 36.944C147.856 37.7285 148.013 38.4933 148.15 39.2582C148.876 42.9257 149.445 46.6324 149.896 50.3391C150.347 54.0458 150.661 57.6937 150.877 61.3808C151.053 64.401 151.151 67.4213 151.19 70.4416C151.406 75.8742 151.21 81.5225 150.759 87.1512Z" fill="#43291F"/>
<path d="M153.289 50.28C153.289 50.0446 153.289 49.8093 153.289 49.5935C153.289 47.8088 153.171 46.0045 152.955 44.2198C155.563 38.106 159.213 32.4919 163.742 27.6279C165.703 25.2744 167.939 23.0386 170.018 20.9009L170.175 20.744C169.018 19.8026 167.821 18.7828 166.625 17.9591L166.135 17.6453C165.291 16.9981 164.448 16.3705 163.585 15.6841C160.238 13.2652 156.773 11.0098 153.191 8.91786L152.975 8.80019C151.131 7.7019 149.347 6.52517 147.484 5.42689L146.856 5.05426C145.209 4.09326 143.581 3.09304 141.992 2.11243L141.875 1.95553L141.678 1.62212C141.649 1.50625 141.649 1.38498 141.678 1.26911V1.11221C141.739 1.01557 141.828 0.94017 141.933 0.896474C142.016 0.857885 142.107 0.837891 142.198 0.837891C142.29 0.837891 142.38 0.857885 142.463 0.896474L143.836 1.28872C145.868 1.91264 147.865 2.6459 149.817 3.48528L150.818 3.93636C151.328 4.1521 151.818 4.36783 152.308 4.62279L153.505 5.19154L153.975 5.4465C154.171 5.4465 154.348 5.64262 154.544 5.74068C157.723 7.39447 160.813 9.21438 163.801 11.1929C165.762 12.4284 167.547 13.7032 169.371 15.1153C170.391 15.8606 171.332 16.6255 172.411 17.4099C173.98 18.6063 175.49 19.8615 177 21.1363C175.596 21.9892 174.445 23.201 173.666 24.6468C171.705 26.9022 169.743 29.0988 167.665 31.2954C162.036 37.179 156.25 43.2196 153.289 50.7114C153.301 50.5679 153.301 50.4235 153.289 50.28Z" fill="#43291F"/>
</svg>