<svg width="180" height="96" viewBox="0 0 180 96" fill="none" xmlns="http://www.w3.org/2000/svg">
<path d="M19.2398 68.3065H19.3708C19.3273 68.3002 19.2832 68.3002 19.2398 68.3065Z" fill="#FF7B7B"/>
<path d="M132.379 81.8145C136.162 83.1899 141.499 80.6356 144.889 79.1293C147.017 78.1796 149.097 77.1645 151.127 76.0511C153.157 74.9377 155.679 73.8898 156.841 71.5812C157.118 71.0805 157.26 70.516 157.251 69.9439C157.242 69.4923 157.145 69.0468 156.964 68.6329C156.783 68.219 156.523 67.8448 156.197 67.5315C155.872 67.2183 155.488 66.9723 155.068 66.8074C154.647 66.6426 154.198 66.5623 153.747 66.5709C151.16 66.5709 149.195 68.2083 147.066 69.5509L141.549 72.8256C139.715 73.9226 137.865 75.036 136.145 76.3131C134.388 77.3267 132.922 78.7759 131.888 80.521C131.822 80.6412 131.788 80.7767 131.79 80.914C131.759 81.0431 131.759 81.1778 131.79 81.3069C131.842 81.4311 131.927 81.5387 132.036 81.618C132.13 81.7137 132.249 81.7816 132.379 81.8145Z" fill="#EDD6B4"/>
<path d="M36.0061 52.9477L35.7277 52.7676C35.7277 52.7676 35.564 52.6366 35.5312 52.6038L34.8927 52.0963C34.3681 51.6848 33.8215 51.3022 33.2554 50.9501C32.3189 50.3161 31.327 49.7681 30.2918 49.3128C30.1808 49.2504 30.0582 49.2114 29.9316 49.1982C29.7447 49.082 29.5294 49.0197 29.3094 49.0181C29.0063 49.0334 28.72 49.162 28.5071 49.3783C28.2971 49.5926 28.1796 49.8806 28.1796 50.1806C28.0977 50.9174 28.1796 51.6542 28.1796 52.3746V52.6529C28.1796 53.1605 28.1796 53.6681 28.1796 54.2903C28.1061 55.6264 28.1061 56.9656 28.1796 58.3018C28.1796 58.3661 28.1927 58.4297 28.218 58.4888C28.2433 58.5479 28.2804 58.6012 28.327 58.6456C28.417 58.7414 28.5397 58.7998 28.6708 58.8093C28.7999 58.8258 28.9306 58.7951 29.0389 58.7229C29.1472 58.6507 29.2258 58.5419 29.2603 58.4164C29.2449 58.3187 29.2449 58.2193 29.2603 58.1216C29.4377 58.1889 29.6276 58.2169 29.817 58.2035C29.9254 58.2207 30.0359 58.2207 30.1444 58.2035C30.454 58.2973 30.7845 58.2973 31.0941 58.2035C32.0172 57.903 32.8976 57.4848 33.7138 56.9591L36.0224 55.6656C36.2452 55.5249 36.4261 55.327 36.5464 55.0926C36.6804 54.8672 36.7512 54.6098 36.7512 54.3476C36.7512 54.0854 36.6804 53.828 36.5464 53.6026C36.4344 53.336 36.2465 53.1082 36.0061 52.9477Z" fill="#EDD6B4"/>
<path d="M155.335 56.4516C155.257 55.5238 155.103 54.6039 154.876 53.7009C154.746 52.5751 154.46 51.4729 154.025 50.4262C153.962 50.2354 153.827 50.0767 153.648 49.9842C153.56 49.9472 153.466 49.9282 153.37 49.9282C153.274 49.9282 153.18 49.9472 153.092 49.9842C152.96 50.0224 152.841 50.0961 152.748 50.197C152.648 50.2949 152.58 50.4203 152.551 50.5572C151.354 50.9207 150.286 51.6196 149.473 52.5712C148.57 53.5239 147.849 54.6337 147.345 55.8458C147.21 55.8132 147.07 55.8132 146.935 55.8458C146.8 55.8539 146.668 55.8918 146.549 55.9569C146.43 56.022 146.327 56.1127 146.248 56.2224C146.17 56.3365 146.114 56.4643 146.084 56.599C146.051 56.7335 146.051 56.8738 146.084 57.0083C146.117 57.1401 146.179 57.263 146.264 57.3685C146.354 57.4729 146.466 57.5566 146.592 57.6141C146.712 57.6793 146.847 57.7131 146.984 57.7124C147.07 57.8938 147.223 58.0348 147.41 58.1053L147.82 58.4819C148.442 59.0222 149.064 59.5626 149.719 60.1193C150.988 61.1546 152.31 62.122 153.681 63.0173C153.784 63.0673 153.895 63.1004 154.009 63.1156C154.116 63.1401 154.228 63.1401 154.336 63.1156C154.452 63.0819 154.555 63.0133 154.631 62.9191C154.705 62.8328 154.76 62.7326 154.795 62.6244C155.357 60.6184 155.541 58.5249 155.335 56.4516Z" fill="#EDD6B4"/>
<path d="M120.231 44.254C107.429 41.1982 94.289 39.795 81.131 40.0788C77.447 40.177 73.763 40.3899 70.0954 40.7501C69.6861 39.8659 68.3762 40.6355 68.7855 41.5196C72.8259 50.2791 80.1739 57.0796 89.2195 60.4308C91.7374 61.3424 94.3529 61.9578 97.0132 62.2647C97.12 62.2965 97.2338 62.2965 97.3406 62.2647C97.4499 62.2183 97.5456 62.1451 97.619 62.0518C97.6856 61.9593 97.7304 61.853 97.75 61.7407C97.7832 61.6285 97.7832 61.5091 97.75 61.3969C97.1025 59.4939 96.2861 57.6528 95.3103 55.8954C99.5176 58.5139 104.545 59.4821 109.424 58.6134C109.566 58.5704 109.692 58.4873 109.788 58.3742C109.884 58.2611 109.945 58.1227 109.964 57.9757C109.983 57.8288 109.959 57.6794 109.895 57.5456C109.832 57.4119 109.73 57.2994 109.604 57.2217C106.638 55.3509 104.004 52.9992 101.811 50.263C108.375 51.0325 114.995 49.379 120.427 45.613C120.554 45.5335 120.656 45.42 120.722 45.2855C120.755 45.1455 120.755 44.9998 120.722 44.8598C120.703 44.7135 120.64 44.5763 120.542 44.4668C120.457 44.3717 120.35 44.2987 120.231 44.254Z" fill="#615C5C"/>
<path d="M145.314 57.1072C146.073 56.4006 146.778 55.64 147.427 54.8313C148.131 54.0781 148.867 53.325 149.637 52.6209C150.345 51.8888 151.13 51.2355 151.978 50.6725C152.293 50.4595 152.663 50.3454 153.043 50.345C153.313 50.3942 153.591 50.3942 153.861 50.345C153.993 50.3131 154.12 50.2635 154.238 50.1977C154.385 50.1158 154.353 50.1977 154.123 50.1977L153.616 50.0176C154.341 50.7317 154.759 51.7014 154.778 52.7192C155.006 54.0552 155.121 55.408 155.122 56.7634C155.278 59.423 154.824 62.083 153.796 64.5407C153.239 65.6377 155.106 66.178 155.269 65.1138C155.581 62.9689 156.105 60.8895 156.252 58.7282C156.413 56.607 156.32 54.4742 155.974 52.3753C155.861 51.5153 155.606 50.6799 155.22 49.903C155.126 49.7332 155.023 49.5692 154.909 49.4118C154.894 49.3241 154.86 49.2405 154.811 49.1662C154.631 49.0679 154.811 49.3135 154.811 49.1662C154.777 48.8917 154.669 48.6315 154.5 48.413C154.317 48.1929 154.071 48.0331 153.796 47.9545C151.684 47.2341 149.719 49.51 148.491 50.8853C147.727 51.7527 147.016 52.6659 146.362 53.6197C145.648 54.529 145.095 55.5533 144.725 56.6488C144.708 56.7242 144.708 56.8025 144.725 56.878C144.762 56.9478 144.819 57.0048 144.889 57.0417C144.922 57.0566 144.959 57.0643 144.995 57.0643C145.032 57.0643 145.068 57.0566 145.102 57.0417C145.179 57.026 145.252 56.9924 145.314 56.9435V57.1072Z" fill="#38241E"/>
<path d="M69.6696 44.4998C70.2853 46.8028 71.2223 49.0076 72.4531 51.0491C74.535 54.1815 77.2689 56.8273 80.4678 58.8054C83.6667 60.7836 87.2552 62.0474 90.9877 62.5105C93.8822 62.9524 96.8382 62.7568 99.6492 61.9374C99.6841 61.928 99.7166 61.9115 99.7448 61.889C99.7729 61.8665 99.7962 61.8383 99.813 61.8064C99.8297 61.7364 99.8297 61.6635 99.813 61.5935C99.7972 61.5219 99.7566 61.4581 99.6983 61.4134C99.635 61.3896 99.5652 61.3896 99.5019 61.4134C97.0416 61.3785 94.5862 61.1871 92.1502 60.8404C89.7425 60.3934 87.392 59.6795 85.1424 58.7118C80.9914 56.8343 77.3235 54.0343 74.4179 50.5252C72.7379 48.6174 71.2973 46.5114 70.1281 44.2542C70.0944 44.2038 70.0444 44.1666 69.9864 44.149C69.9284 44.1314 69.8661 44.1344 69.8101 44.1576C69.7541 44.1808 69.7078 44.2226 69.6792 44.2761C69.6506 44.3295 69.6415 44.3912 69.6533 44.4507L69.6696 44.4998Z" fill="#38241E"/>
<path d="M99.8948 61.5604C99.1089 60.3815 98.2575 59.2354 97.5698 58.0074C96.8853 56.8503 96.1019 55.7547 95.2284 54.7327C93.5242 52.5914 91.4502 50.7725 89.1048 49.3623C89.024 49.3434 88.94 49.3434 88.8592 49.3623C88.7815 49.378 88.7086 49.4116 88.6463 49.4605C88.5828 49.5204 88.5326 49.5929 88.499 49.6734C88.4748 49.7535 88.4748 49.8389 88.499 49.919C89.6693 53.0018 91.7547 55.6528 94.4752 57.5162C97.7274 59.5905 101.49 60.7239 105.347 60.7909C106.526 60.7909 107.705 60.7909 108.884 60.7909C110.046 60.7909 111.634 60.7909 112.535 60.0704C113.436 59.35 112.535 58.4331 111.765 58.3185C110.996 58.2039 110.325 57.1396 109.866 56.6812C109.719 56.5174 109.473 56.6812 109.621 56.9431C110.171 57.5185 110.675 58.1372 111.127 58.7933V58.4986L110.898 58.9079L112.306 58.4986C111.686 58.2477 111.002 58.2074 110.357 58.384C109.686 58.384 109.113 58.515 108.491 58.5641C107.23 58.6623 105.986 58.7115 104.725 58.6951C102.365 58.6657 100.021 58.2962 97.7663 57.5981C95.8118 57.0643 94.0188 56.0576 92.5454 54.667C91.072 53.2764 89.9635 51.5446 89.3176 49.6243L88.6954 50.1318C90.8436 51.6856 92.8002 53.4883 94.5243 55.5023C95.3921 56.4847 96.1617 57.4835 97.095 58.4331C98.0071 59.4676 98.8495 60.5615 99.6165 61.7078C99.7474 61.8879 100.026 61.7078 99.9112 61.5277L99.8948 61.5604Z" fill="#38241E"/>
<path d="M112.453 45.5803C112.165 45.1322 111.771 44.7612 111.307 44.4997C110.849 44.1722 110.406 43.8611 109.932 43.5664C108.884 42.9278 107.869 42.2565 106.87 41.5688C104.889 40.2262 102.989 38.769 101.09 37.3118L100.419 39.0801C101.45 38.9982 102.515 39.0801 103.562 39.0801C104.61 39.0801 105.675 39.0801 106.722 38.9491C108.876 38.773 111.011 38.4226 113.108 37.9012C115.171 37.3794 117.182 36.6725 119.117 35.789C121.114 34.9479 123.01 33.8822 124.766 32.6126C125.111 32.3839 125.357 32.0329 125.454 31.6302C125.544 31.2286 125.48 30.8077 125.273 30.4513C125.043 30.1107 124.692 29.8694 124.292 29.7753C123.892 29.6813 123.47 29.7414 123.112 29.9438C121.518 31.2048 119.839 32.3536 118.086 33.3822C116.333 34.3503 114.491 35.1454 112.584 35.7563C110.665 36.3972 108.684 36.8361 106.673 37.0662C105.695 37.1783 104.711 37.2329 103.726 37.2299C102.689 37.2929 101.648 37.2158 100.632 37.0007C99.6983 36.7387 98.8469 38.0977 99.6819 38.7362C101.654 40.2327 103.709 41.6158 105.838 42.8787C106.886 43.5009 107.934 44.1067 108.998 44.6961C109.53 45.0019 110.076 45.2806 110.636 45.5312C111.107 45.7911 111.637 45.9263 112.175 45.9241C112.175 45.9241 112.273 45.9241 112.306 45.9241C112.346 45.9002 112.38 45.8664 112.404 45.8259C112.411 45.788 112.411 45.7492 112.404 45.7113C112.404 45.7113 112.486 45.613 112.453 45.5803Z" fill="#38241E"/>
<path d="M176.784 79.8171C174.966 78.2951 172.877 77.1287 170.628 76.3787C170.882 75.3637 170.772 74.2918 170.317 73.3496C167.613 67.1781 163.98 61.4574 159.543 56.3868C155.499 51.7041 150.898 46.1208 145.74 42.6332C143.53 41.1433 142.138 39.1785 140.042 37.5739C137.071 35.4769 133.927 33.6364 130.644 32.0724C124.346 29.1446 117.656 27.148 110.783 26.1453L107.23 25.4576C107.514 25.4951 107.802 25.4714 108.075 25.3879C108.349 25.3045 108.601 25.1633 108.815 24.9739C109.029 24.7845 109.2 24.5514 109.317 24.2902C109.433 24.0291 109.492 23.746 109.49 23.4601C109.528 22.6623 109.388 21.8659 109.08 21.1293C108.771 20.3927 108.301 19.7345 107.705 19.203C107.247 18.8325 106.754 18.5088 106.231 18.237C106.371 17.9731 106.491 17.6995 106.592 17.4183C107.405 15.9935 107.665 14.3186 107.32 12.7143C106.976 11.1101 106.052 9.68926 104.725 8.72407C103.443 7.83739 101.887 7.43681 100.337 7.59431L98.9615 7.77442H98.192C98.192 7.59431 98.192 7.44695 98.192 7.39783C98.243 6.61932 98.1168 5.83938 97.8228 5.11672C97.5287 4.39406 97.0746 3.74752 96.4945 3.22578C95.9145 2.70404 95.2236 2.3207 94.4739 2.10461C93.7243 1.88852 92.9354 1.84532 92.1666 1.97826C89.8089 2.31697 87.6462 3.47658 86.0593 5.25293C84.9955 4.08025 83.6562 3.19113 82.1625 2.66594C81.0454 2.25962 79.8355 2.18092 78.6752 2.43908C77.5149 2.69725 76.4525 3.28154 75.6131 4.12317C74.4763 5.45803 73.6956 7.0587 73.3435 8.77631C72.9914 10.4939 73.0793 12.2727 73.5992 13.9472C72.5346 13.6667 71.4094 13.7222 70.3776 14.1062C69.3458 14.4902 68.458 15.1838 67.8358 16.0921C67.2954 16.678 66.9056 17.3866 66.7002 18.1568C66.4949 18.927 66.48 19.7356 66.6569 20.5129C66.7968 20.9047 66.9608 21.2875 67.1481 21.659C67.1697 21.8142 67.2197 21.964 67.2955 22.1011C67.9832 23.2308 68.6872 24.3606 69.4077 25.474C69.5217 25.6685 69.6929 25.8232 69.898 25.917C70.1031 26.0107 70.3321 26.039 70.5538 25.9979C70.8683 26.3173 71.2201 26.5977 71.6017 26.833C69.6696 26.9749 67.7376 27.155 65.8055 27.3733C65.8201 27.3197 65.8201 27.2632 65.8055 27.2096V26.6365C65.8548 26.5102 65.8548 26.3699 65.8055 26.2435C65.7705 26.1727 65.717 26.1125 65.6508 26.0693C65.5845 26.0261 65.5079 26.0015 65.4289 25.9979C65.3563 25.988 65.2824 25.9944 65.2125 26.0167C65.1427 26.039 65.0788 26.0766 65.0254 26.1269C64.972 26.1771 64.9305 26.2387 64.904 26.307C64.8775 26.3754 64.8667 26.4488 64.8722 26.5219V27.1113C64.8786 27.1753 64.8978 27.2372 64.9287 27.2935C64.9597 27.3498 65.0017 27.3992 65.0524 27.4388C60.7449 27.8756 56.5061 28.8323 52.4285 30.2878C45.5098 33.0323 38.9195 36.5416 32.7805 40.7503C26.0838 45.1875 21.5975 51.6222 16.8493 57.9587C14.3301 61.1498 11.9747 64.467 9.79235 67.8973C8.48248 70.0913 7.86029 72.3181 9.97245 74.201L5.07682 75.3635C4.40614 75.5576 3.79928 75.9269 3.31869 76.4334C2.8381 76.9399 2.50114 77.5653 2.34248 78.2452C2.22787 78.7692 2.146 79.2931 2.04776 79.8826C1.9646 80.1195 1.92036 80.3683 1.91677 80.6194C1.63842 82.2567 1.36008 83.8941 1.0981 85.5314C0.972327 86.4387 1.10277 87.3631 1.47469 88.2002C1.50737 88.7501 1.67042 89.2842 1.95037 89.7585C2.23031 90.2329 2.61911 90.6338 3.08463 90.9281C3.55016 91.2225 4.07905 91.4018 4.6276 91.4513C5.17615 91.5009 5.72861 91.4192 6.23933 91.2129C15.13 87.4143 25.2815 86.0226 34.6634 83.7303C40.1976 82.3222 45.6991 81.127 51.266 80.2755C54.7044 81.5035 58.4866 81.1597 62.1051 80.8977C66.7552 80.5703 71.3888 80.0136 76.0552 79.768C85.5354 79.3095 95.0647 79.0475 104.561 79.1949C114.153 79.2336 123.724 80.1047 133.165 81.7983C137.655 82.6408 142.093 83.7341 146.461 85.0729C150.98 86.481 155.237 88.937 160.001 89.1826C160.524 89.2078 161.047 89.13 161.54 88.9534C161.77 89.1712 162.022 89.3634 162.294 89.5265C163.738 90.0363 165.222 90.4251 166.731 90.689C168.646 91.4094 170.513 92.3263 172.38 93.1122C172.983 93.4272 173.657 93.5815 174.337 93.5602C175.018 93.5389 175.681 93.3428 176.263 92.9907C176.846 92.6386 177.328 92.1425 177.663 91.55C177.998 90.9576 178.174 90.2889 178.176 89.6083C178.29 86.5465 179.371 82.1749 176.784 79.8171ZM80.4269 20.3819C80.5906 20.3819 80.5743 20.4801 80.4269 20.3819V20.3819ZM82.5227 8.06914C82.5227 7.98727 82.5227 7.95453 82.5227 7.9709C82.5313 7.98583 82.5359 8.00277 82.5359 8.02002C82.5359 8.03726 82.5313 8.05421 82.5227 8.06914ZM131.79 68.0447L127.5 67.1769C129.318 67.357 131.152 67.5535 132.969 67.7827L135.343 68.0938L131.79 68.0447ZM53.2963 38.851H53.0998L53.6565 38.6382L53.2963 38.851ZM98.1592 8.44573C99.5018 9.98482 98.2902 8.69133 98.1592 8.44573V8.44573Z" fill="#72CE52"/>
<path d="M176.227 77.9013C176.124 79.2535 176.201 80.6136 176.457 81.9455C176.588 83.4682 176.669 84.9746 176.653 86.4973C176.646 87.9175 176.531 89.3351 176.309 90.738C176.207 91.3943 176.071 92.0447 175.9 92.6864C175.622 93.3721 175.445 94.0947 175.376 94.8313C175.384 95.0686 175.462 95.2982 175.6 95.4916C175.738 95.6851 175.929 95.8337 176.151 95.9192C176.372 96.0047 176.614 96.0232 176.846 95.9724C177.078 95.9216 177.29 95.8038 177.455 95.6336C178.317 94.43 178.812 93.0026 178.88 91.5239C179.131 89.9267 179.235 88.3099 179.191 86.6938C179.152 85.1331 179.032 83.5755 178.831 82.0274C178.789 80.5203 178.455 79.0357 177.848 77.6557C177.756 77.5057 177.621 77.3862 177.461 77.3121C177.301 77.2379 177.123 77.2123 176.949 77.2385C176.774 77.2646 176.611 77.3414 176.48 77.4592C176.349 77.577 176.256 77.7307 176.211 77.9013H176.227Z" fill="#38241E"/>
<path d="M2.53892 93.7012C23.2512 85.7601 45.5353 82.2399 67.6229 81.323C91.9943 80.2825 116.406 81.9685 140.402 86.3496C152.589 88.5457 164.576 91.7327 176.244 95.8789C177.881 96.4847 179.093 93.5866 177.406 92.9153C156.121 84.5485 133.198 80.6189 110.587 78.998C85.8739 77.2126 61.0375 78.3116 36.5791 82.2726C24.6995 84.029 13.0908 87.286 2.03135 91.9656C1.0162 92.4077 1.45828 94.0778 2.53892 93.603V93.7012Z" fill="#38241E"/>
<path d="M2.53894 77.7048C23.2512 69.7637 45.5353 66.2435 67.6229 65.3266C91.9817 64.3144 116.377 66.0334 140.353 70.4514C152.541 72.6343 164.528 75.816 176.195 79.9643C177.832 80.5701 179.044 77.672 177.357 77.0171C156.072 68.634 133.149 64.7044 110.537 63.0834C85.8248 61.298 60.9883 62.397 36.53 66.3581C24.6494 68.101 13.0397 71.3528 1.98225 76.0347C0.967099 76.4768 1.40918 78.1469 2.48982 77.672L2.53894 77.7048Z" fill="#38241E"/>
<path d="M1.4583 76.4277C1.17402 77.0334 0.986192 77.6797 0.901605 78.3434C0.721499 79.0475 0.623256 79.7843 0.508643 80.5211C0.268694 81.9793 0.110178 83.4497 0.0338208 84.9255C-0.0455201 86.3089 0.0148216 87.6967 0.213928 89.0679C0.243888 90.5865 0.747647 92.0577 1.65478 93.2759C1.83053 93.4331 2.04784 93.5364 2.28073 93.5735C2.51362 93.6105 2.75225 93.5797 2.9681 93.4847C3.18394 93.3897 3.36788 93.2346 3.49793 93.0379C3.62797 92.8412 3.69862 92.6112 3.70144 92.3754C3.63723 91.6819 3.46601 91.0025 3.19387 90.3614C2.98884 89.7421 2.83549 89.1068 2.73542 88.4621C2.5657 87.1815 2.49999 85.8893 2.53894 84.598C2.55779 83.2949 2.65072 81.9938 2.81728 80.7012C3.12955 79.355 3.22354 77.9674 3.09563 76.5915C2.9319 75.7892 1.85126 75.8383 1.4583 76.4277Z" fill="#38241E"/>
<path d="M79.4936 62.3794C77.054 63.2964 76.4809 67.2914 76.1043 69.5346C75.5312 72.9239 74.909 79.1457 78.6094 80.8158C78.8721 80.9506 79.1614 81.0255 79.4565 81.0351C79.7516 81.0447 80.0451 80.9888 80.316 80.8714C80.5869 80.7539 80.8283 80.5779 81.023 80.356C81.2178 80.134 81.3608 79.8717 81.442 79.5878C82.0642 77.8031 81.2619 76.526 80.9836 74.6758C80.7734 73.1033 80.801 71.5082 81.0654 69.9439C81.4663 67.9651 81.6856 65.9537 81.7204 63.9349C81.7162 63.6673 81.6501 63.4043 81.5275 63.1665C81.4048 62.9287 81.2287 62.7224 81.0131 62.5639C80.7975 62.4053 80.5482 62.2988 80.2846 62.2526C80.021 62.2064 79.7502 62.2218 79.4936 62.2976V62.3794Z" fill="#38241E"/>
<path d="M59.338 64.0499C56.8165 64.754 56.0633 69.142 55.8177 71.2869C55.3429 74.5616 55.0318 80.7016 58.9287 81.7822C59.3455 81.8779 59.782 81.8373 60.174 81.6663C60.566 81.4954 60.8928 81.2031 61.1063 80.8326C61.9577 79.1953 61.4174 78.2129 61.1063 76.5755C60.7385 75.015 60.6553 73.4009 60.8607 71.8109C61.2699 69.7852 61.538 67.7336 61.663 65.6709C61.6531 65.4038 61.5827 65.1424 61.4572 64.9064C61.3317 64.6704 61.1544 64.4659 60.9385 64.3083C60.7226 64.1507 60.4737 64.0441 60.2107 63.9965C59.9477 63.9489 59.6773 63.9616 59.4199 64.0335L59.338 64.0499Z" fill="#38241E"/>
<path d="M38.02 66.489C35.4658 67.3568 35.3511 71.5484 35.171 73.7424C34.9254 76.6896 34.6962 83.0916 38.6094 83.6646C39.0239 83.7565 39.4568 83.714 39.8454 83.5433C40.234 83.3725 40.5581 83.0824 40.7707 82.715C41.5566 81.0777 41.0818 80.3572 40.607 78.7526C40.2177 77.1797 40.0796 75.555 40.1977 73.9389C40.1977 72.629 40.3614 71.3192 40.4269 70.0093C40.4678 69.508 40.4678 69.0042 40.4269 68.5029C40.4269 68.3556 40.0667 66.9966 40.214 67.6515C40.0742 67.2157 39.7709 66.8511 39.3679 66.6343C38.9648 66.4175 38.4934 66.3655 38.0528 66.489H38.02Z" fill="#38241E"/>
<path d="M17.9299 70.6969C15.8177 71.4173 15.5557 74.43 15.3265 76.2965C14.7716 79.4955 15.0248 82.7824 16.0633 85.8586C16.1927 86.2969 16.4346 86.6938 16.765 87.0098C17.0953 87.3258 17.5025 87.5498 17.9462 87.6596L18.5193 87.7415C18.9326 87.835 19.3647 87.7969 19.7552 87.6325C20.1457 87.468 20.475 87.1855 20.6969 86.8246C21.4829 85.2691 21.008 84.5159 20.5496 82.9277C20.1895 81.389 20.0571 79.8058 20.1566 78.2286C20.1566 76.9023 20.2876 75.5925 20.3204 74.2662C20.3694 73.7599 20.3694 73.2499 20.3204 72.7435C20.3204 72.5962 19.9274 71.2372 20.0911 71.8921C19.9586 71.4514 19.6565 71.0813 19.2512 70.8633C18.8459 70.6453 18.3706 70.5972 17.9299 70.7296V70.6969Z" fill="#38241E"/>
<path d="M96.9803 64.1315C97.0479 66.1885 97.2833 68.2365 97.6844 70.2552C97.8808 71.6893 97.8808 73.1436 97.6844 74.5777C97.4388 76.4934 96.5219 77.8524 97.2096 79.7353C97.3031 80.015 97.4578 80.2703 97.6625 80.4826C97.8673 80.6949 98.1168 80.8588 98.3929 80.9623C98.6691 81.0659 98.9648 81.1065 99.2586 81.0811C99.5525 81.0558 99.8369 80.9652 100.091 80.816C103.759 79.1786 103.071 72.793 102.482 69.4692C102.072 67.1606 101.565 63.362 99.0434 62.4123C97.8809 61.9703 96.9803 63.1491 96.8985 64.0497L96.9803 64.1315Z" fill="#38241E"/>
<path d="M118.79 66.423C118.85 68.4805 119.085 70.5292 119.494 72.5467C119.69 73.9808 119.69 75.4351 119.494 76.8692C119.248 78.7685 118.331 80.1439 119.019 82.0105C119.111 82.2916 119.264 82.5486 119.468 82.7627C119.672 82.9768 119.921 83.1425 120.198 83.2477C120.474 83.3529 120.77 83.3949 121.065 83.3706C121.36 83.3464 121.645 83.2564 121.901 83.1075C125.552 81.4701 124.881 75.0845 124.291 71.7607C123.882 69.4357 123.374 65.6535 120.853 64.6875C119.69 64.2454 118.79 65.4406 118.708 66.423H118.79Z" fill="#38241E"/>
<path d="M141.598 69.2889C141.318 71.4052 141.23 73.5425 141.336 75.6745C141.352 77.2421 141.137 78.8035 140.697 80.3082C140.091 82.2566 139.224 83.1735 139.649 85.2202C139.804 85.7096 140.144 86.119 140.597 86.3608C141.05 86.6025 141.58 86.6574 142.072 86.5137C145.986 85.4494 146.411 79.3422 146.33 75.9038C146.33 73.6934 146.33 69.3544 144.119 68.1756C143.886 68.0506 143.627 67.98 143.363 67.9692C143.099 67.9584 142.835 68.0077 142.593 68.1132C142.35 68.2188 142.134 68.3779 141.962 68.5787C141.79 68.7795 141.665 69.0167 141.598 69.2726V69.2889Z" fill="#38241E"/>
<path d="M160.296 73.546C160.033 75.6637 159.945 77.7995 160.034 79.9316C160.06 81.5051 159.845 83.0733 159.396 84.5816C158.79 86.5137 157.938 87.447 158.348 89.4936C158.503 89.9837 158.842 90.3942 159.294 90.6386C159.747 90.883 160.276 90.9422 160.771 90.8035C164.7 89.7229 165.11 83.6156 165.044 80.1772C165.044 77.9668 165.044 73.7097 162.818 72.449C162.584 72.324 162.326 72.2535 162.061 72.2427C161.797 72.2319 161.534 72.2811 161.291 72.3867C161.048 72.4922 160.833 72.6514 160.661 72.8522C160.488 73.053 160.364 73.2902 160.296 73.546Z" fill="#38241E"/>
<path d="M8.84267 75.0361C10.9876 72.4655 11.6261 69.24 13.067 66.26C17.496 57.2546 24.0479 49.4608 32.1583 43.5502C40.0034 37.8769 48.7416 33.5548 58.0118 30.7626C69.3622 27.4067 81.1951 25.9788 93.018 26.5383C108.245 27.0459 124.93 29.6165 137.799 38.278C150.668 46.9395 163.767 59.9563 168.106 75.4618C168.288 75.9118 168.631 76.2776 169.069 76.4878C169.506 76.6979 170.007 76.7371 170.472 76.5979C170.936 76.4586 171.333 76.1508 171.583 75.7347C171.833 75.3187 171.918 74.8243 171.823 74.3485C167.713 59.7434 156.661 47.8073 144.741 38.9493C132.396 29.7802 118.691 25.8506 103.399 24.0823C79.379 21.4298 53.5746 25.2285 32.9933 38.5236C26.9207 42.3743 21.499 47.166 16.9311 52.7193C14.5298 55.672 12.4496 58.8719 10.7256 62.2649C8.94091 65.7852 6.46854 70.206 6.95974 74.2338C7.07435 75.118 8.22048 75.7893 8.90816 74.987L8.84267 75.0361Z" fill="#38241E"/>
<path d="M70.3736 26.145C69.1882 25.0875 68.2945 23.7429 67.7784 22.2405C67.2623 20.7381 67.1411 19.1282 67.4264 17.5654C67.5329 16.9625 67.7587 16.387 68.0904 15.8725C68.4222 15.358 68.8533 14.9149 69.3585 14.5691C70.1377 14.0462 71.0771 13.8167 72.0096 13.9217C72.9421 14.0266 73.8071 14.4591 74.4506 15.1421C74.5904 15.2551 74.7648 15.3168 74.9446 15.3168C75.1244 15.3167 75.2987 15.2551 75.4385 15.1421C75.5784 15.0291 75.6752 14.8715 75.713 14.6957C75.7507 14.52 75.727 14.3365 75.6458 14.1761C74.7039 12.6345 74.3231 10.815 74.5677 9.02502C74.8123 7.23507 75.6674 5.58445 76.9885 4.35211C77.5297 3.95923 78.1483 3.68597 78.8032 3.55047C79.4581 3.41497 80.1344 3.42033 80.7871 3.56619C83.0138 3.9919 84.2091 6.13681 85.3389 7.90513C85.4485 8.06892 85.6028 8.19787 85.7835 8.2767C85.9641 8.35553 86.1636 8.38095 86.3583 8.34994C86.5529 8.31893 86.7346 8.2328 86.8819 8.10173C87.0291 7.97067 87.1357 7.80017 87.189 7.61041C88.1223 5.2199 89.8579 2.10897 92.8378 2.17446C95.8178 2.23995 97.0294 5.56374 96.1125 8.05249C95.8178 8.95302 96.8821 9.46059 97.5861 9.11675C100.566 7.6759 104.709 8.24897 106.1 11.6382C106.362 12.1853 106.484 12.7887 106.456 13.3944C106.427 14.0002 106.249 14.5894 105.937 15.1094C105.378 15.8923 104.753 16.6263 104.07 17.3034C103.909 17.4758 103.796 17.687 103.741 17.9163C103.687 18.1456 103.693 18.3851 103.759 18.6114C103.825 18.8376 103.949 19.0428 104.118 19.2067C104.288 19.3707 104.497 19.4878 104.725 19.5466C105.697 19.7446 106.611 20.1649 107.394 20.7746C107.844 21.0902 108.16 21.5635 108.278 22.1008C108.278 22.8867 107.426 23.9182 106.837 24.5568C105.609 25.8503 107.476 27.4876 108.785 26.407C111.061 24.5241 112.06 21.495 109.621 19.2682C108.382 18.2022 106.939 17.3999 105.38 16.9105L106.035 19.17C107.197 18.3117 108.191 17.2459 108.966 16.0263C109.417 15.0701 109.633 14.0199 109.596 12.9632C109.559 11.9065 109.27 10.874 108.753 9.95179C108.295 9.00805 107.63 8.17953 106.808 7.52763C105.986 6.87573 105.028 6.41717 104.004 6.18593C101.58 5.89958 99.1236 6.27881 96.8984 7.28294L98.0446 8.69105C98.4467 7.83744 98.6462 6.90244 98.6274 5.95902C98.6086 5.01561 98.372 4.0893 97.9361 3.25241C97.5002 2.41551 96.8768 1.69067 96.1146 1.13446C95.3523 0.578244 94.4719 0.205707 93.5419 0.0459251C89.3176 -0.478022 86.5177 3.58257 85.2242 7.05371L87.0744 6.77537C85.6499 4.61409 84.0945 2.23995 81.3929 1.68326C80.488 1.46503 79.5466 1.4457 78.6335 1.62662C77.7205 1.80753 76.8576 2.18438 76.1043 2.73115C74.4683 4.27193 73.4027 6.32171 73.0816 8.546C72.7604 10.7703 73.2026 13.0378 74.336 14.9784L75.5149 14.0124C74.7553 13.2338 73.7772 12.7042 72.71 12.4937C71.6429 12.2832 70.5369 12.4017 69.5386 12.8335C68.7594 13.1575 68.0617 13.6499 67.4955 14.2756C66.9293 14.9012 66.5087 15.6445 66.2639 16.452C65.7403 18.3251 65.7844 20.3114 66.3907 22.1594C66.997 24.0074 68.1381 25.6339 69.6696 26.8327C70.1444 27.1929 70.7993 26.5544 70.3245 26.145H70.3736Z" fill="#38241E"/>
<path d="M73.7302 14.1106C73.8174 14.1954 73.9243 14.2573 74.0412 14.2907L74.3687 14.389C74.5717 14.4548 74.7645 14.5485 74.9418 14.6673C75.3049 14.9138 75.6303 15.2116 75.9078 15.5515C76.2014 15.8731 76.4443 16.2374 76.6282 16.6321C76.6838 16.7757 76.7277 16.9235 76.7592 17.0742C76.7592 17.2052 76.7592 16.9923 76.7592 17.0742V17.2871V17.4508C76.7592 17.3362 76.7592 17.4508 76.7592 17.4508H76.661C76.661 17.4508 76.7756 17.4508 76.661 17.4508C76.5791 17.4508 76.7592 17.4508 76.661 17.4508C76.5627 17.4508 76.7592 17.4508 76.661 17.4508H76.5627L76.3826 17.3526C76.4809 17.3526 76.3826 17.3526 76.3826 17.2543C76.2844 17.1397 76.3826 17.3362 76.3826 17.2543C76.3295 17.1837 76.2855 17.1067 76.2516 17.0251C76.2516 16.9432 76.2516 17.1233 76.2516 17.0251V16.8614C76.24 16.7689 76.24 16.6754 76.2516 16.583C76.227 16.2997 76.227 16.0149 76.2516 15.7316C76.2516 15.4533 76.2516 15.1749 76.2516 14.8966C76.2516 14.6182 76.2517 14.1434 76.0061 13.8978C75.9187 13.8184 75.8048 13.7744 75.6868 13.7744C75.5687 13.7744 75.4549 13.8184 75.3675 13.8978C75.197 14.2071 75.1446 14.5679 75.2201 14.9129V15.7807C75.2097 16.3406 75.3099 16.897 75.5149 17.4181C75.6568 17.7916 75.9232 18.1048 76.2692 18.3046C76.6153 18.5045 77.0197 18.5788 77.4142 18.5151C77.7361 18.3994 78.0026 18.1666 78.1604 17.8631C78.3182 17.5596 78.3558 17.2077 78.2656 16.8777C77.9242 15.9107 77.2886 15.0748 76.4481 14.4872C76.1838 14.2531 75.8751 14.0745 75.5404 13.962C75.2057 13.8495 74.8518 13.8054 74.4997 13.8323C74.4794 13.8457 74.4628 13.864 74.4513 13.8854C74.4398 13.9068 74.4338 13.9308 74.4338 13.9551C74.4338 13.9794 74.4398 14.0033 74.4513 14.0248C74.4628 14.0462 74.4794 14.0644 74.4997 14.0779L73.7302 14.1106Z" fill="#38241E"/>
<path d="M84.6512 5.92393C85.3519 7.00585 85.9809 8.13257 86.5341 9.29684C86.9926 10.2137 87.5001 11.4581 86.5341 12.2768C86.3841 12.4099 86.2045 12.5053 86.0102 12.5551C85.9403 12.5644 85.8693 12.5589 85.8016 12.5392C85.734 12.5195 85.6712 12.4859 85.6172 12.4405L85.5026 12.3259C85.4497 12.2671 85.4055 12.2009 85.3716 12.1294V12.0476C85.3716 11.9002 85.3716 12.1622 85.3716 12.0476C85.2552 11.6013 85.2435 11.1342 85.3372 10.6827C85.4309 10.2311 85.6276 9.80729 85.9119 9.4442C86.223 8.92025 86.5669 8.42905 86.878 7.92148C87.1891 7.4139 87.8112 6.59524 87.582 5.97305C87.5547 5.89017 87.5092 5.81439 87.449 5.7512C87.3888 5.68801 87.3153 5.63898 87.2339 5.60765C87.1524 5.57632 87.065 5.56347 86.978 5.57003C86.8909 5.57659 86.8064 5.60239 86.7306 5.64558C86.3704 5.85844 86.2885 6.21865 86.1084 6.56249C85.9551 6.87137 85.7857 7.17196 85.6008 7.46302C85.2734 7.98697 84.9132 8.51092 84.6184 9.10036C84.2646 9.62959 84.044 10.2366 83.9756 10.8695C83.9072 11.5025 83.9929 12.1426 84.2255 12.7352C84.3291 12.9931 84.4854 13.2266 84.6845 13.4206C84.8835 13.6146 85.1208 13.765 85.3812 13.8621C85.6417 13.9592 85.9195 14.0009 86.197 13.9844C86.4744 13.968 86.7454 13.8939 86.9926 13.7668C87.6209 13.4107 88.0851 12.8231 88.2861 12.1294C88.4565 11.3633 88.3461 10.5615 87.975 9.8699C87.6482 9.09202 87.2305 8.35556 86.7306 7.67588C86.2911 6.93921 85.7386 6.27619 85.0933 5.71108C84.8804 5.56372 84.5529 5.71108 84.7167 6.0058L84.6512 5.92393Z" fill="#38241E"/>
<path d="M96.8821 6.59521C96.7479 7.44049 96.4652 8.25535 96.047 9.00209C95.8485 9.36544 95.6184 9.71061 95.3593 10.0336C95.114 10.3777 94.7952 10.663 94.4261 10.8687C94.3664 10.8934 94.3024 10.9062 94.2378 10.9062C94.1731 10.9062 94.1092 10.8934 94.0495 10.8687C94.0495 10.8687 94.0495 10.8687 93.9512 10.7049C93.9347 10.6129 93.9347 10.5186 93.9512 10.4266C93.9831 10.2873 94.0574 10.1614 94.1641 10.0664C94.4531 9.80785 94.7857 9.60273 95.1465 9.46055C95.6049 9.26407 96.047 9.05121 96.5219 8.87111L98.0773 8.24892C98.6705 8.10002 99.2274 7.83269 99.7146 7.463C99.789 7.3865 99.8391 7.2897 99.8585 7.1848C99.8779 7.0799 99.8659 6.9716 99.8239 6.87354C99.7818 6.77548 99.7117 6.69206 99.6223 6.63379C99.533 6.57552 99.4284 6.545 99.3217 6.54609C99.0073 6.5481 98.6982 6.62679 98.4212 6.77532L97.4879 7.15191L95.7523 7.90508C94.7863 8.31441 93.4764 8.691 92.9361 9.68977C92.8162 9.91213 92.7494 10.1592 92.7409 10.4117C92.7324 10.6641 92.7824 10.9152 92.8871 11.1451C92.9917 11.375 93.1482 11.5776 93.3441 11.737C93.5401 11.8964 93.7703 12.0083 94.0167 12.0639C95.1792 12.1621 96.0307 10.9833 96.571 10.0991C97.2071 9.05972 97.5729 7.87768 97.6352 6.66071C97.6289 6.56859 97.5902 6.48166 97.5262 6.41517C97.4621 6.34869 97.3766 6.3069 97.2848 6.29713C97.193 6.28736 97.1006 6.31024 97.024 6.36175C96.9474 6.41327 96.8913 6.49012 96.8657 6.57884L96.8821 6.59521Z" fill="#38241E"/>
<path d="M106.28 15.814C105.61 16.1741 104.992 16.626 104.447 17.1566L102.809 18.5647C102.323 19.0388 101.772 19.4412 101.172 19.7599C100.877 19.8746 100.19 20.0219 100.075 19.5798C100.153 19.4913 100.247 19.419 100.353 19.367C100.592 19.2309 100.852 19.1368 101.123 19.0886C101.729 19.0091 102.344 19.0368 102.94 19.1705C104.371 19.5183 105.819 19.7862 107.279 19.9728C107.442 19.9736 107.6 19.9137 107.721 19.8047C107.842 19.6957 107.918 19.5455 107.934 19.3834C107.951 19.2202 107.91 19.0562 107.817 18.9211C107.723 18.786 107.585 18.6886 107.427 18.6466C106.728 18.4506 106.017 18.3029 105.298 18.2045L103.219 17.8115C101.972 17.5095 100.659 17.6664 99.5182 18.2536C99.2493 18.3966 99.0256 18.6119 98.8723 18.8751C98.719 19.1383 98.6422 19.4391 98.6504 19.7436C98.6881 20.0427 98.8031 20.3268 98.984 20.5679C99.1648 20.8091 99.4054 20.999 99.682 21.1189C100.975 21.7084 102.236 20.7915 103.153 19.9564C103.775 19.3997 104.381 18.8267 104.987 18.3191L105.887 17.4349C106.212 17.1624 106.494 16.8422 106.722 16.4853C106.756 16.4185 106.769 16.3437 106.761 16.2696C106.753 16.1955 106.724 16.1251 106.678 16.0668C106.632 16.0084 106.57 15.9644 106.499 15.94C106.429 15.9155 106.353 15.9115 106.28 15.9286V15.814Z" fill="#38241E"/>
</svg>
