<svg width="28" height="76" viewBox="0 0 28 76" fill="none" xmlns="http://www.w3.org/2000/svg">
<path d="M18.9382 57.482C19.5255 58.2206 20.2919 58.7895 20.8294 59.588C21.3677 60.3801 21.6934 61.2979 21.775 62.2528C21.8507 63.1947 21.6315 64.1367 21.1479 64.9477C20.8533 65.3889 20.5202 65.8031 20.1525 66.1853C19.8671 66.5469 19.532 66.8662 19.1572 67.1335C18.5898 67.4828 18.8187 68.5208 19.5453 68.4509C20.8294 68.3012 21.6357 67.1734 22.3225 66.1753C23.0427 65.0841 23.3918 63.7888 23.3179 62.4824C23.2555 61.2408 22.8637 60.0383 22.1831 58.9991C21.5771 57.9229 20.6467 57.0669 19.5254 56.5538C19.4066 56.5255 19.282 56.5333 19.1675 56.5761C19.053 56.6189 18.9537 56.6948 18.8823 56.7942C18.8109 56.8936 18.7705 57.012 18.7662 57.1345C18.762 57.2569 18.7941 57.3779 18.8585 57.482H18.9382Z" fill="#FFD447"/>
<path d="M20.0827 60.1069C19.8902 59.3233 19.4503 58.6231 18.8285 58.1107C18.4866 57.8567 18.0685 57.7272 17.6432 57.7436C17.218 57.7599 16.811 57.9211 16.4894 58.2005C15.9015 58.7637 15.437 59.4435 15.1257 60.1967C14.7424 60.9799 14.4838 61.8184 14.3593 62.6819C14.2307 63.4848 14.2761 64.306 14.4926 65.0897C14.709 65.8733 15.0913 66.601 15.6135 67.2232C15.7488 67.4006 15.9179 67.5493 16.1109 67.6607C16.304 67.7721 16.5173 67.8439 16.7383 67.8719C17.1546 67.8503 17.5587 67.7232 17.9128 67.5027C18.538 67.1236 19.0635 66.6 19.4457 65.9756C19.9506 65.1753 20.2862 64.2795 20.4317 63.3438C20.5773 62.4082 20.5296 61.4525 20.2918 60.536L18.8285 61.4443C18.9579 61.5441 18.948 61.6539 18.948 61.8435C18.948 62.2328 18.948 62.622 18.948 63.0013C18.8963 63.7434 18.7898 64.4807 18.6295 65.2071C18.5978 65.3408 18.5969 65.4801 18.6267 65.6143C18.6565 65.7484 18.7164 65.8741 18.8017 65.9817C18.887 66.0894 18.9955 66.1762 19.1192 66.2356C19.2428 66.2951 19.3783 66.3256 19.5154 66.3249C19.7368 66.321 19.9532 66.2579 20.1422 66.1421C20.3312 66.0263 20.4859 65.862 20.5904 65.6662C20.7019 65.4577 20.7279 65.2138 20.6629 64.9864C20.5978 64.759 20.4468 64.566 20.242 64.4485C19.9946 64.3134 19.7193 64.2377 19.4378 64.2273C19.1563 64.2169 18.8762 64.2721 18.6195 64.3886C18.3819 64.494 18.1579 64.6281 17.9526 64.7879L17.6241 65.0374C17.5644 65.0873 17.4848 65.1073 17.5346 65.1073L18.0123 65.227L18.2214 65.4666V65.3568C18.2088 65.2483 18.1854 65.1413 18.1517 65.0374C18.1517 64.7979 18.0422 64.5583 17.9924 64.3188C17.9176 63.9264 17.8677 63.5297 17.8431 63.131C17.7821 62.4455 17.9059 61.7561 18.2014 61.1349C18.2612 61.0351 18.4005 60.8953 18.4204 60.7855C18.4403 60.6758 18.4205 60.576 18.0422 60.5859C17.7336 60.3165 17.5943 60.2965 17.6142 60.4961C17.6341 60.6957 17.6142 60.7157 17.6142 60.8055L17.5246 62.2328L17.3554 65.1073C17.3552 65.2426 17.3825 65.3766 17.4356 65.5011C17.4887 65.6256 17.5665 65.7379 17.6643 65.8312C17.7621 65.9246 17.8778 65.9971 18.0043 66.0442C18.1309 66.0913 18.2657 66.1121 18.4005 66.1054C18.6699 66.09 18.9232 65.9718 19.1083 65.7751C19.2934 65.5783 19.3964 65.3179 19.3959 65.0474L19.4855 62.5122L19.5353 61.1648C19.5944 60.7711 19.5944 60.3708 19.5353 59.9771C19.488 59.7524 19.3859 59.543 19.238 59.3676C19.0902 59.1922 18.9012 59.0564 18.6881 58.9723C18.475 58.8883 18.2444 58.8585 18.017 58.8858C17.7896 58.9131 17.5725 58.9966 17.3852 59.1287C16.8043 59.6228 16.3905 60.2853 16.2007 61.0251C15.8335 62.5434 15.8816 64.133 16.3401 65.6263C16.5392 66.4746 17.0966 67.333 18.1119 66.9836C18.4816 66.837 18.8196 66.6201 19.1073 66.3449C19.2248 66.2419 19.3478 66.1453 19.4756 66.0554L19.1272 64.8378L19.5154 64.5982H19.5652L20.451 65.7061C20.6783 64.723 20.8117 63.7203 20.8492 62.7118C20.9372 62.2742 20.9209 61.8219 20.8015 61.3917C20.6822 60.9616 20.4632 60.5658 20.1624 60.2366C20.0203 60.1046 19.8391 60.0229 19.6464 60.004C19.4537 59.9851 19.2601 60.03 19.0953 60.1319C18.9304 60.2338 18.8034 60.387 18.7336 60.5682C18.6639 60.7493 18.6553 60.9484 18.7091 61.1349C19.0106 62.2594 18.9336 63.4522 18.4901 64.5284C18.3351 64.921 18.1165 65.2852 17.8431 65.6063C17.5943 65.8658 17.1862 66.2451 16.8477 66.2351L17.2857 66.3449C16.9781 66.1211 16.7372 65.8174 16.5889 65.4666C16.4115 65.1073 16.2874 64.724 16.2206 64.3288C16.1148 63.4785 16.2173 62.6151 16.5193 61.8136C16.6702 61.3861 16.8567 60.9721 17.0767 60.576C17.2462 60.1833 17.4707 59.817 17.7436 59.488C18.3906 58.8393 19.2466 59.9372 19.595 60.3963C19.824 60.6858 20.3814 60.5161 20.232 60.1069H20.0827Z" fill="#FFF148"/>
<path d="M20.3915 64.6878C20.5267 64.4238 20.6335 64.1461 20.7101 63.8594C20.7698 63.58 20.8196 63.3105 20.8594 63.031C20.8989 62.9214 20.8989 62.8013 20.8594 62.6917C20.8245 62.6345 20.7765 62.5865 20.7194 62.5518C20.6622 62.5171 20.5976 62.4966 20.5309 62.492C20.468 62.485 20.4044 62.4914 20.3441 62.5108C20.2839 62.5302 20.2285 62.5621 20.1815 62.6046C20.1344 62.647 20.0969 62.6989 20.0713 62.7569C20.0458 62.815 20.0328 62.8778 20.0332 62.9412C20.053 63.207 20.053 63.4738 20.0332 63.7396C20.0332 63.6398 20.0332 63.7396 20.0332 63.7396V63.8295C20.0283 63.9259 20.0283 64.0225 20.0332 64.1189C20.0332 64.1788 20.0332 64.2386 20.0332 64.2985V64.4483C20.0192 64.5156 20.0295 64.5856 20.0624 64.646C20.0952 64.7063 20.1483 64.753 20.2124 64.7776C20.2733 64.8054 20.3426 64.8084 20.4057 64.7861C20.4688 64.7638 20.5208 64.7178 20.5508 64.6579L20.3915 64.6878Z" fill="#FFF148"/>
<path d="M10.4772 61.6038C10.7967 61.5958 11.0999 61.461 11.3202 61.2289C11.5404 60.9968 11.6597 60.6864 11.6518 60.3661C11.6439 60.0458 11.5094 59.7418 11.2779 59.5209C11.0465 59.3 10.737 59.1804 10.4175 59.1884C10.2594 59.1923 10.1035 59.2274 9.95886 59.2918C9.81423 59.3561 9.68365 59.4483 9.57458 59.5633C9.46551 59.6782 9.38009 59.8135 9.32318 59.9616C9.26628 60.1096 9.239 60.2674 9.24292 60.426C9.24685 60.5846 9.2819 60.7409 9.34606 60.8859C9.41021 61.0309 9.50222 61.1618 9.61684 61.2712C9.73145 61.3806 9.86642 61.4662 10.0141 61.5233C10.1617 61.5803 10.3191 61.6077 10.4772 61.6038Z" fill="#5887FF"/>
<path d="M9.46235 61.0351C9.01442 62.4025 9.26327 62.2927 9.46235 63.9495H10.7464C10.5496 62.4948 10.6443 61.0154 11.0251 59.5979C11.692 57.2724 8.28778 56.6037 7.47156 58.7096C6.40649 61.4842 6.17756 64.6282 7.79009 67.2431C9.08411 69.349 12.1798 67.3928 11.0251 65.247C8.59636 60.6858 11.2342 56.5238 16.0021 55.6256C18.4109 55.1764 17.9133 51.7031 15.8926 51.1143C14.1407 50.6052 12.2594 50.246 10.9654 51.8529C10.5486 52.3224 10.2938 52.9141 10.2388 53.5403C10.1837 54.1664 10.3313 54.7937 10.6598 55.3291C10.9882 55.8645 11.48 56.2796 12.0621 56.5128C12.6443 56.7459 13.2859 56.7848 13.8919 56.6236C15.0797 56.338 16.2128 55.8592 17.2463 55.2064C19.6552 53.839 18.2417 50.4755 15.803 50.3558H15.2655C11.5826 50.1761 11.7717 55.8351 15.4048 56.0747C16.336 56.1511 17.22 56.5175 17.9332 57.1227C20.5311 58.9991 23.796 54.5776 21.2677 52.5714C19.6027 51.1449 17.4855 50.3594 15.2954 50.3558L17.4255 55.1864L17.7938 54.8071L14.5289 50.8149C14.3029 50.9479 14.0529 51.035 13.7933 51.0709C13.5336 51.1069 13.2694 51.0911 13.0159 51.0244L15.6139 55.3261C15.0565 55.9649 15.1958 56.0946 16.0319 55.6954L15.2954 51.1243C11.4233 51.4237 8.21813 52.4317 6.59564 56.2444C4.97315 60.057 6.11785 63.2309 7.65076 66.8738L11.0948 65.3168C10.3084 63.7399 11.0152 60.9053 11.1446 59.1887L7.56117 59.7676C7.97168 61.416 8.67284 62.9776 9.63158 64.3786C9.92024 64.7779 10.7166 64.7978 10.7962 64.199C11.0052 62.7817 11.2043 62.2029 10.4976 60.9852C10.4379 60.8978 10.3547 60.8291 10.2577 60.7873C10.1606 60.7454 10.0537 60.7321 9.94941 60.7489C9.8451 60.7656 9.74767 60.8117 9.66849 60.8818C9.5893 60.9519 9.53163 61.0432 9.50217 61.1449L9.46235 61.0351Z" fill="#5887FF"/>
<path d="M10.6763 58.4297C10.8057 58.9587 10.955 59.4278 11.1142 59.9867C11.2735 60.5456 12.1096 60.5456 12.2092 59.9867C12.3286 59.2182 12.3983 58.29 13.1349 57.8409L12.3884 57.1322C11.7144 58.1051 11.3029 59.2363 11.1939 60.4159H12.1893C12.0781 59.4331 12.2914 58.4409 12.7965 57.5913C12.8694 57.4718 12.8949 57.3291 12.8679 57.1916C12.8408 57.0541 12.7633 56.9319 12.6506 56.849C12.5379 56.7661 12.3982 56.7287 12.2593 56.7442C12.1204 56.7597 11.9924 56.8269 11.9006 56.9326C11.5006 57.3825 11.1655 57.8864 10.9052 58.4297L11.9504 59.0086C12.5675 57.4316 14.1204 56.7929 15.6433 56.3537L15.0162 55.3556C13.1222 56.9144 11.8043 59.0652 11.2735 61.4639L12.6173 61.6036C12.687 60.4059 13.7819 59.5076 14.5484 58.6992C14.9576 58.2649 15.3305 57.7975 15.6632 57.3019C15.7847 57.1173 15.9177 56.9406 16.0614 56.7729C16.118 56.6972 16.185 56.63 16.2605 56.5733L16.3799 56.4835C16.5193 56.4835 16.5292 56.4835 16.3799 56.4835L15.9519 56.1741V56.2539L15.8723 55.7149C15.8723 55.6251 15.8225 55.7149 15.7727 55.7848L15.5338 55.9944L15.0262 56.4735C14.7523 56.7496 14.4963 57.0429 14.2597 57.3518C13.7481 58.0331 13.2857 58.7502 12.8761 59.4976C12.4419 60.1962 12.1069 60.952 11.8807 61.7433C11.7072 62.66 11.7759 63.6062 12.0798 64.488C12.1583 64.6708 12.3013 64.8181 12.4813 64.9018C12.6614 64.9854 12.8658 64.9996 13.0557 64.9415C13.2455 64.8834 13.4072 64.7572 13.51 64.587C13.6128 64.4167 13.6494 64.2145 13.6127 64.0189C13.4226 63.4095 13.3649 62.7663 13.4435 62.1326C13.6206 61.5409 13.8786 60.9766 14.21 60.4558C14.7768 59.3297 15.4788 58.2772 16.3003 57.3218C16.7084 56.8927 17.4848 56.3737 17.2957 55.675C17.1066 54.9764 16.3003 54.9963 15.7031 55.2957C15.227 55.6048 14.8339 56.0264 14.5584 56.5234C14.2363 57.0214 13.8698 57.4891 13.4634 57.9207C12.3643 58.8421 11.5925 60.0957 11.2636 61.4938C11.2427 61.661 11.2836 61.8302 11.3787 61.9692C11.4738 62.1081 11.6165 62.2073 11.7797 62.2479C11.9428 62.2885 12.1151 62.2677 12.264 62.1894C12.4129 62.1111 12.528 61.9808 12.5874 61.8232C13.1059 59.6708 14.2614 57.726 15.9021 56.2439C16.3899 55.8148 15.8325 55.0462 15.275 55.2459C13.4136 55.7948 11.5323 56.703 10.8355 58.6493C10.6066 59.2881 11.6617 59.7073 11.9404 59.0885C12.1381 58.6176 12.4066 58.18 12.7367 57.7909L11.8409 57.1322C11.3129 58.177 11.0854 59.3486 11.1839 60.5157C11.1839 61.0646 12.1096 61.2243 12.1793 60.6255C12.31 59.5901 12.6929 58.6029 13.2942 57.751C13.6227 57.2919 12.9756 56.7529 12.5476 57.0424C12.1162 57.3672 11.7614 57.7833 11.5085 58.2611C11.2556 58.7389 11.1108 59.2667 11.0844 59.807H12.1893C11.9803 59.308 11.7712 58.809 11.5423 58.3099C11.4944 58.208 11.4116 58.1268 11.309 58.0811C11.2063 58.0354 11.0907 58.0282 10.9832 58.0609C10.8757 58.0936 10.7836 58.164 10.7236 58.2592C10.6636 58.3544 10.6397 58.4681 10.6564 58.5794L10.6763 58.4297Z" fill="#5887FF"/>
<path d="M10.9747 60.5259C10.8807 60.5282 10.7889 60.5553 10.7085 60.6043C10.6282 60.6533 10.5621 60.7227 10.5168 60.8053C10.2599 61.4408 10.2282 62.1454 10.4272 62.8015C10.595 63.4171 10.8569 64.0029 11.2036 64.5381C11.5505 65.0797 11.9471 65.5876 12.3882 66.0552C12.8104 66.6526 13.394 67.1166 14.0704 67.3926C14.1936 67.4218 14.3224 67.4182 14.4438 67.3821C14.5652 67.3461 14.6751 67.2788 14.7627 67.187C14.8502 67.0952 14.9123 66.9821 14.9427 66.8588C14.9732 66.7356 14.971 66.6065 14.9364 66.4843C14.8025 66.1309 14.5712 65.8229 14.2695 65.5961C14.0405 65.3865 13.8016 65.1869 13.5727 64.9673C13.123 64.5899 12.7188 64.1612 12.3683 63.6898C12.0604 63.227 11.8191 62.723 11.6516 62.1927C11.5665 61.9173 11.5163 61.6323 11.5023 61.3443C11.5023 60.985 11.4027 60.5958 10.9747 60.5658V60.5259Z" fill="#5887FF"/>
<path d="M6.25686 59.0786C5.45059 59.0786 5.37098 59.8671 5.4108 60.4859C5.48047 61.3542 5.60987 62.2125 5.74923 63.0709C6.00453 64.9296 6.51712 66.7436 7.27218 68.4604C7.9265 69.8777 8.87303 71.1397 10.0493 72.1633C11.1443 73.0815 12.7867 74.1594 14.2798 73.89C14.9367 73.7802 14.9267 72.812 14.4191 72.5326C13.9114 72.2531 13.2445 72.1533 12.6871 71.8938C12.1507 71.6503 11.6459 71.3419 11.1841 70.9756C10.1934 70.1478 9.3778 69.1298 8.78516 67.9814C8.11593 66.6635 7.6303 65.2597 7.34186 63.8094C7.1826 63.0808 7.05317 62.3423 6.94368 61.6137C6.8541 61.0448 6.50572 60.1365 6.7048 59.6175C6.82424 59.3281 6.51566 59.0686 6.25686 59.0586V59.0786Z" fill="#5887FF"/>
<path d="M6.95343 64.0392C6.66424 65.2297 6.67959 66.4742 6.99803 67.6572C7.31647 68.8402 7.9277 69.9233 8.77503 70.8062C9.02874 71.0758 9.30515 71.3229 9.6012 71.5448C9.91702 71.8479 10.2986 72.0734 10.716 72.2036C10.8639 72.2334 11.0173 72.215 11.154 72.1511C11.2906 72.0872 11.4033 71.9812 11.4756 71.8485C11.5479 71.7158 11.5759 71.5635 11.5557 71.4137C11.5354 71.2639 11.4679 71.1244 11.363 71.0158C11.1335 70.8107 10.8833 70.6301 10.6165 70.4769C10.3516 70.2763 10.102 70.0561 9.86995 69.8182C9.17245 69.0991 8.64767 68.2301 8.33547 67.2771C8.02328 66.3242 7.93189 65.3124 8.06828 64.3187C8.15786 63.6001 7.14256 63.3206 6.95343 64.0392Z" fill="#5887FF"/>
<path d="M5.89876 63.7899C5.8903 66.1305 6.55376 68.4242 7.80993 70.3971C8.34697 71.3153 9.06541 72.1139 9.92124 72.7438C10.7771 73.3736 11.7522 73.8216 12.7869 74.06C13.4637 74.1698 13.9814 73.1817 13.2547 72.8524C11.5463 72.1528 10.0599 71.0005 8.95462 69.5188C7.83033 67.7309 7.04099 65.7522 6.62541 63.6801C6.59748 63.5981 6.54169 63.5286 6.46781 63.4837C6.39394 63.4388 6.30667 63.4213 6.22127 63.4344C6.13587 63.4475 6.05778 63.4903 6.00065 63.5552C5.94351 63.6202 5.91097 63.7033 5.90873 63.7899H5.89876Z" fill="#5887FF"/>
<path d="M8.36724 66.764C9.08249 68.7579 10.371 70.4944 12.0701 71.7544C13.8764 73.1536 16.1209 73.8613 18.4007 73.7505C18.5733 73.7465 18.7384 73.6793 18.8649 73.5617C18.9914 73.444 19.0706 73.284 19.0876 73.1118C19.1095 72.941 19.0678 72.7681 18.9705 72.6263C18.8731 72.4845 18.7269 72.3837 18.56 72.3433C16.5575 72.2231 14.6156 71.6095 12.9062 70.5567C11.3697 69.5022 10.151 68.0454 9.38253 66.3448C9.11377 65.7759 8.14825 66.2151 8.38714 66.8039L8.36724 66.764Z" fill="#5887FF"/>
<path d="M8.51665 68.5703C8.2678 69.209 9.12383 70.0674 9.51203 70.4566C10.0891 70.9837 10.7196 71.4487 11.3933 71.844C12.0801 72.2565 12.7915 72.6265 13.5234 72.9518C13.9315 73.1415 14.3496 73.3112 14.7677 73.4609C15.1861 73.6722 15.6654 73.7287 16.1214 73.6206C16.2196 73.5905 16.3096 73.5381 16.3844 73.4674C16.4591 73.3967 16.5165 73.3096 16.5522 73.213C16.5878 73.1164 16.6007 73.0129 16.5899 72.9104C16.579 72.808 16.5448 72.7094 16.4897 72.6225C16.0716 71.9937 15.0663 71.854 14.4093 71.6244C13.6842 71.3324 12.9764 70.9991 12.2892 70.6263C11.6687 70.3052 11.0671 69.9487 10.4875 69.5584C10.2254 69.3651 9.976 69.1551 9.74095 68.9296C9.50206 68.7 9.30301 68.3606 8.95462 68.3008C8.85583 68.279 8.75248 68.2959 8.66559 68.3478C8.5787 68.3997 8.51479 68.4828 8.48679 68.5802L8.51665 68.5703Z" fill="#5887FF"/>
<path d="M7.04331 67.5922C7.79995 68.4024 8.62968 69.1408 9.52186 69.7979C9.97942 70.1437 10.4581 70.4604 10.9552 70.7461C11.4904 71.1324 12.1129 71.3793 12.7668 71.4648C12.8952 71.4603 13.0194 71.4182 13.1242 71.3436C13.2289 71.2691 13.3096 71.1654 13.3562 71.0454C13.4028 70.9254 13.4133 70.7944 13.3864 70.6684C13.3595 70.5425 13.2963 70.4272 13.2048 70.3369C12.7269 69.9865 12.2048 69.7012 11.652 69.4885C11.1742 69.249 10.7064 68.9895 10.2485 68.72C9.34803 68.191 8.49834 67.5795 7.71024 66.8935C7.61784 66.8048 7.49409 66.7566 7.36622 66.7594C7.23835 66.7622 7.11684 66.8158 7.0284 66.9085C6.93996 67.0011 6.89185 67.1252 6.89465 67.2534C6.89745 67.3817 6.95091 67.5035 7.04331 67.5922Z" fill="#5887FF"/>
<path d="M8.12817 66.1649C9.09232 67.7476 10.5214 68.9922 12.2193 69.728C14.1038 70.7855 16.1832 71.4477 18.331 71.6743C19.3264 71.7242 19.2567 70.2071 18.331 70.1572C17.571 70.1557 16.8158 70.0379 16.0913 69.8079C15.4501 69.5617 14.8816 69.1565 14.439 68.6302C13.6028 67.6321 12.9857 66.4344 11.7315 65.9253C11.6205 65.8667 11.4962 65.838 11.3708 65.8418C11.2453 65.8457 11.1231 65.8821 11.0158 65.9474C10.9086 66.0127 10.82 66.1048 10.7588 66.2146C10.6976 66.3244 10.6658 66.4483 10.6664 66.5741C10.7211 67.2475 10.9201 67.9011 11.25 68.4903C11.5798 69.0794 12.0327 69.5901 12.5776 69.9875C13.6183 70.9459 14.7715 71.7737 16.0117 72.4528L16.5791 71.0155C13.9712 70.1272 12.1595 67.8516 10.6067 65.6858C10.0393 64.8973 8.78513 65.6858 9.31269 66.4843C10.7062 68.68 12.1993 70.9357 14.4888 72.2831C14.6372 72.3431 14.8003 72.3563 14.9564 72.3208C15.1125 72.2854 15.2541 72.2031 15.3623 72.0849C15.4705 71.9666 15.5401 71.8181 15.5619 71.6591C15.5836 71.5002 15.5565 71.3383 15.4842 71.1952C14.7575 69.9576 14.001 68.7399 13.3341 67.4724C12.6672 66.2048 11.9704 64.9772 12.1894 63.6697L11.2537 64.2386C11.2537 64.1887 11.2537 64.1887 11.2537 64.2386C11.2537 64.2885 11.3532 64.4782 11.3931 64.5979C11.4329 64.7177 11.5225 64.9672 11.5822 65.1469C11.7143 65.5786 11.8174 66.0187 11.8908 66.4643L13.2943 66.2447C12.7581 64.8311 12.4686 63.3354 12.4382 61.8233C12.4272 61.6597 12.3591 61.5052 12.2458 61.3868C12.1326 61.2685 11.9815 61.1939 11.8189 61.176C11.6563 61.1582 11.4927 61.1983 11.3566 61.2892C11.2205 61.3802 11.1207 61.5162 11.0746 61.6736C10.9053 62.8108 11.1452 63.9713 11.7514 64.9473C12.2737 66.0289 12.8759 67.0697 13.5531 68.0612C14.8073 69.8877 16.5393 71.4247 18.8486 71.5146C19.7345 71.5146 19.9037 70.0973 19.0278 69.9576C18.0423 69.7996 17.0942 69.4613 16.2307 68.9595C15.789 68.7081 15.3753 68.4103 14.9964 68.0712C14.6203 67.7009 14.2104 67.3667 13.7721 67.0732C13.5594 66.9339 13.304 66.8755 13.0521 66.9085C12.8003 66.9414 12.5684 67.0635 12.3984 67.2528C12.121 67.6676 11.9849 68.1613 12.0102 68.6601C12.0051 69.1394 12.1018 69.6143 12.294 70.0531C12.4863 70.492 12.7696 70.8847 13.1251 71.2052C13.2691 71.3278 13.451 71.3965 13.6398 71.3996C13.8287 71.4027 14.0128 71.3401 14.1607 71.2223C14.3087 71.1046 14.4114 70.9391 14.4512 70.7539C14.4911 70.5688 14.4656 70.3755 14.3792 70.2071L14.22 69.9176C14.0983 69.7582 13.9219 69.6498 13.725 69.6137C13.528 69.5775 13.3247 69.6161 13.1546 69.7219C12.9844 69.8278 12.8597 69.9933 12.8045 70.1863C12.7494 70.3793 12.7678 70.5859 12.8563 70.766L12.9957 71.0655L14.2499 70.0674C13.9978 69.8201 13.8157 69.5101 13.7223 69.1691C13.6774 69.0033 13.6573 68.8318 13.6626 68.6601C13.6626 68.5902 13.7721 68.211 13.6626 68.3507L13.3042 68.5703H13.4336H12.9957C13.1649 68.6202 13.4137 68.9295 13.5531 69.0393L14.1503 69.5484C14.5818 69.906 15.0449 70.2234 15.5339 70.4965C16.5027 71.0272 17.5575 71.382 18.6495 71.5445L18.8187 69.9775C17.037 69.9775 15.6733 68.5703 14.7077 67.1929C14.1702 66.4144 13.7123 65.596 13.2147 64.7676C12.717 63.9392 12.1695 62.9611 12.4283 62.0528L11.0646 61.9031C11.0725 63.5417 11.3656 65.1663 11.9306 66.7038C12.1894 67.4125 13.4535 67.3326 13.3341 66.4843C13.2257 65.7172 13.0458 64.962 12.7966 64.2286C12.5776 63.5999 12.3288 63.001 11.632 62.8014C11.4331 62.7584 11.2252 62.7934 11.0512 62.8992C10.8772 63.005 10.7502 63.1735 10.6963 63.3703C10.1986 64.8973 11.0248 66.5542 11.6917 67.8816C12.3586 69.209 13.3241 70.6962 14.1603 72.0835L15.1557 70.9956C13.0653 69.8079 11.7713 67.7419 10.5271 65.7557L9.23307 66.5541C11.0248 69.0793 13.0853 71.5445 16.1113 72.6025C16.9573 72.8819 17.4351 71.6044 16.6786 71.1652C15.6508 70.6057 14.6863 69.9364 13.8019 69.1691C13.0653 68.5203 12.0202 67.672 12.0102 66.5941L11.1243 67.3127C12.3088 67.7518 12.916 69.249 13.8218 70.0674C14.4032 70.5597 15.0816 70.9235 15.8126 71.1353C16.1809 71.2451 16.5592 71.305 16.9275 71.3948C17.2958 71.4846 17.7138 71.6244 18.1219 71.7142L18.4803 70.237C16.591 69.885 14.7477 69.3191 12.9857 68.5503C11.4152 67.9768 10.036 66.9742 9.00412 65.6559C8.92059 65.5522 8.80226 65.4825 8.67125 65.4598C8.54024 65.4372 8.40549 65.4631 8.29214 65.5328C8.17879 65.6024 8.09459 65.7111 8.05526 65.8384C8.01593 65.9658 8.02417 66.1031 8.07841 66.2248L8.12817 66.1649Z" fill="#5887FF"/>
<path d="M9.65121 67.8319C10.6047 69.1082 11.851 70.1353 13.2844 70.8261C13.9895 71.2113 14.7294 71.5288 15.4942 71.7742C16.2807 72.1039 17.1315 72.2506 17.9827 72.2034C18.6098 72.1036 18.6396 71.1355 18.122 70.876C17.7701 70.7354 17.4024 70.6382 17.0271 70.5865C16.6588 70.5067 16.2905 70.4169 15.9222 70.3071C15.2425 70.0949 14.5775 69.8382 13.9314 69.5385C12.6371 68.8563 11.3989 68.0721 10.2286 67.1931C9.87022 66.9536 9.43224 67.4526 9.66118 67.8019L9.65121 67.8319Z" fill="#5887FF"/>
<path d="M15.0062 70.0275C16.9754 70.73 19.117 70.7825 21.118 70.1773C22.1306 69.9192 23.0598 69.4036 23.8155 68.6801C24.4036 67.9564 24.7516 67.0667 24.8109 66.1351C25.161 64.1412 25.0555 62.0937 24.5023 60.1466C23.9215 58.2793 22.8444 56.6058 21.3867 55.3059C20.5805 54.5873 19.3959 55.8249 20.2321 56.5236C21.4728 57.5771 22.4143 58.9403 22.9613 60.4754C23.5084 62.0106 23.6416 63.6634 23.3477 65.2667C23.3083 66.0396 23.0866 66.7922 22.7007 67.4625C22.1165 68.0479 21.3773 68.4532 20.5705 68.6302C18.8828 69.2142 17.0662 69.3144 15.3248 68.9197C15.183 68.8986 15.0384 68.9312 14.9192 69.011C14.8 69.0909 14.7147 69.2124 14.68 69.3519C14.6452 69.4913 14.6634 69.6388 14.7311 69.7655C14.7988 69.8923 14.911 69.9892 15.0461 70.0375L15.0062 70.0275Z" fill="#5887FF"/>
<path d="M20.4812 56.4037C22.044 56.1542 22.9896 57.9607 23.5172 59.1284C24.2265 60.6931 24.7671 62.3293 25.1297 64.0091C25.3388 65.0071 26.9314 64.5181 26.6029 63.5699C26.5438 63.3881 26.4636 63.2139 26.364 63.0509C26.2957 62.9413 26.1967 62.8542 26.0793 62.8006C25.962 62.747 25.8315 62.7292 25.7042 62.7494C25.5768 62.7697 25.4582 62.827 25.3632 62.9143C25.2681 63.0017 25.2007 63.1151 25.1695 63.2405C25.1268 63.4272 25.1034 63.6179 25.0999 63.8094L26.6029 63.5699C26.1807 61.5811 25.5119 59.6531 24.6121 57.831C23.8257 56.274 22.0738 54.7768 20.2324 55.5254C20.1162 55.5611 20.019 55.6417 19.962 55.7493C19.9051 55.8569 19.8931 55.9828 19.9288 56.0993C19.9644 56.2157 20.0447 56.3133 20.1521 56.3704C20.2594 56.4274 20.385 56.4394 20.5011 56.4037H20.4812Z" fill="#5887FF"/>
<path d="M21.0484 55.0267C22.064 55.4551 22.9495 56.1434 23.6165 57.0228C24.0017 57.5226 24.3606 58.0423 24.6915 58.5798C25.0264 59.1859 25.4198 59.7575 25.866 60.2865C25.9838 60.3864 26.1329 60.4415 26.2872 60.4423C26.4415 60.443 26.5911 60.3892 26.7098 60.2904C26.8285 60.1916 26.9088 60.0541 26.9365 59.9019C26.9642 59.7497 26.9376 59.5927 26.8614 59.4582C26.5287 58.8601 26.1493 58.2894 25.7267 57.7514C25.3386 57.1781 24.913 56.6313 24.4526 56.1146C23.6503 55.1533 22.5897 54.4432 21.3968 54.0685C20.8593 53.9288 20.5009 54.7872 21.0285 54.9967L21.0484 55.0267Z" fill="#5887FF"/>
<path d="M19.5651 52.312C20.9093 52.8254 22.0941 53.6863 22.9992 54.8072C23.5019 55.3866 23.9548 56.0076 24.3529 56.6636C24.7253 57.4448 25.158 58.1956 25.6469 58.9093C26.1845 59.558 27.3192 58.8194 27.0306 58.0609C26.6401 57.2398 26.1521 56.4691 25.5773 55.7653C25.09 55.0234 24.5477 54.3195 23.9548 53.6594C22.8646 52.4314 21.4495 51.5385 19.8736 51.0844C19.0773 50.8748 18.8086 52.0825 19.5651 52.312Z" fill="#5887FF"/>
<path d="M20.9885 53.9387L22.6309 55.7652L23.4272 56.6435L23.8353 57.1226C23.905 57.1925 23.9648 57.2823 24.0344 57.3422C24.175 57.455 24.3379 57.5366 24.5122 57.5817C24.6218 57.6083 24.7364 57.6057 24.8446 57.5742C24.9529 57.5426 25.051 57.4833 25.1294 57.4021C25.206 57.319 25.2601 57.2174 25.2862 57.1073C25.3124 56.9972 25.3098 56.8821 25.2787 56.7733C25.252 56.6216 25.1907 56.4781 25.0995 56.3541L24.8606 56.0946L24.4226 55.6455C24.1439 55.346 23.8553 55.0666 23.5666 54.7771C22.9893 54.1982 22.392 53.6493 21.7848 53.1103C21.733 53.0476 21.6685 52.9966 21.5956 52.9606C21.5228 52.9245 21.4432 52.9043 21.362 52.9013C21.2808 52.8982 21.1999 52.9124 21.1245 52.9429C21.0492 52.9733 20.9811 53.0194 20.9247 53.078C20.8683 53.1367 20.8249 53.2066 20.7973 53.2832C20.7698 53.3599 20.7586 53.4415 20.7647 53.5227C20.7707 53.6039 20.7937 53.683 20.8323 53.7547C20.8709 53.8264 20.9241 53.8891 20.9885 53.9387Z" fill="#5887FF"/>
<path d="M23.1885 55.3856C24.4318 57.1126 25.2504 59.1099 25.5775 61.2144C25.7406 62.2845 25.6933 63.3763 25.4381 64.4282C25.0838 65.4085 24.6336 66.3513 24.0943 67.2428C23.3411 69.0169 22.0847 70.5301 20.4811 71.5944C18.4903 72.7123 16.1113 71.7042 13.9413 71.9537C13.7356 71.9964 13.5487 72.1033 13.4072 72.2591C13.2658 72.4148 13.1771 72.6115 13.1539 72.8208C13.1307 73.0302 13.1742 73.2415 13.2781 73.4246C13.382 73.6077 13.5409 73.7531 13.7323 73.8401C15.1052 74.0868 16.4983 74.2037 17.893 74.1894C19.0771 74.2657 20.2605 74.0318 21.3271 73.5107C23.3554 72.3527 24.9207 70.5257 25.7567 68.3407C26.8514 66.1845 27.327 63.7656 27.1303 61.3541C26.6723 58.9641 25.7008 56.7026 24.2835 54.7269C23.8355 54.0183 22.7107 54.7269 23.1885 55.4056V55.3856Z" fill="#5887FF"/>
<path d="M14.21 72.8322C16.195 72.3985 18.0973 71.6469 19.8439 70.6064C20.3439 70.2438 20.9079 69.9796 21.5061 69.8279H21.0483C21.1606 69.8424 21.2744 69.8424 21.3867 69.8279L20.9786 69.7281L20.5904 69.0793C20.6009 69.2345 20.6569 69.3831 20.7514 69.5064C20.8459 69.6298 20.9746 69.7223 21.1215 69.7725C21.2683 69.8226 21.4266 69.8281 21.5765 69.7882C21.7265 69.7484 21.8613 69.6649 21.964 69.5484C22.0647 69.4372 22.1351 69.3019 22.1687 69.1555C22.2023 69.0092 22.198 68.8567 22.156 68.7125C22.1141 68.5683 22.036 68.4373 21.9292 68.3321C21.8224 68.2268 21.6904 68.1507 21.546 68.1111C20.786 68.0794 20.0401 68.3239 19.4457 68.7998C18.8485 69.1592 18.2811 69.5684 17.6938 69.9277C16.498 70.6744 15.2309 71.2996 13.9113 71.7941C13.846 71.8131 13.785 71.8449 13.7319 71.8875C13.6787 71.9302 13.6345 71.9829 13.6017 72.0426C13.5354 72.1634 13.5197 72.3056 13.558 72.4379C13.5963 72.5703 13.6854 72.6819 13.8058 72.7484C13.9262 72.8148 14.068 72.8306 14.2 72.7922L14.21 72.8322Z" fill="#5887FF"/>
<path d="M16.9175 72.6726C17.4892 72.7135 18.0638 72.6629 18.6197 72.5229C19.1758 72.3528 19.7129 72.1253 20.2223 71.8442C20.7278 71.5585 21.2046 71.2242 21.6457 70.8461C22.094 70.4864 22.5013 70.078 22.86 69.6285C23.0092 69.471 23.0899 69.2605 23.0843 69.0434C23.0787 68.8263 22.9873 68.6203 22.8302 68.4707C22.6731 68.3211 22.4632 68.2403 22.2467 68.2459C22.0301 68.2515 21.8247 68.3431 21.6755 68.5006C21.3172 68.8699 20.9787 69.2592 20.6005 69.6085C20.2448 69.9457 19.862 70.2528 19.4558 70.5267C18.653 71.1116 17.7431 71.5321 16.7782 71.7643C16.6703 71.7967 16.5777 71.867 16.5173 71.9624C16.457 72.0577 16.433 72.1716 16.4497 72.2833C16.4719 72.3927 16.53 72.4916 16.6149 72.5639C16.6997 72.6363 16.8063 72.6781 16.9175 72.6826V72.6726Z" fill="#5887FF"/>
<path d="M21.0586 71.7841C22.2839 70.7379 23.2428 69.4138 23.8557 67.9216C24.1467 67.123 24.4789 66.3402 24.851 65.5761C25.2691 64.7977 25.727 64.0391 26.1649 63.2806C26.7422 62.2825 25.1695 61.4341 24.6121 62.4222C23.7522 63.8946 23.0832 65.471 22.6214 67.1132C22.2363 68.6331 21.4367 70.0156 20.3121 71.1055C19.8343 71.5546 20.551 72.2033 21.0288 71.7941L21.0586 71.7841Z" fill="#5887FF"/>
<path d="M24.9105 63.2205C24.7446 63.5904 24.6243 63.9792 24.5522 64.3783C24.4684 64.745 24.3586 65.1052 24.2237 65.4562L24.3033 65.2566C24.2906 65.2885 24.2739 65.3187 24.2536 65.3464L24.383 65.1767C24.2855 65.2938 24.1957 65.4172 24.1142 65.546L24.2536 65.3564L24.2038 65.4063L24.383 65.2666C24.2062 65.3798 24.0758 65.5529 24.0155 65.7544C23.9552 65.9559 23.9691 66.1723 24.0545 66.3644C24.1296 66.5348 24.2592 66.6753 24.4228 66.7637C24.6303 66.8636 24.866 66.8883 25.0897 66.8335C25.2314 66.8001 25.3647 66.7376 25.4812 66.65C25.5977 66.5624 25.6948 66.4516 25.7665 66.3245C25.868 66.1242 25.9128 65.8998 25.8959 65.6758C25.8918 65.3792 25.8517 65.0843 25.7765 64.7975C25.7765 64.7975 25.7765 64.6777 25.7765 64.7975C25.7765 64.9172 25.7765 64.7975 25.7765 64.7975V64.6178V64.2286C25.7717 64.1721 25.7717 64.1154 25.7765 64.0589C25.7765 64.0589 25.7765 64.1188 25.7765 64.0589C25.7765 63.999 25.7765 63.999 25.7765 63.9791C25.8026 63.8476 25.8358 63.7176 25.876 63.5898C25.906 63.476 25.8932 63.3551 25.8399 63.2501C25.7867 63.1452 25.6968 63.0636 25.5873 63.0209C25.4781 62.9798 25.3577 62.9794 25.2481 63.0196C25.1386 63.0599 25.047 63.1383 24.9901 63.2405L24.9105 63.2205Z" fill="#5887FF"/>
<path d="M10.4075 50.7745C9.41212 49.8962 7.9489 50.6448 6.95351 51.1339C5.75832 51.6718 4.7276 52.5193 3.96734 53.5891C3.02272 54.7639 2.22078 56.0471 1.57842 57.4117C1.05086 58.809 1.2997 60.6056 1.28975 62.0927C1.33484 63.5676 1.62414 65.0247 2.1458 66.4044C2.49148 67.8683 3.07672 69.2645 3.87776 70.5364C4.83597 71.7153 5.95129 72.7564 7.19239 73.6305C8.23755 74.4289 9.54153 74.7982 10.6365 73.9099C11.2536 73.4109 10.6962 72.2631 9.93968 72.343C8.66558 72.4727 8.02854 71.6343 7.12274 70.8259C6.20284 70.1119 5.45733 69.1972 4.94284 68.1511C3.99041 66.0444 3.47239 63.7664 3.41989 61.454C3.41989 60.396 3.17105 58.839 3.60902 57.8709C4.15239 56.8723 4.76783 55.9149 5.45046 55.0064C6.05238 54.1057 6.87046 53.3713 7.82946 52.8705C8.73689 52.4868 9.60663 52.019 10.4274 51.4732C10.5186 51.3799 10.5697 51.2545 10.5697 51.1239C10.5697 50.9932 10.5186 50.8678 10.4274 50.7745H10.4075Z" fill="#5887FF"/>
<path d="M5.08215 54.7073V53.9986L4.96271 54.298L5.01247 54.2482C5.08365 54.1738 5.13119 54.08 5.14898 53.9785C5.16677 53.877 5.15404 53.7725 5.11241 53.6783C5.07077 53.5841 5.00212 53.5045 4.9152 53.4496C4.82827 53.3946 4.72699 53.3669 4.62427 53.3698C4.40632 53.3822 4.19459 53.4473 4.00713 53.5595C3.84699 53.665 3.69701 53.7853 3.55919 53.9188C3.31544 54.1626 3.09238 54.4263 2.89229 54.7073C2.43147 55.3219 2.05016 55.9926 1.75752 56.7034C1.69107 56.8248 1.65765 56.9615 1.66065 57.1C1.66364 57.2384 1.70293 57.3736 1.77456 57.4919C1.84619 57.6103 1.94766 57.7077 2.06873 57.7742C2.1898 57.8408 2.3262 57.8742 2.46424 57.8712C2.60218 57.8651 2.73641 57.8245 2.85465 57.753C2.97289 57.6815 3.0714 57.5814 3.14114 57.462C3.21007 57.3403 3.2463 57.2027 3.2463 57.0627C3.2463 56.9227 3.21007 56.7852 3.14114 56.6635V56.6136L3.24065 56.9529V56.7932C3.23583 56.6943 3.20702 56.5981 3.15672 56.5129C3.10642 56.4276 3.03617 56.356 2.95201 56.3042C2.86362 56.2553 2.7643 56.2296 2.66334 56.2296C2.56237 56.2296 2.46305 56.2553 2.37466 56.3042L2.23532 56.3741L2.57375 56.2742H2.51403L3.30041 57.2723C3.35018 57.1226 3.39992 56.9729 3.45964 56.8232C3.51937 56.6735 3.39992 56.9629 3.45964 56.8232C3.51937 56.6834 3.45964 56.7533 3.45964 56.7134C3.45964 56.6735 3.52933 56.5637 3.55919 56.4838C3.68859 56.1844 3.82794 55.895 3.9872 55.6055C4.14647 55.3161 4.29579 55.0765 4.46501 54.827C4.41524 54.8969 4.46501 54.827 4.46501 54.827L4.53469 54.7472L4.684 54.5875H4.76362L4.93285 54.4478C4.99257 54.3879 4.82335 54.5176 4.93285 54.4478H4.40529H4.47497L4.27588 54.1982L4.44511 54.8869C4.46437 54.9738 4.51595 55.05 4.58934 55.1C4.66273 55.1501 4.75241 55.1701 4.84004 55.1561C4.92768 55.1421 5.00667 55.0951 5.06092 55.0246C5.11516 54.9542 5.14057 54.8657 5.13194 54.7771L5.08215 54.7073Z" fill="#5887FF"/>
<path d="M2.85247 59.2286C2.81035 59.1874 2.75923 59.1566 2.70316 59.1387H2.64344C2.55374 59.1041 2.45443 59.1041 2.36472 59.1387C2.23287 59.2159 2.12314 59.3259 2.04618 59.4581C1.90682 59.6977 1.76747 59.9472 1.64802 60.1867L2.77282 60.4661C2.77166 60.3676 2.75487 60.27 2.72306 60.1767L2.66334 60.027C2.61418 59.8839 2.51522 59.7635 2.38462 59.6877C2.27138 59.6288 2.14232 59.6078 2.01632 59.6278C1.89536 59.6439 1.78324 59.7001 1.69778 59.7875C1.64379 59.8425 1.60176 59.9082 1.57435 59.9803C1.54694 60.0525 1.53474 60.1296 1.5385 60.2067C1.52818 60.3589 1.54849 60.5116 1.59823 60.6558C1.63449 60.7807 1.71163 60.8896 1.81722 60.9652C1.92134 61.0488 2.0523 61.0914 2.18552 61.085C2.29026 61.0764 2.39204 61.0458 2.48417 60.9951C2.61894 60.9125 2.71557 60.7797 2.75292 60.6258C2.75292 60.4362 2.81265 60.2466 2.84251 60.047C2.87237 59.8474 2.84251 59.8573 2.84251 59.7675C2.84719 59.7044 2.84719 59.641 2.84251 59.5779C2.84251 59.4581 2.84251 59.3384 2.84251 59.2385V59.3783C2.84251 59.3783 2.84251 59.4581 2.84251 59.3783C2.84251 59.2984 2.84251 59.3783 2.84251 59.3783C2.85786 59.3634 2.87008 59.3455 2.87841 59.3258C2.88675 59.3061 2.89105 59.2849 2.89105 59.2635C2.89105 59.2421 2.88675 59.2209 2.87841 59.2011C2.87008 59.1814 2.85786 59.1636 2.84251 59.1487L2.85247 59.2286Z" fill="#5887FF"/>
<path d="M1.91704 57.7013C1.254 58.6967 0.850198 59.8428 0.742483 61.0349C0.689863 62.2742 0.834337 63.514 1.1705 64.7078C1.51665 65.9289 1.95933 67.1204 2.49436 68.2709C2.75316 68.8498 3.02195 69.4286 3.30066 70.0075C3.49294 70.5493 3.87021 71.0054 4.36571 71.295C4.51232 71.3638 4.67687 71.3842 4.83577 71.3534C4.99466 71.3226 5.13976 71.2421 5.25026 71.1236C5.36077 71.005 5.43102 70.8544 5.45093 70.6934C5.47085 70.5324 5.43939 70.3691 5.36111 70.2271C5.12221 69.7979 4.81365 69.4386 4.59466 68.9795C4.37568 68.5204 4.12682 67.9815 3.90784 67.4924C3.43723 66.4759 3.04457 65.4249 2.73328 64.3485C2.12235 62.2931 2.15012 60.0998 2.81289 58.0606C3.01197 57.5117 2.18579 57.2522 1.90708 57.7013H1.91704Z" fill="#5887FF"/>
<path d="M8.14787 52.1719C6.31807 53.3318 4.87653 55.0146 4.00902 57.0033C3.14151 58.9921 2.88774 61.1957 3.2804 63.3304C3.73449 65.9093 4.61955 68.3928 5.89828 70.6762C6.44753 71.748 7.22177 72.6878 8.16777 73.4309C8.95413 74.0297 10.0491 74.7184 11.0046 74.1595C11.1657 74.0566 11.2807 73.8951 11.3252 73.7089C11.3698 73.5227 11.3405 73.3264 11.2435 73.1614C10.7359 72.4128 9.7803 72.323 9.09348 71.7442C8.36639 71.0677 7.77511 70.258 7.35154 69.3587C6.28033 67.3337 5.53776 65.1505 5.15174 62.8912C4.95199 61.0587 5.17683 59.2046 5.80873 57.4735C6.44063 55.7423 7.46253 54.1808 8.79487 52.9105C8.88192 52.8229 8.93348 52.7061 8.93953 52.5826C8.94558 52.4591 8.90569 52.3378 8.82762 52.2421C8.74954 52.1464 8.63883 52.0832 8.51692 52.0647C8.39502 52.0462 8.27059 52.0737 8.16777 52.1419L8.14787 52.1719Z" fill="#5887FF"/>
<path d="M4.03707 60.057C4.01367 59.6066 4.03703 59.1551 4.10676 58.7096C4.10676 58.48 4.18638 58.2504 4.2461 58.0209C4.30583 57.7913 4.3158 57.8013 4.35562 57.6915C4.36769 57.6402 4.38434 57.5901 4.40538 57.5418C4.40538 57.4719 4.40538 57.4719 4.40538 57.5418C4.40297 57.5086 4.40297 57.4752 4.40538 57.442C4.44551 57.3698 4.46977 57.2899 4.47655 57.2076C4.48334 57.1253 4.47249 57.0425 4.44472 56.9648C4.41694 56.887 4.37288 56.8161 4.31552 56.7568C4.25815 56.6975 4.18881 56.6513 4.11214 56.6211C4.03546 56.5909 3.95322 56.5775 3.87096 56.5818C3.7887 56.5862 3.70831 56.6081 3.6352 56.6461C3.56209 56.6842 3.49794 56.7375 3.44707 56.8024C3.3962 56.8674 3.35978 56.9425 3.34026 57.0228C3.05754 58.0212 2.96635 59.0644 3.0715 60.0969C3.07664 60.2178 3.12818 60.3321 3.21537 60.4158C3.30256 60.4995 3.41865 60.5462 3.53936 60.5461C3.65995 60.5409 3.77391 60.4892 3.85738 60.4018C3.94086 60.3144 3.98739 60.198 3.98728 60.0769L4.03707 60.057Z" fill="#5887FF"/>
<path d="M7.65063 53.0405C7.01048 53.1464 6.41043 53.4227 5.91316 53.8406C5.41589 54.2584 5.03965 54.8025 4.82372 55.416C4.06777 57.4448 3.69966 59.5983 3.73871 61.7637C3.79348 64.2661 4.29932 66.7379 5.2318 69.0597C6.05798 71.0558 7.50131 73.3913 9.57173 74.2596C10.378 74.599 11.3734 73.561 10.5671 72.9023C9.75739 72.3231 9.01603 71.6534 8.35735 70.9061C7.72952 70.0832 7.2264 69.1717 6.86426 68.2013C6.094 66.1849 5.64393 64.0597 5.53044 61.9034C5.48752 59.9837 5.75305 58.0695 6.3168 56.2344C6.39492 55.8703 6.55493 55.5289 6.78464 55.2363C7.2651 54.8048 7.70188 54.3267 8.0886 53.8091C8.12841 53.734 8.148 53.6498 8.14547 53.5648C8.14293 53.4798 8.11836 53.397 8.07414 53.3244C8.02993 53.2519 7.96761 53.1921 7.89334 53.1511C7.81907 53.1101 7.73541 53.0892 7.65063 53.0904V53.0405Z" fill="#CE2828"/>
<path d="M10.3578 50.8247C5.64969 51.7729 3.53948 56.1345 3.14133 60.526C2.68346 65.6661 4.01724 71.6445 8.8747 74.2595C9.06081 74.3614 9.2797 74.385 9.48317 74.3251C9.68664 74.2652 9.85802 74.1267 9.95966 73.9401C10.0613 73.7535 10.0849 73.534 10.0251 73.33C9.96539 73.126 9.82727 72.9541 9.64116 72.8522C5.35107 70.5367 4.35567 65.1571 4.73391 60.6557C4.79407 58.426 5.53016 56.2675 6.84415 54.4677C7.91534 53.2364 9.18768 52.1969 10.6067 51.3936C10.9352 51.204 10.6764 50.7548 10.3578 50.8247Z" fill="#CE2828"/>
<path d="M6.31679 69.1495C6.88991 70.4257 7.74081 71.5569 8.80703 72.4602C9.87324 73.3635 11.1277 74.0159 12.4782 74.3694C15.4644 75.1779 19.4957 74.9383 22.024 73.022C23.6654 71.8242 25.0415 70.2983 26.0653 68.5406C27.2299 66.4746 28.4542 63.5503 27.8072 61.1748C27.7697 61.0645 27.6986 60.9686 27.604 60.9007C27.5094 60.8329 27.396 60.7964 27.2797 60.7964C27.1634 60.7964 27.05 60.8329 26.9554 60.9007C26.8608 60.9686 26.7897 61.0645 26.7521 61.1748C26.5829 62.1729 26.6725 63.2508 26.4137 64.2788C26.0888 65.3508 25.5912 66.3623 24.9405 67.2731C24.4756 68.1547 23.878 68.9593 23.1687 69.6585C22.5715 70.1675 21.9245 70.6566 21.2974 71.1057C17.0073 74.3994 10.2983 72.9721 7.27236 68.6804C6.94388 68.2213 6.06794 68.5307 6.27697 69.1095L6.31679 69.1495Z" fill="#CE2828"/>
<path d="M17.475 0.361926C17.256 0.232176 17.1564 0.0824688 16.8777 0.0225844C16.6798 -0.00752814 16.4784 -0.00752814 16.2805 0.0225844C15.8298 0.0869968 15.4041 0.269459 15.0462 0.551562C14.6449 0.893867 14.3242 1.32116 14.1073 1.80267C13.8904 2.28418 13.7828 2.80792 13.792 3.33618C13.7631 4.41339 14.0504 5.4754 14.6182 6.39028C14.8988 6.85082 15.2329 7.27632 15.6136 7.65784C15.9603 8.08918 16.4285 8.40571 16.9573 8.56609C17.0686 8.591 17.1846 8.58291 17.2914 8.54282C17.3981 8.50273 17.4909 8.43237 17.5584 8.34032C17.6259 8.24827 17.6653 8.13851 17.6717 8.02441C17.6781 7.91032 17.6512 7.79681 17.5944 7.69776C17.3704 7.35176 17.0913 7.04495 16.7682 6.78952C16.4878 6.53343 16.2343 6.24915 16.0117 5.94115C15.5498 5.31288 15.2645 4.57183 15.1856 3.7953C15.1047 3.0729 15.2887 2.34565 15.7032 1.74925C15.8761 1.49782 16.1042 1.28953 16.3701 1.14042C16.4877 1.07338 16.6155 1.02617 16.7483 1.00069C16.9129 0.971176 17.0814 0.971176 17.246 1.00069C17.5944 1.14042 17.7736 0.591486 17.475 0.411833V0.361926Z" fill="#2E2221"/>
<path d="M18.0023 8.14697C18.6415 6.99338 18.9417 5.68187 18.8683 4.36427C18.8683 4.23192 18.8159 4.10499 18.7225 4.01141C18.6292 3.91782 18.5026 3.86523 18.3706 3.86523C18.2386 3.86523 18.112 3.91782 18.0187 4.01141C17.9253 4.10499 17.8729 4.23192 17.8729 4.36427C17.9167 5.51313 17.7095 6.65771 17.2657 7.71779C17.2145 7.81502 17.2025 7.92825 17.2321 8.0341C17.2617 8.13996 17.3307 8.23037 17.4249 8.2867C17.5234 8.33856 17.6379 8.35091 17.7451 8.32125C17.8523 8.29159 17.9443 8.22215 18.0023 8.127V8.14697Z" fill="#2E2221"/>
<path d="M16.9673 8.10706C16.6687 11.8299 16.7981 15.6026 16.7682 19.3254C16.7682 22.6191 16.7682 25.9127 16.7184 29.2064C16.7184 36.0432 16.7184 42.89 16.6487 49.7268C16.6688 49.8914 16.7481 50.0429 16.8719 50.1528C16.9957 50.2627 17.1553 50.3234 17.3207 50.3234C17.486 50.3234 17.6456 50.2627 17.7694 50.1528C17.8932 50.0429 17.9726 49.8914 17.9926 49.7268C17.893 42.89 17.9926 36.0432 17.9926 29.1964C17.9926 25.9759 17.9926 22.7555 17.9926 19.535C17.9926 15.7423 18.1718 11.8998 17.9229 8.11705C17.9229 7.99263 17.8736 7.87331 17.7859 7.78533C17.6982 7.69736 17.5791 7.64795 17.455 7.64795C17.331 7.64795 17.212 7.69736 17.1242 7.78533C17.0365 7.87331 16.9872 7.99263 16.9872 8.11705L16.9673 8.10706Z" fill="#2E2221"/>
<path d="M22.8205 66.784C23.2557 66.2921 23.5897 65.7187 23.8032 65.097C24.0167 64.4752 24.1056 63.8173 24.0647 63.161C24.1129 61.9327 23.9271 60.7065 23.5173 59.5479C23.2612 58.9024 22.8799 58.3142 22.3955 57.8175C21.911 57.3209 21.3331 56.9255 20.6952 56.6544C20.0573 56.3834 19.372 56.2419 18.6792 56.2384C17.9863 56.2348 17.2997 56.3691 16.659 56.6336C11.0151 59.2984 12.4087 70.6066 19.476 69.3989C22.2332 68.9398 23.7263 66.5145 23.8159 63.8596C23.8159 63.5103 23.3381 63.5003 23.2386 63.7997C23.0373 64.6233 22.668 65.3962 22.1541 66.0695C21.6401 66.7429 20.9926 67.3022 20.2524 67.7122C19.7015 67.9646 19.1005 68.0878 18.4951 68.0722C17.8896 68.0566 17.2957 67.9028 16.7585 67.6224C15.8849 67.14 15.2293 66.3397 14.927 65.3867C14.0311 63.0712 14.4293 59.9572 16.4599 58.3403C16.924 58.0109 17.4532 57.785 18.0117 57.6778C18.5702 57.5706 19.1452 57.5846 19.6978 57.7189C20.2505 57.8532 20.7681 58.1046 21.2157 58.4563C21.6633 58.8079 22.0306 59.2516 22.2929 59.7575C22.7913 60.7871 23.0503 61.9167 23.0503 63.0612C23.0503 64.2056 22.7913 65.3352 22.2929 66.3648C22.2563 66.4403 22.2472 66.5263 22.2673 66.6078C22.2873 66.6894 22.3352 66.7613 22.4026 66.8111C22.4701 66.8609 22.5528 66.8855 22.6364 66.8805C22.72 66.8756 22.7992 66.8414 22.8603 66.784H22.8205Z" fill="#2E2221"/>
<path d="M17.6438 57.5715C18.1282 57.7534 18.572 58.0296 18.9495 58.3841C19.3271 58.7387 19.6309 59.1647 19.8436 59.6375C20.393 60.6069 20.7322 61.6816 20.839 62.7914C20.9136 63.9594 20.5275 65.11 19.764 65.9952C19.3797 66.4537 18.9531 66.8748 18.4899 67.2528C18.0185 67.5222 17.5632 67.8187 17.1262 68.1411C17.0734 68.1966 17.0361 68.265 17.0179 68.3394C16.9997 68.4139 17.0012 68.4918 17.0223 68.5655C17.0435 68.6392 17.0835 68.706 17.1384 68.7594C17.1932 68.8128 17.2611 68.8508 17.3352 68.8697C18.0246 68.8585 18.6862 68.5959 19.1966 68.1311C19.7622 67.7175 20.2709 67.2309 20.7096 66.6839C21.6478 65.5761 22.1096 64.1403 21.9936 62.6916C21.822 61.3313 21.3232 60.0332 20.5404 58.9089C20.2656 58.3953 19.8539 57.9684 19.3512 57.6758C18.8485 57.3832 18.2746 57.2365 17.6936 57.2521C17.6487 57.2521 17.6057 57.27 17.5739 57.3018C17.5422 57.3336 17.5243 57.3768 17.5243 57.4218C17.5243 57.4668 17.5422 57.5099 17.5739 57.5418C17.6057 57.5736 17.6487 57.5915 17.6936 57.5915L17.6438 57.5715Z" fill="#2E2221"/>
<path d="M23.8157 72.1535C26.1079 70.0323 27.5545 67.149 27.8869 64.0392C28.1656 60.8313 27.4346 57.6165 25.7965 54.8469C23.3877 50.3855 17.3457 48.8584 12.7171 50.0461C10.1339 50.7538 7.88919 52.3662 6.3899 54.591C4.89062 56.8158 4.23609 59.5056 4.54499 62.1728C4.87347 65.9555 5.86885 69.7481 8.63603 72.4729C10.3581 74.1796 12.7868 74.7385 15.116 74.998C16.69 75.2481 18.3005 75.1247 19.8183 74.6376C21.3361 74.1506 22.7189 73.3134 23.8555 72.1934C24.2836 71.7742 23.6266 71.1954 23.1986 71.5547C22.1852 72.4784 20.9841 73.1708 19.6781 73.5844C18.3721 73.9979 16.9923 74.1226 15.6336 73.9501C13.5866 73.9006 11.5967 73.2632 9.90016 72.1136C7.38183 70.1174 6.46607 67.1232 5.9186 64.0292C5.05262 59.5179 6.26699 54.288 10.6168 52.0523C13.1931 50.7597 16.1484 50.4442 18.9383 51.164C20.893 51.6654 22.658 52.7307 24.0148 54.2281C24.9204 55.3302 25.5973 56.6028 26.0056 57.9709C26.6027 59.4415 26.9395 61.0053 27.001 62.5919C27.0185 64.2742 26.698 65.9428 26.0584 67.4981C25.4188 69.0534 24.4732 70.4636 23.2782 71.6445C22.89 72.0038 23.4773 72.5527 23.8555 72.2034L23.8157 72.1535Z" fill="#2E2221"/>
<path d="M13.8615 51.9724C13.45 52.015 13.0454 52.1089 12.657 52.2519C12.2588 52.4124 11.8812 52.6201 11.5322 52.8707C11.1751 53.1221 10.8419 53.4061 10.5368 53.719C10.4061 53.855 10.2831 53.9983 10.1685 54.1482C9.96249 54.3499 9.83534 54.619 9.81018 54.9067C9.81406 54.9924 9.83988 55.0755 9.88515 55.1482C9.93042 55.221 9.99361 55.2808 10.0686 55.3219C10.1436 55.363 10.228 55.3841 10.3135 55.383C10.399 55.382 10.4827 55.3588 10.5567 55.3159C10.7405 55.18 10.8848 54.9974 10.9748 54.7869L11.1241 54.5574L11.2535 54.3977C11.486 54.1304 11.7501 53.8924 12.0399 53.6891C12.3359 53.4685 12.6487 53.2716 12.9755 53.1002C13.2964 52.9273 13.629 52.7772 13.9709 52.6511C14.052 52.6277 14.1214 52.5749 14.1656 52.5029C14.2097 52.4309 14.2255 52.3449 14.2098 52.2618C14.1998 52.178 14.1581 52.1013 14.0933 52.0474C14.0284 51.9936 13.9455 51.9667 13.8615 51.9724Z" fill="white"/>
<path d="M8.88505 56.0348C8.74515 56.0885 8.62401 56.1822 8.53664 56.3043C8.46837 56.3728 8.40516 56.4462 8.34751 56.5239C8.20973 56.6977 8.0897 56.8849 7.98916 57.0828C7.96233 57.1459 7.94849 57.2138 7.94849 57.2824C7.94849 57.351 7.96233 57.4189 7.98916 57.482C8.00784 57.5574 8.04491 57.627 8.09704 57.6844C8.14916 57.7419 8.2147 57.7855 8.28778 57.8113C8.35552 57.8376 8.42803 57.8494 8.50058 57.8457C8.57314 57.8421 8.6441 57.8232 8.70889 57.7902C8.77367 57.7573 8.83082 57.7111 8.87661 57.6545C8.92239 57.598 8.95579 57.5324 8.97464 57.462C8.97464 57.3123 9.06424 57.1726 9.11401 57.0329V57.1427C9.11401 57.0428 9.20359 56.9331 9.25336 56.8333L9.33301 56.6935V56.6237C9.37995 56.5528 9.40423 56.4692 9.40267 56.3841C9.40037 56.3268 9.38481 56.2708 9.35716 56.2205C9.32952 56.1703 9.29055 56.1272 9.2434 56.0947C9.19746 56.0629 9.14538 56.0411 9.0905 56.0308C9.03562 56.0204 8.97919 56.0218 8.92488 56.0348H8.88505Z" fill="white"/>
<path d="M12.5975 50.2655C10.9925 49.8666 9.31446 49.8672 7.70968 50.2673C6.10491 50.6674 4.62206 51.4549 3.39024 52.5611C1.34053 54.6672 0.135785 57.4562 0.0059078 60.3961C-0.0519341 62.8169 0.315344 65.2291 1.0909 67.5223C1.68563 69.4356 2.77417 71.1572 4.24625 72.5127C6.51573 74.6886 9.47202 74.978 12.4582 74.5089C13.0255 74.4291 13.0355 73.5108 12.4582 73.5907C9.40234 73.94 6.58541 73.441 4.4951 71.1054C3.71639 70.3187 3.06788 69.4123 2.57402 68.4206C2.11312 67.218 1.77949 65.9703 1.57863 64.6978C0.833298 61.7977 1.08943 58.73 2.30527 55.9945C3.23253 54.165 4.72901 52.6882 6.56816 51.7878C8.40731 50.8873 10.489 50.6122 12.498 51.0041C13.0056 51.1039 13.2047 50.3254 12.6871 50.2256L12.5975 50.2655Z" fill="#2E2221"/>
</svg>
