<svg width="39" height="39" viewBox="0 0 39 39" fill="none" xmlns="http://www.w3.org/2000/svg">
<g opacity="0.7">
<g clip-path="url(#clip0)">
<rect width="39" height="39" rx="19.5" fill="#31348B"/>
<mask id="path-2-inside-1" fill="white">
<path fill-rule="evenodd" clip-rule="evenodd" d="M15.8188 19.5632L-0.370661 35.7527L3.43864 39.562L19.6281 23.3725L36.7699 40.5143L40.5792 36.705L23.4374 19.5632L39.627 3.3736L35.8177 -0.435705L19.6281 15.7539L2.48618 -1.38803L-1.32313 2.42127L15.8188 19.5632Z"/>
</mask>
<path fill-rule="evenodd" clip-rule="evenodd" d="M15.8188 19.5632L-0.370661 35.7527L3.43864 39.562L19.6281 23.3725L36.7699 40.5143L40.5792 36.705L23.4374 19.5632L39.627 3.3736L35.8177 -0.435705L19.6281 15.7539L2.48618 -1.38803L-1.32313 2.42127L15.8188 19.5632Z" fill="#E4032F"/>
<path d="M-0.370661 35.7527L-1.78487 34.3385L-3.19909 35.7527L-1.78487 37.1669L-0.370661 35.7527ZM15.8188 19.5632L17.233 20.9774L18.6472 19.5632L17.233 18.149L15.8188 19.5632ZM3.43864 39.562L2.02443 40.9762L3.43864 42.3904L4.85286 40.9762L3.43864 39.562ZM19.6281 23.3725L21.0423 21.9583L19.6281 20.5441L18.2139 21.9583L19.6281 23.3725ZM36.7699 40.5143L35.3557 41.9285L36.7699 43.3427L38.1841 41.9285L36.7699 40.5143ZM40.5792 36.705L41.9934 38.1192L43.4077 36.705L41.9934 35.2908L40.5792 36.705ZM23.4374 19.5632L22.0232 18.149L20.609 19.5632L22.0232 20.9774L23.4374 19.5632ZM39.627 3.3736L41.0412 4.78781L42.4554 3.3736L41.0412 1.95939L39.627 3.3736ZM35.8177 -0.435705L37.2319 -1.84992L35.8177 -3.26413L34.4035 -1.84992L35.8177 -0.435705ZM19.6281 15.7539L18.2139 17.1681L19.6281 18.5823L21.0423 17.1681L19.6281 15.7539ZM2.48618 -1.38803L3.90039 -2.80224L2.48618 -4.21646L1.07196 -2.80224L2.48618 -1.38803ZM-1.32313 2.42127L-2.73734 1.00706L-4.15156 2.42127L-2.73734 3.83549L-1.32313 2.42127ZM1.04355 37.1669L17.233 20.9774L14.4046 18.149L-1.78487 34.3385L1.04355 37.1669ZM4.85286 38.1478L1.04355 34.3385L-1.78487 37.1669L2.02443 40.9762L4.85286 38.1478ZM18.2139 21.9583L2.02443 38.1478L4.85286 40.9762L21.0423 24.7867L18.2139 21.9583ZM38.1841 39.1001L21.0423 21.9583L18.2139 24.7867L35.3557 41.9285L38.1841 39.1001ZM39.165 35.2908L35.3557 39.1001L38.1841 41.9285L41.9934 38.1192L39.165 35.2908ZM22.0232 20.9774L39.165 38.1192L41.9934 35.2908L24.8516 18.149L22.0232 20.9774ZM38.2128 1.95939L22.0232 18.149L24.8516 20.9774L41.0412 4.78781L38.2128 1.95939ZM34.4035 0.978509L38.2128 4.78781L41.0412 1.95939L37.2319 -1.84992L34.4035 0.978509ZM21.0423 17.1681L37.2319 0.978509L34.4035 -1.84992L18.2139 14.3397L21.0423 17.1681ZM1.07196 0.0261839L18.2139 17.1681L21.0423 14.3397L3.90039 -2.80224L1.07196 0.0261839ZM0.0910849 3.83549L3.90039 0.0261836L1.07196 -2.80224L-2.73734 1.00706L0.0910849 3.83549ZM17.233 18.149L0.0910847 1.00706L-2.73734 3.83549L14.4046 20.9774L17.233 18.149Z" fill="white" mask="url(#path-2-inside-1)"/>
<mask id="path-4-inside-2" fill="white">
<path fill-rule="evenodd" clip-rule="evenodd" d="M15.2245 24.1377V52.0249H24.1388V24.1377H52.0259V15.2234H24.1388V-12.6338H15.2245V15.2234H-12.6328V24.1377H15.2245Z"/>
</mask>
<path fill-rule="evenodd" clip-rule="evenodd" d="M15.2245 24.1377V52.0249H24.1388V24.1377H52.0259V15.2234H24.1388V-12.6338H15.2245V15.2234H-12.6328V24.1377H15.2245Z" fill="#E4032F"/>
<path d="M15.2245 52.0249H13.2245V54.0249H15.2245V52.0249ZM15.2245 24.1377H17.2245V22.1377H15.2245V24.1377ZM24.1388 52.0249V54.0249H26.1388V52.0249H24.1388ZM24.1388 24.1377V22.1377H22.1388V24.1377H24.1388ZM52.0259 24.1377V26.1377H54.0259V24.1377H52.0259ZM52.0259 15.2234H54.0259V13.2234H52.0259V15.2234ZM24.1388 15.2234H22.1388V17.2234H24.1388V15.2234ZM24.1388 -12.6338H26.1388V-14.6338H24.1388V-12.6338ZM15.2245 -12.6338V-14.6338H13.2245V-12.6338H15.2245ZM15.2245 15.2234V17.2234H17.2245V15.2234H15.2245ZM-12.6328 15.2234V13.2234H-14.6328V15.2234H-12.6328ZM-12.6328 24.1377H-14.6328V26.1377H-12.6328V24.1377ZM17.2245 52.0249V24.1377H13.2245V52.0249H17.2245ZM24.1388 50.0249H15.2245V54.0249H24.1388V50.0249ZM22.1388 24.1377V52.0249H26.1388V24.1377H22.1388ZM52.0259 22.1377H24.1388V26.1377H52.0259V22.1377ZM50.0259 15.2234V24.1377H54.0259V15.2234H50.0259ZM24.1388 17.2234H52.0259V13.2234H24.1388V17.2234ZM22.1388 -12.6338V15.2234H26.1388V-12.6338H22.1388ZM15.2245 -10.6338H24.1388V-14.6338H15.2245V-10.6338ZM17.2245 15.2234V-12.6338H13.2245V15.2234H17.2245ZM-12.6328 17.2234H15.2245V13.2234H-12.6328V17.2234ZM-10.6328 24.1377V15.2234H-14.6328V24.1377H-10.6328ZM15.2245 22.1377H-12.6328V26.1377H15.2245V22.1377Z" fill="white" mask="url(#path-4-inside-2)"/>
</g>
</g>
<defs>
<clipPath id="clip0">
<rect width="39" height="39" rx="19.5" fill="white"/>
</clipPath>
</defs>
</svg>
