<svg width="102" height="109" viewBox="0 0 102 109" fill="none" xmlns="http://www.w3.org/2000/svg">
<path d="M22.1788 22.6015C30.1625 16.0468 40.1724 12.4641 50.5021 12.464C75.0546 12.4208 95.2248 32.4065 95.391 56.9541C95.5671 81.8556 75.4335 102.097 50.5735 102.097C40.2198 102.114 30.1824 98.53 22.1804 91.9598C21.5793 91.4726 20.8153 91.2326 20.0436 91.2884C19.2719 91.3443 18.5504 91.6919 18.0257 92.2606C17.742 92.5673 17.524 92.9289 17.3854 93.3231C17.2468 93.7173 17.1903 94.1357 17.2196 94.5526C17.2489 94.9694 17.3632 95.3758 17.5556 95.7468C17.748 96.1177 18.0143 96.4453 18.3382 96.7094C27.3459 104.096 38.6219 108.157 50.2711 108.21C78.375 108.376 101.457 85.4835 101.508 57.3778C101.562 29.2057 78.7407 6.34833 50.5785 6.34833C38.7984 6.3298 27.3791 10.4116 18.28 17.8934C17.9509 18.1643 17.6822 18.5011 17.4911 18.8821C17.3001 19.2631 17.1908 19.6799 17.1705 20.1057C17.1501 20.5314 17.2191 20.9567 17.373 21.3542C17.5269 21.7517 17.7622 22.1126 18.064 22.4137C18.6035 22.9513 19.3242 23.2684 20.0851 23.3032C20.846 23.3379 21.5925 23.0877 22.1788 22.6015Z" fill="#31348B"/>
<path d="M101.575 32.8835C101.747 32.8087 101.882 32.6689 101.95 32.4948C102.019 32.3207 102.016 32.1265 101.942 31.9545C100.842 29.4024 99.5403 26.9417 98.0501 24.5957C95.1026 19.959 91.4592 15.8033 87.2479 12.2746C78.5912 5.02328 67.8297 0.752009 56.5564 0.093065C55.6424 0.0376691 54.7272 0.0066475 53.811 0C52.9053 0 52.8321 1.40096 53.7428 1.40927C59.5462 1.45361 65.3011 2.46978 70.7687 4.4156C80.919 8.06357 89.6675 14.8066 95.78 23.6933C97.6856 26.4695 99.317 29.4244 100.651 32.5162C100.725 32.6869 100.864 32.8211 101.038 32.8893C101.211 32.9575 101.404 32.9542 101.575 32.8802V32.8835Z" fill="#31348B"/>
<path d="M80.8047 12.7233C82.9405 12.7233 84.6719 10.9919 84.6719 8.85607C84.6719 6.72029 82.9405 4.98889 80.8047 4.98889C78.6689 4.98889 76.9375 6.72029 76.9375 8.85607C76.9375 10.9919 78.6689 12.7233 80.8047 12.7233Z" fill="#00A53F"/>
<path d="M23.432 108.61C23.3885 108.693 23.3291 108.766 23.2573 108.825C23.1855 108.884 23.1026 108.929 23.0134 108.956C22.9243 108.983 22.8307 108.992 22.7379 108.983C22.6452 108.974 22.5552 108.947 22.4731 108.903C21.7386 108.51 21.0129 108.102 20.296 107.676C11.6074 102.516 4.58914 94.9628 0.08101 85.9189C-0.322825 85.1079 0.893667 84.3933 1.29916 85.2059C1.57171 85.7544 1.85368 86.2978 2.14506 86.8362C6.83084 95.4813 13.9056 102.595 22.5246 107.329C22.729 107.442 22.9334 107.553 23.1379 107.661C23.3015 107.749 23.4235 107.899 23.4774 108.076C23.5313 108.254 23.5126 108.446 23.4254 108.61H23.432Z" fill="#31348B"/>
<path d="M8.92895 103.048C11.7164 103.048 13.9761 100.788 13.9761 98.0007C13.9761 95.2133 11.7164 92.9536 8.92895 92.9536C6.1415 92.9536 3.88184 95.2133 3.88184 98.0007C3.88184 100.788 6.1415 103.048 8.92895 103.048Z" fill="#0092D2"/>
<path d="M9.11493 73.5064C8.23405 73.5052 7.36149 73.3359 6.54401 73.0078V75.4724C6.54269 76.027 6.32189 76.5586 5.92984 76.951C5.53779 77.3433 5.00637 77.5646 4.45171 77.5663H4.26558C3.74525 77.5421 3.25406 77.3191 2.89323 76.9435C2.5324 76.5678 2.32944 76.068 2.32617 75.5471V62.1391C2.32617 61.6102 2.53628 61.103 2.91027 60.729C3.28427 60.355 3.79151 60.1449 4.32042 60.1449C4.59866 60.1405 4.87469 60.1949 5.13043 60.3046C5.38618 60.4143 5.61587 60.5768 5.80447 60.7814C6.82118 60.2287 7.95936 59.9374 9.11659 59.9338C10.8972 59.9617 12.5954 60.6886 13.8447 61.9576C15.094 63.2266 15.7942 64.936 15.7942 66.7168C15.7942 68.4976 15.094 70.2069 13.8447 71.4759C12.5954 72.745 10.8972 73.4718 9.11659 73.4997L9.11493 73.5064ZM9.11493 64.1533C8.60631 64.153 8.10902 64.3035 7.68598 64.5859C7.26294 64.8683 6.93316 65.2698 6.73837 65.7396C6.54357 66.2095 6.49252 66.7265 6.59167 67.2254C6.69081 67.7243 6.9357 68.1825 7.29535 68.5422C7.655 68.9018 8.11325 69.1467 8.61211 69.2459C9.11098 69.345 9.62804 69.2939 10.0979 69.0992C10.5677 68.9044 10.9692 68.5746 11.2516 68.1515C11.534 67.7285 11.6845 67.2312 11.6842 66.7226C11.6866 66.3843 11.6218 66.0489 11.4936 65.7358C11.3655 65.4227 11.1764 65.1382 10.9374 64.8987C10.6984 64.6592 10.4142 64.4696 10.1014 64.3408C9.78854 64.212 9.45324 64.1466 9.11493 64.1483V64.1533Z" fill="#00A53F"/>
<path d="M37.613 62.0328V71.3077C37.613 71.8366 37.4029 72.3438 37.0289 72.7178C36.6549 73.0918 36.1476 73.3019 35.6187 73.3019C35.0596 73.2931 34.5265 73.0644 34.1347 72.6654C33.1178 73.2178 31.9797 73.509 30.8226 73.513C29.9229 73.5271 29.0294 73.362 28.1941 73.0275C27.3588 72.6929 26.5984 72.1956 25.9572 71.5643C25.316 70.9331 24.8068 70.1805 24.4592 69.3506C24.1116 68.5207 23.9326 67.6299 23.9326 66.7301C23.9326 65.8303 24.1116 64.9395 24.4592 64.1095C24.8068 63.2796 25.316 62.5271 25.9572 61.8958C26.5984 61.2646 27.3588 60.7672 28.1941 60.4326C29.0294 60.0981 29.9229 59.933 30.8226 59.9471C31.962 59.9578 33.0812 60.2489 34.0815 60.7947C34.2613 60.5588 34.4942 60.3687 34.7613 60.2399C35.0285 60.1111 35.3222 60.0472 35.6187 60.0535C36.1451 60.0535 36.6501 60.2615 37.0236 60.6323C37.3972 61.003 37.609 61.5065 37.613 62.0328ZM33.4035 66.7226C33.4021 66.2145 33.2503 65.7181 32.9671 65.2962C32.6838 64.8744 32.282 64.5459 31.8122 64.3523C31.3424 64.1586 30.8257 64.1086 30.3275 64.2084C29.8293 64.3082 29.3718 64.5534 29.0129 64.9131C28.6539 65.2727 28.4096 65.7307 28.3107 66.2291C28.2119 66.7275 28.263 67.244 28.4575 67.7135C28.652 68.1829 28.9813 68.5841 29.4037 68.8665C29.8261 69.1489 30.3227 69.2998 30.8309 69.3001C31.1697 69.3024 31.5057 69.2372 31.8191 69.1084C32.1326 68.9795 32.4173 68.7897 32.6567 68.5498C32.8961 68.31 33.0854 68.0249 33.2136 67.7112C33.3418 67.3975 33.4063 67.0615 33.4035 66.7226Z" fill="#00A53F"/>
<path d="M51.2381 65.7687V71.2279C51.2368 71.7825 51.0159 72.3139 50.6238 72.706C50.2317 73.0981 49.7003 73.3189 49.1458 73.3202C48.5891 73.319 48.0553 73.0989 47.6595 72.7074C47.2637 72.316 47.0377 71.7846 47.0302 71.2279V65.7687C47.0318 65.5561 46.9911 65.3454 46.9104 65.1487C46.8298 64.952 46.7109 64.7733 46.5606 64.623C46.4103 64.4727 46.2316 64.3538 46.0349 64.2732C45.8382 64.1925 45.6275 64.1518 45.4149 64.1533C45.2009 64.1514 44.9886 64.1916 44.7901 64.2717C44.5917 64.3519 44.4109 64.4703 44.2583 64.6204C44.1057 64.7704 43.9841 64.949 43.9005 65.1461C43.8169 65.3431 43.773 65.5547 43.7713 65.7687V71.2279C43.756 71.7729 43.5287 72.2903 43.1378 72.6703C42.747 73.0503 42.2233 73.2629 41.6782 73.2629C41.133 73.2629 40.6094 73.0503 40.2185 72.6703C39.8277 72.2903 39.6004 71.7729 39.585 71.2279V62.0876C39.5826 61.8242 39.6324 61.5629 39.7316 61.3189C39.8307 61.0748 39.9772 60.8528 40.1626 60.6657C40.3481 60.4785 40.5687 60.33 40.8119 60.2286C41.055 60.1273 41.3159 60.0751 41.5793 60.0751C42.0409 60.0821 42.4875 60.2403 42.8506 60.5255C43.6526 60.1394 44.5315 59.94 45.4215 59.9422C46.965 59.9452 48.4442 60.5604 49.5346 61.6527C50.625 62.745 51.2377 64.2253 51.2381 65.7687Z" fill="#0092D2"/>
<path d="M64.2628 68.2598H57.2148C58.3781 70.0347 60.5801 70.3006 62.2752 69.3733C62.4783 69.2514 62.7035 69.1711 62.9379 69.137C63.1722 69.103 63.411 69.1159 63.6403 69.1749C63.8697 69.234 64.085 69.3381 64.2737 69.4811C64.4625 69.6242 64.6209 69.8033 64.7398 70.0081C64.9836 70.4236 65.0535 70.9186 64.9343 71.3854C64.8151 71.8522 64.5165 72.2531 64.1033 72.5009C62.952 73.1668 61.6442 73.5144 60.3142 73.508C57.268 73.508 54.8832 71.7863 53.8229 69.586C53.002 67.8909 53.0286 65.7969 53.7432 64.0752C54.3212 62.7031 55.3363 61.5604 56.6307 60.8247C57.9251 60.089 59.4263 59.8016 60.9009 60.007C62.3755 60.2124 63.741 60.8993 64.785 61.9607C65.8291 63.0222 66.4932 64.3989 66.6742 65.8767C66.8321 67.4721 65.7735 68.2598 64.2628 68.2598ZM62.6525 65.2402C62.4148 64.2331 61.3014 63.2792 59.9503 63.2792C58.6208 63.2792 57.4857 64.2331 57.2481 65.2402H62.6525Z" fill="#0092D2"/>
<path d="M76.5252 80.5527C76.5239 81.1144 76.3003 81.6528 75.9033 82.0501C75.5062 82.4475 74.968 82.6715 74.4063 82.6732H74.0091C70.8815 82.6732 68.6562 80.2087 68.6562 77.1342V62.0594C68.6717 61.5074 68.9018 60.9833 69.2976 60.5984C69.6935 60.2135 70.2238 59.9982 70.776 59.9982C71.3281 59.9982 71.8585 60.2135 72.2543 60.5984C72.6501 60.9833 72.8802 61.5074 72.8957 62.0594V64.1483H74.8301C75.3185 64.1483 75.7868 64.3423 76.1321 64.6877C76.4775 65.033 76.6715 65.5013 76.6715 65.9897C76.6715 66.478 76.4775 66.9464 76.1321 67.2917C75.7868 67.637 75.3185 67.831 74.8301 67.831H72.8957V77.1292C72.8957 77.794 73.2397 78.4288 74.0091 78.4288H74.4063C74.9688 78.4301 75.5077 78.6545 75.9049 79.0527C76.3021 79.4508 76.5252 79.9903 76.5252 80.5527Z" fill="#0092D2"/>
<path d="M19.9717 73.2887C19.4041 73.2774 18.864 73.0418 18.4695 72.6336C18.075 72.2254 17.858 71.6776 17.8661 71.11V33.8558C17.8582 33.5742 17.9068 33.2938 18.0091 33.0314C18.1114 32.7689 18.2653 32.5296 18.4617 32.3276C18.658 32.1256 18.8929 31.9651 19.1524 31.8554C19.4119 31.7458 19.6908 31.6893 19.9725 31.6893C20.2542 31.6893 20.533 31.7458 20.7926 31.8554C21.0521 31.9651 21.2869 32.1256 21.4833 32.3276C21.6797 32.5296 21.8336 32.7689 21.9359 33.0314C22.0382 33.2938 22.0868 33.5742 22.0789 33.8558V71.1166C22.0852 71.6834 21.8672 72.2297 21.4725 72.6366C21.0778 73.0434 20.5384 73.2778 19.9717 73.2887Z" fill="#FAB500"/>
<path d="M26.1741 52.6714C25.6102 52.6697 25.0699 52.4448 24.6713 52.0459C24.2727 51.6469 24.0482 51.1065 24.0469 50.5426V41.3424C24.0469 41.0631 24.1019 40.7865 24.2088 40.5284C24.3157 40.2703 24.4724 40.0358 24.6699 39.8383C24.8674 39.6407 25.1019 39.484 25.36 39.3771C25.6181 39.2702 25.8947 39.2152 26.1741 39.2152C26.4534 39.2152 26.73 39.2702 26.9881 39.3771C27.2462 39.484 27.4807 39.6407 27.6782 39.8383C27.8758 40.0358 28.0324 40.2703 28.1393 40.5284C28.2463 40.7865 28.3013 41.0631 28.3013 41.3424V50.5426C28.3 51.1065 28.0755 51.6469 27.6769 52.0459C27.2783 52.4448 26.738 52.6697 26.1741 52.6714ZM27.9822 36.7955C27.9861 37.1588 27.8818 37.5149 27.6824 37.8186C27.4831 38.1222 27.1978 38.3596 26.863 38.5005C26.5281 38.6413 26.1589 38.6792 25.8025 38.6093C25.446 38.5394 25.1185 38.3649 24.8616 38.108C24.6048 37.8511 24.4302 37.5236 24.3603 37.1671C24.2904 36.8107 24.3283 36.4415 24.4692 36.1066C24.61 35.7718 24.8474 35.4865 25.151 35.2872C25.4547 35.0878 25.8109 34.9835 26.1741 34.9874C26.652 34.9926 27.1089 35.1848 27.4469 35.5227C27.7848 35.8607 27.977 36.3176 27.9822 36.7955Z" fill="#FAB500"/>
<path d="M41.9683 45.0917V50.5759C41.9674 51.1329 41.7459 51.6668 41.3522 52.0609C40.9585 52.4549 40.4247 52.6768 39.8677 52.6782C39.308 52.6778 38.7709 52.4569 38.3728 52.0635C37.9747 51.67 37.7475 51.1356 37.7405 50.5759V45.0917C37.7418 44.8783 37.7008 44.6668 37.6197 44.4694C37.5387 44.272 37.4193 44.0927 37.2684 43.9418C37.1175 43.7909 36.9382 43.6715 36.7408 43.5905C36.5434 43.5094 36.3319 43.4684 36.1185 43.4697C35.9037 43.4677 35.6906 43.5082 35.4915 43.5886C35.2923 43.6691 35.1109 43.7881 34.9578 43.9388C34.8047 44.0894 34.6828 44.2688 34.5991 44.4666C34.5153 44.6645 34.4715 44.8769 34.47 45.0917V50.5759C34.47 51.133 34.2486 51.6673 33.8547 52.0612C33.4608 52.4552 32.9265 52.6765 32.3693 52.6765C31.8122 52.6765 31.2779 52.4552 30.884 52.0612C30.49 51.6673 30.2687 51.133 30.2687 50.5759V41.4023C30.2652 41.1382 30.3142 40.876 30.4128 40.631C30.5115 40.386 30.6578 40.163 30.8433 39.975C31.0289 39.787 31.2499 39.6377 31.4936 39.5358C31.7373 39.4339 31.9988 39.3815 32.263 39.3815C32.7263 39.389 33.1745 39.5478 33.5393 39.8335C34.344 39.4467 35.2257 39.2468 36.1185 39.2485C37.6688 39.2485 39.1558 39.864 40.2526 40.9596C41.3495 42.0552 41.9666 43.5414 41.9683 45.0917Z" fill="#FAB500"/>
<path d="M57.5516 41.3159V51.4533C57.5433 53.2466 56.8254 54.9636 55.5548 56.2292C54.2843 57.4947 52.5645 58.2059 50.7712 58.2072C49.7783 58.2111 48.7972 57.9931 47.8995 57.569C47.6585 57.4555 47.4423 57.2957 47.2631 57.0987C47.084 56.9016 46.9453 56.6712 46.8552 56.4206C46.7651 56.17 46.7252 55.9041 46.7379 55.638C46.7505 55.372 46.8154 55.1111 46.9289 54.8701C47.1581 54.3835 47.5712 54.0079 48.0774 53.8259C48.328 53.7358 48.5939 53.6959 48.8599 53.7086C49.1259 53.7212 49.3869 53.7861 49.6278 53.8996C49.9678 54.0588 50.3372 54.1458 50.7125 54.1549C51.0879 54.1641 51.461 54.0953 51.8084 53.9528C52.1558 53.8104 52.4698 53.5974 52.7307 53.3274C52.9915 53.0573 53.1935 52.7361 53.3238 52.384C52.5035 52.7123 51.6282 52.8815 50.7446 52.8825C49.8269 52.9205 48.911 52.7725 48.0519 52.4475C47.1929 52.1224 46.4084 51.6271 45.7457 50.9912C45.0829 50.3553 44.5556 49.5919 44.1954 48.747C43.8351 47.9022 43.6494 46.9932 43.6494 46.0747C43.6494 45.1562 43.8351 44.2472 44.1954 43.4023C44.5556 42.5574 45.0829 41.7941 45.7457 41.1582C46.4084 40.5222 47.1929 40.0269 48.0519 39.7019C48.911 39.3768 49.8269 39.2289 50.7446 39.2668C51.847 39.2668 52.932 39.5409 53.9021 40.0645C54.165 39.7345 54.5235 39.4939 54.9286 39.3758C55.3336 39.2576 55.7652 39.2677 56.1643 39.4046C56.5634 39.5415 56.9103 39.7985 57.1575 40.1404C57.4047 40.4823 57.54 40.8924 57.545 41.3142L57.5516 41.3159ZM53.2706 46.0755C53.2736 45.5717 53.1267 45.0783 52.8486 44.6582C52.5706 44.238 52.1739 43.91 51.709 43.7159C51.244 43.5217 50.7319 43.4701 50.2376 43.5677C49.7433 43.6653 49.2892 43.9076 48.9329 44.2638C48.5766 44.6201 48.3343 45.0742 48.2368 45.5685C48.1392 46.0628 48.1908 46.575 48.3849 47.0399C48.5791 47.5048 48.9071 47.9015 49.3273 48.1796C49.7474 48.4576 50.2408 48.6045 50.7446 48.6016C51.4128 48.5959 52.052 48.328 52.5245 47.8554C52.997 47.3829 53.265 46.7437 53.2706 46.0755Z" fill="#E4032F"/>
<path d="M65.3878 52.7595C63.829 52.759 62.3341 52.1396 61.2319 51.0374C60.1296 49.9351 59.5102 48.4403 59.5098 46.8814V41.3507C59.5252 40.8001 59.7548 40.2773 60.1497 39.8933C60.5446 39.5093 61.0737 39.2944 61.6245 39.2944C62.1753 39.2944 62.7044 39.5093 63.0993 39.8933C63.4942 40.2773 63.7238 40.8001 63.7392 41.3507V46.8814C63.7392 47.3187 63.9129 47.738 64.2221 48.0472C64.5313 48.3563 64.9506 48.53 65.3878 48.53C65.825 48.53 66.2444 48.3563 66.5535 48.0472C66.8627 47.738 67.0364 47.3187 67.0364 46.8814V41.3507C67.0364 40.7901 67.2591 40.2524 67.6555 39.856C68.052 39.4595 68.5897 39.2368 69.1503 39.2368C69.7109 39.2368 70.2486 39.4595 70.6451 39.856C71.0415 40.2524 71.2642 40.7901 71.2642 41.3507V46.8814C71.2642 48.4401 70.6451 49.935 69.5431 51.0373C68.4412 52.1396 66.9465 52.759 65.3878 52.7595Z" fill="#E4032F"/>
<path d="M86.8478 41.3557V50.6622C86.8435 51.1898 86.632 51.6945 86.2589 52.0675C85.8859 52.4406 85.3812 52.6521 84.8536 52.6564C84.2904 52.6491 83.7529 52.4198 83.3579 52.0183C82.3375 52.5727 81.1954 52.8651 80.0342 52.8692C78.2773 52.7965 76.6165 52.0475 75.3991 50.7787C74.1817 49.5099 73.502 47.8197 73.502 46.0613C73.502 44.3029 74.1817 42.6126 75.3991 41.3439C76.6165 40.0751 78.2773 39.3261 80.0342 39.2534C81.1777 39.2642 82.3009 39.5565 83.3047 40.1043C83.4853 39.8674 83.7192 39.6765 83.9875 39.5471C84.2558 39.4177 84.5508 39.3535 84.8486 39.3598C85.3775 39.3624 85.8839 39.5734 86.2582 39.9471C86.6325 40.3207 86.8444 40.8268 86.8478 41.3557ZM82.6184 46.0621C82.6184 45.552 82.4671 45.0533 82.1837 44.6292C81.9003 44.205 81.4975 43.8744 81.0262 43.6792C80.5549 43.484 80.0363 43.4329 79.536 43.5324C79.0356 43.632 78.5761 43.8776 78.2154 44.2383C77.8546 44.599 77.609 45.0586 77.5095 45.5589C77.41 46.0593 77.461 46.5779 77.6562 47.0491C77.8515 47.5204 78.182 47.9233 78.6062 48.2067C79.0304 48.4901 79.529 48.6413 80.0391 48.6413C80.3784 48.6433 80.7147 48.578 81.0285 48.4491C81.3423 48.3201 81.6275 48.1302 81.8674 47.8903C82.1073 47.6504 82.2972 47.3653 82.4261 47.0515C82.555 46.7377 82.6204 46.4014 82.6184 46.0621Z" fill="#E4032F"/>
<path d="M56.3673 91.4347C58.3765 91.4347 60.0052 89.806 60.0052 87.7968C60.0052 85.7877 58.3765 84.159 56.3673 84.159C54.3582 84.159 52.7295 85.7877 52.7295 87.7968C52.7295 89.806 54.3582 91.4347 56.3673 91.4347Z" fill="#FAB500"/>
<path d="M6.54452 45.2579C9.14932 45.2579 11.2609 43.1463 11.2609 40.5415C11.2609 37.9367 9.14932 35.8251 6.54452 35.8251C3.93973 35.8251 1.82812 37.9367 1.82812 40.5415C1.82812 43.1463 3.93973 45.2579 6.54452 45.2579Z" fill="#E4032F"/>
</svg>
