<svg width="180" height="203" viewBox="0 0 180 203" fill="none" xmlns="http://www.w3.org/2000/svg">
<path d="M122.716 30.8878C125.933 28.9526 130.056 31.1214 130.284 34.8689L132.314 68.2474C132.55 72.1414 128.435 74.7944 124.986 72.9713L94.3704 56.7879C90.9293 54.969 90.7944 50.0891 94.1297 48.0829L122.716 30.8878Z" fill="#E4032F"/>
<path d="M112.146 114.122C122.467 123.888 122.916 140.171 113.15 150.491L108.659 155.237C106.523 157.494 102.962 157.592 100.705 155.456L99.7865 154.587C92.2306 147.437 91.9017 135.515 99.0518 127.96L112.146 114.122Z" fill="#E4032F"/>
<g style="mix-blend-mode:multiply" opacity="0.56">
<path d="M110.549 110.938C119.935 119.82 120.344 134.629 111.461 144.015L107.377 148.331C105.435 150.384 102.196 150.473 100.143 148.531L99.3076 147.74C92.4356 141.237 92.1365 130.395 98.6394 123.523L110.549 110.938Z" fill="#31348B"/>
</g>
<path d="M67.2227 90.2241C53.3403 87.1968 39.6324 95.9966 36.6051 109.879L35.2131 116.262C34.551 119.298 36.4756 122.297 39.5119 122.959L40.7472 123.228C50.911 125.444 60.9472 119.002 63.1636 108.838L67.2227 90.2241Z" fill="#E4032F"/>
<path fill-rule="evenodd" clip-rule="evenodd" d="M60.7937 135.218C65.5007 130.526 71.4005 126.894 78.2109 124.848C80.1891 131.432 80.4617 138.123 79.2839 144.447L80.6166 142.386L81.9549 145.64C86.4265 156.512 80.6493 168.884 69.4427 172.435C68.7384 170.148 68.4713 167.78 68.625 165.446C63.7747 170.601 57.545 174.589 50.2788 176.772C48.1733 169.764 48 162.635 49.4511 155.958C47.5918 157.428 45.4581 158.562 43.1402 159.278C39.7625 148.018 46.7316 136.276 58.2338 133.847L61.6764 133.121L60.7937 135.218Z" fill="url(#paint0_linear)"/>
<path fill-rule="evenodd" clip-rule="evenodd" d="M62.2246 141.604C64.9842 138.853 68.443 136.724 72.4356 135.525C73.5955 139.385 73.7553 143.309 73.0645 147.016L73.8465 145.807L74.6311 147.715C77.2528 154.089 73.8657 161.342 67.2954 163.424C66.8824 162.083 66.7258 160.695 66.816 159.326C63.9723 162.349 60.3197 164.687 56.0594 165.967C54.825 161.859 54.7233 157.679 55.5741 153.764C54.4841 154.626 53.2332 155.291 51.8744 155.71C49.8941 149.109 53.98 142.225 60.7236 140.801L62.742 140.375L62.2246 141.604Z" fill="#FAB500"/>
<path fill-rule="evenodd" clip-rule="evenodd" d="M88.8986 51.3471C80.5515 57.6699 72.5537 67.1264 66.3962 78.7752C57.1903 96.191 54.3504 114.246 57.6696 127.051C53.0511 130.139 48.8317 134.775 45.7582 140.589C44.8029 142.396 44.0041 144.231 43.3582 146.068C46.1506 142.274 49.4596 139.211 52.9677 137.036L81.9796 152.372C82.1587 156.495 81.4913 160.955 79.9287 165.4C81.0831 163.831 82.1493 162.138 83.1047 160.33C86.1938 154.486 87.6473 148.356 87.5818 142.778C100.005 138.279 113.28 125.783 122.462 108.411C128.62 96.7626 131.929 84.8279 132.453 74.3695L88.8986 51.3471Z" fill="white"/>
<path fill-rule="evenodd" clip-rule="evenodd" d="M87.7309 141.917C87.8554 145.865 87.2279 150.124 85.8111 154.398L49.4865 135.197C49.4867 135.197 49.4868 135.197 49.4869 135.196L76.1179 149.274C77.5344 145 78.1619 140.741 78.0374 136.793L58.7185 126.581C58.7186 126.581 58.7186 126.581 58.7187 126.581L87.7309 141.917Z" fill="#E9E8E8"/>
<path fill-rule="evenodd" clip-rule="evenodd" d="M87.4351 141.783C87.7564 147.648 86.3597 154.169 83.0933 160.348C82.1377 162.156 81.0679 163.848 79.9066 165.413C81.4534 160.96 82.0862 156.481 81.8589 152.332L57.8274 139.629L57.8276 139.629L85.66 154.341C87.0773 150.06 87.6529 145.77 87.4345 141.783L57.6638 126.047C57.6639 126.047 57.664 126.047 57.6641 126.047L87.4351 141.783ZM52.0876 136.595L52.0873 136.595C48.5315 138.743 45.1885 141.787 42.3803 145.572C42.3801 145.572 42.38 145.573 42.3798 145.573C45.1881 141.788 48.5315 138.744 52.0876 136.595Z" fill="#E9E8E8"/>
<path fill-rule="evenodd" clip-rule="evenodd" d="M88.873 51.3342L123.019 69.3836C122.496 79.842 119.186 91.7768 113.029 103.426C101.991 124.307 85.0401 138.143 70.7639 139.513L80.1473 144.473L80.1388 144.489C94.4219 143.138 111.391 129.296 122.437 108.398C128.594 96.7497 131.904 84.815 132.427 74.3566L88.8731 51.3341C88.8731 51.3342 88.873 51.3342 88.873 51.3342Z" fill="#E9E8E8"/>
<g style="mix-blend-mode:hard-light">
<path fill-rule="evenodd" clip-rule="evenodd" d="M80.1958 144.499C80.1954 144.499 80.1951 144.499 80.1948 144.499L69.8118 139.011L69.8121 139.01L80.1958 144.499ZM69.7879 138.998L60.403 134.037L60.3945 134.054C53.4668 121.49 55.3474 99.6725 66.3937 78.7751C72.5512 67.1263 80.549 57.6698 88.8961 51.347L98.3047 56.3204C89.9578 62.6432 81.9601 72.0995 75.8027 83.7481C64.7648 104.63 62.8788 126.43 69.7879 138.998Z" fill="#F8F8F8"/>
</g>
<path fill-rule="evenodd" clip-rule="evenodd" d="M74.7698 80.8711C80.5578 69.9214 87.5344 60.7414 94.4862 54.3016L125.67 70.7854C124.265 80.1568 120.608 91.0919 114.82 102.042C104.346 121.857 89.9793 135.876 78.9115 138.35L64.9928 130.992C60.8028 120.454 64.2956 100.686 74.7698 80.8711Z" fill="#E8F7FE"/>
<circle cx="98.2237" cy="86.1856" r="12.5762" transform="rotate(27.8607 98.2237 86.1856)" fill="#FAB500"/>
<circle cx="98.0044" cy="86.2528" r="10.4801" transform="rotate(27.8607 98.0044 86.2528)" fill="#0092D2"/>
<circle cx="99.7973" cy="83.5526" r="15.6396" transform="rotate(27.8607 99.7973 83.5526)" fill="#FAB500"/>
<g style="mix-blend-mode:hard-light">
<circle cx="100.066" cy="84.4241" r="14.9947" transform="rotate(27.8607 100.066 84.4241)" fill="#FAB500"/>
</g>
<circle cx="99.7975" cy="83.5526" r="12.0925" transform="rotate(27.8607 99.7975 83.5526)" fill="#0092D2"/>
<g style="mix-blend-mode:soft-light">
<circle cx="100.199" cy="84.8599" r="10.8026" transform="rotate(27.8607 100.199 84.8599)" fill="#0092D2"/>
</g>
<g style="mix-blend-mode:hard-light">
<path d="M105.814 82.1741C105.127 83.473 102.873 84.6319 101.605 83.9617C100.338 83.2915 99.8663 81.6952 100.553 80.3962C101.24 79.0973 102.888 76.6151 104.155 77.2853C105.423 77.9555 106.5 80.8751 105.814 82.1741Z" fill="#0092D2"/>
</g>
<g style="mix-blend-mode:hard-light">
<circle cx="102.397" cy="86.5685" r="1.28986" transform="rotate(27.8607 102.397 86.5685)" fill="#0092D2"/>
</g>
<path fill-rule="evenodd" clip-rule="evenodd" d="M76.1682 149.3C77.8685 145.308 79.0822 141.481 79.7734 138.075L65.4528 130.505C63.028 132.994 60.5489 136.153 58.2077 139.807L76.1682 149.3Z" fill="#E8F7FE"/>
<g style="mix-blend-mode:soft-light">
<path d="M114.441 41.0869C111.835 42.8122 97.8364 52.4004 97.1086 51.3012C96.3808 50.2021 110.425 40.8453 113.03 39.12C115.636 37.3947 126.941 29.4935 127.669 30.5926C128.396 31.6918 117.046 39.3615 114.441 41.0869Z" fill="white"/>
</g>
<path d="M80.4257 109.873C81.5232 107.479 84.4075 106.5 86.7358 107.731C89.0706 108.965 89.8827 111.911 88.5098 114.167L72.1327 141.08C71.3787 142.319 69.7902 142.757 68.5079 142.079C67.2218 141.399 66.6901 139.833 67.2964 138.511L80.4257 109.873Z" fill="#E4032F"/>
<defs>
<linearGradient id="paint0_linear" x1="78.0212" y1="124.748" x2="50.4683" y2="176.872" gradientUnits="userSpaceOnUse">
<stop stop-color="#FAB500"/>
<stop offset="1" stop-color="#E4032F"/>
</linearGradient>
</defs>
</svg>
