<svg width="109" height="65" viewBox="0 0 109 65" fill="none" xmlns="http://www.w3.org/2000/svg">
<path d="M56.3563 0.320102C56.1674 0.790189 55.9974 1.26027 55.8463 1.74916C55.6952 2.23805 55.6385 2.70814 55.563 3.19703C55.3741 4.17481 55.204 5.07738 55.0718 6.13037C54.7885 8.12354 54.5807 10.1355 54.4862 12.1475C54.3918 14.1595 54.4862 16.1903 54.4862 18.221C54.4862 19.2364 54.4862 20.2518 54.4862 21.2484C54.4575 21.7055 54.4575 22.1639 54.4862 22.621C54.4862 22.8843 54.4862 23.1287 54.4862 23.392C54.5734 23.6872 54.6807 23.9762 54.8073 24.2569C54.9111 25.1817 54.9111 26.1151 54.8073 27.0399C54.8073 28.0553 54.8073 29.0706 54.8073 30.1048C54.8073 32.1356 54.8073 34.1664 54.8073 36.216V39.1117C54.8073 40.1835 55.1096 41.2365 55.1285 42.3271C55.1285 44.3391 55.1285 46.3887 54.9585 48.4006C54.9585 49.51 54.9585 50.6194 54.8451 51.7288C54.7318 52.8382 54.6184 53.9289 54.4862 55.0383C54.354 56.1477 54.2218 57.163 54.014 58.216C53.9006 58.7989 53.8062 59.4007 53.7495 59.9836C53.7495 60.1528 53.7495 60.416 53.7495 60.1904C53.5197 60.579 53.2608 60.9499 52.975 61.2998C52.7972 61.6501 52.7004 62.0356 52.6917 62.428C52.6912 62.8276 52.7885 63.2212 52.975 63.575C53.1649 63.9174 53.4296 64.213 53.7495 64.44C54.2484 64.7661 54.8496 64.9002 55.4407 64.8171C56.0317 64.7341 56.5721 64.4396 56.9608 63.9887C57.2193 63.6875 57.3951 63.3247 57.4709 62.9357C57.5559 62.5517 57.5559 62.1539 57.4709 61.7699C57.3584 61.418 57.2259 61.0727 57.0742 60.7357C57.0742 60.6041 57.0742 60.3785 57.0742 60.6417C57.0464 60.1469 57.0464 59.651 57.0742 59.1562C57.0742 58.1596 57.0742 57.163 57.0742 56.1665C57.0742 54.1733 57.0742 52.1613 57.0742 50.1681C57.0742 48.175 57.0742 46.1254 57.0742 44.0946C56.9986 43.0869 56.9986 42.075 57.0742 41.0673C57.1497 40.047 57.1497 39.0226 57.0742 38.0023C56.9042 33.9407 56.6397 29.8604 56.5452 25.7988C56.5074 25.2918 56.5074 24.7828 56.5452 24.2758C56.6721 23.9247 56.7793 23.5669 56.8664 23.2039C56.8664 22.1321 56.8664 21.0792 56.9797 19.9886V13.9338C56.9797 11.715 56.9797 9.51502 56.9797 7.29621V2.20045C56.9797 1.59874 56.9797 1.01584 56.8097 0.414125C56.7927 0.315304 56.7467 0.223705 56.6775 0.150877C56.6096 0.0747175 56.5149 0.0275501 56.413 0.0192389C56.3203 -0.00641298 56.2224 -0.00641298 56.1297 0.0192389C56.0521 0.0841218 55.9933 0.168545 55.9596 0.263694L56.3563 0.320102Z" fill="#0B2538"/>
<path d="M27.4358 45.9194C24.8327 46.065 22.2754 46.6632 19.8797 47.687C17.4384 48.6345 15.0761 49.7725 12.8148 51.0904C8.29268 53.7615 4.1611 57.0389 0.53617 60.8306C-0.46501 61.9024 0.271711 64.14 1.93405 63.9332C4.23539 63.6842 6.46377 62.981 8.48894 61.8648C10.4664 60.854 12.281 59.5548 13.8726 58.0101C14.1384 57.7458 14.2879 57.3874 14.2882 57.0135C14.3093 56.6442 14.1877 56.2809 13.9482 55.9981C13.7118 55.7158 13.3849 55.5233 13.0226 55.4528C12.6527 55.3814 12.2692 55.4483 11.9458 55.6408C8.3541 57.3065 5.35164 60.0133 3.33192 63.4067C3.20905 63.6514 3.15056 63.9231 3.1619 64.1964C3.15854 64.4702 3.23749 64.7386 3.38859 64.9674C3.52408 65.2084 3.7277 65.4046 3.97418 65.5315C4.21365 65.6738 4.48878 65.7455 4.76757 65.7383C6.16946 65.8511 7.5782 65.8511 8.98008 65.7383C10.3576 65.5107 11.7155 65.1775 13.0415 64.7417C15.6881 63.9964 18.2276 62.9158 20.5975 61.5263C20.7978 61.3879 20.9497 61.1907 21.032 60.9622C21.1171 60.7251 21.1171 60.466 21.032 60.2289C20.9582 59.9961 20.8129 59.7922 20.6164 59.646C20.4144 59.4969 20.169 59.4176 19.9175 59.4203C17.9304 59.4665 15.9848 59.9958 14.2504 60.9622C12.5019 61.9455 11.0279 63.3481 9.96237 65.0426C9.84059 65.2317 9.7735 65.4505 9.76847 65.675C9.76345 65.8996 9.82068 66.1212 9.93389 66.3155C10.0471 66.5098 10.2119 66.6692 10.4102 66.7764C10.6085 66.8836 10.8326 66.9343 11.058 66.9229C13.3365 67.1455 15.6278 67.2083 17.9151 67.111C18.5493 67.0588 19.18 66.9709 19.8042 66.8477C20.4464 66.8477 21.2587 66.7349 21.9765 66.7161C23.4877 66.7161 25.0178 66.5845 26.5291 66.5657C32.5162 66.441 38.4932 66.0143 44.437 65.287C47.0249 64.9862 49.6695 64.7981 52.2575 64.4597C52.5444 64.4533 52.8271 64.3893 53.0887 64.2716C53.3501 64.1458 53.5819 63.9664 53.7687 63.7451C53.9568 63.5278 54.0925 63.2706 54.1654 62.993C54.23 62.7146 54.23 62.4252 54.1654 62.1469C54.1205 61.8626 54.0106 61.5924 53.8443 61.3571C53.687 61.122 53.4808 60.9232 53.2398 60.7742C52.9905 60.6309 52.7138 60.5412 52.4275 60.5109C52.1478 60.4466 51.8571 60.4466 51.5774 60.5109C46.7791 62.1803 41.7922 63.254 36.7298 63.7075C33.6695 64.0836 30.5904 64.3657 27.5302 64.7041C26.0568 64.8546 24.6023 64.9486 23.1288 65.0238C21.7093 65.1647 20.2792 65.1647 18.8596 65.0238C16.385 64.6289 13.5326 64.8169 11.1713 64.5349L11.9458 66.3024C12.7954 64.9535 13.969 63.8364 15.3607 63.0518C16.7524 62.2673 18.3184 61.8399 19.9175 61.8084L19.3319 59.6084C17.1557 60.9305 14.7651 61.8658 12.267 62.3725C11.0158 62.5506 9.75272 62.6324 8.48894 62.6169C7.18092 62.711 5.8678 62.711 4.55978 62.6169L5.99543 64.9674C7.63067 62.1156 10.1115 59.8367 13.0981 58.4426L11.5303 55.9229C10.2392 57.209 8.72167 58.2479 7.05328 58.9879C5.3402 59.668 3.54144 60.1109 1.70736 60.3041L3.08635 63.4067C6.53955 59.889 10.4088 56.8015 14.6094 54.2118C16.7478 52.8991 18.9548 51.7002 21.2209 50.6203C23.45 49.5485 25.6601 48.5519 27.7947 47.3109C27.924 47.2238 28.0229 47.099 28.0781 46.9536C28.1248 46.8004 28.1248 46.6368 28.0781 46.4835C28.0377 46.3258 27.9444 46.1864 27.8136 46.0887C27.6822 45.9922 27.5235 45.9395 27.3602 45.9382L27.4358 45.9194Z" fill="#0B2538"/>
<path d="M80.6684 47.3288C82.8219 48.6074 85.0509 49.5852 87.2989 50.657C89.5378 51.7558 91.7193 52.9671 93.8349 54.2861C98.0366 56.8586 101.901 59.9409 105.339 63.4622L106.567 60.322C105.694 60.209 104.83 60.0394 103.979 59.8143C103.099 59.6433 102.238 59.385 101.41 59.0433C99.7101 58.2486 98.153 57.1814 96.8006 55.8844L94.9116 58.3288C98.0313 59.7375 100.628 62.0855 102.335 65.0417C102.77 64.2331 103.204 63.4434 103.62 62.6348C102.335 62.7288 101.013 62.6348 99.6908 62.6348C98.4255 62.6935 97.1576 62.6051 95.9128 62.3716C93.4038 61.832 91.0073 60.865 88.829 59.5134C88.6401 60.228 88.4701 60.9425 88.3001 61.657C89.8987 61.7129 91.4603 62.1516 92.8526 62.9357C94.2382 63.7325 95.4058 64.856 96.2528 66.2075C96.574 65.5681 96.8951 64.9852 97.2351 64.3271C95.0438 64.5904 92.8337 64.7032 90.6613 65.0604C89.4081 65.2121 88.1446 65.2624 86.8833 65.2109C85.5232 65.2109 84.182 65.2109 82.8219 65.0793C77.3437 64.7408 71.8845 64.4023 66.4441 63.5374C63.9785 63.1674 61.5595 62.537 59.2281 61.657C58.7766 61.6483 58.3354 61.7918 57.9761 62.0642C57.6169 62.3365 57.3607 62.7217 57.2491 63.1573C57.1375 63.5929 57.1771 64.0532 57.3615 64.4635C57.5458 64.8739 57.8641 65.2101 58.2647 65.4177C60.5504 65.7186 62.855 65.8126 65.1407 66.0571C67.7853 66.3203 70.411 66.4707 73.0746 66.6023C75.7381 66.734 78.7416 66.8844 81.594 66.8468C84.4465 66.8092 87.0155 66.6587 89.7357 66.7152C90.4535 66.7152 91.1525 66.8844 91.8703 66.9408C92.5881 66.9972 93.1548 66.9408 93.7593 66.9408C94.9305 66.9408 96.1206 66.828 97.3107 66.7152C97.5184 66.7014 97.7196 66.6368 97.8963 66.5271C98.0676 66.4103 98.2097 66.2559 98.3118 66.0758C98.4168 65.8929 98.4691 65.6847 98.463 65.4741C98.4624 65.2619 98.4036 65.0539 98.293 64.8724C97.2332 63.1635 95.7556 61.7498 93.9982 60.7633C92.2408 59.7768 90.2609 59.2498 88.2434 59.2314C87.9898 59.2504 87.7472 59.3418 87.5444 59.4946C87.3564 59.657 87.2243 59.8741 87.1666 60.1151C87.0912 60.3538 87.0912 60.6098 87.1666 60.8485C87.2645 61.074 87.4293 61.2642 87.6389 61.3938C90.0188 62.7262 92.5574 63.7559 95.195 64.4587C96.4795 64.7972 97.8207 65.1545 99.143 65.4177C100.574 65.6399 102.027 65.6841 103.469 65.5494C103.746 65.5305 104.013 65.4398 104.243 65.2861C104.476 65.1452 104.665 64.9436 104.791 64.7032C104.92 64.4599 104.985 64.1883 104.98 63.9135C104.983 63.6397 104.905 63.3712 104.753 63.1425C102.729 59.7597 99.7179 57.0706 96.1206 55.4331C95.7942 55.2675 95.42 55.221 95.0627 55.3015C94.7112 55.395 94.3997 55.5995 94.1749 55.8844C93.9621 56.1785 93.8616 56.5385 93.8915 56.8997C93.9086 57.2628 94.064 57.6057 94.326 57.8587C95.8655 59.3978 97.6534 60.669 99.6153 61.6194C100.592 62.1416 101.601 62.6001 102.638 62.9921C103.668 63.3305 104.732 63.5574 105.811 63.669C106.206 63.7802 106.629 63.7468 107.001 63.575C107.375 63.4139 107.686 63.1369 107.889 62.7852C108.076 62.4269 108.143 62.0181 108.078 61.6194C108.02 61.2223 107.827 60.8572 107.53 60.5852C103.907 56.7993 99.7826 53.5224 95.2705 50.845C93.0242 49.5467 90.6812 48.4215 88.2623 47.4792C85.8649 46.4577 83.309 45.8534 80.7062 45.6929C79.9506 45.6929 79.7806 46.727 80.3662 47.0843L80.6684 47.3288Z" fill="#0B2538"/>
<path d="M15.4218 27.4346C24.5646 31.0073 34.5953 30.744 44.2293 30.2175C54.7134 29.6534 65.1974 29.2586 75.7003 29.2586C78.6094 29.2586 81.5185 29.2586 84.4276 29.2586C87.3072 29.456 90.2002 29.2086 93.0038 28.5252C93.3945 28.4018 93.7569 28.2029 94.0704 27.94C94.3839 27.6771 94.6423 27.3553 94.8309 26.993C95.0195 26.6307 95.1345 26.235 95.1694 25.8284C95.2043 25.4218 95.1585 25.0124 95.0344 24.6235C94.9104 24.2346 94.7106 23.8738 94.4465 23.5617C94.1824 23.2497 93.8591 22.9924 93.4952 22.8047C93.1312 22.617 92.7336 22.5025 92.3252 22.4678C91.9168 22.433 91.5054 22.4787 91.1147 22.6021C88.2232 23.2569 85.2461 23.4536 82.293 23.185C78.9683 23.185 75.6437 23.185 72.319 23.185C65.7641 23.185 59.2092 23.3919 52.6732 23.6927C40.7535 24.2192 28.2293 25.9867 16.7819 21.5491C16.3862 21.4477 15.9742 21.4251 15.5697 21.4828C15.1652 21.5405 14.7762 21.6773 14.425 21.8853C14.0739 22.0933 13.7675 22.3684 13.5236 22.6947C13.2797 23.021 13.103 23.3922 13.0038 23.7867C12.8134 24.5815 12.9416 25.4189 13.3613 26.1211C13.781 26.8232 14.4592 27.3349 15.2518 27.5474L15.4218 27.4346Z" fill="#72CE52"/>
<path d="M88.13 25.0843C82.9666 32.2171 78.0678 39.5129 73.4334 46.9716C73.2362 47.3272 73.1113 47.718 73.0658 48.1216C73.0203 48.5252 73.0551 48.9338 73.1682 49.3241C73.2814 49.7143 73.4706 50.0786 73.7252 50.396C73.9797 50.7134 74.2946 50.9779 74.6518 51.1742C75.009 51.3705 75.4016 51.4949 75.8071 51.5402C76.2126 51.5854 76.6231 51.5508 77.0151 51.4382C77.4072 51.3255 77.7731 51.1372 78.092 50.8838C78.4109 50.6304 78.6766 50.3169 78.8738 49.9614C83.5208 42.44 88.4133 35.1442 93.5515 28.0741C93.9458 27.3546 94.0401 26.5096 93.8139 25.7216C93.5877 24.9335 93.0592 24.2656 92.3425 23.8621C91.6164 23.4913 90.7753 23.4114 89.9918 23.6387C89.2084 23.866 88.5422 24.3833 88.13 25.0843Z" fill="#72CE52"/>
<path d="M16.3848 30.0865C16.5359 30.0865 16.7626 30.331 16.4981 30.0865C16.6988 30.2424 16.8824 30.4189 17.0459 30.613C17.3859 30.9703 16.8381 30.2934 17.0459 30.707L17.3859 31.2147C17.8582 31.9669 18.2549 32.7754 18.6705 33.5652C19.8051 35.4866 21.1072 37.305 22.5618 38.9994C25.2054 42.3969 27.3255 46.1677 28.8523 50.1875C29.1046 50.9425 29.6338 51.5749 30.3342 51.9584C31.0346 52.3418 31.8546 52.4481 32.6303 52.2558C33.3941 52.0124 34.0352 51.4869 34.4217 50.7874C34.8081 50.0879 34.9107 49.2676 34.7082 48.4951C32.9749 43.8324 30.5419 39.458 27.4922 35.5207C26.0036 33.7703 24.6878 31.8812 23.563 29.8797C22.6718 27.8078 21.2035 26.0331 19.3316 24.7651C18.9744 24.5688 18.5818 24.4445 18.1763 24.3992C17.7708 24.3539 17.3604 24.3885 16.9683 24.5012C16.5763 24.6138 16.2103 24.8022 15.8914 25.0556C15.5725 25.3089 15.3069 25.6224 15.1097 25.978C14.9125 26.3335 14.7875 26.7243 14.742 27.1279C14.6965 27.5316 14.7313 27.9402 14.8445 28.3304C14.9576 28.7207 15.1469 29.0849 15.4014 29.4024C15.656 29.7198 15.9709 29.9842 16.3281 30.1805L16.3848 30.0865Z" fill="#72CE52"/>
<path d="M86.7133 26.3632L56.7157 26.7769C51.7476 26.7769 46.7795 26.8896 41.8114 26.9273C36.7968 26.8387 31.7856 27.2418 26.8504 28.1307C26.0613 28.38 25.4041 28.9312 25.0232 29.6629C24.6424 30.3946 24.5692 31.247 24.8197 32.0324C25.0702 32.8179 25.6239 33.4721 26.359 33.8512C27.094 34.2303 27.9503 34.3031 28.7394 34.0538C33.3376 33.2831 38.0004 32.9619 42.6614 33.0948C47.6359 33.0948 52.604 33.0447 57.5658 32.9444L86.9589 32.5495C90.9636 32.5495 90.737 26.3068 86.8078 26.3632H86.7133Z" fill="#72CE52"/>
<path d="M22.6758 33.1134C26.1843 36.1351 30.3382 38.3214 34.8222 39.5066C39.7543 40.607 44.87 40.607 49.8021 39.5066C54.9024 38.6041 59.965 37.7579 65.1409 37.3442C70.3168 36.9306 75.8139 36.7425 81.1409 36.5921C81.9239 36.5152 82.6487 36.1465 83.1699 35.5598C83.6911 34.9731 83.9701 34.212 83.951 33.4291C83.9319 32.6461 83.616 31.8994 83.0668 31.3386C82.5175 30.7779 81.7756 30.4446 80.9898 30.4057C70.9364 30.4925 60.9057 31.3727 50.9922 33.0382C46.6754 34.143 42.1824 34.3922 37.7691 33.7716C33.7601 33.017 30.0133 31.2493 26.8883 28.6382C23.8659 26.0621 19.5778 30.5186 22.6191 33.1134H22.6758Z" fill="#72CE52"/>
<path d="M82.5763 30.9699C69.5043 31.2457 56.4448 31.0451 43.398 30.3682C42.5763 30.3927 41.7971 30.7376 41.2282 31.3285C40.6594 31.9193 40.3464 32.7089 40.3567 33.5272C40.4003 34.3403 40.7557 35.1057 41.3498 35.6656C41.9438 36.2254 42.7311 36.5369 43.5491 36.5357C56.5834 37.2377 69.6428 37.4383 82.7274 37.1374C83.549 37.1175 84.329 36.7734 84.8959 36.181C85.4627 35.5886 85.7698 34.7963 85.7498 33.9784C85.7298 33.1606 85.3841 32.3841 84.789 31.8199C84.1938 31.2557 83.3979 30.9499 82.5763 30.9699Z" fill="#72CE52"/>
<path d="M37.3153 36.8181H39.6955C40.5091 36.7578 41.2767 36.4189 41.8678 35.8591C42.1461 35.5722 42.3531 35.2245 42.4723 34.8438C42.6582 34.4708 42.7428 34.0559 42.7179 33.6403L42.5856 32.8318C42.437 32.3138 42.1497 31.8459 41.7545 31.4779L41.1122 31.0079C40.6328 30.7452 40.0913 30.6153 39.5443 30.6318H37.1642C36.3505 30.6921 35.5829 31.031 34.9918 31.5908C34.7062 31.872 34.498 32.2217 34.3873 32.6061C34.2039 32.9732 34.1192 33.3814 34.1417 33.7908L34.274 34.6181C34.4306 35.1271 34.717 35.587 35.1051 35.9532L35.7474 36.4232C36.2285 36.6835 36.7677 36.8193 37.3153 36.8181Z" fill="#72CE52"/>
<path d="M40.1109 36.8177C44.0968 36.8177 43.889 30.6313 39.9598 30.6313C36.0306 30.6313 36.1818 36.8177 40.1109 36.8177Z" fill="#72CE52"/>
<path d="M31.195 42.7411C47.3083 42.4402 63.3083 40.4094 79.4972 40.9736C83.5019 41.124 83.2752 34.9376 79.3461 34.806C63.2139 34.2419 47.2328 36.2727 31.0439 36.5547C30.2609 36.6316 29.5361 37.0004 29.0149 37.587C28.4937 38.1737 28.2147 38.9348 28.2338 39.7178C28.253 40.5007 28.5688 41.2474 29.118 41.8082C29.6673 42.3689 30.4092 42.7022 31.195 42.7411Z" fill="#72CE52"/>
<path d="M75.8514 39.6195L52.3709 39.1682C44.8148 39.0178 37.0509 38.3784 29.7026 40.4844C29.3119 40.6079 28.9495 40.8068 28.636 41.0697C28.3225 41.3326 28.0641 41.6544 27.8755 42.0167C27.6869 42.379 27.5719 42.7747 27.537 43.1813C27.5021 43.5878 27.5479 43.9972 27.672 44.3862C27.796 44.7751 27.9958 45.1359 28.2599 45.4479C28.524 45.76 28.8473 46.0172 29.2112 46.2049C29.5752 46.3926 29.9728 46.5071 30.3812 46.5419C30.7896 46.5767 31.201 46.531 31.5917 46.4075C38.5244 44.3955 46.0993 45.2041 53.2209 45.3545L76.078 45.8058C80.0828 45.8058 79.8561 39.7135 75.9269 39.6195H75.8514Z" fill="#72CE52"/>
<path d="M34.066 50.8263C48.1627 49.3473 62.3468 48.8635 76.5122 49.3784C80.498 49.5289 80.2902 43.3613 76.3611 43.2109C62.1962 42.6897 48.012 43.1672 33.9148 44.64C33.098 44.6741 32.3264 45.0225 31.7626 45.6118C31.1988 46.201 30.8868 46.9852 30.8924 47.799C30.9171 48.6169 31.2635 49.3926 31.8571 49.9588C32.4507 50.525 33.2439 50.8366 34.066 50.8263Z" fill="#72CE52"/>
<path d="M74.7742 47.179C62.1808 46.9158 49.5873 46.5146 36.9939 45.9756C36.2109 46.0524 35.4861 46.4212 34.9649 47.0079C34.4437 47.5945 34.1647 48.3557 34.1838 49.1386C34.2029 49.9215 34.5188 50.6683 35.068 51.229C35.6172 51.7898 36.3592 52.1231 37.145 52.162C49.7384 52.6884 62.3319 53.0896 74.9254 53.3654C78.9301 53.3654 78.7034 47.273 74.7742 47.179Z" fill="#72CE52"/>
<path d="M59.2469 62.1458C65.594 62.7287 71.9411 63.3116 78.3071 63.4245C84.3725 63.2507 90.4404 63.6727 96.4227 64.6843C100.314 65.5493 101.825 59.5509 97.9151 58.686C91.5945 57.5709 85.1773 57.0921 78.7604 57.2569C72.1866 57.1629 65.6317 56.58 59.0957 55.9595C58.274 55.9889 57.4967 56.3385 56.9314 56.9329C56.3661 57.5273 56.0579 58.3189 56.0733 59.1373C56.1122 59.9487 56.4636 60.7141 57.0546 61.2744C57.6456 61.8347 58.4307 62.1468 59.2469 62.1458Z" fill="#72CE52"/>
<path d="M57.7544 57.0311C67.0521 57.1025 76.323 58.0342 85.4474 59.814C85.8431 59.9128 86.2545 59.933 86.658 59.8735C87.0615 59.8141 87.4493 59.6761 87.7993 59.4674C88.1492 59.2587 88.4544 58.9835 88.6975 58.6575C88.9406 58.3314 89.1168 57.9609 89.216 57.567C89.3153 57.1731 89.3356 56.7637 89.2759 56.362C89.2161 55.9603 89.0775 55.5743 88.8679 55.226C88.6582 54.8776 88.3817 54.5738 88.0542 54.3318C87.7266 54.0898 87.3543 53.9145 86.9587 53.8157C77.279 51.934 67.4465 50.9395 57.5844 50.8447C53.5797 50.8447 53.8064 56.9935 57.7356 57.0311H57.7544Z" fill="#72CE52"/>
<path d="M77.4569 55.3204C81.8016 56.5739 86.1275 57.9341 90.4344 59.4007C91.2334 59.6004 92.0793 59.4771 92.7873 59.0579C93.4952 58.6386 94.0076 57.9573 94.2125 57.1631C94.3924 56.3664 94.2573 55.5313 93.8353 54.8311C93.4132 54.1309 92.7365 53.6193 91.9456 53.4024C87.6387 51.9733 83.3128 50.6132 78.9681 49.3221C78.169 49.1251 77.324 49.2521 76.619 49.6753C75.9141 50.0985 75.4068 50.783 75.2089 51.5785C75.0111 52.3739 75.1387 53.215 75.5638 53.9167C75.9889 54.6185 76.6767 55.1234 77.4758 55.3204H77.4569Z" fill="#72CE52"/>
<path d="M80.0636 53.5911C80.4036 53.7039 81.4615 54.2868 81.9526 54.6065L84.4461 55.9979L89.2253 58.6116C92.4178 60.492 95.6102 62.3723 98.6704 64.2527C99.3894 64.6491 100.237 64.7451 101.027 64.5194C101.817 64.2937 102.485 63.7649 102.883 63.0492C103.281 62.3336 103.378 61.4898 103.151 60.7034C102.924 59.9171 102.393 59.2525 101.674 58.8561C98.3997 56.9005 95.1128 54.9826 91.8133 53.1022C88.5849 50.9996 85.1927 49.1572 81.6693 47.5928C80.868 47.3988 80.0222 47.5269 79.3151 47.9492C78.6079 48.3715 78.0964 49.0541 77.8912 49.8492C77.7113 50.6459 77.8464 51.481 78.2684 52.1812C78.6905 52.8814 79.3672 53.393 80.158 53.6099L80.0636 53.5911Z" fill="#72CE52"/>
<path d="M29.4006 47.9307L27.6628 48.0623L29.9862 53.2709L30.6474 52.7255C31.1174 52.2326 31.4106 51.5989 31.4815 50.9229C31.5523 50.247 31.3969 49.5667 31.0393 48.9877C30.6817 48.4088 30.142 47.9636 29.5041 47.7215C28.8661 47.4793 28.1657 47.4537 27.5116 47.6486C22.7862 49.0747 18.256 51.0768 14.024 53.6093C12.0995 54.9551 10.2458 56.3986 8.47032 57.9341L7.14801 59.0811C7.14801 59.0811 6.54352 59.5512 6.7891 59.382C7.03467 59.2128 6.65686 59.382 6.60019 59.476C5.83949 59.9572 5.19455 60.5992 4.71117 61.3564C4.51383 61.7107 4.38856 62.1002 4.34252 62.5027C4.29648 62.9053 4.33057 63.3129 4.44284 63.7023C4.55511 64.0917 4.74337 64.4553 4.99686 64.7722C5.25034 65.0892 5.56408 65.3533 5.92015 65.5495C6.64211 65.9314 7.48479 66.0193 8.27061 65.7948C9.05643 65.5703 9.72401 65.0509 10.1327 64.3461C10.0181 64.4833 9.88455 64.6036 9.73596 64.7034C9.93807 64.617 10.1235 64.496 10.2838 64.3461C11.2094 63.6692 12.0595 62.8606 12.9284 62.1085C14.4251 60.859 15.989 59.6914 17.6132 58.611C21.294 56.4569 25.2193 54.7463 29.3062 53.5153L26.1515 48.4383L25.4904 48.9837C25.0769 49.4288 24.8036 49.9848 24.704 50.5828C24.6045 51.1809 24.6832 51.7949 24.9304 52.349C25.1775 52.903 25.5823 53.3729 26.0948 53.7005C26.6072 54.028 27.2049 54.199 27.8139 54.1922L29.5518 54.0794C29.98 54.1006 30.4079 54.0336 30.809 53.8827C31.21 53.7317 31.5754 53.5001 31.8824 53.2021C32.1893 52.9042 32.4313 52.5465 32.593 52.1513C32.7548 51.7561 32.8329 51.3319 32.8225 50.9052C32.8121 50.4786 32.7133 50.0587 32.5325 49.6718C32.3516 49.2849 32.0925 48.9392 31.7713 48.6565C31.4502 48.3738 31.0739 48.1601 30.666 48.0287C30.258 47.8974 29.8273 47.8512 29.4006 47.8931V47.9307Z" fill="#72CE52"/>
<path d="M12.6257 65.0611C19.8999 65.361 27.1855 65.2292 34.4439 64.6662C37.9701 64.3904 41.4899 64.0018 45.0035 63.5004C48.5171 63.0115 52.3518 62.7858 55.4876 60.9995C58.9634 59.0252 55.7142 53.779 52.2384 55.7345C49.7638 57.126 46.0991 57.1636 43.3412 57.6149C39.9221 58.0474 36.5029 58.4046 33.0838 58.6491C26.2197 59.1503 19.3322 59.2571 12.4557 58.9687C11.6341 58.9887 10.8541 59.3327 10.2872 59.9251C9.72043 60.5175 9.41326 61.3098 9.4333 62.1277C9.45334 62.9456 9.79896 63.722 10.3941 64.2863C10.9893 64.8505 11.7852 65.1562 12.6068 65.1363L12.6257 65.0611Z" fill="#72CE52"/>
<path d="M50.8786 52.8197V53.1205L51.6342 51.7479C51.7664 51.5787 50.8408 52.0111 50.5953 52.0863C49.8019 52.3308 49.0085 52.5376 48.1962 52.7069C46.8415 52.9553 45.4724 53.1186 44.097 53.1957C40.9235 53.3838 37.731 53.1957 34.5386 53.1957C28.0193 53.0459 21.5136 53.857 15.2328 55.6026C11.4548 56.6932 13.1738 62.5975 17.1219 61.5069C23.9036 59.777 30.9095 59.0797 37.9011 59.4385C41.2451 59.5702 44.5944 59.4192 47.9128 58.9872C50.9919 58.5171 56.1868 57.9154 57.0746 54.3052C57.2725 53.5097 57.1448 52.6686 56.7197 51.9669C56.2946 51.2652 55.6069 50.7603 54.8078 50.5633C54.0087 50.3663 53.1637 50.4933 52.4587 50.9165C51.7537 51.3397 51.2465 52.0243 51.0486 52.8197H50.8786Z" fill="#72CE52"/>
<path d="M33.8962 56.7311H47.2326C48.0527 56.7065 48.8299 56.361 49.3958 55.7696C49.9616 55.1782 50.2703 54.3887 50.2551 53.5721C50.2208 52.7591 49.8708 51.991 49.2788 51.4297C48.6868 50.8685 47.899 50.558 47.0815 50.5636H33.745C33.3382 50.5734 32.9373 50.663 32.5652 50.8271C32.1932 50.9912 31.8572 51.2266 31.5766 51.5199C31.2959 51.8133 31.076 52.1588 30.9295 52.5367C30.783 52.9146 30.7127 53.3176 30.7226 53.7225C30.7325 54.1275 30.8225 54.5265 30.9873 54.8969C31.1522 55.2673 31.3887 55.6017 31.6834 55.8811C31.9781 56.1604 32.3252 56.3793 32.7049 56.5251C33.0845 56.671 33.4893 56.741 33.8962 56.7311Z" fill="#72CE52"/>
<path d="M55.6201 25.1029C58.9312 25.4697 62.2657 25.5829 65.5941 25.4414C68.9755 25.4414 72.3379 25.3285 75.7193 25.2157C82.4253 25.0089 89.1313 24.9148 95.8184 24.7832C99.332 24.7832 99.162 19.1422 95.6862 19.3866C89.0935 19.8943 82.4631 20.4584 75.9082 20.8909C72.6402 21.0978 69.3722 21.3046 66.1042 21.4362C62.8362 21.5678 59.3415 21.4362 55.9979 21.7371C54.1089 21.9063 53.5989 24.7832 55.6201 25.1029Z" fill="#0B2538"/>
<path d="M53.9954 64.1202C55.8018 65.1801 57.8682 65.7203 59.9647 65.6809C62.137 65.9065 64.3283 66.0758 66.5007 66.3202C71.0154 66.8091 75.5302 67.2228 80.0638 67.4484C89.1802 68.0988 98.3429 67.344 107.228 65.2108C110.213 64.4023 108.834 59.9082 105.849 60.6416C97.4629 62.5938 88.8629 63.4846 80.2527 63.2929C76.0213 63.2929 71.771 63.0296 67.5396 62.7476C65.4995 62.5971 63.4782 62.4091 61.4381 62.1835C60.3614 62.0706 59.2846 61.9578 58.2079 61.7698C57.192 61.4898 56.1449 61.3382 55.091 61.3185C53.8065 61.4125 52.8053 63.1988 53.9954 64.1202Z" fill="#0B2538"/>
<path d="M55.4686 21.7372C51.8795 21.4363 48.2337 21.5867 44.6257 21.4551C41.0177 21.3235 37.2018 21.0979 33.4994 20.891C26.34 20.4585 19.1995 19.8944 12.0401 19.3867C8.6021 19.1423 8.65877 24.7081 12.1723 24.7833C19.3128 24.9149 26.4533 24.9902 33.5938 25.197C37.2018 25.3098 40.8099 25.4038 44.4179 25.4415C48.1291 25.6049 51.8473 25.5043 55.5442 25.1406C55.9666 25.0963 56.3576 24.898 56.6418 24.5837C56.926 24.2695 57.0832 23.8617 57.0832 23.4389C57.0832 23.0161 56.926 22.6082 56.6418 22.294C56.3576 21.9798 55.9666 21.7814 55.5442 21.7372H55.4686Z" fill="#0B2538"/>
<path d="M55.0912 61.3189C54.0677 61.3307 53.0507 61.4825 52.0688 61.7701C51.0487 61.9394 50.0098 62.0522 48.9708 62.1462C46.9684 62.3531 44.985 62.5599 42.9826 62.6915C38.449 63.0112 33.8964 63.2368 29.3628 63.2932C20.4387 63.4817 11.5251 62.5786 2.82208 60.6043C2.22266 60.4974 1.60485 60.6215 1.09389 60.9512C0.582936 61.281 0.217089 61.7919 0.0705259 62.3802C-0.0760372 62.9685 0.00765213 63.5904 0.304628 64.1196C0.601605 64.6488 1.08964 65.0457 1.66978 65.23C10.7673 67.3577 20.1354 68.1057 29.4572 67.4488C34.1042 67.2419 38.7323 66.8283 43.3415 66.3394L49.802 65.7189C51.691 65.5496 54.4678 65.5496 55.998 64.3274C56.2839 64.1277 56.4993 63.8434 56.6138 63.5149C56.7282 63.1864 56.7358 62.8304 56.6354 62.4974C56.535 62.1644 56.3318 61.8713 56.0546 61.6597C55.7774 61.4482 55.4404 61.3289 55.0912 61.3189Z" fill="#0B2538"/>
<path d="M56.3757 0.320354C56.1716 0.779644 55.995 1.25055 55.8467 1.73062C55.7334 2.21951 55.6578 2.70841 55.5634 3.17849C55.3745 4.15627 55.2045 5.05884 55.0722 6.11183C54.7889 8.12381 54.5811 10.1358 54.4866 12.1477C54.3922 14.1597 54.4866 16.1905 54.4866 18.2025C54.4866 19.2179 54.4866 20.2333 54.4866 21.2486C54.4866 21.6999 54.4866 22.17 54.4866 22.6213C54.4866 23.0726 54.4866 23.129 54.4866 23.3734C54.4866 23.6179 54.6944 23.9563 54.8078 24.2572C54.9398 25.1723 54.9777 26.0985 54.9211 27.0213C54.9211 28.0555 54.9211 29.0709 54.9211 30.0863L55.0345 36.1974V39.0931C55.0345 40.1837 55.3367 41.2179 55.3556 42.3086C55.3556 44.3393 55.3556 46.3701 55.1667 48.3821C55.1667 49.4915 55.1667 50.6197 55.0534 51.7103C54.94 52.8009 54.8267 53.9291 54.7133 55.0385C54.608 56.1059 54.444 57.1667 54.2222 58.2163C54.1088 58.7992 54.0333 59.4009 53.9577 59.9838C53.9577 60.1343 53.9577 60.3975 53.9577 60.1719C53.7346 60.5662 53.482 60.9433 53.2021 61.3001C53.0135 61.6463 52.916 62.0344 52.9188 62.4283C52.919 62.8195 53.0095 63.2055 53.1832 63.5565C53.3694 63.9073 53.6425 64.205 53.9766 64.4214C54.301 64.6459 54.6787 64.782 55.0722 64.8163C55.4629 64.8713 55.8613 64.8193 56.2245 64.6659C56.5967 64.5135 56.9269 64.275 57.1879 63.9702C57.4369 63.6652 57.6056 63.3033 57.6791 62.9172C57.7826 62.5354 57.7826 62.1331 57.6791 61.7514C57.5658 61.4129 57.4524 61.0556 57.3013 60.7172C57.1502 60.3787 57.3013 60.3599 57.3013 60.7172C57.2537 60.2231 57.2537 59.7257 57.3013 59.2317C57.3013 58.2351 57.3013 57.2385 57.3013 56.2419C57.3013 54.23 57.3013 52.2368 57.3013 50.2248C57.3013 48.2128 57.3013 46.1821 57.1879 44.1701C57.1127 43.1561 57.1127 42.1379 57.1879 41.1239C57.2632 40.1099 57.2632 39.0918 57.1879 38.0778C56.999 33.9974 56.7535 29.9358 56.659 25.8743C56.6024 25.3682 56.6024 24.8573 56.659 24.3512C56.7724 23.9939 56.8857 23.6367 56.9613 23.2794C56.9613 22.2076 56.9613 21.1358 57.0746 20.064V13.9905C57.0746 11.7905 57.0746 9.57167 57.0746 7.37166V2.2007C57.0554 1.60855 56.9987 1.01819 56.9046 0.433171C56.8952 0.335822 56.8556 0.243801 56.7913 0.169923C56.7234 0.0937633 56.6287 0.0466246 56.5268 0.0383135C56.482 0.0191725 56.4338 0.00927734 56.3851 0.00927734C56.3364 0.00927734 56.2882 0.0191725 56.2434 0.0383135C56.156 0.0892886 56.0891 0.1691 56.0545 0.263946L56.3757 0.320354Z" fill="#0B2538"/>
<path d="M29.5514 49.4724C23.941 38.8395 17.5117 28.6552 10.3212 19.0107H6.10864C8.94217 22.4894 11.7757 25.968 14.5903 29.5219C18.6634 34.7192 22.2905 40.2481 25.4333 46.0502C26.2078 47.4604 26.8878 48.9083 27.549 50.3562C27.5912 50.506 27.6617 50.6464 27.7568 50.7698C27.866 50.8842 27.9937 50.9796 28.1346 51.0519C28.2782 51.112 28.4322 51.1439 28.588 51.1459C28.7435 51.1418 28.8971 51.1099 29.0413 51.0519C29.1765 50.9793 29.298 50.8839 29.4002 50.7698C29.5071 50.6587 29.585 50.5231 29.6269 50.375C29.6646 50.2205 29.6646 50.0593 29.6269 49.9049C29.629 49.7573 29.6034 49.6106 29.5514 49.4724Z" fill="#0B2538"/>
<path d="M91.379 28.7321C87.7065 34.0796 84.3082 39.6086 81.1971 45.298C80.4604 46.7083 79.6859 48.1185 78.9681 49.5476C78.2503 50.9767 80.2904 51.8416 80.8571 50.5818C86.1086 38.9236 94.2503 28.845 102.373 19.0107H98.1794C95.837 22.2073 93.5324 25.4227 91.379 28.7321Z" fill="#0B2538"/>
</svg>
