<svg width="245" height="116" viewBox="0 0 261 116" fill="none" xmlns="http://www.w3.org/2000/svg">
<path d="M71.7284 14.4376H69.9811H69.7912C69.4504 14.3997 69.1064 14.3997 68.7656 14.4376L67.721 14.6278L66.7145 14.799C66.3536 14.799 67.3602 14.6848 66.5625 14.799H66.1637L65.5939 14.9321L63.2389 15.4647C59.795 16.2382 56.3637 17.0751 52.9451 17.9754C45.3426 19.9343 37.8438 22.2768 30.4774 24.994C27.1917 26.2113 23.9251 27.4857 20.7154 28.9313C17.9751 30.0768 15.3327 31.4445 12.8146 33.0207C8.65454 35.4625 5.10233 38.8184 2.4259 42.8353C1.20471 44.9382 0.441406 47.276 0.186098 49.6952C-0.0692102 52.1145 0.18925 54.5604 0.944514 56.8725C2.49876 61.4277 5.39186 65.4059 9.2441 68.2849C13.3777 71.239 17.9206 73.5716 22.7286 75.2084C23.8681 75.6458 25.0076 76.0453 26.1661 76.4067L25.4824 74.0481C22.4641 76.4654 19.9313 79.4344 18.0185 82.7976C16.1238 86.1773 14.9227 89.9022 14.4859 93.7534C14.4922 93.9392 14.5469 94.1201 14.6445 94.2781C14.7422 94.4362 14.8795 94.5659 15.0427 94.6543C15.2059 94.7428 15.3894 94.7869 15.5749 94.7824C15.7605 94.7778 15.9416 94.7248 16.1003 94.6284C21.0915 91.5108 25.3902 87.3998 28.7301 82.5503C29.3758 81.6183 28.1033 80.6482 27.2297 81.1238C24.629 82.6954 22.45 84.8782 20.8814 87.4833C19.3128 90.0883 18.4018 93.0369 18.2274 96.074C18.2389 96.2574 18.2969 96.4349 18.3957 96.5898C18.4946 96.7446 18.6312 96.8718 18.7926 96.9593C18.954 97.0468 19.135 97.0917 19.3185 97.0899C19.502 97.0881 19.6821 97.0396 19.8417 96.9489C24.6378 94.6766 28.8777 91.3782 32.2626 87.2864C32.4304 87.0811 32.53 86.8284 32.5475 86.5637C32.5465 86.2932 32.4526 86.0313 32.2816 85.8219C32.1157 85.6124 31.8795 85.4705 31.6169 85.4224C31.3559 85.3786 31.0878 85.4256 30.8572 85.5556C28.5402 86.6588 25.9572 88.0092 25.0646 90.596C24.6904 91.6221 24.6745 92.7449 25.0194 93.7812C25.3643 94.8175 26.0497 95.7062 26.9638 96.3022C29.5088 97.6717 32.0727 95.6555 33.5921 93.7344C35.2367 91.6319 36.6981 89.3919 37.9603 87.0392C43.1079 77.5281 45.2722 66.6835 44.1707 55.9215C43.8477 52.8951 43.2566 49.9034 42.4045 46.9818C41.9676 45.5362 41.4738 44.0907 40.9041 42.6832C40.6172 41.8987 40.2744 41.136 39.8785 40.4007C39.4797 39.773 38.9479 39.1263 38.606 38.4986C38.4286 38.2009 38.166 37.9633 37.8522 37.8168C37.5384 37.6703 37.1879 37.6216 36.8461 37.6769C36.5043 37.7323 36.187 37.8891 35.9353 38.1272C35.6835 38.3653 35.509 38.6736 35.4343 39.0122C35.3233 39.4577 35.3915 39.929 35.6243 40.3246C35.799 40.7518 35.9449 41.1903 36.0611 41.637C36.251 42.2267 36.4789 42.7783 36.6878 43.3489C37.1626 44.4521 37.5804 45.5553 37.9793 46.6965C38.7276 48.9491 39.324 51.2494 39.7645 53.582C40.5994 58.1342 40.8674 62.7726 40.5622 67.3909C40.2338 72.0318 39.2557 76.6034 37.6564 80.9716C36.8583 83.1664 35.8932 85.2966 34.7696 87.3435C33.7245 89.4623 32.4024 91.4324 30.8382 93.2019C30.1545 93.9056 29.034 94.8186 27.9894 94.3051C27.6414 94.0702 27.3601 93.7491 27.1727 93.373C26.9979 92.9995 26.932 92.5841 26.9828 92.1748C26.9828 89.607 30.0595 88.3706 32.0537 87.4006L30.6483 85.6887C27.3986 89.647 23.3629 92.8856 18.7972 95.199L20.4115 96.074C20.5433 93.3822 21.3464 90.7665 22.7475 88.4657C24.1527 86.1759 26.1125 84.2786 28.4452 82.9498L26.9448 81.5232C23.8032 86.0953 19.7643 89.9784 15.0747 92.9356L16.67 93.8105C16.998 90.2788 18.1287 86.8691 19.9754 83.8426C21.8222 80.8161 24.3361 78.253 27.3247 76.3496C27.5313 76.2164 27.7012 76.0333 27.8185 75.817C27.9481 75.5993 28.0077 75.347 27.9894 75.0942C27.9876 74.8505 27.915 74.6126 27.7805 74.4095C27.6657 74.1901 27.4868 74.0109 27.2677 73.8959C25.1596 72.8498 22.9944 71.8988 20.8863 70.8527C18.7543 69.7852 16.7095 68.5514 14.7708 67.1627C12.9557 65.9078 11.2923 64.4461 9.81387 62.8069C9.52898 62.4836 9.26309 62.1412 8.9972 61.7988C8.73131 61.4565 8.37046 60.9049 8.08558 60.4484C7.78407 59.9969 7.51131 59.5268 7.26891 59.0409L6.90806 58.3751L6.75612 58.0328V57.8045C6.32955 56.8798 5.96782 55.9265 5.67357 54.9514C5.59872 54.7151 5.54158 54.4735 5.50264 54.2287C5.50264 54.0955 5.38869 53.5059 5.50264 53.9433C5.50264 53.3727 5.38869 52.8021 5.36969 52.2315V50.7479C5.36969 50.6147 5.36969 50.5006 5.36969 50.3865C5.36969 50.2724 5.46465 49.8159 5.52163 49.5496C5.63324 49.0249 5.78564 48.5098 5.97744 48.0089L6.0914 47.6475C6.0914 47.6475 5.95845 47.9709 6.0914 47.6475C6.22434 47.3242 6.3193 47.115 6.45225 46.8677C6.58519 46.6204 6.96504 45.9167 7.24992 45.4602L7.64876 44.8325C7.80069 44.6042 7.64876 44.8325 7.64876 44.8325L8.04759 44.3379C8.72868 43.4975 9.47144 42.7091 10.2697 41.9794C10.6248 41.6174 10.9988 41.2746 11.3902 40.9523L11.7321 40.667L12.4348 40.1154C13.3274 39.4306 14.2201 38.8029 15.1317 38.2133C17.4076 36.7578 19.7955 35.4857 22.2727 34.4092C22.4179 34.3127 22.5785 34.2419 22.7475 34.2H22.5196L22.7665 34.0288L23.8491 33.5533L26.1092 32.6213C27.7615 31.9555 29.3948 31.3088 31.0661 30.7192C34.5987 29.4068 38.1502 28.1134 41.7018 26.9151C45.2533 25.7168 48.9188 24.5946 52.5273 23.3963C56.1358 22.198 59.2315 21.2089 62.5932 20.1247L66.9614 18.7362L67.5121 18.5841C67.5121 18.5841 68.1959 18.2988 67.873 18.4129C67.5501 18.527 67.873 18.4129 67.873 18.4129L68.8986 18.0325L69.7342 17.7472C70.041 17.6191 70.3337 17.4597 70.6079 17.2716C70.304 17.4428 70.7598 17.2716 70.8548 17.2716L72.3172 16.5108C73.2668 16.0163 72.716 14.6088 71.7284 14.6088V14.4376Z" fill="#1B2121"/>
<path d="M41.7587 33.1156C42.9305 35.2301 43.4338 37.651 43.2021 40.0581C43.2083 40.1455 43.2316 40.2308 43.2707 40.3091C43.3098 40.3874 43.3639 40.4573 43.43 40.5146C43.4914 40.578 43.5654 40.6276 43.6472 40.6604C43.729 40.6932 43.8168 40.7083 43.9049 40.7048C44.079 40.6851 44.2405 40.6042 44.3607 40.4766C44.4749 40.3526 44.5363 40.1887 44.5316 40.0201C44.7457 37.3862 44.0774 34.756 42.6324 32.545C42.5809 32.4536 42.5028 32.3802 42.4085 32.3347C42.3141 32.2891 42.2081 32.2736 42.1047 32.2901C42.0013 32.3067 41.9054 32.3546 41.83 32.4274C41.7546 32.5001 41.7032 32.5943 41.6828 32.6971C41.6347 32.8259 41.6347 32.9678 41.6828 33.0966L41.7587 33.1156Z" fill="#1B2121"/>
<path d="M170.45 13.639C175.554 22.7058 183.165 30.1032 192.367 34.942C201.54 39.4499 212.802 40.6482 222.109 35.874C224.621 34.6611 226.84 32.915 228.611 30.757C230.382 28.5991 231.663 26.081 232.364 23.3775C232.43 23.1025 232.43 22.8156 232.364 22.5406C232.291 22.2672 232.147 22.0179 231.947 21.8178C228.646 18.9106 225.596 15.7292 222.83 12.3075L221.729 15.0084C225.748 14.676 229.744 15.8787 232.915 18.3751C233.141 18.5869 233.424 18.7291 233.728 18.7847C234.033 18.8404 234.347 18.807 234.633 18.6888C234.92 18.5705 235.166 18.3722 235.343 18.1176C235.52 17.863 235.62 17.5628 235.631 17.2529C235.548 11.9134 237.099 6.67633 240.075 2.24563L237.15 1.86521C238.426 6.31962 238.73 10.9965 238.043 15.5791C237.97 15.9169 238.003 16.269 238.138 16.5872C238.24 16.8258 238.397 17.0364 238.597 17.2013C238.797 17.3662 239.033 17.4805 239.286 17.5346C239.54 17.5887 239.802 17.5809 240.052 17.5121C240.302 17.4432 240.531 17.3151 240.721 17.1388L251.926 8.23712L249.248 6.67743L246.267 18.4892C245.944 19.7065 247.425 21.1521 248.603 20.2771L259.295 12.3836L256.959 10.4815C253.199 20.8137 248.613 30.8256 243.247 40.42C237.932 49.9796 230.312 58.0551 221.083 63.9104C214.83 67.7681 207.683 69.9312 200.344 70.1872C199.92 70.1872 199.515 70.3555 199.215 70.6552C198.916 70.9548 198.748 71.3612 198.748 71.7849C198.748 72.2087 198.916 72.6151 199.215 72.9147C199.515 73.2143 199.92 73.3827 200.344 73.3827C213.201 73.1544 225.242 66.6684 234.131 57.6907C242.183 49.5879 247.919 39.526 252.629 29.1598C255.307 23.2824 257.681 17.2909 260.036 11.2804C260.109 10.9752 260.091 10.6554 259.985 10.3601C259.88 10.0647 259.691 9.80651 259.441 9.61697C259.191 9.42743 258.892 9.31472 258.579 9.29262C258.267 9.27051 257.955 9.33995 257.681 9.49247L247.007 17.386L249.343 19.174C250.35 15.2557 251.243 11.3184 252.344 7.38118C252.427 7.04199 252.399 6.68491 252.262 6.36339C252.126 6.04186 251.89 5.7732 251.588 5.5976C251.287 5.422 250.936 5.34891 250.59 5.38927C250.244 5.42963 249.919 5.58127 249.666 5.8215L238.461 15.0084L241.12 16.5491C241.917 11.4083 241.613 6.15635 240.227 1.14243C240.134 0.848954 239.963 0.586108 239.733 0.381604C239.496 0.181466 239.206 0.0557702 238.898 0.0202226C238.587 -0.0309537 238.269 0.0155662 237.986 0.153366C237.708 0.291843 237.472 0.501929 237.302 0.762025C234.047 5.67245 232.352 11.4546 232.44 17.348L235.175 16.2258C231.405 13.1265 226.594 11.5886 221.729 11.9271C221.415 11.9308 221.11 12.0304 220.855 12.2124C220.597 12.3818 220.397 12.6278 220.285 12.9162C220.191 13.2131 220.191 13.5322 220.285 13.8292C220.339 14.1338 220.477 14.4171 220.684 14.647C223.445 18.0731 226.495 21.255 229.8 24.1573L229.383 22.6357C227.179 31.8987 217.304 35.9501 208.586 35.836C199.072 35.4352 190.053 31.4788 183.308 24.747C179.396 21.0425 176.027 16.8035 173.299 12.1554C173.102 11.777 172.764 11.4923 172.358 11.3639C171.952 11.2355 171.511 11.2739 171.134 11.4706C170.756 11.6674 170.471 12.0063 170.343 12.413C170.215 12.8196 170.253 13.2606 170.45 13.639Z" fill="#1B2121"/>
<path d="M124.736 52.7637C128.845 55.8672 133.852 57.5434 138.999 57.5378C145.266 57.2145 151.42 53.2392 156.927 50.5763C162.435 47.9134 158.827 40.0579 153.737 39.8677C150.248 39.8594 146.825 40.8136 143.842 42.6257C141.943 43.6718 137.707 46.4298 136.549 46.4298L136.796 56.1493C144.791 53.8669 153.528 52.2311 161.125 48.7693C164.117 47.1312 166.952 45.2211 169.595 43.0632C172.159 41.1611 175.293 40.1911 177.306 37.7754C178.269 36.732 178.789 35.3534 178.753 33.9327C178.718 32.512 178.13 31.1611 177.116 30.1672C174.666 27.9228 172.672 28.8357 169.975 29.9199C166.497 31.218 163.217 32.9979 160.232 35.2077C152.635 40.9138 142.683 43.2153 133.871 46.4488C129.598 48.0085 128.838 55.3505 134.118 56.1874C137.642 56.897 141.301 56.464 144.563 54.951C147.621 53.5815 150.565 51.3561 154.06 51.4703L150.888 40.7807C147.089 42.6828 142.968 45.4027 138.904 46.4869C135.846 47.3808 130.433 48.5601 127.395 47.9134C124.831 47.3618 122.438 50.8426 124.774 52.7066L124.736 52.7637Z" fill="#FF6B3D"/>
<path d="M59.4594 53.0498C44.0568 59.5929 34.0669 82.8741 43.1262 97.9384C44.6645 100.525 48.1591 98.5661 47.6463 95.9032C46.2409 88.6563 50.0583 81.1622 49.7924 73.8203C49.6785 71.2145 45.6331 70.5868 45.1014 73.3067C44.7648 75.2805 44.1644 77.1998 43.3161 79.0129L48.0451 80.1732C47.1525 72.9453 50.2292 66.8587 53.7428 60.7722C55.642 57.5387 50.5331 54.7616 48.6719 57.9761C45.7999 63.4159 44.0556 69.3811 43.544 75.5131L49.5645 75.361C47.0575 69.5026 50.4002 63.9486 52.7552 58.4516C54.8443 53.6394 56.6866 48.5419 60.1432 44.5096C62.6881 41.5423 58.4529 37.4339 55.737 40.306C45.918 50.6532 35.4913 67.2391 42.1576 81.923C43.506 84.9283 48.349 83.1784 48.1591 80.1351C47.7223 73.3258 47.1335 67.6006 49.7165 61.0194C52.2512 54.9738 55.7752 49.394 60.1432 44.5096L55.737 40.306C51.8056 45.4225 49.8874 51.4521 47.6463 57.4245C45.4052 63.397 42.7273 69.7689 43.449 76.331C43.8099 79.5645 49.0517 80.7438 49.6025 77.0157C50.0902 71.379 51.4751 65.8566 53.7048 60.658L48.6339 57.862C45.1963 64.8996 41.8157 72.1655 42.9362 80.1732C43.2401 82.3035 46.5827 83.9773 47.6653 81.3334C48.5897 79.1158 49.2279 76.7892 49.5645 74.4099L45.0444 73.9725C45.6711 81.5807 42.6324 89.0177 42.7463 96.7972L47.6463 95.9983C46.013 87.7243 44.6645 80.7818 48.387 72.6981C51.4637 66.0028 57.8831 61.59 60.9788 55.0089C61.3966 54.0959 60.599 52.6504 59.4594 53.1069V53.0498Z" fill="#FF6B3D"/>
<path d="M56.4967 53.2965C58.127 50.3794 59.9346 47.5654 61.9094 44.8704C62.7315 43.9475 63.2704 42.8067 63.4613 41.5848C63.6523 40.3629 63.4873 39.1118 62.9861 37.9815C62.485 36.8512 61.6689 35.8896 60.6357 35.2121C59.6026 34.5346 58.3963 34.1699 57.1614 34.1618C55.7618 34.1337 54.3717 34.3983 53.08 34.9387C51.7883 35.4791 50.6233 36.2834 49.6595 37.3002C47.7603 39.2022 47.3804 41.6178 45.861 43.577L57.1044 44.7372C53.7808 39.906 47.8932 33.9716 41.9107 38.8979C35.9281 43.8242 39.1378 50.3103 41.7587 55.8072C45.5572 63.6817 57.5982 57.7093 55.3571 49.6636C53.4579 42.8352 49.3556 36.9578 47.7603 29.9963L40.8471 39.5066C43.43 39.5066 45.8041 40.6288 48.444 40.4576C51.0839 40.2864 53.7808 39.4685 56.5726 39.5256L51.9006 23.7956C45.4462 27.3088 40.6052 33.1935 38.3971 40.2103C34.8456 50.2722 50.0393 55.2366 55.1292 46.8105C56.5726 44.3949 58.187 39.7729 60.3901 37.9659C62.897 35.8927 65.7649 36.178 67.6641 32.8113L64.8912 35.7215C62.5932 37.167 65.6509 35.8736 66.9993 35.6264C68.3478 35.3791 67.6071 35.284 68.8986 35.3981C79.4582 36.3111 79.5152 18.2796 68.4997 18.6029C63.9796 18.7361 55.5091 21.0185 53.6099 25.5264L56.3067 22.6163C55.2052 23.263 52.5083 23.6054 51.0269 24.4042C49.6224 25.2321 48.3433 26.2569 47.2285 27.4475C44.7971 30.2037 42.545 33.1135 40.4862 36.1589L54.9963 46.8105C56.315 43.6099 58.2512 40.7013 60.6939 38.2512C62.2453 37.2299 63.435 35.7439 64.0933 34.0054C64.7515 32.2668 64.8447 30.3644 64.3594 28.5697C63.8043 26.8086 62.6929 25.2758 61.1926 24.2021C59.6923 23.1284 57.8843 22.5718 56.0409 22.6163C53.1399 23.056 50.2719 23.6915 47.4564 24.5183C45.0254 25.127 42.8223 24.4042 40.3533 24.7085C35.9471 25.2221 31.5409 29.3876 33.4212 34.2188C35.9661 40.8 38.644 47.267 40.9041 53.9432L54.4835 47.8186C54.2556 47.3811 53.1161 45.8024 53.135 45.2508L52.2234 49.0549L52.8122 48.0658L46.6017 51.8699H47.7223L42.5374 49.8538C43.4738 50.5413 44.3055 51.3614 45.0064 52.2884C45.6862 53.3181 46.6161 54.158 47.7088 54.7291C48.8015 55.3002 50.0213 55.5839 51.2535 55.5535C52.4857 55.5231 53.69 55.1796 54.7533 54.5552C55.8166 53.9308 56.704 53.0461 57.3323 51.9841C58.031 50.9428 58.6107 49.8263 59.0606 48.6555L59.7253 46.9626C60.656 45.2508 60.1052 45.1937 58.111 46.7915L53.154 43.1395C53.7048 46.4871 54.3885 49.7967 55.0533 53.1443C55.2052 53.8861 56.2118 53.8291 56.5536 53.2965H56.4967Z" fill="#FF6B3D"/>
<path d="M57.2184 33.743C59.3075 37.8514 63.9036 40.6474 67.5501 43.2533C71.1966 45.8591 75.6028 48.579 79.6861 51.1088C87.435 55.902 96.3423 61.7983 105.44 63.5102C111.289 64.5944 115.676 55.7308 109.504 53.144C100.729 49.473 92.145 46.4868 83.7695 41.7316C79.6102 39.4111 75.5458 36.9004 71.2346 34.8462C67.4362 32.9441 63.1819 30.5856 58.8327 30.6426C58.4845 30.6351 58.1409 30.7236 57.8395 30.8984C57.5381 31.0733 57.2905 31.3279 57.1238 31.6342C56.9572 31.9405 56.8779 32.2868 56.8945 32.6353C56.9112 32.9837 57.0232 33.3209 57.2184 33.6098V33.743Z" fill="#FF6B3D"/>
<path d="M62.4412 32.2405C68.0315 36.6632 74.2799 40.1804 80.9586 42.6638C85.3838 44.3566 88.2136 36.9576 83.9784 34.9224C77.7928 31.8694 71.1762 29.7846 64.3594 28.7407C62.4602 28.4934 60.675 30.7759 62.4602 32.2405H62.4412Z" fill="#FF6B3D"/>
<path d="M64.0746 34.0286C71.6714 36.5773 75.261 44.0905 81.6233 48.5984C90.1888 54.6849 97.3869 62.3883 106.161 68.1896C112.353 72.279 121.355 68.9314 124.812 62.8067C128.268 56.6821 126.312 46.9816 119.437 44.1285C113.899 41.582 108.532 38.6785 103.369 35.4361C98.4124 32.583 92.6958 31.0614 88.1756 28.5887C80.066 24.1379 69.1834 15.6927 61.5866 25.7927C61.012 26.437 60.6124 27.2185 60.4262 28.062C60.2399 28.9055 60.2733 29.7829 60.5231 30.6098C60.7729 31.4367 61.2307 32.1854 61.8526 32.7841C62.4746 33.3827 63.2397 33.8113 64.0746 34.0286Z" fill="#FF6B3D"/>
<path d="M86.1435 40.2869C93.5125 46.6778 98.6403 59.0602 109.067 61.1145C110.083 61.3312 111.142 61.1801 112.057 60.688C112.972 60.196 113.683 59.3949 114.063 58.4273C114.444 57.4597 114.469 56.3883 114.135 55.4036C113.801 54.4189 113.129 53.5849 112.239 53.0497C110.093 51.5851 107.548 50.8814 105.345 49.4929C103.234 48.0847 101.251 46.4936 99.419 44.7377C96.2197 41.6285 92.7207 38.8442 88.9733 36.4257C88.4686 36.1818 87.8948 36.1214 87.3505 36.255C86.8062 36.3886 86.3254 36.7079 85.9906 37.158C85.6558 37.6081 85.4879 38.1609 85.5158 38.7215C85.5437 39.282 85.7656 39.8154 86.1435 40.2299V40.2869Z" fill="#FF6B3D"/>
<path d="M68.3478 29.9964C68.1934 28.8238 68.1425 27.64 68.1959 26.4585L63.1629 27.9421C64.9238 30.2374 67.2191 32.0659 69.8482 33.2679C70.4785 33.6032 71.2003 33.725 71.9055 33.6153C72.6107 33.5056 73.2615 33.1702 73.7606 32.6592C74.3093 32.0077 74.6236 31.1905 74.6532 30.3387C74.6173 29.6326 74.3591 28.9559 73.9156 28.4058C73.472 27.8557 72.866 27.4603 72.1842 27.2764C70.4351 26.6055 68.7962 25.6759 67.3222 24.5184C66.9317 24.1533 66.4423 23.9116 65.9153 23.8236C65.3883 23.7357 64.8471 23.8053 64.3595 24.0239C63.8691 24.2362 63.4534 24.5905 63.1657 25.0413C62.878 25.4921 62.7316 26.0188 62.7451 26.5536C62.7652 27.5768 63.0596 28.5757 63.5976 29.4458C64.1355 30.3159 64.8972 31.025 65.8029 31.499C66.0667 31.6364 66.3615 31.7034 66.6587 31.6934C66.9559 31.6834 67.2455 31.5967 67.4995 31.4418C67.7535 31.2869 67.9633 31.0689 68.1086 30.8091C68.2538 30.5492 68.3297 30.2562 68.3288 29.9583L68.3478 29.9964Z" fill="#FF6B3D"/>
<path d="M123.197 45.8218C123.282 46.1203 123.282 46.4364 123.197 46.7348C123.197 47.2293 123.387 47.6288 123.368 48.1043C123.382 48.3137 123.47 48.5114 123.615 48.6628C123.76 48.8141 123.954 48.9095 124.162 48.9322C124.371 48.9549 124.58 48.9034 124.755 48.7868C124.929 48.6702 125.057 48.4959 125.115 48.2945C125.274 47.9575 125.341 47.5842 125.307 47.213C125.274 46.8418 125.142 46.4863 124.926 46.1832C124.533 45.8016 124.038 45.5437 123.501 45.4414C123.292 45.4414 123.064 45.5936 123.14 45.8218H123.197Z" fill="#FF6B3D"/>
<path d="M121.963 48.9595C126.085 52.0521 131.095 53.7268 136.245 53.7336C142.512 53.4103 148.666 49.435 154.173 46.7721C159.681 44.1092 156.073 36.2537 150.983 36.0635C147.494 36.0552 144.071 37.0094 141.088 38.8215C139.189 39.8676 134.953 42.6256 133.795 42.6256L134.042 52.3641C142.037 50.0627 150.774 48.4269 158.371 44.9651C161.365 43.3403 164.195 41.4293 166.822 39.259C169.405 37.471 172.52 36.4059 174.552 33.9712C175.525 32.9323 176.05 31.5518 176.014 30.1281C175.979 28.7044 175.385 27.352 174.362 26.363C171.893 24.1186 169.899 25.0315 167.202 26.1157C163.736 27.4191 160.464 29.1918 157.478 31.3844C149.881 37.0906 139.91 39.4111 131.117 42.6446C126.844 44.2043 126.084 51.5463 131.345 52.3832C134.876 53.0943 138.541 52.6613 141.81 51.1468C144.867 49.7773 147.792 47.5519 151.306 47.6661L148.115 36.9194C144.317 38.8215 140.195 41.5605 136.112 42.7397C133.073 43.6337 127.66 44.813 124.717 44.1663C122.153 43.6147 119.741 47.0954 122.077 48.9595H121.963Z" fill="#FF6B3D"/>
<path d="M125.324 47.3429C133.909 48.6173 143.063 43.5388 150.641 40.115C159.356 36.5305 167.686 32.0695 175.502 26.8006C180.364 23.2628 175.825 15.5975 170.545 18.7549C162.815 23.3769 154.781 27.3903 146.843 31.5938C139.246 35.5501 130.946 38.8026 124.489 44.4327C124.271 44.6514 124.115 44.9245 124.038 45.2237C123.961 45.5229 123.965 45.8374 124.051 46.1344C124.136 46.4313 124.299 46.7001 124.523 46.9126C124.747 47.1251 125.024 47.2737 125.324 47.3429Z" fill="#FF6B3D"/>
<path d="M171.096 23.4906C172.121 28.8924 175.521 33.4574 179.148 37.4707C182.776 41.4841 186.745 45.6686 192.196 44.5274C194.893 43.9567 195.216 40.4189 193.563 38.688C191.599 36.9218 189.545 35.2585 187.41 33.7047C185.833 32.3352 186.251 30.9276 185.131 29.1017C182.245 24.9113 178.16 21.695 173.413 19.8767C172.887 19.5811 172.285 19.4489 171.684 19.4969C171.083 19.5449 170.51 19.7709 170.037 20.1462C169.565 20.5214 169.214 21.029 169.031 21.6042C168.847 22.1794 168.839 22.7964 169.006 23.3765C169.576 25.6019 170.811 26.0964 172.121 27.9224C173.432 29.7484 174.21 31.3271 175.369 32.9438C177.268 35.6828 179.528 39.0114 182.624 40.5521C184.219 41.3509 186.422 39.4869 185.207 37.8321C183.08 34.941 179.965 32.9819 177.895 29.9576C176.735 28.5516 175.852 26.938 175.293 25.2024C175.008 23.3004 175.388 22.7107 174.438 20.9228L171.153 25.4117C174.837 26.7621 179.357 29.7674 181.142 33.2481C181.554 34.3482 182.306 35.2878 183.289 35.9301C185.535 37.4024 187.164 39.6495 187.866 42.2449L192.025 37.8702C184.257 36.3675 179.623 26.686 174.495 21.4364C172.919 19.8196 170.697 21.6646 171.096 23.5286V23.4906Z" fill="#FF6B3D"/>
<path d="M178.502 34.0282C179.427 34.9869 180.539 35.7444 181.769 36.2536C182.562 36.4524 183.332 36.7329 184.067 37.0905C184.618 37.4899 184.998 38.4029 185.473 38.9925C186.472 40.011 187.65 40.8364 188.948 41.4272C189.803 41.8456 190.657 42.207 191.493 42.6635C192.329 43.12 193.392 44.3563 193.221 43.4814L193.582 40.0387C193.848 39.373 193.943 39.7344 193.145 40.0387C192.419 40.3791 191.736 40.807 191.113 41.3131C189.914 42.1836 188.773 43.1302 187.695 44.1471C187.093 44.7661 186.669 45.5366 186.468 46.377C186.268 47.2174 186.298 48.0965 186.555 48.9213L186.783 49.587C187.124 50.6385 187.859 51.5168 188.832 52.0381C189.806 52.5593 190.943 52.6829 192.006 52.383C194.494 51.6412 194.741 50.3668 196.032 48.4648C197.02 47.0002 199.09 47.0002 200.344 45.7639C203.097 43.0249 201.73 38.9355 199.147 36.6911C197.695 35.5149 196.05 34.601 194.285 33.9901C192.828 33.4183 191.413 32.7445 190.05 31.9739C186.707 30.186 183.44 32.1832 180.098 31.1561C179.741 31.088 179.371 31.1343 179.042 31.2885C178.713 31.4427 178.441 31.6969 178.264 32.0149C178.088 32.333 178.015 32.6987 178.058 33.0601C178.101 33.4216 178.256 33.7603 178.502 34.0282Z" fill="#FF6B3D"/>
<path d="M177.382 36.6345C176.603 47.5333 181.883 57.9566 184.504 68.2658C187.316 79.2593 187.086 90.8122 183.839 101.685C181.94 108.247 191.892 110.549 194.019 104.234C198.122 92.4681 198.67 79.7522 195.595 67.6761C193.913 62.0122 191.909 56.4491 189.594 51.0141C187.598 45.2651 184.721 39.8621 181.066 34.9987C179.718 33.401 177.477 34.9987 177.382 36.6345Z" fill="#FF6B3D"/>
<path d="M45.4432 94.8944C39.7455 98.6985 46.1649 105.032 46.2029 109.54C46.2029 112.603 51.1978 112.45 50.9319 109.426C50.6383 107.175 49.8326 105.021 48.5769 103.13C47.9017 102.117 47.3532 101.025 46.9436 99.8778C46.7248 98.4852 46.7248 97.0669 46.9436 95.6743C46.938 95.5082 46.889 95.3465 46.8016 95.2053C46.7142 95.0641 46.5914 94.9483 46.4454 94.8694C46.2994 94.7905 46.1353 94.7513 45.9695 94.7557C45.8036 94.7601 45.6418 94.8079 45.5002 94.8944H45.4432Z" fill="#FF6B3D"/>
<path d="M48.9188 112.127C59.4215 113.744 70.0381 112.45 80.5978 112.032C92.3159 111.556 104.091 111.537 115.809 111.575C139.018 111.575 162.207 112.507 185.378 110.643C192.443 110.073 192.253 99.0977 185.112 99.5352C161.96 101.019 138.714 100.239 115.524 100.334C104.107 100.286 92.6945 100.857 81.3385 102.046C70.19 103.301 59.7443 106.573 48.8428 108.703C48.4756 108.814 48.1538 109.04 47.9251 109.349C47.6963 109.657 47.5728 110.031 47.5728 110.415C47.5728 110.799 47.6963 111.173 47.9251 111.481C48.1538 111.79 48.4756 112.016 48.8428 112.127H48.9188Z" fill="#FF6B3D"/>
<path d="M55.3002 105.489C47.3614 97.8804 55.756 82.797 58.225 74.1807C61.1118 64.0617 64.5304 54.0949 67.5122 44.014C68.8986 39.373 61.8145 37.7753 60.3141 42.2261C55.8171 54.8332 52.1874 67.734 49.4506 80.8379C47.5514 90.0439 44.3037 101.761 53.4389 108.037C54.9393 109.083 56.5727 106.706 55.3382 105.489H55.3002Z" fill="#FF6B3D"/>
<path d="M61.9854 38.3655L61.6435 39.2405C61.7182 39.0867 61.7817 38.9278 61.8335 38.7649C61.918 38.6246 61.976 38.4698 62.0044 38.3084C62.1778 37.6863 62.1778 37.0285 62.0044 36.4064L61.6056 35.5314C61.2734 35.0039 60.8169 34.5663 60.2761 34.2571C59.8592 34.0152 59.39 33.8782 58.9087 33.8576C58.4325 33.7789 57.9447 33.8081 57.4813 33.943C57.0179 34.078 56.5906 34.3153 56.2308 34.6375C55.8405 34.9 55.5261 35.2608 55.3191 35.6836C54.9936 36.2629 54.8358 36.9215 54.8633 37.5857C54.8541 37.7567 54.8541 37.9282 54.8633 38.0992C54.8974 38.584 55.0614 39.0505 55.3381 39.4497L55.9079 40.1725L56.6486 40.7241L57.5222 41.0664C57.9955 41.1897 58.4924 41.1897 58.9656 41.0664C59.2882 41.0636 59.6038 40.9715 59.8773 40.8001C60.1715 40.7073 60.4388 40.5441 60.6559 40.3246C60.9158 40.1571 61.131 39.9286 61.2827 39.6589C61.5886 39.2991 61.7978 38.867 61.8904 38.4036L61.9854 38.3655Z" fill="#FF6B3D"/>
<path d="M51.6347 64.2334V64.4236C51.5872 64.6366 51.5872 64.8574 51.6347 65.0703C51.6489 65.3 51.7208 65.5224 51.8436 65.717L52.1854 66.1354C52.2823 66.3055 52.4192 66.4491 52.5843 66.5539C52.7252 66.677 52.8952 66.7621 53.0781 66.8012C53.394 66.8958 53.7307 66.8958 54.0467 66.8012C54.3696 66.6515 54.6279 66.3903 54.7744 66.0655C54.9209 65.7407 54.9457 65.3739 54.8443 65.0323C54.7949 64.7921 54.725 64.5567 54.6354 64.3285C54.5444 64.1385 54.4224 63.9649 54.2746 63.8149C54.0679 63.6236 53.8214 63.4807 53.5529 63.3965H53.3629C53.1863 63.353 53.0027 63.3457 52.8232 63.3751C52.6437 63.4046 52.472 63.4701 52.3184 63.5677C52.029 63.7633 51.8147 64.0518 51.7106 64.3856L51.6347 64.2334Z" fill="#FF6B3D"/>
<path d="M166.063 37.8328C163.366 48.218 166.366 60.3531 169.025 70.4721C171.784 80.5137 173.733 90.7606 174.856 101.114C176.204 114.885 196.906 114.752 196.583 100.582C196.097 88.7876 194.255 77.0888 191.094 65.717C188.34 55.0464 184.352 42.8922 176.793 34.7134C173.413 30.9093 167.297 33.3629 166.063 37.8328Z" fill="#FF6B3D"/>
<path d="M174.799 99.1552C176.596 89.4206 176.82 79.4602 175.464 69.6543C174.825 64.9378 173.938 60.2585 172.805 55.6361C171.627 50.919 170.602 45.4981 167.829 41.4467C165.512 38.042 159.263 39.2593 159.643 43.8813C160.023 48.5034 162.055 53.0302 163.214 57.5762C164.372 62.1221 165.284 66.3637 165.987 70.8906C167.411 80.0015 168.152 89.3596 168.665 98.5655C168.835 101.913 174.096 102.807 174.742 99.2313L174.799 99.1552Z" fill="#FF6B3D"/>
<path d="M148.115 47.8762C148.438 51.5091 150.014 54.7806 150.489 58.4136C150.964 62.0465 151.021 66.2501 151.23 70.0922C151.724 78.7846 152.065 87.5531 151.989 96.2646C151.856 109.579 172.292 109.008 172.634 95.751C172.965 85.5484 172.156 75.3406 170.222 65.318C168.741 57.7098 164.277 46.0502 156.68 42.6265C152.996 40.9527 147.697 43.121 148.115 47.8381V47.8762Z" fill="#FF6B3D"/>
<path d="M155.446 101.152C162.131 95.6172 157.535 82.2267 156.832 75.056C155.921 65.812 155.617 55.7501 150.318 47.7424C146.862 42.4927 139.265 47.343 142.094 52.8399C145.893 60.334 147.26 68.0564 148.818 76.3304C149.577 80.3437 150.584 84.281 151.648 88.2182C152.711 92.1555 152.559 96.5492 153.547 100.677C153.756 101.628 154.914 101.647 155.446 101.152Z" fill="#FF6B3D"/>
<path d="M165.075 98.4328L166.613 100.925C166.816 101.267 166.982 101.631 167.107 102.009C167.338 102.629 167.716 103.184 168.209 103.625C168.608 103.977 169.121 104.171 169.652 104.171C170.184 104.171 170.697 103.977 171.096 103.625C171.517 103.3 171.801 102.829 171.892 102.305C171.984 101.78 171.876 101.24 171.589 100.791C171.261 100.276 170.827 99.8348 170.317 99.498C169.886 99.3024 169.467 99.0801 169.063 98.8323C168.266 98.2617 167.487 97.615 166.708 96.9302C165.93 96.2455 164.391 97.1585 165.075 98.2617V98.4328Z" fill="#FF6B3D"/>
<path d="M133.567 53.7345C134.47 57.3354 135.856 60.797 137.688 64.0246C139.521 68.1317 141.039 72.3729 142.227 76.7114C143.392 80.6944 144.193 84.7753 144.62 88.9036C145 92.7077 144.374 97.2156 146.861 100.316C148.343 102.218 151.306 103.131 153.091 100.963C158.428 94.4766 153.984 81.0671 151.61 73.8583C149.046 66.0028 144.487 55.104 136.796 51.0336C136.403 50.8354 135.962 50.755 135.525 50.8022C135.088 50.8494 134.674 51.0221 134.333 51.2994C133.992 51.5768 133.738 51.9471 133.602 52.3656C133.466 52.7841 133.454 53.2331 133.567 53.6584V53.7345Z" fill="#FF6B3D"/>
<path d="M123.121 52.555C126.92 59.7068 131.801 66.1928 135.295 73.5918C139.033 81.0502 141.712 88.9953 143.253 97.1964C144.658 106.041 157.687 103.017 154.8 95.2943C148.685 79.0507 140.993 60.3535 126.749 49.5308C126.327 49.1591 125.786 48.9495 125.224 48.9394C124.662 48.9292 124.115 49.119 123.68 49.4751C123.244 49.8312 122.949 50.3305 122.847 50.884C122.745 51.4375 122.842 52.0095 123.121 52.498V52.555Z" fill="#FF6B3D"/>
<path d="M120.728 50.6334C118.278 53.5246 120.101 56.9673 121.032 60.1437C122.476 65.3173 123.919 70.4719 125.552 75.5884C127.186 80.705 128.648 85.2889 130.319 90.1011C131.991 94.9134 132.921 100.467 136.72 104.138L144.127 94.0004L142.626 93.0493C139.379 90.9571 133.871 93.9053 134.498 97.9757L134.744 99.7066C135.941 107.524 148.039 107.695 147.393 99.4022C146.918 93.9433 143.291 89.3023 140.936 84.433C138.391 79.1643 135.998 73.8576 133.605 68.5128C132.56 66.1732 124.812 45.8212 120.747 50.6334H120.728Z" fill="#FF6B3D"/>
<path d="M63.1249 57.3102C72.8109 66.0977 82.8388 74.4287 93.1706 82.4744C97.9819 86.2024 102.844 89.8671 107.757 93.4683C113.123 97.7964 118.749 101.792 124.603 105.432C132.2 109.655 137.555 98.775 130.927 94.0199C125.932 90.387 120.196 87.61 114.955 84.3194C109.713 81.0289 103.939 77.3008 98.5074 73.6679C87.9477 66.5732 77.616 59.1932 67.2842 51.6991C63.9986 49.3025 60.2001 54.7043 63.1249 57.4053V57.3102Z" fill="#FF6B3D"/>
<path d="M63.6757 47.0962C64.7203 49.9493 66.5435 50.634 68.9935 52.3458C71.8803 54.362 74.6912 56.6255 77.3311 58.908C82.326 63.1115 87.0171 67.6574 91.7462 72.2224C101.23 81.597 111.824 89.7733 123.292 96.5687C131.345 101.172 137.935 88.9605 130.205 84.0151C128.192 82.7598 126.084 81.7326 123.995 80.6485C117.727 77.415 112.6 85.1944 117.006 90.1588C118.582 91.9657 120.102 93.7917 121.811 95.4655L130.205 84.0532C117.746 79.1459 107.586 70.0921 97.121 62.0273C92.0311 58.0901 86.9222 54.1338 81.4904 50.615C77.3311 47.9711 70.4369 42.6263 65.328 44.0529C64.6994 44.2461 64.1728 44.6807 63.8632 45.2616C63.5535 45.8426 63.4862 46.5227 63.6757 47.1532V47.0962Z" fill="#FF6B3D"/>
<path d="M80.2559 52.2511C93.6644 62.7504 108.193 71.614 121.735 81.8661C123.09 83.0909 124.869 83.7377 126.693 83.6689C128.518 83.6001 130.243 82.8212 131.502 81.4978C132.762 80.1744 133.456 78.4111 133.437 76.583C133.419 74.7549 132.688 73.0062 131.402 71.7091C126.787 66.4785 122.134 61.9706 120.785 54.8379L109.504 61.7994C110.358 62.4522 111.091 63.2506 111.669 64.1579C112.372 65.2802 112.258 67.4295 112.486 65.0709C112.182 68.1332 115.429 70.2636 118.05 70.3777H119.038C120.421 70.3443 121.756 69.8574 122.836 68.9916C123.917 68.1258 124.684 66.9289 125.02 65.5845C125.856 59.8783 123.254 55.3894 118.962 51.8136C113.359 47.1726 106.522 52.0989 107.662 58.7751C109.181 67.8289 115.258 75.5703 121.735 81.8281L129.958 70.6059C114.309 63.6444 99.5709 54.5716 84.2063 46.8302C80.9586 45.1944 77.1222 49.7593 80.2559 52.213V52.2511Z" fill="#FF6B3D"/>
<path d="M54.2936 61.7604C60.3331 72.8494 69.8482 80.5717 79.8191 87.9707C85.4028 92.1172 91.0625 96.1496 96.7411 100.163C96.8931 100.277 100.767 103.073 98.1845 101.171L101.508 103.701C103.939 105.603 106.294 107.6 108.744 109.407L119.893 80.4766C110.397 81.1043 100.9 80.1343 91.4043 79.925C86.5896 79.805 81.7725 80.0275 76.9892 80.5907C73.9505 80.9521 70.9307 81.3896 67.873 81.6559C65.9738 81.8081 64.2455 81.9412 62.4222 81.9602C61.9284 81.9602 57.2374 81.6369 59.5734 81.9602L71.8424 97.3289C71.8424 93.6389 71.9563 89.9299 71.8424 86.2399C71.8424 82.0934 71.2156 87.8756 71.9753 84.49C72.1462 83.4438 72.3552 82.3977 72.5831 81.3706C73.8492 77.4143 72.5071 78.7394 68.5567 85.3459L60.7509 87.7615L61.8715 87.6284L53.8188 85.7263C52.5463 84.509 52.6413 84.6421 54.1227 86.1257L55.3382 87.305C56.5726 88.4843 57.8451 89.5875 59.1366 90.7097C62.3083 93.4487 65.537 96.0355 68.9366 98.5081C74.5755 102.256 80.4078 105.704 86.4094 108.836L94.1202 77.2431C89.3342 77.0719 84.6241 77.6426 79.7431 77.5474C75.8364 77.5879 71.9356 77.2311 68.1009 76.4823C59.1936 74.9987 49.1087 79.4305 47.0955 89.131C45.3673 97.6522 50.1343 108.684 59.7064 110.168C72.5641 112.165 86.6563 113.553 99.4 110.168C115.562 105.926 114.594 81.4086 98.6213 77.6996C96.7221 77.148 96.4562 77.148 97.7857 77.6996C97.0133 77.3826 96.2347 77.0402 95.4497 76.6725C93.9113 75.9687 92.3919 75.2269 90.8915 74.4281C87.6192 72.7978 84.493 70.8887 81.5474 68.7219C83.1047 69.9202 79.4392 66.8198 79.5152 66.8198C78.2617 65.6786 77.0842 64.4613 75.8877 63.244C71.6714 58.9263 66.9234 55.8259 60.542 56.0352C39.4797 56.7199 40.1634 83.2726 39.4797 98.2419C39.1758 104.842 45.1773 112.507 51.7676 113.61C65.0622 115.817 77.7299 112.755 90.9865 113.154C100.881 113.458 110.852 114.676 120.766 114.162C124.042 114.037 127.21 112.959 129.884 111.061C132.559 109.163 134.624 106.526 135.827 103.473C138.087 97.7663 137.119 89.3592 131.915 85.2318C112.922 70.1865 87.226 65.9259 68.5567 50.2909C66.914 48.8257 64.8044 47.9934 62.6053 47.9429C60.4061 47.8923 58.2606 48.6268 56.5525 50.015C54.8444 51.4032 53.685 53.3546 53.2816 55.5203C52.8782 57.686 53.2571 59.9248 54.3506 61.8364L54.2936 61.7604Z" fill="#FF6B3D"/>
<path d="M64.7773 16.7007C63.9991 16.2413 63.1309 15.9558 62.2323 15.8638C58.7567 16.3012 50.4002 18.9641 46.6587 19.8581C42.9173 20.7521 36.8398 22.8824 32.9653 24.2519C29.6607 25.4311 27.0018 26.6104 23.5832 27.8467C16.6947 30.2571 10.4188 34.1529 5.19876 39.2591C2.16859 42.3235 0.330011 46.3704 0.0138969 50.6715C-0.136002 54.697 0.92963 58.6742 3.07164 62.0838C5.5751 66.0579 9.04514 69.3302 13.1565 71.5941C17.2938 73.8037 21.615 75.6493 26.0712 77.1101C25.9192 76.064 25.7483 75.0178 25.5964 73.9717C22.4797 76.4225 19.8892 79.4782 17.9801 82.9557C16.0709 86.4333 14.8825 90.261 14.4859 94.2096C14.4859 95.0275 15.4735 95.4459 16.0813 95.0655C21.0725 91.9479 25.3712 87.837 28.7111 82.9875C29.3378 82.0745 28.0654 81.0854 27.2107 81.5609C24.6348 83.0943 22.4604 85.2198 20.8673 87.7616C19.3117 90.3715 18.4183 93.3233 18.2654 96.3589C18.2654 97.2149 19.196 97.5382 19.8228 97.2149C24.6515 94.8672 28.9001 91.4762 32.2626 87.2861C32.4339 87.0828 32.534 86.8289 32.5475 86.5633C32.5465 86.2928 32.4526 86.0309 32.2816 85.8215C32.1181 85.6094 31.8808 85.4668 31.6169 85.4221C31.4848 85.3916 31.3479 85.3877 31.2142 85.4106C31.0806 85.4334 30.9528 85.4826 30.8382 85.5552C28.5402 86.6394 25.9382 88.0089 25.0456 90.5767C24.6818 91.6037 24.6711 92.7231 25.0152 93.7569C25.3593 94.7908 26.0384 95.6798 26.9448 96.2828C29.4708 97.6523 32.0537 95.6362 33.5541 93.7151C35.2084 91.5993 36.6703 89.3395 37.9223 86.9628C43.0727 77.4382 45.2495 66.5846 44.1707 55.807C43.8499 52.7803 43.2587 49.7884 42.4045 46.8673C41.9676 45.4028 41.4738 43.9762 40.9041 42.5687C40.6157 41.7817 40.2795 41.0131 39.8975 40.2672C39.4987 39.6395 38.9479 38.9928 38.606 38.3651C38.4887 38.1677 38.332 37.9966 38.1458 37.8624C37.9595 37.7282 37.7477 37.6339 37.5235 37.5853C37.072 37.4844 36.5993 37.5521 36.194 37.7755C35.8084 38.0354 35.5314 38.4279 35.4153 38.8787C35.3204 39.3332 35.3947 39.8067 35.6243 40.2101C35.8011 40.6755 35.947 41.152 36.0611 41.6367C36.2492 42.2224 36.4777 42.7944 36.7448 43.3485C37.2006 44.4517 37.6184 45.5549 38.0173 46.6771C38.7607 48.939 39.3633 51.245 39.8215 53.5816C40.6905 58.1361 40.965 62.7843 40.6382 67.4096C40.2777 72.0565 39.3071 76.6355 37.7514 81.0283C36.9546 83.2329 35.9829 85.37 34.8456 87.4193C33.7967 89.5418 32.4751 91.5177 30.9142 93.2966C30.2115 94.0004 29.015 94.9324 28.0274 94.3998C27.6761 94.1677 27.3971 93.8412 27.2225 93.4578C27.0478 93.0743 26.9845 92.6493 27.0398 92.2315C27.0398 89.6637 30.1165 88.4273 32.0917 87.4573L30.7243 85.6693C27.4937 89.6989 23.4484 92.9983 18.8541 95.3509L20.4305 96.2068C20.594 93.5154 21.4088 90.9043 22.8045 88.5985C24.2179 86.3104 26.1755 84.4087 28.5022 83.0635L27.0018 81.637C23.8608 86.2162 19.8141 90.1006 15.1127 93.0493L16.708 93.9053C17.0889 90.3721 18.2782 86.9744 20.1836 83.9765C22.0825 81.0411 24.5971 78.5551 27.5526 76.6916C27.8129 76.5415 28.0292 76.3254 28.1796 76.0649C28.3299 75.8045 28.4091 75.5089 28.4091 75.208C28.4091 74.9072 28.3299 74.6116 28.1796 74.3512C28.0292 74.0907 27.8129 73.8745 27.5526 73.7244C23.9012 72.1403 20.355 70.3233 16.9359 68.2845C13.8831 66.4828 11.1912 64.1287 8.9972 61.342C8.45106 60.5993 7.95003 59.8244 7.49682 59.0215L6.92705 57.8993C6.5662 57.1955 7.09798 58.3558 6.79411 57.614L6.50923 56.8722C6.20773 56.0654 5.96028 55.2393 5.76853 54.3995L5.65458 53.7908C5.48365 53.011 5.65458 54.3044 5.65458 53.5246C5.65458 53.03 5.55962 52.5545 5.54062 52.06C5.52163 51.5654 5.54062 51.2611 5.54062 50.8617C5.54062 50.8617 5.54062 49.9867 5.54062 50.5954C5.53133 50.437 5.53133 50.2782 5.54062 50.1199C5.71141 49.1879 5.95916 48.2718 6.28132 47.3809C6.43326 46.9434 6.01543 47.9325 6.28132 47.2287C6.39527 47.0195 6.49023 46.7722 6.58519 46.563C6.68016 46.3538 6.98403 45.8402 7.19294 45.4788C7.40186 45.1174 7.62976 44.7941 7.87666 44.4517C7.5538 44.9082 8.0286 44.2615 8.06659 44.2235C8.10457 44.1854 8.37046 43.8241 8.54139 43.6338C9.14237 42.9685 9.77623 42.3337 10.4406 41.7318C11.0466 41.1915 11.6805 40.6836 12.3398 40.2101C13.6811 39.15 15.0894 38.1779 16.5561 37.3C17.0624 36.9694 17.5889 36.6708 18.1324 36.406L18.7782 35.9305L19.291 35.6832C19.7848 35.436 18.7972 35.8925 19.4429 35.6832C20.7914 35.1126 27.6475 31.8791 29.034 31.4036C35.3204 29.3874 37.6754 28.0179 43.8479 26.0588C48.0451 24.7274 54.5785 22.2547 58.206 21.5319C59.8013 21.1895 62.3083 20.1624 63.9036 19.6299C64.7393 19.3445 65.8028 19.0402 66.5435 18.7929C67.2842 18.5457 65.1381 16.6626 64.7773 16.7007Z" fill="#1B2121"/>
<path d="M229.572 22.6167L229.003 23.5487L229.61 24.3666L229.572 22.6167Z" fill="#0B2538"/>
<path d="M235.023 16.3205C234.306 15.7675 233.551 15.2654 232.763 14.8179C232.763 15.6548 232.763 16.4917 232.763 17.3476L235.023 16.3205Z" fill="#0B2538"/>
<path d="M249.039 19.2688L249.932 15.731L247.121 17.8613L249.039 19.2688Z" fill="#0B2538"/>
<path d="M240.816 16.3775C240.987 15.2933 241.12 14.2092 241.196 13.106L238.879 15.008L240.816 16.3775Z" fill="#0B2538"/>
<path d="M223.742 29.711C223.742 29.711 223.951 29.5208 223.742 29.711V29.711Z" fill="#0B2538"/>
<path d="M221.786 14.5329C222.633 14.4664 223.484 14.4664 224.331 14.5329C223.723 13.8862 223.096 13.2205 222.431 12.6309L221.786 14.5329Z" fill="#0B2538"/>
<path d="M257.719 9.79635C255.117 11.6984 252.534 13.7336 249.932 15.7308L249.04 19.2686L247.14 17.8611L249.951 15.7308L252.04 7.45681C252.268 6.48676 251.053 5.36455 250.141 6.06831L241.177 13.1059C241.177 14.2091 240.968 15.2933 240.797 16.3775L238.898 14.9509L241.177 13.1059C241.463 9.0571 241.078 4.98878 240.037 1.06589C239.948 0.810365 239.788 0.585551 239.576 0.417698C239.364 0.249846 239.108 0.145885 238.84 0.117962C238.571 0.090039 238.299 0.139302 238.058 0.260001C237.816 0.380701 237.613 0.567856 237.473 0.799599C234.674 4.96474 233.041 9.80561 232.744 14.8178C233.532 15.2653 234.287 15.7674 235.004 16.3204L232.706 17.3475C232.706 16.4916 232.706 15.6547 232.706 14.8178C229.367 12.8847 225.514 12.028 221.672 12.3641C221.453 12.3729 221.242 12.4457 221.064 12.5734C220.881 12.6987 220.741 12.8782 220.665 13.0869C220.591 13.2913 220.576 13.5126 220.624 13.7249C220.671 13.9372 220.777 14.1316 220.931 14.2852C223.804 17.1926 226.481 20.287 228.946 23.5482L229.516 22.6162V24.3661L228.908 23.5482C227.831 25.2935 226.556 26.9083 225.109 28.3604C224.654 28.7979 224.179 29.2164 223.704 29.6348C223.913 29.4446 223.704 29.6348 223.704 29.6348L223.362 29.8821C223.115 30.0913 222.83 30.3005 222.564 30.4907C221.528 31.2112 220.436 31.8473 219.298 32.3928L218.5 32.7922L217.987 33.0015C217.399 33.2487 216.791 33.458 216.088 33.6482C214.844 34.0518 213.575 34.3758 212.29 34.6182H211.682L210.77 34.7514C210.125 34.7514 209.498 34.8655 208.871 34.8845C208.244 34.9035 207.599 34.8845 206.972 34.8845C206.656 34.9129 206.338 34.9129 206.022 34.8845C205.852 34.9033 205.68 34.9033 205.509 34.8845H205.206C193.354 33.6101 183.44 25.6595 176.261 16.5486C175.559 15.6547 174.894 14.7607 174.229 13.8477C173.661 14.553 172.903 15.081 172.045 15.3694C175.76 21.4558 180.518 26.8385 186.099 31.2706C191.006 35.19 196.774 37.8828 202.926 39.1261C208.636 40.199 214.536 39.5366 219.868 37.224C225.679 34.6753 231.111 30.0152 232.763 23.9096C232.849 23.6113 232.849 23.2949 232.763 22.9966C232.68 22.7077 232.523 22.4455 232.307 22.2358C229.514 19.8589 226.863 17.3183 224.369 14.6276C223.522 14.5611 222.671 14.5611 221.824 14.6276L222.545 12.7255C223.134 13.3912 223.761 14.057 224.445 14.6276C227.681 14.9486 230.748 16.2265 233.257 18.2986C233.454 18.4737 233.699 18.5862 233.96 18.6219C234.214 18.6975 234.484 18.6975 234.738 18.6219C234.976 18.505 235.179 18.328 235.327 18.1083C235.476 17.8897 235.555 17.6312 235.555 17.3665C235.528 13.2183 236.45 9.11901 238.252 5.38357C238.043 4.24233 237.796 3.1011 237.473 1.97888L240.018 2.24517C239.363 3.25259 238.773 4.30086 238.252 5.38357C238.86 8.83982 238.917 12.3706 238.423 15.8449C238.29 16.8149 239.391 18.0513 240.322 17.2524L248.774 10.3099C249.077 9.14964 249.381 7.98938 249.666 6.82912L251.452 8.1796L248.774 10.3099C248.071 13.0869 247.368 15.8639 246.646 18.6409C246.592 18.8855 246.609 19.1408 246.696 19.3757C246.783 19.6107 246.937 19.8151 247.138 19.9642C247.339 20.1134 247.58 20.2007 247.83 20.2157C248.079 20.2306 248.328 20.1725 248.546 20.0484L255.383 15.1221C256.029 13.5434 256.655 11.9457 257.282 10.367L259.314 12.269C258.023 13.2391 256.693 14.1711 255.383 15.1221C251.721 25.0544 247.11 34.6091 241.614 43.653C235.755 53.0882 227.364 60.6816 217.399 65.5647C214.691 66.7801 211.882 67.7539 209.004 68.4749C208.282 68.6461 207.561 68.8172 206.839 68.9504H206.345H205.908L205.035 69.0835C203.465 69.2701 201.886 69.3717 200.306 69.3879C199.664 69.41 199.057 69.6832 198.615 70.1487C198.39 70.3798 198.214 70.6538 198.097 70.9543C197.979 71.2549 197.923 71.576 197.932 71.8986C197.954 72.5407 198.226 73.1485 198.691 73.5914C198.918 73.8161 199.189 73.9926 199.486 74.1102C199.783 74.2279 200.1 74.2843 200.42 74.2762C203.332 74.2179 206.23 73.8416 209.061 73.1539C210.371 72.8496 211.682 72.4692 212.973 72.0317C213.695 71.7845 214.417 71.5182 215.119 71.2329L215.385 71.0997L215.841 70.8905L217.171 70.3008C222.286 67.8207 227.019 64.618 231.225 60.7906C240.208 52.7258 246.665 41.9792 251.736 31.1184C254.756 24.6134 257.434 17.9562 259.922 11.2609C260.359 10.2338 258.688 9.07356 257.719 9.79635Z" fill="#1B2121"/>
<path d="M257.263 10.3672C256.636 11.9459 256.01 13.5436 255.364 15.1223C256.674 14.1713 258.004 13.2203 259.295 12.2692L257.263 10.3672Z" fill="#0B2538"/>
<path d="M249.628 6.82861C249.343 7.98887 249.039 9.14913 248.736 10.3094L251.414 8.17909L249.628 6.82861Z" fill="#0B2538"/>
<path d="M237.378 1.84619C237.701 2.96841 237.948 4.10964 238.157 5.25088C238.678 4.16817 239.268 3.1199 239.923 2.11248L237.378 1.84619Z" fill="#0B2538"/>
<path d="M121.754 46.1067C129.731 42.0616 137.663 37.9151 145.551 33.6672C154.819 28.7028 164.961 24.1569 173.508 17.8991C173.697 17.7817 173.862 17.6281 173.992 17.447C174.122 17.2659 174.216 17.0608 174.267 16.8436C174.318 16.6263 174.326 16.4011 174.29 16.1808C174.254 15.9605 174.176 15.7494 174.058 15.5596C173.941 15.3698 173.788 15.2049 173.607 15.0744C173.426 14.944 173.221 14.8505 173.004 14.7993C172.787 14.748 172.563 14.7401 172.343 14.7759C172.123 14.8117 171.912 14.8906 171.722 15.008C162.226 19.8392 153.376 26.116 144.203 31.4798C136.492 35.9687 128.743 40.4195 120.918 44.7943C120.026 45.2888 120.918 46.6963 121.754 46.1447V46.1067Z" fill="#1B2121"/>
<path d="M121.184 44.7372C113.587 40.6477 106.104 36.5964 98.6213 32.4118C88.6884 26.8388 79.2493 20.1816 69.2404 14.8178C67.6071 13.9619 65.7079 16.3014 67.3412 17.5377C76.0396 24.4042 87.0741 29.2164 96.8741 34.2758C104.718 38.3272 112.638 42.1884 120.519 46.1257C120.7 46.195 120.899 46.1965 121.08 46.13C121.261 46.0634 121.412 45.9333 121.505 45.7638C121.598 45.5943 121.626 45.3968 121.584 45.208C121.543 45.0193 121.434 44.852 121.279 44.7372H121.184Z" fill="#1B2121"/>
<path d="M120.747 46.0687C125.97 51.7749 131.364 57.2718 136.91 62.6166C138.087 63.7388 139.758 61.9699 138.657 60.7145C133.358 55.1035 127.546 50.0059 121.944 44.7372C121.773 44.6113 121.562 44.5522 121.35 44.5707C121.139 44.5893 120.941 44.6844 120.795 44.8382C120.648 44.992 120.562 45.194 120.554 45.4065C120.545 45.6189 120.614 45.8273 120.747 45.9926V46.0687Z" fill="#1B2121"/>
<path d="M138.391 62.6735C153.015 53.4866 168.228 45.1936 182.263 35.0746C184.561 33.4198 182.263 29.6347 179.946 31.2705C166.158 41.7699 151.192 50.5954 137.194 60.6573C136.017 61.5133 137.194 63.3963 138.391 62.5594V62.6735Z" fill="#1B2121"/>
<path d="M119.627 45.8978C114.157 50.9383 107.833 55.0657 102.667 60.4486C101.546 61.6278 103.331 63.2826 104.566 62.1794C109.979 57.0819 115.961 52.517 120.956 47.0961C121.082 46.9248 121.141 46.7134 121.122 46.5016C121.104 46.2898 121.009 46.092 120.855 45.9452C120.702 45.7984 120.5 45.7126 120.288 45.7039C120.076 45.6951 119.868 45.7641 119.703 45.8978H119.627Z" fill="#1B2121"/>
<path d="M104.167 60.3151C89.8849 49.9679 75.109 40.3435 60.3331 30.7C57.9591 29.1593 55.794 33.0776 58.206 34.5041C73.1338 43.7672 88.1946 52.878 103.066 62.2552C104.338 63.054 105.326 61.0949 104.167 60.258V60.3151Z" fill="#1B2121"/>
<path d="M119.988 46.1445C118.829 59.4589 119.646 73.0967 119.988 86.4872C119.988 86.7041 120.074 86.9121 120.227 87.0655C120.38 87.2189 120.588 87.3051 120.804 87.3051C121.021 87.3051 121.229 87.2189 121.382 87.0655C121.535 86.9121 121.621 86.7041 121.621 86.4872C121.963 73.1728 122.779 59.497 121.621 46.1255C121.621 45.9086 121.535 45.7006 121.382 45.5472C121.229 45.3938 121.021 45.3076 120.804 45.3076C120.588 45.3076 120.38 45.3938 120.227 45.5472C120.074 45.7006 119.988 45.9086 119.988 46.1255V46.1445Z" fill="#1B2121"/>
<path d="M43.43 113.383C71.9183 115.932 100.635 115.285 129.104 114.828C140.385 114.657 151.686 114.201 162.967 113.763C173.451 113.345 184.257 113.497 194.646 112.013C197.039 111.671 197.096 108.076 194.646 108.209C172.805 109.027 150.964 110.587 129.104 111.1C100.616 111.747 71.8993 113.002 43.468 110.834C41.7967 110.701 41.8917 113.269 43.468 113.421L43.43 113.383Z" fill="#1B2121"/>
<path d="M130.699 66.117C130.546 65.9504 130.348 65.8316 130.129 65.7746C129.93 65.6724 129.707 65.6264 129.484 65.6415H129.028C128.751 65.726 128.501 65.8837 128.306 66.098L128.04 66.4594L127.869 66.8968C127.803 67.1331 127.803 67.3833 127.869 67.6196C127.873 67.7809 127.918 67.9384 128.002 68.0761C128.054 68.2257 128.139 68.3621 128.249 68.4755C128.327 68.6042 128.439 68.7094 128.572 68.7799C128.689 68.8916 128.833 68.9704 128.99 69.0081C129.206 69.121 129.45 69.1673 129.693 69.1413H130.167L130.585 68.951L130.946 68.6657L131.022 68.2663L131.193 67.8288C131.25 67.5913 131.25 67.3436 131.193 67.106C131.194 66.9442 131.147 66.7856 131.06 66.6496C130.977 66.4338 130.847 66.239 130.68 66.0789L130.699 66.117Z" fill="#1B2121"/>
<path d="M130.699 75.5315C130.546 75.365 130.348 75.2461 130.129 75.1892C129.93 75.087 129.707 75.041 129.484 75.056H129.028C128.751 75.1406 128.501 75.2983 128.306 75.5125L128.04 75.8739L127.869 76.3114C127.803 76.5477 127.803 76.7978 127.869 77.0342C127.873 77.1954 127.918 77.3529 128.002 77.4907C128.054 77.6403 128.139 77.7766 128.249 77.8901C128.327 78.0188 128.439 78.1239 128.572 78.1944C128.689 78.3062 128.833 78.385 128.99 78.4227C129.206 78.5355 129.45 78.5818 129.693 78.5558H130.167L130.585 78.3656L130.946 78.0803L131.022 77.776L131.193 77.3385C131.25 77.101 131.25 76.8532 131.193 76.6157C131.194 76.4539 131.147 76.2953 131.06 76.1592C130.977 75.9434 130.847 75.7486 130.68 75.5886L130.699 75.5315Z" fill="#1B2121"/>
<path d="M205.262 36.2724C202.794 37.4137 201.179 40.457 199.812 42.6633C197.4 46.6171 195.255 50.7284 193.392 54.9697C193.264 55.2848 193.256 55.6362 193.369 55.9571C193.482 56.278 193.709 56.546 194.007 56.7103C194.304 56.8746 194.652 56.9237 194.983 56.8482C195.315 56.7728 195.607 56.5781 195.804 56.3011C198.159 52.7062 200.078 48.9592 202.186 45.2311C203.629 42.6633 205.49 40.4379 207.029 37.9462C207.75 36.767 206.288 35.7969 205.262 36.2724Z" fill="#1B2121"/>
<path d="M44.9874 57.9182C43.639 52.6305 41.9677 47.4759 40.2394 42.2832C38.682 37.5661 37.3905 31.86 34.9026 27.5613C34.0099 26.0206 31.1041 26.6864 31.408 28.5884C32.0917 33.4957 34.9975 38.7644 36.9157 43.2913C39.0429 48.3508 41.3789 53.3152 43.563 58.3557C43.5917 58.4493 43.6385 58.5364 43.7008 58.612C43.7631 58.6875 43.8396 58.75 43.926 58.796C44.0125 58.8419 44.1071 58.8703 44.2044 58.8796C44.3018 58.8889 44.4001 58.8789 44.4936 58.8502C44.5871 58.8215 44.6741 58.7746 44.7495 58.7122C44.825 58.6498 44.8874 58.5732 44.9333 58.4866C44.9791 58.4001 45.0075 58.3053 45.0168 58.2078C45.0261 58.1103 45.0161 58.0118 44.9874 57.9182Z" fill="#1B2121"/>
</svg>
