<svg width="220" height="122" viewBox="0 0 229 122" fill="none" xmlns="http://www.w3.org/2000/svg">
<path d="M9.91445 99.1414C8.6119 98.9312 7.29254 98.8423 5.97345 98.8759L9.05965 103.954C12.146 103.004 15.2858 102.236 18.4626 101.653L18.2516 92.8022C14.355 93.7647 10.4806 94.7714 6.56182 95.6786C5.70803 95.9265 4.93506 96.3947 4.32103 97.0357C3.70699 97.6768 3.27367 98.4681 3.06486 99.3295C2.45428 102.361 1.95472 105.414 1.49956 108.468C1.04441 111.521 2.97606 114.951 6.45081 114.619L8.37135 114.442L3.93078 107.063L4.064 106.786C-0.443191 109.652 2.76512 117.927 8.08271 115.637C19.4173 110.824 32.3616 109.065 44.3067 106.133C57.1289 102.991 69.9622 100.513 83.1618 100.015L76.3011 93.5102C76.2924 94.6914 76.6405 95.8478 77.3002 96.8292C79.8314 101.255 86.4922 100.834 88.8679 96.5526C91.2436 92.2711 87.9576 86.3523 82.8398 86.5957C55.7745 88.1666 30.4521 97.0173 5.20744 106.145L9.22617 114.995C10.2725 114.466 11.1867 113.71 11.9016 112.782C14.244 109.762 12.9007 103.854 8.16043 104.385L6.23988 104.596L11.3354 109.43C11.6656 106.802 12.2379 104.21 13.0451 101.686L8.19373 105.558C13.0627 104.941 17.7645 103.385 22.0372 100.978C26.278 98.544 23.7691 92.7358 19.5061 92.4813C16.0758 92.2822 13.3781 93.7979 10.4362 95.3357C7.49434 96.8735 4.8855 97.6811 3.07597 100.513C1.26643 103.345 4.40814 106.045 7.08359 105.448C8.12839 105.303 9.14153 104.985 10.081 104.507C12.4012 103.567 13.034 99.4512 9.94776 98.9755L9.91445 99.1414Z" fill="#72CE52"/>
<path d="M21.7157 100.005C27.2664 101.62 32.9837 100.005 38.5566 99.0642C44.5736 98.0574 50.6128 97.2277 56.6631 96.4754C69.1522 94.9154 81.6524 93.6985 94.2304 93.2781C119.075 92.4594 144.054 94.3844 168.199 100.436C176.814 102.649 180.189 89.0077 171.53 87.0937C146.061 81.5231 119.963 79.3431 93.9195 80.6106C81.1477 81.1848 68.4173 82.459 55.786 84.4275C49.6025 85.401 43.4412 86.5405 37.3132 87.8018C31.1852 89.063 24.9129 89.948 20.0283 94.1963C17.9301 96.0328 19.3844 99.3297 21.7157 100.005Z" fill="#72CE52"/>
<path d="M61.5474 96.2869C65.7327 99.8382 71.8385 99.6612 77.0895 99.3293C83.9724 98.8867 90.8331 99.3293 97.6938 98.9974C103.444 98.6986 102.934 90.8216 97.4828 90.3127C91.552 89.91 85.5946 90.166 79.7205 91.076C74.0921 91.8173 68.9188 91.6624 63.3125 91.8173C61.1589 91.8837 59.8267 94.8044 61.5807 96.2426L61.5474 96.2869Z" fill="#72CE52"/>
<path d="M64.5004 101.465C69.0964 103.456 74.2918 102.936 79.1987 102.571C85.1268 102.162 91.0328 101.465 96.961 101.144C109.039 100.546 121.195 100.225 133.285 100.402C145.511 100.45 157.71 101.56 169.742 103.721C175.46 104.818 181.112 106.233 186.672 107.959C192.433 109.74 197.84 112.849 203.912 113.17C209.186 113.446 211.828 106.012 207.975 102.659C203.479 98.7651 197.429 97.515 191.812 95.8997C186.212 94.3094 180.526 93.0351 174.782 92.0829C162.4 90.0931 149.844 89.3813 137.315 89.9587C125.103 90.4123 112.792 91.2089 100.68 92.4812C95.2292 93.0564 89.8228 94.0411 84.4275 95.0146C78.1218 96.121 70.8948 96.0435 64.8889 98.1898C63.5567 98.6655 63.0017 100.845 64.5337 101.509L64.5004 101.465Z" fill="#72CE52"/>
<path d="M163.237 93.1563C170.342 94.8269 177.458 96.243 184.474 98.0352C191.49 99.8275 197.796 104.098 204.912 105.536C213.471 107.262 216.724 93.9529 208.187 92.4482C200.738 91.1428 193.755 88.2774 186.195 87.3038C178.635 86.3303 171.452 86.463 163.992 86.1975C160.006 86.0979 159.396 92.2159 163.226 93.101L163.237 93.1563Z" fill="#72CE52"/>
<path d="M205.933 99.7611C204.523 103.755 202.203 111.035 206.855 113.679C208.62 114.674 210.64 114.464 212.505 115.161C214.937 116.068 217.323 117.197 219.699 118.237C220.466 118.632 221.321 118.825 222.183 118.797C223.046 118.769 223.887 118.521 224.626 118.077C225.365 117.634 225.978 117.009 226.406 116.262C226.834 115.515 227.063 114.671 227.07 113.811C227.237 109.862 228.547 104.308 225.316 101.321C222.408 98.5884 217.956 97.0395 214.481 95.9332C206.577 93.2338 201.759 105.768 209.153 109.453C211.218 110.484 213.504 111.001 215.814 110.957C216.534 110.933 217.253 110.871 217.967 110.769C218.667 110.703 220.188 111.145 219.077 110.47L216.435 107.218C216.835 109.484 217.072 111.777 217.146 114.077L223.318 109.143C220.976 108.424 218.644 107.66 216.302 106.93C215.4 106.614 214.476 106.362 213.538 106.178L211.551 105.89C210.496 105.746 210.44 105.89 211.34 106.3L212.45 108.158C211.884 105.315 211.773 102.394 210.918 99.6173C210.119 97.0064 206.721 97.4046 205.9 99.739L205.933 99.7611Z" fill="#72CE52"/>
<path d="M15.4431 87.1599L14.7215 87.4254L18.6847 88.3768L18.0408 87.7573L19.151 91.6848C19.4396 89.6159 22.4814 86.8833 23.7359 85.2902C25.4233 83.1328 27.1329 80.9976 28.8314 78.8513C32.0842 74.7579 35.2703 70.5207 38.8228 66.6817C45.4836 59.5459 54.9976 54.9989 63.7233 50.9608C73.2484 46.5355 82.8289 45.5951 93.1976 44.9755C97.6572 44.7671 102.103 44.3351 106.519 43.6811C110.305 43.0616 114.057 41.8889 117.898 41.7119C126.691 41.3247 135.55 43.7807 144.098 45.6615C153.223 47.6639 163.603 50.9608 170.741 57.3332C171.996 58.4396 172.762 60.0659 173.927 61.2828C175.382 62.7874 177.191 63.6946 178.756 65.0444C181.865 67.7217 184.307 71.2841 187.127 74.2601C193.71 81.1857 200.082 88.1888 203.979 97.0394L215.247 90.1248C190.491 70.0782 156.52 69.5471 125.991 69.4254C91.8544 69.3037 56.1632 73.0984 23.5027 83.3762L30.9629 95.4573C49.5356 70.6092 77.3004 54.147 108.906 54.3904C140.512 54.6338 167.311 73.541 194.643 86.651C203.069 90.6891 209.397 79.0837 201.614 74.0609C191.556 67.5668 177.713 66.737 166.09 65.3763C152.824 63.8274 139.502 62.9534 126.125 62.6215C100.136 61.9798 73.6036 61.8581 48.0703 67.3123C38.523 69.359 42.9303 83.9073 52.5108 81.8384C75.8794 76.7383 100.525 76.9042 124.337 77.1476C136.316 77.2693 148.294 77.7671 160.217 78.8735C171.574 79.9798 184.762 80.3891 194.632 86.6178L201.603 74.0277C171.163 59.6455 141.655 39.8864 106.664 40.6277C72.005 41.3578 42.5417 59.9552 20.2944 85.3012C19.2287 86.4896 18.5764 87.9891 18.4345 89.5766C18.2926 91.1642 18.6687 92.7549 19.5069 94.1123C20.3451 95.4697 21.6006 96.5212 23.0866 97.1104C24.5726 97.6996 26.2098 97.7949 27.7546 97.3824C58.9941 89.8151 89.9227 84.206 122.117 83.6971C137.941 83.3761 153.768 84.1376 169.487 85.9761C182.809 87.5913 195.275 91.3529 205.811 99.938C210.496 103.755 220.065 99.8716 217.079 93.0234C213.623 85.2226 208.988 77.9956 203.335 71.5938C198.184 65.6307 192.322 58.5502 185.762 54.1359C182.942 52.2331 181.177 49.7106 178.501 47.6971C174.717 45.0092 170.714 42.6408 166.534 40.6166C158.63 36.5564 149.882 34.7199 141.234 33.0936C133.107 31.5779 125.281 29.6529 116.955 30.3056C108.906 30.9362 101.057 33.1378 92.9534 33.8016C84.261 34.5207 75.3576 35.2288 67.1203 38.3265C58.3034 41.819 49.9004 46.2713 42.0644 51.6025C33.5385 57.2337 27.8101 65.4205 21.7598 73.4635C18.5461 77.514 15.5447 81.7273 12.7676 86.0867C11.0802 88.8968 10.2809 91.7511 13.1007 94.1629C13.6161 94.6593 14.2554 95.0093 14.9523 95.1766C15.6491 95.3439 16.3782 95.3224 17.0639 95.1144L17.7744 94.7935C22.3926 92.7579 20.3832 85.2127 15.4431 87.0492V87.1599Z" fill="#72CE52"/>
<path d="M39.8443 72.5452C53.2438 64.2367 66.7209 60.5415 82.2519 58.5059C97.0168 56.5588 111.959 54.4235 126.658 51.8679C133.518 50.6952 131.098 40.5723 124.804 40.3621C116.788 40.0855 108.462 42.0216 100.591 43.4045C92.887 44.7653 85.1937 46.1261 77.4782 47.4315C70.007 48.7038 62.4802 50.0978 55.4086 52.9632C48.0927 55.895 41.3541 59.9994 34.6711 64.1371C29.2758 67.4561 34.449 75.8863 39.8665 72.5231L39.8443 72.5452Z" fill="#72CE52"/>
<path d="M94.7854 48.6705C111.116 46.823 128.09 48.1506 143.121 55.1647C150.162 58.6081 157.024 62.404 163.681 66.5377C167.011 68.507 170.342 70.3988 173.739 72.2796C176.643 73.8017 179.213 75.8854 181.299 78.4087C184.962 82.5131 191.856 78.8291 191.734 73.7953C191.523 64.6127 181.621 60.5193 174.716 56.7357C166.701 52.3104 158.907 47.52 150.415 44.0793C132.586 36.855 113.48 36.2022 94.5634 38.5476C88.1689 39.3442 88.291 49.3897 94.8187 48.6595L94.7854 48.6705Z" fill="#72CE52"/>
<path d="M73.1816 68.1862C84.9381 63.1303 97.8046 64.7455 110.249 64.8672C116.089 64.8672 121.928 64.2145 127.756 64.48C133.24 64.7344 142.022 65.4425 146.562 68.5402C151.48 71.8592 158.019 67.5224 158.596 62.2784C159.262 56.26 153.778 52.3214 148.15 53.5605C145.308 54.2022 140.789 52.4542 137.97 52.0227C134.815 51.4833 131.631 51.136 128.434 50.9828C121.551 50.7394 114.646 51.9342 107.763 52.0891C94.1967 52.3546 81.1747 52.0891 69.0519 59.07C64.1783 61.858 67.8196 70.5205 73.1816 68.2194V68.1862Z" fill="#72CE52"/>
<path d="M90.9994 31.2239C89.8687 29.7964 88.9249 28.2313 88.1908 26.5663L85.8928 27.9824C86.7587 29.4575 87.6542 30.8846 88.5793 32.2638C88.7884 32.6013 89.1234 32.8421 89.5106 32.9334C89.8978 33.0247 90.3056 32.959 90.6442 32.7506C90.9828 32.5423 91.2245 32.2085 91.3161 31.8226C91.4077 31.4367 91.3417 31.0303 91.1326 30.6929C90.4111 29.3653 89.7117 28.0155 89.0456 26.6437C88.7347 26.002 88.0687 25.0616 88.1908 24.3204C88.3865 23.7363 88.6875 23.1927 89.0789 22.7162C90.9217 19.8508 93.908 21.0678 96.4614 22.2737C96.8252 22.4575 97.2388 22.5197 97.6409 22.4509C98.043 22.3822 98.4121 22.1861 98.6936 21.8919C98.9752 21.5977 99.1541 21.2209 99.2039 20.8174C99.2538 20.4139 99.1718 20.0052 98.9703 19.6517C96.9609 16.4987 96.4947 11.7083 98.9148 8.5884C101.823 4.86007 106.197 9.62835 107.851 12.0955C108.806 13.5226 111.36 13.7882 112.159 11.9959C112.804 10.3875 113.978 9.04547 115.489 8.19012C116.411 7.68121 118.698 6.71871 119.63 7.59271C120.119 8.05736 120.096 9.05306 120.096 9.65048C120.039 10.5712 120.155 11.4944 120.441 12.372C121.362 14.7507 123.771 15.0826 126.069 14.7838C127.867 14.5405 129.843 13.9762 131.242 15.514C132.641 17.0518 131.953 18.6007 131.242 20.1827C130.254 22.2737 129.843 24.6634 131.62 26.4777C132.841 27.7058 134.673 27.7943 134.573 29.7967L137.659 27.3407C132.667 26.488 127.588 26.2576 122.539 26.6548C119.988 26.8999 117.421 26.9185 114.868 26.7101C112.373 26.4 109.848 26.4336 107.363 26.8096C105.009 27.1969 102.723 27.916 100.413 28.4581C99.3935 28.7307 98.3596 28.9486 97.3162 29.1108C96.377 29.354 95.3911 29.354 94.452 29.1108C93.4196 28.6019 93.2752 26.5331 93.1531 25.5263C93.1531 25.6591 93.1531 24.6191 93.1531 24.6081C94.1856 25.8803 91.4879 24.6081 91.5434 24.5195C91.5576 24.8898 91.591 25.2591 91.6433 25.6259C91.6664 26.3441 91.7744 27.0571 91.9653 27.75C92.8534 30.5601 96.1505 32.1753 98.7149 30.4052C99.2443 30.001 99.6722 29.4799 99.965 28.8828C100.258 28.2857 100.408 27.6291 100.402 26.9645C100.399 26.3378 100.286 25.7163 100.069 25.128C100.069 24.9289 99.925 24.7408 99.8584 24.5527C99.7748 24.3685 99.7007 24.1802 99.6364 23.9885C99.5254 23.6455 99.5142 23.7341 99.5809 24.2651L98.9037 25.482L99.1035 25.2497L97.9156 25.9688H97.7491L96.3725 25.6369C95.9729 25.471 95.8064 24.6966 96.1727 25.6369C96.2837 25.9467 96.428 26.2565 96.5613 26.5663C96.857 27.2098 97.2297 27.8153 97.6714 28.3696C98.5299 29.781 99.9086 30.8015 101.513 31.2128C102.357 31.3203 103.21 31.1016 103.898 30.6016C104.585 30.1017 105.054 29.3584 105.209 28.5245C105.417 26.9538 105.097 25.3587 104.299 23.9885C103.189 21.7758 101.279 19.9836 100.735 17.4833C100.436 16.1336 99.8362 12.3831 101.368 11.6751L99.9583 12.0844H99.814L98.5595 11.3985C99.4476 12.2282 99.6697 14.7175 99.925 16.0119C100.238 17.9432 100.698 19.8479 101.302 21.7095C102.489 25.2276 104.132 29.7857 107.962 31.0248C108.333 31.1225 108.719 31.1459 109.099 31.0934C109.478 31.0408 109.843 30.9136 110.173 30.7189C110.503 30.5243 110.79 30.2662 111.018 29.9597C111.247 29.6532 111.412 29.3045 111.504 28.9338C112.014 24.8957 110.238 21.5214 108.617 17.9369L106.397 13.0137C106.064 12.2614 105.676 11.5091 105.387 10.7236C105.387 10.7236 105.087 9.94919 105.176 10.0709C105.542 10.5245 102.956 10.3032 102.956 11.1772C103.114 11.8471 103.349 12.4966 103.655 13.1133L104.543 15.5693C105.187 17.3284 105.798 19.0985 106.453 20.8465C107.563 23.7783 109.128 26.7765 112.259 27.9049C114.324 28.6683 116.699 28.0487 117.421 25.7476C117.82 24.0349 117.628 22.2382 116.877 20.6474C116.239 19.241 115.497 17.8838 114.657 16.5872C114.252 15.9776 113.881 15.346 113.546 14.6953C113.395 14.3836 113.276 14.0574 113.191 13.7218C113.163 13.5979 113.163 13.4695 113.191 13.3456C113.191 13.0358 113.191 13.0358 113.125 13.3456C113.047 13.755 112.625 13.766 111.881 13.3456C111.16 13.1686 111.681 12.8256 111.737 13.3456C111.792 13.8656 112.003 14.3192 112.103 14.7728C112.447 16.3327 112.769 17.9037 113.213 19.4304C114.124 22.2848 115.8 25.7476 118.62 27.1747C119.113 27.4307 119.658 27.5698 120.214 27.5812C120.769 27.5926 121.32 27.4759 121.823 27.2404C122.325 27.0048 122.767 26.6566 123.113 26.2231C123.458 25.7895 123.699 25.2822 123.815 24.7408C124.27 22.8711 123.46 20.6253 122.927 18.8441C122.394 17.0629 121.662 15.1157 120.94 13.3124L119.83 10.436L119.364 9.24114C118.953 8.13481 119.364 8.55521 118.997 9.11944L117.998 10.1594L117.854 10.2258H116.344C115.4 10.0709 115.434 8.96456 115.767 10.3696C115.9 10.9596 116.011 11.546 116.1 12.1287C116.608 15.7476 116.427 19.4296 115.567 22.9817C115.359 23.5559 115.28 24.1686 115.336 24.7765C115.391 25.3843 115.58 25.9727 115.889 26.4999C116.744 27.7943 118.109 28.0266 119.575 28.1815L127.49 29.1108C128.015 29.2263 128.562 29.1885 129.066 29.0022C129.57 28.8158 130.01 28.4886 130.332 28.0598C130.657 27.6265 130.844 27.1063 130.87 26.5661C130.895 26.0259 130.758 25.4904 130.476 25.0285C129.41 23.5434 127.996 22.3396 126.358 21.5214C125.247 20.9018 123.627 20.4151 122.805 19.3087L119.83 23.369C123.16 24.2762 126.391 25.305 129.666 26.3118L127.989 22.4728C127.644 23.1827 127.456 23.9579 127.436 24.7464C127.416 25.5349 127.566 26.3184 127.875 27.0445C128.184 27.7706 128.646 28.4225 129.228 28.9563C129.811 29.4901 130.501 29.8936 131.253 30.1397C131.694 30.2416 132.153 30.2273 132.586 30.0981C133.019 29.9689 133.411 29.7293 133.722 29.4031C134.034 29.0768 134.255 28.6752 134.363 28.2378C134.471 27.8004 134.463 27.3425 134.34 26.9092C132.772 22.3064 129.538 18.452 125.27 16.1004C125.148 16.034 124.726 15.7132 124.581 15.7353C124.437 15.7574 124.393 15.7353 124.581 15.9897C124.694 16.2425 124.707 16.5281 124.619 16.7902C124.53 17.0523 124.347 17.2719 124.104 17.4058L122.816 17.7931C122.361 17.6161 122.361 17.6603 122.816 17.9037C122.971 18.0045 123.12 18.1153 123.26 18.2356C123.682 18.5786 124.071 18.9658 124.47 19.3419C125.159 19.9947 125.836 20.6585 126.58 21.2448C128.522 22.7715 131.586 24.3425 133.451 21.7869C134.939 19.7291 133.74 16.9412 132.175 15.3259C131.44 14.5239 130.531 13.9005 129.517 13.5034C128.502 13.1064 127.41 12.9465 126.324 13.0358C125.653 13.0699 125.02 13.36 124.557 13.846C124.094 14.332 123.837 14.9767 123.838 15.6468C123.858 16.3217 124.144 16.9615 124.635 17.4274C125.125 17.8934 125.78 18.148 126.457 18.136C126.77 18.0605 127.095 18.0499 127.412 18.1051C127.729 18.1603 128.032 18.2801 128.3 18.4569C128.511 18.6117 128.445 18.5232 128.667 18.8551C128.775 18.9537 128.846 19.0866 128.867 19.2313C128.966 19.7734 129.022 19.6849 129.044 18.9768L129.966 18.0143H131.375C130.402 17.6799 129.544 17.0777 128.9 16.2774C127.916 15.3156 126.863 14.428 125.747 13.6222C125.15 13.1158 124.416 12.7972 123.637 12.7066C122.859 12.616 122.071 12.7576 121.373 13.1133C120.776 13.4979 120.299 14.0419 119.996 14.6835C119.694 15.3251 119.579 16.0383 119.663 16.742C119.93 19.7734 123.349 20.4704 125.314 22.1631C127.267 23.8321 128.72 26.0069 129.51 28.447L132.597 25.2055C132.774 25.2718 132.819 24.9068 132.719 25.0727C132.908 24.7173 133.014 24.324 133.029 23.922C133.045 23.52 132.969 23.1198 132.808 22.7509C132.647 22.3821 132.405 22.0542 132.099 21.7915C131.793 21.5288 131.432 21.3382 131.042 21.2337C127.834 20.061 124.548 19.0875 121.251 18.1471C119.108 17.5497 116.81 20.3044 118.276 22.2073C119.429 23.6387 120.88 24.8049 122.528 25.6259C123.638 26.2565 125.17 26.7322 125.925 27.9049L128.911 23.8336L123.904 23.2251L121.495 22.9154C120.869 22.8953 120.247 22.8062 119.641 22.6498L120.663 23.6124L120.496 23.3358L120.907 24.7187C121.012 24.4284 121.086 24.1281 121.129 23.8226C121.251 23.3358 121.362 22.8379 121.451 22.3401C121.628 21.3776 121.75 20.4151 121.85 19.4526C122.061 17.5609 122.106 15.6544 121.984 13.755C121.795 10.7457 121.495 4.5503 117.055 4.64987C116.054 4.71262 115.119 5.166 114.452 5.91163C113.785 6.65726 113.439 7.63499 113.491 8.63266C113.491 10.3807 114.49 12.1287 115.112 13.7218C115.8 15.4808 116.488 17.2288 117.088 19.0211C117.399 19.9947 117.698 20.9682 117.943 21.9639C118.031 22.3069 118.065 23.2583 118.287 23.4685C118.287 23.5238 118.365 23.1919 118.398 23.1366L119.408 22.0856L119.641 21.9861H121.173C121.517 22.1963 121.562 22.2073 121.318 21.9861C121.165 21.8582 121.021 21.7215 120.885 21.5767C120.685 21.3749 120.503 21.1566 120.341 20.924C120.011 20.4722 119.725 19.9907 119.486 19.4857C118.892 18.0986 118.449 16.6521 118.165 15.1711C117.432 12.0402 116.633 7.74759 112.459 7.86929C108.018 7.99099 106.786 13.058 108.229 16.4987C108.935 18.0198 109.732 19.4975 110.616 20.924C111.149 21.8533 112.059 23.4907 111.726 24.3204L112.447 22.9928L112.192 23.2251L113.491 22.4396L113.191 22.495H114.768C113.546 22.3069 112.947 21.1452 112.414 19.9393C111.681 18.313 111.137 16.6204 110.516 14.9166C109.284 11.4759 107.807 4.32904 102.623 5.68982C101.654 5.97012 100.812 6.5764 100.241 7.40545C99.6707 8.2345 99.4058 9.23508 99.492 10.2368C99.5698 12.3057 100.802 14.286 101.624 16.1336C102.445 17.9811 103.366 20.0721 104.243 22.0524C104.954 23.6677 106.131 25.7033 105.909 27.5841L109.406 25.482C109.039 25.3714 108.606 24.2651 108.451 23.9664C108.032 23.1666 107.661 22.3428 107.341 21.4993C106.554 19.5105 105.963 17.4505 105.576 15.3481C104.954 12.1176 103.255 3.98607 98.1932 7.0838C94.5297 9.29645 94.6629 14.4741 95.2957 18.1471C95.6751 20.1391 96.4817 22.026 97.6603 23.6787C98.1377 24.3757 98.6372 25.0395 99.0813 25.7586C99.2367 26.002 99.4254 26.2786 99.5587 26.5441C99.6919 26.8096 99.7474 27.053 99.8251 27.3075C99.925 27.9492 100.003 27.8275 100.047 26.9756L101.002 25.9688L100.758 26.1569L102.123 25.7586C102.989 25.6812 102.911 26.1458 102.301 25.5152C102.156 25.3669 102.022 25.2079 101.901 25.0395C101.581 24.5718 101.338 24.0565 101.179 23.5128C100.967 22.7136 100.511 21.9995 99.8752 21.4687C99.2392 20.9378 98.4538 20.6161 97.627 20.5478C96.8289 20.5209 96.0469 20.7759 95.4193 21.2678C94.7916 21.7597 94.3585 22.4569 94.1967 23.2362C93.9889 24.4956 94.22 25.7879 94.8516 26.8982L97.0164 25.7918C97.2051 26.0795 97.2829 26.1569 97.2496 25.991C97.2163 25.825 97.1829 25.648 97.1941 25.5263C97.2018 24.7615 97.1085 23.9989 96.9165 23.2583C96.7601 22.5705 96.4649 21.9215 96.0488 21.3509C95.6328 20.7803 95.1046 20.3001 94.4964 19.9393C91.4213 18.2688 88.1353 20.8576 87.6579 23.9332C87.2783 26.7828 87.8895 29.6759 89.3897 32.1311C91.166 34.7199 94.2744 35.3616 97.2274 34.9854C100.249 34.4869 103.238 33.8034 106.175 32.9387C109.084 32.2617 112.089 32.0895 115.056 32.4298C118.631 32.7285 122.072 31.9983 125.614 31.7107C129.248 31.4186 132.904 31.5934 136.493 32.2307C136.872 32.3154 137.265 32.314 137.644 32.2265C138.022 32.1391 138.376 31.9678 138.679 31.7255C138.982 31.4832 139.226 31.1761 139.393 30.8268C139.561 30.4776 139.647 30.0953 139.646 29.7082C139.692 28.6928 139.51 27.6799 139.112 26.7438C138.714 25.8077 138.112 24.9722 137.348 24.2983C136.654 23.7616 135.91 23.2912 135.128 22.8932C135.272 22.9817 135.316 23.2694 135.405 23.1477C135.599 22.7934 135.763 22.4233 135.894 22.0414C137.792 18.1471 137.259 13.589 133.518 10.9781C131.892 9.87176 129.927 9.37049 127.967 9.56197C127.379 9.56197 126.802 9.71686 126.224 9.78324C125.969 9.78324 124.87 9.78324 124.726 9.90494C124.581 10.0266 124.115 9.40709 124.87 10.259C127.268 12.9916 125.081 10.6683 125.192 10.5798C125.237 10.1606 125.237 9.73778 125.192 9.31858C125.192 4.94858 121.939 1.82873 117.521 2.43721C115.425 2.73744 113.438 3.5531 111.738 4.81053C110.038 6.06796 108.68 7.72755 107.785 9.63942L112.092 9.52878C110.105 6.9621 107.951 4.42861 104.765 3.35547C103.35 2.85223 101.82 2.75974 100.354 3.08876C98.8881 3.41779 97.5459 4.1548 96.4836 5.2141C92.4093 9.63942 92.4759 16.908 95.7731 21.6652L98.282 19.0322C94.2411 17.3173 89.5007 16.2331 86.5699 20.3929C85.3821 22.0746 84.3497 23.9221 85.0713 26.0131C85.7929 28.104 87.4248 30.2946 88.5793 32.3081L91.1326 30.7371C90.1779 29.3431 89.1973 27.9676 88.1908 26.6105C87.9903 26.3338 87.6921 26.143 87.3562 26.0765C87.0203 26.0101 86.6716 26.073 86.3803 26.2525C86.089 26.432 85.8767 26.7148 85.7863 27.044C85.6958 27.3731 85.7339 27.7243 85.8928 28.0266C86.8925 29.7607 88.1714 31.3192 89.6784 32.64C90.622 33.4808 91.7543 32.1864 90.9994 31.2682V31.2239Z" fill="#72CE52"/>
<path d="M93.6641 23.1255C93.1667 23.0049 92.6418 23.0802 92.1987 23.3357L92.4763 23.214C92.0084 23.3482 91.6106 23.6574 91.3661 24.077C91.2132 24.3642 91.1082 24.6744 91.0553 24.9952C90.9953 25.3608 90.9767 25.7319 90.9998 26.1015C91.022 26.4072 91.022 26.7141 90.9998 27.0198V26.6105C90.9847 26.756 90.9587 26.9002 90.9221 27.0419V27.4623L90.9887 27.8717C91.0892 28.1986 91.2963 28.4828 91.577 28.6793C91.8299 28.8614 92.1308 28.9657 92.4424 28.9795C92.7541 28.9932 93.063 28.9158 93.3311 28.7567C93.8585 28.4651 94.3665 28.1399 94.852 27.7832C95.0803 27.6514 95.2683 27.4602 95.396 27.23C95.5246 26.9883 95.5895 26.718 95.5847 26.4445C95.5688 26.1718 95.4889 25.9065 95.3515 25.6701C95.2026 25.4552 95.0096 25.2742 94.7854 25.139C94.5499 25.0009 94.2816 24.928 94.0083 24.928C93.735 24.928 93.4667 25.0009 93.2312 25.139C92.6916 25.4222 92.169 25.7362 91.6659 26.0794L94.0194 27.8053C94.0803 27.4056 94.0803 26.9991 94.0194 26.5994C93.9639 26.2011 93.8862 25.8139 93.8195 25.4267L93.8862 25.8139C93.8475 25.5683 93.8475 25.3182 93.8862 25.0727V25.4488C93.9089 25.3028 93.9422 25.1585 93.9861 25.0173L93.8639 25.3492C93.9463 25.1701 94.0023 24.9801 94.0305 24.785C94.035 24.7003 94.035 24.6153 94.0305 24.5306C94.0193 24.4721 94.0193 24.412 94.0305 24.3535V24.6744C94.0251 24.6488 94.0251 24.6225 94.0305 24.5969L93.9195 24.8846C93.9522 24.8159 93.9893 24.7494 94.0305 24.6854L93.8639 24.9067C93.8639 24.9067 94.0527 24.7297 93.8639 24.9067C93.6752 25.0837 93.7973 24.9067 93.8639 24.9067C93.9306 24.9067 94.0416 24.8293 93.7529 24.9067C93.9507 24.8487 94.1243 24.7284 94.2478 24.5639C94.3713 24.3994 94.4381 24.1994 94.4381 23.994C94.4381 23.7885 94.3713 23.5886 94.2478 23.4241C94.1243 23.2595 93.9507 23.1393 93.7529 23.0813L93.6641 23.1255Z" fill="#72CE52"/>
<path d="M109.894 14.1202C109.75 14.0538 109.606 13.9875 109.472 13.91C109.339 13.8326 109.295 13.6777 109.339 14.0538L108.307 15.1602C108.922 15.1839 109.538 15.158 110.15 15.0827L112.07 14.9389C112.681 14.9389 113.302 14.8725 113.913 14.8393C114.714 14.954 115.531 14.8106 116.244 14.43C116.443 14.2997 116.605 14.1223 116.718 13.9137C116.83 13.7051 116.889 13.4719 116.888 13.2352C116.874 13.0057 116.801 12.7837 116.677 12.5901C116.553 12.3964 116.381 12.2377 116.178 12.1288C115.419 11.8017 114.568 11.7585 113.78 12.0071L111.715 12.328C111.104 12.4275 110.494 12.5271 109.894 12.6488C109.237 12.7414 108.593 12.9085 107.974 13.1467C107.736 13.2303 107.534 13.3919 107.401 13.605C107.268 13.8181 107.212 14.07 107.241 14.3194C107.293 14.573 107.433 14.8005 107.635 14.9622C107.838 15.1239 108.092 15.2096 108.351 15.2044C108.251 15.2044 108.262 15.2044 108.351 15.2044L107.963 14.9942C108.303 15.262 108.676 15.4851 109.073 15.658C109.266 15.7492 109.487 15.7658 109.692 15.7045C109.897 15.6432 110.072 15.5084 110.183 15.3261C110.277 15.1337 110.295 14.9131 110.233 14.7081C110.172 14.5031 110.035 14.3288 109.85 14.2198L109.894 14.1202Z" fill="#72CE52"/>
<path d="M3.25366 118.9C29.6529 108.833 58.0393 104.352 86.1704 103.202C117.226 101.877 148.334 104.018 178.912 109.585C194.434 112.366 209.702 116.41 224.561 121.677C226.704 122.452 228.18 118.768 226.038 117.927C199.006 107.295 169.809 102.306 140.923 100.226C109.433 97.9806 77.7885 99.3952 46.627 104.441C31.4625 106.886 16.6531 110.581 2.59868 116.743C1.31091 117.307 1.87708 119.42 3.25366 118.889V118.9Z" fill="#143500"/>
<path d="M3.25366 98.5995C29.6529 88.5209 58.0393 84.0402 86.1704 82.8896C117.227 81.572 148.335 83.7205 178.912 89.2953C194.434 92.072 209.702 96.1125 224.561 101.376C226.704 102.151 228.18 98.4668 226.038 97.626C199.006 86.9941 169.809 82.0156 140.923 79.9247C109.433 77.6853 77.789 79.0998 46.627 84.1398C31.4625 86.5958 16.6531 90.2799 2.59868 96.4422C1.31091 97.0064 1.87708 99.1195 3.25366 98.6548V98.5995Z" fill="#143500"/>
<path d="M1.9437 96.973C1.55238 97.7372 1.28629 98.5589 1.1555 99.4069C0.933467 100.314 0.789149 101.243 0.644829 102.173C0.344606 104.027 0.14449 105.895 0.0453482 107.771C-0.0584051 109.525 0.0159875 111.286 0.267383 113.026C0.522717 114.685 0.778047 117.186 2.11023 118.38C2.33212 118.575 2.60473 118.703 2.89653 118.749C3.18833 118.796 3.4874 118.759 3.75914 118.644C4.03089 118.528 4.26421 118.338 4.43212 118.095C4.60003 117.853 4.69567 117.568 4.70798 117.274C4.63557 116.398 4.42191 115.538 4.07519 114.73C3.84994 113.946 3.67931 113.147 3.56452 112.34C3.34948 110.701 3.25671 109.048 3.28698 107.395C3.32579 105.741 3.44807 104.091 3.65333 102.449C3.85316 100.801 4.36383 98.8759 4.00858 97.2385C3.79765 96.2207 2.42107 96.2649 1.9437 97.0172V96.973Z" fill="#143500"/>
<path d="M224.605 98.8539C224.469 100.574 224.566 102.304 224.894 103.998C225.061 105.912 225.16 107.837 225.138 109.762C225.131 111.57 224.99 113.374 224.716 115.161C224.572 115.991 224.406 116.821 224.184 117.628C223.827 118.497 223.602 119.415 223.517 120.35C223.532 120.65 223.634 120.939 223.81 121.182C223.987 121.425 224.23 121.612 224.511 121.72C224.793 121.828 225.099 121.852 225.394 121.789C225.688 121.727 225.958 121.58 226.171 121.368C227.414 120.184 227.725 117.761 227.98 116.135C228.291 114.111 228.424 112.064 228.38 110.017C228.334 108.033 228.182 106.054 227.925 104.087C227.703 102.317 227.581 100.093 226.659 98.5552C226.548 98.3592 226.379 98.2016 226.176 98.1035C225.973 98.0055 225.744 97.9716 225.521 98.0065C225.297 98.0414 225.09 98.1433 224.927 98.2987C224.763 98.4541 224.651 98.6555 224.605 98.876V98.8539Z" fill="#143500"/>
<path d="M101.058 79.8468C98.6378 81.285 98.1605 85.9648 97.7275 88.4208C97.0614 92.4036 96.462 99.0527 100.07 101.697C101.047 102.416 102.945 102.35 103.156 100.801C103.445 98.588 102.69 97.0834 102.379 94.926C102.096 92.8298 102.141 90.7025 102.512 88.62C102.901 86.1307 103.334 83.6636 103.622 81.1744C103.756 79.8689 102.068 79.2272 101.091 79.8136L101.058 79.8468Z" fill="#143500"/>
<path d="M75.4577 80.8317C73.0376 82.2699 72.5602 86.9497 72.1272 89.4168C71.4612 93.3885 70.8506 100.049 74.4696 102.693C75.4466 103.423 77.3449 103.345 77.5448 101.808C77.8334 99.595 77.0785 98.0904 76.7677 95.9331C76.4953 93.8326 76.5402 91.7032 76.9009 89.616C77.3005 87.1267 77.7335 84.6707 78.011 82.1814C78.1331 80.876 76.4568 80.2343 75.4799 80.8096L75.4577 80.8317Z" fill="#143500"/>
<path d="M48.4477 84.0731C46.0387 85.799 45.9943 90.3571 45.75 92.9238C45.3726 97.161 45.3948 103.722 49.4246 106.2C49.7111 106.351 50.0318 106.425 50.3557 106.416C50.6795 106.406 50.9954 106.314 51.2726 106.147C51.5499 105.98 51.7789 105.744 51.9376 105.462C52.0962 105.181 52.179 104.863 52.1778 104.54C52.2888 102.505 51.2897 100.934 50.8456 99.0086C50.4413 96.9807 50.3291 94.9057 50.5126 92.8463C50.6791 90.3903 50.9677 87.8014 50.9788 85.445C50.9676 85.1557 50.8812 84.8742 50.7279 84.6282C50.5747 84.3823 50.3599 84.1802 50.1047 84.0419C49.8495 83.9035 49.5625 83.8337 49.272 83.8392C48.9816 83.8446 48.6975 83.9253 48.4477 84.0731Z" fill="#143500"/>
<path d="M22.9812 89.4942C20.5611 91.2201 20.5167 95.7781 20.2836 98.3448C19.895 102.582 19.9172 109.143 23.9581 111.621C24.2442 111.769 24.5637 111.841 24.886 111.831C25.2082 111.82 25.5223 111.727 25.7979 111.56C26.0735 111.393 26.3013 111.159 26.4593 110.879C26.6174 110.599 26.7003 110.283 26.7002 109.961C26.8112 107.926 25.8121 106.355 25.3791 104.43C24.963 102.403 24.8508 100.327 25.0461 98.2674C25.2015 95.8224 25.4901 93.2336 25.5123 90.8771C25.5011 90.5878 25.4147 90.3063 25.2614 90.0604C25.1082 89.8144 24.8934 89.6123 24.6382 89.474C24.3829 89.3357 24.096 89.2658 23.8055 89.2713C23.5151 89.2768 23.231 89.3574 22.9812 89.5053V89.4942Z" fill="#143500"/>
<path d="M124.193 81.3628C124.415 83.7525 124.837 86.12 125.225 88.5097C125.516 90.1598 125.624 91.8367 125.547 93.5103C125.414 95.9 124.237 98.1458 124.559 100.513C124.726 101.764 126.136 102.958 127.379 102.04C131.187 99.2411 130.71 92.8908 130.055 88.6978C129.633 86.1754 129.178 81.3739 126.646 79.8472C126.391 79.7104 126.105 79.6425 125.815 79.65C125.525 79.6575 125.243 79.7402 124.995 79.8899C124.747 80.0396 124.543 80.2512 124.402 80.5037C124.261 80.7562 124.189 81.0409 124.193 81.3296V81.3628Z" fill="#143500"/>
<path d="M152.058 84.2613C152.28 86.6509 152.701 89.0185 153.09 91.4082C153.38 93.0583 153.488 94.7352 153.412 96.4088C153.279 98.7984 152.113 101.044 152.424 103.412C152.59 104.662 154 105.857 155.255 104.939C159.052 102.14 158.585 95.7892 157.919 91.5962C157.497 89.0738 157.042 84.2723 154.511 82.7456C154.256 82.6089 153.969 82.5409 153.679 82.5484C153.39 82.5559 153.107 82.6386 152.859 82.7883C152.612 82.9381 152.407 83.1496 152.267 83.4021C152.126 83.6546 152.054 83.9393 152.058 84.2281V84.2613Z" fill="#143500"/>
<path d="M180.966 88.4875C180.821 90.9214 180.966 93.4992 180.966 95.9995C181 97.8638 180.784 99.7243 180.322 101.531C179.711 103.744 178.557 105.259 178.534 107.561C178.549 107.883 178.646 108.197 178.818 108.471C178.99 108.745 179.231 108.969 179.516 109.123C179.801 109.277 180.121 109.355 180.445 109.348C180.769 109.342 181.086 109.252 181.365 109.087C185.362 106.996 185.806 100.469 185.739 96.3977C185.739 93.9417 185.928 89.0628 183.796 87.3148C183.555 87.1009 183.257 86.9605 182.938 86.9103C182.619 86.86 182.293 86.902 181.997 87.0313C181.701 87.1606 181.449 87.3718 181.27 87.6397C181.091 87.9076 180.993 88.221 180.988 88.5428L180.966 88.4875Z" fill="#143500"/>
<path d="M204.756 93.8974C204.612 96.3314 204.756 98.9091 204.756 101.398C204.792 103.263 204.572 105.125 204.101 106.93C203.502 109.143 202.347 110.658 202.325 112.959C202.339 113.282 202.437 113.596 202.609 113.87C202.781 114.144 203.021 114.368 203.306 114.522C203.591 114.676 203.912 114.753 204.236 114.747C204.56 114.741 204.877 114.651 205.156 114.486C209.152 112.395 209.596 105.868 209.53 101.797C209.53 99.3406 209.718 94.4617 207.576 92.7026C207.339 92.4821 207.042 92.3348 206.723 92.2788C206.404 92.2227 206.075 92.2601 205.776 92.3866C205.478 92.5131 205.223 92.7232 205.041 92.9913C204.86 93.2595 204.761 93.5742 204.756 93.8974Z" fill="#143500"/>
<path d="M11.2465 94.738C13.7665 90.9986 14.799 86.4847 16.8527 82.4577C18.9067 78.4426 21.3101 74.6148 24.0354 71.0183C28.9079 64.6459 34.7075 59.0339 41.2426 54.368C51.2717 47.28 62.4037 41.8864 74.1917 38.4037C88.5237 33.9784 103.633 32.6286 118.598 33.1154C138.103 33.7571 159.406 37.0318 175.925 48.0509C192.744 59.258 209.285 75.7091 214.858 95.623C215.502 97.9131 219.055 96.8511 218.411 94.5167C213.204 76.1074 199.183 61.017 184.107 49.821C168.565 38.2377 151.169 33.2261 131.842 31.0134C101.301 27.628 68.5633 32.4184 42.4083 49.3231C34.7324 54.2085 27.8797 60.2722 22.1037 67.2899C16.4753 74.2487 9.08173 84.9912 9.24825 94.229C9.27813 94.4496 9.37409 94.6561 9.52358 94.8215C9.67307 94.9869 9.86914 95.1035 10.0862 95.156C10.3032 95.2086 10.5311 95.1947 10.7401 95.1162C10.9491 95.0377 11.1294 94.8981 11.2576 94.7158L11.2465 94.738Z" fill="#143500"/>
<path d="M82.8953 33.5915L82.9841 34.3438C82.9917 34.4771 83.0464 34.6035 83.1385 34.7003C83.2307 34.7972 83.3544 34.8584 83.4875 34.873C83.6207 34.8876 83.7547 34.8547 83.8658 34.7801C83.9769 34.7055 84.0579 34.594 84.0943 34.4655L84.172 33.7353C84.2082 33.5655 84.1806 33.3883 84.0943 33.2375C84.044 33.1538 83.9745 33.083 83.8915 33.0311C83.8086 32.9792 83.7145 32.9476 83.6169 32.9388C83.5251 32.9276 83.432 32.9363 83.3439 32.9643C83.2558 32.9922 83.1747 33.0387 83.1063 33.1006C83.0378 33.1626 82.9835 33.2385 82.9471 33.3232C82.9107 33.4079 82.8931 33.4994 82.8953 33.5915Z" fill="#143500"/>
<path d="M89.7449 33.1267C88.23 31.7908 87.0867 30.0879 86.4255 28.1827C85.7643 26.2776 85.6075 24.2347 85.9704 22.2515C86.1053 21.4886 86.3956 20.7613 86.8232 20.1144C87.2509 19.4675 87.8069 18.9146 88.4571 18.49C89.4452 17.8188 90.6412 17.5214 91.8299 17.6512C93.0185 17.781 94.1216 18.3295 94.9403 19.198C95.1145 19.3606 95.3418 19.4548 95.5803 19.4633C95.8187 19.4718 96.0522 19.394 96.2376 19.2443C96.423 19.0946 96.5478 18.8831 96.5889 18.6489C96.63 18.4147 96.5846 18.1735 96.4612 17.97C94.0522 14.0647 94.5407 8.44452 98.182 5.39105C98.8705 4.88986 99.6584 4.5408 100.493 4.36719C101.328 4.19358 102.19 4.19941 103.022 4.38429C105.875 4.93746 107.396 7.64796 108.828 9.91594C108.968 10.1237 109.165 10.2873 109.395 10.3877C109.625 10.4881 109.879 10.521 110.127 10.4827C110.375 10.4444 110.607 10.3364 110.796 10.1713C110.985 10.0063 111.122 9.79106 111.193 9.55085C112.381 6.51951 114.579 2.55885 118.387 2.64735C122.194 2.73586 123.715 6.92885 122.605 10.0819C122.228 11.1882 123.593 11.8741 124.481 11.4427C128.278 9.5951 133.562 10.3363 135.339 14.64C135.671 15.3381 135.826 16.1071 135.789 16.8789C135.752 17.6508 135.525 18.4017 135.128 19.0653C134.42 20.0429 133.633 20.9606 132.774 21.809C132.568 22.0288 132.423 22.2981 132.353 22.5905C132.283 22.8829 132.29 23.1884 132.374 23.4772C132.458 23.766 132.616 24.0282 132.832 24.238C133.048 24.4478 133.315 24.5982 133.607 24.6744C134.859 24.9126 136.036 25.4477 137.037 26.2343C137.597 26.6399 137.991 27.233 138.147 27.9049C138.214 28.9116 137.037 30.2281 136.293 31.0358C134.739 32.6731 137.126 34.742 138.78 33.3812C141.689 30.9915 142.888 27.1525 139.89 24.3203C138.318 22.9586 136.476 21.941 134.484 21.3333L135.316 24.1876C136.743 23.1179 137.961 21.7983 138.913 20.2933C139.489 19.0741 139.765 17.7358 139.719 16.3891C139.672 15.0424 139.305 13.726 138.647 12.549C138.06 11.3561 137.212 10.3101 136.165 9.48852C135.117 8.66691 133.898 8.09078 132.596 7.80285C129.509 7.42597 126.378 7.90846 123.549 9.19682L125.003 10.9891C126.89 6.45313 124.548 0.777658 119.319 0.0696073C113.891 -0.66057 110.36 4.49492 108.706 8.92024L111.071 8.55515C109.261 5.82252 107.274 2.80224 103.822 2.08313C102.667 1.80351 101.466 1.77741 100.3 2.00665C99.1346 2.2359 98.033 2.71499 97.0718 3.41072C92.7756 7.03948 91.8541 14.2749 94.8515 18.9657L96.3724 17.7377C94.0855 15.7684 91.5877 15.0493 88.7457 16.2441C87.7534 16.6505 86.8647 17.2726 86.1444 18.0651C85.4242 18.8575 84.8906 19.8002 84.5827 20.8243C83.9091 23.1964 83.9602 25.7147 84.7294 28.0576C85.4986 30.4006 86.951 32.462 88.9011 33.9786C89.5117 34.4322 90.3443 33.6246 89.7449 33.0935V33.1267Z" fill="#143500"/>
<path d="M94.0084 17.8479C94.1227 17.9565 94.2589 18.0394 94.408 18.0913L94.8188 18.213C95.0857 18.2905 95.3399 18.406 95.5737 18.556C96.0291 18.8722 96.443 19.2438 96.8059 19.6623C97.1771 20.0648 97.4807 20.5243 97.7052 21.0231C97.7826 21.205 97.842 21.394 97.8828 21.5873C97.8828 21.7533 97.8828 21.4878 97.8828 21.6648V21.8086C97.8883 21.8564 97.8883 21.9046 97.8828 21.9524C97.8828 22.0741 97.8828 21.875 97.8828 21.9524C97.8762 22.0251 97.8574 22.0961 97.8273 22.1626C97.8273 22.0299 97.8273 22.1626 97.8273 22.2511C97.8273 22.3396 97.8273 22.2511 97.8273 22.2511L97.7496 22.3396C97.7496 22.3396 97.6608 22.3396 97.7496 22.3396L97.6385 22.4171C97.5719 22.4171 97.7718 22.4171 97.6385 22.4171H97.5608C97.4609 22.4171 97.6719 22.4171 97.5608 22.4171H97.472C97.3499 22.4171 97.583 22.4171 97.472 22.4171H97.3832H97.2611C97.361 22.4171 97.2611 22.4171 97.2611 22.4171L97.0502 22.2843C97.1501 22.3618 96.9503 22.1958 96.9281 22.1737L96.8392 22.0852C96.7171 21.9524 96.9058 22.1848 96.8392 22.0299C96.7726 21.875 96.7171 21.8307 96.6616 21.7312C96.6061 21.6316 96.6616 21.8639 96.6616 21.6648C96.6345 21.6001 96.6122 21.5336 96.595 21.4656C96.595 21.355 96.5173 21.178 96.5062 21.1116C96.461 20.7446 96.4387 20.3751 96.4396 20.0053C96.4396 19.6513 96.4396 19.2972 96.4396 18.9543C96.4396 18.6113 96.4396 17.9918 96.1176 17.682C96.0089 17.5817 95.8662 17.526 95.718 17.526C95.5698 17.526 95.4271 17.5817 95.3183 17.682C95.0075 18.0803 95.1074 18.4896 95.1296 18.9653C95.1518 19.4411 95.1296 19.6955 95.1296 20.0717C95.1164 20.802 95.2485 21.5277 95.5182 22.2069C95.6982 22.6825 96.0371 23.0818 96.4779 23.3377C96.9186 23.5936 97.4343 23.6904 97.9383 23.6119C98.1597 23.5433 98.3649 23.4308 98.5416 23.2812C98.7183 23.1316 98.8628 22.948 98.9665 22.7413C99.0701 22.5347 99.1309 22.3093 99.145 22.0786C99.159 21.848 99.1262 21.6169 99.0484 21.3993C98.6317 20.1646 97.8206 19.0999 96.7393 18.3679C96.3475 18.0229 95.8855 17.7662 95.3849 17.6156C95.0204 17.5377 94.6471 17.508 94.2748 17.5271C94.1305 17.5271 94.0306 17.7262 94.1527 17.8258L94.0084 17.8479Z" fill="#143500"/>
<path d="M107.94 7.42655C108.851 8.81428 109.67 10.2592 110.394 11.7523C110.971 12.8586 111.626 14.496 110.471 15.5249C110.284 15.7004 110.055 15.826 109.805 15.89C109.716 15.9026 109.624 15.8953 109.538 15.8685C109.452 15.8418 109.372 15.7962 109.306 15.7351C109.184 15.6576 109.383 15.7351 109.306 15.7351L109.206 15.6466C109.206 15.6466 108.973 15.4032 109.062 15.5138C108.998 15.4342 108.943 15.3491 108.895 15.2594L108.828 15.1377C108.728 14.9717 108.828 15.2925 108.828 15.1377C108.682 14.5695 108.666 13.9754 108.784 13.4005C108.901 12.8255 109.148 12.2846 109.506 11.8187C109.905 11.1659 110.349 10.5464 110.749 9.89366C111.149 9.24093 111.926 8.21204 111.637 7.41548C111.604 7.30627 111.545 7.20624 111.467 7.12319C111.388 7.04013 111.291 6.97631 111.184 6.93668C111.076 6.89706 110.961 6.88271 110.847 6.89476C110.733 6.90681 110.624 6.94493 110.527 7.00614C110.061 7.2606 109.95 7.72526 109.728 8.16779C109.534 8.5483 109.319 8.91766 109.084 9.27412C108.673 9.94898 108.218 10.6128 107.829 11.3098C107.381 11.9824 107.101 12.7527 107.014 13.5557C106.927 14.3586 107.036 15.1706 107.33 15.9232C107.464 16.2485 107.663 16.5428 107.917 16.7876C108.17 17.0325 108.471 17.2227 108.801 17.3462C109.131 17.4698 109.484 17.5241 109.836 17.5058C110.189 17.4875 110.533 17.3969 110.849 17.2397C111.657 16.7741 112.251 16.0117 112.503 15.1155C112.735 14.2004 112.636 13.2332 112.225 12.3829C111.788 11.4045 111.233 10.4831 110.571 9.6392C109.981 8.70422 109.251 7.86474 108.407 7.14996C108.151 6.95082 107.729 7.21634 107.94 7.52612V7.42655Z" fill="#143500"/>
<path d="M123.516 8.27875C123.327 9.35668 122.951 10.3936 122.406 11.3433C122.154 11.8005 121.86 12.2337 121.529 12.6377C121.225 13.0938 120.818 13.4727 120.341 13.744C120.191 13.8043 120.024 13.8043 119.875 13.744C119.808 13.744 119.775 13.6666 119.741 13.5338C119.719 13.4168 119.719 13.2968 119.741 13.1798C119.786 13.0009 119.882 12.8392 120.019 12.7151C120.381 12.392 120.798 12.1371 121.251 11.9628C121.84 11.6973 122.417 11.4429 123.005 11.1995L124.981 10.414C125.754 10.2355 126.481 9.89618 127.113 9.41827C127.19 9.3191 127.239 9.20063 127.253 9.07581C127.268 8.95099 127.248 8.8246 127.195 8.71045C127.142 8.59629 127.059 8.49876 126.955 8.42848C126.85 8.35821 126.728 8.31789 126.602 8.31194C126.215 8.31437 125.835 8.40922 125.492 8.58853L124.304 9.07531L122.084 10.0268C120.863 10.5467 119.197 11.0335 118.509 12.2394C118.332 12.5175 118.227 12.8349 118.204 13.1632C118.18 13.4916 118.239 13.8207 118.374 14.121C118.509 14.4213 118.717 14.6835 118.979 14.8842C119.241 15.0848 119.549 15.2176 119.875 15.2708C121.373 15.3924 122.45 13.8878 123.139 12.7704C123.954 11.4554 124.42 9.95542 124.493 8.41151C124.485 8.29508 124.437 8.18503 124.356 8.10058C124.275 8.01613 124.167 7.96265 124.051 7.94947C123.934 7.9363 123.817 7.96427 123.719 8.02849C123.622 8.09272 123.55 8.18913 123.516 8.30088V8.27875Z" fill="#143500"/>
<path d="M135.494 20.0276C134.635 20.4799 133.846 21.0538 133.152 21.7313C132.419 22.3177 131.708 22.9151 130.998 23.5125C130.387 24.1147 129.691 24.6252 128.933 25.0282C128.567 25.1831 127.679 25.3712 127.534 24.7959C127.534 24.7959 127.534 24.7959 127.534 24.7295C127.643 24.6324 127.762 24.5471 127.889 24.475C128.193 24.3036 128.523 24.1839 128.866 24.121C129.644 24.0213 130.432 24.055 131.198 24.2206C133.027 24.6681 134.88 25.0116 136.749 25.2495C136.956 25.2429 137.154 25.1622 137.307 25.022C137.46 24.8819 137.557 24.6917 137.581 24.4861C137.603 24.2813 137.55 24.0755 137.432 23.9067C137.314 23.7379 137.138 23.6175 136.937 23.5679C136.05 23.3095 135.144 23.1172 134.228 22.9926C133.34 22.8266 132.463 22.6385 131.575 22.5058C129.988 22.106 128.308 22.3029 126.857 23.0589C126.515 23.242 126.231 23.5155 126.035 23.8493C125.839 24.183 125.739 24.5642 125.747 24.9508C125.794 25.3289 125.938 25.6886 126.166 25.9948C126.394 26.301 126.697 26.5435 127.046 26.6988C128.689 27.44 130.299 26.2894 131.486 25.2273C132.275 24.5082 133.052 23.7891 133.818 23.0147L134.928 21.9084C135.357 21.5601 135.731 21.1499 136.038 20.6914C136.227 20.3484 135.883 19.8395 135.472 19.9944L135.494 20.0276Z" fill="#143500"/>
</svg>
