<svg width="65" height="65" viewBox="0 0 65 65" fill="none" xmlns="http://www.w3.org/2000/svg">
<path d="M63.0916 21.563H1.85254V21.4227C2.55829 19.474 3.44139 17.5942 4.49071 15.8071C4.91169 15.1051 5.36086 14.4312 5.83797 13.7574C10.2916 7.42481 16.8613 2.89372 24.3612 0.9819C29.1497 -0.220738 34.1487 -0.319996 38.9811 0.691677C43.8136 1.70335 48.3535 3.79951 52.2583 6.82209C54.8145 8.79363 57.0571 11.1414 58.9098 13.7855L59.2185 14.2066C59.5834 14.7401 59.9202 15.3016 60.2569 15.8351C61.3636 17.6164 62.3031 19.4963 63.0635 21.4507C63.0635 21.4507 63.0916 21.5069 63.0916 21.563Z" fill="#73AADC"/>
<path d="M63.0927 43.5199V43.6884C62.3516 45.6513 61.4111 47.533 60.2862 49.3039C59.8933 49.9497 59.5004 50.5394 59.0794 51.129L58.3496 52.1398C53.1612 58.9743 45.4842 63.4818 36.9898 64.6808C28.4955 65.8798 19.8716 63.6733 12.9956 58.5416C10.5607 56.7138 8.38873 54.5596 6.54054 52.1398L5.81081 51.129C5.38556 50.5422 4.99212 49.9329 4.6321 49.3039C3.50834 47.5323 2.56796 45.6507 1.82553 43.6884C1.81336 43.6329 1.81336 43.5754 1.82553 43.5199H63.0927Z" fill="#73AADC"/>
<path d="M65 32.5421C64.9959 33.8462 64.9211 35.149 64.7756 36.4449C64.4771 38.8584 63.9123 41.2315 63.0916 43.5206H1.90846C1.08775 41.2315 0.523064 38.8584 0.224587 36.4449C0.0790804 35.149 0.00408003 33.8462 1.38254e-05 32.5421C-0.00344541 28.7997 0.642269 25.0851 1.90846 21.5636V21.4233H63.0635C63.0635 21.4233 63.0635 21.4232 63.0635 21.5636C63.914 23.9597 64.4794 26.4477 64.7475 28.9762C64.9043 30.1585 64.9886 31.3494 65 32.5421Z" fill="#FCFCFC"/>
<path d="M35.9777 29.7344C35.948 29.7804 35.9064 29.8175 35.8574 29.842C35.8084 29.8665 35.7538 29.8775 35.6992 29.8737L35.922 29.6786L35.9777 29.7344Z" fill="#DDC8BC"/>
<path d="M29.6377 29.0614C29.6932 29.0989 29.7395 29.1483 29.7733 29.2062C29.807 29.264 29.8272 29.3287 29.8325 29.3955L29.582 29.117L29.6377 29.0614Z" fill="#DDC8BC"/>
<path d="M31.1533 36.754V36.5575C31.1813 36.6192 31.1958 36.6863 31.1958 36.754C31.1958 36.8218 31.1813 36.8888 31.1533 36.9505C31.1533 36.9505 31.2097 36.8102 31.1533 36.754Z" fill="#B28066"/>
<path d="M35.3068 36.0781C35.236 36.0164 35.1791 35.9405 35.1396 35.8553C35.1396 35.8553 35.3066 35.8553 35.3624 35.9945L35.3068 36.0781Z" fill="#DEC9BE"/>
<path d="M33.7913 28.3871V28.5555C33.7634 28.4937 33.749 28.4268 33.749 28.3591C33.749 28.2913 33.7634 28.2243 33.7913 28.1625C33.7913 28.1625 33.7352 28.3309 33.7913 28.3871Z" fill="#B4816A"/>
<path d="M29.1045 35.3782C29.168 35.3588 29.2358 35.3588 29.2992 35.3782C29.2992 35.3782 29.2992 35.3781 29.2992 35.5731L29.1045 35.3782Z" fill="#DBC5B9"/>
<path d="M36.316 34.6474L36.0654 34.5082C36.2324 34.5082 36.316 34.5082 36.3717 34.5082L36.316 34.6474Z" fill="#D7C0B3"/>
<path d="M36.6807 33.8904C36.7619 33.8625 36.8499 33.8625 36.9312 33.8904H36.6807Z" fill="#C49E8A"/>
<path d="M35.9229 35.4612C35.9229 35.4612 35.9229 35.4611 35.9229 35.294C35.9537 35.281 35.987 35.2743 36.0205 35.2743C36.054 35.2743 36.0871 35.281 36.1179 35.294L35.9229 35.4612Z" fill="#D2B7A8"/>
<path d="M35.3617 29.1164C35.3162 29.1314 35.2672 29.1314 35.2217 29.1164C35.2217 29.1164 35.2217 29.1164 35.2217 28.9198L35.3617 29.1164Z" fill="#D3B8A9"/>
<path d="M28.4023 33.8333C28.4284 33.8209 28.457 33.8145 28.4858 33.8145C28.5147 33.8145 28.543 33.8209 28.5691 33.8333C28.5691 33.8333 28.4301 33.7774 28.4023 33.8333Z" fill="#EBDFD9"/>
<path d="M31.21 28.4985V28.3315C31.21 28.3315 31.21 28.3315 31.21 28.4985C31.2656 28.5263 31.21 28.6655 31.21 28.4985Z" fill="#EADED7"/>
<path d="M32.4719 36.388C31.728 36.388 31.0008 36.1673 30.3823 35.7539C29.7639 35.3405 29.2818 34.7529 28.9972 34.0654C28.7125 33.3779 28.6381 32.6215 28.7832 31.8916C28.9283 31.1618 29.2866 30.4913 29.8126 29.9651C30.3385 29.439 31.0087 29.0806 31.7382 28.9354C32.4677 28.7903 33.2238 28.8648 33.911 29.1496C34.5982 29.4343 35.1856 29.9166 35.5988 30.5353C36.0121 31.154 36.2327 31.8815 36.2327 32.6256C36.2182 33.6189 35.8173 34.5675 35.1151 35.27C34.4129 35.9724 33.4648 36.3735 32.4719 36.388Z" fill="#F2B307"/>
<path d="M37.6928 31.3919L36.7104 31.6446C36.5902 31.6713 36.4656 31.6713 36.3455 31.6446C37.1762 31.3215 38.0658 31.178 38.956 31.2235C39.4829 31.2559 40.0082 31.1392 40.4717 30.8865C40.7625 30.726 41.1016 30.6761 41.4262 30.7461C41.5568 30.7735 41.6749 30.8425 41.763 30.9427C41.539 30.876 41.3022 30.8642 41.0726 30.9082C40.843 30.9522 40.6272 31.0506 40.4436 31.1954C39.9242 31.4926 39.3284 31.6294 38.7314 31.5885C38.3216 31.5555 37.9095 31.6131 37.5244 31.757L36.6261 32.0658C36.6261 32.0658 36.4016 32.2342 36.3455 32.0658C36.2893 31.8973 36.3453 32.0658 36.5699 31.9254L37.6366 31.5323C37.7088 31.5041 37.789 31.5041 37.8612 31.5323H38.1699H37.9455L37.6928 31.3919Z" fill="#F1B208"/>
<path d="M31.3493 27.5722C31.3493 27.853 31.5178 28.1619 31.5739 28.4427C31.6301 28.7235 31.5739 28.6673 31.5739 28.6954C31.5739 28.7235 31.5739 28.6954 31.5739 28.4988C31.5739 28.3023 31.5739 28.2461 31.5739 28.1338C31.3279 27.4607 31.2322 26.742 31.2933 26.028C31.3311 25.4916 31.2141 24.9556 30.9562 24.4837C30.8475 24.3012 30.79 24.0926 30.79 23.8801C30.79 23.6675 30.8475 23.4589 30.9562 23.2763C30.9198 23.5032 30.931 23.7352 30.989 23.9576C31.047 24.18 31.1506 24.3878 31.2933 24.568C31.5828 25.0693 31.7101 25.6479 31.658 26.2245C31.6296 26.7571 31.7359 27.2882 31.967 27.7688C31.967 27.9934 32.1072 28.218 32.1914 28.4707C32.2756 28.7234 32.1914 28.6111 32.1914 28.6392C32.1914 28.6673 32.1914 28.6392 32.1914 28.4988L31.8265 27.46C31.7296 27.3183 31.6715 27.1537 31.658 26.9826C31.658 26.9826 31.658 26.9827 31.658 26.758C31.6439 26.6744 31.6439 26.589 31.658 26.5053C31.6439 26.636 31.6439 26.7677 31.658 26.8984C31.5763 27.1321 31.4729 27.3577 31.3493 27.5722Z" fill="#F1B208"/>
<path d="M33.5941 37.6246C33.5941 37.2877 33.4258 36.9507 33.3696 36.6138C33.3135 36.2768 33.3696 36.4453 33.3696 36.4453C33.3696 36.4453 33.3696 36.4454 33.3696 36.5858V36.9788C33.6379 37.6562 33.7437 38.3871 33.6784 39.1127C33.6426 39.6277 33.7494 40.1426 33.9872 40.6009C34.0561 40.7555 34.0917 40.9229 34.0917 41.0922C34.0917 41.2615 34.0561 41.4289 33.9872 41.5836C33.9874 41.6451 33.9721 41.7057 33.9426 41.7597C33.9132 41.8137 33.8706 41.8593 33.8188 41.8924C33.8885 41.6953 33.9069 41.4837 33.8726 41.2774C33.8382 41.0712 33.7521 40.8771 33.6222 40.7132C33.2804 40.1482 33.1234 39.4905 33.1731 38.8319C33.1941 38.3391 33.0978 37.8483 32.8922 37.4L32.6396 36.67C32.6396 36.67 32.6396 36.5296 32.6396 36.5015C32.6396 36.4735 32.6396 36.5015 32.78 36.5015C32.8768 36.8378 32.9988 37.1663 33.145 37.4843C33.145 37.4843 33.145 37.6246 33.145 37.6807C33.167 37.7825 33.167 37.8879 33.145 37.9896C33.145 37.9896 33.145 38.1581 33.145 38.2423C33.145 38.3266 33.145 38.4108 33.145 38.4669C33.1589 38.3456 33.1589 38.2232 33.145 38.1019C33.145 38.1019 33.145 38.1019 33.145 37.9334V37.6527C33.1431 37.6232 33.147 37.5936 33.1566 37.5657C33.1662 37.5377 33.1813 37.5119 33.2008 37.4897C33.2403 37.445 33.296 37.4177 33.3556 37.414C33.4151 37.4103 33.4738 37.4304 33.5185 37.4699C33.5633 37.5094 33.5904 37.565 33.5941 37.6246Z" fill="#F1B208"/>
<path d="M27.2528 33.7502L28.2352 33.4975H28.4879C27.7238 33.7781 26.9158 33.9207 26.1018 33.9187C25.5136 33.8658 24.9221 33.9725 24.3894 34.2276C24.2048 34.345 23.9905 34.4074 23.7718 34.4074C23.553 34.4074 23.3389 34.345 23.1543 34.2276C23.351 34.2754 23.5556 34.28 23.7543 34.2412C23.953 34.2025 24.1408 34.1212 24.3051 34.0029C24.8993 33.6323 25.6051 33.4832 26.2983 33.5817C26.7931 33.593 27.2837 33.4872 27.7299 33.2729L28.4317 33.0482C28.4317 33.0482 28.6002 33.0482 28.6282 33.0482C28.6563 33.0482 28.6282 33.0482 28.6282 33.1886L27.4212 33.6099C27.4212 33.6099 27.2246 33.6099 27.1404 33.6099H26.6632C26.7844 33.624 26.9069 33.624 27.0282 33.6099H27.1966L27.2528 33.7502Z" fill="#F1B208"/>
<path d="M31.5743 37.7917C31.6009 37.4042 31.6572 37.0193 31.7427 36.6405C31.7427 36.6405 31.7427 36.472 31.7427 36.6405C31.7427 36.8089 31.7427 36.6405 31.7427 36.6405C31.7154 36.93 31.7154 37.2214 31.7427 37.5109C31.6983 37.9899 31.565 38.4565 31.3497 38.8867C31.0393 39.4319 30.9021 40.0586 30.9567 40.6836C30.9897 40.9875 30.9207 41.2938 30.7603 41.554C30.7348 41.6111 30.6959 41.6612 30.6471 41.7003C30.5982 41.7393 30.5408 41.7663 30.4795 41.7787C30.5895 41.6374 30.6668 41.4734 30.7057 41.2986C30.7445 41.1238 30.744 40.9424 30.7041 40.7679C30.5952 40.0783 30.703 39.3719 31.0129 38.7463C31.2303 38.2421 31.3266 37.6939 31.2937 37.1458C31.2937 36.9493 31.2937 36.7528 31.2937 36.5844C31.2937 36.4159 31.2937 36.4159 31.2937 36.4159C31.2937 36.4159 31.2937 36.4158 31.2937 36.6124C31.2658 36.9581 31.2658 37.3056 31.2937 37.6513C31.2937 37.7917 31.2937 37.932 31.2937 38.0162C31.2937 38.1005 31.5182 37.8478 31.5743 37.7917Z" fill="#F1B208"/>
<path d="M38.0858 33.5809L36.7944 33.4125H36.5138C37.487 33.4333 38.4443 33.6631 39.3209 34.0864C39.7223 34.2784 40.1716 34.3468 40.612 34.2829C40.9205 34.2677 41.2283 34.3254 41.5103 34.4514C41.5103 34.4514 41.7631 34.5918 41.8192 34.7883C41.6652 34.6713 41.4868 34.5903 41.2973 34.5514C41.1079 34.5125 40.9121 34.5168 40.7244 34.5637C40.0412 34.6638 39.3437 34.5459 38.7313 34.2268C38.2415 34.0302 37.7144 33.9439 37.1875 33.9741H36.5979C36.5979 33.9741 36.4014 33.9741 36.4295 33.9741C36.4576 33.9741 36.4295 33.9741 36.626 33.9741H38.198H38.4226C38.37 33.991 38.3135 33.992 38.2603 33.9769C38.2071 33.9619 38.1596 33.9314 38.1236 33.8894C38.0876 33.8475 38.0647 33.7958 38.058 33.7409C38.0513 33.686 38.061 33.6304 38.0858 33.5809Z" fill="#F1B208"/>
<path d="M26.8588 31.6151L28.2623 31.8117C28.2623 31.8117 28.5709 31.8117 28.5148 31.9521C28.4587 32.0925 28.3464 31.9521 28.2342 31.9521H27.6728C27.1575 31.9307 26.6518 31.8066 26.1852 31.5871C25.6287 31.2518 24.9792 31.1041 24.3325 31.1659C24.1375 31.1959 23.9381 31.1725 23.7553 31.0983C23.5725 31.0242 23.4131 30.902 23.2939 30.7447C23.7711 31.0816 24.3044 30.7447 24.8096 30.7447C25.234 30.7065 25.6609 30.7842 26.0447 30.9694C26.6139 31.241 27.2388 31.3756 27.8693 31.3624H28.4588C28.4588 31.3624 28.6553 31.3624 28.6272 31.3624C28.5991 31.3624 28.6272 31.3624 28.4307 31.3624H26.8588H26.6342C26.6921 31.3781 26.7442 31.4104 26.7841 31.4553C26.824 31.5002 26.85 31.5557 26.8588 31.6151Z" fill="#F1B208"/>
<path d="M37.6931 24.8491C37.5737 24.9184 37.4697 25.0115 37.3876 25.1226C37.3055 25.2336 37.2471 25.3603 37.2159 25.4949C37.072 26.2638 36.665 26.9587 36.0649 27.4604C35.7389 27.7849 35.4895 28.1783 35.335 28.6116L34.9981 29.2854C34.9981 29.2854 34.9981 29.2854 34.8297 29.2854C34.6612 29.2854 34.8297 29.2854 34.8297 29.117C34.9775 28.8347 35.1088 28.5441 35.2227 28.2465C35.2854 28.0229 35.3902 27.8132 35.5315 27.6288C35.5315 27.7973 35.363 28.0499 35.1665 28.1903C35.0147 28.4717 34.846 28.7436 34.6613 29.0046C34.6613 29.0046 34.6613 29.145 34.4928 29.0046C34.3244 28.8642 34.4928 29.0046 34.4928 28.8362C34.4928 28.6677 34.7736 28.3588 34.8859 28.1061C35.1027 27.6884 35.3982 27.3166 35.7561 27.0111C36.2652 26.5921 36.6449 26.0371 36.851 25.4106C36.8969 25.2332 36.9845 25.0692 37.1066 24.9325C37.2287 24.7958 37.3817 24.6901 37.5528 24.6245C37.5528 24.6245 37.6931 24.793 37.6931 24.8491Z" fill="#F1B208"/>
<path d="M33.4263 26.9553L33.2578 28.2469C33.2578 28.2469 33.2578 28.4154 33.2578 28.5277C33.2578 28.64 33.2578 28.6681 33.2578 28.5277C33.2578 28.3873 33.2578 28.5277 33.2578 28.3873C33.295 27.461 33.5244 26.5527 33.9316 25.7199C34.1257 25.2789 34.203 24.7955 34.1562 24.316C34.1338 24.1198 34.1577 23.921 34.226 23.7357C34.2942 23.5504 34.405 23.3837 34.5493 23.249C34.2124 23.7544 34.5493 24.2597 34.5493 24.7651C34.573 25.198 34.4961 25.6305 34.3247 26.0287C34.0524 26.5878 33.9176 27.204 33.9316 27.8258C33.9316 28.0223 33.9316 28.2469 33.9316 28.4435C33.9316 28.64 33.9316 28.612 33.9316 28.612C33.9316 28.612 33.9316 28.6119 33.9316 28.4154C33.9316 27.8819 33.9316 27.3765 33.9316 26.843C33.9316 26.843 33.9316 26.7026 33.9316 26.6183C33.9316 26.5341 33.9316 26.6184 33.9316 26.478C33.9316 26.3376 33.9316 26.4779 33.9316 26.6183C33.96 26.6847 33.9645 26.7589 33.9439 26.8281C33.9234 26.8973 33.8792 26.957 33.8192 26.9971C33.7591 27.0371 33.687 27.0548 33.6153 27.0472C33.5435 27.0396 33.4765 27.0071 33.4263 26.9553Z" fill="#F1B208"/>
<path d="M27.252 40.292C27.3742 40.2126 27.4793 40.1096 27.5612 39.9891C27.6431 39.8685 27.7003 39.7329 27.7291 39.59C27.8807 38.8397 28.2873 38.165 28.8799 37.6806C29.2064 37.3456 29.4556 36.9431 29.6098 36.5014L29.9466 35.8274C29.9466 35.8274 29.9466 35.687 30.115 35.8274C30.2834 35.9678 30.115 35.8274 30.115 35.9959C29.9467 36.2716 29.8058 36.5632 29.694 36.8664C29.6314 37.0901 29.5264 37.2997 29.3851 37.4841C29.4901 37.2777 29.6122 37.0804 29.7501 36.8944L30.2553 36.1082C30.2553 36.1082 30.2553 35.9397 30.4237 36.1082C30.5922 36.2767 30.4237 36.1082 30.4237 36.2767C30.295 36.4732 30.1823 36.6797 30.0869 36.8944C29.8398 37.3882 29.4962 37.8275 29.0764 38.1861C28.6141 38.5727 28.2649 39.0772 28.0659 39.6461C28.0162 39.8287 27.9278 39.9983 27.8067 40.1437C27.6856 40.289 27.5347 40.4066 27.3642 40.4885C27.3642 40.4885 27.252 40.3481 27.252 40.292Z" fill="#F1B208"/>
<path d="M28.0961 29.792C28.4075 29.9489 28.7076 30.1271 28.9944 30.3255C28.9944 30.3255 29.1628 30.3255 28.9944 30.4939C28.8259 30.6624 28.9944 30.4939 28.826 30.4939L28.2364 30.157C27.7269 29.9099 27.2768 29.5555 26.9169 29.1182C26.5288 28.6639 26.0242 28.3241 25.4573 28.1355C25.2749 28.0857 25.1053 27.9972 24.96 27.8761C24.8147 27.755 24.6971 27.6041 24.6152 27.4335C24.6152 27.4335 24.6152 27.4335 24.6152 27.4335C24.6905 27.5508 24.7892 27.6513 24.9051 27.7286C25.0211 27.8059 25.1517 27.8584 25.2889 27.8828C26.0449 28.0564 26.7244 28.4702 27.2259 29.0621C27.4881 29.3436 27.8159 29.5558 28.1802 29.6797L29.0785 30.1289C29.0785 30.1289 29.0785 30.129 29.0785 30.2694C29.0785 30.4097 29.0785 30.2694 28.9101 30.2694L27.9557 29.8201C27.7431 29.7514 27.5437 29.6469 27.3662 29.5112C27.703 29.5674 27.9557 29.5955 28.0961 29.792Z" fill="#F1B208"/>
<path d="M36.7373 35.2925L35.9514 34.7872C35.9514 34.7872 35.7829 34.7872 35.9514 34.6187C36.1198 34.4502 35.9514 34.6187 36.1198 34.6187L36.7934 34.9837C37.2535 35.2091 37.6638 35.5241 38.0005 35.9102C38.4 36.3964 38.924 36.7651 39.5164 36.9772C39.6953 37.0271 39.8611 37.1159 40.0018 37.2372C40.1425 37.3586 40.2546 37.5094 40.3304 37.6791C40.1601 37.424 39.8991 37.2434 39.6005 37.1737C38.8844 37.0297 38.24 36.643 37.776 36.0788C37.437 35.737 37.0239 35.4776 36.5688 35.3206L35.8952 34.9837C35.8952 34.9837 35.7267 34.9837 35.8952 34.8153C36.0636 34.6468 35.8952 34.8153 36.0917 34.8153L36.9338 35.2364C37.1536 35.2955 37.3623 35.3904 37.5514 35.5172C37.1584 35.4891 36.9057 35.461 36.7373 35.2925Z" fill="#F1B208"/>
<path d="M29.413 28.2472C29.6625 28.544 29.8967 28.8532 30.1148 29.1737C30.1148 29.1737 30.1148 29.1737 30.1148 29.3422C30.1148 29.5106 30.1148 29.3422 29.9464 29.3422C29.8432 29.1858 29.7307 29.0358 29.6095 28.8929C29.1804 28.4126 28.8555 27.8486 28.6552 27.2364C28.4947 26.7086 28.1823 26.2399 27.757 25.8887C27.5906 25.7652 27.4556 25.6042 27.3629 25.4189C27.2703 25.2335 27.2225 25.029 27.2237 24.8217C27.2237 24.8217 27.2237 24.8217 27.2237 24.8217C27.2421 24.9465 27.2867 25.066 27.3544 25.1724C27.4221 25.2789 27.5113 25.3698 27.6165 25.4394C28.2688 25.874 28.754 26.5176 28.9921 27.2645C29.1772 27.7178 29.4655 28.1216 29.8341 28.4438L30.2551 28.9491C30.2551 28.9491 30.2551 28.9491 30.2551 29.1176C30.2551 29.2861 30.2551 29.1176 30.0867 29.1176L29.3008 28.2472C29.077 28.0645 28.9112 27.8206 28.8237 27.5453C29.0025 27.7935 29.1994 28.0281 29.413 28.2472Z" fill="#F1B208"/>
<path d="M24.7532 37.6805C24.9971 37.6221 25.2145 37.4838 25.3706 37.2874C25.8155 36.633 26.4684 36.1481 27.2234 35.9116C27.661 35.7132 28.0528 35.4265 28.3742 35.0693L28.9076 34.62C28.9076 34.62 28.9075 34.62 29.0479 34.62C29.1882 34.62 29.0479 34.62 29.0479 34.7885L28.4866 35.2658C28.209 35.6265 27.841 35.9074 27.4199 36.0801H27.5883C27.891 35.9396 28.174 35.7602 28.4304 35.5466C28.4982 35.4504 28.5974 35.3809 28.711 35.35L29.2725 34.9569C29.2725 34.9569 29.2725 34.9569 29.4409 34.9569C29.6093 34.9569 29.4409 34.9569 29.4409 34.9569C29.4409 34.9569 28.9076 35.3781 28.6269 35.5746C28.3056 35.8497 27.9337 36.0595 27.5321 36.1924C26.9151 36.3737 26.3609 36.7238 25.9321 37.2032C25.8119 37.3624 25.6542 37.4893 25.4729 37.5726C25.2917 37.6559 25.0925 37.693 24.8935 37.6805C24.8935 37.6805 24.7251 37.7086 24.7532 37.6805Z" fill="#F1B208"/>
<path d="M35.1949 36.388C35.1949 36.1915 34.9424 35.995 34.8021 35.7984C34.6617 35.6019 34.8021 35.7984 34.8021 35.658C34.8021 35.5176 34.8021 35.658 34.8021 35.658C34.8021 35.658 35.2231 36.1915 35.4476 36.4723C35.7272 36.7968 35.9288 37.1809 36.037 37.5954C36.2208 38.1955 36.5714 38.7311 37.0477 39.1397C37.1969 39.2705 37.3185 39.4297 37.4053 39.6081C37.492 39.7865 37.5422 39.9805 37.553 40.1786C37.5362 40.0533 37.4923 39.933 37.4245 39.8264C37.3566 39.7197 37.2664 39.6291 37.1599 39.5609C36.5131 39.1083 36.0305 38.458 35.7845 37.7077C35.5886 37.2531 35.2909 36.8496 34.9143 36.5284L34.4932 36.023C34.4932 36.023 34.4932 36.023 34.4932 35.8827C34.4932 35.7423 34.4932 35.8827 34.6616 35.8827C34.7899 36.0858 34.9513 36.2661 35.1389 36.4161C35.5025 36.7025 35.7834 37.0804 35.9529 37.5112C35.9529 37.5112 35.9529 37.5112 35.9529 37.6516C35.9363 37.5871 35.9363 37.5195 35.9529 37.455C35.8087 37.1564 35.6193 36.8817 35.3914 36.6407C35.3914 36.6407 35.223 36.6127 35.1949 36.388Z" fill="#F1B208"/>
<path d="M36.795 29.5105C36.4983 29.76 36.1891 29.9943 35.8686 30.2124C35.8686 30.2124 35.8688 30.2124 35.6723 30.2124C35.4758 30.2124 35.6723 30.2125 35.6723 30.0721L36.1494 29.7071C36.6058 29.2812 37.1529 28.9644 37.7495 28.7806C38.2771 28.62 38.7456 28.3075 39.0968 27.8821C39.2876 27.6412 39.5551 27.4727 39.8547 27.4047C39.8547 27.4047 39.8547 27.4047 40.0231 27.4047C39.7914 27.4564 39.5895 27.5978 39.4617 27.7978C39.0275 28.4445 38.3827 28.9208 37.6371 29.1456C37.2034 29.3383 36.8124 29.615 36.4863 29.9598L36.0091 30.409C36.0091 30.409 36.0091 30.5775 35.7845 30.409C35.5599 30.2405 35.7845 30.2686 35.7845 30.2124L36.6547 29.4544C36.8324 29.2253 37.0781 29.0582 37.3564 28.977C37.1583 29.1429 36.9708 29.3211 36.795 29.5105Z" fill="#F1B208"/>
<path d="M37.5233 34.564L36.4004 34.0587C36.4004 34.0587 36.4004 34.0586 36.4004 33.9182C36.4004 33.7778 36.4004 33.9182 36.5688 33.9182L41.4253 36.1645C41.4253 36.1645 41.2568 36.1645 41.1725 36.1645L36.4566 34.3956C36.4566 34.3956 36.4566 34.3956 36.625 34.3956L37.6076 34.7606H37.7479C37.7479 34.7606 38.0285 34.7606 38.1689 34.901C38.3093 35.0413 37.5233 34.6764 37.5233 34.564Z" fill="#F1B208"/>
<path d="M37.2422 30.549L36.2877 30.8859C36.2877 30.8859 36.1192 30.8859 36.063 30.8859C36.0069 30.8859 36.063 30.8859 36.2315 30.7455L40.7511 29.061L41.2564 28.8925C41.2564 28.8925 41.2564 28.8925 41.088 29.0329L36.4561 31.1667C36.4561 31.1667 36.3157 31.1667 36.2596 31.1667C36.2034 31.1667 36.2596 31.1667 36.2596 31.1667L37.2422 30.6894C37.3825 30.549 37.635 30.549 37.8035 30.4086H37.9719C37.9719 30.4086 37.8036 30.4086 37.7193 30.4086C37.5681 30.4787 37.4073 30.5261 37.2422 30.549Z" fill="#F1B208"/>
<path d="M30.3674 27.5177L30.8165 28.7813C30.8165 28.7813 30.8165 28.9497 30.8165 28.9777C30.8165 29.0058 30.8165 28.9778 30.8165 28.8374L28.9639 23.8676C28.9639 23.8676 28.9639 23.8676 28.9639 24.008C29.6937 25.5523 30.3955 27.0965 31.0973 28.6408C31.0973 28.6408 31.0973 28.8093 31.0973 28.8655C31.0973 28.9216 30.957 28.8655 30.9289 28.697C30.9008 28.5286 30.5639 27.8827 30.3674 27.4896C30.2836 27.3828 30.2259 27.2578 30.199 27.1247C30.2552 27.237 30.3674 27.3492 30.3674 27.5177Z" fill="#F1B208"/>
<path d="M34.7172 37.6239C34.5768 37.1747 34.4085 36.7535 34.2681 36.3324C34.1278 35.9112 34.2681 36.192 34.2681 36.1639C34.2681 36.1358 34.2681 36.1639 34.2681 36.1639L36.1208 41.1617C36.106 41.1361 36.0981 41.1071 36.0981 41.0775C36.0981 41.0479 36.106 41.0189 36.1208 40.9933C35.3909 39.449 34.6891 37.9047 33.9873 36.3604C33.9873 36.3604 33.9873 36.3604 33.9873 36.1919C33.9873 36.0235 33.9873 36.1919 34.1276 36.1919L34.7172 37.4274C34.796 37.5373 34.8531 37.6611 34.8856 37.7924C34.7172 37.8766 34.7172 37.7643 34.7172 37.6239Z" fill="#F1B208"/>
<path d="M27.701 34.5633L28.7115 34.1982C28.7115 34.1982 28.7115 34.1982 28.8799 34.1982C29.0483 34.1982 28.8799 34.1982 28.8799 34.1982L23.8555 36.0515C23.8555 36.0515 23.8555 36.0514 24.052 35.911L28.6274 33.8051C28.6274 33.8051 28.7677 33.8051 28.7958 33.8051C28.8239 33.8051 28.7958 33.8051 28.7958 33.9455L27.8132 34.3948C27.6448 34.5913 27.3923 34.5913 27.1958 34.7036C27.3624 34.6505 27.5309 34.6037 27.701 34.5633Z" fill="#F1B208"/>
<path d="M34.4938 27.629C34.2974 27.994 34.1289 28.359 33.9605 28.724C33.7921 29.089 33.9605 28.8644 33.8202 28.724C33.6798 28.5836 33.8202 28.724 33.8202 28.5555C34.5781 26.927 35.3079 25.2986 36.0657 23.6982C36.0657 23.6982 36.0657 23.8947 36.0657 23.9509L34.2973 28.696C34.2973 28.696 34.2973 28.8363 34.2973 28.696C34.2973 28.5556 34.2973 28.696 34.2973 28.5275C34.2973 28.359 34.5781 27.7693 34.6903 27.4043C34.8026 27.0393 34.8307 27.1236 34.8307 26.9552C34.8399 26.8712 34.8399 26.7864 34.8307 26.7024C34.8412 26.8051 34.8412 26.9086 34.8307 27.0113C34.8206 27.132 34.7855 27.2493 34.7275 27.3557C34.6695 27.462 34.5899 27.5552 34.4938 27.629Z" fill="#F1B208"/>
<path d="M30.4518 37.5096L30.9851 36.3865C30.9851 36.3865 30.9851 36.2461 31.1254 36.3865C31.2658 36.5269 31.1254 36.3865 31.1254 36.555C30.3676 38.1554 29.6378 39.784 28.8799 41.4125C28.8799 41.4125 28.8799 41.244 28.8799 41.1879L30.6483 36.4146C30.6483 36.4146 30.6483 36.4146 30.6483 36.5831C30.6483 36.7515 30.3676 37.3131 30.2553 37.7062C30.143 38.0993 30.115 37.9869 30.115 38.1273C30.0885 38.2191 30.0885 38.3164 30.115 38.4081C30.115 38.4081 30.115 38.2397 30.115 38.1554C30.1097 38.0277 30.1381 37.9008 30.1972 37.7875C30.2563 37.6742 30.344 37.5783 30.4518 37.5096Z" fill="#F1B208"/>
<path d="M27.5338 30.5484L28.6568 31.0538C28.6568 31.0538 28.6568 31.0538 28.4883 31.0538L23.6318 28.8075C23.6318 28.8075 23.8004 28.8075 23.9127 28.8075L28.6287 30.5765C28.6287 30.5765 28.7971 30.5765 28.6287 30.7169C28.4602 30.8573 28.6286 30.7169 28.4321 30.7169L27.3373 30.3238C27.1689 30.3238 27.0565 30.3238 26.9162 30.3238H26.6355L26.9443 30.4642C27.1445 30.4221 27.3533 30.4519 27.5338 30.5484Z" fill="#F1B208"/>
<path d="M23.2115 32.5154L28.4886 32.3188C28.0218 32.3616 27.552 32.3616 27.0851 32.3188C26.9143 32.389 26.7226 32.389 26.5518 32.3188C26.8416 32.3353 27.1321 32.3353 27.4219 32.3188H28.264H28.4886C28.4886 32.3188 28.4886 32.3188 28.264 32.3188L23.9411 32.1503H23.2115C23.2115 32.1503 23.1553 32.5435 23.2115 32.5154Z" fill="#F0B105"/>
<path d="M26.2976 26.2245L29.8064 29.4815C29.8064 29.4815 29.8063 29.4815 29.6099 29.4815L28.9924 28.9199C28.824 28.9199 28.7398 28.7515 28.6556 28.6392C28.5714 28.5268 28.88 28.8357 28.9081 28.9761L29.4695 29.5938C29.4695 29.5938 29.638 29.5938 29.4695 29.7903C29.3011 29.9869 29.4695 29.7903 29.273 29.7903L27.0556 27.4037L26.0449 26.3088L26.2976 26.2245Z" fill="#F1B208"/>
<path d="M26.1289 38.8315L29.3572 35.3218C29.3572 35.3218 29.3572 35.1534 29.5256 35.3218C29.6941 35.4903 29.5256 35.4622 29.5256 35.5184C29.3534 35.7374 29.1657 35.9438 28.9642 36.1361C28.9231 36.2679 28.8324 36.3785 28.7115 36.4449C28.7115 36.4449 28.8798 36.2484 29.0202 36.1922L29.6379 35.6587C29.6379 35.6587 29.6379 35.4903 29.8344 35.6587C30.0309 35.8272 29.8344 35.7992 29.8344 35.8553L27.4763 38.0454L26.3535 39.0842L26.1289 38.8315Z" fill="#F1B208"/>
<path d="M38.8151 26.3086L36.0082 29.3972L35.6714 29.7622C35.6714 29.7622 35.6714 29.9587 35.4749 29.7622C35.2784 29.5656 35.4749 29.6218 35.4749 29.5656C35.4749 29.5095 35.8117 29.1725 36.0082 28.9479C36.2047 28.7233 36.0081 28.7513 36.2607 28.6671C36.5134 28.5829 36.0924 28.8636 35.952 28.8917L35.3344 29.4533C35.3344 29.4533 35.3346 29.6218 35.1381 29.4533C34.9416 29.2848 35.1381 29.2848 35.1381 29.2567L37.4958 27.0386L38.6186 26.0278C38.6186 26.0278 38.8151 26.2243 38.8151 26.3086Z" fill="#F1B208"/>
<path d="M32.529 37.7925C32.529 37.4274 32.529 37.0905 32.529 36.7536C32.529 36.4166 32.529 36.5289 32.529 36.557C32.529 36.5851 32.529 36.6974 32.529 36.7536L32.3605 41.8357C32.3605 40.0668 32.3606 38.2978 32.1641 36.5289C32.2199 37.0328 32.2199 37.5413 32.1641 38.0451C32.2058 38.1428 32.2271 38.2479 32.2271 38.3541C32.2271 38.4602 32.2058 38.5652 32.1641 38.6629C32.501 38.354 32.4728 38.0732 32.529 37.7925Z" fill="#F2B105"/>
<path d="M36.0372 36.051C35.8356 35.8586 35.6481 35.6522 35.4759 35.4332C35.4759 35.4332 35.3075 35.4332 35.4759 35.2366C35.6443 35.0401 35.4759 35.2366 35.6724 35.2366L37.918 37.6234L38.9004 38.7184L35.3916 35.4613C35.3916 35.4613 35.3916 35.4613 35.3916 35.2928C35.3916 35.1243 35.532 35.2928 35.5881 35.2928L36.2057 35.8825C36.329 35.9245 36.4366 36.0028 36.5145 36.1071C36.5145 36.1071 36.0652 36.1914 36.0372 36.051Z" fill="#F1B208"/>
<path d="M32.5273 23.2763L32.7239 28.5831C32.6811 28.1724 32.6811 27.7584 32.7239 27.3477C32.683 27.2391 32.683 27.1193 32.7239 27.0108C32.6951 26.8435 32.6951 26.6726 32.7239 26.5054C32.7089 26.7672 32.7089 27.0297 32.7239 27.2916C32.7239 27.2916 32.7239 27.4881 32.7239 27.5723C32.738 27.8435 32.738 28.1153 32.7239 28.3866V28.5831C32.7239 28.5831 32.7239 28.5831 32.7239 28.3866C32.7239 27.5442 32.7239 26.7019 32.7239 25.8314V23.2763H32.5273Z" fill="#F0B105"/>
<path d="M41.7334 32.5997L36.4561 32.8243C36.9229 32.7815 37.3927 32.7815 37.8596 32.8243C37.9796 32.7957 38.1046 32.7957 38.2245 32.8243H38.0561H37.579H36.5964C36.5964 32.8243 36.4279 32.8243 36.5964 32.8243C36.7648 32.8243 36.5964 32.8243 36.7648 32.8243H39.4035H41.8177C41.8177 32.8243 41.7615 32.5716 41.7334 32.5997Z" fill="#F1B208"/>
<path d="M28.5436 35.2943C28.2241 35.6271 27.8428 35.8942 27.4209 36.0805C27.4209 36.0805 27.4209 36.0805 27.4209 36.0805C27.8286 35.884 28.1989 35.6179 28.5155 35.2943H28.5436Z" fill="#974704"/>
<path d="M35.9255 37.6525C35.7151 37.2531 35.4507 36.8846 35.1396 36.5575C35.4724 36.877 35.7393 37.2585 35.9255 37.6805C35.9255 37.6805 35.9817 37.6806 35.9255 37.6525Z" fill="#964702"/>
<path d="M28.0946 29.7895C27.7691 29.6667 27.4862 29.4521 27.2803 29.1718C27.5485 29.3909 27.8404 29.5793 28.1507 29.7334L28.0946 29.7895Z" fill="#A05303"/>
<path d="M27.4215 32.5975C27.107 32.6665 26.7812 32.6665 26.4668 32.5975H27.0846H27.4215Z" fill="#A85D04"/>
<path d="M32.5273 37.7928C32.5845 38.0896 32.5845 38.3945 32.5273 38.6912V38.0455V37.7928Z" fill="#B87004"/>
<path d="M36.7939 29.5107C36.989 29.2938 37.2425 29.1378 37.5239 29.0614C37.256 29.167 37.0089 29.319 36.7939 29.5107Z" fill="#9E5003"/>
<path d="M29.1045 27.4597C29.216 27.7245 29.3673 27.9707 29.5535 28.1896C29.3527 27.9817 29.1995 27.7327 29.1045 27.4597C29.1045 27.4316 29.1045 27.4597 29.1045 27.4597Z" fill="#9C4F03"/>
<path d="M36.0363 36.0516C36.2076 36.2101 36.3586 36.3894 36.4856 36.5852C36.2898 36.4582 36.1106 36.3072 35.9521 36.1359L36.0363 36.0516Z" fill="#9B4D04"/>
<path d="M29.1038 36.1078C28.9558 36.2872 28.7861 36.4476 28.5986 36.5852C28.7172 36.3833 28.8689 36.2029 29.0476 36.0516L29.1038 36.1078Z" fill="#9B4D04"/>
<path d="M35.9795 29.0051C36.134 28.8319 36.3029 28.6722 36.4846 28.5278C36.3738 28.735 36.2207 28.9168 36.0355 29.0613L35.9795 29.0051Z" fill="#9C4E03"/>
<path d="M28.9076 29.0613C28.7365 28.9028 28.5858 28.7236 28.459 28.5278C28.6301 28.6863 28.7808 28.8655 28.9076 29.0613Z" fill="#9A4C03"/>
<path d="M26.1278 38.8319C25.9806 39.0071 25.7992 39.1504 25.5947 39.2531C25.7547 39.0916 25.9337 38.9502 26.1278 38.8319Z" fill="#E3A005"/>
<path d="M26.2973 26.2248C26.1385 26.0909 26.0053 25.9291 25.9043 25.7475C26.0119 25.9199 26.088 26.11 26.1289 26.309L26.2973 26.2248Z" fill="#E3A005"/>
<path d="M38.8154 26.3083C38.9553 26.1474 39.1157 26.0058 39.2928 25.8871C39.1652 26.0597 39.0026 26.2032 38.8154 26.3083Z" fill="#E6A306"/>
<path d="M35.1943 28.2742C35.279 28.063 35.3923 27.8646 35.5313 27.6845L35.1943 28.2742Z" fill="#974704"/>
<path d="M38.7295 38.9149C38.8949 39.0422 39.0292 39.2054 39.1222 39.3923C38.9712 39.2509 38.8391 39.0904 38.7295 38.9149Z" fill="#E3A005"/>
<path d="M29.3572 37.3999L29.6942 36.7821C29.6099 37.0022 29.4966 37.2099 29.3572 37.3999C29.3291 37.4561 29.3572 37.3999 29.3572 37.3999Z" fill="#974704"/>
<path d="M37.2982 35.6858L36.6807 35.349C36.9006 35.4332 37.1083 35.5465 37.2982 35.6858C37.3543 35.7139 37.2982 35.6858 37.2982 35.6858Z" fill="#964702"/>
<path d="M26.9703 34.7889L27.6439 34.5082C27.4184 34.6427 27.1715 34.7376 26.9141 34.7889C26.9141 34.7889 26.9141 34.7889 26.9141 34.7889H26.9703Z" fill="#A35602"/>
<path d="M31.5732 37.7931C31.6232 37.9579 31.6232 38.1337 31.5732 38.2985V37.6527V37.7931Z" fill="#8D3B03"/>
<path d="M37.8601 30.3535C37.687 30.4659 37.4977 30.5512 37.2988 30.6063L37.8601 30.3815C37.8601 30.3815 37.8601 30.3254 37.8601 30.3535Z" fill="#9E5103"/>
<path d="M37.524 34.5638L38.0292 34.7883C37.8295 34.7889 37.6342 34.7303 37.4678 34.6199L37.524 34.5638Z" fill="#A65B03"/>
<path d="M31.3503 27.573C31.3116 27.3879 31.3116 27.1968 31.3503 27.0117L31.4907 27.4608L31.3503 27.573Z" fill="#9B4D04"/>
<path d="M40.1342 27.4612C40.1079 27.4488 40.0792 27.4423 40.0501 27.4423C40.021 27.4423 39.9921 27.4488 39.9658 27.4612C39.9658 27.4612 40.2185 27.4612 40.3868 27.4612C40.5552 27.4612 40.3306 27.4333 40.1342 27.4612Z" fill="#D79205"/>
<path d="M34.7178 27.2353C34.6696 27.392 34.6037 27.5428 34.5215 27.6846L34.6617 27.2915L34.7178 27.2353Z" fill="#9C4E03"/>
<path d="M27.5328 30.5482L27.1396 30.3798C27.299 30.406 27.4517 30.4633 27.589 30.5482H27.5328Z" fill="#9C4E03"/>
<path d="M30.4508 37.5106L30.3105 37.9038C30.3368 37.7445 30.394 37.5918 30.4789 37.4545L30.4508 37.5106Z" fill="#9C4E03"/>
<path d="M34.7188 37.6239C34.8157 37.7549 34.874 37.9105 34.8869 38.073V37.68L34.7188 37.6239Z" fill="#A85D04"/>
<path d="M30.2545 27.0678L30.3949 27.4608C30.2979 27.3298 30.2395 27.1742 30.2266 27.0117L30.2545 27.0678Z" fill="#A85D04"/>
<path d="M23.2093 32.5145C23.1705 32.5341 23.1275 32.5444 23.0841 32.5444C23.0406 32.5444 22.9978 32.5341 22.959 32.5145C22.959 32.5145 23.1259 32.5145 23.2093 32.5145Z" fill="#DE9906"/>
<path d="M26.9141 33.7772H27.1927C27.1006 33.7931 27.0062 33.7931 26.9141 33.7772Z" fill="#A35604"/>
<path d="M33.4248 26.9531V26.7304C33.4525 26.802 33.4525 26.8815 33.4248 26.9531Z" fill="#873403"/>
<path d="M26.6328 31.5043C26.7044 31.4763 26.7839 31.4763 26.8555 31.5043H26.6328Z" fill="#873403"/>
<path d="M37.6924 31.3904C37.764 31.3625 37.8436 31.3625 37.9153 31.3904H37.6924Z" fill="#883603"/>
<path d="M33.5947 37.8186V37.6239V37.7629C33.5947 37.7629 33.6504 37.8464 33.5947 37.8186Z" fill="#893503"/>
<path d="M37.6924 24.8487C37.6924 24.8487 37.6924 24.8487 37.8593 24.8487C38.0263 24.8487 37.748 24.8209 37.6924 24.8487Z" fill="#D48E05"/>
<path d="M24.7526 27.3465C24.7526 27.3465 24.7526 27.3466 24.7526 27.1796C24.7526 27.0126 24.7248 27.2909 24.7526 27.3465Z" fill="#D48E05"/>
<path d="M28.4023 33.8334C28.4023 33.8334 28.4023 33.8334 28.5692 33.8334C28.736 33.8334 28.458 33.8058 28.4023 33.8334Z" fill="#B4846B"/>
<path d="M32.3032 32.0089C32.2795 31.8651 32.2242 31.7285 32.1411 31.6088C32.0581 31.4891 31.9494 31.3893 31.8232 31.3167C31.6969 31.2442 31.5561 31.2007 31.4109 31.1892C31.2658 31.1778 31.1199 31.1988 30.9838 31.2507C30.7214 31.3157 30.4736 31.4301 30.2539 31.5876C30.368 31.4375 30.5124 31.313 30.6776 31.2222C30.8428 31.1314 31.0252 31.0762 31.213 31.0603C31.4009 31.0444 31.5901 31.0682 31.7682 31.13C31.9463 31.1918 32.1094 31.2903 32.247 31.4192C32.3053 31.573 32.3053 31.7427 32.247 31.8965C32.247 31.8965 32.4155 32.0089 32.3032 32.0089Z" fill="#883603"/>
<path d="M34.5219 31.4467C34.2602 31.3131 33.9732 31.2366 33.6798 31.2221C33.462 31.195 33.2418 31.2485 33.0608 31.3727C32.8798 31.4969 32.7506 31.6831 32.6974 31.8961C32.6848 31.7821 32.7111 31.6672 32.7723 31.5702C32.8335 31.4733 32.926 31.4 33.0343 31.3625C33.2807 31.211 33.5692 31.1428 33.8573 31.1681C34.1455 31.1934 34.4178 31.3108 34.6341 31.503C34.6341 31.503 34.7184 31.4748 34.5219 31.4467Z" fill="#893503"/>
<path d="M33.2298 33.1873C33.2544 33.2109 33.2742 33.2392 33.2875 33.2706C33.3009 33.302 33.3078 33.3357 33.3078 33.3699C33.3078 33.404 33.3009 33.4377 33.2875 33.4691C33.2742 33.5005 33.2544 33.5288 33.2298 33.5524C33.2298 33.5524 33.0334 33.5524 32.9211 33.5524C32.6411 33.5244 32.359 33.5244 32.079 33.5524C32.027 33.5795 31.9692 33.5936 31.9106 33.5936C31.852 33.5936 31.7942 33.5795 31.7422 33.5524C31.7422 33.5524 31.7422 33.3278 31.7422 33.1593C31.7422 32.9908 31.7422 33.412 32.1071 33.412C32.472 33.412 32.6124 33.5524 32.8651 33.412C33.1177 33.2716 33.1737 33.3839 33.2298 33.1873Z" fill="#893703"/>
<path d="M31.6856 34.3957C31.6856 34.3957 31.6856 34.3957 31.5172 34.3957C31.3488 34.3957 31.5172 34.3956 31.5172 34.2552C31.5172 34.1147 31.5172 34.2552 31.6575 34.2552H31.9945C32.1678 34.311 32.3542 34.311 32.5276 34.2552H32.6961C32.6961 34.2552 31.9943 34.7046 31.6856 34.4518C31.3769 34.199 31.9101 34.3395 31.6856 34.3957Z" fill="#F0B007"/>
<path d="M34.0713 32.234C33.9363 32.2886 33.7853 32.2886 33.6503 32.234C33.5099 32.234 33.6503 31.9532 33.6503 31.7848C33.7419 31.7244 33.8492 31.6923 33.959 31.6923C34.0687 31.6923 34.1762 31.7244 34.2678 31.7848C34.2117 31.8971 34.0994 32.0655 34.0713 32.234Z" fill="#883303"/>
<path d="M31.4068 32.2328C31.2794 32.2756 31.1414 32.2756 31.014 32.2328C30.9787 32.2203 30.9462 32.2009 30.9186 32.1756C30.8909 32.1504 30.8687 32.1199 30.853 32.0859C30.8373 32.0518 30.8286 32.015 30.8273 31.9776C30.8261 31.9401 30.8323 31.9029 30.8456 31.8679C30.8456 31.8679 30.8457 31.7275 31.0982 31.6713C31.3508 31.6152 31.3508 31.6713 31.463 31.6713C31.4909 31.7331 31.5053 31.8001 31.5053 31.8679C31.5053 31.9357 31.4909 32.0026 31.463 32.0643L31.4068 32.2328Z" fill="#883303"/>
<path d="M33.3139 31.84C33.1455 31.84 33.0893 32.0365 32.9209 32.0084C33.0225 31.8692 33.1557 31.7559 33.3093 31.6778C33.463 31.5997 33.6328 31.559 33.8052 31.559C33.9775 31.559 34.1475 31.5997 34.3012 31.6778C34.4549 31.7559 34.5878 31.8692 34.6895 32.0084C34.493 32.0084 34.4088 31.8119 34.2685 31.8119C34.1362 31.7354 33.986 31.6952 33.8333 31.6952C33.6805 31.6952 33.5305 31.7354 33.3982 31.8119L33.3139 31.84Z" fill="#974903"/>
<path d="M31.6855 34.3964C31.6855 34.3964 31.8821 34.3964 31.9663 34.3964C32.4716 34.7333 32.5839 34.7333 33.033 34.3964C33.4821 34.0594 33.1732 34.256 33.2293 34.3964C33.2855 34.5368 33.0048 34.5648 32.8925 34.6491C32.8011 34.6772 32.7033 34.6772 32.6119 34.6491C32.5936 34.6677 32.5717 34.6825 32.5477 34.6927C32.5236 34.7028 32.4977 34.708 32.4716 34.708C32.4454 34.708 32.4196 34.7028 32.3955 34.6927C32.3714 34.6825 32.3496 34.6677 32.3313 34.6491C32.2615 34.6513 32.1923 34.6372 32.1289 34.6079C32.0656 34.5787 32.0099 34.5351 31.9663 34.4806C31.9663 34.4806 31.9101 34.3964 31.6855 34.3964Z" fill="#914103"/>
<path d="M31.743 31.8395C31.2938 31.5588 31.0692 31.5868 30.2832 32.008C30.3651 31.8845 30.4732 31.7805 30.5998 31.7034C30.7264 31.6263 30.8685 31.5781 31.0158 31.562C31.1631 31.5459 31.3122 31.5624 31.4524 31.6104C31.5926 31.6584 31.7205 31.7366 31.8271 31.8395H31.743Z" fill="#954603"/>
<path d="M34.2403 32.403C34.0432 32.5165 33.8112 32.5534 33.5885 32.5068C33.3659 32.4602 33.1683 32.3333 33.0332 32.1503C33.1971 32.2692 33.3862 32.3488 33.5858 32.3829C33.7854 32.417 33.9901 32.4047 34.1841 32.3469C34.1841 32.3469 34.2684 32.3468 34.2403 32.403Z" fill="#914003"/>
<path d="M31.9111 34.0031C31.9733 33.9768 32.0401 33.9633 32.1076 33.9633C32.1751 33.9633 32.2419 33.9768 32.3041 34.0031C32.4485 34.0595 32.6087 34.0595 32.7531 34.0031C32.8153 33.9768 32.8821 33.9633 32.9496 33.9633C33.0171 33.9633 33.0839 33.9768 33.1461 34.0031H31.9111C31.9111 34.0593 31.9111 34.0031 31.9111 34.0031Z" fill="#914003"/>
<path d="M30.9843 32.4021C31.3346 32.4275 31.6827 32.3281 31.9668 32.1215C31.8517 32.2957 31.6778 32.4228 31.4768 32.4795C31.2758 32.5362 31.0612 32.5187 30.8721 32.4302C30.8721 32.4302 30.9281 32.3741 30.9843 32.4021Z" fill="#8D3B03"/>
<path d="M32.3318 34.7333H32.6124C32.6124 34.7333 32.865 34.7333 32.9212 35.0141C32.6405 34.7052 32.3318 34.7614 31.995 35.0141C31.6581 35.2668 32.2195 34.8456 32.3318 34.7333Z" fill="#974704"/>
<path d="M30.9286 31.897C30.8941 31.9568 30.8758 32.0246 30.8758 32.0936C30.8758 32.1626 30.8941 32.2305 30.9286 32.2902H30.7319C30.7319 32.2902 30.5353 32.2902 30.7319 32.0936C30.7547 32.0397 30.7892 31.9916 30.8329 31.9527C30.8767 31.9139 30.9285 31.8853 30.9847 31.869L30.9286 31.897Z" fill="#E4A107"/>
<path d="M34.0717 32.2318C34.0216 32.1676 33.9943 32.0886 33.9943 32.0072C33.9943 31.9258 34.0216 31.8467 34.0717 31.7826H34.2122C34.2122 32.0352 34.2121 32.0633 33.9873 32.1476L34.0717 32.2318Z" fill="#EAA909"/>
<path d="M30.9283 31.8965C30.9283 31.8965 30.7316 31.8965 30.6474 31.8965C30.5632 31.8965 30.6474 32.0369 30.6474 32.0931C30.3948 32.0931 30.3667 31.8685 30.6474 31.7281C30.7689 31.637 30.9167 31.5878 31.0686 31.5878L30.9283 31.8965Z" fill="#9D5209"/>
<path d="M31.4053 32.2038C31.4053 32.0634 31.4053 31.8949 31.4053 31.7826H31.5736C31.7138 32.0914 31.6297 32.1757 31.4053 32.2038Z" fill="#DD9A06"/>
<path d="M32.6971 32.457L32.8937 32.9344C32.8937 32.9344 32.8937 32.9344 32.8937 33.0748C32.8937 33.2152 32.8937 33.0748 32.7532 33.0748C32.7244 32.8981 32.7244 32.7179 32.7532 32.5413C32.7532 32.5413 32.6691 32.4289 32.6971 32.457Z" fill="#944403"/>
<path d="M31.4053 32.206C31.477 32.1863 31.5391 32.1414 31.5804 32.0794C31.6216 32.0175 31.6393 31.9428 31.6299 31.869C31.6299 31.869 31.8544 31.869 31.7983 32.0656C31.7421 32.2621 31.5737 32.2341 31.4053 32.2341V32.206Z" fill="#974A08"/>
<path d="M32.3027 32.0077C32.3996 32.2414 32.3996 32.504 32.3027 32.7377C32.373 32.4994 32.373 32.2459 32.3027 32.0077Z" fill="#A85D04"/>
<path d="M32.2466 32.5717C32.2402 32.6685 32.2146 32.763 32.1712 32.8498C32.1279 32.9366 32.0677 33.0138 31.9941 33.077C32.0503 32.8805 32.2185 32.7401 32.2466 32.5717Z" fill="#924303"/>
<path d="M34.0723 32.234C34.141 32.2015 34.1988 32.1496 34.2386 32.0848C34.2785 32.02 34.2986 31.9451 34.2967 31.869C34.2967 31.869 34.4932 31.869 34.4651 32.0655C34.4228 32.1286 34.3633 32.1781 34.2936 32.208C34.2239 32.2379 34.147 32.2469 34.0723 32.234Z" fill="#8A3B08"/>
<path d="M33.4816 31.8111C33.5081 31.9028 33.5081 32.0001 33.4816 32.0918C33.1165 31.9515 33.4816 31.8392 33.4816 31.7269C33.4816 31.7269 33.3974 31.7269 33.4816 31.8111Z" fill="#9A4D09"/>
<path d="M33.2309 34.396C33.2309 34.396 33.0908 34.396 33.0346 34.396C33.0083 34.3836 32.9795 34.377 32.9503 34.377C32.9212 34.377 32.8925 34.3836 32.8662 34.396C32.8662 34.396 32.8662 34.396 32.8662 34.2276C32.8662 34.0591 33.0345 34.2276 33.1187 34.2276C33.1187 34.2276 33.2871 34.396 33.2309 34.396Z" fill="#D48E05"/>
<path d="M32.6976 32.4565C32.6125 32.2399 32.6125 31.9993 32.6976 31.7826C32.6152 31.9998 32.6152 32.2394 32.6976 32.4565Z" fill="#984A03"/>
<path d="M31.7422 31.8407C31.801 31.8479 31.857 31.8694 31.9055 31.9034C31.954 31.9373 31.9934 31.9828 32.0203 32.0355C31.9139 31.9927 31.8188 31.926 31.7422 31.8407Z" fill="#9C4E03"/>
<path d="M31.9093 34.0004C31.9093 34.1396 31.9093 34.0004 31.7422 34.1674L31.9093 34.0004Z" fill="#AE6403"/>
<path d="M33.0332 34.058C33.1209 34.1174 33.1964 34.1929 33.2559 34.2806C33.1968 34.2806 33.1403 34.2571 33.0985 34.2154C33.0567 34.1736 33.0332 34.117 33.0332 34.058Z" fill="#AE6403"/>
<path d="M33.3145 32.205C33.3145 32.205 33.4817 32.205 33.5653 32.205C33.4834 32.229 33.3963 32.229 33.3145 32.205Z" fill="#B06707"/>
<path d="M34.2402 32.4008C34.3205 32.3682 34.4101 32.3682 34.4904 32.4008C34.4904 32.4008 34.3236 32.3729 34.2402 32.4008Z" fill="#B46C03"/>
<path d="M34.5215 31.4471C34.5386 31.4768 34.5477 31.5104 34.5477 31.5446C34.5477 31.5788 34.5386 31.6124 34.5215 31.6421V31.4471Z" fill="#9E5103"/>
<path d="M38.1416 31.2779C38.2227 31.2311 38.3148 31.2064 38.4084 31.2064C38.5021 31.2064 38.594 31.2311 38.6751 31.2779H38.2259C38.2259 31.2779 38.1416 31.3341 38.1416 31.2779Z" fill="#BC7504"/>
<path d="M38.1391 31.2792H37.833C37.8795 31.2523 37.9323 31.2382 37.9861 31.2382C38.0398 31.2382 38.0926 31.2523 38.1391 31.2792Z" fill="#8B3B03"/>
<path d="M31.1818 26.898C31.1348 26.8019 31.1104 26.6962 31.1104 26.5892C31.1104 26.4821 31.1348 26.3764 31.1818 26.2802V26.7295C31.1818 26.7295 31.2659 26.87 31.1818 26.898Z" fill="#C17A04"/>
<path d="M33.763 38.2137C33.8097 38.3 33.8342 38.3965 33.8342 38.4946C33.8342 38.5927 33.8097 38.6892 33.763 38.7754V38.3822C33.763 38.3822 33.6788 38.2418 33.763 38.2137Z" fill="#C47E04"/>
<path d="M33.5947 37.8192C33.6196 37.9198 33.6196 38.0249 33.5947 38.1255C33.5947 38.1255 33.5947 38.1255 33.5947 38.1255V37.8192Z" fill="#A35602"/>
<path d="M26.8031 33.8615C26.6052 33.9425 26.3834 33.9425 26.1855 33.8615H26.6628C26.6628 33.8615 26.775 33.7774 26.8031 33.8615Z" fill="#BF7805"/>
<path d="M31.433 38.4388C31.4293 38.5035 31.4123 38.5667 31.3833 38.6246C31.3544 38.6825 31.3141 38.734 31.2646 38.7758C31.2803 38.6474 31.3398 38.5284 31.433 38.4388Z" fill="#AF6504"/>
<path d="M38.3086 33.58C38.373 33.5795 38.436 33.5976 38.4903 33.6322C38.5447 33.6668 38.5879 33.7163 38.6147 33.7749L38.3086 33.58Z" fill="#AF6504"/>
<path d="M26.6315 31.5014C26.5696 31.4923 26.5104 31.4702 26.4576 31.4366C26.4048 31.403 26.3597 31.3587 26.3252 31.3065L26.6315 31.5014Z" fill="#AF6504"/>
<path d="M35.5889 27.7423C35.6248 27.6682 35.6758 27.6024 35.7387 27.5492C35.8015 27.4961 35.8749 27.4567 35.9539 27.4335L35.5889 27.7423Z" fill="#A95E03"/>
<path d="M33.5381 26.7308C33.5412 26.663 33.5608 26.5969 33.595 26.5382C33.6292 26.4796 33.6771 26.4301 33.7346 26.394L33.5381 26.7308Z" fill="#AF6504"/>
<path d="M29.3538 37.3988C29.3196 37.4652 29.2723 37.5242 29.2149 37.572C29.1575 37.6198 29.091 37.6555 29.0195 37.6771L29.3538 37.3988Z" fill="#A95E03"/>
<path d="M37.2988 35.6879C37.3692 35.7175 37.4315 35.7635 37.4804 35.8222C37.5293 35.8808 37.5633 35.9503 37.5798 36.0249L37.2988 35.6879Z" fill="#A95E03"/>
<path d="M29.1054 27.459C29.0852 27.4306 29.0742 27.3965 29.0742 27.3616C29.0742 27.3266 29.0852 27.2925 29.1054 27.2641C29.1054 27.2641 29.1054 27.4033 29.1054 27.459Z" fill="#C57F03"/>
<path d="M27.364 36.0233C27.3336 36.0381 27.3002 36.0458 27.2664 36.0458C27.2326 36.0458 27.1993 36.0381 27.1689 36.0233C27.1689 36.0233 27.3362 36.0512 27.364 36.0233Z" fill="#C57F03"/>
<path d="M35.9229 37.6527C35.9433 37.6811 35.9544 37.7151 35.9544 37.7501C35.9544 37.785 35.9433 37.8191 35.9229 37.8475C35.9229 37.8475 35.9508 37.7084 35.9229 37.6527Z" fill="#C67F03"/>
<path d="M37.5244 29.1157C37.5548 29.1009 37.588 29.0931 37.6218 29.0931C37.6555 29.0931 37.689 29.1009 37.7193 29.1157C37.7193 29.1157 37.5244 29.0877 37.5244 29.1157Z" fill="#C57F03"/>
<path d="M37.8594 30.3529H38.1658C38.1192 30.3798 38.0664 30.394 38.0126 30.394C37.9588 30.394 37.906 30.3798 37.8594 30.3529Z" fill="#C07904"/>
<path d="M30.254 27.0648C30.2347 27.031 30.2246 26.9927 30.2246 26.9536C30.2246 26.9145 30.2347 26.8761 30.254 26.8422C30.254 26.8422 30.199 26.9813 30.254 27.0648Z" fill="#C37D04"/>
<path d="M34.7188 38.0458C34.7382 38.0796 34.7485 38.1181 34.7485 38.1572C34.7485 38.1963 34.7382 38.2347 34.7188 38.2686C34.7188 38.2686 34.7188 38.1293 34.7188 38.0458Z" fill="#C37D04"/>
<path d="M26.9692 34.7873C26.9353 34.8068 26.8969 34.8171 26.8577 34.8171C26.8186 34.8171 26.78 34.8068 26.7461 34.7873C26.8195 34.7706 26.8958 34.7706 26.9692 34.7873Z" fill="#C47D04"/>
<path d="M34.7188 27.2329C34.7574 27.1309 34.814 27.0367 34.8857 26.9545C34.8646 27.0641 34.8055 27.1627 34.7188 27.2329Z" fill="#B46C03"/>
<path d="M34.7174 26.9531C34.6979 26.9193 34.6875 26.8808 34.6875 26.8418C34.6875 26.8027 34.6979 26.7643 34.7174 26.7304C34.737 26.7643 34.7474 26.8027 34.7474 26.8418C34.7474 26.8808 34.737 26.9193 34.7174 26.9531Z" fill="#D18B06"/>
<path d="M30.1987 38.157C30.1987 38.157 30.1987 38.324 30.1987 38.3796C30.1987 38.4353 30.1987 38.3797 30.1987 38.1849C30.1987 37.9901 30.1713 38.1292 30.1987 38.157Z" fill="#D18B06"/>
<path d="M30.1985 38.1546C30.1784 38.111 30.168 38.0635 30.168 38.0154C30.168 37.9674 30.1784 37.92 30.1985 37.8763V38.1546Z" fill="#B46C03"/>
<path d="M27.1357 30.3236C27.0333 30.2998 26.938 30.2521 26.8574 30.1844C26.9632 30.1981 27.0613 30.2471 27.1357 30.3236Z" fill="#B56D03"/>
<path d="M26.8555 30.2402C26.7831 30.2636 26.7052 30.2636 26.6328 30.2402C26.6667 30.2206 26.705 30.2103 26.7441 30.2103C26.7832 30.2103 26.8217 30.2206 26.8555 30.2402Z" fill="#D18B04"/>
<path d="M32.5274 27.0113V27.2921C32.4726 27.0139 32.4726 26.7278 32.5274 26.4496V27.0113Z" fill="#B36A04"/>
<path d="M38.2256 32.6262C38.4742 32.5632 38.7347 32.5632 38.9834 32.6262H38.2256Z" fill="#CC8505"/>
<path d="M33.0335 34.0584C33.1093 34.1399 33.2065 34.1983 33.3141 34.2268C33.3141 34.2268 33.1177 34.2268 33.0054 34.2268C32.8466 34.2169 32.6871 34.2169 32.5282 34.2268H32.3598C32.201 34.2169 32.0417 34.2169 31.8828 34.2268L32.0512 34.0584C32.3777 34.0246 32.707 34.0246 33.0335 34.0584Z" fill="#F0B105"/>
<path d="M32.387 34.2826H32.5274C32.5274 34.2826 32.6959 34.2826 32.752 34.2826C32.6645 34.3249 32.5686 34.3469 32.4713 34.3469C32.3741 34.3469 32.278 34.3249 32.1904 34.2826C32.1904 34.2826 32.3028 34.2826 32.387 34.2826Z" fill="#8E3D04"/>
<path d="M32.752 34.3384C32.679 34.3147 32.6003 34.3147 32.5273 34.3384C32.6835 34.2952 32.8485 34.2952 33.0047 34.3384H32.752Z" fill="#A05303"/>
<path d="M32.3878 34.2825C32.3572 34.2677 32.3237 34.26 32.2896 34.26C32.2556 34.26 32.222 34.2677 32.1914 34.2825C32.0903 34.3099 31.9838 34.3099 31.8828 34.2825C32.0511 34.2545 32.2194 34.1985 32.3878 34.2825Z" fill="#A45903"/>
<path d="M33.4829 31.8116H33.3145C33.4471 31.7092 33.61 31.6537 33.7776 31.6537C33.9453 31.6537 34.1083 31.7092 34.241 31.8116C33.9979 31.7133 33.726 31.7133 33.4829 31.8116Z" fill="#F2B307"/>
<path d="M33.5653 32.2296H33.3145C33.3145 32.0904 33.3144 32.0626 33.4816 31.9791C33.6488 31.8956 33.4539 32.1183 33.5653 32.2296Z" fill="#EBAA08"/>
</svg>
