<svg width="65" height="65" viewBox="0 0 65 65" fill="none" xmlns="http://www.w3.org/2000/svg">
<path d="M65 32.5156C65.0006 33.8207 64.9162 35.1245 64.7474 36.4187C64.4648 38.8115 63.9192 41.1657 63.1205 43.4387H1.88032C1.08534 41.1629 0.530532 38.8101 0.225104 36.4187C0.0796624 35.1227 0.00486652 33.8197 0.000802126 32.5156C-0.0262113 28.6862 0.629281 24.8826 1.93648 21.2836H63.0924V21.424C63.9394 23.8115 64.5043 26.29 64.7755 28.809C64.9267 30.0387 65.0017 31.2766 65 32.5156Z" fill="white"/>
<path d="M63.0933 21.424H1.9375C2.68154 19.4624 3.6214 17.5809 4.74281 15.8081C5.16361 15.1061 5.61241 14.4041 6.08931 13.7582C10.541 7.42528 17.1077 2.8939 24.6043 0.981961C29.3908 -0.220752 34.3877 -0.320016 39.218 0.69172C44.0483 1.70346 48.586 3.79979 52.4891 6.82256C55.0441 8.79423 57.2858 11.1421 59.1377 13.7863L59.4183 14.2075C59.783 14.741 60.1477 15.2746 60.4844 15.8361C61.5305 17.611 62.4041 19.4822 63.0933 21.424Z" fill="#FD0508"/>
<path d="M63.0923 43.4385V43.6912C62.3962 45.6486 61.5032 47.5303 60.4273 49.3072C60.0345 49.9249 59.6418 50.5427 59.221 51.1324L58.4916 52.1433C56.6436 54.5546 54.4725 56.6994 52.0394 58.5174C46.4247 62.7258 39.5991 65.0003 32.5847 65.0003C25.5703 65.0003 18.7446 62.7258 13.1299 58.5174C10.7118 56.6916 8.55079 54.5476 6.70564 52.1433L5.97641 51.1324C5.55561 50.5427 5.16289 49.9249 4.77015 49.3072C3.6457 47.5361 2.70568 45.6542 1.96484 43.6912V43.4385H63.0923Z" fill="#000478"/>
<path d="M29.8496 26.985V32.6009H35.2079V26.985H29.8496ZM35.1517 32.6009H29.8777V26.985H35.1517V32.6009Z" fill="#FD0508"/>
<path d="M35.123 21.3685V26.9845H40.2566V21.3685H35.123ZM40.2004 26.9845H35.1792V21.3685H40.2004V26.9845Z" fill="#FD0508"/>
<path d="M35.123 32.5149V38.1309H40.2566V32.5149H35.123ZM35.123 32.5149H40.1444V38.1309H35.123V32.5149Z" fill="#FD0508"/>
<path d="M24.7432 32.5149V38.1309H29.8486V32.5149H24.7432ZM29.8207 38.1309H24.7992V32.5149H29.8207V38.1309Z" fill="#FD0508"/>
<path d="M29.8496 38.16V43.776H35.2079V38.16H29.8496ZM35.1517 43.776H29.8777V38.16H35.1517V43.776Z" fill="#FD0508"/>
<path d="M24.7432 21.3685V26.9845H29.8486V21.3685H24.7432ZM29.8207 26.9845H24.7992V21.3685H29.8207V26.9845Z" fill="#FD0508"/>
<path d="M24.7714 27.0117V21.3958H19.4414V27.0117H24.7714Z" fill="#FD0508"/>
<path d="M35.1512 27.0117V21.3958H29.8213V27.0117H35.1512Z" fill="#FD0508"/>
<path d="M40.2285 26.9845H45.5309V21.3685H40.2285V26.9845Z" fill="#FD0508"/>
<path d="M24.7714 38.1596V32.5436H19.4414V38.1596H24.7714Z" fill="#FD0508"/>
<path d="M29.8213 38.1596H35.1512V32.5436H29.8213V38.1596Z" fill="#FD0508"/>
<path d="M40.2285 32.5436V38.1596H45.5309V32.5436H40.2285Z" fill="#FD0508"/>
<path d="M24.7715 43.6904V46.8354C26.2978 47.8907 28.012 48.6437 29.8212 49.0537V43.6904H24.7715Z" fill="white"/>
<path d="M35.1523 49.0537C36.9739 48.6405 38.6982 47.8776 40.2296 46.8073V43.6904H35.1523V49.0537Z" fill="white"/>
<path d="M24.7731 43.6904H21.4629C22.0543 44.4836 22.7318 45.2088 23.4828 45.8526C23.8939 46.2045 24.3246 46.5326 24.7731 46.8354V43.6904Z" fill="#FD0508"/>
<path d="M35.1512 43.6904H29.8213V49.0537C31.5763 49.4468 33.3963 49.4468 35.1512 49.0537V43.6904Z" fill="#FD0508"/>
<path d="M40.2285 43.6904V46.8072C40.5932 46.5545 41.0141 46.2176 41.3508 45.9368C42.1391 45.2658 42.8539 44.5128 43.483 43.6904H40.2285Z" fill="#FD0508"/>
<path d="M29.8212 27.0122H24.7715V32.544H29.8212V27.0122Z" fill="#FD0508"/>
<path d="M35.1523 27.0122V32.544H40.2296V27.0122H35.1523Z" fill="#FD0508"/>
<path d="M29.8212 38.16H24.7715V43.6918H29.8212V38.16Z" fill="#FD0508"/>
<path d="M35.1523 38.16V43.6918H40.2296V38.16H35.1523Z" fill="#FD0508"/>
<path d="M24.7714 21.3963H45.5308V20.9752C37.0846 18.0218 27.8876 18.0218 19.4414 20.9752V21.3683L24.7714 21.3963Z" fill="#FD0508"/>
<path d="M45.3617 21.4528H19.3281V38.3007C19.4473 40.1932 20.0776 42.0177 21.1517 43.5797V43.7482L21.5725 44.2256C22.0413 44.7747 22.5474 45.2907 23.0873 45.77L23.7046 46.2754L24.3498 46.7527C26.5755 48.335 29.2229 49.2151 31.9521 49.28H32.2047C34.3188 49.1969 36.389 48.6511 38.2696 47.6808C40.1502 46.7105 41.7953 45.3394 43.0894 43.664V43.4955C44.1724 41.9381 44.8036 40.1109 44.9129 38.2165V21.537L45.3617 21.4528ZM45.3617 38.3007C45.2342 40.1959 44.5942 42.0207 43.5102 43.5797V43.7201L43.2577 44.0571L43.0332 44.3098L42.6125 44.7591C42.4722 44.8995 42.3319 45.068 42.1636 45.2084C41.6025 45.748 41.0024 46.2455 40.3681 46.6966L39.9193 46.9774C39.8066 47.087 39.673 47.173 39.5265 47.2301L39.0778 47.5109L38.152 47.9602L37.6751 48.1567L37.2262 48.3533L36.7212 48.5218L36.2163 48.6903L35.7394 48.8307H35.3466L33.8878 49.0553H32.6815C31.8228 49.0576 30.9665 48.9634 30.1288 48.7745C28.3284 48.3637 26.6238 47.6106 25.1073 46.5562C23.86 45.7018 22.7607 44.649 21.853 43.4393V43.2989C21.0069 42.0678 20.4332 40.6701 20.1699 39.1993V38.75C20.1561 38.5724 20.1561 38.394 20.1699 38.2165V21.3685H46.1752L45.3617 38.3007Z" fill="#FD0508"/>
<path d="M45.3912 21.4817H19.6104V21.6783H45.3912V21.4817Z" fill="white"/>
<path d="M32.6815 49.5026C29.5442 49.4062 26.5187 48.3147 24.0412 46.3857C22.7231 45.441 21.621 44.2263 20.8084 42.8222C19.9957 41.4181 19.4911 39.8569 19.3281 38.2425V21.2261H19.5245V38.2425C19.6916 39.8262 20.1931 41.3563 20.996 42.7312C21.7989 44.1061 22.8848 45.2944 24.1815 46.2172C26.5887 48.1139 29.5359 49.1956 32.5974 49.306C35.5251 49.1997 38.3438 48.1675 40.6487 46.3576C41.9046 45.3957 42.9783 44.2165 43.8188 42.8757C44.684 41.4715 45.2121 39.8855 45.3617 38.2425V21.2261H45.5861V38.2425C45.4213 39.9168 44.8742 41.5309 43.9871 42.9599C43.153 44.3302 42.0679 45.5306 40.789 46.498C38.4699 48.3289 35.6326 49.3804 32.6815 49.5026Z" fill="#FD0508"/>
<path d="M32.6825 49.3079C29.621 49.1975 26.6738 48.1159 24.2666 46.2192C22.9562 45.2989 21.8578 44.1087 21.0449 42.7284C20.232 41.3481 19.7236 39.8096 19.5537 38.2164V21.5089H19.7782V38.2164C19.95 39.7809 20.4482 41.2917 21.2408 42.651C22.0333 44.0103 23.1026 45.1877 24.3789 46.1068C26.7883 47.9921 29.7378 49.0549 32.7948 49.1395C35.6705 49.0635 38.4487 48.0808 40.7337 46.3315C42.0128 45.3846 43.0856 44.1865 43.8862 42.8105C44.6869 41.4345 45.1988 39.9095 45.3906 38.3287V21.6212H45.3625V38.3287C45.1737 39.9354 44.655 41.4856 43.8392 42.8821C43.0233 44.2786 41.9278 45.4912 40.6216 46.4438C38.3454 48.2167 35.5652 49.2196 32.6825 49.3079Z" fill="white"/>
<path d="M48.5607 14.0948L46.5128 10.5567L42.5293 12.2134L42.2488 11.9045L39.4435 9.09654L35.8526 11.3148L35.6843 11.1744L35.1232 10.7252L32.3179 8.56302L29.3164 11.2306L28.2504 10.5848L25.445 8.92807L23.4813 11.4272L23.0885 11.9326L22.78 12.3538L18.7684 10.5005H18.5158L16.6083 14.0386L16.3838 14.4598L19.638 20.9743C20.7836 20.561 21.955 20.2233 23.1447 19.9635H23.5654C26.49 19.3433 29.4689 19.0141 32.4583 18.9807H33.0473C35.6553 18.9883 38.2537 19.2992 40.79 19.9073C41.9464 20.1779 43.0811 20.5346 44.1845 20.9743H44.493L45.026 21.199L45.2224 20.7778L48.2522 14.9091L48.5607 14.0948ZM46.1201 19.5703L45.6712 20.4408L45.3627 20.9743C43.3625 20.1318 41.2733 19.5195 39.135 19.1492C37.228 18.8052 35.2935 18.636 33.3559 18.6437H32.7669C30.0078 18.686 27.2577 18.9678 24.5473 19.4861L23.4532 19.7108C22.4714 19.9354 21.6579 20.16 21.0407 20.3566L19.9747 20.7216H19.7221L16.524 14.2632L16.7204 13.8982L16.8887 13.5612L18.6001 10.3601H18.7965L22.864 12.2134L23.1728 11.8203L23.6496 11.2025L25.5291 8.81572L28.3344 10.4163L29.4847 11.0902L32.4862 8.42261L35.2915 10.5567L35.8807 11.0341H36.0209L39.6118 8.81572L42.4171 11.6237L42.6976 11.9326L46.7091 10.2759L47.8313 12.2134L48.5327 13.4489L48.7291 13.7859L48.9254 14.1509L46.1201 19.5703Z" fill="#FD0508"/>
<path d="M43.7084 17.971L43.1194 17.2129L42.5864 17.0444L43.1475 17.7745L45.3074 20.5825V20.2736L43.7084 17.971ZM40.6226 14.0118L40.7909 14.2083L41.6325 15.2754V14.9384L40.9311 14.0398L40.6226 14.0118ZM37.6209 12.8885H34.8156H33.441H30.6357H29.738H27.4095H26.9046L25.8385 13.057H25.3055L23.959 14.8261L23.1174 15.9493C23.1448 16.1261 23.1448 16.306 23.1174 16.4828L24.0712 15.2473L25.7544 13.0009H29.7941H38.0137C37.8738 13.0092 37.7353 12.9695 37.6209 12.8885ZM45.6441 20.4702L45.4757 20.2455L43.7084 17.971L43.1194 17.2129L42.7547 16.7636V16.6232L42.474 16.2862V16.1178L42.1374 15.6965V15.5L41.7167 14.9665L41.0154 14.0679L40.4824 13.394V13.2536H30.1307H27.8023H25.9789L25.6983 13.6467L24.3518 15.4158L23.5102 16.539L23.2577 16.904L22.893 17.3814L22.1636 18.3361L20.4243 20.6387L20.2279 20.8914L20.3962 21.2845V21.5091H20.5645C21.6568 21.0122 22.7815 20.59 23.9309 20.2455L24.6042 20.049L25.2776 19.8524C27.7197 19.1873 30.2369 18.8381 32.7677 18.8134H33.4129C35.5812 18.8399 37.7418 19.075 39.8651 19.5154L41.7448 19.9647L42.4461 20.1613L43.456 20.4982C44.263 20.7717 45.0502 21.1 45.8124 21.481V21.3125L45.9807 20.8633L45.6441 20.4702ZM21.7709 17.8307L22.7247 16.567L23.6785 15.3315L25.3617 13.0851H29.4013H39.753L40.3141 13.8152L40.4824 14.0118L41.3239 15.0788L41.9691 15.9212V16.0897L42.5302 16.8198L43.0913 17.5498L45.2514 20.3578V20.5825C44.1946 20.0701 43.0966 19.6474 41.9691 19.3189C41.4641 19.3189 40.9031 19.01 40.2298 18.8696C38.5699 18.4693 36.8818 18.1971 35.1803 18.0553C34.386 18.0113 33.5901 18.0113 32.7958 18.0553H32.1505C31.4211 18.0553 30.7198 18.0553 30.0465 18.0553C28.3121 18.2028 26.5943 18.5035 24.9129 18.9538C23.2542 19.3539 21.6309 19.8892 20.0596 20.5544V20.3578L21.7709 17.8307ZM37.649 13.1132C37.6353 13.0389 37.6353 12.9628 37.649 12.8885H34.8437H33.4691H30.6638H29.766H27.4376H26.9326L25.8666 13.057H25.3336L23.9871 14.8261L23.1455 15.9493C23.1729 16.1261 23.1729 16.306 23.1455 16.4828L24.0992 15.2473L25.7825 13.0009H29.8222H38.0418L37.649 13.1132ZM40.6507 14.0118L40.819 14.2083L41.6606 15.2754V14.9384L40.6507 14.0118ZM43.7084 17.971L43.1194 17.2129L42.5864 17.0444L43.1475 17.7745L45.3074 20.5825V20.2736L43.7084 17.971Z" fill="white"/>
<path d="M29.8774 18.2236H29.9055L29.2598 10.5859L29.8774 18.2236Z" fill="white"/>
<path d="M48.7011 13.7872L46.2605 9.85603L42.3049 11.3443L39.4996 8.14316L35.8246 10.2492L32.5144 7.44116L29.2322 10.2492L25.5853 8.14316L22.78 11.3443L18.7684 9.85603L16.3838 13.7872L19.5538 20.9476L19.8064 20.8072L16.6925 13.7591L18.8806 10.2211L22.8641 11.6813L25.6694 8.50821L29.3443 10.5861L32.5986 7.94662L35.7967 10.6142L39.4436 8.53632L42.2489 11.6531L46.2043 10.2211L48.3925 13.7591L45.3628 20.9757L45.6432 21.1161L48.7011 13.7872Z" fill="white"/>
<path d="M22.9198 11.6804L18.9363 10.2202L16.748 13.7583L19.8619 20.8063C21.4743 20.1332 23.134 19.5795 24.8275 19.1496L22.9198 11.6804Z" fill="#0592E0"/>
<path d="M25.7252 8.50867L22.9199 11.6817L24.8275 19.151C26.511 18.7042 28.2279 18.3943 29.9612 18.2244L29.344 10.5866L25.7252 8.50867Z" fill="#06079B"/>
<path d="M32.6542 18.1665H35.0389L35.7122 10.5288L32.514 7.72083L29.2598 10.5288L29.8769 18.1665C30.8027 18.1665 31.7284 18.1665 32.6542 18.1665Z" fill="#0592E0"/>
<path d="M35.1787 18.1663C36.8791 18.3173 38.5665 18.5894 40.2282 18.9806L42.22 11.5395L39.4147 8.42261L35.7679 10.5005C35.7679 10.5005 35.2909 16.7623 35.1787 18.1663Z" fill="#06079B"/>
<path d="M35.1794 18.1673C35.1794 16.651 35.7128 10.5015 35.7128 10.5015L35.0391 18.1392L35.1794 18.1673Z" fill="#06079B"/>
<path d="M46.1758 10.2202L42.2204 11.6523L40.2285 19.0935C42.0022 19.5346 43.7234 20.1654 45.3624 20.9748L48.5043 13.8987L46.1758 10.2202Z" fill="#0592E0"/>
<path d="M40.2285 19.0947L42.2207 11.6536L40.2285 19.0947Z" fill="#0592E0"/>
<path d="M19.0205 16.4813C19.0205 16.4813 20.0865 17.9696 21.489 17.2957C21.9011 17.1429 22.2429 16.8442 22.4497 16.4561C22.6565 16.0679 22.714 15.6174 22.6111 15.1897C22.7279 15.4283 22.795 15.6882 22.8086 15.9536C22.8221 16.2189 22.7818 16.4843 22.6901 16.7337C22.5983 16.983 22.457 17.2111 22.2747 17.4042C22.0924 17.5974 21.8728 17.7515 21.6293 17.8572C21.3699 17.9722 21.0879 18.027 20.8044 18.0173C20.5208 18.0077 20.2431 17.9339 19.9921 17.8015C19.7411 17.6691 19.5233 17.4816 19.3551 17.2529C19.1868 17.0243 19.0724 16.7605 19.0205 16.4813Z" fill="white"/>
<path d="M22.9196 15.9486C22.9012 15.689 22.8445 15.4335 22.7513 15.1904C22.831 15.4942 22.831 15.8133 22.7513 16.1171C22.7671 16.2194 22.7671 16.3236 22.7513 16.426C22.6719 16.6133 22.5464 16.7775 22.3866 16.9033C22.2078 17.0724 21.9984 17.2058 21.7696 17.2964C21.5517 17.4053 21.3118 17.4629 21.0683 17.4649C20.7264 17.4297 20.3954 17.3243 20.0961 17.1552C19.7969 16.986 19.5357 16.7569 19.3289 16.4821C19.4196 16.9 19.6441 17.2769 19.9681 17.5556C20.2921 17.8343 20.6979 17.9996 21.1243 18.0265C21.2915 18.0542 21.462 18.0542 21.6292 18.0265C21.741 18.0392 21.854 18.0392 21.9658 18.0265H22.1062C22.5254 17.8385 22.8566 17.4968 23.0318 17.0718C23.0583 16.9326 23.0583 16.7897 23.0318 16.6506C23.0217 16.413 22.9841 16.1774 22.9196 15.9486ZM22.9196 16.5102C22.8894 16.7874 22.7848 17.0512 22.6169 17.2737C22.449 17.4961 22.2239 17.669 21.9658 17.7738H21.7975C21.6857 17.7865 21.5727 17.7865 21.4609 17.7738C21.2937 17.8015 21.1232 17.8015 20.956 17.7738C20.5439 17.763 20.1477 17.6128 19.8318 17.3477C19.5159 17.0825 19.2991 16.718 19.2168 16.3136C19.4169 16.5863 19.6733 16.8127 19.9686 16.9774C20.2638 17.1422 20.591 17.2413 20.9279 17.2683C21.18 17.2633 21.4284 17.2059 21.6573 17.0998C21.8506 17.0146 22.0303 16.901 22.1903 16.7629C22.4109 16.5943 22.5847 16.3719 22.6952 16.1171C22.7044 16.0519 22.7044 15.9857 22.6952 15.9205C22.7595 15.6529 22.7595 15.3738 22.6952 15.1062C22.7184 15.3209 22.7184 15.5374 22.6952 15.752C22.7226 15.9288 22.7226 16.1088 22.6952 16.2855L22.9196 16.5102Z" fill="black"/>
<path d="M20.1164 12.8609L20.8458 12.524L20.5932 13.2821L21.2386 13.7595L20.453 13.928L20.3689 14.7143L19.8359 14.1245L19.1064 14.4615L19.3588 13.7034L18.6855 13.226L19.4712 13.0575L19.5552 12.2432L20.1164 12.8609Z" fill="#FDDA00"/>
<path d="M21.2661 13.7586L20.621 13.3094L20.9016 12.5231L20.1441 12.8601L19.583 12.2423V13.0566L18.7695 13.2251L19.4428 13.7305L19.1902 14.5167L19.8916 14.2079L20.4246 14.8256V14.0394L21.2102 13.8709L21.2661 13.7586ZM20.4527 13.7586V14.4887L19.9758 13.9271L19.3026 14.2079L19.5269 13.5059L18.9098 13.0847L19.6111 12.9162V12.1581L20.088 12.7197L20.7612 12.4108L20.5088 13.1128L21.0978 13.534H20.3686L20.4527 13.7586Z" fill="black"/>
<path d="M19.3564 13.7027V13.6746L20.5915 13.2815V13.3096L19.3564 13.7027Z" fill="black"/>
<path d="M21.2368 13.7585L18.7119 13.225V13.1969L21.2368 13.7585Z" fill="black"/>
<path d="M20.4524 13.9265L19.4697 13.056H19.4978L20.4524 13.9265Z" fill="black"/>
<path d="M20.3679 14.7414L19.5537 12.2703H19.5818L20.3958 14.7133L20.3679 14.7414Z" fill="black"/>
<path d="M20.0808 12.8364L19.8223 14.1021L19.8497 14.1077L20.1083 12.842L20.0808 12.8364Z" fill="black"/>
<path d="M20.751 12.3948L19.0146 14.307L19.0354 14.3259L20.7717 12.4137L20.751 12.3948Z" fill="black"/>
<path d="M45.785 12.1857L46.5705 12.3823L45.9253 12.8316L46.1497 13.6178L45.4203 13.2528L44.8592 13.8425L44.803 13.0281L44.0176 12.8316L44.6909 12.3823L44.4664 11.6241L45.1958 11.961L45.7289 11.3994L45.785 12.1857Z" fill="#FDDA00"/>
<path d="M45.9234 12.8318L46.5967 12.3825L45.8111 12.1859V11.3435L45.2502 11.9612L44.4927 11.5962L44.7172 12.3825L44.0439 12.8598L44.8012 13.0564V13.8427L45.3343 13.281L46.0636 13.618L45.9234 12.8318ZM45.4185 13.253L44.9415 13.7865V13.0283L44.2402 12.8598L44.8574 12.4386L44.661 11.7085L45.3062 12.0174L45.8111 11.4558V12.1859L46.5405 12.3544L45.9234 12.7756L46.1479 13.4776L45.4185 13.253Z" fill="black"/>
<path d="M45.9235 12.8592L44.6885 12.4099V12.3818L45.9235 12.8311V12.8592Z" fill="black"/>
<path d="M46.1471 13.6185L44.4639 11.6528L44.4919 11.6248L46.1471 13.5904V13.6185Z" fill="black"/>
<path d="M45.2083 11.7918L45.1807 11.7969L45.4142 13.0673L45.4418 13.0622L45.2083 11.7918Z" fill="black"/>
<path d="M45.6241 11.3146L44.7559 13.7476L44.7823 13.757L45.6505 11.324L45.6241 11.3146Z" fill="black"/>
<path d="M45.7834 12.1556L44.7998 12.993L44.818 13.0144L45.8016 12.177L45.7834 12.1556Z" fill="black"/>
<path d="M44.0457 12.8592L44.0176 12.8311L46.5705 12.3818L44.0457 12.8592Z" fill="black"/>
<path d="M40.7617 17.0726C42.5888 17.534 44.3723 18.1541 46.0917 18.9259L46.3162 18.4204C44.5752 17.637 42.7617 17.0257 40.9019 16.5952L40.7617 17.0726Z" fill="white"/>
<path d="M47.269 16.2847C45.4355 15.5126 43.5626 14.8377 41.6582 14.2629V14.7683C43.5816 15.2722 45.4587 15.9392 47.269 16.762V16.2847Z" fill="white"/>
<path d="M41.3794 14.769L40.9023 16.5942C42.7597 17.0337 44.5724 17.6447 46.317 18.4194L47.0462 16.7627C45.2109 15.9543 43.3164 15.2878 41.3794 14.769Z" fill="#FD0001"/>
<path d="M43.623 16.6502C43.623 16.6502 43.623 16.4817 44.0724 16.6502C44.5218 16.8186 44.3253 16.8467 44.2972 16.8747C44.2691 16.9028 44.2972 16.8747 44.2972 16.8747C44.2972 16.8747 44.0725 16.8747 44.0163 16.8747C43.9602 16.8747 43.6511 16.7063 43.623 16.6502Z" fill="white"/>
<path d="M44.0722 16.5657H43.8477C43.8128 16.5484 43.7743 16.5394 43.7353 16.5394C43.6963 16.5394 43.658 16.5484 43.623 16.5657H44.3531C44.3531 16.5657 44.2407 16.6219 44.0722 16.5657ZM44.2969 16.8185H44.1284H43.9881C44.0426 16.7992 44.1021 16.7992 44.1566 16.8185H44.3812C44.5778 16.8185 44.6057 16.9589 44.6057 16.9589L44.2969 16.8185Z" fill="#232020"/>
<path d="M23.3132 13.4781C25.3047 12.9442 27.3434 12.6056 29.4005 12.4673V10.5859C27.226 10.7176 25.0721 11.0848 22.9766 11.681L23.3132 13.4781Z" fill="#FD0001"/>
<path d="M23.7617 15.359C25.6612 14.8445 27.606 14.5153 29.5689 14.3762V16.3137C27.6648 16.3102 25.7718 16.6039 23.9581 17.1842L23.7617 15.359Z" fill="#FD0001"/>
<path d="M33.6628 15.2749H33.4945C33.4945 15.2749 33.4945 15.2749 33.4945 15.1345C33.4945 14.9941 33.4945 15.2749 33.3262 15.3311C33.3393 15.3 33.3461 15.2666 33.3461 15.2328C33.3461 15.1991 33.3393 15.1656 33.3262 15.1345H33.1298C33.0992 15.1196 33.0656 15.1119 33.0316 15.1119C32.9976 15.1119 32.9641 15.1196 32.9335 15.1345H31.5029C31.4303 15.1088 31.3511 15.1088 31.2785 15.1345H31.1102C31.1548 15.1345 31.1976 15.1523 31.2292 15.1839C31.2608 15.2155 31.2785 15.2583 31.2785 15.303C31.1835 15.2392 31.1064 15.1522 31.0542 15.0503C31.0405 15.1245 31.0405 15.2007 31.0542 15.2749H31.1944H31.3347C31.3631 15.341 31.4054 15.4003 31.4586 15.4487C31.5118 15.4971 31.5747 15.5336 31.6432 15.5557C31.6432 15.5557 31.6432 15.5557 31.4749 15.7242C31.5475 15.7499 31.6267 15.7499 31.6993 15.7242V15.8927V16.0331C31.7249 16.0479 31.7538 16.0556 31.7834 16.0556C31.8129 16.0556 31.842 16.0479 31.8676 16.0331V16.2577H32.0078H32.1761C32.2152 16.3569 32.2152 16.4673 32.1761 16.5665C32.1934 16.5213 32.1934 16.4714 32.1761 16.4262C32.1761 16.4262 32.1761 16.4261 32.1761 16.5665V16.4262C32.2316 16.4375 32.2889 16.4375 32.3444 16.4262C32.3444 16.2577 32.3444 16.2577 32.3444 16.2296H32.625H32.7933C32.7863 16.1831 32.7863 16.1357 32.7933 16.0892V15.9488C32.8554 15.9751 32.9222 15.9886 32.9896 15.9886C33.0571 15.9886 33.1237 15.9751 33.1858 15.9488C33.2328 15.9359 33.2757 15.911 33.3101 15.8766C33.3445 15.8421 33.3693 15.7993 33.3822 15.7523L33.6628 15.2749Z" fill="#FDD901"/>
<path d="M33.2162 14.3479C33.2162 14.3479 33.2162 14.3479 33.0479 14.3479C33.0479 14.3479 33.0479 14.3479 32.8795 14.1794C32.8472 14.2621 32.7879 14.3314 32.7112 14.376C32.7011 14.398 32.696 14.422 32.696 14.4462C32.696 14.4705 32.7011 14.4944 32.7112 14.5164C32.6849 14.5039 32.6562 14.4975 32.6271 14.4975C32.598 14.4975 32.5692 14.5039 32.5428 14.5164C32.5428 14.5164 32.543 14.3479 32.1221 14.2918L32.2623 14.5164H33.9458V14.2918C33.9458 14.2918 33.2162 14.2356 33.2162 14.3479Z" fill="#FDD901"/>
<path d="M31.8402 14.7897L31.8389 14.8177L33.2689 14.887L33.2702 14.8589L31.8402 14.7897Z" fill="#FDD901"/>
<path d="M31.7275 14.5729V14.7133H33.1593V14.5729H31.7275ZM32.1485 14.7133C32.1485 14.7133 32.1485 14.6852 32.1485 14.7133V14.7133ZM32.8784 14.7133C32.8784 14.7133 32.8784 14.6852 32.8784 14.7133V14.7133Z" fill="#FDD901"/>
<path d="M31.701 15.0516C31.701 15.0516 31.6728 15.0234 31.701 15.0516V15.0516Z" fill="#FDD901"/>
<path d="M32.6259 15.3593C32.6019 15.3413 32.5725 15.3315 32.5424 15.3315C32.5123 15.3315 32.4831 15.3413 32.459 15.3593H32.6259Z" fill="black"/>
<path d="M32.1474 15.1052C32.1474 15.1052 32.3424 15.1052 32.3702 15.2444C32.3702 15.2444 32.1753 15.0773 32.0361 15.1052H32.1474Z" fill="black"/>
<path d="M32.7676 16.0613C32.7676 16.0613 32.7959 16.033 32.7676 16.0613V16.0613Z" fill="black"/>
<path d="M32.8798 14.713C32.8798 14.713 32.8515 14.6847 32.8798 14.713V14.713Z" fill="black"/>
<path d="M32.1483 14.713C32.1483 14.713 32.12 14.6847 32.1483 14.713V14.713Z" fill="black"/>
<path d="M32.5642 14.6302H32.5146V14.6798H32.5642V14.6302Z" fill="black"/>
<path d="M32.907 16.7337C32.8917 16.6791 32.8917 16.6213 32.907 16.5667V16.7337Z" fill="black"/>
<path d="M31.9251 15.8914C31.9091 15.9553 31.9091 16.0223 31.9251 16.0863C31.9251 16.0863 31.9251 15.9471 31.9251 15.8635C31.9251 15.78 31.9251 15.8635 31.9251 15.8635V15.8914Z" fill="black"/>
<path d="M31.8682 11.8491C31.8509 11.8943 31.8509 11.9443 31.8682 11.9895V11.8491Z" fill="#FDD901"/>
<path d="M31.7574 11.0069C31.7332 10.9886 31.7035 10.9788 31.6732 10.9788C31.6428 10.9788 31.6134 10.9886 31.5891 11.0069C31.5891 11.0069 31.5891 11.0069 31.4208 10.8384C31.3808 10.9161 31.323 10.9835 31.2523 11.035C31.2416 11.0812 31.2416 11.1292 31.2523 11.1754C31.2523 11.1754 31.2523 11.1754 31.084 11.1754C31.084 11.1754 31.0841 11.1754 30.6914 10.9788V11.1754H32.3184V10.9507C32.3184 10.9507 31.7855 10.9226 31.7574 11.0069Z" fill="#FDD901"/>
<path d="M30.3629 11.4574L30.3623 11.4855L31.7938 11.5137L31.7944 11.4856L30.3629 11.4574Z" fill="#FDD901"/>
<path d="M30.2979 11.2585V11.3989H31.7014V11.2585H30.2979Z" fill="#FDD901"/>
<path d="M31.3353 11.9316C31.3353 11.9316 31.3353 11.9316 31.3353 11.7646C31.3353 11.5977 31.3353 11.7646 31.3353 11.7646C31.3229 11.7907 31.3164 11.8193 31.3164 11.8481C31.3164 11.877 31.3229 11.9055 31.3353 11.9316C31.3353 11.7925 31.3353 11.9316 31.3353 11.9316C31.3685 11.9145 31.398 11.891 31.4219 11.8623C31.4458 11.8336 31.4636 11.8004 31.4744 11.7646L31.3353 11.9316Z" fill="black"/>
<path d="M30.6901 11.7918C30.7704 11.7593 30.8602 11.7593 30.9405 11.7918C30.9405 11.7918 30.7457 11.6248 30.6064 11.6248L30.6901 11.7918Z" fill="black"/>
<path d="M31.0558 11.8768C31.0489 11.8303 31.0489 11.783 31.0558 11.7365C31.0433 11.7628 31.0368 11.7915 31.0368 11.8207C31.0368 11.8498 31.0433 11.8786 31.0558 11.9049V12.0453H30.8311C30.8311 12.0453 30.8311 12.1857 31.0277 12.2138C31.2243 12.2419 31.0277 12.2138 31.0277 12.2138C31.0277 12.2138 31.0277 11.9611 31.0558 11.8768Z" fill="black"/>
<path d="M31.0834 12.8037V12.551V12.4106C31.0571 12.4231 31.0284 12.4296 30.9993 12.4296C30.9702 12.4296 30.9414 12.4231 30.915 12.4106C30.915 12.4106 30.915 12.4106 30.915 12.4106C30.915 12.4106 30.915 12.4107 30.915 12.551V12.7476L31.0834 12.8037Z" fill="black"/>
<path d="M30.7168 11.3978C30.7168 11.3978 30.6663 11.3726 30.7168 11.3978V11.3978Z" fill="black"/>
<path d="M31.1052 11.3159H31.0557V11.3655H31.1052V11.3159Z" fill="black"/>
<path d="M31.3359 13.4197C31.3203 13.3651 31.3203 13.3073 31.3359 13.2527V13.4197Z" fill="black"/>
<path d="M30.4662 12.5515C30.4539 12.6159 30.4539 12.682 30.4662 12.7463C30.4423 12.6835 30.4423 12.6143 30.4662 12.5515Z" fill="black"/>
<path d="M34.7858 11.8491C34.7686 11.8943 34.7686 11.9443 34.7858 11.9895V11.8491Z" fill="#FDD901"/>
<path d="M35.0378 10.8098C35.0378 10.8098 34.673 10.8098 34.673 11.0064C34.673 11.0064 34.673 11.0064 34.5047 11.0064L34.3083 10.8379C34.3083 10.8379 34.3083 11.0064 34.1119 11.0345C34.1119 11.0345 34.1119 11.0344 34.1119 11.1748C34.0856 11.1623 34.0569 11.1559 34.0278 11.1559C33.9987 11.1559 33.9699 11.1623 33.9436 11.1748C33.9436 11.1748 33.9435 11.1749 33.5508 10.9783L33.6912 11.1748V11.3433H35.3182V11.1468L35.0378 10.8098Z" fill="#FDD901"/>
<path d="M33.1186 11.4415L33.1182 11.4696L34.5498 11.4926L34.5502 11.4645L33.1186 11.4415Z" fill="#FDD901"/>
<path d="M33.1865 11.2585V11.3989H34.6183V11.2585H33.1865Z" fill="#FDD901"/>
<path d="M35.0678 11.9042H35.208L36.1338 12.4658C36.0777 12.5781 35.8812 12.7466 35.8812 12.7466H35.5165V12.887H35.3201H35.0397C35.0225 12.9169 35.0133 12.9508 35.0133 12.9853C35.0133 13.0198 35.0225 13.0537 35.0397 13.0836C34.9631 13.0419 34.8961 12.9845 34.8433 12.9151C34.8255 12.9642 34.7956 13.0079 34.7563 13.0423C34.7171 13.0767 34.6698 13.1005 34.6188 13.1116V12.9432C34.5779 13.0127 34.52 13.0706 34.4505 13.1116C34.4783 13.0701 34.4932 13.0212 34.4932 12.9712C34.4932 12.9213 34.4783 12.8724 34.4505 12.8309C34.3868 12.8095 34.3179 12.8095 34.2542 12.8309V12.6905V12.6062V12.5501H33.9737H33.6371V12.3816C33.5081 12.3087 33.4014 12.2019 33.3286 12.0727H33.4969V11.9323C33.4848 11.8579 33.4848 11.782 33.4969 11.7076C33.4837 11.6523 33.4837 11.5946 33.4969 11.5392C33.5232 11.5517 33.5518 11.5582 33.5809 11.5582C33.6101 11.5582 33.6389 11.5517 33.6652 11.5392H33.8335L33.6843 11.2865H33.3005L33.1322 11.1461L32.8516 10.9776H33.012L32.992 10.9495C33.0788 10.9495 33.1465 10.9606 33.1993 10.9776H33.502L33.4688 10.9214C33.5229 10.9282 33.5705 10.9366 33.6124 10.9461C33.6414 10.917 33.6848 10.8737 33.7492 10.8091L33.9456 10.9776H34.1139C34.1139 10.9776 34.1375 10.9619 34.1734 10.9392C34.2047 10.9092 34.2319 10.8749 34.2542 10.8372L34.2874 10.8705C34.3563 10.8311 34.4304 10.7931 34.4786 10.781V10.9776H34.3944L34.4225 11.0057C34.4488 10.9932 34.4776 10.9867 34.5067 10.9867C34.5358 10.9867 34.5645 10.9932 34.5908 11.0057C34.6188 10.781 34.9555 10.781 34.9555 10.781V10.9776L34.7312 11.3707H34.9276V11.5392C34.9511 11.6122 34.9511 11.6908 34.9276 11.7638V11.9042H35.0678Z" fill="black"/>
<path d="M34.3372 11.9322C34.3248 11.9061 34.3184 11.8775 34.3184 11.8487C34.3184 11.8198 34.3248 11.7912 34.3372 11.7651C34.3372 11.7651 34.3372 11.7651 34.3372 11.7651C34.3248 11.7912 34.3184 11.8198 34.3184 11.8487C34.3184 11.8775 34.3248 11.9061 34.3372 11.9322C34.3372 11.9322 34.3372 11.793 34.3372 11.9322H34.4764C34.4919 11.8776 34.4919 11.8197 34.4764 11.7651L34.3372 11.9322Z" fill="black"/>
<path d="M33.579 11.7918C33.579 11.7918 33.8019 11.7918 33.8297 11.7918C33.8297 11.7918 33.6348 11.6248 33.5234 11.6248L33.579 11.7918Z" fill="black"/>
<path d="M33.9721 12.8037V12.551V12.4106C33.941 12.4238 33.9076 12.4305 33.8738 12.4305C33.8401 12.4305 33.8065 12.4238 33.7754 12.4106C33.7754 12.4106 33.7754 12.4106 33.7754 12.4106C33.7754 12.4106 33.7754 12.4107 33.7754 12.551V12.7476L33.9721 12.8037Z" fill="black"/>
<path d="M33.9941 11.3159H33.9443V11.3655H33.9941V11.3159Z" fill="black"/>
<path d="M34.3652 13.4197C34.3734 13.3643 34.3734 13.3081 34.3652 13.2527V13.4197Z" fill="black"/>
<path d="M33.3818 12.5515C33.3818 12.5515 33.3818 12.6907 33.3818 12.7463C33.3584 12.6835 33.3584 12.6143 33.3818 12.5515Z" fill="black"/>
<path d="M37.5928 12.5515H37.8734C37.8734 12.5515 38.0978 12.5515 38.1539 12.5515C38.21 12.5515 38.1539 12.72 37.9856 12.7481C37.8172 12.7762 37.7892 12.7481 37.677 12.7481C37.5648 12.7481 37.677 12.7481 37.677 12.7481C37.677 12.7481 37.677 12.9166 37.677 12.9446C37.6678 13.0098 37.6678 13.076 37.677 13.1412C37.677 13.2816 37.9575 13.5343 38.1258 13.5624H38.4345C38.4345 13.5624 38.6027 13.7028 38.715 13.7309C38.8162 13.757 38.9223 13.757 39.0235 13.7309C39.1353 13.7168 39.2484 13.7168 39.3601 13.7309C39.5004 13.7309 39.5845 13.7309 39.6967 13.7309C39.809 13.7309 39.6967 13.7309 39.6967 13.7309H39.9212H40.1176H40.2859C40.2859 13.7309 40.2859 13.7309 40.4542 13.7309C40.465 13.777 40.465 13.8251 40.4542 13.8713C40.4542 13.8713 40.2859 13.8713 40.2298 13.8713C40.1737 13.8713 40.2298 13.8713 40.2298 14.0398C40.2298 14.2082 40.2298 14.0398 40.2298 14.0398C40.2138 14.1138 40.2138 14.1904 40.2298 14.2644V14.4048C40.2298 14.4048 40.2298 14.4048 40.2298 14.6294C40.2298 14.8541 40.2298 14.7699 40.2298 14.8541C40.2298 14.9383 40.2298 14.8541 40.2298 14.8541C40.132 14.9235 40.0467 15.009 39.9774 15.1068L39.7529 15.3876C39.7529 15.3876 39.7529 15.3876 39.7529 15.528H39.6127C39.6127 15.528 39.4444 15.528 39.6127 15.528C39.781 15.528 39.6127 15.528 39.8371 15.3314L40.0614 15.1349C40.0614 15.1349 40.2579 14.9664 40.2859 14.8822C40.314 14.7979 40.2859 14.7137 40.1176 14.6575L39.9212 14.826C39.9212 14.826 39.9212 14.826 39.9212 14.9664C39.9212 15.1068 39.7249 14.9664 39.7529 15.1349C39.781 15.3033 39.7529 15.1349 39.7529 15.1349C39.7529 15.1349 39.5566 15.1349 39.4724 15.1349C39.3883 15.1349 39.4724 15.1349 39.4724 15.1349H39.6127C39.685 15.0766 39.7509 15.0107 39.8091 14.9383C39.8418 14.8573 39.8418 14.7666 39.8091 14.6856C39.8091 14.6856 39.8091 14.489 39.8091 14.4048C39.8091 14.3206 39.8091 14.4048 39.6408 14.4048C39.4724 14.4048 39.6408 14.4048 39.6408 14.4048H39.4724H39.1918L39.0235 14.7137C39.0235 14.7137 39.0235 14.9102 39.0235 15.0226C39.0235 15.1349 39.0235 15.0226 39.0235 15.0226C39.0235 15.0226 39.0235 15.2191 38.8552 15.2191H38.715L38.9114 15.0226C38.9114 15.0226 38.9114 14.826 38.9114 14.7418V14.5733C38.9114 14.5733 38.9114 14.3486 38.9114 14.2925C38.9114 14.2363 38.9114 14.2925 38.743 14.2925C38.6806 14.3563 38.6328 14.433 38.6028 14.5171C38.6028 14.5171 38.6028 14.5171 38.6028 14.6575C38.6028 14.7979 38.6028 14.6575 38.6028 14.6575C38.6028 14.6575 38.6028 14.8541 38.6028 14.9102C38.6028 14.9664 38.4063 14.9102 38.3222 14.9102C38.3928 14.8587 38.4504 14.7914 38.4905 14.7137C38.501 14.6298 38.501 14.5448 38.4905 14.4609V14.3206C38.506 14.256 38.506 14.1886 38.4905 14.124C38.503 14.0977 38.5095 14.0689 38.5095 14.0398C38.5095 14.0106 38.503 13.9818 38.4905 13.9555V13.8151C38.4905 13.8151 38.4905 13.8151 38.4905 13.6466C38.4905 13.4782 38.4905 13.4782 38.4905 13.3939C38.4905 13.3097 38.4905 13.2535 38.4905 13.1693C38.4905 13.085 38.4905 13.1693 38.4905 13.1693C38.4905 13.1693 38.4905 13.1693 38.4905 13.0289C38.4905 12.8885 38.6588 13.0289 38.4905 12.8323C38.4905 12.8323 38.4905 12.8323 38.3222 12.8323C38.1539 12.8323 38.3222 12.6919 38.3222 12.6358C38.3222 12.5796 38.3222 12.6358 38.5186 12.6358H38.7711C38.7711 12.6358 38.7711 12.6358 38.7711 12.7762H38.9394C38.9394 12.7762 39.1919 12.7762 39.1077 12.7762L37.5928 12.5515Z" fill="#FDD901"/>
<path d="M40.1998 13.929H39.9194H39.5828C39.471 13.9149 39.3579 13.9149 39.2462 13.929C39.145 13.9552 39.0388 13.9552 38.9376 13.929C38.9376 13.929 38.8876 13.8873 38.8239 13.8448H38.657H38.3485C38.1801 13.8448 38.0118 13.592 37.9276 13.4516V13.3946C37.9176 13.3766 37.9083 13.3581 37.8997 13.3393C37.9086 13.3505 37.918 13.3626 37.9276 13.3754C37.9883 13.4559 38.0621 13.5633 38.1417 13.6443C38.2041 13.6925 38.2736 13.7318 38.3485 13.7605H38.657H38.7972H39.4706C39.4969 13.748 39.5256 13.7415 39.5547 13.7415C39.5838 13.7415 39.6126 13.748 39.6389 13.7605C39.694 13.7761 39.7522 13.7761 39.8072 13.7605C39.8706 13.7368 39.9403 13.7368 40.0036 13.7605L40.1018 13.8448L40.1998 13.929Z" fill="black"/>
<path d="M36.9463 12.3555C37.0214 12.2495 37.1174 12.1599 37.2283 12.0923C37.3393 12.0247 37.4629 11.9805 37.5915 11.9624C37.8598 11.9064 38.1369 11.9064 38.4052 11.9624C38.6809 12.1229 38.9723 12.2546 39.2749 12.3555H39.5272C39.6956 12.3555 39.7236 12.3555 39.5272 12.3555H39.3589C39.0836 12.367 38.811 12.2988 38.5735 12.159C38.5735 12.159 37.7318 11.794 37.2829 12.2994C37.1745 12.3361 37.0608 12.355 36.9463 12.3555Z" fill="#FF0000"/>
<path d="M39.5553 12.5523H39.3029C39.1148 12.5197 38.9342 12.4531 38.7699 12.3557C38.6636 12.2884 38.5509 12.232 38.4333 12.1873H37.4514C37.346 12.2048 37.2483 12.2538 37.171 12.3276L36.9746 12.5242H37.1148H37.9004H38.0406C38.1146 12.5091 38.1908 12.5091 38.2649 12.5242H38.4333C38.5158 12.5484 38.6033 12.5484 38.6857 12.5242H38.9662H38.5736H38.2929H38.0966H37.9283H37.0868H37.2551H37.5357H37.9844H38.2089H38.3772H39.7517C39.7517 12.5242 39.7517 12.3557 39.5834 12.3557L39.5553 12.5523ZM37.4795 12.5523H37.4234H37.4795Z" fill="#000001"/>
<path d="M37.5036 12.3534C37.421 12.2486 37.3018 12.179 37.1699 12.1586C37.2894 12.1732 37.3988 12.233 37.4758 12.3256L37.5036 12.3534Z" fill="#000001"/>
<path d="M37.7032 12.242C37.6548 12.1457 37.5767 12.0677 37.4805 12.0193C37.5339 12.0418 37.5816 12.0761 37.6201 12.1194C37.6586 12.1627 37.687 12.2141 37.7032 12.2698V12.242Z" fill="#000001"/>
<path d="M37.9277 12.1852C37.9277 11.9625 37.9277 11.9347 37.9277 11.9347C37.9277 11.9347 37.956 11.9625 37.9277 12.1852Z" fill="#000001"/>
<path d="M38.21 12.1852C38.21 11.9903 38.21 11.9347 38.21 11.9347C38.21 11.9347 38.2939 11.9625 38.21 12.1852Z" fill="#000001"/>
<path d="M38.4883 12.2413C38.4883 12.2413 38.4883 12.2413 38.4883 12.0464C38.5055 12.076 38.5146 12.1096 38.5146 12.1438C38.5146 12.178 38.5055 12.2116 38.4883 12.2413Z" fill="#000001"/>
<path d="M38.9931 16.4825H38.8262H38.9653C38.9784 16.437 38.9784 16.3888 38.9653 16.3433L38.9931 16.4825Z" fill="#FF0000"/>
<path d="M37.2806 16.2282H36.9463H37.0855C37.0855 16.2282 37.0855 16.2282 37.2527 16.0333L37.2806 16.2282Z" fill="#FF0000"/>
<path d="M39.2179 14.7982C39.2047 14.7523 39.2047 14.7036 39.2179 14.6578C39.2328 14.6271 39.2405 14.5935 39.2405 14.5595C39.2405 14.5254 39.2328 14.4918 39.2179 14.4612C39.2385 14.4898 39.2496 14.5242 39.2496 14.5595C39.2496 14.5947 39.2385 14.6291 39.2179 14.6578C39.2047 14.7036 39.2047 14.7523 39.2179 14.7982Z" fill="black"/>
<path d="M39.4717 14.8265C39.4717 14.8265 39.4717 14.8265 39.4717 14.6861C39.4717 14.5457 39.4717 14.6861 39.4717 14.6861C39.4838 14.6306 39.4838 14.5731 39.4717 14.5176V14.3491V14.0964C39.4963 14.1391 39.5092 14.1875 39.5092 14.2368C39.5092 14.2861 39.4963 14.3345 39.4717 14.3772V14.5457C39.4838 14.6107 39.4838 14.6773 39.4717 14.7422V14.8265Z" fill="black"/>
<path d="M39.752 15.5556V15.3607C39.7756 15.4235 39.7756 15.4927 39.752 15.5556Z" fill="black"/>
<path d="M38.6006 15.358C38.6218 15.2947 38.6218 15.2263 38.6006 15.1631C38.6127 15.2181 38.6127 15.2751 38.6006 15.3302L38.7675 15.1353C38.7262 15.2192 38.6696 15.2948 38.6006 15.358Z" fill="black"/>
<path d="M38.4603 15.3607C38.4603 15.3607 38.4603 15.3607 38.3213 15.3607C38.3213 15.3607 38.3213 15.3607 38.3213 15.4999L38.4603 15.3607Z" fill="black"/>
<path d="M38.7969 13.9576C38.7734 14.0205 38.7734 14.0897 38.7969 14.1525C38.7969 14.1525 38.7691 14.0133 38.7969 13.9576Z" fill="black"/>
<path d="M39.1055 14.2361C39.1332 14.1454 39.1332 14.0484 39.1055 13.9576C39.1105 14.0318 39.1105 14.1062 39.1055 14.1804V14.2361Z" fill="black"/>
<path d="M39.356 14.178C39.356 13.9553 39.1611 13.9275 39.1611 13.9275C39.1611 13.9275 39.3282 14.0945 39.356 14.1502C39.3714 14.1151 39.3793 14.0771 39.3793 14.0388C39.3793 14.0005 39.3714 13.9626 39.356 13.9275C39.3812 13.9644 39.3946 14.0081 39.3946 14.0527C39.3946 14.0974 39.3812 14.1411 39.356 14.178Z" fill="black"/>
<path d="M39.7514 14.6839C39.732 14.65 39.7217 14.6117 39.7217 14.5726C39.7217 14.5335 39.732 14.495 39.7514 14.4612C39.7281 14.524 39.7281 14.5932 39.7514 14.6561C39.7369 14.6307 39.7291 14.6019 39.7291 14.5726C39.7291 14.5432 39.7369 14.5144 39.7514 14.489C39.738 14.5533 39.738 14.6196 39.7514 14.6839Z" fill="black"/>
<path d="M40.2271 14.2364C40.2126 14.211 40.2051 14.1822 40.2051 14.1529C40.2051 14.1236 40.2126 14.0947 40.2271 14.0693C40.2271 14.0693 40.2271 14.0693 40.2271 14.2085V14.2364Z" fill="black"/>
<path d="M39.752 15.359C39.7694 15.3142 39.7694 15.2647 39.752 15.2198V15.359Z" fill="black"/>
<path d="M37.8174 14.9939C37.8632 15.0046 37.9108 15.0046 37.9567 14.9939C37.9708 14.9391 37.9708 14.8817 37.9567 14.8269C37.9818 14.8638 37.9953 14.9075 37.9953 14.9522C37.9953 14.9968 37.9818 15.0405 37.9567 15.0774L37.8174 14.9939Z" fill="black"/>
<path d="M37.7874 14.9103C37.7752 14.8548 37.7752 14.7973 37.7874 14.7418C37.7714 14.6677 37.7714 14.5911 37.7874 14.5171C37.7874 14.5171 37.7874 14.6575 37.7874 14.7418C37.7752 14.7973 37.7752 14.8548 37.7874 14.9103C37.7755 14.8642 37.7755 14.8159 37.7874 14.7698C37.7999 14.7435 37.8064 14.7147 37.8064 14.6856C37.8064 14.6564 37.7999 14.6277 37.7874 14.6013C37.8093 14.6554 37.8093 14.7158 37.7874 14.7698C37.7723 14.8154 37.7723 14.8647 37.7874 14.9103Z" fill="black"/>
<path d="M38.5726 14.8543C38.5726 14.8543 38.5726 14.7139 38.5726 14.6577C38.5874 14.6321 38.5951 14.603 38.5951 14.5735C38.5951 14.5439 38.5874 14.5148 38.5726 14.4892C38.5726 14.4892 38.5726 14.4892 38.5726 14.3488C38.5726 14.2084 38.5726 14.3488 38.5726 14.1803C38.5595 14.2357 38.5595 14.2934 38.5726 14.3488C38.5754 14.3956 38.5754 14.4425 38.5726 14.4892C38.5726 14.2365 38.5726 14.2084 38.5726 14.2084C38.5726 14.2084 38.5726 14.2084 38.5726 14.4611C38.5754 14.4144 38.5754 14.3675 38.5726 14.3207C38.5489 14.2574 38.5489 14.1875 38.5726 14.1241C38.5595 14.1553 38.5527 14.1887 38.5527 14.2224C38.5527 14.2562 38.5595 14.2896 38.5726 14.3207C38.5726 14.3207 38.5726 14.3207 38.5726 14.4611C38.5932 14.4898 38.6042 14.5242 38.6042 14.5594C38.6042 14.5947 38.5932 14.6291 38.5726 14.6577C38.557 14.7128 38.557 14.7711 38.5726 14.8262C38.5726 14.8262 38.5726 14.6858 38.7412 14.6858V14.5454V14.6858C38.7412 14.6858 38.7412 14.6858 38.5726 14.8262V14.8543Z" fill="black"/>
<path d="M38.9385 14.3477C38.9665 14.257 38.9665 14.16 38.9385 14.0693C38.9511 14.1617 38.9511 14.2553 38.9385 14.3477C38.9385 14.1528 38.9385 14.125 38.9385 14.125C38.9385 14.125 38.9385 14.3198 38.9385 14.3755V14.3477Z" fill="black"/>
<path d="M38.3213 14.152C38.3344 14.0971 38.3344 14.0398 38.3213 13.9849C38.343 14.0385 38.343 14.0984 38.3213 14.152Z" fill="black"/>
<path d="M38.0947 14.7676C38.1145 14.7287 38.1249 14.6858 38.1249 14.6423C38.1249 14.5988 38.1145 14.5559 38.0947 14.5171C38.0947 14.5171 38.0947 14.5171 38.0947 14.5171V14.7676Z" fill="black"/>
<path d="M37.9842 14.9658C37.9801 15.0307 37.9801 15.0958 37.9842 15.1607C37.9662 15.0969 37.9662 15.0296 37.9842 14.9658Z" fill="black"/>
<path d="M37.6201 15.3573C37.6201 15.3573 37.6201 15.3573 37.6201 15.1346C37.6201 14.912 37.7315 15.3573 37.6201 15.3573Z" fill="black"/>
<path d="M37.6473 14.9676C37.6595 14.9121 37.6595 14.8546 37.6473 14.7991C37.6276 14.765 37.6172 14.7262 37.6172 14.6868C37.6172 14.6473 37.6276 14.6086 37.6473 14.5745C37.6473 14.5745 37.6473 14.5745 37.6473 14.7991C37.6645 14.8539 37.6645 14.9128 37.6473 14.9676Z" fill="black"/>
<path d="M37.5076 15.3594C37.4913 15.2759 37.4913 15.1902 37.5076 15.1067C37.4844 15.1894 37.4844 15.2767 37.5076 15.3594V15.1067V15.4437V15.3594Z" fill="black"/>
<path d="M37.5072 14.8801C37.4967 14.8062 37.4967 14.7312 37.5072 14.6573C37.4924 14.7308 37.4924 14.8066 37.5072 14.8801Z" fill="black"/>
<path d="M37.6753 13.8152V13.9543C37.6753 13.9543 37.6478 13.843 37.6753 13.8152Z" fill="black"/>
<path d="M37.3103 13.7881C37.3103 13.7881 37.3103 13.7881 37.3103 13.9551C37.2958 13.9297 37.2881 13.9009 37.2881 13.8716C37.2881 13.8423 37.2958 13.8135 37.3103 13.7881Z" fill="black"/>
<path d="M37.2549 12.7769C37.2549 12.7769 37.2803 12.8275 37.2549 12.7769V12.7769Z" fill="black"/>
<path d="M36.9463 13.8411C36.9463 13.8411 36.9463 13.8411 36.9463 13.702C36.9635 13.7468 36.9635 13.7964 36.9463 13.8411Z" fill="black"/>
<path d="M36.9458 14.4335C36.9196 14.4458 36.8909 14.4523 36.862 14.4523C36.833 14.4523 36.8045 14.4458 36.7783 14.4335H36.9458Z" fill="black"/>
<path d="M36.666 14.2932H36.8054C36.7945 14.329 36.7766 14.3622 36.7526 14.3909C36.7287 14.4196 36.6993 14.4431 36.666 14.4602V14.2932Z" fill="black"/>
<path d="M36.9465 15.0211C36.9345 14.9661 36.9345 14.9091 36.9465 14.8541V15.049V15.0211Z" fill="black"/>
<path d="M37.1992 13.7581V13.5632C37.1992 13.5632 37.2549 13.7302 37.1992 13.7581Z" fill="black"/>
<path d="M37.1152 13.5888C37.1152 13.5888 37.1661 13.5634 37.1152 13.5888V13.5888Z" fill="black"/>
<path d="M36.9463 14.7128C36.9604 14.658 36.9604 14.6005 36.9463 14.5458C36.9463 14.5458 36.9463 14.5458 36.9463 14.7128Z" fill="black"/>
<path d="M37.3955 15.9765V15.8094C37.3955 15.8094 37.4233 15.9486 37.3955 15.9765Z" fill="black"/>
<path d="M37.3397 14.6561C37.3139 14.5841 37.3139 14.5055 37.3397 14.4335C37.3288 14.4792 37.3288 14.5269 37.3397 14.5726V14.6561Z" fill="black"/>
<path d="M37.2549 15.0202C37.2647 14.9744 37.2647 14.9269 37.2549 14.8811C37.268 14.9265 37.268 14.9748 37.2549 15.0202C37.2549 15.0202 37.2549 15.0202 37.2549 14.8254C37.2549 14.6306 37.2549 14.9646 37.2549 15.0202Z" fill="black"/>
<path d="M37.2258 14.6307C37.2258 14.6307 37.2258 14.6306 37.2258 14.4621V14.2936C37.2134 14.2673 37.2071 14.2385 37.2071 14.2094C37.2071 14.1803 37.2134 14.1515 37.2258 14.1252C37.2381 14.1038 37.2446 14.0796 37.2446 14.055C37.2446 14.0303 37.2381 14.0061 37.2258 13.9847V14.1252C37.2128 14.1563 37.2061 14.1897 37.2061 14.2235C37.2061 14.2572 37.2128 14.2907 37.2258 14.3218C37.2096 14.4241 37.2096 14.5283 37.2258 14.6307Z" fill="black"/>
<path d="M38.0127 15.3608C38.0386 15.3573 38.0636 15.3488 38.0861 15.3356C38.1087 15.3224 38.1283 15.3048 38.144 15.2838C38.1597 15.2629 38.171 15.2391 38.1774 15.2137C38.1837 15.1884 38.1849 15.162 38.181 15.1361C38.1528 15.0639 38.1528 14.9837 38.181 14.9115C38.1591 14.9655 38.1591 15.0259 38.181 15.08C38.181 15.08 38.1529 15.1923 38.0127 15.3608Z" fill="black"/>
<path d="M38.9655 15.4965C38.9809 15.4419 38.9809 15.3841 38.9655 15.3295C38.9438 15.276 38.9438 15.216 38.9655 15.1625C38.9655 15.1625 38.9655 15.1625 38.9655 15.1625C39.0097 15.1625 39.0523 15.1801 39.0836 15.2114C39.1149 15.2427 39.1325 15.2852 39.1325 15.3295C39.1325 15.3738 39.1149 15.4163 39.0836 15.4476C39.0523 15.4789 39.0097 15.4965 38.9655 15.4965Z" fill="black"/>
<path d="M37.4517 15.7239C37.4328 15.6699 37.4328 15.6109 37.4517 15.5569C37.4517 15.5569 37.4517 15.696 37.4517 15.7796V15.7239Z" fill="black"/>
<path d="M37.1429 14.9683C37.128 14.9426 37.1201 14.9136 37.1201 14.884C37.1201 14.8544 37.128 14.8254 37.1429 14.7998V14.6031C37.1429 14.6031 37.1429 14.7717 37.1429 14.8278V14.9683Z" fill="black"/>
<path d="M37.788 15.3573C37.7733 15.327 37.7656 15.2936 37.7656 15.2599C37.7656 15.2261 37.7733 15.1928 37.788 15.1625C37.7739 15.2172 37.7739 15.2747 37.788 15.3295C37.788 15.3295 37.8434 15.1903 37.788 15.3573Z" fill="black"/>
<path d="M37.8721 14.684C37.8721 14.684 37.8721 14.684 37.8721 14.5171C37.8868 14.5425 37.8945 14.5713 37.8945 14.6006C37.8945 14.6299 37.8868 14.6587 37.8721 14.684Z" fill="black"/>
<path d="M37.8447 13.8152C37.8571 13.8413 37.8636 13.8698 37.8636 13.8987C37.8636 13.9275 37.8571 13.956 37.8447 13.9821C37.856 13.9271 37.856 13.8703 37.8447 13.8152Z" fill="black"/>
<path d="M37.1152 12.5528C37.1877 12.4595 37.2817 12.3852 37.3892 12.3363C37.4967 12.2874 37.6146 12.2653 37.7325 12.272C38.0713 12.2264 38.4143 12.3174 38.6862 12.5247L39.0229 12.8055C39.2259 12.9564 39.4537 13.0705 39.6961 13.1425C40.0328 13.1425 40.0609 13.1425 40.117 13.1425C40.1731 13.1425 40.2853 13.1425 40.117 13.1425C39.9342 13.2136 39.7354 13.2329 39.5424 13.1982C39.3493 13.1635 39.1695 13.0762 39.0229 12.9459C38.7374 12.7062 38.4019 12.5335 38.0411 12.4405C37.6764 12.4405 37.6482 12.4405 37.6202 12.4405C37.4603 12.509 37.2891 12.547 37.1152 12.5528Z" fill="#FF0000"/>
<path d="M40.1736 12.9728H39.5564L39.2478 12.7482H39.0515H38.7989H37.9014H38.2659H37.9293H38.8831L39.1357 12.9447H39.304H39.4442H40.1175H39.4161H39.2198H39.0515L38.771 12.7482H38.5184H38.3501H38.6587H38.7989L39.0795 12.9447H39.2478C39.3494 12.9676 39.4548 12.9676 39.5564 12.9447H39.7808H40.0332L40.1736 12.9728Z" fill="black"/>
<path d="M37.6184 12.5487C37.6314 12.5179 37.6381 12.4848 37.6381 12.4513C37.6381 12.4179 37.6314 12.3847 37.6184 12.3539C37.5452 12.3362 37.4687 12.3362 37.3955 12.3539C37.4306 12.3386 37.4687 12.3307 37.507 12.3307C37.5454 12.3307 37.5832 12.3386 37.6184 12.3539C37.6332 12.3843 37.6408 12.4176 37.6408 12.4513C37.6408 12.485 37.6332 12.5184 37.6184 12.5487Z" fill="black"/>
<path d="M37.8152 12.5495C37.8282 12.5187 37.8349 12.4856 37.8349 12.4521C37.8349 12.4187 37.8282 12.3855 37.8152 12.3547C37.7512 12.3382 37.6841 12.3382 37.6201 12.3547C37.6505 12.3399 37.684 12.3323 37.7178 12.3323C37.7515 12.3323 37.7848 12.3399 37.8152 12.3547C37.8152 12.3547 37.8152 12.3547 37.8152 12.5495Z" fill="black"/>
<path d="M38.3213 12.5503C38.3385 12.5055 38.3385 12.4559 38.3213 12.4111C38.3385 12.4559 38.3385 12.5055 38.3213 12.5503Z" fill="black"/>
<path d="M38.5723 12.5509C38.7673 12.5509 38.7395 12.384 38.7395 12.384C38.7337 12.4263 38.7142 12.4655 38.684 12.4957C38.6538 12.5258 38.6146 12.5452 38.5723 12.5509Z" fill="black"/>
</svg>
