<svg width="65" height="65" viewBox="0 0 65 65" fill="none" xmlns="http://www.w3.org/2000/svg">
<path d="M65 32.5578C65.0016 33.8579 64.9172 35.1567 64.7475 36.4457C64.468 38.9615 63.8745 41.4327 62.9809 43.8018C62.2718 45.7461 61.3798 47.6191 60.317 49.3959L59.1112 51.214C58.8589 51.5496 58.6345 51.8852 58.3821 52.1929C56.5356 54.6035 54.3654 56.7494 51.9327 58.5701C46.3131 62.745 39.4931 65 32.4862 65C25.4792 65 18.6592 62.745 13.0396 58.5701C10.622 56.7414 8.46224 54.5963 6.61826 52.1929C6.36589 51.8852 6.1135 51.5496 5.88917 51.214L4.68342 49.3959C3.60908 47.6253 2.71656 45.7511 2.01947 43.8018C1.12974 41.4298 0.527223 38.9603 0.224798 36.4457C0.0785817 35.1548 0.00364411 33.8569 0.000421225 32.5578C-0.0297421 26.6502 1.56059 20.8467 4.59921 15.7757C5.01983 15.0765 5.4686 14.4052 5.9453 13.7339C10.3986 7.44168 16.9474 2.93155 24.4243 1.00747C29.2052 -0.213312 34.2028 -0.326235 39.0342 0.677347C43.8655 1.68093 48.4024 3.77436 52.2972 6.79728C54.8427 8.76179 57.074 11.1007 58.9149 13.7339L59.2235 14.1535C59.588 14.6849 59.9526 15.2443 60.261 15.7757C62.6872 19.7701 64.1999 24.2492 64.6914 28.8938C64.9157 30.1804 65 31.3551 65 32.5578Z" fill="#F52717"/>
<path d="M49.7168 27.4666H37.6311V15.4115H27.3399V27.4666H15.2822V37.7317H27.3399V49.7589H37.6311V37.7317H49.7168V27.4666Z" fill="white"/>
</svg>
