<svg width="65" height="65" viewBox="0 0 65 65" fill="none" xmlns="http://www.w3.org/2000/svg">
<path d="M64.041 24.6582H1.25586C1.25586 24.6582 1.25586 24.4631 1.25586 24.3795C1.25586 24.1009 1.39549 23.8223 1.47924 23.5437C1.56299 23.2651 1.47926 23.07 1.67468 22.8193L1.92601 22.0949C1.92601 22.0949 1.92592 21.872 2.70759 21.3426L2.48421 20.7018C2.47746 20.6091 2.47746 20.516 2.48421 20.4232C2.47375 20.3213 2.47375 20.2186 2.48421 20.1167C2.51867 20.0006 2.5656 19.8886 2.62393 19.7824H61.9193C61.9193 19.9774 62.0867 20.2003 62.1984 20.4232C62.1984 20.7854 62.4776 21.1198 62.5893 21.482C62.9789 22.5321 63.3143 23.6016 63.5942 24.686C63.5942 24.686 64.041 24.5746 64.041 24.6582Z" fill="#FD2A2A"/>
<path d="M59.4348 14.2638H5.8623C7.1474 12.3876 8.62579 10.6507 10.2732 9.08167H54.9403C56.5637 10.6577 58.0229 12.394 59.2953 14.2638H59.4348Z" fill="#FD2A2A"/>
<path d="M47.9325 3.9016H17.4473C17.5961 3.80152 17.7552 3.71743 17.9218 3.65082H18.173L19.3456 3.0936L19.8201 2.8707L20.7694 2.48065C21.3076 2.2566 21.8573 2.06132 22.4164 1.89558C24.2366 1.3006 26.1045 0.862495 27.9998 0.586097V0.168152V0.558209C29.3053 0.384843 30.6194 0.282575 31.9361 0.251775H32.4386C37.7573 0.248873 42.9939 1.56021 47.6811 4.06876L47.9325 3.9016Z" fill="#FD2A2A"/>
<path d="M64.9897 32.0673V33.3489C65.0031 33.6087 65.0031 33.8691 64.9897 34.129C64.9897 34.4076 64.9897 34.7141 64.9897 35.0205H0.501651C0.501651 34.4633 0.501651 33.9061 0.501651 33.3489V33.1817C0.501651 32.9031 0.501651 32.6245 0.501651 32.3738V32.2066C0.48859 32.1516 0.48859 32.0944 0.501651 32.0394V31.8165C0.487739 31.566 0.487739 31.3149 0.501651 31.0643C0.487731 30.851 0.487731 30.6369 0.501651 30.4235C0.501651 30.4235 0.501651 30.1449 0.501651 30.0056H64.9617C64.9617 30.0056 64.9617 30.6186 64.9617 30.925C64.9617 31.2315 64.9617 31.5101 64.9617 31.8165V32.2066L64.9897 32.0673Z" fill="#FD2A2A"/>
<path d="M64.1244 40.2031C63.9011 41.1226 63.622 42.0698 63.3149 42.9893V43.2122C63.2481 43.4501 63.164 43.6829 63.0636 43.9087C62.924 44.2988 62.8124 44.6609 62.6449 45.0231C62.6008 45.1489 62.5447 45.2702 62.4774 45.3853H2.9028C2.70739 44.9396 2.51193 44.4938 2.34443 44.0201L2.09328 43.3236C2.10577 43.2498 2.10577 43.1745 2.09328 43.1007C1.81411 42.2091 1.53486 41.2618 1.31152 40.3146H64.236L64.1244 40.2031Z" fill="#FD2A2A"/>
<path d="M59.6012 50.5966C58.3718 52.4748 56.9394 54.2126 55.3299 55.7788H10.0208C8.40154 54.2141 6.95984 52.4762 5.72168 50.5966H59.6012Z" fill="#FD2A2A"/>
<path d="M48.352 60.961C44.0774 63.3223 39.3226 64.6868 34.4441 64.9522C29.5657 65.2176 24.6903 64.3769 20.1839 62.4933L19.3744 62.1311C18.5555 61.7782 17.7737 61.3882 17.0293 60.961H48.3799H48.352Z" fill="#FD2A2A"/>
<path d="M62.3099 19.4743H3.07031C3.32156 18.8892 3.60067 18.332 3.87984 17.7748C3.98092 17.5739 4.09273 17.3786 4.21483 17.1897C4.27826 17.0448 4.35298 16.9051 4.43821 16.7718L4.6616 15.9917V16.2703C5.02452 15.6295 5.41528 15.0165 5.80611 14.4036H59.3787C60.2414 15.6772 61.0156 17.0084 61.6958 18.3877C61.8912 18.7778 62.0867 19.1957 62.2542 19.5857L62.3099 19.4743Z" fill="white"/>
<path d="M55.0802 9.08216H10.4131C12.278 7.28119 14.3597 5.71829 16.6106 4.42931H16.7503L17.6157 3.95563H48.1289C50.7262 5.35304 53.121 7.09641 55.2477 9.13785L55.0802 9.08216Z" fill="white"/>
<path d="M64.8779 29.8393H0.417772C0.404216 29.775 0.404216 29.7086 0.417772 29.6443V29.3935C0.417772 29.0592 0.417772 28.697 0.417772 28.3348L0.138672 28.5577L0.585267 27.3875C0.57182 27.2578 0.57182 27.1271 0.585267 26.9974C0.57212 26.8957 0.57212 26.7927 0.585267 26.691C0.585267 26.3566 0.585287 26.0223 0.780705 25.7158C0.838807 25.3873 0.913393 25.0618 1.00409 24.7407H63.7891C63.8014 24.8704 63.8014 25.001 63.7891 25.1307C63.7891 25.7158 64.0403 26.3009 64.152 26.886V27.499C64.152 27.8054 64.152 28.1119 64.2915 28.4183C64.4311 28.7248 64.2915 29.1149 64.2915 29.4771C64.5034 29.569 64.7009 29.691 64.8779 29.8393Z" fill="white"/>
<path d="M64.9071 35.0203C64.7896 36.757 64.5281 38.481 64.1253 40.1746H1.2007C0.784447 38.4836 0.522734 36.7584 0.418945 35.0203H64.9071Z" fill="white"/>
<path d="M62.3942 45.4128C61.6306 47.2247 60.6958 48.9599 59.6025 50.595H5.69501C4.62279 48.9474 3.68904 47.2141 2.90332 45.4128H62.3942Z" fill="white"/>
<path d="M55.3017 55.778C53.2291 57.7902 50.9015 59.5231 48.3782 60.9323H17.0275C14.4894 59.5329 12.1514 57.7992 10.0762 55.778H55.3575H55.3017Z" fill="white"/>
<path d="M32.16 0.0843506V30.2858H0.279099C0.279099 30.2858 0.279099 30.0072 0.279099 29.8679C0.265543 29.8036 0.265543 29.7372 0.279099 29.6729V29.4221C0.279099 29.0878 0.279099 28.7256 0.279099 28.3634L0 28.5863L0.446593 27.4161C0.433146 27.2865 0.433146 27.1557 0.446593 27.026C0.433446 26.9243 0.433446 26.8213 0.446593 26.7196C0.446593 26.3853 0.446613 26.0509 0.642031 25.7444C0.700132 25.4159 0.774718 25.0904 0.865412 24.7693C0.865412 24.7693 0.865412 24.5743 0.865412 24.4907C0.865412 24.2121 1.00487 23.9335 1.08862 23.6549C1.17237 23.3762 1.08864 23.1812 1.28406 22.9305L1.53539 22.2061C1.53539 22.2061 1.53539 21.9832 1.53539 21.8718L1.89832 20.8966C1.89157 20.8038 1.89157 20.7108 1.89832 20.618C1.88787 20.5161 1.88787 20.4134 1.89832 20.3115C1.93278 20.1954 1.97954 20.0833 2.03787 19.9772C2.28912 19.3921 2.56822 18.8349 2.84739 18.2776C2.94847 18.0768 3.06028 17.8815 3.18238 17.6926C3.24581 17.5477 3.32053 17.4079 3.40576 17.2746L3.62914 16.4945V16.7732C3.99206 16.1324 4.38282 15.5194 4.77365 14.9065C6.05874 13.0302 7.53713 11.2934 9.18455 9.72431C11.0495 7.92336 13.1312 6.36048 15.382 5.07151H15.5217L16.3871 4.59788C16.536 4.4978 16.695 4.41371 16.8617 4.3471H17.113L18.2854 3.78988L18.76 3.56699L19.7092 3.17693C20.2475 2.95289 20.7972 2.75761 21.3562 2.59188C23.1764 1.99689 25.0444 1.5588 26.9396 1.2824V0.864458V1.25451C28.6485 0.736795 30.3933 0.345682 32.16 0.0843506Z" fill="#194396"/>
<path d="M25.4591 5.0989L25.8778 6.3248L24.8449 5.57254V5.54469V5.57254L23.812 6.3248L24.2587 5.0989L23.1699 4.37452H24.454L24.8169 3.14862L25.2078 4.37452H26.492L25.4312 5.0989H25.4591Z" fill="white"/>
<path d="M25.4591 11.45L25.8778 12.6759L24.8449 11.8958L23.812 12.6759L24.2587 11.45L23.1699 10.7256H24.454L24.8169 9.49976L25.2078 10.7256H26.492L25.4312 11.45H25.4591Z" fill="white"/>
<path d="M25.4591 17.8027L25.8778 19.0286L24.8449 18.2485L23.812 19.0286L24.2587 17.8027L23.1699 17.0783H24.454L24.8169 15.8525L25.2078 17.0783H26.492L25.4312 17.8027H25.4591Z" fill="white"/>
<path d="M25.4591 24.1544L25.8778 25.3525L24.8449 24.6002L23.812 25.3525L24.2587 24.1544L23.1699 23.43H24.454L24.8169 22.2042L25.2078 23.43H26.492L25.4312 24.1544H25.4591Z" fill="white"/>
<path d="M19.038 6.0444V6.32303L18.7869 6.15587L18.4798 5.93298L18.1726 5.71009L17.112 6.46234V6.23945L17.4469 5.32005L16.749 4.84643H18.0331V4.53996V4.3728H18.2844L18.4519 4.84643H19.8198L18.7589 5.57078V5.96083V6.29518L19.038 6.0444Z" fill="white"/>
<path d="M18.6753 11.45L19.1219 12.6759L18.089 11.8958L17.0561 12.6759L17.4747 11.45L16.4141 10.7256H17.6981L18.0611 9.49976L18.4519 10.7256H19.736L18.6753 11.45Z" fill="white"/>
<path d="M18.6753 17.8027L19.1219 19.0286L18.089 18.2485L17.0561 19.0286L17.4747 17.8027L16.4141 17.0783H17.6981L18.0611 15.8525L18.4519 17.0783H19.736L18.6753 17.8027Z" fill="white"/>
<path d="M18.6753 24.1544L19.1219 25.3525L18.089 24.6002L17.0561 25.3525L17.4747 24.1544L16.4141 23.43H17.6981L18.0611 22.2042L18.4519 23.43H19.736L18.6753 24.1544Z" fill="white"/>
<path d="M11.9185 11.45L12.3652 12.6759L11.3044 11.8958L10.2715 12.6759L10.7181 11.45L9.65723 10.7256H10.9415L11.2764 9.49976L11.6953 10.7256H11.6673H11.6953H12.9793L11.9185 11.45H11.8905H11.9185Z" fill="white"/>
<path d="M11.9185 17.8027L12.3652 19.0286L11.3044 18.2485L10.2715 19.0286L10.7181 17.8027L9.65723 17.0783H10.9415L11.2764 15.8525L11.6953 17.0783H11.6673H11.6953H12.9793L11.9185 17.8027H11.8905H11.9185Z" fill="white"/>
<path d="M11.9185 24.1544L12.3652 25.3525L11.3044 24.6002L10.2715 25.3525L10.7181 24.1544L9.65723 23.43H10.9415L11.2764 22.2042L11.6953 23.43H11.6673H11.6953H12.9793L11.9185 24.1544H11.8905H11.9185Z" fill="white"/>
<path d="M5.55462 18.6388L5.69416 19.0289L5.44284 18.8339L4.66129 18.2488L3.7959 18.8896L4.21454 17.6637C4.31561 17.4628 4.42759 17.2675 4.54968 17.0786V16.7721L4.77289 15.992V16.2706V16.5214L4.91243 16.995H6.22457L5.13581 17.7194L5.55462 18.6388Z" fill="white"/>
<path d="M5.27596 24.1544L5.69479 25.3525L4.66186 24.6002L3.62892 25.3525L4.04758 24.1544H4.07553L3.01465 23.43H4.27097L4.63391 22.2042L5.0248 23.43H6.33684L5.24819 24.1544H5.27596Z" fill="white"/>
<path d="M28.7262 8.27477L29.145 9.50069L28.1119 8.72057L27.0789 9.50069L27.5257 8.27477L26.4648 7.55038H27.7491L28.0841 6.32446L28.4748 7.55038H28.5028H29.787L28.7262 8.27477H28.6982H28.7262Z" fill="white"/>
<path d="M28.7262 14.6259L29.145 15.8518L28.1119 15.0717L27.0789 15.8518L27.5257 14.6259V14.598L26.4648 13.9015H27.7491L28.0841 12.6757L28.4748 13.9015H28.5028H29.787L28.7262 14.598H28.6982L28.7262 14.6259Z" fill="white"/>
<path d="M28.7262 20.9785L29.145 22.2044L28.1119 21.4243L27.0789 22.2044L27.5257 20.9785L26.4648 20.2541H27.7491L28.0841 19.0283L28.4748 20.2541H28.5028H29.787L28.7262 20.9785H28.6982H28.7262Z" fill="white"/>
<path d="M28.7262 27.3313L29.145 28.5572L28.1119 27.8049V27.7771V27.8049L27.0789 28.5572L27.5257 27.3313L26.4648 26.6069H27.7491L28.0841 25.381L28.4748 26.6069H28.5028H29.787L28.7262 27.3313H28.6982H28.7262Z" fill="white"/>
<path d="M29.787 1.2259L29.3961 1.50453L29.2845 1.56022L28.7262 1.95028L28.8937 2.47965H28.9216L29.0053 2.73043L29.0612 2.89759L29.145 3.17618L28.8378 2.92544H28.8098L28.6423 2.78612L28.3073 2.56323L28.1398 2.42396H28.1119L27.8328 2.64681L27.3303 3.00902H27.3023L27.0789 3.17618L27.1348 3.03691L27.2464 2.73043L27.5257 1.95028L27.4419 1.89459L27.2744 1.78312L26.4648 1.2259H27.7491L27.8607 0.835846L27.9166 0.668685V0.585105H27.9444L27.9723 0.417944L28.0841 0L28.2237 0.390056L28.2516 0.52937L28.2796 0.612951L28.3353 0.752265L28.5028 1.2259H29.787Z" fill="white"/>
<path d="M22.108 8.27477L22.5546 9.50069L21.5217 8.72057H21.4937L20.4887 9.50069L20.9076 8.27477L19.8467 7.55038H21.1308L21.4659 6.32446L21.8846 7.55038H23.1689L22.108 8.27477Z" fill="white"/>
<path d="M22.108 14.6259L22.5546 15.8518L21.5217 15.0717H21.4937L20.4887 15.8518L20.9076 14.6259V14.598L19.8467 13.9015H21.1308L21.4659 12.6757L21.8846 13.9015H23.1689L22.108 14.598V14.6259Z" fill="white"/>
<path d="M22.108 20.9785L22.5546 22.2044L21.5217 21.4243H21.4937L20.4887 22.2044L20.9076 20.9785L19.8467 20.2541H21.1308L21.4659 19.0283L21.8846 20.2541H23.1689L22.108 20.9785Z" fill="white"/>
<path d="M22.108 27.3313L22.5546 28.5572L21.5217 27.8049V27.7771L21.4937 27.8049L20.4887 28.5572L20.9076 27.3313L19.8467 26.6069H21.1308L21.4659 25.381L21.8846 26.6069H23.1689L22.108 27.3313Z" fill="white"/>
<path d="M22.6115 3.17553L22.3881 3.03625L21.6065 2.45114L20.6572 3.14768V2.75762V2.6183V2.45114C21.1955 2.2271 21.7454 2.03177 22.3044 1.86603L21.9974 2.06108L22.2765 2.8412L22.6115 3.17553Z" fill="white"/>
<path d="M15.2428 8.27477L15.6616 9.50069L14.6287 8.72057L13.5957 9.50069L14.0144 8.27477H14.0423L12.9814 7.55038H14.2378L14.6007 6.32446L14.9916 7.55038H16.3036L15.2428 8.27477H15.2148H15.2428Z" fill="white"/>
<path d="M15.2428 14.6259L15.6616 15.8518L14.6287 15.0717L13.5957 15.8518L14.0144 14.6259L14.0423 14.598L12.9814 13.9015H14.2378L14.6007 12.6757L14.9916 13.9015H16.3036L15.2428 14.598H15.2148L15.2428 14.6259Z" fill="white"/>
<path d="M15.2428 20.9785L15.6616 22.2044L14.6287 21.4243L13.5957 22.2044L14.0144 20.9785H14.0423L12.9814 20.2541H14.2378L14.6007 19.0283L14.9916 20.2541H16.3036L15.2428 20.9785H15.2148H15.2428Z" fill="white"/>
<path d="M15.2428 27.3313L15.6616 28.5572L14.6287 27.8049V27.7771V27.8049L13.5957 28.5572L14.0144 27.3313H14.0423L12.9814 26.6069H14.2378L14.6007 25.381L14.9916 26.6069H16.3036L15.2428 27.3313H15.2148H15.2428Z" fill="white"/>
<path d="M8.51412 14.6259L8.93276 15.8518L7.92782 15.0717H7.89988L6.867 15.8518L7.31375 14.6259V14.598L6.25293 13.9015H7.53696L7.87194 12.6757L8.2628 13.9015H9.57494L8.51412 14.598V14.6259Z" fill="white"/>
<path d="M8.51412 20.9785L8.93276 22.2044L7.92782 21.4243H7.89988L6.867 22.2044L7.31375 20.9785L6.25293 20.2541H7.53696L7.87194 19.0283L8.2628 20.2541H9.57494L8.51412 20.9785Z" fill="white"/>
<path d="M8.51412 27.3313L8.93276 28.5572L7.92782 27.8049V27.7771L7.89988 27.8049L6.867 28.5572L7.31375 27.3313L6.25293 26.6069H7.53696L7.87194 25.381L8.2628 26.6069H9.57494L8.51412 27.3313Z" fill="white"/>
<path d="M2.23158 21.8422V22.2044L2.03613 22.0372C2.03613 22.0372 2.03613 21.8143 2.03613 21.7029L2.23158 21.8422Z" fill="white"/>
<path d="M3.06836 20.2529L2.84682 20.3913C2.84012 20.2991 2.84012 20.2066 2.84682 20.1144L3.06836 20.2529Z" fill="white"/>
<path d="M1.92598 27.2208L2.34461 28.4467L1.42336 27.7502L0.865191 28.1681L0.585938 28.391L1.03268 27.2208C1.01923 27.0911 1.01923 26.9604 1.03268 26.8308C1.01953 26.729 1.01953 26.626 1.03268 26.5243L1.36764 25.2984L1.59084 25.9113L1.7585 26.4129H3.07043L2.73546 26.6357L1.92598 27.2208Z" fill="white"/>
</svg>
