<svg width="86" height="91" viewBox="0 0 86 91" fill="none" xmlns="http://www.w3.org/2000/svg">
<path d="M19.088 31.6711L18.0746 24.0704C17.9057 22.5503 17.5679 19.4594 17.5679 19.2567V12.7962L18.4546 8.48916L20.6081 4.05547L22.2549 2.28199L25.8019 0.63519H28.5888L31.1223 1.77528L32.6424 3.42208L33.6558 5.70227L33.9092 8.48916L34.1626 10.3893V12.4162V14.5697C34.2048 15.6253 34.2639 17.7873 34.1626 17.9899C34.0359 18.2433 34.2892 20.0168 34.1626 20.2701C34.0359 20.5235 33.7825 21.6636 33.7825 22.297C33.7825 22.9303 33.9092 24.0704 33.7825 24.1971C33.6812 24.2985 33.4025 27.6174 33.2758 29.2642L32.1357 37.7515L30.869 45.3522V46.6189C30.7845 46.7456 30.6409 46.999 30.7423 46.999C30.869 46.999 32.009 46.8723 32.1357 46.8723C32.2624 46.8723 32.7691 46.4923 32.8958 46.3656L33.4025 45.8589C33.5292 45.7322 34.4159 44.7188 34.7959 44.2121C35.176 43.7054 35.8094 42.5653 35.936 42.4386C36.0627 42.3119 38.2162 41.5519 38.5962 41.4252C38.9763 41.2985 40.243 41.0452 40.4964 41.1718C40.7498 41.2985 41.2565 41.9319 41.3831 42.0586C41.4845 42.1599 41.8476 42.1008 42.0165 42.0586L42.9033 41.9319H44.2967C44.3981 41.9319 45.099 42.0163 45.4368 42.0586C45.5635 42.2697 45.8422 42.7173 45.9435 42.8186C46.0449 42.92 46.2391 43.3676 46.3235 43.5787L46.7036 44.4654L47.0836 44.5921C47.6748 44.7188 48.8824 44.9721 48.9838 44.9721C49.1104 44.9721 50.2505 45.4788 50.7572 45.7322C51.2639 45.9856 52.1507 46.3656 52.404 46.6189C52.6067 46.8216 52.7418 46.45 52.7841 46.2389C52.6574 45.0988 52.404 42.768 52.404 42.5653C52.404 42.3119 52.2774 40.5384 52.2774 40.4118C52.2774 40.3104 51.7707 38.9339 51.5173 38.2583L51.0106 33.4445L50.1239 25.4639L49.7438 19.6367L49.4905 12.7962V8.99587C49.6594 8.10913 49.9972 6.31032 49.9972 6.20898C49.9972 6.10764 50.5883 4.30882 50.8839 3.42208L52.404 1.64861L54.1775 0.888544L56.4577 0.381836L58.6112 0.761867L61.6515 2.40867L63.0449 4.18215L63.9316 5.70227C63.9739 5.82895 64.109 6.15831 64.3117 6.46233C64.565 6.84236 65.1984 8.10913 65.1984 8.23581C65.1984 8.36249 65.1984 9.12255 65.3251 9.3759C65.4518 9.62926 65.7051 10.516 65.7051 10.7693V12.1628L66.0852 13.6829C66.0429 14.2741 65.9838 15.4817 66.0852 15.5831C66.1865 15.6844 66.2963 16.5543 66.3385 16.9765V18.1166L65.9585 24.1971L65.0717 29.7709L64.4384 33.0645L63.9316 37.2448L63.1716 40.2851L62.4115 43.452C62.3693 44.0432 62.2848 45.2762 62.2848 45.4788C62.2848 45.6815 62.0315 46.7456 61.9048 47.2523L61.6515 48.5191V52.1927L61.3981 55.1063V57.1331L62.1582 62.9603L62.4115 65.3671L63.9316 70.1809L64.8184 74.2345L65.0717 77.4014V79.3016C64.8184 79.5972 64.3117 80.2643 64.3117 80.5684C64.3117 80.8724 63.6361 82.1307 63.2983 82.7219L62.0315 84.242L59.6246 86.2688L55.0643 88.4223L52.1507 89.3091L48.7304 90.0691C47.5059 90.1958 45.0061 90.4492 44.8034 90.4492H41.1298L36.6961 90.3225L29.6022 88.6757L25.2952 87.0289L22.1282 84.8754L20.1014 82.4685L19.3413 80.5684L18.708 78.6682V75.5013L18.9613 73.2211L19.7214 70.9409C19.9747 70.012 20.4814 68.1034 20.4814 67.9007C20.4814 67.698 21.2415 65.1982 21.6215 63.9737L22.1282 60.0467L22.3816 55.233L21.8749 50.0392L21.7482 45.7322L20.9881 41.1718V41.2985L19.088 31.6711Z" fill="#83CE60"/>
<path d="M32.1549 72.4372C24.4755 87.0696 55.6078 87.4024 54.2088 76.9843C52.3549 63.1649 35.8736 65.353 32.1549 72.4372Z" fill="#E2FAD7"/>
<path d="M45.4177 70.5838C45.3821 70.5672 45.3433 70.5586 45.304 70.5586C45.2647 70.5586 45.2259 70.5672 45.1903 70.5838C45.1026 70.5302 45.01 70.4852 44.9137 70.4492C44.3692 70.2564 43.8109 70.105 43.2436 69.9963C43.0416 69.9454 42.8379 69.9072 42.6305 69.8763L42.5813 69.8672L42.5086 69.8544C42.3012 69.829 42.2029 70.0636 42.2575 70.2328C42.1556 70.1752 42.0432 70.1387 41.9269 70.1256C41.8106 70.1124 41.6929 70.1229 41.5807 70.1564C41.4769 70.189 41.3814 70.2436 41.3005 70.3164C41.2477 70.3461 41.1983 70.3815 41.1532 70.4219C41.0675 70.5035 40.9989 70.6013 40.9514 70.7097C40.9039 70.818 40.8785 70.9347 40.8766 71.053C40.8518 71.0834 40.8337 71.1187 40.8236 71.1566C40.8135 71.1945 40.8115 71.2341 40.8179 71.2728C40.8242 71.3115 40.8388 71.3484 40.8605 71.3811C40.8822 71.4138 40.9107 71.4414 40.9439 71.4623C40.964 71.4768 40.984 71.4859 41.004 71.4986C41.1017 71.6458 41.2387 71.7625 41.3996 71.8355C41.5604 71.9085 41.7385 71.9348 41.9136 71.9115C42.0552 71.8934 42.1901 71.841 42.3066 71.7587C42.4563 71.9632 42.6734 72.1082 42.9197 72.1679C43.105 72.2098 43.2983 72.1998 43.4783 72.1388C43.6186 72.1342 43.7563 72.0992 43.8819 72.0365C44.0075 71.9737 44.1181 71.8845 44.206 71.7751C44.3324 71.8832 44.4928 71.9434 44.6592 71.9451C44.8255 71.9468 44.9872 71.8898 45.1157 71.7842C45.1688 71.7846 45.2214 71.7741 45.2703 71.7533C45.342 71.7196 45.4054 71.6708 45.4563 71.6102C45.5072 71.5496 45.5443 71.4786 45.565 71.4022C45.7452 71.1603 45.7324 70.7329 45.4177 70.5838ZM44.3497 71.2003C44.345 71.1678 44.3383 71.1357 44.3297 71.104C44.4714 71.1677 44.5994 71.2586 44.7063 71.3713L44.7227 71.3895C44.5826 71.4423 44.4589 71.3258 44.3497 71.2003Z" fill="#C89D64"/>
<path d="M29.1274 12.0487C28.9819 10.3991 28.5598 8.01823 26.6386 7.56171C25.6634 7.33072 24.6701 7.78361 24.0078 8.49658C23.2528 9.30959 22.9744 10.4009 22.8999 11.4813C22.8162 12.6999 22.9144 13.9403 22.9708 15.1589C23.0302 16.4539 23.1079 17.7477 23.2037 19.0402C23.3929 21.6096 23.65 24.1735 23.9751 26.732C24.624 31.8414 25.5441 36.9127 26.7314 41.9245C26.7441 41.9736 26.7568 42.0228 26.7677 42.0719C26.7514 42.4738 26.7386 42.8758 26.7386 43.2795C26.7391 43.3247 26.7508 43.3691 26.7728 43.4085C26.7947 43.448 26.8262 43.4814 26.8644 43.5056C26.9025 43.5298 26.9461 43.5441 26.9912 43.5472C27.0363 43.5503 27.0814 43.5421 27.1225 43.5233L27.1826 43.7688C27.2681 44.1089 27.7938 43.9652 27.7083 43.6251C27.5749 43.0904 27.4445 42.5551 27.3172 42.0191C27.4154 39.8365 27.7393 37.6758 28.0267 35.5132C28.3669 32.9341 28.6016 30.3442 28.7654 27.7487C28.9327 25.1187 29.031 22.4851 29.1129 19.8514C29.1965 17.2578 29.3585 14.6387 29.1274 12.0487Z" fill="#E2FAD7"/>
<path d="M54.4745 12.0487C54.6201 10.3991 55.0403 8.01823 56.9616 7.56171C57.9385 7.33072 58.9319 7.78361 59.5941 8.49658C60.3492 9.30959 60.6275 10.4009 60.7021 11.4813C60.7858 12.6999 60.6857 13.9403 60.6293 15.1589C60.5687 16.4539 60.4917 17.7477 60.3983 19.0402C60.203 21.6108 59.9459 24.176 59.6269 26.7356C58.977 31.8449 58.057 36.9162 56.8706 41.9282C56.8579 41.9773 56.8451 42.0264 56.8342 42.0755C56.8506 42.4775 56.8615 42.8794 56.8615 43.2832C56.8609 43.3281 56.8492 43.3722 56.8273 43.4115C56.8054 43.4507 56.7742 43.484 56.7363 43.5081C56.6984 43.5323 56.655 43.5467 56.6102 43.55C56.5654 43.5532 56.5204 43.5453 56.4794 43.5269L56.4194 43.7725C56.3339 44.1126 55.8063 43.9689 55.8936 43.6288C56.0264 43.094 56.1556 42.5593 56.2848 42.0228C56.1865 39.8402 55.8609 37.6794 55.5752 35.5169C55.2332 32.9378 54.9985 30.3478 54.8348 27.7523C54.6692 25.1223 54.571 22.4887 54.4873 19.8551C54.4054 17.2578 54.2453 14.6387 54.4745 12.0487Z" fill="#E2FAD7"/>
<path d="M44.9833 70.1379C44.5458 70.0881 44.1151 69.9906 43.6989 69.8469C43.3143 69.7268 42.9198 69.6416 42.52 69.5923C41.8159 69.525 41.0936 69.7087 40.6661 70.3071C40.3022 70.8072 40.264 71.5366 40.757 71.9713C40.869 72.0803 41.0018 72.1657 41.1475 72.2223C41.2932 72.2789 41.4488 72.3056 41.6051 72.3008C41.7613 72.296 41.915 72.2598 42.057 72.1944C42.1989 72.129 42.3263 72.0356 42.4314 71.9199C42.5365 71.8042 42.6172 71.6685 42.6687 71.521C42.7202 71.3735 42.7415 71.217 42.7313 71.0611C42.721 70.9052 42.6795 70.7529 42.6091 70.6133C42.5387 70.4738 42.441 70.3498 42.3216 70.2489C42.2919 70.2217 42.2565 70.2015 42.218 70.1898C42.1795 70.1781 42.1388 70.1752 42.099 70.1814C42.0592 70.1875 42.0213 70.2024 41.988 70.2251C41.9548 70.2478 41.927 70.2777 41.9068 70.3125C41.4757 71.1219 41.9432 72.3132 42.9038 72.4405C43.8644 72.5678 44.6595 71.4365 44.1974 70.5872C44.1754 70.5506 44.1443 70.5204 44.1071 70.4994C44.07 70.4784 44.0281 70.4674 43.9854 70.4674C43.9428 70.4674 43.9008 70.4784 43.8637 70.4994C43.8266 70.5204 43.7955 70.5506 43.7735 70.5872C43.446 71.3329 44.2119 72.3114 45.0288 71.9767C45.7074 71.6984 45.8329 70.6672 45.2635 70.2179C45.2366 70.1929 45.2048 70.1738 45.17 70.1619C45.1352 70.1501 45.0983 70.1457 45.0617 70.1491C45.0251 70.1526 44.9897 70.1637 44.9577 70.1818C44.9257 70.2 44.898 70.2246 44.8762 70.2542C44.8545 70.2839 44.8393 70.3178 44.8316 70.3537C44.8239 70.3896 44.8239 70.4268 44.8316 70.4627C44.8393 70.4986 44.8546 70.5325 44.8763 70.5621C44.8981 70.5917 44.9259 70.6163 44.9579 70.6344C45.2471 70.8163 45.1653 71.3456 44.8887 71.502C44.5158 71.713 44.0427 71.191 44.2028 70.8254L43.7789 70.8363C44.0591 71.3511 43.4715 72.064 42.9147 71.9276C42.358 71.7912 42.1051 71.0382 42.3689 70.5562L41.9541 70.6217C42.2998 70.9418 42.1907 71.6293 41.6831 71.713C41.5676 71.7332 41.4488 71.7206 41.3401 71.6768C41.2314 71.6329 41.1371 71.5595 41.068 71.4649C40.9989 71.3702 40.9576 71.2581 40.949 71.1412C40.9403 71.0244 40.9646 70.9074 41.019 70.8036C41.301 70.1597 42.0578 70.0561 42.6819 70.1124C43.0567 70.147 43.4242 70.2361 43.7953 70.2943C44.1883 70.3667 44.59 70.3802 44.987 70.3343C45.0149 70.3343 45.0418 70.3232 45.0616 70.3034C45.0814 70.2837 45.0925 70.2568 45.0925 70.2288C45.0925 70.2009 45.0814 70.174 45.0616 70.1543C45.0418 70.1345 45.0149 70.1234 44.987 70.1234L44.9833 70.1379Z" fill="#1E5405"/>
<path d="M43.1691 71.9822C43.0291 72.1603 42.9354 72.3703 42.8962 72.5934C42.8198 72.8571 42.7579 73.1245 42.6979 73.3918C42.5815 73.912 42.4978 74.4395 42.4305 74.9687C42.3631 75.498 42.3177 75.9946 42.3013 76.5111C42.2849 77.0276 42.2303 77.6297 42.3504 78.148C42.4123 78.4099 42.8598 78.4136 42.8962 78.1353C42.9617 77.6315 42.8962 77.0968 42.8962 76.5875C42.8962 76.0782 42.9271 75.5508 42.9708 75.0324C43.0145 74.514 43.0818 74.0175 43.1527 73.5137C43.1928 73.2554 43.2401 73.0008 43.2874 72.7443C43.3563 72.5133 43.3743 72.27 43.3401 72.0313C43.3345 72.0134 43.3242 71.9972 43.3105 71.9844C43.2967 71.9715 43.2798 71.9625 43.2615 71.9581C43.2432 71.9537 43.2241 71.9541 43.2059 71.9593C43.1878 71.9645 43.1714 71.9743 43.1582 71.9877L43.1691 71.9822Z" fill="#1E5405"/>
<path d="M39.6119 73.8293C39.168 74.4986 39.248 75.499 39.4827 76.2247C39.744 77.0131 40.2773 77.683 40.9873 78.1144C42.4846 79.0093 44.5168 78.7201 45.632 77.3596C46.2269 76.6321 46.6509 75.6136 46.4307 74.6714C46.3561 74.3568 45.9395 74.4895 45.9122 74.7551C45.8449 75.4826 45.7121 76.1628 45.2809 76.7703C44.8672 77.3555 44.2549 77.7704 43.558 77.938C42.867 78.1002 42.1411 78.0174 41.5043 77.704C40.8676 77.3905 40.3594 76.8657 40.0667 76.2192C39.9105 75.857 39.814 75.4719 39.7811 75.0788C39.7676 74.68 39.789 74.2808 39.8448 73.8857C39.8557 73.7529 39.6737 73.7384 39.6119 73.8293Z" fill="#1E5405"/>
<path d="M55.0947 71.0755C57.0268 71.0755 56.9523 68.0781 55.022 68.0781C53.0917 68.0781 53.1644 71.0755 55.0947 71.0755Z" fill="#1E5405"/>
<path d="M56.3245 69.9462C56.337 69.9439 56.3483 69.9372 56.3565 69.9274C56.3646 69.9176 56.3691 69.9053 56.3691 69.8925C56.3691 69.8798 56.3646 69.8674 56.3565 69.8576C56.3483 69.8478 56.337 69.8412 56.3245 69.8389C56.3119 69.8412 56.3006 69.8478 56.2924 69.8576C56.2843 69.8674 56.2798 69.8798 56.2798 69.8925C56.2798 69.9053 56.2843 69.9176 56.2924 69.9274C56.3006 69.9372 56.3119 69.9439 56.3245 69.9462Z" fill="white"/>
<path d="M56.4957 70.4441C56.5911 70.447 56.6855 70.4237 56.7686 70.3768C56.8555 70.3458 56.9331 70.2932 56.9942 70.224C57.0602 70.1606 57.1085 70.0809 57.1343 69.9931C57.1777 69.9077 57.1966 69.812 57.1889 69.7166L57.1598 69.5347C57.1248 69.4165 57.0588 69.3098 56.9688 69.2255L56.8305 69.1128C56.7192 69.0513 56.5937 69.0206 56.4666 69.0236C56.3718 69.0227 56.2783 69.0466 56.1955 69.0928C56.1088 69.1233 56.0312 69.1752 55.9699 69.2437C55.8465 69.3843 55.7769 69.5641 55.7734 69.7512C55.7844 69.8148 55.7934 69.8767 55.8044 69.933C55.8378 70.0499 55.9004 70.1563 55.9863 70.2422L56.1337 70.3495C56.2447 70.4114 56.3705 70.4416 56.4975 70.4368L56.4957 70.4441Z" fill="white"/>
<path d="M29.9735 68.5499V68.539L30.1555 68.9264V68.9028C30.101 68.685 29.9899 68.4854 29.8334 68.3244C29.7081 68.1403 29.5377 67.9913 29.3386 67.8915L28.922 67.7278C28.6221 67.6538 28.3079 67.662 28.0123 67.7515C27.8532 67.7929 27.7029 67.8625 27.5684 67.957C27.3199 68.11 27.1155 68.325 26.9753 68.5808C26.8583 68.7721 26.7954 68.9915 26.7933 69.2156C26.747 69.4411 26.7628 69.6749 26.8388 69.8922C26.925 70.1731 27.0815 70.4273 27.2937 70.6306L27.3155 70.647L27.6703 70.9071C27.8076 70.9748 27.9507 71.0302 28.0978 71.0726C28.3216 71.1392 28.5591 71.1442 28.7855 71.0872C29.0131 71.072 29.2323 70.996 29.4205 70.8671L29.7625 70.5888C29.9687 70.3729 30.1154 70.1072 30.1882 69.8176V69.7976L29.7843 70.5251L29.7952 70.5124L30.0408 70.1778C30.1553 69.9961 30.2182 69.7867 30.2228 69.5721C30.2619 69.4311 30.2619 69.2821 30.2228 69.141C30.207 68.9275 30.1354 68.7218 30.0154 68.5445L29.9735 68.5499Z" fill="#1E5405"/>
<path d="M26.4806 69.1549L26.4551 69.1785L26.3715 69.2913L26.3187 69.4259C26.2987 69.4985 26.2987 69.5751 26.3187 69.6478C26.3206 69.6967 26.335 69.7443 26.3605 69.786C26.3745 69.8318 26.4002 69.8732 26.4351 69.906C26.4595 69.9469 26.4948 69.9803 26.537 70.0024C26.5713 70.0361 26.6141 70.06 26.6607 70.0715C26.7272 70.1045 26.8014 70.119 26.8754 70.1134L27.0228 70.0897L27.1538 70.0315L27.2629 69.9424L27.3466 69.8278L27.3994 69.6951C27.4193 69.6224 27.4193 69.5458 27.3994 69.4732C27.3977 69.4242 27.3833 69.3766 27.3575 69.3349C27.3349 69.2649 27.2941 69.2021 27.2393 69.1531L27.2138 69.1312C27.1679 69.0823 27.1093 69.0471 27.0446 69.0294C26.9828 68.998 26.9136 68.9841 26.8445 68.9894L26.7062 69.0112C26.6203 69.0369 26.5425 69.0845 26.4806 69.1494V69.1549Z" fill="white"/>
<path d="M27.1534 44.5598C26.1874 39.4799 25.1885 34.3999 24.4244 29.2818C23.6437 24.1912 23.2255 19.0517 23.1727 13.9019C23.1727 12.7361 23.1363 11.5375 23.4766 10.4098C23.744 9.52585 24.3225 8.65827 25.1922 8.27086C26.0345 7.89619 26.946 8.1581 27.6173 8.74739C28.4106 9.444 28.7981 10.4116 28.9673 11.4374C29.1656 12.6451 29.1492 13.9092 29.1492 15.1296C29.1492 16.4228 29.131 17.716 29.0946 19.0091C29.02 21.6246 28.8727 24.2382 28.6816 26.8482C28.296 32.0718 27.6992 37.2773 27.117 42.49C27.0479 43.1175 26.9733 43.745 26.8878 44.3707C26.8766 44.4185 26.8757 44.4681 26.8852 44.5162C26.8946 44.5644 26.9141 44.61 26.9424 44.6501C26.9708 44.6902 27.0073 44.7238 27.0496 44.7488C27.0918 44.7737 27.1389 44.7894 27.1877 44.7948C27.2365 44.8003 27.2859 44.7953 27.3326 44.7803C27.3794 44.7652 27.4224 44.7405 27.4589 44.7076C27.4953 44.6748 27.5244 44.6346 27.5442 44.5896C27.564 44.5447 27.574 44.4961 27.5737 44.447C27.8448 41.7497 28.225 39.0652 28.5143 36.3697C28.8017 33.7051 29.0601 31.0388 29.2766 28.3669C29.4931 25.6951 29.6586 22.9669 29.7496 20.2623C29.7957 18.9285 29.823 17.5905 29.8315 16.2482C29.8315 14.9568 29.8788 13.6564 29.8205 12.365C29.766 11.1992 29.5749 9.97509 28.9364 8.97656C28.3906 8.11263 27.4918 7.3851 26.453 7.23778C25.9376 7.17616 25.4149 7.23915 24.929 7.42145C24.443 7.60376 24.0079 7.90005 23.6603 8.28542C22.8525 9.12753 22.4832 10.2516 22.3522 11.3901C22.2048 12.6633 22.2594 13.9783 22.2922 15.2642C22.3286 16.5956 22.4068 17.9251 22.5141 19.251C22.7252 21.8792 23.049 24.4965 23.4456 27.1029C24.2443 32.3501 25.3377 37.5428 26.5203 42.7155C26.664 43.3503 26.8114 43.9887 26.9569 44.6198C26.986 44.7453 27.1698 44.6853 27.1389 44.5616L27.1534 44.5598Z" fill="#1E5405"/>
<path d="M53.4483 47.1494C52.5604 41.1855 51.6708 35.2198 51.0158 29.225C50.363 23.4587 50.015 17.662 49.9734 11.859C49.9734 10.0402 49.9734 8.18863 50.3518 6.40256C50.7065 4.70378 51.4179 2.96318 52.8988 1.94101C54.7182 0.686028 57.1215 0.627826 59.1009 1.52086C61.1622 2.44846 62.8142 4.19634 63.8203 6.20249C64.9701 8.49601 65.4813 11.1133 65.6978 13.6451C65.9198 16.2642 65.8397 18.9069 65.6542 21.526C65.2266 27.5081 63.9585 33.3865 62.8469 39.2667C61.7553 45.0487 60.7602 50.9162 60.9348 56.8219C61.0071 59.667 61.3772 62.4967 62.0391 65.2648C62.665 67.8311 63.6001 70.312 64.1714 72.8947C64.7281 75.4156 64.9373 78.082 64.0331 80.5501C63.2435 82.7072 61.6371 84.4169 59.7341 85.6573C57.882 86.865 55.8043 87.678 53.703 88.3382C51.5453 89.0148 49.2766 89.6751 47.0169 89.8806C41.4025 90.388 35.6698 90.0479 30.2591 88.3928C25.809 87.0305 20.7877 84.6606 19.4869 79.7662C18.0314 74.2843 21.0533 68.8533 22.1049 63.5787C23.1219 58.4861 22.9854 53.2552 22.3505 48.1188C21.6992 42.8334 20.5639 37.6279 19.6051 32.3952C18.6463 27.1625 17.8567 21.8806 17.9677 16.5552C18.0641 11.9063 18.6245 6.2134 22.345 2.92499C23.9224 1.53178 26.122 0.756962 28.2233 0.966125C30.4338 1.1862 32.1276 2.69036 32.9171 4.72197C33.7759 6.93183 33.7741 9.37268 33.7795 11.708C33.7795 14.7 33.6813 17.6919 33.4902 20.6766C33.11 26.6441 32.3986 32.5862 31.5672 38.501C31.1633 41.382 30.7358 44.2593 30.3064 47.1367C30.2209 47.7096 31.0978 47.9551 31.1833 47.3786C32.093 41.2637 33.0027 35.1471 33.6722 29.0086C34.3417 22.8701 34.7638 16.6679 34.6801 10.4785C34.6473 8.17954 34.4818 5.76415 33.4393 3.67252C32.968 2.69997 32.2596 1.86155 31.3793 1.23446C30.4989 0.607365 29.475 0.21174 28.4016 0.0840013C26.2311 -0.183364 23.9533 0.544161 22.2268 1.86098C20.3092 3.31603 19.0739 5.49861 18.3225 7.76121C17.5038 10.213 17.2127 12.8321 17.0944 15.4002C16.9855 18.1126 17.0761 20.8294 17.3655 23.5285C17.9259 29.045 19.0884 34.4723 20.1091 39.916C21.1152 45.2742 22.003 50.6961 21.9393 56.1653C21.9239 58.8566 21.6257 61.5389 21.0497 64.168C20.4002 67.0472 19.3122 69.8064 18.6845 72.6928C18.1151 75.321 17.9295 78.1602 18.8337 80.7374C19.6451 83.0473 21.2989 84.8734 23.3002 86.2339C25.356 87.6344 27.7211 88.5747 30.0954 89.2877C32.8959 90.123 35.7788 90.6517 38.6935 90.8646C41.6024 91.0789 44.5244 91.0388 47.4263 90.7445C48.4264 90.6177 49.4175 90.4275 50.3936 90.1752C51.6908 89.8788 52.9752 89.5205 54.2415 89.1131C58.5351 87.7308 63.0125 85.5009 64.7936 81.0739C66.8731 75.9067 64.2988 70.4429 63.0125 65.4321C61.5024 59.5428 61.6061 53.428 62.3939 47.4404C63.2017 41.2947 64.6426 35.2544 65.6305 29.1395C66.1364 26.1393 66.4783 23.1138 66.6548 20.0764C66.793 17.3973 66.7967 14.7054 66.4328 12.0445C66.089 9.51272 65.4213 6.87908 64.0222 4.71106C62.7832 2.79221 60.9694 1.17893 58.7935 0.418663C56.7085 -0.308862 54.2306 -0.108793 52.3985 1.18075C50.8557 2.27203 49.9934 3.98535 49.564 5.78598C49.1165 7.63753 49.0637 9.56001 49.0637 11.457C49.0637 14.3053 49.1468 17.1548 49.3129 20.0055C49.6768 26.1894 50.4173 32.3461 51.2705 38.4791C51.6853 41.4565 52.1274 44.4303 52.5714 47.404C52.6569 47.9806 53.5338 47.7351 53.4483 47.1621V47.1494Z" fill="#1E5405"/>
<path d="M56.7905 44.6084C57.9785 39.4339 59.132 34.2539 59.998 29.0121C60.864 23.7703 61.4807 18.5012 61.4807 13.1994C61.4807 11.9808 61.4334 10.7058 60.9349 9.57264C60.7321 9.07872 60.4327 8.63018 60.0544 8.25325C59.6761 7.87631 59.2265 7.57854 58.7317 7.37734C58.2513 7.21012 57.7368 7.16512 57.2346 7.24641C56.7325 7.3277 56.2585 7.53271 55.8554 7.84295C54.9457 8.51591 54.3999 9.51626 54.1488 10.6021C53.8614 11.8134 53.8978 13.083 53.9051 14.3197C53.9051 15.6729 53.9051 17.0261 53.9414 18.3793C53.9978 21.0548 54.1234 23.7285 54.318 26.3985C54.6983 31.7767 55.2805 37.1295 55.9445 42.4841C56.0264 43.1425 56.1046 43.7991 56.1701 44.4575C56.2156 44.9049 56.927 44.8794 56.8669 44.4411C56.5031 41.8475 56.2647 39.2357 55.9809 36.6329C55.6971 34.0302 55.4351 31.422 55.2186 28.812C55.0021 26.2021 54.8293 23.5921 54.7201 20.9766C54.611 18.3611 54.5382 15.7693 54.6382 13.1666C54.6783 12.0408 54.7565 10.8513 55.2823 9.83091C55.6935 9.03246 56.4321 8.30857 57.3363 8.12669C58.2405 7.94481 59.0701 8.43588 59.6068 9.11248C60.2909 9.9746 60.4928 11.0859 60.5529 12.1572C60.6202 13.394 60.5802 14.6417 60.5438 15.8785C60.5038 17.1789 60.451 18.4776 60.3619 19.7762C60.1945 22.3425 59.9234 24.9016 59.5777 27.4479C58.8809 32.5697 57.9021 37.6478 56.9415 42.726L56.5977 44.5611C56.5949 44.5854 56.601 44.6098 56.6149 44.6298C56.6288 44.6498 56.6495 44.664 56.6732 44.6698C56.6969 44.6756 56.7219 44.6726 56.7435 44.6613C56.7651 44.65 56.7818 44.6312 56.7905 44.6084Z" fill="#1E5405"/>
<path d="M30.3993 47.8555L30.7231 47.8391C30.6667 47.8391 30.6977 47.85 30.8177 47.8555C30.8718 47.8488 30.9252 47.8385 30.9778 47.8245L31.1234 47.79C31.3508 47.7354 31.5691 47.6627 31.7911 47.5881C32.235 47.4389 32.6644 47.2643 33.0974 47.0861C33.1814 47.0592 33.2588 47.0149 33.3246 46.9561C33.3904 46.8974 33.4431 46.8255 33.4793 46.745C33.5155 46.6646 33.5343 46.5775 33.5347 46.4893C33.535 46.4011 33.5168 46.3138 33.4812 46.2331C33.4498 46.1592 33.4035 46.0925 33.3453 46.0372C33.2871 45.9818 33.2182 45.9389 33.1429 45.9112C33.053 45.8766 32.9565 45.8626 32.8605 45.8702C32.7644 45.8777 32.6713 45.9066 32.588 45.9548C32.1659 46.1585 31.7492 46.3622 31.3435 46.5932C31.1398 46.7096 30.9396 46.8224 30.7468 46.957L30.6249 47.0425C30.5805 47.0711 30.5385 47.1033 30.4994 47.1388C30.4229 47.2207 30.4048 47.248 30.4484 47.2189C30.3775 47.2989 30.2938 47.3735 30.2192 47.4499C30.1874 47.4849 30.1665 47.5284 30.1591 47.5751C30.1516 47.6219 30.1579 47.6697 30.1772 47.7129C30.1965 47.7561 30.2279 47.7928 30.2677 47.8184C30.3074 47.844 30.3538 47.8575 30.4011 47.8573L30.3993 47.8555Z" fill="#1E5405"/>
<path d="M33.1614 47.2664C33.4252 46.7954 33.7072 46.3334 34.0092 45.8805C34.2787 45.4622 34.583 45.0674 34.9188 44.7001C35.2732 44.3167 35.6518 43.9564 36.0523 43.6215C36.1505 43.5397 36.3925 43.356 36.5726 43.2323C36.7946 43.0759 37.0256 42.9304 37.2621 42.7958C37.3804 42.7285 37.4986 42.6648 37.626 42.603L37.8079 42.5121C37.8079 42.5121 38.0153 42.4138 37.888 42.472C38.1245 42.3665 38.3646 42.2701 38.6157 42.1883C38.8316 42.1202 39.0508 42.0632 39.2725 42.0173C39.4726 41.9737 39.1233 42.0337 39.3271 42.0082L39.449 41.9937C39.591 41.9786 39.7337 41.9707 39.8765 41.97C39.9365 41.97 39.9984 41.97 40.0584 41.97C40.0584 41.97 40.2586 41.9828 40.1403 41.97C40.022 41.9573 40.2131 41.981 40.2185 41.9828C40.2749 41.9919 40.3332 42.0028 40.3896 42.0155C40.446 42.0282 40.5005 42.0428 40.5551 42.0592C40.6097 42.0755 40.7625 42.1374 40.5915 42.0592C40.6947 42.1018 40.7944 42.1523 40.8899 42.2101C40.9244 42.232 41.0518 42.3447 40.9208 42.2283C40.9626 42.2647 41.0063 42.2992 41.0463 42.3393L41.1646 42.4611C41.1901 42.4848 41.2428 42.5648 41.1646 42.4484C41.2028 42.503 41.2428 42.5557 41.2774 42.6121C41.2774 42.6212 41.3756 42.8176 41.3229 42.6903C41.3485 42.7538 41.3704 42.8188 41.3884 42.8849C41.3884 42.9067 41.432 43.0886 41.4138 42.9704C41.4631 43.2336 41.4399 43.5052 41.3465 43.7561C41.2678 43.9899 41.1442 44.2062 40.9827 44.3927C40.5678 44.8692 40.0475 45.0911 39.4617 45.3021L40.053 46.0296C40.8517 44.249 42.4472 42.001 44.6341 42.4411C45.0465 42.5104 45.4248 42.7129 45.7111 43.0177C46.0151 43.3749 46.1741 43.8331 46.1568 44.3018C46.1568 45.4422 45.3836 46.357 44.5831 47.0845C44.1519 47.4935 43.6815 47.859 43.1786 48.1758C43.0403 48.2577 42.7802 48.3941 42.6728 48.2049C42.6413 48.1309 42.6294 48.05 42.6383 47.97C42.6472 47.89 42.6767 47.8137 42.7238 47.7484C43.0094 47.3574 43.7353 47.421 44.1556 47.4429C44.6924 47.475 45.2239 47.5672 45.7402 47.7175C46.7245 47.9976 47.7415 48.5778 48.24 49.5036C48.4412 49.8992 48.5537 50.334 48.5694 50.7776C48.5851 51.2212 48.5037 51.6628 48.3309 52.0717C47.8779 53.1012 46.8063 53.5704 45.722 53.3449C44.423 53.0739 43.5388 52.0554 42.802 51.0259C42.7306 50.9162 42.6197 50.8382 42.4924 50.8081C42.365 50.778 42.2309 50.798 42.1179 50.864C42.0066 50.9345 41.9274 51.0457 41.8971 51.1739C41.8669 51.302 41.888 51.4369 41.956 51.5497C42.7238 52.7574 43.839 53.8796 45.2708 54.227C46.5716 54.5417 48.0362 54.1615 48.7476 52.9538C49.0173 52.4669 49.1754 51.9261 49.2103 51.3706C49.2452 50.815 49.1561 50.2587 48.9495 49.7418C48.7164 49.1799 48.3737 48.67 47.9414 48.2418C47.5091 47.8137 46.9958 47.4759 46.4316 47.2482C45.8203 46.9944 45.1723 46.8402 44.5122 46.7917C43.8881 46.7408 43.1531 46.7135 42.5946 47.0445C42.3441 47.186 42.1531 47.4131 42.0568 47.6842C41.9605 47.9552 41.9654 48.2519 42.0706 48.5196C42.1341 48.6603 42.2341 48.7815 42.3601 48.8707C42.4861 48.9599 42.6336 49.0138 42.7874 49.027C43.1731 49.067 43.5297 48.8724 43.839 48.6633C45.0052 47.883 46.2715 47.0554 46.8263 45.7041C47.3503 44.4309 47.243 42.8449 46.0513 41.9791C45.0725 41.268 43.6862 41.2716 42.5946 41.7427C41.2992 42.3102 40.4296 43.496 39.7091 44.6673C39.5272 44.9602 39.3453 45.2494 39.1633 45.5349C39.1154 45.6231 39.095 45.7235 39.1047 45.8234C39.1144 45.9232 39.1539 46.0179 39.2179 46.0951C39.2821 46.1708 39.3664 46.2267 39.4611 46.2563C39.5558 46.2859 39.6569 46.288 39.7528 46.2624C40.3989 46.1351 41.0064 45.8586 41.5266 45.4549C42.0891 45.036 42.4967 44.4424 42.6855 43.767C42.7804 43.419 42.8037 43.0553 42.754 42.6979C42.7043 42.3406 42.5826 41.9971 42.3963 41.6881C42.0412 41.16 41.5023 40.7827 40.8844 40.6296C40.3128 40.487 39.7173 40.4684 39.1379 40.575C38.841 40.6204 38.5484 40.6897 38.2628 40.7824C38.1481 40.8206 38.0335 40.8606 37.9244 40.9079L37.777 40.9752L37.6314 41.0406C37.5502 41.077 37.4683 41.1152 37.3858 41.1552C36.2809 41.6909 35.2972 42.4466 34.4949 43.376C34.0472 43.9074 33.658 44.4855 33.3342 45.1002C33.1598 45.4111 33.013 45.7367 32.8957 46.0733C32.8012 46.3966 32.7319 46.7268 32.6883 47.0609C32.6483 47.3392 33.0158 47.5229 33.1668 47.2428L33.1614 47.2664Z" fill="#1E5405"/>
<path d="M46.9804 44.8357C47.9509 45.0828 48.8972 45.417 49.8076 45.8342C50.2685 46.036 50.7185 46.2618 51.1557 46.5108C51.6106 46.7654 52.0181 47.0801 52.4602 47.3511C53.0551 47.7149 53.7119 46.8273 53.1879 46.3617C52.7468 45.9991 52.2658 45.6879 51.7543 45.4341C51.2627 45.1756 50.751 44.9572 50.2242 44.7811C49.189 44.4174 48.1211 44.3555 47.0331 44.3919C46.9793 44.3936 46.9279 44.4146 46.8884 44.4511C46.8488 44.4877 46.8238 44.5372 46.8178 44.5907C46.8118 44.6442 46.8253 44.698 46.8559 44.7424C46.8864 44.7867 46.9319 44.8185 46.984 44.832L46.9804 44.8357Z" fill="#1E5405"/>
<path d="M38.3279 73.7086C33.4775 72.1842 28.4265 71.3928 23.3421 71.3605C18.2569 71.2991 13.187 71.9312 8.2726 73.2394C5.51655 73.9707 2.82133 74.9145 0.211157 76.0622C0.185474 76.0741 0.162394 76.091 0.143237 76.1119C0.12408 76.1327 0.10922 76.1572 0.0995063 76.1838C0.0897922 76.2104 0.0854141 76.2386 0.086622 76.2669C0.0878298 76.2952 0.0946 76.323 0.106546 76.3487C0.118492 76.3743 0.135379 76.3974 0.156245 76.4166C0.17711 76.4357 0.201544 76.4506 0.228152 76.4603C0.25476 76.47 0.283021 76.4744 0.311321 76.4732C0.339621 76.4719 0.367407 76.4652 0.39309 76.4532C5.00833 74.3706 9.89487 72.9506 14.9077 72.2354C19.9132 71.5184 24.9928 71.4816 30.0081 72.1263C32.8095 72.4922 35.5822 73.0519 38.3061 73.8014C38.3661 73.8178 38.388 73.7268 38.3297 73.7086H38.3279Z" fill="#1E5405"/>
<path d="M37.1382 74.5777C32.3243 74.4613 27.4612 74.5504 22.6764 75.1233C18.3464 75.6471 14.0418 76.6238 10.0411 78.3972C7.84767 79.3527 5.7859 80.5856 3.90636 82.0657C3.75172 82.1876 3.90636 82.4531 4.0701 82.3313C7.4777 79.8013 11.4038 78.0389 15.4828 76.9112C19.9019 75.689 24.4866 75.2015 29.0549 74.9814C31.7494 74.8505 34.4474 74.825 37.1419 74.7123C37.1597 74.7123 37.1768 74.7052 37.1895 74.6925C37.2021 74.6799 37.2092 74.6628 37.2092 74.645C37.2092 74.6271 37.2021 74.61 37.1895 74.5974C37.1768 74.5848 37.1597 74.5777 37.1419 74.5777H37.1382Z" fill="#1E5405"/>
<path d="M38.0112 75.9287C35.5093 75.9263 33.0114 76.1295 30.5428 76.5362C28.1068 76.9172 25.6983 77.4574 23.3328 78.1531C18.5589 79.5552 13.9879 81.5729 9.73519 84.1552C7.3658 85.5952 5.1072 87.21 2.9782 88.986C2.79627 89.1406 3.06553 89.397 3.24928 89.2443C7.05639 86.0939 11.2573 83.452 15.7462 81.3852C20.2094 79.3295 24.9172 77.8528 29.7551 76.9909C32.4858 76.5295 35.2414 76.2301 38.0075 76.0942C38.0274 76.0913 38.0455 76.0813 38.0586 76.0661C38.0717 76.0509 38.0789 76.0315 38.0789 76.0115C38.0789 75.9914 38.0717 75.972 38.0586 75.9569C38.0455 75.9417 38.0274 75.9317 38.0075 75.9287H38.0112Z" fill="#1E5405"/>
<path d="M47.1136 73.7985C51.9882 72.4497 57.0163 71.7338 62.0739 71.6687C67.1295 71.6221 72.1677 72.2665 77.0488 73.5839C79.7822 74.325 82.4513 75.2855 85.0302 76.4558C85.2831 76.5704 85.4923 76.1902 85.2394 76.0793C75.8701 71.9602 65.5483 70.4954 55.4024 71.8451C52.5775 72.221 49.7911 72.8442 47.0753 73.7076C47.0633 73.7112 47.0532 73.7194 47.0472 73.7305C47.0412 73.7416 47.0399 73.7546 47.0435 73.7667C47.0471 73.7787 47.0554 73.7889 47.0665 73.7948C47.0776 73.8008 47.0906 73.8021 47.1026 73.7985H47.1136Z" fill="#1E5405"/>
<path d="M48.2797 74.7136C53.0591 74.9137 57.8439 74.9101 62.6014 75.4939C66.8969 76.0232 71.1723 76.9981 75.1439 78.7514C77.3285 79.7058 79.4001 80.9002 81.3205 82.3126C81.4788 82.4309 81.6971 82.2126 81.537 82.0871C78.1876 79.4225 74.227 77.6729 70.1171 76.5434C65.6652 75.3193 61.0514 74.8373 56.4503 74.65C53.7262 74.5372 51.0014 74.5136 48.2761 74.579C48.2582 74.579 48.2411 74.5861 48.2285 74.5988C48.2158 74.6114 48.2087 74.6285 48.2087 74.6463C48.2087 74.6642 48.2158 74.6813 48.2285 74.6939C48.2411 74.7066 48.2582 74.7136 48.2761 74.7136H48.2797Z" fill="#1E5405"/>
<path d="M47.4043 76.0944C49.8906 76.2182 52.3689 76.4707 54.829 76.851C57.2475 77.2452 59.6386 77.7919 61.9881 78.4879C66.7017 79.8881 71.216 81.8876 75.4202 84.4373C77.7861 85.8718 80.0427 87.4792 82.1717 89.2462C82.3536 89.399 82.6156 89.1298 82.43 88.9752C78.6098 85.7887 74.3814 83.1261 69.8567 81.0579C65.3381 78.9803 60.5675 77.5012 55.6659 76.6582C52.9384 76.1716 50.1731 75.9282 47.4025 75.9307C47.2952 75.9307 47.3024 76.0907 47.4025 76.0962L47.4043 76.0944Z" fill="#1E5405"/>
</svg>
