<svg width="49" height="89" viewBox="0 0 49 89" fill="none" xmlns="http://www.w3.org/2000/svg">
<path d="M47.7193 21.0674C47.9061 18.5206 47.9683 15.9427 47.7504 13.3648C47.5326 10.8801 47.0346 8.33332 45.9142 6.09709C44.9183 4.14039 43.3 2.43216 41.2771 1.5004C39.3475 0.63075 36.9823 0.692868 35.2083 1.90416C33.7456 2.89804 33.0609 4.60627 32.7186 6.25238C32.3451 7.99167 32.3451 9.79308 32.3451 11.5945C32.3762 17.2782 32.7186 22.9309 33.3721 28.5526C34.0257 34.4227 34.8971 40.2307 35.7374 46.0697C35.7996 46.4113 35.4884 46.6288 35.2394 46.6288C35.0838 46.6288 34.9282 46.5356 34.866 46.3182C34.8348 46.3182 34.8037 46.2871 34.7726 46.2561C34.3369 46.0076 33.9323 45.697 33.4966 45.4485C33.0609 45.2001 32.6252 44.9826 32.1584 44.7963C31.2869 44.3925 30.3844 44.0819 29.4819 43.8335C29.4196 44.113 29.3574 44.3925 29.2329 44.6721C29.015 45.169 28.7038 45.6038 28.3304 46.0076C28.486 46.0697 28.6727 46.1318 28.8283 46.1939C29.3885 46.4113 29.8865 46.753 30.3222 47.1568C30.7579 47.5916 31.0691 48.0885 31.3181 48.6165C31.5048 49.1135 31.5982 49.6725 31.567 50.2005C31.5359 50.7596 31.3803 51.2565 31.1002 51.7534C30.4155 52.9337 28.9528 53.3064 27.6768 52.9958C26.2763 52.6542 25.187 51.5671 24.4401 50.3869C24.3779 50.2626 24.3468 50.1384 24.3779 50.0142C24.409 49.8899 24.4712 49.7657 24.5957 49.7036C24.6891 49.6414 24.8447 49.6104 24.9692 49.6415C25.0937 49.6725 25.2182 49.7346 25.2804 49.8589C25.9962 50.8527 26.8676 51.8777 28.1436 52.1262C29.2018 52.3436 30.2599 51.8777 30.6956 50.8838C30.8512 50.48 30.9446 50.0452 30.9446 49.6104C30.9446 49.1756 30.8201 48.7407 30.6334 48.368C30.1354 47.4673 29.1395 46.9083 28.1748 46.6288C28.0503 46.5977 27.8947 46.5666 27.7702 46.5356C27.3033 46.9083 26.8054 47.2499 26.3386 47.5605C26.0273 47.7779 25.685 47.9643 25.3115 47.9022C25.1559 47.9022 25.0314 47.84 24.907 47.7469C24.7825 47.6537 24.6891 47.5295 24.6269 47.4052C24.5335 47.1568 24.5335 46.8462 24.6269 46.5977C24.7202 46.3492 24.907 46.1008 25.1559 45.9765C25.7161 45.6659 26.4319 45.6659 27.0232 45.728C27.1477 45.728 27.2411 45.7591 27.3656 45.7591C28.0503 45.1069 28.6416 44.2683 28.6416 43.2744C28.6727 42.8085 28.5171 42.3737 28.2059 42.0321C27.9258 41.7215 27.5523 41.5351 27.1477 41.473C26.4631 41.3488 25.8717 41.473 25.3115 41.7525C25.3427 42.0942 25.3427 42.4358 25.2493 42.7775C25.0626 43.4297 24.658 44.0198 24.1289 44.4236C23.631 44.8273 23.0085 45.0758 22.3861 45.2001C22.2927 45.2311 22.1993 45.2311 22.106 45.2001C22.0126 45.169 21.9193 45.1069 21.857 45.0448C21.7948 44.9826 21.7636 44.8895 21.7325 44.7963C21.7325 44.7031 21.7325 44.6099 21.7948 44.5168C21.9815 44.2372 22.1371 43.9577 22.3238 43.6782C22.7595 42.9638 23.2575 42.2495 23.8799 41.6904C23.8488 41.6594 23.8488 41.6283 23.8177 41.5972L23.7866 41.5662L23.6621 41.4419C23.631 41.4109 23.631 41.4109 23.5998 41.3798C23.5687 41.3488 23.5376 41.3177 23.5376 41.3177C23.4753 41.2866 23.382 41.2245 23.3197 41.1935L23.2264 41.1624C23.1641 41.1624 23.1019 41.1314 23.0708 41.1314C23.0085 41.1314 22.9463 41.1003 22.9152 41.1003C22.9152 41.1003 22.884 41.1003 22.8529 41.1003C22.8218 41.1003 22.7595 41.1003 22.7595 41.1003H22.4483C22.2927 41.1003 22.1682 41.1003 22.0437 41.1314H21.9193H21.8881C21.8881 41.1314 21.8881 41.1314 21.857 41.1314C21.6392 41.1624 21.4213 41.2245 21.2034 41.2867C20.9545 41.3798 20.7366 41.4419 20.5188 41.5351C20.4876 41.5351 20.4254 41.5972 20.4254 41.5972L20.2387 41.6904C20.1142 41.7525 19.9897 41.8146 19.8652 41.8768C19.6473 42.001 19.3984 42.1563 19.1805 42.3116C18.9938 42.4358 18.7759 42.6222 18.6826 42.6843C18.278 42.9949 17.9356 43.3676 17.5622 43.7403C17.2198 44.113 16.9397 44.4857 16.6596 44.8895C16.3484 45.3243 16.0995 45.7902 15.8194 46.2561V46.225C15.6949 46.4424 15.477 46.3803 15.3836 46.225C14.7301 46.4424 13.6719 46.8151 13.6408 46.8151C12.8628 46.9704 12.9873 46.3182 13.0184 46.0697C13.4852 43.2744 13.8587 40.4791 14.2321 37.6838C15.0413 31.9069 15.7571 26.0989 16.0995 20.2599C16.2862 17.3404 16.3795 14.4208 16.3795 11.5013C16.3795 9.23402 16.3795 6.8425 15.5393 4.66839C14.7612 2.68063 13.1117 1.22087 10.9332 1.00346C8.87917 0.786044 6.73175 1.56251 5.17566 2.9291C1.62776 6.09709 1.06757 11.6566 0.974199 16.1912C0.880833 21.4091 1.62776 26.5648 2.59254 31.6584C3.5262 36.7831 4.64659 41.8457 5.26902 47.0325C5.89146 52.064 6.01595 57.1577 5.02005 62.1271C3.99303 67.2828 1.03644 72.5939 2.46805 77.936C3.74405 82.719 8.66131 85.0484 13.0184 86.3529C18.3091 87.9679 23.9422 88.3096 29.4508 87.8127C31.6604 87.6263 33.9012 86.9741 35.9864 86.3218C36.8889 86.0423 37.7603 85.7317 38.6317 85.3901C38.7251 85.359 38.7873 85.3279 38.8496 85.2969C39.9077 84.8621 40.9347 84.3341 41.8995 83.7129C43.7668 82.5016 45.3229 80.8244 46.101 78.7124C47.0035 76.2899 46.7857 73.6809 46.2255 71.2273C45.6653 68.7115 44.7627 66.2889 44.1403 63.7732C43.4867 61.0711 43.1133 58.3068 43.051 55.5116C42.8954 49.7346 43.8602 44.0198 44.9184 38.3671C46.0387 32.6523 47.2836 26.9064 47.7193 21.0674Z" fill="#83CE60"/>
<path d="M25.2491 46.6921C25.218 46.7542 25.1869 46.8474 25.1558 46.9095C25.1558 47.0026 25.1558 47.0648 25.1869 47.1269C25.2803 47.3132 25.5603 47.189 25.6848 47.0958C26.0272 46.8784 26.3384 46.6299 26.6496 46.3815C26.6496 46.3815 26.6496 46.3815 26.6185 46.3815C26.245 46.3504 25.5292 46.2883 25.2491 46.6921Z" fill="#83CE60"/>
<path d="M14.8854 70.824C7.35391 85.111 37.8534 85.4526 36.484 75.2654C34.679 61.7548 18.5267 63.8979 14.8854 70.824Z" fill="#E2FAD7"/>
<path d="M20.9233 72.1303C18.2468 71.3849 15.5392 70.8569 12.8004 70.4842C9.50152 70.0493 6.14035 69.9251 2.8103 70.1115C2.84142 70.0183 2.87255 69.894 2.90367 69.8009C4.02406 69.7387 5.14445 69.7077 6.26484 69.7387C11.2443 69.7698 16.1927 70.5463 20.9544 72.0371C20.9855 72.0682 20.9855 72.1613 20.9233 72.1303Z" fill="#1E5405"/>
<path d="M19.8341 72.97C19.8341 73.0011 19.8341 73.0011 19.803 73.0011C19.803 73.0011 19.7718 73.0321 19.7407 73.0321C17.0954 73.1564 14.45 73.1564 11.8046 73.3117C8.53684 73.467 5.26903 73.7776 2.06348 74.3677C2.06348 74.2434 2.06348 74.0881 2.0946 73.9639C3.24611 73.7465 4.39762 73.5601 5.54913 73.4359C10.2485 72.8768 15.0102 72.7837 19.7096 72.9079C19.7407 72.9079 19.7407 72.9079 19.7718 72.939C19.8341 72.939 19.8341 72.97 19.8341 72.97Z" fill="#1E5405"/>
<path d="M20.6742 74.3043C20.6742 74.3354 20.6742 74.3354 20.6431 74.3664C20.6431 74.3664 20.612 74.3975 20.5808 74.3975C17.8732 74.5217 15.1656 74.8323 12.4891 75.2671C9.06573 75.8883 5.70456 76.789 2.43675 78.0314C2.43675 78.0314 2.43675 78.0003 2.43675 77.9692C2.40563 77.8761 2.37451 77.7829 2.37451 77.6897C3.65051 77.2238 4.92651 76.789 6.20251 76.4163C8.50553 75.733 10.8708 75.205 13.2672 74.8323C15.6947 74.4285 18.1222 74.2422 20.5808 74.2422C20.612 74.2422 20.612 74.2422 20.6431 74.2732C20.6742 74.2732 20.6742 74.2732 20.6742 74.3043Z" fill="#1E5405"/>
<path d="M45.9766 70.0798C45.3852 70.0798 44.7939 70.0487 44.2026 70.0798C39.2542 70.1419 34.337 70.8562 29.5442 72.1607H29.5131L29.4819 72.1296V72.0986C29.4819 72.0986 29.4819 72.0675 29.5131 72.0675C32.1584 71.2289 34.8971 70.6078 37.667 70.2351C40.4057 69.8623 43.1445 69.7071 45.8832 69.7692C45.9143 69.8623 45.9454 69.9555 45.9766 70.0798Z" fill="#1E5405"/>
<path d="M46.6924 74.0874C46.0389 73.9942 45.3853 73.901 44.7318 73.8078C40.0635 73.2488 35.3952 73.2488 30.6958 73.0314C30.6958 73.0314 30.6647 73.0314 30.6647 73.0003L30.6335 72.9692C30.6335 72.9692 30.6335 72.9382 30.6647 72.9071L30.6958 72.8761C33.3723 72.8139 36.0488 72.845 38.6941 72.9382C41.3706 73.0314 44.016 73.2488 46.6613 73.6525C46.6613 73.8078 46.6613 73.9631 46.6924 74.0874Z" fill="#1E5405"/>
<path d="M46.5369 77.1297C46.5058 77.2539 46.5058 77.3471 46.4746 77.4713C45.6966 77.1918 44.9186 76.9433 44.1094 76.7259C41.8064 76.0426 39.4722 75.5146 37.107 75.1419C34.7106 74.7692 32.2831 74.5207 29.8244 74.3965C29.7311 74.3965 29.7311 74.2412 29.8244 74.2412C32.532 74.2412 35.2396 74.4897 37.9161 74.9556C40.8416 75.4525 43.7359 76.1669 46.5369 77.1297Z" fill="#1E5405"/>
<path d="M11.9288 14.7921C11.9288 16.0655 11.8977 17.3078 11.8666 18.5812C11.8043 21.1281 11.6487 23.6749 11.462 26.2527C11.0885 31.3464 10.4972 36.44 9.93701 41.5336C9.90588 41.8753 9.84364 42.2169 9.81252 42.5586C9.81252 42.5896 9.81252 42.6207 9.81252 42.6828C9.81252 42.6518 9.81252 42.5896 9.7814 42.5586C9.71915 42.2169 9.65691 41.8753 9.59466 41.5026C9.43905 40.6329 9.25232 39.7944 9.09671 38.9247C8.44315 35.5083 7.82071 32.0607 7.29164 28.6132C6.51359 23.6438 6.10901 18.6123 6.07789 13.5808C6.07789 12.4316 6.04676 11.2824 6.3891 10.1643C6.63808 9.29467 7.2294 8.45608 8.06969 8.08338C8.90998 7.71067 9.7814 7.95914 10.435 8.54926C11.213 9.23255 11.5865 10.1643 11.7732 11.1893C11.9599 12.3695 11.9288 13.6118 11.9288 14.7921Z" fill="#E2FAD7"/>
<path d="M12.6135 12.1224C12.5513 10.9732 12.3646 9.79298 11.7421 8.7991C11.462 8.36428 11.1197 7.96051 10.684 7.68099C10.2794 7.40146 9.81256 7.18404 9.31461 7.12193C8.81666 7.05981 8.28758 7.12193 7.82075 7.30828C7.6029 7.40146 7.41617 7.49463 7.22944 7.58781C6.98046 7.7431 6.76261 7.92946 6.57588 8.14687C5.79783 8.95439 5.42437 10.0725 5.29988 11.1906C5.14427 12.433 5.20651 13.7064 5.23763 14.9798C5.26875 16.2843 5.36212 17.5887 5.45549 18.8621C5.67334 21.44 5.98456 23.9868 6.35802 26.5336C7.13607 31.6583 8.22534 36.7209 9.37685 41.7835C9.47021 42.1562 9.53246 42.5289 9.62582 42.9016C9.65695 43.0569 9.68807 43.2122 9.75031 43.3675V43.3985C9.75031 43.4296 9.75031 43.4917 9.75031 43.5538C9.75031 43.5849 9.78143 43.616 9.78143 43.647C9.78143 43.647 9.78143 43.6781 9.81256 43.6781C9.84368 43.7091 9.8748 43.7402 9.90592 43.7713C9.93704 43.8023 9.99929 43.8023 10.0304 43.8023C10.0927 43.8023 10.1238 43.8023 10.186 43.7713C10.2171 43.7713 10.2794 43.7402 10.3105 43.7091C10.3416 43.6781 10.3728 43.647 10.4039 43.5849C10.435 43.5538 10.435 43.4917 10.435 43.4607C10.4661 43.2743 10.4661 43.088 10.4972 42.9016C10.5284 42.7774 10.5284 42.6531 10.5284 42.4978C10.7773 40.1684 11.1197 37.8701 11.3687 35.5407C11.6487 32.9318 11.8977 30.3228 12.1156 27.7139C12.3334 25.1049 12.489 22.4339 12.5824 19.7939C12.6135 18.4894 12.6447 17.185 12.6758 15.8805C12.6135 14.6381 12.6446 13.3647 12.6135 12.1224ZM9.5947 41.535C9.43909 40.6654 9.25236 39.8268 9.09675 38.9571C8.44319 35.5407 7.82075 32.0932 7.29168 28.6456C6.51363 23.6762 6.10905 18.6447 6.07793 13.6132C6.07793 12.464 6.0468 11.3149 6.38914 10.1967C6.63812 9.3271 7.22944 8.48851 8.06973 8.11581C8.91002 7.7431 9.78143 7.99157 10.435 8.58169C11.213 9.26498 11.5865 10.1967 11.7732 11.2217C11.96 12.4019 11.96 13.6443 11.96 14.8245C11.96 16.0979 11.9288 17.3403 11.8977 18.6137C11.8355 21.1605 11.6799 23.7073 11.4931 26.2852C11.1197 31.3788 10.5284 36.4724 9.96817 41.5661C9.93704 41.9077 9.8748 42.2494 9.84368 42.591C9.84368 42.6221 9.84368 42.6531 9.84368 42.7153C9.84368 42.6842 9.84368 42.6221 9.81256 42.591C9.71919 42.2183 9.65695 41.8767 9.5947 41.535Z" fill="#1E5405"/>
<path d="M42.7086 15.5378C42.6775 16.8112 42.6152 18.0846 42.5218 19.3581C42.3662 21.8738 42.0861 24.3585 41.7438 26.8432C41.0591 31.8437 40.0943 36.8131 39.1607 41.7825L39.0051 42.6832C38.6938 40.3848 38.476 38.1175 38.227 35.8192C37.9469 33.2724 37.6979 30.7256 37.4801 28.1787C37.2622 25.6319 37.1066 23.0851 36.9821 20.5383C36.8888 17.9915 36.7954 15.4447 36.8888 12.8978C36.9199 11.8108 37.0133 10.6305 37.5112 9.63667C37.9158 8.8602 38.6316 8.14585 39.5341 7.9595C40.4367 7.77314 41.2458 8.27009 41.7749 8.92232C42.4596 9.76091 42.6463 10.848 42.7086 11.904C42.7708 13.1152 42.7397 14.3265 42.7086 15.5378Z" fill="#E2FAD7"/>
<path d="M43.082 9.389C42.8952 8.89206 42.584 8.45724 42.2106 8.08453C41.8371 7.71183 41.4014 7.4323 40.9034 7.21489C40.4366 7.0596 39.9387 6.99748 39.4407 7.09065C38.9428 7.18383 38.4759 7.37018 38.1025 7.68077C37.1999 8.333 36.6709 9.32688 36.4219 10.3829C36.1418 11.5631 36.1729 12.8055 36.1729 14.0168C36.1729 15.3523 36.1729 16.6567 36.204 17.9923C36.2663 20.6012 36.3908 23.2101 36.5775 25.8191C36.9509 31.068 37.5111 36.3169 38.1647 41.5348C38.2581 42.187 38.3203 42.8082 38.3826 43.4604C38.3826 43.5536 38.4448 43.6157 38.4759 43.6779C38.6627 43.8642 39.0984 43.771 39.0672 43.4294C39.0672 43.3983 39.0672 43.3673 39.0672 43.3362C39.5341 41.3484 39.9698 39.3607 40.4055 37.3419C40.4055 37.3419 40.4055 37.3419 40.4055 37.3108C41.059 34.3292 41.6504 31.3475 42.1483 28.3348C42.9886 23.2101 43.611 18.0544 43.611 12.8676C43.611 11.7184 43.5799 10.4761 43.082 9.389ZM39.1606 41.7833L39.005 42.684C38.6938 40.3856 38.4759 38.1183 38.2269 35.82C37.9469 33.2732 37.6979 30.7264 37.48 28.1795C37.2622 25.6327 37.1066 23.0859 36.9821 20.5391C36.8887 17.9923 36.7953 15.4455 36.8887 12.8986C36.9198 11.8116 37.0132 10.6314 37.5111 9.63747C37.9157 8.861 38.6315 8.14665 39.5341 7.9603C40.4366 7.77395 41.2458 8.27089 41.7749 8.92312C42.4595 9.76171 42.6463 10.8488 42.7085 11.9048C42.7708 13.1161 42.7396 14.3273 42.7085 15.5386C42.6774 16.812 42.6151 18.0854 42.5218 19.3589C42.3662 21.8746 42.0861 24.3593 41.7437 26.844C41.059 31.8445 40.0943 36.8139 39.1606 41.7833Z" fill="#1E5405"/>
<path d="M11.3445 69.553C12.2896 69.5328 13.0394 68.7518 13.0192 67.8086C12.9989 66.8653 12.2163 66.1171 11.2712 66.1373C10.326 66.1575 9.57622 66.9385 9.59646 67.8817C9.6167 68.825 10.3993 69.5732 11.3445 69.553Z" fill="#1E5405"/>
<path d="M9.3457 67.6237L9.25233 67.7479L9.19009 67.8721C9.15897 67.9343 9.15897 68.0274 9.19009 68.0895C9.19009 68.1517 9.22121 68.1827 9.22121 68.2138C9.22121 68.2448 9.25233 68.307 9.28345 68.338C9.31458 68.3691 9.3457 68.4001 9.37682 68.4312C9.40794 68.4623 9.47019 68.4933 9.50131 68.4933C9.56355 68.5244 9.62579 68.5244 9.71916 68.5244L9.87477 68.4933L9.99926 68.4312L10.0926 68.338L10.186 68.2138L10.2482 68.0895C10.2794 68.0274 10.2794 67.9343 10.2482 67.8721C10.2482 67.81 10.2171 67.779 10.2171 67.7479C10.186 67.6858 10.1549 67.6237 10.0926 67.5615L10.0615 67.5305C10.0304 67.4684 9.96813 67.4373 9.90589 67.4373C9.84365 67.4063 9.7814 67.4062 9.71916 67.4062L9.59467 67.4373C9.47018 67.4994 9.40794 67.5615 9.3457 67.6237Z" fill="white"/>
<path d="M37.4523 69.4588C38.2943 69.4408 38.9623 68.745 38.9443 67.9047C38.9263 67.0643 38.229 66.3977 37.387 66.4157C36.5449 66.4337 35.8769 67.1295 35.895 67.9698C35.913 68.8102 36.6102 69.4768 37.4523 69.4588Z" fill="#1E5405"/>
<path d="M38.8037 68.8673C39.1818 68.8592 39.4817 68.5468 39.4736 68.1695C39.4655 67.7922 39.1525 67.4929 38.7744 67.501C38.3963 67.5091 38.0964 67.8215 38.1045 68.1988C38.1126 68.5761 38.4256 68.8754 38.8037 68.8673Z" fill="white"/>
<path d="M28.8904 72.9673C28.797 72.6568 28.3925 72.781 28.3925 73.0605C28.3302 73.7749 28.2057 74.4582 27.8011 75.0793C27.3965 75.6694 26.8052 76.1043 26.1206 76.2596C25.9027 76.3217 25.6848 76.3527 25.467 76.3527C25.4981 75.8869 25.4359 75.3899 25.4359 74.924C25.4359 74.4271 25.4359 73.8991 25.4981 73.3711C25.5292 72.8742 25.5915 72.3462 25.6537 71.8492C25.6848 71.6008 25.7471 71.3523 25.7782 71.0728C25.8093 70.9485 25.8405 70.8553 25.8405 70.7311C26.1517 70.6379 26.4007 70.4205 26.5874 70.141C26.8364 70.3273 27.1476 70.4205 27.4899 70.2652C28.1435 69.9857 28.268 68.9608 27.6766 68.5259C27.6455 68.4949 27.6144 68.4949 27.5833 68.4638C27.5522 68.4638 26.5563 68.3085 26.1206 68.1532C25.7471 68.029 25.3425 67.9669 24.969 67.9048C24.2844 67.8426 23.5686 68.0601 23.164 68.6502C22.8216 69.1471 22.7905 69.8925 23.2885 70.2963C23.4129 70.3895 23.5374 70.4826 23.6619 70.5137C23.8175 70.5758 23.942 70.5758 24.0976 70.5758C24.2532 70.5758 24.4088 70.5137 24.5333 70.4516C24.5956 70.4205 24.6267 70.3895 24.6889 70.3584C24.8757 70.5448 25.1247 70.669 25.4047 70.7H25.4359C25.4359 70.7622 25.4047 70.7932 25.4047 70.8553C25.3425 71.1038 25.2803 71.3833 25.218 71.6629C25.1246 72.1909 25.0313 72.7189 24.969 73.2469C24.9068 73.7749 24.8757 74.2718 24.8757 74.7687C24.8757 75.2346 24.8446 75.7316 24.9068 76.2285C24.6267 76.1664 24.3466 76.1043 24.0976 75.98C23.4752 75.6694 22.9461 75.1725 22.666 74.5203C22.5104 74.1476 22.417 73.7749 22.3859 73.4022C22.3548 72.9984 22.3859 72.6257 22.417 72.2219C22.417 72.0977 22.2614 72.0666 22.1992 72.1598C21.7635 72.8431 21.8568 73.837 22.1058 74.5513C22.3859 75.3278 22.915 75.98 23.5997 76.3838C25.0935 77.2534 27.0853 76.9429 28.1435 75.5763C28.7348 74.924 29.1394 73.8991 28.8904 72.9673ZM25.4047 70.3273C25.2491 70.2963 25.1558 70.2031 25.0313 70.1099C25.0624 70.0478 25.0935 69.9546 25.1247 69.8925C25.1558 69.7372 25.1869 69.5819 25.1869 69.4577C25.1869 69.3024 25.1246 69.1471 25.0624 69.0229C25.0002 68.8986 24.9068 68.7744 24.7823 68.6502C24.7512 68.6191 24.7201 68.6191 24.6889 68.5881C24.6578 68.5881 24.5956 68.5881 24.5645 68.5881C24.5333 68.5881 24.4711 68.6191 24.4711 68.6191C24.44 68.6502 24.4088 68.6812 24.3777 68.7123C24.1599 69.116 24.191 69.613 24.3777 70.0168C24.3155 70.0478 24.2532 70.0789 24.191 70.1099C24.0665 70.141 23.9731 70.1099 23.8487 70.0789C23.7553 70.0478 23.6619 69.9546 23.5686 69.8615C23.5063 69.7683 23.4441 69.6441 23.4441 69.5509C23.4441 69.4266 23.4441 69.3024 23.5063 69.2092C23.7864 68.557 24.5022 68.4638 25.1247 68.4949C25.4981 68.5259 25.8716 68.6191 26.2139 68.6502C26.5563 68.7123 27.0542 68.6812 27.3654 68.9608C27.6144 69.1782 27.5833 69.6751 27.3032 69.8304C27.1165 69.9546 26.8675 69.8304 26.743 69.6751C26.7741 69.4266 26.743 69.1782 26.6185 68.9297C26.5874 68.8986 26.5563 68.8676 26.5251 68.8365C26.494 68.8055 26.4318 68.8055 26.4006 68.8055C26.3695 68.8055 26.3073 68.8055 26.2762 68.8365C26.245 68.8676 26.2139 68.8986 26.1828 68.9297C26.0583 69.2092 26.0894 69.4888 26.2139 69.7372C26.1206 70.1099 25.7782 70.3895 25.4047 70.3273Z" fill="#1E5405"/>
<path d="M27.3342 69.8628C27.1475 69.987 26.8985 69.8628 26.774 69.7075C26.8051 69.459 26.774 69.2105 26.6495 68.9621C26.6184 68.931 26.5873 68.8999 26.5562 68.8689C26.525 68.8378 26.4628 68.8378 26.4317 68.8378C26.4005 68.8378 26.3383 68.8378 26.3072 68.8689C26.2761 68.8999 26.2449 68.931 26.2138 68.9621C26.0893 69.2416 26.1204 69.5211 26.2449 69.7696C26.1204 70.1112 25.747 70.3908 25.3735 70.2976C25.2179 70.2665 25.1245 70.1734 25.0001 70.0802C25.0312 70.0181 25.0623 69.9249 25.0934 69.8628C25.1245 69.7075 25.1557 69.5522 25.1557 69.4279C25.1557 69.2727 25.0934 69.1174 25.0312 68.9931C24.9689 68.8689 24.8756 68.7447 24.7511 68.6204C24.72 68.5894 24.6888 68.5894 24.6577 68.5583C24.6266 68.5583 24.5644 68.5583 24.5332 68.5583C24.5021 68.5583 24.4399 68.5894 24.4399 68.5894C24.4087 68.6204 24.3776 68.6515 24.3465 68.6825C24.1286 69.0863 24.1598 69.5832 24.3465 69.987C24.2843 70.0181 24.222 70.0491 24.1598 70.0802C24.0353 70.1112 23.9419 70.0802 23.8174 70.0491C23.7241 70.0181 23.6307 69.9249 23.5373 69.8317C23.4751 69.7385 23.4128 69.6143 23.4128 69.5211C23.4128 69.3969 23.4128 69.2727 23.4751 69.1795C23.7552 68.5272 24.471 68.4341 25.0934 68.4651C25.4669 68.4962 25.8404 68.5894 26.1827 68.6204C26.525 68.6825 27.023 68.6515 27.3342 68.931C27.6454 69.2105 27.6143 69.7075 27.3342 69.8628Z" fill="#C89D64"/>
<path d="M48.4662 11.7815C48.1238 9.29676 47.4703 6.71888 46.1009 4.60689C44.8872 2.74336 43.1132 1.15937 40.9658 0.413957C38.9117 -0.300395 36.4842 -0.114042 34.7103 1.15937C33.1853 2.21536 32.345 3.89254 31.9404 5.66288C31.5047 7.46429 31.4425 9.35888 31.4425 11.1913C31.4425 13.9866 31.5359 16.7509 31.6915 19.5461C32.0338 25.5715 32.7807 31.5969 33.621 37.5913C33.9634 39.9517 34.3057 42.3433 34.648 44.7037C34.4613 44.5795 34.2746 44.4863 34.0878 44.3931C33.621 44.1447 33.0919 43.9273 32.594 43.7409C31.5981 43.3993 30.5711 43.3371 29.544 43.3682C29.5752 42.4675 29.2951 41.5668 28.4859 41.0077C27.5211 40.3244 26.1518 40.3244 25.0936 40.7903C25.0625 40.8214 25.0002 40.8214 24.9691 40.8524C24.938 40.8214 24.938 40.7593 24.9069 40.7282C24.5645 40.2002 24.0355 39.8586 23.413 39.7033C22.8528 39.579 22.2615 39.548 21.7013 39.6412C21.4212 39.7033 21.11 39.7654 20.8299 39.8586C20.7054 39.8896 20.6121 39.9207 20.4876 39.9828L20.332 40.0449L20.1763 40.107C20.083 40.1381 20.0207 40.1692 19.9274 40.2313C18.8381 40.7593 17.8733 41.5047 17.0953 42.4054C16.6596 42.9334 16.2861 43.4924 15.9749 44.0826C15.8504 44.3 15.757 44.4863 15.6637 44.7037C15.4769 44.7659 15.2902 44.8901 15.228 44.9211C14.8234 45.1075 14.4188 45.3249 14.0142 45.5423C14.0142 45.5423 13.9831 45.5734 13.952 45.5734C14.8234 39.8586 15.6637 34.1127 16.2861 28.3668C16.9397 22.3725 17.3443 16.316 17.282 10.2596C17.2509 8.02335 17.0953 5.66288 16.0683 3.61301C15.6014 2.65019 14.9167 1.84266 14.0453 1.22148C13.1739 0.600309 12.178 0.227604 11.1199 0.103369C9.00358 -0.145101 6.7628 0.56925 5.08222 1.84266C3.2149 3.27136 2.00115 5.38336 1.25422 7.61959C0.445055 10.0111 0.164957 12.589 0.0404691 15.0737C-0.0528966 17.7137 0.00934816 20.3847 0.289445 23.0247C0.84964 28.4289 1.97003 33.7089 2.96593 39.051C3.96183 44.3 4.83324 49.58 4.771 54.9221C4.73988 57.5621 4.45978 60.171 3.89959 62.7489C3.33939 65.1714 2.4991 67.5008 1.87666 69.8924C1.84554 69.9855 1.81442 70.1098 1.7833 70.203C1.72105 70.4825 1.62769 70.7931 1.56544 71.0726C1.34759 72.0665 1.19198 73.1225 1.12974 74.1474C1.12974 74.2717 1.09861 74.4269 1.09861 74.5512C1.06749 75.7314 1.16086 76.8806 1.44096 78.0298C1.47208 78.154 1.5032 78.2472 1.53432 78.3714C1.59657 78.5578 1.65881 78.7752 1.72105 78.9615C2.53022 81.2288 4.14856 82.9992 6.10924 84.3347C6.73168 84.7695 7.38524 85.1422 8.0388 85.4839C8.0388 85.4839 9.65714 86.2293 9.68826 86.2293C10.6842 86.633 11.7423 87.0057 12.7693 87.3163C15.5081 88.1239 18.3402 88.6519 21.2034 88.8693C24.0666 89.0867 26.8987 89.0246 29.7619 88.745C30.7578 88.6208 31.7226 88.4344 32.6562 88.186C33.9322 87.9064 35.1771 87.5337 36.422 87.161C37.2 86.9126 37.9781 86.633 38.725 86.3225L39.5964 85.9497C42.6775 84.5521 45.4473 82.5333 46.7545 79.3032C46.9412 78.8062 47.0968 78.3403 47.2213 77.8434C47.2524 77.7192 47.2835 77.5949 47.3147 77.5018C47.5325 76.4458 47.5948 75.3587 47.5014 74.3027C47.5014 74.1785 47.5014 74.0542 47.4703 73.93C47.3769 72.6877 47.0968 71.4453 46.7856 70.203C46.7545 70.1098 46.7233 69.9855 46.6922 69.8924C46.1632 67.9046 45.5096 65.9479 45.0116 64.0533C43.5178 58.3075 43.6423 52.3131 44.3892 46.4741C45.1673 40.4797 46.5989 34.5786 47.5636 28.5842C48.0616 25.6647 48.4039 22.6831 48.5595 19.7325C48.8085 17.0304 48.8085 14.3904 48.4662 11.7815ZM47.7192 21.068C47.2835 26.9071 46.0698 32.6529 44.9805 38.3988C43.9224 44.0515 42.9265 49.7663 43.1132 55.5432C43.1754 58.3385 43.5489 61.1028 44.2025 63.8049C44.7004 65.8237 45.3851 67.7804 45.9142 69.7681C45.9453 69.8613 45.9764 69.9545 46.0075 70.0787C46.1009 70.4825 46.2254 70.8552 46.2876 71.259C46.4744 72.0665 46.5989 72.874 46.6922 73.6815C46.6922 73.8058 46.7233 73.93 46.7233 74.0542C46.7856 75.0792 46.7545 76.1041 46.5989 77.1291C46.5677 77.2533 46.5677 77.3465 46.5366 77.4707C46.4432 77.9055 46.3188 78.3093 46.1632 78.7131C45.3851 80.8251 43.829 82.5022 41.9617 83.7135C40.9969 84.3347 39.9699 84.8627 38.9117 85.2975C37.947 85.7013 36.2664 86.2603 36.2664 86.2603C36.2041 86.2914 36.1108 86.3225 36.0485 86.3225C33.9322 86.9747 31.7226 87.6269 29.5129 87.8443C24.0043 88.3413 18.4024 87.9996 13.0806 86.3846C12.7382 86.2914 12.427 86.1672 12.0847 86.074L10.7153 85.577C7.10515 84.1483 3.61949 81.9121 2.53022 77.9987C2.53022 77.9987 2.53022 77.9677 2.53022 77.9366C2.4991 77.8434 2.46798 77.7502 2.46798 77.6571C2.18788 76.5389 2.12564 75.4519 2.18788 74.3338C2.18788 74.2095 2.18788 74.0542 2.219 73.93C2.31237 72.6566 2.56134 71.3832 2.87256 70.1098C2.90369 70.0166 2.93481 69.8924 2.96593 69.7992C3.65061 67.2213 4.61539 64.6434 5.11334 62.1277C6.10924 57.1583 5.98476 52.0336 5.36232 47.0331C4.73988 41.8774 3.61949 36.7837 2.68583 31.6591C1.75217 26.5344 0.974127 21.3786 1.09861 16.1918C1.19198 11.6572 1.75217 6.09771 5.39344 2.8676C6.94953 1.50101 9.09695 0.755603 11.151 0.941955C13.3295 1.15937 14.979 2.61913 15.757 4.60689C16.5973 6.781 16.5973 9.14146 16.5973 11.4398C16.5973 14.3593 16.504 17.2789 16.3172 20.1984C15.9438 26.0374 15.2591 31.8454 14.4499 37.6223C14.0453 40.4176 13.6719 43.2129 13.2362 46.0082C13.205 46.2567 13.0806 46.9089 13.8586 46.7536C13.8897 46.7536 14.9479 46.3809 15.6014 46.1635C15.6948 46.3188 15.9126 46.3809 16.0371 46.1635V46.1945C16.2861 45.7287 16.5662 45.2938 16.8774 44.828C17.1264 44.4242 17.4376 44.0204 17.78 43.6788C18.1223 43.3061 18.4958 42.9644 18.9004 42.6228C18.9937 42.5296 19.2427 42.3743 19.3983 42.2501C19.6162 42.0948 19.834 41.9395 20.083 41.8153C20.2075 41.7532 20.332 41.691 20.4564 41.6289L20.6432 41.5357C20.6432 41.5357 20.7365 41.5047 20.7677 41.4736C20.9855 41.3804 21.2034 41.2873 21.4524 41.2252C21.6702 41.163 21.8881 41.1009 22.1059 41.0699H22.137H22.1682H22.2926C22.4171 41.0699 22.5727 41.0388 22.6972 41.0388H22.884C22.884 41.0388 22.9773 41.0388 23.0084 41.0388C23.0396 41.0388 23.0396 41.0388 23.0707 41.0388C23.1329 41.0388 23.1952 41.0699 23.2263 41.0699C23.2885 41.0699 23.3508 41.1009 23.3819 41.1009C23.413 41.1009 23.4753 41.132 23.4753 41.132C23.5375 41.163 23.6309 41.1941 23.6931 41.2562C23.6931 41.2562 23.7554 41.2873 23.7554 41.3183C23.7865 41.3494 23.8176 41.3494 23.8176 41.3804L23.9421 41.5047L23.9732 41.5357C24.0043 41.5668 24.0355 41.5979 24.0355 41.6289C24.0355 41.6289 24.0355 41.6289 24.0355 41.66C23.413 42.219 22.9462 42.9334 22.4794 43.6477C22.2926 43.9273 22.137 44.2068 21.9503 44.4863C21.9192 44.5795 21.8881 44.6727 21.8881 44.7659C21.8881 44.859 21.9503 44.9522 22.0125 45.0143C22.0748 45.0764 22.1682 45.1386 22.2615 45.1696C22.3549 45.2007 22.4483 45.2007 22.5416 45.1696C23.1641 45.0454 23.7554 44.7659 24.2844 44.3931C24.8446 43.9894 25.2181 43.3993 25.4048 42.747C25.4982 42.4054 25.5293 42.0637 25.4671 41.7221C26.0273 41.4426 26.6497 41.3183 27.3033 41.4426C27.7079 41.5047 28.0813 41.7221 28.3614 42.0016C28.6726 42.3433 28.8282 42.8091 28.7971 43.244C28.7971 44.2378 28.2058 45.0454 27.5211 45.7287C27.3966 45.7287 27.3033 45.6976 27.1788 45.6976C26.5563 45.6355 25.8405 45.6355 25.3115 45.9461C25.0625 46.0703 24.8758 46.3188 24.7824 46.5673C24.689 46.8157 24.689 47.1263 24.7824 47.3748C24.8446 47.499 24.938 47.6233 25.0625 47.7164C25.187 47.8096 25.3426 47.8717 25.4671 47.8717C25.8405 47.9028 26.1829 47.7164 26.4941 47.5301C26.9921 47.2195 27.49 46.8778 27.9257 46.5051C28.0502 46.5362 28.2058 46.5673 28.3303 46.5983C29.2951 46.8778 30.291 47.4369 30.7889 48.3376C30.9757 48.7414 31.1001 49.1451 31.1001 49.58C31.1001 50.0148 31.0379 50.4496 30.8512 50.8534C30.4155 51.8472 29.3573 52.3131 28.2992 52.0957C27.0232 51.8472 26.1518 50.8223 25.436 49.8284C25.3737 49.7352 25.2492 49.6421 25.1247 49.611C25.0002 49.58 24.8758 49.611 24.7513 49.6731C24.6579 49.7352 24.5645 49.8595 24.5334 49.9837C24.5023 50.108 24.5334 50.2322 24.5957 50.3564C25.3426 51.5367 26.4319 52.6237 27.8323 52.9654C29.1083 53.2759 30.5399 52.9032 31.2246 51.723C31.4736 51.2571 31.6292 50.7291 31.6915 50.1701C31.7537 49.611 31.6292 49.083 31.4425 48.5861C31.2246 48.027 30.8823 47.5301 30.4466 47.1263C30.0109 46.7225 29.5129 46.3809 28.9527 46.1635C28.7971 46.1014 28.6104 46.0393 28.4548 45.9771C28.8282 45.6044 29.1395 45.1696 29.3573 44.6416C29.4818 44.3621 29.544 44.0826 29.6063 43.803C30.5399 44.0515 31.4114 44.3621 32.2828 44.7659C32.7496 44.9522 33.1853 45.1696 33.621 45.4181C34.0567 45.6665 34.4613 45.9771 34.897 46.2256C34.9281 46.2567 34.9593 46.2567 34.9904 46.2877C35.0215 46.5051 35.1771 46.5983 35.3638 46.5983C35.6128 46.5983 35.924 46.3809 35.8618 46.0393C34.9904 40.2002 34.119 34.3922 33.4654 28.5221C32.8118 22.9005 32.5006 17.2167 32.4384 11.564C32.4384 9.7937 32.4384 7.96123 32.8119 6.22194C33.1542 4.57583 33.8389 2.8676 35.3016 1.87372C37.0756 0.631368 39.4408 0.600309 41.3704 1.46995C43.3933 2.37066 45.0116 4.07889 45.9764 6.03559C47.0968 8.27182 47.5948 10.8497 47.8126 13.3033C47.9682 15.9123 47.8749 18.4901 47.7192 21.068ZM26.6497 46.3809C26.3385 46.6294 26.0273 46.8778 25.6849 47.0953C25.5604 47.1884 25.2803 47.3127 25.187 47.1263C25.1559 47.0642 25.1559 46.971 25.1559 46.9089C25.1559 46.8157 25.187 46.7536 25.2492 46.6915C25.5293 46.2877 26.2451 46.3498 26.6497 46.3809Z" fill="#1E5405"/>
</svg>