<svg width="67" height="56" viewBox="0 0 67 56" fill="none" xmlns="http://www.w3.org/2000/svg">
<path d="M66.0097 47.5454L64.9595 47.9882H64.9318C60.8692 49.4275 56.8067 50.8391 52.6059 51.8078C48.3498 52.7765 44.0938 53.3024 39.7548 53.6345C31.2427 54.2434 22.6477 53.9666 14.2462 52.389C11.8418 51.9462 9.46505 51.5033 7.06066 50.9774C4.73918 50.4516 2.52824 49.7043 0.289673 48.9016L0.344946 48.4034C0.372583 48.4311 0.427856 48.4311 0.427856 48.4034C0.759496 46.4936 1.14641 44.5839 1.67151 42.7018C2.14133 40.8474 2.66643 39.0207 3.27443 37.2216C4.51808 33.6235 6.23156 30.1915 8.33194 27.0085C12.0353 21.4176 17.3691 16.7124 23.6703 14.3598C29.9991 12.0072 37.0188 12.284 43.32 14.4982C49.6764 16.7401 55.1485 21.1132 59.0452 26.5933C63.0249 32.2119 65.3464 39.0483 65.8715 45.8847C65.8991 46.2999 65.9544 46.7151 65.982 47.1302C65.9544 47.2963 65.982 47.4347 66.0097 47.5454Z" fill="#F5B100"/>
<path d="M27.6777 36.4725C23.1452 49.3981 41.5513 49.7025 40.7222 40.4858C39.6443 28.2799 29.8886 30.2174 27.6777 36.4725Z" fill="#F3DA99"/>
<path d="M27.0973 21.7203C26.5169 20.3918 25.522 19.2847 24.9969 17.9285C24.5547 16.7937 23.8085 15.5759 23.7256 14.3304C24.7205 13.9705 25.7154 13.6661 26.738 13.417C27.042 13.9152 27.1249 14.4411 27.2354 15.1053C27.346 15.825 27.5118 16.5446 27.65 17.2642C27.9264 18.6758 27.7329 20.1427 27.954 21.5542C28.0093 22.1078 27.2631 22.1078 27.0973 21.7203Z" fill="#F3DA99"/>
<path d="M34.1721 13.0294C34.2273 14.7454 33.8957 16.4891 33.6746 18.1498C33.5641 18.9801 33.3982 19.7827 33.1771 20.5854C32.9561 21.3881 32.5968 22.1077 32.431 22.938C32.3204 23.4916 31.5466 23.3255 31.4913 22.8273C31.4084 21.9693 31.1044 21.1666 30.9938 20.3086C30.8833 19.4783 30.7728 18.6203 30.7451 17.7899C30.6898 16.1016 30.6069 14.4133 30.8004 12.7526C31.9059 12.6696 33.039 12.6419 34.1444 12.6696C34.1444 12.8079 34.1721 12.9187 34.1721 13.0294Z" fill="#F3DA99"/>
<path d="M41.6615 14.9943C40.6113 17.3193 39.4229 19.4505 37.7095 21.3602C37.4331 21.6647 36.7975 21.4709 36.8251 21.0281C36.9633 18.4541 37.5989 16.1568 38.5109 13.7765C38.5938 13.5828 38.6768 13.4167 38.7597 13.2783C39.8099 13.4721 40.8324 13.7488 41.8273 14.0533C41.8826 14.3301 41.7997 14.6622 41.6615 14.9943Z" fill="#F3DA99"/>
<path d="M16.623 38.2985C14.7161 39.1012 12.6157 39.2949 10.5983 39.6547C8.5255 40.0145 6.50802 40.5681 4.43527 41.0663C3.60617 41.26 2.74944 40.9556 2.30725 40.2359C2.55598 39.3503 2.83235 38.4646 3.13635 37.5789C3.21926 37.5512 3.30217 37.5235 3.38508 37.4958C5.65129 37.0253 8.0004 36.8039 10.2942 36.6932C12.4499 36.5825 14.7161 36.6102 16.7336 37.4405C17.1205 37.6342 16.927 38.1601 16.623 38.2985Z" fill="#F3DA99"/>
<path d="M16.1808 45.3024C15.0476 45.1087 13.9145 44.8596 12.7538 44.7765C11.5654 44.6935 10.3494 44.6658 9.16104 44.7212C6.72901 44.8319 4.29698 45.1363 1.92023 45.6069C1.00822 45.8006 0.510759 46.9354 0.759489 47.7657C1.03586 48.7068 2.03078 49.1496 2.94279 48.9282C5.09845 48.3746 7.28174 47.8764 9.46504 47.5166C10.5152 47.3229 11.5931 47.1845 12.6433 46.9908C13.7764 46.7693 14.9095 46.4926 16.0702 46.3265C16.5953 46.2158 16.8164 45.3855 16.1808 45.3024Z" fill="#F3DA99"/>
<path d="M64.6556 38.77C64.4345 39.7941 63.5224 40.6798 62.2512 40.2923C60.2337 39.6834 58.1609 39.1852 56.0882 38.6593C55.0656 38.4102 54.0431 38.1888 53.0205 37.995C51.9703 37.8013 50.8925 37.4968 49.8147 37.4138C49.1237 37.3861 49.1237 36.4451 49.787 36.3621C50.9201 36.196 51.998 35.8362 53.1034 35.7255C54.2089 35.6148 55.3144 35.5317 56.4198 35.504C58.7137 35.4487 60.9799 35.7808 63.2184 36.3344C63.5501 36.4174 63.8265 36.5558 64.0475 36.7495C64.2686 37.4415 64.4897 38.1057 64.6556 38.77Z" fill="#F3DA99"/>
<path d="M66.01 47.6815C65.6783 48.6779 64.6558 49.1484 63.6332 48.9824C61.2012 48.5672 58.7415 48.2351 56.3648 47.5985C55.204 47.294 54.0433 46.9619 52.8826 46.6021C51.7771 46.27 50.5887 45.9932 49.6491 45.3012C49.2622 44.9968 49.5109 44.3879 49.8978 44.2495C51.0033 43.862 52.3022 44.0004 53.4629 44.0281C54.6513 44.0557 55.8397 44.0834 57.0281 44.1665C59.543 44.3325 62.0579 44.7477 64.5729 45.1075C65.1256 45.1905 65.5678 45.578 65.8165 46.0762C65.8442 46.436 65.8718 46.7958 65.8994 47.1557C65.9823 47.3217 66.01 47.5155 66.01 47.6815Z" fill="#F3DA99"/>
<path d="M63.163 34.2602C62.7484 34.2602 62.3062 34.2602 61.8917 34.2879C61.4771 34.2879 61.035 34.3156 60.6204 34.3432C60.5651 34.3432 60.5099 34.3432 60.4822 34.3432C60.123 34.3432 59.7637 34.3709 59.3768 34.3986C59.3491 34.3986 59.3215 34.3986 59.2939 34.3986C58.8793 34.4263 58.4648 34.4539 58.0502 34.4816C55.1484 34.6754 52.2741 34.9798 49.3723 35.4227C46.4704 35.8655 43.5686 36.3914 40.722 37.0833C40.6944 37.0833 40.6944 37.0833 40.6667 37.0557C40.6667 37.0557 40.6667 37.028 40.6667 37.0003C40.6667 37.0003 40.6667 37.0003 40.6944 37.0003C40.8602 36.9449 41.0537 36.9173 41.2195 36.8619C41.4129 36.8066 41.5788 36.7789 41.7446 36.7235C42.1039 36.6405 42.4631 36.5575 42.7948 36.4744C43.154 36.3914 43.5133 36.3084 43.845 36.2253C44.5635 36.0593 45.2544 35.9209 45.973 35.7548C46.3323 35.6718 46.6915 35.6164 47.0508 35.5334C47.4101 35.4503 47.7694 35.395 48.1286 35.3396C48.8472 35.2012 49.5658 35.0905 50.2843 34.9798C51.0029 34.8691 51.749 34.7584 52.4676 34.6754C52.8269 34.62 53.1862 34.5923 53.5731 34.537C53.9323 34.4816 54.3193 34.4539 54.6785 34.4263C55.0378 34.3986 55.3971 34.3432 55.784 34.3156C56.8895 34.2048 57.9949 34.1218 59.0728 34.0665C59.3215 34.0388 59.5702 34.0388 59.8189 34.0111C60.5651 33.9834 61.2837 33.9281 62.0022 33.9281C62.251 33.9281 62.5273 33.9004 62.7761 33.9004C62.859 33.9004 62.9143 33.9004 62.9972 33.9004C63.0524 33.9834 63.1077 34.1218 63.163 34.2602Z" fill="#2D2615"/>
<path d="M64.7383 39.1314C62.251 38.993 59.7637 38.9099 57.2764 38.9099C54.4022 38.8823 51.528 38.9376 48.6814 39.1037C45.8072 39.2421 42.9606 39.4635 40.1141 39.7403C40.0864 39.7403 40.0864 39.7403 40.0864 39.7126C40.0864 39.7126 40.0864 39.7126 40.0864 39.6849C40.0864 39.6572 40.0864 39.6572 40.1141 39.6572C40.4733 39.6019 40.8326 39.5742 41.1919 39.5189C44.0661 39.159 46.9403 38.9099 49.8145 38.7439C52.7164 38.5778 55.5906 38.5225 58.4648 38.5225C60.2612 38.5501 62.0576 38.5778 63.854 38.6608C64.1303 38.6885 64.4067 38.6885 64.6831 38.7162V38.7439C64.6831 38.8823 64.7107 39.0207 64.7383 39.1314Z" fill="#2D2615"/>
<path d="M65.761 44.9706C62.9974 44.4171 60.2337 43.9466 57.3871 43.5591C54.5129 43.1716 51.6111 42.8395 48.7368 42.618C45.8626 42.3966 42.9608 42.2859 40.0866 42.1475C40.0589 42.1475 40.0589 42.1475 40.0313 42.1198C40.0313 42.1198 40.0037 42.0922 40.0037 42.0645C40.0037 42.0368 40.0037 42.0368 40.0313 42.0091C40.0313 42.0091 40.0589 41.9814 40.0866 41.9814C40.4458 41.9814 40.8051 41.9814 41.1644 41.9814C44.0662 41.9814 46.9681 42.1198 49.8699 42.3413C52.7442 42.5627 55.5907 42.8671 58.4373 43.2823C60.8693 43.6421 63.3014 44.0573 65.7057 44.5278C65.7334 44.6662 65.761 44.8046 65.761 44.9706Z" fill="#2D2615"/>
<path d="M63.163 34.2602C62.7484 34.2602 62.3062 34.2602 61.8917 34.2879C61.4771 34.2879 61.035 34.3156 60.6204 34.3432C60.5651 34.3432 60.5099 34.3432 60.4822 34.3432C60.123 34.3432 59.7637 34.3709 59.3768 34.3986C59.3491 34.3986 59.3215 34.3986 59.2939 34.3986C58.8793 34.4263 58.4648 34.4539 58.0502 34.4816C55.1484 34.6754 52.2741 34.9798 49.3723 35.4227C46.4704 35.8655 43.5686 36.3914 40.722 37.0833C40.6944 37.0833 40.6944 37.0833 40.6667 37.0557C40.6667 37.0557 40.6667 37.028 40.6667 37.0003C40.6667 37.0003 40.6667 37.0003 40.6944 36.9726C40.8602 36.9173 41.0537 36.8896 41.2195 36.8342C41.4129 36.7789 41.5788 36.7512 41.7446 36.6958C42.1039 36.6128 42.4631 36.5298 42.7948 36.4467C43.154 36.3637 43.5133 36.2807 43.845 36.1976C44.5635 36.0316 45.2544 35.8932 45.973 35.7271C46.3323 35.6441 46.6915 35.5887 47.0508 35.5057C47.4101 35.4227 47.7694 35.3673 48.1286 35.312C48.8472 35.1736 49.5658 35.0629 50.2843 34.9521C51.0029 34.8414 51.749 34.7307 52.4676 34.6477C52.8269 34.5923 53.1862 34.5647 53.5731 34.5093C53.9323 34.4539 54.3193 34.4263 54.6785 34.3986C55.0378 34.3709 55.3971 34.3156 55.784 34.2879C56.8895 34.1772 57.9949 34.0941 59.0728 34.0388C59.3215 34.0388 59.5702 34.0111 59.8189 34.0111C60.5651 33.9557 61.2837 33.9281 62.0022 33.9281C62.251 33.9281 62.5273 33.9004 62.7761 33.9004C62.859 33.9004 62.9143 33.9004 62.9972 33.9004C63.0524 33.9834 63.1077 34.1218 63.163 34.2602Z" fill="#2D2615"/>
<path d="M64.7383 39.1314C62.251 38.993 59.7637 38.9099 57.2764 38.9099C54.4022 38.8823 51.528 38.9376 48.6814 39.1037C45.8072 39.2421 42.9606 39.4635 40.1141 39.7403C40.0864 39.7403 40.0864 39.7126 40.0864 39.7126C40.0864 39.7126 40.0864 39.7126 40.0864 39.6849C40.0864 39.6849 40.0864 39.6572 40.1141 39.6572C40.4733 39.6019 40.8326 39.5742 41.1919 39.5189C44.0661 39.159 46.9403 38.9099 49.8145 38.7439C52.7164 38.5778 55.5906 38.5225 58.4648 38.5225C60.2612 38.5225 62.0576 38.5778 63.854 38.6608C64.1303 38.6885 64.4067 38.6885 64.6831 38.7162V38.7439C64.6831 38.8823 64.7107 39.0207 64.7383 39.1314Z" fill="#2D2615"/>
<path d="M26.9866 38.551C26.6826 38.4402 26.3786 38.3295 26.0746 38.2188C23.6426 37.3331 21.1829 36.6135 18.668 36.0323C13.9421 34.9529 9.07804 34.4823 4.21399 34.6207C4.26926 34.51 4.32454 34.3993 4.35217 34.2609C6.92238 34.2056 9.46495 34.3163 12.0352 34.593C14.6054 34.8698 17.1756 35.3403 19.6629 35.9769C22.1778 36.6135 24.6098 37.4438 26.9866 38.4679C27.0695 38.4956 27.0419 38.5786 26.9866 38.551Z" fill="#2D2615"/>
<path d="M25.7706 40.4891C25.7706 40.5168 25.7706 40.5168 25.743 40.5445C25.743 40.5721 25.7154 40.5721 25.6877 40.5721C22.9241 40.6829 20.1604 40.7105 17.3967 40.8489C12.7261 41.0703 8.02789 41.5685 3.52312 42.8417C2.8322 43.0355 2.11365 43.2569 1.42273 43.4783C1.45037 43.3122 1.50564 43.1462 1.53328 43.0078C4.57331 42.0114 7.72389 41.4025 10.8745 41.015C13.3341 40.7105 15.7938 40.5721 18.2535 40.4891C20.7131 40.4061 23.2004 40.4061 25.6601 40.4614C25.6877 40.4614 25.6877 40.4614 25.7154 40.4891C25.7706 40.4614 25.7706 40.4614 25.7706 40.4891Z" fill="#2D2615"/>
<path d="M25.3562 43.0072C25.3562 43.0349 25.3562 43.0349 25.3286 43.0626C25.3286 43.0626 25.3009 43.0902 25.2733 43.0902C24.9693 43.1179 24.6376 43.1456 24.3336 43.1456C21.8187 43.284 19.3314 43.5608 16.8441 44.0036C11.372 44.9723 6.06581 46.716 1.09121 49.1793C0.92539 49.124 0.75957 49.0686 0.59375 48.9856C3.71669 47.4356 6.95018 46.1348 10.3219 45.1661C12.7539 44.4464 15.2135 43.8929 17.7285 43.5054C20.2158 43.0902 22.7584 42.8965 25.3009 42.8965C25.3286 42.8965 25.3286 42.9242 25.3562 42.9242C25.3286 42.9795 25.3562 43.0072 25.3562 43.0072Z" fill="#2D2615"/>
<path d="M54.5958 17.4863C54.5958 18.1229 54.5682 18.8148 54.3747 19.4237C53.5456 18.6764 52.6613 18.0122 51.7493 17.3756C51.8875 17.2095 52.0256 17.0711 52.1638 16.8774C52.3849 16.6283 52.6336 16.4069 52.8547 16.1854C53.0758 15.964 53.3246 15.7426 53.6009 15.5765C53.7115 15.4935 53.822 15.4658 53.9326 15.4658C54.3747 15.5212 54.43 15.964 54.4853 16.2131C54.5682 16.6283 54.5958 17.0435 54.5958 17.4863Z" fill="#F3DA99"/>
<path d="M56.9451 19.6993C56.807 20.2529 56.6135 20.8064 56.3371 21.3323C55.8397 20.8064 55.1488 20.1145 54.8171 19.81C54.7895 19.7824 54.7342 19.727 54.7066 19.6993C54.7895 19.1734 54.9 18.6476 54.9553 18.094C55.0106 17.4297 54.9829 16.7655 54.8724 16.1012C54.8448 15.8244 54.7066 15.52 54.6237 15.2709C54.4302 14.8004 53.8498 14.6066 53.4077 14.8557C53.0484 15.0495 52.7444 15.4093 52.4956 15.686C52.2469 15.9628 52.0258 16.2396 51.8324 16.5441C51.6942 16.7378 51.556 16.9315 51.4731 17.153C50.7269 16.6271 49.9531 16.1289 49.1516 15.686C50.4505 14.1361 51.9153 12.7522 53.684 11.7281C53.9604 11.5621 54.2368 11.4237 54.5131 11.2853C54.7342 11.1746 54.9277 11.0085 55.1211 10.8701C56.116 12.0326 56.7241 13.5272 57.0281 15.0218C57.3321 16.5441 57.3321 18.1494 56.9451 19.6993Z" fill="#F5B100"/>
<path d="M56.8067 12.8093C56.4198 11.9513 55.9499 11.121 55.3972 10.3737C55.3696 10.3183 55.3143 10.2906 55.259 10.2629C55.2037 10.2353 55.1485 10.2353 55.0932 10.2629C54.8168 10.3737 54.5405 10.4013 54.2641 10.512C53.9877 10.6504 53.739 10.7888 53.4903 10.9272C52.9928 11.204 52.523 11.5361 52.0532 11.8683C51.1135 12.5602 50.2568 13.3352 49.5106 14.1932C49.179 14.5807 48.9026 14.9682 48.6262 15.3833C48.875 15.5217 49.0684 15.6324 49.1237 15.6601C50.4226 14.1102 51.8873 12.7263 53.6561 11.7022C53.9325 11.5361 54.2088 11.3977 54.4852 11.2593C54.7063 11.1486 54.8997 10.9826 55.0932 10.8442C56.0881 12.0066 56.6961 13.5012 57.0001 14.9958C57.3318 16.5458 57.3318 18.1511 56.9449 19.7011C56.8067 20.2546 56.6132 20.8082 56.3645 21.334C56.6132 21.6108 56.8343 21.8046 56.9172 21.9153C57.1383 21.334 57.3318 20.7528 57.47 20.1439C57.6358 19.3412 57.7463 18.5109 57.774 17.7083C57.8016 16.0199 57.47 14.3593 56.8067 12.8093ZM54.5957 15.2449C54.4023 14.7744 53.8219 14.5807 53.3797 14.8298C53.0205 15.0235 52.7164 15.3833 52.4677 15.6601C52.219 15.9369 51.9979 16.2137 51.8044 16.5181C51.6663 16.7119 51.5281 16.9056 51.4452 17.127C51.5557 17.2101 51.6386 17.2654 51.7492 17.3484C51.8873 17.1824 52.0255 17.044 52.1637 16.8779C52.3848 16.6288 52.6335 16.4074 52.8546 16.186C53.0757 15.9646 53.3245 15.7431 53.6008 15.5771C53.7114 15.494 53.8219 15.4664 53.9325 15.4664C54.3746 15.494 54.4299 15.9646 54.4852 16.2137C54.5681 16.6288 54.5957 17.0717 54.5957 17.4868C54.5957 18.1234 54.5681 18.8154 54.3746 19.4243C54.4852 19.5073 54.5957 19.618 54.7063 19.7287C54.7892 19.2029 54.8997 18.677 54.955 18.1234C55.0103 17.4592 54.9827 16.7949 54.8721 16.1306C54.8445 15.8262 54.7063 15.5217 54.5957 15.2449Z" fill="#2D2615"/>
<path d="M13.583 16.9609C13.583 17.5975 13.6106 18.2894 13.8041 18.8983C14.6332 18.151 15.5176 17.4868 16.4296 16.8502C16.2914 16.6841 16.1532 16.5457 16.015 16.352C15.7939 16.1029 15.5452 15.8815 15.3241 15.6601C15.103 15.4386 14.8543 15.2172 14.5779 15.0511C14.4674 14.9681 14.3568 14.9404 14.2463 14.9404C13.8041 14.9958 13.7488 15.4386 13.6936 15.6877C13.6106 16.1029 13.583 16.5181 13.583 16.9609Z" fill="#F3DA99"/>
<path d="M11.2063 19.1739C11.3445 19.7275 11.538 20.281 11.8143 20.8069C12.3118 20.281 13.0027 19.5891 13.3344 19.2846C13.362 19.257 13.4173 19.2016 13.4449 19.1739C13.362 18.648 13.2515 18.1222 13.1962 17.5686C13.1409 16.9044 13.1685 16.2401 13.2791 15.5758C13.3067 15.299 13.4449 14.9946 13.5278 14.7455C13.7213 14.275 14.3016 14.0812 14.7438 14.3303C15.1031 14.5241 15.4071 14.8839 15.6558 15.1607C15.9046 15.4374 16.1257 15.7142 16.3191 16.0187C16.4573 16.2124 16.5955 16.4062 16.6784 16.6276C17.4246 16.1017 18.1984 15.6035 18.9999 15.1607C17.701 13.6107 16.2362 12.2268 14.4675 11.2027C14.1911 11.0367 13.9147 10.8983 13.6384 10.7599C13.4173 10.6492 13.2238 10.4831 13.0304 10.3447C12.0354 11.5072 11.4274 13.0018 11.1234 14.4964C10.8194 16.0187 10.8471 17.624 11.2063 19.1739Z" fill="#F5B100"/>
<path d="M10.4048 17.1543C10.4324 17.9846 10.543 18.7873 10.7088 19.5899C10.847 20.1988 11.0128 20.7801 11.2615 21.3613C11.3444 21.2783 11.5379 21.0569 11.8143 20.7801C11.5655 20.2542 11.3721 19.7283 11.2339 19.1471C10.8746 17.5971 10.847 15.9918 11.1786 14.4419C11.4826 12.9473 12.0906 11.4527 13.0856 10.2902C13.3066 10.4286 13.5001 10.567 13.6936 10.7054C13.9699 10.8438 14.2463 10.9822 14.5227 11.1482C16.2638 12.1723 17.7561 13.5562 19.0551 15.1061C19.1103 15.0785 19.3038 14.9678 19.5525 14.8294C19.2762 14.4142 18.9998 14.0267 18.6682 13.6392C17.8943 12.7812 17.0376 12.0062 16.1256 11.3143C15.6558 10.9822 15.1859 10.65 14.6885 10.3733C14.4397 10.2349 14.191 10.0965 13.9147 9.95808C13.6383 9.8197 13.3619 9.79202 13.0856 9.70898C13.0303 9.70898 12.975 9.70898 12.9197 9.70898C12.8645 9.73666 12.8092 9.76434 12.7815 9.8197C12.2288 10.5947 11.759 11.3973 11.3721 12.2553C10.7088 13.833 10.3772 15.4936 10.4048 17.1543ZM13.3066 15.5767C13.1961 16.2409 13.1685 16.9052 13.2237 17.5695C13.2514 18.123 13.3619 18.6489 13.4725 19.1748C13.583 19.0641 13.6936 18.981 13.8041 18.8703C13.6106 18.2614 13.583 17.5695 13.583 16.9329C13.583 16.5177 13.6106 16.0749 13.6936 15.6597C13.7212 15.3829 13.8041 14.9401 14.2463 14.9124C14.3845 14.9124 14.495 14.9401 14.5779 15.0231C14.8543 15.1892 15.0754 15.4106 15.3241 15.632C15.5729 15.8534 15.7939 16.1025 16.015 16.324C16.1532 16.49 16.2914 16.6561 16.4296 16.7945C16.5401 16.7115 16.623 16.6561 16.7336 16.5731C16.623 16.3516 16.5125 16.1579 16.3743 15.9642C16.1809 15.6597 15.9598 15.3829 15.711 15.1061C15.4899 14.857 15.1583 14.4696 14.799 14.2758C14.3568 14.0267 13.7488 14.2205 13.583 14.691C13.4725 14.9954 13.3343 15.2999 13.3066 15.5767Z" fill="#2D2615"/>
<path d="M41.109 8.15954C40.9432 8.32561 40.7497 8.46399 40.5839 8.60238C40.2799 8.85148 39.9206 9.23897 39.5061 9.23897C39.3403 9.23897 39.1744 9.18362 39.0363 9.07291C38.8152 8.87916 38.981 8.60238 39.1468 8.46399C39.4232 8.21489 39.8101 8.07651 40.197 8.04883C40.501 8.04883 40.805 8.10418 41.109 8.15954Z" fill="#8EA5F5"/>
<path d="M35.8857 7.32922C35.1672 7.606 34.4486 7.16316 34.1723 6.47121C33.9788 5.94533 34.0065 5.3641 34.1723 4.81055C34.8356 4.8659 35.4988 5.08733 35.9687 5.53017C36.4938 6.00069 36.6872 7.02477 35.8857 7.32922Z" fill="#8EA5F5"/>
<path d="M38.9809 8.29682C38.7045 8.5736 38.5663 9.04412 38.8151 9.37626C39.0638 9.73607 39.6165 9.76374 40.0034 9.59768C40.4733 9.40393 40.8602 9.01644 41.2471 8.68431C41.3853 8.5736 41.4958 8.46289 41.634 8.35218C41.8275 8.43521 41.9933 8.5736 42.1591 8.68431C42.4078 8.90573 42.6289 9.15483 42.7947 9.45929C42.9329 9.76374 43.0435 10.0959 43.0435 10.428C43.0711 10.7601 43.0435 11.0923 42.9606 11.3967C42.85 11.7289 42.6566 12.0333 42.4355 12.2824C42.3249 12.4208 42.1867 12.5315 42.0486 12.6422C40.0864 12.061 38.0689 11.6735 36.0238 11.4798C34.0063 11.2583 31.9888 11.286 29.999 11.5074C29.9713 11.3691 29.9437 11.203 29.9161 11.0646C29.8332 10.8432 29.7779 10.6494 29.7226 10.428C29.6397 10.0405 29.6121 9.65303 29.6121 9.23787C29.6121 8.85038 29.6397 8.46289 29.7226 8.0754C29.8055 7.68791 29.9437 7.3281 30.1372 6.99597C30.303 6.66384 30.5241 6.3317 30.7728 6.05493C31.0492 5.77815 31.3532 5.55673 31.6848 5.36298C32.3205 5.00317 33.0666 4.80943 33.8128 4.80943C33.7576 5.03085 33.7023 5.27995 33.7023 5.52905C33.647 6.47009 34.0339 7.38346 34.9459 7.77095C35.775 8.13076 36.7423 7.77095 36.991 6.88526C37.2674 5.86118 36.5765 4.94782 35.6921 4.50497C35.3328 4.31123 34.9459 4.20052 34.559 4.14516C34.559 4.11748 34.5867 4.11748 34.5867 4.08981C35.3328 2.65056 36.8252 1.7372 38.3452 1.29435C39.7824 0.851509 41.7998 0.436342 42.9882 1.62649C43.4304 2.12469 43.7068 2.7336 43.762 3.42554C43.8449 4.17284 43.7068 4.94782 43.3751 5.61208C42.9606 6.41474 42.3802 7.13436 41.7169 7.71559C41.6893 7.74327 41.6893 7.74327 41.6616 7.77095C41.5787 7.74327 41.4958 7.71559 41.4129 7.71559C40.5285 7.54952 39.5613 7.68791 38.9809 8.29682Z" fill="#8EA5F5"/>
<path d="M64.9319 48.0144C60.8693 49.4536 56.8067 50.8652 52.606 51.8339C48.3499 52.8026 44.0939 53.3285 39.7549 53.6607C31.2428 54.2696 22.6478 53.9928 14.2463 52.4152C11.8419 51.9723 9.46512 51.5295 7.06073 51.0036C5.04325 50.5608 3.08105 49.9242 1.11884 49.2322C0.953023 49.1769 0.787203 49.1215 0.621383 49.0385C0.455563 48.9831 0.289743 48.9278 0.0962865 48.8447C0.0133765 48.8171 -0.0418965 48.9554 0.0410135 48.9831C0.15156 49.0385 0.289743 49.0938 0.40029 49.1215C0.56611 49.2045 0.704294 49.2599 0.870114 49.3153C4.57343 50.8652 8.38729 52.3044 12.2288 53.4116C13.9699 53.9098 18.6405 54.8508 18.6405 54.8508C20.7962 55.2106 23.0071 55.4874 25.1627 55.6811C29.557 56.0963 33.9788 56.0963 38.3731 55.7365C41.4407 55.4597 44.5361 54.9615 47.6037 54.3249C47.6037 54.3249 50.2292 53.7437 51.3347 53.4669C56.0882 52.2768 60.8141 50.8375 65.2359 48.6787C65.5952 48.4849 65.3188 47.876 64.9319 48.0144Z" fill="#2D2615"/>
<path d="M66.6455 45.7178C66.6178 45.524 66.6178 45.3303 66.5902 45.1365C66.5902 44.9981 66.5625 44.8321 66.5625 44.6937C66.5073 44.1678 66.452 43.6419 66.3967 43.1161C66.2309 41.7875 66.0098 40.4867 65.7058 39.1858C65.6782 39.0474 65.6505 38.909 65.5953 38.7707C65.5123 38.4662 65.4571 38.1617 65.3742 37.885C65.0425 36.6395 64.6556 35.4216 64.2134 34.2315C64.1581 34.0931 64.1305 33.9824 64.0752 33.844C63.329 31.8512 62.417 29.9415 61.3669 28.1147C60.1232 25.9282 58.6308 23.8524 56.945 21.9703C56.945 21.9703 56.9173 21.9426 56.9173 21.9149C56.8344 21.8319 56.641 21.6105 56.3646 21.3337C55.8672 20.8078 55.1762 20.1159 54.8446 19.8114C54.817 19.7837 54.7617 19.7284 54.7341 19.7007C54.6235 19.59 54.513 19.5069 54.4024 19.3962C53.5733 18.6489 52.6889 17.9847 51.7769 17.3481C51.6664 17.265 51.5835 17.2097 51.4729 17.1267C50.7267 16.6008 49.9529 16.1026 49.1514 15.6597C49.0962 15.6321 48.9027 15.5213 48.654 15.383C47.9631 15.0232 46.7194 14.3866 46.139 14.1375C45.0336 13.6393 43.9005 13.2241 42.7674 12.8643C42.8226 12.8089 42.8503 12.7813 42.9056 12.7259C43.2096 12.3938 43.4307 12.034 43.5965 11.6188C43.6241 11.5634 43.6517 11.5081 43.6517 11.4527C43.7623 11.0929 43.8452 10.7331 43.8452 10.3456C43.8452 9.90277 43.707 9.45992 43.4583 9.07244C43.2372 8.71262 42.9056 8.38049 42.5463 8.15907C42.4081 8.07604 42.2699 7.993 42.1041 7.90997C42.2146 7.79926 42.3252 7.71623 42.4357 7.60552C42.5463 7.4948 42.6568 7.38409 42.7397 7.27338C42.9885 6.9966 43.2372 6.71983 43.4583 6.41537C43.7347 6.00021 43.9834 5.58504 44.1768 5.11452C44.2321 5.00381 44.2598 4.92077 44.2874 4.81006C44.5638 4.03509 44.5914 3.20475 44.4256 2.42978C44.315 1.95926 44.1216 1.54409 43.8176 1.18428C43.5136 0.824469 43.1543 0.520013 42.7121 0.326269C41.883 -0.033542 40.9434 -0.0612191 40.059 0.0771696C39.8932 0.104847 39.7273 0.132525 39.5615 0.160203C38.6219 0.381625 37.7099 0.713757 36.8531 1.21196C36.4109 1.46106 35.9964 1.76551 35.6095 2.09764C35.2778 2.37442 34.9738 2.67888 34.7251 3.03869C34.6422 3.12172 34.5869 3.23243 34.5316 3.31547C34.5316 3.34314 34.504 3.37082 34.4764 3.37082C34.4211 3.42618 34.3935 3.50921 34.3382 3.56456C34.3106 3.61992 34.2829 3.67528 34.2276 3.73063C34.2 3.75831 34.2 3.78599 34.1724 3.81366C34.1447 3.86902 34.0895 3.95205 34.0618 4.00741C34.0618 4.03509 34.0342 4.03509 34.0342 4.06276C33.896 4.03509 33.7578 4.03509 33.6196 4.03509C33.4262 4.03509 33.2327 4.03509 33.0116 4.06276C32.68 4.09044 32.3484 4.17348 32.0443 4.28419C32.0167 4.28419 31.9891 4.31186 31.9891 4.31186C31.8785 4.36722 31.7403 4.3949 31.6298 4.45025C31.6022 4.45025 31.5469 4.47793 31.5193 4.50561C31.3811 4.56096 31.2429 4.61632 31.1323 4.69935C31.0771 4.72703 31.0494 4.75471 30.9942 4.78239C30.9112 4.83774 30.8283 4.86542 30.7731 4.92077C30.7178 4.94845 30.6625 5.00381 30.5796 5.03148C30.5243 5.08684 30.4691 5.11452 30.3861 5.16987C30.3309 5.19755 30.2756 5.25291 30.248 5.28058C29.5294 5.86182 29.0043 6.63679 28.7556 7.52248C28.7279 7.60551 28.7003 7.68855 28.7003 7.77158C28.4792 8.79566 28.5898 9.84741 29.032 10.7885C29.1149 10.9822 29.253 11.1759 29.3636 11.342C29.3912 11.3974 29.4465 11.4527 29.5018 11.5081C29.5294 11.5081 29.5294 11.5358 29.557 11.5358C24.8035 12.117 20.2435 13.916 16.3467 16.7668C13.4725 18.815 10.9576 21.306 8.82955 24.1291C6.53571 27.1737 4.71169 30.5504 3.38513 34.1208C3.35749 34.1761 3.32985 34.2592 3.32985 34.3145C3.27458 34.4252 3.24694 34.5636 3.19167 34.6743C2.58366 36.335 2.0862 38.0234 1.64402 39.7394C1.36765 40.8742 1.14656 42.0366 0.9531 43.1991C0.925463 43.3652 0.897826 43.5035 0.87019 43.6696C0.759643 44.3062 0.676733 44.9705 0.621459 45.6347C0.510913 46.5481 0.428003 47.4615 0.345093 48.4025C0.345093 48.4579 0.428003 48.4579 0.428003 48.4025C0.70437 46.7418 1.06365 45.1089 1.45056 43.4759C1.4782 43.3098 1.53347 43.1437 1.56111 43.0053C1.58874 42.8946 1.61638 42.8116 1.64402 42.7009C1.86511 41.8706 2.0862 41.0679 2.3073 40.2652C2.55603 39.3796 2.83239 38.4939 3.1364 37.6082C3.16403 37.4698 3.21931 37.3591 3.27458 37.2207C3.57858 36.3627 3.91022 35.477 4.2695 34.6467C4.32477 34.536 4.38005 34.4252 4.40768 34.2869C5.48551 31.7405 6.81207 29.3049 8.33209 27.0076C12.0354 21.4167 17.3693 16.7115 23.6704 14.3589C23.6981 14.3589 23.7257 14.3312 23.7257 14.3312C24.7206 13.9714 25.7156 13.6669 26.7381 13.4178C28.0647 13.1134 29.4465 12.892 30.8007 12.7813C31.9062 12.6982 33.0393 12.6705 34.1447 12.6982C35.6924 12.7536 37.2677 12.9473 38.7877 13.2241C39.8379 13.4178 40.8604 13.6946 41.8554 13.9991C42.3528 14.1375 42.8503 14.3035 43.3201 14.4696C49.6765 16.7115 55.1486 21.0846 59.0454 26.5648C60.6483 28.8067 61.9472 31.27 63.0251 33.8163C63.0803 33.9547 63.1356 34.0654 63.1909 34.2038C63.5225 35.0342 63.8265 35.8645 64.1029 36.7225C64.324 37.3591 64.4898 38.0234 64.6833 38.6876V38.7153C64.7109 38.826 64.7385 38.9644 64.7662 39.0751C65.2083 40.8465 65.54 42.6455 65.7334 44.4723C65.7611 44.6107 65.7611 44.749 65.7887 44.9151C65.8164 45.2196 65.844 45.5517 65.8716 45.8562C65.8716 45.9115 65.8716 45.9669 65.8716 46.0222C65.8993 46.382 65.9269 46.7418 65.9545 47.1017C65.9545 47.2677 65.9822 47.4615 66.0098 47.6275C66.0374 47.8766 66.0927 48.1257 66.0927 48.3472C66.0927 48.6793 66.6178 48.6793 66.6178 48.3472C66.6178 47.9043 66.7007 47.4615 66.7007 47.0463C66.7007 46.6588 66.6731 46.1883 66.6455 45.7178ZM34.0618 5.50201C34.0618 5.44665 34.0618 5.41897 34.0618 5.36362C34.0895 5.19755 34.1171 5.00381 34.1724 4.83774C34.5869 4.86542 34.9738 4.97613 35.3607 5.1422C35.3607 5.1422 35.3884 5.1422 35.3884 5.16987C35.4437 5.19755 35.5266 5.22523 35.5818 5.28058C35.6095 5.28058 35.6095 5.30826 35.6371 5.30826C35.6924 5.33594 35.7477 5.3913 35.8029 5.41897C35.8029 5.41897 35.8029 5.41897 35.8306 5.41897C35.8858 5.47433 35.9411 5.50201 35.9964 5.55736C36.2451 5.80646 36.4109 6.16627 36.4386 6.52608C36.4386 6.55376 36.4386 6.60912 36.4386 6.63679V6.66447C36.4109 6.96893 36.2451 7.2457 35.9135 7.38409C35.1949 7.66087 34.4764 7.21803 34.2 6.52608C34.1724 6.44305 34.1447 6.33234 34.1171 6.24931C34.1171 6.22163 34.1171 6.22163 34.1171 6.19395C34.0895 6.11092 34.0895 6.00021 34.0895 5.91717C34.0895 5.83414 34.0895 5.75111 34.0895 5.66807L34.0618 5.50201ZM42.2146 12.4768C42.2146 12.4768 42.187 12.5045 42.2146 12.4768C42.1317 12.5322 42.0765 12.5875 41.9935 12.6429C40.0313 12.0616 38.0139 11.6741 35.9688 11.4804C33.9513 11.259 31.9338 11.2867 29.944 11.5081C29.9163 11.3697 29.8887 11.2036 29.8611 11.0652L29.8058 10.9268C29.7505 10.7608 29.6952 10.5947 29.6676 10.4286C29.5847 10.0412 29.557 9.65367 29.557 9.2385C29.557 8.85102 29.5847 8.46352 29.6676 8.07604C29.7505 7.68855 29.8887 7.32874 30.0821 6.9966C30.248 6.66447 30.4691 6.33234 30.7178 6.05556C30.9942 5.77878 31.2982 5.55736 31.6298 5.36362C32.2654 5.00381 33.0116 4.81006 33.7578 4.81006C33.7025 5.03148 33.6749 5.25291 33.6473 5.47433C33.6473 5.50201 33.6473 5.52969 33.6473 5.52969C33.6473 5.66807 33.6473 5.77878 33.6473 5.91717C33.6749 6.33234 33.8131 6.74751 34.0342 7.07964C34.2276 7.35642 34.4764 7.57784 34.808 7.71623C34.8357 7.71623 34.8633 7.7439 34.8909 7.7439C35.4437 7.993 36.0517 7.90997 36.4939 7.55016C36.7149 7.38409 36.8808 7.13499 36.936 6.85822C36.936 6.83054 36.936 6.83054 36.936 6.80286C37.1571 5.91717 36.6597 5.1422 35.9411 4.644C35.8306 4.56096 35.72 4.50561 35.6095 4.45025C35.4989 4.3949 35.416 4.36722 35.3055 4.31186C35.2502 4.28419 35.1949 4.28419 35.1397 4.25651C35.0844 4.25651 35.0567 4.22883 35.0015 4.20115C34.9186 4.17347 34.8357 4.1458 34.7527 4.11812C34.6698 4.09044 34.5593 4.06276 34.4764 4.06276C34.4764 4.06276 34.504 4.03509 34.504 4.00741C35.2502 2.56817 36.7426 1.6548 38.2626 1.21196C39.6997 0.769113 41.7172 0.353947 42.9056 1.54409C43.3477 2.04229 43.6241 2.6512 43.6794 3.34314C43.7347 3.81366 43.707 4.28419 43.5965 4.75471C43.5412 5.03148 43.4307 5.28058 43.3201 5.55736C42.9056 6.36002 42.3252 7.07964 41.6619 7.66087C41.6343 7.68855 41.6343 7.68855 41.6066 7.71623C41.5237 7.68855 41.4408 7.68855 41.3579 7.66087C40.8604 7.57784 40.2801 7.60552 39.7826 7.77158C39.4786 7.88229 39.2022 8.04836 38.9812 8.26978C38.9259 8.32514 38.8982 8.38049 38.8706 8.40817C38.7324 8.60191 38.6771 8.82334 38.7048 9.07244C38.7048 9.18315 38.7601 9.26618 38.8153 9.34921C39.0088 9.65367 39.451 9.70902 39.8379 9.62599C39.8932 9.59831 39.9484 9.59831 40.0037 9.57063C40.4735 9.37689 40.8604 8.9894 41.2474 8.65727C41.275 8.62959 41.3026 8.60191 41.3579 8.57424C41.4684 8.4912 41.5514 8.40817 41.6619 8.32514C41.7448 8.38049 41.8554 8.43585 41.9383 8.4912C42.0212 8.54656 42.0765 8.60191 42.1594 8.65727L42.187 8.68495C42.2423 8.71262 42.2699 8.76798 42.3252 8.79566C42.5186 8.9894 42.6845 9.21082 42.8226 9.45992C42.9608 9.76438 43.0714 10.0965 43.0714 10.4286C43.0714 10.5117 43.099 10.6224 43.099 10.7054C43.099 10.9268 43.0714 11.1483 42.9885 11.342C42.9885 11.3697 42.9885 11.3697 42.9885 11.3974C42.8779 11.7295 42.6845 12.034 42.4634 12.2831C42.3252 12.3661 42.2699 12.4214 42.2146 12.4768ZM41.1092 8.15907C40.9434 8.29746 40.7499 8.46352 40.5841 8.60191C40.2801 8.85101 39.9208 9.2385 39.5062 9.2385C39.3404 9.2385 39.1746 9.18315 39.0364 9.07244C38.9812 9.01708 38.9535 8.96173 38.9259 8.93405C38.8982 8.85101 38.9259 8.79566 38.9535 8.7403C38.9812 8.65727 39.0641 8.54656 39.1193 8.4912C39.2575 8.38049 39.3957 8.29746 39.5615 8.21443C39.6997 8.15907 39.8103 8.13139 39.9484 8.10371C40.0313 8.10371 40.0866 8.07604 40.1695 8.07604C40.2524 8.07604 40.3353 8.07604 40.4183 8.07604C40.4459 8.07604 40.4735 8.07604 40.5288 8.07604C40.5841 8.07604 40.6117 8.07604 40.667 8.07604C40.7223 8.07604 40.7775 8.07604 40.8328 8.10371C40.8604 8.10371 40.8604 8.10371 40.8881 8.10371C40.971 8.13139 41.0263 8.15907 41.1092 8.15907C41.0815 8.15907 41.1092 8.15907 41.1092 8.15907Z" fill="#2D2615"/>
<path d="M22.4268 35.6715C23.2662 35.6715 23.9468 34.99 23.9468 34.1492C23.9468 33.3085 23.2662 32.627 22.4268 32.627C21.5873 32.627 20.9067 33.3085 20.9067 34.1492C20.9067 34.99 21.5873 35.6715 22.4268 35.6715Z" fill="#2D2615"/>
<path d="M21.0449 34.8688C21.3502 34.8688 21.5977 34.621 21.5977 34.3153C21.5977 34.0096 21.3502 33.7617 21.0449 33.7617C20.7397 33.7617 20.4922 34.0096 20.4922 34.3153C20.4922 34.621 20.7397 34.8688 21.0449 34.8688Z" fill="white"/>
<path d="M44.4535 34.785C45.1861 34.785 45.7801 34.1902 45.7801 33.4565C45.7801 32.7227 45.1861 32.1279 44.4535 32.1279C43.7209 32.1279 43.127 32.7227 43.127 33.4565C43.127 34.1902 43.7209 34.785 44.4535 34.785Z" fill="#2D2615"/>
<path d="M45.6415 34.2322C45.9926 34.2322 46.2771 33.9471 46.2771 33.5956C46.2771 33.244 45.9926 32.959 45.6415 32.959C45.2904 32.959 45.0059 33.244 45.0059 33.5956C45.0059 33.9471 45.2904 34.2322 45.6415 34.2322Z" fill="white"/>
<path d="M36.77 36.9145C36.7147 36.6377 36.3278 36.7484 36.3001 36.9975C36.2449 37.6617 36.1067 38.243 35.7198 38.7965C35.3605 39.3224 34.8078 39.6822 34.1998 39.8206C34.0063 39.8483 33.8128 39.876 33.6194 39.876C33.6747 39.4608 33.6194 39.018 33.6194 38.6028C33.6194 38.1599 33.647 37.6894 33.7023 37.2189C33.7299 36.7484 33.8129 36.3055 33.8681 35.8627C33.8958 35.6413 33.951 35.3922 33.9787 35.1708C34.0063 35.06 34.0339 34.977 34.0339 34.8663C34.3103 34.7833 34.559 34.6172 34.7249 34.3681C34.946 34.5618 35.2223 34.6449 35.5263 34.5065C36.1343 34.2574 36.2449 33.344 35.7474 32.9289C35.7198 32.9012 35.6921 32.9012 35.6645 32.8735C35.6369 32.8735 34.7249 32.7074 34.3656 32.569C34.0339 32.4583 33.6747 32.3753 33.3154 32.3199C32.6797 32.2646 32.0441 32.403 31.6572 32.9289C31.3256 33.3717 31.2979 34.0083 31.7401 34.4235C31.8506 34.5065 31.9612 34.5895 32.0717 34.6449C32.2099 34.7002 32.3481 34.7279 32.4587 34.7002C32.5968 34.7002 32.735 34.6726 32.8456 34.6172C32.9008 34.5895 32.9285 34.5618 32.9837 34.5342C33.1496 34.7002 33.3707 34.8109 33.6194 34.8663H33.647C33.647 34.9217 33.6194 34.9493 33.6194 35.0047C33.5641 35.2538 33.5088 35.4752 33.4536 35.7243C33.343 36.1948 33.2601 36.6377 33.2048 37.1359C33.1496 37.6064 33.0943 38.0492 33.0943 38.5198C33.0667 38.9349 33.039 39.4054 33.0943 39.8206C32.8456 39.7653 32.5968 39.6822 32.3757 39.5715C31.823 39.2947 31.3808 38.8242 31.1045 38.243C30.9663 37.9108 30.8834 37.5787 30.8557 37.2189C30.8557 36.8591 30.8557 36.4993 30.911 36.1672C30.911 36.0564 30.7452 36.0288 30.7175 36.1118C30.3306 36.693 30.3859 37.6064 30.5794 38.243C30.8005 38.9349 31.2703 39.5438 31.9059 39.9313C33.2325 40.734 35.0289 40.5126 36.0238 39.2947C36.5765 38.6581 36.9358 37.7725 36.77 36.9145ZM33.6747 34.4511C33.5365 34.4235 33.4536 34.3404 33.343 34.2574C33.3707 34.202 33.3983 34.1467 33.4259 34.0636C33.4812 33.9253 33.4812 33.7869 33.4812 33.6762C33.4812 33.5378 33.4536 33.3994 33.3707 33.2887C33.3154 33.178 33.2325 33.0672 33.1219 32.9565C33.0943 32.9289 33.0667 32.9012 33.039 32.9012C33.0114 32.9012 32.9561 32.8735 32.9285 32.9012C32.9008 32.9012 32.8456 32.9289 32.8179 32.9289C32.7903 32.9565 32.7627 32.9842 32.735 33.0119C32.5416 33.3717 32.5416 33.8145 32.7074 34.202C32.6521 34.2297 32.5968 34.2574 32.5139 34.2851C32.4034 34.3127 32.3205 34.2851 32.2099 34.2574C32.0994 34.2297 32.0165 34.1467 31.9612 34.0636C31.9059 33.9806 31.8783 33.8699 31.8506 33.7592C31.8506 33.6485 31.8783 33.5654 31.9059 33.4547C32.1546 32.8735 32.8179 32.7905 33.3707 32.8458C33.7023 32.8735 34.0339 32.9565 34.3656 33.0119C34.6696 33.0672 35.1118 33.0672 35.3881 33.3163C35.6092 33.5101 35.554 33.9529 35.3329 34.0913C35.167 34.202 34.946 34.0913 34.8354 33.9253C34.863 33.7038 34.863 33.4824 34.7249 33.261C34.6972 33.2333 34.6696 33.2056 34.6419 33.178C34.6143 33.1503 34.559 33.1503 34.5314 33.1503C34.5038 33.1503 34.4485 33.1503 34.4209 33.178C34.3932 33.2056 34.3656 33.2333 34.3379 33.261C34.2274 33.5101 34.255 33.7592 34.3656 33.9806C34.3103 34.2851 33.9787 34.5342 33.6747 34.4511Z" fill="#2D2615"/>
</svg>