<svg width="95" height="55" viewBox="0 0 95 55" fill="none" xmlns="http://www.w3.org/2000/svg">
<path d="M23.439 20.9389C23.4116 20.5613 23.3514 20.1869 23.2593 19.8197C23.188 19.4425 23.1276 19.0653 23.0796 18.6851C22.982 17.9338 22.8937 17.181 22.8456 16.4236C22.7449 14.8778 22.6907 13.3474 22.9804 11.8202C23.1462 10.973 23.3756 10.1395 23.6668 9.32677L23.594 9.3716C24.2264 9.5248 24.8432 9.73646 25.4362 10.0038C26.0312 10.2713 26.6246 10.5294 27.1963 10.8478C28.3218 11.4506 29.3821 12.1676 30.3602 12.9872C30.919 13.4673 31.4454 13.9837 31.936 14.533C32.0091 14.6012 32.1061 14.6379 32.2061 14.6353C32.3061 14.6327 32.4011 14.591 32.4705 14.5191C32.5377 14.4457 32.5738 14.3491 32.5712 14.2497C32.5686 14.1503 32.5275 14.0557 32.4566 13.9858C30.7048 11.947 28.4023 10.4537 25.8236 9.68385C25.0998 9.49208 24.3644 9.34698 23.6219 9.24948C23.6065 9.24612 23.5904 9.24872 23.5769 9.25676C23.5634 9.2648 23.5534 9.27767 23.5491 9.29276C23.289 10.0312 23.0748 10.7849 22.9076 11.5496C22.7403 12.3133 22.5698 13.0707 22.4691 13.8452C22.3448 14.6123 22.2723 15.387 22.2522 16.1639C22.2557 16.9452 22.32 17.7251 22.4443 18.4965C22.514 18.937 22.6163 19.3714 22.7279 19.8027C22.8122 20.2291 22.9594 20.6406 23.1648 21.0239C23.1841 21.0475 23.2099 21.065 23.2391 21.074C23.2682 21.0831 23.2994 21.0833 23.3287 21.0747C23.358 21.0661 23.3841 21.0491 23.4038 21.0257C23.4234 21.0024 23.4357 20.9738 23.439 20.9435V20.9389Z" fill="#2D2615"/>
<path d="M25.969 18.5149C25.9884 18.3503 25.9852 18.1839 25.9597 18.0202C25.9489 17.8487 25.9272 17.6771 25.9133 17.5039C25.8823 17.1463 25.8652 16.7857 25.8621 16.4219C25.8621 16.0741 25.8621 15.7263 25.8916 15.38C25.9086 15.1249 25.8916 14.8312 26.0217 14.5963C26.1767 14.2964 26.5051 14.4231 26.7453 14.5453C27.0552 14.6998 27.365 14.8807 27.6749 15.0492C27.9848 15.2177 28.2947 15.3924 28.6139 15.5655L29.0787 15.8252L29.3452 15.9798C29.4335 16.0277 29.573 16.0756 29.621 16.1715C29.6443 16.2093 29.6773 16.2403 29.7164 16.2614C29.7556 16.2826 29.7997 16.2931 29.8442 16.2919C29.8887 16.2907 29.9321 16.2778 29.9701 16.2546C30.008 16.2314 30.0392 16.1986 30.0605 16.1596C30.0818 16.1206 30.0924 16.0766 30.0913 16.0322C30.0902 15.9878 30.0775 15.9445 30.0543 15.9065C30.0311 15.8686 29.9984 15.8374 29.9593 15.8161C29.9202 15.7947 29.8762 15.784 29.8317 15.785C29.6954 15.7958 29.5079 15.6412 29.3932 15.5779L28.9284 15.3182C28.6495 15.1636 28.3691 15.009 28.0933 14.8544L27.2612 14.3768C27.016 14.2081 26.7442 14.0817 26.4571 14.0027C25.9411 13.9084 25.608 14.2902 25.5274 14.7601C25.4252 15.3274 25.4748 15.938 25.5135 16.5084C25.5367 16.8562 25.5739 17.201 25.6235 17.5457C25.6468 17.7173 25.6715 17.8888 25.7118 18.0573C25.7376 18.2194 25.79 18.376 25.8668 18.5211C25.8727 18.5305 25.8812 18.5379 25.8914 18.5426C25.9015 18.5472 25.9127 18.5488 25.9237 18.5471C25.9347 18.5455 25.945 18.5407 25.9533 18.5333C25.9617 18.526 25.9677 18.5163 25.9706 18.5056L25.969 18.5149Z" fill="#2D2615"/>
<path d="M59.2089 15.6245C60.5739 13.9597 62.097 12.4649 63.9625 11.3704C64.2243 11.2159 64.4924 11.0706 64.7635 10.933C65.0347 10.7954 65.2779 10.5728 65.5568 10.4306L65.2469 10.3981C66.2881 11.5529 66.911 13.0538 67.2317 14.5625C67.5591 16.0664 67.5427 17.6245 67.1837 19.1211C66.9706 19.9624 66.6288 20.7658 66.1704 21.5032C65.8946 21.9437 66.6646 22.3565 66.8707 21.8881C67.2201 21.137 67.4846 20.3495 67.6593 19.54C67.8253 18.7565 67.9223 17.9599 67.9491 17.1595C67.9869 15.5361 67.6697 13.9241 67.0194 12.4355C66.6432 11.6035 66.1827 10.8121 65.6451 10.0735C65.6142 10.025 65.5684 9.98774 65.5144 9.96739C65.4605 9.94704 65.4015 9.94469 65.3461 9.96067C65.0827 10.0596 64.7976 10.089 64.5404 10.2126C64.2832 10.3363 64.0384 10.477 63.7951 10.6192C63.3143 10.8993 62.8489 11.2048 62.4007 11.5343C61.4968 12.1983 60.6658 12.9559 59.9216 13.7943C59.506 14.2745 59.1357 14.792 58.8153 15.3401C58.6743 15.5766 59.0323 15.8502 59.2135 15.6307L59.2089 15.6245Z" fill="#2D2615"/>
<path d="M61.8799 17.0565C62.1109 16.8407 62.3263 16.6087 62.5245 16.3625C62.7398 16.129 62.9676 15.8987 63.1985 15.6854C63.4165 15.4639 63.6569 15.2655 63.9158 15.0934C64.0112 15.0257 64.1257 14.99 64.2428 14.9913C64.3264 15.0045 64.4116 15.0045 64.4953 14.9913C64.5362 14.9818 64.5754 14.9662 64.6115 14.945C64.6549 14.9223 64.6425 14.9254 64.5743 14.9542L64.4194 14.897C64.6735 15.0887 64.7293 15.4273 64.7742 15.7225C64.842 16.1313 64.8777 16.5448 64.8811 16.9591C64.8811 17.7429 64.8253 18.6193 64.4721 19.3304C64.3032 19.6658 64.8749 19.8421 64.9245 19.5082C65.0206 18.8543 65.1802 18.2174 65.2344 17.5558C65.2794 16.9098 65.2482 16.2608 65.1414 15.622C65.1096 15.3572 65.032 15.0999 64.9121 14.8615C64.8847 14.8072 64.8526 14.7555 64.816 14.7069C64.8034 14.6848 64.7872 14.6649 64.768 14.6482C64.7122 14.6188 64.768 14.693 64.768 14.6698C64.7591 14.5839 64.725 14.5025 64.6698 14.436C64.6147 14.3694 64.541 14.3206 64.4581 14.2957C63.8105 14.0762 63.2093 14.7718 62.8328 15.1954C62.597 15.4573 62.3795 15.7352 62.182 16.027C61.9666 16.306 61.8005 16.6197 61.6909 16.9545C61.6863 16.9775 61.6891 17.0013 61.699 17.0225C61.7089 17.0437 61.7254 17.0612 61.746 17.0725C61.7666 17.0837 61.7902 17.088 61.8135 17.0849C61.8368 17.0818 61.8584 17.0713 61.8753 17.055L61.8799 17.0565Z" fill="#2D2615"/>
<path d="M41.2062 11.2225C41.1888 11.0335 41.1551 10.8463 41.1055 10.663C41.0279 10.4625 40.9682 10.2556 40.9273 10.0446C40.847 9.67232 40.8075 9.2924 40.8095 8.91156C40.7939 8.15848 40.9704 7.4138 41.3224 6.74744C41.4791 6.41667 41.6854 6.11173 41.9344 5.84314C42.197 5.58262 42.4948 5.35994 42.8191 5.18154C43.4571 4.82776 44.1747 4.64159 44.9046 4.64051C45.6359 4.64051 46.4618 4.82755 47.0072 5.34385C47.4906 5.79986 47.6765 6.78917 46.9096 7.08133C46.2278 7.33948 45.5151 6.91438 45.2703 6.26669C44.9883 5.50307 45.2083 4.63432 45.5709 3.93562C46.2944 2.5444 47.7276 1.68338 49.1872 1.23665C50.5677 0.813095 52.52 0.41737 53.6541 1.55972C54.087 2.03496 54.3497 2.64005 54.4009 3.2802C54.4863 4.00388 54.3615 4.73678 54.0415 5.39177C53.6295 6.15857 53.0863 6.84756 52.4363 7.42759C52.1094 7.73675 51.767 8.02891 51.423 8.31952C51.1363 8.56221 50.7893 8.92702 50.3864 8.93784C50.2237 8.93966 50.0654 8.88502 49.9386 8.78326C49.7279 8.60704 49.8829 8.34889 50.0378 8.19431C50.3175 7.95139 50.6727 7.81216 51.0434 7.80013C51.7239 7.74654 52.3985 7.9607 52.9228 8.39681C53.1725 8.60135 53.377 8.8553 53.5234 9.14264C53.6698 9.42998 53.755 9.74447 53.7734 10.0663C53.8083 10.3848 53.7761 10.707 53.6789 11.0123C53.5669 11.3243 53.3942 11.6111 53.1707 11.8563C52.9612 12.0902 52.7032 12.2759 52.4146 12.4004C52.3381 12.4267 52.2742 12.4807 52.2358 12.5517C52.1973 12.6227 52.187 12.7056 52.207 12.7838C52.2316 12.8618 52.2861 12.9269 52.3587 12.9649C52.4313 13.0028 52.5161 13.0105 52.5943 12.9863C52.983 12.8225 53.3332 12.5799 53.6229 12.2738C53.9125 11.9678 54.1353 11.6051 54.277 11.2086C54.4375 10.8226 54.5237 10.4099 54.5311 9.99208C54.5177 9.5558 54.3929 9.13015 54.1685 8.75544C53.9463 8.40184 53.6507 8.09982 53.3016 7.86972C52.9526 7.63961 52.5582 7.48675 52.145 7.42141C51.3703 7.28847 50.4407 7.42141 49.8705 7.99645C49.6009 8.26696 49.4723 8.70597 49.7 9.0445C49.9278 9.38303 50.4639 9.41704 50.8311 9.26401C51.2835 9.07542 51.6616 8.6967 52.0319 8.38754C52.427 8.05673 52.8159 7.7182 53.18 7.35494C53.5432 6.99856 53.8769 6.61342 54.1778 6.20331C54.4521 5.81244 54.6823 5.39253 54.8642 4.95121C55.2191 4.13619 55.3011 3.22876 55.0982 2.36354C54.9982 1.92214 54.7986 1.50932 54.5145 1.15653C54.2304 0.803734 53.8694 0.520267 53.4589 0.327713C52.4936 -0.0989292 51.4199 -0.0510092 50.4066 0.156129C49.4915 0.3558 48.6143 0.700228 47.8082 1.17636C47.0156 1.61519 46.317 2.20499 45.7521 2.9123C45.2114 3.62337 44.8008 4.44264 44.7435 5.34539C44.6862 6.24814 45.0704 7.11689 45.9303 7.49097C46.7159 7.83259 47.6734 7.49097 47.9027 6.62996C48.1615 5.64683 47.4937 4.76263 46.6446 4.34526C44.9604 3.51671 42.8764 3.92016 41.4727 5.10579C40.7087 5.70986 40.1768 6.55826 39.9667 7.50797C39.7445 8.4801 39.8536 9.49836 40.2765 10.4017C40.3707 10.5911 40.4784 10.7735 40.5988 10.9474C40.6312 11.0081 40.6767 11.0609 40.7321 11.102C40.9257 11.2334 40.667 11.0293 40.8188 11.1483C40.9016 11.2107 40.988 11.268 41.0776 11.3199C41.1411 11.3586 41.2046 11.2906 41.1922 11.2287L41.2062 11.2225Z" fill="#2D2615"/>
<path d="M35.1634 32.1549V32.1456L35.3184 32.4749V32.4548C35.272 32.2697 35.1774 32.1001 35.0441 31.9632C34.9372 31.8073 34.7922 31.6811 34.6227 31.5969L34.2679 31.4577C34.0126 31.3951 33.7452 31.4015 33.4932 31.4763C33.3577 31.5115 33.2296 31.5706 33.1151 31.651C32.9039 31.7815 32.7299 31.9641 32.61 32.1812C32.5103 32.3442 32.4568 32.5312 32.4551 32.7222C32.4159 32.9134 32.4293 33.1115 32.4938 33.2957C32.5668 33.535 32.7008 33.7512 32.8827 33.9233L32.8997 33.9372L33.2019 34.1583C33.3188 34.2163 33.4407 34.2639 33.566 34.3005C33.7567 34.3565 33.959 34.3602 34.1517 34.3113C34.3455 34.2988 34.5324 34.2342 34.6924 34.1242L34.9837 33.8893C35.1593 33.7057 35.2842 33.4799 35.3463 33.2339V33.2153L35.0023 33.8336L35.0116 33.8213L35.2208 33.5384C35.3175 33.3831 35.371 33.2049 35.3757 33.0221C35.4052 32.9013 35.402 32.7749 35.3664 32.6557C35.3438 32.4739 35.2739 32.3012 35.1634 32.1549Z" fill="#2D2615"/>
<path d="M55.1585 33.4723C56.8024 33.4723 56.7389 30.9248 55.0949 30.9248C53.451 30.9248 53.5146 33.4723 55.1585 33.4723Z" fill="#2D2615"/>
<path d="M12.3981 47.0495C45.7723 59.4948 76.2461 46.5765 76.2461 46.5765C76.1608 36.334 72.0162 25.9956 64.3156 19.2157C56.6151 12.4358 45.3075 9.65958 35.5927 12.9691C28.8187 15.2755 23.1649 20.3086 19.3735 26.3651C15.5821 32.4215 13.557 39.455 12.6971 46.5425L12.3981 47.0495Z" fill="#F5B100"/>
<path d="M39.0073 35.0911C34.6287 47.5271 52.3787 47.81 51.5823 38.9556C50.5241 27.2152 41.1269 29.0763 39.0073 35.0911Z" fill="#F3DA99"/>
<path d="M46.5066 31.6434C46.134 31.6003 45.7672 31.5169 45.4127 31.3945C45.0852 31.2928 44.7492 31.2208 44.4087 31.1796C43.8091 31.1209 43.1955 31.2785 42.8298 31.7856C42.52 32.2122 42.489 32.8321 42.9073 33.2015C43.0033 33.2909 43.1161 33.3603 43.2393 33.4058C43.3624 33.4513 43.4933 33.472 43.6245 33.4666C43.7557 33.4612 43.8845 33.4299 44.0034 33.3745C44.1224 33.319 44.2291 33.2406 44.3174 33.1437C44.4058 33.0467 44.4739 32.9333 44.5179 32.8099C44.562 32.6865 44.581 32.5556 44.5739 32.4248C44.5668 32.294 44.5338 32.1659 44.4767 32.0479C44.4196 31.93 44.3396 31.8245 44.2413 31.7376C44.216 31.7143 44.1858 31.6969 44.1528 31.6868C44.1198 31.6767 44.085 31.6741 44.0509 31.6793C44.0168 31.6845 43.9843 31.6973 43.9558 31.7168C43.9274 31.7363 43.9037 31.7619 43.8865 31.7918C43.5193 32.4796 43.9191 33.4921 44.7356 33.6003C45.5521 33.7085 46.2323 32.7471 45.8372 32.0236C45.8177 31.993 45.7906 31.968 45.7585 31.951C45.7264 31.934 45.6904 31.9255 45.6541 31.9264C45.6178 31.9274 45.5823 31.9377 45.5511 31.9563C45.52 31.975 45.4941 32.0014 45.4762 32.0329C45.1989 32.6651 45.8512 33.4968 46.5453 33.2139C47.1248 32.9774 47.2301 32.0994 46.7452 31.7176C46.7221 31.6984 46.6952 31.6841 46.6664 31.6757C46.6375 31.6672 46.6072 31.6648 46.5774 31.6685C46.5476 31.6722 46.5188 31.6819 46.4929 31.6972C46.467 31.7124 46.4445 31.7327 46.4267 31.757C46.409 31.7812 46.3965 31.8088 46.3899 31.8381C46.3833 31.8674 46.3827 31.8977 46.3883 31.9272C46.3939 31.9566 46.4055 31.9847 46.4224 32.0095C46.4393 32.0343 46.4611 32.0554 46.4864 32.0715C46.7328 32.2261 46.6631 32.6775 46.4276 32.8104C46.1099 32.9882 45.7071 32.5446 45.8434 32.2354L45.4809 32.2431C45.721 32.6821 45.219 33.2865 44.7449 33.1706C44.2708 33.0547 44.057 32.4147 44.2801 32.0066L43.9253 32.0607C44.2212 32.3328 44.1267 32.9186 43.696 32.9882C43.5976 33.0051 43.4965 32.9943 43.4041 32.957C43.3116 32.9197 43.2313 32.8573 43.1724 32.777C43.1135 32.6967 43.0782 32.6016 43.0705 32.5023C43.0628 32.4031 43.083 32.3037 43.1289 32.2153C43.3706 31.6696 44.0136 31.58 44.5466 31.6279C44.8658 31.6573 45.1787 31.7346 45.4933 31.7825C45.8281 31.8435 46.1701 31.8544 46.5081 31.8149C46.5297 31.8121 46.5496 31.8015 46.5639 31.7852C46.5783 31.7688 46.5862 31.7478 46.5862 31.7261C46.5862 31.7043 46.5783 31.6833 46.5639 31.667C46.5496 31.6506 46.5297 31.64 46.5081 31.6372L46.5066 31.6434Z" fill="#2D2615"/>
<path d="M44.9635 33.211C44.8429 33.3617 44.7625 33.5404 44.7295 33.7304C44.6645 33.953 44.6118 34.1818 44.5607 34.4075C44.4615 34.8496 44.3902 35.2979 44.3345 35.7477C44.2787 36.1975 44.2384 36.6195 44.2244 37.0585C44.2105 37.4975 44.1625 38.0092 44.2663 38.4497C44.319 38.6708 44.7001 38.6754 44.7311 38.4389C44.7869 38.0092 44.7311 37.5563 44.7311 37.1234C44.7311 36.6906 44.7574 36.2408 44.7946 35.8018C44.8318 35.3628 44.8891 34.9392 44.9496 34.5095C44.9837 34.2915 45.0239 34.0736 45.0642 33.8556C45.1238 33.6594 45.1391 33.4525 45.1092 33.2497C45.1045 33.2342 45.0959 33.2203 45.0841 33.2092C45.0723 33.1982 45.0578 33.1905 45.0421 33.1869C45.0263 33.1833 45.0099 33.1839 44.9945 33.1887C44.979 33.1935 44.9651 33.2022 44.9542 33.2141L44.9635 33.211Z" fill="#2D2615"/>
<path d="M41.9342 34.782C41.5561 35.3493 41.6166 36.2011 41.8226 36.8179C42.0452 37.4875 42.4995 38.0563 43.104 38.4224C44.3807 39.1845 46.1098 38.9387 47.0612 37.7824C47.5663 37.1641 47.9288 36.2969 47.7398 35.4977C47.6778 35.2303 47.3215 35.3432 47.2998 35.5689C47.2409 36.1872 47.1293 36.7653 46.7606 37.2816C46.408 37.778 45.8874 38.1305 45.2948 38.274C44.7062 38.4116 44.0878 38.3412 43.5453 38.0748C43.0029 37.8085 42.5698 37.3626 42.32 36.8132C42.188 36.5046 42.1064 36.1769 42.0783 35.8425C42.0664 35.5041 42.084 35.1653 42.131 34.83C42.1403 34.7156 41.9853 34.7047 41.9342 34.782Z" fill="#2D2615"/>
<path d="M51.5482 35.6393C54.2953 34.9638 57.0765 34.4645 59.8748 34.044C62.673 33.6236 65.4526 33.3283 68.2416 33.149C71.0305 32.9697 73.8566 32.914 76.6641 32.9774C79.4717 33.0408 82.2683 33.2247 85.0542 33.5339C87.84 33.8431 90.6227 34.2743 93.376 34.8277L94.4126 35.0395C94.7023 35.0982 94.8154 34.6562 94.5242 34.5943C91.7678 33.9976 88.9711 33.5586 86.1713 33.2294C83.3715 32.9001 80.5392 32.693 77.7131 32.6111C74.887 32.5291 72.067 32.574 69.2502 32.744C66.4334 32.914 63.5933 33.2077 60.7889 33.6344C58.0124 34.0564 55.2746 34.6453 52.5461 35.3023C52.2021 35.3837 51.8597 35.4682 51.5188 35.5558C51.463 35.5697 51.4894 35.6516 51.5436 35.6393H51.5482Z" fill="#2D2615"/>
<path d="M50.9673 38.2419C53.7113 37.956 56.4708 37.7658 59.2256 37.6236C61.9805 37.4814 64.7493 37.4273 67.5103 37.4443C70.2714 37.4613 73.0371 37.5541 75.7935 37.7287C78.5499 37.9034 81.3217 38.1585 84.0735 38.4924C86.8252 38.8263 89.5476 39.2374 92.2652 39.729L93.2785 39.9161C93.5683 39.9717 93.6814 39.525 93.3901 39.4709C90.659 38.9669 87.915 38.5423 85.1581 38.1971C82.4012 37.8519 79.6468 37.5901 76.8951 37.4118C74.1382 37.2305 71.3782 37.1274 68.6151 37.1027C65.8519 37.078 63.077 37.1444 60.2901 37.3021C57.5151 37.4567 54.7478 37.6916 51.9899 38.0333C51.649 38.0765 51.3066 38.1167 50.9657 38.1585C50.9208 38.1585 50.9224 38.2342 50.9657 38.228L50.9673 38.2419Z" fill="#2D2615"/>
<path d="M50.9551 40.5576C53.744 40.6689 56.519 40.7833 59.2971 40.9997C62.0752 41.2161 64.861 41.5129 67.6267 41.8993C70.3924 42.2858 73.1023 42.7403 75.8169 43.2906C78.5314 43.8409 81.2553 44.4731 83.9435 45.1919C86.6317 45.9107 89.2967 46.713 91.9354 47.5987L92.9177 47.9357C93.1857 48.03 93.2926 47.5987 93.0246 47.5075C90.3767 46.6109 87.7055 45.7839 85.0095 45.0466C82.3135 44.3092 79.6176 43.6646 76.8937 43.0989C74.1698 42.5331 71.3995 42.0477 68.6307 41.6505C65.8867 41.2594 63.1272 40.9641 60.3646 40.7493C57.5757 40.5328 54.7868 40.4138 51.9885 40.4092C51.643 40.4092 51.2975 40.4092 50.952 40.4231C50.9358 40.4255 50.9211 40.4337 50.9105 40.446C50.8999 40.4583 50.894 40.4741 50.894 40.4903C50.894 40.5066 50.8999 40.5223 50.9105 40.5347C50.9211 40.547 50.9358 40.5551 50.952 40.5576H50.9551Z" fill="#2D2615"/>
<path d="M38.366 37.0235C36.0781 36.0398 33.7156 35.2386 31.3007 34.6275C28.8822 34.0134 26.4234 33.5691 23.9426 33.2981C18.9801 32.7513 13.966 32.8818 9.03885 33.6861C6.56331 34.0882 4.11868 34.661 1.72255 35.4004C1.42816 35.4911 1.13378 35.5854 0.839389 35.6833C0.580638 35.7683 0.703041 36.1748 0.961792 36.0883C3.3128 35.2872 5.71852 34.6559 8.16034 34.1993C10.5988 33.747 13.0656 33.4629 15.5433 33.3491C20.511 33.119 25.4869 33.5652 30.3339 34.6754C32.7507 35.2345 35.1309 35.9407 37.4612 36.7901C37.7514 36.8931 38.0401 37.0003 38.3273 37.1116C38.3769 37.1301 38.411 37.0467 38.3614 37.025L38.366 37.0235Z" fill="#2D2615"/>
<path d="M37.1062 38.8914C34.7232 38.8337 32.3397 38.8455 29.9557 38.9269C27.5789 39.0073 25.2021 39.1526 22.8393 39.4401C18.5923 39.9564 14.3733 40.9164 10.444 42.6539C8.30006 43.5874 6.28449 44.7905 4.44626 46.2339C4.29132 46.353 4.44626 46.6142 4.6012 46.4952C7.92933 44.0219 11.7626 42.3061 15.7461 41.1993C20.0984 39.9889 24.6149 39.5066 29.1159 39.2886C31.7747 39.1603 34.4366 39.1341 37.0969 39.0243C37.1146 39.0243 37.1315 39.0173 37.144 39.0048C37.1565 38.9924 37.1635 38.9755 37.1635 38.9578C37.1635 38.9402 37.1565 38.9233 37.144 38.9108C37.1315 38.8984 37.1146 38.8914 37.0969 38.8914H37.1062Z" fill="#2D2615"/>
<path d="M36.6879 41.3106C34.2455 41.306 31.8069 41.501 29.3964 41.8934C26.9883 42.2669 24.6075 42.7977 22.2691 43.4825C19.936 44.1676 17.6495 45.002 15.4239 45.9805C13.1921 46.9591 11.027 48.0828 8.94269 49.3442C6.85296 50.6066 4.85168 52.0093 2.95269 53.5426C2.72182 53.7296 2.48786 53.9182 2.2632 54.1083C2.08037 54.2629 2.34842 54.5118 2.5297 54.3619C4.38918 52.8228 6.34769 51.4069 8.39265 50.1233C14.5592 46.2659 21.4125 43.6292 28.5783 42.3571C30.9603 41.9318 33.3665 41.6556 35.7831 41.5301C36.0929 41.5131 36.3904 41.4915 36.6941 41.4729C36.7102 41.4673 36.7241 41.4568 36.7339 41.443C36.7437 41.4292 36.749 41.4126 36.749 41.3956C36.749 41.3787 36.7437 41.3621 36.7339 41.3483C36.7241 41.3344 36.7102 41.324 36.6941 41.3184L36.6879 41.3106Z" fill="#2D2615"/>
<path d="M56.2039 32.514C56.2144 32.512 56.224 32.5065 56.2308 32.4982C56.2377 32.49 56.2415 32.4796 56.2415 32.4689C56.2415 32.4582 56.2377 32.4478 56.2308 32.4396C56.224 32.4314 56.2144 32.4258 56.2039 32.4238C56.1933 32.4258 56.1838 32.4314 56.1769 32.4396C56.17 32.4478 56.1663 32.4582 56.1663 32.4689C56.1663 32.4796 56.17 32.49 56.1769 32.4982C56.1838 32.5065 56.1933 32.512 56.2039 32.514Z" fill="white"/>
<path d="M56.3501 32.9382C56.4313 32.9406 56.5117 32.9208 56.5825 32.881C56.6565 32.8546 56.7226 32.8099 56.7746 32.7511C56.8308 32.6972 56.872 32.6295 56.8939 32.5548C56.9309 32.4823 56.9469 32.4009 56.9404 32.3198L56.9156 32.1653C56.8858 32.0648 56.8296 31.9741 56.7529 31.9025L56.629 31.8113C56.5342 31.7591 56.4273 31.7329 56.3191 31.7355C56.2383 31.7348 56.1588 31.755 56.0882 31.7943C56.0144 31.8202 55.9483 31.8643 55.8961 31.9226C55.791 32.0421 55.7317 32.1949 55.7288 32.3538L55.7551 32.5084C55.7831 32.6079 55.8365 32.6984 55.91 32.7712L56.034 32.8624C56.1285 32.9149 56.2357 32.9406 56.3439 32.9366L56.3501 32.9382Z" fill="white"/>
<path d="M32.1931 32.6614L32.1714 32.68L32.1002 32.7774L32.0552 32.8902C32.0382 32.9519 32.0382 33.0171 32.0552 33.0788C32.0568 33.1204 32.0691 33.1608 32.0909 33.1963C32.1031 33.2355 32.1249 33.2711 32.1544 33.2999C32.1761 33.3339 32.2059 33.362 32.2412 33.3818C32.2705 33.41 32.3069 33.4297 32.3465 33.439C32.403 33.4675 32.4662 33.4803 32.5294 33.4761L32.6549 33.456L32.7664 33.405L32.8594 33.3292L32.9307 33.2318L32.9756 33.119C32.9926 33.0573 32.9926 32.9921 32.9756 32.9304C32.974 32.8888 32.9617 32.8484 32.94 32.8129C32.9207 32.7534 32.886 32.7 32.8393 32.6583L32.8176 32.6413C32.778 32.6 32.7283 32.5697 32.6735 32.5532C32.6206 32.5273 32.5618 32.5155 32.503 32.5192L32.3853 32.5378C32.3117 32.5596 32.2454 32.6007 32.1931 32.6568V32.6614Z" fill="white"/>
<path d="M30.5708 12.3358C28.957 10.9701 27.06 9.97819 25.0161 9.43122C24.7713 9.3663 24.5265 9.3091 24.2786 9.25964C24.1341 9.22653 23.9824 9.25054 23.8553 9.32663C23.7282 9.40271 23.6356 9.52497 23.5969 9.66773C23.5736 9.7512 23.5535 9.83468 23.5318 9.91815C23.0437 10.9121 22.8346 12.0575 22.7153 13.1458C22.5939 14.3273 22.5815 15.5174 22.6781 16.7011C22.6889 16.8557 22.7044 17.0103 22.7184 17.1649C22.7369 17.6673 22.7695 18.1697 22.8206 18.6705C22.878 19.2227 22.9717 19.7706 23.1011 20.3106C23.1878 20.9444 23.2699 21.6508 23.9889 21.8672C24.3421 21.9739 24.6985 21.8471 25.0239 21.7126C25.3059 21.5967 25.5863 21.473 25.8652 21.3463C27.8868 20.423 29.7376 19.1656 31.3393 17.6271C31.7256 17.2551 32.0964 16.8671 32.4517 16.4631C32.6656 16.2188 32.9166 15.9669 33.0018 15.6454C33.1071 15.2574 32.9367 14.9343 32.7136 14.6313C32.0906 13.7861 31.3715 13.0158 30.5708 12.3358Z" fill="#F5B100"/>
<path d="M66.903 13.0999C66.6566 12.2637 66.1701 11.4537 65.7626 10.6854C65.7309 10.6352 65.6814 10.5988 65.624 10.5834C65.5666 10.5679 65.5055 10.5745 65.4527 10.6019C62.9958 11.8341 60.807 13.5382 59.0118 15.6165C58.9875 15.6458 58.9702 15.6803 58.9613 15.7173C58.9525 15.7543 58.9523 15.7929 58.9609 15.83C58.9694 15.8671 58.9864 15.9017 59.0106 15.9312C59.0348 15.9607 59.0654 15.9842 59.1002 15.9999C59.0947 16.1426 59.1397 16.2826 59.2272 16.3956C59.6166 17.006 60.0495 17.5877 60.5225 18.1362C61.4628 19.2295 62.5493 20.1886 63.7515 20.9866C64.434 21.4396 65.1515 21.8377 65.8974 22.1769C65.9503 22.2032 66.0111 22.2093 66.0682 22.1939C66.1254 22.1785 66.1748 22.1428 66.2073 22.0934C67.7009 19.4455 67.7691 16.0509 66.903 13.0999Z" fill="#F5B100"/>
<path d="M28.4265 15.7879C28.3986 15.7678 28.3676 15.7508 28.3397 15.7338C28.349 15.7338 28.287 15.6905 28.2777 15.6812C28.2127 15.6255 28.1476 15.5714 28.081 15.5266C27.926 15.4029 27.7711 15.2855 27.6022 15.1742C27.3139 14.9812 27.0102 14.8121 26.6942 14.6687C26.6597 14.6532 26.6232 14.6423 26.5858 14.6362C26.5286 14.5994 26.4617 14.5805 26.3937 14.5821C26.2997 14.5854 26.2107 14.6252 26.1458 14.6931C26.0809 14.761 26.0453 14.8516 26.0466 14.9454C26.0234 15.1664 26.0311 15.3937 26.028 15.6163C26.028 15.6441 26.028 15.6719 26.028 15.6997C26.028 15.8543 26.0125 16.0089 26.0063 16.1728C25.9916 16.5814 25.9978 16.9906 26.0249 17.3986C26.028 17.4381 26.0449 17.4753 26.0726 17.5037C26.1004 17.5322 26.1372 17.55 26.1767 17.5543C26.2162 17.5585 26.256 17.5488 26.2891 17.5268C26.3222 17.5049 26.3466 17.4721 26.358 17.4341C26.358 17.4063 26.3704 17.3769 26.3766 17.3476C26.4325 17.3662 26.4914 17.3741 26.5502 17.3708C26.584 17.3687 26.6177 17.3641 26.6509 17.3568C26.7438 17.3855 26.8429 17.3888 26.9375 17.3661C27.2209 17.2736 27.4907 17.1442 27.7401 16.9812L28.4466 16.5886C28.5155 16.5469 28.572 16.4878 28.6104 16.4171C28.6488 16.3465 28.6677 16.267 28.6651 16.1867C28.6623 16.1055 28.639 16.0263 28.5973 15.9566C28.5555 15.8869 28.4968 15.8288 28.4265 15.7879Z" fill="#F3DA99"/>
<path d="M64.9461 16.8506C64.9216 16.5675 64.8745 16.2868 64.8051 16.0112C64.7623 15.6723 64.6742 15.3406 64.5432 15.025C64.5234 14.9682 64.483 14.9209 64.4299 14.8923C64.3769 14.8637 64.3151 14.8559 64.2566 14.8704C64.2165 14.8841 64.1803 14.9073 64.1512 14.938C64.122 14.9687 64.1008 15.006 64.0893 15.0467C63.7422 15.0853 63.3564 15.4547 63.1519 15.665C62.8745 15.9525 62.6533 16.289 62.4996 16.6574H62.4887C62.4497 16.6419 62.4076 16.6352 62.3657 16.6378C62.3237 16.6405 62.2829 16.6523 62.246 16.6725C62.2092 16.6927 62.1773 16.7208 62.1526 16.7548C62.128 16.7888 62.1111 16.8278 62.1033 16.869C62.0955 16.9102 62.097 16.9526 62.1075 16.9932C62.1181 17.0338 62.1375 17.0716 62.1644 17.1038C62.1914 17.136 62.2251 17.1619 62.2632 17.1796C62.3013 17.1973 62.3429 17.2064 62.3849 17.2061C62.4113 17.263 62.4584 17.3078 62.5166 17.3314L62.6406 17.4427C62.828 17.6158 63.0217 17.7827 63.2185 17.945C63.6065 18.261 64.0115 18.5557 64.4317 18.8277C64.4625 18.8452 64.4969 18.8555 64.5323 18.8578C64.5677 18.8601 64.6032 18.8543 64.636 18.8409C64.6689 18.8275 64.6982 18.8068 64.7219 18.7804C64.7455 18.754 64.7628 18.7226 64.7725 18.6886C64.9405 18.0913 64.9993 17.4687 64.9461 16.8506Z" fill="#F3DA99"/>
<path d="M46.728 31.8094L46.6955 31.7877C46.6569 31.7635 46.6138 31.7474 46.5687 31.7405C46.5237 31.7336 46.4777 31.736 46.4336 31.7475C46.381 31.7211 46.3253 31.7014 46.2678 31.6888C46.0587 31.6424 45.8464 31.613 45.6357 31.5759L44.3698 31.3502C44.3294 31.3437 44.288 31.3462 44.2487 31.3574C44.2093 31.3686 44.1729 31.3883 44.142 31.4152C43.9305 31.4639 43.7341 31.5636 43.5701 31.7057C43.4062 31.8477 43.2796 32.0277 43.2016 32.2298C43.1217 32.3963 43.1073 32.5866 43.1613 32.7631C43.2821 33.1202 43.8322 33.1356 43.922 32.7446C43.9344 32.6905 43.9422 32.6348 43.9546 32.5807C43.9546 32.5683 43.9964 32.4632 43.9716 32.5204C44.0006 32.4487 44.0444 32.3839 44.1002 32.3303C44.1848 32.7172 44.3951 33.0655 44.6983 33.3211C44.7708 33.3884 44.8668 33.4248 44.9657 33.4225C45.0647 33.4202 45.1589 33.3794 45.2282 33.3088C45.3879 33.1264 45.4951 32.9041 45.5381 32.6657C45.5489 32.6007 45.5489 32.5344 45.5381 32.4694C45.6749 32.5156 45.798 32.5953 45.896 32.7013C45.972 32.7515 46.0612 32.7782 46.1524 32.7782C46.2436 32.7782 46.3328 32.7515 46.4088 32.7013C46.4306 32.7086 46.4529 32.7143 46.4754 32.7183C46.5645 32.738 46.6578 32.7224 46.7355 32.6748C46.8133 32.6272 46.8695 32.5514 46.8922 32.4632C46.9111 32.4047 46.9215 32.3438 46.9232 32.2824C46.9455 32.1931 46.9386 32.099 46.9035 32.0139C46.8684 31.9288 46.8069 31.8571 46.728 31.8094Z" fill="#C89D64"/>
<path d="M54.751 3.31317C54.7505 2.77622 54.5632 2.25609 54.2211 1.84157C53.4619 0.881622 52.2068 0.59101 51.0355 0.65748C49.8099 0.727041 48.5239 1.03775 47.4719 1.6808C46.4632 2.29912 45.6792 3.26525 45.4576 4.42615C44.3328 4.25457 43.1939 4.65957 42.3356 5.40001C42.3212 5.40654 42.3076 5.41485 42.2953 5.42474C42.2782 5.43711 42.2659 5.45102 42.2504 5.46339C42.2411 5.46339 42.2333 5.48194 42.2256 5.48967C41.5373 6.07101 41.0837 6.88166 40.9489 7.77127C40.864 8.12621 40.8147 8.48868 40.8017 8.85334C40.7751 9.62611 40.8879 10.3974 41.1348 11.1303C41.1461 11.1713 41.1688 11.2083 41.2002 11.237C41.2316 11.2657 41.2706 11.285 41.3125 11.2926C41.3545 11.3002 41.3977 11.2958 41.4373 11.2799C41.4768 11.2641 41.5111 11.2374 41.5361 11.203C41.7139 11.3486 41.9282 11.4432 42.1558 11.4766C42.5278 11.5116 42.9025 11.5049 43.273 11.4565C43.6541 11.4348 44.0353 11.4214 44.4164 11.4163C45.1787 11.4055 45.9426 11.4317 46.7018 11.4936C48.2268 11.6169 49.7366 11.885 51.2106 12.2943C51.8737 12.4782 52.6267 12.7905 53.2604 12.3546C53.507 12.1699 53.7142 11.9381 53.8701 11.6727C54.026 11.4073 54.1274 11.1136 54.1684 10.8088C54.2565 10.2166 54.1264 9.61269 53.8022 9.10898C53.4779 8.60527 52.9816 8.23598 52.4052 8.06961C53.1082 7.14678 53.7107 6.15185 54.2025 5.10167C54.4659 4.539 54.7386 3.94541 54.751 3.31317Z" fill="#8EA5F5"/>
<path d="M39.2446 20.7788C39.0292 19.4185 39.2214 18.0072 38.9611 16.6407C38.8278 15.9405 38.6651 15.2495 38.5489 14.5523C38.4095 13.7145 38.3041 13.1008 37.7215 12.4423C37.0011 11.6261 35.3664 12.0821 35.2053 13.1704C34.9992 14.5616 35.9041 15.9714 36.4061 17.2528C36.9174 18.5606 37.8625 19.6442 38.4281 20.9102C38.597 21.2905 39.3267 21.2905 39.2446 20.7788Z" fill="#F3DA99"/>
<path d="M43.5627 22.1053C43.7177 21.3062 44.0818 20.6105 44.2879 19.8284C44.4908 19.0581 44.6486 18.2766 44.7604 17.488C44.9866 15.868 45.2857 14.1908 45.2469 12.5523C45.2346 12.1574 45.0796 11.7804 44.8106 11.4906C44.5415 11.2008 44.1764 11.0179 43.7828 10.9755C43.0514 10.906 42.1125 11.3744 42.0087 12.1936C41.8011 13.843 41.8785 15.5187 41.939 17.1758C41.9684 17.978 42.0629 18.7973 42.1729 19.5934C42.2876 20.4173 42.5897 21.1732 42.6672 22.0049C42.7137 22.4856 43.4574 22.6325 43.5627 22.1038V22.1053Z" fill="#F3DA99"/>
<path d="M48.6525 20.5454C50.312 18.7106 51.4632 16.6809 52.4687 14.4364C52.87 13.5445 52.5973 12.5119 51.6259 12.1316C50.6311 11.7421 49.7883 12.3326 49.435 13.2477C48.5518 15.5401 47.9398 17.7584 47.8066 20.2193C47.7833 20.6475 48.3798 20.8453 48.6525 20.5454Z" fill="#F3DA99"/>
<path d="M28.4203 36.0499C26.4774 35.2492 24.2927 35.2198 22.2227 35.3249C20.0024 35.4362 17.7496 35.6434 15.5695 36.0978C14.6244 36.2926 14.1147 37.4581 14.375 38.3222C14.6662 39.2868 15.6641 39.7444 16.6061 39.514C18.5769 39.0302 20.5261 38.5108 22.5295 38.1661C24.4755 37.8322 26.5068 37.6313 28.3398 36.8661C28.6496 36.7378 28.8185 36.2138 28.425 36.053L28.4203 36.0499Z" fill="#F3DA99"/>
<path d="M27.923 43.5821C26.8198 43.3982 25.7368 43.1679 24.6197 43.0797C23.4699 42.9939 22.316 42.98 21.1645 43.038C18.8219 43.1436 16.4909 43.4288 14.1921 43.8913C13.3028 44.0691 12.8271 45.1728 13.0704 45.9797C13.3431 46.8824 14.282 47.3214 15.1652 47.0988C17.2398 46.5794 19.3393 46.1002 21.4465 45.7292C22.4691 45.5499 23.4963 45.4031 24.5174 45.2129C25.6175 45.0089 26.7083 44.7353 27.8145 44.5637C28.3135 44.4849 28.535 43.6826 27.923 43.5821Z" fill="#F3DA99"/>
<path d="M60.3271 36.0416C61.3668 36.1035 62.3832 36.4111 63.4074 36.5889C64.4021 36.762 65.3885 36.9733 66.3667 37.2226C68.3453 37.725 70.3347 38.2089 72.2916 38.7854C74.7103 39.4965 75.7003 35.5887 73.2414 34.989C71.0955 34.4649 68.9155 34.1449 66.7014 34.2006C65.6333 34.2284 64.5673 34.299 63.5034 34.4124C62.4188 34.5283 61.3838 34.8622 60.3008 35.0307C59.664 35.1281 59.6593 36.0061 60.3271 36.0447V36.0416Z" fill="#F3DA99"/>
<path d="M60.5226 43.5775C61.4228 44.2391 62.5755 44.505 63.6338 44.8342C64.7447 45.1743 65.8587 45.4896 66.982 45.788C69.2736 46.3955 71.6473 46.7232 73.9838 47.1112C75.0033 47.2812 76.043 46.7773 76.3079 45.72C76.5388 44.7925 75.9423 43.5558 74.9134 43.4013C72.5026 43.0488 70.0839 42.6562 67.6514 42.4861C66.5048 42.4058 65.3567 42.3764 64.2086 42.3609C63.0915 42.3455 61.8365 42.2064 60.7643 42.5727C60.3831 42.701 60.1445 43.2946 60.5241 43.5775H60.5226Z" fill="#F3DA99"/>
<path d="M12.731 46.5519C13.0518 44.7078 13.4345 42.8837 13.9148 41.0767C14.3796 39.3036 14.8739 37.5306 15.4642 35.7962C16.669 32.3349 18.3056 29.0386 20.3355 25.985C23.8992 20.618 29.0262 16.0733 35.1215 13.8195C41.2169 11.5657 47.9816 11.81 54.0599 13.9648C60.1816 16.1289 65.4636 20.3212 69.1992 25.6047C73.0216 31.015 75.2682 37.5785 75.7625 44.1667C75.7919 44.5702 75.8291 44.9721 75.8632 45.3756C75.8973 45.779 75.9934 46.1809 75.998 46.5813C75.998 46.8997 76.4969 46.8904 76.4938 46.5689C76.4938 46.15 76.5682 45.728 76.5713 45.3075C76.5744 44.8871 76.5589 44.4326 76.5294 43.9967C76.4706 43.1589 76.3854 42.3211 76.2784 41.4863C76.0652 39.7935 75.7417 38.1164 75.3101 36.4655C74.4408 33.1723 73.1416 30.0072 71.4458 27.0516C69.7616 24.1146 67.6684 21.3646 65.1506 19.0783C62.6617 16.8203 59.8232 14.9787 56.7451 13.6247C53.6542 12.259 50.3648 11.3938 47.0008 11.0618C40.2636 10.3596 33.505 12.1774 28.0345 16.1629C25.2772 18.1395 22.8378 20.5237 20.8004 23.2335C18.6033 26.1693 16.8392 29.404 15.5618 32.8391C14.9051 34.607 14.348 36.4102 13.8931 38.2401C13.4452 40.1033 13.1166 41.993 12.9092 43.8978C12.8008 44.7789 12.714 45.6626 12.6489 46.5488C12.6489 46.5967 12.7233 46.6045 12.731 46.5581V46.5519Z" fill="#2D2615"/>
<path d="M23.439 20.9389C23.4116 20.5613 23.3514 20.1869 23.2593 19.8197C23.188 19.4425 23.1276 19.0653 23.0796 18.6851C22.982 17.9338 22.8937 17.181 22.8456 16.4236C22.7449 14.8778 22.6907 13.3474 22.9804 11.8202C23.1462 10.973 23.3756 10.1395 23.6668 9.32677L23.594 9.3716C24.2264 9.5248 24.8432 9.73646 25.4362 10.0038C26.0312 10.2713 26.6246 10.5294 27.1963 10.8478C28.3218 11.4506 29.3821 12.1676 30.3602 12.9872C30.919 13.4673 31.4454 13.9837 31.936 14.533C32.0091 14.6012 32.1061 14.6379 32.2061 14.6353C32.3061 14.6327 32.4011 14.591 32.4705 14.5191C32.5377 14.4457 32.5738 14.3491 32.5712 14.2497C32.5686 14.1503 32.5275 14.0557 32.4566 13.9858C30.7048 11.947 28.4023 10.4537 25.8236 9.68385C25.0998 9.49208 24.3644 9.34698 23.6219 9.24948C23.6065 9.24612 23.5904 9.24872 23.5769 9.25676C23.5634 9.2648 23.5534 9.27767 23.5491 9.29276C23.289 10.0312 23.0748 10.7849 22.9076 11.5496C22.7403 12.3133 22.5698 13.0707 22.4691 13.8452C22.3448 14.6123 22.2723 15.387 22.2522 16.1639C22.2557 16.9452 22.32 17.7251 22.4443 18.4965C22.514 18.937 22.6163 19.3714 22.7279 19.8027C22.8122 20.2291 22.9594 20.6406 23.1648 21.0239C23.1841 21.0475 23.2099 21.065 23.2391 21.074C23.2682 21.0831 23.2994 21.0833 23.3287 21.0747C23.358 21.0661 23.3841 21.0491 23.4038 21.0257C23.4234 21.0024 23.4357 20.9738 23.439 20.9435V20.9389Z" fill="#2D2615"/>
<path d="M25.969 18.5149C25.9884 18.3503 25.9852 18.1839 25.9597 18.0202C25.9489 17.8487 25.9272 17.6771 25.9133 17.5039C25.8823 17.1463 25.8652 16.7857 25.8621 16.4219C25.8621 16.0741 25.8621 15.7263 25.8916 15.38C25.9086 15.1249 25.8916 14.8312 26.0217 14.5963C26.1767 14.2964 26.5051 14.4231 26.7453 14.5453C27.0552 14.6998 27.365 14.8807 27.6749 15.0492C27.9848 15.2177 28.2947 15.3924 28.6139 15.5655L29.0787 15.8252L29.3452 15.9798C29.4335 16.0277 29.573 16.0756 29.621 16.1715C29.6443 16.2093 29.6773 16.2403 29.7164 16.2614C29.7556 16.2826 29.7997 16.2931 29.8442 16.2919C29.8887 16.2907 29.9321 16.2778 29.9701 16.2546C30.008 16.2314 30.0392 16.1986 30.0605 16.1596C30.0818 16.1206 30.0924 16.0766 30.0913 16.0322C30.0902 15.9878 30.0775 15.9445 30.0543 15.9065C30.0311 15.8686 29.9984 15.8374 29.9593 15.8161C29.9202 15.7947 29.8762 15.784 29.8317 15.785C29.6954 15.7958 29.5079 15.6412 29.3932 15.5779L28.9284 15.3182C28.6495 15.1636 28.3691 15.009 28.0933 14.8544L27.2612 14.3768C27.016 14.2081 26.7442 14.0817 26.4571 14.0027C25.9411 13.9084 25.608 14.2902 25.5274 14.7601C25.4252 15.3274 25.4748 15.938 25.5135 16.5084C25.5367 16.8562 25.5739 17.201 25.6235 17.5457C25.6468 17.7173 25.6715 17.8888 25.7118 18.0573C25.7376 18.2194 25.79 18.376 25.8668 18.5211C25.8727 18.5305 25.8812 18.5379 25.8914 18.5426C25.9015 18.5472 25.9127 18.5488 25.9237 18.5471C25.9347 18.5455 25.945 18.5407 25.9533 18.5333C25.9617 18.526 25.9677 18.5163 25.9706 18.5056L25.969 18.5149Z" fill="#2D2615"/>
<path d="M59.2089 15.6245C60.5739 13.9597 62.097 12.4649 63.9625 11.3704C64.2243 11.2159 64.4924 11.0706 64.7635 10.933C65.0347 10.7954 65.2779 10.5728 65.5568 10.4306L65.2469 10.3981C66.2881 11.5529 66.911 13.0538 67.2317 14.5625C67.5591 16.0664 67.5427 17.6245 67.1837 19.1211C66.9726 19.9628 66.6302 20.7662 66.1688 21.5016C65.8853 21.9437 66.6693 22.3627 66.8723 21.8896C67.2187 21.137 67.4826 20.3492 67.6593 19.54C67.8253 18.7565 67.9223 17.9599 67.9491 17.1595C67.9869 15.5361 67.6697 13.9241 67.0194 12.4355C66.6432 11.6035 66.1827 10.8121 65.6451 10.0735C65.6142 10.025 65.5684 9.98774 65.5144 9.96739C65.4605 9.94704 65.4015 9.94469 65.3461 9.96067C65.0827 10.0596 64.7976 10.089 64.5404 10.2126C64.2832 10.3363 64.0384 10.477 63.7951 10.6192C63.3143 10.8993 62.8489 11.2048 62.4007 11.5343C61.4968 12.1983 60.6658 12.9559 59.9216 13.7943C59.506 14.2745 59.1357 14.792 58.8153 15.3401C58.6743 15.5766 59.0323 15.8502 59.2135 15.6307L59.2089 15.6245Z" fill="#2D2615"/>
<path d="M61.8799 17.0565C62.1109 16.8407 62.3263 16.6087 62.5245 16.3625C62.7398 16.129 62.9676 15.8987 63.1985 15.6854C63.4165 15.4639 63.6569 15.2655 63.9158 15.0934C64.0112 15.0257 64.1257 14.99 64.2428 14.9913C64.3264 15.0045 64.4116 15.0045 64.4953 14.9913C64.5362 14.9818 64.5754 14.9662 64.6115 14.945C64.6549 14.9223 64.6425 14.9254 64.5743 14.9542L64.4194 14.897C64.6735 15.0887 64.7293 15.4273 64.7742 15.7225C64.842 16.1313 64.8777 16.5448 64.8811 16.9591C64.8811 17.7429 64.8253 18.6193 64.4721 19.3304C64.3032 19.6658 64.8749 19.8421 64.9245 19.5082C65.0206 18.8543 65.1802 18.2174 65.2344 17.5558C65.2794 16.9098 65.2482 16.2608 65.1414 15.622C65.1096 15.3572 65.032 15.0999 64.9121 14.8615C64.8847 14.8072 64.8526 14.7555 64.816 14.7069C64.8034 14.6848 64.7872 14.6649 64.768 14.6482C64.7122 14.6188 64.768 14.693 64.768 14.6698C64.7591 14.5839 64.725 14.5025 64.6698 14.436C64.6147 14.3694 64.541 14.3206 64.4581 14.2957C63.8105 14.0762 63.2093 14.7718 62.8328 15.1954C62.597 15.4573 62.3795 15.7352 62.182 16.027C61.9666 16.306 61.8005 16.6197 61.6909 16.9545C61.6863 16.9775 61.6891 17.0013 61.699 17.0225C61.7089 17.0437 61.7254 17.0612 61.746 17.0725C61.7666 17.0837 61.7902 17.088 61.8135 17.0849C61.8368 17.0818 61.8584 17.0713 61.8753 17.055L61.8799 17.0565Z" fill="#2D2615"/>
<path d="M41.2061 11.2224C41.1887 11.0333 41.155 10.8461 41.1054 10.6628C41.0293 10.462 40.9702 10.2552 40.9288 10.0445C40.8506 9.67187 40.8116 9.29212 40.8126 8.91142C40.8046 8.53686 40.8447 8.16283 40.9319 7.79844C41.0183 7.43444 41.1505 7.08281 41.3254 6.75193C41.4813 6.42111 41.6872 6.11613 41.9359 5.84763C42.1989 5.58758 42.4966 5.36495 42.8206 5.18603C43.4576 4.83107 44.1749 4.64431 44.9046 4.64345C45.6359 4.64345 46.4617 4.83049 47.0071 5.34679C47.4905 5.80281 47.6765 6.79212 46.9095 7.08428C46.2278 7.34243 45.515 6.91733 45.2702 6.26964C44.9882 5.50601 45.2083 4.63727 45.5708 3.93857C46.2944 2.54734 47.7276 1.68633 49.1871 1.23959C50.5692 0.816041 52.5199 0.424952 53.651 1.56421C54.0844 2.03881 54.3481 2.64325 54.4009 3.28314C54.4862 4.00682 54.3615 4.73973 54.0414 5.39471C53.6294 6.16151 53.0862 6.8505 52.4362 7.43054C52.1093 7.7397 51.7669 8.03185 51.4229 8.32247C51.1363 8.56516 50.7892 8.92997 50.3864 8.94079C50.2237 8.9426 50.0654 8.88796 49.9386 8.78621C49.7279 8.60689 49.8828 8.34874 50.0378 8.19416C50.3175 7.95124 50.6727 7.81202 51.0433 7.79998C51.7239 7.74639 52.3984 7.96055 52.9228 8.39666C53.1716 8.60184 53.3754 8.85597 53.5215 9.1432C53.6676 9.43043 53.7528 9.7446 53.7718 10.0661C53.808 10.3845 53.7763 10.7069 53.6789 11.0122C53.5668 11.3241 53.3941 11.611 53.1707 11.8562C52.9611 12.0901 52.7031 12.2757 52.4146 12.4003C52.338 12.4265 52.2742 12.4805 52.2357 12.5515C52.1973 12.6226 52.187 12.7054 52.2069 12.7837C52.2315 12.8617 52.2861 12.9268 52.3587 12.9647C52.4313 13.0027 52.516 13.0104 52.5943 12.9862C52.9829 12.8223 53.3332 12.5797 53.6228 12.2737C53.9125 11.9677 54.1352 11.6049 54.2769 11.2085C54.4358 10.822 54.522 10.4096 54.531 9.99193C54.5181 9.55537 54.3927 9.1295 54.1669 8.75529C53.9441 8.40247 53.6486 8.10102 53.3 7.871C52.9513 7.64099 52.5576 7.48767 52.145 7.42126C51.3703 7.28832 50.4406 7.42126 49.8704 7.9963C49.6008 8.26682 49.4722 8.70583 49.7 9.04436C49.9278 9.38289 50.4638 9.41689 50.8311 9.26386C51.2835 9.07527 51.6615 8.69655 52.0318 8.38739C52.4269 8.05659 52.8158 7.71806 53.18 7.35479C53.5432 6.99841 53.8769 6.61328 54.1778 6.20317C54.4521 5.81229 54.6823 5.39238 54.8642 4.95107C55.2188 4.13548 55.3014 3.22779 55.0997 2.36185C55.0006 1.92009 54.8013 1.50687 54.5171 1.15396C54.2329 0.801039 53.8714 0.517807 53.4604 0.326021C52.4936 -0.102167 51.4198 -0.052701 50.4065 0.155983C49.4914 0.355654 48.6142 0.700082 47.8082 1.17621C47.0155 1.61504 46.317 2.20484 45.7521 2.91215C45.2114 3.62322 44.8008 4.4425 44.7434 5.34525C44.6861 6.248 45.0704 7.11674 45.9303 7.49082C46.7158 7.83245 47.6734 7.49082 47.9027 6.62981C48.1614 5.64668 47.4936 4.76248 46.6446 4.34511C44.9619 3.51811 42.8748 3.92002 41.4711 5.10256C40.7075 5.70743 40.1762 6.55632 39.9666 7.50628C39.7451 8.48032 39.8575 9.50035 40.2858 10.4031C40.3804 10.592 40.4887 10.7739 40.6096 10.9472C40.6426 11.0076 40.688 11.0603 40.7429 11.1018C40.9365 11.2332 40.6778 11.0292 40.8296 11.1482C40.9123 11.2105 40.9988 11.2678 41.0884 11.3198C41.1519 11.3584 41.2154 11.2904 41.203 11.2286L41.2061 11.2224Z" fill="#2D2615"/>
<path d="M35.1634 32.1549V32.1456L35.3184 32.4749V32.4548C35.272 32.2697 35.1774 32.1001 35.0441 31.9632C34.9372 31.8073 34.7922 31.6811 34.6227 31.5969L34.2679 31.4577C34.0126 31.3951 33.7452 31.4015 33.4932 31.4763C33.3577 31.5115 33.2296 31.5706 33.1151 31.651C32.9039 31.7815 32.7299 31.9641 32.61 32.1812C32.5103 32.3442 32.4568 32.5312 32.4551 32.7222C32.4159 32.9134 32.4293 33.1115 32.4938 33.2957C32.5668 33.535 32.7008 33.7512 32.8827 33.9233L32.8997 33.9372L33.2019 34.1583C33.3188 34.2163 33.4407 34.2639 33.566 34.3005C33.7567 34.3565 33.959 34.3602 34.1517 34.3113C34.3455 34.2988 34.5324 34.2342 34.6924 34.1242L34.9837 33.8893C35.1593 33.7057 35.2842 33.4799 35.3463 33.2339V33.2153L35.0023 33.8336L35.0116 33.8213L35.2208 33.5384C35.3175 33.3831 35.371 33.2049 35.3757 33.0221C35.4052 32.9013 35.402 32.7749 35.3664 32.6557C35.3438 32.4739 35.2739 32.3012 35.1634 32.1549Z" fill="#2D2615"/>
<path d="M55.1585 33.4723C56.8024 33.4723 56.7389 30.9248 55.0949 30.9248C53.451 30.9248 53.5146 33.4723 55.1585 33.4723Z" fill="#2D2615"/>
<path d="M12.3639 47.1135C16.1801 48.7444 20.1187 50.2577 24.1099 51.4031C28.1647 52.5656 32.3946 53.1916 36.5904 53.5673C40.8196 53.9601 45.0753 53.9798 49.308 53.626C53.4914 53.2597 57.6949 52.4481 61.776 51.4403C66.3576 50.3087 70.9175 48.9098 75.166 46.843C75.5286 46.6668 75.2543 46.0701 74.8747 46.2C70.9687 47.5804 67.0425 48.9469 62.9954 49.8697C58.8972 50.7972 54.796 51.315 50.611 51.6165C42.3991 52.2101 34.1393 51.9256 26.0297 50.42C23.7148 49.9903 21.4171 49.559 19.1209 49.0504C16.8246 48.5419 14.6167 47.7983 12.4166 46.9791C12.3391 46.9512 12.288 47.0811 12.3639 47.1135Z" fill="#2D2615"/>
<path d="M46.5066 31.6434C46.134 31.6003 45.7672 31.5169 45.4127 31.3945C45.0852 31.2928 44.7492 31.2208 44.4087 31.1796C43.8091 31.1209 43.1955 31.2785 42.8298 31.7856C42.52 32.2122 42.489 32.8321 42.9073 33.2015C43.0033 33.2909 43.1161 33.3603 43.2393 33.4058C43.3624 33.4513 43.4933 33.472 43.6245 33.4666C43.7557 33.4612 43.8845 33.4299 44.0034 33.3745C44.1224 33.319 44.2291 33.2406 44.3174 33.1437C44.4058 33.0467 44.4739 32.9333 44.5179 32.8099C44.562 32.6865 44.581 32.5556 44.5739 32.4248C44.5668 32.294 44.5338 32.1659 44.4767 32.0479C44.4196 31.93 44.3396 31.8245 44.2413 31.7376C44.216 31.7143 44.1858 31.6969 44.1528 31.6868C44.1198 31.6767 44.085 31.6741 44.0509 31.6793C44.0168 31.6845 43.9843 31.6973 43.9558 31.7168C43.9274 31.7363 43.9037 31.7619 43.8865 31.7918C43.5193 32.4796 43.9191 33.4921 44.7356 33.6003C45.5521 33.7085 46.2323 32.7471 45.8372 32.0236C45.8177 31.993 45.7906 31.968 45.7585 31.951C45.7264 31.934 45.6904 31.9255 45.6541 31.9264C45.6178 31.9274 45.5823 31.9377 45.5511 31.9563C45.52 31.975 45.4941 32.0014 45.4762 32.0329C45.1989 32.6651 45.8512 33.4968 46.5453 33.2139C47.1248 32.9774 47.2301 32.0994 46.7452 31.7176C46.7221 31.6984 46.6952 31.6841 46.6664 31.6757C46.6375 31.6672 46.6072 31.6648 46.5774 31.6685C46.5476 31.6722 46.5188 31.6819 46.4929 31.6972C46.467 31.7124 46.4445 31.7327 46.4267 31.757C46.409 31.7812 46.3965 31.8088 46.3899 31.8381C46.3833 31.8674 46.3827 31.8977 46.3883 31.9272C46.3939 31.9566 46.4055 31.9847 46.4224 32.0095C46.4393 32.0343 46.4611 32.0554 46.4864 32.0715C46.7328 32.2261 46.6631 32.6775 46.4276 32.8104C46.1099 32.9882 45.7071 32.5446 45.8434 32.2354L45.4809 32.2431C45.721 32.6821 45.219 33.2865 44.7449 33.1706C44.2708 33.0547 44.057 32.4147 44.2801 32.0066L43.9253 32.0607C44.2212 32.3328 44.1267 32.9186 43.696 32.9882C43.5976 33.0051 43.4965 32.9943 43.4041 32.957C43.3116 32.9197 43.2313 32.8573 43.1724 32.777C43.1135 32.6967 43.0782 32.6016 43.0705 32.5023C43.0628 32.4031 43.083 32.3037 43.1289 32.2153C43.3706 31.6696 44.0136 31.58 44.5466 31.6279C44.8658 31.6573 45.1787 31.7346 45.4933 31.7825C45.8281 31.8435 46.1701 31.8544 46.5081 31.8149C46.5297 31.8121 46.5496 31.8015 46.5639 31.7852C46.5783 31.7688 46.5862 31.7478 46.5862 31.7261C46.5862 31.7043 46.5783 31.6833 46.5639 31.667C46.5496 31.6506 46.5297 31.64 46.5081 31.6372L46.5066 31.6434Z" fill="#2D2615"/>
<path d="M44.9635 33.211C44.8429 33.3617 44.7625 33.5404 44.7295 33.7304C44.6645 33.953 44.6118 34.1818 44.5607 34.4075C44.4615 34.8496 44.3902 35.2979 44.3345 35.7477C44.2787 36.1975 44.2384 36.6195 44.2244 37.0585C44.2105 37.4975 44.1625 38.0092 44.2663 38.4497C44.319 38.6708 44.7001 38.6754 44.7311 38.4389C44.7869 38.0092 44.7311 37.5563 44.7311 37.1234C44.7311 36.6906 44.7574 36.2408 44.7946 35.8018C44.8318 35.3628 44.8891 34.9392 44.9496 34.5095C44.9837 34.2915 45.0239 34.0736 45.0642 33.8556C45.1238 33.6594 45.1391 33.4525 45.1092 33.2497C45.1045 33.2342 45.0959 33.2203 45.0841 33.2092C45.0723 33.1982 45.0578 33.1905 45.0421 33.1869C45.0263 33.1833 45.0099 33.1839 44.9945 33.1887C44.979 33.1935 44.9651 33.2022 44.9542 33.2141L44.9635 33.211Z" fill="#2D2615"/>
<path d="M41.9342 34.782C41.5561 35.3493 41.6166 36.2011 41.8226 36.8179C42.0452 37.4875 42.4995 38.0563 43.104 38.4224C44.3807 39.1845 46.1098 38.9387 47.0612 37.7824C47.5663 37.1641 47.9288 36.2969 47.7398 35.4977C47.6778 35.2303 47.3215 35.3432 47.2998 35.5689C47.2409 36.1872 47.1293 36.7653 46.7606 37.2816C46.408 37.778 45.8874 38.1305 45.2948 38.274C44.7062 38.4116 44.0878 38.3412 43.5453 38.0748C43.0029 37.8085 42.5698 37.3626 42.32 36.8132C42.188 36.5046 42.1064 36.1769 42.0783 35.8425C42.0664 35.5041 42.084 35.1653 42.131 34.83C42.1403 34.7156 41.9853 34.7047 41.9342 34.782Z" fill="#2D2615"/>
<path d="M51.5482 35.6383C54.2953 34.9628 57.0765 34.4635 59.8748 34.043C62.673 33.6226 65.4526 33.3273 68.2416 33.148C71.0305 32.9687 73.8566 32.913 76.6641 32.9764C79.4717 33.0398 82.2683 33.2237 85.0542 33.5344C87.84 33.8452 90.6227 34.2733 93.376 34.8283L94.4126 35.0401C94.7039 35.0988 94.817 34.6552 94.5242 34.5918C91.7678 33.9951 88.9726 33.5561 86.1713 33.2268C83.37 32.8976 80.5392 32.6904 77.7131 32.6085C74.887 32.5266 72.067 32.5699 69.2502 32.7399C66.4334 32.9099 63.5933 33.2036 60.7889 33.6318C58.0124 34.0538 55.2746 34.6428 52.5461 35.2998C52.2021 35.3812 51.8597 35.4657 51.5188 35.5533C51.463 35.5672 51.4894 35.6491 51.5436 35.6367L51.5482 35.6383Z" fill="#2D2615"/>
<path d="M50.9674 38.2423C53.7114 37.9563 56.4709 37.7662 59.2257 37.624C61.9806 37.4818 64.7493 37.4277 67.5104 37.4447C70.2714 37.4617 73.0371 37.556 75.7935 37.7291C78.5499 37.9022 81.3218 38.1588 84.072 38.4927C86.8222 38.8266 89.5461 39.2378 92.2637 39.7294C92.603 39.7896 92.9408 39.853 93.2786 39.9164C93.5699 39.9705 93.683 39.5222 93.3901 39.4681C90.6601 38.9642 87.9166 38.5396 85.1597 38.1944C82.4028 37.8491 79.6474 37.5879 76.8936 37.4107C74.1367 37.2303 71.3767 37.1303 68.6136 37.1108C65.8505 37.0912 63.0755 37.1577 60.2886 37.3102C57.5136 37.4648 54.7464 37.6997 51.9884 38.0413C51.6476 38.0846 51.3051 38.1248 50.9643 38.1666C50.9193 38.1666 50.9209 38.2423 50.9643 38.2361L50.9674 38.2423Z" fill="#2D2615"/>
<path d="M38.366 37.024C36.0781 36.0403 33.7156 35.2391 31.3007 34.628C28.8821 34.0138 26.4234 33.5696 23.9426 33.2986C18.9796 32.7498 13.9648 32.8803 9.03728 33.6866C6.56213 34.0881 4.11798 34.6609 1.72253 35.4009C1.42711 35.4916 1.13272 35.5854 0.839365 35.6822C0.579064 35.7673 0.703016 36.1784 0.963317 36.0888C3.31417 35.2889 5.71929 34.6577 8.16031 34.1998C10.5988 33.748 13.0656 33.4645 15.5432 33.3512C20.5109 33.1215 25.4867 33.5672 30.3339 34.6759C32.7507 35.235 35.1309 35.9412 37.4611 36.7906C37.7514 36.8936 38.0401 37.0008 38.3273 37.1121C38.3769 37.1307 38.4109 37.0472 38.3614 37.0255L38.366 37.024Z" fill="#2D2615"/>
<path d="M37.1062 38.8916C34.7232 38.8339 32.3397 38.8453 29.9557 38.9257C27.5789 39.006 25.2021 39.1513 22.8393 39.4389C18.5923 39.9552 14.3733 40.9151 10.444 42.6526C8.29934 43.5854 6.28361 44.7891 4.44626 46.2342C4.29132 46.3532 4.44626 46.6145 4.6012 46.4954C7.93397 44.0314 11.7626 42.3079 15.7461 41.1995C20.0984 39.9907 24.6149 39.5084 29.1159 39.2905C31.7747 39.1622 34.4366 39.1359 37.0969 39.0246C37.1146 39.0246 37.1315 39.0176 37.144 39.0051C37.1565 38.9926 37.1635 38.9757 37.1635 38.9581C37.1635 38.9405 37.1565 38.9236 37.144 38.9111C37.1315 38.8986 37.1146 38.8916 37.0969 38.8916H37.1062Z" fill="#2D2615"/>
<path d="M36.688 41.3106C34.2456 41.306 31.807 41.501 29.3965 41.8934C26.9881 42.2654 24.6071 42.7962 22.2692 43.4825C17.5925 44.8536 13.1136 46.8233 8.94427 49.3426C6.85475 50.6054 4.85348 52.008 2.95426 53.541C2.72185 53.7281 2.48944 53.9167 2.26323 54.1083C2.0804 54.2629 2.34999 54.5133 2.53127 54.3634C4.39091 52.8239 6.34997 51.4079 8.39578 50.1248C14.5617 46.2671 21.4145 43.6298 28.5799 42.3571C30.9612 41.931 33.367 41.6548 35.7831 41.5301C36.093 41.5131 36.3905 41.4915 36.6942 41.4729C36.7102 41.4673 36.7241 41.4568 36.7339 41.443C36.7438 41.4292 36.7491 41.4126 36.7491 41.3956C36.7491 41.3787 36.7438 41.3621 36.7339 41.3483C36.7241 41.3344 36.7102 41.324 36.6942 41.3184L36.688 41.3106Z" fill="#2D2615"/>
<path d="M56.2039 32.514C56.2144 32.512 56.224 32.5065 56.2308 32.4982C56.2377 32.49 56.2415 32.4796 56.2415 32.4689C56.2415 32.4582 56.2377 32.4478 56.2308 32.4396C56.224 32.4314 56.2144 32.4258 56.2039 32.4238C56.1933 32.4258 56.1838 32.4314 56.1769 32.4396C56.17 32.4478 56.1663 32.4582 56.1663 32.4689C56.1663 32.4796 56.17 32.49 56.1769 32.4982C56.1838 32.5065 56.1933 32.512 56.2039 32.514Z" fill="white"/>
<path d="M56.3501 32.9382C56.4313 32.9406 56.5117 32.9208 56.5825 32.881C56.6565 32.8546 56.7226 32.8099 56.7746 32.7511C56.8308 32.6972 56.872 32.6295 56.8939 32.5548C56.9309 32.4823 56.9469 32.4009 56.9404 32.3198L56.9156 32.1653C56.8858 32.0648 56.8296 31.9741 56.7529 31.9025L56.629 31.8113C56.5342 31.7591 56.4273 31.7329 56.3191 31.7355C56.2383 31.7348 56.1588 31.755 56.0882 31.7943C56.0144 31.8202 55.9483 31.8643 55.8961 31.9226C55.791 32.0421 55.7317 32.1949 55.7288 32.3538L55.7551 32.5084C55.7831 32.6079 55.8365 32.6984 55.91 32.7712L56.034 32.8624C56.1285 32.9149 56.2357 32.9406 56.3439 32.9366L56.3501 32.9382Z" fill="white"/>
<path d="M32.19 32.6588L32.1683 32.6789L32.097 32.7763L32.0521 32.8907C32.0351 32.9524 32.0351 33.0176 32.0521 33.0793C32.0535 33.1213 32.0657 33.1623 32.0877 33.1983C32.1212 33.2732 32.1749 33.3374 32.2426 33.3838C32.2715 33.4129 32.308 33.4333 32.348 33.4425C32.4053 33.4703 32.4688 33.4831 32.5324 33.4796L32.6579 33.4595L32.771 33.4085L32.8655 33.3328C32.8887 33.2988 32.9135 33.2663 32.9368 33.2339C32.96 33.2014 32.9662 33.1581 32.9817 33.1195C32.9987 33.0577 32.9987 32.9926 32.9817 32.9309C32.9801 32.8888 32.9678 32.8479 32.9461 32.8118C32.9263 32.7522 32.891 32.6989 32.8438 32.6573L32.8237 32.6387C32.7351 32.5617 32.622 32.5184 32.5045 32.5166L32.3867 32.5352C32.3133 32.5582 32.2467 32.5991 32.1931 32.6542L32.19 32.6588Z" fill="white"/>
<path d="M63.3381 35.0471C63.3451 35.0471 63.3518 35.0443 63.3568 35.0393C63.3618 35.0344 63.3646 35.0276 63.3646 35.0206C63.3646 35.0136 63.3618 35.0069 63.3568 35.0019C63.3518 34.9969 63.3451 34.9941 63.3381 34.9941C63.331 34.9941 63.3243 34.9969 63.3193 35.0019C63.3143 35.0069 63.3115 35.0136 63.3115 35.0206C63.3115 35.0276 63.3143 35.0344 63.3193 35.0393C63.3243 35.0443 63.331 35.0471 63.3381 35.0471Z" fill="#2D2615"/>
</svg>
