<svg width="65" height="48" viewBox="0 0 65 48" fill="none" xmlns="http://www.w3.org/2000/svg">
<path d="M10.3972 5.67222C11.2768 4.52259 12.5082 3.86566 14.0914 4.35835C15.3088 4.75908 16.0951 5.57039 16.6229 6.53936C19.2398 5.24586 21.9959 4.21422 24.8452 3.46164C23.1659 3.77706 21.5182 4.22426 19.9195 4.7985C19.7929 4.48317 19.6381 4.18263 19.5132 3.86401C19.359 3.45098 19.1364 3.06307 18.8535 2.71439C18.2396 1.9873 17.4727 1.38533 16.6 0.945602C14.8917 0.0505512 12.8886 -0.221383 10.978 0.182377C9.06739 0.586138 7.385 1.63691 6.25611 3.13154C5.19225 4.58049 4.6896 6.32488 4.83119 8.07658C4.99303 9.86671 6.00983 11.8966 7.51216 13.066C8.65385 11.9968 9.70056 10.8357 10.9865 9.91434C9.93452 8.57749 9.26956 7.08297 10.3972 5.67222Z" fill="#5A4949"/>
<path d="M14.0913 4.35887C12.5081 3.86617 11.2767 4.5231 10.3971 5.67273C9.26947 7.08349 9.93443 8.578 10.9864 9.91486C12.7585 8.64493 14.6415 7.51598 16.6157 6.53988C16.095 5.57091 15.3087 4.7596 14.0913 4.35887Z" fill="#F5D4D6"/>
<path d="M56.1354 6.8222C54.1757 4.99265 51.6354 6.2441 50.5289 8.28716C52.3391 9.43678 54.0948 10.6685 55.7941 11.9824C57.2507 10.4205 57.8928 8.46124 56.1354 6.8222Z" fill="#F5D4D6"/>
<path d="M61.2511 5.90915C60.4266 4.2696 58.985 2.97041 57.2008 2.25901C55.4166 1.54761 53.4145 1.47369 51.5757 2.05133C50.5086 2.37436 49.5304 2.91199 48.71 3.62632C48.3125 3.97614 47.9833 4.38795 47.7372 4.84328C47.5718 5.17175 47.3854 5.47886 47.2235 5.80076C46.2384 5.35186 45.2327 4.9473 44.2065 4.58708C47.5138 6.42649 50.6979 8.40877 53.8045 10.4995C52.7303 9.73851 51.6384 9.0011 50.529 8.28724C51.6355 6.24419 54.1757 4.99274 56.1354 6.82229C57.8664 8.43833 57.2683 10.3648 55.8557 11.9135C57.093 12.7774 58.3209 13.6598 59.5394 14.5609C60.6371 13.6281 61.4006 12.3142 61.7612 11.0004C62.222 9.29892 62.0419 7.50129 61.2511 5.90915Z" fill="#5A4949"/>
<path d="M64.6355 25.4134C64.1526 23.1429 63.302 20.9543 62.1129 18.9229C61.2769 17.4779 60.3068 16.104 59.2138 14.8171C59.3246 14.7367 59.4319 14.6529 59.5375 14.5626C58.319 13.6626 57.0911 12.7801 55.8538 11.9151C55.8327 11.9365 55.8133 11.9595 55.7922 11.9825C55.1378 11.4766 54.4729 10.9872 53.8026 10.5044C50.6977 8.40877 47.5136 6.42649 44.2064 4.59529C43.8545 4.47267 43.5027 4.35497 43.1509 4.24219C41.7377 3.77478 40.2823 3.42738 38.8022 3.20424C38.1619 3.11392 37.2735 3.04001 36.5417 2.96446C35.7536 2.88399 34.9585 2.82651 34.1721 2.80023C33.4297 2.77176 32.6874 2.76191 31.945 2.77067C31.5601 2.77755 31.176 2.80496 30.7945 2.85279C30.4427 2.89384 30.1032 2.96446 29.7601 2.99403C29.7499 2.98537 29.738 2.97872 29.725 2.97449C29.712 2.97025 29.6982 2.96852 29.6845 2.96939C28.0562 3.00211 26.4343 3.17029 24.838 3.47194C21.9915 4.22181 19.2378 5.25013 16.6227 6.53981C15.2062 7.23784 13.8357 8.0144 12.5186 8.86534C12.1315 9.13304 11.7428 9.39909 11.3452 9.65694C11.2256 9.7407 11.1042 9.82117 10.9934 9.90822L10.8438 10.0183C9.89388 11.117 8.74163 12.0465 7.64567 12.9958L7.5542 13.0763C7.45393 13.2044 7.35189 13.3341 7.25338 13.4655C7.23063 13.4981 7.19621 13.5221 7.15626 13.5333C7.11631 13.5444 7.07342 13.5419 7.03524 13.5263C6.12561 14.544 5.28542 15.6142 4.51964 16.7304C3.72118 17.8907 3.0156 19.1044 2.40864 20.3616C2.09375 21.0185 1.80525 21.6755 1.54314 22.3521C1.51675 22.4178 1.49036 22.4835 1.46573 22.5492C1.46573 22.5722 1.43407 22.6362 1.43583 22.6346C1.41648 22.6855 1.39537 22.7348 1.37601 22.7857C1.31972 22.9499 1.26519 23.1027 1.21065 23.2603C1.1051 23.5756 1.00659 23.891 0.913355 24.2096C0.209689 26.5926 -0.142144 29.1004 0.0566418 31.5705C0.232558 33.8172 0.851784 36.0573 2.09024 38.0051C2.70204 38.9521 3.45486 39.813 4.32613 40.5622C5.67765 41.7314 7.1742 42.7453 8.78385 43.5825C12.0154 45.2823 15.6129 46.3448 19.2421 47.0083C22.8688 47.6425 26.549 47.9723 30.2386 47.9937C33.269 48.028 36.2992 47.9184 39.3177 47.6653C40.3978 47.5766 41.4767 47.4715 42.5545 47.3499L43.7103 47.2186C44.57 47.103 45.4222 46.9429 46.2628 46.739C49.6052 45.9934 52.8966 44.893 55.8538 43.2441C57.0914 42.5559 58.2534 41.7555 59.3229 40.8546C59.8082 40.4439 60.2654 40.0051 60.6915 39.5407C60.7865 39.4372 60.8797 39.3321 60.9712 39.227L61.119 39.0628C61.1506 39.025 61.1805 38.9872 61.2105 38.9478L61.2632 38.8887C61.4884 38.6259 61.696 38.35 61.9018 38.0675C63.2605 36.2685 64.2073 34.2273 64.683 32.0714C65.1186 29.8693 65.1025 27.6099 64.6355 25.4134Z" fill="white"/>
<path d="M33.356 27.4962C33.3215 27.4812 33.284 27.4735 33.246 27.4735C33.208 27.4735 33.1705 27.4812 33.1361 27.4962C33.0513 27.4478 32.9617 27.4071 32.8687 27.3747C32.344 27.1995 31.806 27.0617 31.259 26.9624C31.0643 26.9162 30.867 26.88 30.6679 26.854H30.6187L30.5501 26.8425C30.3478 26.8196 30.2528 27.0314 30.3073 27.1841C30.2088 27.1321 30.1001 27.0992 29.9877 27.0874C29.8752 27.0755 29.7613 27.085 29.6529 27.1152C29.506 27.1806 29.3674 27.261 29.2395 27.3549C29.0749 27.5015 28.9788 27.7027 28.9721 27.915C28.9478 27.9423 28.9301 27.9742 28.9202 28.0084C28.9102 28.0427 28.9082 28.0786 28.9144 28.1136C28.9206 28.1486 28.9347 28.182 28.9559 28.2115C28.9771 28.241 29.0048 28.2659 29.0372 28.2845C29.0553 28.2964 29.0741 28.3074 29.0935 28.3174C29.188 28.4502 29.3205 28.5556 29.476 28.6215C29.6315 28.6874 29.8038 28.7112 29.9731 28.6902C30.1104 28.6738 30.2415 28.6265 30.3548 28.5522C30.4995 28.7369 30.7095 28.8678 30.9477 28.9217C31.1268 28.9595 31.3137 28.9504 31.4877 28.8955C31.6234 28.8912 31.7566 28.8597 31.878 28.803C31.9994 28.7463 32.1063 28.6658 32.1914 28.567C32.2756 28.6322 32.3749 28.6782 32.4815 28.7013C32.5881 28.7244 32.699 28.7239 32.8053 28.7C32.9016 28.6759 32.9915 28.6334 33.0692 28.5752C33.1208 28.5757 33.1718 28.5656 33.2187 28.5456C33.2885 28.5163 33.3502 28.4727 33.3996 28.4182C33.4489 28.3636 33.4845 28.2994 33.5037 28.2303C33.6744 28.0168 33.6656 27.6309 33.356 27.4962ZM32.3233 28.0529C32.3202 28.0235 32.3143 27.9944 32.3057 27.9659C32.4418 28.0235 32.5648 28.1049 32.6681 28.2057L32.684 28.2237C32.5503 28.2714 32.4218 28.1663 32.3233 28.0529Z" fill="#C89D64"/>
<path d="M25.3923 20.361C24.5355 18.7187 22.9998 18.042 20.3487 17.6692C2.19945 15.1055 7.06529 35.7315 15.0976 33.9282C21.45 32.7983 27.1919 24.631 25.3923 20.361Z" fill="#5A4949"/>
<path d="M38.7795 20.0191C39.6345 18.3767 41.1702 17.7001 43.823 17.3273C61.9706 14.7768 57.1047 35.3929 49.0724 33.5962C42.72 32.4663 36.9781 24.3023 38.7795 20.0191Z" fill="#5A4949"/>
<path d="M33.173 27.2723C32.75 27.2266 32.3335 27.1379 31.9311 27.0078C31.5593 26.8992 31.1778 26.8223 30.7911 26.7779C30.1103 26.7155 29.4119 26.8847 28.9968 27.4234C28.6449 27.8766 28.6098 28.5352 29.0865 28.9277C29.1955 29.0227 29.3236 29.0964 29.4634 29.1448C29.6032 29.1931 29.7518 29.2151 29.9008 29.2094C30.0497 29.2036 30.196 29.1704 30.331 29.1115C30.4661 29.0526 30.5873 28.9692 30.6875 28.8662C30.7878 28.7633 30.8652 28.6427 30.9152 28.5116C30.9652 28.3805 30.9868 28.2414 30.9787 28.1025C30.9707 27.9635 30.9332 27.8274 30.8684 27.7021C30.8035 27.5768 30.7127 27.4647 30.6011 27.3724C30.5722 27.3476 30.5377 27.3291 30.5002 27.3184C30.4626 27.3076 30.4229 27.3049 30.384 27.3104C30.3452 27.316 30.3082 27.3296 30.2757 27.3502C30.2433 27.3709 30.2162 27.3982 30.1965 27.4299C29.7796 28.1608 30.2335 29.2365 31.1623 29.3531C32.0912 29.4697 32.8617 28.4449 32.4148 27.6763C32.3925 27.6434 32.3615 27.6165 32.3247 27.5982C32.288 27.5799 32.2468 27.5708 32.2051 27.5718C32.1635 27.5728 32.1229 27.5839 32.0871 27.6039C32.0514 27.6239 32.0219 27.6523 32.0014 27.6861C31.6865 28.3595 32.4272 29.2431 33.217 28.9425C33.8767 28.6912 33.9963 27.7567 33.4457 27.3511C33.4194 27.3305 33.3887 27.3151 33.3558 27.3059C33.3228 27.2968 33.2882 27.2941 33.254 27.2979C33.2199 27.3017 33.187 27.312 33.1573 27.3282C33.1276 27.3444 33.1017 27.3661 33.0814 27.392C33.061 27.4179 33.0465 27.4474 33.0389 27.4787C33.0312 27.51 33.0305 27.5424 33.0368 27.574C33.043 27.6055 33.0562 27.6356 33.0754 27.6622C33.0946 27.6888 33.1194 27.7115 33.1484 27.7288C33.4281 27.8931 33.349 28.371 33.0816 28.5106C32.7297 28.6994 32.2671 28.2297 32.4201 27.9013L32.0085 27.9111C32.2776 28.3759 31.7112 29.0181 31.1729 28.8965C30.6346 28.775 30.3918 28.0934 30.6451 27.6615L30.2423 27.719C30.5748 28.0064 30.4692 28.6272 29.9802 28.6962C29.8685 28.7147 29.7535 28.7035 29.6482 28.664C29.543 28.6244 29.4518 28.558 29.3851 28.4724C29.3183 28.3868 29.2787 28.2854 29.2707 28.1798C29.2627 28.0741 29.2866 27.9685 29.3398 27.875C29.6125 27.2953 30.3425 27.2 30.9477 27.2509C31.3083 27.2821 31.6654 27.3642 32.0225 27.4151C32.4026 27.4808 32.791 27.4924 33.1748 27.4496C33.1993 27.4466 33.2218 27.4354 33.2382 27.418C33.2545 27.4006 33.2635 27.3783 33.2635 27.3552C33.2635 27.3321 33.2545 27.3098 33.2382 27.2924C33.2218 27.275 33.1993 27.2638 33.1748 27.2608L33.173 27.2723Z" fill="#1E2525"/>
<path d="M31.4191 28.9383C31.2829 29.0988 31.1916 29.2884 31.1535 29.4901C31.0814 29.7266 31.0198 29.9697 30.9617 30.2094C30.8509 30.6791 30.7682 31.1554 30.7049 31.6333C30.6416 32.1113 30.5958 32.5612 30.58 33.026C30.5642 33.4908 30.5096 34.0377 30.6275 34.5041C30.6873 34.7406 31.1218 34.7455 31.1553 34.4926C31.2186 34.0377 31.1553 33.5549 31.1553 33.095C31.1553 32.6352 31.1852 32.1572 31.2274 31.6908C31.2696 31.2244 31.3347 30.7744 31.4033 30.3195C31.442 30.0863 31.4877 29.8563 31.5335 29.6248C31.5996 29.416 31.6164 29.1964 31.5827 28.981C31.5773 28.9648 31.5674 28.9502 31.554 28.9386C31.5407 28.927 31.5244 28.9188 31.5067 28.9148C31.489 28.9109 31.4705 28.9112 31.453 28.9159C31.4355 28.9206 31.4196 28.9294 31.4068 28.9416L31.4191 28.9383Z" fill="#1E2525"/>
<path d="M27.9817 30.6054C27.5507 31.2098 27.6193 32.1131 27.8533 32.7684C28.1061 33.4807 28.6225 34.0857 29.3099 34.4748C30.7576 35.2844 32.7226 35.0233 33.8028 33.7948C34.378 33.1379 34.7879 32.2166 34.575 31.3658C34.5029 31.0801 34.0965 31.2016 34.0719 31.4414C34.0051 32.0983 33.8784 32.7125 33.4597 33.2594C33.0607 33.7873 32.4699 34.1619 31.7973 34.3138C31.1294 34.46 30.4278 34.3854 29.8122 34.1027C29.1966 33.82 28.7051 33.3467 28.4215 32.7635C28.2702 32.4359 28.1769 32.0876 28.1453 31.7321C28.1326 31.3726 28.1526 31.0127 28.2051 30.6564C28.2157 30.5348 28.0397 30.5233 27.9817 30.6054Z" fill="#1E2525"/>
<path d="M46.2948 28.1196C48.1613 28.1196 48.0892 25.4131 46.2227 25.4131C44.3562 25.4131 44.4284 28.1196 46.2948 28.1196Z" fill="#463CBA"/>
<path d="M47.4821 27.0949C47.4943 27.0929 47.5052 27.0869 47.5131 27.078C47.521 27.0692 47.5253 27.058 47.5253 27.0465C47.5253 27.035 47.521 27.0238 47.5131 27.015C47.5052 27.0061 47.4943 27.0001 47.4821 26.998C47.47 27.0001 47.4591 27.0061 47.4512 27.015C47.4433 27.0238 47.439 27.035 47.439 27.0465C47.439 27.058 47.4433 27.0692 47.4512 27.078C47.4591 27.0869 47.47 27.0929 47.4821 27.0949Z" fill="white"/>
<path d="M47.6493 27.5533C47.7414 27.5549 47.8324 27.5339 47.9132 27.4925C47.9974 27.464 48.0725 27.416 48.1313 27.3529C48.1966 27.2954 48.2445 27.2229 48.2703 27.1427C48.311 27.0653 48.3292 26.9792 48.323 26.8931C48.3125 26.8356 48.3037 26.7798 48.2931 26.7289C48.2589 26.6218 48.1952 26.525 48.1084 26.448L47.9659 26.3511C47.8582 26.2961 47.7369 26.2683 47.6141 26.2706C47.4326 26.2823 47.2614 26.3532 47.1303 26.471C47.065 26.5281 47.0175 26.6008 46.9931 26.6812C46.9512 26.7583 46.9329 26.8447 46.9403 26.9309C46.9491 26.9883 46.9597 27.0458 46.9685 27.0951C47.0042 27.2015 47.0677 27.298 47.1532 27.3759L47.2957 27.4728C47.4031 27.5287 47.5246 27.5565 47.6475 27.5533H47.6493Z" fill="white"/>
<path d="M18.6599 25.8382L18.8359 26.188V26.165C18.6944 25.7845 18.415 25.4621 18.046 25.2535L17.6449 25.1057C17.355 25.0394 17.0515 25.0462 16.7653 25.1254C16.6022 25.1584 16.4466 25.2185 16.3062 25.3028C16.0662 25.4418 15.8682 25.6357 15.7309 25.8661C15.619 26.0398 15.5583 26.2382 15.555 26.4409C15.5108 26.6447 15.5266 26.8558 15.6008 27.0518C15.6827 27.306 15.8343 27.5359 16.0406 27.7186L16.0617 27.7334L16.4047 27.9683C16.5368 28.0296 16.6746 28.0796 16.8163 28.1177C17.0327 28.1778 17.2624 28.1823 17.4813 28.1308C17.7013 28.1171 17.9134 28.0485 18.0953 27.9321L18.426 27.6808C18.626 27.4863 18.7679 27.2462 18.8376 26.9845V26.9664L18.4471 27.6234V27.6119L18.6846 27.3097C18.7942 27.1452 18.8549 26.9564 18.8605 26.7628C18.894 26.6345 18.8903 26.5001 18.8499 26.3736C18.8364 26.1799 18.7671 25.9932 18.6494 25.8332L18.6599 25.8382Z" fill="#463CBA"/>
<path d="M15.2806 26.3838L15.256 26.4035L15.1733 26.507L15.1223 26.6285C15.1029 26.6947 15.1029 26.7644 15.1223 26.8305C15.1227 26.8754 15.1367 26.9193 15.1628 26.957C15.1753 26.9988 15.2003 27.0364 15.2349 27.0654C15.259 27.1024 15.293 27.1329 15.3334 27.1541C15.3677 27.1839 15.4094 27.2054 15.4548 27.2165C15.5191 27.2463 15.5908 27.2593 15.6624 27.2543L15.8066 27.2329L15.9333 27.1787L16.0406 27.0982L16.1215 26.9948C16.1391 26.9537 16.1567 26.9127 16.1725 26.8732C16.1918 26.8071 16.1918 26.7374 16.1725 26.6712C16.1716 26.627 16.1576 26.5838 16.1321 26.5464C16.11 26.4829 16.0699 26.4261 16.016 26.3822L15.9931 26.3641C15.8953 26.2844 15.771 26.2386 15.6413 26.2344L15.5076 26.2541C15.4235 26.2772 15.3476 26.3209 15.2877 26.3805L15.2806 26.3838Z" fill="white"/>
<path d="M29.6917 2.95239C26.0166 3.04551 22.3933 3.78489 19.0118 5.13176C15.9363 6.34186 13.0949 8.01582 10.6012 10.0867C8.25817 12.0309 6.21194 14.2662 4.51981 16.7299C3.72136 17.8901 3.01577 19.1038 2.40882 20.361C2.09393 21.018 1.80542 21.6749 1.54331 22.3515C1.51692 22.4172 1.49053 22.4829 1.4659 22.5486C1.45359 22.5831 1.40257 22.7227 1.4659 22.5486C1.436 22.6274 1.40257 22.7014 1.37443 22.7802C1.31813 22.9444 1.2636 23.0972 1.20907 23.2548C1.10352 23.5701 1.005 23.8855 0.911768 24.2041C0.208102 26.5871 -0.143731 29.0949 0.0550549 31.565C0.230971 33.8117 0.850197 36.0518 2.08865 37.9996C2.70058 38.9484 3.45402 39.8111 4.3263 40.5616C5.67783 41.7308 7.17438 42.7448 8.78403 43.5819C12.0156 45.2817 15.6131 46.3443 19.2423 47.0078C22.8689 47.6419 26.5491 47.9717 30.2388 47.9932C33.2691 48.0282 36.2995 47.9186 39.3178 47.6647C40.398 47.576 41.4769 47.4709 42.5547 47.3494L43.7105 47.218C44.5702 47.1025 45.4223 46.9424 46.263 46.7384C49.6054 45.9928 52.8968 44.8924 55.854 43.2436C57.0916 42.5554 58.2536 41.755 59.323 40.854C59.8084 40.4434 60.2655 40.0045 60.6917 39.5401C60.7867 39.4366 60.8799 39.3315 60.9714 39.2264L61.1191 39.0622C61.1754 38.9949 61.2265 38.9242 61.2827 38.8569C61.1403 39.0211 61.2282 38.9275 61.2634 38.8881C61.4886 38.6253 61.6979 38.3494 61.902 38.0669C63.2607 36.268 64.2074 34.2268 64.6832 32.0708C65.1199 29.8694 65.105 27.6107 64.6392 25.4145C64.1566 23.1433 63.3059 20.9542 62.1166 18.9224C60.8389 16.7325 59.2696 14.7023 57.446 12.8802C55.5394 10.9504 53.3845 9.24809 51.0303 7.81203C48.5749 6.31974 45.9306 5.11768 43.1581 4.2334C41.7449 3.76599 40.2895 3.41859 38.8094 3.19545C38.1691 3.10513 37.2807 3.03122 36.5489 2.95567C35.7608 2.8752 34.9657 2.81772 34.1793 2.79144C33.4369 2.76298 32.6946 2.75312 31.9522 2.76188C31.5673 2.76876 31.1832 2.79617 30.8017 2.844C30.434 2.8867 30.0611 2.96881 29.6934 2.99181C29.5914 2.99181 29.5949 3.14618 29.6934 3.13962C30.0986 3.13005 30.504 3.14431 30.9073 3.18232C31.2925 3.20202 31.676 3.21188 32.0613 3.2168C32.8388 3.22666 33.6111 3.26607 34.3851 3.33505C35.1328 3.40403 35.8769 3.49928 36.6175 3.61589C37.3212 3.72264 38.053 3.92957 38.7654 4.08559C40.2062 4.40862 41.6264 4.80725 43.0191 5.27957L43.5011 5.4438L43.7632 5.53577L43.8723 5.57518C43.8927 5.58168 43.9127 5.58935 43.9321 5.59818C44.2839 5.72628 44.6199 5.85766 44.9612 5.99562C45.6086 6.25839 46.2478 6.53923 46.8787 6.83813C48.1494 7.44343 49.3796 8.12022 50.5624 8.86476C50.8474 9.04377 51.1306 9.22772 51.4103 9.41166C51.5458 9.50034 51.6777 9.58903 51.8114 9.67935L51.9187 9.75326C51.7938 9.66786 51.9187 9.75326 51.9381 9.76804L52.1931 9.93556C52.735 10.3166 53.2627 10.7124 53.7764 11.123C54.813 11.9465 55.7957 12.8273 56.7195 13.7605C56.9411 13.9861 57.1593 14.2138 57.3739 14.4437C57.4759 14.5538 57.5779 14.6638 57.6782 14.7722L57.8401 14.9561C57.8664 14.9857 57.8928 15.0169 57.921 15.0465C57.819 14.9315 57.9403 15.0695 57.9579 15.0925C58.3614 15.5589 58.7484 16.0368 59.119 16.5262C59.8587 17.501 60.5287 18.5204 61.1244 19.5777C61.2675 19.8306 61.4047 20.0857 61.5361 20.343C61.5994 20.4661 61.661 20.5877 61.7225 20.7109C61.7384 20.7453 61.756 20.7782 61.7718 20.8127C61.8316 20.9309 61.7155 20.6928 61.7718 20.8127C61.807 20.8849 61.8422 20.9588 61.8756 21.0311C62.1172 21.5479 62.3382 22.0723 62.5388 22.6045C62.936 23.6515 63.2414 24.7269 63.4518 25.8201C63.4641 25.8776 63.4747 25.9334 63.4852 25.9844C63.4958 26.0353 63.4958 26.0533 63.5028 26.0878C63.5257 26.2143 63.4799 25.9433 63.5028 26.0698C63.5257 26.1962 63.5468 26.3424 63.5661 26.4787C63.6048 26.7459 63.6365 27.0136 63.6611 27.2818C63.7104 27.8057 63.7315 28.3329 63.7262 28.8601C63.7262 29.1294 63.7139 29.4004 63.6981 29.6697C63.7026 29.928 63.6797 30.186 63.6295 30.44C63.6893 30.2396 63.6295 30.4482 63.6189 30.5106C63.6084 30.573 63.6048 30.6206 63.596 30.6748C63.5785 30.8062 63.5573 30.9393 63.5345 31.0706C63.4887 31.3351 63.436 31.5978 63.3744 31.8606C63.259 32.3628 63.1152 32.859 62.9434 33.3469C62.8994 33.475 62.8519 33.6031 62.8027 33.7296C62.7663 33.8605 62.7156 33.9876 62.6514 34.1089C62.764 33.9447 62.6619 34.0827 62.6355 34.1434L62.5511 34.3307C62.4948 34.4571 62.435 34.5803 62.3752 34.7051C62.1357 35.1952 61.8667 35.6722 61.5695 36.1339C61.4991 36.244 61.427 36.354 61.3531 36.4624C61.255 36.5696 61.1722 36.6883 61.1068 36.8155C61.1279 36.7892 61.1473 36.7613 61.1666 36.735L61.0382 36.8993C61.0179 36.929 60.9956 36.9576 60.9714 36.9847C61.1332 36.8204 60.9714 36.9847 60.9327 37.0323C60.8359 37.1505 60.7392 37.2671 60.6389 37.3837C59.8547 38.2839 58.9831 39.1146 58.0353 39.8653L57.6835 40.1445C57.5586 40.2414 57.8436 40.0246 57.7169 40.1182L57.6166 40.1938L57.3809 40.3662C57.1159 40.5578 56.8461 40.7434 56.5717 40.923C55.9841 41.3056 55.386 41.6702 54.7686 42.0085C54.1511 42.3468 53.4668 42.6835 52.7948 42.9824C52.6189 43.0645 52.4271 43.1385 52.2459 43.2222C52.4869 43.1105 52.223 43.2304 52.165 43.2551L51.8343 43.3897C51.4631 43.5375 51.0866 43.6788 50.7102 43.8151C49.0258 44.4124 47.2995 44.9013 45.5435 45.2784C45.0744 45.3802 44.6053 45.4755 44.1362 45.5642C44.0535 45.5789 43.8178 45.5822 43.7597 45.6331C43.7949 45.6019 43.9761 45.6069 43.8213 45.6233L43.5697 45.6512C43.1739 45.6972 42.7781 45.7432 42.3805 45.7859C39.9177 46.0569 37.4549 46.2638 34.9727 46.3738C31.6036 46.5368 28.2267 46.4885 24.8645 46.2293L24.2312 46.1735L23.8794 46.1406L23.7035 46.1242H23.6947C23.2303 46.0848 22.7659 46.024 22.3032 45.96C21.4025 45.845 20.5018 45.7103 19.6082 45.5494C17.8116 45.2344 16.0401 44.8053 14.306 44.2651C13.8838 44.1315 13.4646 43.9914 13.0482 43.8446L12.8864 43.7855C12.7017 43.7182 13.0447 43.8447 12.86 43.7757L12.5381 43.6541C12.3252 43.572 12.1124 43.4899 11.9013 43.4029C11.0874 43.0744 10.2916 42.7065 9.51408 42.2992C8.74676 41.8993 8.0033 41.4607 7.28698 40.9854L7.14976 40.8934C7.3116 41.0018 7.14976 40.8934 7.12689 40.8753L6.90172 40.7111C6.70645 40.5715 6.5147 40.4303 6.32471 40.2841C5.99047 40.0279 5.66327 39.7618 5.34662 39.4859C5.11617 39.2839 4.891 39.0803 4.67638 38.8651C4.58256 38.7721 4.49108 38.6768 4.40195 38.5794L4.29112 38.4578C4.27001 38.4332 4.2489 38.4069 4.22603 38.3839C4.40195 38.5596 4.28057 38.4447 4.24186 38.4003C3.91455 38.0142 3.61596 37.6076 3.34821 37.1834C3.20748 36.9644 3.07437 36.7361 2.94888 36.4985C2.89083 36.3918 2.83453 36.2834 2.78176 36.1701C2.76593 36.1405 2.75361 36.1093 2.73778 36.0814C2.85037 36.2817 2.78352 36.1766 2.76065 36.1274L2.66741 35.9631C2.449 35.4813 2.26161 34.9877 2.10624 34.485C1.94654 33.9648 1.81735 33.4368 1.71922 32.9035C1.70867 32.846 1.69987 32.7885 1.68756 32.7392C1.74033 32.9971 1.68756 32.7392 1.67876 32.6801C1.65765 32.5389 1.63654 32.3976 1.61895 32.2564C1.58377 31.9821 1.55562 31.7079 1.53451 31.4352C1.44799 30.2626 1.468 29.0852 1.59432 27.9157C1.59432 27.8451 1.61016 27.7745 1.61719 27.7039C1.62775 27.6086 1.59432 27.8878 1.61719 27.7482L1.63302 27.6316C1.65238 27.4772 1.67349 27.3212 1.69635 27.1652C1.74327 26.8521 1.79721 26.5389 1.8582 26.2258C1.97606 25.6165 2.12031 25.0105 2.28567 24.4094C2.46159 23.782 2.66038 23.1579 2.87851 22.542C2.98993 22.2278 3.1072 21.9163 3.23035 21.6076C3.29016 21.4548 3.35349 21.3021 3.41506 21.151C3.47663 20.9999 3.37636 21.238 3.41506 21.151C3.43089 21.1182 3.4432 21.0853 3.45728 21.0508L3.57866 20.7733C3.64375 20.6271 3.7106 20.4809 3.77745 20.3364C3.81439 20.2559 3.85485 20.1722 3.89003 20.0999L3.94808 19.962C3.9217 20.0244 3.91642 20.0375 3.93401 19.9981L4.00086 19.8601C4.15332 19.5415 4.31223 19.2256 4.47759 18.9125C4.79776 18.3048 5.1408 17.7081 5.5067 17.1224C5.88434 16.5147 6.28543 15.9207 6.70997 15.3405C7.15856 14.7065 7.52622 14.2417 8.03814 13.6587C12.2347 8.88391 17.9743 5.50583 24.3984 4.02976C26.1476 3.63958 27.9214 3.3527 29.7093 3.17082C29.7403 3.16864 29.7691 3.15505 29.7894 3.13302C29.8097 3.111 29.8198 3.08236 29.8175 3.05339C29.8151 3.02443 29.8006 2.99751 29.777 2.97857C29.7534 2.95963 29.7227 2.95021 29.6917 2.95239Z" fill="#1E2525"/>
<path d="M7.85167 12.8393C7.23274 12.2646 6.70812 11.6077 6.29481 10.8899C5.8944 10.1699 5.62453 9.39296 5.49615 8.59063C5.24987 6.99921 5.57004 5.3339 6.61146 4.02825C7.62006 2.76509 9.03075 1.8321 10.6417 1.36275C11.4489 1.12778 12.2974 1.04187 13.1397 1.10983C13.1397 1.10983 13.3455 1.1279 13.233 1.10983L13.3596 1.12462C13.4652 1.13775 13.5707 1.15418 13.6745 1.1706C13.905 1.21002 14.1319 1.25929 14.3571 1.31841C14.7374 1.41164 15.1074 1.53868 15.4618 1.69779C16.3172 2.08364 17.0979 2.59982 17.7716 3.22515C18.1234 3.53226 18.4524 3.86401 18.7937 4.18263C19.107 4.51543 19.3559 4.89668 19.529 5.30926C19.6627 5.58189 20.1166 5.37167 20.0321 5.0974C19.8984 4.66383 19.6803 4.27624 19.5167 3.85744C19.3625 3.44441 19.1399 3.0565 18.857 2.70782C18.2414 1.98275 17.4733 1.38303 16.6 0.945602C14.8917 0.0505512 12.8886 -0.221383 10.978 0.182377C9.06739 0.586138 7.385 1.63691 6.25611 3.13154C5.19225 4.58049 4.6896 6.32488 4.83119 8.07658C5.00711 9.98168 5.94122 11.9787 7.63002 13.1218C7.80594 13.245 7.99417 12.9773 7.85167 12.8393Z" fill="#1E2525"/>
<path d="M11.0656 9.84986C10.0102 8.96793 9.70582 7.24842 10.5027 6.12835C11.268 5.05427 12.8336 4.56322 14.1108 5.09862C14.4601 5.23976 14.7795 5.43835 15.0537 5.68493C15.3615 5.96248 15.5199 6.31558 15.7855 6.61941C16.0142 6.88218 16.5789 6.6539 16.5226 6.31558C16.4487 5.87051 16.1303 5.49442 15.8031 5.16595C15.5071 4.87886 15.1616 4.64015 14.781 4.45975C13.988 4.07883 13.0687 3.99653 12.2126 4.22983C10.5977 4.68803 9.4349 6.21375 9.63897 7.7986C9.77055 8.64621 10.2516 9.41232 10.9795 9.93362C11.041 9.97796 11.1255 9.89913 11.0656 9.84986Z" fill="#1E2525"/>
<path d="M58.6457 15.1817C60.2395 14.2982 61.3091 12.6427 61.7612 11.0004C62.222 9.29892 62.0419 7.50129 61.251 5.90915C60.4266 4.2696 58.9849 2.97041 57.2008 2.25901C55.4166 1.54761 53.4144 1.47369 51.5756 2.05133C50.5085 2.37436 49.5303 2.91199 48.71 3.62632C48.3124 3.97614 47.9832 4.38795 47.7371 4.84328C47.5049 5.29985 47.234 5.72685 47.0335 6.1982C46.9174 6.47904 47.3959 6.63342 47.5472 6.38707C47.7473 6.0188 48.0086 5.68236 48.3212 5.39018C48.6414 5.12412 48.9738 4.86628 49.3046 4.61172C49.2359 4.66591 49.3978 4.54438 49.3872 4.55095L49.4893 4.47869L49.7443 4.29967C49.9361 4.17322 50.1261 4.04019 50.3214 3.91865C50.5166 3.79712 50.6837 3.70351 50.872 3.60661C50.9652 3.55734 51.0602 3.51136 51.157 3.46702L51.2713 3.41282L51.3575 3.37505C51.7684 3.20238 52.1953 3.06495 52.6329 2.96446C53.0257 2.86678 53.4284 2.80788 53.8344 2.78874C54.6706 2.72813 55.5113 2.82589 56.306 3.07614C57.0842 3.32064 57.8162 3.67813 58.4751 4.13544C59.1346 4.60749 59.7155 5.16814 60.1991 5.79912C60.697 6.44484 61.0512 7.17724 61.2407 7.95299C61.4301 8.72875 61.451 9.53209 61.3021 10.3155C61.1443 11.2106 60.8109 12.0708 60.3187 12.8529C59.8102 13.6346 59.165 14.3313 58.41 14.914C58.2429 15.0471 58.468 15.2852 58.6457 15.185V15.1817Z" fill="#1E2525"/>
<path d="M55.5902 11.7371C56.2713 11.328 56.7865 10.7182 57.0538 10.0044C57.3096 9.25976 57.2536 8.45229 56.8973 7.74459C56.5576 7.03342 55.9714 6.44971 55.2331 6.08748C54.4465 5.70872 53.5345 5.62528 52.6841 5.85427C52.2185 5.9783 51.7839 6.18705 51.4051 6.4685C51.0181 6.75427 50.5572 7.15007 50.4358 7.61813C50.4157 7.70461 50.426 7.79486 50.4652 7.87543C50.5045 7.95599 50.5706 8.02256 50.6536 8.06522C50.7367 8.10787 50.8323 8.12432 50.9262 8.11212C51.0201 8.09992 51.1073 8.05972 51.1747 7.99751C51.2833 7.87855 51.3832 7.7529 51.4738 7.62142C51.5892 7.481 51.7188 7.35121 51.8608 7.23383C52.1014 7.03191 52.3775 6.87023 52.677 6.75591C53.3072 6.50326 54.0118 6.4632 54.6701 6.64259C55.3382 6.82852 55.9126 7.23221 56.2887 7.78018C56.6649 8.32815 56.8178 8.98399 56.7196 9.62834C56.5876 10.4134 56.2253 11.1623 55.5251 11.6451C55.4618 11.6895 55.5251 11.7847 55.5902 11.7437V11.7371Z" fill="#1E2525"/>
</svg>
