<svg width="71" height="43" viewBox="0 0 71 43" fill="none" xmlns="http://www.w3.org/2000/svg">
<path d="M61.5094 31.6033C61.5284 31.7751 61.5457 31.9469 61.5631 32.1187C61.5773 32.0241 61.5915 31.9296 61.6104 31.8365C61.6467 31.6458 61.9023 31.7167 61.926 31.8775C61.9575 32.1691 61.9796 32.4592 61.9985 32.7492C62.0064 32.642 62.0159 32.5333 62.0222 32.4261C62.0348 32.2243 62.3504 32.2227 62.3377 32.4261C62.2809 33.3593 62.18 34.2893 62.0664 35.2177C62.0664 35.5677 62.049 35.9176 62.0253 36.2675C62.0253 36.3479 62.0143 36.4252 62.008 36.5087C62.0405 37.5136 61.9851 38.5195 61.8423 39.5147C61.8415 39.5258 61.8415 39.5368 61.8423 39.5478C61.841 39.6102 61.8639 39.6707 61.9063 39.7166C61.9487 39.7624 62.0072 39.7901 62.0695 39.7937H62.7006C63.8224 39.7386 64.9457 39.7386 66.0675 39.7559C67.164 39.562 68.2684 39.3871 69.3807 39.2673C69.4055 39.2168 69.425 39.164 69.439 39.1096C69.5258 38.7723 69.4738 38.394 69.4611 38.0504C69.4338 37.3032 69.3907 36.5576 69.3318 35.8136C69.0935 32.8341 68.5984 29.8807 67.8519 26.9863C67.1061 24.0914 66.1187 21.2641 64.8999 18.5341C63.6834 15.8029 62.2367 13.1799 60.5754 10.6935C58.9166 8.20723 57.0453 5.86922 54.9824 3.70578C54.9548 3.67604 54.92 3.6538 54.8814 3.64115C54.629 3.29594 54.3766 2.94915 54.1226 2.60394L53.8812 2.09479C53.7502 1.81894 53.3321 2.04278 53.4631 2.31705C53.4757 2.34543 53.4899 2.37223 53.5025 2.4006C53.4936 2.43616 53.4927 2.47325 53.4997 2.50921C53.5068 2.54518 53.5218 2.57914 53.5435 2.60867L53.7092 2.83408L53.8749 3.18245C53.8307 3.21368 53.8 3.26057 53.7892 3.31356C53.7783 3.36656 53.7881 3.4217 53.8165 3.46776L54.9619 5.46809C54.9794 5.50232 55.0054 5.53147 55.0375 5.55273C55.0696 5.57399 55.1065 5.58664 55.1449 5.58947C55.3374 6.10229 55.5257 6.61564 55.7097 7.12952C56.122 8.28548 56.5139 9.44669 56.8851 10.6132C57.6298 12.9482 58.2925 15.3069 58.8731 17.6892C59.4537 20.0715 59.9491 22.4812 60.3593 24.9181C60.7316 27.0871 61.0356 29.2672 61.2712 31.4582C61.2964 31.4499 61.3231 31.4472 61.3495 31.4502C61.3758 31.4532 61.4012 31.4619 61.4239 31.4757C61.4466 31.4895 61.4659 31.508 61.4807 31.5301C61.4955 31.5521 61.5053 31.5771 61.5094 31.6033Z" fill="#123045"/>
<path d="M62.5101 25.9821C62.172 22.5574 61.4121 19.1875 60.2476 15.9489C59.5954 14.1153 58.8385 12.3206 57.9804 10.5737C57.9602 10.5315 57.9255 10.4979 57.8826 10.4791C57.5587 9.57955 57.2289 8.68211 56.8934 7.78677C56.5132 6.78424 56.1645 5.73757 55.6139 4.81858C55.3264 4.3158 54.9482 3.8706 54.4984 3.50552C54.5091 3.47566 54.5134 3.44392 54.5111 3.4123C54.5088 3.38069 54.5 3.34989 54.4851 3.32187C54.4703 3.29386 54.4498 3.26923 54.4249 3.24956C54.4 3.22988 54.3713 3.21559 54.3406 3.2076C53.2962 2.85976 52.2375 2.55711 51.1647 2.29964C51.1609 2.2414 51.1358 2.18659 51.0942 2.14561C51.0526 2.10463 50.9974 2.08035 50.9391 2.07738L49.871 2.01276C47.4434 1.51426 44.9734 1.25032 42.4951 1.2246C41.3592 1.21304 40.2248 1.25298 39.092 1.3444C39.0386 1.34625 38.9874 1.3661 38.9467 1.40074C38.906 1.43537 38.8783 1.48274 38.868 1.53514C35.3321 1.45646 31.7946 1.58383 28.2736 1.9166C26.0059 2.12678 23.7487 2.4268 21.502 2.81667C21.5202 2.76152 21.5175 2.70164 21.4946 2.6483C21.4717 2.59495 21.43 2.55183 21.3774 2.52703C21.3249 2.50223 21.2651 2.49748 21.2093 2.51367C21.1535 2.52985 21.1055 2.56585 21.0744 2.6149C21.0097 2.72209 20.9482 2.83243 20.8835 2.93962C20.8568 2.95631 20.8348 2.97956 20.8196 3.00715C20.8044 3.03474 20.7965 3.06576 20.7968 3.09725C20.7729 3.06855 20.7424 3.04599 20.708 3.03148C20.6735 3.01697 20.6361 3.01093 20.5989 3.01386C20.5616 3.0168 20.5256 3.02862 20.4939 3.04834C20.4622 3.06807 20.4356 3.09511 20.4165 3.1272C16.8167 9.33583 14.1407 16.035 12.4727 23.0139C12.0067 24.9685 11.6218 26.941 11.3178 28.9313C11.3082 28.9885 11.3186 29.0471 11.3474 29.0974C11.3761 29.1477 11.4214 29.1865 11.4756 29.2072C11.3241 30.2097 11.1932 31.2144 11.0827 32.2211C11.037 32.1833 10.9896 32.147 10.9455 32.1076C10.7167 31.9074 10.3806 32.24 10.611 32.4418C11.7722 33.4601 13.2458 33.955 14.702 34.3932C16.3849 34.9019 18.0794 35.3748 19.7854 35.8119C20.467 35.9843 21.1507 36.1493 21.8365 36.3069C21.8669 36.3574 21.9145 36.3955 21.9706 36.4141C23.3445 36.9231 24.7568 37.3221 26.1941 37.6073C26.238 37.6149 26.283 37.6108 26.3247 37.5954C26.3664 37.5799 26.4033 37.5538 26.4316 37.5196C26.46 37.4853 26.4788 37.4442 26.4861 37.4004C26.4934 37.3566 26.587 37.5205 26.5714 37.4789C27.7736 37.6965 27.8024 37.8523 29.013 38.0215V38.334C28.6486 38.334 29.9002 37.9194 29.5357 37.9194C28.9646 37.9273 28.3398 37.9762 27.8681 38.334C27.6716 38.4759 27.5165 38.6675 27.4186 38.8891C27.3207 39.1108 28.8917 37.3031 28.3348 38.5641C28.4247 39.0875 28.2542 38.2363 28.7417 38.334C29.3728 38.4585 31.7761 39.0658 32.4103 39.1067C33.1203 39.1524 33.4577 39.0689 34.1677 39.1067C36.9855 39.2644 38.4053 39.4615 41.2215 39.2424C42.5985 39.1384 43.5287 39.1912 44.884 38.9267C45.5703 38.7911 46.2467 38.8889 46.9188 38.6998C47.411 38.5611 47.7531 38.9571 48.004 38.4747C48.0777 38.3347 48.4384 38.6326 48.448 38.4747C48.4575 38.3168 48.4333 38.1587 48.3769 38.0109L48.4179 38.003C49.253 37.8895 50.0845 37.7587 50.9123 37.6105C52.6194 37.3047 54.3102 36.9253 55.9846 36.4724C56.8261 36.2433 57.6675 35.9963 58.509 35.7315C59.3017 35.4975 60.0794 35.2153 60.8377 34.8866C61.1621 34.7388 61.4739 34.5648 61.7701 34.3664C61.8066 34.3648 61.8426 34.3584 61.8774 34.3475C62.1819 34.2498 62.3081 34.0023 62.3507 33.7076C62.4691 32.8548 62.5558 31.9988 62.6063 31.1397C62.7052 29.4206 62.6731 27.6964 62.5101 25.9821Z" fill="#8689CB"/>
<path d="M32.6201 18.4067C28.1599 31.088 46.2358 31.3765 45.4233 22.3474C44.3473 10.3707 34.7784 12.267 32.6201 18.4067Z" fill="#D8EEFE"/>
<path d="M18.8324 4.52744L18.5704 5.02713L17.7721 6.03439C17.7325 6.04503 17.6965 6.06629 17.668 6.09587C15.5221 8.17678 13.5605 10.4393 11.8052 12.8582C8.29 17.7112 5.61687 23.1204 3.89766 28.8593C3.03924 31.7225 2.42904 34.6542 2.07381 37.622C1.98336 38.3629 1.91078 39.1064 1.85609 39.8525C1.83085 40.1945 1.76458 40.5713 1.83716 40.9118C1.87441 41.0775 1.96119 41.2281 2.086 41.3435C2.21081 41.4589 2.36777 41.5337 2.53609 41.558C2.92405 41.6102 3.31535 41.6333 3.70675 41.6274L5.10935 41.692L7.83564 41.815L9.16093 41.8765C9.22319 41.8749 9.28246 41.8494 9.3265 41.8054C9.37054 41.7614 9.39599 41.7022 9.39759 41.64C9.57114 39.1915 9.8283 36.7514 10.1691 34.3196C10.5099 31.8879 10.9359 29.4751 11.447 27.0812C11.9582 24.6726 12.5525 22.283 13.2299 19.9122C13.9041 17.5572 14.6582 15.2264 15.4923 12.9197C15.913 11.7637 16.3506 10.6188 16.805 9.48493C17.008 8.97736 17.2183 8.47136 17.4361 7.96695C17.4745 7.96586 17.512 7.95483 17.5449 7.93494C17.5778 7.91504 17.605 7.88697 17.6238 7.85345L18.845 5.89883C18.8755 5.85424 18.8878 5.79964 18.8793 5.74628C18.8708 5.69291 18.8421 5.64484 18.7992 5.61194L18.9791 5.26988L19.1526 5.05078C19.1752 5.02221 19.1912 4.98909 19.1997 4.9537C19.2081 4.91831 19.2088 4.88151 19.2015 4.84586L19.2441 4.76389C19.3814 4.49749 18.9743 4.25789 18.8324 4.52744Z" fill="#123045"/>
<path d="M40.4865 16.5082C40.4555 16.4942 40.4219 16.487 40.3879 16.487C40.3539 16.487 40.3203 16.4942 40.2893 16.5082C40.2128 16.4629 40.1326 16.4244 40.0495 16.3931C39.5773 16.226 39.0931 16.0948 38.6011 16.0006C38.4261 15.9556 38.2485 15.9209 38.0694 15.8965L38.0268 15.8887L37.9637 15.8776C37.7839 15.8556 37.6987 16.0589 37.746 16.2055C37.6578 16.1552 37.5603 16.1234 37.4594 16.1121C37.3585 16.1007 37.2563 16.1099 37.1591 16.1393C37.0691 16.1676 36.9862 16.2149 36.9161 16.278C36.8703 16.3038 36.8275 16.3344 36.7883 16.3694C36.7139 16.44 36.6543 16.5248 36.6131 16.6187C36.5719 16.7127 36.55 16.8139 36.5485 16.9164C36.527 16.9427 36.5113 16.9733 36.5025 17.0062C36.4937 17.039 36.492 17.0734 36.4976 17.1069C36.5031 17.1405 36.5157 17.1725 36.5345 17.2008C36.5534 17.2291 36.578 17.253 36.6069 17.2711L36.659 17.3026C36.743 17.4288 36.8606 17.5291 36.9986 17.5923C37.1365 17.6555 37.2893 17.6791 37.4399 17.6604C37.5626 17.6448 37.6796 17.5993 37.7807 17.528C37.9105 17.7053 38.0988 17.8309 38.3124 17.8827C38.4731 17.919 38.6407 17.9103 38.7968 17.8575C38.9185 17.8534 39.0379 17.8232 39.1468 17.7687C39.2557 17.7143 39.3516 17.6371 39.4278 17.5422C39.5035 17.6045 39.5927 17.6484 39.6882 17.6703C39.7838 17.6921 39.8832 17.6915 39.9785 17.6683C40.0651 17.6467 40.1459 17.6064 40.2151 17.5501C40.2613 17.5499 40.307 17.5403 40.3492 17.5217C40.4118 17.4936 40.4672 17.4517 40.5114 17.3994C40.5556 17.347 40.5875 17.2854 40.6048 17.2191C40.7705 17.0078 40.7642 16.6374 40.4865 16.5082ZM39.5604 17.0362C39.5563 17.008 39.5505 16.9802 39.543 16.9527C39.6655 17.0079 39.7764 17.0861 39.8696 17.1828L39.8838 17.2002C39.7623 17.2522 39.6487 17.1513 39.5604 17.0362Z" fill="#F9D858"/>
<path d="M40.2088 16.2876C39.8299 16.2439 39.4569 16.1588 39.0966 16.0338C38.7625 15.9297 38.4199 15.8559 38.0726 15.8131C37.462 15.7548 36.8357 15.9156 36.4633 16.4326C36.1478 16.8676 36.1162 17.5013 36.5438 17.8765C36.6416 17.9676 36.7565 18.0384 36.8818 18.0848C37.0072 18.1312 37.1405 18.1523 37.2741 18.1468C37.4077 18.1413 37.5388 18.1094 37.66 18.0528C37.7811 17.9963 37.8898 17.9163 37.9797 17.8175C38.0697 17.7186 38.139 17.6029 38.1839 17.4771C38.2287 17.3513 38.2481 17.2178 38.2409 17.0844C38.2337 16.951 38.2 16.8204 38.1419 16.7001C38.0838 16.5798 38.0023 16.4723 37.9022 16.3837C37.8766 16.3596 37.8458 16.3416 37.8121 16.3311C37.7785 16.3206 37.7429 16.318 37.7081 16.3233C37.6733 16.3286 37.6401 16.3418 37.6112 16.3618C37.5822 16.3818 37.5582 16.4082 37.5409 16.4389C37.1654 17.1403 37.5725 18.1728 38.4055 18.2847C39.2385 18.3967 39.9312 17.413 39.5288 16.6753C39.5088 16.6438 39.481 16.618 39.448 16.6004C39.4151 16.5829 39.3781 16.5741 39.3408 16.5751C39.3034 16.576 39.267 16.5866 39.235 16.6059C39.2029 16.6251 39.1765 16.6523 39.1581 16.6848C38.8757 17.3311 39.5399 18.1791 40.2499 17.8907C40.8399 17.6495 40.9488 16.7526 40.4534 16.3632C40.4298 16.3434 40.4023 16.3287 40.3727 16.3199C40.3432 16.3111 40.3121 16.3085 40.2815 16.3122C40.2509 16.3158 40.2213 16.3258 40.1947 16.3413C40.1681 16.3568 40.1449 16.3777 40.1266 16.4025C40.1084 16.4273 40.0954 16.4556 40.0885 16.4857C40.0816 16.5157 40.081 16.5468 40.0866 16.5771C40.0923 16.6074 40.104 16.6363 40.1213 16.6618C40.1385 16.6874 40.1608 16.7092 40.1868 16.7258C40.4376 16.8834 40.3666 17.3421 40.1268 17.4777C39.8113 17.6589 39.3963 17.2065 39.5352 16.8913L39.1644 16.9007C39.4074 17.3468 38.8978 17.9632 38.415 17.8465C37.9322 17.7299 37.7161 17.0757 37.9417 16.6611L37.5804 16.7163C37.8801 16.9937 37.7839 17.588 37.3469 17.6621C37.2466 17.6802 37.1432 17.6698 37.0486 17.632C36.954 17.5941 36.8719 17.5305 36.8118 17.4482C36.7518 17.366 36.7161 17.2685 36.7088 17.167C36.7016 17.0654 36.7232 16.9638 36.771 16.8739C37.0155 16.3175 37.6719 16.2261 38.213 16.275C38.538 16.3049 38.8567 16.3837 39.177 16.4326C39.518 16.4943 39.8663 16.5049 40.2104 16.4641C40.2324 16.4612 40.2526 16.4504 40.2672 16.4337C40.2819 16.4171 40.2899 16.3956 40.2899 16.3735C40.2899 16.3513 40.2819 16.3299 40.2672 16.3132C40.2526 16.2965 40.2324 16.2857 40.2104 16.2828L40.2088 16.2876Z" fill="#0B2538"/>
<path d="M38.6375 17.8863C38.5142 18.0399 38.4317 18.2221 38.3977 18.416C38.333 18.6445 38.2777 18.8763 38.2273 19.108C38.1263 19.5572 38.0521 20.0144 37.9953 20.4731C37.9385 20.9318 37.8975 21.3637 37.8833 21.8113C37.8691 22.259 37.8202 22.7808 37.9259 23.23C37.9796 23.457 38.3693 23.4617 38.3992 23.219C38.456 22.7823 38.3992 22.3189 38.3992 21.8775C38.3992 21.4362 38.426 20.9775 38.4639 20.5298C38.5018 20.0821 38.5602 19.6502 38.6217 19.2136C38.6564 18.9898 38.6974 18.7691 38.7384 18.5468C38.7977 18.3465 38.8128 18.1356 38.7826 17.9289C38.7781 17.913 38.7694 17.8986 38.7575 17.8872C38.7456 17.8758 38.7309 17.8677 38.7148 17.8639C38.6987 17.86 38.6819 17.8605 38.6661 17.8653C38.6503 17.8701 38.6361 17.879 38.6248 17.8911L38.6375 17.8863Z" fill="#0B2538"/>
<path d="M35.5532 19.4891C35.1666 20.0692 35.2282 20.9361 35.438 21.5651C35.6647 22.2488 36.1279 22.8294 36.7443 23.2028C38.0444 23.98 39.8051 23.7293 40.7738 22.5503C41.2897 21.9197 41.6574 21.0354 41.4665 20.2189C41.4018 19.9446 41.0373 20.0534 41.0152 20.2914C40.9553 20.9219 40.8417 21.5115 40.4678 22.0364C40.1093 22.5431 39.579 22.9027 38.9752 23.0484C38.3762 23.1887 37.747 23.1171 37.1949 22.8458C36.6427 22.5744 36.2019 22.1201 35.9476 21.5603C35.8132 21.2456 35.7301 20.9114 35.7015 20.5704C35.6888 20.2254 35.7062 19.8799 35.7535 19.5379C35.763 19.4213 35.6052 19.4103 35.5532 19.4891Z" fill="#0B2538"/>
<path d="M48.9873 17.1074C50.6707 17.1074 50.6045 14.4971 48.9226 14.4971C47.2408 14.4971 47.3055 17.1074 48.9873 17.1074Z" fill="#0B2538"/>
<path d="M50.0443 16.1213C50.0552 16.1193 50.065 16.1136 50.0721 16.1051C50.0792 16.0966 50.0831 16.0859 50.0831 16.0748C50.0831 16.0638 50.0792 16.0531 50.0721 16.0446C50.065 16.0361 50.0552 16.0303 50.0443 16.0283C50.0335 16.0303 50.0236 16.0361 50.0166 16.0446C50.0095 16.0531 50.0056 16.0638 50.0056 16.0748C50.0056 16.0859 50.0095 16.0966 50.0166 16.1051C50.0236 16.1136 50.0335 16.1193 50.0443 16.1213Z" fill="#D8EEFE"/>
<path d="M50.1942 16.5643C50.3162 16.563 50.4348 16.5245 50.5343 16.4541C50.6338 16.3837 50.7095 16.2847 50.7512 16.1702C50.7877 16.0959 50.804 16.0132 50.7985 15.9306C50.789 15.8754 50.7811 15.8218 50.7717 15.773C50.7409 15.6702 50.6838 15.5773 50.606 15.5034L50.4782 15.4104C50.3818 15.3572 50.2729 15.3305 50.1627 15.3332C50.0793 15.3313 49.997 15.352 49.9245 15.3931C49.8511 15.4231 49.785 15.4685 49.7306 15.5261C49.6761 15.5838 49.6347 15.6523 49.6089 15.7273C49.5724 15.8016 49.5561 15.8842 49.5616 15.9669C49.5695 16.022 49.5789 16.0772 49.5868 16.1245C49.6187 16.2271 49.6762 16.3199 49.7541 16.394L49.8819 16.487C49.978 16.541 50.0871 16.5677 50.1974 16.5643H50.1942Z" fill="#D8EEFE"/>
<path d="M27.199 14.9087L27.1911 14.9008C27.2416 15.0127 27.2937 15.1246 27.3489 15.2381V15.216C27.221 14.8497 26.9694 14.5393 26.6374 14.338L26.2682 14.1993C26.0051 14.1343 25.7293 14.1414 25.4699 14.2198C25.3319 14.2557 25.2015 14.316 25.0849 14.3979C24.8687 14.5321 24.6906 14.7193 24.5674 14.9418C24.4668 15.109 24.4123 15.2999 24.4096 15.4951C24.3704 15.6912 24.3846 15.8942 24.4506 16.083C24.5261 16.3264 24.663 16.5463 24.8482 16.7214L24.8672 16.734L25.1827 16.961C25.3018 17.0202 25.4259 17.0687 25.5535 17.106C25.947 17.186 26.3563 17.1223 26.7068 16.9263L27.005 16.6852C27.1835 16.4966 27.3106 16.2654 27.3742 16.0137V15.9963C27.2564 16.2065 27.1391 16.4167 27.0223 16.6268V16.6158L27.2369 16.3242C27.3354 16.1653 27.3899 15.983 27.3947 15.7961C27.4247 15.6724 27.4214 15.543 27.3852 15.421C27.373 15.2346 27.3109 15.0549 27.2053 14.9008L27.199 14.9087Z" fill="#0B2538"/>
<path d="M24.162 15.435L24.1399 15.454L24.0658 15.5533L24.02 15.6699C24.0034 15.7335 24.0034 15.8002 24.02 15.8638C24.0211 15.9068 24.0336 15.9487 24.0563 15.9852C24.0682 16.025 24.0905 16.0609 24.121 16.0892C24.1426 16.1247 24.173 16.154 24.2093 16.1743C24.2403 16.2027 24.2776 16.2232 24.3182 16.2342C24.3764 16.2629 24.4412 16.2755 24.5059 16.2705L24.6337 16.25L24.7473 16.198L24.8436 16.1207L24.9161 16.0214L24.9635 15.9048C24.9801 15.8412 24.9801 15.7745 24.9635 15.7109C24.9626 15.6684 24.9501 15.6269 24.9272 15.5911C24.9076 15.53 24.8716 15.4755 24.8231 15.4335L24.8026 15.4145C24.7625 15.3713 24.7111 15.3402 24.6542 15.3247C24.6001 15.2974 24.5396 15.2854 24.4791 15.29L24.3592 15.3089C24.2838 15.3311 24.2158 15.373 24.162 15.4303V15.435Z" fill="#D8EEFE"/>
<path d="M21.3062 2.26882C20.6946 2.69171 20.1073 3.1485 19.547 3.63706C18.9864 4.10365 18.4358 4.58179 17.8951 5.0715C16.8018 6.06142 15.7557 7.10493 14.7507 8.18628C12.73 10.3693 10.8887 12.7113 9.24449 15.1898C7.61642 17.654 6.20236 20.2528 5.01778 22.9579C3.81627 25.6837 2.83136 28.4998 2.07218 31.3801C1.31841 34.2708 0.799238 37.2175 0.519704 40.1916C0.486572 40.5526 0.486572 40.9151 0.486572 41.2777C0.491578 41.4233 0.548575 41.5623 0.647254 41.6696C0.745933 41.7768 0.879777 41.8453 1.02457 41.8625C1.30068 41.8925 1.63831 41.7049 1.68248 41.4101C1.74401 41.0034 1.8087 40.5983 1.84026 40.19C1.85603 40.0245 1.87181 39.859 1.88916 39.6935C1.88916 39.6525 1.88916 39.6115 1.90179 39.5706C1.90179 39.5706 1.92387 39.3735 1.91283 39.4728C1.90179 39.5721 1.91283 39.4255 1.91283 39.4082C1.92072 39.3451 1.92703 39.2837 1.93492 39.2222C2.01906 38.5002 2.11741 37.7799 2.22995 37.0611C2.45925 35.6151 2.74587 34.1801 3.08981 32.7562C3.43375 31.3323 3.82871 29.9335 4.27468 28.56C4.49976 27.8581 4.7401 27.1613 4.99569 26.4699C5.12191 26.1294 5.24971 25.7889 5.38223 25.45C5.39801 25.4122 5.41221 25.3728 5.42799 25.3349V25.3192C5.46112 25.2325 5.49583 25.1458 5.53054 25.0591C5.60154 24.8857 5.67096 24.7123 5.74353 24.5389C6.86529 21.8391 8.18523 19.2258 9.69256 16.7204C11.1733 14.2162 12.8321 11.8214 14.6561 9.55451C16.4957 7.28822 18.5091 5.16851 20.6782 3.21461C20.9496 2.97186 21.2146 2.73068 21.4671 2.47374C21.4849 2.45033 21.4944 2.42171 21.4943 2.39232C21.4942 2.36293 21.4845 2.33438 21.4665 2.31108C21.4486 2.28778 21.4235 2.27103 21.3951 2.26339C21.3667 2.25575 21.3365 2.25766 21.3093 2.26882H21.3062Z" fill="#0B2538"/>
<path d="M0.709075 41.7489C1.09147 41.8253 1.47822 41.8779 1.86712 41.9066C2.25366 41.9523 2.64178 41.9917 3.03148 42.028C3.79194 42.1005 4.5524 42.1635 5.31444 42.2124L7.59897 42.3558L8.70337 42.4268C9.0836 42.4504 9.50643 42.5276 9.88351 42.4851C10.0405 42.4798 10.1904 42.4186 10.3062 42.3125C10.4219 42.2064 10.4958 42.0624 10.5146 41.9066C10.5328 41.7511 10.4939 41.5942 10.4051 41.4652C10.3163 41.3362 10.1837 41.2438 10.0318 41.2051C9.62792 41.1121 9.17038 41.1373 8.75702 41.1169L7.65261 41.0648L5.37123 40.9561C4.60919 40.9198 3.85031 40.8962 3.08985 40.8836C2.72224 40.8836 2.35621 40.8725 1.98545 40.8741C1.59235 40.8604 1.19879 40.8704 0.806894 40.9041C0.703721 40.9086 0.605509 40.9496 0.529792 41.0197C0.454075 41.0899 0.40578 41.1846 0.393531 41.2871C0.382112 41.3891 0.407672 41.4917 0.465571 41.5765C0.523469 41.6612 0.609867 41.7224 0.709075 41.7489Z" fill="#0B2538"/>
<path d="M21.0237 1.77165C20.1733 2.81674 19.5122 4.02734 18.8512 5.20011C18.1901 6.37289 17.5543 7.56457 16.9579 8.78621C15.7541 11.2248 14.6576 13.7264 13.681 16.2642C12.7076 18.8045 11.8903 21.4018 11.2339 24.0417C10.5825 26.6783 10.0884 29.3511 9.75405 32.0462C9.40606 34.7741 9.21851 37.52 9.19238 40.2698C9.19238 40.605 9.19238 40.9402 9.19238 41.2755C9.19657 41.4502 9.27006 41.6162 9.3967 41.7368C9.52333 41.8574 9.69274 41.9228 9.86765 41.9186C10.0426 41.9144 10.2086 41.841 10.3294 41.7145C10.4501 41.5879 10.5155 41.4187 10.5114 41.2439C10.4858 38.5514 10.6048 35.8594 10.8679 33.1796C10.9326 32.5175 10.9957 31.969 11.0841 31.277C11.1724 30.585 11.2655 29.9245 11.3712 29.2498C11.5779 27.9257 11.824 26.6064 12.0938 25.2917C12.6328 22.6532 13.309 20.0446 14.1196 17.4764C14.9152 14.9085 15.87 12.3926 16.9784 9.94322C18.1095 7.49692 19.3736 5.1142 20.7649 2.8057C20.9369 2.51724 21.0805 2.21301 21.2225 1.91036C21.2777 1.79529 21.1215 1.65815 21.03 1.77007L21.0237 1.77165Z" fill="#0B2538"/>
<path d="M54.3832 2.49667C55.4876 4.73187 56.7309 6.91032 57.6018 9.25744C58.0404 10.4349 58.5232 11.5935 58.9365 12.7821C59.3499 13.9706 59.7064 15.1544 60.0488 16.354C60.3912 17.5535 60.6988 18.7878 60.9607 20.0205C61.0922 20.6373 61.2132 21.2552 61.3236 21.8742C61.4419 22.5426 61.5098 22.9682 61.6044 23.6334C61.9594 26.115 62.1502 28.6173 62.1756 31.124C62.1871 32.385 62.154 33.6434 62.0762 34.8992C62.0404 35.5161 61.9926 36.1319 61.9326 36.7467L61.8853 37.2196C61.8774 37.2873 61.8711 37.3551 61.8632 37.4213C61.8758 37.3094 61.8632 37.4213 61.8632 37.4418L61.849 37.5758C61.8122 37.8911 61.7743 38.2063 61.7354 38.5216C61.6965 38.8368 61.6534 39.149 61.606 39.4579C61.5555 39.8031 61.7165 40.194 62.0951 40.2713C62.4249 40.3375 62.8524 40.1531 62.9108 39.7826C63.3013 37.2335 63.5064 34.6595 63.5245 32.0808C63.5453 29.5507 63.3871 27.0223 63.0512 24.5145C62.7082 21.9604 62.1921 19.4325 61.5066 16.9482C60.8252 14.5059 59.963 12.1175 58.9271 9.80285C58.6588 9.19912 58.348 8.61589 58.0483 8.02793C57.7658 7.46834 57.4708 6.91348 57.1679 6.36335C56.5542 5.25047 55.882 4.17543 55.1642 3.12719C54.9859 2.86552 54.8029 2.61016 54.6073 2.3611C54.588 2.33499 54.5595 2.31708 54.5277 2.31093C54.4958 2.30479 54.4627 2.31086 54.4351 2.32793C54.4075 2.34501 54.3873 2.37184 54.3785 2.4031C54.3698 2.43437 54.3732 2.46776 54.3879 2.49667H54.3832Z" fill="#0B2538"/>
<path d="M62.0036 40.0588C62.3041 40.1085 62.6104 40.1133 62.9123 40.073C63.2152 40.0509 63.5134 40.062 63.8179 40.0305C64.4364 39.9642 65.0564 39.9327 65.6781 39.8902C66.2997 39.8476 66.8976 39.8255 67.5066 39.8255C67.8127 39.8255 68.1188 39.8255 68.4233 39.8381C68.772 39.8492 69.1254 39.9059 69.463 39.8035C69.5781 39.7673 69.6802 39.6984 69.7567 39.6052C69.8332 39.512 69.8808 39.3984 69.8937 39.2786C69.909 39.1571 69.8871 39.0339 69.8307 38.9253C69.7744 38.8166 69.6863 38.7276 69.5782 38.6701C69.3709 38.5784 69.147 38.5301 68.9203 38.5282L68.4627 38.5156C68.1472 38.5156 67.8316 38.5156 67.5082 38.5156C66.8845 38.5272 66.2623 38.5592 65.6418 38.6118C64.9933 38.6669 64.348 38.7789 63.7091 38.8955C63.4126 38.9578 63.1202 39.0378 62.8334 39.1351C62.5179 39.2328 62.1771 39.3132 61.9136 39.5103C61.865 39.5426 61.8266 39.5882 61.8031 39.6416C61.7795 39.695 61.7718 39.7541 61.7807 39.8118C61.7897 39.8694 61.815 39.9234 61.8536 39.9671C61.8923 40.0109 61.9427 40.0427 61.9988 40.0588H62.0036Z" fill="#0B2538"/>
<path d="M54.3737 2.49259C55.112 3.56606 55.9293 4.58435 56.7182 5.62156C57.507 6.65877 58.2533 7.77007 58.9759 8.87348C60.4124 11.0835 61.7132 13.3786 62.8713 15.7462C63.4661 16.9552 63.9378 18.0003 64.449 19.2424C64.9475 20.453 65.4119 21.6783 65.8421 22.9184C66.7012 25.4085 67.3953 27.9523 67.92 30.5335C68.0525 31.1861 68.1745 31.8413 68.286 32.4992C68.3112 32.6568 68.3365 32.8002 68.3602 32.9516C68.3396 32.8255 68.3728 33.0272 68.3775 33.0619C68.3933 33.1596 68.4075 33.2558 68.4233 33.3535C68.4722 33.6782 68.5179 34.0014 68.5605 34.3261C68.7341 35.6271 68.864 36.9317 68.9502 38.2401C68.9702 38.5669 68.9886 38.8942 69.0054 39.2221C69.01 39.4056 69.0874 39.5798 69.2206 39.7064C69.3537 39.8329 69.5317 39.9014 69.7154 39.8968C69.8991 39.8922 70.0734 39.8149 70.2001 39.6818C70.3267 39.5488 70.3953 39.371 70.3907 39.1874C70.2487 36.4958 69.9251 33.8168 69.422 31.1688C68.9284 28.5597 68.2622 25.9863 67.4277 23.4654C66.5821 20.9225 65.5637 18.4404 64.3796 16.0362C63.2058 13.6542 61.864 11.3585 60.3643 9.16668C59.6185 8.07167 58.8297 7.00766 57.9977 5.97465C57.1767 4.91213 56.2948 3.89792 55.3566 2.93711C55.1231 2.70697 54.8833 2.49101 54.6308 2.27664C54.4888 2.15526 54.249 2.32393 54.3658 2.49259H54.3737Z" fill="#0B2538"/>
<path d="M17.2309 4.02906C17.5789 4.03119 17.9264 4.00165 18.269 3.94079C18.5688 3.87774 18.9096 3.8068 19.1841 3.75321C19.8625 3.6208 20.5362 3.45844 21.2115 3.30869C22.5194 3.02023 23.8289 2.7428 25.1558 2.51108C25.8452 2.39128 26.3185 2.31562 27.0096 2.21158C27.6764 2.1065 28.3454 2.0156 29.0164 1.93888C30.3449 1.7781 31.6775 1.6541 33.0144 1.56688C35.6863 1.39377 38.3658 1.37114 41.0402 1.4991C42.3729 1.559 43.7071 1.65988 45.0429 1.80175L45.267 1.82539C45.3521 1.83485 45.2764 1.82539 45.267 1.82539L45.379 1.838C45.5525 1.85849 45.7261 1.87741 45.8996 1.89948C46.2351 1.93941 46.5701 1.98144 46.9046 2.02558C47.5757 2.1149 48.2436 2.21369 48.9083 2.32193C51.5388 2.7512 54.1426 3.33012 56.707 4.05586C57.032 4.14728 57.3554 4.24029 57.682 4.32541C57.869 4.37043 58.0661 4.34032 58.2311 4.24156C58.396 4.1428 58.5156 3.98328 58.564 3.79734C58.6061 3.61075 58.5748 3.41509 58.4763 3.25101C58.3779 3.08692 58.22 2.96702 58.0354 2.91619C56.7543 2.49374 55.4338 2.17375 54.1211 1.86795C52.8084 1.56215 51.48 1.2926 50.15 1.06246C47.4602 0.597987 44.7465 0.284859 42.0216 0.12456C39.3362 -0.0343772 36.644 -0.0412183 33.9579 0.104068C31.2217 0.247231 28.4964 0.55199 25.7963 1.01675C23.1505 1.47703 20.5078 2.03977 17.9866 2.97451C17.6654 3.10577 17.3587 3.27007 17.0715 3.46475C17.019 3.50323 16.9797 3.55701 16.959 3.6187C16.9383 3.68039 16.9372 3.74697 16.9559 3.80931C16.9745 3.87164 17.012 3.92668 17.0633 3.96688C17.1145 4.00707 17.1769 4.03044 17.2419 4.03379L17.2309 4.02906Z" fill="#0B2538"/>
<path d="M10.3333 32.9151C11.7532 33.8971 13.3578 34.5796 14.9387 35.2653C16.5654 35.9556 18.2299 36.5535 19.9243 37.056C23.2599 38.0923 26.6862 38.8111 30.1573 39.2029C33.6144 39.5835 37.0961 39.6931 40.5703 39.5308C44.0361 39.3621 47.486 38.9523 50.8949 38.3044C54.3129 37.6602 57.671 36.7311 60.9339 35.527C61.3331 35.3772 61.7228 35.2228 62.1203 35.0541C62.2251 35.0203 62.3127 34.9472 62.3645 34.8501C62.4163 34.7531 62.4283 34.6397 62.398 34.5339C62.3656 34.4298 62.2935 34.3425 62.1973 34.2909C62.1011 34.2393 61.9885 34.2275 61.8837 34.2581C60.2602 34.8586 58.6352 35.4513 56.9849 35.9762C55.3346 36.5011 53.6811 36.922 52.0072 37.2751C48.6601 38.0179 45.2513 38.449 41.8246 38.5629C38.3995 38.6771 34.9707 38.5242 31.5694 38.1058C28.1652 37.6768 24.7923 37.0281 21.472 36.1638C19.8012 35.7209 18.1462 35.218 16.5116 34.6506C15.6975 34.3763 14.8976 34.0973 14.104 33.7962C13.3105 33.4951 12.5074 33.1657 11.6933 32.8835C11.2973 32.748 10.9044 32.5966 10.5068 32.4705C10.2292 32.3838 10.1235 32.77 10.3333 32.9151Z" fill="#0B2538"/>
</svg>
