<svg width="75" height="49" viewBox="0 0 75 49" fill="none" xmlns="http://www.w3.org/2000/svg">
<path d="M73.795 26.9235C73.795 27.2766 73.7406 27.657 73.6047 28.0102C73.4687 28.3362 73.2785 28.6622 73.0338 28.9067C72.7891 29.1784 72.4901 29.3686 72.1638 29.5316C72.0551 29.5859 71.9464 29.6403 71.8376 29.6674C71.4842 29.2599 71.0764 28.8796 70.6687 28.5264C70.3153 28.2547 69.8803 28.0102 69.4182 28.0645C69.2007 28.0917 68.9832 28.1732 68.8201 28.309C68.657 28.4449 68.5482 28.635 68.4939 28.8524C68.3579 29.7218 69.255 30.4281 69.9619 30.727C70.5056 30.9443 71.1308 30.9715 71.7289 30.8628C72.0279 31.3247 72.2454 31.8137 72.4357 32.3571C72.925 33.8513 72.9522 35.5629 72.2726 36.8941C71.9464 37.5462 71.4842 38.1167 70.9133 38.6057C70.3424 39.0676 69.69 39.4208 68.9832 39.6109C68.9288 39.6109 68.9016 39.6381 68.8473 39.6381C68.5482 38.9589 68.1133 38.3612 67.5967 37.845C67.2433 37.519 66.7812 37.2202 66.2919 37.193C66.0744 37.1658 65.8569 37.2202 65.6666 37.3288C65.4763 37.4375 65.3132 37.5733 65.1773 37.7635C64.6608 38.5242 64.851 39.5838 65.585 40.1543C66.4006 40.8063 67.488 40.9965 68.521 40.8878C68.6026 41.4584 68.5754 42.0289 68.4667 42.5723C68.2764 43.3058 68.1133 43.9578 67.7055 44.637C66.9443 45.9139 65.5579 46.8105 64.1442 47.2452C62.6219 47.6799 61.0179 47.6799 59.4956 47.218C59.115 47.1093 58.7344 46.9735 58.3538 46.7833C57.9732 46.6203 57.5926 46.403 57.212 46.2128C56.478 45.7781 55.7712 45.2891 55.146 44.7185C54.8197 44.4469 54.5207 44.148 54.2217 43.822C54.1401 43.7677 54.0857 43.6861 54.0042 43.6318C53.9226 43.5503 53.8411 43.4688 53.7595 43.3601C53.8682 43.3058 53.977 43.2786 54.0857 43.2243C54.6566 43.0069 55.2003 42.7624 55.7712 42.5179C56.0974 42.3821 56.3965 42.2191 56.6955 42.0832C57.212 41.8387 56.8314 40.9693 56.2877 41.1595C55.6353 41.404 54.9828 41.6757 54.3304 41.9202C53.8139 42.1104 53.2702 42.3006 52.7265 42.4908C51.5303 42.8983 50.307 43.2515 49.0837 43.5775C46.6642 44.2023 44.2175 44.6099 41.7165 44.8544C39.1883 45.0989 36.66 45.1261 34.1318 44.9902C31.6308 44.8272 29.1569 44.5012 26.7103 43.9578C25.4598 43.6861 24.2364 43.4145 23.0131 43.0613C22.7956 43.0069 22.551 42.9254 22.3335 42.8439C22.1975 42.7896 22.0344 42.7624 21.8985 42.7081C21.7082 42.6538 21.5179 42.5723 21.3276 42.5179C20.7024 42.3277 20.0499 42.1104 19.3975 41.9474C19.0984 41.8659 18.7994 41.7572 18.5004 41.6214C18.3916 41.5942 18.3373 41.7572 18.4188 41.7844C18.9897 42.0832 19.5606 42.3821 20.1315 42.6809C20.5121 42.8711 20.9198 43.0341 21.3004 43.1971C21.083 43.4416 20.8655 43.659 20.6208 43.9035C20.2946 44.2295 19.9412 44.5555 19.5606 44.8815C18.881 45.4521 18.1198 45.9683 17.3314 46.403C16.543 46.8376 15.6731 47.1637 14.8032 47.381C14.6944 47.4082 14.6129 47.4082 14.5042 47.4353L14.341 47.4625C14.3139 47.4625 14.2867 47.4625 14.2867 47.4625C14.2867 47.4625 14.2867 47.4625 14.3139 47.4625C14.0964 47.4897 13.8517 47.5168 13.6342 47.544C13.1993 47.5712 12.7643 47.5712 12.3293 47.544H12.1662C12.1662 47.544 12.139 47.544 12.0847 47.544C11.9487 47.5168 11.8672 47.5168 11.7585 47.4897C11.541 47.4625 11.3235 47.4082 11.106 47.3538C10.8885 47.2995 10.6982 47.2452 10.5079 47.1908L10.2361 47.0822C10.2089 47.0822 10.2089 47.0822 10.2089 47.055C10.2089 47.055 10.1817 47.055 10.1545 47.0278L9.96423 46.9463C9.20305 46.6203 8.52342 46.1584 7.95253 45.5607C7.68068 45.2891 7.43601 44.9902 7.24571 44.6642C7.19134 44.5827 7.13697 44.5012 7.10979 44.4197C7.0826 44.3382 7.02823 44.2567 7.00105 44.1752C7.00105 44.148 6.97386 44.148 6.97386 44.1208C6.94668 44.0665 6.91949 43.985 6.89231 43.9307C6.86512 43.822 6.81075 43.7405 6.78357 43.6318C6.5389 42.8983 6.43016 42.1376 6.45735 41.3769C6.45735 41.2139 6.45735 41.078 6.48453 40.915C6.51172 40.915 6.5389 40.915 6.56609 40.915C6.64764 40.915 6.7292 40.915 6.83794 40.915C6.97386 40.915 7.10979 40.915 7.24571 40.8878C8.1972 40.7792 9.31179 40.3173 9.71956 39.4479C10.073 38.7144 9.85549 37.6548 9.03994 37.356C8.08845 37.0028 7.16416 37.9265 6.64764 38.6057C6.40298 38.9317 6.21268 39.2849 6.04957 39.6653C5.36994 39.5023 4.7175 39.2034 4.14661 38.7687C3.52135 38.2797 3.00483 37.6548 2.65142 36.9485C2.62424 36.8941 2.59705 36.8126 2.56987 36.7311C2.5155 36.6225 2.48831 36.5409 2.46113 36.4323C2.37957 36.2421 2.3252 36.0248 2.29802 35.8074C2.24365 35.6172 2.21646 35.4271 2.21646 35.2369C2.18928 35.0195 2.18928 34.775 2.18928 34.5577C2.21646 33.7155 2.40676 32.8733 2.73298 32.1126C2.92328 31.6507 3.16794 31.1888 3.43979 30.7813C3.68446 30.8085 3.90194 30.8357 4.14661 30.8085C5.01653 30.7813 5.9952 30.4281 6.37579 29.5588C6.48453 29.3414 6.51172 29.1241 6.45735 28.8796C6.40298 28.6622 6.29424 28.4449 6.10394 28.309C5.66898 27.983 5.12527 28.0917 4.69031 28.309C4.25535 28.5535 3.87476 28.8252 3.52135 29.1784C3.30387 29.3957 3.08639 29.6403 2.86891 29.8848C2.48831 29.7489 2.13491 29.5044 1.89024 29.2056C1.37372 28.5807 1.10187 27.7928 1.12906 27.005C1.15624 26.6246 1.2378 26.2443 1.40091 25.9182C1.56402 25.5651 1.7815 25.2662 2.05335 24.9945C2.3252 24.75 2.59705 24.5598 2.92328 24.3968C3.00483 24.3425 3.08639 24.3153 3.16794 24.261C3.19513 24.261 3.19513 24.2338 3.22231 24.2338L3.41261 24.0708C3.6029 23.9893 3.7932 23.935 3.9835 23.8535C4.79905 23.6089 5.61461 23.4188 6.40298 23.2014C7.21853 23.0113 7.97971 22.7124 8.71371 22.3321C8.79527 22.2777 8.87682 22.2234 8.95838 22.1962C9.01275 22.169 9.06712 22.1419 9.12149 22.0875C9.14868 22.0604 9.20305 22.0604 9.23023 22.0332C14.7488 28.0373 25.4054 32.0854 37.6115 32.0854C49.7633 32.0854 60.3655 28.0645 65.9113 22.1419C66.2375 22.3321 66.5909 22.4951 66.9171 22.6309C66.9987 22.6581 67.0802 22.7124 67.189 22.7396C67.2705 22.7667 67.3521 22.7939 67.4336 22.8211C67.488 22.8482 67.5696 22.8754 67.6239 22.8754C67.7055 22.9026 67.8142 22.9297 67.8958 22.9569C68.0861 23.0113 68.2764 23.0656 68.4667 23.1199C68.6298 23.1743 68.7929 23.2014 68.9288 23.2286C69.3366 23.3373 69.7716 23.4188 70.1793 23.5274C70.9133 23.7176 71.593 23.935 72.2454 24.3153C72.8435 24.6413 73.2784 25.1847 73.5503 25.8096C73.7406 26.1627 73.795 26.5431 73.795 26.9235Z" fill="#EDD6B4"/>
<path d="M73.7951 26.9231C73.7951 27.2763 73.7407 27.6567 73.6048 28.0099C73.4688 28.3359 73.2785 28.6619 73.0339 28.9064C72.7892 29.1781 72.4902 29.3683 72.1639 29.5313C72.0552 29.5856 71.9465 29.6399 71.8377 29.6671C71.4843 29.2596 71.0765 28.8792 70.6688 28.526C70.3153 28.2544 69.8804 28.0099 69.4182 28.0642C69.2008 28.0914 68.9833 28.1729 68.8202 28.3087C68.6571 28.4445 68.5483 28.6347 68.4939 28.8521C68.358 29.7214 69.2551 30.4278 69.9619 30.7267C70.5056 30.944 71.1309 30.9712 71.729 30.8625C72.028 31.3244 72.2455 31.8134 72.4358 32.3567C72.9251 33.851 72.9523 35.5626 72.2727 36.8938C71.9464 37.5458 71.4843 38.1164 70.9134 38.6054C70.3425 39.0673 69.6901 39.4204 68.9833 39.6106C68.9289 39.6106 68.9017 39.6378 68.8474 39.6378C68.5483 38.9586 68.1134 38.3609 67.5968 37.8447C67.2434 37.5187 66.7813 37.2198 66.2919 37.1927C66.0745 37.1655 65.857 37.2198 65.6667 37.3285C65.4764 37.4372 65.3133 37.573 65.1774 37.7632C64.6608 38.5239 64.8511 39.5835 65.5851 40.154C66.4007 40.806 67.4881 40.9962 68.5211 40.8875C68.6027 41.458 68.5755 42.0286 68.4668 42.5719C68.2765 43.3055 68.1133 43.9575 67.7056 44.6367C66.9444 45.9136 65.5579 46.8102 64.1443 47.2448C62.6219 47.6795 61.018 47.6795 59.4957 47.2177C59.1151 47.109 58.7345 46.9732 58.3539 46.783C57.9733 46.62 57.5927 46.4026 57.2121 46.2125C56.4781 45.7778 55.7713 45.2887 55.146 44.7182C54.8198 44.4465 54.5208 44.1477 54.2217 43.8217C54.1402 43.7673 54.0858 43.6858 54.0043 43.6315C53.9227 43.55 53.8411 43.4685 53.7596 43.3598C53.8683 43.3055 53.9771 43.2783 54.0858 43.224C54.6567 43.0066 55.2004 42.7621 55.7713 42.5176C56.0975 42.3818 56.3966 42.2188 56.6956 42.0829C57.2121 41.8384 56.8315 40.969 56.2878 41.1592C55.6354 41.4037 54.9829 41.6754 54.3305 41.9199C53.814 42.1101 53.2703 42.3003 52.7266 42.4904C51.5304 42.898 50.3071 43.2511 49.0837 43.5772C46.6643 44.202 44.2176 44.6095 41.7166 44.8541C39.1884 45.0986 36.6601 45.1257 34.1319 44.9899C31.6309 44.8269 29.157 44.5009 26.7104 43.9575C25.4599 43.6858 24.2365 43.4141 23.0132 43.061C22.7957 43.0066 22.551 42.9251 22.3336 42.8436C22.1976 42.7893 22.0345 42.7621 21.8986 42.7078C21.7083 42.6534 21.518 42.5719 21.3277 42.5176C20.7024 42.3274 20.05 42.1101 19.3976 41.9471C19.0985 41.8656 18.7995 41.7569 18.5005 41.6211C18.3917 41.5939 18.3373 41.7569 18.4189 41.7841C18.9898 42.0829 19.5607 42.3818 20.1316 42.6806C20.5122 42.8708 20.9199 43.0338 21.3005 43.1968C21.083 43.4413 20.8656 43.6587 20.6209 43.9032C20.2947 44.2292 19.9413 44.5552 19.5607 44.8812C18.881 45.4518 18.1199 45.9679 17.3315 46.4026C16.5431 46.8373 15.6732 47.1633 14.8033 47.3807C14.6945 47.4079 14.613 47.4079 14.5042 47.435L14.3411 47.4622C14.3139 47.4622 14.2868 47.4622 14.2868 47.4622C14.2868 47.4622 14.2868 47.4622 14.3139 47.4622C14.0965 47.4894 13.8518 47.5165 13.6343 47.5437C13.1993 47.5709 12.7644 47.5709 12.3294 47.5437H12.1663C12.1663 47.5437 12.1391 47.5437 12.0848 47.5437C11.9488 47.5165 11.8673 47.5165 11.7585 47.4894C11.5411 47.4622 11.3236 47.4079 11.1061 47.3535C10.8886 47.2992 10.6983 47.2449 10.508 47.1905L10.2362 47.0818C10.209 47.0818 10.209 47.0818 10.209 47.0547C10.209 47.0547 10.1818 47.0547 10.1546 47.0275L9.96431 46.946C9.20313 46.62 8.5235 46.1581 7.95261 45.5604C7.68076 45.2887 7.4361 44.9899 7.2458 44.6639C7.0555 44.3379 6.89239 43.9847 6.75647 43.6315C6.5118 42.898 6.40306 42.1372 6.43025 41.3765C6.43025 41.2135 6.43025 41.0777 6.45743 40.9147C6.7021 40.9419 6.97395 40.9419 7.21862 40.9147C8.1701 40.806 9.28469 40.3442 9.69246 39.4748C10.0459 38.7412 9.82839 37.6817 9.01284 37.3828C8.06135 37.0297 7.13706 37.9534 6.62054 38.6326C6.37588 38.9586 6.18558 39.3118 6.02247 39.6921C5.34284 39.5291 4.6904 39.2303 4.11951 38.7956C3.49425 38.3066 2.97773 37.6817 2.62432 36.9753C2.59714 36.921 2.56995 36.8395 2.54277 36.758C2.4884 36.6493 2.46121 36.5678 2.43403 36.4591C2.35247 36.2689 2.2981 36.0516 2.27092 35.8343C2.21655 35.6441 2.18936 35.4539 2.18936 35.2637C2.16218 35.0464 2.16218 34.8019 2.16218 34.5845C2.18936 33.7423 2.37966 32.9001 2.70588 32.1394C2.89618 31.6775 3.14084 31.2157 3.41269 30.8082C3.65736 30.8353 3.87484 30.8625 4.11951 30.8353C4.98943 30.8082 5.9681 30.455 6.34869 29.5856C6.45743 29.3683 6.48462 29.1509 6.43025 28.9064C6.37588 28.6891 6.26714 28.4717 6.07684 28.3359C5.64188 28.0099 5.09817 28.1185 4.66321 28.3359C4.22825 28.5804 3.84766 28.8521 3.49425 29.2052C3.27677 29.4226 3.05929 29.6671 2.84181 29.9116C2.46121 29.7758 2.10781 29.5313 1.86314 29.2324C1.34662 28.6076 1.07477 27.8197 1.10196 27.0318C1.12914 26.6515 1.2107 26.2711 1.37381 25.9451C1.53692 25.5919 1.7544 25.2931 2.02625 25.0214C2.2981 24.7769 2.56995 24.5867 2.89618 24.4237C2.97773 24.3693 3.05929 24.3422 3.14084 24.2878C3.16803 24.2878 3.16803 24.2607 3.19521 24.2607L3.41269 24.0705C3.60299 23.989 3.79329 23.9346 3.98358 23.8531C4.79914 23.6086 5.61469 23.4185 6.40306 23.2011C7.21862 23.0109 7.9798 22.7121 8.7138 22.3317C9.39343 21.9514 10.0459 21.4895 10.5896 20.9462C11.7585 19.8323 12.6828 18.4739 13.5528 17.0883C14.4227 15.7299 15.2382 14.29 16.1897 12.9859C17.1956 11.6547 18.3645 10.4321 19.6422 9.3454C22.3336 7.11762 25.4055 5.40603 28.7493 4.3193C32.0658 3.20541 35.5727 2.77072 39.0796 3.01524C39.4874 3.04241 39.8952 3.09674 40.3029 3.15108C40.4117 3.17825 41.3903 3.31409 41.7438 3.36842C42.0972 3.39559 42.4234 3.44993 42.7768 3.50426C43.5108 3.6401 44.272 3.80311 44.9788 3.99329C46.5283 4.42798 48.0507 5.02567 49.5187 5.73204C52.5363 7.17195 55.3907 9.07372 57.783 11.383C58.9248 12.4426 59.9034 13.638 60.719 14.9692C61.4802 16.2461 62.1054 17.6045 62.8666 18.8814C63.6006 20.104 64.4977 21.245 65.7211 22.0329C67.0803 22.9023 68.6571 23.1468 70.1794 23.5543C70.9134 23.7445 71.5931 23.9618 72.2455 24.3422C72.8436 24.6682 73.2785 25.2115 73.5504 25.8364C73.7407 26.1624 73.7951 26.5428 73.7951 26.9231Z" fill="#FF7B7B"/>
<path d="M69.4722 28.7439C69.1732 28.7711 69.1732 29.0428 69.3091 29.2601C69.3907 29.396 69.5266 29.5318 69.6625 29.6133C69.7984 29.6948 69.9616 29.7491 70.1247 29.7763C70.4237 29.8306 70.6956 29.8306 70.9946 29.8035C70.8043 29.5861 70.614 29.396 70.4237 29.2058C70.179 29.0156 69.8256 28.7168 69.4722 28.7439Z" fill="#EDD6B4"/>
<path d="M66.4277 37.8174C66.319 37.8174 66.2374 37.8174 66.1558 37.8717C66.1287 37.8989 66.1015 37.8989 66.0743 37.9261C66.0743 37.9261 66.0471 37.9532 66.0199 37.9804C65.9927 38.0076 65.9656 38.0347 65.9656 38.0347C65.9384 38.0619 65.9384 38.0891 65.9112 38.1162C65.884 38.1706 65.884 38.1977 65.8568 38.2521C65.8296 38.3607 65.8296 38.4966 65.8568 38.6324C65.884 38.7411 65.9384 38.8769 66.0199 38.9584C66.2646 39.203 66.5364 39.3931 66.8899 39.5018C67.1073 39.5561 67.2976 39.6105 67.5151 39.6376L67.5967 39.6648C67.6239 39.6648 67.651 39.6648 67.651 39.6648C67.7326 39.692 67.8413 39.692 67.9229 39.692C68.0044 39.692 68.086 39.692 68.1676 39.692C68.0044 39.2573 67.7598 38.8498 67.4607 38.4966C67.2433 38.1977 66.8627 37.8446 66.4277 37.8174Z" fill="#EDD6B4"/>
<path d="M5.75036 29.0158C5.75036 28.6626 5.28821 28.8256 5.09792 28.9071C4.71732 29.0973 4.41829 29.4505 4.11925 29.7765C4.06488 29.858 3.98333 29.9395 3.92896 30.021C3.95614 30.021 3.95614 30.021 3.98333 30.021C4.3911 30.0482 4.77169 29.9667 5.1251 29.7765C5.39695 29.6407 5.75036 29.3418 5.75036 29.0158Z" fill="#EDD6B4"/>
<path d="M7.32722 39.6657C7.735 39.6657 8.14278 39.6114 8.52337 39.4484C8.84959 39.3125 9.17581 39.0408 9.25737 38.6876C9.31174 38.5246 9.31174 38.3616 9.25737 38.2258C9.203 38.0628 9.12144 37.9269 8.98552 37.8454C8.60493 37.6009 8.11559 37.8998 7.84374 38.1715C7.5447 38.4431 7.30004 38.7691 7.10974 39.1223C7.001 39.3125 6.91945 39.5027 6.83789 39.6929C7.001 39.6929 7.16411 39.6929 7.32722 39.6657Z" fill="#EDD6B4"/>
<path d="M11.8402 24.3958C11.1333 23.8253 10.4537 23.2276 9.85564 22.6299C10.4537 23.2548 11.1333 23.8525 11.8402 24.3958ZM9.25757 22.0322C9.33912 22.1409 9.44786 22.2496 9.5566 22.3311C9.44786 22.2224 9.33912 22.1409 9.25757 22.0322Z" fill="#EDD6B4"/>
<path d="M73.5774 25.8093C73.3055 25.1845 72.8706 24.6683 72.2725 24.3151C71.6201 23.9348 70.9404 23.7174 70.2064 23.5272C69.989 23.4729 69.7987 23.4186 69.5812 23.3642C69.2278 23.2827 68.8472 23.174 68.4938 23.0925C68.3035 23.0382 68.1132 22.9839 67.9229 22.9295C67.8413 22.9024 67.7326 22.8752 67.651 22.848C67.5151 22.7937 67.352 22.7665 67.2161 22.7122C67.1345 22.685 67.053 22.6579 66.9442 22.6035C66.8899 22.5764 66.8083 22.5492 66.7539 22.522C66.6452 22.4948 66.5636 22.4405 66.4549 22.3862C66.2646 22.3047 66.1015 22.196 65.9112 22.0873C65.8568 22.0602 65.8024 22.033 65.7481 21.9787C65.5306 21.8428 65.3131 21.6798 65.0956 21.5168C65.0413 21.544 65.0141 21.544 64.9597 21.5711C64.0354 22.0602 63.2199 22.7937 62.3499 23.3914C61.48 23.9891 60.5829 24.5596 59.6858 25.1301C57.8916 26.244 56.1517 27.4666 54.3847 28.6077C54.1128 28.7978 54.2488 29.151 54.5206 29.1782C53.5691 29.5314 52.5633 29.8574 51.5574 30.1562C51.3671 29.9117 51.204 29.64 51.0137 29.3955C49.4642 27.3851 47.4525 25.755 45.1689 24.614C42.8854 23.5001 40.3571 22.9024 37.8017 22.9024C35.192 22.9024 32.6366 23.5272 30.2986 24.6955C27.9879 25.8637 25.949 27.5481 24.3995 29.6672C24.2635 29.8574 24.1276 30.0476 23.9917 30.2377C23.5295 30.1019 23.0674 29.9661 22.6324 29.8302C22.7412 29.8574 22.8499 29.8846 22.9586 29.9117C23.2305 29.9932 23.4208 29.5585 23.1489 29.4227C22.0072 28.8522 20.8926 28.2545 19.778 27.6568C18.6634 27.0319 17.576 26.3255 16.5701 25.5377C15.5643 24.7498 14.5041 24.0434 13.4982 23.3099C12.4924 22.5492 11.5137 21.6526 10.2904 21.2451H10.2632C9.93696 21.5168 9.61074 21.7885 9.25733 22.0058C9.33889 22.1145 9.44763 22.2232 9.55637 22.3047C9.44763 22.196 9.36607 22.0873 9.25733 22.0058C9.23015 22.033 9.17577 22.0602 9.14859 22.0602C9.01266 22.1417 8.87674 22.2232 8.74081 22.3047C8.00681 22.685 7.21844 22.9839 6.43007 23.174C5.61452 23.3914 4.79897 23.5816 3.98341 23.8261C3.79312 23.8804 3.60282 23.9619 3.41252 24.0434L3.24941 24.1249C3.24941 24.1249 3.22223 24.1249 3.19504 24.1521C3.11349 24.1793 3.03193 24.2336 2.95038 24.2879C2.62415 24.4509 2.32512 24.6411 2.08045 24.8856C1.8086 25.1301 1.56393 25.4562 1.42801 25.8093C1.2649 26.1625 1.18334 26.5157 1.15616 26.8961C1.12897 27.7111 1.40082 28.4718 1.91734 29.0967C2.16201 29.3955 2.51541 29.64 2.89601 29.7759C3.11349 29.5314 3.30378 29.2869 3.54845 29.0695C3.87467 28.7163 4.28245 28.4175 4.71741 28.173C5.17956 27.9556 5.72326 27.847 6.13104 28.173C6.32133 28.3088 6.43007 28.5262 6.48445 28.7435C6.53882 28.9608 6.51163 29.2054 6.40289 29.4227C6.0223 30.2921 5.07082 30.6453 4.17371 30.6724C3.92904 30.6724 3.68437 30.6724 3.46689 30.6453C3.19504 31.08 2.95038 31.5146 2.76008 31.9765C2.43386 32.7372 2.24356 33.5794 2.21638 34.4216C2.21638 34.639 2.21638 34.8563 2.24356 35.1008C2.24356 35.291 2.29793 35.4812 2.32512 35.6714C2.37949 35.8887 2.43386 36.0789 2.48823 36.2962C2.51541 36.4049 2.56978 36.4864 2.59697 36.5951C2.62415 36.6766 2.65134 36.7309 2.67852 36.8124C3.03193 37.5188 3.54845 38.1437 4.17371 38.6327C4.7446 39.0674 5.36985 39.3934 6.07667 39.5292C6.23978 39.176 6.45726 38.7957 6.70193 38.4968C7.21844 37.7905 8.14274 36.8939 9.09422 37.2471C9.90977 37.546 10.1273 38.6327 9.77385 39.3662C9.36607 40.2628 8.25148 40.7246 7.3 40.8061C7.08252 40.8333 6.83785 40.8333 6.62037 40.8061C6.59319 40.8061 6.566 40.8061 6.53882 40.8061C6.51163 40.942 6.51163 41.105 6.51163 41.268C6.48445 42.0287 6.59319 42.8166 6.83785 43.5229C6.86504 43.6044 6.89222 43.6859 6.91941 43.7674V43.7946C6.91941 43.7946 6.91941 43.7946 6.91941 43.8218C6.91941 43.8218 6.91941 43.8489 6.94659 43.8489V43.8761C6.97378 43.9304 6.97378 43.9848 7.00096 44.0391C7.00096 44.0663 7.02815 44.0663 7.02815 44.0935C7.05533 44.175 7.1097 44.2565 7.13689 44.338C7.19126 44.4195 7.21844 44.501 7.27281 44.5825C7.46311 44.9085 7.70778 45.2073 7.97963 45.479C8.55052 46.0767 9.23015 46.5386 9.99133 46.8646L10.1816 46.9461C10.2088 46.9733 10.236 46.9733 10.236 46.9733C10.2632 46.9733 10.2632 46.9733 10.2904 46.9733L10.5622 47.0819C10.7525 47.1634 10.9428 47.2178 11.1603 47.245C11.3778 47.2993 11.5953 47.3536 11.8127 47.3808C11.9215 47.408 12.003 47.408 12.139 47.4351C12.1933 47.4351 12.1933 47.4351 12.2205 47.4351H12.3564C12.7914 47.4623 13.2264 47.4623 13.6613 47.4351C13.8788 47.408 14.1235 47.3808 14.341 47.3536C14.341 47.3536 14.341 47.3536 14.3138 47.3536C14.3138 47.3536 14.341 47.3536 14.3681 47.3536L14.5312 47.3265C14.64 47.2993 14.7215 47.2721 14.8303 47.2721C15.7274 47.0548 16.5701 46.7288 17.3585 46.2941C18.1469 45.8594 18.8809 45.3704 19.5877 44.7727C19.9411 44.4738 20.2945 44.1478 20.6479 43.7946C20.8654 43.5773 21.1101 43.3328 21.3275 43.0882C20.9198 42.9252 20.5392 42.7622 20.1586 42.572C19.5877 42.3004 19.0168 41.9743 18.4459 41.6755C18.3644 41.6212 18.4187 41.4582 18.5275 41.5125C18.8265 41.6212 19.1255 41.7298 19.4246 41.8385C20.077 42.0015 20.7023 42.2189 21.3275 42.409C21.5178 42.4634 21.7081 42.5449 21.9256 42.5992C22.0615 42.6536 22.2246 42.6807 22.3606 42.7351C22.5781 42.8166 22.8227 42.8709 23.0402 42.9524C24.2635 43.3056 25.4869 43.6044 26.7374 43.8489C29.184 44.3651 31.6579 44.7183 34.1589 44.8813C36.6871 45.0443 39.2426 44.99 41.7436 44.7455C44.2174 44.5281 46.6913 44.0935 49.1108 43.4686C50.3341 43.1426 51.5574 42.7894 52.7536 42.3819C53.2973 42.1917 53.8138 42.0015 54.3575 41.8113C55.0099 41.5668 55.6624 41.3223 56.3148 41.0506C56.8585 40.8333 57.2391 41.7027 56.7226 41.9743C56.4236 42.1374 56.1245 42.2732 55.7983 42.409C55.2546 42.6536 54.6837 42.8981 54.1128 43.1154C54.0041 43.1697 53.8953 43.1969 53.7594 43.2512C53.841 43.3328 53.9225 43.4143 54.0041 43.5229C54.0585 43.6044 54.14 43.6588 54.2216 43.7403C54.5206 44.0391 54.8468 44.338 55.1459 44.6368C55.7983 45.1802 56.4779 45.6964 57.2119 46.1311C57.5653 46.3484 57.9459 46.5386 58.3537 46.7016C58.7343 46.8646 59.1149 47.0004 59.4955 47.1363C60.9907 47.5981 62.6218 47.5981 64.1441 47.1635C65.5578 46.7288 66.9442 45.8594 67.7054 44.5553C68.086 43.9033 68.2763 43.2512 68.4666 42.4905C68.6025 41.9472 68.6025 41.3767 68.521 40.8061C67.4879 40.9148 66.4005 40.7246 65.585 40.0726C64.851 39.5021 64.6607 38.4153 65.1772 37.6818C65.2859 37.4916 65.449 37.3558 65.6665 37.2471C65.8568 37.1384 66.0743 37.1113 66.2918 37.1113C66.7811 37.1384 67.2433 37.4373 67.5967 37.7633C68.1404 38.2795 68.5481 38.8772 68.8472 39.5564C68.9016 39.5564 68.9287 39.5292 68.9831 39.5292C69.6899 39.339 70.3424 38.9859 70.9132 38.524C71.4841 38.0621 71.9463 37.4916 72.2725 36.8124C72.9521 35.4812 72.9521 33.7424 72.4628 32.2753C72.2725 31.7592 72.055 31.2701 71.756 30.8083C71.1579 30.9169 70.5598 30.8898 69.989 30.6724C69.2821 30.3736 68.385 29.6944 68.521 28.7978C68.5753 28.5805 68.6841 28.3903 68.8472 28.2545C69.0103 28.1186 69.2006 28.01 69.4181 28.01C69.8802 27.9828 70.3152 28.2001 70.6686 28.4718C71.1035 28.825 71.4841 29.2054 71.8647 29.6129C71.9735 29.5857 72.0822 29.5314 72.2181 29.477C72.5444 29.3412 72.8434 29.1239 73.0881 28.8522C73.3327 28.5805 73.523 28.2816 73.659 27.9556C73.7949 27.6024 73.8493 27.2493 73.8493 26.8689C73.7949 26.5429 73.7405 26.1625 73.5774 25.8093ZM9.8554 22.6307C10.4807 23.2556 11.1331 23.8261 11.8399 24.3966C11.1331 23.8532 10.4535 23.2556 9.8554 22.6307ZM62.1325 25.3747C62.5674 25.0758 62.9752 24.777 63.3558 24.4781C62.948 24.777 62.5402 25.0758 62.1325 25.3747Z" fill="#EDD6B4"/>
<path d="M61.6978 25.6739C62.2686 25.2936 62.8395 24.886 63.356 24.4785C62.8395 24.886 62.2686 25.2936 61.6978 25.6739Z" fill="#EDD6B4"/>
<path d="M66.7541 22.5486C66.6725 22.5214 66.6181 22.4942 66.5366 22.4671C66.455 22.4399 66.4006 22.4127 66.3191 22.3584C66.4822 22.4127 66.6181 22.4942 66.7541 22.5486Z" fill="#EDD6B4"/>
<path d="M60.692 10.3788C60.5017 11.0852 60.2298 11.7644 59.8764 12.4164C59.4143 11.873 58.8978 11.3297 58.3812 10.8407C58.3812 10.8135 58.3812 10.8135 58.4084 10.7863C58.5172 10.1343 58.6803 9.48225 58.7075 8.80305C58.7618 8.15102 58.7346 7.47182 58.6259 6.81978C58.5987 6.5481 58.4628 6.24925 58.3812 5.97757C58.1909 5.48855 57.6201 5.32554 57.1851 5.57005C56.8317 5.76023 56.5326 6.11341 56.288 6.3851C56.0433 6.65678 55.8258 6.92846 55.6355 7.2273C55.4181 7.49899 55.2549 7.825 55.1462 8.15102C54.4122 7.63483 53.651 7.1458 52.8626 6.68394C52.8355 6.65678 52.7811 6.65678 52.7539 6.62961C54.1132 4.99952 55.6083 3.53245 57.4569 2.47289C57.7288 2.30989 58.0006 2.17404 58.2725 2.01104C58.49 1.90236 58.6803 1.73936 58.8706 1.60352C59.8492 2.77174 60.4473 4.23882 60.7735 5.70589C61.0726 7.25447 61.0454 8.85739 60.692 10.3788Z" fill="#FF7B7B"/>
<path d="M21.9259 6.76635C21.355 7.14671 20.7841 7.49989 20.2404 7.93458C19.6967 8.3421 19.1802 8.74962 18.6909 9.21148C18.6909 9.12998 18.6909 9.04847 18.6637 8.96697C18.6637 8.80396 18.6365 8.61378 18.6093 8.45077C18.5821 8.09759 18.5549 7.71724 18.5549 7.33688C18.5549 6.95653 18.5549 6.63051 18.5821 6.27733C18.6093 6.00565 18.5821 5.7068 18.718 5.46229C18.8812 5.16344 19.2074 5.27211 19.452 5.40795C19.7783 5.57096 20.0773 5.76113 20.4035 5.92414C20.7297 6.08715 21.0288 6.27733 21.355 6.44034L21.8172 6.71202L21.9259 6.76635Z" fill="#EDD6B4"/>
<path d="M58.3539 8.1776C58.3539 8.93831 58.2995 9.78052 58.0005 10.4869C57.783 10.2967 57.5655 10.0794 57.3209 9.88919C56.6684 9.31866 55.9888 8.80247 55.282 8.28628C55.5266 8.06893 55.7441 7.82442 55.9344 7.57991C56.1519 7.3354 56.3966 7.11805 56.6141 6.90071C56.8315 6.68336 57.0762 6.46602 57.348 6.30301C57.4568 6.2215 57.5655 6.19434 57.6743 6.19434C58.1092 6.2215 58.1636 6.68336 58.218 6.92787C58.2995 7.3354 58.3539 7.74292 58.3539 8.1776Z" fill="#EDD6B4"/>
<path d="M24.6172 5.24414C23.8288 5.62449 23.0405 6.05918 22.2793 6.52104C22.2249 6.49387 22.1977 6.4667 22.1434 6.43953L21.6812 6.16785C21.3822 6.00485 21.1103 5.84184 20.8385 5.706L19.9957 5.21697C19.7511 5.05396 19.4792 4.91812 19.1802 4.83662C18.6637 4.72795 18.3103 5.13547 18.2287 5.59732C18.12 6.16785 18.1743 6.79272 18.2287 7.39042C18.2559 7.7436 18.2831 8.09679 18.3374 8.44997C18.3646 8.61298 18.3918 8.80316 18.419 8.96616C18.4462 9.07484 18.4734 9.21068 18.5277 9.29218C17.685 10.0257 16.8966 10.8408 16.1626 11.683C16.1626 11.683 16.1626 11.683 16.1355 11.7101C16.1083 11.7373 16.0811 11.7645 16.0811 11.7916C16.0539 11.4385 15.9995 11.0853 15.918 10.7593C15.8364 10.3789 15.782 9.99855 15.7277 9.59103C15.6189 8.83032 15.5374 8.06962 15.483 7.28174C15.3743 5.706 15.3199 4.13025 15.6189 2.58167C15.782 1.73946 15.9995 0.897249 16.2986 0.109375C16.9238 0.272383 17.5219 0.46256 18.12 0.73424C18.718 1.00592 19.3433 1.2776 19.9142 1.60362C21.056 2.22848 22.1434 2.96202 23.1492 3.80423C23.6657 4.26609 24.1551 4.72795 24.6172 5.24414Z" fill="#FF7B7B"/>
<path d="M9.25757 22.0332C9.33912 22.1419 9.44786 22.2505 9.5566 22.3321C9.44786 22.2234 9.33912 22.1419 9.25757 22.0332Z" fill="#EDD6B4"/>
<path d="M9.85547 22.6318C10.4807 23.2567 11.1332 23.8272 11.84 24.3978C11.1332 23.8544 10.4535 23.2567 9.85547 22.6318Z" fill="#EDD6B4"/>
<path d="M20.8385 23.637C19.2074 23.1752 17.6035 22.6046 16.1899 21.6266C14.9394 20.7844 13.4714 19.6977 12.7917 18.2578C13.0636 17.8774 13.3083 17.4699 13.5801 17.0624C13.716 16.845 13.8248 16.6548 13.9607 16.4375C14.1238 16.4647 14.2869 16.5733 14.4229 16.7092C15.4831 17.8502 16.1083 19.3445 17.1957 20.4584C18.2831 21.5994 19.5608 22.6046 21.0017 23.2295C21.192 23.3654 21.056 23.6914 20.8385 23.637Z" fill="#EDD6B4"/>
<path d="M21.953 17.8768C21.953 17.9583 21.953 18.0398 21.8986 18.1213C21.8714 18.2028 21.7899 18.2572 21.7355 18.2843C21.654 18.3115 21.5724 18.3387 21.4908 18.3115C20.2403 17.9583 19.1257 17.6323 18.0655 16.8444C17.0597 16.0565 16.1626 15.16 15.4014 14.1548C15.646 13.7744 15.9179 13.3941 16.1897 13.0137C16.3528 12.8235 16.4888 12.6062 16.6519 12.416C16.8965 12.4704 17.114 12.6062 17.3043 12.8507C17.984 13.7201 18.7451 14.5351 19.5335 15.2958C20.3219 16.0565 21.0287 16.9531 21.8171 17.6866C21.9258 17.7138 21.953 17.7953 21.953 17.8768Z" fill="#EDD6B4"/>
<path d="M58.9792 12.5519C58.952 12.6334 58.9248 12.7149 58.8976 12.7965C58.5442 13.5028 57.783 13.8288 57.1034 14.182C56.4781 14.5352 55.8257 14.8341 55.1461 15.1329C54.0858 15.5948 52.4275 16.4098 51.2314 15.9751C51.2042 15.9751 51.1498 15.948 51.1227 15.9208C51.0955 15.8936 51.0683 15.8664 51.0411 15.8121C51.0139 15.7849 51.0139 15.7306 51.0139 15.7034C51.0139 15.6491 51.0139 15.6219 51.0411 15.5948C51.2858 14.9971 51.8838 14.6439 52.4004 14.2635C52.9441 13.8832 53.5149 13.53 54.0858 13.1768L55.7985 12.1444C56.3966 11.7912 56.9403 11.3294 57.6199 11.2207C57.6743 11.275 57.7286 11.3294 57.8102 11.3837C58.2452 11.7641 58.6258 12.1444 58.9792 12.5519Z" fill="#EDD6B4"/>
<path d="M62.3499 17.8498C62.2683 17.9585 62.1596 18.0672 62.0237 18.1759C60.6644 19.2897 59.1148 20.1591 57.4566 20.7568C56.6682 21.0557 55.8254 21.273 55.0099 21.4089C54.14 21.5447 53.2972 21.4904 52.4273 21.4904C52.3457 21.4904 52.2642 21.4632 52.2098 21.4089C52.1554 21.3545 52.1011 21.273 52.1011 21.1915C52.1011 21.11 52.1011 21.0285 52.1554 20.947C52.1826 20.8655 52.2642 20.8383 52.3457 20.8112C53.1613 20.5395 53.9225 20.0776 54.7108 19.6973C55.3905 19.3712 56.0701 19.0724 56.7226 18.692C58.1362 17.9313 59.4954 17.062 60.7731 16.1111C60.9363 15.9752 61.1537 15.9209 61.344 15.9209C61.6974 16.5729 61.9965 17.225 62.3499 17.8498Z" fill="#EDD6B4"/>
<path d="M61.6978 25.6739C62.2686 25.2936 62.8395 24.886 63.356 24.4785C62.8395 24.886 62.2686 25.2936 61.6978 25.6739Z" fill="#EDD6B4"/>
<path d="M66.7541 22.5495C66.6725 22.5224 66.6181 22.4952 66.5366 22.468C66.455 22.4409 66.4006 22.4137 66.3191 22.3594C66.4822 22.4137 66.6181 22.4952 66.7541 22.5495Z" fill="#EDD6B4"/>
<path d="M74.8281 25.8097C74.6921 25.4021 74.5019 25.0218 74.2572 24.6958C74.1484 24.5328 74.0125 24.3969 73.8766 24.2611C73.0882 23.4732 71.9736 23.0114 70.8862 22.7397C69.2823 22.305 67.5696 22.142 66.156 21.2183C64.8783 20.4032 64.0628 19.1263 63.3288 17.8223C62.5132 16.4095 61.8064 14.9153 60.8549 13.584C60.719 13.3939 60.583 13.2308 60.4199 13.0678C60.7462 12.3343 60.9908 11.6008 61.1539 10.8129C61.317 10.025 61.4258 9.20998 61.453 8.39493C61.4802 6.73768 61.1811 5.08043 60.5015 3.55902C60.1209 2.71681 59.6588 1.90176 59.1151 1.14106C59.0879 1.08672 59.0335 1.05955 58.9791 1.03239C58.9248 1.00522 58.8704 1.00522 58.816 1.03239C58.5442 1.14106 58.2451 1.16823 58.0005 1.30407C57.7286 1.43991 57.4839 1.57575 57.2393 1.71159C56.7499 2.01044 56.2606 2.30928 55.8256 2.6353C54.9014 3.3145 54.0586 4.10238 53.2974 4.94459C52.9168 5.37928 52.5634 5.8683 52.2644 6.35733C50.8508 5.54229 49.3828 4.86308 47.8604 4.26539C46.2837 3.64052 44.6526 3.20583 42.9671 2.96132C42.5865 2.90698 42.2331 2.87982 41.8525 2.85265C41.6622 2.85265 40.6292 2.68964 40.3029 2.6353C39.8408 2.5538 39.4058 2.49946 38.9437 2.44513C38.0194 2.36362 37.0679 2.30929 36.1164 2.33645C34.2135 2.39079 32.3377 2.6353 30.4891 3.09716C28.7221 3.53185 26.9822 4.12955 25.3239 4.89025C25.2967 4.86308 25.2967 4.83592 25.2695 4.83592C23.5025 2.74397 21.1646 1.22256 18.5276 0.434689C17.7936 0.244512 17.0324 0.0815042 16.2713 0C16.2441 0 16.2441 0 16.2169 0C16.1897 0 16.1897 0.0271672 16.1897 0.0543353C15.9178 0.815041 15.7004 1.57575 15.5373 2.36362C15.3741 3.1515 15.1838 3.9122 15.0751 4.70007C14.9664 5.48795 14.8848 6.27582 14.8576 7.0637C14.8576 7.85157 14.9392 8.66661 15.0479 9.45449C15.1295 9.88918 15.211 10.351 15.347 10.7857C15.4285 11.1661 15.6188 11.7366 15.8091 12.1441C14.8033 13.3939 13.9877 14.7794 13.1178 16.1378C12.1935 17.5777 11.2692 19.072 10.0187 20.2402C9.4206 20.8107 8.76815 21.2726 8.03415 21.6258C7.27297 21.979 6.40304 22.1691 5.58749 22.3593C3.84764 22.7125 1.89031 23.0929 0.775717 24.5871C0.558236 24.8588 0.395125 25.1848 0.286385 25.5108C0.232014 25.6467 0.204829 25.7825 0.150459 25.9183C-0.257318 27.4126 0.150459 29.1513 1.5369 29.9935C1.61846 30.0479 1.7272 30.1022 1.80875 30.1566C1.91749 30.2109 2.02623 30.2652 2.13497 30.3196C2.21653 30.3739 2.32527 30.4011 2.40683 30.4554C2.35246 30.5097 2.32527 30.5912 2.2709 30.6456C2.21653 30.7271 2.16216 30.8086 2.10779 30.9173C1.70001 31.5693 1.42816 32.2757 1.23786 33.0364C1.04757 33.7971 0.993198 34.5578 1.07475 35.3457C1.07475 35.4815 1.10194 35.6445 1.12912 35.7803C1.12912 35.8619 1.15631 35.9705 1.18349 36.052C1.48253 37.6006 2.48838 39.0133 3.82045 39.9099C3.95638 39.9914 4.06512 40.0729 4.20105 40.1544C4.30979 40.2359 4.44571 40.2902 4.55445 40.3446C4.90786 40.5348 5.28845 40.6706 5.69623 40.7521C5.66904 40.8336 5.66904 40.9423 5.64186 41.0238C5.47875 41.8932 5.53312 42.8169 5.7506 43.6862C5.99527 44.5828 6.43023 45.4522 7.0283 46.1857C7.62638 46.9193 8.36037 47.5169 9.20311 47.9245C10.9973 48.7938 13.0362 49.0655 14.9936 48.6852C15.1838 48.658 15.4013 48.6037 15.5916 48.5493C18.5548 47.7615 20.2675 45.9955 21.2461 44.9903L21.2733 44.9632C21.3277 44.9088 21.3821 44.8273 21.4364 44.773C21.4636 44.7458 21.4636 44.7458 21.4908 44.7186C21.5724 44.6371 21.6267 44.5556 21.7083 44.447C21.9258 44.1753 22.1161 43.9036 22.3335 43.6319C22.3335 43.6319 22.3607 43.6319 22.3879 43.6591C22.6326 43.7406 22.8772 43.8493 23.1219 43.9308C23.3666 44.0123 23.6112 44.0938 23.8559 44.1753L24.2093 44.284C24.3996 44.3383 24.6171 44.4198 24.8074 44.4741C25.0792 44.5556 25.3239 44.6371 25.5958 44.6915C28.0968 45.3707 30.625 45.8597 33.2076 46.077C33.5882 46.1314 33.996 46.1585 34.3766 46.1857C34.4037 46.1857 34.4309 46.1857 34.4309 46.1857C34.7028 46.2129 34.9746 46.2129 35.2465 46.2401C35.7902 46.2672 36.3339 46.2944 36.8504 46.2944C38.1825 46.3216 39.5146 46.2944 40.8466 46.1857C41.1729 46.1585 41.4991 46.1314 41.8253 46.1042C42.4777 46.0499 43.103 45.9684 43.7554 45.8869C45.0331 45.7239 46.3108 45.5065 47.5886 45.2077C47.9148 45.1262 48.2138 45.0718 48.54 44.9903C48.7847 44.936 49.0294 44.8545 49.274 44.8001C49.7634 44.6643 50.2527 44.5285 50.742 44.3926C50.9867 44.3111 51.2314 44.2296 51.476 44.1753C51.476 44.1753 52.4275 43.8764 52.7537 43.7406C52.9712 44.0394 53.2159 44.3655 53.4605 44.6371C53.7868 45.0175 54.113 45.3435 54.4392 45.6695C55.146 46.3487 55.9344 46.9464 56.7771 47.4354C58.4354 48.4135 60.3112 48.9025 62.2413 48.821C63.5734 48.7395 64.8511 48.3592 66.0201 47.7615C66.4279 47.5441 67.1347 47.0008 67.325 46.8377C68.0046 46.2401 68.5211 45.4793 68.9017 44.6371C69.2279 43.8764 69.4182 43.0614 69.391 42.2463C69.391 41.7302 69.3367 41.2411 69.2279 40.7521C69.3095 40.7249 69.391 40.6978 69.4998 40.6706C69.6629 40.6163 69.7988 40.5619 69.9619 40.5076C70.125 40.4533 70.261 40.3989 70.4241 40.3174C70.56 40.2631 70.6959 40.1816 70.8319 40.1001C71.593 39.6654 72.2727 39.0677 72.7892 38.3341C73.3057 37.6006 73.6591 36.7856 73.8494 35.9162C74.1756 34.0688 73.6319 32.167 72.6261 30.6184C72.6804 30.5912 72.762 30.5641 72.8164 30.5369C73.2513 30.3467 73.6319 30.0751 73.931 29.749C74.0397 29.6132 74.1484 29.5045 74.2572 29.3687C74.4203 29.1513 74.5562 28.8797 74.6921 28.6351C75.0456 27.7114 75.0999 26.7334 74.8281 25.8097ZM57.4024 2.47229C57.6742 2.30929 57.9461 2.17344 58.2179 2.01044C58.4354 1.90176 58.6257 1.73876 58.816 1.60292C59.7947 2.77114 60.3928 4.23822 60.719 5.70529C61.0724 7.22671 61.0452 8.82962 60.6646 10.351C60.4743 11.0574 60.2296 11.7366 59.8491 12.3886C59.3869 11.8453 58.8704 11.3019 58.3539 10.8129C58.3539 10.8129 58.3539 10.7857 58.3811 10.7586C58.4898 10.0794 58.6529 9.45449 58.6801 8.77528C58.7345 8.12325 58.7073 7.44405 58.5985 6.79202C58.5714 6.52034 58.4354 6.22149 58.3539 5.94981C58.1636 5.46078 57.5927 5.29777 57.1577 5.54229C56.8043 5.73246 56.5053 6.08565 56.2606 6.35733C56.0159 6.62901 55.7985 6.90069 55.6082 7.19954C55.3907 7.47122 55.2276 7.79724 55.1188 8.12325C54.3848 7.60706 53.6236 7.11803 52.8625 6.65618C52.8353 6.62901 52.7809 6.62901 52.7537 6.60184C54.0586 4.99892 55.581 3.53185 57.4024 2.47229ZM58.3539 8.17759C58.3539 8.93829 58.2995 9.7805 58.0005 10.4869C57.783 10.2695 57.5655 10.0794 57.3208 9.88918C56.6684 9.34582 55.9888 8.80245 55.2819 8.28626C55.5266 8.06892 55.7441 7.8244 55.9344 7.57989C56.1519 7.33538 56.3965 7.09087 56.614 6.90069C56.8315 6.68335 57.0762 6.466 57.348 6.30299C57.4568 6.22149 57.5655 6.19432 57.7014 6.19432C58.1364 6.22149 58.1908 6.68334 58.2451 6.92786C58.2995 7.33538 58.3539 7.7429 58.3539 8.17759ZM15.7276 9.6175C15.6188 8.85679 15.5373 8.09608 15.4829 7.30821C15.4013 5.73246 15.347 4.15671 15.646 2.60813C15.8091 1.76592 16.0266 0.923714 16.3256 0.108672C16.9509 0.27168 17.5761 0.461856 18.147 0.733537C18.7451 1.00522 19.3704 1.2769 19.9412 1.60292C21.083 2.22778 22.1704 2.96132 23.1763 3.80353C23.6928 4.23822 24.1821 4.72724 24.6443 5.24344C23.8559 5.62379 23.0675 6.05848 22.3064 6.52034C22.252 6.49317 22.2248 6.466 22.1704 6.43883L21.7083 6.16715C21.4092 6.00414 21.1374 5.84113 20.8655 5.70529L19.9956 5.21627C19.751 5.05326 19.4791 4.91742 19.1801 4.83592C18.6635 4.72724 18.3101 5.13476 18.2286 5.59662C18.1198 6.16715 18.1742 6.79202 18.2286 7.38971C18.2558 7.7429 18.283 8.09608 18.3373 8.44927C18.3645 8.61228 18.3917 8.80245 18.4189 8.96546C18.4461 9.07413 18.4732 9.20997 18.5276 9.31865C17.6849 10.0522 16.8965 10.8672 16.1625 11.7094C16.1625 11.7094 16.1625 11.7094 16.1625 11.7366C16.1353 11.7638 16.1081 11.7909 16.1081 11.8181C16.081 11.4649 16.0266 11.1117 15.945 10.7857C15.8363 10.4054 15.7819 9.99785 15.7276 9.6175ZM21.9258 6.76485C21.3549 7.11803 20.784 7.52555 20.2403 7.93307C19.6966 8.3406 19.1801 8.74812 18.6907 9.20998C18.6907 9.12847 18.6907 9.04697 18.6635 8.96546C18.6635 8.77529 18.6364 8.61228 18.6092 8.44927C18.582 8.09608 18.5548 7.71573 18.5548 7.33538C18.5548 6.95503 18.5548 6.62901 18.582 6.27582C18.6092 6.00414 18.582 5.70529 18.7179 5.48795C18.881 5.1891 19.2072 5.29777 19.4519 5.43361C19.7781 5.59662 20.0772 5.7868 20.4034 5.94981C20.7024 6.11282 21.0287 6.30299 21.3549 6.466L21.817 6.73768L21.9258 6.76485ZM73.6319 27.9831C73.496 28.3091 73.3329 28.608 73.061 28.8797C72.9523 28.9883 72.8436 29.097 72.7076 29.2057C72.5445 29.3143 72.3814 29.423 72.1911 29.5045C72.1367 29.5317 72.1096 29.5589 72.0552 29.5589C72.0008 29.586 71.9193 29.6132 71.8649 29.6404C71.8377 29.6132 71.8105 29.586 71.7833 29.5317C71.6474 29.3959 71.5115 29.2328 71.3756 29.097C71.1581 28.8797 70.9406 28.6895 70.6959 28.4993C70.3425 28.2276 69.9076 27.9831 69.4454 28.0374C69.2279 28.0646 69.0105 28.1461 68.8473 28.282C68.6842 28.4178 68.5755 28.608 68.5211 28.8253C68.5211 28.8525 68.5211 28.9068 68.5211 28.934C68.5211 29.0698 68.5211 29.2057 68.5483 29.3143C68.7114 29.9664 69.4182 30.4554 69.9891 30.6727C70.5328 30.8901 71.1581 30.9173 71.7561 30.8086C72.0552 31.2704 72.2999 31.7595 72.463 32.3028C72.9523 33.7699 72.9795 35.5087 72.2727 36.8399C71.9464 37.4919 71.4843 38.0625 70.9134 38.5515C70.3425 39.0133 69.7173 39.3394 69.0104 39.5295H68.9833C68.9289 39.5295 68.9017 39.5567 68.8473 39.5567C68.8202 39.5024 68.793 39.448 68.7658 39.3937C68.4667 38.796 68.0862 38.2255 67.5968 37.7636C67.2434 37.4376 66.7813 37.1388 66.2919 37.1116C66.0744 37.0844 65.857 37.1388 65.6667 37.2474C65.4764 37.3561 65.3133 37.4919 65.1773 37.6821C65.0958 37.7908 65.0414 37.8995 64.987 38.0081C64.7152 38.7145 64.9327 39.5839 65.5851 40.0729C66.4007 40.7249 67.4609 40.9151 68.5211 40.8064C68.6027 41.377 68.5755 41.9475 68.4667 42.4909C68.2764 43.2244 68.1133 43.8764 67.7056 44.5285C66.9444 45.8054 65.5579 46.7019 64.1443 47.1366C62.6219 47.5713 61.018 47.5713 59.4956 47.1094C59.1151 47.0008 58.7345 46.8649 58.3539 46.6747C57.9733 46.5117 57.5927 46.3216 57.2121 46.1042C56.4781 45.6695 55.7713 45.1805 55.146 44.61C54.8198 44.3383 54.5208 44.0394 54.1945 43.7134C54.113 43.6319 54.0586 43.5776 53.9771 43.4961C53.8955 43.4146 53.8139 43.3331 53.7324 43.2244C53.8411 43.1701 53.9499 43.1429 54.0586 43.0886C54.6295 42.8712 55.1732 42.6267 55.7441 42.3822C56.0703 42.2463 56.3694 42.0833 56.6684 41.9203C57.1849 41.6758 56.8043 40.8064 56.2606 40.9966C55.6082 41.2411 54.9557 41.5128 54.3033 41.7573C53.7596 41.9475 53.2431 42.1648 52.6994 42.3278C51.5032 42.7354 50.2799 43.0886 49.0565 43.4146C46.6371 44.0394 44.1904 44.447 41.6894 44.6915C39.1612 44.936 36.6329 44.9632 34.1047 44.8273C31.6037 44.6643 29.1298 44.3383 26.6832 43.7949C25.4326 43.5233 24.2093 43.2516 22.986 42.8984C22.7413 42.8169 22.5238 42.7625 22.3064 42.681C22.1704 42.6267 22.0073 42.5995 21.8714 42.5452C21.6811 42.4909 21.4908 42.4094 21.3005 42.355C20.6752 42.1648 20.0228 41.9475 19.3975 41.7845C19.0985 41.703 18.7995 41.5943 18.5004 41.4585C18.3917 41.4313 18.3373 41.5943 18.4189 41.6215C18.9898 41.9203 19.5607 42.2192 20.1315 42.518C20.5121 42.7082 20.9199 42.8712 21.3005 43.0342C21.083 43.2787 20.8655 43.5232 20.6209 43.7406C20.2947 44.0666 19.9412 44.4198 19.5607 44.7186C18.881 45.2892 18.1198 45.8054 17.3315 46.2401C16.5431 46.6747 15.6732 47.0008 14.8033 47.2181C14.6945 47.2453 14.613 47.2724 14.5042 47.2724L14.3411 47.2996C14.3139 47.2996 14.2867 47.2996 14.2867 47.2996C14.2867 47.2996 14.2867 47.2996 14.3139 47.2996C14.0964 47.3268 13.8518 47.3539 13.6343 47.3811C13.1993 47.4083 12.7644 47.4083 12.3294 47.3811H12.1663C12.1663 47.3811 12.1391 47.3811 12.0847 47.3811C11.9488 47.3539 11.8673 47.3539 11.7585 47.3268C11.541 47.2996 11.3236 47.2453 11.1061 47.1909C10.8886 47.1366 10.6983 47.0823 10.508 47.0279L10.2361 46.9193C10.209 46.9193 10.209 46.9193 10.1818 46.8921C10.1818 46.8921 10.1546 46.8921 10.1274 46.8649L9.93711 46.7834C9.17593 46.4574 8.4963 45.9684 7.92541 45.3978C7.65356 45.1262 7.40889 44.8273 7.2186 44.5013C7.16423 44.4198 7.13704 44.3383 7.08267 44.2568C7.0283 44.1753 7.00112 44.0938 6.97393 44.0123C6.97393 43.9851 6.94675 43.9851 6.94675 43.9579C6.91956 43.9036 6.89238 43.8764 6.89238 43.8221V43.7949C6.89238 43.7949 6.89238 43.7678 6.86519 43.7678C6.86519 43.7678 6.86519 43.7678 6.86519 43.7406V43.7134C6.83801 43.6319 6.81082 43.5504 6.78364 43.4689C6.53897 42.7354 6.43023 41.9747 6.45741 41.214C6.45741 41.0781 6.4846 40.9151 6.4846 40.7521C6.51178 40.7521 6.53897 40.7521 6.56615 40.7521C6.78364 40.7793 7.0283 40.7521 7.24578 40.7521C8.19726 40.6434 9.28467 40.1816 9.71963 39.3122C9.99148 38.7417 9.90993 37.9538 9.47497 37.4919C9.36622 37.3833 9.25748 37.3018 9.09437 37.2474C9.06719 37.2474 9.04 37.2203 9.04 37.2203C8.19726 36.9214 7.35452 37.6006 6.81082 38.2526C6.75645 38.3341 6.70208 38.3885 6.64771 38.47C6.53897 38.6058 6.45741 38.7417 6.37586 38.8775C6.23993 39.0949 6.13119 39.285 6.04964 39.5024C5.85934 39.448 5.64186 39.3937 5.45156 39.3394C5.28845 39.285 5.15253 39.2035 4.98942 39.1492C4.69038 39.0133 4.41853 38.8232 4.14668 38.6058C3.52142 38.1168 3.0049 37.4919 2.65149 36.7856C2.62431 36.7312 2.59712 36.6497 2.56994 36.5682C2.51557 36.4595 2.48838 36.378 2.4612 36.2694C2.37964 36.052 2.32527 35.8619 2.29809 35.6445C2.2709 35.4543 2.21653 35.2642 2.21653 35.1011V35.074C2.21653 34.9381 2.18935 34.8023 2.18935 34.6665C2.18935 34.5849 2.18935 34.5034 2.18935 34.4219C2.21653 33.5797 2.40683 32.7375 2.73305 31.9768C2.92334 31.515 3.16801 31.0531 3.43986 30.6456C3.68453 30.6727 3.9292 30.6999 4.14668 30.6727C5.0166 30.6456 5.99527 30.2924 6.37586 29.423C6.4846 29.2057 6.51178 28.9883 6.45741 28.7438C6.40304 28.5265 6.26712 28.3091 6.10401 28.1733C5.66904 27.8473 5.12534 27.9559 4.69038 28.1733C4.25542 28.3906 3.87482 28.6895 3.52142 29.0698C3.30394 29.2872 3.08646 29.5317 2.86897 29.7762C2.48838 29.6404 2.13497 29.3958 1.89031 29.097C1.37379 28.4721 1.10194 27.6843 1.12912 26.8964C1.15631 26.516 1.23786 26.1357 1.40098 25.8097C1.42816 25.7553 1.45535 25.6738 1.50972 25.6195C1.59127 25.4836 1.67283 25.3478 1.78157 25.212C1.86312 25.1033 1.97186 24.9946 2.0806 24.886C2.35246 24.6414 2.62431 24.4513 2.95053 24.2883C3.03208 24.2339 3.11364 24.2067 3.1952 24.1524C3.22238 24.1524 3.24957 24.1252 3.24957 24.1252L3.41268 24.0709C3.60297 23.9894 3.79327 23.9351 4.01075 23.8536C4.79912 23.6091 5.64186 23.3917 6.43023 23.2015C7.2186 23.0114 8.00697 22.7125 8.74097 22.3322C8.87689 22.2506 9.01282 22.1691 9.14874 22.0876C9.17593 22.0605 9.2303 22.0333 9.25748 22.0333C9.61089 21.7888 9.9643 21.5443 10.2633 21.2726C10.3993 21.1639 10.508 21.0553 10.6167 20.9466C11.4595 20.1587 12.1663 19.235 12.7916 18.2841C13.0634 17.9038 13.3081 17.4962 13.5799 17.0887C13.7158 16.8714 13.8518 16.6812 13.9605 16.4638C14.4498 15.676 14.912 14.8881 15.4285 14.1274C15.6732 13.747 15.945 13.3667 16.2169 12.9863C16.38 12.7962 16.5159 12.5788 16.679 12.3886C17.5761 11.2747 18.582 10.2424 19.6694 9.31865C22.3607 7.09086 25.4598 5.37928 28.7764 4.29255C32.093 3.17866 35.6271 2.74397 39.1068 2.98849C39.5146 3.01566 39.9223 3.06999 40.3301 3.12433C40.4389 3.1515 41.4175 3.28733 41.7709 3.34167C42.1243 3.36884 42.4506 3.42318 42.804 3.47751C43.538 3.61335 44.2991 3.77636 45.006 3.96654C46.5555 4.40123 48.0779 4.99892 49.5459 5.70529C52.4819 7.11803 55.2819 8.93829 57.6471 11.1932C57.7014 11.2476 57.783 11.3019 57.8373 11.3563C58.2451 11.7366 58.6257 12.117 58.9791 12.5245C59.6588 13.2852 60.2568 14.0731 60.8005 14.9424C60.9908 15.2685 61.1811 15.5945 61.3714 15.9205C61.7248 16.5454 62.051 17.1974 62.3773 17.8223C62.5676 18.1754 62.7579 18.5015 62.9482 18.8546C63.5462 19.8599 64.2531 20.8107 65.1502 21.5443C65.3405 21.7073 65.5579 21.8703 65.8026 22.0061C65.857 22.0333 65.9113 22.0876 65.9657 22.1148C66.2376 22.2778 66.5094 22.4137 66.8085 22.5223C66.8628 22.5495 66.9172 22.5767 66.9987 22.6038C67.0803 22.631 67.189 22.6853 67.2706 22.7125C67.4065 22.7668 67.5424 22.8212 67.7056 22.8483C67.7871 22.8755 67.8959 22.9027 67.9774 22.9298C68.1677 22.9842 68.358 23.0385 68.5483 23.0929C68.9017 23.2015 69.2823 23.283 69.6629 23.3645C69.8804 23.4189 70.0707 23.4732 70.2881 23.5275C70.9134 23.6906 71.5115 23.8807 72.0824 24.1524C72.1639 24.2067 72.2727 24.2611 72.3542 24.3154C72.4902 24.3969 72.6261 24.4784 72.762 24.5871C73.1698 24.9131 73.4688 25.3206 73.6591 25.7825C73.795 26.1357 73.8766 26.516 73.8766 26.8964C73.8222 27.2767 73.7407 27.6571 73.6319 27.9831ZM70.995 29.8034C70.6959 29.8034 70.4241 29.8034 70.125 29.749C69.9619 29.749 69.7988 29.6675 69.6357 29.586C69.527 29.5317 69.4454 29.4502 69.3639 29.3415C69.3367 29.3143 69.3095 29.26 69.2823 29.2328C69.2279 29.1513 69.2007 29.0427 69.2007 28.9612C69.2007 28.8525 69.2823 28.7438 69.4454 28.7438C69.6901 28.7166 69.9619 28.8797 70.1522 29.0427C70.2338 29.097 70.3153 29.1785 70.3697 29.2328C70.4513 29.3143 70.5328 29.3958 70.6144 29.4774C70.7775 29.586 70.8862 29.6947 70.995 29.8034ZM68.1949 39.6926H67.9502C67.8415 39.6926 67.7599 39.6926 67.6784 39.6926H67.624H67.5424C67.325 39.6654 67.1075 39.611 66.9172 39.5567C66.591 39.448 66.2919 39.2579 66.0745 39.0133C65.9929 38.9318 65.9385 38.796 65.9113 38.6873C65.8842 38.6058 65.8842 38.5515 65.8842 38.47C65.8842 38.4156 65.8842 38.3613 65.9113 38.307C65.9113 38.2526 65.9385 38.2255 65.9657 38.1711C65.9657 38.144 65.9929 38.1168 65.9929 38.1168V38.0896L66.0473 38.0353C66.0744 38.0081 66.1016 38.0081 66.1016 37.981C66.1288 37.9538 66.156 37.9538 66.1832 37.9266C66.2647 37.8995 66.3735 37.8723 66.455 37.8723C66.8628 37.8995 67.2434 38.2526 67.4881 38.5515C67.624 38.6873 67.7327 38.8503 67.8143 39.0133C67.9502 39.2035 68.0318 39.3937 68.1405 39.611C68.1677 39.5839 68.1949 39.6382 68.1949 39.6926ZM6.81082 39.6654C6.89238 39.4752 6.97393 39.2579 7.08267 39.0948C7.24578 38.8232 7.43608 38.5787 7.65356 38.3341C7.70793 38.2798 7.7623 38.1983 7.84386 38.144C8.08852 37.8995 8.55067 37.6278 8.90408 37.7908C8.93126 37.7908 8.95845 37.8179 8.98563 37.8451C9.12156 37.9538 9.20311 38.0625 9.25748 38.2255C9.31185 38.3885 9.31185 38.5515 9.25748 38.7145C9.17593 39.0677 8.82252 39.3122 8.52349 39.4752C8.14289 39.6382 7.73512 39.6926 7.32734 39.6926C7.16423 39.6926 6.97393 39.6925 6.81082 39.6654ZM3.92919 29.9935C3.98357 29.912 4.03794 29.8305 4.11949 29.749C4.39134 29.423 4.71756 29.097 5.09816 28.8797C5.28845 28.771 5.72341 28.6351 5.7506 28.9883C5.7506 29.3415 5.42438 29.6132 5.15253 29.749C4.79912 29.912 4.39134 29.9935 3.98357 29.9935H3.92919Z" fill="#38241E"/>
<path d="M31.2774 28.7713C30.9783 28.6626 30.6793 28.5539 30.3802 28.4452C28.0151 27.5759 25.5685 26.8695 23.1218 26.299C18.1741 25.1579 13.1177 24.696 8.03404 24.9406C5.83205 25.0492 3.65723 25.2666 1.48242 25.6469C1.56398 25.5111 1.64553 25.3752 1.75427 25.2394C6.67479 24.4787 11.6497 24.3429 16.5974 24.8862C19.1256 25.1579 21.6266 25.6198 24.1005 26.2446C26.5471 26.8695 28.9666 27.6845 31.3045 28.6898C31.3589 28.6898 31.3317 28.7713 31.2774 28.7713Z" fill="#38241E"/>
<path d="M30.081 30.6461C30.081 30.6733 30.081 30.6733 30.0538 30.7004C30.0538 30.7276 30.0267 30.7276 29.9995 30.7276C27.281 30.8363 24.5624 30.8634 21.8711 30.9993C17.2768 31.2166 12.6825 31.7056 8.25134 32.9554C6.18527 33.5259 4.14638 34.2594 2.18905 35.1832V35.156C2.18905 35.0201 2.16187 34.8843 2.16187 34.7485C2.37935 34.6398 2.59683 34.5311 2.84149 34.4496C6.83771 32.6837 11.133 31.7056 15.4826 31.1623C17.9021 30.8634 20.3215 30.7276 22.741 30.6461C25.1605 30.5646 27.58 30.5646 30.0267 30.6189C30.0538 30.6189 30.0538 30.6189 30.081 30.6461C30.081 30.6189 30.081 30.5918 30.081 30.6461Z" fill="#38241E"/>
<path d="M6.83776 38.3066C6.78339 38.3881 6.72902 38.4425 6.67465 38.524C6.56591 38.6598 6.48436 38.7957 6.4028 38.9315C6.10376 39.0945 5.77754 39.2304 5.4785 39.3934C5.31539 39.339 5.17947 39.2575 5.01636 39.2032C5.61443 38.8772 6.23969 38.5783 6.83776 38.3066Z" fill="#38241E"/>
<path d="M8.90384 37.7918C8.49606 37.982 8.0611 38.145 7.65332 38.3352C7.70769 38.2809 7.76206 38.1994 7.84362 38.145C8.11547 37.9277 8.55043 37.6288 8.90384 37.7918Z" fill="#38241E"/>
<path d="M29.7007 33.1186C29.7007 33.1458 29.7007 33.1458 29.6735 33.1729C29.6735 33.1729 29.6463 33.2001 29.6191 33.2001C29.3201 33.2273 28.9938 33.2545 28.6948 33.2545C26.2481 33.3903 23.7743 33.662 21.3548 34.0967C17.277 34.8302 13.3352 35.9713 9.52927 37.547C9.42053 37.4383 9.31179 37.3568 9.14868 37.3025C11.0245 36.5146 12.9546 35.8354 14.9119 35.2649C17.3042 34.5585 19.7237 34.0152 22.1704 33.6348C24.617 33.2273 27.1181 33.0371 29.5919 33.0371C29.6191 33.0371 29.6191 33.0371 29.6463 33.0643C29.6735 33.0914 29.7007 33.0914 29.7007 33.1186Z" fill="#38241E"/>
<path d="M72.6804 24.6146C71.9192 24.5874 71.1309 24.5602 70.3425 24.533C67.4881 24.4787 64.6064 24.533 61.752 24.7232C58.8975 24.9134 56.0703 25.2123 53.2158 25.6469C50.3614 26.0816 47.5341 26.5978 44.7341 27.277C44.6797 27.277 44.6525 27.1955 44.7069 27.1955C45.0603 27.114 45.4137 27.0325 45.7671 26.9238C48.54 26.2446 51.3401 25.6469 54.1673 25.2122C57.0218 24.7776 59.9306 24.4787 62.785 24.2885C65.6395 24.0984 68.5211 24.0712 71.4027 24.1527C71.593 24.1527 71.7833 24.1527 72.0008 24.1799C72.0823 24.2342 72.1911 24.2885 72.2726 24.3429C72.4357 24.4244 72.5717 24.5059 72.6804 24.6146Z" fill="#38241E"/>
<path d="M68.5211 28.9342C68.5211 29.0701 68.5211 29.2059 68.5483 29.3146C66.0472 29.1787 63.519 29.0972 61.018 29.0701C58.1907 29.0429 55.3906 29.0972 52.5634 29.2603C49.7633 29.3961 46.9361 29.6134 44.136 29.8851C44.0816 29.8851 44.0816 29.8036 44.136 29.8036C44.4894 29.7493 44.8428 29.7221 45.169 29.6678C47.9691 29.3146 50.7964 29.0701 53.6236 28.9071C56.4509 28.7441 59.2781 28.6626 62.1054 28.6897C64.2802 28.7712 66.4006 28.8256 68.5211 28.9342Z" fill="#38241E"/>
<path d="M70.6688 29.4775C70.2611 29.4503 69.8805 29.4232 69.4727 29.396C69.4455 29.396 69.4183 29.396 69.3911 29.396C69.364 29.3688 69.3368 29.3145 69.3096 29.2873C69.2552 29.2058 69.228 29.0971 69.228 29.0156C69.5543 29.0428 69.8805 29.0428 70.2067 29.07C70.2883 29.1243 70.3698 29.2058 70.4242 29.2601C70.5057 29.3145 70.5873 29.396 70.6688 29.4775Z" fill="#38241E"/>
<path d="M72.7076 29.2063C72.5445 29.315 72.3814 29.4237 72.1911 29.5052C72.1368 29.5323 72.1096 29.5595 72.0552 29.5595C71.9736 29.5595 71.8649 29.5323 71.7562 29.5323C71.6202 29.3965 71.4843 29.2335 71.3484 29.0977C71.8105 29.152 72.2727 29.1792 72.7076 29.2063Z" fill="#38241E"/>
<path d="M65.1774 37.7098C65.0958 37.8185 65.0414 37.9272 64.9871 38.0359C62.8123 37.085 60.5831 36.2699 58.2995 35.5907C55.9344 34.8844 53.5149 34.341 51.0955 33.9335C48.6488 33.5531 46.2021 33.3086 43.7283 33.1728C43.6195 33.1728 43.6195 33.0098 43.7283 33.0098C44.0273 33.0098 44.3535 33.0098 44.6526 33.0098C47.1264 33.0913 49.6003 33.3358 52.0469 33.7433C54.4936 34.1508 56.9403 34.7485 59.3054 35.4821C61.3171 36.1613 63.2744 36.8676 65.1774 37.7098Z" fill="#38241E"/>
<path d="M68.1403 39.5296C67.3791 39.1492 66.618 38.7689 65.8296 38.4157C65.8296 38.3613 65.8296 38.307 65.8568 38.2527C65.8568 38.1983 65.884 38.1712 65.9111 38.1168C65.9111 38.0897 65.9383 38.0625 65.9383 38.0625C66.0471 38.1168 66.1286 38.144 66.2374 38.1983C66.7539 38.4429 67.2976 38.6874 67.8141 38.959C67.95 39.1221 68.0588 39.3394 68.1403 39.5296Z" fill="#38241E"/>
<path d="M69.0105 39.5567H68.9834C68.929 39.5567 68.9018 39.5839 68.8474 39.5839C68.8202 39.5296 68.7931 39.4752 68.7659 39.4209C68.8474 39.4752 68.929 39.5024 69.0105 39.5567Z" fill="#38241E"/>
<path d="M39.4052 24.3154C39.2421 24.4241 39.0246 24.3426 38.9159 24.1796C38.9431 23.9622 38.9159 23.7177 38.78 23.5275C38.7528 23.5004 38.7256 23.4732 38.6984 23.446C38.6712 23.4189 38.6169 23.4189 38.5897 23.4189C38.5625 23.4189 38.5081 23.446 38.4809 23.446C38.4537 23.4732 38.4266 23.5004 38.3994 23.5275C38.3178 23.772 38.345 24.0166 38.4537 24.2339C38.345 24.5328 38.0188 24.8044 37.7197 24.7229C37.5838 24.6958 37.4751 24.6414 37.3935 24.5328C37.4207 24.4784 37.4479 24.4241 37.4751 24.3426C37.5023 24.2067 37.5294 24.0709 37.5023 23.9351C37.5023 23.7992 37.4479 23.6634 37.3935 23.5547C37.3392 23.446 37.2576 23.3374 37.1489 23.2287C37.1217 23.2015 37.0945 23.2015 37.0673 23.1743C37.0401 23.1743 36.9857 23.1743 36.9586 23.1743C36.9314 23.1743 36.9042 23.2015 36.877 23.2015C36.8498 23.2287 36.8226 23.2559 36.7955 23.283C36.6323 23.6362 36.6595 24.0981 36.8226 24.4512C36.7683 24.4784 36.7139 24.5056 36.6595 24.5328C36.5508 24.5599 36.4692 24.5328 36.3605 24.5056C36.2517 24.4784 36.1702 24.3969 36.1158 24.3426C36.0615 24.2611 36.0071 24.1524 36.0071 24.0709C36.0071 23.9622 36.0071 23.8535 36.0615 23.772C36.2789 23.2015 36.9314 23.0928 37.4751 23.12C37.8013 23.1472 38.1275 23.2015 38.4266 23.2558C38.7256 23.3102 39.1606 23.283 39.4324 23.5275C39.6499 23.7449 39.6499 24.1524 39.4052 24.3154Z" fill="#EAD1B0"/>
<path d="M40.8191 27.0317C40.7376 26.76 40.3842 26.8687 40.3842 27.1132C40.357 27.7653 40.2482 28.363 39.8948 28.9063C39.5686 29.4225 39.0521 29.83 38.454 29.993C38.2637 30.0474 38.0734 30.0746 37.8831 30.0746C37.9103 29.667 37.856 29.2323 37.8288 28.8248C37.8016 28.3901 37.8288 27.9011 37.856 27.4664C37.8831 27.0046 37.9103 26.5699 37.9647 26.1352C37.9919 25.9178 38.0191 25.6733 38.0463 25.456C38.0734 25.3473 38.0734 25.2658 38.1006 25.1571C38.3725 25.0756 38.59 24.8855 38.7531 24.6409C38.9705 24.8039 39.2696 24.8854 39.5414 24.7496C40.1123 24.4779 40.1939 23.5814 39.6774 23.201C39.6502 23.1739 39.623 23.1739 39.5958 23.1739C39.5686 23.1739 38.6715 23.038 38.3181 22.9293C37.9919 22.8478 37.6385 22.7663 37.3123 22.7392C36.7142 22.712 36.0889 22.875 35.7355 23.4184C35.4365 23.8802 35.4365 24.5051 35.8714 24.8854C35.9802 24.967 36.0889 25.0485 36.2248 25.0756C36.3608 25.13 36.4695 25.13 36.6054 25.13C36.7414 25.13 36.8773 25.0756 36.986 25.0213C37.0404 24.9941 37.0676 24.967 37.122 24.9398C37.2851 25.1028 37.5025 25.2115 37.7472 25.2386H37.7744C37.7744 25.293 37.7472 25.3201 37.7472 25.3745C37.6928 25.619 37.6385 25.8363 37.6113 26.0808C37.5297 26.5427 37.4754 27.0046 37.421 27.4664C37.3938 27.9283 37.3666 28.363 37.3666 28.8248C37.3666 29.2323 37.3394 29.6942 37.421 30.1017C37.1763 30.0745 36.9317 29.993 36.7142 29.8844C36.1705 29.6399 35.7083 29.178 35.4365 28.6346C35.3006 28.3086 35.1918 27.9826 35.1646 27.6294C35.1374 27.2762 35.1374 26.9231 35.1918 26.5699C35.1918 26.4612 35.0287 26.434 35.0015 26.5155C34.6481 27.1132 34.7297 28.0098 34.9743 28.6346C35.219 29.3138 35.7083 29.8844 36.3336 30.2376C37.6385 30.9711 39.3783 30.6722 40.3026 29.4497C40.7104 28.7705 41.0366 27.8739 40.8191 27.0317ZM37.72 24.7496C37.5841 24.7224 37.4754 24.6681 37.3938 24.5594C37.421 24.5051 37.4482 24.4508 37.4754 24.3693C37.5025 24.2334 37.5297 24.0976 37.5025 23.9617C37.5025 23.8259 37.4482 23.6901 37.3938 23.5814C37.3394 23.4727 37.2579 23.364 37.1491 23.2554C37.122 23.2282 37.0948 23.2282 37.0676 23.201C37.0404 23.201 36.986 23.201 36.9588 23.201C36.9317 23.201 36.9045 23.2282 36.8773 23.2282C36.8501 23.2554 36.8229 23.2825 36.7957 23.3097C36.6326 23.6629 36.6598 24.1247 36.8229 24.4779C36.7685 24.5051 36.7142 24.5323 36.6598 24.5594C36.5511 24.5866 36.4695 24.5594 36.3608 24.5323C36.252 24.5051 36.1705 24.4236 36.1161 24.3693C36.0617 24.2878 36.0074 24.1791 36.0074 24.0976C36.0074 23.9889 36.0074 23.8802 36.0617 23.7987C36.2792 23.2282 36.9317 23.1195 37.4754 23.1467C37.8016 23.1739 38.1278 23.2282 38.4268 23.2825C38.7259 23.3369 39.1608 23.3097 39.4327 23.5542C39.6502 23.7444 39.623 24.1791 39.4055 24.3149C39.2424 24.4236 39.0249 24.3421 38.9162 24.1791C38.9434 23.9617 38.9162 23.7172 38.7803 23.527C38.7531 23.4999 38.7259 23.4727 38.6987 23.4455C38.6715 23.4184 38.6171 23.4184 38.59 23.4184C38.5628 23.4184 38.5084 23.4455 38.4812 23.4455C38.454 23.4727 38.4268 23.4999 38.3997 23.527C38.3181 23.7716 38.3453 24.0161 38.454 24.2334C38.3453 24.5594 38.0463 24.8039 37.72 24.7496Z" fill="#38241E"/>
<path d="M26.7917 25.9178C27.6324 25.9178 28.314 25.2367 28.314 24.3964C28.314 23.5562 27.6324 22.875 26.7917 22.875C25.9509 22.875 25.2693 23.5562 25.2693 24.3964C25.2693 25.2367 25.9509 25.9178 26.7917 25.9178Z" fill="#38241E"/>
<path d="M25.4324 25.1023C25.7327 25.1023 25.9761 24.8591 25.9761 24.559C25.9761 24.2589 25.7327 24.0156 25.4324 24.0156C25.1321 24.0156 24.8887 24.2589 24.8887 24.559C24.8887 24.8591 25.1321 25.1023 25.4324 25.1023Z" fill="white"/>
<path d="M48.4311 25.0486C49.1518 25.0486 49.736 24.4647 49.736 23.7445C49.736 23.0243 49.1518 22.4404 48.4311 22.4404C47.7104 22.4404 47.1262 23.0243 47.1262 23.7445C47.1262 24.4647 47.7104 25.0486 48.4311 25.0486Z" fill="#38241E"/>
<path d="M49.6004 24.5056C49.9457 24.5056 50.2256 24.2258 50.2256 23.8807C50.2256 23.5356 49.9457 23.2559 49.6004 23.2559C49.255 23.2559 48.9751 23.5356 48.9751 23.8807C48.9751 24.2258 49.255 24.5056 49.6004 24.5056Z" fill="white"/>
<path d="M47.1538 4.69965C47.0451 4.78116 46.9091 4.83549 46.8004 4.917C46.2567 5.21585 45.6858 5.46036 45.0877 5.65054C44.4897 5.84071 43.8644 5.97655 43.2391 6.05806C42.9401 6.08522 42.6411 6.11239 42.3148 6.11239C41.9886 6.13956 41.6624 6.11239 41.3362 6.03089C41.0371 5.94938 40.7925 6.38407 41.0371 6.57425C41.6624 7.03611 42.2877 7.4708 42.9673 7.87832C43.2935 8.0685 43.6197 8.25867 43.946 8.44885C44.0819 8.53035 44.245 8.61186 44.3809 8.66619C44.3809 8.66619 44.3809 8.66619 44.3537 8.66619C44.1363 8.69336 43.9731 8.69336 43.7557 8.72053C43.3751 8.7477 42.9673 8.77486 42.5867 8.7477C41.8527 8.7477 41.1187 8.63902 40.4119 8.42168C40.3575 8.39451 40.276 8.36734 40.2216 8.36734C40.0313 8.09566 39.841 7.79681 39.6235 7.5523C39.0798 6.90027 38.4546 6.32974 37.7206 5.86788C37.6934 5.86788 37.6662 5.84071 37.639 5.84071C37.6118 5.84071 37.5846 5.86788 37.5574 5.86788C37.5303 5.89505 37.5303 5.89505 37.5031 5.92222C37.5031 5.94938 37.5031 5.97655 37.5031 6.00372C37.8565 6.9546 38.5089 7.79681 39.3789 8.36734C39.7051 8.58469 40.0585 8.77486 40.4119 8.9107C40.575 9.12805 40.7653 9.34539 40.9012 9.56274C40.14 9.53557 39.406 9.53557 38.672 9.39973C37.9109 9.26389 37.1769 9.04655 36.4972 8.7477C35.1923 8.15 34.0506 7.28062 33.1534 6.1939C32.6369 5.5962 32.1748 4.94417 31.7942 4.26496C31.767 4.21063 31.6583 4.2378 31.6583 4.29213L31.2505 3.61293C33.8059 3.01523 36.47 2.82506 39.107 3.01523C39.5148 3.0424 39.9226 3.09674 40.3303 3.15107C40.4391 3.17824 41.4177 3.31408 41.7711 3.36842C42.1246 3.39559 42.4508 3.44992 42.8042 3.50426C43.5382 3.6401 44.2994 3.80311 45.0062 3.99328C45.7402 4.21063 46.447 4.42797 47.1538 4.69965Z" fill="#615C5C"/>
<path d="M39.7593 8.15069C38.9981 7.77034 38.3185 7.14547 37.9651 6.38477C38.4816 6.79229 38.9981 7.28131 39.4331 7.77034C39.5418 7.90618 39.6506 8.01485 39.7593 8.15069Z" fill="#615C5C"/>
<path d="M49.0295 3.99363C48.948 3.88495 48.8392 3.80345 48.7305 3.77628C48.5946 3.74912 48.4858 3.77628 48.3499 3.83062C47.8606 4.21097 47.3169 4.59132 46.7731 4.89017C46.2294 5.18902 45.6586 5.43353 45.0605 5.62371C44.4624 5.81389 43.8371 5.94973 43.2119 6.03123C42.9129 6.0584 42.6138 6.08557 42.2876 6.08557C41.9614 6.11274 41.6352 6.08557 41.3089 6.00406C41.0099 5.92256 40.7652 6.35725 41.0099 6.54743C41.6352 7.00928 42.2604 7.44397 42.94 7.85149C43.2663 8.04167 43.5925 8.23185 43.9187 8.42202C44.0546 8.50353 44.2177 8.58503 44.3537 8.63937C44.3537 8.63937 44.3537 8.63937 44.3265 8.63937C44.109 8.66653 43.9459 8.66653 43.7284 8.6937C43.3478 8.72087 42.94 8.74804 42.5594 8.72087C41.8254 8.72087 41.0914 8.6122 40.3846 8.39485C40.3303 8.36769 40.2487 8.34052 40.1943 8.34052C40.004 8.06884 39.8137 7.76999 39.5963 7.52548C39.0526 6.87344 38.4273 6.30291 37.6933 5.84106C37.6661 5.84106 37.6389 5.81389 37.6118 5.81389C37.5846 5.81389 37.5574 5.84106 37.5302 5.84106C37.503 5.86822 37.503 5.86822 37.4758 5.89539C37.4758 5.92256 37.4758 5.94973 37.4758 5.9769C37.8292 6.92778 38.4817 7.76999 39.3516 8.34052C39.6778 8.55786 40.0312 8.74804 40.3846 8.88388C40.5477 9.10122 40.738 9.31857 40.874 9.53591C40.1128 9.50874 39.3788 9.50874 38.6448 9.3729C37.8836 9.23706 37.1496 9.01972 36.47 8.72087C35.1651 8.12317 34.0233 7.25379 33.1262 6.16707C32.6097 5.56937 32.1475 4.91734 31.7669 4.23814C31.7398 4.15664 31.6038 4.21097 31.631 4.29247C31.8213 4.99884 32.1203 5.67805 32.5009 6.33008C33.1534 7.30813 33.9961 8.12317 35.002 8.74804C36.0078 9.3729 37.1224 9.75326 38.2914 9.91627C39.1613 10.0249 40.14 10.0249 40.9827 9.75326C41.0099 9.75326 41.0099 9.72609 41.0371 9.72609C41.0643 9.72609 41.1186 9.69892 41.0915 9.64458H41.0643C40.9283 9.42724 40.7652 9.2099 40.6293 8.99255C41.3089 9.23706 42.0429 9.34574 42.7497 9.40007C43.1303 9.42724 43.4837 9.42724 43.8643 9.40007C44.2177 9.3729 44.7343 9.42724 45.0061 9.18273C45.1692 9.04689 45.1149 8.85671 45.0061 8.74804V8.72087C45.0061 8.6937 45.0061 8.6937 45.0061 8.6937C44.9246 8.55786 44.7886 8.44919 44.6527 8.36768C44.5168 8.25901 44.3809 8.17751 44.2177 8.06884C43.8915 7.87866 43.5653 7.66132 43.2663 7.44397C42.9129 7.19946 42.5594 6.92778 42.206 6.68327H42.2332C42.5594 6.68327 42.8857 6.6561 43.2119 6.6561C43.8915 6.60176 44.544 6.49309 45.1964 6.33008C45.8489 6.16707 46.4741 5.94973 47.0722 5.67805C47.6974 5.40637 48.2955 5.08035 48.8392 4.67283C48.948 4.59132 49.0295 4.48265 49.0567 4.37398C49.1111 4.23814 49.0839 4.1023 49.0295 3.99363ZM37.9923 6.38442C38.5089 6.79194 39.0254 7.28096 39.4603 7.76999C39.5691 7.87866 39.6778 8.0145 39.7866 8.15034C38.9982 7.74282 38.3457 7.14512 37.9923 6.38442Z" fill="#38241E"/>
</svg>