<svg width="91" height="46" viewBox="0 0 91 46" fill="none" xmlns="http://www.w3.org/2000/svg">
<path d="M76.3274 27.4329C76.5758 27.0773 76.7475 26.674 76.8316 26.2485C76.9157 25.823 76.9103 25.3847 76.8158 24.9614C76.5946 23.9906 75.8925 23.2024 75.1087 22.6309C74.325 22.0594 73.421 21.7195 72.5021 21.4434C71.4868 21.1361 70.4893 20.909 69.6209 20.4533C69.4294 20.3524 69.2409 20.241 69.0598 20.1223C68.9767 20.0669 68.895 20.0105 68.8149 19.9531L68.7867 19.9323C68.7199 19.8789 68.6516 19.8269 68.5848 19.772C68.2432 19.4894 67.9232 19.1818 67.6273 18.8517C67.5546 18.77 67.4789 18.6884 67.4136 18.6053L67.3364 18.5132L67.2815 18.4435C67.133 18.2609 67.0009 18.0753 66.8673 17.8868C66.5987 17.5068 66.3478 17.1135 66.1088 16.7142C65.6101 15.8784 65.1395 15.0175 64.715 14.1417C64.6571 14.0245 64.6007 13.9057 64.5472 13.7855C64.5353 13.7573 64.4878 13.6504 64.4908 13.6548C64.4596 13.5851 64.4314 13.5153 64.4018 13.4455C64.2875 13.165 64.1835 12.88 64.0945 12.5891C64.0131 12.3236 63.9457 12.0541 63.8926 11.7815C63.8926 11.7815 63.8718 11.6554 63.8689 11.642C63.8614 11.596 63.8555 11.55 63.8496 11.504C63.8347 11.3719 63.8228 11.2383 63.8169 11.1047C63.8065 10.9206 63.8169 10.738 63.8169 10.554C63.9117 10.5108 63.9955 10.4469 64.0623 10.367C64.1291 10.2871 64.1771 10.1932 64.2028 10.0923L64.6927 8.19528C64.7165 8.09223 64.7165 7.98512 64.6927 7.88207C64.9181 6.80927 64.886 5.69829 64.5988 4.64034C64.3116 3.58239 63.7775 2.60764 63.0406 1.7961C62.7556 1.4829 62.3147 1.57196 62.0579 1.83321C60.3597 1.36712 58.6438 3.36213 57.7531 4.67729C57.3764 5.24258 57.0595 5.84551 56.8076 6.47636C54.0347 4.92084 51.0262 3.82879 47.9012 3.24338C44.1331 2.53323 40.2648 2.54079 36.4995 3.26564C35.4698 3.46664 34.4532 3.72935 33.455 4.05237C32.9622 4.20971 32.4842 4.39971 32.0092 4.60307C31.6933 4.74376 31.3868 4.90491 31.0918 5.0855C30.9164 4.80978 30.7178 4.54957 30.4981 4.30768C30.2279 4.01971 29.9533 3.73471 29.6624 3.46603C29.038 2.89195 28.3667 2.37109 27.6555 1.90892C26.4495 1.11937 25.1475 0.487337 23.7812 0.0282033C23.5051 0.0133594 23.229 0 22.9514 0C22.7553 0.052621 22.5686 0.135238 22.3977 0.244923L22.233 0.76891C21.9034 3.96776 22.1765 7.18887 21.9287 10.3922C22.0805 10.5942 22.2713 10.7638 22.4898 10.8909C22.5151 10.9056 22.5355 10.9275 22.5484 10.9538C22.5614 10.98 22.5662 11.0096 22.5624 11.0386C22.5586 11.0676 22.5463 11.0949 22.527 11.117C22.5078 11.139 22.4824 11.1549 22.4541 11.1626L22.4126 11.1759C22.4185 11.1825 22.4239 11.1894 22.4289 11.1967C22.5224 11.0483 22.7584 11.1967 22.6753 11.36C22.3175 12.0403 21.9138 12.6954 21.467 13.3209C21.3586 13.7573 21.231 14.1848 21.0885 14.5945C21.0517 14.6141 21.0209 14.6433 20.9994 14.6791C20.9118 14.8171 20.8257 14.9581 20.7397 15.0977C20.7261 15.0586 20.7015 15.0243 20.6689 14.9988C20.6363 14.9734 20.5971 14.9578 20.5559 14.9541C20.5147 14.9503 20.4734 14.9585 20.4367 14.9776C20.4001 14.9968 20.3697 15.0261 20.3493 15.062L17.8703 19.2628C17.8576 19.2839 17.8486 19.307 17.8436 19.3311C17.7456 19.4157 17.6521 19.4929 17.5749 19.5538C17.278 19.7804 16.9757 19.9932 16.6679 20.1921C16.0772 20.572 15.4496 20.8913 14.7946 21.145C13.2345 21.7388 11.4918 21.8368 10.0327 22.6992C8.66258 23.5097 7.54483 25.2716 8.21133 26.8777C8.37866 27.2601 8.58828 27.6226 8.83626 27.9584C9.0537 28.2357 9.23247 28.5413 9.36767 28.8668C9.60369 29.5793 9.44338 30.3438 9.29791 31.1082C9.14204 31.9291 8.97876 32.7737 9.09454 33.6094C9.19376 34.3622 9.44637 35.0867 9.83674 35.738C10.6071 37.0172 11.8429 37.9482 13.285 38.3357C13.3473 38.352 13.4127 38.3639 13.4765 38.3772C13.239 39.6805 13.5329 41.0491 14.1593 42.2159C14.9489 43.6654 16.2618 44.7591 17.8302 45.2737C19.5031 45.8274 21.3928 45.6863 23.0256 45.0688C23.8549 44.7622 24.6343 44.3346 25.3383 43.7997C26.0583 43.246 26.6386 42.6419 27.4076 42.1891C28.126 41.7691 28.9721 41.7067 29.8331 41.87C30.8336 42.0615 31.8014 42.4059 32.793 42.6434C34.7971 43.1111 36.8417 43.384 38.8983 43.4583C43.0383 43.6231 47.1827 43.0382 51.204 42.0823C52.2134 41.8433 53.2183 41.5791 54.2173 41.297C55.0575 41.0595 55.8887 40.7523 56.7408 40.5459L56.8447 40.5237C56.8826 40.5187 56.9207 40.5158 56.959 40.5148C56.9738 40.5148 57.0094 40.5148 57.0406 40.5148C57.0718 40.5148 57.1475 40.54 57.1638 40.5444L57.1891 40.5593C57.2529 40.5979 57.3167 40.6335 57.3805 40.6736L57.3924 40.681L57.4607 40.733C57.5498 40.8052 57.6359 40.8809 57.719 40.9601C58.3662 41.5538 58.9213 42.2485 59.576 42.8393C59.9378 43.1662 60.33 43.458 60.7472 43.7106C60.8579 43.7728 60.9831 43.8046 61.11 43.8028C61.237 43.8009 61.3612 43.7656 61.4701 43.7002C61.568 43.7789 61.666 43.8561 61.7669 43.9318C62.9145 44.7736 64.2765 45.2743 65.6961 45.3761C67.1163 45.4732 68.5326 45.1384 69.7589 44.4157C70.9697 43.6838 71.8793 42.5436 72.324 41.2005C72.6923 40.111 72.7156 38.9343 72.3908 37.831C73.5783 37.6633 74.6293 36.878 75.3329 35.8686C76.4016 34.3382 76.3719 32.4041 75.9147 30.6629C75.7015 29.8989 75.4346 29.1509 75.1161 28.4245C75.1963 28.3948 75.275 28.3606 75.3551 28.322C75.7474 28.11 76.0813 27.8046 76.3274 27.4329Z" fill="#FF7B7B"/>
<path d="M42.9534 21.7217C40.5052 21.7236 38.0913 22.2978 35.9045 23.3986C33.7177 24.4994 31.8186 26.0963 30.3588 28.0617C28.899 30.0271 27.919 32.3066 27.497 34.7181C27.075 37.1297 27.2227 39.6065 27.9283 41.9508C28.5453 41.7593 29.2013 41.7301 29.8328 41.8662C30.8333 42.0577 31.8011 42.402 32.7927 42.6395C34.7968 43.1073 36.8414 43.3802 38.898 43.4545C43.038 43.6192 47.1825 43.0344 51.2037 42.0785C52.2131 41.8395 53.218 41.5752 54.217 41.2932C55.0572 41.0557 55.8885 40.7484 56.7405 40.5421L56.8444 40.5199C56.8823 40.5149 56.9205 40.512 56.9587 40.5109C56.9736 40.5109 57.0092 40.5109 57.0404 40.5109C57.0715 40.5109 57.1472 40.5362 57.1636 40.5406L57.1888 40.5555C57.2526 40.5941 57.3165 40.6297 57.3803 40.6698L57.3922 40.6772L57.4604 40.7292C57.5495 40.8014 57.6356 40.8771 57.7187 40.9563C57.8672 41.0899 58.0037 41.2294 58.1418 41.3704C58.7441 39.05 58.8072 36.6224 58.3261 34.2738C57.845 31.9252 56.8326 29.718 55.3664 27.8212C53.9002 25.9245 52.0192 24.3886 49.8676 23.3313C47.716 22.274 45.3508 21.7234 42.9534 21.7217Z" fill="#EDD6B4"/>
<path d="M76.3276 27.4326C76.576 27.0771 76.7477 26.6737 76.8317 26.2482C76.9158 25.8227 76.9104 25.3844 76.8159 24.9611C76.5948 23.9903 75.8926 23.2021 75.1089 22.6306C74.3251 22.0591 73.4211 21.7192 72.5023 21.4431C71.4914 21.1373 70.4983 20.9102 69.6329 20.459C64.5548 26.3045 54.357 30.296 42.608 30.296C31.0193 30.296 20.9432 26.4128 15.7938 20.698C15.4713 20.8647 15.1397 21.0133 14.8007 21.1433C13.2406 21.737 11.498 21.835 10.0388 22.6974C8.66869 23.5079 7.55094 25.2699 8.21743 26.876C8.38476 27.2584 8.59438 27.6208 8.84236 27.9566C9.0598 28.2339 9.23857 28.5396 9.37378 28.865C9.6098 29.5775 9.44948 30.342 9.30401 31.1064C9.14815 31.9273 8.98486 32.7719 9.10065 33.6076C9.19987 34.3604 9.45247 35.0849 9.84285 35.7362C10.6132 37.0154 11.849 37.9464 13.2911 38.3339C13.3534 38.3502 13.4188 38.3621 13.4826 38.3754C13.2451 39.6787 13.539 41.0473 14.1654 42.214C14.9533 43.663 16.264 44.7571 17.8304 45.2733C19.5033 45.827 21.393 45.686 23.0258 45.0685C23.8551 44.7619 24.6344 44.3342 25.3385 43.7994C26.0584 43.2457 26.6388 42.6415 27.4077 42.1888C28.1262 41.7687 28.9723 41.7064 29.8332 41.8697C30.8337 42.0611 31.8016 42.4055 32.7931 42.643C34.7972 43.1108 36.8418 43.3837 38.8985 43.4579C43.0384 43.6227 47.1829 43.0379 51.2041 42.0819C52.2135 41.8429 53.2184 41.5787 54.2174 41.2967C55.0576 41.0592 55.8889 40.7519 56.7409 40.5456L56.8448 40.5233C56.8828 40.5184 56.9209 40.5154 56.9591 40.5144C56.974 40.5144 57.0096 40.5144 57.0408 40.5144C57.0719 40.5144 57.1477 40.5397 57.164 40.5441L57.1892 40.559C57.253 40.5975 57.3169 40.6332 57.3807 40.6733L57.3926 40.6807L57.4609 40.7326C57.5499 40.8049 57.636 40.8806 57.7192 40.9597C58.3663 41.5535 58.9215 42.2482 59.5761 42.839C59.938 43.1659 60.3302 43.4577 60.7473 43.7103C60.858 43.7725 60.9832 43.8042 61.1102 43.8024C61.2371 43.8006 61.3613 43.7652 61.4702 43.6999C61.5682 43.7786 61.6662 43.8558 61.7671 43.9315C62.9147 44.7733 64.2767 45.2739 65.6963 45.3758C67.1165 45.4729 68.5328 45.1381 69.7591 44.4154C70.9699 43.6835 71.8795 42.5433 72.3242 41.2002C72.6924 40.1106 72.7157 38.934 72.3909 37.8307C73.5785 37.6629 74.6294 36.8777 75.333 35.8683C76.4018 34.3379 76.3721 32.4038 75.9149 30.6626C75.7017 29.8986 75.4348 29.1506 75.1163 28.4242C75.1965 28.3945 75.2751 28.3603 75.3553 28.3217C75.7475 28.1097 76.0814 27.8044 76.3276 27.4326Z" fill="#EDD6B4"/>
<path d="M16.1381 21.4888C16.7319 22.5784 17.9877 23.3666 18.9926 24.0568C19.9696 24.747 21.014 25.3363 22.1099 25.8158C23.2247 26.2893 24.3513 26.7064 25.4691 27.1621C25.9856 27.3714 26.4888 27.6371 27.0203 27.8064C27.666 28.0127 28.3414 28.1255 28.999 28.2858C29.2691 28.3526 29.4443 27.9548 29.1801 27.8257C28.1187 27.2957 27.0633 26.7302 26.0153 26.1721C24.958 25.5906 23.9523 24.9197 23.0094 24.1667C22.0728 23.4245 21.0797 22.7743 20.1252 22.0722C19.1708 21.3701 18.2475 20.5151 17.1223 20.1336C16.3237 19.8634 15.7863 20.852 16.1337 21.4888H16.1381Z" fill="#EDD6B4"/>
<path d="M27.1657 22.0165C25.806 21.4227 24.6066 20.4727 23.5868 19.4084C22.567 18.3441 21.9866 16.9325 20.9847 15.8711C20.284 15.1289 18.9852 15.9572 19.3028 16.9102C19.8179 18.4376 21.381 19.6088 22.6635 20.4727C23.9995 21.3856 25.4839 21.914 27.0306 22.3564C27.2295 22.4128 27.3616 22.0981 27.1657 22.0135V22.0165Z" fill="#EDD6B4"/>
<path d="M27.985 16.7393C27.219 16.0506 26.5763 15.2119 25.8282 14.4949C25.0655 13.7852 24.3611 13.0153 23.7218 12.1927C22.8846 11.0794 21.0187 12.2431 21.8767 13.3327C22.618 14.3101 23.481 15.1891 24.4447 15.9481C25.4422 16.7081 26.4679 17.0065 27.6555 17.3375C27.7296 17.3525 27.8066 17.3435 27.8752 17.3118C27.9439 17.2801 28.0007 17.2273 28.0374 17.1612C28.0741 17.0951 28.0888 17.019 28.0794 16.9439C28.07 16.8689 28.0369 16.7988 27.985 16.7438V16.7393Z" fill="#EDD6B4"/>
<path d="M55.6052 15.1568C56.711 15.5591 58.2771 14.8139 59.2731 14.3686C59.8966 14.0911 60.5037 13.7957 61.1004 13.4691C61.7357 13.1203 62.4364 12.8323 62.7778 12.1584C62.8602 12.0025 62.9007 11.8278 62.8955 11.6516C62.8903 11.4753 62.8394 11.3034 62.7479 11.1526C62.6563 11.0019 62.5273 10.8775 62.3733 10.7915C62.2193 10.7055 62.0457 10.6609 61.8693 10.6621C61.1078 10.6621 60.5334 11.1609 59.9084 11.5394L58.2904 12.5132C57.7546 12.8368 57.2128 13.1618 56.7081 13.5329C56.2375 13.8773 55.6824 14.2291 55.4389 14.7783C55.4207 14.8135 55.4106 14.8524 55.4093 14.892C55.4081 14.9316 55.4157 14.971 55.4316 15.0073C55.4476 15.0436 55.4714 15.0759 55.5014 15.1017C55.5315 15.1276 55.5669 15.1464 55.6052 15.1568Z" fill="#EDD6B4"/>
<path d="M56.7216 20.345C57.5365 20.3375 58.3396 20.3969 59.153 20.2737C59.9402 20.1427 60.7131 19.937 61.4613 19.6592C63.0114 19.0884 64.4575 18.2676 65.7423 17.2292C66.2217 16.8433 66.4518 16.2421 66.1089 15.6721C65.812 15.1853 65.0387 14.9299 64.5533 15.304C63.345 16.2113 62.0681 17.0232 60.7339 17.7325C60.1105 18.0664 59.4722 18.3618 58.8354 18.6646C58.1021 19.012 57.3866 19.438 56.6221 19.7037C56.5494 19.7288 56.4878 19.7787 56.4483 19.8447C56.4087 19.9107 56.3938 19.9885 56.406 20.0645C56.4183 20.1404 56.4569 20.2096 56.5152 20.2598C56.5735 20.3101 56.6476 20.3381 56.7245 20.339L56.7216 20.345Z" fill="#EDD6B4"/>
<path d="M58.7877 27.6274C59.8149 27.4315 60.8376 27.292 61.8263 26.9342C62.8051 26.5774 63.7579 26.1528 64.6778 25.6636C65.603 25.1761 66.5032 24.6426 67.3749 24.0649C68.2314 23.4994 69.2007 22.9234 69.891 22.1575C70.7519 21.2031 69.6104 19.8879 68.5135 20.4609C67.6392 20.9166 66.8702 21.6202 66.0553 22.1783C65.2404 22.7364 64.3898 23.2886 63.5393 23.8111C61.8456 24.8635 60.2201 26.0035 58.5502 27.0856C58.2533 27.2786 58.4715 27.6794 58.7907 27.6215L58.7877 27.6274Z" fill="#EDD6B4"/>
<path d="M44.8818 22.0787L44.8506 22.0564C44.8135 22.0335 44.7722 22.0183 44.7291 22.0116C44.686 22.005 44.642 22.0071 44.5998 22.0178C44.5491 21.9936 44.4958 21.9752 44.4409 21.9629C44.2405 21.9184 44.0372 21.8902 43.8353 21.8531L42.6225 21.6378C42.5839 21.631 42.5443 21.6329 42.5065 21.6434C42.4687 21.6539 42.4338 21.6728 42.4043 21.6987C42.2015 21.7457 42.0134 21.8418 41.8563 21.9784C41.6992 22.1151 41.578 22.2881 41.5033 22.4825C41.4267 22.6423 41.4129 22.8251 41.4647 22.9946C41.5805 23.3375 42.1089 23.3523 42.1936 22.9768C42.2054 22.9248 42.2129 22.8714 42.2247 22.8194C42.2247 22.806 42.2648 22.7066 42.2411 22.7615C42.2689 22.6923 42.3108 22.6296 42.3643 22.5775C42.4445 22.949 42.6455 23.2836 42.9358 23.5289C43.005 23.5939 43.0971 23.6291 43.192 23.6269C43.287 23.6246 43.3773 23.5852 43.4434 23.5171C43.5962 23.3417 43.6987 23.1284 43.7403 22.8996C43.7516 22.8372 43.7516 22.7734 43.7403 22.711C43.8714 22.7554 43.9893 22.832 44.0832 22.9337C44.1561 22.9819 44.2415 23.0076 44.3289 23.0076C44.4162 23.0076 44.5017 22.9819 44.5745 22.9337C44.5954 22.9405 44.6168 22.946 44.6384 22.95C44.7216 22.9673 44.8083 22.9526 44.8811 22.9088C44.954 22.8651 45.0078 22.7956 45.0317 22.714C45.0496 22.6578 45.0596 22.5993 45.0614 22.5403C45.0857 22.4543 45.0813 22.3627 45.0489 22.2794C45.0165 22.1961 44.9579 22.1257 44.8818 22.0787Z" fill="#EAD1B0"/>
<path d="M27.3483 6.69253L27.2651 6.64057C27.2755 6.64057 27.2147 6.6005 27.2058 6.59159C27.1434 6.53815 27.0811 6.48867 27.0187 6.44315C26.8703 6.3244 26.7219 6.21159 26.5586 6.10471C26.2827 5.91884 25.9917 5.75647 25.6887 5.61932C25.6554 5.60467 25.6205 5.59371 25.5848 5.58667C25.5296 5.55246 25.4657 5.53493 25.4007 5.5362C25.3124 5.53999 25.2288 5.57749 25.1672 5.64099C25.1057 5.70449 25.0708 5.78916 25.0697 5.8776C25.0474 6.08987 25.0549 6.30807 25.0519 6.52182C25.0519 6.54854 25.0519 6.57526 25.0519 6.60198C25.0445 6.75042 25.0371 6.89886 25.0311 7.0562C25.017 7.44812 25.023 7.84051 25.0489 8.23183C25.0517 8.26989 25.0676 8.30579 25.0941 8.3333C25.1205 8.36081 25.1558 8.37819 25.1937 8.38242C25.2316 8.38665 25.2698 8.37747 25.3017 8.35647C25.3335 8.33547 25.357 8.30397 25.3681 8.26745C25.3681 8.23925 25.38 8.21105 25.3874 8.18284C25.4402 8.20148 25.4962 8.20955 25.5521 8.20659C25.5847 8.20489 25.617 8.19992 25.6486 8.19175C25.7375 8.22077 25.8327 8.22386 25.9232 8.20066C26.1948 8.11265 26.4533 7.98885 26.6922 7.83253L27.369 7.4555C27.4345 7.4146 27.4882 7.35739 27.5249 7.28947C27.5616 7.22155 27.58 7.14525 27.5783 7.06808C27.5742 6.9913 27.551 6.91677 27.5108 6.8512C27.4706 6.78564 27.4148 6.73111 27.3483 6.69253Z" fill="#EDD6B4"/>
<path d="M62.3354 7.71982C62.312 7.44797 62.2668 7.17843 62.2003 6.9138C62.1594 6.58834 62.075 6.26983 61.9495 5.96677C61.9307 5.91235 61.8923 5.86693 61.8418 5.83945C61.7912 5.81197 61.7322 5.80444 61.6763 5.81833C61.6379 5.83098 61.6032 5.8529 61.5752 5.88215C61.5472 5.9114 61.5269 5.94709 61.516 5.98607C61.1835 6.02466 60.8139 6.37943 60.6165 6.57982C60.3507 6.85588 60.1388 7.17906 59.9915 7.53279H59.9811C59.9437 7.51792 59.9035 7.51151 59.8633 7.51403C59.8231 7.51654 59.7839 7.52792 59.7486 7.54733C59.7133 7.56675 59.6828 7.59373 59.6591 7.62634C59.6355 7.65896 59.6194 7.69639 59.6119 7.73597C59.6044 7.77554 59.6058 7.81628 59.6159 7.85527C59.6261 7.89425 59.6447 7.93051 59.6705 7.96145C59.6962 7.9924 59.7286 8.01725 59.7651 8.03425C59.8016 8.05124 59.8414 8.05995 59.8817 8.05974C59.907 8.11398 59.9522 8.15647 60.0079 8.17849L60.1266 8.28685C60.3077 8.44618 60.4928 8.60352 60.6818 8.75888C61.0531 9.06218 61.4406 9.34512 61.8426 9.60646C61.8721 9.62329 61.9051 9.63317 61.939 9.63537C61.9729 9.63757 62.0069 9.63202 62.0384 9.61915C62.0699 9.60628 62.098 9.58642 62.1206 9.56108C62.1433 9.53574 62.1599 9.50557 62.1692 9.47287C62.3286 8.90311 62.3849 8.30941 62.3354 7.71982Z" fill="#EDD6B4"/>
<path d="M52.0412 4.13554C48.2874 3.23969 44.4338 2.83159 40.5757 2.92132C39.495 2.94705 38.4164 3.01236 37.3397 3.11726C37.2209 2.85897 36.8394 3.0846 36.9552 3.34288C38.1041 5.90047 40.3307 7.9118 42.9492 8.88852C43.6863 9.16104 44.4524 9.34782 45.2322 9.44516C45.2665 9.44496 45.3002 9.43692 45.3309 9.42163C45.3616 9.40635 45.3883 9.38424 45.4091 9.35701C45.4299 9.32977 45.4442 9.29813 45.4508 9.26452C45.4575 9.23092 45.4563 9.19623 45.4475 9.16313C45.2553 8.60615 45.0154 8.0668 44.7305 7.5511C45.9645 8.318 47.4384 8.60188 48.869 8.34821C49.0679 8.31258 49.0709 8.03649 48.9224 7.94149C48.0518 7.39237 47.2788 6.70209 46.635 5.89898C48.5594 6.12806 50.5012 5.64552 52.0946 4.54226C52.1312 4.5193 52.1604 4.48631 52.1788 4.44722C52.1972 4.40813 52.204 4.36459 52.1984 4.32175C52.1928 4.27892 52.1749 4.2386 52.1471 4.20559C52.1192 4.17259 52.0824 4.14827 52.0412 4.13554Z" fill="#615C5C"/>
<path d="M24.7892 39.3875C25.3266 39.6621 25.855 39.9545 26.3968 40.2187C26.9386 40.4829 27.4849 40.7011 28.0386 40.9194C29.1622 41.3647 30.3097 41.7462 31.4705 42.0742C33.8118 42.7244 36.2069 43.1625 38.6268 43.3834C41.0221 43.6164 43.4326 43.6507 45.8335 43.4859C48.2638 43.3201 50.676 42.9511 53.0447 42.383C55.3857 41.8223 57.6712 41.0507 59.873 40.0777C60.1698 39.9471 60.4504 39.8031 60.7354 39.6591C61.2119 39.4186 60.8512 38.6037 60.348 38.7997C59.2406 39.2331 58.1347 39.671 57.0081 40.051C55.8814 40.431 54.7355 40.7679 53.5821 41.0604C51.313 41.6408 49.0015 42.0409 46.6692 42.2568C44.2953 42.4789 41.9078 42.5186 39.5278 42.3755C37.1838 42.2271 34.8539 41.9061 32.5571 41.4151C31.3918 41.1702 30.234 40.8926 29.0895 40.5646C27.945 40.2365 26.8317 39.8328 25.6888 39.5255C25.4051 39.4415 25.1261 39.3424 24.853 39.2286C24.7595 39.1945 24.7046 39.3459 24.7892 39.389V39.3875Z" fill="#38241E"/>
<path d="M46.6141 2.95686C46.1903 2.81253 45.7567 2.69893 45.3167 2.61694C44.8922 2.54717 44.4646 2.49077 44.0371 2.44475C43.155 2.35473 42.268 2.32102 41.3815 2.34381C39.599 2.3885 37.8263 2.62439 36.0941 3.04741C32.6125 3.88857 29.3377 5.42724 26.4678 7.57033C25.0595 8.61398 23.7733 9.81301 22.6336 11.1447C21.5544 12.4213 20.6935 13.8582 19.8132 15.2698C18.9582 16.6325 18.0765 18.0159 16.9009 19.1292C16.3497 19.6587 15.7203 20.1002 15.035 20.4384C14.3328 20.7799 13.5045 20.955 12.7223 21.1153C11.0983 21.4493 9.24729 21.7952 8.18743 23.2113C7.06077 24.7179 7.16765 27.2295 8.88807 28.2671C9.24384 28.4974 9.62485 28.6862 10.0236 28.8297C10.4471 28.9685 10.892 29.0308 11.3373 29.0137C12.1641 28.9751 13.0815 28.6471 13.4288 27.8262C13.5252 27.6322 13.5522 27.4109 13.5052 27.1994C13.4582 26.9879 13.3401 26.7989 13.1706 26.664C12.7698 26.3537 12.2591 26.4502 11.8346 26.6536C11.4306 26.872 11.0635 27.1525 10.7465 27.4848C10.407 27.8132 10.097 28.1708 9.82027 28.5536C9.24787 29.3203 8.8393 30.1965 8.61994 31.1278C8.40058 32.0591 8.37513 33.0256 8.54517 33.9671C8.87619 35.6935 10.1454 37.2328 11.7129 37.9943C12.5026 38.3787 13.414 38.6132 14.2972 38.5212C15.1804 38.4292 16.2269 37.9883 16.6129 37.1585C16.938 36.4772 16.7346 35.4634 15.9672 35.1799C15.0765 34.8518 14.2007 35.7038 13.7153 36.354C13.2166 37.0354 12.8785 37.8208 12.7263 38.6513C12.5741 39.4819 12.6118 40.3361 12.8366 41.15C13.0602 42.0064 13.4655 42.8046 14.0249 43.4905C14.5843 44.1764 15.2846 44.7339 16.0785 45.1252C17.765 45.954 19.6779 46.2029 21.5203 45.8333C23.4604 45.4637 25.2046 44.4246 26.6415 43.0931C26.971 42.7893 27.2847 42.4692 27.5826 42.1327C27.8988 41.7794 28.1645 41.3905 28.4569 41.0224C28.5394 40.9312 28.5837 40.8118 28.5807 40.6889C28.5776 40.5659 28.5275 40.4488 28.4406 40.3618C28.3506 40.2773 28.231 40.2316 28.1077 40.2347C27.9843 40.2378 27.8671 40.2893 27.7815 40.3782C27.4947 40.7216 27.19 41.0496 26.8686 41.3608C26.5539 41.6815 26.2253 41.9877 25.8829 42.2797C25.2367 42.8227 24.5369 43.2987 23.7944 43.7002C23.0442 44.1091 22.2423 44.4151 21.4105 44.6101C21.3184 44.6309 21.2279 44.6502 21.1358 44.668L20.9874 44.6962C20.8612 44.7185 20.9354 44.7037 20.9636 44.6962C20.7469 44.7274 20.5287 44.7512 20.3105 44.766C19.9037 44.7932 19.4954 44.7907 19.0889 44.7586L18.9033 44.7423C18.93 44.7423 19.0013 44.7556 18.8766 44.7423C18.7519 44.7289 18.6703 44.714 18.5663 44.6962C18.3615 44.6636 18.1581 44.6205 17.9563 44.5715C17.7544 44.5226 17.5763 44.4691 17.3907 44.4068L17.128 44.3148C16.9409 44.245 17.223 44.3578 17.0404 44.2791L16.8697 44.2064C16.1593 43.8978 15.5159 43.4536 14.9756 42.8987C14.7186 42.645 14.4955 42.3591 14.3121 42.0481C14.1218 41.7446 13.9678 41.4197 13.8534 41.0803C13.622 40.3956 13.5213 39.6735 13.5565 38.9517C13.5603 38.2285 13.7526 37.5189 14.1146 36.8928C14.3036 36.5661 14.5403 36.2695 14.8168 36.0126C15.0765 35.7751 15.5352 35.4886 15.8855 35.7157C16.0064 35.8075 16.0962 35.9341 16.143 36.0784C16.1897 36.2228 16.191 36.3781 16.1468 36.5232C16.0577 36.8557 15.7504 37.0962 15.4476 37.2313C15.0898 37.3755 14.7067 37.4462 14.321 37.4391C13.9843 37.4596 13.6464 37.4397 13.3145 37.3797C12.5998 37.2447 11.9281 36.9391 11.3566 36.4891C10.7643 36.0308 10.2849 35.4427 9.95535 34.7702C9.92178 34.7077 9.89204 34.6433 9.86629 34.5772C9.82769 34.4852 9.79355 34.3931 9.76089 34.2996C9.69522 34.1086 9.64119 33.9138 9.59909 33.7163C9.55676 33.5361 9.52847 33.353 9.51448 33.1685C9.49472 32.9583 9.48679 32.7472 9.49073 32.5362C9.51606 31.7449 9.68978 30.9655 10.0029 30.2383C10.3194 29.4656 10.7629 28.7511 11.3151 28.1246C11.5823 27.8277 11.8732 27.4997 12.2309 27.3097C12.4046 27.2161 12.8247 27.087 12.8366 27.4091C12.8484 27.7312 12.5204 28.0029 12.2799 28.1231C11.9411 28.2809 11.5698 28.3562 11.1963 28.3428C10.4793 28.3428 9.67628 28.0801 9.22057 27.5056C8.74101 26.921 8.48807 26.1833 8.50806 25.4275C8.52053 25.0697 8.60384 24.7179 8.75315 24.3926C8.90246 24.0672 9.11481 23.7747 9.37792 23.5319C9.62294 23.3052 9.8988 23.1143 10.1973 22.9649C10.2804 22.9203 10.365 22.8788 10.4511 22.8402C10.3843 22.8699 10.4704 22.8328 10.4793 22.8298L10.6382 22.7645C10.8178 22.6932 11.0004 22.6294 11.1844 22.57C11.9385 22.331 12.7074 22.1514 13.4689 21.9451C14.2241 21.759 14.9552 21.4866 15.648 21.1331C16.2938 20.7761 16.8888 20.3343 17.4174 19.8195C18.5203 18.7655 19.3857 17.4845 20.1947 16.1976C21.0037 14.9106 21.7667 13.5702 22.6796 12.3382C23.6296 11.0742 24.7208 9.92278 25.9319 8.90627C28.457 6.79911 31.3631 5.19617 34.4925 4.18445C37.6154 3.13558 40.9167 2.72223 44.2019 2.96874C44.5879 3.00041 44.9723 3.04345 45.3553 3.09788C45.7516 3.1528 46.1509 3.17507 46.5428 3.22554C46.5766 3.23095 46.6112 3.22346 46.6398 3.20456C46.6683 3.18565 46.6887 3.15671 46.697 3.12346C46.7052 3.09022 46.7006 3.0551 46.6842 3.02507C46.6677 2.99503 46.6406 2.97228 46.6081 2.96132L46.6141 2.95686Z" fill="#38241E"/>
<path d="M45.7221 3.15419C46.0546 3.18833 46.3842 3.2581 46.7152 3.28927C47.0462 3.32044 47.3594 3.36497 47.6786 3.41841C48.3793 3.53693 49.073 3.69352 49.7567 3.88747C51.2237 4.3049 52.6508 4.85131 54.0214 5.5203C56.8492 6.88593 59.5285 8.65532 61.7967 10.8344C62.863 11.8317 63.7933 12.9651 64.5636 14.2054C65.288 15.4004 65.861 16.6799 66.5735 17.8822C67.2607 19.0415 68.1054 20.1088 69.2454 20.8421C70.5116 21.6541 72.0079 21.893 73.4373 22.2671C74.1142 22.4452 74.7733 22.6441 75.3745 23.0093C75.9241 23.3288 76.3542 23.8194 76.5991 24.4061C76.7328 24.7363 76.8023 25.089 76.8039 25.4452C76.8117 25.7897 76.7527 26.1324 76.6303 26.4546C76.5125 26.769 76.3339 27.0571 76.1047 27.3023C75.8754 27.5476 75.6 27.7453 75.2943 27.884C75.0051 28.0179 74.6973 28.1075 74.3814 28.1497C74.0355 28.1871 73.6863 28.1796 73.3423 28.1275C73.1836 28.1141 73.0303 28.0635 72.8946 27.98C72.759 27.8965 72.6449 27.7822 72.5615 27.6465C72.4398 27.4506 72.4354 27.1834 72.7233 27.1626C73.0558 27.1389 73.3839 27.415 73.614 27.6168C73.916 27.8809 74.1905 28.1748 74.4334 28.4941C74.9124 29.1058 75.2861 29.7931 75.5392 30.5277C76.0039 31.923 76.0128 33.5366 75.3715 34.7968C75.0631 35.4138 74.6277 35.9586 74.0937 36.3953C73.5598 36.832 72.9395 37.1508 72.2736 37.3306C71.9571 37.415 71.6302 37.4535 71.3028 37.4449C71.2152 37.4449 71.1291 37.4449 71.0415 37.4331C71.0311 37.4331 70.9331 37.4242 71.0133 37.4331L70.8975 37.4167C70.6962 37.3876 70.4976 37.3419 70.3038 37.2802C69.9934 37.1831 69.715 37.0041 69.4977 36.7621C69.4187 36.6737 69.363 36.5671 69.3355 36.4517C69.308 36.3364 69.3097 36.2161 69.3404 36.1016C69.3505 36.0557 69.3665 36.0113 69.3879 35.9695C69.4023 35.941 69.4181 35.9132 69.4354 35.8863C69.4146 35.919 69.5408 35.7616 69.4755 35.8284C69.4102 35.8952 69.5111 35.8032 69.5363 35.7869C69.5619 35.7667 69.5898 35.7498 69.6195 35.7364C69.7021 35.7023 69.7915 35.6876 69.8807 35.6934C70.2667 35.7067 70.6229 36.0511 70.8619 36.3242C71.3014 36.8352 71.6074 37.4473 71.7525 38.1055C71.9155 38.7628 71.9221 39.4491 71.7718 40.1094C71.6011 40.8071 71.4378 41.4172 71.0682 42.0391C70.3424 43.2489 69.048 44.0876 67.7165 44.4883C66.2921 44.9078 64.7758 44.8985 63.3568 44.4616C62.9924 44.3555 62.6362 44.223 62.291 44.0653C61.9273 43.9005 61.571 43.7179 61.2267 43.519C60.5339 43.12 59.8825 42.6531 59.2821 42.1252C58.9783 41.859 58.6854 41.5814 58.4033 41.2925C58.1261 41.0264 57.8625 40.7465 57.6136 40.4538C57.5454 40.3521 57.441 40.2801 57.3216 40.2525C57.2022 40.225 57.0769 40.2439 56.9709 40.3053C56.775 40.4271 56.6621 40.7507 56.8225 40.9481C57.1119 41.3177 57.3732 41.7022 57.6834 42.0554C57.9936 42.4087 58.289 42.719 58.6141 43.0277C59.2816 43.6633 60.0191 44.2211 60.8125 44.6902C62.3595 45.6123 64.1417 46.0636 65.9411 45.9891C67.6779 45.897 69.4057 45.2944 70.7045 44.1158C71.8921 43.0351 72.6595 41.4305 72.6343 39.811C72.6384 39.0413 72.5042 38.277 72.2379 37.5548C71.9558 36.8416 71.5211 36.1987 70.9643 35.6711C70.6392 35.3638 70.1984 35.0907 69.7427 35.0566C69.537 35.0441 69.3316 35.0861 69.1474 35.1784C68.9631 35.2706 68.8064 35.4099 68.6932 35.582C68.1974 36.2886 68.3844 37.295 69.0732 37.8398C70.4567 38.9323 72.5318 38.6414 73.9717 37.8175C74.6992 37.4019 75.3289 36.8348 75.8181 36.1546C76.3073 35.4744 76.6445 34.6969 76.8069 33.875C77.1246 32.113 76.6035 30.3125 75.6194 28.8489C75.1399 28.1236 74.5476 27.4797 73.8648 26.9414C73.5338 26.6876 73.1226 26.462 72.6862 26.4961C72.4823 26.5104 72.2888 26.5916 72.1358 26.7272C71.9828 26.8627 71.8789 27.045 71.8401 27.2457C71.7095 28.074 72.5467 28.7301 73.2236 29.0003C74.0548 29.3328 75.0405 29.1992 75.8406 28.8311C76.6347 28.4726 77.2663 27.8305 77.6115 27.0305C77.9631 26.1951 78.0155 25.2639 77.7599 24.3942C77.2567 22.7258 75.6253 21.9227 74.0608 21.5071C72.5467 21.1063 70.9524 20.949 69.6076 20.0762C68.4201 19.3058 67.6304 18.1079 66.952 16.8966C66.1994 15.5607 65.5314 14.1609 64.6215 12.9125C63.6557 11.6214 62.5406 10.449 61.2994 9.41977C59.9822 8.30247 58.5729 7.29843 57.0867 6.41835C55.5999 5.53368 54.0395 4.77928 52.4227 4.16357C50.9408 3.58031 49.3968 3.16941 47.8211 2.93895C47.4752 2.89294 47.1279 2.85583 46.782 2.83208C46.4348 2.82168 46.0874 2.83855 45.7429 2.88255C45.7093 2.88687 45.6786 2.9035 45.6566 2.92921C45.6346 2.95493 45.6229 2.98789 45.6238 3.02172C45.6248 3.05555 45.6382 3.08783 45.6616 3.11231C45.685 3.13678 45.7166 3.15171 45.7503 3.15419H45.7221Z" fill="#38241E"/>
<path d="M22.5699 11.3404C22.5442 10.9783 22.4866 10.6192 22.3977 10.2672C22.3294 9.90504 22.272 9.54136 22.2255 9.1762C22.132 8.4548 22.0474 7.73339 22.0014 7.00604C21.9049 5.52166 21.8529 4.05064 22.1305 2.58556C22.2893 1.77209 22.5092 0.971733 22.7881 0.19126L22.7184 0.232822C23.3243 0.380441 23.9152 0.584187 24.4833 0.841418C25.0533 1.09822 25.6218 1.34611 26.1696 1.65189C27.2486 2.23206 28.2648 2.92199 29.2022 3.71072C29.7371 4.17176 30.2409 4.66763 30.7104 5.1951C30.78 5.26108 30.8729 5.29685 30.9689 5.29463C31.0648 5.2924 31.1559 5.25236 31.2225 5.18323C31.2867 5.1127 31.3213 5.02015 31.3191 4.92479C31.3169 4.82944 31.278 4.73859 31.2106 4.67111C29.5317 2.71333 27.3261 1.27853 24.8559 0.53712C24.1623 0.35401 23.4578 0.215188 22.7466 0.121494C22.7318 0.118265 22.7164 0.120764 22.7035 0.128483C22.6905 0.136202 22.681 0.148563 22.6768 0.163056C22.4271 0.870604 22.2214 1.59289 22.0608 2.3258C21.9004 3.0576 21.7372 3.78494 21.6407 4.52861C21.5216 5.26532 21.4522 6.00918 21.4329 6.75518C21.4363 7.50546 21.4978 8.25434 21.6169 8.99511C21.6837 9.41667 21.7817 9.83527 21.8886 10.2494C21.9703 10.6586 22.1113 11.0536 22.3072 11.4221C22.3257 11.4448 22.3506 11.4616 22.3787 11.4702C22.4067 11.4788 22.4367 11.4789 22.4648 11.4705C22.4929 11.4621 22.5179 11.4455 22.5366 11.4229C22.5553 11.4003 22.5669 11.3726 22.5699 11.3434V11.3404Z" fill="#38241E"/>
<path d="M24.9938 9.01467C25.0123 8.85716 25.0093 8.69786 24.9849 8.54115C24.9745 8.3749 24.9537 8.21014 24.9403 8.04537C24.9107 7.70248 24.8958 7.3581 24.8914 7.00631C24.8869 6.65451 24.8914 6.33982 24.9196 6.00732C24.9359 5.76091 24.9196 5.47888 25.0442 5.25474C25.1927 4.96677 25.5074 5.087 25.7375 5.20575C26.0343 5.35419 26.3312 5.52786 26.6281 5.68966C26.925 5.85146 27.2219 6.01771 27.5276 6.18396L27.973 6.43334L28.2283 6.58177C28.3129 6.62927 28.4465 6.67529 28.4925 6.76732C28.515 6.80403 28.5467 6.83419 28.5845 6.85474C28.6223 6.87529 28.6648 6.88552 28.7079 6.8844C28.7509 6.88328 28.7928 6.87084 28.8295 6.84834C28.8662 6.82584 28.8963 6.79408 28.9168 6.75624C28.9373 6.71841 28.9475 6.67584 28.9463 6.63282C28.9451 6.58981 28.9326 6.54786 28.9101 6.51121C28.8875 6.47456 28.8557 6.4445 28.8179 6.42405C28.78 6.40361 28.7374 6.3935 28.6944 6.39474C28.5638 6.40662 28.3841 6.25669 28.2743 6.19584L27.829 5.94646C27.5618 5.79802 27.2931 5.64958 27.0289 5.50115L26.2377 5.04693C26.0028 4.88495 25.7424 4.76353 25.4673 4.68771C24.973 4.59716 24.6539 4.96232 24.5767 5.41505C24.4787 5.95833 24.5262 6.54615 24.5633 7.09388C24.5861 7.42638 24.6212 7.75839 24.6687 8.0899C24.691 8.25318 24.7147 8.41943 24.7533 8.58123C24.778 8.73681 24.8282 8.88726 24.9017 9.02655C24.9075 9.03555 24.9158 9.04267 24.9256 9.04702C24.9354 9.05137 24.9463 9.05276 24.9568 9.05102C24.9674 9.04929 24.9772 9.0445 24.9851 9.03725C24.993 9.03 24.9986 9.0206 25.0012 9.01022L24.9938 9.01467Z" fill="#38241E"/>
<path d="M56.8355 6.53219C58.1388 4.93499 59.6024 3.49812 61.3897 2.44866C61.6405 2.30022 61.8973 2.16069 62.1571 2.02858C62.4169 1.89647 62.6499 1.68272 62.9171 1.54616L62.6128 1.51499C63.6103 2.62382 64.2085 4.06366 64.5143 5.5139C64.8287 6.95791 64.813 8.45426 64.4683 9.89134C64.2642 10.6992 63.9367 11.4707 63.4975 12.1788C63.2333 12.6003 63.971 12.9967 64.1685 12.5484C64.5032 11.8272 64.7566 11.0709 64.924 10.2936C65.0859 9.54438 65.1822 8.7825 65.212 8.01657C65.2482 6.45773 64.9443 4.90972 64.3214 3.4803C63.9616 2.68102 63.5204 1.92096 63.0047 1.21217C62.9751 1.16556 62.9312 1.1298 62.8795 1.11026C62.8278 1.09072 62.7713 1.08846 62.7182 1.10381C62.4659 1.19881 62.1942 1.22702 61.9463 1.34577C61.6984 1.46452 61.4669 1.5996 61.2323 1.73616C60.7717 2.00513 60.3257 2.29847 59.8964 2.61491C59.0304 3.25256 58.2343 3.98 57.5213 4.78507C57.1228 5.24598 56.768 5.74291 56.4614 6.26945C56.3264 6.49656 56.6693 6.7593 56.8429 6.54703L56.8355 6.53219Z" fill="#38241E"/>
<path d="M59.3977 7.91388C59.6187 7.70624 59.825 7.48355 60.0152 7.24739C60.2216 7.02325 60.4398 6.80208 60.6624 6.59724C60.8705 6.38378 61.1003 6.19274 61.3482 6.02723C61.4402 5.96351 61.5495 5.92933 61.6614 5.92927C61.7415 5.9425 61.8233 5.9425 61.9034 5.92927C61.9421 5.91882 61.9795 5.90387 62.0147 5.88473C62.0563 5.86296 62.0444 5.86593 61.9791 5.89364L61.8306 5.83872C62.0741 6.0213 62.1275 6.34786 62.1706 6.63138C62.2362 7.02386 62.2705 7.42095 62.273 7.81888C62.2804 8.56998 62.221 9.4131 61.8811 10.0959C61.7208 10.418 62.2671 10.5872 62.3146 10.2651C62.4081 9.63873 62.5595 9.02568 62.604 8.39185C62.6494 7.77076 62.6215 7.14649 62.5209 6.53192C62.4892 6.27957 62.4144 6.03454 62.2997 5.80755C62.2734 5.75548 62.2426 5.70581 62.2077 5.65911C62.1948 5.63841 62.1794 5.61945 62.1617 5.6027C62.1082 5.57598 62.1617 5.64723 62.1617 5.62497C62.1532 5.54247 62.1204 5.46434 62.0676 5.40042C62.0148 5.33649 61.9442 5.28963 61.8648 5.26575C61.2443 5.05497 60.6684 5.72294 60.3077 6.12817C60.0825 6.38091 59.8742 6.64818 59.6842 6.92825C59.4778 7.19616 59.3186 7.49737 59.2136 7.81888C59.2088 7.84105 59.2112 7.86419 59.2205 7.88488C59.2298 7.90556 59.2456 7.92268 59.2655 7.93369C59.2853 7.9447 59.3082 7.949 59.3307 7.94597C59.3532 7.94294 59.3741 7.93272 59.3903 7.91685L59.3977 7.91388Z" fill="#38241E"/>
<path d="M37.2119 4.215C37.3923 4.88651 37.6666 5.52916 38.0268 6.12391C38.6359 7.0447 39.4367 7.82312 40.3743 8.40594C41.312 8.98877 42.3644 9.36225 43.4597 9.50087C44.291 9.59587 45.2009 9.60775 46.001 9.33611C46.0215 9.32943 46.039 9.31565 46.0502 9.29725C46.0615 9.27885 46.0658 9.25703 46.0624 9.23574C46.059 9.21444 46.0481 9.19506 46.0317 9.18107C46.0152 9.16709 45.9944 9.15943 45.9728 9.15947C45.2469 9.12384 44.5344 9.12384 43.816 8.99173C43.111 8.86265 42.4229 8.65452 41.7645 8.37126C40.5471 7.82362 39.4711 7.00461 38.6191 5.97696C38.1225 5.42474 37.6958 4.81354 37.3484 4.15711C37.3098 4.07992 37.1866 4.1393 37.2119 4.21797V4.215Z" fill="#38241E"/>
<path d="M46.0784 9.21617C45.8468 8.87328 45.6034 8.53781 45.397 8.1771C45.1962 7.83746 44.9673 7.51521 44.7127 7.21374C44.21 6.58884 43.6022 6.05638 42.9166 5.6403C42.8943 5.62986 42.8696 5.62591 42.8452 5.6289C42.8208 5.63189 42.7978 5.6417 42.7787 5.6572C42.7596 5.6727 42.7453 5.69327 42.7374 5.71654C42.7295 5.7398 42.7283 5.76483 42.734 5.78874C43.0746 6.69406 43.6869 7.47182 44.4871 8.01531C45.4133 8.66992 46.5563 8.92523 47.6711 8.99054C48.0173 9.00851 48.3641 9.00851 48.7102 8.99054C49.0486 8.97422 49.5148 9.01429 49.7805 8.77976C49.9972 8.59125 49.7908 8.28101 49.5533 8.26765C49.3426 8.25578 49.1333 7.92031 48.9982 7.77335C48.9536 7.72437 48.8839 7.79859 48.9269 7.84906C49.0887 8.01737 49.2352 8.19967 49.3648 8.39382C49.3648 8.36414 49.3648 8.33593 49.3648 8.30625L49.298 8.42351L49.7107 8.30476C49.5237 8.20531 49.344 8.24687 49.1436 8.27062C48.9433 8.29437 48.777 8.30921 48.5929 8.32406C48.2263 8.35226 47.8582 8.36711 47.4915 8.36265C46.7994 8.35484 46.112 8.24736 45.4505 8.04351C44.3446 7.70359 43.3085 6.85601 42.9893 5.71749L42.8023 5.86593C43.4331 6.32182 44.0081 6.85044 44.5153 7.44085C44.7661 7.72734 45.0081 8.02124 45.2664 8.30179C45.5346 8.60999 45.7825 8.93526 46.0086 9.27555C46.0442 9.32601 46.1288 9.27554 46.0917 9.22359L46.0784 9.21617Z" fill="#38241E"/>
<path d="M49.7625 8.31236C49.6759 8.18113 49.5594 8.07227 49.4226 7.99471C49.2905 7.8997 49.1584 7.80916 49.0203 7.72306C48.716 7.53455 48.4176 7.34009 48.1222 7.13822C47.5433 6.74189 46.9882 6.31587 46.43 5.88986L46.2311 6.40939C46.5354 6.38267 46.8486 6.42572 47.1544 6.41978C47.4602 6.41384 47.7719 6.40642 48.0807 6.38119C48.7124 6.33061 49.339 6.22834 49.954 6.0754C50.5581 5.92164 51.1477 5.71552 51.716 5.45939C52.3007 5.21079 52.8559 4.89762 53.3711 4.52571C53.4726 4.45904 53.5446 4.35593 53.5722 4.2377C53.5998 4.11946 53.581 3.99513 53.5195 3.8904C53.4546 3.78724 53.3517 3.71382 53.2331 3.68603C53.1144 3.65824 52.9896 3.67834 52.8857 3.74196C52.419 4.11334 51.9259 4.45019 51.4102 4.74985C50.8967 5.03447 50.3568 5.26862 49.7981 5.44899C49.2356 5.63436 48.6557 5.76217 48.0673 5.83048C47.7806 5.86434 47.4921 5.8812 47.2034 5.88095C46.8993 5.89654 46.5945 5.8731 46.2964 5.81118C46.0203 5.73548 45.7724 6.13329 46.0159 6.32181C46.5944 6.76036 47.1971 7.16623 47.8209 7.53752C48.1267 7.72009 48.4355 7.89822 48.7487 8.06744C48.9104 8.15802 49.0769 8.23978 49.2474 8.31236C49.3861 8.38856 49.542 8.42791 49.7002 8.42666C49.7133 8.42618 49.7261 8.4223 49.7372 8.41539C49.7484 8.40848 49.7576 8.39879 49.7639 8.38726C49.7702 8.37573 49.7733 8.36276 49.7731 8.34963C49.7729 8.3365 49.7692 8.32366 49.7625 8.31236Z" fill="#38241E"/>
<path d="M33.8068 22.4037V22.3948L33.9553 22.7109V22.6916C33.8355 22.3476 33.5999 22.0559 33.2888 21.8663L32.9489 21.7327C32.7041 21.673 32.4479 21.6797 32.2067 21.752C32.0772 21.7855 31.955 21.8424 31.846 21.9197C31.6425 22.0442 31.4751 22.2197 31.3606 22.4289C31.2653 22.5851 31.214 22.764 31.2121 22.9469C31.1754 23.131 31.1882 23.3216 31.2492 23.4991C31.3191 23.7289 31.4475 23.9366 31.6218 24.1018L31.6381 24.1151L31.9276 24.3274C32.0399 24.3825 32.1566 24.4282 32.2764 24.464C32.4592 24.5171 32.6529 24.5207 32.8375 24.4744C33.0232 24.462 33.2021 24.3999 33.3556 24.2948L33.6347 24.0676C33.8034 23.8918 33.9232 23.6748 33.982 23.4383V23.4219L33.6525 24.0157L33.6614 24.0053L33.8618 23.7322C33.9544 23.5836 34.0057 23.4129 34.0102 23.2379C34.0385 23.1219 34.0354 23.0005 34.0013 22.8861C33.9891 22.7117 33.9307 22.5436 33.8321 22.3992L33.8068 22.4037Z" fill="#38241E"/>
<path d="M52.9587 23.6777C54.5336 23.6777 54.4727 21.2314 52.8978 21.2314C51.3229 21.2314 51.3837 23.6777 52.9587 23.6777Z" fill="#38241E"/>
<path d="M44.6635 21.9189C44.3065 21.8788 43.955 21.7992 43.6155 21.6814C43.302 21.583 42.98 21.5139 42.6536 21.475C42.0792 21.4186 41.4914 21.57 41.141 22.0569C40.8442 22.4666 40.8145 23.0618 41.2153 23.4151C41.3065 23.5044 41.4148 23.5744 41.5337 23.6209C41.6526 23.6675 41.7796 23.6895 41.9072 23.6859C42.0348 23.6822 42.1604 23.6528 42.2764 23.5995C42.3924 23.5462 42.4965 23.4701 42.5824 23.3757C42.6683 23.2813 42.7344 23.1705 42.7765 23.05C42.8187 22.9295 42.8361 22.8018 42.8278 22.6744C42.8195 22.547 42.7856 22.4226 42.7281 22.3086C42.6707 22.1946 42.5908 22.0933 42.4933 22.0109C42.4691 21.9884 42.4401 21.9717 42.4085 21.962C42.3769 21.9524 42.3435 21.9499 42.3108 21.9549C42.2782 21.9599 42.247 21.9722 42.2198 21.9909C42.1925 22.0096 42.1698 22.0342 42.1534 22.0629C41.8016 22.7219 42.1846 23.6957 42.9683 23.7996C43.7521 23.9035 44.4008 22.9787 44.0223 22.2855C44.0038 22.2558 43.9779 22.2314 43.9471 22.2148C43.9164 22.1981 43.8818 22.1899 43.8468 22.1908C43.8118 22.1917 43.7777 22.2017 43.7478 22.2199C43.7179 22.2381 43.6933 22.2638 43.6764 22.2944C43.4107 22.9015 44.0356 23.7001 44.7006 23.4285C45.2558 23.2014 45.3582 22.3583 44.8936 21.9916C44.8717 21.9712 44.8457 21.9556 44.8173 21.9459C44.7889 21.9362 44.7588 21.9327 44.729 21.9355C44.6991 21.9383 44.6702 21.9474 44.6441 21.9621C44.618 21.9769 44.5954 21.9971 44.5776 22.0213C44.5599 22.0454 44.5475 22.0731 44.5412 22.1024C44.5349 22.1317 44.535 22.162 44.5412 22.1913C44.5475 22.2207 44.56 22.2483 44.5777 22.2725C44.5955 22.2966 44.6181 22.3168 44.6442 22.3315C44.8802 22.48 44.8134 22.9134 44.5878 23.0411C44.2909 23.2118 43.8976 22.7858 44.0282 22.4874L43.6809 22.4963C43.9109 22.9164 43.43 23.4983 42.9758 23.3869C42.5215 23.2756 42.3167 22.6611 42.5304 22.2692L42.1905 22.3211C42.474 22.5824 42.3835 23.1435 41.9708 23.2118C41.8766 23.228 41.7798 23.2176 41.6912 23.1818C41.6026 23.1459 41.5257 23.0861 41.4692 23.009C41.4128 22.9319 41.379 22.8405 41.3716 22.7452C41.3642 22.6499 41.3836 22.5545 41.4275 22.4696C41.6591 21.9456 42.2751 21.8595 42.7858 21.9055C43.0915 21.9337 43.3914 22.0079 43.6927 22.054C44.0134 22.113 44.3411 22.124 44.665 22.0866C44.6878 22.0866 44.7097 22.0775 44.7259 22.0614C44.742 22.0452 44.7511 22.0234 44.7511 22.0005C44.7511 21.9777 44.742 21.9558 44.7259 21.9396C44.7097 21.9235 44.6878 21.9144 44.665 21.9144L44.6635 21.9189Z" fill="#38241E"/>
<path d="M43.1913 23.4235C43.0763 23.5685 42.9992 23.7399 42.9672 23.9222C42.9063 24.1375 42.8543 24.3557 42.8054 24.5739C42.7118 24.9984 42.6421 25.4289 42.5886 25.8608C42.5352 26.2928 42.4966 26.698 42.4832 27.1196C42.4699 27.5411 42.4239 28.0325 42.5233 28.4555C42.5738 28.6678 42.9389 28.6708 42.9686 28.4437C43.0221 28.0325 42.9686 27.5976 42.9686 27.1804C42.9686 26.7633 42.9924 26.3343 43.028 25.9128C43.0636 25.4912 43.1186 25.0845 43.1765 24.6718C43.2091 24.4625 43.2477 24.2532 43.2863 24.0439C43.3433 23.8555 43.3581 23.6568 43.3294 23.4621C43.3251 23.4471 43.317 23.4336 43.3057 23.4228C43.2945 23.4121 43.2807 23.4045 43.2655 23.4009C43.2504 23.3972 43.2346 23.3977 43.2198 23.4022C43.2049 23.4067 43.1915 23.4151 43.1809 23.4264L43.1913 23.4235Z" fill="#38241E"/>
<path d="M40.2891 24.9367C39.9269 25.483 39.9922 26.3009 40.1823 26.8931C40.3955 27.5362 40.8307 28.0824 41.4098 28.4339C42.633 29.1657 44.2896 28.9282 45.201 27.8194C45.6849 27.2256 46.0323 26.3929 45.8512 25.6255C45.7918 25.3687 45.4504 25.477 45.4296 25.6923C45.3732 26.286 45.2663 26.8427 44.913 27.337C44.576 27.8144 44.077 28.1531 43.5088 28.2899C42.945 28.4222 42.3527 28.3548 41.833 28.0993C41.3133 27.8438 40.8983 27.4159 40.6587 26.8887C40.5323 26.5923 40.4541 26.2776 40.4272 25.9565C40.4157 25.6316 40.4326 25.3062 40.4776 24.9842C40.4866 24.8744 40.3381 24.8625 40.2891 24.9367Z" fill="#38241E"/>
<path d="M49.4999 25.7559C52.1317 25.1057 54.7962 24.6278 57.477 24.224C60.1579 23.8203 62.8135 23.5353 65.4928 23.3646C68.1721 23.1939 70.8723 23.1375 73.562 23.1983C76.2517 23.2592 78.9311 23.4358 81.6 23.7342C84.269 24.0325 86.9349 24.4437 89.5727 24.9766L90.5672 25.18C90.8433 25.2364 90.9517 24.8118 90.6726 24.751C88.0319 24.178 85.3526 23.7579 82.6702 23.4403C79.9879 23.1226 77.2745 22.9267 74.5669 22.8465C71.8594 22.7664 69.1578 22.8109 66.4591 22.9727C63.7605 23.1345 61.0396 23.418 58.3528 23.8292C55.6928 24.2344 53.0699 24.8 50.4558 25.4308C50.1263 25.509 49.7983 25.5901 49.4717 25.6743C49.4197 25.6876 49.4435 25.7663 49.4954 25.7544L49.4999 25.7559Z" fill="#38241E"/>
<path d="M48.9416 28.2558C51.5704 27.9812 54.2142 27.7986 56.8534 27.6621C59.4927 27.5255 62.1453 27.475 64.7905 27.4899C67.4357 27.5047 70.0853 27.5968 72.7261 27.763C75.3668 27.9293 78.0224 28.1757 80.6587 28.4963C83.295 28.8169 85.9031 29.2118 88.5067 29.6838C88.8303 29.7417 89.1539 29.8025 89.4775 29.8634C89.7551 29.9154 89.8635 29.4879 89.5844 29.4359C86.9669 28.952 84.3385 28.5443 81.6993 28.2128C79.06 27.8813 76.4208 27.6309 73.7815 27.4617C71.1412 27.2875 68.497 27.1886 65.8489 27.1648C63.2007 27.1411 60.5426 27.2083 57.8747 27.3667C55.2176 27.5151 52.565 27.7407 49.9228 28.0688C49.5962 28.1089 49.2681 28.1475 48.9416 28.189C48.9 28.189 48.9 28.2603 48.9416 28.2558Z" fill="#38241E"/>
<path d="M36.8706 27.0854C34.6788 26.1416 32.4153 25.3737 30.1017 24.789C27.7846 24.1993 25.429 23.7727 23.0523 23.5125C18.298 22.9874 13.4943 23.1128 8.77386 23.8851C6.40208 24.2706 4.05998 24.8207 1.76453 25.5312C1.48249 25.6193 1.20046 25.7098 0.918421 25.8029C0.672011 25.8845 0.787794 26.2749 1.03569 26.1903C3.28847 25.4224 5.59316 24.8163 7.93221 24.3764C10.2684 23.9425 12.6317 23.6703 15.0054 23.5615C19.7646 23.341 24.5316 23.7689 29.1754 24.8336C31.4909 25.3709 33.7712 26.0496 36.0037 26.8657C36.2817 26.9646 36.5583 27.0676 36.8334 27.1744C36.8809 27.1922 36.9136 27.1106 36.8661 27.0913L36.8706 27.0854Z" fill="#38241E"/>
<path d="M35.6636 28.8812C33.3806 28.8257 31.0971 28.8371 28.8131 28.9153C26.5361 28.991 24.259 29.1305 21.9953 29.4066C17.9265 29.9039 13.8845 30.8257 10.1201 32.4927C8.06639 33.3897 6.13544 34.545 4.37399 35.9305C4.22555 36.0463 4.37399 36.2971 4.52243 36.1813C7.71091 33.8063 11.3833 32.1602 15.1997 31.0959C19.3694 29.9351 23.6964 29.4719 28.0086 29.2626C30.5558 29.1394 33.106 29.1142 35.6547 29.0088C35.6716 29.0088 35.6879 29.0021 35.6998 28.9901C35.7118 28.9782 35.7185 28.9619 35.7185 28.945C35.7185 28.9281 35.7118 28.9118 35.6998 28.8999C35.6879 28.8879 35.6716 28.8812 35.6547 28.8812H35.6636Z" fill="#38241E"/>
<path d="M35.2632 31.2012C32.9232 31.1983 30.5869 31.3869 28.2776 31.7653C25.9705 32.1233 23.6895 32.6331 21.4494 33.2912C19.2141 33.9491 17.0236 34.7503 14.8913 35.69C12.7545 36.6304 10.6813 37.7094 8.68507 38.92C6.68572 40.1335 4.77046 41.4804 2.95232 42.9515C2.73114 43.1311 2.507 43.3137 2.29176 43.4963C2.1166 43.6447 2.3734 43.8822 2.54708 43.7397C4.32854 42.2619 6.20488 40.9022 8.16404 39.6696C14.0705 35.9618 20.6358 33.4263 27.5013 32.2017C29.7825 31.795 32.0868 31.5308 34.4008 31.4105C34.6977 31.3957 34.9827 31.3734 35.2736 31.3571C35.2924 31.3545 35.3097 31.3451 35.3222 31.3308C35.3346 31.3165 35.3415 31.2981 35.3415 31.2791C35.3415 31.2601 35.3346 31.2418 35.3222 31.2275C35.3097 31.2131 35.2924 31.2038 35.2736 31.2012H35.2632Z" fill="#38241E"/>
<path d="M48.5484 31.357C50.8642 31.4738 53.1725 31.7091 55.4642 32.0621C57.754 32.4332 60.0178 32.9498 62.242 33.6088C66.6905 34.9282 70.951 36.814 74.9187 39.2198C76.8978 40.419 78.796 41.7469 80.601 43.1949C80.8281 43.376 81.0463 43.5616 81.2779 43.7471C81.4515 43.8956 81.6965 43.6373 81.5213 43.4918C79.7295 41.995 77.839 40.6203 75.8628 39.3771C73.8819 38.1305 71.8211 37.0158 69.6936 36.0402C67.5804 35.071 65.4072 34.238 63.1875 33.5465C60.9532 32.8491 58.6751 32.3007 56.3682 31.9047C54.0707 31.5099 51.7484 31.2768 49.4182 31.2071C49.1214 31.1982 48.8364 31.2071 48.5454 31.2071C48.4445 31.2071 48.4504 31.3555 48.5454 31.3629L48.5484 31.357Z" fill="#38241E"/>
<path d="M53.9605 22.7555C53.9707 22.7536 53.98 22.7482 53.9866 22.7402C53.9933 22.7322 53.9969 22.7221 53.9969 22.7117C53.9969 22.7013 53.9933 22.6913 53.9866 22.6833C53.98 22.6753 53.9707 22.6699 53.9605 22.668C53.9503 22.6699 53.941 22.6753 53.9344 22.6833C53.9277 22.6913 53.9241 22.7013 53.9241 22.7117C53.9241 22.7221 53.9277 22.7322 53.9344 22.7402C53.941 22.7482 53.9503 22.7536 53.9605 22.7555Z" fill="#EDD6B4"/>
<path d="M54.1009 23.1553C54.215 23.154 54.3259 23.1179 54.419 23.0519C54.512 22.9859 54.5827 22.8931 54.6216 22.7859C54.656 22.7165 54.6709 22.6391 54.6647 22.5619L54.6409 22.4136C54.6124 22.3171 54.5586 22.2301 54.4852 22.1614L54.3665 22.0738C54.2758 22.0237 54.1734 21.9986 54.0698 22.0011C53.9926 22 53.9164 22.0189 53.8487 22.056C53.7776 22.0809 53.7142 22.1238 53.6648 22.1806C53.6108 22.2331 53.5709 22.2985 53.5491 22.3705C53.515 22.4401 53.4997 22.5173 53.5046 22.5945L53.5298 22.7429C53.5591 22.839 53.6128 22.9258 53.6855 22.9951L53.8042 23.0826C53.895 23.1323 53.9975 23.1568 54.1009 23.1538V23.1553Z" fill="#EDD6B4"/>
<path d="M30.9568 22.8966L30.936 22.9159L30.8677 23.0094L30.8247 23.1177C30.8084 23.1769 30.8084 23.2394 30.8247 23.2986C30.8262 23.3385 30.838 23.3774 30.8588 23.4114C30.8702 23.4488 30.8912 23.4825 30.9197 23.5093C30.94 23.5427 30.9686 23.5703 31.0027 23.5894C31.0308 23.6164 31.0657 23.6354 31.1036 23.6443C31.1578 23.6712 31.2183 23.683 31.2787 23.6784L31.3988 23.6606L31.5057 23.6117L31.5947 23.539L31.6629 23.4455L31.7059 23.3372C31.7222 23.278 31.7222 23.2155 31.7059 23.1562C31.7044 23.1163 31.6926 23.0775 31.6718 23.0435C31.6534 22.9864 31.6201 22.9352 31.5754 22.8951L31.5561 22.8788C31.5184 22.8382 31.4701 22.8089 31.4166 22.7943C31.3663 22.7686 31.3098 22.7574 31.2535 22.7616L31.1407 22.7794C31.0708 22.8008 31.0075 22.8396 30.9568 22.8922V22.8966Z" fill="#EDD6B4"/>
</svg>
