<svg width="68" height="55" viewBox="0 0 68 55" fill="none" xmlns="http://www.w3.org/2000/svg">
<path d="M28.049 16.5202C27.3116 16.6628 26.5925 16.8347 25.8917 17.0361C25.6809 15.9437 25.3906 14.8687 25.0888 13.798C24.7538 12.6146 24.377 11.4428 23.9409 10.2926C23.067 7.97982 21.9849 5.75126 20.7079 3.63445C19.9869 2.44101 19.2037 1.28637 18.3614 0.175309C18.3327 0.128575 18.2939 0.0888568 18.2478 0.0590566C18.2018 0.0292563 18.1496 0.0101263 18.0953 0.00306388C18.0409 -0.00399854 17.9856 0.00118503 17.9335 0.018236C17.8813 0.0352869 17.8337 0.0637745 17.794 0.101618C17.072 0.759056 16.48 1.54654 15.9168 2.3398C15.3205 3.17496 14.7212 4.00868 14.1508 4.86118C13.0119 6.54774 11.9845 8.30707 11.0752 10.1279C9.27314 13.7763 8.07033 17.7094 7.89849 21.7942C7.79597 24.2202 8.02701 26.6477 8.43709 29.0361C11.3929 26.3125 14.3573 23.6899 17.9672 21.3781C21.0949 19.3137 24.4859 17.6798 28.049 16.5202Z" fill="#2E2221"/>
<path d="M60.3996 28.2217C60.2076 28.0035 60.0126 27.7882 59.8148 27.5744C60.0519 25.9167 60.1639 24.2436 60.1498 22.5692C60.1211 20.4721 59.8404 18.386 59.3138 16.356C58.303 12.4735 56.4706 8.84244 54.2945 5.49601C53.665 4.52936 52.995 3.5916 52.3308 2.65096C51.694 1.75367 51.0485 0.846259 50.2298 0.103571C50.1901 0.0657276 50.1424 0.03724 50.0903 0.0201891C50.0382 0.00313816 49.9829 -0.00204541 49.9285 0.005017C49.8741 0.0120794 49.822 0.0312094 49.7759 0.0610097C49.7299 0.0908099 49.6911 0.130528 49.6623 0.177262C48.1767 2.14001 46.8745 4.23529 45.7723 6.43665C44.6657 8.64774 43.7614 10.9546 43.0706 13.3289C42.7414 14.4603 42.4642 15.6075 42.2375 16.7635C41.5242 16.5843 40.8022 16.4302 40.0715 16.3011C40.3434 16.435 40.6291 16.5387 40.9235 16.6103C48.009 19.386 54.709 23.2439 60.3996 28.2217Z" fill="#2E2221"/>
<path d="M67.3234 40.2114C67.3659 40.137 67.3797 40.0497 67.3623 39.9658C67.4245 39.8843 67.4631 39.7874 67.4741 39.6855C67.485 39.5836 67.4679 39.4806 67.4244 39.3878C67.4071 39.343 67.3869 39.2982 67.3681 39.2534C63.0362 34.1037 56.9889 30.4235 50.7467 28.5972C44.9708 26.8633 37.751 30.3311 36.0183 36.6887C35.1519 36.2552 34.1411 36.8332 33.4192 36.9777C32.4084 37.2667 31.8308 35.8217 31.2532 34.9548C28.9429 30.4756 24.0334 27.7302 18.9795 28.4527C11.2876 29.3081 4.86193 34.241 0.531494 40.4758C0.531494 40.4758 0.531494 40.4758 0.531494 40.4859C4.03478 43.9504 8.04251 46.8637 12.4182 49.1265C14.3582 50.1123 16.3718 50.9456 18.4409 51.619C17.794 51.3416 17.1544 51.041 16.5248 50.7087C17.1544 51.041 17.794 51.3416 18.4409 51.619C19.0801 51.83 19.7251 52.0274 20.3759 52.2114C20.3022 52.2345 20.2315 52.2605 20.1564 52.2851C21.5157 52.7586 22.9062 53.1371 24.3179 53.4179C24.9578 52.8693 25.6916 52.441 26.4838 52.1536C25.6916 52.441 24.9578 52.8693 24.3179 53.4179C27.5682 54.0725 30.8966 54.256 34.1368 54.1765C37.8917 54.043 41.6366 53.7053 45.3549 53.1651C44.5334 51.332 43.2563 49.7402 41.6454 48.5413C43.2563 49.7402 44.5334 51.332 45.3549 53.1651C46.1303 53.0509 46.9058 52.931 47.6783 52.7966L47.4833 52.5697C50.131 51.8508 52.7076 50.8918 55.1811 49.7045C59.7873 47.4909 64.0831 44.4392 67.2122 40.3631L67.254 40.4195C67.319 40.5105 67.4678 40.4195 67.3984 40.3284C67.3768 40.2865 67.3493 40.249 67.3234 40.2114Z" fill="#FFD18C"/>
<path d="M40.9278 16.6154C40.6334 16.5438 40.3477 16.4401 40.0759 16.3062L39.9315 16.2802C36.0458 15.6141 32.1529 15.7673 28.2903 16.4782L28.0434 16.5273C24.4829 17.687 21.0944 19.3204 17.9688 21.3837C14.3589 23.7027 11.3916 26.3195 8.43871 29.0417V29.0663C8.43871 29.0663 8.43871 29.0749 8.43871 29.0793C6.07561 31.7212 3.93827 34.5569 2.04918 37.5566C1.51395 38.4033 0.996532 39.2611 0.496921 40.13C0.479641 40.1578 0.473463 40.191 0.479619 40.2232C0.485774 40.2553 0.503813 40.2839 0.530134 40.3034L0.508473 40.3337C0.497035 40.3475 0.491526 40.3653 0.493149 40.3832C0.494773 40.401 0.503396 40.4175 0.517137 40.4291C0.514182 40.4386 0.51356 40.4487 0.515319 40.4585C0.517078 40.4683 0.521168 40.4775 0.527245 40.4854C4.85913 34.2506 11.2833 29.3177 18.9753 28.4623C24.0292 27.7398 28.9386 30.4852 31.249 34.9644C31.8265 35.8314 32.4041 37.2763 33.4149 36.9873C34.1369 36.8428 35.1477 36.2648 36.014 36.6983C37.7468 30.3407 44.9666 26.8729 50.7424 28.6068C56.9847 30.4332 63.0349 34.1134 67.3639 39.263C65.7206 35.2808 63.3092 31.5168 60.3953 28.2268C54.709 23.2433 48.009 19.3853 40.9278 16.6154Z" fill="#DD5E56"/>
<path d="M35.7657 35.9775L35.7354 35.9559C35.6989 35.9337 35.6584 35.9191 35.6163 35.9129C35.5741 35.9067 35.5311 35.909 35.4899 35.9197C35.4415 35.8948 35.39 35.8764 35.3368 35.8648C35.1419 35.8215 34.9426 35.794 34.7477 35.7579L33.5665 35.544C33.5289 35.5372 33.4902 35.5391 33.4533 35.5497C33.4165 35.5602 33.3827 35.579 33.3543 35.6047C33.1574 35.6505 32.9746 35.7438 32.8221 35.8766C32.6696 36.0093 32.5518 36.1774 32.4792 36.3662C32.405 36.5218 32.3911 36.6994 32.4403 36.8647C32.5529 37.1985 33.0669 37.2129 33.1492 36.8474C33.1608 36.7968 33.168 36.7448 33.181 36.6942C33.181 36.6826 33.22 36.5844 33.1954 36.6379C33.2225 36.5705 33.2639 36.5099 33.3167 36.4601C33.3954 36.8219 33.5913 37.1475 33.8741 37.3863C33.9413 37.4495 34.0305 37.4837 34.1227 37.4815C34.2148 37.4794 34.3024 37.441 34.3665 37.3748C34.5153 37.2042 34.6151 36.9965 34.6553 36.7737C34.6662 36.713 34.6662 36.6508 34.6553 36.5902C34.7835 36.633 34.8987 36.7075 34.9903 36.8069C35.061 36.8535 35.1438 36.8784 35.2285 36.8784C35.3132 36.8784 35.3961 36.8535 35.4668 36.8069C35.4876 36.8136 35.5088 36.8189 35.5303 36.8228C35.6113 36.8396 35.6956 36.8253 35.7665 36.7827C35.8374 36.7401 35.8897 36.6724 35.913 36.5931C35.9304 36.5383 35.9401 36.4814 35.9419 36.424C35.964 36.3405 35.9588 36.2521 35.9271 36.1718C35.8954 36.0915 35.8388 36.0234 35.7657 35.9775Z" fill="#C89D64"/>
<path d="M21.3692 17.4599C21.1266 16.8458 20.754 16.2751 20.4335 15.7L19.4559 13.9473C18.7234 12.6334 17.9932 11.3181 17.2654 10.0013C17.2192 9.92845 17.1549 9.86885 17.0788 9.82827C17.0027 9.78769 16.9174 9.76751 16.8312 9.76969C16.745 9.77187 16.6608 9.79634 16.5868 9.84072C16.5129 9.8851 16.4517 9.94787 16.4092 10.0229C15.5493 11.8195 14.8253 13.6781 14.2432 15.583C13.6476 17.464 13.2176 19.3936 12.9581 21.3496C12.8873 21.9146 12.8137 22.481 12.8022 23.0503C12.7935 23.3075 12.7877 23.5661 12.7834 23.8233L12.6606 23.9144C12.6979 24.2309 12.7171 24.5493 12.7184 24.868C12.7184 24.894 12.7184 24.92 12.7184 24.946C12.7767 24.9369 12.8327 24.9163 12.883 24.8853L12.961 24.8348C12.9822 24.8475 13.006 24.855 13.0307 24.8567C13.0553 24.8584 13.08 24.8542 13.1027 24.8444C13.1254 24.8347 13.1455 24.8197 13.1613 24.8007C13.177 24.7817 13.1881 24.7592 13.1935 24.7351C13.1935 24.7148 13.2065 24.6961 13.2122 24.6773C14.2389 24.0299 15.2338 23.3422 16.2344 22.6544L19.5556 20.3642C20.058 20.0174 20.6385 19.6952 21.0587 19.2473C21.2801 19.0128 21.4276 18.7182 21.4828 18.4004C21.5381 18.0825 21.4985 17.7554 21.3692 17.4599Z" fill="#F5D4D6"/>
<path d="M46.5982 17.4599C46.8407 16.8458 47.2133 16.2751 47.5339 15.7L48.5114 13.9473C49.244 12.6334 49.9741 11.3181 50.7019 10.0013C50.7482 9.92845 50.8125 9.86885 50.8886 9.82827C50.9647 9.78769 51.05 9.76751 51.1362 9.76969C51.2224 9.77187 51.3065 9.79634 51.3805 9.84072C51.4544 9.8851 51.5156 9.94787 51.5582 10.0229C52.4186 11.8192 53.1427 13.6778 53.7241 15.583C54.3202 17.464 54.7507 19.3935 55.0107 21.3496C55.0814 21.9146 55.1551 22.481 55.1666 23.0503C55.1753 23.3075 55.1811 23.5661 55.1854 23.8233L55.3081 23.9144C55.2702 24.2308 55.2509 24.5493 55.2504 24.868C55.2504 24.894 55.2504 24.92 55.2504 24.946C55.192 24.9369 55.1361 24.9163 55.0858 24.8853L55.0063 24.8348C54.9853 24.8475 54.9615 24.8551 54.9369 24.8567C54.9124 24.8584 54.8878 24.8542 54.8652 24.8445C54.8426 24.8347 54.8226 24.8197 54.807 24.8007C54.7914 24.7816 54.7805 24.7591 54.7753 24.7351C54.7753 24.7148 54.7623 24.6961 54.7565 24.6773C53.7299 24.0299 52.735 23.3422 51.7329 22.6544L48.4118 20.3642C47.9107 20.0174 47.3288 19.6952 46.9101 19.2473C46.6884 19.0129 46.5406 18.7184 46.4852 18.4006C46.4297 18.0827 46.469 17.7556 46.5982 17.4599Z" fill="#F5D4D6"/>
<path d="M25.1367 36.2888L25.1295 36.2802L25.2739 36.5879V36.5692C25.156 36.235 24.9272 35.9515 24.6256 35.7658L24.2949 35.6357C24.0568 35.5779 23.8077 35.5844 23.5729 35.6545C23.4471 35.6874 23.3283 35.7427 23.222 35.8178C23.0248 35.9397 22.8622 36.1104 22.7499 36.3134C22.5902 36.6364 22.5513 37.0059 22.6401 37.3552C22.7076 37.5787 22.832 37.7809 23.0011 37.9418L23.0184 37.9548L23.3072 38.1615C23.4158 38.2154 23.5289 38.2599 23.6451 38.2944C24.004 38.3658 24.3765 38.3074 24.6963 38.1297L24.9678 37.9086C25.131 37.7369 25.2469 37.5258 25.3042 37.2959V37.2801L24.9837 37.858L24.9923 37.8479L25.1873 37.5835C25.2775 37.4384 25.3274 37.2717 25.3317 37.1009C25.3591 36.988 25.3562 36.8698 25.323 36.7584C25.3117 36.5888 25.2554 36.4252 25.1598 36.2845L25.1367 36.2888Z" fill="#2E2221"/>
<path d="M43.7652 37.5277C45.2987 37.5277 45.2395 35.1465 43.7075 35.1465C42.1754 35.1465 42.2332 37.5277 43.7652 37.5277Z" fill="#2E2221"/>
<path d="M0.537302 40.6078C4.03881 44.0703 8.04462 46.9817 12.4182 49.2426C16.8324 51.5054 21.7477 52.9171 26.6297 53.7016C36.3042 55.2564 46.3094 54.0817 55.1811 49.8177C59.8307 47.5853 64.1626 44.5019 67.296 40.3709C67.5487 40.0385 67.1097 39.5877 66.8137 39.9114C63.7814 43.2275 60.2061 46.0494 56.1789 48.0607C51.9914 50.1515 47.531 51.358 42.9147 52.0039C33.4264 53.3318 23.5425 52.3102 14.613 48.7846C12.0803 47.7862 9.60682 46.6895 7.23873 45.3457C4.85996 43.9884 2.64236 42.366 0.628273 40.5096C0.621826 40.5034 0.614228 40.4986 0.605914 40.4953C0.597599 40.4921 0.58873 40.4905 0.579813 40.4907C0.570897 40.4909 0.562107 40.4929 0.553946 40.4965C0.545785 40.5001 0.538413 40.5053 0.53225 40.5117C0.526087 40.5182 0.521254 40.5258 0.518028 40.5341C0.514801 40.5424 0.513244 40.5513 0.513445 40.5602C0.513646 40.5691 0.515602 40.5779 0.5192 40.5861C0.522798 40.5943 0.527969 40.6017 0.534416 40.6078H0.537302Z" fill="#2E2221"/>
<path d="M35.7036 35.816C35.3562 35.7771 35.0143 35.6996 34.6841 35.5848C34.3791 35.4892 34.0658 35.4219 33.7484 35.3839C33.1896 35.329 32.6164 35.4764 32.277 35.9503C31.9883 36.3491 31.9579 36.9285 32.3492 37.2724C32.4389 37.354 32.5438 37.4171 32.6579 37.4582C32.7719 37.4992 32.893 37.5174 33.014 37.5116C33.1351 37.5058 33.2539 37.4762 33.3635 37.4245C33.4732 37.3729 33.5716 37.3001 33.6531 37.2103C33.7347 37.1205 33.7977 37.0156 33.8388 36.9015C33.8798 36.7873 33.8979 36.6662 33.8921 36.5451C33.8864 36.4239 33.8568 36.3051 33.8052 36.1953C33.7535 36.0856 33.6807 35.9871 33.591 35.9055C33.5676 35.8837 33.5395 35.8674 33.5089 35.858C33.4782 35.8486 33.4459 35.8462 33.4142 35.8511C33.3825 35.8559 33.3524 35.8679 33.326 35.8861C33.2996 35.9043 33.2776 35.9282 33.2618 35.9561C32.9196 36.5977 33.2921 37.5455 34.0531 37.6467C34.8141 37.7478 35.4465 36.8476 35.0798 36.1729C35.0618 36.1439 35.0366 36.1202 35.0067 36.104C34.9767 36.0878 34.9431 36.0797 34.9091 36.0806C34.875 36.0815 34.8418 36.0913 34.8128 36.109C34.7837 36.1267 34.7597 36.1517 34.7433 36.1815C34.4834 36.7725 35.0913 37.5499 35.7397 37.2854C36.2797 37.0644 36.3779 36.2437 35.9259 35.8868C35.9046 35.8668 35.8793 35.8517 35.8517 35.8423C35.8241 35.8328 35.7948 35.8294 35.7658 35.8321C35.7367 35.8348 35.7086 35.8437 35.6832 35.8581C35.6579 35.8725 35.6358 35.8921 35.6186 35.9156C35.6013 35.9391 35.5892 35.9661 35.5831 35.9946C35.577 36.0231 35.577 36.0526 35.5832 36.0812C35.5893 36.1097 35.6014 36.1366 35.6186 36.1602C35.6359 36.1837 35.658 36.2033 35.6833 36.2176C35.9129 36.3621 35.848 36.7841 35.6285 36.9083C35.3325 37.0745 34.957 36.6598 35.0841 36.3694L34.7477 36.378C34.97 36.7869 34.5036 37.3533 34.0618 37.245C33.6199 37.1366 33.4192 36.5384 33.6286 36.157L33.2994 36.2075C33.5737 36.4618 33.4871 37.008 33.0842 37.0745C32.9926 37.0905 32.8983 37.0805 32.812 37.0457C32.7257 37.0109 32.6509 36.9525 32.596 36.8774C32.5412 36.8022 32.5085 36.7131 32.5016 36.6202C32.4947 36.5274 32.514 36.4345 32.5572 36.352C32.781 35.842 33.3817 35.7582 33.877 35.803C34.1744 35.8304 34.4661 35.9027 34.7607 35.9474C35.0725 36.0057 35.3914 36.0164 35.7064 35.9792C35.7287 35.9792 35.75 35.9704 35.7657 35.9547C35.7814 35.939 35.7902 35.9177 35.7902 35.8954C35.7902 35.8732 35.7814 35.8519 35.7657 35.8362C35.75 35.8205 35.7287 35.8116 35.7064 35.8116L35.7036 35.816Z" fill="#2E2221"/>
<path d="M34.2639 37.2779C34.1527 37.4199 34.0783 37.5872 34.0473 37.7648C33.9866 37.9729 33.9375 38.1853 33.8899 38.3977C33.7975 38.811 33.731 39.23 33.6776 39.6505C33.6242 40.0709 33.5881 40.4654 33.5751 40.8758C33.5621 41.2861 33.5188 41.7644 33.6141 42.1762C33.6632 42.3828 34.0184 42.3871 34.0473 42.1646C34.0992 41.7644 34.0473 41.341 34.0473 40.9364C34.0473 40.5319 34.0718 40.1114 34.1065 39.701C34.1411 39.2907 34.1945 38.8948 34.2509 38.4931C34.2826 38.2894 34.3202 38.0856 34.3577 37.8819C34.4125 37.6983 34.4268 37.5051 34.3996 37.3155C34.3951 37.3012 34.387 37.2884 34.376 37.2782C34.3651 37.268 34.3517 37.2608 34.3372 37.2573C34.3227 37.2538 34.3075 37.2541 34.2931 37.2582C34.2787 37.2624 34.2657 37.2701 34.2552 37.2808L34.2639 37.2779Z" fill="#2E2221"/>
<path d="M31.441 38.748C31.0887 39.2797 31.1522 40.0758 31.3385 40.6524C31.5478 41.2795 31.9738 41.8113 32.5399 42.1522C33.7282 42.8645 35.3411 42.6333 36.2263 41.554C36.6985 40.976 37.0349 40.1654 36.8602 39.4184C36.801 39.1684 36.4703 39.2667 36.4487 39.4834C36.3952 40.0614 36.2898 40.6032 35.9476 41.0844C35.6192 41.5493 35.1333 41.8789 34.5802 42.012C34.0319 42.141 33.4559 42.0754 32.9505 41.8267C32.4452 41.5779 32.0418 41.1613 31.8092 40.648C31.685 40.3598 31.6085 40.0534 31.5825 39.7406C31.5719 39.4243 31.5888 39.1076 31.633 38.7942C31.6417 38.6873 31.4973 38.6757 31.4482 38.748H31.441Z" fill="#2E2221"/>
<path d="M44.7414 36.6313C44.7949 36.6313 44.7935 36.5459 44.7414 36.5459C44.6894 36.5459 44.6894 36.6313 44.7414 36.6313Z" fill="#FFD18C"/>
<path d="M44.8771 37.0267C44.9527 37.0281 45.0274 37.0097 45.0937 36.9732C45.1607 36.9455 45.2211 36.9039 45.2709 36.8511C45.3207 36.7983 45.3587 36.7355 45.3824 36.6669C45.4156 36.5992 45.4305 36.524 45.4258 36.4487L45.4012 36.3042C45.375 36.2113 45.3252 36.1267 45.2568 36.0586L45.1399 35.9733C45.0516 35.9243 44.9519 35.8999 44.8511 35.9025C44.7754 35.9011 44.7008 35.9196 44.6345 35.956C44.5657 35.9802 44.5045 36.0221 44.4569 36.0774C44.4035 36.1279 44.3646 36.1917 44.3442 36.2623C44.3111 36.33 44.2961 36.4052 44.3009 36.4805L44.324 36.625C44.3516 36.7174 44.4011 36.8017 44.4684 36.8706L44.5854 36.9559C44.6734 37.0051 44.7734 37.0291 44.8742 37.0252L44.8771 37.0267Z" fill="#FFD18C"/>
<path d="M9.1361 28.9878C8.75843 26.8857 8.57811 24.7529 8.5975 22.6171C8.63138 20.5862 8.90868 18.5667 9.42345 16.6019C10.414 12.822 12.1987 9.30221 14.3156 6.03525C14.9452 5.06571 15.6152 4.12651 16.2808 3.18298C16.8959 2.31603 17.5154 1.44908 18.3024 0.72662L17.7349 0.654374C19.2153 2.60846 20.5131 4.69454 21.6119 6.88631C22.7003 9.05958 23.5877 11.3279 24.263 13.663C24.6783 15.0289 25.0157 16.4173 25.2738 17.8215C25.3001 17.9131 25.3613 17.9908 25.4441 18.0378C25.527 18.0848 25.625 18.0974 25.7171 18.0729C25.8081 18.0456 25.8852 17.9843 25.9322 17.9017C25.9793 17.8191 25.9927 17.7216 25.9698 17.6293C25.7393 16.3756 25.4423 15.1351 25.0803 13.913C24.7453 12.7281 24.3685 11.5577 23.9324 10.4061C23.0605 8.09673 21.9813 5.87112 20.708 3.75662C19.9873 2.56022 19.2041 1.40268 18.3616 0.288809C18.3325 0.242391 18.2935 0.203007 18.2474 0.173501C18.2013 0.143996 18.1492 0.125105 18.0949 0.118192C18.0406 0.11128 17.9855 0.116519 17.9335 0.133531C17.8814 0.150543 17.8338 0.178903 17.7941 0.216564C17.0721 0.874002 16.4801 1.66148 15.9169 2.45474C15.3206 3.28846 14.7213 4.12218 14.151 4.97468C13.012 6.66124 11.9846 8.42057 11.0753 10.2414C9.27328 13.8913 8.07046 17.8243 7.89863 21.9077C7.79611 24.3424 8.02858 26.7771 8.44156 29.1756C8.46752 29.2675 8.52861 29.3454 8.6116 29.3924C8.69458 29.4395 8.79277 29.4519 8.88485 29.427C8.97607 29.4001 9.05333 29.3388 9.10043 29.2562C9.14754 29.1735 9.16084 29.0757 9.13754 28.9835L9.1361 28.9878Z" fill="#2E2221"/>
<path d="M0.665853 40.531C2.24125 38.3549 4.0707 36.3748 6.11536 34.6329C7.13493 33.7683 8.2033 32.9632 9.31518 32.2213C10.4338 31.4522 11.6175 30.7825 12.8529 30.2201C15.3076 29.1378 17.9862 28.531 20.669 28.6914C23.0283 28.8184 25.3063 29.5965 27.2506 30.9397C27.7001 31.2441 28.1302 31.5761 28.5386 31.9338C28.9688 32.3086 29.3726 32.7127 29.7472 33.1432C29.9219 33.3469 30.0851 33.5564 30.2425 33.7746C30.3252 33.8995 30.4174 34.0178 30.5183 34.1286C30.6164 34.2209 30.7036 34.3242 30.7782 34.4364C31.0921 34.907 31.3499 35.4128 31.5464 35.9434C31.6388 36.2049 31.7182 36.4722 31.7875 36.741C31.8569 37.0097 32.2684 36.8855 32.1976 36.6167C32.0434 36.0501 31.8539 35.4937 31.6302 34.9507C31.519 34.6748 31.3948 34.4031 31.2619 34.1373C31.2068 34.0227 31.1586 33.905 31.1175 33.7847C31.0606 33.6343 30.986 33.4912 30.8952 33.3584C30.2559 32.3552 29.4653 31.4569 28.5516 30.6955C26.6391 29.136 24.3139 28.1679 21.8603 27.9097C19.0792 27.599 16.2375 28.1264 13.6629 29.1913C11.0884 30.2562 8.81124 31.8774 6.67995 33.6662C4.58916 35.406 2.71926 37.3955 1.11204 39.5904C0.906997 39.8707 0.707247 40.1548 0.512794 40.4429C0.44926 40.5368 0.600875 40.6163 0.665853 40.5267V40.531Z" fill="#2E2221"/>
<path d="M67.4028 40.443C65.8615 38.1823 64.0455 36.122 61.9966 34.3093C60.968 33.4 59.8927 32.5449 58.7751 31.7475C57.6468 30.928 56.4474 30.2114 55.1912 29.6061C52.6729 28.4199 49.8948 27.7277 47.105 27.8303C44.5939 27.9135 42.1593 28.7158 40.0903 30.1422C39.1088 30.8319 38.2444 31.6749 37.5301 32.639C37.3453 32.8875 37.1663 33.1404 37.0002 33.4019C36.867 33.6532 36.748 33.9118 36.6435 34.1764C36.3931 34.6997 36.1732 35.2372 35.9851 35.786C35.884 36.0635 35.7974 36.3452 35.7223 36.6313C35.7106 36.6859 35.7206 36.7429 35.7502 36.7903C35.7797 36.8377 35.8265 36.8717 35.8807 36.8853C35.9348 36.8988 35.9921 36.8907 36.0404 36.8627C36.0887 36.8347 36.1243 36.7891 36.1396 36.7353C36.2753 36.1837 36.476 35.6502 36.7374 35.1459C36.8688 34.8945 37.0132 34.6489 37.1706 34.4105C37.2387 34.3132 37.3171 34.2235 37.4045 34.1432C37.5168 34.0162 37.62 33.8815 37.7135 33.74C38.0402 33.305 38.3983 32.8945 38.7849 32.5119C39.1706 32.1184 39.5842 31.7534 40.0224 31.4195C41.8851 30.0078 43.9644 29.073 46.3036 28.7869C48.9793 28.4589 51.6679 28.8866 54.1761 29.8489C56.6843 30.8112 58.983 32.3399 61.0667 34.0247C63.1568 35.7066 65.0413 37.6296 66.6808 39.7538C66.8801 40.0139 67.0764 40.2783 67.267 40.5441C67.332 40.6337 67.4807 40.5441 67.4114 40.4517L67.4028 40.443Z" fill="#2E2221"/>
<path d="M0.758192 40.383C4.94568 33.4806 10.3273 27.032 17.0215 22.4386C20.2257 20.2394 23.5973 18.5373 27.4036 17.7802C30.8388 17.0996 34.4949 17.0736 37.9561 17.5736C42.7381 18.2468 47.3075 19.9881 51.3257 22.6683C53.8088 24.3554 56.0771 26.339 58.0806 28.5752C60.5526 31.2916 62.4717 34.3389 64.4513 37.4079C65.0289 38.2951 65.6065 39.1779 66.174 40.0709C66.5769 40.7038 67.7234 40.2558 67.4187 39.5088C64.7185 32.8882 59.8913 26.86 54.1559 22.5947C49.9554 19.4693 45.1037 17.2774 39.9314 16.3916C36.0457 15.7241 32.1528 15.8772 28.2902 16.5896C24.9301 17.2095 21.9989 18.4275 19.0676 20.2279C12.0789 24.5077 6.41708 30.7758 2.05343 37.668C1.5182 38.5147 1.00078 39.3725 0.501167 40.2414C0.407309 40.4061 0.661446 40.5434 0.758192 40.3859V40.383Z" fill="#2E2221"/>
<path d="M12.8541 25.1669C12.8243 22.4433 13.1451 19.7271 13.8086 17.0855C14.1422 15.7559 14.5831 14.4555 15.1269 13.1972C15.3886 12.5768 15.6846 11.9714 16.0135 11.3839C16.35 10.8059 16.7774 10.264 17.0792 9.66296L16.4193 9.7641C17.5817 11.0559 18.4957 12.7262 19.3245 14.2433C20.1724 15.8012 20.8794 17.4318 21.437 19.1156C21.6277 19.6936 22.5171 19.4291 22.3439 18.8411C21.8402 17.0919 21.1433 15.4045 20.266 13.8099C19.3491 12.1554 18.1491 10.7755 17.0748 9.23815C17.0339 9.17947 16.9791 9.13183 16.9153 9.0995C16.8515 9.06716 16.7807 9.05114 16.7092 9.05286C16.6377 9.05458 16.5677 9.07398 16.5056 9.10934C16.4434 9.1447 16.3909 9.19491 16.3529 9.25549C15.6395 10.3233 15.1977 11.7118 14.7298 12.901C14.2007 14.2312 13.7546 15.593 13.3942 16.9786C12.7035 19.6533 12.4115 22.4154 12.5278 25.1756C12.529 25.2204 12.5479 25.2629 12.5803 25.2938C12.6128 25.3247 12.6563 25.3414 12.7011 25.3403C12.7459 25.3391 12.7884 25.3202 12.8193 25.2877C12.8501 25.2552 12.8668 25.2117 12.8657 25.1669H12.8541Z" fill="#2E2221"/>
<path d="M59.5853 29.1858C59.973 27.0404 60.162 24.8638 60.1499 22.6836C60.1212 20.5865 59.8405 18.5005 59.3139 16.4705C58.3031 12.5894 56.4707 8.95692 54.2947 5.61193C53.6651 4.64528 52.9951 3.70608 52.3309 2.76544C51.6941 1.86815 51.0486 0.962182 50.2299 0.219493C50.1902 0.181832 50.1426 0.153472 50.0905 0.13646C50.0385 0.119448 49.9834 0.11421 49.9291 0.121122C49.8748 0.128034 49.8227 0.146925 49.7766 0.176431C49.7305 0.205937 49.6915 0.245321 49.6624 0.291739C48.1771 2.25521 46.875 4.35094 45.7724 6.55257C44.6658 8.76317 43.7615 11.0695 43.0708 13.4434C42.6439 14.9157 42.3016 16.4112 42.0455 17.9226C42.023 18.0149 42.0366 18.1123 42.0836 18.1948C42.1306 18.2773 42.2074 18.3386 42.2982 18.3662C42.3903 18.3911 42.4885 18.3787 42.5715 18.3316C42.6545 18.2846 42.7156 18.2067 42.7415 18.1148C43.8153 11.7727 46.4035 5.78382 50.2862 0.657304L49.7188 0.72955C50.4234 1.3682 50.9938 2.12823 51.5425 2.89693C52.1331 3.72631 52.7265 4.5528 53.2911 5.39808C54.4034 7.04788 55.4085 8.76751 56.3003 10.5463C58.0475 14.0734 59.2258 17.888 59.4034 21.8355C59.4888 24.2292 59.3165 26.6252 58.8893 28.982C58.8664 29.0741 58.8796 29.1715 58.9264 29.2541C58.9732 29.3367 59.0498 29.3981 59.1406 29.4256C59.2313 29.4507 59.3282 29.4397 59.4111 29.395C59.4939 29.3504 59.5564 29.2754 59.5853 29.1858Z" fill="#2E2221"/>
<path d="M55.5072 25.1667C55.6235 22.4061 55.3316 19.6434 54.6409 16.9682C54.2873 15.6227 53.8534 14.2997 53.3413 13.0063C52.8547 11.7492 52.3609 10.3953 51.675 9.23216C51.4974 8.93017 51.1089 8.99809 50.9328 9.25095C49.831 10.8288 48.6557 12.2708 47.7474 13.9802C46.8836 15.6303 46.1907 17.3646 45.6797 19.1558C45.5064 19.7468 46.4103 19.9592 46.5995 19.3856C47.1678 17.6597 47.8743 15.9825 48.712 14.3703C49.5336 12.791 50.4332 11.0845 51.6259 9.75667L50.9472 9.68586C51.6591 10.9227 52.4128 12.0584 52.9803 13.3805C53.4877 14.5851 53.9014 15.8271 54.2178 17.0954C54.8817 19.7364 55.2016 22.4522 55.1694 25.1754C55.1694 25.395 55.4971 25.382 55.5072 25.1667Z" fill="#2E2221"/>
<path d="M22.3628 36.7681L22.3426 36.7868L22.2762 36.8779L22.2343 36.9833C22.2191 37.0411 22.2191 37.1018 22.2343 37.1596C22.2351 37.1986 22.2466 37.2366 22.2675 37.2694C22.278 37.3058 22.298 37.3386 22.3253 37.3648C22.3454 37.397 22.3732 37.4238 22.4061 37.4428C22.4342 37.4689 22.4685 37.4873 22.5057 37.4963C22.5586 37.5224 22.6173 37.5344 22.6761 37.531L22.7917 37.5122L22.8956 37.4645L22.9837 37.3937L23.0501 37.3027L23.092 37.1972C23.1079 37.1395 23.1079 37.0786 23.092 37.0209C23.0917 36.9821 23.0807 36.9441 23.0602 36.9111C23.0418 36.8554 23.0089 36.8055 22.9649 36.7666L22.9462 36.7507C22.9096 36.7117 22.8632 36.6833 22.8119 36.6684C22.7623 36.6435 22.7069 36.6325 22.6516 36.6366L22.5418 36.6539C22.4738 36.6747 22.4122 36.7125 22.3628 36.7637V36.7681Z" fill="#FFD18C"/>
</svg>
