<svg width="74" height="47" viewBox="0 0 74 47" fill="none" xmlns="http://www.w3.org/2000/svg">
<path d="M17.5195 10.5453L11.4569 0.958008C11.4569 0.958008 7.67906 16.0927 7.25122 23.5351L17.5195 10.5453Z" fill="#BCBEC0"/>
<path d="M55.4329 10.5453L61.4944 0.958008C61.4944 0.958008 65.2721 16.0927 65.7 23.5351L55.4329 10.5453Z" fill="#BCBEC0"/>
<path d="M57.7603 12.7534L60.6364 8.20508C60.6364 8.20508 62.4285 15.3855 62.6312 18.9168L57.7603 12.7534Z" fill="#FED5EE"/>
<path d="M15.191 12.7534L12.3204 8.20508C12.3204 8.20508 10.5284 15.3866 10.3201 18.9168L15.191 12.7534Z" fill="#FED5EE"/>
<path d="M36.5909 6.21094C36.5909 6.21094 7.2467 6.45174 7.2467 25.5759C7.2467 44.7 23.3233 46.9311 36.3669 46.9311C49.4106 46.9311 65.9576 45.5457 65.9576 26.7631C65.9576 7.98056 41.7889 6.44166 36.5909 6.21094Z" fill="#BCBEC0"/>
<path d="M23.6672 28.6939C26.8688 28.6939 29.4643 26.0985 29.4643 22.8968C29.4643 19.6951 26.8688 17.0996 23.6672 17.0996C20.4655 17.0996 17.87 19.6951 17.87 22.8968C17.87 26.0985 20.4655 28.6939 23.6672 28.6939Z" fill="white"/>
<path d="M24.299 26.5554C26.733 26.5554 28.7062 24.7312 28.7062 22.4808C28.7062 20.2305 26.733 18.4062 24.299 18.4062C21.8649 18.4062 19.8917 20.2305 19.8917 22.4808C19.8917 24.7312 21.8649 26.5554 24.299 26.5554Z" fill="#00ABE9"/>
<path d="M34.2166 27.4367C34.2528 27.6953 34.3487 27.9419 34.4969 28.1569C34.645 28.372 34.8413 28.5495 35.07 28.6755C35.2753 28.7755 35.4994 28.8312 35.7276 28.8391C35.9559 28.8471 36.1832 28.8069 36.395 28.7214C36.5509 28.6517 36.691 28.5509 36.8065 28.4251C36.9221 28.2993 37.0107 28.1513 37.067 27.99C37.141 27.802 37.179 27.6018 37.179 27.3998C37.179 27.3626 37.1642 27.327 37.138 27.3008C37.1117 27.2745 37.0761 27.2598 37.039 27.2598C37.0018 27.2598 36.9662 27.2745 36.94 27.3008C36.9137 27.327 36.899 27.3626 36.899 27.3998C36.9014 27.5308 36.8825 27.6613 36.843 27.7862C36.7814 28.0415 36.6248 28.2638 36.4051 28.4078C36.2318 28.5006 36.0398 28.5533 35.8434 28.5618C35.647 28.5704 35.4512 28.5345 35.2705 28.4571C34.9943 28.3315 34.7725 28.1109 34.6455 27.8354C34.5703 27.6869 34.5193 27.5274 34.4943 27.3628C34.4697 27.1847 34.1998 27.2609 34.2244 27.4367H34.2166Z" fill="#221F20"/>
<path d="M15.5292 29.6317C16.7206 29.6317 17.6863 28.6659 17.6863 27.4745C17.6863 26.2832 16.7206 25.3174 15.5292 25.3174C14.3379 25.3174 13.3721 26.2832 13.3721 27.4745C13.3721 28.6659 14.3379 29.6317 15.5292 29.6317Z" fill="#FED5EE"/>
<path d="M56.6626 29.6317C57.854 29.6317 58.8198 28.6659 58.8198 27.4745C58.8198 26.2832 57.854 25.3174 56.6626 25.3174C55.4713 25.3174 54.5055 26.2832 54.5055 27.4745C54.5055 28.6659 55.4713 29.6317 56.6626 29.6317Z" fill="#FED5EE"/>
<path d="M25.765 21.8928C26.3718 21.8928 26.8637 21.4009 26.8637 20.794C26.8637 20.1872 26.3718 19.6953 25.765 19.6953C25.1582 19.6953 24.6663 20.1872 24.6663 20.794C24.6663 21.4009 25.1582 21.8928 25.765 21.8928Z" fill="white"/>
<path d="M48.2234 28.6939C51.4251 28.6939 54.0206 26.0985 54.0206 22.8968C54.0206 19.6951 51.4251 17.0996 48.2234 17.0996C45.0217 17.0996 42.4263 19.6951 42.4263 22.8968C42.4263 26.0985 45.0217 28.6939 48.2234 28.6939Z" fill="white"/>
<path d="M48.8551 26.5554C51.2892 26.5554 53.2623 24.7312 53.2623 22.4808C53.2623 20.2305 51.2892 18.4062 48.8551 18.4062C46.4211 18.4062 44.4479 20.2305 44.4479 22.4808C44.4479 24.7312 46.4211 26.5554 48.8551 26.5554Z" fill="#00ABE9"/>
<path d="M50.32 21.8928C50.9269 21.8928 51.4188 21.4009 51.4188 20.794C51.4188 20.1872 50.9269 19.6953 50.32 19.6953C49.7132 19.6953 49.2213 20.1872 49.2213 20.794C49.2213 21.4009 49.7132 21.8928 50.32 21.8928Z" fill="white"/>
<path d="M35.5874 23.6982C35.5874 23.6982 33.9858 23.8214 33.9858 24.685C33.9858 25.5485 35.3209 26.029 35.6916 26.029C36.0623 26.029 37.3963 25.3424 37.3963 24.8709C37.3963 24.3994 37.0659 23.6982 35.5874 23.6982Z" fill="#FED5EE"/>
<path d="M70.2137 21.7275L68.0017 22.3289L64.4759 23.2888L63.6662 23.5128C63.6304 23.5227 63.6 23.5465 63.5817 23.5789C63.5634 23.6112 63.5588 23.6495 63.5687 23.6853C63.5787 23.7211 63.6024 23.7514 63.6348 23.7697C63.6671 23.788 63.7054 23.7927 63.7412 23.7827L65.9521 23.1802L69.4779 22.2214L70.2877 21.9974C70.3224 21.9867 70.3516 21.9629 70.3691 21.931C70.3866 21.8992 70.391 21.8617 70.3814 21.8267C70.3718 21.7916 70.349 21.7616 70.3177 21.7431C70.2864 21.7246 70.2491 21.719 70.2137 21.7275Z" fill="#BCBEC0"/>
<path d="M63.6662 28.8161L65.8782 29.4175L69.404 30.3774L70.2137 30.6014C70.2483 30.6073 70.2839 30.6001 70.3135 30.5813C70.343 30.5624 70.3646 30.5333 70.3738 30.4994C70.383 30.4656 70.3793 30.4295 70.3634 30.3982C70.3475 30.367 70.3205 30.3427 70.2877 30.3303L68.0768 29.7289L64.551 28.7701L63.7412 28.5461C63.7054 28.5362 63.6671 28.5409 63.6348 28.5591C63.6024 28.5774 63.5787 28.6078 63.5687 28.6436C63.5588 28.6794 63.5634 28.7176 63.5817 28.75C63.6 28.7823 63.6304 28.8061 63.6662 28.8161Z" fill="#BCBEC0"/>
<path d="M71.7077 25.9004H63.3301C63.2929 25.9004 63.2573 25.9151 63.2311 25.9414C63.2048 25.9677 63.1901 26.0033 63.1901 26.0404C63.1901 26.0775 63.2048 26.1131 63.2311 26.1394C63.2573 26.1657 63.2929 26.1804 63.3301 26.1804H71.7077C71.7449 26.1804 71.7805 26.1657 71.8067 26.1394C71.833 26.1131 71.8477 26.0775 71.8477 26.0404C71.8477 26.0033 71.833 25.9677 71.8067 25.9414C71.7805 25.9151 71.7449 25.9004 71.7077 25.9004Z" fill="#BCBEC0"/>
<path d="M1.58742 24.0096L3.79944 24.611L7.32523 25.5697L8.13499 25.7937C8.17079 25.8037 8.20907 25.799 8.24141 25.7807C8.27376 25.7625 8.29753 25.7321 8.30748 25.6963C8.31743 25.6605 8.31275 25.6222 8.29448 25.5899C8.27621 25.5575 8.24583 25.5338 8.21003 25.5238L5.99802 24.9224L2.47223 23.9625L1.66246 23.7385C1.62667 23.7286 1.58839 23.7332 1.55604 23.7515C1.5237 23.7698 1.49993 23.8002 1.48998 23.836C1.48003 23.8718 1.48471 23.91 1.50298 23.9424C1.52125 23.9747 1.55163 23.9985 1.58742 24.0084V24.0096Z" fill="#BCBEC0"/>
<path d="M8.13499 30.5551L5.92298 31.1565L2.39719 32.1152L1.58742 32.3392C1.55163 32.3492 1.52125 32.373 1.50298 32.4053C1.48471 32.4376 1.48003 32.4759 1.48998 32.5117C1.49993 32.5475 1.5237 32.5779 1.55604 32.5962C1.58839 32.6144 1.62667 32.6191 1.66246 32.6092L3.87448 32.0077L7.40027 31.0479L8.21003 30.8239C8.24583 30.8139 8.27621 30.7902 8.29448 30.7578C8.31275 30.7255 8.31743 30.6872 8.30748 30.6514C8.29753 30.6156 8.27376 30.5852 8.24141 30.5669C8.20907 30.5487 8.17079 30.544 8.13499 30.5539V30.5551Z" fill="#BCBEC0"/>
<path d="M0.168321 28.1882H8.54599C8.58312 28.1882 8.61873 28.1735 8.64498 28.1472C8.67124 28.1209 8.68599 28.0853 8.68599 28.0482C8.68599 28.0111 8.67124 27.9755 8.64498 27.9492C8.61873 27.923 8.58312 27.9082 8.54599 27.9082H0.168321C0.131191 27.9082 0.0955813 27.923 0.069326 27.9492C0.0430707 27.9755 0.0283203 28.0111 0.0283203 28.0482C0.0283203 28.0853 0.0430707 28.1209 0.069326 28.1472C0.0955813 28.1735 0.131191 28.1882 0.168321 28.1882Z" fill="#BCBEC0"/>
<path d="M30.3527 6.76106L35.7937 17.017L41.3444 6.50346C41.3444 6.50346 35.8015 5.52905 30.3527 6.76106Z" fill="#A7A9AB"/>
<path d="M50.1588 8.31753C50.1588 8.31753 48.3354 9.09033 46.8514 10.5374C44.9821 12.3619 43.3357 14.9289 43.3357 14.9289L42.9436 12.6755L42.2 8.41161L41.8796 6.57031C44.6838 6.91757 47.4534 7.50207 50.1588 8.31753Z" fill="#A7A9AB"/>
<path d="M29.4487 6.83984L29.1295 8.67106L28.5404 12.0557L28.0397 14.9285C24.7671 10.4922 21.6736 8.75954 21.6736 8.75954C24.2073 7.90413 26.808 7.262 29.4487 6.83984Z" fill="#A7A9AB"/>
</svg>
