<svg width="100" height="100" viewBox="0 0 100 100" fill="none" xmlns="http://www.w3.org/2000/svg">
<rect width="100" height="100" rx="50" fill="#F8F8F8"/>
<path d="M64.374 42.8125H35.624C34.8301 42.8125 34.1865 43.4561 34.1865 44.25V64.375C34.1865 65.1689 34.8301 65.8125 35.624 65.8125H64.374C65.1679 65.8125 65.8115 65.1689 65.8115 64.375V44.25C65.8115 43.4561 65.1679 42.8125 64.374 42.8125Z" stroke="#31348B" stroke-width="3" stroke-linecap="round" stroke-linejoin="round"/>
<path d="M43.5303 42.8125V36.3438C43.5303 34.6281 44.2118 32.9828 45.4249 31.7697C46.6381 30.5565 48.2834 29.875 49.999 29.875C51.7146 29.875 53.36 30.5565 54.5731 31.7697C55.7862 32.9828 56.4678 34.6281 56.4678 36.3438V42.8125" stroke="#31348B" stroke-width="3" stroke-linecap="round" stroke-linejoin="round"/>
</svg>
