<svg width="22" height="22" viewBox="0 0 22 22" fill="none" xmlns="http://www.w3.org/2000/svg">
<path d="M9.8895 0.791016H5.9807C2.76605 0.791016 0.750488 3.06279 0.750488 6.27896V14.9549C0.750488 18.1711 2.75664 20.4429 5.9807 20.4429H15.2054C18.4305 20.4429 20.4367 18.1711 20.4367 14.9549V10.7516" stroke="#606060" stroke-width="1.5" stroke-linecap="round" stroke-linejoin="round"/>
<path fill-rule="evenodd" clip-rule="evenodd" d="M7.1039 9.2762L14.9163 1.47787C15.8896 0.507378 17.4671 0.507378 18.4404 1.47787L19.7126 2.74785C20.6859 3.71938 20.6859 5.29511 19.7126 6.2656L11.8626 14.1015C11.4371 14.5262 10.8601 14.7652 10.2579 14.7652H6.3418L6.44007 10.8206C6.4547 10.2404 6.69201 9.68735 7.1039 9.2762Z" stroke="#606060" stroke-width="1.5" stroke-linecap="round" stroke-linejoin="round"/>
<path d="M13.7295 2.68262L18.5029 7.44739" stroke="#606060" stroke-width="1.5" stroke-linecap="round" stroke-linejoin="round"/>
</svg>
