<svg preserveAspectRatio="none" viewBox="0 0 1024 800" fill="none" xmlns="http://www.w3.org/2000/svg">
<g clip-path="url(#clip0)">
<rect width="518" height="653" fill="#FAB500"/>
<path d="M197.606 -21.885C176.134 21.3266 142.703 57.421 101.313 82.0812C70.3202 100.659 35.6944 112.31 -0.19989 116.239C-36.0941 120.169 -72.4113 116.284 -106.671 104.851C-110.291 103.639 -113.91 102.346 -117.529 100.972C-119.225 100.291 -120.393 98.6989 -119.877 96.8207C-119.429 95.1943 -117.448 93.813 -115.737 94.4662C-92.4205 103.461 -67.8805 108.867 -42.9507 110.499C3.6756 113.446 50.1701 102.962 91.0499 80.2823C131.93 57.6029 165.49 23.6743 187.774 -17.5026C189.162 -20.0658 190.506 -22.6608 191.804 -25.2875C193.738 -29.1731 199.54 -25.757 197.613 -21.885H197.606Z" fill="#31348B"/>
<path d="M104.49 99.0461C91.2119 99.0461 80.4475 88.2517 80.4475 74.9361C80.4475 61.6206 91.2119 50.8262 104.49 50.8262C117.769 50.8262 128.533 61.6206 128.533 74.9361C128.533 88.2517 117.769 99.0461 104.49 99.0461Z" fill="#0092D2"/>
<path d="M528.687 455.635C507.862 438.502 490.672 417.38 478.133 393.516C465.594 369.652 457.96 343.532 455.682 316.697C453.404 289.862 456.528 262.858 464.87 237.281C473.213 211.703 486.603 188.071 504.251 167.78C506.542 165.142 508.899 162.565 511.323 160.05C513.715 157.562 517.768 161.134 515.361 163.637C499.997 179.567 487.42 197.966 478.152 218.069C460.788 255.912 455.956 298.336 464.358 339.182C472.759 380.028 493.957 417.17 524.874 445.216C527.295 447.411 529.759 449.541 532.265 451.607C534.945 453.821 531.363 457.845 528.687 455.635Z" fill="#31348B"/>
<path d="M474.583 267.119C469.173 273.209 459.837 273.748 453.73 268.323C447.623 262.898 447.058 253.563 452.468 247.473C457.878 241.383 467.214 240.844 473.321 246.269C479.428 251.694 479.993 261.029 474.583 267.119Z" fill="#00A53F"/>
<path d="M181.537 341.026C184.837 338.908 189.183 341.125 189.251 344.962L190.518 415.803C190.585 419.545 186.511 422.03 183.141 420.303L121.078 388.489C117.715 386.765 117.529 382.115 120.741 380.053L181.537 341.026Z" fill="#E4032F"/>
<path d="M159.141 487.695C175.995 503.652 175.684 531.3 158.445 549.447L150.232 558.092C146.434 562.09 140.346 562.481 136.632 558.966L135.181 557.592C122.841 545.909 123.069 525.668 135.691 512.381L159.141 487.695Z" fill="#E4032F"/>
<g style="mix-blend-mode:multiply" opacity="0.56">
<path d="M156.254 482.227C171.583 496.739 171.3 521.884 155.621 538.389L148.152 546.252C144.698 549.888 139.16 550.244 135.783 547.046L134.463 545.797C123.24 535.172 123.448 516.762 134.927 504.678L156.254 482.227Z" fill="#31348B"/>
</g>
<path d="M80.4043 445.041C57.6986 440.731 35.1787 454.074 30.1045 474.845L25.7327 492.742C24.4266 498.089 28.1058 503.323 33.9506 504.432L34.3799 504.514C51.0037 507.67 67.4915 497.9 71.2065 482.693L80.4043 445.041Z" fill="#E4032F"/>
<path fill-rule="evenodd" clip-rule="evenodd" d="M67.0483 527.459C76.4273 518.124 88.421 510.599 102.222 506.118L103.517 510.956C105.866 519.73 105.937 528.775 104.06 537.582L104.976 536.24L107.23 542.304C113.83 560.056 102.663 581.44 83.1865 588.349C82.0346 583.989 81.8739 579.384 82.6475 574.829C73.404 583.761 61.7304 590.959 48.3605 595.3L47.0653 590.462C44.5422 581.038 44.6479 571.303 46.9707 561.884C44.3681 563.742 41.4688 565.297 38.3454 566.482L38.1656 565.714C33.4515 545.579 47.8093 524.842 70.8807 518.464L67.0483 527.459Z" fill="url(#paint0_linear)"/>
<path fill-rule="evenodd" clip-rule="evenodd" d="M70.4631 536.967C75.9619 531.494 82.9936 527.083 91.0849 524.456L91.8443 527.292C93.2215 532.436 93.2627 537.739 92.1628 542.902L92.699 542.116L94.0208 545.671C97.8901 556.079 91.3434 568.616 79.9244 572.667C79.249 570.11 79.1548 567.41 79.6084 564.74C74.1891 569.977 67.345 574.197 59.5065 576.742L58.7471 573.905C57.2679 568.38 57.3299 562.672 58.6917 557.151C57.1658 558.24 55.466 559.152 53.6348 559.846L53.5294 559.396C50.7656 547.591 59.1834 535.433 72.7099 531.694L70.4631 536.967Z" fill="#FAB500"/>
<path fill-rule="evenodd" clip-rule="evenodd" d="M118.536 382.698C105.163 394.146 92.2168 410.133 81.7594 429.255C65.0458 459.816 58.759 490.946 63.0547 512.688C56.2945 518.241 50.0638 525.694 45.1874 534.593C43.3013 538.035 41.7148 541.517 40.4233 544.985C45.0876 538.373 50.5099 532.851 56.2201 528.675L105.433 553.745C105.111 559.975 103.716 566.635 101.218 573.345C102.933 570.913 104.546 568.334 106.033 565.62C111.481 555.677 114.43 545.404 114.988 536.073C135.09 526.382 156.658 504.601 172.507 475.619C182.986 456.459 189.366 437.075 191.609 419.922L118.536 382.698Z" fill="white"/>
<path fill-rule="evenodd" clip-rule="evenodd" d="M98.6169 527.295C98.1737 533.874 96.5781 540.929 93.799 548.031L51.0132 526.238C50.9566 526.315 50.9001 526.392 50.8437 526.47L110.447 556.831C113.27 549.617 114.872 542.452 115.285 535.785L98.6169 527.295Z" fill="#E9E8E8"/>
<path fill-rule="evenodd" clip-rule="evenodd" d="M114.829 535.573C114.427 545.066 111.527 555.528 105.995 565.621C104.508 568.335 102.89 570.913 101.167 573.341C103.608 566.712 104.956 560.12 105.244 553.933L110.258 556.487C113.037 549.347 114.544 542.222 114.825 535.573L64.2628 509.815C64.2633 509.814 64.2638 509.814 64.2642 509.814L114.829 535.573ZM54.6895 527.932L54.6879 527.931C48.9152 532.071 43.4513 537.563 38.7705 544.155C38.7695 544.158 38.7685 544.161 38.7675 544.164C43.4492 537.568 48.9149 532.073 54.6895 527.932Z" fill="#E9E8E8"/>
<path fill-rule="evenodd" clip-rule="evenodd" d="M64.7122 519.181C65.4197 521.317 66.2523 523.33 67.2101 525.207L69.1206 521.707L86.3291 530.514L86.4445 530.303L64.7122 519.181ZM88.2571 531.501L102.605 538.844L101.58 540.722C124.97 535.867 153.02 511.149 172.465 475.595C182.943 456.436 189.324 437.053 191.568 419.9L175.369 411.648C173.091 428.729 166.723 448.002 156.304 467.054C137.639 501.181 111.047 525.324 88.2571 531.501Z" fill="#E9E8E8"/>
<g style="mix-blend-mode:hard-light">
<path fill-rule="evenodd" clip-rule="evenodd" d="M191.572 420.213L134.697 391.242C121.326 402.69 108.38 418.677 97.9224 437.798C79.4554 471.564 73.7159 506.025 80.9146 527.749L69.4876 521.901L67.4558 525.623C56.4909 504.738 61.3549 466.574 81.7636 429.257C92.2209 410.136 105.167 394.149 118.538 382.7L191.61 419.922C191.597 420.019 191.585 420.116 191.572 420.213ZM102.857 539.25L104.452 540.067C103.662 540.281 102.877 540.473 102.096 540.644L102.857 539.25Z" fill="#F8F8F8"/>
</g>
<path fill-rule="evenodd" clip-rule="evenodd" d="M95.5949 432.275C105.457 414.181 116.929 398.69 128.268 387.27L179.906 413.611C176.572 429.156 169.824 447.119 159.937 465.259C141.851 498.442 118.349 522.874 100.18 529.484L100.66 528.607L76.8656 516.456L75.3813 519.169C69.1398 501.57 76.5314 467.25 95.5949 432.275Z" fill="#E8F7FE"/>
<ellipse rx="20.7543" ry="22.8992" transform="matrix(0.882109 0.449713 -0.475256 0.867151 133.647 439.714)" fill="#FAB500"/>
<ellipse rx="17.2952" ry="19.0826" transform="matrix(0.882109 0.449713 -0.475256 0.867151 133.273 439.829)" fill="#0092D2"/>
<ellipse rx="25.8098" ry="28.4772" transform="matrix(0.882109 0.449713 -0.475256 0.867151 136.352 435.192)" fill="#FAB500"/>
<g style="mix-blend-mode:hard-light">
<ellipse rx="24.7455" ry="27.3028" transform="matrix(0.882109 0.449713 -0.475256 0.867151 136.813 436.689)" fill="#FAB500"/>
</g>
<ellipse rx="19.956" ry="22.0184" transform="matrix(0.882109 0.449713 -0.475256 0.867151 136.35 435.192)" fill="#0092D2"/>
<g style="mix-blend-mode:soft-light">
<ellipse rx="17.8274" ry="19.6698" transform="matrix(0.882109 0.449713 -0.475256 0.867151 137.045 437.437)" fill="#0092D2"/>
</g>
<g style="mix-blend-mode:hard-light">
<path d="M146.487 432.645C145.224 434.95 141.342 437.14 139.269 436.083C137.196 435.025 136.54 432.299 137.802 429.994C139.064 427.689 142.041 423.257 144.113 424.314C146.186 425.372 147.749 430.34 146.487 432.645Z" fill="#0092D2"/>
</g>
<g style="mix-blend-mode:hard-light">
<ellipse rx="2.12864" ry="2.34863" transform="matrix(0.882109 0.449713 -0.475256 0.867151 140.816 440.372)" fill="#0092D2"/>
</g>
<path fill-rule="evenodd" clip-rule="evenodd" d="M95.2091 546.594C97.9806 540.353 100.091 534.382 101.482 529.003L77.9491 516.981C74.1578 521.138 70.2695 526.206 66.5256 531.956L95.2091 546.594Z" fill="#E8F7FE"/>
<g style="mix-blend-mode:soft-light">
<path d="M161.412 362.112C156.92 365.098 132.761 381.66 131.619 379.915C130.477 378.169 154.695 361.981 159.187 358.995C163.68 356.009 183.2 342.376 184.342 344.122C185.485 345.868 165.904 359.126 161.412 362.112Z" fill="white"/>
</g>
<path d="M104.223 479.808C106.024 476.011 110.672 474.45 114.411 476.388C118.159 478.33 119.457 482.991 117.252 486.59L87.9365 534.431C86.7286 536.403 84.1768 537.113 82.1237 536.049C80.0652 534.982 79.2284 532.506 80.2201 530.415L104.223 479.808Z" fill="#E4032F"/>
<circle cx="495.224" cy="60.2237" r="30.026" transform="rotate(-15 495.224 60.2237)" fill="#00A53F" stroke="#00A53F" stroke-width="4"/>
<circle cx="336.893" cy="354.893" r="25.5" transform="rotate(-59.6289 336.893 354.893)" fill="#0092D2"/>
<circle cx="283.208" cy="581.208" r="52.7695" transform="rotate(-59.6289 283.208 581.208)" fill="#31348B"/>
<circle cx="302" cy="101" r="15" fill="#E4032F" stroke="#E4032F" stroke-width="4"/>
<circle cx="8.89337" cy="310.893" r="25.5" transform="rotate(-59.6289 8.89337 310.893)" fill="#31348B"/>
<circle cx="498.893" cy="473.893" r="25.5" transform="rotate(-59.6289 498.893 473.893)" fill="#E4032F"/>
</g>
<defs>
<linearGradient id="paint0_linear" x1="104.612" y1="507.143" x2="63.9249" y2="601.977" gradientUnits="userSpaceOnUse">
<stop stop-color="#FAB500"/>
<stop offset="1" stop-color="#E4032F"/>
</linearGradient>
<clipPath id="clip0">
<rect width="518" height="653" fill="white"/>
</clipPath>
</defs>
</svg>
