<svg width="153" height="163" viewBox="0 0 153 163" fill="none" xmlns="http://www.w3.org/2000/svg">
<path d="M33.1709 33.7995C45.1079 23.9964 60.0756 18.6373 75.5221 18.636C112.246 18.5767 142.403 48.4595 142.662 85.1835C142.754 97.915 139.218 110.409 132.468 121.205C125.718 132 116.033 140.649 104.546 146.141C93.0598 151.633 80.2468 153.739 67.6066 152.214C54.9664 150.689 43.0219 145.596 33.1709 137.53C32.2701 136.8 31.1249 136.44 29.9681 136.524C28.8114 136.607 27.7301 137.129 26.9441 137.982C26.5185 138.441 26.1917 138.983 25.9839 139.574C25.7761 140.165 25.6919 140.792 25.7363 141.416C25.7807 142.041 25.9529 142.65 26.2421 143.205C26.5314 143.761 26.9316 144.251 27.418 144.645C40.8871 155.696 57.7518 161.77 75.1741 161.845C117.207 162.097 151.724 127.86 151.806 85.8277C151.836 71.3887 147.762 57.2386 140.058 45.0265C132.354 32.8145 121.338 23.0436 108.293 16.8527C95.2488 10.6619 80.7134 8.306 66.3813 10.0598C52.0492 11.8135 38.5107 17.6047 27.3439 26.7582C26.8515 27.1639 26.4494 27.6681 26.1634 28.2384C25.8773 28.8087 25.7137 29.4325 25.683 30.0697C25.6523 30.707 25.7553 31.3437 25.9852 31.9388C26.2151 32.5339 26.567 33.0744 27.0182 33.5255C27.8265 34.3272 28.9043 34.7994 30.0417 34.85C31.179 34.9007 32.2945 34.5262 33.1709 33.7995Z" fill="white"/>
<path d="M151.918 49.1777C152.045 49.1229 152.16 49.0436 152.256 48.9443C152.353 48.845 152.428 48.7277 152.479 48.5991C152.53 48.4705 152.555 48.3331 152.553 48.1948C152.551 48.0565 152.521 47.92 152.466 47.7931C150.822 43.9718 148.876 40.2878 146.646 36.7759C142.24 29.8393 136.791 23.6235 130.491 18.3472C117.542 7.50518 101.446 1.12125 84.5857 0.140677C83.2234 0.0592324 81.8536 0 80.4839 0C79.1141 0 79.0031 2.09534 80.3802 2.11015C89.0719 2.16823 97.6919 3.6875 105.88 6.60441C115.811 10.1762 124.902 15.7502 132.589 22.9806C140.277 30.211 146.397 38.9437 150.571 48.6372C150.683 48.8924 150.891 49.0927 151.151 49.194C151.411 49.2954 151.7 49.2895 151.955 49.1777H151.918Z" fill="white"/>
<path d="M120.849 19.0284C124.043 19.0284 126.632 16.4394 126.632 13.2458C126.632 10.0522 124.043 7.46326 120.849 7.46326C117.655 7.46326 115.066 10.0522 115.066 13.2458C115.066 16.4394 117.655 19.0284 120.849 19.0284Z" fill="white"/>
<path d="M35.037 162.437C34.9716 162.56 34.8826 162.67 34.7749 162.758C34.6672 162.847 34.5431 162.914 34.4096 162.954C34.2761 162.995 34.1359 163.009 33.9971 162.995C33.8583 162.981 33.7235 162.94 33.6006 162.874C32.5048 162.289 31.3794 161.675 30.3502 161.038C17.3545 153.323 6.85843 142.025 0.119518 128.497C-0.48021 127.283 1.34119 126.217 1.94832 127.431C2.35554 128.253 2.77757 129.06 3.21441 129.867C6.73214 136.367 11.1739 142.322 16.401 147.548C21.5275 152.66 27.3472 157.027 33.6895 160.519L34.6076 161.016C34.8513 161.149 35.033 161.372 35.1133 161.638C35.1936 161.904 35.1662 162.191 35.037 162.437Z" fill="white"/>
<path d="M13.3572 154.115C17.5241 154.115 20.9019 150.737 20.9019 146.571C20.9019 142.404 17.5241 139.026 13.3572 139.026C9.19039 139.026 5.8125 142.404 5.8125 146.571C5.8125 150.737 9.19039 154.115 13.3572 154.115Z" fill="white"/>
<path d="M13.6318 109.935C12.3157 109.933 11.0117 109.682 9.78912 109.195V112.897C9.77942 113.72 9.44642 114.507 8.86192 115.087C8.27743 115.668 7.48827 115.995 6.66462 115.999H6.38326C5.60722 115.961 4.87503 115.628 4.33676 115.068C3.79849 114.507 3.49492 113.763 3.48828 112.986V92.9354C3.48828 92.1499 3.80031 91.3966 4.35572 90.8412C4.91113 90.2858 5.66443 89.9738 6.4499 89.9738C6.86649 89.9678 7.27966 90.0498 7.66241 90.2144C8.04517 90.3789 8.38888 90.6224 8.67111 90.9289C10.1919 90.1032 11.8939 89.6681 13.6244 89.6628C16.3147 89.6628 18.8947 90.7315 20.797 92.6338C22.6993 94.5361 23.768 97.1161 23.768 99.8064C23.768 102.497 22.6993 105.077 20.797 106.979C18.8947 108.881 16.3147 109.95 13.6244 109.95L13.6318 109.935ZM13.6318 95.9489C12.8718 95.9489 12.1289 96.1742 11.4969 96.5965C10.865 97.0187 10.3725 97.6189 10.0816 98.321C9.79079 99.0232 9.71469 99.7958 9.86296 100.541C10.0112 101.287 10.3772 101.971 10.9146 102.509C11.452 103.046 12.1367 103.412 12.8821 103.56C13.6276 103.709 14.4002 103.633 15.1024 103.342C15.8045 103.051 16.4047 102.558 16.8269 101.926C17.2492 101.295 17.4745 100.552 17.4745 99.7916C17.4775 99.2861 17.3801 98.7851 17.188 98.3175C16.9959 97.85 16.713 97.4252 16.3556 97.0678C15.9982 96.7104 15.5734 96.4274 15.1058 96.2354C14.6383 96.0433 14.1373 95.9459 13.6318 95.9489Z" fill="white"/>
<path d="M56.2719 92.7725V106.618C56.2719 107.404 55.9598 108.157 55.4044 108.712C54.849 109.268 54.0957 109.58 53.3102 109.58C52.4738 109.569 51.6753 109.229 51.089 108.632C49.5679 109.457 47.8661 109.892 46.1357 109.898C43.4455 109.898 40.8654 108.829 38.9632 106.927C37.0609 105.025 35.9922 102.445 35.9922 99.7545C35.9922 97.0643 37.0609 94.4842 38.9632 92.582C40.8654 90.6797 43.4455 89.611 46.1357 89.611C47.839 89.6263 49.5123 90.0612 51.0076 90.8771C51.2765 90.5252 51.6243 90.2414 52.023 90.0484C52.4216 89.8555 52.86 89.759 53.3028 89.7665C53.6962 89.7654 54.0857 89.8428 54.4488 89.9939C54.8119 90.1451 55.1413 90.3671 55.4177 90.6469C55.6941 90.9267 55.912 91.2588 56.0586 91.6238C56.2053 91.9887 56.2778 92.3792 56.2719 92.7725ZM49.971 99.7915C49.9681 99.031 49.74 98.2884 49.3155 97.6574C48.891 97.0263 48.2891 96.5352 47.5858 96.2458C46.8824 95.9565 46.1092 95.8819 45.3635 96.0315C44.6178 96.1811 43.9332 96.5483 43.3959 97.0865C42.8586 97.6248 42.4928 98.3102 42.3446 99.0561C42.1965 99.8021 42.2725 100.575 42.5632 101.278C42.8539 101.981 43.3462 102.582 43.9781 103.005C44.6099 103.428 45.353 103.655 46.1135 103.656C46.6209 103.659 47.1237 103.561 47.5927 103.368C48.0617 103.174 48.4875 102.89 48.8453 102.53C49.203 102.17 49.4854 101.743 49.6762 101.272C49.8669 100.802 49.9621 100.299 49.9562 99.7915H49.971Z" fill="white"/>
<path d="M76.6327 98.3629V106.507C76.6307 107.337 76.2999 108.131 75.7128 108.717C75.1256 109.303 74.3301 109.632 73.5008 109.632C72.673 109.63 71.8788 109.305 71.288 108.725C70.6972 108.145 70.3567 107.357 70.3393 106.53V98.3851C70.3412 98.0676 70.2801 97.7528 70.1595 97.4591C70.0389 97.1653 69.8612 96.8985 69.6367 96.6739C69.4122 96.4494 69.1453 96.2717 68.8516 96.1511C68.5578 96.0305 68.2431 95.9694 67.9255 95.9714C67.6056 95.9684 67.2883 96.0285 66.9916 96.1483C66.695 96.268 66.4248 96.445 66.1965 96.6691C65.9683 96.8932 65.7864 97.1601 65.6613 97.4546C65.5362 97.749 65.4703 98.0652 65.4674 98.3851V106.53C65.4674 107.36 65.1374 108.157 64.5501 108.744C63.9627 109.331 63.1661 109.661 62.3355 109.661C61.5049 109.661 60.7082 109.331 60.1209 108.744C59.5335 108.157 59.2036 107.36 59.2036 106.53V92.8543C59.1967 92.461 59.2682 92.0703 59.414 91.705C59.5597 91.3396 59.7768 91.007 60.0525 90.7265C60.3282 90.446 60.657 90.2232 61.0197 90.0711C61.3825 89.919 61.7719 89.8407 62.1652 89.8408C62.8534 89.8536 63.5188 90.0901 64.0606 90.5146C65.2628 89.9409 66.5787 89.6448 67.9107 89.6483C69.056 89.6464 70.1905 89.8704 71.2491 90.3076C72.3077 90.7447 73.2696 91.3864 74.0798 92.1959C74.89 93.0055 75.5326 93.9669 75.9706 95.0251C76.4087 96.0833 76.6337 97.2176 76.6327 98.3629Z" fill="white"/>
<path d="M96.1121 102.087H85.5688C86.3777 103.28 87.613 104.117 89.0204 104.427C90.4279 104.737 91.9006 104.496 93.1357 103.753C93.4399 103.568 93.778 103.446 94.1301 103.394C94.4822 103.341 94.8412 103.36 95.1861 103.448C95.5309 103.536 95.8546 103.693 96.1383 103.908C96.4219 104.123 96.6597 104.392 96.8377 104.701C97.1912 105.32 97.29 106.053 97.1131 106.743C96.9362 107.434 96.4976 108.029 95.89 108.403C94.1627 109.387 92.2064 109.897 90.2185 109.883C88.2124 109.92 86.2368 109.389 84.5195 108.351C82.8021 107.314 81.4128 105.812 80.5118 104.019C79.9236 102.729 79.6093 101.33 79.589 99.9115C79.5686 98.4932 79.8425 97.086 80.3933 95.7788C81.2597 93.7289 82.7785 92.0223 84.7139 90.9239C86.6494 89.8254 88.8933 89.3965 91.0974 89.7036C93.3016 90.0108 95.3427 91.0369 96.9041 92.6226C98.4654 94.2084 99.4597 96.2652 99.7327 98.4738C99.9548 100.902 98.3704 102.087 96.1121 102.087ZM93.691 97.5705C93.4272 96.7066 92.8909 95.9512 92.1622 95.4174C91.4336 94.8836 90.5517 94.5999 89.6484 94.6089C88.7471 94.6082 87.8691 94.895 87.142 95.4276C86.415 95.9603 85.8768 96.711 85.6058 97.5705H93.691Z" fill="white"/>
<path d="M114.452 120.471C114.452 121.312 114.118 122.119 113.524 122.714C112.93 123.31 112.124 123.645 111.283 123.647H110.691C106.012 123.647 102.68 119.945 102.68 115.37V92.8168C102.719 92.0019 103.071 91.2334 103.661 90.6706C104.252 90.1078 105.036 89.7938 105.852 89.7938C106.668 89.7938 107.453 90.1078 108.043 90.6706C108.634 91.2334 108.986 92.0019 109.025 92.8168V95.9487H111.913C112.643 95.9487 113.344 96.2389 113.86 96.7555C114.377 97.272 114.667 97.9726 114.667 98.703C114.667 99.4335 114.377 100.134 113.86 100.651C113.344 101.167 112.643 101.457 111.913 101.457H109.025V115.362C109.025 116.354 109.536 117.302 110.691 117.302H111.283C112.122 117.306 112.926 117.641 113.52 118.234C114.113 118.828 114.448 119.632 114.452 120.471Z" fill="white"/>
<path d="M29.8692 109.617C29.0208 109.6 28.2138 109.247 27.6242 108.637C27.0347 108.027 26.7105 107.208 26.7225 106.359V50.6365C26.7018 50.21 26.7679 49.7836 26.9169 49.3834C27.0659 48.9832 27.2946 48.6173 27.5892 48.3081C27.8838 47.9989 28.2381 47.7528 28.6306 47.5846C29.0232 47.4164 29.4458 47.3296 29.8729 47.3296C30.2999 47.3296 30.7226 47.4164 31.1151 47.5846C31.5077 47.7528 31.862 47.9989 32.1565 48.3081C32.4511 48.6173 32.6798 48.9832 32.8288 49.3834C32.9778 49.7836 33.044 50.21 33.0233 50.6365V106.359C33.0352 107.209 32.71 108.029 32.1189 108.639C31.5277 109.25 30.7188 109.602 29.8692 109.617Z" fill="white"/>
<path d="M39.1466 78.7716C38.3029 78.7696 37.4942 78.4336 36.8975 77.8369C36.3009 77.2403 35.9648 76.4316 35.9629 75.5878V61.8311C35.9629 60.9867 36.2983 60.1769 36.8954 59.5799C37.4925 58.9828 38.3022 58.6474 39.1466 58.6474C39.991 58.6474 40.8008 58.9828 41.3979 59.5799C41.9949 60.1769 42.3304 60.9867 42.3304 61.8311V75.5878C42.3284 76.4316 41.9924 77.2403 41.3957 77.8369C40.7991 78.4336 39.9904 78.7696 39.1466 78.7716ZM41.8491 55.0268C41.8535 55.5676 41.6969 56.0974 41.3992 56.5489C41.1015 57.0003 40.6762 57.353 40.1774 57.562C39.6786 57.7709 39.129 57.8268 38.5984 57.7223C38.0678 57.6179 37.5802 57.358 37.1979 56.9756C36.8155 56.5932 36.5555 56.1057 36.4511 55.5751C36.3467 55.0445 36.4025 54.4948 36.6115 53.996C36.8205 53.4972 37.1731 53.0719 37.6246 52.7743C38.076 52.4766 38.6059 52.3199 39.1466 52.3243C39.8604 52.3339 40.5422 52.6217 41.047 53.1265C41.5517 53.6312 41.8395 54.313 41.8491 55.0268Z" fill="white"/>
<path d="M62.7731 67.4361V75.6324C62.7731 76.4709 62.44 77.2751 61.8471 77.868C61.2542 78.4609 60.4501 78.7939 59.6116 78.7939C58.7731 78.7939 57.969 78.4609 57.3761 77.868C56.7832 77.2751 56.4501 76.4709 56.4501 75.6324V67.4361C56.452 67.1195 56.3915 66.8056 56.2719 66.5124C56.1523 66.2193 55.976 65.9526 55.7531 65.7277C55.5303 65.5027 55.2652 65.324 54.9732 65.2017C54.6811 65.0794 54.3678 65.016 54.0512 65.015C53.7303 65.0121 53.412 65.0724 53.1144 65.1925C52.8169 65.3126 52.5459 65.4901 52.3169 65.7149C52.088 65.9397 51.9056 66.2075 51.7801 66.5028C51.6546 66.7981 51.5885 67.1153 51.5856 67.4361V75.6324C51.5464 76.4396 51.1982 77.2008 50.613 77.7582C50.0279 78.3156 49.2507 78.6266 48.4426 78.6266C47.6345 78.6266 46.8573 78.3156 46.2721 77.7582C45.687 77.2008 45.3388 76.4396 45.2996 75.6324V61.9127C45.2907 61.5182 45.3607 61.1259 45.5056 60.7589C45.6505 60.3918 45.8672 60.0574 46.1431 59.7753C46.419 59.4932 46.7485 59.2691 47.1122 59.1161C47.476 58.9631 47.8666 58.8844 48.2612 58.8845C48.9554 58.8961 49.6265 59.1355 50.1714 59.5656C51.3821 58.985 52.7085 58.6863 54.0512 58.692C56.3658 58.6998 58.5831 59.6243 60.2177 61.2631C61.8523 62.9019 62.7712 65.1215 62.7731 67.4361Z" fill="white"/>
<path d="M86.074 61.7938V76.9425C86.0623 79.6244 84.9897 82.1927 83.0905 84.0864C81.1913 85.98 78.6198 87.0451 75.9379 87.049C74.4507 87.0553 72.9809 86.729 71.6361 86.0939C70.9076 85.7502 70.3454 85.1313 70.0733 84.3731C69.8011 83.615 69.8413 82.7798 70.1849 82.0513C70.5286 81.3227 71.1475 80.7606 71.9057 80.4884C72.6638 80.2163 73.499 80.2564 74.2275 80.6001C74.7356 80.8389 75.2877 80.9695 75.8489 80.9836C76.4101 80.9976 76.9681 80.8949 77.4875 80.6819C78.0068 80.4688 78.4763 80.1501 78.8659 79.746C79.2556 79.3419 79.557 78.8612 79.751 78.3344C78.5244 78.8259 77.2148 79.0772 75.8935 79.0748C73.1934 79.0748 70.6039 78.0022 68.6947 76.093C66.7855 74.1838 65.7129 71.5943 65.7129 68.8943C65.7129 66.1942 66.7855 63.6048 68.6947 61.6955C70.6039 59.7863 73.1934 58.7137 75.8935 58.7137C77.545 58.712 79.171 59.1217 80.6246 59.9058C81.0181 59.4119 81.5548 59.052 82.161 58.8753C82.7672 58.6987 83.4132 58.7141 84.0104 58.9194C84.6075 59.1246 85.1264 59.5097 85.4959 60.0217C85.8654 60.5337 86.0674 61.1476 86.074 61.779V61.7938ZM79.6695 68.9091C79.6739 68.156 79.4543 67.4186 79.0387 66.7906C78.623 66.1625 78.03 65.6723 77.3351 65.382C76.6401 65.0918 75.8746 65.0147 75.1357 65.1606C74.3969 65.3064 73.7181 65.6686 73.1855 66.2012C72.653 66.7337 72.2908 67.4125 72.1449 68.1514C71.9991 68.8902 72.0762 69.6558 72.3664 70.3507C72.6566 71.0456 73.1469 71.6386 73.7749 72.0543C74.4029 72.47 75.1404 72.6895 75.8935 72.6851C76.8949 72.6851 77.8554 72.2873 78.5635 71.5792C79.2717 70.871 79.6695 69.9106 79.6695 68.9091Z" fill="white"/>
<path d="M97.7945 78.9046C95.4642 78.9026 93.2299 77.9761 91.5821 76.3283C89.9344 74.6806 89.0078 72.4463 89.0059 70.116V61.8457C89.0059 61.0072 89.3389 60.203 89.9319 59.6101C90.5248 59.0172 91.3289 58.6842 92.1674 58.6842C93.0059 58.6842 93.81 59.0172 94.4029 59.6101C94.9958 60.203 95.3289 61.0072 95.3289 61.8457V70.116C95.3289 70.7699 95.5887 71.397 96.0511 71.8594C96.5134 72.3218 97.1406 72.5815 97.7945 72.5815C98.4484 72.5815 99.0755 72.3218 99.5379 71.8594C100 71.397 100.26 70.7699 100.26 70.116V61.8457C100.26 61.0072 100.593 60.203 101.186 59.6101C101.779 59.0172 102.583 58.6842 103.422 58.6842C104.26 58.6842 105.064 59.0172 105.657 59.6101C106.25 60.203 106.583 61.0072 106.583 61.8457V70.116C106.581 72.4463 105.655 74.6806 104.007 76.3283C102.359 77.9761 100.125 78.9026 97.7945 78.9046Z" fill="white"/>
<path d="M129.891 61.8531V75.7727C129.879 76.5546 129.564 77.3013 129.011 77.8542C128.458 78.4072 127.711 78.7229 126.929 78.7344C126.092 78.7189 125.295 78.376 124.708 77.7792C123.183 78.6073 121.476 79.0449 119.74 79.0527C118.379 79.0894 117.025 78.8531 115.758 78.3578C114.49 77.8625 113.334 77.1182 112.359 76.1689C111.384 75.2196 110.609 74.0845 110.079 72.8306C109.55 71.5767 109.277 70.2295 109.277 68.8685C109.277 67.5075 109.55 66.1602 110.079 64.9064C110.609 63.6525 111.384 62.5174 112.359 61.568C113.334 60.6187 114.49 59.8744 115.758 59.3791C117.025 58.8838 118.379 58.6475 119.74 58.6842C121.448 58.7024 123.126 59.1397 124.627 59.9577C124.897 59.6042 125.248 59.3195 125.649 59.1265C126.05 58.9336 126.491 58.8378 126.937 58.8471C127.725 58.8607 128.476 59.1834 129.029 59.7457C129.581 60.3079 129.891 61.0648 129.891 61.8531ZM123.568 68.8574C123.568 68.0944 123.342 67.3486 122.918 66.7143C122.494 66.0799 121.891 65.5855 121.187 65.2935C120.482 65.0015 119.706 64.9251 118.958 65.074C118.209 65.2228 117.522 65.5902 116.983 66.1297C116.443 66.6692 116.076 67.3565 115.927 68.1048C115.778 68.8531 115.854 69.6287 116.146 70.3336C116.438 71.0384 116.933 71.6409 117.567 72.0648C118.202 72.4886 118.947 72.7149 119.71 72.7149C120.218 72.7178 120.721 72.6201 121.19 72.4272C121.659 72.2344 122.086 71.9504 122.445 71.5916C122.803 71.2328 123.087 70.8064 123.28 70.3371C123.473 69.8677 123.571 69.3648 123.568 68.8574Z" fill="white"/>
<path d="M84.3033 136.753C87.3088 136.753 89.7453 134.316 89.7453 131.311C89.7453 128.305 87.3088 125.869 84.3033 125.869C81.2978 125.869 78.8613 128.305 78.8613 131.311C78.8613 134.316 81.2978 136.753 84.3033 136.753Z" fill="white"/>
<path d="M9.78848 67.6875C13.6854 67.6875 16.8445 64.5284 16.8445 60.6314C16.8445 56.7345 13.6854 53.5754 9.78848 53.5754C5.89153 53.5754 2.73242 56.7345 2.73242 60.6314C2.73242 64.5284 5.89153 67.6875 9.78848 67.6875Z" fill="white"/>
</svg>
